0, 0, Header, 1, 19, 120
1, 0, Start_track
1, 0, Sequencer_specific, 8, 5, 15, 18, 0, 0, 127, 65, 0
1, 0, Sequencer_specific, 13, 5, 15, 28, 50, 48, 48, 51, 46, 49, 49, 46, 49, 50
1, 0, Sequencer_specific, 5, 5, 15, 9, 0, 64
1, 0, Sequencer_specific, 15, 5, 15, 6, 71, 101, 110, 101, 114, 97, 108, 32, 77, 73, 68, 73
1, 0, Title_t, "Darude - Sandstorm"
1, 0, Text_t, "2000 (C) by Izzet Selanik from Toplist-Team.com\012"
1, 0, Copyright_t, "2000 (C) by Izzet Selanik and Arne Mulder from Toplist-Team.com"
1, 0, Program_c, 0, 0
1, 0, Channel_prefix, 0
1, 0, Tempo, 600000
1, 0, End_track
2, 0, Start_track
2, 0, Sequencer_specific, 5, 5, 15, 9, 64, 72
2, 0, Sequencer_specific, 15, 5, 15, 6, 71, 101, 110, 101, 114, 97, 108, 32, 77, 73, 68, 73
2, 0, Program_c, 0, 119
2, 0, Channel_prefix, 0
2, 0, End_track
3, 0, Start_track
3, 0, Sequencer_specific, 5, 5, 15, 9, 0, 64
3, 0, Sequencer_specific, 15, 5, 15, 6, 71, 101, 110, 101, 114, 97, 108, 32, 77, 73, 68, 73
3, 0, Title_t, ""
3, 0, Control_c, 1, 91, 100
3, 125, Control_c, 1, 0, 2
3, 126, Control_c, 1, 32, 0
3, 127, Program_c, 1, 122
3, 128, Control_c, 1, 7, 90
3, 128, Control_c, 1, 10, 80
3, 480, Control_c, 1, 91, 100
3, 480, Control_c, 1, 11, 0
3, 720, Note_on_c, 1, 2, 127
3, 960, Control_c, 1, 11, 127
3, 1440, Control_c, 1, 11, 127
3, 1443, Control_c, 1, 11, 126
3, 1447, Control_c, 1, 11, 125
3, 1451, Control_c, 1, 11, 124
3, 1455, Control_c, 1, 11, 123
3, 1458, Control_c, 1, 11, 122
3, 1462, Control_c, 1, 11, 121
3, 1466, Control_c, 1, 11, 120
3, 1470, Control_c, 1, 11, 119
3, 1473, Control_c, 1, 11, 118
3, 1477, Control_c, 1, 11, 117
3, 1481, Control_c, 1, 11, 116
3, 1485, Control_c, 1, 11, 115
3, 1489, Control_c, 1, 11, 114
3, 1492, Control_c, 1, 11, 113
3, 1496, Control_c, 1, 11, 112
3, 1500, Control_c, 1, 11, 111
3, 1504, Control_c, 1, 11, 110
3, 1507, Control_c, 1, 11, 109
3, 1511, Control_c, 1, 11, 108
3, 1515, Control_c, 1, 11, 107
3, 1519, Control_c, 1, 11, 106
3, 1522, Control_c, 1, 11, 105
3, 1526, Control_c, 1, 11, 104
3, 1530, Control_c, 1, 11, 103
3, 1534, Control_c, 1, 11, 102
3, 1538, Control_c, 1, 11, 101
3, 1541, Control_c, 1, 11, 100
3, 1545, Control_c, 1, 11, 99
3, 1549, Control_c, 1, 11, 98
3, 1553, Control_c, 1, 11, 97
3, 1556, Control_c, 1, 11, 96
3, 1560, Control_c, 1, 11, 95
3, 1564, Control_c, 1, 11, 94
3, 1568, Control_c, 1, 11, 93
3, 1572, Control_c, 1, 11, 92
3, 1575, Control_c, 1, 11, 91
3, 1579, Control_c, 1, 11, 90
3, 1583, Control_c, 1, 11, 89
3, 1587, Control_c, 1, 11, 88
3, 1590, Control_c, 1, 11, 87
3, 1594, Control_c, 1, 11, 86
3, 1598, Control_c, 1, 11, 85
3, 1602, Control_c, 1, 11, 84
3, 1605, Control_c, 1, 11, 83
3, 1609, Control_c, 1, 11, 82
3, 1613, Control_c, 1, 11, 81
3, 1617, Control_c, 1, 11, 80
3, 1621, Control_c, 1, 11, 79
3, 1624, Control_c, 1, 11, 78
3, 1628, Control_c, 1, 11, 77
3, 1632, Control_c, 1, 11, 76
3, 1636, Control_c, 1, 11, 75
3, 1639, Control_c, 1, 11, 74
3, 1643, Control_c, 1, 11, 73
3, 1647, Control_c, 1, 11, 72
3, 1651, Control_c, 1, 11, 71
3, 1654, Control_c, 1, 11, 70
3, 1658, Control_c, 1, 11, 69
3, 1662, Control_c, 1, 11, 68
3, 1666, Control_c, 1, 11, 67
3, 1670, Control_c, 1, 11, 66
3, 1673, Control_c, 1, 11, 65
3, 1677, Control_c, 1, 11, 64
3, 1681, Control_c, 1, 11, 63
3, 1685, Control_c, 1, 11, 62
3, 1688, Control_c, 1, 11, 61
3, 1692, Control_c, 1, 11, 60
3, 1696, Control_c, 1, 11, 59
3, 1700, Control_c, 1, 11, 58
3, 1704, Control_c, 1, 11, 57
3, 1707, Control_c, 1, 11, 56
3, 1711, Control_c, 1, 11, 55
3, 1715, Control_c, 1, 11, 54
3, 1719, Control_c, 1, 11, 53
3, 1722, Control_c, 1, 11, 52
3, 1726, Control_c, 1, 11, 51
3, 1730, Control_c, 1, 11, 50
3, 1734, Control_c, 1, 11, 49
3, 1737, Control_c, 1, 11, 48
3, 1741, Control_c, 1, 11, 47
3, 1745, Control_c, 1, 11, 46
3, 1749, Control_c, 1, 11, 45
3, 1753, Control_c, 1, 11, 44
3, 1756, Control_c, 1, 11, 43
3, 1760, Control_c, 1, 11, 42
3, 1764, Control_c, 1, 11, 41
3, 1768, Control_c, 1, 11, 40
3, 1771, Control_c, 1, 11, 39
3, 1775, Control_c, 1, 11, 38
3, 1779, Control_c, 1, 11, 37
3, 1783, Control_c, 1, 11, 36
3, 1786, Control_c, 1, 11, 35
3, 1790, Control_c, 1, 11, 34
3, 1794, Control_c, 1, 11, 33
3, 1798, Control_c, 1, 11, 32
3, 1802, Control_c, 1, 11, 31
3, 1805, Control_c, 1, 11, 30
3, 1809, Control_c, 1, 11, 29
3, 1813, Control_c, 1, 11, 28
3, 1817, Control_c, 1, 11, 27
3, 1820, Control_c, 1, 11, 26
3, 1824, Control_c, 1, 11, 25
3, 1828, Control_c, 1, 11, 24
3, 1832, Control_c, 1, 11, 23
3, 1836, Control_c, 1, 11, 22
3, 1839, Control_c, 1, 11, 21
3, 1843, Control_c, 1, 11, 20
3, 1847, Control_c, 1, 11, 19
3, 1851, Control_c, 1, 11, 18
3, 1854, Control_c, 1, 11, 17
3, 1858, Control_c, 1, 11, 16
3, 1862, Control_c, 1, 11, 15
3, 1866, Control_c, 1, 11, 14
3, 1869, Control_c, 1, 11, 13
3, 1873, Control_c, 1, 11, 12
3, 1877, Control_c, 1, 11, 11
3, 1881, Control_c, 1, 11, 10
3, 1885, Control_c, 1, 11, 9
3, 1888, Control_c, 1, 11, 8
3, 1892, Control_c, 1, 11, 7
3, 1896, Control_c, 1, 11, 6
3, 1900, Control_c, 1, 11, 5
3, 1903, Control_c, 1, 11, 4
3, 1907, Control_c, 1, 11, 3
3, 1911, Control_c, 1, 11, 2
3, 1915, Control_c, 1, 11, 1
3, 1919, Control_c, 1, 11, 0
3, 1920, Note_on_c, 1, 2, 0
3, 4680, Note_on_c, 1, 5, 127
3, 4696, Control_c, 1, 11, 0
3, 4697, Control_c, 1, 11, 2
3, 4698, Control_c, 1, 11, 3
3, 4699, Control_c, 1, 11, 4
3, 4700, Control_c, 1, 11, 5
3, 4701, Control_c, 1, 11, 7
3, 4702, Control_c, 1, 11, 8
3, 4703, Control_c, 1, 11, 9
3, 4704, Control_c, 1, 11, 10
3, 4705, Control_c, 1, 11, 12
3, 4706, Control_c, 1, 11, 13
3, 4707, Control_c, 1, 11, 14
3, 4708, Control_c, 1, 11, 15
3, 4709, Control_c, 1, 11, 17
3, 4710, Control_c, 1, 11, 18
3, 4711, Control_c, 1, 11, 19
3, 4712, Control_c, 1, 11, 20
3, 4713, Control_c, 1, 11, 21
3, 4714, Control_c, 1, 11, 23
3, 4715, Control_c, 1, 11, 24
3, 4716, Control_c, 1, 11, 25
3, 4717, Control_c, 1, 11, 26
3, 4718, Control_c, 1, 11, 28
3, 4719, Control_c, 1, 11, 29
3, 4720, Control_c, 1, 11, 30
3, 4721, Control_c, 1, 11, 31
3, 4722, Control_c, 1, 11, 33
3, 4723, Control_c, 1, 11, 34
3, 4724, Control_c, 1, 11, 35
3, 4725, Control_c, 1, 11, 36
3, 4726, Control_c, 1, 11, 37
3, 4727, Control_c, 1, 11, 39
3, 4728, Control_c, 1, 11, 40
3, 4729, Control_c, 1, 11, 41
3, 4730, Control_c, 1, 11, 42
3, 4731, Control_c, 1, 11, 44
3, 4732, Control_c, 1, 11, 45
3, 4733, Control_c, 1, 11, 46
3, 4734, Control_c, 1, 11, 47
3, 4735, Control_c, 1, 11, 49
3, 4736, Control_c, 1, 11, 50
3, 4737, Control_c, 1, 11, 51
3, 4738, Control_c, 1, 11, 52
3, 4739, Control_c, 1, 11, 54
3, 4740, Control_c, 1, 11, 55
3, 4741, Control_c, 1, 11, 56
3, 4742, Control_c, 1, 11, 57
3, 4743, Control_c, 1, 11, 58
3, 4744, Control_c, 1, 11, 60
3, 4745, Control_c, 1, 11, 61
3, 4746, Control_c, 1, 11, 62
3, 4747, Control_c, 1, 11, 63
3, 4748, Control_c, 1, 11, 65
3, 4749, Control_c, 1, 11, 66
3, 4750, Control_c, 1, 11, 67
3, 4751, Control_c, 1, 11, 68
3, 4752, Control_c, 1, 11, 70
3, 4753, Control_c, 1, 11, 71
3, 4754, Control_c, 1, 11, 72
3, 4755, Control_c, 1, 11, 73
3, 4756, Control_c, 1, 11, 74
3, 4757, Control_c, 1, 11, 76
3, 4758, Control_c, 1, 11, 77
3, 4759, Control_c, 1, 11, 78
3, 4760, Control_c, 1, 11, 79
3, 4761, Control_c, 1, 11, 81
3, 4762, Control_c, 1, 11, 82
3, 4763, Control_c, 1, 11, 83
3, 4764, Control_c, 1, 11, 84
3, 4765, Control_c, 1, 11, 86
3, 4766, Control_c, 1, 11, 87
3, 4767, Control_c, 1, 11, 88
3, 4768, Control_c, 1, 11, 89
3, 4769, Control_c, 1, 11, 91
3, 4770, Control_c, 1, 11, 92
3, 4771, Control_c, 1, 11, 93
3, 4772, Control_c, 1, 11, 94
3, 4773, Control_c, 1, 11, 95
3, 4774, Control_c, 1, 11, 97
3, 4775, Control_c, 1, 11, 98
3, 4776, Control_c, 1, 11, 99
3, 4777, Control_c, 1, 11, 100
3, 4778, Control_c, 1, 11, 102
3, 4779, Control_c, 1, 11, 103
3, 4780, Control_c, 1, 11, 104
3, 4781, Control_c, 1, 11, 105
3, 4782, Control_c, 1, 11, 107
3, 4783, Control_c, 1, 11, 108
3, 4784, Control_c, 1, 11, 109
3, 4785, Control_c, 1, 11, 110
3, 4786, Control_c, 1, 11, 111
3, 4787, Control_c, 1, 11, 113
3, 4788, Control_c, 1, 11, 114
3, 4789, Control_c, 1, 11, 115
3, 4790, Control_c, 1, 11, 116
3, 4791, Control_c, 1, 11, 118
3, 4792, Control_c, 1, 11, 119
3, 4793, Control_c, 1, 11, 120
3, 4794, Control_c, 1, 11, 121
3, 4795, Control_c, 1, 11, 123
3, 4796, Control_c, 1, 11, 124
3, 4797, Control_c, 1, 11, 125
3, 4798, Control_c, 1, 11, 126
3, 4799, Control_c, 1, 11, 127
3, 5760, Note_on_c, 1, 5, 0
3, 5760, Note_on_c, 1, 5, 127
3, 6720, Note_on_c, 1, 5, 0
3, 6720, Control_c, 1, 11, 127
3, 6720, Note_on_c, 1, 5, 127
3, 6736, Control_c, 1, 11, 126
3, 6752, Control_c, 1, 11, 125
3, 6769, Control_c, 1, 11, 124
3, 6785, Control_c, 1, 11, 123
3, 6802, Control_c, 1, 11, 122
3, 6818, Control_c, 1, 11, 121
3, 6834, Control_c, 1, 11, 120
3, 6851, Control_c, 1, 11, 119
3, 6867, Control_c, 1, 11, 118
3, 6884, Control_c, 1, 11, 117
3, 6900, Control_c, 1, 11, 116
3, 6916, Control_c, 1, 11, 115
3, 6933, Control_c, 1, 11, 114
3, 6949, Control_c, 1, 11, 113
3, 6966, Control_c, 1, 11, 112
3, 6982, Control_c, 1, 11, 111
3, 6998, Control_c, 1, 11, 110
3, 7015, Control_c, 1, 11, 109
3, 7031, Control_c, 1, 11, 108
3, 7048, Control_c, 1, 11, 107
3, 7064, Control_c, 1, 11, 106
3, 7080, Control_c, 1, 11, 105
3, 7097, Control_c, 1, 11, 104
3, 7113, Control_c, 1, 11, 103
3, 7130, Control_c, 1, 11, 102
3, 7146, Control_c, 1, 11, 101
3, 7162, Control_c, 1, 11, 100
3, 7179, Control_c, 1, 11, 99
3, 7195, Control_c, 1, 11, 98
3, 7200, Note_on_c, 1, 5, 0
3, 7200, Note_on_c, 1, 5, 127
3, 7212, Control_c, 1, 11, 97
3, 7228, Control_c, 1, 11, 96
3, 7244, Control_c, 1, 11, 95
3, 7261, Control_c, 1, 11, 94
3, 7277, Control_c, 1, 11, 93
3, 7294, Control_c, 1, 11, 92
3, 7310, Control_c, 1, 11, 91
3, 7326, Control_c, 1, 11, 90
3, 7343, Control_c, 1, 11, 89
3, 7359, Control_c, 1, 11, 88
3, 7376, Control_c, 1, 11, 87
3, 7392, Control_c, 1, 11, 86
3, 7408, Control_c, 1, 11, 85
3, 7425, Control_c, 1, 11, 84
3, 7441, Control_c, 1, 11, 83
3, 7458, Control_c, 1, 11, 82
3, 7474, Control_c, 1, 11, 81
3, 7490, Control_c, 1, 11, 80
3, 7507, Control_c, 1, 11, 79
3, 7523, Control_c, 1, 11, 78
3, 7540, Control_c, 1, 11, 77
3, 7556, Control_c, 1, 11, 76
3, 7572, Control_c, 1, 11, 75
3, 7589, Control_c, 1, 11, 74
3, 7605, Control_c, 1, 11, 73
3, 7622, Control_c, 1, 11, 72
3, 7638, Control_c, 1, 11, 71
3, 7654, Control_c, 1, 11, 70
3, 7671, Control_c, 1, 11, 69
3, 7680, Note_on_c, 1, 5, 0
3, 7680, Note_on_c, 1, 5, 127
3, 7687, Control_c, 1, 11, 68
3, 7704, Control_c, 1, 11, 67
3, 7720, Control_c, 1, 11, 66
3, 7736, Control_c, 1, 11, 65
3, 7753, Control_c, 1, 11, 64
3, 7769, Control_c, 1, 11, 63
3, 7786, Control_c, 1, 11, 62
3, 7802, Control_c, 1, 11, 61
3, 7818, Control_c, 1, 11, 60
3, 7835, Control_c, 1, 11, 59
3, 7851, Control_c, 1, 11, 58
3, 7868, Control_c, 1, 11, 57
3, 7884, Control_c, 1, 11, 56
3, 7900, Control_c, 1, 11, 55
3, 7917, Control_c, 1, 11, 54
3, 7920, Note_on_c, 1, 5, 0
3, 7920, Note_on_c, 1, 5, 127
3, 7933, Control_c, 1, 11, 53
3, 7950, Control_c, 1, 11, 52
3, 7966, Control_c, 1, 11, 51
3, 7982, Control_c, 1, 11, 50
3, 7999, Control_c, 1, 11, 49
3, 8015, Control_c, 1, 11, 48
3, 8032, Control_c, 1, 11, 47
3, 8048, Control_c, 1, 11, 46
3, 8064, Control_c, 1, 11, 45
3, 8081, Control_c, 1, 11, 44
3, 8097, Control_c, 1, 11, 43
3, 8114, Control_c, 1, 11, 42
3, 8130, Control_c, 1, 11, 41
3, 8146, Control_c, 1, 11, 40
3, 8160, Note_on_c, 1, 5, 0
3, 8160, Note_on_c, 1, 5, 127
3, 8163, Control_c, 1, 11, 39
3, 8179, Control_c, 1, 11, 38
3, 8196, Control_c, 1, 11, 37
3, 8212, Control_c, 1, 11, 36
3, 8228, Control_c, 1, 11, 35
3, 8245, Control_c, 1, 11, 34
3, 8261, Control_c, 1, 11, 33
3, 8278, Control_c, 1, 11, 32
3, 8294, Control_c, 1, 11, 31
3, 8310, Control_c, 1, 11, 30
3, 8327, Control_c, 1, 11, 29
3, 8343, Control_c, 1, 11, 28
3, 8360, Control_c, 1, 11, 27
3, 8376, Control_c, 1, 11, 26
3, 8392, Control_c, 1, 11, 25
3, 8409, Control_c, 1, 11, 24
3, 8425, Control_c, 1, 11, 23
3, 8442, Control_c, 1, 11, 22
3, 8458, Control_c, 1, 11, 21
3, 8474, Control_c, 1, 11, 20
3, 8491, Control_c, 1, 11, 19
3, 8507, Control_c, 1, 11, 18
3, 8524, Control_c, 1, 11, 17
3, 8540, Control_c, 1, 11, 16
3, 8556, Control_c, 1, 11, 15
3, 8573, Control_c, 1, 11, 14
3, 8589, Control_c, 1, 11, 13
3, 8606, Control_c, 1, 11, 12
3, 8622, Control_c, 1, 11, 11
3, 8639, Control_c, 1, 11, 10
3, 8640, Note_on_c, 1, 5, 0
3, 16226, Control_c, 1, 0, 0
3, 16227, Control_c, 1, 32, 0
3, 16228, Program_c, 1, 127
3, 21600, Control_c, 1, 11, 100
3, 22080, Note_on_c, 1, 28, 127
3, 23520, Note_on_c, 1, 28, 0
3, 24000, Note_on_c, 1, 42, 127
3, 24480, Note_on_c, 1, 42, 0
3, 24480, Note_on_c, 1, 42, 127
3, 24720, Note_on_c, 1, 42, 0
3, 24720, Note_on_c, 1, 42, 127
3, 24840, Note_on_c, 1, 42, 0
3, 24840, Note_on_c, 1, 42, 127
3, 24960, Note_on_c, 1, 42, 0
3, 24960, Note_on_c, 1, 42, 127
3, 25920, Note_on_c, 1, 42, 0
3, 25920, Note_on_c, 1, 42, 127
3, 26880, Note_on_c, 1, 42, 0
3, 29760, Note_on_c, 1, 28, 100
3, 31680, Note_on_c, 1, 28, 0
3, 31680, Note_on_c, 1, 28, 100
3, 33600, Note_on_c, 1, 28, 0
3, 33600, Note_on_c, 1, 28, 100
3, 35520, Note_on_c, 1, 28, 0
3, 61621, Control_c, 1, 0, 0
3, 61622, Control_c, 1, 32, 0
3, 61623, Program_c, 1, 122
3, 61901, Control_c, 1, 0, 1
3, 61902, Control_c, 1, 32, 0
3, 61903, Program_c, 1, 122
3, 62084, Control_c, 1, 0, 2
3, 62085, Control_c, 1, 32, 0
3, 62086, Program_c, 1, 122
3, 66240, Note_on_c, 1, 63, 100
3, 67560, Note_on_c, 1, 63, 0
3, 67560, End_track
4, 0, Start_track
4, 0, Sequencer_specific, 5, 5, 15, 9, 0, 64
4, 0, Sequencer_specific, 15, 5, 15, 6, 71, 101, 110, 101, 114, 97, 108, 32, 77, 73, 68, 73
4, 0, Title_t, ""
4, 0, Control_c, 2, 91, 100
4, 0, Control_c, 2, 11, 127
4, 130, Control_c, 2, 0, 0
4, 131, Control_c, 2, 32, 0
4, 132, Program_c, 2, 50
4, 133, Control_c, 2, 7, 90
4, 133, Control_c, 2, 10, 35
4, 960, Note_on_c, 2, 88, 105
4, 2880, Control_c, 2, 11, 127
4, 2898, Control_c, 2, 11, 126
4, 2917, Control_c, 2, 11, 125
4, 2936, Control_c, 2, 11, 124
4, 2954, Control_c, 2, 11, 123
4, 2973, Control_c, 2, 11, 122
4, 2992, Control_c, 2, 11, 121
4, 3010, Control_c, 2, 11, 120
4, 3029, Control_c, 2, 11, 119
4, 3048, Control_c, 2, 11, 118
4, 3067, Control_c, 2, 11, 117
4, 3085, Control_c, 2, 11, 116
4, 3104, Control_c, 2, 11, 115
4, 3123, Control_c, 2, 11, 114
4, 3141, Control_c, 2, 11, 113
4, 3160, Control_c, 2, 11, 112
4, 3179, Control_c, 2, 11, 111
4, 3198, Control_c, 2, 11, 110
4, 3216, Control_c, 2, 11, 109
4, 3235, Control_c, 2, 11, 108
4, 3254, Control_c, 2, 11, 107
4, 3272, Control_c, 2, 11, 106
4, 3291, Control_c, 2, 11, 105
4, 3310, Control_c, 2, 11, 104
4, 3329, Control_c, 2, 11, 103
4, 3347, Control_c, 2, 11, 102
4, 3366, Control_c, 2, 11, 101
4, 3385, Control_c, 2, 11, 100
4, 3403, Control_c, 2, 11, 99
4, 3422, Control_c, 2, 11, 98
4, 3441, Control_c, 2, 11, 97
4, 3460, Control_c, 2, 11, 96
4, 3478, Control_c, 2, 11, 95
4, 3497, Control_c, 2, 11, 94
4, 3516, Control_c, 2, 11, 93
4, 3534, Control_c, 2, 11, 92
4, 3553, Control_c, 2, 11, 91
4, 3572, Control_c, 2, 11, 90
4, 3591, Control_c, 2, 11, 89
4, 3609, Control_c, 2, 11, 88
4, 3628, Control_c, 2, 11, 87
4, 3647, Control_c, 2, 11, 86
4, 3665, Control_c, 2, 11, 85
4, 3684, Control_c, 2, 11, 84
4, 3703, Control_c, 2, 11, 83
4, 3722, Control_c, 2, 11, 82
4, 3740, Control_c, 2, 11, 81
4, 3759, Control_c, 2, 11, 80
4, 3778, Control_c, 2, 11, 79
4, 3796, Control_c, 2, 11, 78
4, 3815, Control_c, 2, 11, 77
4, 3834, Control_c, 2, 11, 76
4, 3852, Control_c, 2, 11, 75
4, 3871, Control_c, 2, 11, 74
4, 3890, Control_c, 2, 11, 73
4, 3909, Control_c, 2, 11, 72
4, 3927, Control_c, 2, 11, 71
4, 3946, Control_c, 2, 11, 70
4, 3965, Control_c, 2, 11, 69
4, 3983, Control_c, 2, 11, 68
4, 4002, Control_c, 2, 11, 67
4, 4021, Control_c, 2, 11, 66
4, 4040, Control_c, 2, 11, 65
4, 4058, Control_c, 2, 11, 64
4, 4077, Control_c, 2, 11, 63
4, 4096, Control_c, 2, 11, 62
4, 4114, Control_c, 2, 11, 61
4, 4133, Control_c, 2, 11, 60
4, 4152, Control_c, 2, 11, 59
4, 4171, Control_c, 2, 11, 58
4, 4189, Control_c, 2, 11, 57
4, 4208, Control_c, 2, 11, 56
4, 4227, Control_c, 2, 11, 55
4, 4245, Control_c, 2, 11, 54
4, 4264, Control_c, 2, 11, 53
4, 4283, Control_c, 2, 11, 52
4, 4302, Control_c, 2, 11, 51
4, 4320, Control_c, 2, 11, 50
4, 4339, Control_c, 2, 11, 49
4, 4358, Control_c, 2, 11, 48
4, 4376, Control_c, 2, 11, 47
4, 4395, Control_c, 2, 11, 46
4, 4414, Control_c, 2, 11, 45
4, 4433, Control_c, 2, 11, 44
4, 4451, Control_c, 2, 11, 43
4, 4470, Control_c, 2, 11, 42
4, 4489, Control_c, 2, 11, 41
4, 4507, Control_c, 2, 11, 40
4, 4526, Control_c, 2, 11, 39
4, 4545, Control_c, 2, 11, 38
4, 4564, Control_c, 2, 11, 37
4, 4582, Control_c, 2, 11, 36
4, 4601, Control_c, 2, 11, 35
4, 4620, Control_c, 2, 11, 34
4, 4638, Control_c, 2, 11, 33
4, 4657, Control_c, 2, 11, 32
4, 4676, Control_c, 2, 11, 31
4, 4695, Control_c, 2, 11, 30
4, 4800, Note_on_c, 2, 88, 0
4, 5032, Control_c, 2, 11, 127
4, 22080, Note_on_c, 2, 88, 100
4, 25920, Control_c, 2, 11, 127
4, 25959, Control_c, 2, 11, 126
4, 25999, Control_c, 2, 11, 125
4, 26038, Control_c, 2, 11, 124
4, 26078, Control_c, 2, 11, 123
4, 26117, Control_c, 2, 11, 122
4, 26157, Control_c, 2, 11, 121
4, 26197, Control_c, 2, 11, 120
4, 26236, Control_c, 2, 11, 119
4, 26276, Control_c, 2, 11, 118
4, 26315, Control_c, 2, 11, 117
4, 26355, Control_c, 2, 11, 116
4, 26394, Control_c, 2, 11, 115
4, 26434, Control_c, 2, 11, 114
4, 26474, Control_c, 2, 11, 113
4, 26513, Control_c, 2, 11, 112
4, 26553, Control_c, 2, 11, 111
4, 26592, Control_c, 2, 11, 110
4, 26632, Control_c, 2, 11, 109
4, 26671, Control_c, 2, 11, 108
4, 26711, Control_c, 2, 11, 107
4, 26751, Control_c, 2, 11, 106
4, 26790, Control_c, 2, 11, 105
4, 26830, Control_c, 2, 11, 104
4, 26869, Control_c, 2, 11, 103
4, 26909, Control_c, 2, 11, 102
4, 26949, Control_c, 2, 11, 101
4, 26988, Control_c, 2, 11, 100
4, 27028, Control_c, 2, 11, 99
4, 27067, Control_c, 2, 11, 98
4, 27107, Control_c, 2, 11, 97
4, 27146, Control_c, 2, 11, 96
4, 27186, Control_c, 2, 11, 95
4, 27226, Control_c, 2, 11, 94
4, 27265, Control_c, 2, 11, 93
4, 27305, Control_c, 2, 11, 92
4, 27344, Control_c, 2, 11, 91
4, 27384, Control_c, 2, 11, 90
4, 27423, Control_c, 2, 11, 89
4, 27463, Control_c, 2, 11, 88
4, 27503, Control_c, 2, 11, 87
4, 27542, Control_c, 2, 11, 86
4, 27582, Control_c, 2, 11, 85
4, 27621, Control_c, 2, 11, 84
4, 27661, Control_c, 2, 11, 83
4, 27700, Control_c, 2, 11, 82
4, 27740, Control_c, 2, 11, 81
4, 27780, Control_c, 2, 11, 80
4, 27819, Control_c, 2, 11, 79
4, 27859, Control_c, 2, 11, 78
4, 27898, Control_c, 2, 11, 77
4, 27938, Control_c, 2, 11, 76
4, 27978, Control_c, 2, 11, 75
4, 28017, Control_c, 2, 11, 74
4, 28057, Control_c, 2, 11, 73
4, 28096, Control_c, 2, 11, 72
4, 28136, Control_c, 2, 11, 71
4, 28175, Control_c, 2, 11, 70
4, 28215, Control_c, 2, 11, 69
4, 28255, Control_c, 2, 11, 68
4, 28294, Control_c, 2, 11, 67
4, 28334, Control_c, 2, 11, 66
4, 28373, Control_c, 2, 11, 65
4, 28413, Control_c, 2, 11, 64
4, 28452, Control_c, 2, 11, 63
4, 28492, Control_c, 2, 11, 62
4, 28532, Control_c, 2, 11, 61
4, 28571, Control_c, 2, 11, 60
4, 28611, Control_c, 2, 11, 59
4, 28650, Control_c, 2, 11, 58
4, 28690, Control_c, 2, 11, 57
4, 28729, Control_c, 2, 11, 56
4, 28769, Control_c, 2, 11, 55
4, 28809, Control_c, 2, 11, 54
4, 28848, Control_c, 2, 11, 53
4, 28888, Control_c, 2, 11, 52
4, 28927, Control_c, 2, 11, 51
4, 28967, Control_c, 2, 11, 50
4, 29007, Control_c, 2, 11, 49
4, 29046, Control_c, 2, 11, 48
4, 29086, Control_c, 2, 11, 47
4, 29125, Control_c, 2, 11, 46
4, 29165, Control_c, 2, 11, 45
4, 29204, Control_c, 2, 11, 44
4, 29244, Control_c, 2, 11, 43
4, 29284, Control_c, 2, 11, 42
4, 29323, Control_c, 2, 11, 41
4, 29363, Control_c, 2, 11, 40
4, 29402, Control_c, 2, 11, 39
4, 29442, Control_c, 2, 11, 38
4, 29481, Control_c, 2, 11, 37
4, 29521, Control_c, 2, 11, 36
4, 29561, Control_c, 2, 11, 35
4, 29600, Control_c, 2, 11, 34
4, 29640, Control_c, 2, 11, 33
4, 29679, Control_c, 2, 11, 32
4, 29719, Control_c, 2, 11, 31
4, 29759, Control_c, 2, 11, 30
4, 29760, Note_on_c, 2, 88, 0
4, 29760, End_track
5, 0, Start_track
5, 0, Sequencer_specific, 5, 5, 15, 9, 0, 64
5, 0, Sequencer_specific, 15, 5, 15, 6, 71, 101, 110, 101, 114, 97, 108, 32, 77, 73, 68, 73
5, 0, Title_t, ""
5, 135, Control_c, 3, 0, 0
5, 136, Control_c, 3, 32, 0
5, 137, Program_c, 3, 87
5, 138, Control_c, 3, 7, 75
5, 138, Control_c, 3, 10, 49
5, 16320, Note_on_c, 3, 83, 100
5, 16350, Note_on_c, 3, 83, 0
5, 16350, Note_on_c, 3, 79, 100
5, 16380, Note_on_c, 3, 79, 0
5, 16380, Note_on_c, 3, 76, 100
5, 16410, Note_on_c, 3, 76, 0
5, 16410, Note_on_c, 3, 79, 100
5, 16440, Note_on_c, 3, 79, 0
5, 16440, Note_on_c, 3, 83, 100
5, 16470, Note_on_c, 3, 83, 0
5, 16470, Note_on_c, 3, 79, 100
5, 16500, Note_on_c, 3, 79, 0
5, 16500, Note_on_c, 3, 76, 100
5, 16530, Note_on_c, 3, 76, 0
5, 16530, Note_on_c, 3, 79, 100
5, 16560, Note_on_c, 3, 79, 0
5, 16560, Note_on_c, 3, 83, 100
5, 16590, Note_on_c, 3, 83, 0
5, 16590, Note_on_c, 3, 79, 100
5, 16620, Note_on_c, 3, 79, 0
5, 16620, Note_on_c, 3, 76, 100
5, 16650, Note_on_c, 3, 76, 0
5, 16650, Note_on_c, 3, 79, 100
5, 16680, Note_on_c, 3, 79, 0
5, 16680, Note_on_c, 3, 83, 100
5, 16710, Note_on_c, 3, 83, 0
5, 16710, Note_on_c, 3, 79, 100
5, 16740, Note_on_c, 3, 79, 0
5, 16740, Note_on_c, 3, 76, 100
5, 16770, Note_on_c, 3, 76, 0
5, 16770, Note_on_c, 3, 79, 100
5, 16800, Note_on_c, 3, 79, 0
5, 16800, Note_on_c, 3, 83, 100
5, 16830, Note_on_c, 3, 83, 0
5, 16830, Note_on_c, 3, 79, 100
5, 16860, Note_on_c, 3, 79, 0
5, 16860, Note_on_c, 3, 76, 100
5, 16890, Note_on_c, 3, 76, 0
5, 16890, Note_on_c, 3, 79, 100
5, 16920, Note_on_c, 3, 79, 0
5, 16920, Note_on_c, 3, 83, 100
5, 16950, Note_on_c, 3, 83, 0
5, 16950, Note_on_c, 3, 79, 100
5, 16980, Note_on_c, 3, 79, 0
5, 16980, Note_on_c, 3, 76, 100
5, 17010, Note_on_c, 3, 76, 0
5, 17010, Note_on_c, 3, 79, 100
5, 17040, Note_on_c, 3, 79, 0
5, 17040, Note_on_c, 3, 83, 100
5, 17070, Note_on_c, 3, 83, 0
5, 17070, Note_on_c, 3, 79, 100
5, 17100, Note_on_c, 3, 79, 0
5, 17100, Note_on_c, 3, 76, 100
5, 17130, Note_on_c, 3, 76, 0
5, 17130, Note_on_c, 3, 79, 100
5, 17160, Note_on_c, 3, 79, 0
5, 17160, Note_on_c, 3, 83, 100
5, 17190, Note_on_c, 3, 83, 0
5, 17190, Note_on_c, 3, 79, 100
5, 17220, Note_on_c, 3, 79, 0
5, 17220, Note_on_c, 3, 76, 100
5, 17250, Note_on_c, 3, 76, 0
5, 17250, Note_on_c, 3, 79, 100
5, 17280, Note_on_c, 3, 79, 0
5, 17280, Note_on_c, 3, 83, 100
5, 17310, Note_on_c, 3, 83, 0
5, 17310, Note_on_c, 3, 79, 100
5, 17340, Note_on_c, 3, 79, 0
5, 17340, Note_on_c, 3, 76, 100
5, 17370, Note_on_c, 3, 76, 0
5, 17370, Note_on_c, 3, 79, 100
5, 17400, Note_on_c, 3, 79, 0
5, 17400, Note_on_c, 3, 83, 100
5, 17430, Note_on_c, 3, 83, 0
5, 17430, Note_on_c, 3, 79, 100
5, 17460, Note_on_c, 3, 79, 0
5, 17460, Note_on_c, 3, 76, 100
5, 17490, Note_on_c, 3, 76, 0
5, 17490, Note_on_c, 3, 79, 100
5, 17520, Note_on_c, 3, 79, 0
5, 17520, Note_on_c, 3, 83, 100
5, 17550, Note_on_c, 3, 83, 0
5, 17550, Note_on_c, 3, 79, 100
5, 17580, Note_on_c, 3, 79, 0
5, 17580, Note_on_c, 3, 76, 100
5, 17610, Note_on_c, 3, 76, 0
5, 17610, Note_on_c, 3, 79, 100
5, 17640, Note_on_c, 3, 79, 0
5, 17640, Note_on_c, 3, 83, 100
5, 17670, Note_on_c, 3, 83, 0
5, 17670, Note_on_c, 3, 79, 100
5, 17700, Note_on_c, 3, 79, 0
5, 17700, Note_on_c, 3, 76, 100
5, 17730, Note_on_c, 3, 76, 0
5, 17730, Note_on_c, 3, 79, 100
5, 17760, Note_on_c, 3, 79, 0
5, 17760, Note_on_c, 3, 81, 100
5, 17790, Note_on_c, 3, 81, 0
5, 17790, Note_on_c, 3, 78, 100
5, 17820, Note_on_c, 3, 78, 0
5, 17820, Note_on_c, 3, 74, 100
5, 17850, Note_on_c, 3, 74, 0
5, 17850, Note_on_c, 3, 78, 100
5, 17880, Note_on_c, 3, 78, 0
5, 17880, Note_on_c, 3, 81, 100
5, 17910, Note_on_c, 3, 81, 0
5, 17910, Note_on_c, 3, 78, 100
5, 17940, Note_on_c, 3, 78, 0
5, 17940, Note_on_c, 3, 74, 100
5, 17970, Note_on_c, 3, 74, 0
5, 17970, Note_on_c, 3, 78, 100
5, 18000, Note_on_c, 3, 78, 0
5, 18000, Note_on_c, 3, 81, 100
5, 18030, Note_on_c, 3, 81, 0
5, 18030, Note_on_c, 3, 78, 100
5, 18060, Note_on_c, 3, 78, 0
5, 18060, Note_on_c, 3, 74, 100
5, 18090, Note_on_c, 3, 74, 0
5, 18090, Note_on_c, 3, 78, 100
5, 18120, Note_on_c, 3, 78, 0
5, 18120, Note_on_c, 3, 81, 100
5, 18150, Note_on_c, 3, 81, 0
5, 18150, Note_on_c, 3, 78, 100
5, 18180, Note_on_c, 3, 78, 0
5, 18180, Note_on_c, 3, 74, 100
5, 18210, Note_on_c, 3, 74, 0
5, 18210, Note_on_c, 3, 78, 100
5, 18240, Note_on_c, 3, 78, 0
5, 18240, Note_on_c, 3, 83, 100
5, 18270, Note_on_c, 3, 83, 0
5, 18270, Note_on_c, 3, 79, 100
5, 18300, Note_on_c, 3, 79, 0
5, 18300, Note_on_c, 3, 76, 100
5, 18330, Note_on_c, 3, 76, 0
5, 18330, Note_on_c, 3, 79, 100
5, 18360, Note_on_c, 3, 79, 0
5, 18360, Note_on_c, 3, 83, 100
5, 18390, Note_on_c, 3, 83, 0
5, 18390, Note_on_c, 3, 79, 100
5, 18420, Note_on_c, 3, 79, 0
5, 18420, Note_on_c, 3, 76, 100
5, 18450, Note_on_c, 3, 76, 0
5, 18450, Note_on_c, 3, 79, 100
5, 18480, Note_on_c, 3, 79, 0
5, 18480, Note_on_c, 3, 83, 100
5, 18510, Note_on_c, 3, 83, 0
5, 18510, Note_on_c, 3, 79, 100
5, 18540, Note_on_c, 3, 79, 0
5, 18540, Note_on_c, 3, 76, 100
5, 18570, Note_on_c, 3, 76, 0
5, 18570, Note_on_c, 3, 79, 100
5, 18600, Note_on_c, 3, 79, 0
5, 18600, Note_on_c, 3, 83, 100
5, 18630, Note_on_c, 3, 83, 0
5, 18630, Note_on_c, 3, 79, 100
5, 18660, Note_on_c, 3, 79, 0
5, 18660, Note_on_c, 3, 76, 100
5, 18690, Note_on_c, 3, 76, 0
5, 18690, Note_on_c, 3, 79, 100
5, 18720, Note_on_c, 3, 79, 0
5, 18720, Note_on_c, 3, 83, 100
5, 18750, Note_on_c, 3, 83, 0
5, 18750, Note_on_c, 3, 79, 100
5, 18780, Note_on_c, 3, 79, 0
5, 18780, Note_on_c, 3, 76, 100
5, 18810, Note_on_c, 3, 76, 0
5, 18810, Note_on_c, 3, 79, 100
5, 18840, Note_on_c, 3, 79, 0
5, 18840, Note_on_c, 3, 83, 100
5, 18870, Note_on_c, 3, 83, 0
5, 18870, Note_on_c, 3, 79, 100
5, 18900, Note_on_c, 3, 79, 0
5, 18900, Note_on_c, 3, 76, 100
5, 18930, Note_on_c, 3, 76, 0
5, 18930, Note_on_c, 3, 79, 100
5, 18960, Note_on_c, 3, 79, 0
5, 18960, Note_on_c, 3, 83, 100
5, 18990, Note_on_c, 3, 83, 0
5, 18990, Note_on_c, 3, 79, 100
5, 19020, Note_on_c, 3, 79, 0
5, 19020, Note_on_c, 3, 76, 100
5, 19050, Note_on_c, 3, 76, 0
5, 19050, Note_on_c, 3, 79, 100
5, 19080, Note_on_c, 3, 79, 0
5, 19080, Note_on_c, 3, 83, 100
5, 19110, Note_on_c, 3, 83, 0
5, 19110, Note_on_c, 3, 79, 100
5, 19140, Note_on_c, 3, 79, 0
5, 19140, Note_on_c, 3, 76, 100
5, 19170, Note_on_c, 3, 76, 0
5, 19170, Note_on_c, 3, 79, 100
5, 19200, Note_on_c, 3, 79, 0
5, 19200, Note_on_c, 3, 83, 100
5, 19230, Note_on_c, 3, 83, 0
5, 19230, Note_on_c, 3, 79, 100
5, 19260, Note_on_c, 3, 79, 0
5, 19260, Note_on_c, 3, 76, 100
5, 19290, Note_on_c, 3, 76, 0
5, 19290, Note_on_c, 3, 79, 100
5, 19320, Note_on_c, 3, 79, 0
5, 19320, Note_on_c, 3, 83, 100
5, 19350, Note_on_c, 3, 83, 0
5, 19350, Note_on_c, 3, 79, 100
5, 19380, Note_on_c, 3, 79, 0
5, 19380, Note_on_c, 3, 76, 100
5, 19410, Note_on_c, 3, 76, 0
5, 19410, Note_on_c, 3, 79, 100
5, 19440, Note_on_c, 3, 79, 0
5, 19440, Note_on_c, 3, 83, 100
5, 19470, Note_on_c, 3, 83, 0
5, 19470, Note_on_c, 3, 79, 100
5, 19500, Note_on_c, 3, 79, 0
5, 19500, Note_on_c, 3, 76, 100
5, 19530, Note_on_c, 3, 76, 0
5, 19530, Note_on_c, 3, 79, 100
5, 19560, Note_on_c, 3, 79, 0
5, 19560, Note_on_c, 3, 83, 100
5, 19590, Note_on_c, 3, 83, 0
5, 19590, Note_on_c, 3, 79, 100
5, 19620, Note_on_c, 3, 79, 0
5, 19620, Note_on_c, 3, 76, 100
5, 19650, Note_on_c, 3, 76, 0
5, 19650, Note_on_c, 3, 79, 100
5, 19680, Note_on_c, 3, 79, 0
5, 19680, Note_on_c, 3, 81, 100
5, 19710, Note_on_c, 3, 81, 0
5, 19710, Note_on_c, 3, 78, 100
5, 19740, Note_on_c, 3, 78, 0
5, 19740, Note_on_c, 3, 74, 100
5, 19770, Note_on_c, 3, 74, 0
5, 19770, Note_on_c, 3, 78, 100
5, 19800, Note_on_c, 3, 78, 0
5, 19800, Note_on_c, 3, 81, 100
5, 19830, Note_on_c, 3, 81, 0
5, 19830, Note_on_c, 3, 78, 100
5, 19860, Note_on_c, 3, 78, 0
5, 19860, Note_on_c, 3, 74, 100
5, 19890, Note_on_c, 3, 74, 0
5, 19890, Note_on_c, 3, 78, 100
5, 19920, Note_on_c, 3, 78, 0
5, 19920, Note_on_c, 3, 81, 100
5, 19950, Note_on_c, 3, 81, 0
5, 19950, Note_on_c, 3, 78, 100
5, 19980, Note_on_c, 3, 78, 0
5, 19980, Note_on_c, 3, 74, 100
5, 20010, Note_on_c, 3, 74, 0
5, 20010, Note_on_c, 3, 78, 100
5, 20040, Note_on_c, 3, 78, 0
5, 20040, Note_on_c, 3, 81, 100
5, 20070, Note_on_c, 3, 81, 0
5, 20070, Note_on_c, 3, 78, 100
5, 20100, Note_on_c, 3, 78, 0
5, 20100, Note_on_c, 3, 74, 100
5, 20130, Note_on_c, 3, 74, 0
5, 20130, Note_on_c, 3, 78, 100
5, 20160, Note_on_c, 3, 78, 0
5, 20160, Note_on_c, 3, 83, 100
5, 20190, Note_on_c, 3, 83, 0
5, 20190, Note_on_c, 3, 79, 100
5, 20220, Note_on_c, 3, 79, 0
5, 20220, Note_on_c, 3, 76, 100
5, 20250, Note_on_c, 3, 76, 0
5, 20250, Note_on_c, 3, 79, 100
5, 20280, Note_on_c, 3, 79, 0
5, 20280, Note_on_c, 3, 83, 100
5, 20310, Note_on_c, 3, 83, 0
5, 20310, Note_on_c, 3, 79, 100
5, 20340, Note_on_c, 3, 79, 0
5, 20340, Note_on_c, 3, 76, 100
5, 20370, Note_on_c, 3, 76, 0
5, 20370, Note_on_c, 3, 79, 100
5, 20400, Note_on_c, 3, 79, 0
5, 20400, Note_on_c, 3, 83, 100
5, 20430, Note_on_c, 3, 83, 0
5, 20430, Note_on_c, 3, 79, 100
5, 20460, Note_on_c, 3, 79, 0
5, 20460, Note_on_c, 3, 76, 100
5, 20490, Note_on_c, 3, 76, 0
5, 20490, Note_on_c, 3, 79, 100
5, 20520, Note_on_c, 3, 79, 0
5, 20520, Note_on_c, 3, 83, 100
5, 20550, Note_on_c, 3, 83, 0
5, 20550, Note_on_c, 3, 79, 100
5, 20580, Note_on_c, 3, 79, 0
5, 20580, Note_on_c, 3, 76, 100
5, 20610, Note_on_c, 3, 76, 0
5, 20610, Note_on_c, 3, 79, 100
5, 20640, Note_on_c, 3, 79, 0
5, 20640, Note_on_c, 3, 83, 100
5, 20670, Note_on_c, 3, 83, 0
5, 20670, Note_on_c, 3, 79, 100
5, 20700, Note_on_c, 3, 79, 0
5, 20700, Note_on_c, 3, 76, 100
5, 20730, Note_on_c, 3, 76, 0
5, 20730, Note_on_c, 3, 79, 100
5, 20760, Note_on_c, 3, 79, 0
5, 20760, Note_on_c, 3, 83, 100
5, 20790, Note_on_c, 3, 83, 0
5, 20790, Note_on_c, 3, 79, 100
5, 20820, Note_on_c, 3, 79, 0
5, 20820, Note_on_c, 3, 76, 100
5, 20850, Note_on_c, 3, 76, 0
5, 20850, Note_on_c, 3, 79, 100
5, 20880, Note_on_c, 3, 79, 0
5, 20880, Note_on_c, 3, 83, 100
5, 20910, Note_on_c, 3, 83, 0
5, 20910, Note_on_c, 3, 79, 100
5, 20940, Note_on_c, 3, 79, 0
5, 20940, Note_on_c, 3, 76, 100
5, 20970, Note_on_c, 3, 76, 0
5, 20970, Note_on_c, 3, 79, 100
5, 21000, Note_on_c, 3, 79, 0
5, 21000, Note_on_c, 3, 83, 100
5, 21030, Note_on_c, 3, 83, 0
5, 21030, Note_on_c, 3, 79, 100
5, 21060, Note_on_c, 3, 79, 0
5, 21060, Note_on_c, 3, 76, 100
5, 21090, Note_on_c, 3, 76, 0
5, 21090, Note_on_c, 3, 79, 100
5, 21120, Note_on_c, 3, 79, 0
5, 21120, Note_on_c, 3, 83, 100
5, 21150, Note_on_c, 3, 83, 0
5, 21150, Note_on_c, 3, 79, 100
5, 21180, Note_on_c, 3, 79, 0
5, 21180, Note_on_c, 3, 76, 100
5, 21210, Note_on_c, 3, 76, 0
5, 21210, Note_on_c, 3, 79, 100
5, 21240, Note_on_c, 3, 79, 0
5, 21240, Note_on_c, 3, 83, 100
5, 21270, Note_on_c, 3, 83, 0
5, 21270, Note_on_c, 3, 79, 100
5, 21300, Note_on_c, 3, 79, 0
5, 21300, Note_on_c, 3, 76, 100
5, 21330, Note_on_c, 3, 76, 0
5, 21330, Note_on_c, 3, 79, 100
5, 21360, Note_on_c, 3, 79, 0
5, 21360, Note_on_c, 3, 83, 100
5, 21390, Note_on_c, 3, 83, 0
5, 21390, Note_on_c, 3, 79, 100
5, 21420, Note_on_c, 3, 79, 0
5, 21420, Note_on_c, 3, 76, 100
5, 21450, Note_on_c, 3, 76, 0
5, 21450, Note_on_c, 3, 79, 100
5, 21480, Note_on_c, 3, 79, 0
5, 21480, Note_on_c, 3, 83, 100
5, 21510, Note_on_c, 3, 83, 0
5, 21510, Note_on_c, 3, 79, 100
5, 21540, Note_on_c, 3, 79, 0
5, 21540, Note_on_c, 3, 76, 100
5, 21570, Note_on_c, 3, 76, 0
5, 21570, Note_on_c, 3, 79, 100
5, 21600, Note_on_c, 3, 79, 0
5, 21600, Note_on_c, 3, 81, 100
5, 21630, Note_on_c, 3, 81, 0
5, 21630, Note_on_c, 3, 78, 100
5, 21660, Note_on_c, 3, 78, 0
5, 21660, Note_on_c, 3, 74, 100
5, 21690, Note_on_c, 3, 74, 0
5, 21690, Note_on_c, 3, 78, 100
5, 21720, Note_on_c, 3, 78, 0
5, 21720, Note_on_c, 3, 81, 100
5, 21750, Note_on_c, 3, 81, 0
5, 21750, Note_on_c, 3, 78, 100
5, 21780, Note_on_c, 3, 78, 0
5, 21780, Note_on_c, 3, 74, 100
5, 21810, Note_on_c, 3, 74, 0
5, 21810, Note_on_c, 3, 78, 100
5, 21840, Note_on_c, 3, 78, 0
5, 21840, Note_on_c, 3, 81, 100
5, 21870, Note_on_c, 3, 81, 0
5, 21870, Note_on_c, 3, 78, 100
5, 21900, Note_on_c, 3, 78, 0
5, 21900, Note_on_c, 3, 74, 100
5, 21930, Note_on_c, 3, 74, 0
5, 21930, Note_on_c, 3, 78, 100
5, 21960, Note_on_c, 3, 78, 0
5, 21960, Note_on_c, 3, 81, 100
5, 21990, Note_on_c, 3, 81, 0
5, 21990, Note_on_c, 3, 78, 100
5, 22020, Note_on_c, 3, 78, 0
5, 22020, Note_on_c, 3, 74, 100
5, 22050, Note_on_c, 3, 74, 0
5, 22050, Note_on_c, 3, 78, 100
5, 22080, Note_on_c, 3, 78, 0
5, 22080, End_track
6, 0, Start_track
6, 0, Sequencer_specific, 5, 5, 15, 9, 0, 64
6, 0, Sequencer_specific, 15, 5, 15, 6, 71, 101, 110, 101, 114, 97, 108, 32, 77, 73, 68, 73
6, 0, Title_t, ""
6, 0, Control_c, 4, 11, 127
6, 0, Control_c, 4, 91, 127
6, 0, Control_c, 4, 99, 1
6, 1, Control_c, 4, 98, 32
6, 2, Control_c, 4, 6, 70
6, 3, Control_c, 4, 38, 40
6, 140, Control_c, 4, 0, 0
6, 141, Control_c, 4, 32, 0
6, 142, Program_c, 4, 90
6, 143, Control_c, 4, 7, 110
6, 143, Control_c, 4, 10, 64
6, 856, Control_c, 4, 91, 100
6, 960, Note_on_c, 4, 71, 100
6, 960, Note_on_c, 4, 67, 100
6, 960, Control_c, 4, 11, 10
6, 960, Note_on_c, 4, 64, 100
6, 987, Note_on_c, 4, 64, 0
6, 987, Note_on_c, 4, 67, 0
6, 987, Note_on_c, 4, 71, 0
6, 988, Control_c, 4, 11, 11
6, 1015, Note_on_c, 4, 71, 50
6, 1015, Note_on_c, 4, 67, 50
6, 1015, Note_on_c, 4, 64, 50
6, 1016, Control_c, 4, 11, 12
6, 1042, Note_on_c, 4, 64, 0
6, 1042, Note_on_c, 4, 67, 0
6, 1042, Note_on_c, 4, 71, 0
6, 1045, Control_c, 4, 11, 13
6, 1050, Note_on_c, 4, 64, 100
6, 1050, Note_on_c, 4, 71, 100
6, 1050, Note_on_c, 4, 67, 100
6, 1074, Control_c, 4, 11, 14
6, 1077, Note_on_c, 4, 67, 0
6, 1077, Note_on_c, 4, 71, 0
6, 1077, Note_on_c, 4, 64, 0
6, 1103, Control_c, 4, 11, 15
6, 1105, Note_on_c, 4, 64, 50
6, 1105, Note_on_c, 4, 71, 50
6, 1105, Note_on_c, 4, 67, 50
6, 1131, Control_c, 4, 11, 16
6, 1132, Note_on_c, 4, 67, 0
6, 1132, Note_on_c, 4, 71, 0
6, 1132, Note_on_c, 4, 64, 0
6, 1140, Note_on_c, 4, 71, 100
6, 1140, Note_on_c, 4, 67, 100
6, 1140, Note_on_c, 4, 64, 100
6, 1160, Control_c, 4, 11, 17
6, 1185, Note_on_c, 4, 64, 0
6, 1185, Note_on_c, 4, 67, 0
6, 1185, Note_on_c, 4, 71, 0
6, 1189, Control_c, 4, 11, 18
6, 1195, Note_on_c, 4, 71, 50
6, 1195, Note_on_c, 4, 67, 50
6, 1195, Note_on_c, 4, 64, 50
6, 1200, Note_on_c, 4, 71, 100
6, 1200, Note_on_c, 4, 67, 100
6, 1200, Note_on_c, 4, 64, 100
6, 1218, Control_c, 4, 11, 19
6, 1227, Note_on_c, 4, 64, 0
6, 1227, Note_on_c, 4, 71, 0
6, 1227, Note_on_c, 4, 67, 0
6, 1240, Note_on_c, 4, 71, 0
6, 1240, Note_on_c, 4, 67, 0
6, 1240, Note_on_c, 4, 64, 0
6, 1246, Control_c, 4, 11, 20
6, 1255, Note_on_c, 4, 71, 50
6, 1255, Note_on_c, 4, 67, 50
6, 1255, Note_on_c, 4, 64, 50
6, 1275, Control_c, 4, 11, 21
6, 1282, Note_on_c, 4, 64, 0
6, 1282, Note_on_c, 4, 67, 0
6, 1282, Note_on_c, 4, 71, 0
6, 1290, Note_on_c, 4, 71, 100
6, 1290, Note_on_c, 4, 67, 100
6, 1290, Note_on_c, 4, 64, 100
6, 1304, Control_c, 4, 11, 22
6, 1317, Note_on_c, 4, 64, 0
6, 1317, Note_on_c, 4, 67, 0
6, 1317, Note_on_c, 4, 71, 0
6, 1333, Control_c, 4, 11, 23
6, 1345, Note_on_c, 4, 71, 50
6, 1345, Note_on_c, 4, 67, 50
6, 1345, Note_on_c, 4, 64, 50
6, 1361, Control_c, 4, 11, 24
6, 1372, Note_on_c, 4, 64, 0
6, 1372, Note_on_c, 4, 67, 0
6, 1372, Note_on_c, 4, 71, 0
6, 1380, Note_on_c, 4, 72, 100
6, 1380, Note_on_c, 4, 67, 100
6, 1380, Note_on_c, 4, 76, 100
6, 1390, Control_c, 4, 11, 25
6, 1419, Control_c, 4, 11, 26
6, 1425, Note_on_c, 4, 76, 0
6, 1425, Note_on_c, 4, 67, 0
6, 1425, Note_on_c, 4, 72, 0
6, 1435, Note_on_c, 4, 72, 50
6, 1435, Note_on_c, 4, 67, 50
6, 1435, Note_on_c, 4, 76, 50
6, 1440, Note_on_c, 4, 72, 100
6, 1440, Note_on_c, 4, 67, 100
6, 1440, Note_on_c, 4, 76, 100
6, 1447, Control_c, 4, 11, 27
6, 1467, Note_on_c, 4, 76, 0
6, 1467, Note_on_c, 4, 72, 0
6, 1467, Note_on_c, 4, 67, 0
6, 1476, Control_c, 4, 11, 28
6, 1480, Note_on_c, 4, 72, 0
6, 1480, Note_on_c, 4, 67, 0
6, 1480, Note_on_c, 4, 76, 0
6, 1495, Note_on_c, 4, 72, 50
6, 1495, Note_on_c, 4, 67, 50
6, 1495, Note_on_c, 4, 76, 50
6, 1505, Control_c, 4, 11, 29
6, 1522, Note_on_c, 4, 76, 0
6, 1522, Note_on_c, 4, 67, 0
6, 1522, Note_on_c, 4, 72, 0
6, 1530, Note_on_c, 4, 76, 100
6, 1530, Note_on_c, 4, 72, 100
6, 1530, Note_on_c, 4, 67, 100
6, 1533, Control_c, 4, 11, 30
6, 1557, Note_on_c, 4, 67, 0
6, 1557, Note_on_c, 4, 72, 0
6, 1557, Note_on_c, 4, 76, 0
6, 1562, Control_c, 4, 11, 31
6, 1585, Note_on_c, 4, 76, 50
6, 1585, Note_on_c, 4, 72, 50
6, 1585, Note_on_c, 4, 67, 50
6, 1591, Control_c, 4, 11, 32
6, 1612, Note_on_c, 4, 67, 0
6, 1612, Note_on_c, 4, 72, 0
6, 1612, Note_on_c, 4, 76, 0
6, 1620, Note_on_c, 4, 67, 100
6, 1620, Note_on_c, 4, 71, 100
6, 1620, Control_c, 4, 11, 33
6, 1620, Note_on_c, 4, 74, 100
6, 1648, Control_c, 4, 11, 34
6, 1665, Note_on_c, 4, 74, 0
6, 1665, Note_on_c, 4, 71, 0
6, 1665, Note_on_c, 4, 67, 0
6, 1675, Note_on_c, 4, 67, 50
6, 1675, Note_on_c, 4, 71, 50
6, 1675, Note_on_c, 4, 74, 50
6, 1677, Control_c, 4, 11, 35
6, 1680, Note_on_c, 4, 74, 100
6, 1680, Note_on_c, 4, 67, 100
6, 1680, Note_on_c, 4, 71, 100
6, 1706, Control_c, 4, 11, 36
6, 1707, Note_on_c, 4, 74, 0
6, 1707, Note_on_c, 4, 67, 0
6, 1707, Note_on_c, 4, 71, 0
6, 1720, Note_on_c, 4, 74, 0
6, 1720, Note_on_c, 4, 67, 0
6, 1720, Note_on_c, 4, 71, 0
6, 1735, Note_on_c, 4, 74, 50
6, 1735, Note_on_c, 4, 67, 50
6, 1735, Note_on_c, 4, 71, 50
6, 1735, Control_c, 4, 11, 37
6, 1762, Note_on_c, 4, 71, 0
6, 1762, Note_on_c, 4, 67, 0
6, 1762, Note_on_c, 4, 74, 0
6, 1763, Control_c, 4, 11, 38
6, 1770, Note_on_c, 4, 71, 100
6, 1770, Note_on_c, 4, 67, 100
6, 1770, Note_on_c, 4, 74, 100
6, 1792, Control_c, 4, 11, 39
6, 1797, Note_on_c, 4, 74, 0
6, 1797, Note_on_c, 4, 67, 0
6, 1797, Note_on_c, 4, 71, 0
6, 1821, Control_c, 4, 11, 40
6, 1825, Note_on_c, 4, 71, 50
6, 1825, Note_on_c, 4, 67, 50
6, 1825, Note_on_c, 4, 74, 50
6, 1850, Control_c, 4, 11, 41
6, 1852, Note_on_c, 4, 74, 0
6, 1852, Note_on_c, 4, 67, 0
6, 1852, Note_on_c, 4, 71, 0
6, 1860, Note_on_c, 4, 66, 100
6, 1860, Note_on_c, 4, 69, 100
6, 1860, Note_on_c, 4, 62, 100
6, 1878, Control_c, 4, 11, 42
6, 1905, Note_on_c, 4, 62, 0
6, 1905, Note_on_c, 4, 69, 0
6, 1905, Note_on_c, 4, 66, 0
6, 1907, Control_c, 4, 11, 43
6, 1915, Note_on_c, 4, 66, 50
6, 1915, Note_on_c, 4, 69, 50
6, 1915, Note_on_c, 4, 62, 50
6, 1920, Note_on_c, 4, 67, 100
6, 1920, Note_on_c, 4, 64, 100
6, 1920, Note_on_c, 4, 71, 100
6, 1935, Control_c, 4, 11, 44
6, 1947, Note_on_c, 4, 71, 0
6, 1947, Note_on_c, 4, 67, 0
6, 1947, Note_on_c, 4, 64, 0
6, 1960, Note_on_c, 4, 66, 0
6, 1960, Note_on_c, 4, 62, 0
6, 1960, Note_on_c, 4, 69, 0
6, 1964, Control_c, 4, 11, 45
6, 1975, Note_on_c, 4, 67, 50
6, 1975, Note_on_c, 4, 64, 50
6, 1975, Note_on_c, 4, 71, 50
6, 1993, Control_c, 4, 11, 46
6, 2002, Note_on_c, 4, 71, 0
6, 2002, Note_on_c, 4, 64, 0
6, 2002, Note_on_c, 4, 67, 0
6, 2010, Note_on_c, 4, 71, 100
6, 2010, Note_on_c, 4, 67, 100
6, 2010, Note_on_c, 4, 64, 100
6, 2021, Control_c, 4, 11, 47
6, 2037, Note_on_c, 4, 64, 0
6, 2037, Note_on_c, 4, 67, 0
6, 2037, Note_on_c, 4, 71, 0
6, 2050, Control_c, 4, 11, 48
6, 2065, Note_on_c, 4, 71, 50
6, 2065, Note_on_c, 4, 67, 50
6, 2065, Note_on_c, 4, 64, 50
6, 2079, Control_c, 4, 11, 49
6, 2092, Note_on_c, 4, 64, 0
6, 2092, Note_on_c, 4, 67, 0
6, 2092, Note_on_c, 4, 71, 0
6, 2100, Note_on_c, 4, 64, 100
6, 2100, Note_on_c, 4, 71, 100
6, 2100, Note_on_c, 4, 67, 100
6, 2108, Control_c, 4, 11, 50
6, 2136, Control_c, 4, 11, 51
6, 2145, Note_on_c, 4, 67, 0
6, 2145, Note_on_c, 4, 71, 0
6, 2145, Note_on_c, 4, 64, 0
6, 2155, Note_on_c, 4, 64, 50
6, 2155, Note_on_c, 4, 71, 50
6, 2155, Note_on_c, 4, 67, 50
6, 2160, Note_on_c, 4, 67, 100
6, 2160, Note_on_c, 4, 64, 100
6, 2160, Note_on_c, 4, 71, 100
6, 2165, Control_c, 4, 11, 52
6, 2187, Note_on_c, 4, 67, 0
6, 2187, Note_on_c, 4, 64, 0
6, 2187, Note_on_c, 4, 71, 0
6, 2194, Control_c, 4, 11, 53
6, 2200, Note_on_c, 4, 67, 0
6, 2200, Note_on_c, 4, 64, 0
6, 2200, Note_on_c, 4, 71, 0
6, 2215, Note_on_c, 4, 67, 50
6, 2215, Note_on_c, 4, 64, 50
6, 2215, Note_on_c, 4, 71, 50
6, 2223, Control_c, 4, 11, 54
6, 2242, Note_on_c, 4, 71, 0
6, 2242, Note_on_c, 4, 64, 0
6, 2242, Note_on_c, 4, 67, 0
6, 2250, Note_on_c, 4, 67, 100
6, 2250, Note_on_c, 4, 64, 100
6, 2250, Note_on_c, 4, 71, 100
6, 2251, Control_c, 4, 11, 55
6, 2277, Note_on_c, 4, 71, 0
6, 2277, Note_on_c, 4, 64, 0
6, 2277, Note_on_c, 4, 67, 0
6, 2280, Control_c, 4, 11, 56
6, 2305, Note_on_c, 4, 67, 50
6, 2305, Note_on_c, 4, 64, 50
6, 2305, Note_on_c, 4, 71, 50
6, 2309, Control_c, 4, 11, 57
6, 2332, Note_on_c, 4, 71, 0
6, 2332, Note_on_c, 4, 64, 0
6, 2332, Note_on_c, 4, 67, 0
6, 2338, Control_c, 4, 11, 58
6, 2340, Note_on_c, 4, 72, 100
6, 2340, Note_on_c, 4, 76, 100
6, 2340, Note_on_c, 4, 69, 100
6, 2366, Control_c, 4, 11, 59
6, 2385, Note_on_c, 4, 69, 0
6, 2385, Note_on_c, 4, 76, 0
6, 2385, Note_on_c, 4, 72, 0
6, 2395, Note_on_c, 4, 72, 50
6, 2395, Note_on_c, 4, 76, 50
6, 2395, Note_on_c, 4, 69, 50
6, 2395, Control_c, 4, 11, 60
6, 2400, Note_on_c, 4, 67, 100
6, 2400, Note_on_c, 4, 64, 100
6, 2400, Note_on_c, 4, 71, 100
6, 2423, Control_c, 4, 11, 61
6, 2427, Note_on_c, 4, 71, 0
6, 2427, Note_on_c, 4, 67, 0
6, 2427, Note_on_c, 4, 64, 0
6, 2440, Note_on_c, 4, 72, 0
6, 2440, Note_on_c, 4, 69, 0
6, 2440, Note_on_c, 4, 76, 0
6, 2452, Control_c, 4, 11, 62
6, 2455, Note_on_c, 4, 67, 50
6, 2455, Note_on_c, 4, 64, 50
6, 2455, Note_on_c, 4, 71, 50
6, 2481, Control_c, 4, 11, 63
6, 2482, Note_on_c, 4, 71, 0
6, 2482, Note_on_c, 4, 64, 0
6, 2482, Note_on_c, 4, 67, 0
6, 2490, Note_on_c, 4, 71, 100
6, 2490, Note_on_c, 4, 67, 100
6, 2490, Note_on_c, 4, 64, 100
6, 2510, Control_c, 4, 11, 64
6, 2517, Note_on_c, 4, 64, 0
6, 2517, Note_on_c, 4, 67, 0
6, 2517, Note_on_c, 4, 71, 0
6, 2538, Control_c, 4, 11, 65
6, 2545, Note_on_c, 4, 71, 50
6, 2545, Note_on_c, 4, 67, 50
6, 2545, Note_on_c, 4, 64, 50
6, 2567, Control_c, 4, 11, 66
6, 2572, Note_on_c, 4, 64, 0
6, 2572, Note_on_c, 4, 67, 0
6, 2572, Note_on_c, 4, 71, 0
6, 2580, Note_on_c, 4, 64, 100
6, 2580, Note_on_c, 4, 71, 100
6, 2580, Note_on_c, 4, 67, 100
6, 2596, Control_c, 4, 11, 67
6, 2625, Note_on_c, 4, 67, 0
6, 2625, Note_on_c, 4, 71, 0
6, 2625, Note_on_c, 4, 64, 0
6, 2625, Control_c, 4, 11, 68
6, 2635, Note_on_c, 4, 64, 50
6, 2635, Note_on_c, 4, 71, 50
6, 2635, Note_on_c, 4, 67, 50
6, 2640, Note_on_c, 4, 67, 100
6, 2640, Note_on_c, 4, 64, 100
6, 2640, Note_on_c, 4, 71, 100
6, 2653, Control_c, 4, 11, 69
6, 2667, Note_on_c, 4, 67, 0
6, 2667, Note_on_c, 4, 64, 0
6, 2667, Note_on_c, 4, 71, 0
6, 2680, Note_on_c, 4, 67, 0
6, 2680, Note_on_c, 4, 64, 0
6, 2680, Note_on_c, 4, 71, 0
6, 2682, Control_c, 4, 11, 70
6, 2695, Note_on_c, 4, 67, 50
6, 2695, Note_on_c, 4, 64, 50
6, 2695, Note_on_c, 4, 71, 50
6, 2711, Control_c, 4, 11, 71
6, 2722, Note_on_c, 4, 71, 0
6, 2722, Note_on_c, 4, 64, 0
6, 2722, Note_on_c, 4, 67, 0
6, 2730, Note_on_c, 4, 67, 100
6, 2730, Note_on_c, 4, 64, 100
6, 2730, Note_on_c, 4, 71, 100
6, 2740, Control_c, 4, 11, 72
6, 2757, Note_on_c, 4, 71, 0
6, 2757, Note_on_c, 4, 64, 0
6, 2757, Note_on_c, 4, 67, 0
6, 2768, Control_c, 4, 11, 73
6, 2785, Note_on_c, 4, 67, 50
6, 2785, Note_on_c, 4, 64, 50
6, 2785, Note_on_c, 4, 71, 50
6, 2797, Control_c, 4, 11, 74
6, 2812, Note_on_c, 4, 71, 0
6, 2812, Note_on_c, 4, 64, 0
6, 2812, Note_on_c, 4, 67, 0
6, 2820, Note_on_c, 4, 72, 100
6, 2820, Note_on_c, 4, 76, 100
6, 2820, Note_on_c, 4, 69, 100
6, 2826, Control_c, 4, 11, 75
6, 2855, Control_c, 4, 11, 76
6, 2865, Note_on_c, 4, 69, 0
6, 2865, Note_on_c, 4, 76, 0
6, 2865, Note_on_c, 4, 72, 0
6, 2875, Note_on_c, 4, 72, 50
6, 2875, Note_on_c, 4, 76, 50
6, 2875, Note_on_c, 4, 69, 50
6, 2880, Note_on_c, 4, 71, 100
6, 2880, Note_on_c, 4, 67, 100
6, 2880, Note_on_c, 4, 64, 100
6, 2883, Control_c, 4, 11, 77
6, 2907, Note_on_c, 4, 64, 0
6, 2907, Note_on_c, 4, 71, 0
6, 2907, Note_on_c, 4, 67, 0
6, 2911, Control_c, 4, 11, 78
6, 2920, Note_on_c, 4, 72, 0
6, 2920, Note_on_c, 4, 69, 0
6, 2920, Note_on_c, 4, 76, 0
6, 2935, Note_on_c, 4, 71, 50
6, 2935, Note_on_c, 4, 67, 50
6, 2935, Note_on_c, 4, 64, 50
6, 2940, Control_c, 4, 11, 79
6, 2962, Note_on_c, 4, 64, 0
6, 2962, Note_on_c, 4, 67, 0
6, 2962, Note_on_c, 4, 71, 0
6, 2969, Control_c, 4, 11, 80
6, 2970, Note_on_c, 4, 71, 100
6, 2970, Note_on_c, 4, 64, 100
6, 2970, Note_on_c, 4, 67, 100
6, 2997, Note_on_c, 4, 67, 0
6, 2997, Note_on_c, 4, 64, 0
6, 2997, Note_on_c, 4, 71, 0
6, 2998, Control_c, 4, 11, 81
6, 3025, Note_on_c, 4, 71, 50
6, 3025, Note_on_c, 4, 64, 50
6, 3025, Note_on_c, 4, 67, 50
6, 3026, Control_c, 4, 11, 82
6, 3052, Note_on_c, 4, 67, 0
6, 3052, Note_on_c, 4, 64, 0
6, 3052, Note_on_c, 4, 71, 0
6, 3055, Control_c, 4, 11, 83
6, 3060, Note_on_c, 4, 67, 100
6, 3060, Note_on_c, 4, 64, 100
6, 3060, Note_on_c, 4, 71, 100
6, 3084, Control_c, 4, 11, 84
6, 3105, Note_on_c, 4, 71, 0
6, 3105, Note_on_c, 4, 64, 0
6, 3105, Note_on_c, 4, 67, 0
6, 3113, Control_c, 4, 11, 85
6, 3115, Note_on_c, 4, 67, 50
6, 3115, Note_on_c, 4, 64, 50
6, 3115, Note_on_c, 4, 71, 50
6, 3120, Note_on_c, 4, 71, 100
6, 3120, Note_on_c, 4, 67, 100
6, 3120, Note_on_c, 4, 64, 100
6, 3141, Control_c, 4, 11, 86
6, 3147, Note_on_c, 4, 71, 0
6, 3147, Note_on_c, 4, 67, 0
6, 3147, Note_on_c, 4, 64, 0
6, 3160, Note_on_c, 4, 71, 0
6, 3160, Note_on_c, 4, 67, 0
6, 3160, Note_on_c, 4, 64, 0
6, 3170, Control_c, 4, 11, 87
6, 3175, Note_on_c, 4, 71, 50
6, 3175, Note_on_c, 4, 67, 50
6, 3175, Note_on_c, 4, 64, 50
6, 3199, Control_c, 4, 11, 88
6, 3202, Note_on_c, 4, 64, 0
6, 3202, Note_on_c, 4, 67, 0
6, 3202, Note_on_c, 4, 71, 0
6, 3210, Note_on_c, 4, 67, 100
6, 3210, Note_on_c, 4, 71, 100
6, 3210, Note_on_c, 4, 64, 100
6, 3228, Control_c, 4, 11, 89
6, 3237, Note_on_c, 4, 64, 0
6, 3237, Note_on_c, 4, 71, 0
6, 3237, Note_on_c, 4, 67, 0
6, 3256, Control_c, 4, 11, 90
6, 3265, Note_on_c, 4, 67, 50
6, 3265, Note_on_c, 4, 71, 50
6, 3265, Note_on_c, 4, 64, 50
6, 3285, Control_c, 4, 11, 91
6, 3292, Note_on_c, 4, 64, 0
6, 3292, Note_on_c, 4, 71, 0
6, 3292, Note_on_c, 4, 67, 0
6, 3300, Note_on_c, 4, 76, 100
6, 3300, Note_on_c, 4, 72, 100
6, 3300, Note_on_c, 4, 67, 100
6, 3314, Control_c, 4, 11, 92
6, 3343, Control_c, 4, 11, 93
6, 3345, Note_on_c, 4, 67, 0
6, 3345, Note_on_c, 4, 72, 0
6, 3345, Note_on_c, 4, 76, 0
6, 3355, Note_on_c, 4, 76, 50
6, 3355, Note_on_c, 4, 72, 50
6, 3355, Note_on_c, 4, 67, 50
6, 3360, Note_on_c, 4, 67, 100
6, 3360, Note_on_c, 4, 76, 100
6, 3360, Note_on_c, 4, 72, 100
6, 3371, Control_c, 4, 11, 94
6, 3387, Note_on_c, 4, 67, 0
6, 3387, Note_on_c, 4, 76, 0
6, 3387, Note_on_c, 4, 72, 0
6, 3400, Note_on_c, 4, 67, 0
6, 3400, Note_on_c, 4, 76, 0
6, 3400, Note_on_c, 4, 72, 0
6, 3400, Control_c, 4, 11, 95
6, 3415, Note_on_c, 4, 67, 50
6, 3415, Note_on_c, 4, 76, 50
6, 3415, Note_on_c, 4, 72, 50
6, 3428, Control_c, 4, 11, 96
6, 3442, Note_on_c, 4, 72, 0
6, 3442, Note_on_c, 4, 76, 0
6, 3442, Note_on_c, 4, 67, 0
6, 3450, Note_on_c, 4, 67, 100
6, 3450, Note_on_c, 4, 72, 100
6, 3450, Note_on_c, 4, 76, 100
6, 3457, Control_c, 4, 11, 97
6, 3477, Note_on_c, 4, 76, 0
6, 3477, Note_on_c, 4, 72, 0
6, 3477, Note_on_c, 4, 67, 0
6, 3486, Control_c, 4, 11, 98
6, 3505, Note_on_c, 4, 67, 50
6, 3505, Note_on_c, 4, 72, 50
6, 3505, Note_on_c, 4, 76, 50
6, 3515, Control_c, 4, 11, 99
6, 3532, Note_on_c, 4, 76, 0
6, 3532, Note_on_c, 4, 72, 0
6, 3532, Note_on_c, 4, 67, 0
6, 3540, Note_on_c, 4, 67, 100
6, 3540, Note_on_c, 4, 71, 100
6, 3540, Note_on_c, 4, 74, 100
6, 3543, Control_c, 4, 11, 100
6, 3572, Control_c, 4, 11, 101
6, 3585, Note_on_c, 4, 74, 0
6, 3585, Note_on_c, 4, 71, 0
6, 3585, Note_on_c, 4, 67, 0
6, 3595, Note_on_c, 4, 67, 50
6, 3595, Note_on_c, 4, 71, 50
6, 3595, Note_on_c, 4, 74, 50
6, 3600, Note_on_c, 4, 67, 100
6, 3600, Note_on_c, 4, 74, 100
6, 3600, Note_on_c, 4, 71, 100
6, 3601, Control_c, 4, 11, 102
6, 3627, Note_on_c, 4, 74, 0
6, 3627, Note_on_c, 4, 67, 0
6, 3627, Note_on_c, 4, 71, 0
6, 3630, Control_c, 4, 11, 103
6, 3640, Note_on_c, 4, 67, 0
6, 3640, Note_on_c, 4, 74, 0
6, 3640, Note_on_c, 4, 71, 0
6, 3655, Note_on_c, 4, 67, 50
6, 3655, Note_on_c, 4, 74, 50
6, 3655, Note_on_c, 4, 71, 50
6, 3658, Control_c, 4, 11, 104
6, 3682, Note_on_c, 4, 71, 0
6, 3682, Note_on_c, 4, 74, 0
6, 3682, Note_on_c, 4, 67, 0
6, 3687, Control_c, 4, 11, 105
6, 3690, Note_on_c, 4, 67, 100
6, 3690, Note_on_c, 4, 71, 100
6, 3690, Note_on_c, 4, 74, 100
6, 3716, Control_c, 4, 11, 106
6, 3717, Note_on_c, 4, 74, 0
6, 3717, Note_on_c, 4, 71, 0
6, 3717, Note_on_c, 4, 67, 0
6, 3745, Note_on_c, 4, 67, 50
6, 3745, Note_on_c, 4, 71, 50
6, 3745, Note_on_c, 4, 74, 50
6, 3745, Control_c, 4, 11, 107
6, 3772, Note_on_c, 4, 74, 0
6, 3772, Note_on_c, 4, 71, 0
6, 3772, Note_on_c, 4, 67, 0
6, 3773, Control_c, 4, 11, 108
6, 3780, Note_on_c, 4, 69, 100
6, 3780, Note_on_c, 4, 66, 100
6, 3780, Note_on_c, 4, 62, 100
6, 3802, Control_c, 4, 11, 109
6, 3825, Note_on_c, 4, 62, 0
6, 3825, Note_on_c, 4, 66, 0
6, 3825, Note_on_c, 4, 69, 0
6, 3831, Control_c, 4, 11, 110
6, 3835, Note_on_c, 4, 69, 50
6, 3835, Note_on_c, 4, 66, 50
6, 3835, Note_on_c, 4, 62, 50
6, 3840, Note_on_c, 4, 64, 100
6, 3840, Note_on_c, 4, 67, 100
6, 3840, Note_on_c, 4, 71, 100
6, 3859, Control_c, 4, 11, 111
6, 3867, Note_on_c, 4, 71, 0
6, 3867, Note_on_c, 4, 64, 0
6, 3867, Note_on_c, 4, 67, 0
6, 3880, Note_on_c, 4, 69, 0
6, 3880, Note_on_c, 4, 62, 0
6, 3880, Note_on_c, 4, 66, 0
6, 3888, Control_c, 4, 11, 112
6, 3895, Note_on_c, 4, 64, 50
6, 3895, Note_on_c, 4, 67, 50
6, 3895, Note_on_c, 4, 71, 50
6, 3916, Control_c, 4, 11, 113
6, 3922, Note_on_c, 4, 71, 0
6, 3922, Note_on_c, 4, 67, 0
6, 3922, Note_on_c, 4, 64, 0
6, 3930, Note_on_c, 4, 67, 100
6, 3930, Note_on_c, 4, 71, 100
6, 3930, Note_on_c, 4, 64, 100
6, 3945, Control_c, 4, 11, 114
6, 3957, Note_on_c, 4, 64, 0
6, 3957, Note_on_c, 4, 71, 0
6, 3957, Note_on_c, 4, 67, 0
6, 3974, Control_c, 4, 11, 115
6, 3985, Note_on_c, 4, 67, 50
6, 3985, Note_on_c, 4, 71, 50
6, 3985, Note_on_c, 4, 64, 50
6, 4003, Control_c, 4, 11, 116
6, 4012, Note_on_c, 4, 64, 0
6, 4012, Note_on_c, 4, 71, 0
6, 4012, Note_on_c, 4, 67, 0
6, 4020, Note_on_c, 4, 71, 100
6, 4020, Note_on_c, 4, 64, 100
6, 4020, Note_on_c, 4, 67, 100
6, 4031, Control_c, 4, 11, 117
6, 4060, Control_c, 4, 11, 118
6, 4065, Note_on_c, 4, 67, 0
6, 4065, Note_on_c, 4, 64, 0
6, 4065, Note_on_c, 4, 71, 0
6, 4075, Note_on_c, 4, 71, 50
6, 4075, Note_on_c, 4, 64, 50
6, 4075, Note_on_c, 4, 67, 50
6, 4080, Note_on_c, 4, 67, 100
6, 4080, Note_on_c, 4, 64, 100
6, 4080, Note_on_c, 4, 71, 100
6, 4089, Control_c, 4, 11, 119
6, 4107, Note_on_c, 4, 67, 0
6, 4107, Note_on_c, 4, 71, 0
6, 4107, Note_on_c, 4, 64, 0
6, 4118, Control_c, 4, 11, 120
6, 4120, Note_on_c, 4, 67, 0
6, 4120, Note_on_c, 4, 64, 0
6, 4120, Note_on_c, 4, 71, 0
6, 4135, Note_on_c, 4, 67, 50
6, 4135, Note_on_c, 4, 64, 50
6, 4135, Note_on_c, 4, 71, 50
6, 4146, Control_c, 4, 11, 121
6, 4162, Note_on_c, 4, 71, 0
6, 4162, Note_on_c, 4, 64, 0
6, 4162, Note_on_c, 4, 67, 0
6, 4170, Note_on_c, 4, 71, 100
6, 4170, Note_on_c, 4, 64, 100
6, 4170, Note_on_c, 4, 67, 100
6, 4175, Control_c, 4, 11, 122
6, 4197, Note_on_c, 4, 67, 0
6, 4197, Note_on_c, 4, 64, 0
6, 4197, Note_on_c, 4, 71, 0
6, 4204, Control_c, 4, 11, 123
6, 4225, Note_on_c, 4, 71, 50
6, 4225, Note_on_c, 4, 64, 50
6, 4225, Note_on_c, 4, 67, 50
6, 4233, Control_c, 4, 11, 124
6, 4252, Note_on_c, 4, 67, 0
6, 4252, Note_on_c, 4, 64, 0
6, 4252, Note_on_c, 4, 71, 0
6, 4260, Note_on_c, 4, 69, 100
6, 4260, Note_on_c, 4, 72, 100
6, 4260, Note_on_c, 4, 76, 100
6, 4261, Control_c, 4, 11, 125
6, 4290, Control_c, 4, 11, 126
6, 4305, Note_on_c, 4, 76, 0
6, 4305, Note_on_c, 4, 72, 0
6, 4305, Note_on_c, 4, 69, 0
6, 4315, Note_on_c, 4, 69, 50
6, 4315, Note_on_c, 4, 72, 50
6, 4315, Note_on_c, 4, 76, 50
6, 4319, Control_c, 4, 11, 127
6, 4320, Note_on_c, 4, 64, 100
6, 4320, Note_on_c, 4, 67, 100
6, 4320, Note_on_c, 4, 71, 100
6, 4347, Note_on_c, 4, 71, 0
6, 4347, Note_on_c, 4, 64, 0
6, 4347, Note_on_c, 4, 67, 0
6, 4360, Note_on_c, 4, 69, 0
6, 4360, Note_on_c, 4, 76, 0
6, 4360, Note_on_c, 4, 72, 0
6, 4375, Note_on_c, 4, 64, 50
6, 4375, Note_on_c, 4, 67, 50
6, 4375, Note_on_c, 4, 71, 50
6, 4402, Note_on_c, 4, 71, 0
6, 4402, Note_on_c, 4, 67, 0
6, 4402, Note_on_c, 4, 64, 0
6, 4410, Note_on_c, 4, 64, 100
6, 4410, Note_on_c, 4, 71, 100
6, 4410, Note_on_c, 4, 67, 100
6, 4437, Note_on_c, 4, 67, 0
6, 4437, Note_on_c, 4, 71, 0
6, 4437, Note_on_c, 4, 64, 0
6, 4465, Note_on_c, 4, 64, 50
6, 4465, Note_on_c, 4, 71, 50
6, 4465, Note_on_c, 4, 67, 50
6, 4492, Note_on_c, 4, 67, 0
6, 4492, Note_on_c, 4, 71, 0
6, 4492, Note_on_c, 4, 64, 0
6, 4500, Note_on_c, 4, 67, 100
6, 4500, Note_on_c, 4, 71, 100
6, 4500, Note_on_c, 4, 64, 100
6, 4545, Note_on_c, 4, 64, 0
6, 4545, Note_on_c, 4, 71, 0
6, 4545, Note_on_c, 4, 67, 0
6, 4555, Note_on_c, 4, 67, 50
6, 4555, Note_on_c, 4, 71, 50
6, 4555, Note_on_c, 4, 64, 50
6, 4560, Note_on_c, 4, 71, 100
6, 4560, Note_on_c, 4, 64, 100
6, 4560, Note_on_c, 4, 67, 100
6, 4587, Note_on_c, 4, 64, 0
6, 4587, Note_on_c, 4, 67, 0
6, 4587, Note_on_c, 4, 71, 0
6, 4600, Note_on_c, 4, 71, 0
6, 4600, Note_on_c, 4, 64, 0
6, 4600, Note_on_c, 4, 67, 0
6, 4615, Note_on_c, 4, 71, 50
6, 4615, Note_on_c, 4, 64, 50
6, 4615, Note_on_c, 4, 67, 50
6, 4642, Note_on_c, 4, 67, 0
6, 4642, Note_on_c, 4, 64, 0
6, 4642, Note_on_c, 4, 71, 0
6, 4650, Note_on_c, 4, 71, 100
6, 4650, Note_on_c, 4, 64, 100
6, 4650, Note_on_c, 4, 67, 100
6, 4677, Note_on_c, 4, 67, 0
6, 4677, Note_on_c, 4, 64, 0
6, 4677, Note_on_c, 4, 71, 0
6, 4705, Note_on_c, 4, 71, 50
6, 4705, Note_on_c, 4, 64, 50
6, 4705, Note_on_c, 4, 67, 50
6, 4732, Note_on_c, 4, 67, 0
6, 4732, Note_on_c, 4, 64, 0
6, 4732, Note_on_c, 4, 71, 0
6, 4740, Note_on_c, 4, 69, 100
6, 4740, Note_on_c, 4, 76, 100
6, 4740, Note_on_c, 4, 72, 100
6, 4785, Note_on_c, 4, 72, 0
6, 4785, Note_on_c, 4, 76, 0
6, 4785, Note_on_c, 4, 69, 0
6, 4795, Note_on_c, 4, 69, 50
6, 4795, Note_on_c, 4, 76, 50
6, 4795, Note_on_c, 4, 72, 50
6, 4800, Note_on_c, 4, 71, 100
6, 4800, Note_on_c, 4, 67, 100
6, 4800, Note_on_c, 4, 64, 100
6, 4827, Note_on_c, 4, 64, 0
6, 4827, Note_on_c, 4, 71, 0
6, 4827, Note_on_c, 4, 67, 0
6, 4840, Note_on_c, 4, 69, 0
6, 4840, Note_on_c, 4, 72, 0
6, 4840, Note_on_c, 4, 76, 0
6, 4855, Note_on_c, 4, 71, 50
6, 4855, Note_on_c, 4, 67, 50
6, 4855, Note_on_c, 4, 64, 50
6, 4882, Note_on_c, 4, 64, 0
6, 4882, Note_on_c, 4, 67, 0
6, 4882, Note_on_c, 4, 71, 0
6, 4890, Note_on_c, 4, 71, 100
6, 4890, Note_on_c, 4, 67, 100
6, 4890, Note_on_c, 4, 64, 100
6, 4917, Note_on_c, 4, 64, 0
6, 4917, Note_on_c, 4, 67, 0
6, 4917, Note_on_c, 4, 71, 0
6, 4945, Note_on_c, 4, 71, 50
6, 4945, Note_on_c, 4, 67, 50
6, 4945, Note_on_c, 4, 64, 50
6, 4972, Note_on_c, 4, 64, 0
6, 4972, Note_on_c, 4, 67, 0
6, 4972, Note_on_c, 4, 71, 0
6, 4980, Note_on_c, 4, 64, 100
6, 4980, Note_on_c, 4, 67, 100
6, 4980, Note_on_c, 4, 71, 100
6, 5025, Note_on_c, 4, 71, 0
6, 5025, Note_on_c, 4, 67, 0
6, 5025, Note_on_c, 4, 64, 0
6, 5035, Note_on_c, 4, 64, 50
6, 5035, Note_on_c, 4, 67, 50
6, 5035, Note_on_c, 4, 71, 50
6, 5040, Note_on_c, 4, 71, 100
6, 5040, Note_on_c, 4, 67, 100
6, 5040, Note_on_c, 4, 64, 100
6, 5067, Note_on_c, 4, 71, 0
6, 5067, Note_on_c, 4, 64, 0
6, 5067, Note_on_c, 4, 67, 0
6, 5080, Note_on_c, 4, 71, 0
6, 5080, Note_on_c, 4, 67, 0
6, 5080, Note_on_c, 4, 64, 0
6, 5095, Note_on_c, 4, 71, 50
6, 5095, Note_on_c, 4, 67, 50
6, 5095, Note_on_c, 4, 64, 50
6, 5122, Note_on_c, 4, 64, 0
6, 5122, Note_on_c, 4, 67, 0
6, 5122, Note_on_c, 4, 71, 0
6, 5130, Note_on_c, 4, 71, 100
6, 5130, Note_on_c, 4, 67, 100
6, 5130, Note_on_c, 4, 64, 100
6, 5157, Note_on_c, 4, 64, 0
6, 5157, Note_on_c, 4, 67, 0
6, 5157, Note_on_c, 4, 71, 0
6, 5185, Note_on_c, 4, 71, 50
6, 5185, Note_on_c, 4, 67, 50
6, 5185, Note_on_c, 4, 64, 50
6, 5212, Note_on_c, 4, 64, 0
6, 5212, Note_on_c, 4, 67, 0
6, 5212, Note_on_c, 4, 71, 0
6, 5220, Note_on_c, 4, 76, 100
6, 5220, Note_on_c, 4, 72, 100
6, 5220, Note_on_c, 4, 67, 100
6, 5265, Note_on_c, 4, 67, 0
6, 5265, Note_on_c, 4, 72, 0
6, 5265, Note_on_c, 4, 76, 0
6, 5275, Note_on_c, 4, 76, 50
6, 5275, Note_on_c, 4, 72, 50
6, 5275, Note_on_c, 4, 67, 50
6, 5280, Note_on_c, 4, 76, 100
6, 5280, Note_on_c, 4, 72, 100
6, 5280, Note_on_c, 4, 67, 100
6, 5307, Note_on_c, 4, 67, 0
6, 5307, Note_on_c, 4, 76, 0
6, 5307, Note_on_c, 4, 72, 0
6, 5320, Note_on_c, 4, 76, 0
6, 5320, Note_on_c, 4, 72, 0
6, 5320, Note_on_c, 4, 67, 0
6, 5335, Note_on_c, 4, 76, 50
6, 5335, Note_on_c, 4, 72, 50
6, 5335, Note_on_c, 4, 67, 50
6, 5362, Note_on_c, 4, 67, 0
6, 5362, Note_on_c, 4, 72, 0
6, 5362, Note_on_c, 4, 76, 0
6, 5370, Note_on_c, 4, 76, 100
6, 5370, Note_on_c, 4, 67, 100
6, 5370, Note_on_c, 4, 72, 100
6, 5397, Note_on_c, 4, 72, 0
6, 5397, Note_on_c, 4, 67, 0
6, 5397, Note_on_c, 4, 76, 0
6, 5425, Note_on_c, 4, 76, 50
6, 5425, Note_on_c, 4, 67, 50
6, 5425, Note_on_c, 4, 72, 50
6, 5452, Note_on_c, 4, 72, 0
6, 5452, Note_on_c, 4, 67, 0
6, 5452, Note_on_c, 4, 76, 0
6, 5460, Note_on_c, 4, 71, 100
6, 5460, Note_on_c, 4, 74, 100
6, 5460, Note_on_c, 4, 67, 100
6, 5505, Note_on_c, 4, 67, 0
6, 5505, Note_on_c, 4, 74, 0
6, 5505, Note_on_c, 4, 71, 0
6, 5515, Note_on_c, 4, 71, 50
6, 5515, Note_on_c, 4, 74, 50
6, 5515, Note_on_c, 4, 67, 50
6, 5520, Note_on_c, 4, 67, 100
6, 5520, Note_on_c, 4, 74, 100
6, 5520, Note_on_c, 4, 71, 100
6, 5547, Note_on_c, 4, 67, 0
6, 5547, Note_on_c, 4, 71, 0
6, 5547, Note_on_c, 4, 74, 0
6, 5560, Note_on_c, 4, 67, 0
6, 5560, Note_on_c, 4, 74, 0
6, 5560, Note_on_c, 4, 71, 0
6, 5575, Note_on_c, 4, 67, 50
6, 5575, Note_on_c, 4, 74, 50
6, 5575, Note_on_c, 4, 71, 50
6, 5602, Note_on_c, 4, 71, 0
6, 5602, Note_on_c, 4, 74, 0
6, 5602, Note_on_c, 4, 67, 0
6, 5610, Note_on_c, 4, 74, 100
6, 5610, Note_on_c, 4, 67, 100
6, 5610, Note_on_c, 4, 71, 100
6, 5637, Note_on_c, 4, 71, 0
6, 5637, Note_on_c, 4, 67, 0
6, 5637, Note_on_c, 4, 74, 0
6, 5665, Note_on_c, 4, 74, 50
6, 5665, Note_on_c, 4, 67, 50
6, 5665, Note_on_c, 4, 71, 50
6, 5692, Note_on_c, 4, 71, 0
6, 5692, Note_on_c, 4, 67, 0
6, 5692, Note_on_c, 4, 74, 0
6, 5700, Note_on_c, 4, 69, 100
6, 5700, Note_on_c, 4, 66, 100
6, 5700, Note_on_c, 4, 62, 100
6, 5745, Note_on_c, 4, 62, 0
6, 5745, Note_on_c, 4, 66, 0
6, 5745, Note_on_c, 4, 69, 0
6, 5755, Note_on_c, 4, 69, 50
6, 5755, Note_on_c, 4, 66, 50
6, 5755, Note_on_c, 4, 62, 50
6, 5760, Note_on_c, 4, 71, 100
6, 5760, Note_on_c, 4, 67, 100
6, 5760, Note_on_c, 4, 64, 100
6, 5787, Note_on_c, 4, 64, 0
6, 5787, Note_on_c, 4, 71, 0
6, 5787, Note_on_c, 4, 67, 0
6, 5800, Note_on_c, 4, 69, 0
6, 5800, Note_on_c, 4, 62, 0
6, 5800, Note_on_c, 4, 66, 0
6, 5815, Note_on_c, 4, 71, 50
6, 5815, Note_on_c, 4, 67, 50
6, 5815, Note_on_c, 4, 64, 50
6, 5842, Note_on_c, 4, 64, 0
6, 5842, Note_on_c, 4, 67, 0
6, 5842, Note_on_c, 4, 71, 0
6, 5850, Note_on_c, 4, 71, 100
6, 5850, Note_on_c, 4, 64, 100
6, 5850, Note_on_c, 4, 67, 100
6, 5877, Note_on_c, 4, 67, 0
6, 5877, Note_on_c, 4, 64, 0
6, 5877, Note_on_c, 4, 71, 0
6, 5905, Note_on_c, 4, 71, 50
6, 5905, Note_on_c, 4, 64, 50
6, 5905, Note_on_c, 4, 67, 50
6, 5932, Note_on_c, 4, 67, 0
6, 5932, Note_on_c, 4, 64, 0
6, 5932, Note_on_c, 4, 71, 0
6, 5940, Note_on_c, 4, 67, 100
6, 5940, Note_on_c, 4, 71, 100
6, 5940, Note_on_c, 4, 64, 100
6, 5985, Note_on_c, 4, 64, 0
6, 5985, Note_on_c, 4, 71, 0
6, 5985, Note_on_c, 4, 67, 0
6, 5995, Note_on_c, 4, 67, 50
6, 5995, Note_on_c, 4, 71, 50
6, 5995, Note_on_c, 4, 64, 50
6, 6000, Note_on_c, 4, 71, 100
6, 6000, Note_on_c, 4, 64, 100
6, 6000, Note_on_c, 4, 67, 100
6, 6027, Note_on_c, 4, 64, 0
6, 6027, Note_on_c, 4, 67, 0
6, 6027, Note_on_c, 4, 71, 0
6, 6040, Note_on_c, 4, 71, 0
6, 6040, Note_on_c, 4, 64, 0
6, 6040, Note_on_c, 4, 67, 0
6, 6055, Note_on_c, 4, 71, 50
6, 6055, Note_on_c, 4, 64, 50
6, 6055, Note_on_c, 4, 67, 50
6, 6082, Note_on_c, 4, 67, 0
6, 6082, Note_on_c, 4, 64, 0
6, 6082, Note_on_c, 4, 71, 0
6, 6090, Note_on_c, 4, 71, 100
6, 6090, Note_on_c, 4, 67, 100
6, 6090, Note_on_c, 4, 64, 100
6, 6117, Note_on_c, 4, 64, 0
6, 6117, Note_on_c, 4, 67, 0
6, 6117, Note_on_c, 4, 71, 0
6, 6145, Note_on_c, 4, 71, 50
6, 6145, Note_on_c, 4, 67, 50
6, 6145, Note_on_c, 4, 64, 50
6, 6172, Note_on_c, 4, 64, 0
6, 6172, Note_on_c, 4, 67, 0
6, 6172, Note_on_c, 4, 71, 0
6, 6180, Note_on_c, 4, 72, 100
6, 6180, Note_on_c, 4, 69, 100
6, 6180, Note_on_c, 4, 76, 100
6, 6225, Note_on_c, 4, 76, 0
6, 6225, Note_on_c, 4, 69, 0
6, 6225, Note_on_c, 4, 72, 0
6, 6235, Note_on_c, 4, 72, 50
6, 6235, Note_on_c, 4, 69, 50
6, 6235, Note_on_c, 4, 76, 50
6, 6240, Note_on_c, 4, 67, 100
6, 6240, Note_on_c, 4, 64, 100
6, 6240, Note_on_c, 4, 71, 100
6, 6267, Note_on_c, 4, 71, 0
6, 6267, Note_on_c, 4, 67, 0
6, 6267, Note_on_c, 4, 64, 0
6, 6280, Note_on_c, 4, 72, 0
6, 6280, Note_on_c, 4, 76, 0
6, 6280, Note_on_c, 4, 69, 0
6, 6295, Note_on_c, 4, 67, 50
6, 6295, Note_on_c, 4, 64, 50
6, 6295, Note_on_c, 4, 71, 50
6, 6322, Note_on_c, 4, 71, 0
6, 6322, Note_on_c, 4, 64, 0
6, 6322, Note_on_c, 4, 67, 0
6, 6330, Note_on_c, 4, 64, 100
6, 6330, Note_on_c, 4, 67, 100
6, 6330, Note_on_c, 4, 71, 100
6, 6357, Note_on_c, 4, 71, 0
6, 6357, Note_on_c, 4, 67, 0
6, 6357, Note_on_c, 4, 64, 0
6, 6385, Note_on_c, 4, 64, 50
6, 6385, Note_on_c, 4, 67, 50
6, 6385, Note_on_c, 4, 71, 50
6, 6412, Note_on_c, 4, 71, 0
6, 6412, Note_on_c, 4, 67, 0
6, 6412, Note_on_c, 4, 64, 0
6, 6420, Note_on_c, 4, 71, 100
6, 6420, Note_on_c, 4, 67, 100
6, 6420, Note_on_c, 4, 64, 100
6, 6465, Note_on_c, 4, 64, 0
6, 6465, Note_on_c, 4, 67, 0
6, 6465, Note_on_c, 4, 71, 0
6, 6475, Note_on_c, 4, 71, 50
6, 6475, Note_on_c, 4, 67, 50
6, 6475, Note_on_c, 4, 64, 50
6, 6480, Note_on_c, 4, 64, 100
6, 6480, Note_on_c, 4, 67, 100
6, 6480, Note_on_c, 4, 71, 100
6, 6507, Note_on_c, 4, 64, 0
6, 6507, Note_on_c, 4, 71, 0
6, 6507, Note_on_c, 4, 67, 0
6, 6520, Note_on_c, 4, 64, 0
6, 6520, Note_on_c, 4, 67, 0
6, 6520, Note_on_c, 4, 71, 0
6, 6535, Note_on_c, 4, 64, 50
6, 6535, Note_on_c, 4, 67, 50
6, 6535, Note_on_c, 4, 71, 50
6, 6562, Note_on_c, 4, 71, 0
6, 6562, Note_on_c, 4, 67, 0
6, 6562, Note_on_c, 4, 64, 0
6, 6570, Note_on_c, 4, 71, 100
6, 6570, Note_on_c, 4, 67, 100
6, 6570, Note_on_c, 4, 64, 100
6, 6597, Note_on_c, 4, 64, 0
6, 6597, Note_on_c, 4, 67, 0
6, 6597, Note_on_c, 4, 71, 0
6, 6625, Note_on_c, 4, 71, 50
6, 6625, Note_on_c, 4, 67, 50
6, 6625, Note_on_c, 4, 64, 50
6, 6652, Note_on_c, 4, 64, 0
6, 6652, Note_on_c, 4, 67, 0
6, 6652, Note_on_c, 4, 71, 0
6, 6660, Note_on_c, 4, 72, 100
6, 6660, Note_on_c, 4, 69, 100
6, 6660, Note_on_c, 4, 76, 100
6, 6705, Note_on_c, 4, 76, 0
6, 6705, Note_on_c, 4, 69, 0
6, 6705, Note_on_c, 4, 72, 0
6, 6715, Note_on_c, 4, 72, 50
6, 6715, Note_on_c, 4, 69, 50
6, 6715, Note_on_c, 4, 76, 50
6, 6720, Note_on_c, 4, 67, 100
6, 6720, Note_on_c, 4, 64, 100
6, 6720, Note_on_c, 4, 71, 100
6, 6747, Note_on_c, 4, 71, 0
6, 6747, Note_on_c, 4, 67, 0
6, 6747, Note_on_c, 4, 64, 0
6, 6760, Note_on_c, 4, 72, 0
6, 6760, Note_on_c, 4, 76, 0
6, 6760, Note_on_c, 4, 69, 0
6, 6775, Note_on_c, 4, 67, 50
6, 6775, Note_on_c, 4, 64, 50
6, 6775, Note_on_c, 4, 71, 50
6, 6802, Note_on_c, 4, 71, 0
6, 6802, Note_on_c, 4, 64, 0
6, 6802, Note_on_c, 4, 67, 0
6, 6810, Note_on_c, 4, 71, 100
6, 6810, Note_on_c, 4, 64, 100
6, 6810, Note_on_c, 4, 67, 100
6, 6837, Note_on_c, 4, 67, 0
6, 6837, Note_on_c, 4, 64, 0
6, 6837, Note_on_c, 4, 71, 0
6, 6865, Note_on_c, 4, 71, 50
6, 6865, Note_on_c, 4, 64, 50
6, 6865, Note_on_c, 4, 67, 50
6, 6892, Note_on_c, 4, 67, 0
6, 6892, Note_on_c, 4, 64, 0
6, 6892, Note_on_c, 4, 71, 0
6, 6900, Note_on_c, 4, 71, 100
6, 6900, Note_on_c, 4, 64, 100
6, 6900, Note_on_c, 4, 67, 100
6, 6945, Note_on_c, 4, 67, 0
6, 6945, Note_on_c, 4, 64, 0
6, 6945, Note_on_c, 4, 71, 0
6, 6955, Note_on_c, 4, 71, 50
6, 6955, Note_on_c, 4, 64, 50
6, 6955, Note_on_c, 4, 67, 50
6, 6960, Note_on_c, 4, 67, 100
6, 6960, Note_on_c, 4, 64, 100
6, 6960, Note_on_c, 4, 71, 100
6, 6987, Note_on_c, 4, 67, 0
6, 6987, Note_on_c, 4, 71, 0
6, 6987, Note_on_c, 4, 64, 0
6, 7000, Note_on_c, 4, 67, 0
6, 7000, Note_on_c, 4, 64, 0
6, 7000, Note_on_c, 4, 71, 0
6, 7015, Note_on_c, 4, 67, 50
6, 7015, Note_on_c, 4, 64, 50
6, 7015, Note_on_c, 4, 71, 50
6, 7042, Note_on_c, 4, 71, 0
6, 7042, Note_on_c, 4, 64, 0
6, 7042, Note_on_c, 4, 67, 0
6, 7050, Note_on_c, 4, 64, 100
6, 7050, Note_on_c, 4, 67, 100
6, 7050, Note_on_c, 4, 71, 100
6, 7077, Note_on_c, 4, 71, 0
6, 7077, Note_on_c, 4, 67, 0
6, 7077, Note_on_c, 4, 64, 0
6, 7105, Note_on_c, 4, 64, 50
6, 7105, Note_on_c, 4, 67, 50
6, 7105, Note_on_c, 4, 71, 50
6, 7132, Note_on_c, 4, 71, 0
6, 7132, Note_on_c, 4, 67, 0
6, 7132, Note_on_c, 4, 64, 0
6, 7140, Note_on_c, 4, 64, 100
6, 7140, Note_on_c, 4, 67, 100
6, 7140, Note_on_c, 4, 71, 100
6, 7185, Note_on_c, 4, 71, 0
6, 7185, Note_on_c, 4, 67, 0
6, 7185, Note_on_c, 4, 64, 0
6, 7195, Note_on_c, 4, 64, 50
6, 7195, Note_on_c, 4, 67, 50
6, 7195, Note_on_c, 4, 71, 50
6, 7200, Note_on_c, 4, 71, 100
6, 7200, Note_on_c, 4, 64, 100
6, 7200, Note_on_c, 4, 67, 100
6, 7227, Note_on_c, 4, 71, 0
6, 7227, Note_on_c, 4, 64, 0
6, 7227, Note_on_c, 4, 67, 0
6, 7240, Note_on_c, 4, 71, 0
6, 7240, Note_on_c, 4, 64, 0
6, 7240, Note_on_c, 4, 67, 0
6, 7255, Note_on_c, 4, 71, 50
6, 7255, Note_on_c, 4, 64, 50
6, 7255, Note_on_c, 4, 67, 50
6, 7282, Note_on_c, 4, 67, 0
6, 7282, Note_on_c, 4, 64, 0
6, 7282, Note_on_c, 4, 71, 0
6, 7290, Note_on_c, 4, 71, 100
6, 7290, Note_on_c, 4, 67, 100
6, 7290, Note_on_c, 4, 64, 100
6, 7317, Note_on_c, 4, 64, 0
6, 7317, Note_on_c, 4, 67, 0
6, 7317, Note_on_c, 4, 71, 0
6, 7345, Note_on_c, 4, 71, 50
6, 7345, Note_on_c, 4, 67, 50
6, 7345, Note_on_c, 4, 64, 50
6, 7372, Note_on_c, 4, 64, 0
6, 7372, Note_on_c, 4, 67, 0
6, 7372, Note_on_c, 4, 71, 0
6, 7380, Note_on_c, 4, 64, 100
6, 7380, Note_on_c, 4, 67, 100
6, 7380, Note_on_c, 4, 71, 100
6, 7425, Note_on_c, 4, 71, 0
6, 7425, Note_on_c, 4, 67, 0
6, 7425, Note_on_c, 4, 64, 0
6, 7435, Note_on_c, 4, 64, 50
6, 7435, Note_on_c, 4, 67, 50
6, 7435, Note_on_c, 4, 71, 50
6, 7440, Note_on_c, 4, 71, 100
6, 7440, Note_on_c, 4, 67, 100
6, 7440, Note_on_c, 4, 64, 100
6, 7467, Note_on_c, 4, 71, 0
6, 7467, Note_on_c, 4, 64, 0
6, 7467, Note_on_c, 4, 67, 0
6, 7480, Note_on_c, 4, 71, 0
6, 7480, Note_on_c, 4, 67, 0
6, 7480, Note_on_c, 4, 64, 0
6, 7495, Note_on_c, 4, 71, 50
6, 7495, Note_on_c, 4, 67, 50
6, 7495, Note_on_c, 4, 64, 50
6, 7522, Note_on_c, 4, 64, 0
6, 7522, Note_on_c, 4, 67, 0
6, 7522, Note_on_c, 4, 71, 0
6, 7530, Note_on_c, 4, 71, 100
6, 7530, Note_on_c, 4, 64, 100
6, 7530, Note_on_c, 4, 67, 100
6, 7557, Note_on_c, 4, 67, 0
6, 7557, Note_on_c, 4, 64, 0
6, 7557, Note_on_c, 4, 71, 0
6, 7585, Note_on_c, 4, 71, 50
6, 7585, Note_on_c, 4, 64, 50
6, 7585, Note_on_c, 4, 67, 50
6, 7612, Note_on_c, 4, 67, 0
6, 7612, Note_on_c, 4, 64, 0
6, 7612, Note_on_c, 4, 71, 0
6, 7620, Note_on_c, 4, 64, 100
6, 7620, Note_on_c, 4, 71, 100
6, 7620, Note_on_c, 4, 67, 100
6, 7665, Note_on_c, 4, 67, 0
6, 7665, Note_on_c, 4, 71, 0
6, 7665, Note_on_c, 4, 64, 0
6, 7675, Note_on_c, 4, 64, 50
6, 7675, Note_on_c, 4, 71, 50
6, 7675, Note_on_c, 4, 67, 50
6, 7680, Note_on_c, 4, 67, 100
6, 7680, Note_on_c, 4, 71, 100
6, 7680, Note_on_c, 4, 64, 100
6, 7707, Note_on_c, 4, 67, 0
6, 7707, Note_on_c, 4, 64, 0
6, 7707, Note_on_c, 4, 71, 0
6, 7720, Note_on_c, 4, 67, 0
6, 7720, Note_on_c, 4, 71, 0
6, 7720, Note_on_c, 4, 64, 0
6, 7735, Note_on_c, 4, 67, 50
6, 7735, Note_on_c, 4, 71, 50
6, 7735, Note_on_c, 4, 64, 50
6, 7762, Note_on_c, 4, 64, 0
6, 7762, Note_on_c, 4, 71, 0
6, 7762, Note_on_c, 4, 67, 0
6, 7770, Note_on_c, 4, 67, 100
6, 7770, Note_on_c, 4, 71, 100
6, 7770, Note_on_c, 4, 64, 100
6, 7797, Note_on_c, 4, 64, 0
6, 7797, Note_on_c, 4, 71, 0
6, 7797, Note_on_c, 4, 67, 0
6, 7825, Note_on_c, 4, 67, 50
6, 7825, Note_on_c, 4, 71, 50
6, 7825, Note_on_c, 4, 64, 50
6, 7852, Note_on_c, 4, 64, 0
6, 7852, Note_on_c, 4, 71, 0
6, 7852, Note_on_c, 4, 67, 0
6, 7860, Note_on_c, 4, 71, 100
6, 7860, Note_on_c, 4, 64, 100
6, 7860, Note_on_c, 4, 67, 100
6, 7905, Note_on_c, 4, 67, 0
6, 7905, Note_on_c, 4, 64, 0
6, 7905, Note_on_c, 4, 71, 0
6, 7915, Note_on_c, 4, 71, 50
6, 7915, Note_on_c, 4, 64, 50
6, 7915, Note_on_c, 4, 67, 50
6, 7920, Note_on_c, 4, 71, 100
6, 7920, Note_on_c, 4, 64, 100
6, 7920, Note_on_c, 4, 67, 100
6, 7947, Note_on_c, 4, 67, 0
6, 7947, Note_on_c, 4, 71, 0
6, 7947, Note_on_c, 4, 64, 0
6, 7960, Note_on_c, 4, 71, 0
6, 7960, Note_on_c, 4, 64, 0
6, 7960, Note_on_c, 4, 67, 0
6, 7975, Note_on_c, 4, 71, 50
6, 7975, Note_on_c, 4, 64, 50
6, 7975, Note_on_c, 4, 67, 50
6, 8002, Note_on_c, 4, 67, 0
6, 8002, Note_on_c, 4, 64, 0
6, 8002, Note_on_c, 4, 71, 0
6, 8010, Note_on_c, 4, 71, 100
6, 8010, Note_on_c, 4, 64, 100
6, 8010, Note_on_c, 4, 67, 100
6, 8037, Note_on_c, 4, 67, 0
6, 8037, Note_on_c, 4, 64, 0
6, 8037, Note_on_c, 4, 71, 0
6, 8065, Note_on_c, 4, 71, 50
6, 8065, Note_on_c, 4, 64, 50
6, 8065, Note_on_c, 4, 67, 50
6, 8092, Note_on_c, 4, 67, 0
6, 8092, Note_on_c, 4, 64, 0
6, 8092, Note_on_c, 4, 71, 0
6, 8100, Note_on_c, 4, 64, 100
6, 8100, Note_on_c, 4, 71, 100
6, 8100, Note_on_c, 4, 67, 100
6, 8145, Note_on_c, 4, 67, 0
6, 8145, Note_on_c, 4, 71, 0
6, 8145, Note_on_c, 4, 64, 0
6, 8155, Note_on_c, 4, 64, 50
6, 8155, Note_on_c, 4, 71, 50
6, 8155, Note_on_c, 4, 67, 50
6, 8160, Note_on_c, 4, 71, 100
6, 8160, Note_on_c, 4, 67, 100
6, 8160, Note_on_c, 4, 64, 100
6, 8187, Note_on_c, 4, 67, 0
6, 8187, Note_on_c, 4, 64, 0
6, 8187, Note_on_c, 4, 71, 0
6, 8200, Note_on_c, 4, 71, 0
6, 8200, Note_on_c, 4, 67, 0
6, 8200, Note_on_c, 4, 64, 0
6, 8215, Note_on_c, 4, 71, 50
6, 8215, Note_on_c, 4, 67, 50
6, 8215, Note_on_c, 4, 64, 50
6, 8242, Note_on_c, 4, 64, 0
6, 8242, Note_on_c, 4, 67, 0
6, 8242, Note_on_c, 4, 71, 0
6, 8250, Note_on_c, 4, 64, 100
6, 8250, Note_on_c, 4, 67, 100
6, 8250, Note_on_c, 4, 71, 100
6, 8277, Note_on_c, 4, 71, 0
6, 8277, Note_on_c, 4, 67, 0
6, 8277, Note_on_c, 4, 64, 0
6, 8305, Note_on_c, 4, 64, 50
6, 8305, Note_on_c, 4, 67, 50
6, 8305, Note_on_c, 4, 71, 50
6, 8332, Note_on_c, 4, 71, 0
6, 8332, Note_on_c, 4, 67, 0
6, 8332, Note_on_c, 4, 64, 0
6, 8340, Note_on_c, 4, 71, 100
6, 8340, Note_on_c, 4, 67, 100
6, 8340, Note_on_c, 4, 64, 100
6, 8385, Note_on_c, 4, 64, 0
6, 8385, Note_on_c, 4, 67, 0
6, 8385, Note_on_c, 4, 71, 0
6, 8395, Note_on_c, 4, 71, 50
6, 8395, Note_on_c, 4, 67, 50
6, 8395, Note_on_c, 4, 64, 50
6, 8400, Note_on_c, 4, 64, 100
6, 8400, Note_on_c, 4, 67, 100
6, 8400, Note_on_c, 4, 71, 100
6, 8427, Note_on_c, 4, 64, 0
6, 8427, Note_on_c, 4, 71, 0
6, 8427, Note_on_c, 4, 67, 0
6, 8440, Note_on_c, 4, 64, 0
6, 8440, Note_on_c, 4, 67, 0
6, 8440, Note_on_c, 4, 71, 0
6, 8455, Note_on_c, 4, 64, 50
6, 8455, Note_on_c, 4, 67, 50
6, 8455, Note_on_c, 4, 71, 50
6, 8482, Note_on_c, 4, 71, 0
6, 8482, Note_on_c, 4, 67, 0
6, 8482, Note_on_c, 4, 64, 0
6, 8490, Note_on_c, 4, 67, 100
6, 8490, Note_on_c, 4, 64, 100
6, 8490, Note_on_c, 4, 71, 100
6, 8517, Note_on_c, 4, 71, 0
6, 8517, Note_on_c, 4, 64, 0
6, 8517, Note_on_c, 4, 67, 0
6, 8545, Note_on_c, 4, 67, 50
6, 8545, Note_on_c, 4, 64, 50
6, 8545, Note_on_c, 4, 71, 50
6, 8572, Note_on_c, 4, 71, 0
6, 8572, Note_on_c, 4, 64, 0
6, 8572, Note_on_c, 4, 67, 0
6, 8580, Note_on_c, 4, 67, 100
6, 8580, Note_on_c, 4, 64, 100
6, 8580, Note_on_c, 4, 71, 100
6, 8625, Note_on_c, 4, 71, 0
6, 8625, Note_on_c, 4, 64, 0
6, 8625, Note_on_c, 4, 67, 0
6, 8635, Note_on_c, 4, 67, 50
6, 8635, Note_on_c, 4, 64, 50
6, 8635, Note_on_c, 4, 71, 50
6, 8640, Note_on_c, 4, 67, 100
6, 8640, Note_on_c, 4, 71, 100
6, 8640, Note_on_c, 4, 64, 100
6, 8667, Note_on_c, 4, 71, 0
6, 8667, Note_on_c, 4, 67, 0
6, 8667, Note_on_c, 4, 64, 0
6, 8680, Note_on_c, 4, 67, 0
6, 8680, Note_on_c, 4, 71, 0
6, 8680, Note_on_c, 4, 64, 0
6, 8695, Note_on_c, 4, 67, 50
6, 8695, Note_on_c, 4, 71, 50
6, 8695, Note_on_c, 4, 64, 50
6, 8722, Note_on_c, 4, 64, 0
6, 8722, Note_on_c, 4, 71, 0
6, 8722, Note_on_c, 4, 67, 0
6, 8730, Note_on_c, 4, 67, 100
6, 8730, Note_on_c, 4, 64, 100
6, 8730, Note_on_c, 4, 71, 100
6, 8757, Note_on_c, 4, 71, 0
6, 8757, Note_on_c, 4, 64, 0
6, 8757, Note_on_c, 4, 67, 0
6, 8785, Note_on_c, 4, 67, 50
6, 8785, Note_on_c, 4, 64, 50
6, 8785, Note_on_c, 4, 71, 50
6, 8812, Note_on_c, 4, 71, 0
6, 8812, Note_on_c, 4, 64, 0
6, 8812, Note_on_c, 4, 67, 0
6, 8820, Note_on_c, 4, 67, 100
6, 8820, Note_on_c, 4, 71, 100
6, 8820, Note_on_c, 4, 64, 100
6, 8865, Note_on_c, 4, 64, 0
6, 8865, Note_on_c, 4, 71, 0
6, 8865, Note_on_c, 4, 67, 0
6, 8875, Note_on_c, 4, 67, 50
6, 8875, Note_on_c, 4, 71, 50
6, 8875, Note_on_c, 4, 64, 50
6, 8880, Note_on_c, 4, 71, 100
6, 8880, Note_on_c, 4, 64, 100
6, 8880, Note_on_c, 4, 67, 100
6, 8907, Note_on_c, 4, 64, 0
6, 8907, Note_on_c, 4, 67, 0
6, 8907, Note_on_c, 4, 71, 0
6, 8920, Note_on_c, 4, 71, 0
6, 8920, Note_on_c, 4, 64, 0
6, 8920, Note_on_c, 4, 67, 0
6, 8935, Note_on_c, 4, 71, 50
6, 8935, Note_on_c, 4, 64, 50
6, 8935, Note_on_c, 4, 67, 50
6, 8962, Note_on_c, 4, 67, 0
6, 8962, Note_on_c, 4, 64, 0
6, 8962, Note_on_c, 4, 71, 0
6, 8970, Note_on_c, 4, 67, 100
6, 8970, Note_on_c, 4, 64, 100
6, 8970, Note_on_c, 4, 71, 100
6, 8997, Note_on_c, 4, 71, 0
6, 8997, Note_on_c, 4, 64, 0
6, 8997, Note_on_c, 4, 67, 0
6, 9025, Note_on_c, 4, 67, 50
6, 9025, Note_on_c, 4, 64, 50
6, 9025, Note_on_c, 4, 71, 50
6, 9052, Note_on_c, 4, 71, 0
6, 9052, Note_on_c, 4, 64, 0
6, 9052, Note_on_c, 4, 67, 0
6, 9060, Note_on_c, 4, 67, 100
6, 9060, Note_on_c, 4, 72, 100
6, 9060, Note_on_c, 4, 76, 100
6, 9105, Note_on_c, 4, 76, 0
6, 9105, Note_on_c, 4, 72, 0
6, 9105, Note_on_c, 4, 67, 0
6, 9115, Note_on_c, 4, 67, 50
6, 9115, Note_on_c, 4, 72, 50
6, 9115, Note_on_c, 4, 76, 50
6, 9120, Note_on_c, 4, 67, 100
6, 9120, Note_on_c, 4, 76, 100
6, 9120, Note_on_c, 4, 72, 100
6, 9147, Note_on_c, 4, 76, 0
6, 9147, Note_on_c, 4, 67, 0
6, 9147, Note_on_c, 4, 72, 0
6, 9160, Note_on_c, 4, 67, 0
6, 9160, Note_on_c, 4, 76, 0
6, 9160, Note_on_c, 4, 72, 0
6, 9175, Note_on_c, 4, 67, 50
6, 9175, Note_on_c, 4, 76, 50
6, 9175, Note_on_c, 4, 72, 50
6, 9202, Note_on_c, 4, 72, 0
6, 9202, Note_on_c, 4, 76, 0
6, 9202, Note_on_c, 4, 67, 0
6, 9210, Note_on_c, 4, 72, 100
6, 9210, Note_on_c, 4, 76, 100
6, 9210, Note_on_c, 4, 67, 100
6, 9237, Note_on_c, 4, 67, 0
6, 9237, Note_on_c, 4, 76, 0
6, 9237, Note_on_c, 4, 72, 0
6, 9265, Note_on_c, 4, 72, 50
6, 9265, Note_on_c, 4, 76, 50
6, 9265, Note_on_c, 4, 67, 50
6, 9292, Note_on_c, 4, 67, 0
6, 9292, Note_on_c, 4, 76, 0
6, 9292, Note_on_c, 4, 72, 0
6, 9300, Note_on_c, 4, 74, 100
6, 9300, Note_on_c, 4, 67, 100
6, 9300, Note_on_c, 4, 71, 100
6, 9345, Note_on_c, 4, 71, 0
6, 9345, Note_on_c, 4, 67, 0
6, 9345, Note_on_c, 4, 74, 0
6, 9355, Note_on_c, 4, 74, 50
6, 9355, Note_on_c, 4, 67, 50
6, 9355, Note_on_c, 4, 71, 50
6, 9360, Note_on_c, 4, 74, 100
6, 9360, Note_on_c, 4, 67, 100
6, 9360, Note_on_c, 4, 71, 100
6, 9387, Note_on_c, 4, 71, 0
6, 9387, Note_on_c, 4, 74, 0
6, 9387, Note_on_c, 4, 67, 0
6, 9400, Note_on_c, 4, 74, 0
6, 9400, Note_on_c, 4, 67, 0
6, 9400, Note_on_c, 4, 71, 0
6, 9415, Note_on_c, 4, 74, 50
6, 9415, Note_on_c, 4, 67, 50
6, 9415, Note_on_c, 4, 71, 50
6, 9442, Note_on_c, 4, 71, 0
6, 9442, Note_on_c, 4, 67, 0
6, 9442, Note_on_c, 4, 74, 0
6, 9450, Note_on_c, 4, 67, 100
6, 9450, Note_on_c, 4, 71, 100
6, 9450, Note_on_c, 4, 74, 100
6, 9477, Note_on_c, 4, 74, 0
6, 9477, Note_on_c, 4, 71, 0
6, 9477, Note_on_c, 4, 67, 0
6, 9505, Note_on_c, 4, 67, 50
6, 9505, Note_on_c, 4, 71, 50
6, 9505, Note_on_c, 4, 74, 50
6, 9532, Note_on_c, 4, 74, 0
6, 9532, Note_on_c, 4, 71, 0
6, 9532, Note_on_c, 4, 67, 0
6, 9540, Note_on_c, 4, 69, 100
6, 9540, Note_on_c, 4, 66, 100
6, 9540, Note_on_c, 4, 62, 100
6, 9585, Note_on_c, 4, 62, 0
6, 9585, Note_on_c, 4, 66, 0
6, 9585, Note_on_c, 4, 69, 0
6, 9595, Note_on_c, 4, 69, 50
6, 9595, Note_on_c, 4, 66, 50
6, 9595, Note_on_c, 4, 62, 50
6, 9600, Note_on_c, 4, 64, 100
6, 9600, Note_on_c, 4, 71, 100
6, 9600, Note_on_c, 4, 67, 100
6, 9627, Note_on_c, 4, 67, 0
6, 9627, Note_on_c, 4, 64, 0
6, 9627, Note_on_c, 4, 71, 0
6, 9640, Note_on_c, 4, 69, 0
6, 9640, Note_on_c, 4, 62, 0
6, 9640, Note_on_c, 4, 66, 0
6, 9655, Note_on_c, 4, 64, 50
6, 9655, Note_on_c, 4, 71, 50
6, 9655, Note_on_c, 4, 67, 50
6, 9682, Note_on_c, 4, 67, 0
6, 9682, Note_on_c, 4, 71, 0
6, 9682, Note_on_c, 4, 64, 0
6, 9690, Note_on_c, 4, 71, 100
6, 9690, Note_on_c, 4, 67, 100
6, 9690, Note_on_c, 4, 64, 100
6, 9717, Note_on_c, 4, 64, 0
6, 9717, Note_on_c, 4, 67, 0
6, 9717, Note_on_c, 4, 71, 0
6, 9745, Note_on_c, 4, 71, 50
6, 9745, Note_on_c, 4, 67, 50
6, 9745, Note_on_c, 4, 64, 50
6, 9772, Note_on_c, 4, 64, 0
6, 9772, Note_on_c, 4, 67, 0
6, 9772, Note_on_c, 4, 71, 0
6, 9780, Note_on_c, 4, 64, 100
6, 9780, Note_on_c, 4, 67, 100
6, 9780, Note_on_c, 4, 71, 100
6, 9825, Note_on_c, 4, 71, 0
6, 9825, Note_on_c, 4, 67, 0
6, 9825, Note_on_c, 4, 64, 0
6, 9835, Note_on_c, 4, 64, 50
6, 9835, Note_on_c, 4, 67, 50
6, 9835, Note_on_c, 4, 71, 50
6, 9840, Note_on_c, 4, 67, 100
6, 9840, Note_on_c, 4, 64, 100
6, 9840, Note_on_c, 4, 71, 100
6, 9867, Note_on_c, 4, 71, 0
6, 9867, Note_on_c, 4, 64, 0
6, 9867, Note_on_c, 4, 67, 0
6, 9880, Note_on_c, 4, 67, 0
6, 9880, Note_on_c, 4, 64, 0
6, 9880, Note_on_c, 4, 71, 0
6, 9895, Note_on_c, 4, 67, 50
6, 9895, Note_on_c, 4, 64, 50
6, 9895, Note_on_c, 4, 71, 50
6, 9922, Note_on_c, 4, 71, 0
6, 9922, Note_on_c, 4, 64, 0
6, 9922, Note_on_c, 4, 67, 0
6, 9930, Note_on_c, 4, 71, 100
6, 9930, Note_on_c, 4, 64, 100
6, 9930, Note_on_c, 4, 67, 100
6, 9957, Note_on_c, 4, 67, 0
6, 9957, Note_on_c, 4, 64, 0
6, 9957, Note_on_c, 4, 71, 0
6, 9985, Note_on_c, 4, 71, 50
6, 9985, Note_on_c, 4, 64, 50
6, 9985, Note_on_c, 4, 67, 50
6, 10012, Note_on_c, 4, 67, 0
6, 10012, Note_on_c, 4, 64, 0
6, 10012, Note_on_c, 4, 71, 0
6, 10020, Note_on_c, 4, 76, 100
6, 10020, Note_on_c, 4, 69, 100
6, 10020, Note_on_c, 4, 72, 100
6, 10065, Note_on_c, 4, 72, 0
6, 10065, Note_on_c, 4, 69, 0
6, 10065, Note_on_c, 4, 76, 0
6, 10075, Note_on_c, 4, 76, 50
6, 10075, Note_on_c, 4, 69, 50
6, 10075, Note_on_c, 4, 72, 50
6, 10080, Note_on_c, 4, 64, 100
6, 10080, Note_on_c, 4, 67, 100
6, 10080, Note_on_c, 4, 71, 100
6, 10107, Note_on_c, 4, 71, 0
6, 10107, Note_on_c, 4, 64, 0
6, 10107, Note_on_c, 4, 67, 0
6, 10120, Note_on_c, 4, 76, 0
6, 10120, Note_on_c, 4, 72, 0
6, 10120, Note_on_c, 4, 69, 0
6, 10135, Note_on_c, 4, 64, 50
6, 10135, Note_on_c, 4, 67, 50
6, 10135, Note_on_c, 4, 71, 50
6, 10162, Note_on_c, 4, 71, 0
6, 10162, Note_on_c, 4, 67, 0
6, 10162, Note_on_c, 4, 64, 0
6, 10170, Note_on_c, 4, 64, 100
6, 10170, Note_on_c, 4, 67, 100
6, 10170, Note_on_c, 4, 71, 100
6, 10197, Note_on_c, 4, 71, 0
6, 10197, Note_on_c, 4, 67, 0
6, 10197, Note_on_c, 4, 64, 0
6, 10225, Note_on_c, 4, 64, 50
6, 10225, Note_on_c, 4, 67, 50
6, 10225, Note_on_c, 4, 71, 50
6, 10252, Note_on_c, 4, 71, 0
6, 10252, Note_on_c, 4, 67, 0
6, 10252, Note_on_c, 4, 64, 0
6, 10260, Note_on_c, 4, 64, 100
6, 10260, Note_on_c, 4, 67, 100
6, 10260, Note_on_c, 4, 71, 100
6, 10305, Note_on_c, 4, 71, 0
6, 10305, Note_on_c, 4, 67, 0
6, 10305, Note_on_c, 4, 64, 0
6, 10315, Note_on_c, 4, 64, 50
6, 10315, Note_on_c, 4, 67, 50
6, 10315, Note_on_c, 4, 71, 50
6, 10320, Note_on_c, 4, 64, 100
6, 10320, Note_on_c, 4, 67, 100
6, 10320, Note_on_c, 4, 71, 100
6, 10347, Note_on_c, 4, 71, 0
6, 10347, Note_on_c, 4, 64, 0
6, 10347, Note_on_c, 4, 67, 0
6, 10360, Note_on_c, 4, 64, 0
6, 10360, Note_on_c, 4, 67, 0
6, 10360, Note_on_c, 4, 71, 0
6, 10375, Note_on_c, 4, 64, 50
6, 10375, Note_on_c, 4, 67, 50
6, 10375, Note_on_c, 4, 71, 50
6, 10402, Note_on_c, 4, 71, 0
6, 10402, Note_on_c, 4, 67, 0
6, 10402, Note_on_c, 4, 64, 0
6, 10410, Note_on_c, 4, 71, 100
6, 10410, Note_on_c, 4, 64, 100
6, 10410, Note_on_c, 4, 67, 100
6, 10437, Note_on_c, 4, 67, 0
6, 10437, Note_on_c, 4, 64, 0
6, 10437, Note_on_c, 4, 71, 0
6, 10465, Note_on_c, 4, 71, 50
6, 10465, Note_on_c, 4, 64, 50
6, 10465, Note_on_c, 4, 67, 50
6, 10492, Note_on_c, 4, 67, 0
6, 10492, Note_on_c, 4, 64, 0
6, 10492, Note_on_c, 4, 71, 0
6, 10500, Note_on_c, 4, 69, 100
6, 10500, Note_on_c, 4, 72, 100
6, 10500, Note_on_c, 4, 76, 100
6, 10545, Note_on_c, 4, 76, 0
6, 10545, Note_on_c, 4, 72, 0
6, 10545, Note_on_c, 4, 69, 0
6, 10555, Note_on_c, 4, 69, 50
6, 10555, Note_on_c, 4, 72, 50
6, 10555, Note_on_c, 4, 76, 50
6, 10560, Note_on_c, 4, 64, 100
6, 10560, Note_on_c, 4, 67, 100
6, 10560, Note_on_c, 4, 71, 100
6, 10587, Note_on_c, 4, 71, 0
6, 10587, Note_on_c, 4, 64, 0
6, 10587, Note_on_c, 4, 67, 0
6, 10600, Note_on_c, 4, 69, 0
6, 10600, Note_on_c, 4, 76, 0
6, 10600, Note_on_c, 4, 72, 0
6, 10615, Note_on_c, 4, 64, 50
6, 10615, Note_on_c, 4, 67, 50
6, 10615, Note_on_c, 4, 71, 50
6, 10642, Note_on_c, 4, 71, 0
6, 10642, Note_on_c, 4, 67, 0
6, 10642, Note_on_c, 4, 64, 0
6, 10650, Note_on_c, 4, 71, 100
6, 10650, Note_on_c, 4, 67, 100
6, 10650, Note_on_c, 4, 64, 100
6, 10677, Note_on_c, 4, 64, 0
6, 10677, Note_on_c, 4, 67, 0
6, 10677, Note_on_c, 4, 71, 0
6, 10705, Note_on_c, 4, 71, 50
6, 10705, Note_on_c, 4, 67, 50
6, 10705, Note_on_c, 4, 64, 50
6, 10732, Note_on_c, 4, 64, 0
6, 10732, Note_on_c, 4, 67, 0
6, 10732, Note_on_c, 4, 71, 0
6, 10740, Note_on_c, 4, 71, 100
6, 10740, Note_on_c, 4, 67, 100
6, 10740, Note_on_c, 4, 64, 100
6, 10785, Note_on_c, 4, 64, 0
6, 10785, Note_on_c, 4, 67, 0
6, 10785, Note_on_c, 4, 71, 0
6, 10795, Note_on_c, 4, 71, 50
6, 10795, Note_on_c, 4, 67, 50
6, 10795, Note_on_c, 4, 64, 50
6, 10800, Note_on_c, 4, 64, 100
6, 10800, Note_on_c, 4, 71, 100
6, 10800, Note_on_c, 4, 67, 100
6, 10827, Note_on_c, 4, 64, 0
6, 10827, Note_on_c, 4, 71, 0
6, 10827, Note_on_c, 4, 67, 0
6, 10840, Note_on_c, 4, 64, 0
6, 10840, Note_on_c, 4, 71, 0
6, 10840, Note_on_c, 4, 67, 0
6, 10855, Note_on_c, 4, 64, 50
6, 10855, Note_on_c, 4, 71, 50
6, 10855, Note_on_c, 4, 67, 50
6, 10882, Note_on_c, 4, 67, 0
6, 10882, Note_on_c, 4, 71, 0
6, 10882, Note_on_c, 4, 64, 0
6, 10890, Note_on_c, 4, 67, 100
6, 10890, Note_on_c, 4, 64, 100
6, 10890, Note_on_c, 4, 71, 100
6, 10917, Note_on_c, 4, 71, 0
6, 10917, Note_on_c, 4, 64, 0
6, 10917, Note_on_c, 4, 67, 0
6, 10945, Note_on_c, 4, 67, 50
6, 10945, Note_on_c, 4, 64, 50
6, 10945, Note_on_c, 4, 71, 50
6, 10972, Note_on_c, 4, 71, 0
6, 10972, Note_on_c, 4, 64, 0
6, 10972, Note_on_c, 4, 67, 0
6, 10980, Note_on_c, 4, 76, 100
6, 10980, Note_on_c, 4, 67, 100
6, 10980, Note_on_c, 4, 72, 100
6, 11025, Note_on_c, 4, 72, 0
6, 11025, Note_on_c, 4, 67, 0
6, 11025, Note_on_c, 4, 76, 0
6, 11035, Note_on_c, 4, 76, 50
6, 11035, Note_on_c, 4, 67, 50
6, 11035, Note_on_c, 4, 72, 50
6, 11040, Note_on_c, 4, 67, 100
6, 11040, Note_on_c, 4, 72, 100
6, 11040, Note_on_c, 4, 76, 100
6, 11067, Note_on_c, 4, 72, 0
6, 11067, Note_on_c, 4, 76, 0
6, 11067, Note_on_c, 4, 67, 0
6, 11080, Note_on_c, 4, 67, 0
6, 11080, Note_on_c, 4, 72, 0
6, 11080, Note_on_c, 4, 76, 0
6, 11095, Note_on_c, 4, 67, 50
6, 11095, Note_on_c, 4, 72, 50
6, 11095, Note_on_c, 4, 76, 50
6, 11122, Note_on_c, 4, 76, 0
6, 11122, Note_on_c, 4, 72, 0
6, 11122, Note_on_c, 4, 67, 0
6, 11130, Note_on_c, 4, 76, 100
6, 11130, Note_on_c, 4, 72, 100
6, 11130, Note_on_c, 4, 67, 100
6, 11157, Note_on_c, 4, 67, 0
6, 11157, Note_on_c, 4, 72, 0
6, 11157, Note_on_c, 4, 76, 0
6, 11185, Note_on_c, 4, 76, 50
6, 11185, Note_on_c, 4, 72, 50
6, 11185, Note_on_c, 4, 67, 50
6, 11212, Note_on_c, 4, 67, 0
6, 11212, Note_on_c, 4, 72, 0
6, 11212, Note_on_c, 4, 76, 0
6, 11220, Note_on_c, 4, 67, 100
6, 11220, Note_on_c, 4, 74, 100
6, 11220, Note_on_c, 4, 71, 100
6, 11265, Note_on_c, 4, 71, 0
6, 11265, Note_on_c, 4, 74, 0
6, 11265, Note_on_c, 4, 67, 0
6, 11275, Note_on_c, 4, 67, 50
6, 11275, Note_on_c, 4, 74, 50
6, 11275, Note_on_c, 4, 71, 50
6, 11280, Note_on_c, 4, 71, 100
6, 11280, Note_on_c, 4, 67, 100
6, 11280, Note_on_c, 4, 74, 100
6, 11307, Note_on_c, 4, 71, 0
6, 11307, Note_on_c, 4, 67, 0
6, 11307, Note_on_c, 4, 74, 0
6, 11320, Note_on_c, 4, 71, 0
6, 11320, Note_on_c, 4, 67, 0
6, 11320, Note_on_c, 4, 74, 0
6, 11335, Note_on_c, 4, 71, 50
6, 11335, Note_on_c, 4, 67, 50
6, 11335, Note_on_c, 4, 74, 50
6, 11362, Note_on_c, 4, 74, 0
6, 11362, Note_on_c, 4, 67, 0
6, 11362, Note_on_c, 4, 71, 0
6, 11370, Note_on_c, 4, 74, 100
6, 11370, Note_on_c, 4, 67, 100
6, 11370, Note_on_c, 4, 71, 100
6, 11397, Note_on_c, 4, 71, 0
6, 11397, Note_on_c, 4, 67, 0
6, 11397, Note_on_c, 4, 74, 0
6, 11425, Note_on_c, 4, 74, 50
6, 11425, Note_on_c, 4, 67, 50
6, 11425, Note_on_c, 4, 71, 50
6, 11452, Note_on_c, 4, 71, 0
6, 11452, Note_on_c, 4, 67, 0
6, 11452, Note_on_c, 4, 74, 0
6, 11460, Note_on_c, 4, 66, 100
6, 11460, Note_on_c, 4, 62, 100
6, 11460, Note_on_c, 4, 69, 100
6, 11505, Note_on_c, 4, 69, 0
6, 11505, Note_on_c, 4, 62, 0
6, 11505, Note_on_c, 4, 66, 0
6, 11515, Note_on_c, 4, 66, 50
6, 11515, Note_on_c, 4, 62, 50
6, 11515, Note_on_c, 4, 69, 50
6, 11520, Note_on_c, 4, 64, 100
6, 11520, Note_on_c, 4, 67, 100
6, 11520, Note_on_c, 4, 71, 100
6, 11547, Note_on_c, 4, 71, 0
6, 11547, Note_on_c, 4, 64, 0
6, 11547, Note_on_c, 4, 67, 0
6, 11560, Note_on_c, 4, 66, 0
6, 11560, Note_on_c, 4, 69, 0
6, 11560, Note_on_c, 4, 62, 0
6, 11575, Note_on_c, 4, 64, 50
6, 11575, Note_on_c, 4, 67, 50
6, 11575, Note_on_c, 4, 71, 50
6, 11602, Note_on_c, 4, 71, 0
6, 11602, Note_on_c, 4, 67, 0
6, 11602, Note_on_c, 4, 64, 0
6, 11610, Note_on_c, 4, 71, 100
6, 11610, Note_on_c, 4, 67, 100
6, 11610, Note_on_c, 4, 64, 100
6, 11637, Note_on_c, 4, 64, 0
6, 11637, Note_on_c, 4, 67, 0
6, 11637, Note_on_c, 4, 71, 0
6, 11665, Note_on_c, 4, 71, 50
6, 11665, Note_on_c, 4, 67, 50
6, 11665, Note_on_c, 4, 64, 50
6, 11692, Note_on_c, 4, 64, 0
6, 11692, Note_on_c, 4, 67, 0
6, 11692, Note_on_c, 4, 71, 0
6, 11700, Note_on_c, 4, 71, 100
6, 11700, Note_on_c, 4, 67, 100
6, 11700, Note_on_c, 4, 64, 100
6, 11745, Note_on_c, 4, 64, 0
6, 11745, Note_on_c, 4, 67, 0
6, 11745, Note_on_c, 4, 71, 0
6, 11755, Note_on_c, 4, 71, 50
6, 11755, Note_on_c, 4, 67, 50
6, 11755, Note_on_c, 4, 64, 50
6, 11760, Note_on_c, 4, 64, 100
6, 11760, Note_on_c, 4, 67, 100
6, 11760, Note_on_c, 4, 71, 100
6, 11787, Note_on_c, 4, 64, 0
6, 11787, Note_on_c, 4, 71, 0
6, 11787, Note_on_c, 4, 67, 0
6, 11800, Note_on_c, 4, 64, 0
6, 11800, Note_on_c, 4, 67, 0
6, 11800, Note_on_c, 4, 71, 0
6, 11815, Note_on_c, 4, 64, 50
6, 11815, Note_on_c, 4, 67, 50
6, 11815, Note_on_c, 4, 71, 50
6, 11842, Note_on_c, 4, 71, 0
6, 11842, Note_on_c, 4, 67, 0
6, 11842, Note_on_c, 4, 64, 0
6, 11850, Note_on_c, 4, 64, 100
6, 11850, Note_on_c, 4, 67, 100
6, 11850, Note_on_c, 4, 71, 100
6, 11877, Note_on_c, 4, 71, 0
6, 11877, Note_on_c, 4, 67, 0
6, 11877, Note_on_c, 4, 64, 0
6, 11905, Note_on_c, 4, 64, 50
6, 11905, Note_on_c, 4, 67, 50
6, 11905, Note_on_c, 4, 71, 50
6, 11932, Note_on_c, 4, 71, 0
6, 11932, Note_on_c, 4, 67, 0
6, 11932, Note_on_c, 4, 64, 0
6, 11940, Note_on_c, 4, 76, 100
6, 11940, Note_on_c, 4, 69, 100
6, 11940, Note_on_c, 4, 72, 100
6, 11985, Note_on_c, 4, 72, 0
6, 11985, Note_on_c, 4, 69, 0
6, 11985, Note_on_c, 4, 76, 0
6, 11995, Note_on_c, 4, 76, 50
6, 11995, Note_on_c, 4, 69, 50
6, 11995, Note_on_c, 4, 72, 50
6, 12000, Note_on_c, 4, 64, 100
6, 12000, Note_on_c, 4, 71, 100
6, 12000, Note_on_c, 4, 67, 100
6, 12027, Note_on_c, 4, 67, 0
6, 12027, Note_on_c, 4, 64, 0
6, 12027, Note_on_c, 4, 71, 0
6, 12040, Note_on_c, 4, 76, 0
6, 12040, Note_on_c, 4, 72, 0
6, 12040, Note_on_c, 4, 69, 0
6, 12055, Note_on_c, 4, 64, 50
6, 12055, Note_on_c, 4, 71, 50
6, 12055, Note_on_c, 4, 67, 50
6, 12082, Note_on_c, 4, 67, 0
6, 12082, Note_on_c, 4, 71, 0
6, 12082, Note_on_c, 4, 64, 0
6, 12090, Note_on_c, 4, 64, 100
6, 12090, Note_on_c, 4, 71, 100
6, 12090, Note_on_c, 4, 67, 100
6, 12117, Note_on_c, 4, 67, 0
6, 12117, Note_on_c, 4, 71, 0
6, 12117, Note_on_c, 4, 64, 0
6, 12145, Note_on_c, 4, 64, 50
6, 12145, Note_on_c, 4, 71, 50
6, 12145, Note_on_c, 4, 67, 50
6, 12172, Note_on_c, 4, 67, 0
6, 12172, Note_on_c, 4, 71, 0
6, 12172, Note_on_c, 4, 64, 0
6, 12180, Note_on_c, 4, 64, 100
6, 12180, Note_on_c, 4, 71, 100
6, 12180, Note_on_c, 4, 67, 100
6, 12225, Note_on_c, 4, 67, 0
6, 12225, Note_on_c, 4, 71, 0
6, 12225, Note_on_c, 4, 64, 0
6, 12235, Note_on_c, 4, 64, 50
6, 12235, Note_on_c, 4, 71, 50
6, 12235, Note_on_c, 4, 67, 50
6, 12240, Note_on_c, 4, 67, 100
6, 12240, Note_on_c, 4, 64, 100
6, 12240, Note_on_c, 4, 71, 100
6, 12267, Note_on_c, 4, 67, 0
6, 12267, Note_on_c, 4, 64, 0
6, 12267, Note_on_c, 4, 71, 0
6, 12280, Note_on_c, 4, 67, 0
6, 12280, Note_on_c, 4, 64, 0
6, 12280, Note_on_c, 4, 71, 0
6, 12295, Note_on_c, 4, 67, 50
6, 12295, Note_on_c, 4, 64, 50
6, 12295, Note_on_c, 4, 71, 50
6, 12322, Note_on_c, 4, 71, 0
6, 12322, Note_on_c, 4, 64, 0
6, 12322, Note_on_c, 4, 67, 0
6, 12330, Note_on_c, 4, 71, 100
6, 12330, Note_on_c, 4, 64, 100
6, 12330, Note_on_c, 4, 67, 100
6, 12357, Note_on_c, 4, 67, 0
6, 12357, Note_on_c, 4, 64, 0
6, 12357, Note_on_c, 4, 71, 0
6, 12385, Note_on_c, 4, 71, 50
6, 12385, Note_on_c, 4, 64, 50
6, 12385, Note_on_c, 4, 67, 50
6, 12412, Note_on_c, 4, 67, 0
6, 12412, Note_on_c, 4, 64, 0
6, 12412, Note_on_c, 4, 71, 0
6, 12420, Note_on_c, 4, 69, 100
6, 12420, Note_on_c, 4, 76, 100
6, 12420, Note_on_c, 4, 72, 100
6, 12465, Note_on_c, 4, 72, 0
6, 12465, Note_on_c, 4, 76, 0
6, 12465, Note_on_c, 4, 69, 0
6, 12475, Note_on_c, 4, 69, 50
6, 12475, Note_on_c, 4, 76, 50
6, 12475, Note_on_c, 4, 72, 50
6, 12480, Note_on_c, 4, 67, 100
6, 12480, Note_on_c, 4, 71, 100
6, 12480, Note_on_c, 4, 64, 100
6, 12507, Note_on_c, 4, 64, 0
6, 12507, Note_on_c, 4, 67, 0
6, 12507, Note_on_c, 4, 71, 0
6, 12520, Note_on_c, 4, 69, 0
6, 12520, Note_on_c, 4, 72, 0
6, 12520, Note_on_c, 4, 76, 0
6, 12535, Note_on_c, 4, 67, 50
6, 12535, Note_on_c, 4, 71, 50
6, 12535, Note_on_c, 4, 64, 50
6, 12562, Note_on_c, 4, 64, 0
6, 12562, Note_on_c, 4, 71, 0
6, 12562, Note_on_c, 4, 67, 0
6, 12570, Note_on_c, 4, 67, 100
6, 12570, Note_on_c, 4, 64, 100
6, 12570, Note_on_c, 4, 71, 100
6, 12597, Note_on_c, 4, 71, 0
6, 12597, Note_on_c, 4, 64, 0
6, 12597, Note_on_c, 4, 67, 0
6, 12625, Note_on_c, 4, 67, 50
6, 12625, Note_on_c, 4, 64, 50
6, 12625, Note_on_c, 4, 71, 50
6, 12652, Note_on_c, 4, 71, 0
6, 12652, Note_on_c, 4, 64, 0
6, 12652, Note_on_c, 4, 67, 0
6, 12660, Note_on_c, 4, 71, 100
6, 12660, Note_on_c, 4, 64, 100
6, 12660, Note_on_c, 4, 67, 100
6, 12705, Note_on_c, 4, 67, 0
6, 12705, Note_on_c, 4, 64, 0
6, 12705, Note_on_c, 4, 71, 0
6, 12715, Note_on_c, 4, 71, 50
6, 12715, Note_on_c, 4, 64, 50
6, 12715, Note_on_c, 4, 67, 50
6, 12720, Note_on_c, 4, 71, 100
6, 12720, Note_on_c, 4, 67, 100
6, 12720, Note_on_c, 4, 64, 100
6, 12747, Note_on_c, 4, 67, 0
6, 12747, Note_on_c, 4, 71, 0
6, 12747, Note_on_c, 4, 64, 0
6, 12760, Note_on_c, 4, 71, 0
6, 12760, Note_on_c, 4, 67, 0
6, 12760, Note_on_c, 4, 64, 0
6, 12775, Note_on_c, 4, 71, 50
6, 12775, Note_on_c, 4, 67, 50
6, 12775, Note_on_c, 4, 64, 50
6, 12802, Note_on_c, 4, 64, 0
6, 12802, Note_on_c, 4, 67, 0
6, 12802, Note_on_c, 4, 71, 0
6, 12810, Note_on_c, 4, 67, 100
6, 12810, Note_on_c, 4, 71, 100
6, 12810, Note_on_c, 4, 64, 100
6, 12837, Note_on_c, 4, 64, 0
6, 12837, Note_on_c, 4, 71, 0
6, 12837, Note_on_c, 4, 67, 0
6, 12865, Note_on_c, 4, 67, 50
6, 12865, Note_on_c, 4, 71, 50
6, 12865, Note_on_c, 4, 64, 50
6, 12892, Note_on_c, 4, 64, 0
6, 12892, Note_on_c, 4, 71, 0
6, 12892, Note_on_c, 4, 67, 0
6, 12900, Note_on_c, 4, 76, 100
6, 12900, Note_on_c, 4, 67, 100
6, 12900, Note_on_c, 4, 72, 100
6, 12945, Note_on_c, 4, 72, 0
6, 12945, Note_on_c, 4, 67, 0
6, 12945, Note_on_c, 4, 76, 0
6, 12955, Note_on_c, 4, 76, 50
6, 12955, Note_on_c, 4, 67, 50
6, 12955, Note_on_c, 4, 72, 50
6, 12960, Note_on_c, 4, 72, 100
6, 12960, Note_on_c, 4, 76, 100
6, 12960, Note_on_c, 4, 67, 100
6, 12987, Note_on_c, 4, 72, 0
6, 12987, Note_on_c, 4, 76, 0
6, 12987, Note_on_c, 4, 67, 0
6, 13000, Note_on_c, 4, 72, 0
6, 13000, Note_on_c, 4, 76, 0
6, 13000, Note_on_c, 4, 67, 0
6, 13015, Note_on_c, 4, 72, 50
6, 13015, Note_on_c, 4, 76, 50
6, 13015, Note_on_c, 4, 67, 50
6, 13042, Note_on_c, 4, 67, 0
6, 13042, Note_on_c, 4, 76, 0
6, 13042, Note_on_c, 4, 72, 0
6, 13050, Note_on_c, 4, 76, 100
6, 13050, Note_on_c, 4, 67, 100
6, 13050, Note_on_c, 4, 72, 100
6, 13077, Note_on_c, 4, 72, 0
6, 13077, Note_on_c, 4, 67, 0
6, 13077, Note_on_c, 4, 76, 0
6, 13105, Note_on_c, 4, 76, 50
6, 13105, Note_on_c, 4, 67, 50
6, 13105, Note_on_c, 4, 72, 50
6, 13132, Note_on_c, 4, 72, 0
6, 13132, Note_on_c, 4, 67, 0
6, 13132, Note_on_c, 4, 76, 0
6, 13140, Note_on_c, 4, 71, 100
6, 13140, Note_on_c, 4, 74, 100
6, 13140, Note_on_c, 4, 67, 100
6, 13185, Note_on_c, 4, 67, 0
6, 13185, Note_on_c, 4, 74, 0
6, 13185, Note_on_c, 4, 71, 0
6, 13195, Note_on_c, 4, 71, 50
6, 13195, Note_on_c, 4, 74, 50
6, 13195, Note_on_c, 4, 67, 50
6, 13200, Note_on_c, 4, 71, 100
6, 13200, Note_on_c, 4, 74, 100
6, 13200, Note_on_c, 4, 67, 100
6, 13227, Note_on_c, 4, 67, 0
6, 13227, Note_on_c, 4, 71, 0
6, 13227, Note_on_c, 4, 74, 0
6, 13240, Note_on_c, 4, 71, 0
6, 13240, Note_on_c, 4, 74, 0
6, 13240, Note_on_c, 4, 67, 0
6, 13255, Note_on_c, 4, 71, 50
6, 13255, Note_on_c, 4, 74, 50
6, 13255, Note_on_c, 4, 67, 50
6, 13282, Note_on_c, 4, 67, 0
6, 13282, Note_on_c, 4, 74, 0
6, 13282, Note_on_c, 4, 71, 0
6, 13290, Note_on_c, 4, 74, 100
6, 13290, Note_on_c, 4, 71, 100
6, 13290, Note_on_c, 4, 67, 100
6, 13317, Note_on_c, 4, 67, 0
6, 13317, Note_on_c, 4, 71, 0
6, 13317, Note_on_c, 4, 74, 0
6, 13345, Note_on_c, 4, 74, 50
6, 13345, Note_on_c, 4, 71, 50
6, 13345, Note_on_c, 4, 67, 50
6, 13372, Note_on_c, 4, 67, 0
6, 13372, Note_on_c, 4, 71, 0
6, 13372, Note_on_c, 4, 74, 0
6, 13380, Note_on_c, 4, 62, 100
6, 13380, Note_on_c, 4, 69, 100
6, 13380, Note_on_c, 4, 66, 100
6, 13425, Note_on_c, 4, 66, 0
6, 13425, Note_on_c, 4, 69, 0
6, 13425, Note_on_c, 4, 62, 0
6, 13435, Note_on_c, 4, 62, 50
6, 13435, Note_on_c, 4, 69, 50
6, 13435, Note_on_c, 4, 66, 50
6, 13440, Note_on_c, 4, 64, 100
6, 13440, Note_on_c, 4, 67, 100
6, 13440, Note_on_c, 4, 71, 100
6, 13467, Note_on_c, 4, 71, 0
6, 13467, Note_on_c, 4, 64, 0
6, 13467, Note_on_c, 4, 67, 0
6, 13480, Note_on_c, 4, 62, 0
6, 13480, Note_on_c, 4, 66, 0
6, 13480, Note_on_c, 4, 69, 0
6, 13495, Note_on_c, 4, 64, 50
6, 13495, Note_on_c, 4, 67, 50
6, 13495, Note_on_c, 4, 71, 50
6, 13522, Note_on_c, 4, 71, 0
6, 13522, Note_on_c, 4, 67, 0
6, 13522, Note_on_c, 4, 64, 0
6, 13530, Note_on_c, 4, 67, 100
6, 13530, Note_on_c, 4, 71, 100
6, 13530, Note_on_c, 4, 64, 100
6, 13557, Note_on_c, 4, 64, 0
6, 13557, Note_on_c, 4, 71, 0
6, 13557, Note_on_c, 4, 67, 0
6, 13585, Note_on_c, 4, 67, 50
6, 13585, Note_on_c, 4, 71, 50
6, 13585, Note_on_c, 4, 64, 50
6, 13612, Note_on_c, 4, 64, 0
6, 13612, Note_on_c, 4, 71, 0
6, 13612, Note_on_c, 4, 67, 0
6, 13620, Note_on_c, 4, 64, 100
6, 13620, Note_on_c, 4, 71, 100
6, 13620, Note_on_c, 4, 67, 100
6, 13665, Note_on_c, 4, 67, 0
6, 13665, Note_on_c, 4, 71, 0
6, 13665, Note_on_c, 4, 64, 0
6, 13675, Note_on_c, 4, 64, 50
6, 13675, Note_on_c, 4, 71, 50
6, 13675, Note_on_c, 4, 67, 50
6, 13680, Note_on_c, 4, 64, 100
6, 13680, Note_on_c, 4, 67, 100
6, 13680, Note_on_c, 4, 71, 100
6, 13707, Note_on_c, 4, 67, 0
6, 13707, Note_on_c, 4, 64, 0
6, 13707, Note_on_c, 4, 71, 0
6, 13720, Note_on_c, 4, 64, 0
6, 13720, Note_on_c, 4, 67, 0
6, 13720, Note_on_c, 4, 71, 0
6, 13735, Note_on_c, 4, 64, 50
6, 13735, Note_on_c, 4, 67, 50
6, 13735, Note_on_c, 4, 71, 50
6, 13762, Note_on_c, 4, 71, 0
6, 13762, Note_on_c, 4, 67, 0
6, 13762, Note_on_c, 4, 64, 0
6, 13770, Note_on_c, 4, 71, 100
6, 13770, Note_on_c, 4, 67, 100
6, 13770, Note_on_c, 4, 64, 100
6, 13797, Note_on_c, 4, 64, 0
6, 13797, Note_on_c, 4, 67, 0
6, 13797, Note_on_c, 4, 71, 0
6, 13825, Note_on_c, 4, 71, 50
6, 13825, Note_on_c, 4, 67, 50
6, 13825, Note_on_c, 4, 64, 50
6, 13852, Note_on_c, 4, 64, 0
6, 13852, Note_on_c, 4, 67, 0
6, 13852, Note_on_c, 4, 71, 0
6, 13860, Note_on_c, 4, 69, 100
6, 13860, Note_on_c, 4, 72, 100
6, 13860, Note_on_c, 4, 76, 100
6, 13905, Note_on_c, 4, 76, 0
6, 13905, Note_on_c, 4, 72, 0
6, 13905, Note_on_c, 4, 69, 0
6, 13915, Note_on_c, 4, 69, 50
6, 13915, Note_on_c, 4, 72, 50
6, 13915, Note_on_c, 4, 76, 50
6, 13920, Note_on_c, 4, 67, 100
6, 13920, Note_on_c, 4, 64, 100
6, 13920, Note_on_c, 4, 71, 100
6, 13947, Note_on_c, 4, 71, 0
6, 13947, Note_on_c, 4, 67, 0
6, 13947, Note_on_c, 4, 64, 0
6, 13960, Note_on_c, 4, 69, 0
6, 13960, Note_on_c, 4, 76, 0
6, 13960, Note_on_c, 4, 72, 0
6, 13975, Note_on_c, 4, 67, 50
6, 13975, Note_on_c, 4, 64, 50
6, 13975, Note_on_c, 4, 71, 50
6, 14002, Note_on_c, 4, 71, 0
6, 14002, Note_on_c, 4, 64, 0
6, 14002, Note_on_c, 4, 67, 0
6, 14010, Note_on_c, 4, 64, 100
6, 14010, Note_on_c, 4, 67, 100
6, 14010, Note_on_c, 4, 71, 100
6, 14037, Note_on_c, 4, 71, 0
6, 14037, Note_on_c, 4, 67, 0
6, 14037, Note_on_c, 4, 64, 0
6, 14065, Note_on_c, 4, 64, 50
6, 14065, Note_on_c, 4, 67, 50
6, 14065, Note_on_c, 4, 71, 50
6, 14092, Note_on_c, 4, 71, 0
6, 14092, Note_on_c, 4, 67, 0
6, 14092, Note_on_c, 4, 64, 0
6, 14100, Note_on_c, 4, 64, 100
6, 14100, Note_on_c, 4, 67, 100
6, 14100, Note_on_c, 4, 71, 100
6, 14145, Note_on_c, 4, 71, 0
6, 14145, Note_on_c, 4, 67, 0
6, 14145, Note_on_c, 4, 64, 0
6, 14155, Note_on_c, 4, 64, 50
6, 14155, Note_on_c, 4, 67, 50
6, 14155, Note_on_c, 4, 71, 50
6, 14160, Note_on_c, 4, 71, 100
6, 14160, Note_on_c, 4, 64, 100
6, 14160, Note_on_c, 4, 67, 100
6, 14187, Note_on_c, 4, 71, 0
6, 14187, Note_on_c, 4, 64, 0
6, 14187, Note_on_c, 4, 67, 0
6, 14200, Note_on_c, 4, 71, 0
6, 14200, Note_on_c, 4, 64, 0
6, 14200, Note_on_c, 4, 67, 0
6, 14215, Note_on_c, 4, 71, 50
6, 14215, Note_on_c, 4, 64, 50
6, 14215, Note_on_c, 4, 67, 50
6, 14242, Note_on_c, 4, 67, 0
6, 14242, Note_on_c, 4, 64, 0
6, 14242, Note_on_c, 4, 71, 0
6, 14250, Note_on_c, 4, 64, 100
6, 14250, Note_on_c, 4, 71, 100
6, 14250, Note_on_c, 4, 67, 100
6, 14277, Note_on_c, 4, 67, 0
6, 14277, Note_on_c, 4, 71, 0
6, 14277, Note_on_c, 4, 64, 0
6, 14305, Note_on_c, 4, 64, 50
6, 14305, Note_on_c, 4, 71, 50
6, 14305, Note_on_c, 4, 67, 50
6, 14332, Note_on_c, 4, 67, 0
6, 14332, Note_on_c, 4, 71, 0
6, 14332, Note_on_c, 4, 64, 0
6, 14340, Note_on_c, 4, 72, 100
6, 14340, Note_on_c, 4, 69, 100
6, 14340, Note_on_c, 4, 76, 100
6, 14385, Note_on_c, 4, 76, 0
6, 14385, Note_on_c, 4, 69, 0
6, 14385, Note_on_c, 4, 72, 0
6, 14395, Note_on_c, 4, 72, 50
6, 14395, Note_on_c, 4, 69, 50
6, 14395, Note_on_c, 4, 76, 50
6, 14400, Note_on_c, 4, 71, 100
6, 14400, Note_on_c, 4, 64, 100
6, 14400, Note_on_c, 4, 67, 100
6, 14427, Note_on_c, 4, 67, 0
6, 14427, Note_on_c, 4, 71, 0
6, 14427, Note_on_c, 4, 64, 0
6, 14440, Note_on_c, 4, 72, 0
6, 14440, Note_on_c, 4, 76, 0
6, 14440, Note_on_c, 4, 69, 0
6, 14455, Note_on_c, 4, 71, 50
6, 14455, Note_on_c, 4, 64, 50
6, 14455, Note_on_c, 4, 67, 50
6, 14482, Note_on_c, 4, 67, 0
6, 14482, Note_on_c, 4, 64, 0
6, 14482, Note_on_c, 4, 71, 0
6, 14490, Note_on_c, 4, 67, 100
6, 14490, Note_on_c, 4, 64, 100
6, 14490, Note_on_c, 4, 71, 100
6, 14517, Note_on_c, 4, 71, 0
6, 14517, Note_on_c, 4, 64, 0
6, 14517, Note_on_c, 4, 67, 0
6, 14545, Note_on_c, 4, 67, 50
6, 14545, Note_on_c, 4, 64, 50
6, 14545, Note_on_c, 4, 71, 50
6, 14572, Note_on_c, 4, 71, 0
6, 14572, Note_on_c, 4, 64, 0
6, 14572, Note_on_c, 4, 67, 0
6, 14580, Note_on_c, 4, 64, 100
6, 14580, Note_on_c, 4, 67, 100
6, 14580, Note_on_c, 4, 71, 100
6, 14625, Note_on_c, 4, 71, 0
6, 14625, Note_on_c, 4, 67, 0
6, 14625, Note_on_c, 4, 64, 0
6, 14635, Note_on_c, 4, 64, 50
6, 14635, Note_on_c, 4, 67, 50
6, 14635, Note_on_c, 4, 71, 50
6, 14640, Note_on_c, 4, 64, 100
6, 14640, Note_on_c, 4, 67, 100
6, 14640, Note_on_c, 4, 71, 100
6, 14667, Note_on_c, 4, 71, 0
6, 14667, Note_on_c, 4, 64, 0
6, 14667, Note_on_c, 4, 67, 0
6, 14680, Note_on_c, 4, 64, 0
6, 14680, Note_on_c, 4, 67, 0
6, 14680, Note_on_c, 4, 71, 0
6, 14695, Note_on_c, 4, 64, 50
6, 14695, Note_on_c, 4, 67, 50
6, 14695, Note_on_c, 4, 71, 50
6, 14722, Note_on_c, 4, 71, 0
6, 14722, Note_on_c, 4, 67, 0
6, 14722, Note_on_c, 4, 64, 0
6, 14730, Note_on_c, 4, 67, 100
6, 14730, Note_on_c, 4, 64, 100
6, 14730, Note_on_c, 4, 71, 100
6, 14757, Note_on_c, 4, 71, 0
6, 14757, Note_on_c, 4, 64, 0
6, 14757, Note_on_c, 4, 67, 0
6, 14785, Note_on_c, 4, 67, 50
6, 14785, Note_on_c, 4, 64, 50
6, 14785, Note_on_c, 4, 71, 50
6, 14812, Note_on_c, 4, 71, 0
6, 14812, Note_on_c, 4, 64, 0
6, 14812, Note_on_c, 4, 67, 0
6, 14820, Note_on_c, 4, 72, 100
6, 14820, Note_on_c, 4, 67, 100
6, 14820, Note_on_c, 4, 76, 100
6, 14865, Note_on_c, 4, 76, 0
6, 14865, Note_on_c, 4, 67, 0
6, 14865, Note_on_c, 4, 72, 0
6, 14875, Note_on_c, 4, 72, 50
6, 14875, Note_on_c, 4, 67, 50
6, 14875, Note_on_c, 4, 76, 50
6, 14880, Note_on_c, 4, 72, 100
6, 14880, Note_on_c, 4, 67, 100
6, 14880, Note_on_c, 4, 76, 100
6, 14907, Note_on_c, 4, 76, 0
6, 14907, Note_on_c, 4, 72, 0
6, 14907, Note_on_c, 4, 67, 0
6, 14920, Note_on_c, 4, 72, 0
6, 14920, Note_on_c, 4, 67, 0
6, 14920, Note_on_c, 4, 76, 0
6, 14935, Note_on_c, 4, 72, 50
6, 14935, Note_on_c, 4, 67, 50
6, 14935, Note_on_c, 4, 76, 50
6, 14962, Note_on_c, 4, 76, 0
6, 14962, Note_on_c, 4, 67, 0
6, 14962, Note_on_c, 4, 72, 0
6, 14970, Note_on_c, 4, 67, 100
6, 14970, Note_on_c, 4, 72, 100
6, 14970, Note_on_c, 4, 76, 100
6, 14997, Note_on_c, 4, 76, 0
6, 14997, Note_on_c, 4, 72, 0
6, 14997, Note_on_c, 4, 67, 0
6, 15025, Note_on_c, 4, 67, 50
6, 15025, Note_on_c, 4, 72, 50
6, 15025, Note_on_c, 4, 76, 50
6, 15052, Note_on_c, 4, 76, 0
6, 15052, Note_on_c, 4, 72, 0
6, 15052, Note_on_c, 4, 67, 0
6, 15060, Note_on_c, 4, 74, 100
6, 15060, Note_on_c, 4, 67, 100
6, 15060, Note_on_c, 4, 71, 100
6, 15105, Note_on_c, 4, 71, 0
6, 15105, Note_on_c, 4, 67, 0
6, 15105, Note_on_c, 4, 74, 0
6, 15115, Note_on_c, 4, 74, 50
6, 15115, Note_on_c, 4, 67, 50
6, 15115, Note_on_c, 4, 71, 50
6, 15120, Note_on_c, 4, 74, 100
6, 15120, Note_on_c, 4, 71, 100
6, 15120, Note_on_c, 4, 67, 100
6, 15147, Note_on_c, 4, 71, 0
6, 15147, Note_on_c, 4, 74, 0
6, 15147, Note_on_c, 4, 67, 0
6, 15160, Note_on_c, 4, 74, 0
6, 15160, Note_on_c, 4, 71, 0
6, 15160, Note_on_c, 4, 67, 0
6, 15175, Note_on_c, 4, 74, 50
6, 15175, Note_on_c, 4, 71, 50
6, 15175, Note_on_c, 4, 67, 50
6, 15202, Note_on_c, 4, 67, 0
6, 15202, Note_on_c, 4, 71, 0
6, 15202, Note_on_c, 4, 74, 0
6, 15210, Note_on_c, 4, 67, 100
6, 15210, Note_on_c, 4, 71, 100
6, 15210, Note_on_c, 4, 74, 100
6, 15237, Note_on_c, 4, 74, 0
6, 15237, Note_on_c, 4, 71, 0
6, 15237, Note_on_c, 4, 67, 0
6, 15265, Note_on_c, 4, 67, 50
6, 15265, Note_on_c, 4, 71, 50
6, 15265, Note_on_c, 4, 74, 50
6, 15292, Note_on_c, 4, 74, 0
6, 15292, Note_on_c, 4, 71, 0
6, 15292, Note_on_c, 4, 67, 0
6, 15300, Note_on_c, 4, 69, 100
6, 15300, Note_on_c, 4, 66, 100
6, 15300, Note_on_c, 4, 62, 100
6, 15345, Note_on_c, 4, 62, 0
6, 15345, Note_on_c, 4, 66, 0
6, 15345, Note_on_c, 4, 69, 0
6, 15355, Note_on_c, 4, 69, 50
6, 15355, Note_on_c, 4, 66, 50
6, 15355, Note_on_c, 4, 62, 50
6, 15360, Note_on_c, 4, 71, 100
6, 15360, Note_on_c, 4, 67, 100
6, 15360, Note_on_c, 4, 64, 100
6, 15387, Note_on_c, 4, 64, 0
6, 15387, Note_on_c, 4, 71, 0
6, 15387, Note_on_c, 4, 67, 0
6, 15400, Note_on_c, 4, 69, 0
6, 15400, Note_on_c, 4, 62, 0
6, 15400, Note_on_c, 4, 66, 0
6, 15415, Note_on_c, 4, 71, 50
6, 15415, Note_on_c, 4, 67, 50
6, 15415, Note_on_c, 4, 64, 50
6, 15442, Note_on_c, 4, 64, 0
6, 15442, Note_on_c, 4, 67, 0
6, 15442, Note_on_c, 4, 71, 0
6, 15450, Note_on_c, 4, 64, 100
6, 15450, Note_on_c, 4, 67, 100
6, 15450, Note_on_c, 4, 71, 100
6, 15477, Note_on_c, 4, 71, 0
6, 15477, Note_on_c, 4, 67, 0
6, 15477, Note_on_c, 4, 64, 0
6, 15505, Note_on_c, 4, 64, 50
6, 15505, Note_on_c, 4, 67, 50
6, 15505, Note_on_c, 4, 71, 50
6, 15532, Note_on_c, 4, 71, 0
6, 15532, Note_on_c, 4, 67, 0
6, 15532, Note_on_c, 4, 64, 0
6, 15540, Note_on_c, 4, 64, 100
6, 15540, Note_on_c, 4, 67, 100
6, 15540, Note_on_c, 4, 71, 100
6, 15585, Note_on_c, 4, 71, 0
6, 15585, Note_on_c, 4, 67, 0
6, 15585, Note_on_c, 4, 64, 0
6, 15595, Note_on_c, 4, 64, 50
6, 15595, Note_on_c, 4, 67, 50
6, 15595, Note_on_c, 4, 71, 50
6, 15600, Note_on_c, 4, 64, 100
6, 15600, Note_on_c, 4, 71, 100
6, 15600, Note_on_c, 4, 67, 100
6, 15627, Note_on_c, 4, 71, 0
6, 15627, Note_on_c, 4, 64, 0
6, 15627, Note_on_c, 4, 67, 0
6, 15640, Note_on_c, 4, 64, 0
6, 15640, Note_on_c, 4, 71, 0
6, 15640, Note_on_c, 4, 67, 0
6, 15655, Note_on_c, 4, 64, 50
6, 15655, Note_on_c, 4, 71, 50
6, 15655, Note_on_c, 4, 67, 50
6, 15682, Note_on_c, 4, 67, 0
6, 15682, Note_on_c, 4, 71, 0
6, 15682, Note_on_c, 4, 64, 0
6, 15690, Note_on_c, 4, 67, 100
6, 15690, Note_on_c, 4, 71, 100
6, 15690, Note_on_c, 4, 64, 100
6, 15717, Note_on_c, 4, 64, 0
6, 15717, Note_on_c, 4, 71, 0
6, 15717, Note_on_c, 4, 67, 0
6, 15745, Note_on_c, 4, 67, 50
6, 15745, Note_on_c, 4, 71, 50
6, 15745, Note_on_c, 4, 64, 50
6, 15772, Note_on_c, 4, 64, 0
6, 15772, Note_on_c, 4, 71, 0
6, 15772, Note_on_c, 4, 67, 0
6, 15780, Note_on_c, 4, 69, 100
6, 15780, Note_on_c, 4, 76, 100
6, 15780, Note_on_c, 4, 72, 100
6, 15825, Note_on_c, 4, 72, 0
6, 15825, Note_on_c, 4, 76, 0
6, 15825, Note_on_c, 4, 69, 0
6, 15835, Note_on_c, 4, 69, 50
6, 15835, Note_on_c, 4, 76, 50
6, 15835, Note_on_c, 4, 72, 50
6, 15840, Note_on_c, 4, 67, 100
6, 15840, Note_on_c, 4, 64, 100
6, 15840, Note_on_c, 4, 71, 100
6, 15867, Note_on_c, 4, 71, 0
6, 15867, Note_on_c, 4, 67, 0
6, 15867, Note_on_c, 4, 64, 0
6, 15880, Note_on_c, 4, 69, 0
6, 15880, Note_on_c, 4, 72, 0
6, 15880, Note_on_c, 4, 76, 0
6, 15895, Note_on_c, 4, 67, 50
6, 15895, Note_on_c, 4, 64, 50
6, 15895, Note_on_c, 4, 71, 50
6, 15922, Note_on_c, 4, 71, 0
6, 15922, Note_on_c, 4, 64, 0
6, 15922, Note_on_c, 4, 67, 0
6, 15930, Note_on_c, 4, 71, 100
6, 15930, Note_on_c, 4, 67, 100
6, 15930, Note_on_c, 4, 64, 100
6, 15957, Note_on_c, 4, 64, 0
6, 15957, Note_on_c, 4, 67, 0
6, 15957, Note_on_c, 4, 71, 0
6, 15985, Note_on_c, 4, 71, 50
6, 15985, Note_on_c, 4, 67, 50
6, 15985, Note_on_c, 4, 64, 50
6, 16012, Note_on_c, 4, 64, 0
6, 16012, Note_on_c, 4, 67, 0
6, 16012, Note_on_c, 4, 71, 0
6, 16020, Note_on_c, 4, 67, 100
6, 16020, Note_on_c, 4, 71, 100
6, 16020, Note_on_c, 4, 64, 100
6, 16065, Note_on_c, 4, 64, 0
6, 16065, Note_on_c, 4, 71, 0
6, 16065, Note_on_c, 4, 67, 0
6, 16075, Note_on_c, 4, 67, 50
6, 16075, Note_on_c, 4, 71, 50
6, 16075, Note_on_c, 4, 64, 50
6, 16080, Note_on_c, 4, 71, 100
6, 16080, Note_on_c, 4, 64, 100
6, 16080, Note_on_c, 4, 67, 100
6, 16107, Note_on_c, 4, 64, 0
6, 16107, Note_on_c, 4, 67, 0
6, 16107, Note_on_c, 4, 71, 0
6, 16120, Note_on_c, 4, 71, 0
6, 16120, Note_on_c, 4, 64, 0
6, 16120, Note_on_c, 4, 67, 0
6, 16135, Note_on_c, 4, 71, 50
6, 16135, Note_on_c, 4, 64, 50
6, 16135, Note_on_c, 4, 67, 50
6, 16162, Note_on_c, 4, 67, 0
6, 16162, Note_on_c, 4, 64, 0
6, 16162, Note_on_c, 4, 71, 0
6, 16170, Note_on_c, 4, 64, 100
6, 16170, Note_on_c, 4, 67, 100
6, 16170, Note_on_c, 4, 71, 100
6, 16197, Note_on_c, 4, 71, 0
6, 16197, Note_on_c, 4, 67, 0
6, 16197, Note_on_c, 4, 64, 0
6, 16225, Note_on_c, 4, 64, 50
6, 16225, Note_on_c, 4, 67, 50
6, 16225, Note_on_c, 4, 71, 50
6, 16252, Note_on_c, 4, 71, 0
6, 16252, Note_on_c, 4, 67, 0
6, 16252, Note_on_c, 4, 64, 0
6, 16260, Note_on_c, 4, 76, 100
6, 16260, Note_on_c, 4, 72, 100
6, 16260, Note_on_c, 4, 69, 100
6, 16305, Note_on_c, 4, 69, 0
6, 16305, Note_on_c, 4, 72, 0
6, 16305, Note_on_c, 4, 76, 0
6, 16315, Note_on_c, 4, 76, 50
6, 16315, Note_on_c, 4, 72, 50
6, 16315, Note_on_c, 4, 69, 50
6, 16320, Note_on_c, 4, 64, 100
6, 16320, Note_on_c, 4, 67, 100
6, 16320, Note_on_c, 4, 71, 100
6, 16347, Note_on_c, 4, 71, 0
6, 16347, Note_on_c, 4, 64, 0
6, 16347, Note_on_c, 4, 67, 0
6, 16360, Note_on_c, 4, 76, 0
6, 16360, Note_on_c, 4, 69, 0
6, 16360, Note_on_c, 4, 72, 0
6, 16375, Note_on_c, 4, 64, 50
6, 16375, Note_on_c, 4, 67, 50
6, 16375, Note_on_c, 4, 71, 50
6, 16402, Note_on_c, 4, 71, 0
6, 16402, Note_on_c, 4, 67, 0
6, 16402, Note_on_c, 4, 64, 0
6, 16410, Note_on_c, 4, 64, 100
6, 16410, Note_on_c, 4, 67, 100
6, 16410, Note_on_c, 4, 71, 100
6, 16437, Note_on_c, 4, 71, 0
6, 16437, Note_on_c, 4, 67, 0
6, 16437, Note_on_c, 4, 64, 0
6, 16465, Note_on_c, 4, 64, 50
6, 16465, Note_on_c, 4, 67, 50
6, 16465, Note_on_c, 4, 71, 50
6, 16492, Note_on_c, 4, 71, 0
6, 16492, Note_on_c, 4, 67, 0
6, 16492, Note_on_c, 4, 64, 0
6, 16500, Note_on_c, 4, 64, 100
6, 16500, Note_on_c, 4, 67, 100
6, 16500, Note_on_c, 4, 71, 100
6, 16545, Note_on_c, 4, 71, 0
6, 16545, Note_on_c, 4, 67, 0
6, 16545, Note_on_c, 4, 64, 0
6, 16555, Note_on_c, 4, 64, 50
6, 16555, Note_on_c, 4, 67, 50
6, 16555, Note_on_c, 4, 71, 50
6, 16560, Note_on_c, 4, 67, 100
6, 16560, Note_on_c, 4, 64, 100
6, 16560, Note_on_c, 4, 71, 100
6, 16587, Note_on_c, 4, 71, 0
6, 16587, Note_on_c, 4, 64, 0
6, 16587, Note_on_c, 4, 67, 0
6, 16600, Note_on_c, 4, 67, 0
6, 16600, Note_on_c, 4, 64, 0
6, 16600, Note_on_c, 4, 71, 0
6, 16615, Note_on_c, 4, 67, 50
6, 16615, Note_on_c, 4, 64, 50
6, 16615, Note_on_c, 4, 71, 50
6, 16642, Note_on_c, 4, 71, 0
6, 16642, Note_on_c, 4, 64, 0
6, 16642, Note_on_c, 4, 67, 0
6, 16650, Note_on_c, 4, 67, 100
6, 16650, Note_on_c, 4, 64, 100
6, 16650, Note_on_c, 4, 71, 100
6, 16677, Note_on_c, 4, 71, 0
6, 16677, Note_on_c, 4, 64, 0
6, 16677, Note_on_c, 4, 67, 0
6, 16705, Note_on_c, 4, 67, 50
6, 16705, Note_on_c, 4, 64, 50
6, 16705, Note_on_c, 4, 71, 50
6, 16732, Note_on_c, 4, 71, 0
6, 16732, Note_on_c, 4, 64, 0
6, 16732, Note_on_c, 4, 67, 0
6, 16740, Note_on_c, 4, 76, 100
6, 16740, Note_on_c, 4, 69, 100
6, 16740, Note_on_c, 4, 72, 100
6, 16785, Note_on_c, 4, 72, 0
6, 16785, Note_on_c, 4, 69, 0
6, 16785, Note_on_c, 4, 76, 0
6, 16795, Note_on_c, 4, 76, 50
6, 16795, Note_on_c, 4, 69, 50
6, 16795, Note_on_c, 4, 72, 50
6, 16800, Note_on_c, 4, 64, 100
6, 16800, Note_on_c, 4, 71, 100
6, 16800, Note_on_c, 4, 67, 100
6, 16827, Note_on_c, 4, 67, 0
6, 16827, Note_on_c, 4, 64, 0
6, 16827, Note_on_c, 4, 71, 0
6, 16840, Note_on_c, 4, 76, 0
6, 16840, Note_on_c, 4, 72, 0
6, 16840, Note_on_c, 4, 69, 0
6, 16855, Note_on_c, 4, 64, 50
6, 16855, Note_on_c, 4, 71, 50
6, 16855, Note_on_c, 4, 67, 50
6, 16882, Note_on_c, 4, 67, 0
6, 16882, Note_on_c, 4, 71, 0
6, 16882, Note_on_c, 4, 64, 0
6, 16890, Note_on_c, 4, 67, 100
6, 16890, Note_on_c, 4, 71, 100
6, 16890, Note_on_c, 4, 64, 100
6, 16917, Note_on_c, 4, 64, 0
6, 16917, Note_on_c, 4, 71, 0
6, 16917, Note_on_c, 4, 67, 0
6, 16945, Note_on_c, 4, 67, 50
6, 16945, Note_on_c, 4, 71, 50
6, 16945, Note_on_c, 4, 64, 50
6, 16972, Note_on_c, 4, 64, 0
6, 16972, Note_on_c, 4, 71, 0
6, 16972, Note_on_c, 4, 67, 0
6, 16980, Note_on_c, 4, 71, 100
6, 16980, Note_on_c, 4, 64, 100
6, 16980, Note_on_c, 4, 67, 100
6, 17025, Note_on_c, 4, 67, 0
6, 17025, Note_on_c, 4, 64, 0
6, 17025, Note_on_c, 4, 71, 0
6, 17035, Note_on_c, 4, 71, 50
6, 17035, Note_on_c, 4, 64, 50
6, 17035, Note_on_c, 4, 67, 50
6, 17040, Note_on_c, 4, 64, 100
6, 17040, Note_on_c, 4, 71, 100
6, 17040, Note_on_c, 4, 67, 100
6, 17067, Note_on_c, 4, 67, 0
6, 17067, Note_on_c, 4, 71, 0
6, 17067, Note_on_c, 4, 64, 0
6, 17080, Note_on_c, 4, 64, 0
6, 17080, Note_on_c, 4, 71, 0
6, 17080, Note_on_c, 4, 67, 0
6, 17095, Note_on_c, 4, 64, 50
6, 17095, Note_on_c, 4, 71, 50
6, 17095, Note_on_c, 4, 67, 50
6, 17122, Note_on_c, 4, 67, 0
6, 17122, Note_on_c, 4, 71, 0
6, 17122, Note_on_c, 4, 64, 0
6, 17130, Note_on_c, 4, 67, 100
6, 17130, Note_on_c, 4, 71, 100
6, 17130, Note_on_c, 4, 64, 100
6, 17157, Note_on_c, 4, 64, 0
6, 17157, Note_on_c, 4, 71, 0
6, 17157, Note_on_c, 4, 67, 0
6, 17185, Note_on_c, 4, 67, 50
6, 17185, Note_on_c, 4, 71, 50
6, 17185, Note_on_c, 4, 64, 50
6, 17212, Note_on_c, 4, 64, 0
6, 17212, Note_on_c, 4, 71, 0
6, 17212, Note_on_c, 4, 67, 0
6, 17220, Note_on_c, 4, 72, 100
6, 17220, Note_on_c, 4, 69, 100
6, 17220, Note_on_c, 4, 76, 100
6, 17265, Note_on_c, 4, 76, 0
6, 17265, Note_on_c, 4, 69, 0
6, 17265, Note_on_c, 4, 72, 0
6, 17275, Note_on_c, 4, 72, 50
6, 17275, Note_on_c, 4, 69, 50
6, 17275, Note_on_c, 4, 76, 50
6, 17280, Note_on_c, 4, 64, 100
6, 17280, Note_on_c, 4, 71, 100
6, 17280, Note_on_c, 4, 67, 100
6, 17307, Note_on_c, 4, 67, 0
6, 17307, Note_on_c, 4, 64, 0
6, 17307, Note_on_c, 4, 71, 0
6, 17320, Note_on_c, 4, 72, 0
6, 17320, Note_on_c, 4, 76, 0
6, 17320, Note_on_c, 4, 69, 0
6, 17335, Note_on_c, 4, 64, 50
6, 17335, Note_on_c, 4, 71, 50
6, 17335, Note_on_c, 4, 67, 50
6, 17362, Note_on_c, 4, 67, 0
6, 17362, Note_on_c, 4, 71, 0
6, 17362, Note_on_c, 4, 64, 0
6, 17370, Note_on_c, 4, 67, 100
6, 17370, Note_on_c, 4, 64, 100
6, 17370, Note_on_c, 4, 71, 100
6, 17397, Note_on_c, 4, 71, 0
6, 17397, Note_on_c, 4, 64, 0
6, 17397, Note_on_c, 4, 67, 0
6, 17425, Note_on_c, 4, 67, 50
6, 17425, Note_on_c, 4, 64, 50
6, 17425, Note_on_c, 4, 71, 50
6, 17452, Note_on_c, 4, 71, 0
6, 17452, Note_on_c, 4, 64, 0
6, 17452, Note_on_c, 4, 67, 0
6, 17460, Note_on_c, 4, 71, 100
6, 17460, Note_on_c, 4, 64, 100
6, 17460, Note_on_c, 4, 67, 100
6, 17505, Note_on_c, 4, 67, 0
6, 17505, Note_on_c, 4, 64, 0
6, 17505, Note_on_c, 4, 71, 0
6, 17515, Note_on_c, 4, 71, 50
6, 17515, Note_on_c, 4, 64, 50
6, 17515, Note_on_c, 4, 67, 50
6, 17520, Note_on_c, 4, 71, 100
6, 17520, Note_on_c, 4, 64, 100
6, 17520, Note_on_c, 4, 67, 100
6, 17547, Note_on_c, 4, 67, 0
6, 17547, Note_on_c, 4, 71, 0
6, 17547, Note_on_c, 4, 64, 0
6, 17560, Note_on_c, 4, 71, 0
6, 17560, Note_on_c, 4, 64, 0
6, 17560, Note_on_c, 4, 67, 0
6, 17575, Note_on_c, 4, 71, 50
6, 17575, Note_on_c, 4, 64, 50
6, 17575, Note_on_c, 4, 67, 50
6, 17602, Note_on_c, 4, 67, 0
6, 17602, Note_on_c, 4, 64, 0
6, 17602, Note_on_c, 4, 71, 0
6, 17610, Note_on_c, 4, 64, 100
6, 17610, Note_on_c, 4, 67, 100
6, 17610, Note_on_c, 4, 71, 100
6, 17637, Note_on_c, 4, 71, 0
6, 17637, Note_on_c, 4, 67, 0
6, 17637, Note_on_c, 4, 64, 0
6, 17665, Note_on_c, 4, 64, 50
6, 17665, Note_on_c, 4, 67, 50
6, 17665, Note_on_c, 4, 71, 50
6, 17692, Note_on_c, 4, 71, 0
6, 17692, Note_on_c, 4, 67, 0
6, 17692, Note_on_c, 4, 64, 0
6, 17700, Note_on_c, 4, 76, 100
6, 17700, Note_on_c, 4, 69, 100
6, 17700, Note_on_c, 4, 72, 100
6, 17745, Note_on_c, 4, 72, 0
6, 17745, Note_on_c, 4, 69, 0
6, 17745, Note_on_c, 4, 76, 0
6, 17755, Note_on_c, 4, 76, 50
6, 17755, Note_on_c, 4, 69, 50
6, 17755, Note_on_c, 4, 72, 50
6, 17760, Note_on_c, 4, 72, 100
6, 17760, Note_on_c, 4, 67, 100
6, 17760, Note_on_c, 4, 76, 100
6, 17800, Note_on_c, 4, 76, 0
6, 17800, Note_on_c, 4, 69, 0
6, 17800, Note_on_c, 4, 72, 0
6, 17800, Note_on_c, 4, 76, 0
6, 17800, Note_on_c, 4, 67, 0
6, 17800, Note_on_c, 4, 72, 0
6, 17815, Note_on_c, 4, 72, 50
6, 17815, Note_on_c, 4, 67, 50
6, 17815, Note_on_c, 4, 76, 50
6, 17842, Note_on_c, 4, 76, 0
6, 17842, Note_on_c, 4, 67, 0
6, 17842, Note_on_c, 4, 72, 0
6, 17850, Note_on_c, 4, 67, 100
6, 17850, Note_on_c, 4, 72, 100
6, 17850, Note_on_c, 4, 76, 100
6, 17877, Note_on_c, 4, 76, 0
6, 17877, Note_on_c, 4, 72, 0
6, 17877, Note_on_c, 4, 67, 0
6, 17905, Note_on_c, 4, 67, 50
6, 17905, Note_on_c, 4, 72, 50
6, 17905, Note_on_c, 4, 76, 50
6, 17932, Note_on_c, 4, 76, 0
6, 17932, Note_on_c, 4, 72, 0
6, 17932, Note_on_c, 4, 67, 0
6, 17940, Note_on_c, 4, 74, 100
6, 17940, Note_on_c, 4, 67, 100
6, 17940, Note_on_c, 4, 71, 100
6, 17985, Note_on_c, 4, 71, 0
6, 17985, Note_on_c, 4, 67, 0
6, 17985, Note_on_c, 4, 74, 0
6, 17995, Note_on_c, 4, 74, 50
6, 17995, Note_on_c, 4, 67, 50
6, 17995, Note_on_c, 4, 71, 50
6, 18000, Note_on_c, 4, 74, 100
6, 18000, Note_on_c, 4, 71, 100
6, 18000, Note_on_c, 4, 67, 100
6, 18027, Note_on_c, 4, 71, 0
6, 18027, Note_on_c, 4, 74, 0
6, 18027, Note_on_c, 4, 67, 0
6, 18040, Note_on_c, 4, 74, 0
6, 18040, Note_on_c, 4, 71, 0
6, 18040, Note_on_c, 4, 67, 0
6, 18055, Note_on_c, 4, 74, 50
6, 18055, Note_on_c, 4, 71, 50
6, 18055, Note_on_c, 4, 67, 50
6, 18082, Note_on_c, 4, 67, 0
6, 18082, Note_on_c, 4, 71, 0
6, 18082, Note_on_c, 4, 74, 0
6, 18090, Note_on_c, 4, 67, 100
6, 18090, Note_on_c, 4, 71, 100
6, 18090, Note_on_c, 4, 74, 100
6, 18117, Note_on_c, 4, 74, 0
6, 18117, Note_on_c, 4, 71, 0
6, 18117, Note_on_c, 4, 67, 0
6, 18145, Note_on_c, 4, 67, 50
6, 18145, Note_on_c, 4, 71, 50
6, 18145, Note_on_c, 4, 74, 50
6, 18172, Note_on_c, 4, 74, 0
6, 18172, Note_on_c, 4, 71, 0
6, 18172, Note_on_c, 4, 67, 0
6, 18180, Note_on_c, 4, 69, 100
6, 18180, Note_on_c, 4, 66, 100
6, 18180, Note_on_c, 4, 62, 100
6, 18225, Note_on_c, 4, 62, 0
6, 18225, Note_on_c, 4, 66, 0
6, 18225, Note_on_c, 4, 69, 0
6, 18235, Note_on_c, 4, 69, 50
6, 18235, Note_on_c, 4, 66, 50
6, 18235, Note_on_c, 4, 62, 50
6, 18240, Note_on_c, 4, 64, 100
6, 18240, Note_on_c, 4, 67, 100
6, 18240, Note_on_c, 4, 71, 100
6, 18267, Note_on_c, 4, 71, 0
6, 18267, Note_on_c, 4, 64, 0
6, 18267, Note_on_c, 4, 67, 0
6, 18280, Note_on_c, 4, 69, 0
6, 18280, Note_on_c, 4, 62, 0
6, 18280, Note_on_c, 4, 66, 0
6, 18295, Note_on_c, 4, 64, 50
6, 18295, Note_on_c, 4, 67, 50
6, 18295, Note_on_c, 4, 71, 50
6, 18322, Note_on_c, 4, 71, 0
6, 18322, Note_on_c, 4, 67, 0
6, 18322, Note_on_c, 4, 64, 0
6, 18330, Note_on_c, 4, 67, 100
6, 18330, Note_on_c, 4, 64, 100
6, 18330, Note_on_c, 4, 71, 100
6, 18357, Note_on_c, 4, 71, 0
6, 18357, Note_on_c, 4, 64, 0
6, 18357, Note_on_c, 4, 67, 0
6, 18385, Note_on_c, 4, 67, 50
6, 18385, Note_on_c, 4, 64, 50
6, 18385, Note_on_c, 4, 71, 50
6, 18412, Note_on_c, 4, 71, 0
6, 18412, Note_on_c, 4, 64, 0
6, 18412, Note_on_c, 4, 67, 0
6, 18420, Note_on_c, 4, 64, 100
6, 18420, Note_on_c, 4, 71, 100
6, 18420, Note_on_c, 4, 67, 100
6, 18465, Note_on_c, 4, 67, 0
6, 18465, Note_on_c, 4, 71, 0
6, 18465, Note_on_c, 4, 64, 0
6, 18475, Note_on_c, 4, 64, 50
6, 18475, Note_on_c, 4, 71, 50
6, 18475, Note_on_c, 4, 67, 50
6, 18480, Note_on_c, 4, 64, 100
6, 18480, Note_on_c, 4, 67, 100
6, 18480, Note_on_c, 4, 71, 100
6, 18507, Note_on_c, 4, 67, 0
6, 18507, Note_on_c, 4, 64, 0
6, 18507, Note_on_c, 4, 71, 0
6, 18520, Note_on_c, 4, 64, 0
6, 18520, Note_on_c, 4, 67, 0
6, 18520, Note_on_c, 4, 71, 0
6, 18535, Note_on_c, 4, 64, 50
6, 18535, Note_on_c, 4, 67, 50
6, 18535, Note_on_c, 4, 71, 50
6, 18562, Note_on_c, 4, 71, 0
6, 18562, Note_on_c, 4, 67, 0
6, 18562, Note_on_c, 4, 64, 0
6, 18570, Note_on_c, 4, 67, 100
6, 18570, Note_on_c, 4, 71, 100
6, 18570, Note_on_c, 4, 64, 100
6, 18597, Note_on_c, 4, 64, 0
6, 18597, Note_on_c, 4, 71, 0
6, 18597, Note_on_c, 4, 67, 0
6, 18625, Note_on_c, 4, 67, 50
6, 18625, Note_on_c, 4, 71, 50
6, 18625, Note_on_c, 4, 64, 50
6, 18652, Note_on_c, 4, 64, 0
6, 18652, Note_on_c, 4, 71, 0
6, 18652, Note_on_c, 4, 67, 0
6, 18660, Note_on_c, 4, 69, 100
6, 18660, Note_on_c, 4, 76, 100
6, 18660, Note_on_c, 4, 72, 100
6, 18705, Note_on_c, 4, 72, 0
6, 18705, Note_on_c, 4, 76, 0
6, 18705, Note_on_c, 4, 69, 0
6, 18715, Note_on_c, 4, 69, 50
6, 18715, Note_on_c, 4, 76, 50
6, 18715, Note_on_c, 4, 72, 50
6, 18720, Note_on_c, 4, 71, 100
6, 18720, Note_on_c, 4, 67, 100
6, 18720, Note_on_c, 4, 64, 100
6, 18747, Note_on_c, 4, 64, 0
6, 18747, Note_on_c, 4, 71, 0
6, 18747, Note_on_c, 4, 67, 0
6, 18760, Note_on_c, 4, 69, 0
6, 18760, Note_on_c, 4, 72, 0
6, 18760, Note_on_c, 4, 76, 0
6, 18775, Note_on_c, 4, 71, 50
6, 18775, Note_on_c, 4, 67, 50
6, 18775, Note_on_c, 4, 64, 50
6, 18802, Note_on_c, 4, 64, 0
6, 18802, Note_on_c, 4, 67, 0
6, 18802, Note_on_c, 4, 71, 0
6, 18810, Note_on_c, 4, 67, 100
6, 18810, Note_on_c, 4, 64, 100
6, 18810, Note_on_c, 4, 71, 100
6, 18837, Note_on_c, 4, 71, 0
6, 18837, Note_on_c, 4, 64, 0
6, 18837, Note_on_c, 4, 67, 0
6, 18865, Note_on_c, 4, 67, 50
6, 18865, Note_on_c, 4, 64, 50
6, 18865, Note_on_c, 4, 71, 50
6, 18892, Note_on_c, 4, 71, 0
6, 18892, Note_on_c, 4, 64, 0
6, 18892, Note_on_c, 4, 67, 0
6, 18900, Note_on_c, 4, 71, 100
6, 18900, Note_on_c, 4, 64, 100
6, 18900, Note_on_c, 4, 67, 100
6, 18945, Note_on_c, 4, 67, 0
6, 18945, Note_on_c, 4, 64, 0
6, 18945, Note_on_c, 4, 71, 0
6, 18955, Note_on_c, 4, 71, 50
6, 18955, Note_on_c, 4, 64, 50
6, 18955, Note_on_c, 4, 67, 50
6, 18960, Note_on_c, 4, 67, 100
6, 18960, Note_on_c, 4, 64, 100
6, 18960, Note_on_c, 4, 71, 100
6, 18987, Note_on_c, 4, 67, 0
6, 18987, Note_on_c, 4, 71, 0
6, 18987, Note_on_c, 4, 64, 0
6, 19000, Note_on_c, 4, 67, 0
6, 19000, Note_on_c, 4, 64, 0
6, 19000, Note_on_c, 4, 71, 0
6, 19015, Note_on_c, 4, 67, 50
6, 19015, Note_on_c, 4, 64, 50
6, 19015, Note_on_c, 4, 71, 50
6, 19042, Note_on_c, 4, 71, 0
6, 19042, Note_on_c, 4, 64, 0
6, 19042, Note_on_c, 4, 67, 0
6, 19050, Note_on_c, 4, 71, 100
6, 19050, Note_on_c, 4, 64, 100
6, 19050, Note_on_c, 4, 67, 100
6, 19077, Note_on_c, 4, 67, 0
6, 19077, Note_on_c, 4, 64, 0
6, 19077, Note_on_c, 4, 71, 0
6, 19105, Note_on_c, 4, 71, 50
6, 19105, Note_on_c, 4, 64, 50
6, 19105, Note_on_c, 4, 67, 50
6, 19132, Note_on_c, 4, 67, 0
6, 19132, Note_on_c, 4, 64, 0
6, 19132, Note_on_c, 4, 71, 0
6, 19140, Note_on_c, 4, 72, 100
6, 19140, Note_on_c, 4, 76, 100
6, 19140, Note_on_c, 4, 69, 100
6, 19185, Note_on_c, 4, 69, 0
6, 19185, Note_on_c, 4, 76, 0
6, 19185, Note_on_c, 4, 72, 0
6, 19195, Note_on_c, 4, 72, 50
6, 19195, Note_on_c, 4, 76, 50
6, 19195, Note_on_c, 4, 69, 50
6, 19200, Note_on_c, 4, 67, 100
6, 19200, Note_on_c, 4, 71, 100
6, 19200, Note_on_c, 4, 64, 100
6, 19227, Note_on_c, 4, 64, 0
6, 19227, Note_on_c, 4, 67, 0
6, 19227, Note_on_c, 4, 71, 0
6, 19240, Note_on_c, 4, 72, 0
6, 19240, Note_on_c, 4, 69, 0
6, 19240, Note_on_c, 4, 76, 0
6, 19255, Note_on_c, 4, 67, 50
6, 19255, Note_on_c, 4, 71, 50
6, 19255, Note_on_c, 4, 64, 50
6, 19282, Note_on_c, 4, 64, 0
6, 19282, Note_on_c, 4, 71, 0
6, 19282, Note_on_c, 4, 67, 0
6, 19290, Note_on_c, 4, 64, 100
6, 19290, Note_on_c, 4, 71, 100
6, 19290, Note_on_c, 4, 67, 100
6, 19317, Note_on_c, 4, 67, 0
6, 19317, Note_on_c, 4, 71, 0
6, 19317, Note_on_c, 4, 64, 0
6, 19345, Note_on_c, 4, 64, 50
6, 19345, Note_on_c, 4, 71, 50
6, 19345, Note_on_c, 4, 67, 50
6, 19372, Note_on_c, 4, 67, 0
6, 19372, Note_on_c, 4, 71, 0
6, 19372, Note_on_c, 4, 64, 0
6, 19380, Note_on_c, 4, 67, 100
6, 19380, Note_on_c, 4, 64, 100
6, 19380, Note_on_c, 4, 71, 100
6, 19425, Note_on_c, 4, 71, 0
6, 19425, Note_on_c, 4, 64, 0
6, 19425, Note_on_c, 4, 67, 0
6, 19435, Note_on_c, 4, 67, 50
6, 19435, Note_on_c, 4, 64, 50
6, 19435, Note_on_c, 4, 71, 50
6, 19440, Note_on_c, 4, 64, 100
6, 19440, Note_on_c, 4, 67, 100
6, 19440, Note_on_c, 4, 71, 100
6, 19467, Note_on_c, 4, 71, 0
6, 19467, Note_on_c, 4, 67, 0
6, 19467, Note_on_c, 4, 64, 0
6, 19480, Note_on_c, 4, 64, 0
6, 19480, Note_on_c, 4, 67, 0
6, 19480, Note_on_c, 4, 71, 0
6, 19495, Note_on_c, 4, 64, 50
6, 19495, Note_on_c, 4, 67, 50
6, 19495, Note_on_c, 4, 71, 50
6, 19522, Note_on_c, 4, 71, 0
6, 19522, Note_on_c, 4, 67, 0
6, 19522, Note_on_c, 4, 64, 0
6, 19530, Note_on_c, 4, 71, 100
6, 19530, Note_on_c, 4, 67, 100
6, 19530, Note_on_c, 4, 64, 100
6, 19557, Note_on_c, 4, 64, 0
6, 19557, Note_on_c, 4, 67, 0
6, 19557, Note_on_c, 4, 71, 0
6, 19585, Note_on_c, 4, 71, 50
6, 19585, Note_on_c, 4, 67, 50
6, 19585, Note_on_c, 4, 64, 50
6, 19612, Note_on_c, 4, 64, 0
6, 19612, Note_on_c, 4, 67, 0
6, 19612, Note_on_c, 4, 71, 0
6, 19620, Note_on_c, 4, 72, 100
6, 19620, Note_on_c, 4, 69, 100
6, 19620, Note_on_c, 4, 76, 100
6, 19665, Note_on_c, 4, 76, 0
6, 19665, Note_on_c, 4, 69, 0
6, 19665, Note_on_c, 4, 72, 0
6, 19675, Note_on_c, 4, 72, 50
6, 19675, Note_on_c, 4, 69, 50
6, 19675, Note_on_c, 4, 76, 50
6, 19680, Note_on_c, 4, 72, 100
6, 19680, Note_on_c, 4, 67, 100
6, 19680, Note_on_c, 4, 76, 100
6, 19720, Note_on_c, 4, 76, 0
6, 19720, Note_on_c, 4, 69, 0
6, 19720, Note_on_c, 4, 76, 0
6, 19720, Note_on_c, 4, 72, 0
6, 19720, Note_on_c, 4, 67, 0
6, 19720, Note_on_c, 4, 72, 0
6, 19735, Note_on_c, 4, 72, 50
6, 19735, Note_on_c, 4, 67, 50
6, 19735, Note_on_c, 4, 76, 50
6, 19762, Note_on_c, 4, 76, 0
6, 19762, Note_on_c, 4, 67, 0
6, 19762, Note_on_c, 4, 72, 0
6, 19770, Note_on_c, 4, 67, 100
6, 19770, Note_on_c, 4, 72, 100
6, 19770, Note_on_c, 4, 76, 100
6, 19797, Note_on_c, 4, 76, 0
6, 19797, Note_on_c, 4, 72, 0
6, 19797, Note_on_c, 4, 67, 0
6, 19825, Note_on_c, 4, 67, 50
6, 19825, Note_on_c, 4, 72, 50
6, 19825, Note_on_c, 4, 76, 50
6, 19852, Note_on_c, 4, 76, 0
6, 19852, Note_on_c, 4, 72, 0
6, 19852, Note_on_c, 4, 67, 0
6, 19860, Note_on_c, 4, 74, 100
6, 19860, Note_on_c, 4, 67, 100
6, 19860, Note_on_c, 4, 71, 100
6, 19905, Note_on_c, 4, 71, 0
6, 19905, Note_on_c, 4, 67, 0
6, 19905, Note_on_c, 4, 74, 0
6, 19915, Note_on_c, 4, 74, 50
6, 19915, Note_on_c, 4, 67, 50
6, 19915, Note_on_c, 4, 71, 50
6, 19920, Note_on_c, 4, 74, 100
6, 19920, Note_on_c, 4, 71, 100
6, 19920, Note_on_c, 4, 67, 100
6, 19947, Note_on_c, 4, 71, 0
6, 19947, Note_on_c, 4, 74, 0
6, 19947, Note_on_c, 4, 67, 0
6, 19960, Note_on_c, 4, 74, 0
6, 19960, Note_on_c, 4, 71, 0
6, 19960, Note_on_c, 4, 67, 0
6, 19975, Note_on_c, 4, 74, 50
6, 19975, Note_on_c, 4, 71, 50
6, 19975, Note_on_c, 4, 67, 50
6, 20002, Note_on_c, 4, 67, 0
6, 20002, Note_on_c, 4, 71, 0
6, 20002, Note_on_c, 4, 74, 0
6, 20010, Note_on_c, 4, 67, 100
6, 20010, Note_on_c, 4, 71, 100
6, 20010, Note_on_c, 4, 74, 100
6, 20037, Note_on_c, 4, 74, 0
6, 20037, Note_on_c, 4, 71, 0
6, 20037, Note_on_c, 4, 67, 0
6, 20065, Note_on_c, 4, 67, 50
6, 20065, Note_on_c, 4, 71, 50
6, 20065, Note_on_c, 4, 74, 50
6, 20092, Note_on_c, 4, 74, 0
6, 20092, Note_on_c, 4, 71, 0
6, 20092, Note_on_c, 4, 67, 0
6, 20100, Note_on_c, 4, 69, 100
6, 20100, Note_on_c, 4, 66, 100
6, 20100, Note_on_c, 4, 62, 100
6, 20145, Note_on_c, 4, 62, 0
6, 20145, Note_on_c, 4, 66, 0
6, 20145, Note_on_c, 4, 69, 0
6, 20155, Note_on_c, 4, 69, 50
6, 20155, Note_on_c, 4, 66, 50
6, 20155, Note_on_c, 4, 62, 50
6, 20160, Note_on_c, 4, 64, 100
6, 20160, Note_on_c, 4, 67, 100
6, 20160, Note_on_c, 4, 71, 100
6, 20187, Note_on_c, 4, 71, 0
6, 20187, Note_on_c, 4, 64, 0
6, 20187, Note_on_c, 4, 67, 0
6, 20200, Note_on_c, 4, 69, 0
6, 20200, Note_on_c, 4, 62, 0
6, 20200, Note_on_c, 4, 66, 0
6, 20215, Note_on_c, 4, 64, 50
6, 20215, Note_on_c, 4, 67, 50
6, 20215, Note_on_c, 4, 71, 50
6, 20242, Note_on_c, 4, 71, 0
6, 20242, Note_on_c, 4, 67, 0
6, 20242, Note_on_c, 4, 64, 0
6, 20250, Note_on_c, 4, 71, 100
6, 20250, Note_on_c, 4, 67, 100
6, 20250, Note_on_c, 4, 64, 100
6, 20277, Note_on_c, 4, 64, 0
6, 20277, Note_on_c, 4, 67, 0
6, 20277, Note_on_c, 4, 71, 0
6, 20305, Note_on_c, 4, 71, 50
6, 20305, Note_on_c, 4, 67, 50
6, 20305, Note_on_c, 4, 64, 50
6, 20332, Note_on_c, 4, 64, 0
6, 20332, Note_on_c, 4, 67, 0
6, 20332, Note_on_c, 4, 71, 0
6, 20340, Note_on_c, 4, 64, 100
6, 20340, Note_on_c, 4, 71, 100
6, 20340, Note_on_c, 4, 67, 100
6, 20385, Note_on_c, 4, 67, 0
6, 20385, Note_on_c, 4, 71, 0
6, 20385, Note_on_c, 4, 64, 0
6, 20395, Note_on_c, 4, 64, 50
6, 20395, Note_on_c, 4, 71, 50
6, 20395, Note_on_c, 4, 67, 50
6, 20400, Note_on_c, 4, 67, 100
6, 20400, Note_on_c, 4, 71, 100
6, 20400, Note_on_c, 4, 64, 100
6, 20427, Note_on_c, 4, 67, 0
6, 20427, Note_on_c, 4, 64, 0
6, 20427, Note_on_c, 4, 71, 0
6, 20440, Note_on_c, 4, 67, 0
6, 20440, Note_on_c, 4, 71, 0
6, 20440, Note_on_c, 4, 64, 0
6, 20455, Note_on_c, 4, 67, 50
6, 20455, Note_on_c, 4, 71, 50
6, 20455, Note_on_c, 4, 64, 50
6, 20482, Note_on_c, 4, 64, 0
6, 20482, Note_on_c, 4, 71, 0
6, 20482, Note_on_c, 4, 67, 0
6, 20490, Note_on_c, 4, 67, 100
6, 20490, Note_on_c, 4, 71, 100
6, 20490, Note_on_c, 4, 64, 100
6, 20517, Note_on_c, 4, 64, 0
6, 20517, Note_on_c, 4, 71, 0
6, 20517, Note_on_c, 4, 67, 0
6, 20545, Note_on_c, 4, 67, 50
6, 20545, Note_on_c, 4, 71, 50
6, 20545, Note_on_c, 4, 64, 50
6, 20572, Note_on_c, 4, 64, 0
6, 20572, Note_on_c, 4, 71, 0
6, 20572, Note_on_c, 4, 67, 0
6, 20580, Note_on_c, 4, 64, 100
6, 20580, Note_on_c, 4, 71, 100
6, 20580, Note_on_c, 4, 67, 100
6, 20625, Note_on_c, 4, 67, 0
6, 20625, Note_on_c, 4, 71, 0
6, 20625, Note_on_c, 4, 64, 0
6, 20635, Note_on_c, 4, 64, 50
6, 20635, Note_on_c, 4, 71, 50
6, 20635, Note_on_c, 4, 67, 50
6, 20640, Note_on_c, 4, 64, 100
6, 20640, Note_on_c, 4, 71, 100
6, 20640, Note_on_c, 4, 67, 100
6, 20667, Note_on_c, 4, 67, 0
6, 20667, Note_on_c, 4, 64, 0
6, 20667, Note_on_c, 4, 71, 0
6, 20680, Note_on_c, 4, 64, 0
6, 20680, Note_on_c, 4, 71, 0
6, 20680, Note_on_c, 4, 67, 0
6, 20695, Note_on_c, 4, 64, 50
6, 20695, Note_on_c, 4, 71, 50
6, 20695, Note_on_c, 4, 67, 50
6, 20722, Note_on_c, 4, 67, 0
6, 20722, Note_on_c, 4, 71, 0
6, 20722, Note_on_c, 4, 64, 0
6, 20730, Note_on_c, 4, 67, 100
6, 20730, Note_on_c, 4, 64, 100
6, 20730, Note_on_c, 4, 71, 100
6, 20757, Note_on_c, 4, 71, 0
6, 20757, Note_on_c, 4, 64, 0
6, 20757, Note_on_c, 4, 67, 0
6, 20785, Note_on_c, 4, 67, 50
6, 20785, Note_on_c, 4, 64, 50
6, 20785, Note_on_c, 4, 71, 50
6, 20812, Note_on_c, 4, 71, 0
6, 20812, Note_on_c, 4, 64, 0
6, 20812, Note_on_c, 4, 67, 0
6, 20820, Note_on_c, 4, 71, 100
6, 20820, Note_on_c, 4, 64, 100
6, 20820, Note_on_c, 4, 67, 100
6, 20865, Note_on_c, 4, 67, 0
6, 20865, Note_on_c, 4, 64, 0
6, 20865, Note_on_c, 4, 71, 0
6, 20875, Note_on_c, 4, 71, 50
6, 20875, Note_on_c, 4, 64, 50
6, 20875, Note_on_c, 4, 67, 50
6, 20880, Note_on_c, 4, 64, 100
6, 20880, Note_on_c, 4, 71, 100
6, 20880, Note_on_c, 4, 67, 100
6, 20907, Note_on_c, 4, 67, 0
6, 20907, Note_on_c, 4, 71, 0
6, 20907, Note_on_c, 4, 64, 0
6, 20920, Note_on_c, 4, 64, 0
6, 20920, Note_on_c, 4, 71, 0
6, 20920, Note_on_c, 4, 67, 0
6, 20935, Note_on_c, 4, 64, 50
6, 20935, Note_on_c, 4, 71, 50
6, 20935, Note_on_c, 4, 67, 50
6, 20962, Note_on_c, 4, 67, 0
6, 20962, Note_on_c, 4, 71, 0
6, 20962, Note_on_c, 4, 64, 0
6, 20970, Note_on_c, 4, 67, 100
6, 20970, Note_on_c, 4, 64, 100
6, 20970, Note_on_c, 4, 71, 100
6, 20997, Note_on_c, 4, 71, 0
6, 20997, Note_on_c, 4, 64, 0
6, 20997, Note_on_c, 4, 67, 0
6, 21025, Note_on_c, 4, 67, 50
6, 21025, Note_on_c, 4, 64, 50
6, 21025, Note_on_c, 4, 71, 50
6, 21052, Note_on_c, 4, 71, 0
6, 21052, Note_on_c, 4, 64, 0
6, 21052, Note_on_c, 4, 67, 0
6, 21060, Note_on_c, 4, 67, 100
6, 21060, Note_on_c, 4, 71, 100
6, 21060, Note_on_c, 4, 64, 100
6, 21105, Note_on_c, 4, 64, 0
6, 21105, Note_on_c, 4, 71, 0
6, 21105, Note_on_c, 4, 67, 0
6, 21115, Note_on_c, 4, 67, 50
6, 21115, Note_on_c, 4, 71, 50
6, 21115, Note_on_c, 4, 64, 50
6, 21120, Note_on_c, 4, 64, 100
6, 21120, Note_on_c, 4, 71, 100
6, 21120, Note_on_c, 4, 67, 100
6, 21147, Note_on_c, 4, 64, 0
6, 21147, Note_on_c, 4, 67, 0
6, 21147, Note_on_c, 4, 71, 0
6, 21160, Note_on_c, 4, 64, 0
6, 21160, Note_on_c, 4, 71, 0
6, 21160, Note_on_c, 4, 67, 0
6, 21175, Note_on_c, 4, 64, 50
6, 21175, Note_on_c, 4, 71, 50
6, 21175, Note_on_c, 4, 67, 50
6, 21202, Note_on_c, 4, 67, 0
6, 21202, Note_on_c, 4, 71, 0
6, 21202, Note_on_c, 4, 64, 0
6, 21210, Note_on_c, 4, 64, 100
6, 21210, Note_on_c, 4, 71, 100
6, 21210, Note_on_c, 4, 67, 100
6, 21237, Note_on_c, 4, 67, 0
6, 21237, Note_on_c, 4, 71, 0
6, 21237, Note_on_c, 4, 64, 0
6, 21265, Note_on_c, 4, 64, 50
6, 21265, Note_on_c, 4, 71, 50
6, 21265, Note_on_c, 4, 67, 50
6, 21292, Note_on_c, 4, 67, 0
6, 21292, Note_on_c, 4, 71, 0
6, 21292, Note_on_c, 4, 64, 0
6, 21300, Note_on_c, 4, 71, 100
6, 21300, Note_on_c, 4, 64, 100
6, 21300, Note_on_c, 4, 67, 100
6, 21345, Note_on_c, 4, 67, 0
6, 21345, Note_on_c, 4, 64, 0
6, 21345, Note_on_c, 4, 71, 0
6, 21355, Note_on_c, 4, 71, 50
6, 21355, Note_on_c, 4, 64, 50
6, 21355, Note_on_c, 4, 67, 50
6, 21360, Note_on_c, 4, 64, 100
6, 21360, Note_on_c, 4, 67, 100
6, 21360, Note_on_c, 4, 71, 100
6, 21387, Note_on_c, 4, 67, 0
6, 21387, Note_on_c, 4, 71, 0
6, 21387, Note_on_c, 4, 64, 0
6, 21400, Note_on_c, 4, 64, 0
6, 21400, Note_on_c, 4, 67, 0
6, 21400, Note_on_c, 4, 71, 0
6, 21415, Note_on_c, 4, 64, 50
6, 21415, Note_on_c, 4, 67, 50
6, 21415, Note_on_c, 4, 71, 50
6, 21442, Note_on_c, 4, 71, 0
6, 21442, Note_on_c, 4, 67, 0
6, 21442, Note_on_c, 4, 64, 0
6, 21450, Note_on_c, 4, 64, 100
6, 21450, Note_on_c, 4, 67, 100
6, 21450, Note_on_c, 4, 71, 100
6, 21477, Note_on_c, 4, 71, 0
6, 21477, Note_on_c, 4, 67, 0
6, 21477, Note_on_c, 4, 64, 0
6, 21505, Note_on_c, 4, 64, 50
6, 21505, Note_on_c, 4, 67, 50
6, 21505, Note_on_c, 4, 71, 50
6, 21532, Note_on_c, 4, 71, 0
6, 21532, Note_on_c, 4, 67, 0
6, 21532, Note_on_c, 4, 64, 0
6, 21540, Note_on_c, 4, 71, 100
6, 21540, Note_on_c, 4, 67, 100
6, 21540, Note_on_c, 4, 64, 100
6, 21585, Note_on_c, 4, 64, 0
6, 21585, Note_on_c, 4, 67, 0
6, 21585, Note_on_c, 4, 71, 0
6, 21595, Note_on_c, 4, 71, 50
6, 21595, Note_on_c, 4, 67, 50
6, 21595, Note_on_c, 4, 64, 50
6, 21600, Note_on_c, 4, 64, 100
6, 21600, Note_on_c, 4, 67, 100
6, 21600, Note_on_c, 4, 71, 100
6, 21627, Note_on_c, 4, 64, 0
6, 21627, Note_on_c, 4, 71, 0
6, 21627, Note_on_c, 4, 67, 0
6, 21640, Note_on_c, 4, 64, 0
6, 21640, Note_on_c, 4, 67, 0
6, 21640, Note_on_c, 4, 71, 0
6, 21655, Note_on_c, 4, 64, 50
6, 21655, Note_on_c, 4, 67, 50
6, 21655, Note_on_c, 4, 71, 50
6, 21682, Note_on_c, 4, 71, 0
6, 21682, Note_on_c, 4, 67, 0
6, 21682, Note_on_c, 4, 64, 0
6, 21690, Note_on_c, 4, 71, 100
6, 21690, Note_on_c, 4, 67, 100
6, 21690, Note_on_c, 4, 64, 100
6, 21717, Note_on_c, 4, 64, 0
6, 21717, Note_on_c, 4, 67, 0
6, 21717, Note_on_c, 4, 71, 0
6, 21745, Note_on_c, 4, 71, 50
6, 21745, Note_on_c, 4, 67, 50
6, 21745, Note_on_c, 4, 64, 50
6, 21772, Note_on_c, 4, 64, 0
6, 21772, Note_on_c, 4, 67, 0
6, 21772, Note_on_c, 4, 71, 0
6, 21780, Note_on_c, 4, 64, 100
6, 21780, Note_on_c, 4, 67, 100
6, 21780, Note_on_c, 4, 71, 100
6, 21825, Note_on_c, 4, 71, 0
6, 21825, Note_on_c, 4, 67, 0
6, 21825, Note_on_c, 4, 64, 0
6, 21835, Note_on_c, 4, 64, 50
6, 21835, Note_on_c, 4, 67, 50
6, 21835, Note_on_c, 4, 71, 50
6, 21840, Note_on_c, 4, 71, 100
6, 21840, Note_on_c, 4, 67, 100
6, 21840, Note_on_c, 4, 64, 100
6, 21867, Note_on_c, 4, 71, 0
6, 21867, Note_on_c, 4, 64, 0
6, 21867, Note_on_c, 4, 67, 0
6, 21880, Note_on_c, 4, 71, 0
6, 21880, Note_on_c, 4, 67, 0
6, 21880, Note_on_c, 4, 64, 0
6, 21895, Note_on_c, 4, 71, 50
6, 21895, Note_on_c, 4, 67, 50
6, 21895, Note_on_c, 4, 64, 50
6, 21922, Note_on_c, 4, 64, 0
6, 21922, Note_on_c, 4, 67, 0
6, 21922, Note_on_c, 4, 71, 0
6, 21930, Note_on_c, 4, 71, 100
6, 21930, Note_on_c, 4, 67, 100
6, 21930, Note_on_c, 4, 64, 100
6, 21957, Note_on_c, 4, 64, 0
6, 21957, Note_on_c, 4, 67, 0
6, 21957, Note_on_c, 4, 71, 0
6, 21985, Note_on_c, 4, 71, 50
6, 21985, Note_on_c, 4, 67, 50
6, 21985, Note_on_c, 4, 64, 50
6, 22012, Note_on_c, 4, 64, 0
6, 22012, Note_on_c, 4, 67, 0
6, 22012, Note_on_c, 4, 71, 0
6, 22020, Note_on_c, 4, 67, 100
6, 22020, Note_on_c, 4, 64, 100
6, 22020, Note_on_c, 4, 71, 100
6, 22065, Note_on_c, 4, 71, 0
6, 22065, Note_on_c, 4, 64, 0
6, 22065, Note_on_c, 4, 67, 0
6, 22075, Note_on_c, 4, 67, 50
6, 22075, Note_on_c, 4, 64, 50
6, 22075, Note_on_c, 4, 71, 50
6, 22080, Control_c, 4, 11, 50
6, 22080, Note_on_c, 4, 71, 100
6, 22080, Note_on_c, 4, 67, 100
6, 22080, Note_on_c, 4, 64, 100
6, 22107, Note_on_c, 4, 71, 0
6, 22107, Note_on_c, 4, 67, 0
6, 22107, Note_on_c, 4, 64, 0
6, 22120, Note_on_c, 4, 71, 0
6, 22120, Note_on_c, 4, 67, 0
6, 22120, Note_on_c, 4, 64, 0
6, 22129, Control_c, 4, 11, 51
6, 22135, Note_on_c, 4, 71, 50
6, 22135, Note_on_c, 4, 67, 50
6, 22135, Note_on_c, 4, 64, 50
6, 22162, Note_on_c, 4, 64, 0
6, 22162, Note_on_c, 4, 67, 0
6, 22162, Note_on_c, 4, 71, 0
6, 22170, Note_on_c, 4, 71, 100
6, 22170, Note_on_c, 4, 64, 100
6, 22170, Note_on_c, 4, 67, 100
6, 22179, Control_c, 4, 11, 52
6, 22197, Note_on_c, 4, 67, 0
6, 22197, Note_on_c, 4, 64, 0
6, 22197, Note_on_c, 4, 71, 0
6, 22225, Note_on_c, 4, 71, 50
6, 22225, Note_on_c, 4, 64, 50
6, 22225, Note_on_c, 4, 67, 50
6, 22229, Control_c, 4, 11, 53
6, 22252, Note_on_c, 4, 67, 0
6, 22252, Note_on_c, 4, 64, 0
6, 22252, Note_on_c, 4, 71, 0
6, 22260, Note_on_c, 4, 67, 100
6, 22260, Note_on_c, 4, 71, 100
6, 22260, Note_on_c, 4, 64, 100
6, 22279, Control_c, 4, 11, 54
6, 22305, Note_on_c, 4, 64, 0
6, 22305, Note_on_c, 4, 71, 0
6, 22305, Note_on_c, 4, 67, 0
6, 22315, Note_on_c, 4, 67, 50
6, 22315, Note_on_c, 4, 71, 50
6, 22315, Note_on_c, 4, 64, 50
6, 22320, Note_on_c, 4, 64, 100
6, 22320, Note_on_c, 4, 67, 100
6, 22320, Note_on_c, 4, 71, 100
6, 22329, Control_c, 4, 11, 55
6, 22347, Note_on_c, 4, 64, 0
6, 22347, Note_on_c, 4, 67, 0
6, 22347, Note_on_c, 4, 71, 0
6, 22360, Note_on_c, 4, 64, 0
6, 22360, Note_on_c, 4, 67, 0
6, 22360, Note_on_c, 4, 71, 0
6, 22375, Note_on_c, 4, 64, 50
6, 22375, Note_on_c, 4, 67, 50
6, 22375, Note_on_c, 4, 71, 50
6, 22379, Control_c, 4, 11, 56
6, 22402, Note_on_c, 4, 71, 0
6, 22402, Note_on_c, 4, 67, 0
6, 22402, Note_on_c, 4, 64, 0
6, 22410, Note_on_c, 4, 71, 100
6, 22410, Note_on_c, 4, 67, 100
6, 22410, Note_on_c, 4, 64, 100
6, 22429, Control_c, 4, 11, 57
6, 22437, Note_on_c, 4, 64, 0
6, 22437, Note_on_c, 4, 67, 0
6, 22437, Note_on_c, 4, 71, 0
6, 22465, Note_on_c, 4, 71, 50
6, 22465, Note_on_c, 4, 67, 50
6, 22465, Note_on_c, 4, 64, 50
6, 22478, Control_c, 4, 11, 58
6, 22492, Note_on_c, 4, 64, 0
6, 22492, Note_on_c, 4, 67, 0
6, 22492, Note_on_c, 4, 71, 0
6, 22500, Note_on_c, 4, 76, 100
6, 22500, Note_on_c, 4, 72, 100
6, 22500, Note_on_c, 4, 67, 100
6, 22528, Control_c, 4, 11, 59
6, 22545, Note_on_c, 4, 67, 0
6, 22545, Note_on_c, 4, 72, 0
6, 22545, Note_on_c, 4, 76, 0
6, 22555, Note_on_c, 4, 76, 50
6, 22555, Note_on_c, 4, 72, 50
6, 22555, Note_on_c, 4, 67, 50
6, 22560, Note_on_c, 4, 76, 100
6, 22560, Note_on_c, 4, 72, 100
6, 22560, Note_on_c, 4, 67, 100
6, 22578, Control_c, 4, 11, 60
6, 22587, Note_on_c, 4, 67, 0
6, 22587, Note_on_c, 4, 76, 0
6, 22587, Note_on_c, 4, 72, 0
6, 22600, Note_on_c, 4, 76, 0
6, 22600, Note_on_c, 4, 72, 0
6, 22600, Note_on_c, 4, 67, 0
6, 22615, Note_on_c, 4, 76, 50
6, 22615, Note_on_c, 4, 72, 50
6, 22615, Note_on_c, 4, 67, 50
6, 22628, Control_c, 4, 11, 61
6, 22642, Note_on_c, 4, 67, 0
6, 22642, Note_on_c, 4, 72, 0
6, 22642, Note_on_c, 4, 76, 0
6, 22650, Note_on_c, 4, 67, 100
6, 22650, Note_on_c, 4, 76, 100
6, 22650, Note_on_c, 4, 72, 100
6, 22677, Note_on_c, 4, 72, 0
6, 22677, Note_on_c, 4, 76, 0
6, 22677, Note_on_c, 4, 67, 0
6, 22678, Control_c, 4, 11, 62
6, 22705, Note_on_c, 4, 67, 50
6, 22705, Note_on_c, 4, 76, 50
6, 22705, Note_on_c, 4, 72, 50
6, 22728, Control_c, 4, 11, 63
6, 22732, Note_on_c, 4, 72, 0
6, 22732, Note_on_c, 4, 76, 0
6, 22732, Note_on_c, 4, 67, 0
6, 22740, Note_on_c, 4, 67, 100
6, 22740, Note_on_c, 4, 71, 100
6, 22740, Note_on_c, 4, 74, 100
6, 22778, Control_c, 4, 11, 64
6, 22785, Note_on_c, 4, 74, 0
6, 22785, Note_on_c, 4, 71, 0
6, 22785, Note_on_c, 4, 67, 0
6, 22795, Note_on_c, 4, 67, 50
6, 22795, Note_on_c, 4, 71, 50
6, 22795, Note_on_c, 4, 74, 50
6, 22800, Note_on_c, 4, 67, 100
6, 22800, Note_on_c, 4, 71, 100
6, 22800, Note_on_c, 4, 74, 100
6, 22827, Note_on_c, 4, 74, 0
6, 22827, Note_on_c, 4, 67, 0
6, 22827, Note_on_c, 4, 71, 0
6, 22827, Control_c, 4, 11, 65
6, 22840, Note_on_c, 4, 67, 0
6, 22840, Note_on_c, 4, 71, 0
6, 22840, Note_on_c, 4, 74, 0
6, 22855, Note_on_c, 4, 67, 50
6, 22855, Note_on_c, 4, 71, 50
6, 22855, Note_on_c, 4, 74, 50
6, 22877, Control_c, 4, 11, 66
6, 22882, Note_on_c, 4, 74, 0
6, 22882, Note_on_c, 4, 71, 0
6, 22882, Note_on_c, 4, 67, 0
6, 22890, Note_on_c, 4, 67, 100
6, 22890, Note_on_c, 4, 71, 100
6, 22890, Note_on_c, 4, 74, 100
6, 22917, Note_on_c, 4, 74, 0
6, 22917, Note_on_c, 4, 71, 0
6, 22917, Note_on_c, 4, 67, 0
6, 22927, Control_c, 4, 11, 67
6, 22945, Note_on_c, 4, 67, 50
6, 22945, Note_on_c, 4, 71, 50
6, 22945, Note_on_c, 4, 74, 50
6, 22972, Note_on_c, 4, 74, 0
6, 22972, Note_on_c, 4, 71, 0
6, 22972, Note_on_c, 4, 67, 0
6, 22977, Control_c, 4, 11, 68
6, 22980, Note_on_c, 4, 66, 100
6, 22980, Note_on_c, 4, 62, 100
6, 22980, Note_on_c, 4, 69, 100
6, 23025, Note_on_c, 4, 69, 0
6, 23025, Note_on_c, 4, 62, 0
6, 23025, Note_on_c, 4, 66, 0
6, 23027, Control_c, 4, 11, 69
6, 23035, Note_on_c, 4, 66, 50
6, 23035, Note_on_c, 4, 62, 50
6, 23035, Note_on_c, 4, 69, 50
6, 23040, Note_on_c, 4, 71, 100
6, 23040, Note_on_c, 4, 67, 100
6, 23040, Note_on_c, 4, 64, 100
6, 23067, Note_on_c, 4, 64, 0
6, 23067, Note_on_c, 4, 71, 0
6, 23067, Note_on_c, 4, 67, 0
6, 23077, Control_c, 4, 11, 70
6, 23080, Note_on_c, 4, 66, 0
6, 23080, Note_on_c, 4, 69, 0
6, 23080, Note_on_c, 4, 62, 0
6, 23095, Note_on_c, 4, 71, 50
6, 23095, Note_on_c, 4, 67, 50
6, 23095, Note_on_c, 4, 64, 50
6, 23122, Note_on_c, 4, 64, 0
6, 23122, Note_on_c, 4, 67, 0
6, 23122, Note_on_c, 4, 71, 0
6, 23127, Control_c, 4, 11, 71
6, 23130, Note_on_c, 4, 71, 100
6, 23130, Note_on_c, 4, 67, 100
6, 23130, Note_on_c, 4, 64, 100
6, 23157, Note_on_c, 4, 64, 0
6, 23157, Note_on_c, 4, 67, 0
6, 23157, Note_on_c, 4, 71, 0
6, 23176, Control_c, 4, 11, 72
6, 23185, Note_on_c, 4, 71, 50
6, 23185, Note_on_c, 4, 67, 50
6, 23185, Note_on_c, 4, 64, 50
6, 23212, Note_on_c, 4, 64, 0
6, 23212, Note_on_c, 4, 67, 0
6, 23212, Note_on_c, 4, 71, 0
6, 23220, Note_on_c, 4, 67, 100
6, 23220, Note_on_c, 4, 64, 100
6, 23220, Note_on_c, 4, 71, 100
6, 23226, Control_c, 4, 11, 73
6, 23265, Note_on_c, 4, 71, 0
6, 23265, Note_on_c, 4, 64, 0
6, 23265, Note_on_c, 4, 67, 0
6, 23275, Note_on_c, 4, 67, 50
6, 23275, Note_on_c, 4, 64, 50
6, 23275, Note_on_c, 4, 71, 50
6, 23276, Control_c, 4, 11, 74
6, 23280, Note_on_c, 4, 71, 100
6, 23280, Note_on_c, 4, 64, 100
6, 23280, Note_on_c, 4, 67, 100
6, 23307, Note_on_c, 4, 71, 0
6, 23307, Note_on_c, 4, 67, 0
6, 23307, Note_on_c, 4, 64, 0
6, 23320, Note_on_c, 4, 71, 0
6, 23320, Note_on_c, 4, 64, 0
6, 23320, Note_on_c, 4, 67, 0
6, 23326, Control_c, 4, 11, 75
6, 23335, Note_on_c, 4, 71, 50
6, 23335, Note_on_c, 4, 64, 50
6, 23335, Note_on_c, 4, 67, 50
6, 23362, Note_on_c, 4, 67, 0
6, 23362, Note_on_c, 4, 64, 0
6, 23362, Note_on_c, 4, 71, 0
6, 23370, Note_on_c, 4, 67, 100
6, 23370, Note_on_c, 4, 71, 100
6, 23370, Note_on_c, 4, 64, 100
6, 23376, Control_c, 4, 11, 76
6, 23397, Note_on_c, 4, 64, 0
6, 23397, Note_on_c, 4, 71, 0
6, 23397, Note_on_c, 4, 67, 0
6, 23425, Note_on_c, 4, 67, 50
6, 23425, Note_on_c, 4, 71, 50
6, 23425, Note_on_c, 4, 64, 50
6, 23426, Control_c, 4, 11, 77
6, 23452, Note_on_c, 4, 64, 0
6, 23452, Note_on_c, 4, 71, 0
6, 23452, Note_on_c, 4, 67, 0
6, 23460, Note_on_c, 4, 72, 100
6, 23460, Note_on_c, 4, 76, 100
6, 23460, Note_on_c, 4, 69, 100
6, 23476, Control_c, 4, 11, 78
6, 23505, Note_on_c, 4, 69, 0
6, 23505, Note_on_c, 4, 76, 0
6, 23505, Note_on_c, 4, 72, 0
6, 23515, Note_on_c, 4, 72, 50
6, 23515, Note_on_c, 4, 76, 50
6, 23515, Note_on_c, 4, 69, 50
6, 23520, Note_on_c, 4, 67, 100
6, 23520, Note_on_c, 4, 71, 100
6, 23520, Note_on_c, 4, 64, 100
6, 23525, Control_c, 4, 11, 79
6, 23547, Note_on_c, 4, 64, 0
6, 23547, Note_on_c, 4, 67, 0
6, 23547, Note_on_c, 4, 71, 0
6, 23560, Note_on_c, 4, 72, 0
6, 23560, Note_on_c, 4, 69, 0
6, 23560, Note_on_c, 4, 76, 0
6, 23575, Control_c, 4, 11, 80
6, 23575, Note_on_c, 4, 67, 50
6, 23575, Note_on_c, 4, 71, 50
6, 23575, Note_on_c, 4, 64, 50
6, 23602, Note_on_c, 4, 64, 0
6, 23602, Note_on_c, 4, 71, 0
6, 23602, Note_on_c, 4, 67, 0
6, 23610, Note_on_c, 4, 64, 100
6, 23610, Note_on_c, 4, 67, 100
6, 23610, Note_on_c, 4, 71, 100
6, 23625, Control_c, 4, 11, 81
6, 23637, Note_on_c, 4, 71, 0
6, 23637, Note_on_c, 4, 67, 0
6, 23637, Note_on_c, 4, 64, 0
6, 23665, Note_on_c, 4, 64, 50
6, 23665, Note_on_c, 4, 67, 50
6, 23665, Note_on_c, 4, 71, 50
6, 23675, Control_c, 4, 11, 82
6, 23692, Note_on_c, 4, 71, 0
6, 23692, Note_on_c, 4, 67, 0
6, 23692, Note_on_c, 4, 64, 0
6, 23700, Note_on_c, 4, 67, 100
6, 23700, Note_on_c, 4, 71, 100
6, 23700, Note_on_c, 4, 64, 100
6, 23725, Control_c, 4, 11, 83
6, 23745, Note_on_c, 4, 64, 0
6, 23745, Note_on_c, 4, 71, 0
6, 23745, Note_on_c, 4, 67, 0
6, 23755, Note_on_c, 4, 67, 50
6, 23755, Note_on_c, 4, 71, 50
6, 23755, Note_on_c, 4, 64, 50
6, 23760, Note_on_c, 4, 71, 100
6, 23760, Note_on_c, 4, 64, 100
6, 23760, Note_on_c, 4, 67, 100
6, 23775, Control_c, 4, 11, 84
6, 23787, Note_on_c, 4, 64, 0
6, 23787, Note_on_c, 4, 67, 0
6, 23787, Note_on_c, 4, 71, 0
6, 23800, Note_on_c, 4, 71, 0
6, 23800, Note_on_c, 4, 64, 0
6, 23800, Note_on_c, 4, 67, 0
6, 23815, Note_on_c, 4, 71, 50
6, 23815, Note_on_c, 4, 64, 50
6, 23815, Note_on_c, 4, 67, 50
6, 23825, Control_c, 4, 11, 85
6, 23842, Note_on_c, 4, 67, 0
6, 23842, Note_on_c, 4, 64, 0
6, 23842, Note_on_c, 4, 71, 0
6, 23850, Note_on_c, 4, 64, 100
6, 23850, Note_on_c, 4, 71, 100
6, 23850, Note_on_c, 4, 67, 100
6, 23874, Control_c, 4, 11, 86
6, 23877, Note_on_c, 4, 67, 0
6, 23877, Note_on_c, 4, 71, 0
6, 23877, Note_on_c, 4, 64, 0
6, 23905, Note_on_c, 4, 64, 50
6, 23905, Note_on_c, 4, 71, 50
6, 23905, Note_on_c, 4, 67, 50
6, 23924, Control_c, 4, 11, 87
6, 23932, Note_on_c, 4, 67, 0
6, 23932, Note_on_c, 4, 71, 0
6, 23932, Note_on_c, 4, 64, 0
6, 23940, Note_on_c, 4, 72, 100
6, 23940, Note_on_c, 4, 76, 100
6, 23940, Note_on_c, 4, 69, 100
6, 23974, Control_c, 4, 11, 88
6, 23985, Note_on_c, 4, 69, 0
6, 23985, Note_on_c, 4, 76, 0
6, 23985, Note_on_c, 4, 72, 0
6, 23995, Note_on_c, 4, 72, 50
6, 23995, Note_on_c, 4, 76, 50
6, 23995, Note_on_c, 4, 69, 50
6, 24000, Note_on_c, 4, 71, 100
6, 24000, Note_on_c, 4, 64, 100
6, 24000, Note_on_c, 4, 67, 100
6, 24024, Control_c, 4, 11, 89
6, 24027, Note_on_c, 4, 67, 0
6, 24027, Note_on_c, 4, 71, 0
6, 24027, Note_on_c, 4, 64, 0
6, 24040, Note_on_c, 4, 72, 0
6, 24040, Note_on_c, 4, 69, 0
6, 24040, Note_on_c, 4, 76, 0
6, 24055, Note_on_c, 4, 71, 50
6, 24055, Note_on_c, 4, 64, 50
6, 24055, Note_on_c, 4, 67, 50
6, 24074, Control_c, 4, 11, 90
6, 24082, Note_on_c, 4, 67, 0
6, 24082, Note_on_c, 4, 64, 0
6, 24082, Note_on_c, 4, 71, 0
6, 24090, Note_on_c, 4, 71, 100
6, 24090, Note_on_c, 4, 67, 100
6, 24090, Note_on_c, 4, 64, 100
6, 24117, Note_on_c, 4, 64, 0
6, 24117, Note_on_c, 4, 67, 0
6, 24117, Note_on_c, 4, 71, 0
6, 24124, Control_c, 4, 11, 91
6, 24145, Note_on_c, 4, 71, 50
6, 24145, Note_on_c, 4, 67, 50
6, 24145, Note_on_c, 4, 64, 50
6, 24172, Note_on_c, 4, 64, 0
6, 24172, Note_on_c, 4, 67, 0
6, 24172, Note_on_c, 4, 71, 0
6, 24174, Control_c, 4, 11, 92
6, 24180, Note_on_c, 4, 71, 100
6, 24180, Note_on_c, 4, 67, 100
6, 24180, Note_on_c, 4, 64, 100
6, 24223, Control_c, 4, 11, 93
6, 24225, Note_on_c, 4, 64, 0
6, 24225, Note_on_c, 4, 67, 0
6, 24225, Note_on_c, 4, 71, 0
6, 24235, Note_on_c, 4, 71, 50
6, 24235, Note_on_c, 4, 67, 50
6, 24235, Note_on_c, 4, 64, 50
6, 24240, Note_on_c, 4, 71, 100
6, 24240, Note_on_c, 4, 67, 100
6, 24240, Note_on_c, 4, 64, 100
6, 24267, Note_on_c, 4, 64, 0
6, 24267, Note_on_c, 4, 71, 0
6, 24267, Note_on_c, 4, 67, 0
6, 24273, Control_c, 4, 11, 94
6, 24280, Note_on_c, 4, 71, 0
6, 24280, Note_on_c, 4, 67, 0
6, 24280, Note_on_c, 4, 64, 0
6, 24295, Note_on_c, 4, 71, 50
6, 24295, Note_on_c, 4, 67, 50
6, 24295, Note_on_c, 4, 64, 50
6, 24322, Note_on_c, 4, 64, 0
6, 24322, Note_on_c, 4, 67, 0
6, 24322, Note_on_c, 4, 71, 0
6, 24323, Control_c, 4, 11, 95
6, 24330, Note_on_c, 4, 64, 100
6, 24330, Note_on_c, 4, 67, 100
6, 24330, Note_on_c, 4, 71, 100
6, 24357, Note_on_c, 4, 71, 0
6, 24357, Note_on_c, 4, 67, 0
6, 24357, Note_on_c, 4, 64, 0
6, 24373, Control_c, 4, 11, 96
6, 24385, Note_on_c, 4, 64, 50
6, 24385, Note_on_c, 4, 67, 50
6, 24385, Note_on_c, 4, 71, 50
6, 24412, Note_on_c, 4, 71, 0
6, 24412, Note_on_c, 4, 67, 0
6, 24412, Note_on_c, 4, 64, 0
6, 24420, Note_on_c, 4, 72, 100
6, 24420, Note_on_c, 4, 76, 100
6, 24420, Note_on_c, 4, 67, 100
6, 24423, Control_c, 4, 11, 97
6, 24465, Note_on_c, 4, 67, 0
6, 24465, Note_on_c, 4, 76, 0
6, 24465, Note_on_c, 4, 72, 0
6, 24473, Control_c, 4, 11, 98
6, 24475, Note_on_c, 4, 72, 50
6, 24475, Note_on_c, 4, 76, 50
6, 24475, Note_on_c, 4, 67, 50
6, 24480, Note_on_c, 4, 76, 100
6, 24480, Note_on_c, 4, 72, 100
6, 24480, Note_on_c, 4, 67, 100
6, 24507, Note_on_c, 4, 67, 0
6, 24507, Note_on_c, 4, 72, 0
6, 24507, Note_on_c, 4, 76, 0
6, 24520, Note_on_c, 4, 76, 0
6, 24520, Note_on_c, 4, 72, 0
6, 24520, Note_on_c, 4, 67, 0
6, 24523, Control_c, 4, 11, 99
6, 24535, Note_on_c, 4, 76, 50
6, 24535, Note_on_c, 4, 72, 50
6, 24535, Note_on_c, 4, 67, 50
6, 24562, Note_on_c, 4, 67, 0
6, 24562, Note_on_c, 4, 72, 0
6, 24562, Note_on_c, 4, 76, 0
6, 24570, Note_on_c, 4, 76, 100
6, 24570, Note_on_c, 4, 67, 100
6, 24570, Note_on_c, 4, 72, 100
6, 24572, Control_c, 4, 11, 100
6, 24597, Note_on_c, 4, 72, 0
6, 24597, Note_on_c, 4, 67, 0
6, 24597, Note_on_c, 4, 76, 0
6, 24622, Control_c, 4, 11, 101
6, 24625, Note_on_c, 4, 76, 50
6, 24625, Note_on_c, 4, 67, 50
6, 24625, Note_on_c, 4, 72, 50
6, 24652, Note_on_c, 4, 72, 0
6, 24652, Note_on_c, 4, 67, 0
6, 24652, Note_on_c, 4, 76, 0
6, 24660, Note_on_c, 4, 67, 100
6, 24660, Note_on_c, 4, 71, 100
6, 24660, Note_on_c, 4, 74, 100
6, 24672, Control_c, 4, 11, 102
6, 24705, Note_on_c, 4, 74, 0
6, 24705, Note_on_c, 4, 71, 0
6, 24705, Note_on_c, 4, 67, 0
6, 24715, Note_on_c, 4, 67, 50
6, 24715, Note_on_c, 4, 71, 50
6, 24715, Note_on_c, 4, 74, 50
6, 24720, Note_on_c, 4, 74, 100
6, 24720, Note_on_c, 4, 71, 100
6, 24720, Note_on_c, 4, 67, 100
6, 24722, Control_c, 4, 11, 103
6, 24747, Note_on_c, 4, 74, 0
6, 24747, Note_on_c, 4, 67, 0
6, 24747, Note_on_c, 4, 71, 0
6, 24760, Note_on_c, 4, 74, 0
6, 24760, Note_on_c, 4, 71, 0
6, 24760, Note_on_c, 4, 67, 0
6, 24772, Control_c, 4, 11, 104
6, 24775, Note_on_c, 4, 74, 50
6, 24775, Note_on_c, 4, 71, 50
6, 24775, Note_on_c, 4, 67, 50
6, 24802, Note_on_c, 4, 67, 0
6, 24802, Note_on_c, 4, 71, 0
6, 24802, Note_on_c, 4, 74, 0
6, 24810, Note_on_c, 4, 71, 100
6, 24810, Note_on_c, 4, 74, 100
6, 24810, Note_on_c, 4, 67, 100
6, 24822, Control_c, 4, 11, 105
6, 24837, Note_on_c, 4, 67, 0
6, 24837, Note_on_c, 4, 74, 0
6, 24837, Note_on_c, 4, 71, 0
6, 24865, Note_on_c, 4, 71, 50
6, 24865, Note_on_c, 4, 74, 50
6, 24865, Note_on_c, 4, 67, 50
6, 24872, Control_c, 4, 11, 106
6, 24892, Note_on_c, 4, 67, 0
6, 24892, Note_on_c, 4, 74, 0
6, 24892, Note_on_c, 4, 71, 0
6, 24900, Note_on_c, 4, 62, 100
6, 24900, Note_on_c, 4, 66, 100
6, 24900, Note_on_c, 4, 69, 100
6, 24921, Control_c, 4, 11, 107
6, 24945, Note_on_c, 4, 69, 0
6, 24945, Note_on_c, 4, 66, 0
6, 24945, Note_on_c, 4, 62, 0
6, 24955, Note_on_c, 4, 62, 50
6, 24955, Note_on_c, 4, 66, 50
6, 24955, Note_on_c, 4, 69, 50
6, 24960, Note_on_c, 4, 64, 100
6, 24960, Note_on_c, 4, 67, 100
6, 24960, Note_on_c, 4, 71, 100
6, 24971, Control_c, 4, 11, 108
6, 24987, Note_on_c, 4, 71, 0
6, 24987, Note_on_c, 4, 64, 0
6, 24987, Note_on_c, 4, 67, 0
6, 25000, Note_on_c, 4, 62, 0
6, 25000, Note_on_c, 4, 69, 0
6, 25000, Note_on_c, 4, 66, 0
6, 25015, Note_on_c, 4, 64, 50
6, 25015, Note_on_c, 4, 67, 50
6, 25015, Note_on_c, 4, 71, 50
6, 25021, Control_c, 4, 11, 109
6, 25042, Note_on_c, 4, 71, 0
6, 25042, Note_on_c, 4, 67, 0
6, 25042, Note_on_c, 4, 64, 0
6, 25050, Note_on_c, 4, 71, 100
6, 25050, Note_on_c, 4, 67, 100
6, 25050, Note_on_c, 4, 64, 100
6, 25071, Control_c, 4, 11, 110
6, 25077, Note_on_c, 4, 64, 0
6, 25077, Note_on_c, 4, 67, 0
6, 25077, Note_on_c, 4, 71, 0
6, 25105, Note_on_c, 4, 71, 50
6, 25105, Note_on_c, 4, 67, 50
6, 25105, Note_on_c, 4, 64, 50
6, 25121, Control_c, 4, 11, 111
6, 25132, Note_on_c, 4, 64, 0
6, 25132, Note_on_c, 4, 67, 0
6, 25132, Note_on_c, 4, 71, 0
6, 25140, Note_on_c, 4, 64, 100
6, 25140, Note_on_c, 4, 67, 100
6, 25140, Note_on_c, 4, 71, 100
6, 25171, Control_c, 4, 11, 112
6, 25185, Note_on_c, 4, 71, 0
6, 25185, Note_on_c, 4, 67, 0
6, 25185, Note_on_c, 4, 64, 0
6, 25195, Note_on_c, 4, 64, 50
6, 25195, Note_on_c, 4, 67, 50
6, 25195, Note_on_c, 4, 71, 50
6, 25200, Note_on_c, 4, 71, 100
6, 25200, Note_on_c, 4, 67, 100
6, 25200, Note_on_c, 4, 64, 100
6, 25221, Control_c, 4, 11, 113
6, 25227, Note_on_c, 4, 71, 0
6, 25227, Note_on_c, 4, 64, 0
6, 25227, Note_on_c, 4, 67, 0
6, 25240, Note_on_c, 4, 71, 0
6, 25240, Note_on_c, 4, 67, 0
6, 25240, Note_on_c, 4, 64, 0
6, 25255, Note_on_c, 4, 71, 50
6, 25255, Note_on_c, 4, 67, 50
6, 25255, Note_on_c, 4, 64, 50
6, 25270, Control_c, 4, 11, 114
6, 25282, Note_on_c, 4, 64, 0
6, 25282, Note_on_c, 4, 67, 0
6, 25282, Note_on_c, 4, 71, 0
6, 25290, Note_on_c, 4, 67, 100
6, 25290, Note_on_c, 4, 71, 100
6, 25290, Note_on_c, 4, 64, 100
6, 25317, Note_on_c, 4, 64, 0
6, 25317, Note_on_c, 4, 71, 0
6, 25317, Note_on_c, 4, 67, 0
6, 25320, Control_c, 4, 11, 115
6, 25345, Note_on_c, 4, 67, 50
6, 25345, Note_on_c, 4, 71, 50
6, 25345, Note_on_c, 4, 64, 50
6, 25370, Control_c, 4, 11, 116
6, 25372, Note_on_c, 4, 64, 0
6, 25372, Note_on_c, 4, 71, 0
6, 25372, Note_on_c, 4, 67, 0
6, 25380, Note_on_c, 4, 69, 100
6, 25380, Note_on_c, 4, 76, 100
6, 25380, Note_on_c, 4, 72, 100
6, 25420, Control_c, 4, 11, 117
6, 25425, Note_on_c, 4, 72, 0
6, 25425, Note_on_c, 4, 76, 0
6, 25425, Note_on_c, 4, 69, 0
6, 25435, Note_on_c, 4, 69, 50
6, 25435, Note_on_c, 4, 76, 50
6, 25435, Note_on_c, 4, 72, 50
6, 25440, Note_on_c, 4, 64, 100
6, 25440, Note_on_c, 4, 67, 100
6, 25440, Note_on_c, 4, 71, 100
6, 25467, Note_on_c, 4, 71, 0
6, 25467, Note_on_c, 4, 64, 0
6, 25467, Note_on_c, 4, 67, 0
6, 25470, Control_c, 4, 11, 118
6, 25480, Note_on_c, 4, 69, 0
6, 25480, Note_on_c, 4, 72, 0
6, 25480, Note_on_c, 4, 76, 0
6, 25495, Note_on_c, 4, 64, 50
6, 25495, Note_on_c, 4, 67, 50
6, 25495, Note_on_c, 4, 71, 50
6, 25520, Control_c, 4, 11, 119
6, 25522, Note_on_c, 4, 71, 0
6, 25522, Note_on_c, 4, 67, 0
6, 25522, Note_on_c, 4, 64, 0
6, 25530, Note_on_c, 4, 67, 100
6, 25530, Note_on_c, 4, 64, 100
6, 25530, Note_on_c, 4, 71, 100
6, 25557, Note_on_c, 4, 71, 0
6, 25557, Note_on_c, 4, 64, 0
6, 25557, Note_on_c, 4, 67, 0
6, 25570, Control_c, 4, 11, 120
6, 25585, Note_on_c, 4, 67, 50
6, 25585, Note_on_c, 4, 64, 50
6, 25585, Note_on_c, 4, 71, 50
6, 25612, Note_on_c, 4, 71, 0
6, 25612, Note_on_c, 4, 64, 0
6, 25612, Note_on_c, 4, 67, 0
6, 25619, Control_c, 4, 11, 121
6, 25620, Note_on_c, 4, 64, 100
6, 25620, Note_on_c, 4, 67, 100
6, 25620, Note_on_c, 4, 71, 100
6, 25665, Note_on_c, 4, 71, 0
6, 25665, Note_on_c, 4, 67, 0
6, 25665, Note_on_c, 4, 64, 0
6, 25669, Control_c, 4, 11, 122
6, 25675, Note_on_c, 4, 64, 50
6, 25675, Note_on_c, 4, 67, 50
6, 25675, Note_on_c, 4, 71, 50
6, 25680, Note_on_c, 4, 64, 100
6, 25680, Note_on_c, 4, 67, 100
6, 25680, Note_on_c, 4, 71, 100
6, 25707, Note_on_c, 4, 71, 0
6, 25707, Note_on_c, 4, 64, 0
6, 25707, Note_on_c, 4, 67, 0
6, 25719, Control_c, 4, 11, 123
6, 25720, Note_on_c, 4, 64, 0
6, 25720, Note_on_c, 4, 67, 0
6, 25720, Note_on_c, 4, 71, 0
6, 25735, Note_on_c, 4, 64, 50
6, 25735, Note_on_c, 4, 67, 50
6, 25735, Note_on_c, 4, 71, 50
6, 25762, Note_on_c, 4, 71, 0
6, 25762, Note_on_c, 4, 67, 0
6, 25762, Note_on_c, 4, 64, 0
6, 25769, Control_c, 4, 11, 124
6, 25770, Note_on_c, 4, 64, 100
6, 25770, Note_on_c, 4, 71, 100
6, 25770, Note_on_c, 4, 67, 100
6, 25797, Note_on_c, 4, 67, 0
6, 25797, Note_on_c, 4, 71, 0
6, 25797, Note_on_c, 4, 64, 0
6, 25819, Control_c, 4, 11, 125
6, 25825, Note_on_c, 4, 64, 50
6, 25825, Note_on_c, 4, 71, 50
6, 25825, Note_on_c, 4, 67, 50
6, 25852, Note_on_c, 4, 67, 0
6, 25852, Note_on_c, 4, 71, 0
6, 25852, Note_on_c, 4, 64, 0
6, 25860, Note_on_c, 4, 69, 100
6, 25860, Note_on_c, 4, 72, 100
6, 25860, Note_on_c, 4, 76, 100
6, 25869, Control_c, 4, 11, 126
6, 25905, Note_on_c, 4, 76, 0
6, 25905, Note_on_c, 4, 72, 0
6, 25905, Note_on_c, 4, 69, 0
6, 25915, Note_on_c, 4, 69, 50
6, 25915, Note_on_c, 4, 72, 50
6, 25915, Note_on_c, 4, 76, 50
6, 25919, Control_c, 4, 11, 127
6, 25920, Note_on_c, 4, 67, 100
6, 25920, Note_on_c, 4, 71, 100
6, 25920, Note_on_c, 4, 64, 100
6, 25947, Note_on_c, 4, 64, 0
6, 25947, Note_on_c, 4, 67, 0
6, 25947, Note_on_c, 4, 71, 0
6, 25960, Note_on_c, 4, 69, 0
6, 25960, Note_on_c, 4, 76, 0
6, 25960, Note_on_c, 4, 72, 0
6, 25975, Note_on_c, 4, 67, 50
6, 25975, Note_on_c, 4, 71, 50
6, 25975, Note_on_c, 4, 64, 50
6, 26002, Note_on_c, 4, 64, 0
6, 26002, Note_on_c, 4, 71, 0
6, 26002, Note_on_c, 4, 67, 0
6, 26010, Note_on_c, 4, 67, 100
6, 26010, Note_on_c, 4, 64, 100
6, 26010, Note_on_c, 4, 71, 100
6, 26037, Note_on_c, 4, 71, 0
6, 26037, Note_on_c, 4, 64, 0
6, 26037, Note_on_c, 4, 67, 0
6, 26065, Note_on_c, 4, 67, 50
6, 26065, Note_on_c, 4, 64, 50
6, 26065, Note_on_c, 4, 71, 50
6, 26092, Note_on_c, 4, 71, 0
6, 26092, Note_on_c, 4, 64, 0
6, 26092, Note_on_c, 4, 67, 0
6, 26100, Note_on_c, 4, 64, 100
6, 26100, Note_on_c, 4, 67, 100
6, 26100, Note_on_c, 4, 71, 100
6, 26145, Note_on_c, 4, 71, 0
6, 26145, Note_on_c, 4, 67, 0
6, 26145, Note_on_c, 4, 64, 0
6, 26155, Note_on_c, 4, 64, 50
6, 26155, Note_on_c, 4, 67, 50
6, 26155, Note_on_c, 4, 71, 50
6, 26160, Note_on_c, 4, 64, 100
6, 26160, Note_on_c, 4, 67, 100
6, 26160, Note_on_c, 4, 71, 100
6, 26187, Note_on_c, 4, 71, 0
6, 26187, Note_on_c, 4, 64, 0
6, 26187, Note_on_c, 4, 67, 0
6, 26200, Note_on_c, 4, 64, 0
6, 26200, Note_on_c, 4, 67, 0
6, 26200, Note_on_c, 4, 71, 0
6, 26215, Note_on_c, 4, 64, 50
6, 26215, Note_on_c, 4, 67, 50
6, 26215, Note_on_c, 4, 71, 50
6, 26242, Note_on_c, 4, 71, 0
6, 26242, Note_on_c, 4, 67, 0
6, 26242, Note_on_c, 4, 64, 0
6, 26250, Note_on_c, 4, 71, 100
6, 26250, Note_on_c, 4, 67, 100
6, 26250, Note_on_c, 4, 64, 100
6, 26277, Note_on_c, 4, 64, 0
6, 26277, Note_on_c, 4, 67, 0
6, 26277, Note_on_c, 4, 71, 0
6, 26305, Note_on_c, 4, 71, 50
6, 26305, Note_on_c, 4, 67, 50
6, 26305, Note_on_c, 4, 64, 50
6, 26332, Note_on_c, 4, 64, 0
6, 26332, Note_on_c, 4, 67, 0
6, 26332, Note_on_c, 4, 71, 0
6, 26340, Note_on_c, 4, 76, 100
6, 26340, Note_on_c, 4, 72, 100
6, 26340, Note_on_c, 4, 67, 100
6, 26385, Note_on_c, 4, 67, 0
6, 26385, Note_on_c, 4, 72, 0
6, 26385, Note_on_c, 4, 76, 0
6, 26395, Note_on_c, 4, 76, 50
6, 26395, Note_on_c, 4, 72, 50
6, 26395, Note_on_c, 4, 67, 50
6, 26400, Note_on_c, 4, 67, 100
6, 26400, Note_on_c, 4, 76, 100
6, 26400, Note_on_c, 4, 72, 100
6, 26427, Note_on_c, 4, 67, 0
6, 26427, Note_on_c, 4, 76, 0
6, 26427, Note_on_c, 4, 72, 0
6, 26440, Note_on_c, 4, 67, 0
6, 26440, Note_on_c, 4, 76, 0
6, 26440, Note_on_c, 4, 72, 0
6, 26455, Note_on_c, 4, 67, 50
6, 26455, Note_on_c, 4, 76, 50
6, 26455, Note_on_c, 4, 72, 50
6, 26482, Note_on_c, 4, 72, 0
6, 26482, Note_on_c, 4, 76, 0
6, 26482, Note_on_c, 4, 67, 0
6, 26490, Note_on_c, 4, 76, 100
6, 26490, Note_on_c, 4, 72, 100
6, 26490, Note_on_c, 4, 67, 100
6, 26517, Note_on_c, 4, 67, 0
6, 26517, Note_on_c, 4, 72, 0
6, 26517, Note_on_c, 4, 76, 0
6, 26545, Note_on_c, 4, 76, 50
6, 26545, Note_on_c, 4, 72, 50
6, 26545, Note_on_c, 4, 67, 50
6, 26572, Note_on_c, 4, 67, 0
6, 26572, Note_on_c, 4, 72, 0
6, 26572, Note_on_c, 4, 76, 0
6, 26580, Note_on_c, 4, 74, 100
6, 26580, Note_on_c, 4, 71, 100
6, 26580, Note_on_c, 4, 67, 100
6, 26625, Note_on_c, 4, 67, 0
6, 26625, Note_on_c, 4, 71, 0
6, 26625, Note_on_c, 4, 74, 0
6, 26635, Note_on_c, 4, 74, 50
6, 26635, Note_on_c, 4, 71, 50
6, 26635, Note_on_c, 4, 67, 50
6, 26640, Note_on_c, 4, 67, 100
6, 26640, Note_on_c, 4, 71, 100
6, 26640, Note_on_c, 4, 74, 100
6, 26667, Note_on_c, 4, 67, 0
6, 26667, Note_on_c, 4, 74, 0
6, 26667, Note_on_c, 4, 71, 0
6, 26680, Note_on_c, 4, 67, 0
6, 26680, Note_on_c, 4, 71, 0
6, 26680, Note_on_c, 4, 74, 0
6, 26695, Note_on_c, 4, 67, 50
6, 26695, Note_on_c, 4, 71, 50
6, 26695, Note_on_c, 4, 74, 50
6, 26722, Note_on_c, 4, 74, 0
6, 26722, Note_on_c, 4, 71, 0
6, 26722, Note_on_c, 4, 67, 0
6, 26730, Note_on_c, 4, 67, 100
6, 26730, Note_on_c, 4, 71, 100
6, 26730, Note_on_c, 4, 74, 100
6, 26757, Note_on_c, 4, 74, 0
6, 26757, Note_on_c, 4, 71, 0
6, 26757, Note_on_c, 4, 67, 0
6, 26785, Note_on_c, 4, 67, 50
6, 26785, Note_on_c, 4, 71, 50
6, 26785, Note_on_c, 4, 74, 50
6, 26812, Note_on_c, 4, 74, 0
6, 26812, Note_on_c, 4, 71, 0
6, 26812, Note_on_c, 4, 67, 0
6, 26820, Note_on_c, 4, 69, 100
6, 26820, Note_on_c, 4, 66, 100
6, 26820, Note_on_c, 4, 62, 100
6, 26865, Note_on_c, 4, 62, 0
6, 26865, Note_on_c, 4, 66, 0
6, 26865, Note_on_c, 4, 69, 0
6, 26875, Note_on_c, 4, 69, 50
6, 26875, Note_on_c, 4, 66, 50
6, 26875, Note_on_c, 4, 62, 50
6, 26880, Note_on_c, 4, 71, 100
6, 26880, Note_on_c, 4, 67, 100
6, 26880, Note_on_c, 4, 64, 100
6, 26907, Note_on_c, 4, 64, 0
6, 26907, Note_on_c, 4, 71, 0
6, 26907, Note_on_c, 4, 67, 0
6, 26920, Note_on_c, 4, 69, 0
6, 26920, Note_on_c, 4, 62, 0
6, 26920, Note_on_c, 4, 66, 0
6, 26935, Note_on_c, 4, 71, 50
6, 26935, Note_on_c, 4, 67, 50
6, 26935, Note_on_c, 4, 64, 50
6, 26962, Note_on_c, 4, 64, 0
6, 26962, Note_on_c, 4, 67, 0
6, 26962, Note_on_c, 4, 71, 0
6, 26970, Note_on_c, 4, 67, 100
6, 26970, Note_on_c, 4, 71, 100
6, 26970, Note_on_c, 4, 64, 100
6, 26997, Note_on_c, 4, 64, 0
6, 26997, Note_on_c, 4, 71, 0
6, 26997, Note_on_c, 4, 67, 0
6, 27025, Note_on_c, 4, 67, 50
6, 27025, Note_on_c, 4, 71, 50
6, 27025, Note_on_c, 4, 64, 50
6, 27052, Note_on_c, 4, 64, 0
6, 27052, Note_on_c, 4, 71, 0
6, 27052, Note_on_c, 4, 67, 0
6, 27060, Note_on_c, 4, 64, 100
6, 27060, Note_on_c, 4, 71, 100
6, 27060, Note_on_c, 4, 67, 100
6, 27105, Note_on_c, 4, 67, 0
6, 27105, Note_on_c, 4, 71, 0
6, 27105, Note_on_c, 4, 64, 0
6, 27115, Note_on_c, 4, 64, 50
6, 27115, Note_on_c, 4, 71, 50
6, 27115, Note_on_c, 4, 67, 50
6, 27120, Note_on_c, 4, 67, 100
6, 27120, Note_on_c, 4, 64, 100
6, 27120, Note_on_c, 4, 71, 100
6, 27147, Note_on_c, 4, 67, 0
6, 27147, Note_on_c, 4, 64, 0
6, 27147, Note_on_c, 4, 71, 0
6, 27160, Note_on_c, 4, 67, 0
6, 27160, Note_on_c, 4, 64, 0
6, 27160, Note_on_c, 4, 71, 0
6, 27175, Note_on_c, 4, 67, 50
6, 27175, Note_on_c, 4, 64, 50
6, 27175, Note_on_c, 4, 71, 50
6, 27202, Note_on_c, 4, 71, 0
6, 27202, Note_on_c, 4, 64, 0
6, 27202, Note_on_c, 4, 67, 0
6, 27210, Note_on_c, 4, 71, 100
6, 27210, Note_on_c, 4, 64, 100
6, 27210, Note_on_c, 4, 67, 100
6, 27237, Note_on_c, 4, 67, 0
6, 27237, Note_on_c, 4, 64, 0
6, 27237, Note_on_c, 4, 71, 0
6, 27265, Note_on_c, 4, 71, 50
6, 27265, Note_on_c, 4, 64, 50
6, 27265, Note_on_c, 4, 67, 50
6, 27292, Note_on_c, 4, 67, 0
6, 27292, Note_on_c, 4, 64, 0
6, 27292, Note_on_c, 4, 71, 0
6, 27300, Note_on_c, 4, 72, 100
6, 27300, Note_on_c, 4, 69, 100
6, 27300, Note_on_c, 4, 76, 100
6, 27345, Note_on_c, 4, 76, 0
6, 27345, Note_on_c, 4, 69, 0
6, 27345, Note_on_c, 4, 72, 0
6, 27355, Note_on_c, 4, 72, 50
6, 27355, Note_on_c, 4, 69, 50
6, 27355, Note_on_c, 4, 76, 50
6, 27360, Note_on_c, 4, 64, 100
6, 27360, Note_on_c, 4, 67, 100
6, 27360, Note_on_c, 4, 71, 100
6, 27387, Note_on_c, 4, 71, 0
6, 27387, Note_on_c, 4, 64, 0
6, 27387, Note_on_c, 4, 67, 0
6, 27400, Note_on_c, 4, 72, 0
6, 27400, Note_on_c, 4, 76, 0
6, 27400, Note_on_c, 4, 69, 0
6, 27415, Note_on_c, 4, 64, 50
6, 27415, Note_on_c, 4, 67, 50
6, 27415, Note_on_c, 4, 71, 50
6, 27442, Note_on_c, 4, 71, 0
6, 27442, Note_on_c, 4, 67, 0
6, 27442, Note_on_c, 4, 64, 0
6, 27450, Note_on_c, 4, 67, 100
6, 27450, Note_on_c, 4, 71, 100
6, 27450, Note_on_c, 4, 64, 100
6, 27477, Note_on_c, 4, 64, 0
6, 27477, Note_on_c, 4, 71, 0
6, 27477, Note_on_c, 4, 67, 0
6, 27505, Note_on_c, 4, 67, 50
6, 27505, Note_on_c, 4, 71, 50
6, 27505, Note_on_c, 4, 64, 50
6, 27532, Note_on_c, 4, 64, 0
6, 27532, Note_on_c, 4, 71, 0
6, 27532, Note_on_c, 4, 67, 0
6, 27540, Note_on_c, 4, 67, 100
6, 27540, Note_on_c, 4, 64, 100
6, 27540, Note_on_c, 4, 71, 100
6, 27585, Note_on_c, 4, 71, 0
6, 27585, Note_on_c, 4, 64, 0
6, 27585, Note_on_c, 4, 67, 0
6, 27595, Note_on_c, 4, 67, 50
6, 27595, Note_on_c, 4, 64, 50
6, 27595, Note_on_c, 4, 71, 50
6, 27600, Note_on_c, 4, 64, 100
6, 27600, Note_on_c, 4, 71, 100
6, 27600, Note_on_c, 4, 67, 100
6, 27627, Note_on_c, 4, 71, 0
6, 27627, Note_on_c, 4, 67, 0
6, 27627, Note_on_c, 4, 64, 0
6, 27640, Note_on_c, 4, 64, 0
6, 27640, Note_on_c, 4, 71, 0
6, 27640, Note_on_c, 4, 67, 0
6, 27655, Note_on_c, 4, 64, 50
6, 27655, Note_on_c, 4, 71, 50
6, 27655, Note_on_c, 4, 67, 50
6, 27682, Note_on_c, 4, 67, 0
6, 27682, Note_on_c, 4, 71, 0
6, 27682, Note_on_c, 4, 64, 0
6, 27690, Note_on_c, 4, 67, 100
6, 27690, Note_on_c, 4, 64, 100
6, 27690, Note_on_c, 4, 71, 100
6, 27717, Note_on_c, 4, 71, 0
6, 27717, Note_on_c, 4, 64, 0
6, 27717, Note_on_c, 4, 67, 0
6, 27745, Note_on_c, 4, 67, 50
6, 27745, Note_on_c, 4, 64, 50
6, 27745, Note_on_c, 4, 71, 50
6, 27772, Note_on_c, 4, 71, 0
6, 27772, Note_on_c, 4, 64, 0
6, 27772, Note_on_c, 4, 67, 0
6, 27780, Note_on_c, 4, 76, 100
6, 27780, Note_on_c, 4, 69, 100
6, 27780, Note_on_c, 4, 72, 100
6, 27825, Note_on_c, 4, 72, 0
6, 27825, Note_on_c, 4, 69, 0
6, 27825, Note_on_c, 4, 76, 0
6, 27835, Note_on_c, 4, 76, 50
6, 27835, Note_on_c, 4, 69, 50
6, 27835, Note_on_c, 4, 72, 50
6, 27840, Note_on_c, 4, 67, 100
6, 27840, Note_on_c, 4, 71, 100
6, 27840, Note_on_c, 4, 64, 100
6, 27867, Note_on_c, 4, 64, 0
6, 27867, Note_on_c, 4, 67, 0
6, 27867, Note_on_c, 4, 71, 0
6, 27880, Note_on_c, 4, 76, 0
6, 27880, Note_on_c, 4, 72, 0
6, 27880, Note_on_c, 4, 69, 0
6, 27895, Note_on_c, 4, 67, 50
6, 27895, Note_on_c, 4, 71, 50
6, 27895, Note_on_c, 4, 64, 50
6, 27922, Note_on_c, 4, 64, 0
6, 27922, Note_on_c, 4, 71, 0
6, 27922, Note_on_c, 4, 67, 0
6, 27930, Note_on_c, 4, 67, 100
6, 27930, Note_on_c, 4, 64, 100
6, 27930, Note_on_c, 4, 71, 100
6, 27957, Note_on_c, 4, 71, 0
6, 27957, Note_on_c, 4, 64, 0
6, 27957, Note_on_c, 4, 67, 0
6, 27985, Note_on_c, 4, 67, 50
6, 27985, Note_on_c, 4, 64, 50
6, 27985, Note_on_c, 4, 71, 50
6, 28012, Note_on_c, 4, 71, 0
6, 28012, Note_on_c, 4, 64, 0
6, 28012, Note_on_c, 4, 67, 0
6, 28020, Note_on_c, 4, 64, 100
6, 28020, Note_on_c, 4, 67, 100
6, 28020, Note_on_c, 4, 71, 100
6, 28065, Note_on_c, 4, 71, 0
6, 28065, Note_on_c, 4, 67, 0
6, 28065, Note_on_c, 4, 64, 0
6, 28075, Note_on_c, 4, 64, 50
6, 28075, Note_on_c, 4, 67, 50
6, 28075, Note_on_c, 4, 71, 50
6, 28080, Note_on_c, 4, 64, 100
6, 28080, Note_on_c, 4, 67, 100
6, 28080, Note_on_c, 4, 71, 100
6, 28107, Note_on_c, 4, 71, 0
6, 28107, Note_on_c, 4, 64, 0
6, 28107, Note_on_c, 4, 67, 0
6, 28120, Note_on_c, 4, 64, 0
6, 28120, Note_on_c, 4, 67, 0
6, 28120, Note_on_c, 4, 71, 0
6, 28135, Note_on_c, 4, 64, 50
6, 28135, Note_on_c, 4, 67, 50
6, 28135, Note_on_c, 4, 71, 50
6, 28162, Note_on_c, 4, 71, 0
6, 28162, Note_on_c, 4, 67, 0
6, 28162, Note_on_c, 4, 64, 0
6, 28170, Note_on_c, 4, 71, 100
6, 28170, Note_on_c, 4, 67, 100
6, 28170, Note_on_c, 4, 64, 100
6, 28197, Note_on_c, 4, 64, 0
6, 28197, Note_on_c, 4, 67, 0
6, 28197, Note_on_c, 4, 71, 0
6, 28225, Note_on_c, 4, 71, 50
6, 28225, Note_on_c, 4, 67, 50
6, 28225, Note_on_c, 4, 64, 50
6, 28252, Note_on_c, 4, 64, 0
6, 28252, Note_on_c, 4, 67, 0
6, 28252, Note_on_c, 4, 71, 0
6, 28260, Note_on_c, 4, 76, 100
6, 28260, Note_on_c, 4, 72, 100
6, 28260, Note_on_c, 4, 67, 100
6, 28305, Note_on_c, 4, 67, 0
6, 28305, Note_on_c, 4, 72, 0
6, 28305, Note_on_c, 4, 76, 0
6, 28315, Note_on_c, 4, 76, 50
6, 28315, Note_on_c, 4, 72, 50
6, 28315, Note_on_c, 4, 67, 50
6, 28320, Note_on_c, 4, 67, 100
6, 28320, Note_on_c, 4, 76, 100
6, 28320, Note_on_c, 4, 72, 100
6, 28347, Note_on_c, 4, 67, 0
6, 28347, Note_on_c, 4, 76, 0
6, 28347, Note_on_c, 4, 72, 0
6, 28360, Note_on_c, 4, 67, 0
6, 28360, Note_on_c, 4, 76, 0
6, 28360, Note_on_c, 4, 72, 0
6, 28375, Note_on_c, 4, 67, 50
6, 28375, Note_on_c, 4, 76, 50
6, 28375, Note_on_c, 4, 72, 50
6, 28402, Note_on_c, 4, 72, 0
6, 28402, Note_on_c, 4, 76, 0
6, 28402, Note_on_c, 4, 67, 0
6, 28410, Note_on_c, 4, 76, 100
6, 28410, Note_on_c, 4, 72, 100
6, 28410, Note_on_c, 4, 67, 100
6, 28437, Note_on_c, 4, 67, 0
6, 28437, Note_on_c, 4, 72, 0
6, 28437, Note_on_c, 4, 76, 0
6, 28465, Note_on_c, 4, 76, 50
6, 28465, Note_on_c, 4, 72, 50
6, 28465, Note_on_c, 4, 67, 50
6, 28492, Note_on_c, 4, 67, 0
6, 28492, Note_on_c, 4, 72, 0
6, 28492, Note_on_c, 4, 76, 0
6, 28500, Note_on_c, 4, 74, 100
6, 28500, Note_on_c, 4, 71, 100
6, 28500, Note_on_c, 4, 67, 100
6, 28545, Note_on_c, 4, 67, 0
6, 28545, Note_on_c, 4, 71, 0
6, 28545, Note_on_c, 4, 74, 0
6, 28555, Note_on_c, 4, 74, 50
6, 28555, Note_on_c, 4, 71, 50
6, 28555, Note_on_c, 4, 67, 50
6, 28560, Note_on_c, 4, 67, 100
6, 28560, Note_on_c, 4, 71, 100
6, 28560, Note_on_c, 4, 74, 100
6, 28587, Note_on_c, 4, 67, 0
6, 28587, Note_on_c, 4, 74, 0
6, 28587, Note_on_c, 4, 71, 0
6, 28600, Note_on_c, 4, 67, 0
6, 28600, Note_on_c, 4, 71, 0
6, 28600, Note_on_c, 4, 74, 0
6, 28615, Note_on_c, 4, 67, 50
6, 28615, Note_on_c, 4, 71, 50
6, 28615, Note_on_c, 4, 74, 50
6, 28642, Note_on_c, 4, 74, 0
6, 28642, Note_on_c, 4, 71, 0
6, 28642, Note_on_c, 4, 67, 0
6, 28650, Note_on_c, 4, 67, 100
6, 28650, Note_on_c, 4, 71, 100
6, 28650, Note_on_c, 4, 74, 100
6, 28677, Note_on_c, 4, 74, 0
6, 28677, Note_on_c, 4, 71, 0
6, 28677, Note_on_c, 4, 67, 0
6, 28705, Note_on_c, 4, 67, 50
6, 28705, Note_on_c, 4, 71, 50
6, 28705, Note_on_c, 4, 74, 50
6, 28732, Note_on_c, 4, 74, 0
6, 28732, Note_on_c, 4, 71, 0
6, 28732, Note_on_c, 4, 67, 0
6, 28740, Note_on_c, 4, 69, 100
6, 28740, Note_on_c, 4, 66, 100
6, 28740, Note_on_c, 4, 62, 100
6, 28785, Note_on_c, 4, 62, 0
6, 28785, Note_on_c, 4, 66, 0
6, 28785, Note_on_c, 4, 69, 0
6, 28795, Note_on_c, 4, 69, 50
6, 28795, Note_on_c, 4, 66, 50
6, 28795, Note_on_c, 4, 62, 50
6, 28800, Note_on_c, 4, 71, 100
6, 28800, Note_on_c, 4, 67, 100
6, 28800, Note_on_c, 4, 64, 100
6, 28827, Note_on_c, 4, 64, 0
6, 28827, Note_on_c, 4, 71, 0
6, 28827, Note_on_c, 4, 67, 0
6, 28840, Note_on_c, 4, 69, 0
6, 28840, Note_on_c, 4, 62, 0
6, 28840, Note_on_c, 4, 66, 0
6, 28855, Note_on_c, 4, 71, 50
6, 28855, Note_on_c, 4, 67, 50
6, 28855, Note_on_c, 4, 64, 50
6, 28882, Note_on_c, 4, 64, 0
6, 28882, Note_on_c, 4, 67, 0
6, 28882, Note_on_c, 4, 71, 0
6, 28890, Note_on_c, 4, 67, 100
6, 28890, Note_on_c, 4, 71, 100
6, 28890, Note_on_c, 4, 64, 100
6, 28917, Note_on_c, 4, 64, 0
6, 28917, Note_on_c, 4, 71, 0
6, 28917, Note_on_c, 4, 67, 0
6, 28945, Note_on_c, 4, 67, 50
6, 28945, Note_on_c, 4, 71, 50
6, 28945, Note_on_c, 4, 64, 50
6, 28972, Note_on_c, 4, 64, 0
6, 28972, Note_on_c, 4, 71, 0
6, 28972, Note_on_c, 4, 67, 0
6, 28980, Note_on_c, 4, 64, 100
6, 28980, Note_on_c, 4, 71, 100
6, 28980, Note_on_c, 4, 67, 100
6, 29025, Note_on_c, 4, 67, 0
6, 29025, Note_on_c, 4, 71, 0
6, 29025, Note_on_c, 4, 64, 0
6, 29035, Note_on_c, 4, 64, 50
6, 29035, Note_on_c, 4, 71, 50
6, 29035, Note_on_c, 4, 67, 50
6, 29040, Note_on_c, 4, 67, 100
6, 29040, Note_on_c, 4, 64, 100
6, 29040, Note_on_c, 4, 71, 100
6, 29067, Note_on_c, 4, 67, 0
6, 29067, Note_on_c, 4, 64, 0
6, 29067, Note_on_c, 4, 71, 0
6, 29080, Note_on_c, 4, 67, 0
6, 29080, Note_on_c, 4, 64, 0
6, 29080, Note_on_c, 4, 71, 0
6, 29095, Note_on_c, 4, 67, 50
6, 29095, Note_on_c, 4, 64, 50
6, 29095, Note_on_c, 4, 71, 50
6, 29122, Note_on_c, 4, 71, 0
6, 29122, Note_on_c, 4, 64, 0
6, 29122, Note_on_c, 4, 67, 0
6, 29130, Note_on_c, 4, 71, 100
6, 29130, Note_on_c, 4, 64, 100
6, 29130, Note_on_c, 4, 67, 100
6, 29157, Note_on_c, 4, 67, 0
6, 29157, Note_on_c, 4, 64, 0
6, 29157, Note_on_c, 4, 71, 0
6, 29185, Note_on_c, 4, 71, 50
6, 29185, Note_on_c, 4, 64, 50
6, 29185, Note_on_c, 4, 67, 50
6, 29212, Note_on_c, 4, 67, 0
6, 29212, Note_on_c, 4, 64, 0
6, 29212, Note_on_c, 4, 71, 0
6, 29220, Note_on_c, 4, 72, 100
6, 29220, Note_on_c, 4, 69, 100
6, 29220, Note_on_c, 4, 76, 100
6, 29265, Note_on_c, 4, 76, 0
6, 29265, Note_on_c, 4, 69, 0
6, 29265, Note_on_c, 4, 72, 0
6, 29275, Note_on_c, 4, 72, 50
6, 29275, Note_on_c, 4, 69, 50
6, 29275, Note_on_c, 4, 76, 50
6, 29280, Note_on_c, 4, 64, 100
6, 29280, Note_on_c, 4, 67, 100
6, 29280, Note_on_c, 4, 71, 100
6, 29307, Note_on_c, 4, 71, 0
6, 29307, Note_on_c, 4, 64, 0
6, 29307, Note_on_c, 4, 67, 0
6, 29320, Note_on_c, 4, 72, 0
6, 29320, Note_on_c, 4, 76, 0
6, 29320, Note_on_c, 4, 69, 0
6, 29335, Note_on_c, 4, 64, 50
6, 29335, Note_on_c, 4, 67, 50
6, 29335, Note_on_c, 4, 71, 50
6, 29362, Note_on_c, 4, 71, 0
6, 29362, Note_on_c, 4, 67, 0
6, 29362, Note_on_c, 4, 64, 0
6, 29370, Note_on_c, 4, 67, 100
6, 29370, Note_on_c, 4, 71, 100
6, 29370, Note_on_c, 4, 64, 100
6, 29397, Note_on_c, 4, 64, 0
6, 29397, Note_on_c, 4, 71, 0
6, 29397, Note_on_c, 4, 67, 0
6, 29425, Note_on_c, 4, 67, 50
6, 29425, Note_on_c, 4, 71, 50
6, 29425, Note_on_c, 4, 64, 50
6, 29452, Note_on_c, 4, 64, 0
6, 29452, Note_on_c, 4, 71, 0
6, 29452, Note_on_c, 4, 67, 0
6, 29460, Note_on_c, 4, 67, 100
6, 29460, Note_on_c, 4, 64, 100
6, 29460, Note_on_c, 4, 71, 100
6, 29505, Note_on_c, 4, 71, 0
6, 29505, Note_on_c, 4, 64, 0
6, 29505, Note_on_c, 4, 67, 0
6, 29515, Note_on_c, 4, 67, 50
6, 29515, Note_on_c, 4, 64, 50
6, 29515, Note_on_c, 4, 71, 50
6, 29520, Note_on_c, 4, 64, 100
6, 29520, Note_on_c, 4, 71, 100
6, 29520, Note_on_c, 4, 67, 100
6, 29547, Note_on_c, 4, 71, 0
6, 29547, Note_on_c, 4, 67, 0
6, 29547, Note_on_c, 4, 64, 0
6, 29560, Note_on_c, 4, 64, 0
6, 29560, Note_on_c, 4, 71, 0
6, 29560, Note_on_c, 4, 67, 0
6, 29575, Note_on_c, 4, 64, 50
6, 29575, Note_on_c, 4, 71, 50
6, 29575, Note_on_c, 4, 67, 50
6, 29602, Note_on_c, 4, 67, 0
6, 29602, Note_on_c, 4, 71, 0
6, 29602, Note_on_c, 4, 64, 0
6, 29610, Note_on_c, 4, 67, 100
6, 29610, Note_on_c, 4, 64, 100
6, 29610, Note_on_c, 4, 71, 100
6, 29637, Note_on_c, 4, 71, 0
6, 29637, Note_on_c, 4, 64, 0
6, 29637, Note_on_c, 4, 67, 0
6, 29665, Note_on_c, 4, 67, 50
6, 29665, Note_on_c, 4, 64, 50
6, 29665, Note_on_c, 4, 71, 50
6, 29692, Note_on_c, 4, 71, 0
6, 29692, Note_on_c, 4, 64, 0
6, 29692, Note_on_c, 4, 67, 0
6, 29700, Note_on_c, 4, 76, 100
6, 29700, Note_on_c, 4, 69, 100
6, 29700, Note_on_c, 4, 72, 100
6, 29745, Note_on_c, 4, 72, 0
6, 29745, Note_on_c, 4, 69, 0
6, 29745, Note_on_c, 4, 76, 0
6, 29755, Note_on_c, 4, 76, 50
6, 29755, Note_on_c, 4, 69, 50
6, 29755, Note_on_c, 4, 72, 50
6, 29760, Note_on_c, 4, 64, 100
6, 29760, Note_on_c, 4, 67, 100
6, 29760, Note_on_c, 4, 71, 100
6, 29787, Note_on_c, 4, 71, 0
6, 29787, Note_on_c, 4, 64, 0
6, 29787, Note_on_c, 4, 67, 0
6, 29800, Note_on_c, 4, 76, 0
6, 29800, Note_on_c, 4, 72, 0
6, 29800, Note_on_c, 4, 69, 0
6, 29815, Note_on_c, 4, 64, 50
6, 29815, Note_on_c, 4, 67, 50
6, 29815, Note_on_c, 4, 71, 50
6, 29842, Note_on_c, 4, 71, 0
6, 29842, Note_on_c, 4, 67, 0
6, 29842, Note_on_c, 4, 64, 0
6, 29850, Note_on_c, 4, 71, 100
6, 29850, Note_on_c, 4, 67, 100
6, 29850, Note_on_c, 4, 64, 100
6, 29877, Note_on_c, 4, 64, 0
6, 29877, Note_on_c, 4, 67, 0
6, 29877, Note_on_c, 4, 71, 0
6, 29905, Note_on_c, 4, 71, 50
6, 29905, Note_on_c, 4, 67, 50
6, 29905, Note_on_c, 4, 64, 50
6, 29932, Note_on_c, 4, 64, 0
6, 29932, Note_on_c, 4, 67, 0
6, 29932, Note_on_c, 4, 71, 0
6, 29940, Note_on_c, 4, 64, 100
6, 29940, Note_on_c, 4, 71, 100
6, 29940, Note_on_c, 4, 67, 100
6, 29985, Note_on_c, 4, 67, 0
6, 29985, Note_on_c, 4, 71, 0
6, 29985, Note_on_c, 4, 64, 0
6, 29995, Note_on_c, 4, 64, 50
6, 29995, Note_on_c, 4, 71, 50
6, 29995, Note_on_c, 4, 67, 50
6, 30000, Note_on_c, 4, 67, 100
6, 30000, Note_on_c, 4, 71, 100
6, 30000, Note_on_c, 4, 64, 100
6, 30027, Note_on_c, 4, 67, 0
6, 30027, Note_on_c, 4, 64, 0
6, 30027, Note_on_c, 4, 71, 0
6, 30040, Note_on_c, 4, 67, 0
6, 30040, Note_on_c, 4, 71, 0
6, 30040, Note_on_c, 4, 64, 0
6, 30055, Note_on_c, 4, 67, 50
6, 30055, Note_on_c, 4, 71, 50
6, 30055, Note_on_c, 4, 64, 50
6, 30082, Note_on_c, 4, 64, 0
6, 30082, Note_on_c, 4, 71, 0
6, 30082, Note_on_c, 4, 67, 0
6, 30090, Note_on_c, 4, 67, 100
6, 30090, Note_on_c, 4, 71, 100
6, 30090, Note_on_c, 4, 64, 100
6, 30117, Note_on_c, 4, 64, 0
6, 30117, Note_on_c, 4, 71, 0
6, 30117, Note_on_c, 4, 67, 0
6, 30145, Note_on_c, 4, 67, 50
6, 30145, Note_on_c, 4, 71, 50
6, 30145, Note_on_c, 4, 64, 50
6, 30172, Note_on_c, 4, 64, 0
6, 30172, Note_on_c, 4, 71, 0
6, 30172, Note_on_c, 4, 67, 0
6, 30180, Note_on_c, 4, 64, 100
6, 30180, Note_on_c, 4, 71, 100
6, 30180, Note_on_c, 4, 67, 100
6, 30225, Note_on_c, 4, 67, 0
6, 30225, Note_on_c, 4, 71, 0
6, 30225, Note_on_c, 4, 64, 0
6, 30235, Note_on_c, 4, 64, 50
6, 30235, Note_on_c, 4, 71, 50
6, 30235, Note_on_c, 4, 67, 50
6, 30240, Note_on_c, 4, 64, 100
6, 30240, Note_on_c, 4, 71, 100
6, 30240, Note_on_c, 4, 67, 100
6, 30267, Note_on_c, 4, 67, 0
6, 30267, Note_on_c, 4, 64, 0
6, 30267, Note_on_c, 4, 71, 0
6, 30280, Note_on_c, 4, 64, 0
6, 30280, Note_on_c, 4, 71, 0
6, 30280, Note_on_c, 4, 67, 0
6, 30295, Note_on_c, 4, 64, 50
6, 30295, Note_on_c, 4, 71, 50
6, 30295, Note_on_c, 4, 67, 50
6, 30322, Note_on_c, 4, 67, 0
6, 30322, Note_on_c, 4, 71, 0
6, 30322, Note_on_c, 4, 64, 0
6, 30330, Note_on_c, 4, 67, 100
6, 30330, Note_on_c, 4, 64, 100
6, 30330, Note_on_c, 4, 71, 100
6, 30357, Note_on_c, 4, 71, 0
6, 30357, Note_on_c, 4, 64, 0
6, 30357, Note_on_c, 4, 67, 0
6, 30385, Note_on_c, 4, 67, 50
6, 30385, Note_on_c, 4, 64, 50
6, 30385, Note_on_c, 4, 71, 50
6, 30412, Note_on_c, 4, 71, 0
6, 30412, Note_on_c, 4, 64, 0
6, 30412, Note_on_c, 4, 67, 0
6, 30420, Note_on_c, 4, 71, 100
6, 30420, Note_on_c, 4, 64, 100
6, 30420, Note_on_c, 4, 67, 100
6, 30465, Note_on_c, 4, 67, 0
6, 30465, Note_on_c, 4, 64, 0
6, 30465, Note_on_c, 4, 71, 0
6, 30475, Note_on_c, 4, 71, 50
6, 30475, Note_on_c, 4, 64, 50
6, 30475, Note_on_c, 4, 67, 50
6, 30480, Note_on_c, 4, 64, 100
6, 30480, Note_on_c, 4, 71, 100
6, 30480, Note_on_c, 4, 67, 100
6, 30507, Note_on_c, 4, 67, 0
6, 30507, Note_on_c, 4, 71, 0
6, 30507, Note_on_c, 4, 64, 0
6, 30520, Note_on_c, 4, 64, 0
6, 30520, Note_on_c, 4, 71, 0
6, 30520, Note_on_c, 4, 67, 0
6, 30535, Note_on_c, 4, 64, 50
6, 30535, Note_on_c, 4, 71, 50
6, 30535, Note_on_c, 4, 67, 50
6, 30562, Note_on_c, 4, 67, 0
6, 30562, Note_on_c, 4, 71, 0
6, 30562, Note_on_c, 4, 64, 0
6, 30570, Note_on_c, 4, 67, 100
6, 30570, Note_on_c, 4, 64, 100
6, 30570, Note_on_c, 4, 71, 100
6, 30597, Note_on_c, 4, 71, 0
6, 30597, Note_on_c, 4, 64, 0
6, 30597, Note_on_c, 4, 67, 0
6, 30625, Note_on_c, 4, 67, 50
6, 30625, Note_on_c, 4, 64, 50
6, 30625, Note_on_c, 4, 71, 50
6, 30652, Note_on_c, 4, 71, 0
6, 30652, Note_on_c, 4, 64, 0
6, 30652, Note_on_c, 4, 67, 0
6, 30660, Note_on_c, 4, 67, 100
6, 30660, Note_on_c, 4, 71, 100
6, 30660, Note_on_c, 4, 64, 100
6, 30705, Note_on_c, 4, 64, 0
6, 30705, Note_on_c, 4, 71, 0
6, 30705, Note_on_c, 4, 67, 0
6, 30715, Note_on_c, 4, 67, 50
6, 30715, Note_on_c, 4, 71, 50
6, 30715, Note_on_c, 4, 64, 50
6, 30720, Note_on_c, 4, 64, 100
6, 30720, Note_on_c, 4, 71, 100
6, 30720, Note_on_c, 4, 67, 100
6, 30747, Note_on_c, 4, 64, 0
6, 30747, Note_on_c, 4, 67, 0
6, 30747, Note_on_c, 4, 71, 0
6, 30760, Note_on_c, 4, 64, 0
6, 30760, Note_on_c, 4, 71, 0
6, 30760, Note_on_c, 4, 67, 0
6, 30775, Note_on_c, 4, 64, 50
6, 30775, Note_on_c, 4, 71, 50
6, 30775, Note_on_c, 4, 67, 50
6, 30802, Note_on_c, 4, 67, 0
6, 30802, Note_on_c, 4, 71, 0
6, 30802, Note_on_c, 4, 64, 0
6, 30810, Note_on_c, 4, 64, 100
6, 30810, Note_on_c, 4, 71, 100
6, 30810, Note_on_c, 4, 67, 100
6, 30837, Note_on_c, 4, 67, 0
6, 30837, Note_on_c, 4, 71, 0
6, 30837, Note_on_c, 4, 64, 0
6, 30865, Note_on_c, 4, 64, 50
6, 30865, Note_on_c, 4, 71, 50
6, 30865, Note_on_c, 4, 67, 50
6, 30892, Note_on_c, 4, 67, 0
6, 30892, Note_on_c, 4, 71, 0
6, 30892, Note_on_c, 4, 64, 0
6, 30900, Note_on_c, 4, 71, 100
6, 30900, Note_on_c, 4, 64, 100
6, 30900, Note_on_c, 4, 67, 100
6, 30945, Note_on_c, 4, 67, 0
6, 30945, Note_on_c, 4, 64, 0
6, 30945, Note_on_c, 4, 71, 0
6, 30955, Note_on_c, 4, 71, 50
6, 30955, Note_on_c, 4, 64, 50
6, 30955, Note_on_c, 4, 67, 50
6, 30960, Note_on_c, 4, 64, 100
6, 30960, Note_on_c, 4, 67, 100
6, 30960, Note_on_c, 4, 71, 100
6, 30987, Note_on_c, 4, 67, 0
6, 30987, Note_on_c, 4, 71, 0
6, 30987, Note_on_c, 4, 64, 0
6, 31000, Note_on_c, 4, 64, 0
6, 31000, Note_on_c, 4, 67, 0
6, 31000, Note_on_c, 4, 71, 0
6, 31015, Note_on_c, 4, 64, 50
6, 31015, Note_on_c, 4, 67, 50
6, 31015, Note_on_c, 4, 71, 50
6, 31042, Note_on_c, 4, 71, 0
6, 31042, Note_on_c, 4, 67, 0
6, 31042, Note_on_c, 4, 64, 0
6, 31050, Note_on_c, 4, 64, 100
6, 31050, Note_on_c, 4, 67, 100
6, 31050, Note_on_c, 4, 71, 100
6, 31077, Note_on_c, 4, 71, 0
6, 31077, Note_on_c, 4, 67, 0
6, 31077, Note_on_c, 4, 64, 0
6, 31105, Note_on_c, 4, 64, 50
6, 31105, Note_on_c, 4, 67, 50
6, 31105, Note_on_c, 4, 71, 50
6, 31132, Note_on_c, 4, 71, 0
6, 31132, Note_on_c, 4, 67, 0
6, 31132, Note_on_c, 4, 64, 0
6, 31140, Note_on_c, 4, 71, 100
6, 31140, Note_on_c, 4, 67, 100
6, 31140, Note_on_c, 4, 64, 100
6, 31185, Note_on_c, 4, 64, 0
6, 31185, Note_on_c, 4, 67, 0
6, 31185, Note_on_c, 4, 71, 0
6, 31195, Note_on_c, 4, 71, 50
6, 31195, Note_on_c, 4, 67, 50
6, 31195, Note_on_c, 4, 64, 50
6, 31200, Note_on_c, 4, 64, 100
6, 31200, Note_on_c, 4, 67, 100
6, 31200, Note_on_c, 4, 71, 100
6, 31227, Note_on_c, 4, 64, 0
6, 31227, Note_on_c, 4, 71, 0
6, 31227, Note_on_c, 4, 67, 0
6, 31240, Note_on_c, 4, 64, 0
6, 31240, Note_on_c, 4, 67, 0
6, 31240, Note_on_c, 4, 71, 0
6, 31255, Note_on_c, 4, 64, 50
6, 31255, Note_on_c, 4, 67, 50
6, 31255, Note_on_c, 4, 71, 50
6, 31282, Note_on_c, 4, 71, 0
6, 31282, Note_on_c, 4, 67, 0
6, 31282, Note_on_c, 4, 64, 0
6, 31290, Note_on_c, 4, 71, 100
6, 31290, Note_on_c, 4, 67, 100
6, 31290, Note_on_c, 4, 64, 100
6, 31317, Note_on_c, 4, 64, 0
6, 31317, Note_on_c, 4, 67, 0
6, 31317, Note_on_c, 4, 71, 0
6, 31345, Note_on_c, 4, 71, 50
6, 31345, Note_on_c, 4, 67, 50
6, 31345, Note_on_c, 4, 64, 50
6, 31372, Note_on_c, 4, 64, 0
6, 31372, Note_on_c, 4, 67, 0
6, 31372, Note_on_c, 4, 71, 0
6, 31380, Note_on_c, 4, 64, 100
6, 31380, Note_on_c, 4, 67, 100
6, 31380, Note_on_c, 4, 71, 100
6, 31425, Note_on_c, 4, 71, 0
6, 31425, Note_on_c, 4, 67, 0
6, 31425, Note_on_c, 4, 64, 0
6, 31435, Note_on_c, 4, 64, 50
6, 31435, Note_on_c, 4, 67, 50
6, 31435, Note_on_c, 4, 71, 50
6, 31440, Note_on_c, 4, 71, 100
6, 31440, Note_on_c, 4, 67, 100
6, 31440, Note_on_c, 4, 64, 100
6, 31467, Note_on_c, 4, 71, 0
6, 31467, Note_on_c, 4, 64, 0
6, 31467, Note_on_c, 4, 67, 0
6, 31480, Note_on_c, 4, 71, 0
6, 31480, Note_on_c, 4, 67, 0
6, 31480, Note_on_c, 4, 64, 0
6, 31495, Note_on_c, 4, 71, 50
6, 31495, Note_on_c, 4, 67, 50
6, 31495, Note_on_c, 4, 64, 50
6, 31522, Note_on_c, 4, 64, 0
6, 31522, Note_on_c, 4, 67, 0
6, 31522, Note_on_c, 4, 71, 0
6, 31530, Note_on_c, 4, 71, 100
6, 31530, Note_on_c, 4, 67, 100
6, 31530, Note_on_c, 4, 64, 100
6, 31557, Note_on_c, 4, 64, 0
6, 31557, Note_on_c, 4, 67, 0
6, 31557, Note_on_c, 4, 71, 0
6, 31585, Note_on_c, 4, 71, 50
6, 31585, Note_on_c, 4, 67, 50
6, 31585, Note_on_c, 4, 64, 50
6, 31612, Note_on_c, 4, 64, 0
6, 31612, Note_on_c, 4, 67, 0
6, 31612, Note_on_c, 4, 71, 0
6, 31620, Note_on_c, 4, 67, 100
6, 31620, Note_on_c, 4, 64, 100
6, 31620, Note_on_c, 4, 71, 100
6, 31665, Note_on_c, 4, 71, 0
6, 31665, Note_on_c, 4, 64, 0
6, 31665, Note_on_c, 4, 67, 0
6, 31680, Note_on_c, 4, 64, 100
6, 31680, Note_on_c, 4, 67, 100
6, 31680, Note_on_c, 4, 71, 100
6, 31707, Note_on_c, 4, 71, 0
6, 31707, Note_on_c, 4, 67, 0
6, 31707, Note_on_c, 4, 64, 0
6, 31735, Note_on_c, 4, 64, 50
6, 31735, Note_on_c, 4, 67, 50
6, 31735, Note_on_c, 4, 71, 50
6, 31762, Note_on_c, 4, 71, 0
6, 31762, Note_on_c, 4, 67, 0
6, 31762, Note_on_c, 4, 64, 0
6, 31770, Note_on_c, 4, 71, 100
6, 31770, Note_on_c, 4, 67, 100
6, 31770, Note_on_c, 4, 64, 100
6, 31797, Note_on_c, 4, 64, 0
6, 31797, Note_on_c, 4, 67, 0
6, 31797, Note_on_c, 4, 71, 0
6, 31825, Note_on_c, 4, 71, 50
6, 31825, Note_on_c, 4, 67, 50
6, 31825, Note_on_c, 4, 64, 50
6, 31852, Note_on_c, 4, 64, 0
6, 31852, Note_on_c, 4, 67, 0
6, 31852, Note_on_c, 4, 71, 0
6, 31860, Note_on_c, 4, 64, 100
6, 31860, Note_on_c, 4, 71, 100
6, 31860, Note_on_c, 4, 67, 100
6, 31905, Note_on_c, 4, 67, 0
6, 31905, Note_on_c, 4, 71, 0
6, 31905, Note_on_c, 4, 64, 0
6, 31915, Note_on_c, 4, 64, 50
6, 31915, Note_on_c, 4, 71, 50
6, 31915, Note_on_c, 4, 67, 50
6, 31920, Note_on_c, 4, 67, 100
6, 31920, Note_on_c, 4, 71, 100
6, 31920, Note_on_c, 4, 64, 100
6, 31947, Note_on_c, 4, 67, 0
6, 31947, Note_on_c, 4, 64, 0
6, 31947, Note_on_c, 4, 71, 0
6, 31960, Note_on_c, 4, 67, 0
6, 31960, Note_on_c, 4, 71, 0
6, 31960, Note_on_c, 4, 64, 0
6, 31975, Note_on_c, 4, 67, 50
6, 31975, Note_on_c, 4, 71, 50
6, 31975, Note_on_c, 4, 64, 50
6, 32002, Note_on_c, 4, 64, 0
6, 32002, Note_on_c, 4, 71, 0
6, 32002, Note_on_c, 4, 67, 0
6, 32010, Note_on_c, 4, 67, 100
6, 32010, Note_on_c, 4, 71, 100
6, 32010, Note_on_c, 4, 64, 100
6, 32037, Note_on_c, 4, 64, 0
6, 32037, Note_on_c, 4, 71, 0
6, 32037, Note_on_c, 4, 67, 0
6, 32065, Note_on_c, 4, 67, 50
6, 32065, Note_on_c, 4, 71, 50
6, 32065, Note_on_c, 4, 64, 50
6, 32092, Note_on_c, 4, 64, 0
6, 32092, Note_on_c, 4, 71, 0
6, 32092, Note_on_c, 4, 67, 0
6, 32100, Note_on_c, 4, 64, 100
6, 32100, Note_on_c, 4, 71, 100
6, 32100, Note_on_c, 4, 67, 100
6, 32145, Note_on_c, 4, 67, 0
6, 32145, Note_on_c, 4, 71, 0
6, 32145, Note_on_c, 4, 64, 0
6, 32155, Note_on_c, 4, 64, 50
6, 32155, Note_on_c, 4, 71, 50
6, 32155, Note_on_c, 4, 67, 50
6, 32160, Note_on_c, 4, 64, 100
6, 32160, Note_on_c, 4, 71, 100
6, 32160, Note_on_c, 4, 67, 100
6, 32187, Note_on_c, 4, 67, 0
6, 32187, Note_on_c, 4, 64, 0
6, 32187, Note_on_c, 4, 71, 0
6, 32200, Note_on_c, 4, 64, 0
6, 32200, Note_on_c, 4, 71, 0
6, 32200, Note_on_c, 4, 67, 0
6, 32215, Note_on_c, 4, 64, 50
6, 32215, Note_on_c, 4, 71, 50
6, 32215, Note_on_c, 4, 67, 50
6, 32242, Note_on_c, 4, 67, 0
6, 32242, Note_on_c, 4, 71, 0
6, 32242, Note_on_c, 4, 64, 0
6, 32250, Note_on_c, 4, 67, 100
6, 32250, Note_on_c, 4, 64, 100
6, 32250, Note_on_c, 4, 71, 100
6, 32277, Note_on_c, 4, 71, 0
6, 32277, Note_on_c, 4, 64, 0
6, 32277, Note_on_c, 4, 67, 0
6, 32305, Note_on_c, 4, 67, 50
6, 32305, Note_on_c, 4, 64, 50
6, 32305, Note_on_c, 4, 71, 50
6, 32332, Note_on_c, 4, 71, 0
6, 32332, Note_on_c, 4, 64, 0
6, 32332, Note_on_c, 4, 67, 0
6, 32340, Note_on_c, 4, 71, 100
6, 32340, Note_on_c, 4, 64, 100
6, 32340, Note_on_c, 4, 67, 100
6, 32385, Note_on_c, 4, 67, 0
6, 32385, Note_on_c, 4, 64, 0
6, 32385, Note_on_c, 4, 71, 0
6, 32395, Note_on_c, 4, 71, 50
6, 32395, Note_on_c, 4, 64, 50
6, 32395, Note_on_c, 4, 67, 50
6, 32400, Note_on_c, 4, 64, 100
6, 32400, Note_on_c, 4, 71, 100
6, 32400, Note_on_c, 4, 67, 100
6, 32427, Note_on_c, 4, 67, 0
6, 32427, Note_on_c, 4, 71, 0
6, 32427, Note_on_c, 4, 64, 0
6, 32440, Note_on_c, 4, 64, 0
6, 32440, Note_on_c, 4, 71, 0
6, 32440, Note_on_c, 4, 67, 0
6, 32455, Note_on_c, 4, 64, 50
6, 32455, Note_on_c, 4, 71, 50
6, 32455, Note_on_c, 4, 67, 50
6, 32482, Note_on_c, 4, 67, 0
6, 32482, Note_on_c, 4, 71, 0
6, 32482, Note_on_c, 4, 64, 0
6, 32490, Note_on_c, 4, 67, 100
6, 32490, Note_on_c, 4, 64, 100
6, 32490, Note_on_c, 4, 71, 100
6, 32517, Note_on_c, 4, 71, 0
6, 32517, Note_on_c, 4, 64, 0
6, 32517, Note_on_c, 4, 67, 0
6, 32545, Note_on_c, 4, 67, 50
6, 32545, Note_on_c, 4, 64, 50
6, 32545, Note_on_c, 4, 71, 50
6, 32572, Note_on_c, 4, 71, 0
6, 32572, Note_on_c, 4, 64, 0
6, 32572, Note_on_c, 4, 67, 0
6, 32580, Note_on_c, 4, 67, 100
6, 32580, Note_on_c, 4, 71, 100
6, 32580, Note_on_c, 4, 64, 100
6, 32625, Note_on_c, 4, 64, 0
6, 32625, Note_on_c, 4, 71, 0
6, 32625, Note_on_c, 4, 67, 0
6, 32635, Note_on_c, 4, 67, 50
6, 32635, Note_on_c, 4, 71, 50
6, 32635, Note_on_c, 4, 64, 50
6, 32640, Note_on_c, 4, 64, 100
6, 32640, Note_on_c, 4, 71, 100
6, 32640, Note_on_c, 4, 67, 100
6, 32667, Note_on_c, 4, 64, 0
6, 32667, Note_on_c, 4, 67, 0
6, 32667, Note_on_c, 4, 71, 0
6, 32680, Note_on_c, 4, 64, 0
6, 32680, Note_on_c, 4, 71, 0
6, 32680, Note_on_c, 4, 67, 0
6, 32695, Note_on_c, 4, 64, 50
6, 32695, Note_on_c, 4, 71, 50
6, 32695, Note_on_c, 4, 67, 50
6, 32722, Note_on_c, 4, 67, 0
6, 32722, Note_on_c, 4, 71, 0
6, 32722, Note_on_c, 4, 64, 0
6, 32730, Note_on_c, 4, 64, 100
6, 32730, Note_on_c, 4, 71, 100
6, 32730, Note_on_c, 4, 67, 100
6, 32757, Note_on_c, 4, 67, 0
6, 32757, Note_on_c, 4, 71, 0
6, 32757, Note_on_c, 4, 64, 0
6, 32785, Note_on_c, 4, 64, 50
6, 32785, Note_on_c, 4, 71, 50
6, 32785, Note_on_c, 4, 67, 50
6, 32812, Note_on_c, 4, 67, 0
6, 32812, Note_on_c, 4, 71, 0
6, 32812, Note_on_c, 4, 64, 0
6, 32820, Note_on_c, 4, 71, 100
6, 32820, Note_on_c, 4, 64, 100
6, 32820, Note_on_c, 4, 67, 100
6, 32865, Note_on_c, 4, 67, 0
6, 32865, Note_on_c, 4, 64, 0
6, 32865, Note_on_c, 4, 71, 0
6, 32875, Note_on_c, 4, 71, 50
6, 32875, Note_on_c, 4, 64, 50
6, 32875, Note_on_c, 4, 67, 50
6, 32880, Note_on_c, 4, 64, 100
6, 32880, Note_on_c, 4, 67, 100
6, 32880, Note_on_c, 4, 71, 100
6, 32907, Note_on_c, 4, 67, 0
6, 32907, Note_on_c, 4, 71, 0
6, 32907, Note_on_c, 4, 64, 0
6, 32920, Note_on_c, 4, 64, 0
6, 32920, Note_on_c, 4, 67, 0
6, 32920, Note_on_c, 4, 71, 0
6, 32935, Note_on_c, 4, 64, 50
6, 32935, Note_on_c, 4, 67, 50
6, 32935, Note_on_c, 4, 71, 50
6, 32962, Note_on_c, 4, 71, 0
6, 32962, Note_on_c, 4, 67, 0
6, 32962, Note_on_c, 4, 64, 0
6, 32970, Note_on_c, 4, 64, 100
6, 32970, Note_on_c, 4, 67, 100
6, 32970, Note_on_c, 4, 71, 100
6, 32997, Note_on_c, 4, 71, 0
6, 32997, Note_on_c, 4, 67, 0
6, 32997, Note_on_c, 4, 64, 0
6, 33025, Note_on_c, 4, 64, 50
6, 33025, Note_on_c, 4, 67, 50
6, 33025, Note_on_c, 4, 71, 50
6, 33052, Note_on_c, 4, 71, 0
6, 33052, Note_on_c, 4, 67, 0
6, 33052, Note_on_c, 4, 64, 0
6, 33060, Note_on_c, 4, 71, 100
6, 33060, Note_on_c, 4, 67, 100
6, 33060, Note_on_c, 4, 64, 100
6, 33105, Note_on_c, 4, 64, 0
6, 33105, Note_on_c, 4, 67, 0
6, 33105, Note_on_c, 4, 71, 0
6, 33115, Note_on_c, 4, 71, 50
6, 33115, Note_on_c, 4, 67, 50
6, 33115, Note_on_c, 4, 64, 50
6, 33120, Note_on_c, 4, 64, 100
6, 33120, Note_on_c, 4, 67, 100
6, 33120, Note_on_c, 4, 71, 100
6, 33147, Note_on_c, 4, 64, 0
6, 33147, Note_on_c, 4, 71, 0
6, 33147, Note_on_c, 4, 67, 0
6, 33160, Note_on_c, 4, 64, 0
6, 33160, Note_on_c, 4, 67, 0
6, 33160, Note_on_c, 4, 71, 0
6, 33175, Note_on_c, 4, 64, 50
6, 33175, Note_on_c, 4, 67, 50
6, 33175, Note_on_c, 4, 71, 50
6, 33202, Note_on_c, 4, 71, 0
6, 33202, Note_on_c, 4, 67, 0
6, 33202, Note_on_c, 4, 64, 0
6, 33210, Note_on_c, 4, 71, 100
6, 33210, Note_on_c, 4, 67, 100
6, 33210, Note_on_c, 4, 64, 100
6, 33237, Note_on_c, 4, 64, 0
6, 33237, Note_on_c, 4, 67, 0
6, 33237, Note_on_c, 4, 71, 0
6, 33265, Note_on_c, 4, 71, 50
6, 33265, Note_on_c, 4, 67, 50
6, 33265, Note_on_c, 4, 64, 50
6, 33292, Note_on_c, 4, 64, 0
6, 33292, Note_on_c, 4, 67, 0
6, 33292, Note_on_c, 4, 71, 0
6, 33300, Note_on_c, 4, 64, 100
6, 33300, Note_on_c, 4, 67, 100
6, 33300, Note_on_c, 4, 71, 100
6, 33345, Note_on_c, 4, 71, 0
6, 33345, Note_on_c, 4, 67, 0
6, 33345, Note_on_c, 4, 64, 0
6, 33355, Note_on_c, 4, 64, 50
6, 33355, Note_on_c, 4, 67, 50
6, 33355, Note_on_c, 4, 71, 50
6, 33360, Note_on_c, 4, 71, 100
6, 33360, Note_on_c, 4, 67, 100
6, 33360, Note_on_c, 4, 64, 100
6, 33387, Note_on_c, 4, 71, 0
6, 33387, Note_on_c, 4, 64, 0
6, 33387, Note_on_c, 4, 67, 0
6, 33400, Note_on_c, 4, 71, 0
6, 33400, Note_on_c, 4, 67, 0
6, 33400, Note_on_c, 4, 64, 0
6, 33415, Note_on_c, 4, 71, 50
6, 33415, Note_on_c, 4, 67, 50
6, 33415, Note_on_c, 4, 64, 50
6, 33442, Note_on_c, 4, 64, 0
6, 33442, Note_on_c, 4, 67, 0
6, 33442, Note_on_c, 4, 71, 0
6, 33450, Note_on_c, 4, 71, 100
6, 33450, Note_on_c, 4, 67, 100
6, 33450, Note_on_c, 4, 64, 100
6, 33477, Note_on_c, 4, 64, 0
6, 33477, Note_on_c, 4, 67, 0
6, 33477, Note_on_c, 4, 71, 0
6, 33505, Note_on_c, 4, 71, 50
6, 33505, Note_on_c, 4, 67, 50
6, 33505, Note_on_c, 4, 64, 50
6, 33532, Note_on_c, 4, 64, 0
6, 33532, Note_on_c, 4, 67, 0
6, 33532, Note_on_c, 4, 71, 0
6, 33540, Note_on_c, 4, 67, 100
6, 33540, Note_on_c, 4, 64, 100
6, 33540, Note_on_c, 4, 71, 100
6, 33585, Note_on_c, 4, 71, 0
6, 33585, Note_on_c, 4, 64, 0
6, 33585, Note_on_c, 4, 67, 0
6, 33600, Note_on_c, 4, 64, 100
6, 33600, Note_on_c, 4, 67, 100
6, 33600, Note_on_c, 4, 71, 100
6, 33627, Note_on_c, 4, 71, 0
6, 33627, Note_on_c, 4, 67, 0
6, 33627, Note_on_c, 4, 64, 0
6, 33655, Note_on_c, 4, 64, 50
6, 33655, Note_on_c, 4, 67, 50
6, 33655, Note_on_c, 4, 71, 50
6, 33682, Note_on_c, 4, 71, 0
6, 33682, Note_on_c, 4, 67, 0
6, 33682, Note_on_c, 4, 64, 0
6, 33690, Note_on_c, 4, 71, 100
6, 33690, Note_on_c, 4, 67, 100
6, 33690, Note_on_c, 4, 64, 100
6, 33717, Note_on_c, 4, 64, 0
6, 33717, Note_on_c, 4, 67, 0
6, 33717, Note_on_c, 4, 71, 0
6, 33745, Note_on_c, 4, 71, 50
6, 33745, Note_on_c, 4, 67, 50
6, 33745, Note_on_c, 4, 64, 50
6, 33772, Note_on_c, 4, 64, 0
6, 33772, Note_on_c, 4, 67, 0
6, 33772, Note_on_c, 4, 71, 0
6, 33780, Note_on_c, 4, 64, 100
6, 33780, Note_on_c, 4, 71, 100
6, 33780, Note_on_c, 4, 67, 100
6, 33825, Note_on_c, 4, 67, 0
6, 33825, Note_on_c, 4, 71, 0
6, 33825, Note_on_c, 4, 64, 0
6, 33835, Note_on_c, 4, 64, 50
6, 33835, Note_on_c, 4, 71, 50
6, 33835, Note_on_c, 4, 67, 50
6, 33840, Note_on_c, 4, 67, 100
6, 33840, Note_on_c, 4, 71, 100
6, 33840, Note_on_c, 4, 64, 100
6, 33867, Note_on_c, 4, 67, 0
6, 33867, Note_on_c, 4, 64, 0
6, 33867, Note_on_c, 4, 71, 0
6, 33880, Note_on_c, 4, 67, 0
6, 33880, Note_on_c, 4, 71, 0
6, 33880, Note_on_c, 4, 64, 0
6, 33895, Note_on_c, 4, 67, 50
6, 33895, Note_on_c, 4, 71, 50
6, 33895, Note_on_c, 4, 64, 50
6, 33922, Note_on_c, 4, 64, 0
6, 33922, Note_on_c, 4, 71, 0
6, 33922, Note_on_c, 4, 67, 0
6, 33930, Note_on_c, 4, 67, 100
6, 33930, Note_on_c, 4, 71, 100
6, 33930, Note_on_c, 4, 64, 100
6, 33957, Note_on_c, 4, 64, 0
6, 33957, Note_on_c, 4, 71, 0
6, 33957, Note_on_c, 4, 67, 0
6, 33985, Note_on_c, 4, 67, 50
6, 33985, Note_on_c, 4, 71, 50
6, 33985, Note_on_c, 4, 64, 50
6, 34012, Note_on_c, 4, 64, 0
6, 34012, Note_on_c, 4, 71, 0
6, 34012, Note_on_c, 4, 67, 0
6, 34020, Note_on_c, 4, 64, 100
6, 34020, Note_on_c, 4, 71, 100
6, 34020, Note_on_c, 4, 67, 100
6, 34065, Note_on_c, 4, 67, 0
6, 34065, Note_on_c, 4, 71, 0
6, 34065, Note_on_c, 4, 64, 0
6, 34075, Note_on_c, 4, 64, 50
6, 34075, Note_on_c, 4, 71, 50
6, 34075, Note_on_c, 4, 67, 50
6, 34080, Note_on_c, 4, 64, 100
6, 34080, Note_on_c, 4, 71, 100
6, 34080, Note_on_c, 4, 67, 100
6, 34107, Note_on_c, 4, 67, 0
6, 34107, Note_on_c, 4, 64, 0
6, 34107, Note_on_c, 4, 71, 0
6, 34120, Note_on_c, 4, 64, 0
6, 34120, Note_on_c, 4, 71, 0
6, 34120, Note_on_c, 4, 67, 0
6, 34135, Note_on_c, 4, 64, 50
6, 34135, Note_on_c, 4, 71, 50
6, 34135, Note_on_c, 4, 67, 50
6, 34162, Note_on_c, 4, 67, 0
6, 34162, Note_on_c, 4, 71, 0
6, 34162, Note_on_c, 4, 64, 0
6, 34170, Note_on_c, 4, 67, 100
6, 34170, Note_on_c, 4, 64, 100
6, 34170, Note_on_c, 4, 71, 100
6, 34197, Note_on_c, 4, 71, 0
6, 34197, Note_on_c, 4, 64, 0
6, 34197, Note_on_c, 4, 67, 0
6, 34225, Note_on_c, 4, 67, 50
6, 34225, Note_on_c, 4, 64, 50
6, 34225, Note_on_c, 4, 71, 50
6, 34252, Note_on_c, 4, 71, 0
6, 34252, Note_on_c, 4, 64, 0
6, 34252, Note_on_c, 4, 67, 0
6, 34260, Note_on_c, 4, 71, 100
6, 34260, Note_on_c, 4, 64, 100
6, 34260, Note_on_c, 4, 67, 100
6, 34305, Note_on_c, 4, 67, 0
6, 34305, Note_on_c, 4, 64, 0
6, 34305, Note_on_c, 4, 71, 0
6, 34315, Note_on_c, 4, 71, 50
6, 34315, Note_on_c, 4, 64, 50
6, 34315, Note_on_c, 4, 67, 50
6, 34320, Note_on_c, 4, 64, 100
6, 34320, Note_on_c, 4, 71, 100
6, 34320, Note_on_c, 4, 67, 100
6, 34347, Note_on_c, 4, 67, 0
6, 34347, Note_on_c, 4, 71, 0
6, 34347, Note_on_c, 4, 64, 0
6, 34360, Note_on_c, 4, 64, 0
6, 34360, Note_on_c, 4, 71, 0
6, 34360, Note_on_c, 4, 67, 0
6, 34375, Note_on_c, 4, 64, 50
6, 34375, Note_on_c, 4, 71, 50
6, 34375, Note_on_c, 4, 67, 50
6, 34402, Note_on_c, 4, 67, 0
6, 34402, Note_on_c, 4, 71, 0
6, 34402, Note_on_c, 4, 64, 0
6, 34410, Note_on_c, 4, 67, 100
6, 34410, Note_on_c, 4, 64, 100
6, 34410, Note_on_c, 4, 71, 100
6, 34437, Note_on_c, 4, 71, 0
6, 34437, Note_on_c, 4, 64, 0
6, 34437, Note_on_c, 4, 67, 0
6, 34465, Note_on_c, 4, 67, 50
6, 34465, Note_on_c, 4, 64, 50
6, 34465, Note_on_c, 4, 71, 50
6, 34492, Note_on_c, 4, 71, 0
6, 34492, Note_on_c, 4, 64, 0
6, 34492, Note_on_c, 4, 67, 0
6, 34500, Note_on_c, 4, 67, 100
6, 34500, Note_on_c, 4, 71, 100
6, 34500, Note_on_c, 4, 64, 100
6, 34545, Note_on_c, 4, 64, 0
6, 34545, Note_on_c, 4, 71, 0
6, 34545, Note_on_c, 4, 67, 0
6, 34555, Note_on_c, 4, 67, 50
6, 34555, Note_on_c, 4, 71, 50
6, 34555, Note_on_c, 4, 64, 50
6, 34560, Note_on_c, 4, 64, 100
6, 34560, Note_on_c, 4, 71, 100
6, 34560, Note_on_c, 4, 67, 100
6, 34587, Note_on_c, 4, 64, 0
6, 34587, Note_on_c, 4, 67, 0
6, 34587, Note_on_c, 4, 71, 0
6, 34600, Note_on_c, 4, 64, 0
6, 34600, Note_on_c, 4, 71, 0
6, 34600, Note_on_c, 4, 67, 0
6, 34615, Note_on_c, 4, 64, 50
6, 34615, Note_on_c, 4, 71, 50
6, 34615, Note_on_c, 4, 67, 50
6, 34642, Note_on_c, 4, 67, 0
6, 34642, Note_on_c, 4, 71, 0
6, 34642, Note_on_c, 4, 64, 0
6, 34650, Note_on_c, 4, 64, 100
6, 34650, Note_on_c, 4, 71, 100
6, 34650, Note_on_c, 4, 67, 100
6, 34677, Note_on_c, 4, 67, 0
6, 34677, Note_on_c, 4, 71, 0
6, 34677, Note_on_c, 4, 64, 0
6, 34705, Note_on_c, 4, 64, 50
6, 34705, Note_on_c, 4, 71, 50
6, 34705, Note_on_c, 4, 67, 50
6, 34732, Note_on_c, 4, 67, 0
6, 34732, Note_on_c, 4, 71, 0
6, 34732, Note_on_c, 4, 64, 0
6, 34740, Note_on_c, 4, 71, 100
6, 34740, Note_on_c, 4, 64, 100
6, 34740, Note_on_c, 4, 67, 100
6, 34785, Note_on_c, 4, 67, 0
6, 34785, Note_on_c, 4, 64, 0
6, 34785, Note_on_c, 4, 71, 0
6, 34795, Note_on_c, 4, 71, 50
6, 34795, Note_on_c, 4, 64, 50
6, 34795, Note_on_c, 4, 67, 50
6, 34800, Note_on_c, 4, 64, 100
6, 34800, Note_on_c, 4, 67, 100
6, 34800, Note_on_c, 4, 71, 100
6, 34827, Note_on_c, 4, 67, 0
6, 34827, Note_on_c, 4, 71, 0
6, 34827, Note_on_c, 4, 64, 0
6, 34840, Note_on_c, 4, 64, 0
6, 34840, Note_on_c, 4, 67, 0
6, 34840, Note_on_c, 4, 71, 0
6, 34855, Note_on_c, 4, 64, 50
6, 34855, Note_on_c, 4, 67, 50
6, 34855, Note_on_c, 4, 71, 50
6, 34882, Note_on_c, 4, 71, 0
6, 34882, Note_on_c, 4, 67, 0
6, 34882, Note_on_c, 4, 64, 0
6, 34890, Note_on_c, 4, 64, 100
6, 34890, Note_on_c, 4, 67, 100
6, 34890, Note_on_c, 4, 71, 100
6, 34917, Note_on_c, 4, 71, 0
6, 34917, Note_on_c, 4, 67, 0
6, 34917, Note_on_c, 4, 64, 0
6, 34945, Note_on_c, 4, 64, 50
6, 34945, Note_on_c, 4, 67, 50
6, 34945, Note_on_c, 4, 71, 50
6, 34972, Note_on_c, 4, 71, 0
6, 34972, Note_on_c, 4, 67, 0
6, 34972, Note_on_c, 4, 64, 0
6, 34980, Note_on_c, 4, 71, 100
6, 34980, Note_on_c, 4, 67, 100
6, 34980, Note_on_c, 4, 64, 100
6, 35025, Note_on_c, 4, 64, 0
6, 35025, Note_on_c, 4, 67, 0
6, 35025, Note_on_c, 4, 71, 0
6, 35035, Note_on_c, 4, 71, 50
6, 35035, Note_on_c, 4, 67, 50
6, 35035, Note_on_c, 4, 64, 50
6, 35040, Note_on_c, 4, 64, 100
6, 35040, Note_on_c, 4, 67, 100
6, 35040, Note_on_c, 4, 71, 100
6, 35067, Note_on_c, 4, 64, 0
6, 35067, Note_on_c, 4, 71, 0
6, 35067, Note_on_c, 4, 67, 0
6, 35080, Note_on_c, 4, 64, 0
6, 35080, Note_on_c, 4, 67, 0
6, 35080, Note_on_c, 4, 71, 0
6, 35095, Note_on_c, 4, 64, 50
6, 35095, Note_on_c, 4, 67, 50
6, 35095, Note_on_c, 4, 71, 50
6, 35122, Note_on_c, 4, 71, 0
6, 35122, Note_on_c, 4, 67, 0
6, 35122, Note_on_c, 4, 64, 0
6, 35130, Note_on_c, 4, 71, 100
6, 35130, Note_on_c, 4, 67, 100
6, 35130, Note_on_c, 4, 64, 100
6, 35157, Note_on_c, 4, 64, 0
6, 35157, Note_on_c, 4, 67, 0
6, 35157, Note_on_c, 4, 71, 0
6, 35185, Note_on_c, 4, 71, 50
6, 35185, Note_on_c, 4, 67, 50
6, 35185, Note_on_c, 4, 64, 50
6, 35212, Note_on_c, 4, 64, 0
6, 35212, Note_on_c, 4, 67, 0
6, 35212, Note_on_c, 4, 71, 0
6, 35220, Note_on_c, 4, 64, 100
6, 35220, Note_on_c, 4, 67, 100
6, 35220, Note_on_c, 4, 71, 100
6, 35265, Note_on_c, 4, 71, 0
6, 35265, Note_on_c, 4, 67, 0
6, 35265, Note_on_c, 4, 64, 0
6, 35275, Note_on_c, 4, 64, 50
6, 35275, Note_on_c, 4, 67, 50
6, 35275, Note_on_c, 4, 71, 50
6, 35280, Note_on_c, 4, 71, 100
6, 35280, Note_on_c, 4, 67, 100
6, 35280, Note_on_c, 4, 64, 100
6, 35307, Note_on_c, 4, 71, 0
6, 35307, Note_on_c, 4, 64, 0
6, 35307, Note_on_c, 4, 67, 0
6, 35320, Note_on_c, 4, 71, 0
6, 35320, Note_on_c, 4, 67, 0
6, 35320, Note_on_c, 4, 64, 0
6, 35335, Note_on_c, 4, 71, 50
6, 35335, Note_on_c, 4, 67, 50
6, 35335, Note_on_c, 4, 64, 50
6, 35362, Note_on_c, 4, 64, 0
6, 35362, Note_on_c, 4, 67, 0
6, 35362, Note_on_c, 4, 71, 0
6, 35370, Note_on_c, 4, 71, 100
6, 35370, Note_on_c, 4, 67, 100
6, 35370, Note_on_c, 4, 64, 100
6, 35397, Note_on_c, 4, 64, 0
6, 35397, Note_on_c, 4, 67, 0
6, 35397, Note_on_c, 4, 71, 0
6, 35425, Note_on_c, 4, 71, 50
6, 35425, Note_on_c, 4, 67, 50
6, 35425, Note_on_c, 4, 64, 50
6, 35452, Note_on_c, 4, 64, 0
6, 35452, Note_on_c, 4, 67, 0
6, 35452, Note_on_c, 4, 71, 0
6, 35460, Note_on_c, 4, 67, 100
6, 35460, Note_on_c, 4, 64, 100
6, 35460, Note_on_c, 4, 71, 100
6, 35505, Note_on_c, 4, 71, 0
6, 35505, Note_on_c, 4, 64, 0
6, 35505, Note_on_c, 4, 67, 0
6, 35520, Note_on_c, 4, 64, 100
6, 35520, Note_on_c, 4, 67, 100
6, 35520, Note_on_c, 4, 71, 100
6, 35547, Note_on_c, 4, 71, 0
6, 35547, Note_on_c, 4, 67, 0
6, 35547, Note_on_c, 4, 64, 0
6, 35575, Note_on_c, 4, 64, 50
6, 35575, Note_on_c, 4, 67, 50
6, 35575, Note_on_c, 4, 71, 50
6, 35602, Note_on_c, 4, 71, 0
6, 35602, Note_on_c, 4, 67, 0
6, 35602, Note_on_c, 4, 64, 0
6, 35610, Note_on_c, 4, 71, 100
6, 35610, Note_on_c, 4, 67, 100
6, 35610, Note_on_c, 4, 64, 100
6, 35637, Note_on_c, 4, 64, 0
6, 35637, Note_on_c, 4, 67, 0
6, 35637, Note_on_c, 4, 71, 0
6, 35665, Note_on_c, 4, 71, 50
6, 35665, Note_on_c, 4, 67, 50
6, 35665, Note_on_c, 4, 64, 50
6, 35692, Note_on_c, 4, 64, 0
6, 35692, Note_on_c, 4, 67, 0
6, 35692, Note_on_c, 4, 71, 0
6, 35700, Note_on_c, 4, 64, 100
6, 35700, Note_on_c, 4, 71, 100
6, 35700, Note_on_c, 4, 67, 100
6, 35745, Note_on_c, 4, 67, 0
6, 35745, Note_on_c, 4, 71, 0
6, 35745, Note_on_c, 4, 64, 0
6, 35755, Note_on_c, 4, 64, 50
6, 35755, Note_on_c, 4, 71, 50
6, 35755, Note_on_c, 4, 67, 50
6, 35760, Note_on_c, 4, 67, 100
6, 35760, Note_on_c, 4, 71, 100
6, 35760, Note_on_c, 4, 64, 100
6, 35787, Note_on_c, 4, 67, 0
6, 35787, Note_on_c, 4, 64, 0
6, 35787, Note_on_c, 4, 71, 0
6, 35800, Note_on_c, 4, 67, 0
6, 35800, Note_on_c, 4, 71, 0
6, 35800, Note_on_c, 4, 64, 0
6, 35815, Note_on_c, 4, 67, 50
6, 35815, Note_on_c, 4, 71, 50
6, 35815, Note_on_c, 4, 64, 50
6, 35842, Note_on_c, 4, 64, 0
6, 35842, Note_on_c, 4, 71, 0
6, 35842, Note_on_c, 4, 67, 0
6, 35850, Note_on_c, 4, 67, 100
6, 35850, Note_on_c, 4, 71, 100
6, 35850, Note_on_c, 4, 64, 100
6, 35877, Note_on_c, 4, 64, 0
6, 35877, Note_on_c, 4, 71, 0
6, 35877, Note_on_c, 4, 67, 0
6, 35905, Note_on_c, 4, 67, 50
6, 35905, Note_on_c, 4, 71, 50
6, 35905, Note_on_c, 4, 64, 50
6, 35932, Note_on_c, 4, 64, 0
6, 35932, Note_on_c, 4, 71, 0
6, 35932, Note_on_c, 4, 67, 0
6, 35940, Note_on_c, 4, 64, 100
6, 35940, Note_on_c, 4, 71, 100
6, 35940, Note_on_c, 4, 67, 100
6, 35985, Note_on_c, 4, 67, 0
6, 35985, Note_on_c, 4, 71, 0
6, 35985, Note_on_c, 4, 64, 0
6, 35995, Note_on_c, 4, 64, 50
6, 35995, Note_on_c, 4, 71, 50
6, 35995, Note_on_c, 4, 67, 50
6, 36000, Note_on_c, 4, 64, 100
6, 36000, Note_on_c, 4, 71, 100
6, 36000, Note_on_c, 4, 67, 100
6, 36027, Note_on_c, 4, 67, 0
6, 36027, Note_on_c, 4, 64, 0
6, 36027, Note_on_c, 4, 71, 0
6, 36040, Note_on_c, 4, 64, 0
6, 36040, Note_on_c, 4, 71, 0
6, 36040, Note_on_c, 4, 67, 0
6, 36055, Note_on_c, 4, 64, 50
6, 36055, Note_on_c, 4, 71, 50
6, 36055, Note_on_c, 4, 67, 50
6, 36082, Note_on_c, 4, 67, 0
6, 36082, Note_on_c, 4, 71, 0
6, 36082, Note_on_c, 4, 64, 0
6, 36090, Note_on_c, 4, 67, 100
6, 36090, Note_on_c, 4, 64, 100
6, 36090, Note_on_c, 4, 71, 100
6, 36117, Note_on_c, 4, 71, 0
6, 36117, Note_on_c, 4, 64, 0
6, 36117, Note_on_c, 4, 67, 0
6, 36145, Note_on_c, 4, 67, 50
6, 36145, Note_on_c, 4, 64, 50
6, 36145, Note_on_c, 4, 71, 50
6, 36172, Note_on_c, 4, 71, 0
6, 36172, Note_on_c, 4, 64, 0
6, 36172, Note_on_c, 4, 67, 0
6, 36180, Note_on_c, 4, 71, 100
6, 36180, Note_on_c, 4, 64, 100
6, 36180, Note_on_c, 4, 67, 100
6, 36225, Note_on_c, 4, 67, 0
6, 36225, Note_on_c, 4, 64, 0
6, 36225, Note_on_c, 4, 71, 0
6, 36235, Note_on_c, 4, 71, 50
6, 36235, Note_on_c, 4, 64, 50
6, 36235, Note_on_c, 4, 67, 50
6, 36240, Note_on_c, 4, 64, 100
6, 36240, Note_on_c, 4, 71, 100
6, 36240, Note_on_c, 4, 67, 100
6, 36267, Note_on_c, 4, 67, 0
6, 36267, Note_on_c, 4, 71, 0
6, 36267, Note_on_c, 4, 64, 0
6, 36280, Note_on_c, 4, 64, 0
6, 36280, Note_on_c, 4, 71, 0
6, 36280, Note_on_c, 4, 67, 0
6, 36295, Note_on_c, 4, 64, 50
6, 36295, Note_on_c, 4, 71, 50
6, 36295, Note_on_c, 4, 67, 50
6, 36322, Note_on_c, 4, 67, 0
6, 36322, Note_on_c, 4, 71, 0
6, 36322, Note_on_c, 4, 64, 0
6, 36330, Note_on_c, 4, 67, 100
6, 36330, Note_on_c, 4, 64, 100
6, 36330, Note_on_c, 4, 71, 100
6, 36357, Note_on_c, 4, 71, 0
6, 36357, Note_on_c, 4, 64, 0
6, 36357, Note_on_c, 4, 67, 0
6, 36385, Note_on_c, 4, 67, 50
6, 36385, Note_on_c, 4, 64, 50
6, 36385, Note_on_c, 4, 71, 50
6, 36412, Note_on_c, 4, 71, 0
6, 36412, Note_on_c, 4, 64, 0
6, 36412, Note_on_c, 4, 67, 0
6, 36420, Note_on_c, 4, 67, 100
6, 36420, Note_on_c, 4, 71, 100
6, 36420, Note_on_c, 4, 64, 100
6, 36465, Note_on_c, 4, 64, 0
6, 36465, Note_on_c, 4, 71, 0
6, 36465, Note_on_c, 4, 67, 0
6, 36475, Note_on_c, 4, 67, 50
6, 36475, Note_on_c, 4, 71, 50
6, 36475, Note_on_c, 4, 64, 50
6, 36480, Note_on_c, 4, 64, 100
6, 36480, Note_on_c, 4, 71, 100
6, 36480, Note_on_c, 4, 67, 100
6, 36507, Note_on_c, 4, 64, 0
6, 36507, Note_on_c, 4, 67, 0
6, 36507, Note_on_c, 4, 71, 0
6, 36520, Note_on_c, 4, 64, 0
6, 36520, Note_on_c, 4, 71, 0
6, 36520, Note_on_c, 4, 67, 0
6, 36535, Note_on_c, 4, 64, 50
6, 36535, Note_on_c, 4, 71, 50
6, 36535, Note_on_c, 4, 67, 50
6, 36562, Note_on_c, 4, 67, 0
6, 36562, Note_on_c, 4, 71, 0
6, 36562, Note_on_c, 4, 64, 0
6, 36570, Note_on_c, 4, 64, 100
6, 36570, Note_on_c, 4, 71, 100
6, 36570, Note_on_c, 4, 67, 100
6, 36597, Note_on_c, 4, 67, 0
6, 36597, Note_on_c, 4, 71, 0
6, 36597, Note_on_c, 4, 64, 0
6, 36625, Note_on_c, 4, 64, 50
6, 36625, Note_on_c, 4, 71, 50
6, 36625, Note_on_c, 4, 67, 50
6, 36652, Note_on_c, 4, 67, 0
6, 36652, Note_on_c, 4, 71, 0
6, 36652, Note_on_c, 4, 64, 0
6, 36660, Note_on_c, 4, 71, 100
6, 36660, Note_on_c, 4, 64, 100
6, 36660, Note_on_c, 4, 67, 100
6, 36705, Note_on_c, 4, 67, 0
6, 36705, Note_on_c, 4, 64, 0
6, 36705, Note_on_c, 4, 71, 0
6, 36715, Note_on_c, 4, 71, 50
6, 36715, Note_on_c, 4, 64, 50
6, 36715, Note_on_c, 4, 67, 50
6, 36720, Note_on_c, 4, 64, 100
6, 36720, Note_on_c, 4, 67, 100
6, 36720, Note_on_c, 4, 71, 100
6, 36747, Note_on_c, 4, 67, 0
6, 36747, Note_on_c, 4, 71, 0
6, 36747, Note_on_c, 4, 64, 0
6, 36760, Note_on_c, 4, 64, 0
6, 36760, Note_on_c, 4, 67, 0
6, 36760, Note_on_c, 4, 71, 0
6, 36775, Note_on_c, 4, 64, 50
6, 36775, Note_on_c, 4, 67, 50
6, 36775, Note_on_c, 4, 71, 50
6, 36802, Note_on_c, 4, 71, 0
6, 36802, Note_on_c, 4, 67, 0
6, 36802, Note_on_c, 4, 64, 0
6, 36810, Note_on_c, 4, 64, 100
6, 36810, Note_on_c, 4, 67, 100
6, 36810, Note_on_c, 4, 71, 100
6, 36837, Note_on_c, 4, 71, 0
6, 36837, Note_on_c, 4, 67, 0
6, 36837, Note_on_c, 4, 64, 0
6, 36865, Note_on_c, 4, 64, 50
6, 36865, Note_on_c, 4, 67, 50
6, 36865, Note_on_c, 4, 71, 50
6, 36892, Note_on_c, 4, 71, 0
6, 36892, Note_on_c, 4, 67, 0
6, 36892, Note_on_c, 4, 64, 0
6, 36900, Note_on_c, 4, 71, 100
6, 36900, Note_on_c, 4, 67, 100
6, 36900, Note_on_c, 4, 64, 100
6, 36945, Note_on_c, 4, 64, 0
6, 36945, Note_on_c, 4, 67, 0
6, 36945, Note_on_c, 4, 71, 0
6, 36955, Note_on_c, 4, 71, 50
6, 36955, Note_on_c, 4, 67, 50
6, 36955, Note_on_c, 4, 64, 50
6, 36960, Note_on_c, 4, 64, 100
6, 36960, Note_on_c, 4, 67, 100
6, 36960, Note_on_c, 4, 71, 100
6, 36987, Note_on_c, 4, 64, 0
6, 36987, Note_on_c, 4, 71, 0
6, 36987, Note_on_c, 4, 67, 0
6, 37000, Note_on_c, 4, 64, 0
6, 37000, Note_on_c, 4, 67, 0
6, 37000, Note_on_c, 4, 71, 0
6, 37015, Note_on_c, 4, 64, 50
6, 37015, Note_on_c, 4, 67, 50
6, 37015, Note_on_c, 4, 71, 50
6, 37042, Note_on_c, 4, 71, 0
6, 37042, Note_on_c, 4, 67, 0
6, 37042, Note_on_c, 4, 64, 0
6, 37050, Note_on_c, 4, 71, 100
6, 37050, Note_on_c, 4, 67, 100
6, 37050, Note_on_c, 4, 64, 100
6, 37077, Note_on_c, 4, 64, 0
6, 37077, Note_on_c, 4, 67, 0
6, 37077, Note_on_c, 4, 71, 0
6, 37105, Note_on_c, 4, 71, 50
6, 37105, Note_on_c, 4, 67, 50
6, 37105, Note_on_c, 4, 64, 50
6, 37132, Note_on_c, 4, 64, 0
6, 37132, Note_on_c, 4, 67, 0
6, 37132, Note_on_c, 4, 71, 0
6, 37140, Note_on_c, 4, 64, 100
6, 37140, Note_on_c, 4, 67, 100
6, 37140, Note_on_c, 4, 71, 100
6, 37185, Note_on_c, 4, 71, 0
6, 37185, Note_on_c, 4, 67, 0
6, 37185, Note_on_c, 4, 64, 0
6, 37195, Note_on_c, 4, 64, 50
6, 37195, Note_on_c, 4, 67, 50
6, 37195, Note_on_c, 4, 71, 50
6, 37200, Note_on_c, 4, 71, 100
6, 37200, Note_on_c, 4, 67, 100
6, 37200, Note_on_c, 4, 64, 100
6, 37227, Note_on_c, 4, 71, 0
6, 37227, Note_on_c, 4, 64, 0
6, 37227, Note_on_c, 4, 67, 0
6, 37240, Note_on_c, 4, 71, 0
6, 37240, Note_on_c, 4, 67, 0
6, 37240, Note_on_c, 4, 64, 0
6, 37255, Note_on_c, 4, 71, 50
6, 37255, Note_on_c, 4, 67, 50
6, 37255, Note_on_c, 4, 64, 50
6, 37282, Note_on_c, 4, 64, 0
6, 37282, Note_on_c, 4, 67, 0
6, 37282, Note_on_c, 4, 71, 0
6, 37290, Note_on_c, 4, 71, 100
6, 37290, Note_on_c, 4, 67, 100
6, 37290, Note_on_c, 4, 64, 100
6, 37317, Note_on_c, 4, 64, 0
6, 37317, Note_on_c, 4, 67, 0
6, 37317, Note_on_c, 4, 71, 0
6, 37345, Note_on_c, 4, 71, 50
6, 37345, Note_on_c, 4, 67, 50
6, 37345, Note_on_c, 4, 64, 50
6, 37372, Note_on_c, 4, 64, 0
6, 37372, Note_on_c, 4, 67, 0
6, 37372, Note_on_c, 4, 71, 0
6, 37380, Note_on_c, 4, 67, 100
6, 37380, Note_on_c, 4, 64, 100
6, 37380, Note_on_c, 4, 71, 100
6, 37425, Note_on_c, 4, 71, 0
6, 37425, Note_on_c, 4, 64, 0
6, 37425, Note_on_c, 4, 67, 0
6, 37440, Note_on_c, 4, 64, 100
6, 37440, Note_on_c, 4, 67, 100
6, 37440, Note_on_c, 4, 71, 100
6, 37467, Note_on_c, 4, 71, 0
6, 37467, Note_on_c, 4, 67, 0
6, 37467, Note_on_c, 4, 64, 0
6, 37495, Note_on_c, 4, 64, 50
6, 37495, Note_on_c, 4, 67, 50
6, 37495, Note_on_c, 4, 71, 50
6, 37522, Note_on_c, 4, 71, 0
6, 37522, Note_on_c, 4, 67, 0
6, 37522, Note_on_c, 4, 64, 0
6, 37530, Note_on_c, 4, 71, 100
6, 37530, Note_on_c, 4, 67, 100
6, 37530, Note_on_c, 4, 64, 100
6, 37557, Note_on_c, 4, 64, 0
6, 37557, Note_on_c, 4, 67, 0
6, 37557, Note_on_c, 4, 71, 0
6, 37585, Note_on_c, 4, 71, 50
6, 37585, Note_on_c, 4, 67, 50
6, 37585, Note_on_c, 4, 64, 50
6, 37612, Note_on_c, 4, 64, 0
6, 37612, Note_on_c, 4, 67, 0
6, 37612, Note_on_c, 4, 71, 0
6, 37620, Note_on_c, 4, 64, 100
6, 37620, Note_on_c, 4, 71, 100
6, 37620, Note_on_c, 4, 67, 100
6, 37665, Note_on_c, 4, 67, 0
6, 37665, Note_on_c, 4, 71, 0
6, 37665, Note_on_c, 4, 64, 0
6, 37675, Note_on_c, 4, 64, 50
6, 37675, Note_on_c, 4, 71, 50
6, 37675, Note_on_c, 4, 67, 50
6, 37680, Note_on_c, 4, 67, 100
6, 37680, Note_on_c, 4, 71, 100
6, 37680, Note_on_c, 4, 64, 100
6, 37707, Note_on_c, 4, 67, 0
6, 37707, Note_on_c, 4, 64, 0
6, 37707, Note_on_c, 4, 71, 0
6, 37720, Note_on_c, 4, 67, 0
6, 37720, Note_on_c, 4, 71, 0
6, 37720, Note_on_c, 4, 64, 0
6, 37735, Note_on_c, 4, 67, 50
6, 37735, Note_on_c, 4, 71, 50
6, 37735, Note_on_c, 4, 64, 50
6, 37762, Note_on_c, 4, 64, 0
6, 37762, Note_on_c, 4, 71, 0
6, 37762, Note_on_c, 4, 67, 0
6, 37770, Note_on_c, 4, 67, 100
6, 37770, Note_on_c, 4, 71, 100
6, 37770, Note_on_c, 4, 64, 100
6, 37797, Note_on_c, 4, 64, 0
6, 37797, Note_on_c, 4, 71, 0
6, 37797, Note_on_c, 4, 67, 0
6, 37825, Note_on_c, 4, 67, 50
6, 37825, Note_on_c, 4, 71, 50
6, 37825, Note_on_c, 4, 64, 50
6, 37852, Note_on_c, 4, 64, 0
6, 37852, Note_on_c, 4, 71, 0
6, 37852, Note_on_c, 4, 67, 0
6, 37860, Note_on_c, 4, 64, 100
6, 37860, Note_on_c, 4, 71, 100
6, 37860, Note_on_c, 4, 67, 100
6, 37905, Note_on_c, 4, 67, 0
6, 37905, Note_on_c, 4, 71, 0
6, 37905, Note_on_c, 4, 64, 0
6, 37915, Note_on_c, 4, 64, 50
6, 37915, Note_on_c, 4, 71, 50
6, 37915, Note_on_c, 4, 67, 50
6, 37920, Note_on_c, 4, 64, 100
6, 37920, Note_on_c, 4, 71, 100
6, 37920, Note_on_c, 4, 67, 100
6, 37947, Note_on_c, 4, 67, 0
6, 37947, Note_on_c, 4, 64, 0
6, 37947, Note_on_c, 4, 71, 0
6, 37960, Note_on_c, 4, 64, 0
6, 37960, Note_on_c, 4, 71, 0
6, 37960, Note_on_c, 4, 67, 0
6, 37975, Note_on_c, 4, 64, 50
6, 37975, Note_on_c, 4, 71, 50
6, 37975, Note_on_c, 4, 67, 50
6, 38002, Note_on_c, 4, 67, 0
6, 38002, Note_on_c, 4, 71, 0
6, 38002, Note_on_c, 4, 64, 0
6, 38010, Note_on_c, 4, 67, 100
6, 38010, Note_on_c, 4, 64, 100
6, 38010, Note_on_c, 4, 71, 100
6, 38037, Note_on_c, 4, 71, 0
6, 38037, Note_on_c, 4, 64, 0
6, 38037, Note_on_c, 4, 67, 0
6, 38065, Note_on_c, 4, 67, 50
6, 38065, Note_on_c, 4, 64, 50
6, 38065, Note_on_c, 4, 71, 50
6, 38092, Note_on_c, 4, 71, 0
6, 38092, Note_on_c, 4, 64, 0
6, 38092, Note_on_c, 4, 67, 0
6, 38100, Note_on_c, 4, 71, 100
6, 38100, Note_on_c, 4, 64, 100
6, 38100, Note_on_c, 4, 67, 100
6, 38145, Note_on_c, 4, 67, 0
6, 38145, Note_on_c, 4, 64, 0
6, 38145, Note_on_c, 4, 71, 0
6, 38155, Note_on_c, 4, 71, 50
6, 38155, Note_on_c, 4, 64, 50
6, 38155, Note_on_c, 4, 67, 50
6, 38160, Note_on_c, 4, 64, 100
6, 38160, Note_on_c, 4, 71, 100
6, 38160, Note_on_c, 4, 67, 100
6, 38187, Note_on_c, 4, 67, 0
6, 38187, Note_on_c, 4, 71, 0
6, 38187, Note_on_c, 4, 64, 0
6, 38200, Note_on_c, 4, 64, 0
6, 38200, Note_on_c, 4, 71, 0
6, 38200, Note_on_c, 4, 67, 0
6, 38215, Note_on_c, 4, 64, 50
6, 38215, Note_on_c, 4, 71, 50
6, 38215, Note_on_c, 4, 67, 50
6, 38242, Note_on_c, 4, 67, 0
6, 38242, Note_on_c, 4, 71, 0
6, 38242, Note_on_c, 4, 64, 0
6, 38250, Note_on_c, 4, 67, 100
6, 38250, Note_on_c, 4, 64, 100
6, 38250, Note_on_c, 4, 71, 100
6, 38277, Note_on_c, 4, 71, 0
6, 38277, Note_on_c, 4, 64, 0
6, 38277, Note_on_c, 4, 67, 0
6, 38305, Note_on_c, 4, 67, 50
6, 38305, Note_on_c, 4, 64, 50
6, 38305, Note_on_c, 4, 71, 50
6, 38332, Note_on_c, 4, 71, 0
6, 38332, Note_on_c, 4, 64, 0
6, 38332, Note_on_c, 4, 67, 0
6, 38340, Note_on_c, 4, 67, 100
6, 38340, Note_on_c, 4, 71, 100
6, 38340, Note_on_c, 4, 64, 100
6, 38385, Note_on_c, 4, 64, 0
6, 38385, Note_on_c, 4, 71, 0
6, 38385, Note_on_c, 4, 67, 0
6, 38395, Note_on_c, 4, 67, 50
6, 38395, Note_on_c, 4, 71, 50
6, 38395, Note_on_c, 4, 64, 50
6, 38400, Note_on_c, 4, 64, 100
6, 38400, Note_on_c, 4, 71, 100
6, 38400, Note_on_c, 4, 67, 100
6, 38427, Note_on_c, 4, 64, 0
6, 38427, Note_on_c, 4, 67, 0
6, 38427, Note_on_c, 4, 71, 0
6, 38440, Note_on_c, 4, 64, 0
6, 38440, Note_on_c, 4, 71, 0
6, 38440, Note_on_c, 4, 67, 0
6, 38455, Note_on_c, 4, 64, 50
6, 38455, Note_on_c, 4, 71, 50
6, 38455, Note_on_c, 4, 67, 50
6, 38482, Note_on_c, 4, 67, 0
6, 38482, Note_on_c, 4, 71, 0
6, 38482, Note_on_c, 4, 64, 0
6, 38490, Note_on_c, 4, 64, 100
6, 38490, Note_on_c, 4, 71, 100
6, 38490, Note_on_c, 4, 67, 100
6, 38517, Note_on_c, 4, 67, 0
6, 38517, Note_on_c, 4, 71, 0
6, 38517, Note_on_c, 4, 64, 0
6, 38545, Note_on_c, 4, 64, 50
6, 38545, Note_on_c, 4, 71, 50
6, 38545, Note_on_c, 4, 67, 50
6, 38572, Note_on_c, 4, 67, 0
6, 38572, Note_on_c, 4, 71, 0
6, 38572, Note_on_c, 4, 64, 0
6, 38580, Note_on_c, 4, 71, 100
6, 38580, Note_on_c, 4, 64, 100
6, 38580, Note_on_c, 4, 67, 100
6, 38625, Note_on_c, 4, 67, 0
6, 38625, Note_on_c, 4, 64, 0
6, 38625, Note_on_c, 4, 71, 0
6, 38635, Note_on_c, 4, 71, 50
6, 38635, Note_on_c, 4, 64, 50
6, 38635, Note_on_c, 4, 67, 50
6, 38640, Note_on_c, 4, 64, 100
6, 38640, Note_on_c, 4, 67, 100
6, 38640, Note_on_c, 4, 71, 100
6, 38667, Note_on_c, 4, 67, 0
6, 38667, Note_on_c, 4, 71, 0
6, 38667, Note_on_c, 4, 64, 0
6, 38680, Note_on_c, 4, 64, 0
6, 38680, Note_on_c, 4, 67, 0
6, 38680, Note_on_c, 4, 71, 0
6, 38695, Note_on_c, 4, 64, 50
6, 38695, Note_on_c, 4, 67, 50
6, 38695, Note_on_c, 4, 71, 50
6, 38722, Note_on_c, 4, 71, 0
6, 38722, Note_on_c, 4, 67, 0
6, 38722, Note_on_c, 4, 64, 0
6, 38730, Note_on_c, 4, 64, 100
6, 38730, Note_on_c, 4, 67, 100
6, 38730, Note_on_c, 4, 71, 100
6, 38757, Note_on_c, 4, 71, 0
6, 38757, Note_on_c, 4, 67, 0
6, 38757, Note_on_c, 4, 64, 0
6, 38785, Note_on_c, 4, 64, 50
6, 38785, Note_on_c, 4, 67, 50
6, 38785, Note_on_c, 4, 71, 50
6, 38812, Note_on_c, 4, 71, 0
6, 38812, Note_on_c, 4, 67, 0
6, 38812, Note_on_c, 4, 64, 0
6, 38820, Note_on_c, 4, 71, 100
6, 38820, Note_on_c, 4, 67, 100
6, 38820, Note_on_c, 4, 64, 100
6, 38865, Note_on_c, 4, 64, 0
6, 38865, Note_on_c, 4, 67, 0
6, 38865, Note_on_c, 4, 71, 0
6, 38875, Note_on_c, 4, 71, 50
6, 38875, Note_on_c, 4, 67, 50
6, 38875, Note_on_c, 4, 64, 50
6, 38880, Note_on_c, 4, 64, 100
6, 38880, Note_on_c, 4, 67, 100
6, 38880, Note_on_c, 4, 71, 100
6, 38907, Note_on_c, 4, 64, 0
6, 38907, Note_on_c, 4, 71, 0
6, 38907, Note_on_c, 4, 67, 0
6, 38920, Note_on_c, 4, 64, 0
6, 38920, Note_on_c, 4, 67, 0
6, 38920, Note_on_c, 4, 71, 0
6, 38935, Note_on_c, 4, 64, 50
6, 38935, Note_on_c, 4, 67, 50
6, 38935, Note_on_c, 4, 71, 50
6, 38962, Note_on_c, 4, 71, 0
6, 38962, Note_on_c, 4, 67, 0
6, 38962, Note_on_c, 4, 64, 0
6, 38970, Note_on_c, 4, 71, 100
6, 38970, Note_on_c, 4, 67, 100
6, 38970, Note_on_c, 4, 64, 100
6, 38997, Note_on_c, 4, 64, 0
6, 38997, Note_on_c, 4, 67, 0
6, 38997, Note_on_c, 4, 71, 0
6, 39025, Note_on_c, 4, 71, 50
6, 39025, Note_on_c, 4, 67, 50
6, 39025, Note_on_c, 4, 64, 50
6, 39052, Note_on_c, 4, 64, 0
6, 39052, Note_on_c, 4, 67, 0
6, 39052, Note_on_c, 4, 71, 0
6, 39060, Note_on_c, 4, 64, 100
6, 39060, Note_on_c, 4, 67, 100
6, 39060, Note_on_c, 4, 71, 100
6, 39105, Note_on_c, 4, 71, 0
6, 39105, Note_on_c, 4, 67, 0
6, 39105, Note_on_c, 4, 64, 0
6, 39115, Note_on_c, 4, 64, 50
6, 39115, Note_on_c, 4, 67, 50
6, 39115, Note_on_c, 4, 71, 50
6, 39120, Note_on_c, 4, 71, 100
6, 39120, Note_on_c, 4, 67, 100
6, 39120, Note_on_c, 4, 64, 100
6, 39147, Note_on_c, 4, 71, 0
6, 39147, Note_on_c, 4, 64, 0
6, 39147, Note_on_c, 4, 67, 0
6, 39160, Note_on_c, 4, 71, 0
6, 39160, Note_on_c, 4, 67, 0
6, 39160, Note_on_c, 4, 64, 0
6, 39175, Note_on_c, 4, 71, 50
6, 39175, Note_on_c, 4, 67, 50
6, 39175, Note_on_c, 4, 64, 50
6, 39202, Note_on_c, 4, 64, 0
6, 39202, Note_on_c, 4, 67, 0
6, 39202, Note_on_c, 4, 71, 0
6, 39210, Note_on_c, 4, 71, 100
6, 39210, Note_on_c, 4, 67, 100
6, 39210, Note_on_c, 4, 64, 100
6, 39237, Note_on_c, 4, 64, 0
6, 39237, Note_on_c, 4, 67, 0
6, 39237, Note_on_c, 4, 71, 0
6, 39265, Note_on_c, 4, 71, 50
6, 39265, Note_on_c, 4, 67, 50
6, 39265, Note_on_c, 4, 64, 50
6, 39292, Note_on_c, 4, 64, 0
6, 39292, Note_on_c, 4, 67, 0
6, 39292, Note_on_c, 4, 71, 0
6, 39300, Note_on_c, 4, 67, 100
6, 39300, Note_on_c, 4, 64, 100
6, 39300, Note_on_c, 4, 71, 100
6, 39345, Note_on_c, 4, 71, 0
6, 39345, Note_on_c, 4, 64, 0
6, 39345, Note_on_c, 4, 67, 0
6, 39360, Note_on_c, 4, 67, 100
6, 39360, Note_on_c, 4, 71, 100
6, 39360, Note_on_c, 4, 64, 100
6, 39400, Note_on_c, 4, 64, 0
6, 39400, Note_on_c, 4, 71, 0
6, 39400, Note_on_c, 4, 67, 0
6, 39415, Note_on_c, 4, 67, 50
6, 39415, Note_on_c, 4, 71, 50
6, 39415, Note_on_c, 4, 64, 50
6, 39442, Note_on_c, 4, 64, 0
6, 39442, Note_on_c, 4, 71, 0
6, 39442, Note_on_c, 4, 67, 0
6, 39450, Note_on_c, 4, 67, 100
6, 39450, Note_on_c, 4, 64, 100
6, 39450, Note_on_c, 4, 71, 100
6, 39477, Note_on_c, 4, 71, 0
6, 39477, Note_on_c, 4, 64, 0
6, 39477, Note_on_c, 4, 67, 0
6, 39505, Note_on_c, 4, 67, 50
6, 39505, Note_on_c, 4, 64, 50
6, 39505, Note_on_c, 4, 71, 50
6, 39532, Note_on_c, 4, 71, 0
6, 39532, Note_on_c, 4, 64, 0
6, 39532, Note_on_c, 4, 67, 0
6, 39540, Note_on_c, 4, 67, 100
6, 39540, Note_on_c, 4, 71, 100
6, 39540, Note_on_c, 4, 64, 100
6, 39585, Note_on_c, 4, 64, 0
6, 39585, Note_on_c, 4, 71, 0
6, 39585, Note_on_c, 4, 67, 0
6, 39595, Note_on_c, 4, 67, 50
6, 39595, Note_on_c, 4, 71, 50
6, 39595, Note_on_c, 4, 64, 50
6, 39600, Note_on_c, 4, 71, 100
6, 39600, Note_on_c, 4, 64, 100
6, 39600, Note_on_c, 4, 67, 100
6, 39627, Note_on_c, 4, 64, 0
6, 39627, Note_on_c, 4, 67, 0
6, 39627, Note_on_c, 4, 71, 0
6, 39640, Note_on_c, 4, 71, 0
6, 39640, Note_on_c, 4, 64, 0
6, 39640, Note_on_c, 4, 67, 0
6, 39655, Note_on_c, 4, 71, 50
6, 39655, Note_on_c, 4, 64, 50
6, 39655, Note_on_c, 4, 67, 50
6, 39682, Note_on_c, 4, 67, 0
6, 39682, Note_on_c, 4, 64, 0
6, 39682, Note_on_c, 4, 71, 0
6, 39690, Note_on_c, 4, 67, 100
6, 39690, Note_on_c, 4, 64, 100
6, 39690, Note_on_c, 4, 71, 100
6, 39717, Note_on_c, 4, 71, 0
6, 39717, Note_on_c, 4, 64, 0
6, 39717, Note_on_c, 4, 67, 0
6, 39745, Note_on_c, 4, 67, 50
6, 39745, Note_on_c, 4, 64, 50
6, 39745, Note_on_c, 4, 71, 50
6, 39772, Note_on_c, 4, 71, 0
6, 39772, Note_on_c, 4, 64, 0
6, 39772, Note_on_c, 4, 67, 0
6, 39780, Note_on_c, 4, 67, 100
6, 39780, Note_on_c, 4, 72, 100
6, 39780, Note_on_c, 4, 76, 100
6, 39825, Note_on_c, 4, 76, 0
6, 39825, Note_on_c, 4, 72, 0
6, 39825, Note_on_c, 4, 67, 0
6, 39835, Note_on_c, 4, 67, 50
6, 39835, Note_on_c, 4, 72, 50
6, 39835, Note_on_c, 4, 76, 50
6, 39840, Note_on_c, 4, 67, 100
6, 39840, Note_on_c, 4, 76, 100
6, 39840, Note_on_c, 4, 72, 100
6, 39867, Note_on_c, 4, 76, 0
6, 39867, Note_on_c, 4, 67, 0
6, 39867, Note_on_c, 4, 72, 0
6, 39880, Note_on_c, 4, 67, 0
6, 39880, Note_on_c, 4, 76, 0
6, 39880, Note_on_c, 4, 72, 0
6, 39895, Note_on_c, 4, 67, 50
6, 39895, Note_on_c, 4, 76, 50
6, 39895, Note_on_c, 4, 72, 50
6, 39922, Note_on_c, 4, 72, 0
6, 39922, Note_on_c, 4, 76, 0
6, 39922, Note_on_c, 4, 67, 0
6, 39930, Note_on_c, 4, 72, 100
6, 39930, Note_on_c, 4, 76, 100
6, 39930, Note_on_c, 4, 67, 100
6, 39957, Note_on_c, 4, 67, 0
6, 39957, Note_on_c, 4, 76, 0
6, 39957, Note_on_c, 4, 72, 0
6, 39985, Note_on_c, 4, 72, 50
6, 39985, Note_on_c, 4, 76, 50
6, 39985, Note_on_c, 4, 67, 50
6, 40012, Note_on_c, 4, 67, 0
6, 40012, Note_on_c, 4, 76, 0
6, 40012, Note_on_c, 4, 72, 0
6, 40020, Note_on_c, 4, 74, 100
6, 40020, Note_on_c, 4, 67, 100
6, 40020, Note_on_c, 4, 71, 100
6, 40065, Note_on_c, 4, 71, 0
6, 40065, Note_on_c, 4, 67, 0
6, 40065, Note_on_c, 4, 74, 0
6, 40075, Note_on_c, 4, 74, 50
6, 40075, Note_on_c, 4, 67, 50
6, 40075, Note_on_c, 4, 71, 50
6, 40080, Note_on_c, 4, 74, 100
6, 40080, Note_on_c, 4, 67, 100
6, 40080, Note_on_c, 4, 71, 100
6, 40107, Note_on_c, 4, 71, 0
6, 40107, Note_on_c, 4, 74, 0
6, 40107, Note_on_c, 4, 67, 0
6, 40120, Note_on_c, 4, 74, 0
6, 40120, Note_on_c, 4, 67, 0
6, 40120, Note_on_c, 4, 71, 0
6, 40135, Note_on_c, 4, 74, 50
6, 40135, Note_on_c, 4, 67, 50
6, 40135, Note_on_c, 4, 71, 50
6, 40162, Note_on_c, 4, 71, 0
6, 40162, Note_on_c, 4, 67, 0
6, 40162, Note_on_c, 4, 74, 0
6, 40170, Note_on_c, 4, 67, 100
6, 40170, Note_on_c, 4, 71, 100
6, 40170, Note_on_c, 4, 74, 100
6, 40197, Note_on_c, 4, 74, 0
6, 40197, Note_on_c, 4, 71, 0
6, 40197, Note_on_c, 4, 67, 0
6, 40225, Note_on_c, 4, 67, 50
6, 40225, Note_on_c, 4, 71, 50
6, 40225, Note_on_c, 4, 74, 50
6, 40252, Note_on_c, 4, 74, 0
6, 40252, Note_on_c, 4, 71, 0
6, 40252, Note_on_c, 4, 67, 0
6, 40260, Note_on_c, 4, 69, 100
6, 40260, Note_on_c, 4, 66, 100
6, 40260, Note_on_c, 4, 62, 100
6, 40305, Note_on_c, 4, 62, 0
6, 40305, Note_on_c, 4, 66, 0
6, 40305, Note_on_c, 4, 69, 0
6, 40315, Note_on_c, 4, 69, 50
6, 40315, Note_on_c, 4, 66, 50
6, 40315, Note_on_c, 4, 62, 50
6, 40320, Note_on_c, 4, 64, 100
6, 40320, Note_on_c, 4, 71, 100
6, 40320, Note_on_c, 4, 67, 100
6, 40347, Note_on_c, 4, 67, 0
6, 40347, Note_on_c, 4, 64, 0
6, 40347, Note_on_c, 4, 71, 0
6, 40360, Note_on_c, 4, 69, 0
6, 40360, Note_on_c, 4, 62, 0
6, 40360, Note_on_c, 4, 66, 0
6, 40375, Note_on_c, 4, 64, 50
6, 40375, Note_on_c, 4, 71, 50
6, 40375, Note_on_c, 4, 67, 50
6, 40402, Note_on_c, 4, 67, 0
6, 40402, Note_on_c, 4, 71, 0
6, 40402, Note_on_c, 4, 64, 0
6, 40410, Note_on_c, 4, 71, 100
6, 40410, Note_on_c, 4, 67, 100
6, 40410, Note_on_c, 4, 64, 100
6, 40437, Note_on_c, 4, 64, 0
6, 40437, Note_on_c, 4, 67, 0
6, 40437, Note_on_c, 4, 71, 0
6, 40465, Note_on_c, 4, 71, 50
6, 40465, Note_on_c, 4, 67, 50
6, 40465, Note_on_c, 4, 64, 50
6, 40492, Note_on_c, 4, 64, 0
6, 40492, Note_on_c, 4, 67, 0
6, 40492, Note_on_c, 4, 71, 0
6, 40500, Note_on_c, 4, 64, 100
6, 40500, Note_on_c, 4, 67, 100
6, 40500, Note_on_c, 4, 71, 100
6, 40545, Note_on_c, 4, 71, 0
6, 40545, Note_on_c, 4, 67, 0
6, 40545, Note_on_c, 4, 64, 0
6, 40555, Note_on_c, 4, 64, 50
6, 40555, Note_on_c, 4, 67, 50
6, 40555, Note_on_c, 4, 71, 50
6, 40560, Note_on_c, 4, 67, 100
6, 40560, Note_on_c, 4, 64, 100
6, 40560, Note_on_c, 4, 71, 100
6, 40587, Note_on_c, 4, 71, 0
6, 40587, Note_on_c, 4, 64, 0
6, 40587, Note_on_c, 4, 67, 0
6, 40600, Note_on_c, 4, 67, 0
6, 40600, Note_on_c, 4, 64, 0
6, 40600, Note_on_c, 4, 71, 0
6, 40615, Note_on_c, 4, 67, 50
6, 40615, Note_on_c, 4, 64, 50
6, 40615, Note_on_c, 4, 71, 50
6, 40642, Note_on_c, 4, 71, 0
6, 40642, Note_on_c, 4, 64, 0
6, 40642, Note_on_c, 4, 67, 0
6, 40650, Note_on_c, 4, 71, 100
6, 40650, Note_on_c, 4, 64, 100
6, 40650, Note_on_c, 4, 67, 100
6, 40677, Note_on_c, 4, 67, 0
6, 40677, Note_on_c, 4, 64, 0
6, 40677, Note_on_c, 4, 71, 0
6, 40705, Note_on_c, 4, 71, 50
6, 40705, Note_on_c, 4, 64, 50
6, 40705, Note_on_c, 4, 67, 50
6, 40732, Note_on_c, 4, 67, 0
6, 40732, Note_on_c, 4, 64, 0
6, 40732, Note_on_c, 4, 71, 0
6, 40740, Note_on_c, 4, 76, 100
6, 40740, Note_on_c, 4, 69, 100
6, 40740, Note_on_c, 4, 72, 100
6, 40785, Note_on_c, 4, 72, 0
6, 40785, Note_on_c, 4, 69, 0
6, 40785, Note_on_c, 4, 76, 0
6, 40795, Note_on_c, 4, 76, 50
6, 40795, Note_on_c, 4, 69, 50
6, 40795, Note_on_c, 4, 72, 50
6, 40800, Note_on_c, 4, 64, 100
6, 40800, Note_on_c, 4, 67, 100
6, 40800, Note_on_c, 4, 71, 100
6, 40827, Note_on_c, 4, 71, 0
6, 40827, Note_on_c, 4, 64, 0
6, 40827, Note_on_c, 4, 67, 0
6, 40840, Note_on_c, 4, 76, 0
6, 40840, Note_on_c, 4, 72, 0
6, 40840, Note_on_c, 4, 69, 0
6, 40855, Note_on_c, 4, 64, 50
6, 40855, Note_on_c, 4, 67, 50
6, 40855, Note_on_c, 4, 71, 50
6, 40882, Note_on_c, 4, 71, 0
6, 40882, Note_on_c, 4, 67, 0
6, 40882, Note_on_c, 4, 64, 0
6, 40890, Note_on_c, 4, 64, 100
6, 40890, Note_on_c, 4, 67, 100
6, 40890, Note_on_c, 4, 71, 100
6, 40917, Note_on_c, 4, 71, 0
6, 40917, Note_on_c, 4, 67, 0
6, 40917, Note_on_c, 4, 64, 0
6, 40945, Note_on_c, 4, 64, 50
6, 40945, Note_on_c, 4, 67, 50
6, 40945, Note_on_c, 4, 71, 50
6, 40972, Note_on_c, 4, 71, 0
6, 40972, Note_on_c, 4, 67, 0
6, 40972, Note_on_c, 4, 64, 0
6, 40980, Note_on_c, 4, 64, 100
6, 40980, Note_on_c, 4, 67, 100
6, 40980, Note_on_c, 4, 71, 100
6, 41025, Note_on_c, 4, 71, 0
6, 41025, Note_on_c, 4, 67, 0
6, 41025, Note_on_c, 4, 64, 0
6, 41035, Note_on_c, 4, 64, 50
6, 41035, Note_on_c, 4, 67, 50
6, 41035, Note_on_c, 4, 71, 50
6, 41040, Note_on_c, 4, 64, 100
6, 41040, Note_on_c, 4, 67, 100
6, 41040, Note_on_c, 4, 71, 100
6, 41067, Note_on_c, 4, 71, 0
6, 41067, Note_on_c, 4, 64, 0
6, 41067, Note_on_c, 4, 67, 0
6, 41080, Note_on_c, 4, 64, 0
6, 41080, Note_on_c, 4, 67, 0
6, 41080, Note_on_c, 4, 71, 0
6, 41095, Note_on_c, 4, 64, 50
6, 41095, Note_on_c, 4, 67, 50
6, 41095, Note_on_c, 4, 71, 50
6, 41122, Note_on_c, 4, 71, 0
6, 41122, Note_on_c, 4, 67, 0
6, 41122, Note_on_c, 4, 64, 0
6, 41130, Note_on_c, 4, 71, 100
6, 41130, Note_on_c, 4, 64, 100
6, 41130, Note_on_c, 4, 67, 100
6, 41157, Note_on_c, 4, 67, 0
6, 41157, Note_on_c, 4, 64, 0
6, 41157, Note_on_c, 4, 71, 0
6, 41185, Note_on_c, 4, 71, 50
6, 41185, Note_on_c, 4, 64, 50
6, 41185, Note_on_c, 4, 67, 50
6, 41212, Note_on_c, 4, 67, 0
6, 41212, Note_on_c, 4, 64, 0
6, 41212, Note_on_c, 4, 71, 0
6, 41220, Note_on_c, 4, 69, 100
6, 41220, Note_on_c, 4, 72, 100
6, 41220, Note_on_c, 4, 76, 100
6, 41265, Note_on_c, 4, 76, 0
6, 41265, Note_on_c, 4, 72, 0
6, 41265, Note_on_c, 4, 69, 0
6, 41275, Note_on_c, 4, 69, 50
6, 41275, Note_on_c, 4, 72, 50
6, 41275, Note_on_c, 4, 76, 50
6, 41280, Note_on_c, 4, 64, 100
6, 41280, Note_on_c, 4, 67, 100
6, 41280, Note_on_c, 4, 71, 100
6, 41307, Note_on_c, 4, 71, 0
6, 41307, Note_on_c, 4, 64, 0
6, 41307, Note_on_c, 4, 67, 0
6, 41320, Note_on_c, 4, 69, 0
6, 41320, Note_on_c, 4, 76, 0
6, 41320, Note_on_c, 4, 72, 0
6, 41335, Note_on_c, 4, 64, 50
6, 41335, Note_on_c, 4, 67, 50
6, 41335, Note_on_c, 4, 71, 50
6, 41362, Note_on_c, 4, 71, 0
6, 41362, Note_on_c, 4, 67, 0
6, 41362, Note_on_c, 4, 64, 0
6, 41370, Note_on_c, 4, 71, 100
6, 41370, Note_on_c, 4, 67, 100
6, 41370, Note_on_c, 4, 64, 100
6, 41397, Note_on_c, 4, 64, 0
6, 41397, Note_on_c, 4, 67, 0
6, 41397, Note_on_c, 4, 71, 0
6, 41425, Note_on_c, 4, 71, 50
6, 41425, Note_on_c, 4, 67, 50
6, 41425, Note_on_c, 4, 64, 50
6, 41452, Note_on_c, 4, 64, 0
6, 41452, Note_on_c, 4, 67, 0
6, 41452, Note_on_c, 4, 71, 0
6, 41460, Note_on_c, 4, 71, 100
6, 41460, Note_on_c, 4, 67, 100
6, 41460, Note_on_c, 4, 64, 100
6, 41505, Note_on_c, 4, 64, 0
6, 41505, Note_on_c, 4, 67, 0
6, 41505, Note_on_c, 4, 71, 0
6, 41515, Note_on_c, 4, 71, 50
6, 41515, Note_on_c, 4, 67, 50
6, 41515, Note_on_c, 4, 64, 50
6, 41520, Note_on_c, 4, 64, 100
6, 41520, Note_on_c, 4, 71, 100
6, 41520, Note_on_c, 4, 67, 100
6, 41547, Note_on_c, 4, 64, 0
6, 41547, Note_on_c, 4, 71, 0
6, 41547, Note_on_c, 4, 67, 0
6, 41560, Note_on_c, 4, 64, 0
6, 41560, Note_on_c, 4, 71, 0
6, 41560, Note_on_c, 4, 67, 0
6, 41575, Note_on_c, 4, 64, 50
6, 41575, Note_on_c, 4, 71, 50
6, 41575, Note_on_c, 4, 67, 50
6, 41602, Note_on_c, 4, 67, 0
6, 41602, Note_on_c, 4, 71, 0
6, 41602, Note_on_c, 4, 64, 0
6, 41610, Note_on_c, 4, 67, 100
6, 41610, Note_on_c, 4, 64, 100
6, 41610, Note_on_c, 4, 71, 100
6, 41637, Note_on_c, 4, 71, 0
6, 41637, Note_on_c, 4, 64, 0
6, 41637, Note_on_c, 4, 67, 0
6, 41665, Note_on_c, 4, 67, 50
6, 41665, Note_on_c, 4, 64, 50
6, 41665, Note_on_c, 4, 71, 50
6, 41692, Note_on_c, 4, 71, 0
6, 41692, Note_on_c, 4, 64, 0
6, 41692, Note_on_c, 4, 67, 0
6, 41700, Note_on_c, 4, 76, 100
6, 41700, Note_on_c, 4, 67, 100
6, 41700, Note_on_c, 4, 72, 100
6, 41745, Note_on_c, 4, 72, 0
6, 41745, Note_on_c, 4, 67, 0
6, 41745, Note_on_c, 4, 76, 0
6, 41755, Note_on_c, 4, 76, 50
6, 41755, Note_on_c, 4, 67, 50
6, 41755, Note_on_c, 4, 72, 50
6, 41760, Note_on_c, 4, 67, 100
6, 41760, Note_on_c, 4, 72, 100
6, 41760, Note_on_c, 4, 76, 100
6, 41787, Note_on_c, 4, 72, 0
6, 41787, Note_on_c, 4, 76, 0
6, 41787, Note_on_c, 4, 67, 0
6, 41800, Note_on_c, 4, 67, 0
6, 41800, Note_on_c, 4, 72, 0
6, 41800, Note_on_c, 4, 76, 0
6, 41815, Note_on_c, 4, 67, 50
6, 41815, Note_on_c, 4, 72, 50
6, 41815, Note_on_c, 4, 76, 50
6, 41842, Note_on_c, 4, 76, 0
6, 41842, Note_on_c, 4, 72, 0
6, 41842, Note_on_c, 4, 67, 0
6, 41850, Note_on_c, 4, 76, 100
6, 41850, Note_on_c, 4, 72, 100
6, 41850, Note_on_c, 4, 67, 100
6, 41877, Note_on_c, 4, 67, 0
6, 41877, Note_on_c, 4, 72, 0
6, 41877, Note_on_c, 4, 76, 0
6, 41905, Note_on_c, 4, 76, 50
6, 41905, Note_on_c, 4, 72, 50
6, 41905, Note_on_c, 4, 67, 50
6, 41932, Note_on_c, 4, 67, 0
6, 41932, Note_on_c, 4, 72, 0
6, 41932, Note_on_c, 4, 76, 0
6, 41940, Note_on_c, 4, 67, 100
6, 41940, Note_on_c, 4, 74, 100
6, 41940, Note_on_c, 4, 71, 100
6, 41985, Note_on_c, 4, 71, 0
6, 41985, Note_on_c, 4, 74, 0
6, 41985, Note_on_c, 4, 67, 0
6, 41995, Note_on_c, 4, 67, 50
6, 41995, Note_on_c, 4, 74, 50
6, 41995, Note_on_c, 4, 71, 50
6, 42000, Note_on_c, 4, 71, 100
6, 42000, Note_on_c, 4, 67, 100
6, 42000, Note_on_c, 4, 74, 100
6, 42027, Note_on_c, 4, 71, 0
6, 42027, Note_on_c, 4, 67, 0
6, 42027, Note_on_c, 4, 74, 0
6, 42040, Note_on_c, 4, 71, 0
6, 42040, Note_on_c, 4, 67, 0
6, 42040, Note_on_c, 4, 74, 0
6, 42055, Note_on_c, 4, 71, 50
6, 42055, Note_on_c, 4, 67, 50
6, 42055, Note_on_c, 4, 74, 50
6, 42082, Note_on_c, 4, 74, 0
6, 42082, Note_on_c, 4, 67, 0
6, 42082, Note_on_c, 4, 71, 0
6, 42090, Note_on_c, 4, 74, 100
6, 42090, Note_on_c, 4, 67, 100
6, 42090, Note_on_c, 4, 71, 100
6, 42117, Note_on_c, 4, 71, 0
6, 42117, Note_on_c, 4, 67, 0
6, 42117, Note_on_c, 4, 74, 0
6, 42145, Note_on_c, 4, 74, 50
6, 42145, Note_on_c, 4, 67, 50
6, 42145, Note_on_c, 4, 71, 50
6, 42172, Note_on_c, 4, 71, 0
6, 42172, Note_on_c, 4, 67, 0
6, 42172, Note_on_c, 4, 74, 0
6, 42180, Note_on_c, 4, 66, 100
6, 42180, Note_on_c, 4, 62, 100
6, 42180, Note_on_c, 4, 69, 100
6, 42225, Note_on_c, 4, 69, 0
6, 42225, Note_on_c, 4, 62, 0
6, 42225, Note_on_c, 4, 66, 0
6, 42235, Note_on_c, 4, 66, 50
6, 42235, Note_on_c, 4, 62, 50
6, 42235, Note_on_c, 4, 69, 50
6, 42240, Note_on_c, 4, 64, 100
6, 42240, Note_on_c, 4, 67, 100
6, 42240, Note_on_c, 4, 71, 100
6, 42267, Note_on_c, 4, 71, 0
6, 42267, Note_on_c, 4, 64, 0
6, 42267, Note_on_c, 4, 67, 0
6, 42280, Note_on_c, 4, 66, 0
6, 42280, Note_on_c, 4, 69, 0
6, 42280, Note_on_c, 4, 62, 0
6, 42295, Note_on_c, 4, 64, 50
6, 42295, Note_on_c, 4, 67, 50
6, 42295, Note_on_c, 4, 71, 50
6, 42322, Note_on_c, 4, 71, 0
6, 42322, Note_on_c, 4, 67, 0
6, 42322, Note_on_c, 4, 64, 0
6, 42330, Note_on_c, 4, 71, 100
6, 42330, Note_on_c, 4, 67, 100
6, 42330, Note_on_c, 4, 64, 100
6, 42357, Note_on_c, 4, 64, 0
6, 42357, Note_on_c, 4, 67, 0
6, 42357, Note_on_c, 4, 71, 0
6, 42385, Note_on_c, 4, 71, 50
6, 42385, Note_on_c, 4, 67, 50
6, 42385, Note_on_c, 4, 64, 50
6, 42412, Note_on_c, 4, 64, 0
6, 42412, Note_on_c, 4, 67, 0
6, 42412, Note_on_c, 4, 71, 0
6, 42420, Note_on_c, 4, 71, 100
6, 42420, Note_on_c, 4, 67, 100
6, 42420, Note_on_c, 4, 64, 100
6, 42465, Note_on_c, 4, 64, 0
6, 42465, Note_on_c, 4, 67, 0
6, 42465, Note_on_c, 4, 71, 0
6, 42475, Note_on_c, 4, 71, 50
6, 42475, Note_on_c, 4, 67, 50
6, 42475, Note_on_c, 4, 64, 50
6, 42480, Note_on_c, 4, 64, 100
6, 42480, Note_on_c, 4, 67, 100
6, 42480, Note_on_c, 4, 71, 100
6, 42507, Note_on_c, 4, 64, 0
6, 42507, Note_on_c, 4, 71, 0
6, 42507, Note_on_c, 4, 67, 0
6, 42520, Note_on_c, 4, 64, 0
6, 42520, Note_on_c, 4, 67, 0
6, 42520, Note_on_c, 4, 71, 0
6, 42535, Note_on_c, 4, 64, 50
6, 42535, Note_on_c, 4, 67, 50
6, 42535, Note_on_c, 4, 71, 50
6, 42562, Note_on_c, 4, 71, 0
6, 42562, Note_on_c, 4, 67, 0
6, 42562, Note_on_c, 4, 64, 0
6, 42570, Note_on_c, 4, 64, 100
6, 42570, Note_on_c, 4, 67, 100
6, 42570, Note_on_c, 4, 71, 100
6, 42597, Note_on_c, 4, 71, 0
6, 42597, Note_on_c, 4, 67, 0
6, 42597, Note_on_c, 4, 64, 0
6, 42625, Note_on_c, 4, 64, 50
6, 42625, Note_on_c, 4, 67, 50
6, 42625, Note_on_c, 4, 71, 50
6, 42652, Note_on_c, 4, 71, 0
6, 42652, Note_on_c, 4, 67, 0
6, 42652, Note_on_c, 4, 64, 0
6, 42660, Note_on_c, 4, 76, 100
6, 42660, Note_on_c, 4, 69, 100
6, 42660, Note_on_c, 4, 72, 100
6, 42705, Note_on_c, 4, 72, 0
6, 42705, Note_on_c, 4, 69, 0
6, 42705, Note_on_c, 4, 76, 0
6, 42715, Note_on_c, 4, 76, 50
6, 42715, Note_on_c, 4, 69, 50
6, 42715, Note_on_c, 4, 72, 50
6, 42720, Note_on_c, 4, 64, 100
6, 42720, Note_on_c, 4, 71, 100
6, 42720, Note_on_c, 4, 67, 100
6, 42747, Note_on_c, 4, 67, 0
6, 42747, Note_on_c, 4, 64, 0
6, 42747, Note_on_c, 4, 71, 0
6, 42760, Note_on_c, 4, 76, 0
6, 42760, Note_on_c, 4, 72, 0
6, 42760, Note_on_c, 4, 69, 0
6, 42775, Note_on_c, 4, 64, 50
6, 42775, Note_on_c, 4, 71, 50
6, 42775, Note_on_c, 4, 67, 50
6, 42802, Note_on_c, 4, 67, 0
6, 42802, Note_on_c, 4, 71, 0
6, 42802, Note_on_c, 4, 64, 0
6, 42810, Note_on_c, 4, 64, 100
6, 42810, Note_on_c, 4, 71, 100
6, 42810, Note_on_c, 4, 67, 100
6, 42837, Note_on_c, 4, 67, 0
6, 42837, Note_on_c, 4, 71, 0
6, 42837, Note_on_c, 4, 64, 0
6, 42865, Note_on_c, 4, 64, 50
6, 42865, Note_on_c, 4, 71, 50
6, 42865, Note_on_c, 4, 67, 50
6, 42892, Note_on_c, 4, 67, 0
6, 42892, Note_on_c, 4, 71, 0
6, 42892, Note_on_c, 4, 64, 0
6, 42900, Note_on_c, 4, 64, 100
6, 42900, Note_on_c, 4, 71, 100
6, 42900, Note_on_c, 4, 67, 100
6, 42945, Note_on_c, 4, 67, 0
6, 42945, Note_on_c, 4, 71, 0
6, 42945, Note_on_c, 4, 64, 0
6, 42955, Note_on_c, 4, 64, 50
6, 42955, Note_on_c, 4, 71, 50
6, 42955, Note_on_c, 4, 67, 50
6, 42960, Note_on_c, 4, 67, 100
6, 42960, Note_on_c, 4, 64, 100
6, 42960, Note_on_c, 4, 71, 100
6, 42987, Note_on_c, 4, 67, 0
6, 42987, Note_on_c, 4, 64, 0
6, 42987, Note_on_c, 4, 71, 0
6, 43000, Note_on_c, 4, 67, 0
6, 43000, Note_on_c, 4, 64, 0
6, 43000, Note_on_c, 4, 71, 0
6, 43015, Note_on_c, 4, 67, 50
6, 43015, Note_on_c, 4, 64, 50
6, 43015, Note_on_c, 4, 71, 50
6, 43042, Note_on_c, 4, 71, 0
6, 43042, Note_on_c, 4, 64, 0
6, 43042, Note_on_c, 4, 67, 0
6, 43050, Note_on_c, 4, 71, 100
6, 43050, Note_on_c, 4, 64, 100
6, 43050, Note_on_c, 4, 67, 100
6, 43077, Note_on_c, 4, 67, 0
6, 43077, Note_on_c, 4, 64, 0
6, 43077, Note_on_c, 4, 71, 0
6, 43105, Note_on_c, 4, 71, 50
6, 43105, Note_on_c, 4, 64, 50
6, 43105, Note_on_c, 4, 67, 50
6, 43132, Note_on_c, 4, 67, 0
6, 43132, Note_on_c, 4, 64, 0
6, 43132, Note_on_c, 4, 71, 0
6, 43140, Note_on_c, 4, 69, 100
6, 43140, Note_on_c, 4, 76, 100
6, 43140, Note_on_c, 4, 72, 100
6, 43185, Note_on_c, 4, 72, 0
6, 43185, Note_on_c, 4, 76, 0
6, 43185, Note_on_c, 4, 69, 0
6, 43195, Note_on_c, 4, 69, 50
6, 43195, Note_on_c, 4, 76, 50
6, 43195, Note_on_c, 4, 72, 50
6, 43200, Note_on_c, 4, 67, 100
6, 43200, Note_on_c, 4, 71, 100
6, 43200, Note_on_c, 4, 64, 100
6, 43227, Note_on_c, 4, 64, 0
6, 43227, Note_on_c, 4, 67, 0
6, 43227, Note_on_c, 4, 71, 0
6, 43240, Note_on_c, 4, 69, 0
6, 43240, Note_on_c, 4, 72, 0
6, 43240, Note_on_c, 4, 76, 0
6, 43255, Note_on_c, 4, 67, 50
6, 43255, Note_on_c, 4, 71, 50
6, 43255, Note_on_c, 4, 64, 50
6, 43282, Note_on_c, 4, 64, 0
6, 43282, Note_on_c, 4, 71, 0
6, 43282, Note_on_c, 4, 67, 0
6, 43290, Note_on_c, 4, 67, 100
6, 43290, Note_on_c, 4, 64, 100
6, 43290, Note_on_c, 4, 71, 100
6, 43317, Note_on_c, 4, 71, 0
6, 43317, Note_on_c, 4, 64, 0
6, 43317, Note_on_c, 4, 67, 0
6, 43345, Note_on_c, 4, 67, 50
6, 43345, Note_on_c, 4, 64, 50
6, 43345, Note_on_c, 4, 71, 50
6, 43372, Note_on_c, 4, 71, 0
6, 43372, Note_on_c, 4, 64, 0
6, 43372, Note_on_c, 4, 67, 0
6, 43380, Note_on_c, 4, 71, 100
6, 43380, Note_on_c, 4, 64, 100
6, 43380, Note_on_c, 4, 67, 100
6, 43425, Note_on_c, 4, 67, 0
6, 43425, Note_on_c, 4, 64, 0
6, 43425, Note_on_c, 4, 71, 0
6, 43435, Note_on_c, 4, 71, 50
6, 43435, Note_on_c, 4, 64, 50
6, 43435, Note_on_c, 4, 67, 50
6, 43440, Note_on_c, 4, 71, 100
6, 43440, Note_on_c, 4, 67, 100
6, 43440, Note_on_c, 4, 64, 100
6, 43467, Note_on_c, 4, 67, 0
6, 43467, Note_on_c, 4, 71, 0
6, 43467, Note_on_c, 4, 64, 0
6, 43480, Note_on_c, 4, 71, 0
6, 43480, Note_on_c, 4, 67, 0
6, 43480, Note_on_c, 4, 64, 0
6, 43495, Note_on_c, 4, 71, 50
6, 43495, Note_on_c, 4, 67, 50
6, 43495, Note_on_c, 4, 64, 50
6, 43522, Note_on_c, 4, 64, 0
6, 43522, Note_on_c, 4, 67, 0
6, 43522, Note_on_c, 4, 71, 0
6, 43530, Note_on_c, 4, 67, 100
6, 43530, Note_on_c, 4, 71, 100
6, 43530, Note_on_c, 4, 64, 100
6, 43557, Note_on_c, 4, 64, 0
6, 43557, Note_on_c, 4, 71, 0
6, 43557, Note_on_c, 4, 67, 0
6, 43585, Note_on_c, 4, 67, 50
6, 43585, Note_on_c, 4, 71, 50
6, 43585, Note_on_c, 4, 64, 50
6, 43612, Note_on_c, 4, 64, 0
6, 43612, Note_on_c, 4, 71, 0
6, 43612, Note_on_c, 4, 67, 0
6, 43620, Note_on_c, 4, 76, 100
6, 43620, Note_on_c, 4, 67, 100
6, 43620, Note_on_c, 4, 72, 100
6, 43665, Note_on_c, 4, 72, 0
6, 43665, Note_on_c, 4, 67, 0
6, 43665, Note_on_c, 4, 76, 0
6, 43675, Note_on_c, 4, 76, 50
6, 43675, Note_on_c, 4, 67, 50
6, 43675, Note_on_c, 4, 72, 50
6, 43680, Note_on_c, 4, 72, 100
6, 43680, Note_on_c, 4, 76, 100
6, 43680, Note_on_c, 4, 67, 100
6, 43707, Note_on_c, 4, 72, 0
6, 43707, Note_on_c, 4, 76, 0
6, 43707, Note_on_c, 4, 67, 0
6, 43720, Note_on_c, 4, 72, 0
6, 43720, Note_on_c, 4, 76, 0
6, 43720, Note_on_c, 4, 67, 0
6, 43735, Note_on_c, 4, 72, 50
6, 43735, Note_on_c, 4, 76, 50
6, 43735, Note_on_c, 4, 67, 50
6, 43762, Note_on_c, 4, 67, 0
6, 43762, Note_on_c, 4, 76, 0
6, 43762, Note_on_c, 4, 72, 0
6, 43770, Note_on_c, 4, 76, 100
6, 43770, Note_on_c, 4, 67, 100
6, 43770, Note_on_c, 4, 72, 100
6, 43797, Note_on_c, 4, 72, 0
6, 43797, Note_on_c, 4, 67, 0
6, 43797, Note_on_c, 4, 76, 0
6, 43825, Note_on_c, 4, 76, 50
6, 43825, Note_on_c, 4, 67, 50
6, 43825, Note_on_c, 4, 72, 50
6, 43852, Note_on_c, 4, 72, 0
6, 43852, Note_on_c, 4, 67, 0
6, 43852, Note_on_c, 4, 76, 0
6, 43860, Note_on_c, 4, 71, 100
6, 43860, Note_on_c, 4, 74, 100
6, 43860, Note_on_c, 4, 67, 100
6, 43905, Note_on_c, 4, 67, 0
6, 43905, Note_on_c, 4, 74, 0
6, 43905, Note_on_c, 4, 71, 0
6, 43915, Note_on_c, 4, 71, 50
6, 43915, Note_on_c, 4, 74, 50
6, 43915, Note_on_c, 4, 67, 50
6, 43920, Note_on_c, 4, 71, 100
6, 43920, Note_on_c, 4, 74, 100
6, 43920, Note_on_c, 4, 67, 100
6, 43947, Note_on_c, 4, 67, 0
6, 43947, Note_on_c, 4, 71, 0
6, 43947, Note_on_c, 4, 74, 0
6, 43960, Note_on_c, 4, 71, 0
6, 43960, Note_on_c, 4, 74, 0
6, 43960, Note_on_c, 4, 67, 0
6, 43975, Note_on_c, 4, 71, 50
6, 43975, Note_on_c, 4, 74, 50
6, 43975, Note_on_c, 4, 67, 50
6, 44002, Note_on_c, 4, 67, 0
6, 44002, Note_on_c, 4, 74, 0
6, 44002, Note_on_c, 4, 71, 0
6, 44010, Note_on_c, 4, 74, 100
6, 44010, Note_on_c, 4, 71, 100
6, 44010, Note_on_c, 4, 67, 100
6, 44037, Note_on_c, 4, 67, 0
6, 44037, Note_on_c, 4, 71, 0
6, 44037, Note_on_c, 4, 74, 0
6, 44065, Note_on_c, 4, 74, 50
6, 44065, Note_on_c, 4, 71, 50
6, 44065, Note_on_c, 4, 67, 50
6, 44092, Note_on_c, 4, 67, 0
6, 44092, Note_on_c, 4, 71, 0
6, 44092, Note_on_c, 4, 74, 0
6, 44100, Note_on_c, 4, 62, 100
6, 44100, Note_on_c, 4, 69, 100
6, 44100, Note_on_c, 4, 66, 100
6, 44145, Note_on_c, 4, 66, 0
6, 44145, Note_on_c, 4, 69, 0
6, 44145, Note_on_c, 4, 62, 0
6, 44155, Note_on_c, 4, 62, 50
6, 44155, Note_on_c, 4, 69, 50
6, 44155, Note_on_c, 4, 66, 50
6, 44160, Note_on_c, 4, 64, 100
6, 44160, Note_on_c, 4, 67, 100
6, 44160, Note_on_c, 4, 71, 100
6, 44187, Note_on_c, 4, 71, 0
6, 44187, Note_on_c, 4, 64, 0
6, 44187, Note_on_c, 4, 67, 0
6, 44200, Note_on_c, 4, 62, 0
6, 44200, Note_on_c, 4, 66, 0
6, 44200, Note_on_c, 4, 69, 0
6, 44215, Note_on_c, 4, 64, 50
6, 44215, Note_on_c, 4, 67, 50
6, 44215, Note_on_c, 4, 71, 50
6, 44242, Note_on_c, 4, 71, 0
6, 44242, Note_on_c, 4, 67, 0
6, 44242, Note_on_c, 4, 64, 0
6, 44250, Note_on_c, 4, 67, 100
6, 44250, Note_on_c, 4, 71, 100
6, 44250, Note_on_c, 4, 64, 100
6, 44277, Note_on_c, 4, 64, 0
6, 44277, Note_on_c, 4, 71, 0
6, 44277, Note_on_c, 4, 67, 0
6, 44305, Note_on_c, 4, 67, 50
6, 44305, Note_on_c, 4, 71, 50
6, 44305, Note_on_c, 4, 64, 50
6, 44332, Note_on_c, 4, 64, 0
6, 44332, Note_on_c, 4, 71, 0
6, 44332, Note_on_c, 4, 67, 0
6, 44340, Note_on_c, 4, 64, 100
6, 44340, Note_on_c, 4, 71, 100
6, 44340, Note_on_c, 4, 67, 100
6, 44385, Note_on_c, 4, 67, 0
6, 44385, Note_on_c, 4, 71, 0
6, 44385, Note_on_c, 4, 64, 0
6, 44395, Note_on_c, 4, 64, 50
6, 44395, Note_on_c, 4, 71, 50
6, 44395, Note_on_c, 4, 67, 50
6, 44400, Note_on_c, 4, 64, 100
6, 44400, Note_on_c, 4, 67, 100
6, 44400, Note_on_c, 4, 71, 100
6, 44427, Note_on_c, 4, 67, 0
6, 44427, Note_on_c, 4, 64, 0
6, 44427, Note_on_c, 4, 71, 0
6, 44440, Note_on_c, 4, 64, 0
6, 44440, Note_on_c, 4, 67, 0
6, 44440, Note_on_c, 4, 71, 0
6, 44455, Note_on_c, 4, 64, 50
6, 44455, Note_on_c, 4, 67, 50
6, 44455, Note_on_c, 4, 71, 50
6, 44482, Note_on_c, 4, 71, 0
6, 44482, Note_on_c, 4, 67, 0
6, 44482, Note_on_c, 4, 64, 0
6, 44490, Note_on_c, 4, 71, 100
6, 44490, Note_on_c, 4, 67, 100
6, 44490, Note_on_c, 4, 64, 100
6, 44517, Note_on_c, 4, 64, 0
6, 44517, Note_on_c, 4, 67, 0
6, 44517, Note_on_c, 4, 71, 0
6, 44545, Note_on_c, 4, 71, 50
6, 44545, Note_on_c, 4, 67, 50
6, 44545, Note_on_c, 4, 64, 50
6, 44572, Note_on_c, 4, 64, 0
6, 44572, Note_on_c, 4, 67, 0
6, 44572, Note_on_c, 4, 71, 0
6, 44580, Note_on_c, 4, 69, 100
6, 44580, Note_on_c, 4, 72, 100
6, 44580, Note_on_c, 4, 76, 100
6, 44625, Note_on_c, 4, 76, 0
6, 44625, Note_on_c, 4, 72, 0
6, 44625, Note_on_c, 4, 69, 0
6, 44635, Note_on_c, 4, 69, 50
6, 44635, Note_on_c, 4, 72, 50
6, 44635, Note_on_c, 4, 76, 50
6, 44640, Note_on_c, 4, 67, 100
6, 44640, Note_on_c, 4, 64, 100
6, 44640, Note_on_c, 4, 71, 100
6, 44667, Note_on_c, 4, 71, 0
6, 44667, Note_on_c, 4, 67, 0
6, 44667, Note_on_c, 4, 64, 0
6, 44680, Note_on_c, 4, 69, 0
6, 44680, Note_on_c, 4, 76, 0
6, 44680, Note_on_c, 4, 72, 0
6, 44695, Note_on_c, 4, 67, 50
6, 44695, Note_on_c, 4, 64, 50
6, 44695, Note_on_c, 4, 71, 50
6, 44722, Note_on_c, 4, 71, 0
6, 44722, Note_on_c, 4, 64, 0
6, 44722, Note_on_c, 4, 67, 0
6, 44730, Note_on_c, 4, 64, 100
6, 44730, Note_on_c, 4, 67, 100
6, 44730, Note_on_c, 4, 71, 100
6, 44757, Note_on_c, 4, 71, 0
6, 44757, Note_on_c, 4, 67, 0
6, 44757, Note_on_c, 4, 64, 0
6, 44785, Note_on_c, 4, 64, 50
6, 44785, Note_on_c, 4, 67, 50
6, 44785, Note_on_c, 4, 71, 50
6, 44812, Note_on_c, 4, 71, 0
6, 44812, Note_on_c, 4, 67, 0
6, 44812, Note_on_c, 4, 64, 0
6, 44820, Note_on_c, 4, 64, 100
6, 44820, Note_on_c, 4, 67, 100
6, 44820, Note_on_c, 4, 71, 100
6, 44865, Note_on_c, 4, 71, 0
6, 44865, Note_on_c, 4, 67, 0
6, 44865, Note_on_c, 4, 64, 0
6, 44875, Note_on_c, 4, 64, 50
6, 44875, Note_on_c, 4, 67, 50
6, 44875, Note_on_c, 4, 71, 50
6, 44880, Note_on_c, 4, 71, 100
6, 44880, Note_on_c, 4, 64, 100
6, 44880, Note_on_c, 4, 67, 100
6, 44907, Note_on_c, 4, 71, 0
6, 44907, Note_on_c, 4, 64, 0
6, 44907, Note_on_c, 4, 67, 0
6, 44920, Note_on_c, 4, 71, 0
6, 44920, Note_on_c, 4, 64, 0
6, 44920, Note_on_c, 4, 67, 0
6, 44935, Note_on_c, 4, 71, 50
6, 44935, Note_on_c, 4, 64, 50
6, 44935, Note_on_c, 4, 67, 50
6, 44962, Note_on_c, 4, 67, 0
6, 44962, Note_on_c, 4, 64, 0
6, 44962, Note_on_c, 4, 71, 0
6, 44970, Note_on_c, 4, 64, 100
6, 44970, Note_on_c, 4, 71, 100
6, 44970, Note_on_c, 4, 67, 100
6, 44997, Note_on_c, 4, 67, 0
6, 44997, Note_on_c, 4, 71, 0
6, 44997, Note_on_c, 4, 64, 0
6, 45025, Note_on_c, 4, 64, 50
6, 45025, Note_on_c, 4, 71, 50
6, 45025, Note_on_c, 4, 67, 50
6, 45052, Note_on_c, 4, 67, 0
6, 45052, Note_on_c, 4, 71, 0
6, 45052, Note_on_c, 4, 64, 0
6, 45060, Note_on_c, 4, 72, 100
6, 45060, Note_on_c, 4, 69, 100
6, 45060, Note_on_c, 4, 76, 100
6, 45105, Note_on_c, 4, 76, 0
6, 45105, Note_on_c, 4, 69, 0
6, 45105, Note_on_c, 4, 72, 0
6, 45115, Note_on_c, 4, 72, 50
6, 45115, Note_on_c, 4, 69, 50
6, 45115, Note_on_c, 4, 76, 50
6, 45120, Note_on_c, 4, 71, 100
6, 45120, Note_on_c, 4, 64, 100
6, 45120, Note_on_c, 4, 67, 100
6, 45147, Note_on_c, 4, 67, 0
6, 45147, Note_on_c, 4, 71, 0
6, 45147, Note_on_c, 4, 64, 0
6, 45160, Note_on_c, 4, 72, 0
6, 45160, Note_on_c, 4, 76, 0
6, 45160, Note_on_c, 4, 69, 0
6, 45175, Note_on_c, 4, 71, 50
6, 45175, Note_on_c, 4, 64, 50
6, 45175, Note_on_c, 4, 67, 50
6, 45202, Note_on_c, 4, 67, 0
6, 45202, Note_on_c, 4, 64, 0
6, 45202, Note_on_c, 4, 71, 0
6, 45210, Note_on_c, 4, 67, 100
6, 45210, Note_on_c, 4, 64, 100
6, 45210, Note_on_c, 4, 71, 100
6, 45237, Note_on_c, 4, 71, 0
6, 45237, Note_on_c, 4, 64, 0
6, 45237, Note_on_c, 4, 67, 0
6, 45265, Note_on_c, 4, 67, 50
6, 45265, Note_on_c, 4, 64, 50
6, 45265, Note_on_c, 4, 71, 50
6, 45292, Note_on_c, 4, 71, 0
6, 45292, Note_on_c, 4, 64, 0
6, 45292, Note_on_c, 4, 67, 0
6, 45300, Note_on_c, 4, 64, 100
6, 45300, Note_on_c, 4, 67, 100
6, 45300, Note_on_c, 4, 71, 100
6, 45345, Note_on_c, 4, 71, 0
6, 45345, Note_on_c, 4, 67, 0
6, 45345, Note_on_c, 4, 64, 0
6, 45355, Note_on_c, 4, 64, 50
6, 45355, Note_on_c, 4, 67, 50
6, 45355, Note_on_c, 4, 71, 50
6, 45360, Note_on_c, 4, 64, 100
6, 45360, Note_on_c, 4, 67, 100
6, 45360, Note_on_c, 4, 71, 100
6, 45387, Note_on_c, 4, 71, 0
6, 45387, Note_on_c, 4, 64, 0
6, 45387, Note_on_c, 4, 67, 0
6, 45400, Note_on_c, 4, 64, 0
6, 45400, Note_on_c, 4, 67, 0
6, 45400, Note_on_c, 4, 71, 0
6, 45415, Note_on_c, 4, 64, 50
6, 45415, Note_on_c, 4, 67, 50
6, 45415, Note_on_c, 4, 71, 50
6, 45442, Note_on_c, 4, 71, 0
6, 45442, Note_on_c, 4, 67, 0
6, 45442, Note_on_c, 4, 64, 0
6, 45450, Note_on_c, 4, 67, 100
6, 45450, Note_on_c, 4, 64, 100
6, 45450, Note_on_c, 4, 71, 100
6, 45477, Note_on_c, 4, 71, 0
6, 45477, Note_on_c, 4, 64, 0
6, 45477, Note_on_c, 4, 67, 0
6, 45505, Note_on_c, 4, 67, 50
6, 45505, Note_on_c, 4, 64, 50
6, 45505, Note_on_c, 4, 71, 50
6, 45532, Note_on_c, 4, 71, 0
6, 45532, Note_on_c, 4, 64, 0
6, 45532, Note_on_c, 4, 67, 0
6, 45540, Note_on_c, 4, 72, 100
6, 45540, Note_on_c, 4, 67, 100
6, 45540, Note_on_c, 4, 76, 100
6, 45585, Note_on_c, 4, 76, 0
6, 45585, Note_on_c, 4, 67, 0
6, 45585, Note_on_c, 4, 72, 0
6, 45595, Note_on_c, 4, 72, 50
6, 45595, Note_on_c, 4, 67, 50
6, 45595, Note_on_c, 4, 76, 50
6, 45600, Note_on_c, 4, 72, 100
6, 45600, Note_on_c, 4, 67, 100
6, 45600, Note_on_c, 4, 76, 100
6, 45627, Note_on_c, 4, 76, 0
6, 45627, Note_on_c, 4, 72, 0
6, 45627, Note_on_c, 4, 67, 0
6, 45640, Note_on_c, 4, 72, 0
6, 45640, Note_on_c, 4, 67, 0
6, 45640, Note_on_c, 4, 76, 0
6, 45655, Note_on_c, 4, 72, 50
6, 45655, Note_on_c, 4, 67, 50
6, 45655, Note_on_c, 4, 76, 50
6, 45682, Note_on_c, 4, 76, 0
6, 45682, Note_on_c, 4, 67, 0
6, 45682, Note_on_c, 4, 72, 0
6, 45690, Note_on_c, 4, 67, 100
6, 45690, Note_on_c, 4, 72, 100
6, 45690, Note_on_c, 4, 76, 100
6, 45717, Note_on_c, 4, 76, 0
6, 45717, Note_on_c, 4, 72, 0
6, 45717, Note_on_c, 4, 67, 0
6, 45745, Note_on_c, 4, 67, 50
6, 45745, Note_on_c, 4, 72, 50
6, 45745, Note_on_c, 4, 76, 50
6, 45772, Note_on_c, 4, 76, 0
6, 45772, Note_on_c, 4, 72, 0
6, 45772, Note_on_c, 4, 67, 0
6, 45780, Note_on_c, 4, 74, 100
6, 45780, Note_on_c, 4, 67, 100
6, 45780, Note_on_c, 4, 71, 100
6, 45825, Note_on_c, 4, 71, 0
6, 45825, Note_on_c, 4, 67, 0
6, 45825, Note_on_c, 4, 74, 0
6, 45835, Note_on_c, 4, 74, 50
6, 45835, Note_on_c, 4, 67, 50
6, 45835, Note_on_c, 4, 71, 50
6, 45840, Note_on_c, 4, 74, 100
6, 45840, Note_on_c, 4, 71, 100
6, 45840, Note_on_c, 4, 67, 100
6, 45867, Note_on_c, 4, 71, 0
6, 45867, Note_on_c, 4, 74, 0
6, 45867, Note_on_c, 4, 67, 0
6, 45880, Note_on_c, 4, 74, 0
6, 45880, Note_on_c, 4, 71, 0
6, 45880, Note_on_c, 4, 67, 0
6, 45895, Note_on_c, 4, 74, 50
6, 45895, Note_on_c, 4, 71, 50
6, 45895, Note_on_c, 4, 67, 50
6, 45922, Note_on_c, 4, 67, 0
6, 45922, Note_on_c, 4, 71, 0
6, 45922, Note_on_c, 4, 74, 0
6, 45930, Note_on_c, 4, 67, 100
6, 45930, Note_on_c, 4, 71, 100
6, 45930, Note_on_c, 4, 74, 100
6, 45957, Note_on_c, 4, 74, 0
6, 45957, Note_on_c, 4, 71, 0
6, 45957, Note_on_c, 4, 67, 0
6, 45985, Note_on_c, 4, 67, 50
6, 45985, Note_on_c, 4, 71, 50
6, 45985, Note_on_c, 4, 74, 50
6, 46012, Note_on_c, 4, 74, 0
6, 46012, Note_on_c, 4, 71, 0
6, 46012, Note_on_c, 4, 67, 0
6, 46020, Note_on_c, 4, 69, 100
6, 46020, Note_on_c, 4, 66, 100
6, 46020, Note_on_c, 4, 62, 100
6, 46065, Note_on_c, 4, 62, 0
6, 46065, Note_on_c, 4, 66, 0
6, 46065, Note_on_c, 4, 69, 0
6, 46075, Note_on_c, 4, 69, 50
6, 46075, Note_on_c, 4, 66, 50
6, 46075, Note_on_c, 4, 62, 50
6, 46080, Note_on_c, 4, 71, 100
6, 46080, Note_on_c, 4, 67, 100
6, 46080, Note_on_c, 4, 64, 100
6, 46107, Note_on_c, 4, 64, 0
6, 46107, Note_on_c, 4, 71, 0
6, 46107, Note_on_c, 4, 67, 0
6, 46120, Note_on_c, 4, 69, 0
6, 46120, Note_on_c, 4, 62, 0
6, 46120, Note_on_c, 4, 66, 0
6, 46135, Note_on_c, 4, 71, 50
6, 46135, Note_on_c, 4, 67, 50
6, 46135, Note_on_c, 4, 64, 50
6, 46162, Note_on_c, 4, 64, 0
6, 46162, Note_on_c, 4, 67, 0
6, 46162, Note_on_c, 4, 71, 0
6, 46170, Note_on_c, 4, 64, 100
6, 46170, Note_on_c, 4, 67, 100
6, 46170, Note_on_c, 4, 71, 100
6, 46197, Note_on_c, 4, 71, 0
6, 46197, Note_on_c, 4, 67, 0
6, 46197, Note_on_c, 4, 64, 0
6, 46225, Note_on_c, 4, 64, 50
6, 46225, Note_on_c, 4, 67, 50
6, 46225, Note_on_c, 4, 71, 50
6, 46252, Note_on_c, 4, 71, 0
6, 46252, Note_on_c, 4, 67, 0
6, 46252, Note_on_c, 4, 64, 0
6, 46260, Note_on_c, 4, 64, 100
6, 46260, Note_on_c, 4, 67, 100
6, 46260, Note_on_c, 4, 71, 100
6, 46305, Note_on_c, 4, 71, 0
6, 46305, Note_on_c, 4, 67, 0
6, 46305, Note_on_c, 4, 64, 0
6, 46315, Note_on_c, 4, 64, 50
6, 46315, Note_on_c, 4, 67, 50
6, 46315, Note_on_c, 4, 71, 50
6, 46320, Note_on_c, 4, 64, 100
6, 46320, Note_on_c, 4, 71, 100
6, 46320, Note_on_c, 4, 67, 100
6, 46347, Note_on_c, 4, 71, 0
6, 46347, Note_on_c, 4, 64, 0
6, 46347, Note_on_c, 4, 67, 0
6, 46360, Note_on_c, 4, 64, 0
6, 46360, Note_on_c, 4, 71, 0
6, 46360, Note_on_c, 4, 67, 0
6, 46375, Note_on_c, 4, 64, 50
6, 46375, Note_on_c, 4, 71, 50
6, 46375, Note_on_c, 4, 67, 50
6, 46402, Note_on_c, 4, 67, 0
6, 46402, Note_on_c, 4, 71, 0
6, 46402, Note_on_c, 4, 64, 0
6, 46410, Note_on_c, 4, 67, 100
6, 46410, Note_on_c, 4, 71, 100
6, 46410, Note_on_c, 4, 64, 100
6, 46437, Note_on_c, 4, 64, 0
6, 46437, Note_on_c, 4, 71, 0
6, 46437, Note_on_c, 4, 67, 0
6, 46465, Note_on_c, 4, 67, 50
6, 46465, Note_on_c, 4, 71, 50
6, 46465, Note_on_c, 4, 64, 50
6, 46492, Note_on_c, 4, 64, 0
6, 46492, Note_on_c, 4, 71, 0
6, 46492, Note_on_c, 4, 67, 0
6, 46500, Note_on_c, 4, 69, 100
6, 46500, Note_on_c, 4, 76, 100
6, 46500, Note_on_c, 4, 72, 100
6, 46545, Note_on_c, 4, 72, 0
6, 46545, Note_on_c, 4, 76, 0
6, 46545, Note_on_c, 4, 69, 0
6, 46555, Note_on_c, 4, 69, 50
6, 46555, Note_on_c, 4, 76, 50
6, 46555, Note_on_c, 4, 72, 50
6, 46560, Note_on_c, 4, 67, 100
6, 46560, Note_on_c, 4, 64, 100
6, 46560, Note_on_c, 4, 71, 100
6, 46587, Note_on_c, 4, 71, 0
6, 46587, Note_on_c, 4, 67, 0
6, 46587, Note_on_c, 4, 64, 0
6, 46600, Note_on_c, 4, 69, 0
6, 46600, Note_on_c, 4, 72, 0
6, 46600, Note_on_c, 4, 76, 0
6, 46615, Note_on_c, 4, 67, 50
6, 46615, Note_on_c, 4, 64, 50
6, 46615, Note_on_c, 4, 71, 50
6, 46642, Note_on_c, 4, 71, 0
6, 46642, Note_on_c, 4, 64, 0
6, 46642, Note_on_c, 4, 67, 0
6, 46650, Note_on_c, 4, 71, 100
6, 46650, Note_on_c, 4, 67, 100
6, 46650, Note_on_c, 4, 64, 100
6, 46677, Note_on_c, 4, 64, 0
6, 46677, Note_on_c, 4, 67, 0
6, 46677, Note_on_c, 4, 71, 0
6, 46705, Note_on_c, 4, 71, 50
6, 46705, Note_on_c, 4, 67, 50
6, 46705, Note_on_c, 4, 64, 50
6, 46732, Note_on_c, 4, 64, 0
6, 46732, Note_on_c, 4, 67, 0
6, 46732, Note_on_c, 4, 71, 0
6, 46740, Note_on_c, 4, 67, 100
6, 46740, Note_on_c, 4, 71, 100
6, 46740, Note_on_c, 4, 64, 100
6, 46785, Note_on_c, 4, 64, 0
6, 46785, Note_on_c, 4, 71, 0
6, 46785, Note_on_c, 4, 67, 0
6, 46795, Note_on_c, 4, 67, 50
6, 46795, Note_on_c, 4, 71, 50
6, 46795, Note_on_c, 4, 64, 50
6, 46800, Note_on_c, 4, 71, 100
6, 46800, Note_on_c, 4, 64, 100
6, 46800, Note_on_c, 4, 67, 100
6, 46827, Note_on_c, 4, 64, 0
6, 46827, Note_on_c, 4, 67, 0
6, 46827, Note_on_c, 4, 71, 0
6, 46840, Note_on_c, 4, 71, 0
6, 46840, Note_on_c, 4, 64, 0
6, 46840, Note_on_c, 4, 67, 0
6, 46855, Note_on_c, 4, 71, 50
6, 46855, Note_on_c, 4, 64, 50
6, 46855, Note_on_c, 4, 67, 50
6, 46882, Note_on_c, 4, 67, 0
6, 46882, Note_on_c, 4, 64, 0
6, 46882, Note_on_c, 4, 71, 0
6, 46890, Note_on_c, 4, 64, 100
6, 46890, Note_on_c, 4, 67, 100
6, 46890, Note_on_c, 4, 71, 100
6, 46917, Note_on_c, 4, 71, 0
6, 46917, Note_on_c, 4, 67, 0
6, 46917, Note_on_c, 4, 64, 0
6, 46945, Note_on_c, 4, 64, 50
6, 46945, Note_on_c, 4, 67, 50
6, 46945, Note_on_c, 4, 71, 50
6, 46972, Note_on_c, 4, 71, 0
6, 46972, Note_on_c, 4, 67, 0
6, 46972, Note_on_c, 4, 64, 0
6, 46980, Note_on_c, 4, 76, 100
6, 46980, Note_on_c, 4, 72, 100
6, 46980, Note_on_c, 4, 69, 100
6, 47025, Note_on_c, 4, 69, 0
6, 47025, Note_on_c, 4, 72, 0
6, 47025, Note_on_c, 4, 76, 0
6, 47035, Note_on_c, 4, 76, 50
6, 47035, Note_on_c, 4, 72, 50
6, 47035, Note_on_c, 4, 69, 50
6, 47040, Note_on_c, 4, 64, 100
6, 47040, Note_on_c, 4, 67, 100
6, 47040, Note_on_c, 4, 71, 100
6, 47067, Note_on_c, 4, 71, 0
6, 47067, Note_on_c, 4, 64, 0
6, 47067, Note_on_c, 4, 67, 0
6, 47080, Note_on_c, 4, 76, 0
6, 47080, Note_on_c, 4, 69, 0
6, 47080, Note_on_c, 4, 72, 0
6, 47095, Note_on_c, 4, 64, 50
6, 47095, Note_on_c, 4, 67, 50
6, 47095, Note_on_c, 4, 71, 50
6, 47122, Note_on_c, 4, 71, 0
6, 47122, Note_on_c, 4, 67, 0
6, 47122, Note_on_c, 4, 64, 0
6, 47130, Note_on_c, 4, 64, 100
6, 47130, Note_on_c, 4, 67, 100
6, 47130, Note_on_c, 4, 71, 100
6, 47157, Note_on_c, 4, 71, 0
6, 47157, Note_on_c, 4, 67, 0
6, 47157, Note_on_c, 4, 64, 0
6, 47185, Note_on_c, 4, 64, 50
6, 47185, Note_on_c, 4, 67, 50
6, 47185, Note_on_c, 4, 71, 50
6, 47212, Note_on_c, 4, 71, 0
6, 47212, Note_on_c, 4, 67, 0
6, 47212, Note_on_c, 4, 64, 0
6, 47220, Note_on_c, 4, 64, 100
6, 47220, Note_on_c, 4, 67, 100
6, 47220, Note_on_c, 4, 71, 100
6, 47265, Note_on_c, 4, 71, 0
6, 47265, Note_on_c, 4, 67, 0
6, 47265, Note_on_c, 4, 64, 0
6, 47275, Note_on_c, 4, 64, 50
6, 47275, Note_on_c, 4, 67, 50
6, 47275, Note_on_c, 4, 71, 50
6, 47280, Note_on_c, 4, 67, 100
6, 47280, Note_on_c, 4, 64, 100
6, 47280, Note_on_c, 4, 71, 100
6, 47307, Note_on_c, 4, 71, 0
6, 47307, Note_on_c, 4, 64, 0
6, 47307, Note_on_c, 4, 67, 0
6, 47320, Note_on_c, 4, 67, 0
6, 47320, Note_on_c, 4, 64, 0
6, 47320, Note_on_c, 4, 71, 0
6, 47335, Note_on_c, 4, 67, 50
6, 47335, Note_on_c, 4, 64, 50
6, 47335, Note_on_c, 4, 71, 50
6, 47362, Note_on_c, 4, 71, 0
6, 47362, Note_on_c, 4, 64, 0
6, 47362, Note_on_c, 4, 67, 0
6, 47370, Note_on_c, 4, 67, 100
6, 47370, Note_on_c, 4, 64, 100
6, 47370, Note_on_c, 4, 71, 100
6, 47397, Note_on_c, 4, 71, 0
6, 47397, Note_on_c, 4, 64, 0
6, 47397, Note_on_c, 4, 67, 0
6, 47425, Note_on_c, 4, 67, 50
6, 47425, Note_on_c, 4, 64, 50
6, 47425, Note_on_c, 4, 71, 50
6, 47452, Note_on_c, 4, 71, 0
6, 47452, Note_on_c, 4, 64, 0
6, 47452, Note_on_c, 4, 67, 0
6, 47460, Note_on_c, 4, 76, 100
6, 47460, Note_on_c, 4, 69, 100
6, 47460, Note_on_c, 4, 72, 100
6, 47505, Note_on_c, 4, 72, 0
6, 47505, Note_on_c, 4, 69, 0
6, 47505, Note_on_c, 4, 76, 0
6, 47515, Note_on_c, 4, 76, 50
6, 47515, Note_on_c, 4, 69, 50
6, 47515, Note_on_c, 4, 72, 50
6, 47520, Note_on_c, 4, 64, 100
6, 47520, Note_on_c, 4, 71, 100
6, 47520, Note_on_c, 4, 67, 100
6, 47547, Note_on_c, 4, 67, 0
6, 47547, Note_on_c, 4, 64, 0
6, 47547, Note_on_c, 4, 71, 0
6, 47560, Note_on_c, 4, 76, 0
6, 47560, Note_on_c, 4, 72, 0
6, 47560, Note_on_c, 4, 69, 0
6, 47575, Note_on_c, 4, 64, 50
6, 47575, Note_on_c, 4, 71, 50
6, 47575, Note_on_c, 4, 67, 50
6, 47602, Note_on_c, 4, 67, 0
6, 47602, Note_on_c, 4, 71, 0
6, 47602, Note_on_c, 4, 64, 0
6, 47610, Note_on_c, 4, 67, 100
6, 47610, Note_on_c, 4, 71, 100
6, 47610, Note_on_c, 4, 64, 100
6, 47637, Note_on_c, 4, 64, 0
6, 47637, Note_on_c, 4, 71, 0
6, 47637, Note_on_c, 4, 67, 0
6, 47665, Note_on_c, 4, 67, 50
6, 47665, Note_on_c, 4, 71, 50
6, 47665, Note_on_c, 4, 64, 50
6, 47692, Note_on_c, 4, 64, 0
6, 47692, Note_on_c, 4, 71, 0
6, 47692, Note_on_c, 4, 67, 0
6, 47700, Note_on_c, 4, 71, 100
6, 47700, Note_on_c, 4, 64, 100
6, 47700, Note_on_c, 4, 67, 100
6, 47745, Note_on_c, 4, 67, 0
6, 47745, Note_on_c, 4, 64, 0
6, 47745, Note_on_c, 4, 71, 0
6, 47755, Note_on_c, 4, 71, 50
6, 47755, Note_on_c, 4, 64, 50
6, 47755, Note_on_c, 4, 67, 50
6, 47760, Note_on_c, 4, 64, 100
6, 47760, Note_on_c, 4, 71, 100
6, 47760, Note_on_c, 4, 67, 100
6, 47787, Note_on_c, 4, 67, 0
6, 47787, Note_on_c, 4, 71, 0
6, 47787, Note_on_c, 4, 64, 0
6, 47800, Note_on_c, 4, 64, 0
6, 47800, Note_on_c, 4, 71, 0
6, 47800, Note_on_c, 4, 67, 0
6, 47815, Note_on_c, 4, 64, 50
6, 47815, Note_on_c, 4, 71, 50
6, 47815, Note_on_c, 4, 67, 50
6, 47842, Note_on_c, 4, 67, 0
6, 47842, Note_on_c, 4, 71, 0
6, 47842, Note_on_c, 4, 64, 0
6, 47850, Note_on_c, 4, 67, 100
6, 47850, Note_on_c, 4, 71, 100
6, 47850, Note_on_c, 4, 64, 100
6, 47877, Note_on_c, 4, 64, 0
6, 47877, Note_on_c, 4, 71, 0
6, 47877, Note_on_c, 4, 67, 0
6, 47905, Note_on_c, 4, 67, 50
6, 47905, Note_on_c, 4, 71, 50
6, 47905, Note_on_c, 4, 64, 50
6, 47932, Note_on_c, 4, 64, 0
6, 47932, Note_on_c, 4, 71, 0
6, 47932, Note_on_c, 4, 67, 0
6, 47940, Note_on_c, 4, 72, 100
6, 47940, Note_on_c, 4, 69, 100
6, 47940, Note_on_c, 4, 76, 100
6, 47985, Note_on_c, 4, 76, 0
6, 47985, Note_on_c, 4, 69, 0
6, 47985, Note_on_c, 4, 72, 0
6, 47995, Note_on_c, 4, 72, 50
6, 47995, Note_on_c, 4, 69, 50
6, 47995, Note_on_c, 4, 76, 50
6, 48000, Note_on_c, 4, 64, 100
6, 48000, Note_on_c, 4, 71, 100
6, 48000, Note_on_c, 4, 67, 100
6, 48027, Note_on_c, 4, 67, 0
6, 48027, Note_on_c, 4, 64, 0
6, 48027, Note_on_c, 4, 71, 0
6, 48040, Note_on_c, 4, 72, 0
6, 48040, Note_on_c, 4, 76, 0
6, 48040, Note_on_c, 4, 69, 0
6, 48055, Note_on_c, 4, 64, 50
6, 48055, Note_on_c, 4, 71, 50
6, 48055, Note_on_c, 4, 67, 50
6, 48082, Note_on_c, 4, 67, 0
6, 48082, Note_on_c, 4, 71, 0
6, 48082, Note_on_c, 4, 64, 0
6, 48090, Note_on_c, 4, 67, 100
6, 48090, Note_on_c, 4, 64, 100
6, 48090, Note_on_c, 4, 71, 100
6, 48117, Note_on_c, 4, 71, 0
6, 48117, Note_on_c, 4, 64, 0
6, 48117, Note_on_c, 4, 67, 0
6, 48145, Note_on_c, 4, 67, 50
6, 48145, Note_on_c, 4, 64, 50
6, 48145, Note_on_c, 4, 71, 50
6, 48172, Note_on_c, 4, 71, 0
6, 48172, Note_on_c, 4, 64, 0
6, 48172, Note_on_c, 4, 67, 0
6, 48180, Note_on_c, 4, 71, 100
6, 48180, Note_on_c, 4, 64, 100
6, 48180, Note_on_c, 4, 67, 100
6, 48225, Note_on_c, 4, 67, 0
6, 48225, Note_on_c, 4, 64, 0
6, 48225, Note_on_c, 4, 71, 0
6, 48235, Note_on_c, 4, 71, 50
6, 48235, Note_on_c, 4, 64, 50
6, 48235, Note_on_c, 4, 67, 50
6, 48240, Note_on_c, 4, 71, 100
6, 48240, Note_on_c, 4, 64, 100
6, 48240, Note_on_c, 4, 67, 100
6, 48267, Note_on_c, 4, 67, 0
6, 48267, Note_on_c, 4, 71, 0
6, 48267, Note_on_c, 4, 64, 0
6, 48280, Note_on_c, 4, 71, 0
6, 48280, Note_on_c, 4, 64, 0
6, 48280, Note_on_c, 4, 67, 0
6, 48295, Note_on_c, 4, 71, 50
6, 48295, Note_on_c, 4, 64, 50
6, 48295, Note_on_c, 4, 67, 50
6, 48322, Note_on_c, 4, 67, 0
6, 48322, Note_on_c, 4, 64, 0
6, 48322, Note_on_c, 4, 71, 0
6, 48330, Note_on_c, 4, 64, 100
6, 48330, Note_on_c, 4, 67, 100
6, 48330, Note_on_c, 4, 71, 100
6, 48357, Note_on_c, 4, 71, 0
6, 48357, Note_on_c, 4, 67, 0
6, 48357, Note_on_c, 4, 64, 0
6, 48385, Note_on_c, 4, 64, 50
6, 48385, Note_on_c, 4, 67, 50
6, 48385, Note_on_c, 4, 71, 50
6, 48412, Note_on_c, 4, 71, 0
6, 48412, Note_on_c, 4, 67, 0
6, 48412, Note_on_c, 4, 64, 0
6, 48420, Note_on_c, 4, 76, 100
6, 48420, Note_on_c, 4, 69, 100
6, 48420, Note_on_c, 4, 72, 100
6, 48465, Note_on_c, 4, 72, 0
6, 48465, Note_on_c, 4, 69, 0
6, 48465, Note_on_c, 4, 76, 0
6, 48475, Note_on_c, 4, 76, 50
6, 48475, Note_on_c, 4, 69, 50
6, 48475, Note_on_c, 4, 72, 50
6, 48480, Note_on_c, 4, 72, 100
6, 48480, Note_on_c, 4, 67, 100
6, 48480, Note_on_c, 4, 76, 100
6, 48520, Note_on_c, 4, 76, 0
6, 48520, Note_on_c, 4, 69, 0
6, 48520, Note_on_c, 4, 72, 0
6, 48520, Note_on_c, 4, 76, 0
6, 48520, Note_on_c, 4, 67, 0
6, 48520, Note_on_c, 4, 72, 0
6, 48535, Note_on_c, 4, 72, 50
6, 48535, Note_on_c, 4, 67, 50
6, 48535, Note_on_c, 4, 76, 50
6, 48562, Note_on_c, 4, 76, 0
6, 48562, Note_on_c, 4, 67, 0
6, 48562, Note_on_c, 4, 72, 0
6, 48570, Note_on_c, 4, 67, 100
6, 48570, Note_on_c, 4, 72, 100
6, 48570, Note_on_c, 4, 76, 100
6, 48597, Note_on_c, 4, 76, 0
6, 48597, Note_on_c, 4, 72, 0
6, 48597, Note_on_c, 4, 67, 0
6, 48625, Note_on_c, 4, 67, 50
6, 48625, Note_on_c, 4, 72, 50
6, 48625, Note_on_c, 4, 76, 50
6, 48652, Note_on_c, 4, 76, 0
6, 48652, Note_on_c, 4, 72, 0
6, 48652, Note_on_c, 4, 67, 0
6, 48660, Note_on_c, 4, 74, 100
6, 48660, Note_on_c, 4, 67, 100
6, 48660, Note_on_c, 4, 71, 100
6, 48705, Note_on_c, 4, 71, 0
6, 48705, Note_on_c, 4, 67, 0
6, 48705, Note_on_c, 4, 74, 0
6, 48715, Note_on_c, 4, 74, 50
6, 48715, Note_on_c, 4, 67, 50
6, 48715, Note_on_c, 4, 71, 50
6, 48720, Note_on_c, 4, 74, 100
6, 48720, Note_on_c, 4, 71, 100
6, 48720, Note_on_c, 4, 67, 100
6, 48747, Note_on_c, 4, 71, 0
6, 48747, Note_on_c, 4, 74, 0
6, 48747, Note_on_c, 4, 67, 0
6, 48760, Note_on_c, 4, 74, 0
6, 48760, Note_on_c, 4, 71, 0
6, 48760, Note_on_c, 4, 67, 0
6, 48775, Note_on_c, 4, 74, 50
6, 48775, Note_on_c, 4, 71, 50
6, 48775, Note_on_c, 4, 67, 50
6, 48802, Note_on_c, 4, 67, 0
6, 48802, Note_on_c, 4, 71, 0
6, 48802, Note_on_c, 4, 74, 0
6, 48810, Note_on_c, 4, 67, 100
6, 48810, Note_on_c, 4, 71, 100
6, 48810, Note_on_c, 4, 74, 100
6, 48837, Note_on_c, 4, 74, 0
6, 48837, Note_on_c, 4, 71, 0
6, 48837, Note_on_c, 4, 67, 0
6, 48865, Note_on_c, 4, 67, 50
6, 48865, Note_on_c, 4, 71, 50
6, 48865, Note_on_c, 4, 74, 50
6, 48892, Note_on_c, 4, 74, 0
6, 48892, Note_on_c, 4, 71, 0
6, 48892, Note_on_c, 4, 67, 0
6, 48900, Note_on_c, 4, 69, 100
6, 48900, Note_on_c, 4, 66, 100
6, 48900, Note_on_c, 4, 62, 100
6, 48945, Note_on_c, 4, 62, 0
6, 48945, Note_on_c, 4, 66, 0
6, 48945, Note_on_c, 4, 69, 0
6, 48955, Note_on_c, 4, 69, 50
6, 48955, Note_on_c, 4, 66, 50
6, 48955, Note_on_c, 4, 62, 50
6, 48960, Note_on_c, 4, 64, 100
6, 48960, Note_on_c, 4, 67, 100
6, 48960, Note_on_c, 4, 71, 100
6, 48987, Note_on_c, 4, 71, 0
6, 48987, Note_on_c, 4, 64, 0
6, 48987, Note_on_c, 4, 67, 0
6, 49000, Note_on_c, 4, 69, 0
6, 49000, Note_on_c, 4, 62, 0
6, 49000, Note_on_c, 4, 66, 0
6, 49015, Note_on_c, 4, 64, 50
6, 49015, Note_on_c, 4, 67, 50
6, 49015, Note_on_c, 4, 71, 50
6, 49042, Note_on_c, 4, 71, 0
6, 49042, Note_on_c, 4, 67, 0
6, 49042, Note_on_c, 4, 64, 0
6, 49050, Note_on_c, 4, 67, 100
6, 49050, Note_on_c, 4, 64, 100
6, 49050, Note_on_c, 4, 71, 100
6, 49077, Note_on_c, 4, 71, 0
6, 49077, Note_on_c, 4, 64, 0
6, 49077, Note_on_c, 4, 67, 0
6, 49105, Note_on_c, 4, 67, 50
6, 49105, Note_on_c, 4, 64, 50
6, 49105, Note_on_c, 4, 71, 50
6, 49132, Note_on_c, 4, 71, 0
6, 49132, Note_on_c, 4, 64, 0
6, 49132, Note_on_c, 4, 67, 0
6, 49140, Note_on_c, 4, 64, 100
6, 49140, Note_on_c, 4, 71, 100
6, 49140, Note_on_c, 4, 67, 100
6, 49185, Note_on_c, 4, 67, 0
6, 49185, Note_on_c, 4, 71, 0
6, 49185, Note_on_c, 4, 64, 0
6, 49195, Note_on_c, 4, 64, 50
6, 49195, Note_on_c, 4, 71, 50
6, 49195, Note_on_c, 4, 67, 50
6, 49200, Note_on_c, 4, 64, 100
6, 49200, Note_on_c, 4, 67, 100
6, 49200, Note_on_c, 4, 71, 100
6, 49227, Note_on_c, 4, 67, 0
6, 49227, Note_on_c, 4, 64, 0
6, 49227, Note_on_c, 4, 71, 0
6, 49240, Note_on_c, 4, 64, 0
6, 49240, Note_on_c, 4, 67, 0
6, 49240, Note_on_c, 4, 71, 0
6, 49255, Note_on_c, 4, 64, 50
6, 49255, Note_on_c, 4, 67, 50
6, 49255, Note_on_c, 4, 71, 50
6, 49282, Note_on_c, 4, 71, 0
6, 49282, Note_on_c, 4, 67, 0
6, 49282, Note_on_c, 4, 64, 0
6, 49290, Note_on_c, 4, 67, 100
6, 49290, Note_on_c, 4, 71, 100
6, 49290, Note_on_c, 4, 64, 100
6, 49317, Note_on_c, 4, 64, 0
6, 49317, Note_on_c, 4, 71, 0
6, 49317, Note_on_c, 4, 67, 0
6, 49345, Note_on_c, 4, 67, 50
6, 49345, Note_on_c, 4, 71, 50
6, 49345, Note_on_c, 4, 64, 50
6, 49372, Note_on_c, 4, 64, 0
6, 49372, Note_on_c, 4, 71, 0
6, 49372, Note_on_c, 4, 67, 0
6, 49380, Note_on_c, 4, 69, 100
6, 49380, Note_on_c, 4, 76, 100
6, 49380, Note_on_c, 4, 72, 100
6, 49425, Note_on_c, 4, 72, 0
6, 49425, Note_on_c, 4, 76, 0
6, 49425, Note_on_c, 4, 69, 0
6, 49435, Note_on_c, 4, 69, 50
6, 49435, Note_on_c, 4, 76, 50
6, 49435, Note_on_c, 4, 72, 50
6, 49440, Note_on_c, 4, 71, 100
6, 49440, Note_on_c, 4, 67, 100
6, 49440, Note_on_c, 4, 64, 100
6, 49467, Note_on_c, 4, 64, 0
6, 49467, Note_on_c, 4, 71, 0
6, 49467, Note_on_c, 4, 67, 0
6, 49480, Note_on_c, 4, 69, 0
6, 49480, Note_on_c, 4, 72, 0
6, 49480, Note_on_c, 4, 76, 0
6, 49495, Note_on_c, 4, 71, 50
6, 49495, Note_on_c, 4, 67, 50
6, 49495, Note_on_c, 4, 64, 50
6, 49522, Note_on_c, 4, 64, 0
6, 49522, Note_on_c, 4, 67, 0
6, 49522, Note_on_c, 4, 71, 0
6, 49530, Note_on_c, 4, 67, 100
6, 49530, Note_on_c, 4, 64, 100
6, 49530, Note_on_c, 4, 71, 100
6, 49557, Note_on_c, 4, 71, 0
6, 49557, Note_on_c, 4, 64, 0
6, 49557, Note_on_c, 4, 67, 0
6, 49585, Note_on_c, 4, 67, 50
6, 49585, Note_on_c, 4, 64, 50
6, 49585, Note_on_c, 4, 71, 50
6, 49612, Note_on_c, 4, 71, 0
6, 49612, Note_on_c, 4, 64, 0
6, 49612, Note_on_c, 4, 67, 0
6, 49620, Note_on_c, 4, 71, 100
6, 49620, Note_on_c, 4, 64, 100
6, 49620, Note_on_c, 4, 67, 100
6, 49665, Note_on_c, 4, 67, 0
6, 49665, Note_on_c, 4, 64, 0
6, 49665, Note_on_c, 4, 71, 0
6, 49675, Note_on_c, 4, 71, 50
6, 49675, Note_on_c, 4, 64, 50
6, 49675, Note_on_c, 4, 67, 50
6, 49680, Note_on_c, 4, 67, 100
6, 49680, Note_on_c, 4, 64, 100
6, 49680, Note_on_c, 4, 71, 100
6, 49707, Note_on_c, 4, 67, 0
6, 49707, Note_on_c, 4, 71, 0
6, 49707, Note_on_c, 4, 64, 0
6, 49720, Note_on_c, 4, 67, 0
6, 49720, Note_on_c, 4, 64, 0
6, 49720, Note_on_c, 4, 71, 0
6, 49735, Note_on_c, 4, 67, 50
6, 49735, Note_on_c, 4, 64, 50
6, 49735, Note_on_c, 4, 71, 50
6, 49762, Note_on_c, 4, 71, 0
6, 49762, Note_on_c, 4, 64, 0
6, 49762, Note_on_c, 4, 67, 0
6, 49770, Note_on_c, 4, 71, 100
6, 49770, Note_on_c, 4, 64, 100
6, 49770, Note_on_c, 4, 67, 100
6, 49797, Note_on_c, 4, 67, 0
6, 49797, Note_on_c, 4, 64, 0
6, 49797, Note_on_c, 4, 71, 0
6, 49825, Note_on_c, 4, 71, 50
6, 49825, Note_on_c, 4, 64, 50
6, 49825, Note_on_c, 4, 67, 50
6, 49852, Note_on_c, 4, 67, 0
6, 49852, Note_on_c, 4, 64, 0
6, 49852, Note_on_c, 4, 71, 0
6, 49860, Note_on_c, 4, 72, 100
6, 49860, Note_on_c, 4, 76, 100
6, 49860, Note_on_c, 4, 69, 100
6, 49905, Note_on_c, 4, 69, 0
6, 49905, Note_on_c, 4, 76, 0
6, 49905, Note_on_c, 4, 72, 0
6, 49915, Note_on_c, 4, 72, 50
6, 49915, Note_on_c, 4, 76, 50
6, 49915, Note_on_c, 4, 69, 50
6, 49920, Note_on_c, 4, 67, 100
6, 49920, Note_on_c, 4, 71, 100
6, 49920, Note_on_c, 4, 64, 100
6, 49947, Note_on_c, 4, 64, 0
6, 49947, Note_on_c, 4, 67, 0
6, 49947, Note_on_c, 4, 71, 0
6, 49960, Note_on_c, 4, 72, 0
6, 49960, Note_on_c, 4, 69, 0
6, 49960, Note_on_c, 4, 76, 0
6, 49975, Note_on_c, 4, 67, 50
6, 49975, Note_on_c, 4, 71, 50
6, 49975, Note_on_c, 4, 64, 50
6, 50002, Note_on_c, 4, 64, 0
6, 50002, Note_on_c, 4, 71, 0
6, 50002, Note_on_c, 4, 67, 0
6, 50010, Note_on_c, 4, 64, 100
6, 50010, Note_on_c, 4, 71, 100
6, 50010, Note_on_c, 4, 67, 100
6, 50037, Note_on_c, 4, 67, 0
6, 50037, Note_on_c, 4, 71, 0
6, 50037, Note_on_c, 4, 64, 0
6, 50065, Note_on_c, 4, 64, 50
6, 50065, Note_on_c, 4, 71, 50
6, 50065, Note_on_c, 4, 67, 50
6, 50092, Note_on_c, 4, 67, 0
6, 50092, Note_on_c, 4, 71, 0
6, 50092, Note_on_c, 4, 64, 0
6, 50100, Note_on_c, 4, 67, 100
6, 50100, Note_on_c, 4, 64, 100
6, 50100, Note_on_c, 4, 71, 100
6, 50145, Note_on_c, 4, 71, 0
6, 50145, Note_on_c, 4, 64, 0
6, 50145, Note_on_c, 4, 67, 0
6, 50155, Note_on_c, 4, 67, 50
6, 50155, Note_on_c, 4, 64, 50
6, 50155, Note_on_c, 4, 71, 50
6, 50160, Note_on_c, 4, 64, 100
6, 50160, Note_on_c, 4, 67, 100
6, 50160, Note_on_c, 4, 71, 100
6, 50187, Note_on_c, 4, 71, 0
6, 50187, Note_on_c, 4, 67, 0
6, 50187, Note_on_c, 4, 64, 0
6, 50200, Note_on_c, 4, 64, 0
6, 50200, Note_on_c, 4, 67, 0
6, 50200, Note_on_c, 4, 71, 0
6, 50215, Note_on_c, 4, 64, 50
6, 50215, Note_on_c, 4, 67, 50
6, 50215, Note_on_c, 4, 71, 50
6, 50242, Note_on_c, 4, 71, 0
6, 50242, Note_on_c, 4, 67, 0
6, 50242, Note_on_c, 4, 64, 0
6, 50250, Note_on_c, 4, 71, 100
6, 50250, Note_on_c, 4, 67, 100
6, 50250, Note_on_c, 4, 64, 100
6, 50277, Note_on_c, 4, 64, 0
6, 50277, Note_on_c, 4, 67, 0
6, 50277, Note_on_c, 4, 71, 0
6, 50305, Note_on_c, 4, 71, 50
6, 50305, Note_on_c, 4, 67, 50
6, 50305, Note_on_c, 4, 64, 50
6, 50332, Note_on_c, 4, 64, 0
6, 50332, Note_on_c, 4, 67, 0
6, 50332, Note_on_c, 4, 71, 0
6, 50340, Note_on_c, 4, 72, 100
6, 50340, Note_on_c, 4, 69, 100
6, 50340, Note_on_c, 4, 76, 100
6, 50385, Note_on_c, 4, 76, 0
6, 50385, Note_on_c, 4, 69, 0
6, 50385, Note_on_c, 4, 72, 0
6, 50395, Note_on_c, 4, 72, 50
6, 50395, Note_on_c, 4, 69, 50
6, 50395, Note_on_c, 4, 76, 50
6, 50400, Note_on_c, 4, 72, 100
6, 50400, Note_on_c, 4, 67, 100
6, 50400, Note_on_c, 4, 76, 100
6, 50440, Note_on_c, 4, 76, 0
6, 50440, Note_on_c, 4, 69, 0
6, 50440, Note_on_c, 4, 76, 0
6, 50440, Note_on_c, 4, 72, 0
6, 50440, Note_on_c, 4, 67, 0
6, 50440, Note_on_c, 4, 72, 0
6, 50455, Note_on_c, 4, 72, 50
6, 50455, Note_on_c, 4, 67, 50
6, 50455, Note_on_c, 4, 76, 50
6, 50482, Note_on_c, 4, 76, 0
6, 50482, Note_on_c, 4, 67, 0
6, 50482, Note_on_c, 4, 72, 0
6, 50490, Note_on_c, 4, 67, 100
6, 50490, Note_on_c, 4, 72, 100
6, 50490, Note_on_c, 4, 76, 100
6, 50517, Note_on_c, 4, 76, 0
6, 50517, Note_on_c, 4, 72, 0
6, 50517, Note_on_c, 4, 67, 0
6, 50545, Note_on_c, 4, 67, 50
6, 50545, Note_on_c, 4, 72, 50
6, 50545, Note_on_c, 4, 76, 50
6, 50572, Note_on_c, 4, 76, 0
6, 50572, Note_on_c, 4, 72, 0
6, 50572, Note_on_c, 4, 67, 0
6, 50580, Note_on_c, 4, 74, 100
6, 50580, Note_on_c, 4, 67, 100
6, 50580, Note_on_c, 4, 71, 100
6, 50625, Note_on_c, 4, 71, 0
6, 50625, Note_on_c, 4, 67, 0
6, 50625, Note_on_c, 4, 74, 0
6, 50635, Note_on_c, 4, 74, 50
6, 50635, Note_on_c, 4, 67, 50
6, 50635, Note_on_c, 4, 71, 50
6, 50640, Note_on_c, 4, 74, 100
6, 50640, Note_on_c, 4, 71, 100
6, 50640, Note_on_c, 4, 67, 100
6, 50667, Note_on_c, 4, 71, 0
6, 50667, Note_on_c, 4, 74, 0
6, 50667, Note_on_c, 4, 67, 0
6, 50680, Note_on_c, 4, 74, 0
6, 50680, Note_on_c, 4, 71, 0
6, 50680, Note_on_c, 4, 67, 0
6, 50695, Note_on_c, 4, 74, 50
6, 50695, Note_on_c, 4, 71, 50
6, 50695, Note_on_c, 4, 67, 50
6, 50722, Note_on_c, 4, 67, 0
6, 50722, Note_on_c, 4, 71, 0
6, 50722, Note_on_c, 4, 74, 0
6, 50730, Note_on_c, 4, 67, 100
6, 50730, Note_on_c, 4, 71, 100
6, 50730, Note_on_c, 4, 74, 100
6, 50757, Note_on_c, 4, 74, 0
6, 50757, Note_on_c, 4, 71, 0
6, 50757, Note_on_c, 4, 67, 0
6, 50785, Note_on_c, 4, 67, 50
6, 50785, Note_on_c, 4, 71, 50
6, 50785, Note_on_c, 4, 74, 50
6, 50812, Note_on_c, 4, 74, 0
6, 50812, Note_on_c, 4, 71, 0
6, 50812, Note_on_c, 4, 67, 0
6, 50820, Note_on_c, 4, 69, 100
6, 50820, Note_on_c, 4, 66, 100
6, 50820, Note_on_c, 4, 62, 100
6, 50865, Note_on_c, 4, 62, 0
6, 50865, Note_on_c, 4, 66, 0
6, 50865, Note_on_c, 4, 69, 0
6, 50875, Note_on_c, 4, 69, 50
6, 50875, Note_on_c, 4, 66, 50
6, 50875, Note_on_c, 4, 62, 50
6, 50880, Note_on_c, 4, 64, 100
6, 50880, Note_on_c, 4, 67, 100
6, 50880, Note_on_c, 4, 71, 100
6, 50907, Note_on_c, 4, 71, 0
6, 50907, Note_on_c, 4, 64, 0
6, 50907, Note_on_c, 4, 67, 0
6, 50920, Note_on_c, 4, 69, 0
6, 50920, Note_on_c, 4, 62, 0
6, 50920, Note_on_c, 4, 66, 0
6, 50935, Note_on_c, 4, 64, 50
6, 50935, Note_on_c, 4, 67, 50
6, 50935, Note_on_c, 4, 71, 50
6, 50962, Note_on_c, 4, 71, 0
6, 50962, Note_on_c, 4, 67, 0
6, 50962, Note_on_c, 4, 64, 0
6, 50970, Note_on_c, 4, 71, 100
6, 50970, Note_on_c, 4, 67, 100
6, 50970, Note_on_c, 4, 64, 100
6, 50997, Note_on_c, 4, 64, 0
6, 50997, Note_on_c, 4, 67, 0
6, 50997, Note_on_c, 4, 71, 0
6, 51025, Note_on_c, 4, 71, 50
6, 51025, Note_on_c, 4, 67, 50
6, 51025, Note_on_c, 4, 64, 50
6, 51052, Note_on_c, 4, 64, 0
6, 51052, Note_on_c, 4, 67, 0
6, 51052, Note_on_c, 4, 71, 0
6, 51060, Note_on_c, 4, 64, 100
6, 51060, Note_on_c, 4, 71, 100
6, 51060, Note_on_c, 4, 67, 100
6, 51105, Note_on_c, 4, 67, 0
6, 51105, Note_on_c, 4, 71, 0
6, 51105, Note_on_c, 4, 64, 0
6, 51115, Note_on_c, 4, 64, 50
6, 51115, Note_on_c, 4, 71, 50
6, 51115, Note_on_c, 4, 67, 50
6, 51120, Note_on_c, 4, 67, 100
6, 51120, Note_on_c, 4, 71, 100
6, 51120, Note_on_c, 4, 64, 100
6, 51147, Note_on_c, 4, 67, 0
6, 51147, Note_on_c, 4, 64, 0
6, 51147, Note_on_c, 4, 71, 0
6, 51160, Note_on_c, 4, 67, 0
6, 51160, Note_on_c, 4, 71, 0
6, 51160, Note_on_c, 4, 64, 0
6, 51175, Note_on_c, 4, 67, 50
6, 51175, Note_on_c, 4, 71, 50
6, 51175, Note_on_c, 4, 64, 50
6, 51202, Note_on_c, 4, 64, 0
6, 51202, Note_on_c, 4, 71, 0
6, 51202, Note_on_c, 4, 67, 0
6, 51210, Note_on_c, 4, 67, 100
6, 51210, Note_on_c, 4, 71, 100
6, 51210, Note_on_c, 4, 64, 100
6, 51237, Note_on_c, 4, 64, 0
6, 51237, Note_on_c, 4, 71, 0
6, 51237, Note_on_c, 4, 67, 0
6, 51265, Note_on_c, 4, 67, 50
6, 51265, Note_on_c, 4, 71, 50
6, 51265, Note_on_c, 4, 64, 50
6, 51292, Note_on_c, 4, 64, 0
6, 51292, Note_on_c, 4, 71, 0
6, 51292, Note_on_c, 4, 67, 0
6, 51300, Note_on_c, 4, 64, 100
6, 51300, Note_on_c, 4, 71, 100
6, 51300, Note_on_c, 4, 67, 100
6, 51345, Note_on_c, 4, 67, 0
6, 51345, Note_on_c, 4, 71, 0
6, 51345, Note_on_c, 4, 64, 0
6, 51355, Note_on_c, 4, 64, 50
6, 51355, Note_on_c, 4, 71, 50
6, 51355, Note_on_c, 4, 67, 50
6, 51360, Note_on_c, 4, 64, 100
6, 51360, Note_on_c, 4, 71, 100
6, 51360, Note_on_c, 4, 67, 100
6, 51387, Note_on_c, 4, 67, 0
6, 51387, Note_on_c, 4, 64, 0
6, 51387, Note_on_c, 4, 71, 0
6, 51400, Note_on_c, 4, 64, 0
6, 51400, Note_on_c, 4, 71, 0
6, 51400, Note_on_c, 4, 67, 0
6, 51415, Note_on_c, 4, 64, 50
6, 51415, Note_on_c, 4, 71, 50
6, 51415, Note_on_c, 4, 67, 50
6, 51442, Note_on_c, 4, 67, 0
6, 51442, Note_on_c, 4, 71, 0
6, 51442, Note_on_c, 4, 64, 0
6, 51450, Note_on_c, 4, 67, 100
6, 51450, Note_on_c, 4, 64, 100
6, 51450, Note_on_c, 4, 71, 100
6, 51477, Note_on_c, 4, 71, 0
6, 51477, Note_on_c, 4, 64, 0
6, 51477, Note_on_c, 4, 67, 0
6, 51505, Note_on_c, 4, 67, 50
6, 51505, Note_on_c, 4, 64, 50
6, 51505, Note_on_c, 4, 71, 50
6, 51532, Note_on_c, 4, 71, 0
6, 51532, Note_on_c, 4, 64, 0
6, 51532, Note_on_c, 4, 67, 0
6, 51540, Note_on_c, 4, 71, 100
6, 51540, Note_on_c, 4, 64, 100
6, 51540, Note_on_c, 4, 67, 100
6, 51585, Note_on_c, 4, 67, 0
6, 51585, Note_on_c, 4, 64, 0
6, 51585, Note_on_c, 4, 71, 0
6, 51595, Note_on_c, 4, 71, 50
6, 51595, Note_on_c, 4, 64, 50
6, 51595, Note_on_c, 4, 67, 50
6, 51600, Note_on_c, 4, 64, 100
6, 51600, Note_on_c, 4, 71, 100
6, 51600, Note_on_c, 4, 67, 100
6, 51627, Note_on_c, 4, 67, 0
6, 51627, Note_on_c, 4, 71, 0
6, 51627, Note_on_c, 4, 64, 0
6, 51640, Note_on_c, 4, 64, 0
6, 51640, Note_on_c, 4, 71, 0
6, 51640, Note_on_c, 4, 67, 0
6, 51655, Note_on_c, 4, 64, 50
6, 51655, Note_on_c, 4, 71, 50
6, 51655, Note_on_c, 4, 67, 50
6, 51682, Note_on_c, 4, 67, 0
6, 51682, Note_on_c, 4, 71, 0
6, 51682, Note_on_c, 4, 64, 0
6, 51690, Note_on_c, 4, 67, 100
6, 51690, Note_on_c, 4, 64, 100
6, 51690, Note_on_c, 4, 71, 100
6, 51717, Note_on_c, 4, 71, 0
6, 51717, Note_on_c, 4, 64, 0
6, 51717, Note_on_c, 4, 67, 0
6, 51745, Note_on_c, 4, 67, 50
6, 51745, Note_on_c, 4, 64, 50
6, 51745, Note_on_c, 4, 71, 50
6, 51772, Note_on_c, 4, 71, 0
6, 51772, Note_on_c, 4, 64, 0
6, 51772, Note_on_c, 4, 67, 0
6, 51780, Note_on_c, 4, 67, 100
6, 51780, Note_on_c, 4, 71, 100
6, 51780, Note_on_c, 4, 64, 100
6, 51825, Note_on_c, 4, 64, 0
6, 51825, Note_on_c, 4, 71, 0
6, 51825, Note_on_c, 4, 67, 0
6, 51835, Note_on_c, 4, 67, 50
6, 51835, Note_on_c, 4, 71, 50
6, 51835, Note_on_c, 4, 64, 50
6, 51840, Note_on_c, 4, 64, 100
6, 51840, Note_on_c, 4, 71, 100
6, 51840, Note_on_c, 4, 67, 100
6, 51867, Note_on_c, 4, 64, 0
6, 51867, Note_on_c, 4, 67, 0
6, 51867, Note_on_c, 4, 71, 0
6, 51880, Note_on_c, 4, 64, 0
6, 51880, Note_on_c, 4, 71, 0
6, 51880, Note_on_c, 4, 67, 0
6, 51895, Note_on_c, 4, 64, 50
6, 51895, Note_on_c, 4, 71, 50
6, 51895, Note_on_c, 4, 67, 50
6, 51922, Note_on_c, 4, 67, 0
6, 51922, Note_on_c, 4, 71, 0
6, 51922, Note_on_c, 4, 64, 0
6, 51930, Note_on_c, 4, 64, 100
6, 51930, Note_on_c, 4, 71, 100
6, 51930, Note_on_c, 4, 67, 100
6, 51957, Note_on_c, 4, 67, 0
6, 51957, Note_on_c, 4, 71, 0
6, 51957, Note_on_c, 4, 64, 0
6, 51985, Note_on_c, 4, 64, 50
6, 51985, Note_on_c, 4, 71, 50
6, 51985, Note_on_c, 4, 67, 50
6, 52012, Note_on_c, 4, 67, 0
6, 52012, Note_on_c, 4, 71, 0
6, 52012, Note_on_c, 4, 64, 0
6, 52020, Note_on_c, 4, 71, 100
6, 52020, Note_on_c, 4, 64, 100
6, 52020, Note_on_c, 4, 67, 100
6, 52065, Note_on_c, 4, 67, 0
6, 52065, Note_on_c, 4, 64, 0
6, 52065, Note_on_c, 4, 71, 0
6, 52075, Note_on_c, 4, 71, 50
6, 52075, Note_on_c, 4, 64, 50
6, 52075, Note_on_c, 4, 67, 50
6, 52080, Note_on_c, 4, 64, 100
6, 52080, Note_on_c, 4, 67, 100
6, 52080, Note_on_c, 4, 71, 100
6, 52107, Note_on_c, 4, 67, 0
6, 52107, Note_on_c, 4, 71, 0
6, 52107, Note_on_c, 4, 64, 0
6, 52120, Note_on_c, 4, 64, 0
6, 52120, Note_on_c, 4, 67, 0
6, 52120, Note_on_c, 4, 71, 0
6, 52135, Note_on_c, 4, 64, 50
6, 52135, Note_on_c, 4, 67, 50
6, 52135, Note_on_c, 4, 71, 50
6, 52162, Note_on_c, 4, 71, 0
6, 52162, Note_on_c, 4, 67, 0
6, 52162, Note_on_c, 4, 64, 0
6, 52170, Note_on_c, 4, 64, 100
6, 52170, Note_on_c, 4, 67, 100
6, 52170, Note_on_c, 4, 71, 100
6, 52197, Note_on_c, 4, 71, 0
6, 52197, Note_on_c, 4, 67, 0
6, 52197, Note_on_c, 4, 64, 0
6, 52225, Note_on_c, 4, 64, 50
6, 52225, Note_on_c, 4, 67, 50
6, 52225, Note_on_c, 4, 71, 50
6, 52252, Note_on_c, 4, 71, 0
6, 52252, Note_on_c, 4, 67, 0
6, 52252, Note_on_c, 4, 64, 0
6, 52260, Note_on_c, 4, 71, 100
6, 52260, Note_on_c, 4, 67, 100
6, 52260, Note_on_c, 4, 64, 100
6, 52305, Note_on_c, 4, 64, 0
6, 52305, Note_on_c, 4, 67, 0
6, 52305, Note_on_c, 4, 71, 0
6, 52315, Note_on_c, 4, 71, 50
6, 52315, Note_on_c, 4, 67, 50
6, 52315, Note_on_c, 4, 64, 50
6, 52320, Note_on_c, 4, 64, 100
6, 52320, Note_on_c, 4, 67, 100
6, 52320, Note_on_c, 4, 71, 100
6, 52347, Note_on_c, 4, 64, 0
6, 52347, Note_on_c, 4, 71, 0
6, 52347, Note_on_c, 4, 67, 0
6, 52360, Note_on_c, 4, 64, 0
6, 52360, Note_on_c, 4, 67, 0
6, 52360, Note_on_c, 4, 71, 0
6, 52375, Note_on_c, 4, 64, 50
6, 52375, Note_on_c, 4, 67, 50
6, 52375, Note_on_c, 4, 71, 50
6, 52402, Note_on_c, 4, 71, 0
6, 52402, Note_on_c, 4, 67, 0
6, 52402, Note_on_c, 4, 64, 0
6, 52410, Note_on_c, 4, 71, 100
6, 52410, Note_on_c, 4, 67, 100
6, 52410, Note_on_c, 4, 64, 100
6, 52437, Note_on_c, 4, 64, 0
6, 52437, Note_on_c, 4, 67, 0
6, 52437, Note_on_c, 4, 71, 0
6, 52465, Note_on_c, 4, 71, 50
6, 52465, Note_on_c, 4, 67, 50
6, 52465, Note_on_c, 4, 64, 50
6, 52492, Note_on_c, 4, 64, 0
6, 52492, Note_on_c, 4, 67, 0
6, 52492, Note_on_c, 4, 71, 0
6, 52500, Note_on_c, 4, 64, 100
6, 52500, Note_on_c, 4, 67, 100
6, 52500, Note_on_c, 4, 71, 100
6, 52545, Note_on_c, 4, 71, 0
6, 52545, Note_on_c, 4, 67, 0
6, 52545, Note_on_c, 4, 64, 0
6, 52555, Note_on_c, 4, 64, 50
6, 52555, Note_on_c, 4, 67, 50
6, 52555, Note_on_c, 4, 71, 50
6, 52560, Note_on_c, 4, 71, 100
6, 52560, Note_on_c, 4, 67, 100
6, 52560, Note_on_c, 4, 64, 100
6, 52587, Note_on_c, 4, 71, 0
6, 52587, Note_on_c, 4, 64, 0
6, 52587, Note_on_c, 4, 67, 0
6, 52600, Note_on_c, 4, 71, 0
6, 52600, Note_on_c, 4, 67, 0
6, 52600, Note_on_c, 4, 64, 0
6, 52615, Note_on_c, 4, 71, 50
6, 52615, Note_on_c, 4, 67, 50
6, 52615, Note_on_c, 4, 64, 50
6, 52642, Note_on_c, 4, 64, 0
6, 52642, Note_on_c, 4, 67, 0
6, 52642, Note_on_c, 4, 71, 0
6, 52650, Note_on_c, 4, 71, 100
6, 52650, Note_on_c, 4, 67, 100
6, 52650, Note_on_c, 4, 64, 100
6, 52677, Note_on_c, 4, 64, 0
6, 52677, Note_on_c, 4, 67, 0
6, 52677, Note_on_c, 4, 71, 0
6, 52705, Note_on_c, 4, 71, 50
6, 52705, Note_on_c, 4, 67, 50
6, 52705, Note_on_c, 4, 64, 50
6, 52732, Note_on_c, 4, 64, 0
6, 52732, Note_on_c, 4, 67, 0
6, 52732, Note_on_c, 4, 71, 0
6, 52740, Note_on_c, 4, 67, 100
6, 52740, Note_on_c, 4, 64, 100
6, 52740, Note_on_c, 4, 71, 100
6, 52785, Note_on_c, 4, 71, 0
6, 52785, Note_on_c, 4, 64, 0
6, 52785, Note_on_c, 4, 67, 0
6, 52795, Note_on_c, 4, 67, 50
6, 52795, Note_on_c, 4, 64, 50
6, 52795, Note_on_c, 4, 71, 50
6, 52800, Note_on_c, 4, 67, 100
6, 52800, Note_on_c, 4, 71, 100
6, 52800, Note_on_c, 4, 64, 100
6, 52827, Note_on_c, 4, 71, 0
6, 52827, Note_on_c, 4, 67, 0
6, 52827, Note_on_c, 4, 64, 0
6, 52840, Note_on_c, 4, 67, 0
6, 52840, Note_on_c, 4, 71, 0
6, 52840, Note_on_c, 4, 64, 0
6, 52855, Note_on_c, 4, 67, 50
6, 52855, Note_on_c, 4, 71, 50
6, 52855, Note_on_c, 4, 64, 50
6, 52882, Note_on_c, 4, 64, 0
6, 52882, Note_on_c, 4, 71, 0
6, 52882, Note_on_c, 4, 67, 0
6, 52890, Note_on_c, 4, 67, 100
6, 52890, Note_on_c, 4, 64, 100
6, 52890, Note_on_c, 4, 71, 100
6, 52917, Note_on_c, 4, 71, 0
6, 52917, Note_on_c, 4, 64, 0
6, 52917, Note_on_c, 4, 67, 0
6, 52945, Note_on_c, 4, 67, 50
6, 52945, Note_on_c, 4, 64, 50
6, 52945, Note_on_c, 4, 71, 50
6, 52972, Note_on_c, 4, 71, 0
6, 52972, Note_on_c, 4, 64, 0
6, 52972, Note_on_c, 4, 67, 0
6, 52980, Note_on_c, 4, 67, 100
6, 52980, Note_on_c, 4, 71, 100
6, 52980, Note_on_c, 4, 64, 100
6, 53025, Note_on_c, 4, 64, 0
6, 53025, Note_on_c, 4, 71, 0
6, 53025, Note_on_c, 4, 67, 0
6, 53035, Note_on_c, 4, 67, 50
6, 53035, Note_on_c, 4, 71, 50
6, 53035, Note_on_c, 4, 64, 50
6, 53040, Note_on_c, 4, 71, 100
6, 53040, Note_on_c, 4, 64, 100
6, 53040, Note_on_c, 4, 67, 100
6, 53067, Note_on_c, 4, 64, 0
6, 53067, Note_on_c, 4, 67, 0
6, 53067, Note_on_c, 4, 71, 0
6, 53080, Note_on_c, 4, 71, 0
6, 53080, Note_on_c, 4, 64, 0
6, 53080, Note_on_c, 4, 67, 0
6, 53095, Note_on_c, 4, 71, 50
6, 53095, Note_on_c, 4, 64, 50
6, 53095, Note_on_c, 4, 67, 50
6, 53122, Note_on_c, 4, 67, 0
6, 53122, Note_on_c, 4, 64, 0
6, 53122, Note_on_c, 4, 71, 0
6, 53130, Note_on_c, 4, 67, 100
6, 53130, Note_on_c, 4, 64, 100
6, 53130, Note_on_c, 4, 71, 100
6, 53157, Note_on_c, 4, 71, 0
6, 53157, Note_on_c, 4, 64, 0
6, 53157, Note_on_c, 4, 67, 0
6, 53185, Note_on_c, 4, 67, 50
6, 53185, Note_on_c, 4, 64, 50
6, 53185, Note_on_c, 4, 71, 50
6, 53212, Note_on_c, 4, 71, 0
6, 53212, Note_on_c, 4, 64, 0
6, 53212, Note_on_c, 4, 67, 0
6, 53220, Note_on_c, 4, 67, 100
6, 53220, Note_on_c, 4, 72, 100
6, 53220, Note_on_c, 4, 76, 100
6, 53265, Note_on_c, 4, 76, 0
6, 53265, Note_on_c, 4, 72, 0
6, 53265, Note_on_c, 4, 67, 0
6, 53275, Note_on_c, 4, 67, 50
6, 53275, Note_on_c, 4, 72, 50
6, 53275, Note_on_c, 4, 76, 50
6, 53280, Note_on_c, 4, 67, 100
6, 53280, Note_on_c, 4, 76, 100
6, 53280, Note_on_c, 4, 72, 100
6, 53307, Note_on_c, 4, 76, 0
6, 53307, Note_on_c, 4, 67, 0
6, 53307, Note_on_c, 4, 72, 0
6, 53320, Note_on_c, 4, 67, 0
6, 53320, Note_on_c, 4, 76, 0
6, 53320, Note_on_c, 4, 72, 0
6, 53335, Note_on_c, 4, 67, 50
6, 53335, Note_on_c, 4, 76, 50
6, 53335, Note_on_c, 4, 72, 50
6, 53362, Note_on_c, 4, 72, 0
6, 53362, Note_on_c, 4, 76, 0
6, 53362, Note_on_c, 4, 67, 0
6, 53370, Note_on_c, 4, 72, 100
6, 53370, Note_on_c, 4, 76, 100
6, 53370, Note_on_c, 4, 67, 100
6, 53397, Note_on_c, 4, 67, 0
6, 53397, Note_on_c, 4, 76, 0
6, 53397, Note_on_c, 4, 72, 0
6, 53425, Note_on_c, 4, 72, 50
6, 53425, Note_on_c, 4, 76, 50
6, 53425, Note_on_c, 4, 67, 50
6, 53452, Note_on_c, 4, 67, 0
6, 53452, Note_on_c, 4, 76, 0
6, 53452, Note_on_c, 4, 72, 0
6, 53460, Note_on_c, 4, 74, 100
6, 53460, Note_on_c, 4, 67, 100
6, 53460, Note_on_c, 4, 71, 100
6, 53505, Note_on_c, 4, 71, 0
6, 53505, Note_on_c, 4, 67, 0
6, 53505, Note_on_c, 4, 74, 0
6, 53515, Note_on_c, 4, 74, 50
6, 53515, Note_on_c, 4, 67, 50
6, 53515, Note_on_c, 4, 71, 50
6, 53520, Note_on_c, 4, 74, 100
6, 53520, Note_on_c, 4, 67, 100
6, 53520, Note_on_c, 4, 71, 100
6, 53547, Note_on_c, 4, 71, 0
6, 53547, Note_on_c, 4, 74, 0
6, 53547, Note_on_c, 4, 67, 0
6, 53560, Note_on_c, 4, 74, 0
6, 53560, Note_on_c, 4, 67, 0
6, 53560, Note_on_c, 4, 71, 0
6, 53575, Note_on_c, 4, 74, 50
6, 53575, Note_on_c, 4, 67, 50
6, 53575, Note_on_c, 4, 71, 50
6, 53602, Note_on_c, 4, 71, 0
6, 53602, Note_on_c, 4, 67, 0
6, 53602, Note_on_c, 4, 74, 0
6, 53610, Note_on_c, 4, 67, 100
6, 53610, Note_on_c, 4, 71, 100
6, 53610, Note_on_c, 4, 74, 100
6, 53637, Note_on_c, 4, 74, 0
6, 53637, Note_on_c, 4, 71, 0
6, 53637, Note_on_c, 4, 67, 0
6, 53665, Note_on_c, 4, 67, 50
6, 53665, Note_on_c, 4, 71, 50
6, 53665, Note_on_c, 4, 74, 50
6, 53692, Note_on_c, 4, 74, 0
6, 53692, Note_on_c, 4, 71, 0
6, 53692, Note_on_c, 4, 67, 0
6, 53700, Note_on_c, 4, 69, 100
6, 53700, Note_on_c, 4, 66, 100
6, 53700, Note_on_c, 4, 62, 100
6, 53745, Note_on_c, 4, 62, 0
6, 53745, Note_on_c, 4, 66, 0
6, 53745, Note_on_c, 4, 69, 0
6, 53755, Note_on_c, 4, 69, 50
6, 53755, Note_on_c, 4, 66, 50
6, 53755, Note_on_c, 4, 62, 50
6, 53760, Note_on_c, 4, 64, 100
6, 53760, Note_on_c, 4, 71, 100
6, 53760, Note_on_c, 4, 67, 100
6, 53787, Note_on_c, 4, 67, 0
6, 53787, Note_on_c, 4, 64, 0
6, 53787, Note_on_c, 4, 71, 0
6, 53800, Note_on_c, 4, 69, 0
6, 53800, Note_on_c, 4, 62, 0
6, 53800, Note_on_c, 4, 66, 0
6, 53815, Note_on_c, 4, 64, 50
6, 53815, Note_on_c, 4, 71, 50
6, 53815, Note_on_c, 4, 67, 50
6, 53842, Note_on_c, 4, 67, 0
6, 53842, Note_on_c, 4, 71, 0
6, 53842, Note_on_c, 4, 64, 0
6, 53850, Note_on_c, 4, 71, 100
6, 53850, Note_on_c, 4, 67, 100
6, 53850, Note_on_c, 4, 64, 100
6, 53877, Note_on_c, 4, 64, 0
6, 53877, Note_on_c, 4, 67, 0
6, 53877, Note_on_c, 4, 71, 0
6, 53905, Note_on_c, 4, 71, 50
6, 53905, Note_on_c, 4, 67, 50
6, 53905, Note_on_c, 4, 64, 50
6, 53932, Note_on_c, 4, 64, 0
6, 53932, Note_on_c, 4, 67, 0
6, 53932, Note_on_c, 4, 71, 0
6, 53940, Note_on_c, 4, 64, 100
6, 53940, Note_on_c, 4, 67, 100
6, 53940, Note_on_c, 4, 71, 100
6, 53985, Note_on_c, 4, 71, 0
6, 53985, Note_on_c, 4, 67, 0
6, 53985, Note_on_c, 4, 64, 0
6, 53995, Note_on_c, 4, 64, 50
6, 53995, Note_on_c, 4, 67, 50
6, 53995, Note_on_c, 4, 71, 50
6, 54000, Note_on_c, 4, 67, 100
6, 54000, Note_on_c, 4, 64, 100
6, 54000, Note_on_c, 4, 71, 100
6, 54027, Note_on_c, 4, 71, 0
6, 54027, Note_on_c, 4, 64, 0
6, 54027, Note_on_c, 4, 67, 0
6, 54040, Note_on_c, 4, 67, 0
6, 54040, Note_on_c, 4, 64, 0
6, 54040, Note_on_c, 4, 71, 0
6, 54055, Note_on_c, 4, 67, 50
6, 54055, Note_on_c, 4, 64, 50
6, 54055, Note_on_c, 4, 71, 50
6, 54082, Note_on_c, 4, 71, 0
6, 54082, Note_on_c, 4, 64, 0
6, 54082, Note_on_c, 4, 67, 0
6, 54090, Note_on_c, 4, 71, 100
6, 54090, Note_on_c, 4, 64, 100
6, 54090, Note_on_c, 4, 67, 100
6, 54117, Note_on_c, 4, 67, 0
6, 54117, Note_on_c, 4, 64, 0
6, 54117, Note_on_c, 4, 71, 0
6, 54145, Note_on_c, 4, 71, 50
6, 54145, Note_on_c, 4, 64, 50
6, 54145, Note_on_c, 4, 67, 50
6, 54172, Note_on_c, 4, 67, 0
6, 54172, Note_on_c, 4, 64, 0
6, 54172, Note_on_c, 4, 71, 0
6, 54180, Note_on_c, 4, 76, 100
6, 54180, Note_on_c, 4, 69, 100
6, 54180, Note_on_c, 4, 72, 100
6, 54225, Note_on_c, 4, 72, 0
6, 54225, Note_on_c, 4, 69, 0
6, 54225, Note_on_c, 4, 76, 0
6, 54235, Note_on_c, 4, 76, 50
6, 54235, Note_on_c, 4, 69, 50
6, 54235, Note_on_c, 4, 72, 50
6, 54240, Note_on_c, 4, 64, 100
6, 54240, Note_on_c, 4, 67, 100
6, 54240, Note_on_c, 4, 71, 100
6, 54267, Note_on_c, 4, 71, 0
6, 54267, Note_on_c, 4, 64, 0
6, 54267, Note_on_c, 4, 67, 0
6, 54280, Note_on_c, 4, 76, 0
6, 54280, Note_on_c, 4, 72, 0
6, 54280, Note_on_c, 4, 69, 0
6, 54295, Note_on_c, 4, 64, 50
6, 54295, Note_on_c, 4, 67, 50
6, 54295, Note_on_c, 4, 71, 50
6, 54322, Note_on_c, 4, 71, 0
6, 54322, Note_on_c, 4, 67, 0
6, 54322, Note_on_c, 4, 64, 0
6, 54330, Note_on_c, 4, 64, 100
6, 54330, Note_on_c, 4, 67, 100
6, 54330, Note_on_c, 4, 71, 100
6, 54357, Note_on_c, 4, 71, 0
6, 54357, Note_on_c, 4, 67, 0
6, 54357, Note_on_c, 4, 64, 0
6, 54385, Note_on_c, 4, 64, 50
6, 54385, Note_on_c, 4, 67, 50
6, 54385, Note_on_c, 4, 71, 50
6, 54412, Note_on_c, 4, 71, 0
6, 54412, Note_on_c, 4, 67, 0
6, 54412, Note_on_c, 4, 64, 0
6, 54420, Note_on_c, 4, 64, 100
6, 54420, Note_on_c, 4, 67, 100
6, 54420, Note_on_c, 4, 71, 100
6, 54465, Note_on_c, 4, 71, 0
6, 54465, Note_on_c, 4, 67, 0
6, 54465, Note_on_c, 4, 64, 0
6, 54475, Note_on_c, 4, 64, 50
6, 54475, Note_on_c, 4, 67, 50
6, 54475, Note_on_c, 4, 71, 50
6, 54480, Note_on_c, 4, 64, 100
6, 54480, Note_on_c, 4, 67, 100
6, 54480, Note_on_c, 4, 71, 100
6, 54507, Note_on_c, 4, 71, 0
6, 54507, Note_on_c, 4, 64, 0
6, 54507, Note_on_c, 4, 67, 0
6, 54520, Note_on_c, 4, 64, 0
6, 54520, Note_on_c, 4, 67, 0
6, 54520, Note_on_c, 4, 71, 0
6, 54535, Note_on_c, 4, 64, 50
6, 54535, Note_on_c, 4, 67, 50
6, 54535, Note_on_c, 4, 71, 50
6, 54562, Note_on_c, 4, 71, 0
6, 54562, Note_on_c, 4, 67, 0
6, 54562, Note_on_c, 4, 64, 0
6, 54570, Note_on_c, 4, 71, 100
6, 54570, Note_on_c, 4, 64, 100
6, 54570, Note_on_c, 4, 67, 100
6, 54597, Note_on_c, 4, 67, 0
6, 54597, Note_on_c, 4, 64, 0
6, 54597, Note_on_c, 4, 71, 0
6, 54625, Note_on_c, 4, 71, 50
6, 54625, Note_on_c, 4, 64, 50
6, 54625, Note_on_c, 4, 67, 50
6, 54652, Note_on_c, 4, 67, 0
6, 54652, Note_on_c, 4, 64, 0
6, 54652, Note_on_c, 4, 71, 0
6, 54660, Note_on_c, 4, 69, 100
6, 54660, Note_on_c, 4, 72, 100
6, 54660, Note_on_c, 4, 76, 100
6, 54705, Note_on_c, 4, 76, 0
6, 54705, Note_on_c, 4, 72, 0
6, 54705, Note_on_c, 4, 69, 0
6, 54715, Note_on_c, 4, 69, 50
6, 54715, Note_on_c, 4, 72, 50
6, 54715, Note_on_c, 4, 76, 50
6, 54720, Note_on_c, 4, 64, 100
6, 54720, Note_on_c, 4, 67, 100
6, 54720, Note_on_c, 4, 71, 100
6, 54747, Note_on_c, 4, 71, 0
6, 54747, Note_on_c, 4, 64, 0
6, 54747, Note_on_c, 4, 67, 0
6, 54760, Note_on_c, 4, 69, 0
6, 54760, Note_on_c, 4, 76, 0
6, 54760, Note_on_c, 4, 72, 0
6, 54775, Note_on_c, 4, 64, 50
6, 54775, Note_on_c, 4, 67, 50
6, 54775, Note_on_c, 4, 71, 50
6, 54802, Note_on_c, 4, 71, 0
6, 54802, Note_on_c, 4, 67, 0
6, 54802, Note_on_c, 4, 64, 0
6, 54810, Note_on_c, 4, 71, 100
6, 54810, Note_on_c, 4, 67, 100
6, 54810, Note_on_c, 4, 64, 100
6, 54837, Note_on_c, 4, 64, 0
6, 54837, Note_on_c, 4, 67, 0
6, 54837, Note_on_c, 4, 71, 0
6, 54865, Note_on_c, 4, 71, 50
6, 54865, Note_on_c, 4, 67, 50
6, 54865, Note_on_c, 4, 64, 50
6, 54892, Note_on_c, 4, 64, 0
6, 54892, Note_on_c, 4, 67, 0
6, 54892, Note_on_c, 4, 71, 0
6, 54900, Note_on_c, 4, 71, 100
6, 54900, Note_on_c, 4, 67, 100
6, 54900, Note_on_c, 4, 64, 100
6, 54945, Note_on_c, 4, 64, 0
6, 54945, Note_on_c, 4, 67, 0
6, 54945, Note_on_c, 4, 71, 0
6, 54955, Note_on_c, 4, 71, 50
6, 54955, Note_on_c, 4, 67, 50
6, 54955, Note_on_c, 4, 64, 50
6, 54960, Note_on_c, 4, 64, 100
6, 54960, Note_on_c, 4, 71, 100
6, 54960, Note_on_c, 4, 67, 100
6, 54987, Note_on_c, 4, 64, 0
6, 54987, Note_on_c, 4, 71, 0
6, 54987, Note_on_c, 4, 67, 0
6, 55000, Note_on_c, 4, 64, 0
6, 55000, Note_on_c, 4, 71, 0
6, 55000, Note_on_c, 4, 67, 0
6, 55015, Note_on_c, 4, 64, 50
6, 55015, Note_on_c, 4, 71, 50
6, 55015, Note_on_c, 4, 67, 50
6, 55042, Note_on_c, 4, 67, 0
6, 55042, Note_on_c, 4, 71, 0
6, 55042, Note_on_c, 4, 64, 0
6, 55050, Note_on_c, 4, 67, 100
6, 55050, Note_on_c, 4, 64, 100
6, 55050, Note_on_c, 4, 71, 100
6, 55077, Note_on_c, 4, 71, 0
6, 55077, Note_on_c, 4, 64, 0
6, 55077, Note_on_c, 4, 67, 0
6, 55105, Note_on_c, 4, 67, 50
6, 55105, Note_on_c, 4, 64, 50
6, 55105, Note_on_c, 4, 71, 50
6, 55132, Note_on_c, 4, 71, 0
6, 55132, Note_on_c, 4, 64, 0
6, 55132, Note_on_c, 4, 67, 0
6, 55140, Note_on_c, 4, 76, 100
6, 55140, Note_on_c, 4, 67, 100
6, 55140, Note_on_c, 4, 72, 100
6, 55185, Note_on_c, 4, 72, 0
6, 55185, Note_on_c, 4, 67, 0
6, 55185, Note_on_c, 4, 76, 0
6, 55195, Note_on_c, 4, 76, 50
6, 55195, Note_on_c, 4, 67, 50
6, 55195, Note_on_c, 4, 72, 50
6, 55200, Note_on_c, 4, 67, 100
6, 55200, Note_on_c, 4, 72, 100
6, 55200, Note_on_c, 4, 76, 100
6, 55227, Note_on_c, 4, 72, 0
6, 55227, Note_on_c, 4, 76, 0
6, 55227, Note_on_c, 4, 67, 0
6, 55240, Note_on_c, 4, 67, 0
6, 55240, Note_on_c, 4, 72, 0
6, 55240, Note_on_c, 4, 76, 0
6, 55255, Note_on_c, 4, 67, 50
6, 55255, Note_on_c, 4, 72, 50
6, 55255, Note_on_c, 4, 76, 50
6, 55282, Note_on_c, 4, 76, 0
6, 55282, Note_on_c, 4, 72, 0
6, 55282, Note_on_c, 4, 67, 0
6, 55290, Note_on_c, 4, 76, 100
6, 55290, Note_on_c, 4, 72, 100
6, 55290, Note_on_c, 4, 67, 100
6, 55317, Note_on_c, 4, 67, 0
6, 55317, Note_on_c, 4, 72, 0
6, 55317, Note_on_c, 4, 76, 0
6, 55345, Note_on_c, 4, 76, 50
6, 55345, Note_on_c, 4, 72, 50
6, 55345, Note_on_c, 4, 67, 50
6, 55372, Note_on_c, 4, 67, 0
6, 55372, Note_on_c, 4, 72, 0
6, 55372, Note_on_c, 4, 76, 0
6, 55380, Note_on_c, 4, 67, 100
6, 55380, Note_on_c, 4, 74, 100
6, 55380, Note_on_c, 4, 71, 100
6, 55425, Note_on_c, 4, 71, 0
6, 55425, Note_on_c, 4, 74, 0
6, 55425, Note_on_c, 4, 67, 0
6, 55435, Note_on_c, 4, 67, 50
6, 55435, Note_on_c, 4, 74, 50
6, 55435, Note_on_c, 4, 71, 50
6, 55440, Note_on_c, 4, 71, 100
6, 55440, Note_on_c, 4, 67, 100
6, 55440, Note_on_c, 4, 74, 100
6, 55467, Note_on_c, 4, 71, 0
6, 55467, Note_on_c, 4, 67, 0
6, 55467, Note_on_c, 4, 74, 0
6, 55480, Note_on_c, 4, 71, 0
6, 55480, Note_on_c, 4, 67, 0
6, 55480, Note_on_c, 4, 74, 0
6, 55495, Note_on_c, 4, 71, 50
6, 55495, Note_on_c, 4, 67, 50
6, 55495, Note_on_c, 4, 74, 50
6, 55522, Note_on_c, 4, 74, 0
6, 55522, Note_on_c, 4, 67, 0
6, 55522, Note_on_c, 4, 71, 0
6, 55530, Note_on_c, 4, 74, 100
6, 55530, Note_on_c, 4, 67, 100
6, 55530, Note_on_c, 4, 71, 100
6, 55557, Note_on_c, 4, 71, 0
6, 55557, Note_on_c, 4, 67, 0
6, 55557, Note_on_c, 4, 74, 0
6, 55585, Note_on_c, 4, 74, 50
6, 55585, Note_on_c, 4, 67, 50
6, 55585, Note_on_c, 4, 71, 50
6, 55612, Note_on_c, 4, 71, 0
6, 55612, Note_on_c, 4, 67, 0
6, 55612, Note_on_c, 4, 74, 0
6, 55620, Note_on_c, 4, 66, 100
6, 55620, Note_on_c, 4, 62, 100
6, 55620, Note_on_c, 4, 69, 100
6, 55665, Note_on_c, 4, 69, 0
6, 55665, Note_on_c, 4, 62, 0
6, 55665, Note_on_c, 4, 66, 0
6, 55675, Note_on_c, 4, 66, 50
6, 55675, Note_on_c, 4, 62, 50
6, 55675, Note_on_c, 4, 69, 50
6, 55680, Note_on_c, 4, 64, 100
6, 55680, Note_on_c, 4, 67, 100
6, 55680, Note_on_c, 4, 71, 100
6, 55707, Note_on_c, 4, 71, 0
6, 55707, Note_on_c, 4, 64, 0
6, 55707, Note_on_c, 4, 67, 0
6, 55720, Note_on_c, 4, 66, 0
6, 55720, Note_on_c, 4, 69, 0
6, 55720, Note_on_c, 4, 62, 0
6, 55735, Note_on_c, 4, 64, 50
6, 55735, Note_on_c, 4, 67, 50
6, 55735, Note_on_c, 4, 71, 50
6, 55762, Note_on_c, 4, 71, 0
6, 55762, Note_on_c, 4, 67, 0
6, 55762, Note_on_c, 4, 64, 0
6, 55770, Note_on_c, 4, 71, 100
6, 55770, Note_on_c, 4, 67, 100
6, 55770, Note_on_c, 4, 64, 100
6, 55797, Note_on_c, 4, 64, 0
6, 55797, Note_on_c, 4, 67, 0
6, 55797, Note_on_c, 4, 71, 0
6, 55825, Note_on_c, 4, 71, 50
6, 55825, Note_on_c, 4, 67, 50
6, 55825, Note_on_c, 4, 64, 50
6, 55852, Note_on_c, 4, 64, 0
6, 55852, Note_on_c, 4, 67, 0
6, 55852, Note_on_c, 4, 71, 0
6, 55860, Note_on_c, 4, 71, 100
6, 55860, Note_on_c, 4, 67, 100
6, 55860, Note_on_c, 4, 64, 100
6, 55905, Note_on_c, 4, 64, 0
6, 55905, Note_on_c, 4, 67, 0
6, 55905, Note_on_c, 4, 71, 0
6, 55915, Note_on_c, 4, 71, 50
6, 55915, Note_on_c, 4, 67, 50
6, 55915, Note_on_c, 4, 64, 50
6, 55920, Note_on_c, 4, 64, 100
6, 55920, Note_on_c, 4, 67, 100
6, 55920, Note_on_c, 4, 71, 100
6, 55947, Note_on_c, 4, 64, 0
6, 55947, Note_on_c, 4, 71, 0
6, 55947, Note_on_c, 4, 67, 0
6, 55960, Note_on_c, 4, 64, 0
6, 55960, Note_on_c, 4, 67, 0
6, 55960, Note_on_c, 4, 71, 0
6, 55975, Note_on_c, 4, 64, 50
6, 55975, Note_on_c, 4, 67, 50
6, 55975, Note_on_c, 4, 71, 50
6, 56002, Note_on_c, 4, 71, 0
6, 56002, Note_on_c, 4, 67, 0
6, 56002, Note_on_c, 4, 64, 0
6, 56010, Note_on_c, 4, 64, 100
6, 56010, Note_on_c, 4, 67, 100
6, 56010, Note_on_c, 4, 71, 100
6, 56037, Note_on_c, 4, 71, 0
6, 56037, Note_on_c, 4, 67, 0
6, 56037, Note_on_c, 4, 64, 0
6, 56065, Note_on_c, 4, 64, 50
6, 56065, Note_on_c, 4, 67, 50
6, 56065, Note_on_c, 4, 71, 50
6, 56092, Note_on_c, 4, 71, 0
6, 56092, Note_on_c, 4, 67, 0
6, 56092, Note_on_c, 4, 64, 0
6, 56100, Note_on_c, 4, 76, 100
6, 56100, Note_on_c, 4, 69, 100
6, 56100, Note_on_c, 4, 72, 100
6, 56145, Note_on_c, 4, 72, 0
6, 56145, Note_on_c, 4, 69, 0
6, 56145, Note_on_c, 4, 76, 0
6, 56155, Note_on_c, 4, 76, 50
6, 56155, Note_on_c, 4, 69, 50
6, 56155, Note_on_c, 4, 72, 50
6, 56160, Note_on_c, 4, 64, 100
6, 56160, Note_on_c, 4, 71, 100
6, 56160, Note_on_c, 4, 67, 100
6, 56187, Note_on_c, 4, 67, 0
6, 56187, Note_on_c, 4, 64, 0
6, 56187, Note_on_c, 4, 71, 0
6, 56200, Note_on_c, 4, 76, 0
6, 56200, Note_on_c, 4, 72, 0
6, 56200, Note_on_c, 4, 69, 0
6, 56215, Note_on_c, 4, 64, 50
6, 56215, Note_on_c, 4, 71, 50
6, 56215, Note_on_c, 4, 67, 50
6, 56242, Note_on_c, 4, 67, 0
6, 56242, Note_on_c, 4, 71, 0
6, 56242, Note_on_c, 4, 64, 0
6, 56250, Note_on_c, 4, 64, 100
6, 56250, Note_on_c, 4, 71, 100
6, 56250, Note_on_c, 4, 67, 100
6, 56277, Note_on_c, 4, 67, 0
6, 56277, Note_on_c, 4, 71, 0
6, 56277, Note_on_c, 4, 64, 0
6, 56305, Note_on_c, 4, 64, 50
6, 56305, Note_on_c, 4, 71, 50
6, 56305, Note_on_c, 4, 67, 50
6, 56332, Note_on_c, 4, 67, 0
6, 56332, Note_on_c, 4, 71, 0
6, 56332, Note_on_c, 4, 64, 0
6, 56340, Note_on_c, 4, 64, 100
6, 56340, Note_on_c, 4, 71, 100
6, 56340, Note_on_c, 4, 67, 100
6, 56385, Note_on_c, 4, 67, 0
6, 56385, Note_on_c, 4, 71, 0
6, 56385, Note_on_c, 4, 64, 0
6, 56395, Note_on_c, 4, 64, 50
6, 56395, Note_on_c, 4, 71, 50
6, 56395, Note_on_c, 4, 67, 50
6, 56400, Note_on_c, 4, 67, 100
6, 56400, Note_on_c, 4, 64, 100
6, 56400, Note_on_c, 4, 71, 100
6, 56427, Note_on_c, 4, 67, 0
6, 56427, Note_on_c, 4, 64, 0
6, 56427, Note_on_c, 4, 71, 0
6, 56440, Note_on_c, 4, 67, 0
6, 56440, Note_on_c, 4, 64, 0
6, 56440, Note_on_c, 4, 71, 0
6, 56455, Note_on_c, 4, 67, 50
6, 56455, Note_on_c, 4, 64, 50
6, 56455, Note_on_c, 4, 71, 50
6, 56482, Note_on_c, 4, 71, 0
6, 56482, Note_on_c, 4, 64, 0
6, 56482, Note_on_c, 4, 67, 0
6, 56490, Note_on_c, 4, 71, 100
6, 56490, Note_on_c, 4, 64, 100
6, 56490, Note_on_c, 4, 67, 100
6, 56517, Note_on_c, 4, 67, 0
6, 56517, Note_on_c, 4, 64, 0
6, 56517, Note_on_c, 4, 71, 0
6, 56545, Note_on_c, 4, 71, 50
6, 56545, Note_on_c, 4, 64, 50
6, 56545, Note_on_c, 4, 67, 50
6, 56572, Note_on_c, 4, 67, 0
6, 56572, Note_on_c, 4, 64, 0
6, 56572, Note_on_c, 4, 71, 0
6, 56580, Note_on_c, 4, 69, 100
6, 56580, Note_on_c, 4, 76, 100
6, 56580, Note_on_c, 4, 72, 100
6, 56625, Note_on_c, 4, 72, 0
6, 56625, Note_on_c, 4, 76, 0
6, 56625, Note_on_c, 4, 69, 0
6, 56635, Note_on_c, 4, 69, 50
6, 56635, Note_on_c, 4, 76, 50
6, 56635, Note_on_c, 4, 72, 50
6, 56640, Note_on_c, 4, 67, 100
6, 56640, Note_on_c, 4, 71, 100
6, 56640, Note_on_c, 4, 64, 100
6, 56667, Note_on_c, 4, 64, 0
6, 56667, Note_on_c, 4, 67, 0
6, 56667, Note_on_c, 4, 71, 0
6, 56680, Note_on_c, 4, 69, 0
6, 56680, Note_on_c, 4, 72, 0
6, 56680, Note_on_c, 4, 76, 0
6, 56695, Note_on_c, 4, 67, 50
6, 56695, Note_on_c, 4, 71, 50
6, 56695, Note_on_c, 4, 64, 50
6, 56722, Note_on_c, 4, 64, 0
6, 56722, Note_on_c, 4, 71, 0
6, 56722, Note_on_c, 4, 67, 0
6, 56730, Note_on_c, 4, 67, 100
6, 56730, Note_on_c, 4, 64, 100
6, 56730, Note_on_c, 4, 71, 100
6, 56757, Note_on_c, 4, 71, 0
6, 56757, Note_on_c, 4, 64, 0
6, 56757, Note_on_c, 4, 67, 0
6, 56785, Note_on_c, 4, 67, 50
6, 56785, Note_on_c, 4, 64, 50
6, 56785, Note_on_c, 4, 71, 50
6, 56812, Note_on_c, 4, 71, 0
6, 56812, Note_on_c, 4, 64, 0
6, 56812, Note_on_c, 4, 67, 0
6, 56820, Note_on_c, 4, 71, 100
6, 56820, Note_on_c, 4, 64, 100
6, 56820, Note_on_c, 4, 67, 100
6, 56865, Note_on_c, 4, 67, 0
6, 56865, Note_on_c, 4, 64, 0
6, 56865, Note_on_c, 4, 71, 0
6, 56875, Note_on_c, 4, 71, 50
6, 56875, Note_on_c, 4, 64, 50
6, 56875, Note_on_c, 4, 67, 50
6, 56880, Note_on_c, 4, 71, 100
6, 56880, Note_on_c, 4, 67, 100
6, 56880, Note_on_c, 4, 64, 100
6, 56907, Note_on_c, 4, 67, 0
6, 56907, Note_on_c, 4, 71, 0
6, 56907, Note_on_c, 4, 64, 0
6, 56920, Note_on_c, 4, 71, 0
6, 56920, Note_on_c, 4, 67, 0
6, 56920, Note_on_c, 4, 64, 0
6, 56935, Note_on_c, 4, 71, 50
6, 56935, Note_on_c, 4, 67, 50
6, 56935, Note_on_c, 4, 64, 50
6, 56962, Note_on_c, 4, 64, 0
6, 56962, Note_on_c, 4, 67, 0
6, 56962, Note_on_c, 4, 71, 0
6, 56970, Note_on_c, 4, 67, 100
6, 56970, Note_on_c, 4, 71, 100
6, 56970, Note_on_c, 4, 64, 100
6, 56997, Note_on_c, 4, 64, 0
6, 56997, Note_on_c, 4, 71, 0
6, 56997, Note_on_c, 4, 67, 0
6, 57025, Note_on_c, 4, 67, 50
6, 57025, Note_on_c, 4, 71, 50
6, 57025, Note_on_c, 4, 64, 50
6, 57052, Note_on_c, 4, 64, 0
6, 57052, Note_on_c, 4, 71, 0
6, 57052, Note_on_c, 4, 67, 0
6, 57060, Note_on_c, 4, 76, 100
6, 57060, Note_on_c, 4, 67, 100
6, 57060, Note_on_c, 4, 72, 100
6, 57105, Note_on_c, 4, 72, 0
6, 57105, Note_on_c, 4, 67, 0
6, 57105, Note_on_c, 4, 76, 0
6, 57115, Note_on_c, 4, 76, 50
6, 57115, Note_on_c, 4, 67, 50
6, 57115, Note_on_c, 4, 72, 50
6, 57120, Note_on_c, 4, 72, 100
6, 57120, Note_on_c, 4, 76, 100
6, 57120, Note_on_c, 4, 67, 100
6, 57147, Note_on_c, 4, 72, 0
6, 57147, Note_on_c, 4, 76, 0
6, 57147, Note_on_c, 4, 67, 0
6, 57160, Note_on_c, 4, 72, 0
6, 57160, Note_on_c, 4, 76, 0
6, 57160, Note_on_c, 4, 67, 0
6, 57175, Note_on_c, 4, 72, 50
6, 57175, Note_on_c, 4, 76, 50
6, 57175, Note_on_c, 4, 67, 50
6, 57202, Note_on_c, 4, 67, 0
6, 57202, Note_on_c, 4, 76, 0
6, 57202, Note_on_c, 4, 72, 0
6, 57210, Note_on_c, 4, 76, 100
6, 57210, Note_on_c, 4, 67, 100
6, 57210, Note_on_c, 4, 72, 100
6, 57237, Note_on_c, 4, 72, 0
6, 57237, Note_on_c, 4, 67, 0
6, 57237, Note_on_c, 4, 76, 0
6, 57265, Note_on_c, 4, 76, 50
6, 57265, Note_on_c, 4, 67, 50
6, 57265, Note_on_c, 4, 72, 50
6, 57292, Note_on_c, 4, 72, 0
6, 57292, Note_on_c, 4, 67, 0
6, 57292, Note_on_c, 4, 76, 0
6, 57300, Note_on_c, 4, 71, 100
6, 57300, Note_on_c, 4, 74, 100
6, 57300, Note_on_c, 4, 67, 100
6, 57345, Note_on_c, 4, 67, 0
6, 57345, Note_on_c, 4, 74, 0
6, 57345, Note_on_c, 4, 71, 0
6, 57355, Note_on_c, 4, 71, 50
6, 57355, Note_on_c, 4, 74, 50
6, 57355, Note_on_c, 4, 67, 50
6, 57360, Note_on_c, 4, 71, 100
6, 57360, Note_on_c, 4, 74, 100
6, 57360, Note_on_c, 4, 67, 100
6, 57387, Note_on_c, 4, 67, 0
6, 57387, Note_on_c, 4, 71, 0
6, 57387, Note_on_c, 4, 74, 0
6, 57400, Note_on_c, 4, 71, 0
6, 57400, Note_on_c, 4, 74, 0
6, 57400, Note_on_c, 4, 67, 0
6, 57415, Note_on_c, 4, 71, 50
6, 57415, Note_on_c, 4, 74, 50
6, 57415, Note_on_c, 4, 67, 50
6, 57442, Note_on_c, 4, 67, 0
6, 57442, Note_on_c, 4, 74, 0
6, 57442, Note_on_c, 4, 71, 0
6, 57450, Note_on_c, 4, 74, 100
6, 57450, Note_on_c, 4, 71, 100
6, 57450, Note_on_c, 4, 67, 100
6, 57477, Note_on_c, 4, 67, 0
6, 57477, Note_on_c, 4, 71, 0
6, 57477, Note_on_c, 4, 74, 0
6, 57505, Note_on_c, 4, 74, 50
6, 57505, Note_on_c, 4, 71, 50
6, 57505, Note_on_c, 4, 67, 50
6, 57532, Note_on_c, 4, 67, 0
6, 57532, Note_on_c, 4, 71, 0
6, 57532, Note_on_c, 4, 74, 0
6, 57540, Note_on_c, 4, 62, 100
6, 57540, Note_on_c, 4, 69, 100
6, 57540, Note_on_c, 4, 66, 100
6, 57585, Note_on_c, 4, 66, 0
6, 57585, Note_on_c, 4, 69, 0
6, 57585, Note_on_c, 4, 62, 0
6, 57595, Note_on_c, 4, 62, 50
6, 57595, Note_on_c, 4, 69, 50
6, 57595, Note_on_c, 4, 66, 50
6, 57600, Note_on_c, 4, 64, 100
6, 57600, Note_on_c, 4, 67, 100
6, 57600, Note_on_c, 4, 71, 100
6, 57627, Note_on_c, 4, 71, 0
6, 57627, Note_on_c, 4, 64, 0
6, 57627, Note_on_c, 4, 67, 0
6, 57640, Note_on_c, 4, 62, 0
6, 57640, Note_on_c, 4, 66, 0
6, 57640, Note_on_c, 4, 69, 0
6, 57655, Note_on_c, 4, 64, 50
6, 57655, Note_on_c, 4, 67, 50
6, 57655, Note_on_c, 4, 71, 50
6, 57682, Note_on_c, 4, 71, 0
6, 57682, Note_on_c, 4, 67, 0
6, 57682, Note_on_c, 4, 64, 0
6, 57690, Note_on_c, 4, 67, 100
6, 57690, Note_on_c, 4, 71, 100
6, 57690, Note_on_c, 4, 64, 100
6, 57717, Note_on_c, 4, 64, 0
6, 57717, Note_on_c, 4, 71, 0
6, 57717, Note_on_c, 4, 67, 0
6, 57745, Note_on_c, 4, 67, 50
6, 57745, Note_on_c, 4, 71, 50
6, 57745, Note_on_c, 4, 64, 50
6, 57772, Note_on_c, 4, 64, 0
6, 57772, Note_on_c, 4, 71, 0
6, 57772, Note_on_c, 4, 67, 0
6, 57780, Note_on_c, 4, 64, 100
6, 57780, Note_on_c, 4, 71, 100
6, 57780, Note_on_c, 4, 67, 100
6, 57825, Note_on_c, 4, 67, 0
6, 57825, Note_on_c, 4, 71, 0
6, 57825, Note_on_c, 4, 64, 0
6, 57835, Note_on_c, 4, 64, 50
6, 57835, Note_on_c, 4, 71, 50
6, 57835, Note_on_c, 4, 67, 50
6, 57840, Note_on_c, 4, 64, 100
6, 57840, Note_on_c, 4, 67, 100
6, 57840, Note_on_c, 4, 71, 100
6, 57867, Note_on_c, 4, 67, 0
6, 57867, Note_on_c, 4, 64, 0
6, 57867, Note_on_c, 4, 71, 0
6, 57880, Note_on_c, 4, 64, 0
6, 57880, Note_on_c, 4, 67, 0
6, 57880, Note_on_c, 4, 71, 0
6, 57895, Note_on_c, 4, 64, 50
6, 57895, Note_on_c, 4, 67, 50
6, 57895, Note_on_c, 4, 71, 50
6, 57922, Note_on_c, 4, 71, 0
6, 57922, Note_on_c, 4, 67, 0
6, 57922, Note_on_c, 4, 64, 0
6, 57930, Note_on_c, 4, 71, 100
6, 57930, Note_on_c, 4, 67, 100
6, 57930, Note_on_c, 4, 64, 100
6, 57957, Note_on_c, 4, 64, 0
6, 57957, Note_on_c, 4, 67, 0
6, 57957, Note_on_c, 4, 71, 0
6, 57985, Note_on_c, 4, 71, 50
6, 57985, Note_on_c, 4, 67, 50
6, 57985, Note_on_c, 4, 64, 50
6, 58012, Note_on_c, 4, 64, 0
6, 58012, Note_on_c, 4, 67, 0
6, 58012, Note_on_c, 4, 71, 0
6, 58020, Note_on_c, 4, 69, 100
6, 58020, Note_on_c, 4, 72, 100
6, 58020, Note_on_c, 4, 76, 100
6, 58065, Note_on_c, 4, 76, 0
6, 58065, Note_on_c, 4, 72, 0
6, 58065, Note_on_c, 4, 69, 0
6, 58075, Note_on_c, 4, 69, 50
6, 58075, Note_on_c, 4, 72, 50
6, 58075, Note_on_c, 4, 76, 50
6, 58080, Note_on_c, 4, 67, 100
6, 58080, Note_on_c, 4, 64, 100
6, 58080, Note_on_c, 4, 71, 100
6, 58107, Note_on_c, 4, 71, 0
6, 58107, Note_on_c, 4, 67, 0
6, 58107, Note_on_c, 4, 64, 0
6, 58120, Note_on_c, 4, 69, 0
6, 58120, Note_on_c, 4, 76, 0
6, 58120, Note_on_c, 4, 72, 0
6, 58135, Note_on_c, 4, 67, 50
6, 58135, Note_on_c, 4, 64, 50
6, 58135, Note_on_c, 4, 71, 50
6, 58162, Note_on_c, 4, 71, 0
6, 58162, Note_on_c, 4, 64, 0
6, 58162, Note_on_c, 4, 67, 0
6, 58170, Note_on_c, 4, 64, 100
6, 58170, Note_on_c, 4, 67, 100
6, 58170, Note_on_c, 4, 71, 100
6, 58197, Note_on_c, 4, 71, 0
6, 58197, Note_on_c, 4, 67, 0
6, 58197, Note_on_c, 4, 64, 0
6, 58225, Note_on_c, 4, 64, 50
6, 58225, Note_on_c, 4, 67, 50
6, 58225, Note_on_c, 4, 71, 50
6, 58252, Note_on_c, 4, 71, 0
6, 58252, Note_on_c, 4, 67, 0
6, 58252, Note_on_c, 4, 64, 0
6, 58260, Note_on_c, 4, 64, 100
6, 58260, Note_on_c, 4, 67, 100
6, 58260, Note_on_c, 4, 71, 100
6, 58305, Note_on_c, 4, 71, 0
6, 58305, Note_on_c, 4, 67, 0
6, 58305, Note_on_c, 4, 64, 0
6, 58315, Note_on_c, 4, 64, 50
6, 58315, Note_on_c, 4, 67, 50
6, 58315, Note_on_c, 4, 71, 50
6, 58320, Note_on_c, 4, 71, 100
6, 58320, Note_on_c, 4, 64, 100
6, 58320, Note_on_c, 4, 67, 100
6, 58347, Note_on_c, 4, 71, 0
6, 58347, Note_on_c, 4, 64, 0
6, 58347, Note_on_c, 4, 67, 0
6, 58360, Note_on_c, 4, 71, 0
6, 58360, Note_on_c, 4, 64, 0
6, 58360, Note_on_c, 4, 67, 0
6, 58375, Note_on_c, 4, 71, 50
6, 58375, Note_on_c, 4, 64, 50
6, 58375, Note_on_c, 4, 67, 50
6, 58402, Note_on_c, 4, 67, 0
6, 58402, Note_on_c, 4, 64, 0
6, 58402, Note_on_c, 4, 71, 0
6, 58410, Note_on_c, 4, 64, 100
6, 58410, Note_on_c, 4, 71, 100
6, 58410, Note_on_c, 4, 67, 100
6, 58437, Note_on_c, 4, 67, 0
6, 58437, Note_on_c, 4, 71, 0
6, 58437, Note_on_c, 4, 64, 0
6, 58465, Note_on_c, 4, 64, 50
6, 58465, Note_on_c, 4, 71, 50
6, 58465, Note_on_c, 4, 67, 50
6, 58492, Note_on_c, 4, 67, 0
6, 58492, Note_on_c, 4, 71, 0
6, 58492, Note_on_c, 4, 64, 0
6, 58500, Note_on_c, 4, 72, 100
6, 58500, Note_on_c, 4, 69, 100
6, 58500, Note_on_c, 4, 76, 100
6, 58545, Note_on_c, 4, 76, 0
6, 58545, Note_on_c, 4, 69, 0
6, 58545, Note_on_c, 4, 72, 0
6, 58555, Note_on_c, 4, 72, 50
6, 58555, Note_on_c, 4, 69, 50
6, 58555, Note_on_c, 4, 76, 50
6, 58560, Note_on_c, 4, 71, 100
6, 58560, Note_on_c, 4, 64, 100
6, 58560, Note_on_c, 4, 67, 100
6, 58587, Note_on_c, 4, 67, 0
6, 58587, Note_on_c, 4, 71, 0
6, 58587, Note_on_c, 4, 64, 0
6, 58600, Note_on_c, 4, 72, 0
6, 58600, Note_on_c, 4, 76, 0
6, 58600, Note_on_c, 4, 69, 0
6, 58615, Note_on_c, 4, 71, 50
6, 58615, Note_on_c, 4, 64, 50
6, 58615, Note_on_c, 4, 67, 50
6, 58642, Note_on_c, 4, 67, 0
6, 58642, Note_on_c, 4, 64, 0
6, 58642, Note_on_c, 4, 71, 0
6, 58650, Note_on_c, 4, 67, 100
6, 58650, Note_on_c, 4, 64, 100
6, 58650, Note_on_c, 4, 71, 100
6, 58677, Note_on_c, 4, 71, 0
6, 58677, Note_on_c, 4, 64, 0
6, 58677, Note_on_c, 4, 67, 0
6, 58705, Note_on_c, 4, 67, 50
6, 58705, Note_on_c, 4, 64, 50
6, 58705, Note_on_c, 4, 71, 50
6, 58732, Note_on_c, 4, 71, 0
6, 58732, Note_on_c, 4, 64, 0
6, 58732, Note_on_c, 4, 67, 0
6, 58740, Note_on_c, 4, 64, 100
6, 58740, Note_on_c, 4, 67, 100
6, 58740, Note_on_c, 4, 71, 100
6, 58785, Note_on_c, 4, 71, 0
6, 58785, Note_on_c, 4, 67, 0
6, 58785, Note_on_c, 4, 64, 0
6, 58795, Note_on_c, 4, 64, 50
6, 58795, Note_on_c, 4, 67, 50
6, 58795, Note_on_c, 4, 71, 50
6, 58800, Note_on_c, 4, 64, 100
6, 58800, Note_on_c, 4, 67, 100
6, 58800, Note_on_c, 4, 71, 100
6, 58827, Note_on_c, 4, 71, 0
6, 58827, Note_on_c, 4, 64, 0
6, 58827, Note_on_c, 4, 67, 0
6, 58840, Note_on_c, 4, 64, 0
6, 58840, Note_on_c, 4, 67, 0
6, 58840, Note_on_c, 4, 71, 0
6, 58855, Note_on_c, 4, 64, 50
6, 58855, Note_on_c, 4, 67, 50
6, 58855, Note_on_c, 4, 71, 50
6, 58882, Note_on_c, 4, 71, 0
6, 58882, Note_on_c, 4, 67, 0
6, 58882, Note_on_c, 4, 64, 0
6, 58890, Note_on_c, 4, 67, 100
6, 58890, Note_on_c, 4, 64, 100
6, 58890, Note_on_c, 4, 71, 100
6, 58917, Note_on_c, 4, 71, 0
6, 58917, Note_on_c, 4, 64, 0
6, 58917, Note_on_c, 4, 67, 0
6, 58945, Note_on_c, 4, 67, 50
6, 58945, Note_on_c, 4, 64, 50
6, 58945, Note_on_c, 4, 71, 50
6, 58972, Note_on_c, 4, 71, 0
6, 58972, Note_on_c, 4, 64, 0
6, 58972, Note_on_c, 4, 67, 0
6, 58980, Note_on_c, 4, 72, 100
6, 58980, Note_on_c, 4, 67, 100
6, 58980, Note_on_c, 4, 76, 100
6, 59025, Note_on_c, 4, 76, 0
6, 59025, Note_on_c, 4, 67, 0
6, 59025, Note_on_c, 4, 72, 0
6, 59035, Note_on_c, 4, 72, 50
6, 59035, Note_on_c, 4, 67, 50
6, 59035, Note_on_c, 4, 76, 50
6, 59040, Note_on_c, 4, 72, 100
6, 59040, Note_on_c, 4, 67, 100
6, 59040, Note_on_c, 4, 76, 100
6, 59067, Note_on_c, 4, 76, 0
6, 59067, Note_on_c, 4, 72, 0
6, 59067, Note_on_c, 4, 67, 0
6, 59080, Note_on_c, 4, 72, 0
6, 59080, Note_on_c, 4, 67, 0
6, 59080, Note_on_c, 4, 76, 0
6, 59095, Note_on_c, 4, 72, 50
6, 59095, Note_on_c, 4, 67, 50
6, 59095, Note_on_c, 4, 76, 50
6, 59122, Note_on_c, 4, 76, 0
6, 59122, Note_on_c, 4, 67, 0
6, 59122, Note_on_c, 4, 72, 0
6, 59130, Note_on_c, 4, 67, 100
6, 59130, Note_on_c, 4, 72, 100
6, 59130, Note_on_c, 4, 76, 100
6, 59157, Note_on_c, 4, 76, 0
6, 59157, Note_on_c, 4, 72, 0
6, 59157, Note_on_c, 4, 67, 0
6, 59185, Note_on_c, 4, 67, 50
6, 59185, Note_on_c, 4, 72, 50
6, 59185, Note_on_c, 4, 76, 50
6, 59212, Note_on_c, 4, 76, 0
6, 59212, Note_on_c, 4, 72, 0
6, 59212, Note_on_c, 4, 67, 0
6, 59220, Note_on_c, 4, 74, 100
6, 59220, Note_on_c, 4, 67, 100
6, 59220, Note_on_c, 4, 71, 100
6, 59265, Note_on_c, 4, 71, 0
6, 59265, Note_on_c, 4, 67, 0
6, 59265, Note_on_c, 4, 74, 0
6, 59275, Note_on_c, 4, 74, 50
6, 59275, Note_on_c, 4, 67, 50
6, 59275, Note_on_c, 4, 71, 50
6, 59280, Note_on_c, 4, 74, 100
6, 59280, Note_on_c, 4, 71, 100
6, 59280, Note_on_c, 4, 67, 100
6, 59307, Note_on_c, 4, 71, 0
6, 59307, Note_on_c, 4, 74, 0
6, 59307, Note_on_c, 4, 67, 0
6, 59320, Note_on_c, 4, 74, 0
6, 59320, Note_on_c, 4, 71, 0
6, 59320, Note_on_c, 4, 67, 0
6, 59335, Note_on_c, 4, 74, 50
6, 59335, Note_on_c, 4, 71, 50
6, 59335, Note_on_c, 4, 67, 50
6, 59362, Note_on_c, 4, 67, 0
6, 59362, Note_on_c, 4, 71, 0
6, 59362, Note_on_c, 4, 74, 0
6, 59370, Note_on_c, 4, 67, 100
6, 59370, Note_on_c, 4, 71, 100
6, 59370, Note_on_c, 4, 74, 100
6, 59397, Note_on_c, 4, 74, 0
6, 59397, Note_on_c, 4, 71, 0
6, 59397, Note_on_c, 4, 67, 0
6, 59425, Note_on_c, 4, 67, 50
6, 59425, Note_on_c, 4, 71, 50
6, 59425, Note_on_c, 4, 74, 50
6, 59452, Note_on_c, 4, 74, 0
6, 59452, Note_on_c, 4, 71, 0
6, 59452, Note_on_c, 4, 67, 0
6, 59460, Note_on_c, 4, 69, 100
6, 59460, Note_on_c, 4, 66, 100
6, 59460, Note_on_c, 4, 62, 100
6, 59505, Note_on_c, 4, 62, 0
6, 59505, Note_on_c, 4, 66, 0
6, 59505, Note_on_c, 4, 69, 0
6, 59515, Note_on_c, 4, 69, 50
6, 59515, Note_on_c, 4, 66, 50
6, 59515, Note_on_c, 4, 62, 50
6, 59520, Note_on_c, 4, 71, 100
6, 59520, Note_on_c, 4, 67, 100
6, 59520, Note_on_c, 4, 64, 100
6, 59547, Note_on_c, 4, 64, 0
6, 59547, Note_on_c, 4, 71, 0
6, 59547, Note_on_c, 4, 67, 0
6, 59560, Note_on_c, 4, 69, 0
6, 59560, Note_on_c, 4, 62, 0
6, 59560, Note_on_c, 4, 66, 0
6, 59575, Note_on_c, 4, 71, 50
6, 59575, Note_on_c, 4, 67, 50
6, 59575, Note_on_c, 4, 64, 50
6, 59602, Note_on_c, 4, 64, 0
6, 59602, Note_on_c, 4, 67, 0
6, 59602, Note_on_c, 4, 71, 0
6, 59610, Note_on_c, 4, 64, 100
6, 59610, Note_on_c, 4, 67, 100
6, 59610, Note_on_c, 4, 71, 100
6, 59637, Note_on_c, 4, 71, 0
6, 59637, Note_on_c, 4, 67, 0
6, 59637, Note_on_c, 4, 64, 0
6, 59665, Note_on_c, 4, 64, 50
6, 59665, Note_on_c, 4, 67, 50
6, 59665, Note_on_c, 4, 71, 50
6, 59692, Note_on_c, 4, 71, 0
6, 59692, Note_on_c, 4, 67, 0
6, 59692, Note_on_c, 4, 64, 0
6, 59700, Note_on_c, 4, 64, 100
6, 59700, Note_on_c, 4, 67, 100
6, 59700, Note_on_c, 4, 71, 100
6, 59745, Note_on_c, 4, 71, 0
6, 59745, Note_on_c, 4, 67, 0
6, 59745, Note_on_c, 4, 64, 0
6, 59755, Note_on_c, 4, 64, 50
6, 59755, Note_on_c, 4, 67, 50
6, 59755, Note_on_c, 4, 71, 50
6, 59760, Note_on_c, 4, 64, 100
6, 59760, Note_on_c, 4, 71, 100
6, 59760, Note_on_c, 4, 67, 100
6, 59787, Note_on_c, 4, 71, 0
6, 59787, Note_on_c, 4, 64, 0
6, 59787, Note_on_c, 4, 67, 0
6, 59800, Note_on_c, 4, 64, 0
6, 59800, Note_on_c, 4, 71, 0
6, 59800, Note_on_c, 4, 67, 0
6, 59815, Note_on_c, 4, 64, 50
6, 59815, Note_on_c, 4, 71, 50
6, 59815, Note_on_c, 4, 67, 50
6, 59842, Note_on_c, 4, 67, 0
6, 59842, Note_on_c, 4, 71, 0
6, 59842, Note_on_c, 4, 64, 0
6, 59850, Note_on_c, 4, 67, 100
6, 59850, Note_on_c, 4, 71, 100
6, 59850, Note_on_c, 4, 64, 100
6, 59877, Note_on_c, 4, 64, 0
6, 59877, Note_on_c, 4, 71, 0
6, 59877, Note_on_c, 4, 67, 0
6, 59905, Note_on_c, 4, 67, 50
6, 59905, Note_on_c, 4, 71, 50
6, 59905, Note_on_c, 4, 64, 50
6, 59932, Note_on_c, 4, 64, 0
6, 59932, Note_on_c, 4, 71, 0
6, 59932, Note_on_c, 4, 67, 0
6, 59940, Note_on_c, 4, 69, 100
6, 59940, Note_on_c, 4, 76, 100
6, 59940, Note_on_c, 4, 72, 100
6, 59985, Note_on_c, 4, 72, 0
6, 59985, Note_on_c, 4, 76, 0
6, 59985, Note_on_c, 4, 69, 0
6, 59995, Note_on_c, 4, 69, 50
6, 59995, Note_on_c, 4, 76, 50
6, 59995, Note_on_c, 4, 72, 50
6, 60000, Note_on_c, 4, 67, 100
6, 60000, Note_on_c, 4, 64, 100
6, 60000, Note_on_c, 4, 71, 100
6, 60027, Note_on_c, 4, 71, 0
6, 60027, Note_on_c, 4, 67, 0
6, 60027, Note_on_c, 4, 64, 0
6, 60040, Note_on_c, 4, 69, 0
6, 60040, Note_on_c, 4, 72, 0
6, 60040, Note_on_c, 4, 76, 0
6, 60055, Note_on_c, 4, 67, 50
6, 60055, Note_on_c, 4, 64, 50
6, 60055, Note_on_c, 4, 71, 50
6, 60082, Note_on_c, 4, 71, 0
6, 60082, Note_on_c, 4, 64, 0
6, 60082, Note_on_c, 4, 67, 0
6, 60090, Note_on_c, 4, 71, 100
6, 60090, Note_on_c, 4, 67, 100
6, 60090, Note_on_c, 4, 64, 100
6, 60117, Note_on_c, 4, 64, 0
6, 60117, Note_on_c, 4, 67, 0
6, 60117, Note_on_c, 4, 71, 0
6, 60145, Note_on_c, 4, 71, 50
6, 60145, Note_on_c, 4, 67, 50
6, 60145, Note_on_c, 4, 64, 50
6, 60172, Note_on_c, 4, 64, 0
6, 60172, Note_on_c, 4, 67, 0
6, 60172, Note_on_c, 4, 71, 0
6, 60180, Note_on_c, 4, 67, 100
6, 60180, Note_on_c, 4, 71, 100
6, 60180, Note_on_c, 4, 64, 100
6, 60225, Note_on_c, 4, 64, 0
6, 60225, Note_on_c, 4, 71, 0
6, 60225, Note_on_c, 4, 67, 0
6, 60235, Note_on_c, 4, 67, 50
6, 60235, Note_on_c, 4, 71, 50
6, 60235, Note_on_c, 4, 64, 50
6, 60240, Note_on_c, 4, 71, 100
6, 60240, Note_on_c, 4, 64, 100
6, 60240, Note_on_c, 4, 67, 100
6, 60267, Note_on_c, 4, 64, 0
6, 60267, Note_on_c, 4, 67, 0
6, 60267, Note_on_c, 4, 71, 0
6, 60280, Note_on_c, 4, 71, 0
6, 60280, Note_on_c, 4, 64, 0
6, 60280, Note_on_c, 4, 67, 0
6, 60295, Note_on_c, 4, 71, 50
6, 60295, Note_on_c, 4, 64, 50
6, 60295, Note_on_c, 4, 67, 50
6, 60322, Note_on_c, 4, 67, 0
6, 60322, Note_on_c, 4, 64, 0
6, 60322, Note_on_c, 4, 71, 0
6, 60330, Note_on_c, 4, 64, 100
6, 60330, Note_on_c, 4, 67, 100
6, 60330, Note_on_c, 4, 71, 100
6, 60357, Note_on_c, 4, 71, 0
6, 60357, Note_on_c, 4, 67, 0
6, 60357, Note_on_c, 4, 64, 0
6, 60385, Note_on_c, 4, 64, 50
6, 60385, Note_on_c, 4, 67, 50
6, 60385, Note_on_c, 4, 71, 50
6, 60412, Note_on_c, 4, 71, 0
6, 60412, Note_on_c, 4, 67, 0
6, 60412, Note_on_c, 4, 64, 0
6, 60420, Note_on_c, 4, 76, 100
6, 60420, Note_on_c, 4, 72, 100
6, 60420, Note_on_c, 4, 69, 100
6, 60465, Note_on_c, 4, 69, 0
6, 60465, Note_on_c, 4, 72, 0
6, 60465, Note_on_c, 4, 76, 0
6, 60475, Note_on_c, 4, 76, 50
6, 60475, Note_on_c, 4, 72, 50
6, 60475, Note_on_c, 4, 69, 50
6, 60480, Note_on_c, 4, 64, 100
6, 60480, Note_on_c, 4, 67, 100
6, 60480, Note_on_c, 4, 71, 100
6, 60507, Note_on_c, 4, 71, 0
6, 60507, Note_on_c, 4, 64, 0
6, 60507, Note_on_c, 4, 67, 0
6, 60520, Note_on_c, 4, 76, 0
6, 60520, Note_on_c, 4, 69, 0
6, 60520, Note_on_c, 4, 72, 0
6, 60535, Note_on_c, 4, 64, 50
6, 60535, Note_on_c, 4, 67, 50
6, 60535, Note_on_c, 4, 71, 50
6, 60562, Note_on_c, 4, 71, 0
6, 60562, Note_on_c, 4, 67, 0
6, 60562, Note_on_c, 4, 64, 0
6, 60570, Note_on_c, 4, 64, 100
6, 60570, Note_on_c, 4, 67, 100
6, 60570, Note_on_c, 4, 71, 100
6, 60597, Note_on_c, 4, 71, 0
6, 60597, Note_on_c, 4, 67, 0
6, 60597, Note_on_c, 4, 64, 0
6, 60625, Note_on_c, 4, 64, 50
6, 60625, Note_on_c, 4, 67, 50
6, 60625, Note_on_c, 4, 71, 50
6, 60652, Note_on_c, 4, 71, 0
6, 60652, Note_on_c, 4, 67, 0
6, 60652, Note_on_c, 4, 64, 0
6, 60660, Note_on_c, 4, 64, 100
6, 60660, Note_on_c, 4, 67, 100
6, 60660, Note_on_c, 4, 71, 100
6, 60705, Note_on_c, 4, 71, 0
6, 60705, Note_on_c, 4, 67, 0
6, 60705, Note_on_c, 4, 64, 0
6, 60715, Note_on_c, 4, 64, 50
6, 60715, Note_on_c, 4, 67, 50
6, 60715, Note_on_c, 4, 71, 50
6, 60720, Note_on_c, 4, 67, 100
6, 60720, Note_on_c, 4, 64, 100
6, 60720, Note_on_c, 4, 71, 100
6, 60747, Note_on_c, 4, 71, 0
6, 60747, Note_on_c, 4, 64, 0
6, 60747, Note_on_c, 4, 67, 0
6, 60760, Note_on_c, 4, 67, 0
6, 60760, Note_on_c, 4, 64, 0
6, 60760, Note_on_c, 4, 71, 0
6, 60775, Note_on_c, 4, 67, 50
6, 60775, Note_on_c, 4, 64, 50
6, 60775, Note_on_c, 4, 71, 50
6, 60802, Note_on_c, 4, 71, 0
6, 60802, Note_on_c, 4, 64, 0
6, 60802, Note_on_c, 4, 67, 0
6, 60810, Note_on_c, 4, 67, 100
6, 60810, Note_on_c, 4, 64, 100
6, 60810, Note_on_c, 4, 71, 100
6, 60837, Note_on_c, 4, 71, 0
6, 60837, Note_on_c, 4, 64, 0
6, 60837, Note_on_c, 4, 67, 0
6, 60865, Note_on_c, 4, 67, 50
6, 60865, Note_on_c, 4, 64, 50
6, 60865, Note_on_c, 4, 71, 50
6, 60892, Note_on_c, 4, 71, 0
6, 60892, Note_on_c, 4, 64, 0
6, 60892, Note_on_c, 4, 67, 0
6, 60900, Note_on_c, 4, 76, 100
6, 60900, Note_on_c, 4, 69, 100
6, 60900, Note_on_c, 4, 72, 100
6, 60945, Note_on_c, 4, 72, 0
6, 60945, Note_on_c, 4, 69, 0
6, 60945, Note_on_c, 4, 76, 0
6, 60955, Note_on_c, 4, 76, 50
6, 60955, Note_on_c, 4, 69, 50
6, 60955, Note_on_c, 4, 72, 50
6, 60960, Note_on_c, 4, 64, 100
6, 60960, Note_on_c, 4, 71, 100
6, 60960, Note_on_c, 4, 67, 100
6, 60987, Note_on_c, 4, 67, 0
6, 60987, Note_on_c, 4, 64, 0
6, 60987, Note_on_c, 4, 71, 0
6, 61000, Note_on_c, 4, 76, 0
6, 61000, Note_on_c, 4, 72, 0
6, 61000, Note_on_c, 4, 69, 0
6, 61015, Note_on_c, 4, 64, 50
6, 61015, Note_on_c, 4, 71, 50
6, 61015, Note_on_c, 4, 67, 50
6, 61042, Note_on_c, 4, 67, 0
6, 61042, Note_on_c, 4, 71, 0
6, 61042, Note_on_c, 4, 64, 0
6, 61050, Note_on_c, 4, 67, 100
6, 61050, Note_on_c, 4, 71, 100
6, 61050, Note_on_c, 4, 64, 100
6, 61077, Note_on_c, 4, 64, 0
6, 61077, Note_on_c, 4, 71, 0
6, 61077, Note_on_c, 4, 67, 0
6, 61105, Note_on_c, 4, 67, 50
6, 61105, Note_on_c, 4, 71, 50
6, 61105, Note_on_c, 4, 64, 50
6, 61132, Note_on_c, 4, 64, 0
6, 61132, Note_on_c, 4, 71, 0
6, 61132, Note_on_c, 4, 67, 0
6, 61140, Note_on_c, 4, 71, 100
6, 61140, Note_on_c, 4, 64, 100
6, 61140, Note_on_c, 4, 67, 100
6, 61185, Note_on_c, 4, 67, 0
6, 61185, Note_on_c, 4, 64, 0
6, 61185, Note_on_c, 4, 71, 0
6, 61195, Note_on_c, 4, 71, 50
6, 61195, Note_on_c, 4, 64, 50
6, 61195, Note_on_c, 4, 67, 50
6, 61200, Note_on_c, 4, 64, 100
6, 61200, Note_on_c, 4, 71, 100
6, 61200, Note_on_c, 4, 67, 100
6, 61227, Note_on_c, 4, 67, 0
6, 61227, Note_on_c, 4, 71, 0
6, 61227, Note_on_c, 4, 64, 0
6, 61240, Note_on_c, 4, 64, 0
6, 61240, Note_on_c, 4, 71, 0
6, 61240, Note_on_c, 4, 67, 0
6, 61255, Note_on_c, 4, 64, 50
6, 61255, Note_on_c, 4, 71, 50
6, 61255, Note_on_c, 4, 67, 50
6, 61282, Note_on_c, 4, 67, 0
6, 61282, Note_on_c, 4, 71, 0
6, 61282, Note_on_c, 4, 64, 0
6, 61290, Note_on_c, 4, 67, 100
6, 61290, Note_on_c, 4, 71, 100
6, 61290, Note_on_c, 4, 64, 100
6, 61317, Note_on_c, 4, 64, 0
6, 61317, Note_on_c, 4, 71, 0
6, 61317, Note_on_c, 4, 67, 0
6, 61345, Note_on_c, 4, 67, 50
6, 61345, Note_on_c, 4, 71, 50
6, 61345, Note_on_c, 4, 64, 50
6, 61372, Note_on_c, 4, 64, 0
6, 61372, Note_on_c, 4, 71, 0
6, 61372, Note_on_c, 4, 67, 0
6, 61380, Note_on_c, 4, 72, 100
6, 61380, Note_on_c, 4, 69, 100
6, 61380, Note_on_c, 4, 76, 100
6, 61425, Note_on_c, 4, 76, 0
6, 61425, Note_on_c, 4, 69, 0
6, 61425, Note_on_c, 4, 72, 0
6, 61435, Note_on_c, 4, 72, 50
6, 61435, Note_on_c, 4, 69, 50
6, 61435, Note_on_c, 4, 76, 50
6, 61440, Note_on_c, 4, 64, 100
6, 61440, Note_on_c, 4, 71, 100
6, 61440, Note_on_c, 4, 67, 100
6, 61467, Note_on_c, 4, 67, 0
6, 61467, Note_on_c, 4, 64, 0
6, 61467, Note_on_c, 4, 71, 0
6, 61480, Note_on_c, 4, 72, 0
6, 61480, Note_on_c, 4, 76, 0
6, 61480, Note_on_c, 4, 69, 0
6, 61495, Note_on_c, 4, 64, 50
6, 61495, Note_on_c, 4, 71, 50
6, 61495, Note_on_c, 4, 67, 50
6, 61522, Note_on_c, 4, 67, 0
6, 61522, Note_on_c, 4, 71, 0
6, 61522, Note_on_c, 4, 64, 0
6, 61530, Note_on_c, 4, 67, 100
6, 61530, Note_on_c, 4, 64, 100
6, 61530, Note_on_c, 4, 71, 100
6, 61557, Note_on_c, 4, 71, 0
6, 61557, Note_on_c, 4, 64, 0
6, 61557, Note_on_c, 4, 67, 0
6, 61585, Note_on_c, 4, 67, 50
6, 61585, Note_on_c, 4, 64, 50
6, 61585, Note_on_c, 4, 71, 50
6, 61612, Note_on_c, 4, 71, 0
6, 61612, Note_on_c, 4, 64, 0
6, 61612, Note_on_c, 4, 67, 0
6, 61620, Note_on_c, 4, 71, 100
6, 61620, Note_on_c, 4, 64, 100
6, 61620, Note_on_c, 4, 67, 100
6, 61665, Note_on_c, 4, 67, 0
6, 61665, Note_on_c, 4, 64, 0
6, 61665, Note_on_c, 4, 71, 0
6, 61675, Note_on_c, 4, 71, 50
6, 61675, Note_on_c, 4, 64, 50
6, 61675, Note_on_c, 4, 67, 50
6, 61680, Note_on_c, 4, 71, 100
6, 61680, Note_on_c, 4, 64, 100
6, 61680, Note_on_c, 4, 67, 100
6, 61707, Note_on_c, 4, 67, 0
6, 61707, Note_on_c, 4, 71, 0
6, 61707, Note_on_c, 4, 64, 0
6, 61720, Note_on_c, 4, 71, 0
6, 61720, Note_on_c, 4, 64, 0
6, 61720, Note_on_c, 4, 67, 0
6, 61735, Note_on_c, 4, 71, 50
6, 61735, Note_on_c, 4, 64, 50
6, 61735, Note_on_c, 4, 67, 50
6, 61762, Note_on_c, 4, 67, 0
6, 61762, Note_on_c, 4, 64, 0
6, 61762, Note_on_c, 4, 71, 0
6, 61770, Note_on_c, 4, 64, 100
6, 61770, Note_on_c, 4, 67, 100
6, 61770, Note_on_c, 4, 71, 100
6, 61797, Note_on_c, 4, 71, 0
6, 61797, Note_on_c, 4, 67, 0
6, 61797, Note_on_c, 4, 64, 0
6, 61825, Note_on_c, 4, 64, 50
6, 61825, Note_on_c, 4, 67, 50
6, 61825, Note_on_c, 4, 71, 50
6, 61852, Note_on_c, 4, 71, 0
6, 61852, Note_on_c, 4, 67, 0
6, 61852, Note_on_c, 4, 64, 0
6, 61860, Note_on_c, 4, 76, 100
6, 61860, Note_on_c, 4, 69, 100
6, 61860, Note_on_c, 4, 72, 100
6, 61905, Note_on_c, 4, 72, 0
6, 61905, Note_on_c, 4, 69, 0
6, 61905, Note_on_c, 4, 76, 0
6, 61915, Note_on_c, 4, 76, 50
6, 61915, Note_on_c, 4, 69, 50
6, 61915, Note_on_c, 4, 72, 50
6, 61920, Note_on_c, 4, 72, 100
6, 61920, Note_on_c, 4, 67, 100
6, 61920, Note_on_c, 4, 76, 100
6, 61960, Note_on_c, 4, 76, 0
6, 61960, Note_on_c, 4, 69, 0
6, 61960, Note_on_c, 4, 72, 0
6, 61960, Note_on_c, 4, 76, 0
6, 61960, Note_on_c, 4, 67, 0
6, 61960, Note_on_c, 4, 72, 0
6, 61975, Note_on_c, 4, 72, 50
6, 61975, Note_on_c, 4, 67, 50
6, 61975, Note_on_c, 4, 76, 50
6, 62002, Note_on_c, 4, 76, 0
6, 62002, Note_on_c, 4, 67, 0
6, 62002, Note_on_c, 4, 72, 0
6, 62010, Note_on_c, 4, 67, 100
6, 62010, Note_on_c, 4, 72, 100
6, 62010, Note_on_c, 4, 76, 100
6, 62037, Note_on_c, 4, 76, 0
6, 62037, Note_on_c, 4, 72, 0
6, 62037, Note_on_c, 4, 67, 0
6, 62065, Note_on_c, 4, 67, 50
6, 62065, Note_on_c, 4, 72, 50
6, 62065, Note_on_c, 4, 76, 50
6, 62092, Note_on_c, 4, 76, 0
6, 62092, Note_on_c, 4, 72, 0
6, 62092, Note_on_c, 4, 67, 0
6, 62100, Note_on_c, 4, 74, 100
6, 62100, Note_on_c, 4, 67, 100
6, 62100, Note_on_c, 4, 71, 100
6, 62145, Note_on_c, 4, 71, 0
6, 62145, Note_on_c, 4, 67, 0
6, 62145, Note_on_c, 4, 74, 0
6, 62155, Note_on_c, 4, 74, 50
6, 62155, Note_on_c, 4, 67, 50
6, 62155, Note_on_c, 4, 71, 50
6, 62160, Note_on_c, 4, 74, 100
6, 62160, Note_on_c, 4, 71, 100
6, 62160, Note_on_c, 4, 67, 100
6, 62187, Note_on_c, 4, 71, 0
6, 62187, Note_on_c, 4, 74, 0
6, 62187, Note_on_c, 4, 67, 0
6, 62200, Note_on_c, 4, 74, 0
6, 62200, Note_on_c, 4, 71, 0
6, 62200, Note_on_c, 4, 67, 0
6, 62215, Note_on_c, 4, 74, 50
6, 62215, Note_on_c, 4, 71, 50
6, 62215, Note_on_c, 4, 67, 50
6, 62242, Note_on_c, 4, 67, 0
6, 62242, Note_on_c, 4, 71, 0
6, 62242, Note_on_c, 4, 74, 0
6, 62250, Note_on_c, 4, 67, 100
6, 62250, Note_on_c, 4, 71, 100
6, 62250, Note_on_c, 4, 74, 100
6, 62277, Note_on_c, 4, 74, 0
6, 62277, Note_on_c, 4, 71, 0
6, 62277, Note_on_c, 4, 67, 0
6, 62305, Note_on_c, 4, 67, 50
6, 62305, Note_on_c, 4, 71, 50
6, 62305, Note_on_c, 4, 74, 50
6, 62332, Note_on_c, 4, 74, 0
6, 62332, Note_on_c, 4, 71, 0
6, 62332, Note_on_c, 4, 67, 0
6, 62340, Note_on_c, 4, 69, 100
6, 62340, Note_on_c, 4, 66, 100
6, 62340, Note_on_c, 4, 62, 100
6, 62385, Note_on_c, 4, 62, 0
6, 62385, Note_on_c, 4, 66, 0
6, 62385, Note_on_c, 4, 69, 0
6, 62395, Note_on_c, 4, 69, 50
6, 62395, Note_on_c, 4, 66, 50
6, 62395, Note_on_c, 4, 62, 50
6, 62400, Note_on_c, 4, 64, 100
6, 62400, Note_on_c, 4, 67, 100
6, 62400, Note_on_c, 4, 71, 100
6, 62427, Note_on_c, 4, 71, 0
6, 62427, Note_on_c, 4, 64, 0
6, 62427, Note_on_c, 4, 67, 0
6, 62440, Note_on_c, 4, 69, 0
6, 62440, Note_on_c, 4, 62, 0
6, 62440, Note_on_c, 4, 66, 0
6, 62455, Note_on_c, 4, 64, 50
6, 62455, Note_on_c, 4, 67, 50
6, 62455, Note_on_c, 4, 71, 50
6, 62482, Note_on_c, 4, 71, 0
6, 62482, Note_on_c, 4, 67, 0
6, 62482, Note_on_c, 4, 64, 0
6, 62490, Note_on_c, 4, 67, 100
6, 62490, Note_on_c, 4, 64, 100
6, 62490, Note_on_c, 4, 71, 100
6, 62517, Note_on_c, 4, 71, 0
6, 62517, Note_on_c, 4, 64, 0
6, 62517, Note_on_c, 4, 67, 0
6, 62545, Note_on_c, 4, 67, 50
6, 62545, Note_on_c, 4, 64, 50
6, 62545, Note_on_c, 4, 71, 50
6, 62572, Note_on_c, 4, 71, 0
6, 62572, Note_on_c, 4, 64, 0
6, 62572, Note_on_c, 4, 67, 0
6, 62580, Note_on_c, 4, 64, 100
6, 62580, Note_on_c, 4, 71, 100
6, 62580, Note_on_c, 4, 67, 100
6, 62625, Note_on_c, 4, 67, 0
6, 62625, Note_on_c, 4, 71, 0
6, 62625, Note_on_c, 4, 64, 0
6, 62635, Note_on_c, 4, 64, 50
6, 62635, Note_on_c, 4, 71, 50
6, 62635, Note_on_c, 4, 67, 50
6, 62640, Note_on_c, 4, 64, 100
6, 62640, Note_on_c, 4, 67, 100
6, 62640, Note_on_c, 4, 71, 100
6, 62667, Note_on_c, 4, 67, 0
6, 62667, Note_on_c, 4, 64, 0
6, 62667, Note_on_c, 4, 71, 0
6, 62680, Note_on_c, 4, 64, 0
6, 62680, Note_on_c, 4, 67, 0
6, 62680, Note_on_c, 4, 71, 0
6, 62695, Note_on_c, 4, 64, 50
6, 62695, Note_on_c, 4, 67, 50
6, 62695, Note_on_c, 4, 71, 50
6, 62722, Note_on_c, 4, 71, 0
6, 62722, Note_on_c, 4, 67, 0
6, 62722, Note_on_c, 4, 64, 0
6, 62730, Note_on_c, 4, 67, 100
6, 62730, Note_on_c, 4, 71, 100
6, 62730, Note_on_c, 4, 64, 100
6, 62757, Note_on_c, 4, 64, 0
6, 62757, Note_on_c, 4, 71, 0
6, 62757, Note_on_c, 4, 67, 0
6, 62785, Note_on_c, 4, 67, 50
6, 62785, Note_on_c, 4, 71, 50
6, 62785, Note_on_c, 4, 64, 50
6, 62812, Note_on_c, 4, 64, 0
6, 62812, Note_on_c, 4, 71, 0
6, 62812, Note_on_c, 4, 67, 0
6, 62820, Note_on_c, 4, 69, 100
6, 62820, Note_on_c, 4, 76, 100
6, 62820, Note_on_c, 4, 72, 100
6, 62865, Note_on_c, 4, 72, 0
6, 62865, Note_on_c, 4, 76, 0
6, 62865, Note_on_c, 4, 69, 0
6, 62875, Note_on_c, 4, 69, 50
6, 62875, Note_on_c, 4, 76, 50
6, 62875, Note_on_c, 4, 72, 50
6, 62880, Note_on_c, 4, 71, 100
6, 62880, Note_on_c, 4, 67, 100
6, 62880, Note_on_c, 4, 64, 100
6, 62907, Note_on_c, 4, 64, 0
6, 62907, Note_on_c, 4, 71, 0
6, 62907, Note_on_c, 4, 67, 0
6, 62920, Note_on_c, 4, 69, 0
6, 62920, Note_on_c, 4, 72, 0
6, 62920, Note_on_c, 4, 76, 0
6, 62935, Note_on_c, 4, 71, 50
6, 62935, Note_on_c, 4, 67, 50
6, 62935, Note_on_c, 4, 64, 50
6, 62962, Note_on_c, 4, 64, 0
6, 62962, Note_on_c, 4, 67, 0
6, 62962, Note_on_c, 4, 71, 0
6, 62970, Note_on_c, 4, 67, 100
6, 62970, Note_on_c, 4, 64, 100
6, 62970, Note_on_c, 4, 71, 100
6, 62997, Note_on_c, 4, 71, 0
6, 62997, Note_on_c, 4, 64, 0
6, 62997, Note_on_c, 4, 67, 0
6, 63025, Note_on_c, 4, 67, 50
6, 63025, Note_on_c, 4, 64, 50
6, 63025, Note_on_c, 4, 71, 50
6, 63052, Note_on_c, 4, 71, 0
6, 63052, Note_on_c, 4, 64, 0
6, 63052, Note_on_c, 4, 67, 0
6, 63060, Note_on_c, 4, 71, 100
6, 63060, Note_on_c, 4, 64, 100
6, 63060, Note_on_c, 4, 67, 100
6, 63105, Note_on_c, 4, 67, 0
6, 63105, Note_on_c, 4, 64, 0
6, 63105, Note_on_c, 4, 71, 0
6, 63115, Note_on_c, 4, 71, 50
6, 63115, Note_on_c, 4, 64, 50
6, 63115, Note_on_c, 4, 67, 50
6, 63120, Note_on_c, 4, 67, 100
6, 63120, Note_on_c, 4, 64, 100
6, 63120, Note_on_c, 4, 71, 100
6, 63147, Note_on_c, 4, 67, 0
6, 63147, Note_on_c, 4, 71, 0
6, 63147, Note_on_c, 4, 64, 0
6, 63160, Note_on_c, 4, 67, 0
6, 63160, Note_on_c, 4, 64, 0
6, 63160, Note_on_c, 4, 71, 0
6, 63175, Note_on_c, 4, 67, 50
6, 63175, Note_on_c, 4, 64, 50
6, 63175, Note_on_c, 4, 71, 50
6, 63202, Note_on_c, 4, 71, 0
6, 63202, Note_on_c, 4, 64, 0
6, 63202, Note_on_c, 4, 67, 0
6, 63210, Note_on_c, 4, 71, 100
6, 63210, Note_on_c, 4, 64, 100
6, 63210, Note_on_c, 4, 67, 100
6, 63237, Note_on_c, 4, 67, 0
6, 63237, Note_on_c, 4, 64, 0
6, 63237, Note_on_c, 4, 71, 0
6, 63265, Note_on_c, 4, 71, 50
6, 63265, Note_on_c, 4, 64, 50
6, 63265, Note_on_c, 4, 67, 50
6, 63292, Note_on_c, 4, 67, 0
6, 63292, Note_on_c, 4, 64, 0
6, 63292, Note_on_c, 4, 71, 0
6, 63300, Note_on_c, 4, 72, 100
6, 63300, Note_on_c, 4, 76, 100
6, 63300, Note_on_c, 4, 69, 100
6, 63345, Note_on_c, 4, 69, 0
6, 63345, Note_on_c, 4, 76, 0
6, 63345, Note_on_c, 4, 72, 0
6, 63355, Note_on_c, 4, 72, 50
6, 63355, Note_on_c, 4, 76, 50
6, 63355, Note_on_c, 4, 69, 50
6, 63360, Note_on_c, 4, 67, 100
6, 63360, Note_on_c, 4, 71, 100
6, 63360, Note_on_c, 4, 64, 100
6, 63387, Note_on_c, 4, 64, 0
6, 63387, Note_on_c, 4, 67, 0
6, 63387, Note_on_c, 4, 71, 0
6, 63400, Note_on_c, 4, 72, 0
6, 63400, Note_on_c, 4, 69, 0
6, 63400, Note_on_c, 4, 76, 0
6, 63415, Note_on_c, 4, 67, 50
6, 63415, Note_on_c, 4, 71, 50
6, 63415, Note_on_c, 4, 64, 50
6, 63442, Note_on_c, 4, 64, 0
6, 63442, Note_on_c, 4, 71, 0
6, 63442, Note_on_c, 4, 67, 0
6, 63450, Note_on_c, 4, 64, 100
6, 63450, Note_on_c, 4, 71, 100
6, 63450, Note_on_c, 4, 67, 100
6, 63477, Note_on_c, 4, 67, 0
6, 63477, Note_on_c, 4, 71, 0
6, 63477, Note_on_c, 4, 64, 0
6, 63505, Note_on_c, 4, 64, 50
6, 63505, Note_on_c, 4, 71, 50
6, 63505, Note_on_c, 4, 67, 50
6, 63532, Note_on_c, 4, 67, 0
6, 63532, Note_on_c, 4, 71, 0
6, 63532, Note_on_c, 4, 64, 0
6, 63540, Note_on_c, 4, 67, 100
6, 63540, Note_on_c, 4, 64, 100
6, 63540, Note_on_c, 4, 71, 100
6, 63585, Note_on_c, 4, 71, 0
6, 63585, Note_on_c, 4, 64, 0
6, 63585, Note_on_c, 4, 67, 0
6, 63595, Note_on_c, 4, 67, 50
6, 63595, Note_on_c, 4, 64, 50
6, 63595, Note_on_c, 4, 71, 50
6, 63600, Note_on_c, 4, 64, 100
6, 63600, Note_on_c, 4, 67, 100
6, 63600, Note_on_c, 4, 71, 100
6, 63627, Note_on_c, 4, 71, 0
6, 63627, Note_on_c, 4, 67, 0
6, 63627, Note_on_c, 4, 64, 0
6, 63640, Note_on_c, 4, 64, 0
6, 63640, Note_on_c, 4, 67, 0
6, 63640, Note_on_c, 4, 71, 0
6, 63655, Note_on_c, 4, 64, 50
6, 63655, Note_on_c, 4, 67, 50
6, 63655, Note_on_c, 4, 71, 50
6, 63682, Note_on_c, 4, 71, 0
6, 63682, Note_on_c, 4, 67, 0
6, 63682, Note_on_c, 4, 64, 0
6, 63690, Note_on_c, 4, 71, 100
6, 63690, Note_on_c, 4, 67, 100
6, 63690, Note_on_c, 4, 64, 100
6, 63717, Note_on_c, 4, 64, 0
6, 63717, Note_on_c, 4, 67, 0
6, 63717, Note_on_c, 4, 71, 0
6, 63745, Note_on_c, 4, 71, 50
6, 63745, Note_on_c, 4, 67, 50
6, 63745, Note_on_c, 4, 64, 50
6, 63772, Note_on_c, 4, 64, 0
6, 63772, Note_on_c, 4, 67, 0
6, 63772, Note_on_c, 4, 71, 0
6, 63780, Note_on_c, 4, 72, 100
6, 63780, Note_on_c, 4, 69, 100
6, 63780, Note_on_c, 4, 76, 100
6, 63825, Note_on_c, 4, 76, 0
6, 63825, Note_on_c, 4, 69, 0
6, 63825, Note_on_c, 4, 72, 0
6, 63835, Note_on_c, 4, 72, 50
6, 63835, Note_on_c, 4, 69, 50
6, 63835, Note_on_c, 4, 76, 50
6, 63840, Note_on_c, 4, 72, 100
6, 63840, Note_on_c, 4, 67, 100
6, 63840, Note_on_c, 4, 76, 100
6, 63880, Note_on_c, 4, 76, 0
6, 63880, Note_on_c, 4, 69, 0
6, 63880, Note_on_c, 4, 76, 0
6, 63880, Note_on_c, 4, 72, 0
6, 63880, Note_on_c, 4, 67, 0
6, 63880, Note_on_c, 4, 72, 0
6, 63895, Note_on_c, 4, 72, 50
6, 63895, Note_on_c, 4, 67, 50
6, 63895, Note_on_c, 4, 76, 50
6, 63922, Note_on_c, 4, 76, 0
6, 63922, Note_on_c, 4, 67, 0
6, 63922, Note_on_c, 4, 72, 0
6, 63930, Note_on_c, 4, 67, 100
6, 63930, Note_on_c, 4, 72, 100
6, 63930, Note_on_c, 4, 76, 100
6, 63957, Note_on_c, 4, 76, 0
6, 63957, Note_on_c, 4, 72, 0
6, 63957, Note_on_c, 4, 67, 0
6, 63985, Note_on_c, 4, 67, 50
6, 63985, Note_on_c, 4, 72, 50
6, 63985, Note_on_c, 4, 76, 50
6, 64012, Note_on_c, 4, 76, 0
6, 64012, Note_on_c, 4, 72, 0
6, 64012, Note_on_c, 4, 67, 0
6, 64020, Note_on_c, 4, 74, 100
6, 64020, Note_on_c, 4, 67, 100
6, 64020, Note_on_c, 4, 71, 100
6, 64065, Note_on_c, 4, 71, 0
6, 64065, Note_on_c, 4, 67, 0
6, 64065, Note_on_c, 4, 74, 0
6, 64075, Note_on_c, 4, 74, 50
6, 64075, Note_on_c, 4, 67, 50
6, 64075, Note_on_c, 4, 71, 50
6, 64080, Note_on_c, 4, 74, 100
6, 64080, Note_on_c, 4, 71, 100
6, 64080, Note_on_c, 4, 67, 100
6, 64107, Note_on_c, 4, 71, 0
6, 64107, Note_on_c, 4, 74, 0
6, 64107, Note_on_c, 4, 67, 0
6, 64120, Note_on_c, 4, 74, 0
6, 64120, Note_on_c, 4, 71, 0
6, 64120, Note_on_c, 4, 67, 0
6, 64135, Note_on_c, 4, 74, 50
6, 64135, Note_on_c, 4, 71, 50
6, 64135, Note_on_c, 4, 67, 50
6, 64162, Note_on_c, 4, 67, 0
6, 64162, Note_on_c, 4, 71, 0
6, 64162, Note_on_c, 4, 74, 0
6, 64170, Note_on_c, 4, 67, 100
6, 64170, Note_on_c, 4, 71, 100
6, 64170, Note_on_c, 4, 74, 100
6, 64197, Note_on_c, 4, 74, 0
6, 64197, Note_on_c, 4, 71, 0
6, 64197, Note_on_c, 4, 67, 0
6, 64225, Note_on_c, 4, 67, 50
6, 64225, Note_on_c, 4, 71, 50
6, 64225, Note_on_c, 4, 74, 50
6, 64252, Note_on_c, 4, 74, 0
6, 64252, Note_on_c, 4, 71, 0
6, 64252, Note_on_c, 4, 67, 0
6, 64260, Note_on_c, 4, 69, 100
6, 64260, Note_on_c, 4, 66, 100
6, 64260, Note_on_c, 4, 62, 100
6, 64305, Note_on_c, 4, 62, 0
6, 64305, Note_on_c, 4, 66, 0
6, 64305, Note_on_c, 4, 69, 0
6, 64315, Note_on_c, 4, 69, 50
6, 64315, Note_on_c, 4, 66, 50
6, 64315, Note_on_c, 4, 62, 50
6, 64320, Note_on_c, 4, 64, 100
6, 64320, Note_on_c, 4, 67, 100
6, 64320, Note_on_c, 4, 71, 100
6, 64347, Note_on_c, 4, 71, 0
6, 64347, Note_on_c, 4, 64, 0
6, 64347, Note_on_c, 4, 67, 0
6, 64360, Note_on_c, 4, 69, 0
6, 64360, Note_on_c, 4, 62, 0
6, 64360, Note_on_c, 4, 66, 0
6, 64375, Note_on_c, 4, 64, 50
6, 64375, Note_on_c, 4, 67, 50
6, 64375, Note_on_c, 4, 71, 50
6, 64402, Note_on_c, 4, 71, 0
6, 64402, Note_on_c, 4, 67, 0
6, 64402, Note_on_c, 4, 64, 0
6, 64410, Note_on_c, 4, 71, 100
6, 64410, Note_on_c, 4, 67, 100
6, 64410, Note_on_c, 4, 64, 100
6, 64437, Note_on_c, 4, 64, 0
6, 64437, Note_on_c, 4, 67, 0
6, 64437, Note_on_c, 4, 71, 0
6, 64465, Note_on_c, 4, 71, 50
6, 64465, Note_on_c, 4, 67, 50
6, 64465, Note_on_c, 4, 64, 50
6, 64492, Note_on_c, 4, 64, 0
6, 64492, Note_on_c, 4, 67, 0
6, 64492, Note_on_c, 4, 71, 0
6, 64500, Note_on_c, 4, 64, 100
6, 64500, Note_on_c, 4, 71, 100
6, 64500, Note_on_c, 4, 67, 100
6, 64545, Note_on_c, 4, 67, 0
6, 64545, Note_on_c, 4, 71, 0
6, 64545, Note_on_c, 4, 64, 0
6, 64555, Note_on_c, 4, 64, 50
6, 64555, Note_on_c, 4, 71, 50
6, 64555, Note_on_c, 4, 67, 50
6, 64560, Note_on_c, 4, 67, 100
6, 64560, Note_on_c, 4, 71, 100
6, 64560, Note_on_c, 4, 64, 100
6, 64587, Note_on_c, 4, 67, 0
6, 64587, Note_on_c, 4, 64, 0
6, 64587, Note_on_c, 4, 71, 0
6, 64600, Note_on_c, 4, 67, 0
6, 64600, Note_on_c, 4, 71, 0
6, 64600, Note_on_c, 4, 64, 0
6, 64615, Note_on_c, 4, 67, 50
6, 64615, Note_on_c, 4, 71, 50
6, 64615, Note_on_c, 4, 64, 50
6, 64642, Note_on_c, 4, 64, 0
6, 64642, Note_on_c, 4, 71, 0
6, 64642, Note_on_c, 4, 67, 0
6, 64650, Note_on_c, 4, 67, 100
6, 64650, Note_on_c, 4, 71, 100
6, 64650, Note_on_c, 4, 64, 100
6, 64677, Note_on_c, 4, 64, 0
6, 64677, Note_on_c, 4, 71, 0
6, 64677, Note_on_c, 4, 67, 0
6, 64705, Note_on_c, 4, 67, 50
6, 64705, Note_on_c, 4, 71, 50
6, 64705, Note_on_c, 4, 64, 50
6, 64732, Note_on_c, 4, 64, 0
6, 64732, Note_on_c, 4, 71, 0
6, 64732, Note_on_c, 4, 67, 0
6, 64740, Note_on_c, 4, 64, 100
6, 64740, Note_on_c, 4, 71, 100
6, 64740, Note_on_c, 4, 67, 100
6, 64785, Note_on_c, 4, 67, 0
6, 64785, Note_on_c, 4, 71, 0
6, 64785, Note_on_c, 4, 64, 0
6, 64795, Note_on_c, 4, 64, 50
6, 64795, Note_on_c, 4, 71, 50
6, 64795, Note_on_c, 4, 67, 50
6, 64800, Note_on_c, 4, 64, 100
6, 64800, Note_on_c, 4, 71, 100
6, 64800, Note_on_c, 4, 67, 100
6, 64827, Note_on_c, 4, 67, 0
6, 64827, Note_on_c, 4, 64, 0
6, 64827, Note_on_c, 4, 71, 0
6, 64840, Note_on_c, 4, 64, 0
6, 64840, Note_on_c, 4, 71, 0
6, 64840, Note_on_c, 4, 67, 0
6, 64855, Note_on_c, 4, 64, 50
6, 64855, Note_on_c, 4, 71, 50
6, 64855, Note_on_c, 4, 67, 50
6, 64882, Note_on_c, 4, 67, 0
6, 64882, Note_on_c, 4, 71, 0
6, 64882, Note_on_c, 4, 64, 0
6, 64890, Note_on_c, 4, 67, 100
6, 64890, Note_on_c, 4, 64, 100
6, 64890, Note_on_c, 4, 71, 100
6, 64917, Note_on_c, 4, 71, 0
6, 64917, Note_on_c, 4, 64, 0
6, 64917, Note_on_c, 4, 67, 0
6, 64945, Note_on_c, 4, 67, 50
6, 64945, Note_on_c, 4, 64, 50
6, 64945, Note_on_c, 4, 71, 50
6, 64972, Note_on_c, 4, 71, 0
6, 64972, Note_on_c, 4, 64, 0
6, 64972, Note_on_c, 4, 67, 0
6, 64980, Note_on_c, 4, 71, 100
6, 64980, Note_on_c, 4, 64, 100
6, 64980, Note_on_c, 4, 67, 100
6, 65025, Note_on_c, 4, 67, 0
6, 65025, Note_on_c, 4, 64, 0
6, 65025, Note_on_c, 4, 71, 0
6, 65035, Note_on_c, 4, 71, 50
6, 65035, Note_on_c, 4, 64, 50
6, 65035, Note_on_c, 4, 67, 50
6, 65040, Note_on_c, 4, 64, 100
6, 65040, Note_on_c, 4, 71, 100
6, 65040, Note_on_c, 4, 67, 100
6, 65067, Note_on_c, 4, 67, 0
6, 65067, Note_on_c, 4, 71, 0
6, 65067, Note_on_c, 4, 64, 0
6, 65080, Note_on_c, 4, 64, 0
6, 65080, Note_on_c, 4, 71, 0
6, 65080, Note_on_c, 4, 67, 0
6, 65095, Note_on_c, 4, 64, 50
6, 65095, Note_on_c, 4, 71, 50
6, 65095, Note_on_c, 4, 67, 50
6, 65122, Note_on_c, 4, 67, 0
6, 65122, Note_on_c, 4, 71, 0
6, 65122, Note_on_c, 4, 64, 0
6, 65130, Note_on_c, 4, 67, 100
6, 65130, Note_on_c, 4, 64, 100
6, 65130, Note_on_c, 4, 71, 100
6, 65157, Note_on_c, 4, 71, 0
6, 65157, Note_on_c, 4, 64, 0
6, 65157, Note_on_c, 4, 67, 0
6, 65185, Note_on_c, 4, 67, 50
6, 65185, Note_on_c, 4, 64, 50
6, 65185, Note_on_c, 4, 71, 50
6, 65212, Note_on_c, 4, 71, 0
6, 65212, Note_on_c, 4, 64, 0
6, 65212, Note_on_c, 4, 67, 0
6, 65220, Note_on_c, 4, 67, 100
6, 65220, Note_on_c, 4, 71, 100
6, 65220, Note_on_c, 4, 64, 100
6, 65265, Note_on_c, 4, 64, 0
6, 65265, Note_on_c, 4, 71, 0
6, 65265, Note_on_c, 4, 67, 0
6, 65275, Note_on_c, 4, 67, 50
6, 65275, Note_on_c, 4, 71, 50
6, 65275, Note_on_c, 4, 64, 50
6, 65280, Note_on_c, 4, 64, 100
6, 65280, Note_on_c, 4, 71, 100
6, 65280, Note_on_c, 4, 67, 100
6, 65307, Note_on_c, 4, 64, 0
6, 65307, Note_on_c, 4, 67, 0
6, 65307, Note_on_c, 4, 71, 0
6, 65320, Note_on_c, 4, 64, 0
6, 65320, Note_on_c, 4, 71, 0
6, 65320, Note_on_c, 4, 67, 0
6, 65335, Note_on_c, 4, 64, 50
6, 65335, Note_on_c, 4, 71, 50
6, 65335, Note_on_c, 4, 67, 50
6, 65362, Note_on_c, 4, 67, 0
6, 65362, Note_on_c, 4, 71, 0
6, 65362, Note_on_c, 4, 64, 0
6, 65370, Note_on_c, 4, 64, 100
6, 65370, Note_on_c, 4, 71, 100
6, 65370, Note_on_c, 4, 67, 100
6, 65397, Note_on_c, 4, 67, 0
6, 65397, Note_on_c, 4, 71, 0
6, 65397, Note_on_c, 4, 64, 0
6, 65425, Note_on_c, 4, 64, 50
6, 65425, Note_on_c, 4, 71, 50
6, 65425, Note_on_c, 4, 67, 50
6, 65452, Note_on_c, 4, 67, 0
6, 65452, Note_on_c, 4, 71, 0
6, 65452, Note_on_c, 4, 64, 0
6, 65460, Note_on_c, 4, 71, 100
6, 65460, Note_on_c, 4, 64, 100
6, 65460, Note_on_c, 4, 67, 100
6, 65505, Note_on_c, 4, 67, 0
6, 65505, Note_on_c, 4, 64, 0
6, 65505, Note_on_c, 4, 71, 0
6, 65515, Note_on_c, 4, 71, 50
6, 65515, Note_on_c, 4, 64, 50
6, 65515, Note_on_c, 4, 67, 50
6, 65520, Note_on_c, 4, 64, 100
6, 65520, Note_on_c, 4, 67, 100
6, 65520, Note_on_c, 4, 71, 100
6, 65547, Note_on_c, 4, 67, 0
6, 65547, Note_on_c, 4, 71, 0
6, 65547, Note_on_c, 4, 64, 0
6, 65560, Note_on_c, 4, 64, 0
6, 65560, Note_on_c, 4, 67, 0
6, 65560, Note_on_c, 4, 71, 0
6, 65575, Note_on_c, 4, 64, 50
6, 65575, Note_on_c, 4, 67, 50
6, 65575, Note_on_c, 4, 71, 50
6, 65602, Note_on_c, 4, 71, 0
6, 65602, Note_on_c, 4, 67, 0
6, 65602, Note_on_c, 4, 64, 0
6, 65610, Note_on_c, 4, 64, 100
6, 65610, Note_on_c, 4, 67, 100
6, 65610, Note_on_c, 4, 71, 100
6, 65637, Note_on_c, 4, 71, 0
6, 65637, Note_on_c, 4, 67, 0
6, 65637, Note_on_c, 4, 64, 0
6, 65665, Note_on_c, 4, 64, 50
6, 65665, Note_on_c, 4, 67, 50
6, 65665, Note_on_c, 4, 71, 50
6, 65692, Note_on_c, 4, 71, 0
6, 65692, Note_on_c, 4, 67, 0
6, 65692, Note_on_c, 4, 64, 0
6, 65700, Note_on_c, 4, 71, 100
6, 65700, Note_on_c, 4, 67, 100
6, 65700, Note_on_c, 4, 64, 100
6, 65745, Note_on_c, 4, 64, 0
6, 65745, Note_on_c, 4, 67, 0
6, 65745, Note_on_c, 4, 71, 0
6, 65755, Note_on_c, 4, 71, 50
6, 65755, Note_on_c, 4, 67, 50
6, 65755, Note_on_c, 4, 64, 50
6, 65760, Note_on_c, 4, 64, 100
6, 65760, Note_on_c, 4, 67, 100
6, 65760, Note_on_c, 4, 71, 100
6, 65787, Note_on_c, 4, 64, 0
6, 65787, Note_on_c, 4, 71, 0
6, 65787, Note_on_c, 4, 67, 0
6, 65800, Note_on_c, 4, 64, 0
6, 65800, Note_on_c, 4, 67, 0
6, 65800, Note_on_c, 4, 71, 0
6, 65815, Note_on_c, 4, 64, 50
6, 65815, Note_on_c, 4, 67, 50
6, 65815, Note_on_c, 4, 71, 50
6, 65842, Note_on_c, 4, 71, 0
6, 65842, Note_on_c, 4, 67, 0
6, 65842, Note_on_c, 4, 64, 0
6, 65850, Note_on_c, 4, 71, 100
6, 65850, Note_on_c, 4, 67, 100
6, 65850, Note_on_c, 4, 64, 100
6, 65877, Note_on_c, 4, 64, 0
6, 65877, Note_on_c, 4, 67, 0
6, 65877, Note_on_c, 4, 71, 0
6, 65905, Note_on_c, 4, 71, 50
6, 65905, Note_on_c, 4, 67, 50
6, 65905, Note_on_c, 4, 64, 50
6, 65932, Note_on_c, 4, 64, 0
6, 65932, Note_on_c, 4, 67, 0
6, 65932, Note_on_c, 4, 71, 0
6, 65940, Note_on_c, 4, 64, 100
6, 65940, Note_on_c, 4, 67, 100
6, 65940, Note_on_c, 4, 71, 100
6, 65985, Note_on_c, 4, 71, 0
6, 65985, Note_on_c, 4, 67, 0
6, 65985, Note_on_c, 4, 64, 0
6, 65995, Note_on_c, 4, 64, 50
6, 65995, Note_on_c, 4, 67, 50
6, 65995, Note_on_c, 4, 71, 50
6, 66000, Note_on_c, 4, 71, 100
6, 66000, Note_on_c, 4, 67, 100
6, 66000, Note_on_c, 4, 64, 100
6, 66027, Note_on_c, 4, 71, 0
6, 66027, Note_on_c, 4, 64, 0
6, 66027, Note_on_c, 4, 67, 0
6, 66040, Note_on_c, 4, 71, 0
6, 66040, Note_on_c, 4, 67, 0
6, 66040, Note_on_c, 4, 64, 0
6, 66055, Note_on_c, 4, 71, 50
6, 66055, Note_on_c, 4, 67, 50
6, 66055, Note_on_c, 4, 64, 50
6, 66082, Note_on_c, 4, 64, 0
6, 66082, Note_on_c, 4, 67, 0
6, 66082, Note_on_c, 4, 71, 0
6, 66090, Note_on_c, 4, 71, 100
6, 66090, Note_on_c, 4, 67, 100
6, 66090, Note_on_c, 4, 64, 100
6, 66117, Note_on_c, 4, 64, 0
6, 66117, Note_on_c, 4, 67, 0
6, 66117, Note_on_c, 4, 71, 0
6, 66145, Note_on_c, 4, 71, 50
6, 66145, Note_on_c, 4, 67, 50
6, 66145, Note_on_c, 4, 64, 50
6, 66172, Note_on_c, 4, 64, 0
6, 66172, Note_on_c, 4, 67, 0
6, 66172, Note_on_c, 4, 71, 0
6, 66180, Note_on_c, 4, 67, 100
6, 66180, Note_on_c, 4, 64, 100
6, 66180, Note_on_c, 4, 71, 100
6, 66225, Note_on_c, 4, 71, 0
6, 66225, Note_on_c, 4, 64, 0
6, 66225, Note_on_c, 4, 67, 0
6, 66235, Note_on_c, 4, 67, 50
6, 66235, Note_on_c, 4, 64, 50
6, 66235, Note_on_c, 4, 71, 50
6, 66267, Note_on_c, 4, 71, 0
6, 66267, Note_on_c, 4, 64, 0
6, 66267, Note_on_c, 4, 67, 0
6, 66267, End_track
7, 0, Start_track
7, 0, Sequencer_specific, 5, 5, 15, 9, 0, 64
7, 0, Sequencer_specific, 15, 5, 15, 6, 71, 101, 110, 101, 114, 97, 108, 32, 77, 73, 68, 73
7, 0, Title_t, ""
7, 0, Control_c, 5, 94, 118
7, 0, Control_c, 5, 93, 122
7, 0, Control_c, 5, 74, 127
7, 145, Control_c, 5, 0, 1
7, 146, Control_c, 5, 32, 0
7, 147, Program_c, 5, 80
7, 148, Control_c, 5, 7, 75
7, 148, Control_c, 5, 10, 100
7, 646, Control_c, 5, 99, 1
7, 647, Control_c, 5, 98, 32
7, 648, Control_c, 5, 6, 117
7, 649, Control_c, 5, 38, 24
7, 856, Control_c, 5, 91, 100
7, 943, Control_c, 5, 99, 1
7, 944, Control_c, 5, 98, 33
7, 945, Control_c, 5, 6, 117
7, 946, Control_c, 5, 38, 24
7, 4800, Note_on_c, 5, 71, 127
7, 4800, Note_on_c, 5, 59, 127
7, 4815, Note_on_c, 5, 59, 0
7, 4815, Note_on_c, 5, 71, 0
7, 4830, Note_on_c, 5, 71, 127
7, 4830, Note_on_c, 5, 59, 127
7, 4845, Note_on_c, 5, 59, 0
7, 4845, Note_on_c, 5, 71, 0
7, 4860, Note_on_c, 5, 71, 127
7, 4860, Note_on_c, 5, 59, 127
7, 4875, Note_on_c, 5, 59, 0
7, 4875, Note_on_c, 5, 71, 0
7, 4890, Note_on_c, 5, 71, 127
7, 4890, Note_on_c, 5, 59, 127
7, 4905, Note_on_c, 5, 59, 0
7, 4905, Note_on_c, 5, 71, 0
7, 4920, Note_on_c, 5, 71, 127
7, 4920, Note_on_c, 5, 59, 127
7, 4980, Note_on_c, 5, 59, 0
7, 4980, Note_on_c, 5, 71, 0
7, 5640, Note_on_c, 5, 74, 127
7, 5640, Note_on_c, 5, 62, 127
7, 5670, Note_on_c, 5, 62, 0
7, 5670, Note_on_c, 5, 74, 0
7, 5760, Note_on_c, 5, 71, 127
7, 5760, Note_on_c, 5, 59, 127
7, 5775, Note_on_c, 5, 59, 0
7, 5775, Note_on_c, 5, 71, 0
7, 5790, Note_on_c, 5, 71, 127
7, 5790, Note_on_c, 5, 59, 127
7, 5805, Note_on_c, 5, 59, 0
7, 5805, Note_on_c, 5, 71, 0
7, 5820, Note_on_c, 5, 71, 127
7, 5820, Note_on_c, 5, 59, 127
7, 5835, Note_on_c, 5, 59, 0
7, 5835, Note_on_c, 5, 71, 0
7, 5850, Note_on_c, 5, 71, 127
7, 5850, Note_on_c, 5, 59, 127
7, 5865, Note_on_c, 5, 59, 0
7, 5865, Note_on_c, 5, 71, 0
7, 5880, Note_on_c, 5, 71, 127
7, 5880, Note_on_c, 5, 59, 127
7, 5940, Note_on_c, 5, 59, 0
7, 5940, Note_on_c, 5, 71, 0
7, 6720, Note_on_c, 5, 71, 127
7, 6720, Note_on_c, 5, 59, 127
7, 6735, Note_on_c, 5, 59, 0
7, 6735, Note_on_c, 5, 71, 0
7, 6750, Note_on_c, 5, 71, 127
7, 6750, Note_on_c, 5, 59, 127
7, 6765, Note_on_c, 5, 59, 0
7, 6765, Note_on_c, 5, 71, 0
7, 6780, Note_on_c, 5, 71, 127
7, 6780, Note_on_c, 5, 59, 127
7, 6795, Note_on_c, 5, 59, 0
7, 6795, Note_on_c, 5, 71, 0
7, 6810, Note_on_c, 5, 71, 127
7, 6810, Note_on_c, 5, 59, 127
7, 6825, Note_on_c, 5, 59, 0
7, 6825, Note_on_c, 5, 71, 0
7, 6840, Note_on_c, 5, 71, 127
7, 6840, Note_on_c, 5, 59, 127
7, 6900, Note_on_c, 5, 59, 0
7, 6900, Note_on_c, 5, 71, 0
7, 7200, Note_on_c, 5, 71, 127
7, 7200, Note_on_c, 5, 59, 127
7, 7215, Note_on_c, 5, 59, 0
7, 7215, Note_on_c, 5, 71, 0
7, 7230, Note_on_c, 5, 71, 127
7, 7230, Note_on_c, 5, 59, 127
7, 7245, Note_on_c, 5, 59, 0
7, 7245, Note_on_c, 5, 71, 0
7, 7260, Note_on_c, 5, 71, 127
7, 7260, Note_on_c, 5, 59, 127
7, 7275, Note_on_c, 5, 59, 0
7, 7275, Note_on_c, 5, 71, 0
7, 7290, Note_on_c, 5, 71, 127
7, 7290, Note_on_c, 5, 59, 127
7, 7305, Note_on_c, 5, 59, 0
7, 7305, Note_on_c, 5, 71, 0
7, 7320, Note_on_c, 5, 71, 127
7, 7320, Note_on_c, 5, 59, 127
7, 7380, Note_on_c, 5, 59, 0
7, 7380, Note_on_c, 5, 71, 0
7, 7680, Control_c, 5, 11, 127
7, 7680, Note_on_c, 5, 71, 127
7, 7680, Note_on_c, 5, 59, 127
7, 7695, Note_on_c, 5, 59, 0
7, 7695, Note_on_c, 5, 71, 0
7, 7702, Control_c, 5, 11, 126
7, 7710, Note_on_c, 5, 71, 127
7, 7710, Note_on_c, 5, 59, 127
7, 7725, Note_on_c, 5, 59, 0
7, 7725, Note_on_c, 5, 71, 0
7, 7725, Control_c, 5, 11, 125
7, 7740, Note_on_c, 5, 71, 127
7, 7740, Note_on_c, 5, 59, 127
7, 7748, Control_c, 5, 11, 124
7, 7755, Note_on_c, 5, 59, 0
7, 7755, Note_on_c, 5, 71, 0
7, 7770, Note_on_c, 5, 71, 127
7, 7770, Note_on_c, 5, 59, 127
7, 7771, Control_c, 5, 11, 123
7, 7785, Note_on_c, 5, 59, 0
7, 7785, Note_on_c, 5, 71, 0
7, 7794, Control_c, 5, 11, 122
7, 7800, Note_on_c, 5, 71, 127
7, 7800, Note_on_c, 5, 59, 127
7, 7817, Control_c, 5, 11, 121
7, 7839, Control_c, 5, 11, 120
7, 7860, Note_on_c, 5, 59, 0
7, 7860, Note_on_c, 5, 71, 0
7, 7862, Control_c, 5, 11, 119
7, 7885, Control_c, 5, 11, 118
7, 7908, Control_c, 5, 11, 117
7, 7920, Note_on_c, 5, 71, 127
7, 7920, Note_on_c, 5, 59, 127
7, 7931, Control_c, 5, 11, 116
7, 7935, Note_on_c, 5, 59, 0
7, 7935, Note_on_c, 5, 71, 0
7, 7950, Note_on_c, 5, 71, 127
7, 7950, Note_on_c, 5, 59, 127
7, 7954, Control_c, 5, 11, 115
7, 7965, Note_on_c, 5, 59, 0
7, 7965, Note_on_c, 5, 71, 0
7, 7976, Control_c, 5, 11, 114
7, 7980, Note_on_c, 5, 71, 127
7, 7980, Note_on_c, 5, 59, 127
7, 7995, Note_on_c, 5, 59, 0
7, 7995, Note_on_c, 5, 71, 0
7, 7999, Control_c, 5, 11, 113
7, 8010, Note_on_c, 5, 71, 127
7, 8010, Note_on_c, 5, 59, 127
7, 8022, Control_c, 5, 11, 112
7, 8025, Note_on_c, 5, 59, 0
7, 8025, Note_on_c, 5, 71, 0
7, 8040, Note_on_c, 5, 71, 127
7, 8040, Note_on_c, 5, 59, 127
7, 8045, Control_c, 5, 11, 111
7, 8068, Control_c, 5, 11, 110
7, 8091, Control_c, 5, 11, 109
7, 8100, Note_on_c, 5, 59, 0
7, 8100, Note_on_c, 5, 71, 0
7, 8113, Control_c, 5, 11, 108
7, 8136, Control_c, 5, 11, 107
7, 8159, Control_c, 5, 11, 106
7, 8160, Note_on_c, 5, 71, 127
7, 8160, Note_on_c, 5, 59, 127
7, 8175, Note_on_c, 5, 59, 0
7, 8175, Note_on_c, 5, 71, 0
7, 8182, Control_c, 5, 11, 105
7, 8190, Note_on_c, 5, 71, 127
7, 8190, Note_on_c, 5, 59, 127
7, 8205, Note_on_c, 5, 59, 0
7, 8205, Note_on_c, 5, 71, 0
7, 8205, Control_c, 5, 11, 104
7, 8220, Note_on_c, 5, 71, 127
7, 8220, Note_on_c, 5, 59, 127
7, 8228, Control_c, 5, 11, 103
7, 8235, Note_on_c, 5, 59, 0
7, 8235, Note_on_c, 5, 71, 0
7, 8250, Control_c, 5, 11, 102
7, 8250, Note_on_c, 5, 71, 127
7, 8250, Note_on_c, 5, 59, 127
7, 8265, Note_on_c, 5, 59, 0
7, 8265, Note_on_c, 5, 71, 0
7, 8273, Control_c, 5, 11, 101
7, 8280, Note_on_c, 5, 71, 127
7, 8280, Note_on_c, 5, 59, 127
7, 8296, Control_c, 5, 11, 100
7, 8319, Control_c, 5, 11, 99
7, 8325, Note_on_c, 5, 59, 0
7, 8325, Note_on_c, 5, 71, 0
7, 8340, Note_on_c, 5, 71, 127
7, 8340, Note_on_c, 5, 59, 127
7, 8342, Control_c, 5, 11, 98
7, 8355, Note_on_c, 5, 59, 0
7, 8355, Note_on_c, 5, 71, 0
7, 8365, Control_c, 5, 11, 97
7, 8387, Control_c, 5, 11, 96
7, 8400, Note_on_c, 5, 71, 127
7, 8400, Note_on_c, 5, 59, 127
7, 8410, Control_c, 5, 11, 95
7, 8415, Note_on_c, 5, 59, 0
7, 8415, Note_on_c, 5, 71, 0
7, 8430, Note_on_c, 5, 71, 127
7, 8430, Note_on_c, 5, 59, 127
7, 8433, Control_c, 5, 11, 94
7, 8445, Note_on_c, 5, 59, 0
7, 8445, Note_on_c, 5, 71, 0
7, 8456, Control_c, 5, 11, 93
7, 8460, Note_on_c, 5, 71, 127
7, 8460, Note_on_c, 5, 59, 127
7, 8475, Note_on_c, 5, 59, 0
7, 8475, Note_on_c, 5, 71, 0
7, 8479, Control_c, 5, 11, 92
7, 8490, Note_on_c, 5, 71, 127
7, 8490, Note_on_c, 5, 59, 127
7, 8502, Control_c, 5, 11, 91
7, 8505, Note_on_c, 5, 59, 0
7, 8505, Note_on_c, 5, 71, 0
7, 8520, Note_on_c, 5, 71, 127
7, 8520, Note_on_c, 5, 59, 127
7, 8524, Control_c, 5, 11, 90
7, 8547, Control_c, 5, 11, 89
7, 8565, Note_on_c, 5, 59, 0
7, 8565, Note_on_c, 5, 71, 0
7, 8570, Control_c, 5, 11, 88
7, 8580, Note_on_c, 5, 71, 127
7, 8580, Note_on_c, 5, 59, 127
7, 8593, Control_c, 5, 11, 87
7, 8595, Note_on_c, 5, 59, 0
7, 8595, Note_on_c, 5, 71, 0
7, 8616, Control_c, 5, 11, 86
7, 8639, Control_c, 5, 11, 85
7, 8640, Control_c, 5, 11, 127
7, 8640, Note_on_c, 5, 71, 127
7, 8640, Note_on_c, 5, 59, 127
7, 8655, Note_on_c, 5, 59, 0
7, 8655, Note_on_c, 5, 71, 0
7, 8670, Note_on_c, 5, 71, 127
7, 8670, Note_on_c, 5, 59, 127
7, 8685, Note_on_c, 5, 59, 0
7, 8685, Note_on_c, 5, 71, 0
7, 8700, Note_on_c, 5, 71, 127
7, 8700, Note_on_c, 5, 59, 127
7, 8715, Note_on_c, 5, 59, 0
7, 8715, Note_on_c, 5, 71, 0
7, 8730, Note_on_c, 5, 71, 127
7, 8730, Note_on_c, 5, 59, 127
7, 8745, Note_on_c, 5, 59, 0
7, 8745, Note_on_c, 5, 71, 0
7, 8760, Note_on_c, 5, 71, 127
7, 8760, Note_on_c, 5, 59, 127
7, 8805, Note_on_c, 5, 59, 0
7, 8805, Note_on_c, 5, 71, 0
7, 8820, Note_on_c, 5, 71, 127
7, 8820, Note_on_c, 5, 59, 127
7, 8835, Note_on_c, 5, 59, 0
7, 8835, Note_on_c, 5, 71, 0
7, 8850, Note_on_c, 5, 71, 127
7, 8850, Note_on_c, 5, 59, 127
7, 8865, Note_on_c, 5, 59, 0
7, 8865, Note_on_c, 5, 71, 0
7, 8880, Note_on_c, 5, 71, 127
7, 8880, Note_on_c, 5, 59, 127
7, 8895, Note_on_c, 5, 59, 0
7, 8895, Note_on_c, 5, 71, 0
7, 8910, Note_on_c, 5, 71, 127
7, 8910, Note_on_c, 5, 59, 127
7, 8925, Note_on_c, 5, 59, 0
7, 8925, Note_on_c, 5, 71, 0
7, 8940, Note_on_c, 5, 71, 127
7, 8940, Note_on_c, 5, 59, 127
7, 8955, Note_on_c, 5, 59, 0
7, 8955, Note_on_c, 5, 71, 0
7, 8970, Note_on_c, 5, 71, 127
7, 8970, Note_on_c, 5, 59, 127
7, 8985, Note_on_c, 5, 59, 0
7, 8985, Note_on_c, 5, 71, 0
7, 9000, Note_on_c, 5, 71, 127
7, 9000, Note_on_c, 5, 59, 127
7, 9045, Note_on_c, 5, 59, 0
7, 9045, Note_on_c, 5, 71, 0
7, 9060, Note_on_c, 5, 76, 127
7, 9060, Note_on_c, 5, 64, 127
7, 9075, Note_on_c, 5, 64, 0
7, 9075, Note_on_c, 5, 76, 0
7, 9090, Note_on_c, 5, 76, 127
7, 9090, Note_on_c, 5, 64, 127
7, 9105, Note_on_c, 5, 64, 0
7, 9105, Note_on_c, 5, 76, 0
7, 9120, Note_on_c, 5, 76, 127
7, 9120, Note_on_c, 5, 64, 127
7, 9135, Note_on_c, 5, 64, 0
7, 9135, Note_on_c, 5, 76, 0
7, 9150, Note_on_c, 5, 76, 127
7, 9150, Note_on_c, 5, 64, 127
7, 9165, Note_on_c, 5, 64, 0
7, 9165, Note_on_c, 5, 76, 0
7, 9180, Note_on_c, 5, 76, 127
7, 9180, Note_on_c, 5, 64, 127
7, 9195, Note_on_c, 5, 64, 0
7, 9195, Note_on_c, 5, 76, 0
7, 9210, Note_on_c, 5, 76, 127
7, 9210, Note_on_c, 5, 64, 127
7, 9225, Note_on_c, 5, 64, 0
7, 9225, Note_on_c, 5, 76, 0
7, 9240, Note_on_c, 5, 76, 127
7, 9240, Note_on_c, 5, 64, 127
7, 9285, Note_on_c, 5, 64, 0
7, 9285, Note_on_c, 5, 76, 0
7, 9300, Note_on_c, 5, 74, 127
7, 9300, Note_on_c, 5, 62, 127
7, 9315, Note_on_c, 5, 62, 0
7, 9315, Note_on_c, 5, 74, 0
7, 9330, Note_on_c, 5, 74, 127
7, 9330, Note_on_c, 5, 62, 127
7, 9345, Note_on_c, 5, 62, 0
7, 9345, Note_on_c, 5, 74, 0
7, 9360, Note_on_c, 5, 74, 127
7, 9360, Note_on_c, 5, 62, 127
7, 9375, Note_on_c, 5, 62, 0
7, 9375, Note_on_c, 5, 74, 0
7, 9390, Note_on_c, 5, 74, 127
7, 9390, Note_on_c, 5, 62, 127
7, 9405, Note_on_c, 5, 62, 0
7, 9405, Note_on_c, 5, 74, 0
7, 9420, Note_on_c, 5, 74, 127
7, 9420, Note_on_c, 5, 62, 127
7, 9435, Note_on_c, 5, 62, 0
7, 9435, Note_on_c, 5, 74, 0
7, 9450, Note_on_c, 5, 74, 127
7, 9450, Note_on_c, 5, 62, 127
7, 9465, Note_on_c, 5, 62, 0
7, 9465, Note_on_c, 5, 74, 0
7, 9480, Note_on_c, 5, 74, 127
7, 9480, Note_on_c, 5, 62, 127
7, 9525, Note_on_c, 5, 62, 0
7, 9525, Note_on_c, 5, 74, 0
7, 9540, Note_on_c, 5, 69, 127
7, 9540, Note_on_c, 5, 57, 127
7, 9555, Note_on_c, 5, 57, 0
7, 9555, Note_on_c, 5, 69, 0
7, 9570, Note_on_c, 5, 69, 127
7, 9570, Note_on_c, 5, 57, 127
7, 9585, Note_on_c, 5, 57, 0
7, 9585, Note_on_c, 5, 69, 0
7, 9600, Note_on_c, 5, 71, 127
7, 9600, Note_on_c, 5, 59, 127
7, 9615, Note_on_c, 5, 59, 0
7, 9615, Note_on_c, 5, 71, 0
7, 9630, Note_on_c, 5, 71, 127
7, 9630, Note_on_c, 5, 59, 127
7, 9645, Note_on_c, 5, 59, 0
7, 9645, Note_on_c, 5, 71, 0
7, 9660, Note_on_c, 5, 71, 127
7, 9660, Note_on_c, 5, 59, 127
7, 9675, Note_on_c, 5, 59, 0
7, 9675, Note_on_c, 5, 71, 0
7, 9690, Note_on_c, 5, 71, 127
7, 9690, Note_on_c, 5, 59, 127
7, 9705, Note_on_c, 5, 59, 0
7, 9705, Note_on_c, 5, 71, 0
7, 9720, Note_on_c, 5, 71, 127
7, 9720, Note_on_c, 5, 59, 127
7, 9765, Note_on_c, 5, 59, 0
7, 9765, Note_on_c, 5, 71, 0
7, 9780, Note_on_c, 5, 71, 127
7, 9780, Note_on_c, 5, 59, 127
7, 9795, Note_on_c, 5, 59, 0
7, 9795, Note_on_c, 5, 71, 0
7, 9810, Note_on_c, 5, 71, 127
7, 9810, Note_on_c, 5, 59, 127
7, 9825, Note_on_c, 5, 59, 0
7, 9825, Note_on_c, 5, 71, 0
7, 9840, Note_on_c, 5, 71, 127
7, 9840, Note_on_c, 5, 59, 127
7, 9855, Note_on_c, 5, 59, 0
7, 9855, Note_on_c, 5, 71, 0
7, 9870, Note_on_c, 5, 71, 127
7, 9870, Note_on_c, 5, 59, 127
7, 9885, Note_on_c, 5, 59, 0
7, 9885, Note_on_c, 5, 71, 0
7, 9900, Note_on_c, 5, 71, 127
7, 9900, Note_on_c, 5, 59, 127
7, 9915, Note_on_c, 5, 59, 0
7, 9915, Note_on_c, 5, 71, 0
7, 9930, Note_on_c, 5, 71, 127
7, 9930, Note_on_c, 5, 59, 127
7, 9945, Note_on_c, 5, 59, 0
7, 9945, Note_on_c, 5, 71, 0
7, 9960, Note_on_c, 5, 71, 127
7, 9960, Note_on_c, 5, 59, 127
7, 10005, Note_on_c, 5, 59, 0
7, 10005, Note_on_c, 5, 71, 0
7, 10020, Note_on_c, 5, 76, 127
7, 10020, Note_on_c, 5, 64, 127
7, 10035, Note_on_c, 5, 64, 0
7, 10035, Note_on_c, 5, 76, 0
7, 10050, Note_on_c, 5, 76, 127
7, 10050, Note_on_c, 5, 64, 127
7, 10065, Note_on_c, 5, 64, 0
7, 10065, Note_on_c, 5, 76, 0
7, 10080, Note_on_c, 5, 71, 127
7, 10080, Note_on_c, 5, 59, 127
7, 10095, Note_on_c, 5, 59, 0
7, 10095, Note_on_c, 5, 71, 0
7, 10110, Note_on_c, 5, 71, 127
7, 10110, Note_on_c, 5, 59, 127
7, 10125, Note_on_c, 5, 59, 0
7, 10125, Note_on_c, 5, 71, 0
7, 10140, Note_on_c, 5, 71, 127
7, 10140, Note_on_c, 5, 59, 127
7, 10155, Note_on_c, 5, 59, 0
7, 10155, Note_on_c, 5, 71, 0
7, 10170, Note_on_c, 5, 71, 127
7, 10170, Note_on_c, 5, 59, 127
7, 10185, Note_on_c, 5, 59, 0
7, 10185, Note_on_c, 5, 71, 0
7, 10200, Note_on_c, 5, 71, 127
7, 10200, Note_on_c, 5, 59, 127
7, 10245, Note_on_c, 5, 59, 0
7, 10245, Note_on_c, 5, 71, 0
7, 10260, Note_on_c, 5, 71, 127
7, 10260, Note_on_c, 5, 59, 127
7, 10275, Note_on_c, 5, 59, 0
7, 10275, Note_on_c, 5, 71, 0
7, 10290, Note_on_c, 5, 71, 127
7, 10290, Note_on_c, 5, 59, 127
7, 10305, Note_on_c, 5, 59, 0
7, 10305, Note_on_c, 5, 71, 0
7, 10320, Note_on_c, 5, 71, 127
7, 10320, Note_on_c, 5, 59, 127
7, 10335, Note_on_c, 5, 59, 0
7, 10335, Note_on_c, 5, 71, 0
7, 10350, Note_on_c, 5, 71, 127
7, 10350, Note_on_c, 5, 59, 127
7, 10365, Note_on_c, 5, 59, 0
7, 10365, Note_on_c, 5, 71, 0
7, 10380, Note_on_c, 5, 71, 127
7, 10380, Note_on_c, 5, 59, 127
7, 10395, Note_on_c, 5, 59, 0
7, 10395, Note_on_c, 5, 71, 0
7, 10410, Note_on_c, 5, 71, 127
7, 10410, Note_on_c, 5, 59, 127
7, 10425, Note_on_c, 5, 59, 0
7, 10425, Note_on_c, 5, 71, 0
7, 10440, Note_on_c, 5, 71, 127
7, 10440, Note_on_c, 5, 59, 127
7, 10485, Note_on_c, 5, 59, 0
7, 10485, Note_on_c, 5, 71, 0
7, 10500, Note_on_c, 5, 76, 127
7, 10500, Note_on_c, 5, 64, 127
7, 10515, Note_on_c, 5, 64, 0
7, 10515, Note_on_c, 5, 76, 0
7, 10530, Note_on_c, 5, 76, 127
7, 10530, Note_on_c, 5, 64, 127
7, 10545, Note_on_c, 5, 64, 0
7, 10545, Note_on_c, 5, 76, 0
7, 10560, Note_on_c, 5, 71, 127
7, 10560, Note_on_c, 5, 59, 127
7, 10575, Note_on_c, 5, 59, 0
7, 10575, Note_on_c, 5, 71, 0
7, 10590, Note_on_c, 5, 71, 127
7, 10590, Note_on_c, 5, 59, 127
7, 10605, Note_on_c, 5, 59, 0
7, 10605, Note_on_c, 5, 71, 0
7, 10620, Note_on_c, 5, 71, 127
7, 10620, Note_on_c, 5, 59, 127
7, 10635, Note_on_c, 5, 59, 0
7, 10635, Note_on_c, 5, 71, 0
7, 10650, Note_on_c, 5, 71, 127
7, 10650, Note_on_c, 5, 59, 127
7, 10665, Note_on_c, 5, 59, 0
7, 10665, Note_on_c, 5, 71, 0
7, 10680, Note_on_c, 5, 71, 127
7, 10680, Note_on_c, 5, 59, 127
7, 10725, Note_on_c, 5, 59, 0
7, 10725, Note_on_c, 5, 71, 0
7, 10740, Note_on_c, 5, 71, 127
7, 10740, Note_on_c, 5, 59, 127
7, 10755, Note_on_c, 5, 59, 0
7, 10755, Note_on_c, 5, 71, 0
7, 10770, Note_on_c, 5, 71, 127
7, 10770, Note_on_c, 5, 59, 127
7, 10785, Note_on_c, 5, 59, 0
7, 10785, Note_on_c, 5, 71, 0
7, 10800, Note_on_c, 5, 71, 127
7, 10800, Note_on_c, 5, 59, 127
7, 10815, Note_on_c, 5, 59, 0
7, 10815, Note_on_c, 5, 71, 0
7, 10830, Note_on_c, 5, 71, 127
7, 10830, Note_on_c, 5, 59, 127
7, 10845, Note_on_c, 5, 59, 0
7, 10845, Note_on_c, 5, 71, 0
7, 10860, Note_on_c, 5, 71, 127
7, 10860, Note_on_c, 5, 59, 127
7, 10875, Note_on_c, 5, 59, 0
7, 10875, Note_on_c, 5, 71, 0
7, 10890, Note_on_c, 5, 71, 127
7, 10890, Note_on_c, 5, 59, 127
7, 10905, Note_on_c, 5, 59, 0
7, 10905, Note_on_c, 5, 71, 0
7, 10920, Note_on_c, 5, 71, 127
7, 10920, Note_on_c, 5, 59, 127
7, 10965, Note_on_c, 5, 59, 0
7, 10965, Note_on_c, 5, 71, 0
7, 10980, Note_on_c, 5, 76, 127
7, 10980, Note_on_c, 5, 64, 127
7, 10995, Note_on_c, 5, 64, 0
7, 10995, Note_on_c, 5, 76, 0
7, 11010, Note_on_c, 5, 76, 127
7, 11010, Note_on_c, 5, 64, 127
7, 11025, Note_on_c, 5, 64, 0
7, 11025, Note_on_c, 5, 76, 0
7, 11040, Note_on_c, 5, 76, 127
7, 11040, Note_on_c, 5, 64, 127
7, 11055, Note_on_c, 5, 64, 0
7, 11055, Note_on_c, 5, 76, 0
7, 11070, Note_on_c, 5, 76, 127
7, 11070, Note_on_c, 5, 64, 127
7, 11085, Note_on_c, 5, 64, 0
7, 11085, Note_on_c, 5, 76, 0
7, 11100, Note_on_c, 5, 76, 127
7, 11100, Note_on_c, 5, 64, 127
7, 11115, Note_on_c, 5, 64, 0
7, 11115, Note_on_c, 5, 76, 0
7, 11130, Note_on_c, 5, 76, 127
7, 11130, Note_on_c, 5, 64, 127
7, 11145, Note_on_c, 5, 64, 0
7, 11145, Note_on_c, 5, 76, 0
7, 11160, Note_on_c, 5, 76, 127
7, 11160, Note_on_c, 5, 64, 127
7, 11205, Note_on_c, 5, 64, 0
7, 11205, Note_on_c, 5, 76, 0
7, 11220, Note_on_c, 5, 74, 127
7, 11220, Note_on_c, 5, 62, 127
7, 11235, Note_on_c, 5, 62, 0
7, 11235, Note_on_c, 5, 74, 0
7, 11250, Note_on_c, 5, 74, 127
7, 11250, Note_on_c, 5, 62, 127
7, 11265, Note_on_c, 5, 62, 0
7, 11265, Note_on_c, 5, 74, 0
7, 11280, Note_on_c, 5, 74, 127
7, 11280, Note_on_c, 5, 62, 127
7, 11295, Note_on_c, 5, 62, 0
7, 11295, Note_on_c, 5, 74, 0
7, 11310, Note_on_c, 5, 74, 127
7, 11310, Note_on_c, 5, 62, 127
7, 11325, Note_on_c, 5, 62, 0
7, 11325, Note_on_c, 5, 74, 0
7, 11340, Note_on_c, 5, 74, 127
7, 11340, Note_on_c, 5, 62, 127
7, 11355, Note_on_c, 5, 62, 0
7, 11355, Note_on_c, 5, 74, 0
7, 11370, Note_on_c, 5, 74, 127
7, 11370, Note_on_c, 5, 62, 127
7, 11385, Note_on_c, 5, 62, 0
7, 11385, Note_on_c, 5, 74, 0
7, 11400, Note_on_c, 5, 74, 127
7, 11400, Note_on_c, 5, 62, 127
7, 11445, Note_on_c, 5, 62, 0
7, 11445, Note_on_c, 5, 74, 0
7, 11460, Note_on_c, 5, 69, 127
7, 11460, Note_on_c, 5, 57, 127
7, 11475, Note_on_c, 5, 57, 0
7, 11475, Note_on_c, 5, 69, 0
7, 11490, Note_on_c, 5, 69, 127
7, 11490, Note_on_c, 5, 57, 127
7, 11505, Note_on_c, 5, 57, 0
7, 11505, Note_on_c, 5, 69, 0
7, 11520, Note_on_c, 5, 71, 127
7, 11520, Note_on_c, 5, 59, 127
7, 11535, Note_on_c, 5, 59, 0
7, 11535, Note_on_c, 5, 71, 0
7, 11550, Note_on_c, 5, 71, 127
7, 11550, Note_on_c, 5, 59, 127
7, 11565, Note_on_c, 5, 59, 0
7, 11565, Note_on_c, 5, 71, 0
7, 11580, Note_on_c, 5, 71, 127
7, 11580, Note_on_c, 5, 59, 127
7, 11595, Note_on_c, 5, 59, 0
7, 11595, Note_on_c, 5, 71, 0
7, 11610, Note_on_c, 5, 71, 127
7, 11610, Note_on_c, 5, 59, 127
7, 11625, Note_on_c, 5, 59, 0
7, 11625, Note_on_c, 5, 71, 0
7, 11640, Note_on_c, 5, 71, 127
7, 11640, Note_on_c, 5, 59, 127
7, 11685, Note_on_c, 5, 59, 0
7, 11685, Note_on_c, 5, 71, 0
7, 11700, Note_on_c, 5, 71, 127
7, 11700, Note_on_c, 5, 59, 127
7, 11715, Note_on_c, 5, 59, 0
7, 11715, Note_on_c, 5, 71, 0
7, 11730, Note_on_c, 5, 71, 127
7, 11730, Note_on_c, 5, 59, 127
7, 11745, Note_on_c, 5, 59, 0
7, 11745, Note_on_c, 5, 71, 0
7, 11760, Note_on_c, 5, 71, 127
7, 11760, Note_on_c, 5, 59, 127
7, 11775, Note_on_c, 5, 59, 0
7, 11775, Note_on_c, 5, 71, 0
7, 11790, Note_on_c, 5, 71, 127
7, 11790, Note_on_c, 5, 59, 127
7, 11805, Note_on_c, 5, 59, 0
7, 11805, Note_on_c, 5, 71, 0
7, 11820, Note_on_c, 5, 71, 127
7, 11820, Note_on_c, 5, 59, 127
7, 11835, Note_on_c, 5, 59, 0
7, 11835, Note_on_c, 5, 71, 0
7, 11850, Note_on_c, 5, 71, 127
7, 11850, Note_on_c, 5, 59, 127
7, 11865, Note_on_c, 5, 59, 0
7, 11865, Note_on_c, 5, 71, 0
7, 11880, Note_on_c, 5, 71, 127
7, 11880, Note_on_c, 5, 59, 127
7, 11925, Note_on_c, 5, 59, 0
7, 11925, Note_on_c, 5, 71, 0
7, 11940, Note_on_c, 5, 76, 127
7, 11940, Note_on_c, 5, 64, 127
7, 11955, Note_on_c, 5, 64, 0
7, 11955, Note_on_c, 5, 76, 0
7, 11970, Note_on_c, 5, 76, 127
7, 11970, Note_on_c, 5, 64, 127
7, 11985, Note_on_c, 5, 64, 0
7, 11985, Note_on_c, 5, 76, 0
7, 12000, Note_on_c, 5, 71, 127
7, 12000, Note_on_c, 5, 59, 127
7, 12015, Note_on_c, 5, 59, 0
7, 12015, Note_on_c, 5, 71, 0
7, 12030, Note_on_c, 5, 71, 127
7, 12030, Note_on_c, 5, 59, 127
7, 12045, Note_on_c, 5, 59, 0
7, 12045, Note_on_c, 5, 71, 0
7, 12060, Note_on_c, 5, 71, 127
7, 12060, Note_on_c, 5, 59, 127
7, 12075, Note_on_c, 5, 59, 0
7, 12075, Note_on_c, 5, 71, 0
7, 12090, Note_on_c, 5, 71, 127
7, 12090, Note_on_c, 5, 59, 127
7, 12105, Note_on_c, 5, 59, 0
7, 12105, Note_on_c, 5, 71, 0
7, 12120, Note_on_c, 5, 71, 127
7, 12120, Note_on_c, 5, 59, 127
7, 12165, Note_on_c, 5, 59, 0
7, 12165, Note_on_c, 5, 71, 0
7, 12180, Note_on_c, 5, 71, 127
7, 12180, Note_on_c, 5, 59, 127
7, 12195, Note_on_c, 5, 59, 0
7, 12195, Note_on_c, 5, 71, 0
7, 12210, Note_on_c, 5, 71, 127
7, 12210, Note_on_c, 5, 59, 127
7, 12225, Note_on_c, 5, 59, 0
7, 12225, Note_on_c, 5, 71, 0
7, 12240, Note_on_c, 5, 71, 127
7, 12240, Note_on_c, 5, 59, 127
7, 12255, Note_on_c, 5, 59, 0
7, 12255, Note_on_c, 5, 71, 0
7, 12270, Note_on_c, 5, 71, 127
7, 12270, Note_on_c, 5, 59, 127
7, 12285, Note_on_c, 5, 59, 0
7, 12285, Note_on_c, 5, 71, 0
7, 12300, Note_on_c, 5, 71, 127
7, 12300, Note_on_c, 5, 59, 127
7, 12315, Note_on_c, 5, 59, 0
7, 12315, Note_on_c, 5, 71, 0
7, 12330, Note_on_c, 5, 71, 127
7, 12330, Note_on_c, 5, 59, 127
7, 12345, Note_on_c, 5, 59, 0
7, 12345, Note_on_c, 5, 71, 0
7, 12360, Note_on_c, 5, 71, 127
7, 12360, Note_on_c, 5, 59, 127
7, 12405, Note_on_c, 5, 59, 0
7, 12405, Note_on_c, 5, 71, 0
7, 12420, Note_on_c, 5, 76, 127
7, 12420, Note_on_c, 5, 64, 127
7, 12435, Note_on_c, 5, 64, 0
7, 12435, Note_on_c, 5, 76, 0
7, 12450, Note_on_c, 5, 76, 127
7, 12450, Note_on_c, 5, 64, 127
7, 12465, Note_on_c, 5, 64, 0
7, 12465, Note_on_c, 5, 76, 0
7, 12480, Note_on_c, 5, 71, 127
7, 12480, Note_on_c, 5, 59, 127
7, 12495, Note_on_c, 5, 59, 0
7, 12495, Note_on_c, 5, 71, 0
7, 12510, Note_on_c, 5, 71, 127
7, 12510, Note_on_c, 5, 59, 127
7, 12525, Note_on_c, 5, 59, 0
7, 12525, Note_on_c, 5, 71, 0
7, 12540, Note_on_c, 5, 71, 127
7, 12540, Note_on_c, 5, 59, 127
7, 12555, Note_on_c, 5, 59, 0
7, 12555, Note_on_c, 5, 71, 0
7, 12570, Note_on_c, 5, 71, 127
7, 12570, Note_on_c, 5, 59, 127
7, 12585, Note_on_c, 5, 59, 0
7, 12585, Note_on_c, 5, 71, 0
7, 12600, Note_on_c, 5, 71, 127
7, 12600, Note_on_c, 5, 59, 127
7, 12645, Note_on_c, 5, 59, 0
7, 12645, Note_on_c, 5, 71, 0
7, 12660, Note_on_c, 5, 71, 127
7, 12660, Note_on_c, 5, 59, 127
7, 12675, Note_on_c, 5, 59, 0
7, 12675, Note_on_c, 5, 71, 0
7, 12690, Note_on_c, 5, 71, 127
7, 12690, Note_on_c, 5, 59, 127
7, 12705, Note_on_c, 5, 59, 0
7, 12705, Note_on_c, 5, 71, 0
7, 12720, Note_on_c, 5, 71, 127
7, 12720, Note_on_c, 5, 59, 127
7, 12735, Note_on_c, 5, 59, 0
7, 12735, Note_on_c, 5, 71, 0
7, 12750, Note_on_c, 5, 71, 127
7, 12750, Note_on_c, 5, 59, 127
7, 12765, Note_on_c, 5, 59, 0
7, 12765, Note_on_c, 5, 71, 0
7, 12780, Note_on_c, 5, 71, 127
7, 12780, Note_on_c, 5, 59, 127
7, 12795, Note_on_c, 5, 59, 0
7, 12795, Note_on_c, 5, 71, 0
7, 12810, Note_on_c, 5, 71, 127
7, 12810, Note_on_c, 5, 59, 127
7, 12825, Note_on_c, 5, 59, 0
7, 12825, Note_on_c, 5, 71, 0
7, 12840, Note_on_c, 5, 71, 127
7, 12840, Note_on_c, 5, 59, 127
7, 12885, Note_on_c, 5, 59, 0
7, 12885, Note_on_c, 5, 71, 0
7, 12900, Note_on_c, 5, 76, 127
7, 12900, Note_on_c, 5, 64, 127
7, 12915, Note_on_c, 5, 64, 0
7, 12915, Note_on_c, 5, 76, 0
7, 12930, Note_on_c, 5, 76, 127
7, 12930, Note_on_c, 5, 64, 127
7, 12945, Note_on_c, 5, 64, 0
7, 12945, Note_on_c, 5, 76, 0
7, 12960, Note_on_c, 5, 76, 127
7, 12960, Note_on_c, 5, 64, 127
7, 12975, Note_on_c, 5, 64, 0
7, 12975, Note_on_c, 5, 76, 0
7, 12990, Note_on_c, 5, 76, 127
7, 12990, Note_on_c, 5, 64, 127
7, 13005, Note_on_c, 5, 64, 0
7, 13005, Note_on_c, 5, 76, 0
7, 13020, Note_on_c, 5, 76, 127
7, 13020, Note_on_c, 5, 64, 127
7, 13035, Note_on_c, 5, 64, 0
7, 13035, Note_on_c, 5, 76, 0
7, 13050, Note_on_c, 5, 76, 127
7, 13050, Note_on_c, 5, 64, 127
7, 13065, Note_on_c, 5, 64, 0
7, 13065, Note_on_c, 5, 76, 0
7, 13080, Note_on_c, 5, 76, 127
7, 13080, Note_on_c, 5, 64, 127
7, 13125, Note_on_c, 5, 64, 0
7, 13125, Note_on_c, 5, 76, 0
7, 13140, Note_on_c, 5, 74, 127
7, 13140, Note_on_c, 5, 62, 127
7, 13155, Note_on_c, 5, 62, 0
7, 13155, Note_on_c, 5, 74, 0
7, 13170, Note_on_c, 5, 74, 127
7, 13170, Note_on_c, 5, 62, 127
7, 13185, Note_on_c, 5, 62, 0
7, 13185, Note_on_c, 5, 74, 0
7, 13200, Note_on_c, 5, 74, 127
7, 13200, Note_on_c, 5, 62, 127
7, 13215, Note_on_c, 5, 62, 0
7, 13215, Note_on_c, 5, 74, 0
7, 13230, Note_on_c, 5, 74, 127
7, 13230, Note_on_c, 5, 62, 127
7, 13245, Note_on_c, 5, 62, 0
7, 13245, Note_on_c, 5, 74, 0
7, 13260, Note_on_c, 5, 74, 127
7, 13260, Note_on_c, 5, 62, 127
7, 13275, Note_on_c, 5, 62, 0
7, 13275, Note_on_c, 5, 74, 0
7, 13290, Note_on_c, 5, 74, 127
7, 13290, Note_on_c, 5, 62, 127
7, 13305, Note_on_c, 5, 62, 0
7, 13305, Note_on_c, 5, 74, 0
7, 13320, Note_on_c, 5, 74, 127
7, 13320, Note_on_c, 5, 62, 127
7, 13365, Note_on_c, 5, 62, 0
7, 13365, Note_on_c, 5, 74, 0
7, 13380, Note_on_c, 5, 69, 127
7, 13380, Note_on_c, 5, 57, 127
7, 13395, Note_on_c, 5, 57, 0
7, 13395, Note_on_c, 5, 69, 0
7, 13410, Note_on_c, 5, 69, 127
7, 13410, Note_on_c, 5, 57, 127
7, 13425, Note_on_c, 5, 57, 0
7, 13425, Note_on_c, 5, 69, 0
7, 13440, Note_on_c, 5, 71, 127
7, 13440, Note_on_c, 5, 59, 127
7, 13455, Note_on_c, 5, 59, 0
7, 13455, Note_on_c, 5, 71, 0
7, 13470, Note_on_c, 5, 71, 127
7, 13470, Note_on_c, 5, 59, 127
7, 13485, Note_on_c, 5, 59, 0
7, 13485, Note_on_c, 5, 71, 0
7, 13500, Note_on_c, 5, 71, 127
7, 13500, Note_on_c, 5, 59, 127
7, 13515, Note_on_c, 5, 59, 0
7, 13515, Note_on_c, 5, 71, 0
7, 13530, Note_on_c, 5, 71, 127
7, 13530, Note_on_c, 5, 59, 127
7, 13545, Note_on_c, 5, 59, 0
7, 13545, Note_on_c, 5, 71, 0
7, 13560, Note_on_c, 5, 71, 127
7, 13560, Note_on_c, 5, 59, 127
7, 13605, Note_on_c, 5, 59, 0
7, 13605, Note_on_c, 5, 71, 0
7, 13620, Note_on_c, 5, 71, 127
7, 13620, Note_on_c, 5, 59, 127
7, 13635, Note_on_c, 5, 59, 0
7, 13635, Note_on_c, 5, 71, 0
7, 13650, Note_on_c, 5, 71, 127
7, 13650, Note_on_c, 5, 59, 127
7, 13665, Note_on_c, 5, 59, 0
7, 13665, Note_on_c, 5, 71, 0
7, 13680, Note_on_c, 5, 71, 127
7, 13680, Note_on_c, 5, 59, 127
7, 13695, Note_on_c, 5, 59, 0
7, 13695, Note_on_c, 5, 71, 0
7, 13710, Note_on_c, 5, 71, 127
7, 13710, Note_on_c, 5, 59, 127
7, 13725, Note_on_c, 5, 59, 0
7, 13725, Note_on_c, 5, 71, 0
7, 13740, Note_on_c, 5, 71, 127
7, 13740, Note_on_c, 5, 59, 127
7, 13755, Note_on_c, 5, 59, 0
7, 13755, Note_on_c, 5, 71, 0
7, 13770, Note_on_c, 5, 71, 127
7, 13770, Note_on_c, 5, 59, 127
7, 13785, Note_on_c, 5, 59, 0
7, 13785, Note_on_c, 5, 71, 0
7, 13800, Note_on_c, 5, 71, 127
7, 13800, Note_on_c, 5, 59, 127
7, 13845, Note_on_c, 5, 59, 0
7, 13845, Note_on_c, 5, 71, 0
7, 13860, Note_on_c, 5, 76, 127
7, 13860, Note_on_c, 5, 64, 127
7, 13875, Note_on_c, 5, 64, 0
7, 13875, Note_on_c, 5, 76, 0
7, 13890, Note_on_c, 5, 76, 127
7, 13890, Note_on_c, 5, 64, 127
7, 13905, Note_on_c, 5, 64, 0
7, 13905, Note_on_c, 5, 76, 0
7, 13920, Note_on_c, 5, 71, 127
7, 13920, Note_on_c, 5, 59, 127
7, 13935, Note_on_c, 5, 59, 0
7, 13935, Note_on_c, 5, 71, 0
7, 13950, Note_on_c, 5, 71, 127
7, 13950, Note_on_c, 5, 59, 127
7, 13965, Note_on_c, 5, 59, 0
7, 13965, Note_on_c, 5, 71, 0
7, 13980, Note_on_c, 5, 71, 127
7, 13980, Note_on_c, 5, 59, 127
7, 13995, Note_on_c, 5, 59, 0
7, 13995, Note_on_c, 5, 71, 0
7, 14010, Note_on_c, 5, 71, 127
7, 14010, Note_on_c, 5, 59, 127
7, 14025, Note_on_c, 5, 59, 0
7, 14025, Note_on_c, 5, 71, 0
7, 14040, Note_on_c, 5, 71, 127
7, 14040, Note_on_c, 5, 59, 127
7, 14085, Note_on_c, 5, 59, 0
7, 14085, Note_on_c, 5, 71, 0
7, 14100, Note_on_c, 5, 71, 127
7, 14100, Note_on_c, 5, 59, 127
7, 14115, Note_on_c, 5, 59, 0
7, 14115, Note_on_c, 5, 71, 0
7, 14130, Note_on_c, 5, 71, 127
7, 14130, Note_on_c, 5, 59, 127
7, 14145, Note_on_c, 5, 59, 0
7, 14145, Note_on_c, 5, 71, 0
7, 14160, Note_on_c, 5, 71, 127
7, 14160, Note_on_c, 5, 59, 127
7, 14175, Note_on_c, 5, 59, 0
7, 14175, Note_on_c, 5, 71, 0
7, 14190, Note_on_c, 5, 71, 127
7, 14190, Note_on_c, 5, 59, 127
7, 14205, Note_on_c, 5, 59, 0
7, 14205, Note_on_c, 5, 71, 0
7, 14220, Note_on_c, 5, 71, 127
7, 14220, Note_on_c, 5, 59, 127
7, 14235, Note_on_c, 5, 59, 0
7, 14235, Note_on_c, 5, 71, 0
7, 14250, Note_on_c, 5, 71, 127
7, 14250, Note_on_c, 5, 59, 127
7, 14265, Note_on_c, 5, 59, 0
7, 14265, Note_on_c, 5, 71, 0
7, 14280, Note_on_c, 5, 71, 127
7, 14280, Note_on_c, 5, 59, 127
7, 14325, Note_on_c, 5, 59, 0
7, 14325, Note_on_c, 5, 71, 0
7, 14340, Note_on_c, 5, 76, 127
7, 14340, Note_on_c, 5, 64, 127
7, 14355, Note_on_c, 5, 64, 0
7, 14355, Note_on_c, 5, 76, 0
7, 14370, Note_on_c, 5, 76, 127
7, 14370, Note_on_c, 5, 64, 127
7, 14385, Note_on_c, 5, 64, 0
7, 14385, Note_on_c, 5, 76, 0
7, 14400, Note_on_c, 5, 71, 127
7, 14400, Note_on_c, 5, 59, 127
7, 14415, Note_on_c, 5, 59, 0
7, 14415, Note_on_c, 5, 71, 0
7, 14430, Note_on_c, 5, 71, 127
7, 14430, Note_on_c, 5, 59, 127
7, 14445, Note_on_c, 5, 59, 0
7, 14445, Note_on_c, 5, 71, 0
7, 14460, Note_on_c, 5, 71, 127
7, 14460, Note_on_c, 5, 59, 127
7, 14475, Note_on_c, 5, 59, 0
7, 14475, Note_on_c, 5, 71, 0
7, 14490, Note_on_c, 5, 71, 127
7, 14490, Note_on_c, 5, 59, 127
7, 14505, Note_on_c, 5, 59, 0
7, 14505, Note_on_c, 5, 71, 0
7, 14520, Note_on_c, 5, 71, 127
7, 14520, Note_on_c, 5, 59, 127
7, 14565, Note_on_c, 5, 59, 0
7, 14565, Note_on_c, 5, 71, 0
7, 14580, Note_on_c, 5, 71, 127
7, 14580, Note_on_c, 5, 59, 127
7, 14595, Note_on_c, 5, 59, 0
7, 14595, Note_on_c, 5, 71, 0
7, 14610, Note_on_c, 5, 71, 127
7, 14610, Note_on_c, 5, 59, 127
7, 14625, Note_on_c, 5, 59, 0
7, 14625, Note_on_c, 5, 71, 0
7, 14640, Note_on_c, 5, 71, 127
7, 14640, Note_on_c, 5, 59, 127
7, 14655, Note_on_c, 5, 59, 0
7, 14655, Note_on_c, 5, 71, 0
7, 14670, Note_on_c, 5, 71, 127
7, 14670, Note_on_c, 5, 59, 127
7, 14685, Note_on_c, 5, 59, 0
7, 14685, Note_on_c, 5, 71, 0
7, 14700, Note_on_c, 5, 71, 127
7, 14700, Note_on_c, 5, 59, 127
7, 14715, Note_on_c, 5, 59, 0
7, 14715, Note_on_c, 5, 71, 0
7, 14730, Note_on_c, 5, 71, 127
7, 14730, Note_on_c, 5, 59, 127
7, 14745, Note_on_c, 5, 59, 0
7, 14745, Note_on_c, 5, 71, 0
7, 14760, Note_on_c, 5, 71, 127
7, 14760, Note_on_c, 5, 59, 127
7, 14805, Note_on_c, 5, 59, 0
7, 14805, Note_on_c, 5, 71, 0
7, 14820, Note_on_c, 5, 76, 127
7, 14820, Note_on_c, 5, 64, 127
7, 14835, Note_on_c, 5, 64, 0
7, 14835, Note_on_c, 5, 76, 0
7, 14850, Note_on_c, 5, 76, 127
7, 14850, Note_on_c, 5, 64, 127
7, 14865, Note_on_c, 5, 64, 0
7, 14865, Note_on_c, 5, 76, 0
7, 14880, Note_on_c, 5, 76, 127
7, 14880, Note_on_c, 5, 64, 127
7, 14895, Note_on_c, 5, 64, 0
7, 14895, Note_on_c, 5, 76, 0
7, 14910, Note_on_c, 5, 76, 127
7, 14910, Note_on_c, 5, 64, 127
7, 14925, Note_on_c, 5, 64, 0
7, 14925, Note_on_c, 5, 76, 0
7, 14940, Note_on_c, 5, 76, 127
7, 14940, Note_on_c, 5, 64, 127
7, 14955, Note_on_c, 5, 64, 0
7, 14955, Note_on_c, 5, 76, 0
7, 14970, Note_on_c, 5, 76, 127
7, 14970, Note_on_c, 5, 64, 127
7, 14985, Note_on_c, 5, 64, 0
7, 14985, Note_on_c, 5, 76, 0
7, 15000, Note_on_c, 5, 76, 127
7, 15000, Note_on_c, 5, 64, 127
7, 15045, Note_on_c, 5, 64, 0
7, 15045, Note_on_c, 5, 76, 0
7, 15060, Note_on_c, 5, 74, 127
7, 15060, Note_on_c, 5, 62, 127
7, 15075, Note_on_c, 5, 62, 0
7, 15075, Note_on_c, 5, 74, 0
7, 15090, Note_on_c, 5, 74, 127
7, 15090, Note_on_c, 5, 62, 127
7, 15105, Note_on_c, 5, 62, 0
7, 15105, Note_on_c, 5, 74, 0
7, 15120, Note_on_c, 5, 74, 127
7, 15120, Note_on_c, 5, 62, 127
7, 15135, Note_on_c, 5, 62, 0
7, 15135, Note_on_c, 5, 74, 0
7, 15150, Note_on_c, 5, 74, 127
7, 15150, Note_on_c, 5, 62, 127
7, 15165, Note_on_c, 5, 62, 0
7, 15165, Note_on_c, 5, 74, 0
7, 15180, Note_on_c, 5, 74, 127
7, 15180, Note_on_c, 5, 62, 127
7, 15195, Note_on_c, 5, 62, 0
7, 15195, Note_on_c, 5, 74, 0
7, 15210, Note_on_c, 5, 74, 127
7, 15210, Note_on_c, 5, 62, 127
7, 15225, Note_on_c, 5, 62, 0
7, 15225, Note_on_c, 5, 74, 0
7, 15240, Note_on_c, 5, 74, 127
7, 15240, Note_on_c, 5, 62, 127
7, 15285, Note_on_c, 5, 62, 0
7, 15285, Note_on_c, 5, 74, 0
7, 15300, Note_on_c, 5, 69, 127
7, 15300, Note_on_c, 5, 57, 127
7, 15315, Note_on_c, 5, 57, 0
7, 15315, Note_on_c, 5, 69, 0
7, 15330, Note_on_c, 5, 69, 127
7, 15330, Note_on_c, 5, 57, 127
7, 15345, Note_on_c, 5, 57, 0
7, 15345, Note_on_c, 5, 69, 0
7, 15360, Note_on_c, 5, 71, 127
7, 15360, Note_on_c, 5, 59, 127
7, 15375, Note_on_c, 5, 59, 0
7, 15375, Note_on_c, 5, 71, 0
7, 15390, Note_on_c, 5, 71, 127
7, 15390, Note_on_c, 5, 59, 127
7, 15405, Note_on_c, 5, 59, 0
7, 15405, Note_on_c, 5, 71, 0
7, 15420, Note_on_c, 5, 71, 127
7, 15420, Note_on_c, 5, 59, 127
7, 15435, Note_on_c, 5, 59, 0
7, 15435, Note_on_c, 5, 71, 0
7, 15450, Note_on_c, 5, 71, 127
7, 15450, Note_on_c, 5, 59, 127
7, 15465, Note_on_c, 5, 59, 0
7, 15465, Note_on_c, 5, 71, 0
7, 15480, Note_on_c, 5, 71, 127
7, 15480, Note_on_c, 5, 59, 127
7, 15525, Note_on_c, 5, 59, 0
7, 15525, Note_on_c, 5, 71, 0
7, 15540, Note_on_c, 5, 71, 127
7, 15540, Note_on_c, 5, 59, 127
7, 15555, Note_on_c, 5, 59, 0
7, 15555, Note_on_c, 5, 71, 0
7, 15570, Note_on_c, 5, 71, 127
7, 15570, Note_on_c, 5, 59, 127
7, 15585, Note_on_c, 5, 59, 0
7, 15585, Note_on_c, 5, 71, 0
7, 15600, Note_on_c, 5, 71, 127
7, 15600, Note_on_c, 5, 59, 127
7, 15615, Note_on_c, 5, 59, 0
7, 15615, Note_on_c, 5, 71, 0
7, 15630, Note_on_c, 5, 71, 127
7, 15630, Note_on_c, 5, 59, 127
7, 15645, Note_on_c, 5, 59, 0
7, 15645, Note_on_c, 5, 71, 0
7, 15660, Note_on_c, 5, 71, 127
7, 15660, Note_on_c, 5, 59, 127
7, 15675, Note_on_c, 5, 59, 0
7, 15675, Note_on_c, 5, 71, 0
7, 15690, Note_on_c, 5, 71, 127
7, 15690, Note_on_c, 5, 59, 127
7, 15705, Note_on_c, 5, 59, 0
7, 15705, Note_on_c, 5, 71, 0
7, 15720, Note_on_c, 5, 71, 127
7, 15720, Note_on_c, 5, 59, 127
7, 15765, Note_on_c, 5, 59, 0
7, 15765, Note_on_c, 5, 71, 0
7, 15780, Note_on_c, 5, 76, 127
7, 15780, Note_on_c, 5, 64, 127
7, 15795, Note_on_c, 5, 64, 0
7, 15795, Note_on_c, 5, 76, 0
7, 15810, Note_on_c, 5, 76, 127
7, 15810, Note_on_c, 5, 64, 127
7, 15825, Note_on_c, 5, 64, 0
7, 15825, Note_on_c, 5, 76, 0
7, 15840, Note_on_c, 5, 71, 127
7, 15840, Note_on_c, 5, 59, 127
7, 15855, Note_on_c, 5, 59, 0
7, 15855, Note_on_c, 5, 71, 0
7, 15870, Note_on_c, 5, 71, 127
7, 15870, Note_on_c, 5, 59, 127
7, 15885, Note_on_c, 5, 59, 0
7, 15885, Note_on_c, 5, 71, 0
7, 15900, Note_on_c, 5, 71, 127
7, 15900, Note_on_c, 5, 59, 127
7, 15915, Note_on_c, 5, 59, 0
7, 15915, Note_on_c, 5, 71, 0
7, 15930, Note_on_c, 5, 71, 127
7, 15930, Note_on_c, 5, 59, 127
7, 15945, Note_on_c, 5, 59, 0
7, 15945, Note_on_c, 5, 71, 0
7, 15960, Note_on_c, 5, 71, 127
7, 15960, Note_on_c, 5, 59, 127
7, 16005, Note_on_c, 5, 59, 0
7, 16005, Note_on_c, 5, 71, 0
7, 16020, Note_on_c, 5, 71, 127
7, 16020, Note_on_c, 5, 59, 127
7, 16035, Note_on_c, 5, 59, 0
7, 16035, Note_on_c, 5, 71, 0
7, 16050, Note_on_c, 5, 71, 127
7, 16050, Note_on_c, 5, 59, 127
7, 16065, Note_on_c, 5, 59, 0
7, 16065, Note_on_c, 5, 71, 0
7, 16080, Note_on_c, 5, 71, 127
7, 16080, Note_on_c, 5, 59, 127
7, 16095, Note_on_c, 5, 59, 0
7, 16095, Note_on_c, 5, 71, 0
7, 16110, Note_on_c, 5, 71, 127
7, 16110, Note_on_c, 5, 59, 127
7, 16125, Note_on_c, 5, 59, 0
7, 16125, Note_on_c, 5, 71, 0
7, 16140, Note_on_c, 5, 71, 127
7, 16140, Note_on_c, 5, 59, 127
7, 16155, Note_on_c, 5, 59, 0
7, 16155, Note_on_c, 5, 71, 0
7, 16170, Note_on_c, 5, 71, 127
7, 16170, Note_on_c, 5, 59, 127
7, 16185, Note_on_c, 5, 59, 0
7, 16185, Note_on_c, 5, 71, 0
7, 16200, Note_on_c, 5, 71, 127
7, 16200, Note_on_c, 5, 59, 127
7, 16245, Note_on_c, 5, 59, 0
7, 16245, Note_on_c, 5, 71, 0
7, 16260, Note_on_c, 5, 76, 127
7, 16260, Note_on_c, 5, 64, 127
7, 16275, Note_on_c, 5, 64, 0
7, 16275, Note_on_c, 5, 76, 0
7, 16290, Note_on_c, 5, 76, 127
7, 16290, Note_on_c, 5, 64, 127
7, 16305, Note_on_c, 5, 64, 0
7, 16305, Note_on_c, 5, 76, 0
7, 16320, Note_on_c, 5, 71, 127
7, 16320, Note_on_c, 5, 59, 127
7, 16335, Note_on_c, 5, 59, 0
7, 16335, Note_on_c, 5, 71, 0
7, 16350, Note_on_c, 5, 71, 127
7, 16350, Note_on_c, 5, 59, 127
7, 16365, Note_on_c, 5, 59, 0
7, 16365, Note_on_c, 5, 71, 0
7, 16380, Note_on_c, 5, 71, 127
7, 16380, Note_on_c, 5, 59, 127
7, 16395, Note_on_c, 5, 59, 0
7, 16395, Note_on_c, 5, 71, 0
7, 16410, Note_on_c, 5, 71, 127
7, 16410, Note_on_c, 5, 59, 127
7, 16425, Note_on_c, 5, 59, 0
7, 16425, Note_on_c, 5, 71, 0
7, 16440, Note_on_c, 5, 71, 127
7, 16440, Note_on_c, 5, 59, 127
7, 16485, Note_on_c, 5, 59, 0
7, 16485, Note_on_c, 5, 71, 0
7, 16500, Note_on_c, 5, 71, 127
7, 16500, Note_on_c, 5, 59, 127
7, 16515, Note_on_c, 5, 59, 0
7, 16515, Note_on_c, 5, 71, 0
7, 16530, Note_on_c, 5, 71, 127
7, 16530, Note_on_c, 5, 59, 127
7, 16545, Note_on_c, 5, 59, 0
7, 16545, Note_on_c, 5, 71, 0
7, 16560, Note_on_c, 5, 71, 127
7, 16560, Note_on_c, 5, 59, 127
7, 16575, Note_on_c, 5, 59, 0
7, 16575, Note_on_c, 5, 71, 0
7, 16590, Note_on_c, 5, 71, 127
7, 16590, Note_on_c, 5, 59, 127
7, 16605, Note_on_c, 5, 59, 0
7, 16605, Note_on_c, 5, 71, 0
7, 16620, Note_on_c, 5, 71, 127
7, 16620, Note_on_c, 5, 59, 127
7, 16635, Note_on_c, 5, 59, 0
7, 16635, Note_on_c, 5, 71, 0
7, 16650, Note_on_c, 5, 71, 127
7, 16650, Note_on_c, 5, 59, 127
7, 16665, Note_on_c, 5, 59, 0
7, 16665, Note_on_c, 5, 71, 0
7, 16680, Note_on_c, 5, 71, 127
7, 16680, Note_on_c, 5, 59, 127
7, 16725, Note_on_c, 5, 59, 0
7, 16725, Note_on_c, 5, 71, 0
7, 16740, Note_on_c, 5, 74, 127
7, 16740, Note_on_c, 5, 62, 127
7, 16785, Note_on_c, 5, 62, 0
7, 16785, Note_on_c, 5, 74, 0
7, 16800, Note_on_c, 5, 71, 127
7, 16800, Note_on_c, 5, 59, 127
7, 16815, Note_on_c, 5, 59, 0
7, 16815, Note_on_c, 5, 71, 0
7, 16830, Note_on_c, 5, 71, 127
7, 16830, Note_on_c, 5, 59, 127
7, 16845, Note_on_c, 5, 59, 0
7, 16845, Note_on_c, 5, 71, 0
7, 16860, Note_on_c, 5, 71, 127
7, 16860, Note_on_c, 5, 59, 127
7, 16875, Note_on_c, 5, 59, 0
7, 16875, Note_on_c, 5, 71, 0
7, 16890, Note_on_c, 5, 71, 127
7, 16890, Note_on_c, 5, 59, 127
7, 16905, Note_on_c, 5, 59, 0
7, 16905, Note_on_c, 5, 71, 0
7, 16920, Note_on_c, 5, 71, 127
7, 16920, Note_on_c, 5, 59, 127
7, 16965, Note_on_c, 5, 59, 0
7, 16965, Note_on_c, 5, 71, 0
7, 16980, Note_on_c, 5, 71, 127
7, 16980, Note_on_c, 5, 59, 127
7, 16995, Note_on_c, 5, 59, 0
7, 16995, Note_on_c, 5, 71, 0
7, 17010, Note_on_c, 5, 71, 127
7, 17010, Note_on_c, 5, 59, 127
7, 17025, Note_on_c, 5, 59, 0
7, 17025, Note_on_c, 5, 71, 0
7, 17040, Note_on_c, 5, 71, 127
7, 17040, Note_on_c, 5, 59, 127
7, 17055, Note_on_c, 5, 59, 0
7, 17055, Note_on_c, 5, 71, 0
7, 17070, Note_on_c, 5, 71, 127
7, 17070, Note_on_c, 5, 59, 127
7, 17085, Note_on_c, 5, 59, 0
7, 17085, Note_on_c, 5, 71, 0
7, 17100, Note_on_c, 5, 71, 127
7, 17100, Note_on_c, 5, 59, 127
7, 17115, Note_on_c, 5, 59, 0
7, 17115, Note_on_c, 5, 71, 0
7, 17130, Note_on_c, 5, 71, 127
7, 17130, Note_on_c, 5, 59, 127
7, 17145, Note_on_c, 5, 59, 0
7, 17145, Note_on_c, 5, 71, 0
7, 17160, Note_on_c, 5, 74, 127
7, 17160, Note_on_c, 5, 62, 127
7, 17205, Note_on_c, 5, 62, 0
7, 17205, Note_on_c, 5, 74, 0
7, 17220, Note_on_c, 5, 74, 127
7, 17220, Note_on_c, 5, 62, 127
7, 17265, Note_on_c, 5, 62, 0
7, 17265, Note_on_c, 5, 74, 0
7, 17280, Note_on_c, 5, 71, 127
7, 17280, Note_on_c, 5, 59, 127
7, 17295, Note_on_c, 5, 59, 0
7, 17295, Note_on_c, 5, 71, 0
7, 17310, Note_on_c, 5, 71, 127
7, 17310, Note_on_c, 5, 59, 127
7, 17325, Note_on_c, 5, 59, 0
7, 17325, Note_on_c, 5, 71, 0
7, 17340, Note_on_c, 5, 71, 127
7, 17340, Note_on_c, 5, 59, 127
7, 17355, Note_on_c, 5, 59, 0
7, 17355, Note_on_c, 5, 71, 0
7, 17370, Note_on_c, 5, 71, 127
7, 17370, Note_on_c, 5, 59, 127
7, 17385, Note_on_c, 5, 59, 0
7, 17385, Note_on_c, 5, 71, 0
7, 17400, Note_on_c, 5, 71, 127
7, 17400, Note_on_c, 5, 59, 127
7, 17445, Note_on_c, 5, 59, 0
7, 17445, Note_on_c, 5, 71, 0
7, 17460, Note_on_c, 5, 71, 127
7, 17460, Note_on_c, 5, 59, 127
7, 17475, Note_on_c, 5, 59, 0
7, 17475, Note_on_c, 5, 71, 0
7, 17490, Note_on_c, 5, 71, 127
7, 17490, Note_on_c, 5, 59, 127
7, 17505, Note_on_c, 5, 59, 0
7, 17505, Note_on_c, 5, 71, 0
7, 17520, Note_on_c, 5, 71, 127
7, 17520, Note_on_c, 5, 59, 127
7, 17535, Note_on_c, 5, 59, 0
7, 17535, Note_on_c, 5, 71, 0
7, 17550, Note_on_c, 5, 71, 127
7, 17550, Note_on_c, 5, 59, 127
7, 17565, Note_on_c, 5, 59, 0
7, 17565, Note_on_c, 5, 71, 0
7, 17580, Note_on_c, 5, 71, 127
7, 17580, Note_on_c, 5, 59, 127
7, 17595, Note_on_c, 5, 59, 0
7, 17595, Note_on_c, 5, 71, 0
7, 17610, Note_on_c, 5, 71, 127
7, 17610, Note_on_c, 5, 59, 127
7, 17625, Note_on_c, 5, 59, 0
7, 17625, Note_on_c, 5, 71, 0
7, 17640, Note_on_c, 5, 71, 127
7, 17640, Note_on_c, 5, 59, 127
7, 17685, Note_on_c, 5, 59, 0
7, 17685, Note_on_c, 5, 71, 0
7, 17700, Note_on_c, 5, 76, 127
7, 17700, Note_on_c, 5, 64, 127
7, 17715, Note_on_c, 5, 64, 0
7, 17715, Note_on_c, 5, 76, 0
7, 17730, Note_on_c, 5, 76, 127
7, 17730, Note_on_c, 5, 64, 127
7, 17745, Note_on_c, 5, 64, 0
7, 17745, Note_on_c, 5, 76, 0
7, 17760, Note_on_c, 5, 76, 127
7, 17760, Note_on_c, 5, 64, 127
7, 17775, Note_on_c, 5, 64, 0
7, 17775, Note_on_c, 5, 76, 0
7, 17790, Note_on_c, 5, 76, 127
7, 17790, Note_on_c, 5, 64, 127
7, 17805, Note_on_c, 5, 64, 0
7, 17805, Note_on_c, 5, 76, 0
7, 17820, Note_on_c, 5, 76, 127
7, 17820, Note_on_c, 5, 64, 127
7, 17835, Note_on_c, 5, 64, 0
7, 17835, Note_on_c, 5, 76, 0
7, 17850, Note_on_c, 5, 76, 127
7, 17850, Note_on_c, 5, 64, 127
7, 17865, Note_on_c, 5, 64, 0
7, 17865, Note_on_c, 5, 76, 0
7, 17880, Note_on_c, 5, 76, 127
7, 17880, Note_on_c, 5, 64, 127
7, 17925, Note_on_c, 5, 64, 0
7, 17925, Note_on_c, 5, 76, 0
7, 17940, Note_on_c, 5, 74, 127
7, 17940, Note_on_c, 5, 62, 127
7, 17955, Note_on_c, 5, 62, 0
7, 17955, Note_on_c, 5, 74, 0
7, 17970, Note_on_c, 5, 74, 127
7, 17970, Note_on_c, 5, 62, 127
7, 17985, Note_on_c, 5, 62, 0
7, 17985, Note_on_c, 5, 74, 0
7, 18000, Note_on_c, 5, 74, 127
7, 18000, Note_on_c, 5, 62, 127
7, 18015, Note_on_c, 5, 62, 0
7, 18015, Note_on_c, 5, 74, 0
7, 18030, Note_on_c, 5, 74, 127
7, 18030, Note_on_c, 5, 62, 127
7, 18045, Note_on_c, 5, 62, 0
7, 18045, Note_on_c, 5, 74, 0
7, 18060, Note_on_c, 5, 74, 127
7, 18060, Note_on_c, 5, 62, 127
7, 18075, Note_on_c, 5, 62, 0
7, 18075, Note_on_c, 5, 74, 0
7, 18090, Note_on_c, 5, 74, 127
7, 18090, Note_on_c, 5, 62, 127
7, 18105, Note_on_c, 5, 62, 0
7, 18105, Note_on_c, 5, 74, 0
7, 18120, Note_on_c, 5, 74, 127
7, 18120, Note_on_c, 5, 62, 127
7, 18165, Note_on_c, 5, 62, 0
7, 18165, Note_on_c, 5, 74, 0
7, 18180, Note_on_c, 5, 69, 127
7, 18180, Note_on_c, 5, 57, 127
7, 18225, Note_on_c, 5, 57, 0
7, 18225, Note_on_c, 5, 69, 0
7, 18240, Note_on_c, 5, 71, 127
7, 18240, Note_on_c, 5, 59, 127
7, 18255, Note_on_c, 5, 59, 0
7, 18255, Note_on_c, 5, 71, 0
7, 18270, Note_on_c, 5, 71, 127
7, 18270, Note_on_c, 5, 59, 127
7, 18285, Note_on_c, 5, 59, 0
7, 18285, Note_on_c, 5, 71, 0
7, 18300, Note_on_c, 5, 71, 127
7, 18300, Note_on_c, 5, 59, 127
7, 18315, Note_on_c, 5, 59, 0
7, 18315, Note_on_c, 5, 71, 0
7, 18330, Note_on_c, 5, 71, 127
7, 18330, Note_on_c, 5, 59, 127
7, 18345, Note_on_c, 5, 59, 0
7, 18345, Note_on_c, 5, 71, 0
7, 18360, Note_on_c, 5, 71, 127
7, 18360, Note_on_c, 5, 59, 127
7, 18405, Note_on_c, 5, 59, 0
7, 18405, Note_on_c, 5, 71, 0
7, 18420, Note_on_c, 5, 71, 127
7, 18420, Note_on_c, 5, 59, 127
7, 18435, Note_on_c, 5, 59, 0
7, 18435, Note_on_c, 5, 71, 0
7, 18450, Note_on_c, 5, 71, 127
7, 18450, Note_on_c, 5, 59, 127
7, 18465, Note_on_c, 5, 59, 0
7, 18465, Note_on_c, 5, 71, 0
7, 18480, Note_on_c, 5, 71, 127
7, 18480, Note_on_c, 5, 59, 127
7, 18495, Note_on_c, 5, 59, 0
7, 18495, Note_on_c, 5, 71, 0
7, 18510, Note_on_c, 5, 71, 127
7, 18510, Note_on_c, 5, 59, 127
7, 18525, Note_on_c, 5, 59, 0
7, 18525, Note_on_c, 5, 71, 0
7, 18540, Note_on_c, 5, 71, 127
7, 18540, Note_on_c, 5, 59, 127
7, 18555, Note_on_c, 5, 59, 0
7, 18555, Note_on_c, 5, 71, 0
7, 18570, Note_on_c, 5, 71, 127
7, 18570, Note_on_c, 5, 59, 127
7, 18585, Note_on_c, 5, 59, 0
7, 18585, Note_on_c, 5, 71, 0
7, 18600, Note_on_c, 5, 71, 127
7, 18600, Note_on_c, 5, 59, 127
7, 18645, Note_on_c, 5, 59, 0
7, 18645, Note_on_c, 5, 71, 0
7, 18660, Note_on_c, 5, 74, 127
7, 18660, Note_on_c, 5, 62, 127
7, 18705, Note_on_c, 5, 62, 0
7, 18705, Note_on_c, 5, 74, 0
7, 18720, Note_on_c, 5, 71, 127
7, 18720, Note_on_c, 5, 59, 127
7, 18735, Note_on_c, 5, 59, 0
7, 18735, Note_on_c, 5, 71, 0
7, 18750, Note_on_c, 5, 71, 127
7, 18750, Note_on_c, 5, 59, 127
7, 18765, Note_on_c, 5, 59, 0
7, 18765, Note_on_c, 5, 71, 0
7, 18780, Note_on_c, 5, 71, 127
7, 18780, Note_on_c, 5, 59, 127
7, 18795, Note_on_c, 5, 59, 0
7, 18795, Note_on_c, 5, 71, 0
7, 18810, Note_on_c, 5, 71, 127
7, 18810, Note_on_c, 5, 59, 127
7, 18825, Note_on_c, 5, 59, 0
7, 18825, Note_on_c, 5, 71, 0
7, 18840, Note_on_c, 5, 71, 127
7, 18840, Note_on_c, 5, 59, 127
7, 18885, Note_on_c, 5, 59, 0
7, 18885, Note_on_c, 5, 71, 0
7, 18900, Note_on_c, 5, 71, 127
7, 18900, Note_on_c, 5, 59, 127
7, 18915, Note_on_c, 5, 59, 0
7, 18915, Note_on_c, 5, 71, 0
7, 18930, Note_on_c, 5, 71, 127
7, 18930, Note_on_c, 5, 59, 127
7, 18945, Note_on_c, 5, 59, 0
7, 18945, Note_on_c, 5, 71, 0
7, 18960, Note_on_c, 5, 71, 127
7, 18960, Note_on_c, 5, 59, 127
7, 18975, Note_on_c, 5, 59, 0
7, 18975, Note_on_c, 5, 71, 0
7, 18990, Note_on_c, 5, 71, 127
7, 18990, Note_on_c, 5, 59, 127
7, 19005, Note_on_c, 5, 59, 0
7, 19005, Note_on_c, 5, 71, 0
7, 19020, Note_on_c, 5, 71, 127
7, 19020, Note_on_c, 5, 59, 127
7, 19035, Note_on_c, 5, 59, 0
7, 19035, Note_on_c, 5, 71, 0
7, 19050, Note_on_c, 5, 71, 127
7, 19050, Note_on_c, 5, 59, 127
7, 19065, Note_on_c, 5, 59, 0
7, 19065, Note_on_c, 5, 71, 0
7, 19080, Note_on_c, 5, 74, 127
7, 19080, Note_on_c, 5, 62, 127
7, 19125, Note_on_c, 5, 62, 0
7, 19125, Note_on_c, 5, 74, 0
7, 19140, Note_on_c, 5, 74, 127
7, 19140, Note_on_c, 5, 62, 127
7, 19185, Note_on_c, 5, 62, 0
7, 19185, Note_on_c, 5, 74, 0
7, 19200, Note_on_c, 5, 71, 127
7, 19200, Note_on_c, 5, 59, 127
7, 19215, Note_on_c, 5, 59, 0
7, 19215, Note_on_c, 5, 71, 0
7, 19230, Note_on_c, 5, 71, 127
7, 19230, Note_on_c, 5, 59, 127
7, 19245, Note_on_c, 5, 59, 0
7, 19245, Note_on_c, 5, 71, 0
7, 19260, Note_on_c, 5, 71, 127
7, 19260, Note_on_c, 5, 59, 127
7, 19275, Note_on_c, 5, 59, 0
7, 19275, Note_on_c, 5, 71, 0
7, 19290, Note_on_c, 5, 71, 127
7, 19290, Note_on_c, 5, 59, 127
7, 19305, Note_on_c, 5, 59, 0
7, 19305, Note_on_c, 5, 71, 0
7, 19320, Note_on_c, 5, 71, 127
7, 19320, Note_on_c, 5, 59, 127
7, 19365, Note_on_c, 5, 59, 0
7, 19365, Note_on_c, 5, 71, 0
7, 19380, Note_on_c, 5, 71, 127
7, 19380, Note_on_c, 5, 59, 127
7, 19395, Note_on_c, 5, 59, 0
7, 19395, Note_on_c, 5, 71, 0
7, 19410, Note_on_c, 5, 71, 127
7, 19410, Note_on_c, 5, 59, 127
7, 19425, Note_on_c, 5, 59, 0
7, 19425, Note_on_c, 5, 71, 0
7, 19440, Note_on_c, 5, 71, 127
7, 19440, Note_on_c, 5, 59, 127
7, 19455, Note_on_c, 5, 59, 0
7, 19455, Note_on_c, 5, 71, 0
7, 19470, Note_on_c, 5, 71, 127
7, 19470, Note_on_c, 5, 59, 127
7, 19485, Note_on_c, 5, 59, 0
7, 19485, Note_on_c, 5, 71, 0
7, 19500, Note_on_c, 5, 71, 127
7, 19500, Note_on_c, 5, 59, 127
7, 19515, Note_on_c, 5, 59, 0
7, 19515, Note_on_c, 5, 71, 0
7, 19530, Note_on_c, 5, 71, 127
7, 19530, Note_on_c, 5, 59, 127
7, 19545, Note_on_c, 5, 59, 0
7, 19545, Note_on_c, 5, 71, 0
7, 19560, Note_on_c, 5, 71, 127
7, 19560, Note_on_c, 5, 59, 127
7, 19605, Note_on_c, 5, 59, 0
7, 19605, Note_on_c, 5, 71, 0
7, 19620, Note_on_c, 5, 76, 127
7, 19620, Note_on_c, 5, 64, 127
7, 19635, Note_on_c, 5, 64, 0
7, 19635, Note_on_c, 5, 76, 0
7, 19650, Note_on_c, 5, 76, 127
7, 19650, Note_on_c, 5, 64, 127
7, 19665, Note_on_c, 5, 64, 0
7, 19665, Note_on_c, 5, 76, 0
7, 19680, Note_on_c, 5, 76, 127
7, 19680, Note_on_c, 5, 64, 127
7, 19695, Note_on_c, 5, 64, 0
7, 19695, Note_on_c, 5, 76, 0
7, 19710, Note_on_c, 5, 76, 127
7, 19710, Note_on_c, 5, 64, 127
7, 19725, Note_on_c, 5, 64, 0
7, 19725, Note_on_c, 5, 76, 0
7, 19740, Note_on_c, 5, 76, 127
7, 19740, Note_on_c, 5, 64, 127
7, 19755, Note_on_c, 5, 64, 0
7, 19755, Note_on_c, 5, 76, 0
7, 19770, Note_on_c, 5, 76, 127
7, 19770, Note_on_c, 5, 64, 127
7, 19785, Note_on_c, 5, 64, 0
7, 19785, Note_on_c, 5, 76, 0
7, 19800, Note_on_c, 5, 76, 127
7, 19800, Note_on_c, 5, 64, 127
7, 19845, Note_on_c, 5, 64, 0
7, 19845, Note_on_c, 5, 76, 0
7, 19860, Note_on_c, 5, 74, 127
7, 19860, Note_on_c, 5, 62, 127
7, 19875, Note_on_c, 5, 62, 0
7, 19875, Note_on_c, 5, 74, 0
7, 19890, Note_on_c, 5, 74, 127
7, 19890, Note_on_c, 5, 62, 127
7, 19905, Note_on_c, 5, 62, 0
7, 19905, Note_on_c, 5, 74, 0
7, 19920, Note_on_c, 5, 74, 127
7, 19920, Note_on_c, 5, 62, 127
7, 19935, Note_on_c, 5, 62, 0
7, 19935, Note_on_c, 5, 74, 0
7, 19950, Note_on_c, 5, 74, 127
7, 19950, Note_on_c, 5, 62, 127
7, 19965, Note_on_c, 5, 62, 0
7, 19965, Note_on_c, 5, 74, 0
7, 19980, Note_on_c, 5, 74, 127
7, 19980, Note_on_c, 5, 62, 127
7, 19995, Note_on_c, 5, 62, 0
7, 19995, Note_on_c, 5, 74, 0
7, 20010, Note_on_c, 5, 74, 127
7, 20010, Note_on_c, 5, 62, 127
7, 20025, Note_on_c, 5, 62, 0
7, 20025, Note_on_c, 5, 74, 0
7, 20040, Note_on_c, 5, 74, 127
7, 20040, Note_on_c, 5, 62, 127
7, 20085, Note_on_c, 5, 62, 0
7, 20085, Note_on_c, 5, 74, 0
7, 20100, Note_on_c, 5, 69, 127
7, 20100, Note_on_c, 5, 57, 127
7, 20145, Note_on_c, 5, 57, 0
7, 20145, Note_on_c, 5, 69, 0
7, 20160, Note_on_c, 5, 71, 127
7, 20160, Note_on_c, 5, 59, 127
7, 20175, Note_on_c, 5, 59, 0
7, 20175, Note_on_c, 5, 71, 0
7, 20190, Note_on_c, 5, 71, 127
7, 20190, Note_on_c, 5, 59, 127
7, 20205, Note_on_c, 5, 59, 0
7, 20205, Note_on_c, 5, 71, 0
7, 20220, Note_on_c, 5, 71, 127
7, 20220, Note_on_c, 5, 59, 127
7, 20235, Note_on_c, 5, 59, 0
7, 20235, Note_on_c, 5, 71, 0
7, 20250, Note_on_c, 5, 71, 127
7, 20250, Note_on_c, 5, 59, 127
7, 20265, Note_on_c, 5, 59, 0
7, 20265, Note_on_c, 5, 71, 0
7, 20280, Note_on_c, 5, 71, 127
7, 20280, Note_on_c, 5, 59, 127
7, 20325, Note_on_c, 5, 59, 0
7, 20325, Note_on_c, 5, 71, 0
7, 20340, Note_on_c, 5, 71, 127
7, 20340, Note_on_c, 5, 59, 127
7, 20355, Note_on_c, 5, 59, 0
7, 20355, Note_on_c, 5, 71, 0
7, 20370, Note_on_c, 5, 71, 127
7, 20370, Note_on_c, 5, 59, 127
7, 20385, Note_on_c, 5, 59, 0
7, 20385, Note_on_c, 5, 71, 0
7, 20400, Note_on_c, 5, 71, 127
7, 20400, Note_on_c, 5, 59, 127
7, 20415, Note_on_c, 5, 59, 0
7, 20415, Note_on_c, 5, 71, 0
7, 20430, Note_on_c, 5, 71, 127
7, 20430, Note_on_c, 5, 59, 127
7, 20445, Note_on_c, 5, 59, 0
7, 20445, Note_on_c, 5, 71, 0
7, 20460, Note_on_c, 5, 71, 127
7, 20460, Note_on_c, 5, 59, 127
7, 20475, Note_on_c, 5, 59, 0
7, 20475, Note_on_c, 5, 71, 0
7, 20490, Note_on_c, 5, 71, 127
7, 20490, Note_on_c, 5, 59, 127
7, 20505, Note_on_c, 5, 59, 0
7, 20505, Note_on_c, 5, 71, 0
7, 20520, Note_on_c, 5, 74, 127
7, 20520, Note_on_c, 5, 62, 127
7, 20565, Note_on_c, 5, 62, 0
7, 20565, Note_on_c, 5, 74, 0
7, 20580, Note_on_c, 5, 74, 127
7, 20580, Note_on_c, 5, 62, 127
7, 20625, Note_on_c, 5, 62, 0
7, 20625, Note_on_c, 5, 74, 0
7, 20640, Note_on_c, 5, 71, 127
7, 20640, Note_on_c, 5, 59, 127
7, 20655, Note_on_c, 5, 59, 0
7, 20655, Note_on_c, 5, 71, 0
7, 20670, Note_on_c, 5, 71, 127
7, 20670, Note_on_c, 5, 59, 127
7, 20685, Note_on_c, 5, 59, 0
7, 20685, Note_on_c, 5, 71, 0
7, 20700, Note_on_c, 5, 71, 127
7, 20700, Note_on_c, 5, 59, 127
7, 20715, Note_on_c, 5, 59, 0
7, 20715, Note_on_c, 5, 71, 0
7, 20730, Note_on_c, 5, 71, 127
7, 20730, Note_on_c, 5, 59, 127
7, 20745, Note_on_c, 5, 59, 0
7, 20745, Note_on_c, 5, 71, 0
7, 20760, Note_on_c, 5, 71, 127
7, 20760, Note_on_c, 5, 59, 127
7, 20805, Note_on_c, 5, 59, 0
7, 20805, Note_on_c, 5, 71, 0
7, 20820, Note_on_c, 5, 71, 127
7, 20820, Note_on_c, 5, 59, 127
7, 20835, Note_on_c, 5, 59, 0
7, 20835, Note_on_c, 5, 71, 0
7, 20850, Note_on_c, 5, 71, 127
7, 20850, Note_on_c, 5, 59, 127
7, 20865, Note_on_c, 5, 59, 0
7, 20865, Note_on_c, 5, 71, 0
7, 20880, Note_on_c, 5, 71, 127
7, 20880, Note_on_c, 5, 59, 127
7, 20895, Note_on_c, 5, 59, 0
7, 20895, Note_on_c, 5, 71, 0
7, 20910, Note_on_c, 5, 71, 127
7, 20910, Note_on_c, 5, 59, 127
7, 20925, Note_on_c, 5, 59, 0
7, 20925, Note_on_c, 5, 71, 0
7, 20940, Note_on_c, 5, 71, 127
7, 20940, Note_on_c, 5, 59, 127
7, 20955, Note_on_c, 5, 59, 0
7, 20955, Note_on_c, 5, 71, 0
7, 20970, Note_on_c, 5, 71, 127
7, 20970, Note_on_c, 5, 59, 127
7, 20985, Note_on_c, 5, 59, 0
7, 20985, Note_on_c, 5, 71, 0
7, 21000, Note_on_c, 5, 74, 127
7, 21000, Note_on_c, 5, 62, 127
7, 21045, Note_on_c, 5, 62, 0
7, 21045, Note_on_c, 5, 74, 0
7, 21060, Note_on_c, 5, 74, 127
7, 21060, Note_on_c, 5, 62, 127
7, 21105, Note_on_c, 5, 62, 0
7, 21105, Note_on_c, 5, 74, 0
7, 21120, Note_on_c, 5, 71, 127
7, 21120, Note_on_c, 5, 59, 127
7, 21135, Note_on_c, 5, 59, 0
7, 21135, Note_on_c, 5, 71, 0
7, 21150, Note_on_c, 5, 71, 127
7, 21150, Note_on_c, 5, 59, 127
7, 21165, Note_on_c, 5, 59, 0
7, 21165, Note_on_c, 5, 71, 0
7, 21180, Note_on_c, 5, 71, 127
7, 21180, Note_on_c, 5, 59, 127
7, 21195, Note_on_c, 5, 59, 0
7, 21195, Note_on_c, 5, 71, 0
7, 21210, Note_on_c, 5, 71, 127
7, 21210, Note_on_c, 5, 59, 127
7, 21225, Note_on_c, 5, 59, 0
7, 21225, Note_on_c, 5, 71, 0
7, 21240, Note_on_c, 5, 74, 127
7, 21240, Note_on_c, 5, 62, 127
7, 21285, Note_on_c, 5, 62, 0
7, 21285, Note_on_c, 5, 74, 0
7, 21300, Note_on_c, 5, 74, 127
7, 21300, Note_on_c, 5, 62, 127
7, 21345, Note_on_c, 5, 62, 0
7, 21345, Note_on_c, 5, 74, 0
7, 21360, Note_on_c, 5, 71, 127
7, 21360, Note_on_c, 5, 59, 127
7, 21375, Note_on_c, 5, 59, 0
7, 21375, Note_on_c, 5, 71, 0
7, 21390, Note_on_c, 5, 71, 127
7, 21390, Note_on_c, 5, 59, 127
7, 21405, Note_on_c, 5, 59, 0
7, 21405, Note_on_c, 5, 71, 0
7, 21420, Note_on_c, 5, 71, 127
7, 21420, Note_on_c, 5, 59, 127
7, 21435, Note_on_c, 5, 59, 0
7, 21435, Note_on_c, 5, 71, 0
7, 21450, Note_on_c, 5, 71, 127
7, 21450, Note_on_c, 5, 59, 127
7, 21465, Note_on_c, 5, 59, 0
7, 21465, Note_on_c, 5, 71, 0
7, 21480, Note_on_c, 5, 74, 127
7, 21480, Note_on_c, 5, 62, 127
7, 21525, Note_on_c, 5, 62, 0
7, 21525, Note_on_c, 5, 74, 0
7, 21540, Note_on_c, 5, 74, 127
7, 21540, Note_on_c, 5, 62, 127
7, 21585, Note_on_c, 5, 62, 0
7, 21585, Note_on_c, 5, 74, 0
7, 21600, Note_on_c, 5, 71, 127
7, 21600, Note_on_c, 5, 59, 127
7, 21615, Note_on_c, 5, 59, 0
7, 21615, Note_on_c, 5, 71, 0
7, 21630, Note_on_c, 5, 71, 127
7, 21630, Note_on_c, 5, 59, 127
7, 21645, Note_on_c, 5, 59, 0
7, 21645, Note_on_c, 5, 71, 0
7, 21660, Note_on_c, 5, 74, 127
7, 21660, Note_on_c, 5, 62, 127
7, 21705, Note_on_c, 5, 62, 0
7, 21705, Note_on_c, 5, 74, 0
7, 21720, Note_on_c, 5, 71, 127
7, 21720, Note_on_c, 5, 59, 127
7, 21735, Note_on_c, 5, 59, 0
7, 21735, Note_on_c, 5, 71, 0
7, 21750, Note_on_c, 5, 71, 127
7, 21750, Note_on_c, 5, 59, 127
7, 21765, Note_on_c, 5, 59, 0
7, 21765, Note_on_c, 5, 71, 0
7, 21780, Note_on_c, 5, 74, 127
7, 21780, Note_on_c, 5, 62, 127
7, 21825, Note_on_c, 5, 62, 0
7, 21825, Note_on_c, 5, 74, 0
7, 21840, Note_on_c, 5, 71, 127
7, 21840, Note_on_c, 5, 59, 127
7, 21855, Note_on_c, 5, 59, 0
7, 21855, Note_on_c, 5, 71, 0
7, 21870, Note_on_c, 5, 71, 127
7, 21870, Note_on_c, 5, 59, 127
7, 21885, Note_on_c, 5, 59, 0
7, 21885, Note_on_c, 5, 71, 0
7, 21900, Note_on_c, 5, 74, 127
7, 21900, Note_on_c, 5, 62, 127
7, 21945, Note_on_c, 5, 62, 0
7, 21945, Note_on_c, 5, 74, 0
7, 21960, Note_on_c, 5, 71, 127
7, 21960, Note_on_c, 5, 59, 127
7, 21975, Note_on_c, 5, 59, 0
7, 21975, Note_on_c, 5, 71, 0
7, 21990, Note_on_c, 5, 71, 127
7, 21990, Note_on_c, 5, 59, 127
7, 22005, Note_on_c, 5, 59, 0
7, 22005, Note_on_c, 5, 71, 0
7, 22020, Note_on_c, 5, 74, 127
7, 22020, Note_on_c, 5, 62, 127
7, 22065, Note_on_c, 5, 62, 0
7, 22065, Note_on_c, 5, 74, 0
7, 29760, Note_on_c, 5, 59, 100
7, 29760, Note_on_c, 5, 71, 100
7, 29775, Note_on_c, 5, 71, 0
7, 29775, Note_on_c, 5, 59, 0
7, 29790, Note_on_c, 5, 59, 100
7, 29790, Note_on_c, 5, 71, 100
7, 29805, Note_on_c, 5, 71, 0
7, 29805, Note_on_c, 5, 59, 0
7, 29820, Note_on_c, 5, 59, 100
7, 29820, Note_on_c, 5, 71, 100
7, 29835, Note_on_c, 5, 71, 0
7, 29835, Note_on_c, 5, 59, 0
7, 29850, Note_on_c, 5, 59, 100
7, 29850, Note_on_c, 5, 71, 100
7, 29865, Note_on_c, 5, 71, 0
7, 29865, Note_on_c, 5, 59, 0
7, 29880, Note_on_c, 5, 71, 100
7, 29880, Note_on_c, 5, 59, 100
7, 29940, Note_on_c, 5, 59, 0
7, 29940, Note_on_c, 5, 71, 0
7, 30600, Note_on_c, 5, 62, 100
7, 30600, Note_on_c, 5, 74, 100
7, 30660, Note_on_c, 5, 74, 0
7, 30660, Note_on_c, 5, 62, 0
7, 30720, Note_on_c, 5, 71, 100
7, 30720, Note_on_c, 5, 59, 100
7, 30735, Note_on_c, 5, 59, 0
7, 30735, Note_on_c, 5, 71, 0
7, 30750, Note_on_c, 5, 59, 100
7, 30750, Note_on_c, 5, 71, 100
7, 30765, Note_on_c, 5, 71, 0
7, 30765, Note_on_c, 5, 59, 0
7, 30780, Note_on_c, 5, 59, 100
7, 30780, Note_on_c, 5, 71, 100
7, 30795, Note_on_c, 5, 71, 0
7, 30795, Note_on_c, 5, 59, 0
7, 30810, Note_on_c, 5, 59, 100
7, 30810, Note_on_c, 5, 71, 100
7, 30825, Note_on_c, 5, 71, 0
7, 30825, Note_on_c, 5, 59, 0
7, 30840, Note_on_c, 5, 59, 100
7, 30840, Note_on_c, 5, 71, 100
7, 30900, Note_on_c, 5, 71, 0
7, 30900, Note_on_c, 5, 59, 0
7, 31680, Note_on_c, 5, 71, 100
7, 31680, Note_on_c, 5, 59, 100
7, 31695, Note_on_c, 5, 59, 0
7, 31695, Note_on_c, 5, 71, 0
7, 31710, Note_on_c, 5, 59, 100
7, 31710, Note_on_c, 5, 71, 100
7, 31725, Note_on_c, 5, 71, 0
7, 31725, Note_on_c, 5, 59, 0
7, 31740, Note_on_c, 5, 71, 100
7, 31740, Note_on_c, 5, 59, 100
7, 31755, Note_on_c, 5, 59, 0
7, 31755, Note_on_c, 5, 71, 0
7, 31770, Note_on_c, 5, 59, 100
7, 31770, Note_on_c, 5, 71, 100
7, 31785, Note_on_c, 5, 71, 0
7, 31785, Note_on_c, 5, 59, 0
7, 31800, Note_on_c, 5, 59, 100
7, 31800, Note_on_c, 5, 71, 100
7, 31860, Note_on_c, 5, 71, 0
7, 31860, Note_on_c, 5, 59, 0
7, 32520, Note_on_c, 5, 62, 100
7, 32520, Note_on_c, 5, 74, 100
7, 32565, Note_on_c, 5, 74, 0
7, 32565, Note_on_c, 5, 62, 0
7, 32640, Note_on_c, 5, 64, 100
7, 32640, Note_on_c, 5, 76, 100
7, 32655, Note_on_c, 5, 76, 0
7, 32655, Note_on_c, 5, 64, 0
7, 32670, Note_on_c, 5, 76, 100
7, 32670, Note_on_c, 5, 64, 100
7, 32685, Note_on_c, 5, 64, 0
7, 32685, Note_on_c, 5, 76, 0
7, 32700, Note_on_c, 5, 64, 100
7, 32700, Note_on_c, 5, 76, 100
7, 32715, Note_on_c, 5, 76, 0
7, 32715, Note_on_c, 5, 64, 0
7, 32730, Note_on_c, 5, 76, 100
7, 32730, Note_on_c, 5, 64, 100
7, 32745, Note_on_c, 5, 64, 0
7, 32745, Note_on_c, 5, 76, 0
7, 32760, Note_on_c, 5, 64, 100
7, 32760, Note_on_c, 5, 76, 100
7, 32805, Note_on_c, 5, 76, 0
7, 32805, Note_on_c, 5, 64, 0
7, 32820, Note_on_c, 5, 62, 100
7, 32820, Note_on_c, 5, 74, 100
7, 32850, Note_on_c, 5, 74, 0
7, 32850, Note_on_c, 5, 62, 0
7, 33600, Note_on_c, 5, 71, 100
7, 33600, Note_on_c, 5, 59, 100
7, 33615, Note_on_c, 5, 59, 0
7, 33615, Note_on_c, 5, 71, 0
7, 33630, Note_on_c, 5, 59, 100
7, 33630, Note_on_c, 5, 71, 100
7, 33645, Note_on_c, 5, 71, 0
7, 33645, Note_on_c, 5, 59, 0
7, 33660, Note_on_c, 5, 71, 100
7, 33660, Note_on_c, 5, 59, 100
7, 33675, Note_on_c, 5, 59, 0
7, 33675, Note_on_c, 5, 71, 0
7, 33690, Note_on_c, 5, 59, 100
7, 33690, Note_on_c, 5, 71, 100
7, 33705, Note_on_c, 5, 71, 0
7, 33705, Note_on_c, 5, 59, 0
7, 33720, Note_on_c, 5, 59, 100
7, 33720, Note_on_c, 5, 71, 100
7, 33780, Note_on_c, 5, 71, 0
7, 33780, Note_on_c, 5, 59, 0
7, 34080, Note_on_c, 5, 59, 100
7, 34080, Note_on_c, 5, 71, 100
7, 34095, Note_on_c, 5, 71, 0
7, 34095, Note_on_c, 5, 59, 0
7, 34110, Note_on_c, 5, 59, 100
7, 34110, Note_on_c, 5, 71, 100
7, 34125, Note_on_c, 5, 71, 0
7, 34125, Note_on_c, 5, 59, 0
7, 34140, Note_on_c, 5, 71, 100
7, 34140, Note_on_c, 5, 59, 100
7, 34155, Note_on_c, 5, 59, 0
7, 34155, Note_on_c, 5, 71, 0
7, 34170, Note_on_c, 5, 59, 100
7, 34170, Note_on_c, 5, 71, 100
7, 34185, Note_on_c, 5, 71, 0
7, 34185, Note_on_c, 5, 59, 0
7, 34200, Note_on_c, 5, 71, 100
7, 34200, Note_on_c, 5, 59, 100
7, 34260, Note_on_c, 5, 59, 0
7, 34260, Note_on_c, 5, 71, 0
7, 34560, Note_on_c, 5, 59, 100
7, 34560, Note_on_c, 5, 71, 100
7, 34575, Note_on_c, 5, 71, 0
7, 34575, Note_on_c, 5, 59, 0
7, 34590, Note_on_c, 5, 59, 100
7, 34590, Note_on_c, 5, 71, 100
7, 34605, Note_on_c, 5, 71, 0
7, 34605, Note_on_c, 5, 59, 0
7, 34620, Note_on_c, 5, 71, 100
7, 34620, Note_on_c, 5, 59, 100
7, 34635, Note_on_c, 5, 59, 0
7, 34635, Note_on_c, 5, 71, 0
7, 34650, Note_on_c, 5, 71, 100
7, 34650, Note_on_c, 5, 59, 100
7, 34665, Note_on_c, 5, 59, 0
7, 34665, Note_on_c, 5, 71, 0
7, 34680, Note_on_c, 5, 59, 100
7, 34680, Note_on_c, 5, 71, 100
7, 34740, Note_on_c, 5, 71, 0
7, 34740, Note_on_c, 5, 59, 0
7, 35040, Note_on_c, 5, 71, 100
7, 35040, Note_on_c, 5, 59, 100
7, 35055, Note_on_c, 5, 59, 0
7, 35055, Note_on_c, 5, 71, 0
7, 35070, Note_on_c, 5, 71, 100
7, 35070, Note_on_c, 5, 59, 100
7, 35085, Note_on_c, 5, 59, 0
7, 35085, Note_on_c, 5, 71, 0
7, 35100, Note_on_c, 5, 59, 100
7, 35100, Note_on_c, 5, 71, 100
7, 35115, Note_on_c, 5, 71, 0
7, 35115, Note_on_c, 5, 59, 0
7, 35130, Note_on_c, 5, 59, 100
7, 35130, Note_on_c, 5, 71, 100
7, 35145, Note_on_c, 5, 71, 0
7, 35145, Note_on_c, 5, 59, 0
7, 35160, Note_on_c, 5, 59, 100
7, 35160, Note_on_c, 5, 71, 100
7, 35220, Note_on_c, 5, 71, 0
7, 35220, Note_on_c, 5, 59, 0
7, 35460, Note_on_c, 5, 74, 100
7, 35460, Note_on_c, 5, 62, 100
7, 35505, Note_on_c, 5, 62, 0
7, 35505, Note_on_c, 5, 74, 0
7, 35520, Note_on_c, 5, 71, 100
7, 35520, Note_on_c, 5, 59, 100
7, 35535, Note_on_c, 5, 59, 0
7, 35535, Note_on_c, 5, 71, 0
7, 35550, Note_on_c, 5, 59, 100
7, 35550, Note_on_c, 5, 71, 100
7, 35565, Note_on_c, 5, 71, 0
7, 35565, Note_on_c, 5, 59, 0
7, 35580, Note_on_c, 5, 71, 100
7, 35580, Note_on_c, 5, 59, 100
7, 35595, Note_on_c, 5, 59, 0
7, 35595, Note_on_c, 5, 71, 0
7, 35610, Note_on_c, 5, 71, 100
7, 35610, Note_on_c, 5, 59, 100
7, 35625, Note_on_c, 5, 59, 0
7, 35625, Note_on_c, 5, 71, 0
7, 35640, Note_on_c, 5, 59, 100
7, 35640, Note_on_c, 5, 71, 100
7, 35700, Note_on_c, 5, 71, 0
7, 35700, Note_on_c, 5, 59, 0
7, 35760, Note_on_c, 5, 71, 100
7, 35760, Note_on_c, 5, 59, 100
7, 35775, Note_on_c, 5, 59, 0
7, 35775, Note_on_c, 5, 71, 0
7, 35790, Note_on_c, 5, 71, 100
7, 35790, Note_on_c, 5, 59, 100
7, 35805, Note_on_c, 5, 59, 0
7, 35805, Note_on_c, 5, 71, 0
7, 35820, Note_on_c, 5, 59, 100
7, 35820, Note_on_c, 5, 71, 100
7, 35835, Note_on_c, 5, 71, 0
7, 35835, Note_on_c, 5, 59, 0
7, 35850, Note_on_c, 5, 71, 100
7, 35850, Note_on_c, 5, 59, 100
7, 35865, Note_on_c, 5, 59, 0
7, 35865, Note_on_c, 5, 71, 0
7, 35880, Note_on_c, 5, 71, 100
7, 35880, Note_on_c, 5, 59, 100
7, 35940, Note_on_c, 5, 59, 0
7, 35940, Note_on_c, 5, 71, 0
7, 36000, Note_on_c, 5, 59, 100
7, 36000, Note_on_c, 5, 71, 100
7, 36015, Note_on_c, 5, 71, 0
7, 36015, Note_on_c, 5, 59, 0
7, 36030, Note_on_c, 5, 71, 100
7, 36030, Note_on_c, 5, 59, 100
7, 36045, Note_on_c, 5, 59, 0
7, 36045, Note_on_c, 5, 71, 0
7, 36060, Note_on_c, 5, 59, 100
7, 36060, Note_on_c, 5, 71, 100
7, 36075, Note_on_c, 5, 71, 0
7, 36075, Note_on_c, 5, 59, 0
7, 36090, Note_on_c, 5, 59, 100
7, 36090, Note_on_c, 5, 71, 100
7, 36105, Note_on_c, 5, 71, 0
7, 36105, Note_on_c, 5, 59, 0
7, 36120, Note_on_c, 5, 59, 100
7, 36120, Note_on_c, 5, 71, 100
7, 36180, Note_on_c, 5, 71, 0
7, 36180, Note_on_c, 5, 59, 0
7, 36240, Note_on_c, 5, 71, 100
7, 36240, Note_on_c, 5, 59, 100
7, 36255, Note_on_c, 5, 59, 0
7, 36255, Note_on_c, 5, 71, 0
7, 36270, Note_on_c, 5, 71, 100
7, 36270, Note_on_c, 5, 59, 100
7, 36285, Note_on_c, 5, 59, 0
7, 36285, Note_on_c, 5, 71, 0
7, 36300, Note_on_c, 5, 71, 100
7, 36300, Note_on_c, 5, 59, 100
7, 36315, Note_on_c, 5, 59, 0
7, 36315, Note_on_c, 5, 71, 0
7, 36330, Note_on_c, 5, 71, 100
7, 36330, Note_on_c, 5, 59, 100
7, 36345, Note_on_c, 5, 59, 0
7, 36345, Note_on_c, 5, 71, 0
7, 36360, Note_on_c, 5, 71, 100
7, 36360, Note_on_c, 5, 59, 100
7, 36420, Note_on_c, 5, 59, 0
7, 36420, Note_on_c, 5, 71, 0
7, 36480, Note_on_c, 5, 71, 100
7, 36480, Note_on_c, 5, 59, 100
7, 36495, Note_on_c, 5, 59, 0
7, 36495, Note_on_c, 5, 71, 0
7, 36510, Note_on_c, 5, 71, 100
7, 36510, Note_on_c, 5, 59, 100
7, 36525, Note_on_c, 5, 59, 0
7, 36525, Note_on_c, 5, 71, 0
7, 36540, Note_on_c, 5, 71, 100
7, 36540, Note_on_c, 5, 59, 100
7, 36555, Note_on_c, 5, 59, 0
7, 36555, Note_on_c, 5, 71, 0
7, 36570, Note_on_c, 5, 59, 100
7, 36570, Note_on_c, 5, 71, 100
7, 36585, Note_on_c, 5, 71, 0
7, 36585, Note_on_c, 5, 59, 0
7, 36600, Note_on_c, 5, 71, 100
7, 36600, Note_on_c, 5, 59, 100
7, 36660, Note_on_c, 5, 59, 0
7, 36660, Note_on_c, 5, 71, 0
7, 36720, Note_on_c, 5, 71, 100
7, 36720, Note_on_c, 5, 59, 100
7, 36735, Note_on_c, 5, 59, 0
7, 36735, Note_on_c, 5, 71, 0
7, 36750, Note_on_c, 5, 59, 100
7, 36750, Note_on_c, 5, 71, 100
7, 36765, Note_on_c, 5, 71, 0
7, 36765, Note_on_c, 5, 59, 0
7, 36780, Note_on_c, 5, 59, 100
7, 36780, Note_on_c, 5, 71, 100
7, 36795, Note_on_c, 5, 71, 0
7, 36795, Note_on_c, 5, 59, 0
7, 36810, Note_on_c, 5, 59, 100
7, 36810, Note_on_c, 5, 71, 100
7, 36825, Note_on_c, 5, 71, 0
7, 36825, Note_on_c, 5, 59, 0
7, 36840, Note_on_c, 5, 59, 100
7, 36840, Note_on_c, 5, 71, 100
7, 36900, Note_on_c, 5, 71, 0
7, 36900, Note_on_c, 5, 59, 0
7, 36960, Note_on_c, 5, 71, 100
7, 36960, Note_on_c, 5, 59, 100
7, 36975, Note_on_c, 5, 59, 0
7, 36975, Note_on_c, 5, 71, 0
7, 36990, Note_on_c, 5, 71, 100
7, 36990, Note_on_c, 5, 59, 100
7, 37005, Note_on_c, 5, 59, 0
7, 37005, Note_on_c, 5, 71, 0
7, 37020, Note_on_c, 5, 59, 100
7, 37020, Note_on_c, 5, 71, 100
7, 37035, Note_on_c, 5, 71, 0
7, 37035, Note_on_c, 5, 59, 0
7, 37050, Note_on_c, 5, 59, 100
7, 37050, Note_on_c, 5, 71, 100
7, 37065, Note_on_c, 5, 71, 0
7, 37065, Note_on_c, 5, 59, 0
7, 37080, Note_on_c, 5, 59, 100
7, 37080, Note_on_c, 5, 71, 100
7, 37140, Note_on_c, 5, 71, 0
7, 37140, Note_on_c, 5, 59, 0
7, 37200, Note_on_c, 5, 59, 100
7, 37200, Note_on_c, 5, 71, 100
7, 37215, Note_on_c, 5, 71, 0
7, 37215, Note_on_c, 5, 59, 0
7, 37230, Note_on_c, 5, 71, 100
7, 37230, Note_on_c, 5, 59, 100
7, 37245, Note_on_c, 5, 59, 0
7, 37245, Note_on_c, 5, 71, 0
7, 37260, Note_on_c, 5, 71, 100
7, 37260, Note_on_c, 5, 59, 100
7, 37275, Note_on_c, 5, 59, 0
7, 37275, Note_on_c, 5, 71, 0
7, 37290, Note_on_c, 5, 71, 100
7, 37290, Note_on_c, 5, 59, 100
7, 37305, Note_on_c, 5, 59, 0
7, 37305, Note_on_c, 5, 71, 0
7, 37320, Note_on_c, 5, 71, 100
7, 37320, Note_on_c, 5, 59, 100
7, 37380, Note_on_c, 5, 59, 0
7, 37380, Note_on_c, 5, 71, 0
7, 37440, Note_on_c, 5, 59, 100
7, 37440, Note_on_c, 5, 71, 100
7, 37455, Note_on_c, 5, 71, 0
7, 37455, Note_on_c, 5, 59, 0
7, 37470, Note_on_c, 5, 59, 100
7, 37470, Note_on_c, 5, 71, 100
7, 37485, Note_on_c, 5, 71, 0
7, 37485, Note_on_c, 5, 59, 0
7, 37500, Note_on_c, 5, 71, 100
7, 37500, Note_on_c, 5, 59, 100
7, 37515, Note_on_c, 5, 59, 0
7, 37515, Note_on_c, 5, 71, 0
7, 37530, Note_on_c, 5, 71, 100
7, 37530, Note_on_c, 5, 59, 100
7, 37545, Note_on_c, 5, 59, 0
7, 37545, Note_on_c, 5, 71, 0
7, 37560, Note_on_c, 5, 71, 100
7, 37560, Note_on_c, 5, 59, 100
7, 37575, Note_on_c, 5, 59, 0
7, 37575, Note_on_c, 5, 71, 0
7, 37590, Note_on_c, 5, 59, 100
7, 37590, Note_on_c, 5, 71, 100
7, 37605, Note_on_c, 5, 71, 0
7, 37605, Note_on_c, 5, 59, 0
7, 37620, Note_on_c, 5, 71, 100
7, 37620, Note_on_c, 5, 59, 100
7, 37635, Note_on_c, 5, 59, 0
7, 37635, Note_on_c, 5, 71, 0
7, 37650, Note_on_c, 5, 71, 100
7, 37650, Note_on_c, 5, 59, 100
7, 37665, Note_on_c, 5, 59, 0
7, 37665, Note_on_c, 5, 71, 0
7, 37680, Note_on_c, 5, 71, 100
7, 37680, Note_on_c, 5, 59, 100
7, 37695, Note_on_c, 5, 59, 0
7, 37695, Note_on_c, 5, 71, 0
7, 37710, Note_on_c, 5, 59, 100
7, 37710, Note_on_c, 5, 71, 100
7, 37725, Note_on_c, 5, 71, 0
7, 37725, Note_on_c, 5, 59, 0
7, 37740, Note_on_c, 5, 59, 100
7, 37740, Note_on_c, 5, 71, 100
7, 37755, Note_on_c, 5, 71, 0
7, 37755, Note_on_c, 5, 59, 0
7, 37770, Note_on_c, 5, 59, 100
7, 37770, Note_on_c, 5, 71, 100
7, 37785, Note_on_c, 5, 71, 0
7, 37785, Note_on_c, 5, 59, 0
7, 37800, Note_on_c, 5, 59, 100
7, 37800, Note_on_c, 5, 71, 100
7, 37815, Note_on_c, 5, 71, 0
7, 37815, Note_on_c, 5, 59, 0
7, 37830, Note_on_c, 5, 59, 100
7, 37830, Note_on_c, 5, 71, 100
7, 37845, Note_on_c, 5, 71, 0
7, 37845, Note_on_c, 5, 59, 0
7, 37860, Note_on_c, 5, 71, 100
7, 37860, Note_on_c, 5, 59, 100
7, 37875, Note_on_c, 5, 59, 0
7, 37875, Note_on_c, 5, 71, 0
7, 37890, Note_on_c, 5, 71, 100
7, 37890, Note_on_c, 5, 59, 100
7, 37905, Note_on_c, 5, 59, 0
7, 37905, Note_on_c, 5, 71, 0
7, 37920, Note_on_c, 5, 59, 100
7, 37920, Note_on_c, 5, 71, 100
7, 37935, Note_on_c, 5, 71, 0
7, 37935, Note_on_c, 5, 59, 0
7, 37950, Note_on_c, 5, 59, 100
7, 37950, Note_on_c, 5, 71, 100
7, 37965, Note_on_c, 5, 71, 0
7, 37965, Note_on_c, 5, 59, 0
7, 37980, Note_on_c, 5, 59, 100
7, 37980, Note_on_c, 5, 71, 100
7, 37995, Note_on_c, 5, 71, 0
7, 37995, Note_on_c, 5, 59, 0
7, 38010, Note_on_c, 5, 71, 100
7, 38010, Note_on_c, 5, 59, 100
7, 38025, Note_on_c, 5, 59, 0
7, 38025, Note_on_c, 5, 71, 0
7, 38040, Note_on_c, 5, 59, 100
7, 38040, Note_on_c, 5, 71, 100
7, 38055, Note_on_c, 5, 71, 0
7, 38055, Note_on_c, 5, 59, 0
7, 38070, Note_on_c, 5, 71, 100
7, 38070, Note_on_c, 5, 59, 100
7, 38085, Note_on_c, 5, 59, 0
7, 38085, Note_on_c, 5, 71, 0
7, 38100, Note_on_c, 5, 59, 100
7, 38100, Note_on_c, 5, 71, 100
7, 38115, Note_on_c, 5, 71, 0
7, 38115, Note_on_c, 5, 59, 0
7, 38130, Note_on_c, 5, 71, 100
7, 38130, Note_on_c, 5, 59, 100
7, 38145, Note_on_c, 5, 59, 0
7, 38145, Note_on_c, 5, 71, 0
7, 38160, Note_on_c, 5, 71, 100
7, 38160, Note_on_c, 5, 59, 100
7, 38175, Note_on_c, 5, 59, 0
7, 38175, Note_on_c, 5, 71, 0
7, 38190, Note_on_c, 5, 71, 100
7, 38190, Note_on_c, 5, 59, 100
7, 38205, Note_on_c, 5, 59, 0
7, 38205, Note_on_c, 5, 71, 0
7, 38220, Note_on_c, 5, 71, 100
7, 38220, Note_on_c, 5, 59, 100
7, 38235, Note_on_c, 5, 59, 0
7, 38235, Note_on_c, 5, 71, 0
7, 38250, Note_on_c, 5, 59, 100
7, 38250, Note_on_c, 5, 71, 100
7, 38265, Note_on_c, 5, 71, 0
7, 38265, Note_on_c, 5, 59, 0
7, 38280, Note_on_c, 5, 71, 100
7, 38280, Note_on_c, 5, 59, 100
7, 38295, Note_on_c, 5, 59, 0
7, 38295, Note_on_c, 5, 71, 0
7, 38310, Note_on_c, 5, 71, 100
7, 38310, Note_on_c, 5, 59, 100
7, 38325, Note_on_c, 5, 59, 0
7, 38325, Note_on_c, 5, 71, 0
7, 38340, Note_on_c, 5, 71, 100
7, 38340, Note_on_c, 5, 59, 100
7, 38355, Note_on_c, 5, 59, 0
7, 38355, Note_on_c, 5, 71, 0
7, 38370, Note_on_c, 5, 71, 100
7, 38370, Note_on_c, 5, 59, 100
7, 38385, Note_on_c, 5, 59, 0
7, 38385, Note_on_c, 5, 71, 0
7, 38400, Note_on_c, 5, 71, 100
7, 38400, Note_on_c, 5, 59, 100
7, 38415, Note_on_c, 5, 59, 0
7, 38415, Note_on_c, 5, 71, 0
7, 38430, Note_on_c, 5, 71, 100
7, 38430, Note_on_c, 5, 59, 100
7, 38445, Note_on_c, 5, 59, 0
7, 38445, Note_on_c, 5, 71, 0
7, 38460, Note_on_c, 5, 59, 100
7, 38460, Note_on_c, 5, 71, 100
7, 38475, Note_on_c, 5, 71, 0
7, 38475, Note_on_c, 5, 59, 0
7, 38490, Note_on_c, 5, 59, 100
7, 38490, Note_on_c, 5, 71, 100
7, 38505, Note_on_c, 5, 71, 0
7, 38505, Note_on_c, 5, 59, 0
7, 38520, Note_on_c, 5, 71, 100
7, 38520, Note_on_c, 5, 59, 100
7, 38535, Note_on_c, 5, 59, 0
7, 38535, Note_on_c, 5, 71, 0
7, 38550, Note_on_c, 5, 59, 100
7, 38550, Note_on_c, 5, 71, 100
7, 38565, Note_on_c, 5, 71, 0
7, 38565, Note_on_c, 5, 59, 0
7, 38580, Note_on_c, 5, 71, 100
7, 38580, Note_on_c, 5, 59, 100
7, 38595, Note_on_c, 5, 59, 0
7, 38595, Note_on_c, 5, 71, 0
7, 38610, Note_on_c, 5, 71, 100
7, 38610, Note_on_c, 5, 59, 100
7, 38625, Note_on_c, 5, 59, 0
7, 38625, Note_on_c, 5, 71, 0
7, 38640, Note_on_c, 5, 59, 100
7, 38640, Note_on_c, 5, 71, 100
7, 38655, Note_on_c, 5, 71, 0
7, 38655, Note_on_c, 5, 59, 0
7, 38670, Note_on_c, 5, 59, 100
7, 38670, Note_on_c, 5, 71, 100
7, 38685, Note_on_c, 5, 71, 0
7, 38685, Note_on_c, 5, 59, 0
7, 38700, Note_on_c, 5, 59, 100
7, 38700, Note_on_c, 5, 71, 100
7, 38715, Note_on_c, 5, 71, 0
7, 38715, Note_on_c, 5, 59, 0
7, 38730, Note_on_c, 5, 71, 100
7, 38730, Note_on_c, 5, 59, 100
7, 38745, Note_on_c, 5, 59, 0
7, 38745, Note_on_c, 5, 71, 0
7, 38760, Note_on_c, 5, 71, 100
7, 38760, Note_on_c, 5, 59, 100
7, 38775, Note_on_c, 5, 59, 0
7, 38775, Note_on_c, 5, 71, 0
7, 38790, Note_on_c, 5, 71, 100
7, 38790, Note_on_c, 5, 59, 100
7, 38805, Note_on_c, 5, 59, 0
7, 38805, Note_on_c, 5, 71, 0
7, 38820, Note_on_c, 5, 71, 100
7, 38820, Note_on_c, 5, 59, 100
7, 38835, Note_on_c, 5, 59, 0
7, 38835, Note_on_c, 5, 71, 0
7, 38850, Note_on_c, 5, 59, 100
7, 38850, Note_on_c, 5, 71, 100
7, 38865, Note_on_c, 5, 71, 0
7, 38865, Note_on_c, 5, 59, 0
7, 38880, Note_on_c, 5, 71, 100
7, 38880, Note_on_c, 5, 59, 100
7, 38895, Note_on_c, 5, 59, 0
7, 38895, Note_on_c, 5, 71, 0
7, 38910, Note_on_c, 5, 59, 100
7, 38910, Note_on_c, 5, 71, 100
7, 38925, Note_on_c, 5, 71, 0
7, 38925, Note_on_c, 5, 59, 0
7, 38940, Note_on_c, 5, 71, 100
7, 38940, Note_on_c, 5, 59, 100
7, 38955, Note_on_c, 5, 59, 0
7, 38955, Note_on_c, 5, 71, 0
7, 38970, Note_on_c, 5, 59, 100
7, 38970, Note_on_c, 5, 71, 100
7, 38985, Note_on_c, 5, 71, 0
7, 38985, Note_on_c, 5, 59, 0
7, 39000, Note_on_c, 5, 71, 100
7, 39000, Note_on_c, 5, 59, 100
7, 39015, Note_on_c, 5, 59, 0
7, 39015, Note_on_c, 5, 71, 0
7, 39030, Note_on_c, 5, 71, 100
7, 39030, Note_on_c, 5, 59, 100
7, 39045, Note_on_c, 5, 59, 0
7, 39045, Note_on_c, 5, 71, 0
7, 39060, Note_on_c, 5, 59, 100
7, 39060, Note_on_c, 5, 71, 100
7, 39075, Note_on_c, 5, 71, 0
7, 39075, Note_on_c, 5, 59, 0
7, 39090, Note_on_c, 5, 71, 100
7, 39090, Note_on_c, 5, 59, 100
7, 39105, Note_on_c, 5, 59, 0
7, 39105, Note_on_c, 5, 71, 0
7, 39120, Note_on_c, 5, 59, 100
7, 39120, Note_on_c, 5, 71, 100
7, 39135, Note_on_c, 5, 71, 0
7, 39135, Note_on_c, 5, 59, 0
7, 39150, Note_on_c, 5, 71, 100
7, 39150, Note_on_c, 5, 59, 100
7, 39165, Note_on_c, 5, 59, 0
7, 39165, Note_on_c, 5, 71, 0
7, 39180, Note_on_c, 5, 59, 100
7, 39180, Note_on_c, 5, 71, 100
7, 39195, Note_on_c, 5, 71, 0
7, 39195, Note_on_c, 5, 59, 0
7, 39210, Note_on_c, 5, 59, 100
7, 39210, Note_on_c, 5, 71, 100
7, 39225, Note_on_c, 5, 71, 0
7, 39225, Note_on_c, 5, 59, 0
7, 39240, Note_on_c, 5, 71, 100
7, 39240, Note_on_c, 5, 59, 100
7, 39255, Note_on_c, 5, 59, 0
7, 39255, Note_on_c, 5, 71, 0
7, 39270, Note_on_c, 5, 59, 100
7, 39270, Note_on_c, 5, 71, 100
7, 39285, Note_on_c, 5, 71, 0
7, 39285, Note_on_c, 5, 59, 0
7, 39300, Note_on_c, 5, 71, 100
7, 39300, Note_on_c, 5, 59, 100
7, 39315, Note_on_c, 5, 59, 0
7, 39315, Note_on_c, 5, 71, 0
7, 39330, Note_on_c, 5, 59, 100
7, 39330, Note_on_c, 5, 71, 100
7, 39345, Note_on_c, 5, 71, 0
7, 39345, Note_on_c, 5, 59, 0
7, 39360, Note_on_c, 5, 71, 100
7, 39360, Note_on_c, 5, 59, 100
7, 39375, Note_on_c, 5, 59, 0
7, 39375, Note_on_c, 5, 71, 0
7, 39390, Note_on_c, 5, 59, 100
7, 39390, Note_on_c, 5, 71, 100
7, 39405, Note_on_c, 5, 71, 0
7, 39405, Note_on_c, 5, 59, 0
7, 39420, Note_on_c, 5, 71, 100
7, 39420, Note_on_c, 5, 59, 100
7, 39435, Note_on_c, 5, 59, 0
7, 39435, Note_on_c, 5, 71, 0
7, 39450, Note_on_c, 5, 59, 100
7, 39450, Note_on_c, 5, 71, 100
7, 39465, Note_on_c, 5, 71, 0
7, 39465, Note_on_c, 5, 59, 0
7, 39480, Note_on_c, 5, 59, 100
7, 39480, Note_on_c, 5, 71, 100
7, 39525, Note_on_c, 5, 71, 0
7, 39525, Note_on_c, 5, 59, 0
7, 39540, Note_on_c, 5, 59, 100
7, 39540, Note_on_c, 5, 71, 100
7, 39555, Note_on_c, 5, 71, 0
7, 39555, Note_on_c, 5, 59, 0
7, 39570, Note_on_c, 5, 59, 100
7, 39570, Note_on_c, 5, 71, 100
7, 39585, Note_on_c, 5, 71, 0
7, 39585, Note_on_c, 5, 59, 0
7, 39600, Note_on_c, 5, 71, 100
7, 39600, Note_on_c, 5, 59, 100
7, 39615, Note_on_c, 5, 59, 0
7, 39615, Note_on_c, 5, 71, 0
7, 39630, Note_on_c, 5, 71, 100
7, 39630, Note_on_c, 5, 59, 100
7, 39645, Note_on_c, 5, 59, 0
7, 39645, Note_on_c, 5, 71, 0
7, 39660, Note_on_c, 5, 71, 100
7, 39660, Note_on_c, 5, 59, 100
7, 39675, Note_on_c, 5, 59, 0
7, 39675, Note_on_c, 5, 71, 0
7, 39690, Note_on_c, 5, 59, 100
7, 39690, Note_on_c, 5, 71, 100
7, 39705, Note_on_c, 5, 71, 0
7, 39705, Note_on_c, 5, 59, 0
7, 39720, Note_on_c, 5, 71, 100
7, 39720, Note_on_c, 5, 59, 100
7, 39765, Note_on_c, 5, 59, 0
7, 39765, Note_on_c, 5, 71, 0
7, 39780, Note_on_c, 5, 64, 100
7, 39780, Note_on_c, 5, 76, 100
7, 39795, Note_on_c, 5, 76, 0
7, 39795, Note_on_c, 5, 64, 0
7, 39810, Note_on_c, 5, 76, 100
7, 39810, Note_on_c, 5, 64, 100
7, 39825, Note_on_c, 5, 64, 0
7, 39825, Note_on_c, 5, 76, 0
7, 39840, Note_on_c, 5, 76, 100
7, 39840, Note_on_c, 5, 64, 100
7, 39855, Note_on_c, 5, 64, 0
7, 39855, Note_on_c, 5, 76, 0
7, 39870, Note_on_c, 5, 76, 100
7, 39870, Note_on_c, 5, 64, 100
7, 39885, Note_on_c, 5, 64, 0
7, 39885, Note_on_c, 5, 76, 0
7, 39900, Note_on_c, 5, 76, 100
7, 39900, Note_on_c, 5, 64, 100
7, 39915, Note_on_c, 5, 64, 0
7, 39915, Note_on_c, 5, 76, 0
7, 39930, Note_on_c, 5, 64, 100
7, 39930, Note_on_c, 5, 76, 100
7, 39945, Note_on_c, 5, 76, 0
7, 39945, Note_on_c, 5, 64, 0
7, 39960, Note_on_c, 5, 64, 100
7, 39960, Note_on_c, 5, 76, 100
7, 40005, Note_on_c, 5, 76, 0
7, 40005, Note_on_c, 5, 64, 0
7, 40020, Note_on_c, 5, 62, 100
7, 40020, Note_on_c, 5, 74, 100
7, 40035, Note_on_c, 5, 74, 0
7, 40035, Note_on_c, 5, 62, 0
7, 40050, Note_on_c, 5, 62, 100
7, 40050, Note_on_c, 5, 74, 100
7, 40065, Note_on_c, 5, 74, 0
7, 40065, Note_on_c, 5, 62, 0
7, 40080, Note_on_c, 5, 62, 100
7, 40080, Note_on_c, 5, 74, 100
7, 40095, Note_on_c, 5, 74, 0
7, 40095, Note_on_c, 5, 62, 0
7, 40110, Note_on_c, 5, 74, 100
7, 40110, Note_on_c, 5, 62, 100
7, 40125, Note_on_c, 5, 62, 0
7, 40125, Note_on_c, 5, 74, 0
7, 40140, Note_on_c, 5, 74, 100
7, 40140, Note_on_c, 5, 62, 100
7, 40155, Note_on_c, 5, 62, 0
7, 40155, Note_on_c, 5, 74, 0
7, 40170, Note_on_c, 5, 62, 100
7, 40170, Note_on_c, 5, 74, 100
7, 40185, Note_on_c, 5, 74, 0
7, 40185, Note_on_c, 5, 62, 0
7, 40200, Note_on_c, 5, 62, 100
7, 40200, Note_on_c, 5, 74, 100
7, 40245, Note_on_c, 5, 74, 0
7, 40245, Note_on_c, 5, 62, 0
7, 40260, Note_on_c, 5, 57, 100
7, 40260, Note_on_c, 5, 69, 100
7, 40275, Note_on_c, 5, 69, 0
7, 40275, Note_on_c, 5, 57, 0
7, 40290, Note_on_c, 5, 57, 100
7, 40290, Note_on_c, 5, 69, 100
7, 40305, Note_on_c, 5, 69, 0
7, 40305, Note_on_c, 5, 57, 0
7, 40320, Note_on_c, 5, 59, 100
7, 40320, Note_on_c, 5, 71, 100
7, 40335, Note_on_c, 5, 71, 0
7, 40335, Note_on_c, 5, 59, 0
7, 40350, Note_on_c, 5, 71, 100
7, 40350, Note_on_c, 5, 59, 100
7, 40365, Note_on_c, 5, 59, 0
7, 40365, Note_on_c, 5, 71, 0
7, 40380, Note_on_c, 5, 59, 100
7, 40380, Note_on_c, 5, 71, 100
7, 40395, Note_on_c, 5, 71, 0
7, 40395, Note_on_c, 5, 59, 0
7, 40410, Note_on_c, 5, 59, 100
7, 40410, Note_on_c, 5, 71, 100
7, 40425, Note_on_c, 5, 71, 0
7, 40425, Note_on_c, 5, 59, 0
7, 40440, Note_on_c, 5, 59, 100
7, 40440, Note_on_c, 5, 71, 100
7, 40485, Note_on_c, 5, 71, 0
7, 40485, Note_on_c, 5, 59, 0
7, 40500, Note_on_c, 5, 59, 100
7, 40500, Note_on_c, 5, 71, 100
7, 40515, Note_on_c, 5, 71, 0
7, 40515, Note_on_c, 5, 59, 0
7, 40530, Note_on_c, 5, 71, 100
7, 40530, Note_on_c, 5, 59, 100
7, 40545, Note_on_c, 5, 59, 0
7, 40545, Note_on_c, 5, 71, 0
7, 40560, Note_on_c, 5, 71, 100
7, 40560, Note_on_c, 5, 59, 100
7, 40575, Note_on_c, 5, 59, 0
7, 40575, Note_on_c, 5, 71, 0
7, 40590, Note_on_c, 5, 71, 100
7, 40590, Note_on_c, 5, 59, 100
7, 40605, Note_on_c, 5, 59, 0
7, 40605, Note_on_c, 5, 71, 0
7, 40620, Note_on_c, 5, 71, 100
7, 40620, Note_on_c, 5, 59, 100
7, 40635, Note_on_c, 5, 59, 0
7, 40635, Note_on_c, 5, 71, 0
7, 40650, Note_on_c, 5, 71, 100
7, 40650, Note_on_c, 5, 59, 100
7, 40665, Note_on_c, 5, 59, 0
7, 40665, Note_on_c, 5, 71, 0
7, 40680, Note_on_c, 5, 71, 100
7, 40680, Note_on_c, 5, 59, 100
7, 40725, Note_on_c, 5, 59, 0
7, 40725, Note_on_c, 5, 71, 0
7, 40740, Note_on_c, 5, 76, 100
7, 40740, Note_on_c, 5, 64, 100
7, 40755, Note_on_c, 5, 64, 0
7, 40755, Note_on_c, 5, 76, 0
7, 40770, Note_on_c, 5, 64, 100
7, 40770, Note_on_c, 5, 76, 100
7, 40785, Note_on_c, 5, 76, 0
7, 40785, Note_on_c, 5, 64, 0
7, 40800, Note_on_c, 5, 59, 100
7, 40800, Note_on_c, 5, 71, 100
7, 40815, Note_on_c, 5, 71, 0
7, 40815, Note_on_c, 5, 59, 0
7, 40830, Note_on_c, 5, 71, 100
7, 40830, Note_on_c, 5, 59, 100
7, 40845, Note_on_c, 5, 59, 0
7, 40845, Note_on_c, 5, 71, 0
7, 40860, Note_on_c, 5, 59, 100
7, 40860, Note_on_c, 5, 71, 100
7, 40875, Note_on_c, 5, 71, 0
7, 40875, Note_on_c, 5, 59, 0
7, 40890, Note_on_c, 5, 71, 100
7, 40890, Note_on_c, 5, 59, 100
7, 40905, Note_on_c, 5, 59, 0
7, 40905, Note_on_c, 5, 71, 0
7, 40920, Note_on_c, 5, 59, 100
7, 40920, Note_on_c, 5, 71, 100
7, 40965, Note_on_c, 5, 71, 0
7, 40965, Note_on_c, 5, 59, 0
7, 40980, Note_on_c, 5, 59, 100
7, 40980, Note_on_c, 5, 71, 100
7, 40995, Note_on_c, 5, 71, 0
7, 40995, Note_on_c, 5, 59, 0
7, 41010, Note_on_c, 5, 71, 100
7, 41010, Note_on_c, 5, 59, 100
7, 41025, Note_on_c, 5, 59, 0
7, 41025, Note_on_c, 5, 71, 0
7, 41040, Note_on_c, 5, 59, 100
7, 41040, Note_on_c, 5, 71, 100
7, 41055, Note_on_c, 5, 71, 0
7, 41055, Note_on_c, 5, 59, 0
7, 41070, Note_on_c, 5, 71, 100
7, 41070, Note_on_c, 5, 59, 100
7, 41085, Note_on_c, 5, 59, 0
7, 41085, Note_on_c, 5, 71, 0
7, 41100, Note_on_c, 5, 59, 100
7, 41100, Note_on_c, 5, 71, 100
7, 41115, Note_on_c, 5, 71, 0
7, 41115, Note_on_c, 5, 59, 0
7, 41130, Note_on_c, 5, 59, 100
7, 41130, Note_on_c, 5, 71, 100
7, 41145, Note_on_c, 5, 71, 0
7, 41145, Note_on_c, 5, 59, 0
7, 41160, Note_on_c, 5, 71, 100
7, 41160, Note_on_c, 5, 59, 100
7, 41205, Note_on_c, 5, 59, 0
7, 41205, Note_on_c, 5, 71, 0
7, 41220, Note_on_c, 5, 64, 100
7, 41220, Note_on_c, 5, 76, 100
7, 41235, Note_on_c, 5, 76, 0
7, 41235, Note_on_c, 5, 64, 0
7, 41250, Note_on_c, 5, 64, 100
7, 41250, Note_on_c, 5, 76, 100
7, 41265, Note_on_c, 5, 76, 0
7, 41265, Note_on_c, 5, 64, 0
7, 41280, Note_on_c, 5, 71, 100
7, 41280, Note_on_c, 5, 59, 100
7, 41295, Note_on_c, 5, 59, 0
7, 41295, Note_on_c, 5, 71, 0
7, 41310, Note_on_c, 5, 71, 100
7, 41310, Note_on_c, 5, 59, 100
7, 41325, Note_on_c, 5, 59, 0
7, 41325, Note_on_c, 5, 71, 0
7, 41340, Note_on_c, 5, 59, 100
7, 41340, Note_on_c, 5, 71, 100
7, 41355, Note_on_c, 5, 71, 0
7, 41355, Note_on_c, 5, 59, 0
7, 41370, Note_on_c, 5, 59, 100
7, 41370, Note_on_c, 5, 71, 100
7, 41385, Note_on_c, 5, 71, 0
7, 41385, Note_on_c, 5, 59, 0
7, 41400, Note_on_c, 5, 59, 100
7, 41400, Note_on_c, 5, 71, 100
7, 41445, Note_on_c, 5, 71, 0
7, 41445, Note_on_c, 5, 59, 0
7, 41460, Note_on_c, 5, 59, 100
7, 41460, Note_on_c, 5, 71, 100
7, 41475, Note_on_c, 5, 71, 0
7, 41475, Note_on_c, 5, 59, 0
7, 41490, Note_on_c, 5, 71, 100
7, 41490, Note_on_c, 5, 59, 100
7, 41505, Note_on_c, 5, 59, 0
7, 41505, Note_on_c, 5, 71, 0
7, 41520, Note_on_c, 5, 71, 100
7, 41520, Note_on_c, 5, 59, 100
7, 41535, Note_on_c, 5, 59, 0
7, 41535, Note_on_c, 5, 71, 0
7, 41550, Note_on_c, 5, 71, 100
7, 41550, Note_on_c, 5, 59, 100
7, 41565, Note_on_c, 5, 59, 0
7, 41565, Note_on_c, 5, 71, 0
7, 41580, Note_on_c, 5, 71, 100
7, 41580, Note_on_c, 5, 59, 100
7, 41595, Note_on_c, 5, 59, 0
7, 41595, Note_on_c, 5, 71, 0
7, 41610, Note_on_c, 5, 59, 100
7, 41610, Note_on_c, 5, 71, 100
7, 41625, Note_on_c, 5, 71, 0
7, 41625, Note_on_c, 5, 59, 0
7, 41640, Note_on_c, 5, 59, 100
7, 41640, Note_on_c, 5, 71, 100
7, 41685, Note_on_c, 5, 71, 0
7, 41685, Note_on_c, 5, 59, 0
7, 41700, Note_on_c, 5, 76, 100
7, 41700, Note_on_c, 5, 64, 100
7, 41715, Note_on_c, 5, 64, 0
7, 41715, Note_on_c, 5, 76, 0
7, 41730, Note_on_c, 5, 64, 100
7, 41730, Note_on_c, 5, 76, 100
7, 41745, Note_on_c, 5, 76, 0
7, 41745, Note_on_c, 5, 64, 0
7, 41760, Note_on_c, 5, 64, 100
7, 41760, Note_on_c, 5, 76, 100
7, 41775, Note_on_c, 5, 76, 0
7, 41775, Note_on_c, 5, 64, 0
7, 41790, Note_on_c, 5, 76, 100
7, 41790, Note_on_c, 5, 64, 100
7, 41805, Note_on_c, 5, 64, 0
7, 41805, Note_on_c, 5, 76, 0
7, 41820, Note_on_c, 5, 76, 100
7, 41820, Note_on_c, 5, 64, 100
7, 41835, Note_on_c, 5, 64, 0
7, 41835, Note_on_c, 5, 76, 0
7, 41850, Note_on_c, 5, 76, 100
7, 41850, Note_on_c, 5, 64, 100
7, 41865, Note_on_c, 5, 64, 0
7, 41865, Note_on_c, 5, 76, 0
7, 41880, Note_on_c, 5, 64, 100
7, 41880, Note_on_c, 5, 76, 100
7, 41925, Note_on_c, 5, 76, 0
7, 41925, Note_on_c, 5, 64, 0
7, 41940, Note_on_c, 5, 74, 100
7, 41940, Note_on_c, 5, 62, 100
7, 41955, Note_on_c, 5, 62, 0
7, 41955, Note_on_c, 5, 74, 0
7, 41970, Note_on_c, 5, 62, 100
7, 41970, Note_on_c, 5, 74, 100
7, 41985, Note_on_c, 5, 74, 0
7, 41985, Note_on_c, 5, 62, 0
7, 42000, Note_on_c, 5, 74, 100
7, 42000, Note_on_c, 5, 62, 100
7, 42015, Note_on_c, 5, 62, 0
7, 42015, Note_on_c, 5, 74, 0
7, 42030, Note_on_c, 5, 74, 100
7, 42030, Note_on_c, 5, 62, 100
7, 42045, Note_on_c, 5, 62, 0
7, 42045, Note_on_c, 5, 74, 0
7, 42060, Note_on_c, 5, 62, 100
7, 42060, Note_on_c, 5, 74, 100
7, 42075, Note_on_c, 5, 74, 0
7, 42075, Note_on_c, 5, 62, 0
7, 42090, Note_on_c, 5, 74, 100
7, 42090, Note_on_c, 5, 62, 100
7, 42105, Note_on_c, 5, 62, 0
7, 42105, Note_on_c, 5, 74, 0
7, 42120, Note_on_c, 5, 62, 100
7, 42120, Note_on_c, 5, 74, 100
7, 42165, Note_on_c, 5, 74, 0
7, 42165, Note_on_c, 5, 62, 0
7, 42180, Note_on_c, 5, 69, 100
7, 42180, Note_on_c, 5, 57, 100
7, 42195, Note_on_c, 5, 57, 0
7, 42195, Note_on_c, 5, 69, 0
7, 42210, Note_on_c, 5, 69, 100
7, 42210, Note_on_c, 5, 57, 100
7, 42225, Note_on_c, 5, 57, 0
7, 42225, Note_on_c, 5, 69, 0
7, 42240, Note_on_c, 5, 71, 100
7, 42240, Note_on_c, 5, 59, 100
7, 42255, Note_on_c, 5, 59, 0
7, 42255, Note_on_c, 5, 71, 0
7, 42270, Note_on_c, 5, 59, 100
7, 42270, Note_on_c, 5, 71, 100
7, 42285, Note_on_c, 5, 71, 0
7, 42285, Note_on_c, 5, 59, 0
7, 42300, Note_on_c, 5, 59, 100
7, 42300, Note_on_c, 5, 71, 100
7, 42315, Note_on_c, 5, 71, 0
7, 42315, Note_on_c, 5, 59, 0
7, 42330, Note_on_c, 5, 71, 100
7, 42330, Note_on_c, 5, 59, 100
7, 42345, Note_on_c, 5, 59, 0
7, 42345, Note_on_c, 5, 71, 0
7, 42360, Note_on_c, 5, 71, 100
7, 42360, Note_on_c, 5, 59, 100
7, 42405, Note_on_c, 5, 59, 0
7, 42405, Note_on_c, 5, 71, 0
7, 42420, Note_on_c, 5, 59, 100
7, 42420, Note_on_c, 5, 71, 100
7, 42435, Note_on_c, 5, 71, 0
7, 42435, Note_on_c, 5, 59, 0
7, 42450, Note_on_c, 5, 59, 100
7, 42450, Note_on_c, 5, 71, 100
7, 42465, Note_on_c, 5, 71, 0
7, 42465, Note_on_c, 5, 59, 0
7, 42480, Note_on_c, 5, 71, 100
7, 42480, Note_on_c, 5, 59, 100
7, 42495, Note_on_c, 5, 59, 0
7, 42495, Note_on_c, 5, 71, 0
7, 42510, Note_on_c, 5, 71, 100
7, 42510, Note_on_c, 5, 59, 100
7, 42525, Note_on_c, 5, 59, 0
7, 42525, Note_on_c, 5, 71, 0
7, 42540, Note_on_c, 5, 71, 100
7, 42540, Note_on_c, 5, 59, 100
7, 42555, Note_on_c, 5, 59, 0
7, 42555, Note_on_c, 5, 71, 0
7, 42570, Note_on_c, 5, 71, 100
7, 42570, Note_on_c, 5, 59, 100
7, 42585, Note_on_c, 5, 59, 0
7, 42585, Note_on_c, 5, 71, 0
7, 42600, Note_on_c, 5, 71, 100
7, 42600, Note_on_c, 5, 59, 100
7, 42645, Note_on_c, 5, 59, 0
7, 42645, Note_on_c, 5, 71, 0
7, 42660, Note_on_c, 5, 76, 100
7, 42660, Note_on_c, 5, 64, 100
7, 42675, Note_on_c, 5, 64, 0
7, 42675, Note_on_c, 5, 76, 0
7, 42690, Note_on_c, 5, 76, 100
7, 42690, Note_on_c, 5, 64, 100
7, 42705, Note_on_c, 5, 64, 0
7, 42705, Note_on_c, 5, 76, 0
7, 42720, Note_on_c, 5, 71, 100
7, 42720, Note_on_c, 5, 59, 100
7, 42735, Note_on_c, 5, 59, 0
7, 42735, Note_on_c, 5, 71, 0
7, 42750, Note_on_c, 5, 71, 100
7, 42750, Note_on_c, 5, 59, 100
7, 42765, Note_on_c, 5, 59, 0
7, 42765, Note_on_c, 5, 71, 0
7, 42780, Note_on_c, 5, 71, 100
7, 42780, Note_on_c, 5, 59, 100
7, 42795, Note_on_c, 5, 59, 0
7, 42795, Note_on_c, 5, 71, 0
7, 42810, Note_on_c, 5, 71, 100
7, 42810, Note_on_c, 5, 59, 100
7, 42825, Note_on_c, 5, 59, 0
7, 42825, Note_on_c, 5, 71, 0
7, 42840, Note_on_c, 5, 71, 100
7, 42840, Note_on_c, 5, 59, 100
7, 42885, Note_on_c, 5, 59, 0
7, 42885, Note_on_c, 5, 71, 0
7, 42900, Note_on_c, 5, 71, 100
7, 42900, Note_on_c, 5, 59, 100
7, 42915, Note_on_c, 5, 59, 0
7, 42915, Note_on_c, 5, 71, 0
7, 42930, Note_on_c, 5, 71, 100
7, 42930, Note_on_c, 5, 59, 100
7, 42945, Note_on_c, 5, 59, 0
7, 42945, Note_on_c, 5, 71, 0
7, 42960, Note_on_c, 5, 71, 100
7, 42960, Note_on_c, 5, 59, 100
7, 42975, Note_on_c, 5, 59, 0
7, 42975, Note_on_c, 5, 71, 0
7, 42990, Note_on_c, 5, 71, 100
7, 42990, Note_on_c, 5, 59, 100
7, 43005, Note_on_c, 5, 59, 0
7, 43005, Note_on_c, 5, 71, 0
7, 43020, Note_on_c, 5, 71, 100
7, 43020, Note_on_c, 5, 59, 100
7, 43035, Note_on_c, 5, 59, 0
7, 43035, Note_on_c, 5, 71, 0
7, 43050, Note_on_c, 5, 71, 100
7, 43050, Note_on_c, 5, 59, 100
7, 43065, Note_on_c, 5, 59, 0
7, 43065, Note_on_c, 5, 71, 0
7, 43080, Note_on_c, 5, 59, 100
7, 43080, Note_on_c, 5, 71, 100
7, 43125, Note_on_c, 5, 71, 0
7, 43125, Note_on_c, 5, 59, 0
7, 43140, Note_on_c, 5, 76, 100
7, 43140, Note_on_c, 5, 64, 100
7, 43155, Note_on_c, 5, 64, 0
7, 43155, Note_on_c, 5, 76, 0
7, 43170, Note_on_c, 5, 64, 100
7, 43170, Note_on_c, 5, 76, 100
7, 43185, Note_on_c, 5, 76, 0
7, 43185, Note_on_c, 5, 64, 0
7, 43200, Note_on_c, 5, 59, 100
7, 43200, Note_on_c, 5, 71, 100
7, 43215, Note_on_c, 5, 71, 0
7, 43215, Note_on_c, 5, 59, 0
7, 43230, Note_on_c, 5, 59, 100
7, 43230, Note_on_c, 5, 71, 100
7, 43245, Note_on_c, 5, 71, 0
7, 43245, Note_on_c, 5, 59, 0
7, 43260, Note_on_c, 5, 71, 100
7, 43260, Note_on_c, 5, 59, 100
7, 43275, Note_on_c, 5, 59, 0
7, 43275, Note_on_c, 5, 71, 0
7, 43290, Note_on_c, 5, 71, 100
7, 43290, Note_on_c, 5, 59, 100
7, 43305, Note_on_c, 5, 59, 0
7, 43305, Note_on_c, 5, 71, 0
7, 43320, Note_on_c, 5, 71, 100
7, 43320, Note_on_c, 5, 59, 100
7, 43365, Note_on_c, 5, 59, 0
7, 43365, Note_on_c, 5, 71, 0
7, 43380, Note_on_c, 5, 59, 100
7, 43380, Note_on_c, 5, 71, 100
7, 43395, Note_on_c, 5, 71, 0
7, 43395, Note_on_c, 5, 59, 0
7, 43410, Note_on_c, 5, 59, 100
7, 43410, Note_on_c, 5, 71, 100
7, 43425, Note_on_c, 5, 71, 0
7, 43425, Note_on_c, 5, 59, 0
7, 43440, Note_on_c, 5, 71, 100
7, 43440, Note_on_c, 5, 59, 100
7, 43455, Note_on_c, 5, 59, 0
7, 43455, Note_on_c, 5, 71, 0
7, 43470, Note_on_c, 5, 71, 100
7, 43470, Note_on_c, 5, 59, 100
7, 43485, Note_on_c, 5, 59, 0
7, 43485, Note_on_c, 5, 71, 0
7, 43500, Note_on_c, 5, 59, 100
7, 43500, Note_on_c, 5, 71, 100
7, 43515, Note_on_c, 5, 71, 0
7, 43515, Note_on_c, 5, 59, 0
7, 43530, Note_on_c, 5, 59, 100
7, 43530, Note_on_c, 5, 71, 100
7, 43545, Note_on_c, 5, 71, 0
7, 43545, Note_on_c, 5, 59, 0
7, 43560, Note_on_c, 5, 71, 100
7, 43560, Note_on_c, 5, 59, 100
7, 43605, Note_on_c, 5, 59, 0
7, 43605, Note_on_c, 5, 71, 0
7, 43620, Note_on_c, 5, 76, 100
7, 43620, Note_on_c, 5, 64, 100
7, 43635, Note_on_c, 5, 64, 0
7, 43635, Note_on_c, 5, 76, 0
7, 43650, Note_on_c, 5, 64, 100
7, 43650, Note_on_c, 5, 76, 100
7, 43665, Note_on_c, 5, 76, 0
7, 43665, Note_on_c, 5, 64, 0
7, 43680, Note_on_c, 5, 64, 100
7, 43680, Note_on_c, 5, 76, 100
7, 43695, Note_on_c, 5, 76, 0
7, 43695, Note_on_c, 5, 64, 0
7, 43710, Note_on_c, 5, 64, 100
7, 43710, Note_on_c, 5, 76, 100
7, 43725, Note_on_c, 5, 76, 0
7, 43725, Note_on_c, 5, 64, 0
7, 43740, Note_on_c, 5, 76, 100
7, 43740, Note_on_c, 5, 64, 100
7, 43755, Note_on_c, 5, 64, 0
7, 43755, Note_on_c, 5, 76, 0
7, 43770, Note_on_c, 5, 64, 100
7, 43770, Note_on_c, 5, 76, 100
7, 43785, Note_on_c, 5, 76, 0
7, 43785, Note_on_c, 5, 64, 0
7, 43800, Note_on_c, 5, 64, 100
7, 43800, Note_on_c, 5, 76, 100
7, 43845, Note_on_c, 5, 76, 0
7, 43845, Note_on_c, 5, 64, 0
7, 43860, Note_on_c, 5, 74, 100
7, 43860, Note_on_c, 5, 62, 100
7, 43875, Note_on_c, 5, 62, 0
7, 43875, Note_on_c, 5, 74, 0
7, 43890, Note_on_c, 5, 62, 100
7, 43890, Note_on_c, 5, 74, 100
7, 43905, Note_on_c, 5, 74, 0
7, 43905, Note_on_c, 5, 62, 0
7, 43920, Note_on_c, 5, 74, 100
7, 43920, Note_on_c, 5, 62, 100
7, 43935, Note_on_c, 5, 62, 0
7, 43935, Note_on_c, 5, 74, 0
7, 43950, Note_on_c, 5, 74, 100
7, 43950, Note_on_c, 5, 62, 100
7, 43965, Note_on_c, 5, 62, 0
7, 43965, Note_on_c, 5, 74, 0
7, 43980, Note_on_c, 5, 74, 100
7, 43980, Note_on_c, 5, 62, 100
7, 43995, Note_on_c, 5, 62, 0
7, 43995, Note_on_c, 5, 74, 0
7, 44010, Note_on_c, 5, 62, 100
7, 44010, Note_on_c, 5, 74, 100
7, 44025, Note_on_c, 5, 74, 0
7, 44025, Note_on_c, 5, 62, 0
7, 44040, Note_on_c, 5, 74, 100
7, 44040, Note_on_c, 5, 62, 100
7, 44085, Note_on_c, 5, 62, 0
7, 44085, Note_on_c, 5, 74, 0
7, 44100, Note_on_c, 5, 57, 100
7, 44100, Note_on_c, 5, 69, 100
7, 44115, Note_on_c, 5, 69, 0
7, 44115, Note_on_c, 5, 57, 0
7, 44130, Note_on_c, 5, 69, 100
7, 44130, Note_on_c, 5, 57, 100
7, 44145, Note_on_c, 5, 57, 0
7, 44145, Note_on_c, 5, 69, 0
7, 44160, Note_on_c, 5, 71, 100
7, 44160, Note_on_c, 5, 59, 100
7, 44175, Note_on_c, 5, 59, 0
7, 44175, Note_on_c, 5, 71, 0
7, 44190, Note_on_c, 5, 71, 100
7, 44190, Note_on_c, 5, 59, 100
7, 44205, Note_on_c, 5, 59, 0
7, 44205, Note_on_c, 5, 71, 0
7, 44220, Note_on_c, 5, 71, 100
7, 44220, Note_on_c, 5, 59, 100
7, 44235, Note_on_c, 5, 59, 0
7, 44235, Note_on_c, 5, 71, 0
7, 44250, Note_on_c, 5, 71, 100
7, 44250, Note_on_c, 5, 59, 100
7, 44265, Note_on_c, 5, 59, 0
7, 44265, Note_on_c, 5, 71, 0
7, 44280, Note_on_c, 5, 59, 100
7, 44280, Note_on_c, 5, 71, 100
7, 44325, Note_on_c, 5, 71, 0
7, 44325, Note_on_c, 5, 59, 0
7, 44340, Note_on_c, 5, 71, 100
7, 44340, Note_on_c, 5, 59, 100
7, 44355, Note_on_c, 5, 59, 0
7, 44355, Note_on_c, 5, 71, 0
7, 44370, Note_on_c, 5, 71, 100
7, 44370, Note_on_c, 5, 59, 100
7, 44385, Note_on_c, 5, 59, 0
7, 44385, Note_on_c, 5, 71, 0
7, 44400, Note_on_c, 5, 59, 100
7, 44400, Note_on_c, 5, 71, 100
7, 44415, Note_on_c, 5, 71, 0
7, 44415, Note_on_c, 5, 59, 0
7, 44430, Note_on_c, 5, 71, 100
7, 44430, Note_on_c, 5, 59, 100
7, 44445, Note_on_c, 5, 59, 0
7, 44445, Note_on_c, 5, 71, 0
7, 44460, Note_on_c, 5, 71, 100
7, 44460, Note_on_c, 5, 59, 100
7, 44475, Note_on_c, 5, 59, 0
7, 44475, Note_on_c, 5, 71, 0
7, 44490, Note_on_c, 5, 71, 100
7, 44490, Note_on_c, 5, 59, 100
7, 44505, Note_on_c, 5, 59, 0
7, 44505, Note_on_c, 5, 71, 0
7, 44520, Note_on_c, 5, 59, 100
7, 44520, Note_on_c, 5, 71, 100
7, 44565, Note_on_c, 5, 71, 0
7, 44565, Note_on_c, 5, 59, 0
7, 44580, Note_on_c, 5, 76, 100
7, 44580, Note_on_c, 5, 64, 100
7, 44595, Note_on_c, 5, 64, 0
7, 44595, Note_on_c, 5, 76, 0
7, 44610, Note_on_c, 5, 76, 100
7, 44610, Note_on_c, 5, 64, 100
7, 44625, Note_on_c, 5, 64, 0
7, 44625, Note_on_c, 5, 76, 0
7, 44640, Note_on_c, 5, 59, 100
7, 44640, Note_on_c, 5, 71, 100
7, 44655, Note_on_c, 5, 71, 0
7, 44655, Note_on_c, 5, 59, 0
7, 44670, Note_on_c, 5, 71, 100
7, 44670, Note_on_c, 5, 59, 100
7, 44685, Note_on_c, 5, 59, 0
7, 44685, Note_on_c, 5, 71, 0
7, 44700, Note_on_c, 5, 71, 100
7, 44700, Note_on_c, 5, 59, 100
7, 44715, Note_on_c, 5, 59, 0
7, 44715, Note_on_c, 5, 71, 0
7, 44730, Note_on_c, 5, 71, 100
7, 44730, Note_on_c, 5, 59, 100
7, 44745, Note_on_c, 5, 59, 0
7, 44745, Note_on_c, 5, 71, 0
7, 44760, Note_on_c, 5, 59, 100
7, 44760, Note_on_c, 5, 71, 100
7, 44805, Note_on_c, 5, 71, 0
7, 44805, Note_on_c, 5, 59, 0
7, 44820, Note_on_c, 5, 71, 100
7, 44820, Note_on_c, 5, 59, 100
7, 44835, Note_on_c, 5, 59, 0
7, 44835, Note_on_c, 5, 71, 0
7, 44850, Note_on_c, 5, 71, 100
7, 44850, Note_on_c, 5, 59, 100
7, 44865, Note_on_c, 5, 59, 0
7, 44865, Note_on_c, 5, 71, 0
7, 44880, Note_on_c, 5, 59, 100
7, 44880, Note_on_c, 5, 71, 100
7, 44895, Note_on_c, 5, 71, 0
7, 44895, Note_on_c, 5, 59, 0
7, 44910, Note_on_c, 5, 71, 100
7, 44910, Note_on_c, 5, 59, 100
7, 44925, Note_on_c, 5, 59, 0
7, 44925, Note_on_c, 5, 71, 0
7, 44940, Note_on_c, 5, 71, 100
7, 44940, Note_on_c, 5, 59, 100
7, 44955, Note_on_c, 5, 59, 0
7, 44955, Note_on_c, 5, 71, 0
7, 44970, Note_on_c, 5, 71, 100
7, 44970, Note_on_c, 5, 59, 100
7, 44985, Note_on_c, 5, 59, 0
7, 44985, Note_on_c, 5, 71, 0
7, 45000, Note_on_c, 5, 59, 100
7, 45000, Note_on_c, 5, 71, 100
7, 45045, Note_on_c, 5, 71, 0
7, 45045, Note_on_c, 5, 59, 0
7, 45060, Note_on_c, 5, 64, 100
7, 45060, Note_on_c, 5, 76, 100
7, 45075, Note_on_c, 5, 76, 0
7, 45075, Note_on_c, 5, 64, 0
7, 45090, Note_on_c, 5, 76, 100
7, 45090, Note_on_c, 5, 64, 100
7, 45105, Note_on_c, 5, 64, 0
7, 45105, Note_on_c, 5, 76, 0
7, 45120, Note_on_c, 5, 71, 100
7, 45120, Note_on_c, 5, 59, 100
7, 45135, Note_on_c, 5, 59, 0
7, 45135, Note_on_c, 5, 71, 0
7, 45150, Note_on_c, 5, 59, 100
7, 45150, Note_on_c, 5, 71, 100
7, 45165, Note_on_c, 5, 71, 0
7, 45165, Note_on_c, 5, 59, 0
7, 45180, Note_on_c, 5, 71, 100
7, 45180, Note_on_c, 5, 59, 100
7, 45195, Note_on_c, 5, 59, 0
7, 45195, Note_on_c, 5, 71, 0
7, 45210, Note_on_c, 5, 59, 100
7, 45210, Note_on_c, 5, 71, 100
7, 45225, Note_on_c, 5, 71, 0
7, 45225, Note_on_c, 5, 59, 0
7, 45240, Note_on_c, 5, 59, 100
7, 45240, Note_on_c, 5, 71, 100
7, 45285, Note_on_c, 5, 71, 0
7, 45285, Note_on_c, 5, 59, 0
7, 45300, Note_on_c, 5, 59, 100
7, 45300, Note_on_c, 5, 71, 100
7, 45315, Note_on_c, 5, 71, 0
7, 45315, Note_on_c, 5, 59, 0
7, 45330, Note_on_c, 5, 71, 100
7, 45330, Note_on_c, 5, 59, 100
7, 45345, Note_on_c, 5, 59, 0
7, 45345, Note_on_c, 5, 71, 0
7, 45360, Note_on_c, 5, 71, 100
7, 45360, Note_on_c, 5, 59, 100
7, 45375, Note_on_c, 5, 59, 0
7, 45375, Note_on_c, 5, 71, 0
7, 45390, Note_on_c, 5, 59, 100
7, 45390, Note_on_c, 5, 71, 100
7, 45405, Note_on_c, 5, 71, 0
7, 45405, Note_on_c, 5, 59, 0
7, 45420, Note_on_c, 5, 71, 100
7, 45420, Note_on_c, 5, 59, 100
7, 45435, Note_on_c, 5, 59, 0
7, 45435, Note_on_c, 5, 71, 0
7, 45450, Note_on_c, 5, 71, 100
7, 45450, Note_on_c, 5, 59, 100
7, 45465, Note_on_c, 5, 59, 0
7, 45465, Note_on_c, 5, 71, 0
7, 45480, Note_on_c, 5, 71, 100
7, 45480, Note_on_c, 5, 59, 100
7, 45525, Note_on_c, 5, 59, 0
7, 45525, Note_on_c, 5, 71, 0
7, 45540, Note_on_c, 5, 64, 100
7, 45540, Note_on_c, 5, 76, 100
7, 45555, Note_on_c, 5, 76, 0
7, 45555, Note_on_c, 5, 64, 0
7, 45570, Note_on_c, 5, 64, 100
7, 45570, Note_on_c, 5, 76, 100
7, 45585, Note_on_c, 5, 76, 0
7, 45585, Note_on_c, 5, 64, 0
7, 45600, Note_on_c, 5, 76, 100
7, 45600, Note_on_c, 5, 64, 100
7, 45615, Note_on_c, 5, 64, 0
7, 45615, Note_on_c, 5, 76, 0
7, 45630, Note_on_c, 5, 64, 100
7, 45630, Note_on_c, 5, 76, 100
7, 45645, Note_on_c, 5, 76, 0
7, 45645, Note_on_c, 5, 64, 0
7, 45660, Note_on_c, 5, 76, 100
7, 45660, Note_on_c, 5, 64, 100
7, 45675, Note_on_c, 5, 64, 0
7, 45675, Note_on_c, 5, 76, 0
7, 45690, Note_on_c, 5, 76, 100
7, 45690, Note_on_c, 5, 64, 100
7, 45705, Note_on_c, 5, 64, 0
7, 45705, Note_on_c, 5, 76, 0
7, 45720, Note_on_c, 5, 76, 100
7, 45720, Note_on_c, 5, 64, 100
7, 45765, Note_on_c, 5, 64, 0
7, 45765, Note_on_c, 5, 76, 0
7, 45780, Note_on_c, 5, 62, 100
7, 45780, Note_on_c, 5, 74, 100
7, 45795, Note_on_c, 5, 74, 0
7, 45795, Note_on_c, 5, 62, 0
7, 45810, Note_on_c, 5, 74, 100
7, 45810, Note_on_c, 5, 62, 100
7, 45825, Note_on_c, 5, 62, 0
7, 45825, Note_on_c, 5, 74, 0
7, 45840, Note_on_c, 5, 74, 100
7, 45840, Note_on_c, 5, 62, 100
7, 45855, Note_on_c, 5, 62, 0
7, 45855, Note_on_c, 5, 74, 0
7, 45870, Note_on_c, 5, 62, 100
7, 45870, Note_on_c, 5, 74, 100
7, 45885, Note_on_c, 5, 74, 0
7, 45885, Note_on_c, 5, 62, 0
7, 45900, Note_on_c, 5, 74, 100
7, 45900, Note_on_c, 5, 62, 100
7, 45915, Note_on_c, 5, 62, 0
7, 45915, Note_on_c, 5, 74, 0
7, 45930, Note_on_c, 5, 74, 100
7, 45930, Note_on_c, 5, 62, 100
7, 45945, Note_on_c, 5, 62, 0
7, 45945, Note_on_c, 5, 74, 0
7, 45960, Note_on_c, 5, 62, 100
7, 45960, Note_on_c, 5, 74, 100
7, 46005, Note_on_c, 5, 74, 0
7, 46005, Note_on_c, 5, 62, 0
7, 46020, Note_on_c, 5, 69, 100
7, 46020, Note_on_c, 5, 57, 100
7, 46035, Note_on_c, 5, 57, 0
7, 46035, Note_on_c, 5, 69, 0
7, 46050, Note_on_c, 5, 69, 100
7, 46050, Note_on_c, 5, 57, 100
7, 46065, Note_on_c, 5, 57, 0
7, 46065, Note_on_c, 5, 69, 0
7, 46080, Note_on_c, 5, 59, 100
7, 46080, Note_on_c, 5, 71, 100
7, 46095, Note_on_c, 5, 71, 0
7, 46095, Note_on_c, 5, 59, 0
7, 46110, Note_on_c, 5, 59, 100
7, 46110, Note_on_c, 5, 71, 100
7, 46125, Note_on_c, 5, 71, 0
7, 46125, Note_on_c, 5, 59, 0
7, 46140, Note_on_c, 5, 71, 100
7, 46140, Note_on_c, 5, 59, 100
7, 46155, Note_on_c, 5, 59, 0
7, 46155, Note_on_c, 5, 71, 0
7, 46170, Note_on_c, 5, 71, 100
7, 46170, Note_on_c, 5, 59, 100
7, 46185, Note_on_c, 5, 59, 0
7, 46185, Note_on_c, 5, 71, 0
7, 46200, Note_on_c, 5, 59, 100
7, 46200, Note_on_c, 5, 71, 100
7, 46245, Note_on_c, 5, 71, 0
7, 46245, Note_on_c, 5, 59, 0
7, 46260, Note_on_c, 5, 71, 100
7, 46260, Note_on_c, 5, 59, 100
7, 46275, Note_on_c, 5, 59, 0
7, 46275, Note_on_c, 5, 71, 0
7, 46290, Note_on_c, 5, 71, 100
7, 46290, Note_on_c, 5, 59, 100
7, 46305, Note_on_c, 5, 59, 0
7, 46305, Note_on_c, 5, 71, 0
7, 46320, Note_on_c, 5, 71, 100
7, 46320, Note_on_c, 5, 59, 100
7, 46335, Note_on_c, 5, 59, 0
7, 46335, Note_on_c, 5, 71, 0
7, 46350, Note_on_c, 5, 71, 100
7, 46350, Note_on_c, 5, 59, 100
7, 46365, Note_on_c, 5, 59, 0
7, 46365, Note_on_c, 5, 71, 0
7, 46380, Note_on_c, 5, 71, 100
7, 46380, Note_on_c, 5, 59, 100
7, 46395, Note_on_c, 5, 59, 0
7, 46395, Note_on_c, 5, 71, 0
7, 46410, Note_on_c, 5, 71, 100
7, 46410, Note_on_c, 5, 59, 100
7, 46425, Note_on_c, 5, 59, 0
7, 46425, Note_on_c, 5, 71, 0
7, 46440, Note_on_c, 5, 59, 100
7, 46440, Note_on_c, 5, 71, 100
7, 46485, Note_on_c, 5, 71, 0
7, 46485, Note_on_c, 5, 59, 0
7, 46500, Note_on_c, 5, 76, 100
7, 46500, Note_on_c, 5, 64, 100
7, 46515, Note_on_c, 5, 64, 0
7, 46515, Note_on_c, 5, 76, 0
7, 46530, Note_on_c, 5, 76, 100
7, 46530, Note_on_c, 5, 64, 100
7, 46545, Note_on_c, 5, 64, 0
7, 46545, Note_on_c, 5, 76, 0
7, 46560, Note_on_c, 5, 71, 100
7, 46560, Note_on_c, 5, 59, 100
7, 46575, Note_on_c, 5, 59, 0
7, 46575, Note_on_c, 5, 71, 0
7, 46590, Note_on_c, 5, 71, 100
7, 46590, Note_on_c, 5, 59, 100
7, 46605, Note_on_c, 5, 59, 0
7, 46605, Note_on_c, 5, 71, 0
7, 46620, Note_on_c, 5, 71, 100
7, 46620, Note_on_c, 5, 59, 100
7, 46635, Note_on_c, 5, 59, 0
7, 46635, Note_on_c, 5, 71, 0
7, 46650, Note_on_c, 5, 71, 100
7, 46650, Note_on_c, 5, 59, 100
7, 46665, Note_on_c, 5, 59, 0
7, 46665, Note_on_c, 5, 71, 0
7, 46680, Note_on_c, 5, 59, 100
7, 46680, Note_on_c, 5, 71, 100
7, 46725, Note_on_c, 5, 71, 0
7, 46725, Note_on_c, 5, 59, 0
7, 46740, Note_on_c, 5, 71, 100
7, 46740, Note_on_c, 5, 59, 100
7, 46755, Note_on_c, 5, 59, 0
7, 46755, Note_on_c, 5, 71, 0
7, 46770, Note_on_c, 5, 71, 100
7, 46770, Note_on_c, 5, 59, 100
7, 46785, Note_on_c, 5, 59, 0
7, 46785, Note_on_c, 5, 71, 0
7, 46800, Note_on_c, 5, 71, 100
7, 46800, Note_on_c, 5, 59, 100
7, 46815, Note_on_c, 5, 59, 0
7, 46815, Note_on_c, 5, 71, 0
7, 46830, Note_on_c, 5, 71, 100
7, 46830, Note_on_c, 5, 59, 100
7, 46845, Note_on_c, 5, 59, 0
7, 46845, Note_on_c, 5, 71, 0
7, 46860, Note_on_c, 5, 59, 100
7, 46860, Note_on_c, 5, 71, 100
7, 46875, Note_on_c, 5, 71, 0
7, 46875, Note_on_c, 5, 59, 0
7, 46890, Note_on_c, 5, 71, 100
7, 46890, Note_on_c, 5, 59, 100
7, 46905, Note_on_c, 5, 59, 0
7, 46905, Note_on_c, 5, 71, 0
7, 46920, Note_on_c, 5, 59, 100
7, 46920, Note_on_c, 5, 71, 100
7, 46965, Note_on_c, 5, 71, 0
7, 46965, Note_on_c, 5, 59, 0
7, 46980, Note_on_c, 5, 76, 100
7, 46980, Note_on_c, 5, 64, 100
7, 46995, Note_on_c, 5, 64, 0
7, 46995, Note_on_c, 5, 76, 0
7, 47010, Note_on_c, 5, 76, 100
7, 47010, Note_on_c, 5, 64, 100
7, 47025, Note_on_c, 5, 64, 0
7, 47025, Note_on_c, 5, 76, 0
7, 47040, Note_on_c, 5, 59, 100
7, 47040, Note_on_c, 5, 71, 100
7, 47055, Note_on_c, 5, 71, 0
7, 47055, Note_on_c, 5, 59, 0
7, 47070, Note_on_c, 5, 59, 100
7, 47070, Note_on_c, 5, 71, 100
7, 47085, Note_on_c, 5, 71, 0
7, 47085, Note_on_c, 5, 59, 0
7, 47100, Note_on_c, 5, 59, 100
7, 47100, Note_on_c, 5, 71, 100
7, 47115, Note_on_c, 5, 71, 0
7, 47115, Note_on_c, 5, 59, 0
7, 47130, Note_on_c, 5, 59, 100
7, 47130, Note_on_c, 5, 71, 100
7, 47145, Note_on_c, 5, 71, 0
7, 47145, Note_on_c, 5, 59, 0
7, 47160, Note_on_c, 5, 59, 100
7, 47160, Note_on_c, 5, 71, 100
7, 47205, Note_on_c, 5, 71, 0
7, 47205, Note_on_c, 5, 59, 0
7, 47220, Note_on_c, 5, 59, 100
7, 47220, Note_on_c, 5, 71, 100
7, 47235, Note_on_c, 5, 71, 0
7, 47235, Note_on_c, 5, 59, 0
7, 47250, Note_on_c, 5, 59, 100
7, 47250, Note_on_c, 5, 71, 100
7, 47265, Note_on_c, 5, 71, 0
7, 47265, Note_on_c, 5, 59, 0
7, 47280, Note_on_c, 5, 59, 100
7, 47280, Note_on_c, 5, 71, 100
7, 47295, Note_on_c, 5, 71, 0
7, 47295, Note_on_c, 5, 59, 0
7, 47310, Note_on_c, 5, 71, 100
7, 47310, Note_on_c, 5, 59, 100
7, 47325, Note_on_c, 5, 59, 0
7, 47325, Note_on_c, 5, 71, 0
7, 47340, Note_on_c, 5, 71, 100
7, 47340, Note_on_c, 5, 59, 100
7, 47355, Note_on_c, 5, 59, 0
7, 47355, Note_on_c, 5, 71, 0
7, 47370, Note_on_c, 5, 59, 100
7, 47370, Note_on_c, 5, 71, 100
7, 47385, Note_on_c, 5, 71, 0
7, 47385, Note_on_c, 5, 59, 0
7, 47400, Note_on_c, 5, 71, 100
7, 47400, Note_on_c, 5, 59, 100
7, 47445, Note_on_c, 5, 59, 0
7, 47445, Note_on_c, 5, 71, 0
7, 47460, Note_on_c, 5, 74, 100
7, 47460, Note_on_c, 5, 62, 100
7, 47505, Note_on_c, 5, 62, 0
7, 47505, Note_on_c, 5, 74, 0
7, 47520, Note_on_c, 5, 59, 100
7, 47520, Note_on_c, 5, 71, 100
7, 47535, Note_on_c, 5, 71, 0
7, 47535, Note_on_c, 5, 59, 0
7, 47550, Note_on_c, 5, 59, 100
7, 47550, Note_on_c, 5, 71, 100
7, 47565, Note_on_c, 5, 71, 0
7, 47565, Note_on_c, 5, 59, 0
7, 47580, Note_on_c, 5, 71, 100
7, 47580, Note_on_c, 5, 59, 100
7, 47595, Note_on_c, 5, 59, 0
7, 47595, Note_on_c, 5, 71, 0
7, 47610, Note_on_c, 5, 71, 100
7, 47610, Note_on_c, 5, 59, 100
7, 47625, Note_on_c, 5, 59, 0
7, 47625, Note_on_c, 5, 71, 0
7, 47640, Note_on_c, 5, 71, 100
7, 47640, Note_on_c, 5, 59, 100
7, 47685, Note_on_c, 5, 59, 0
7, 47685, Note_on_c, 5, 71, 0
7, 47700, Note_on_c, 5, 71, 100
7, 47700, Note_on_c, 5, 59, 100
7, 47715, Note_on_c, 5, 59, 0
7, 47715, Note_on_c, 5, 71, 0
7, 47730, Note_on_c, 5, 71, 100
7, 47730, Note_on_c, 5, 59, 100
7, 47745, Note_on_c, 5, 59, 0
7, 47745, Note_on_c, 5, 71, 0
7, 47760, Note_on_c, 5, 71, 100
7, 47760, Note_on_c, 5, 59, 100
7, 47775, Note_on_c, 5, 59, 0
7, 47775, Note_on_c, 5, 71, 0
7, 47790, Note_on_c, 5, 71, 100
7, 47790, Note_on_c, 5, 59, 100
7, 47805, Note_on_c, 5, 59, 0
7, 47805, Note_on_c, 5, 71, 0
7, 47820, Note_on_c, 5, 71, 100
7, 47820, Note_on_c, 5, 59, 100
7, 47835, Note_on_c, 5, 59, 0
7, 47835, Note_on_c, 5, 71, 0
7, 47850, Note_on_c, 5, 71, 100
7, 47850, Note_on_c, 5, 59, 100
7, 47865, Note_on_c, 5, 59, 0
7, 47865, Note_on_c, 5, 71, 0
7, 47880, Note_on_c, 5, 74, 100
7, 47880, Note_on_c, 5, 62, 100
7, 47925, Note_on_c, 5, 62, 0
7, 47925, Note_on_c, 5, 74, 0
7, 47940, Note_on_c, 5, 74, 100
7, 47940, Note_on_c, 5, 62, 100
7, 47985, Note_on_c, 5, 62, 0
7, 47985, Note_on_c, 5, 74, 0
7, 48000, Note_on_c, 5, 71, 100
7, 48000, Note_on_c, 5, 59, 100
7, 48015, Note_on_c, 5, 59, 0
7, 48015, Note_on_c, 5, 71, 0
7, 48030, Note_on_c, 5, 59, 100
7, 48030, Note_on_c, 5, 71, 100
7, 48045, Note_on_c, 5, 71, 0
7, 48045, Note_on_c, 5, 59, 0
7, 48060, Note_on_c, 5, 71, 100
7, 48060, Note_on_c, 5, 59, 100
7, 48075, Note_on_c, 5, 59, 0
7, 48075, Note_on_c, 5, 71, 0
7, 48090, Note_on_c, 5, 59, 100
7, 48090, Note_on_c, 5, 71, 100
7, 48105, Note_on_c, 5, 71, 0
7, 48105, Note_on_c, 5, 59, 0
7, 48120, Note_on_c, 5, 59, 100
7, 48120, Note_on_c, 5, 71, 100
7, 48165, Note_on_c, 5, 71, 0
7, 48165, Note_on_c, 5, 59, 0
7, 48180, Note_on_c, 5, 59, 100
7, 48180, Note_on_c, 5, 71, 100
7, 48195, Note_on_c, 5, 71, 0
7, 48195, Note_on_c, 5, 59, 0
7, 48210, Note_on_c, 5, 59, 100
7, 48210, Note_on_c, 5, 71, 100
7, 48225, Note_on_c, 5, 71, 0
7, 48225, Note_on_c, 5, 59, 0
7, 48240, Note_on_c, 5, 71, 100
7, 48240, Note_on_c, 5, 59, 100
7, 48255, Note_on_c, 5, 59, 0
7, 48255, Note_on_c, 5, 71, 0
7, 48270, Note_on_c, 5, 71, 100
7, 48270, Note_on_c, 5, 59, 100
7, 48285, Note_on_c, 5, 59, 0
7, 48285, Note_on_c, 5, 71, 0
7, 48300, Note_on_c, 5, 71, 100
7, 48300, Note_on_c, 5, 59, 100
7, 48315, Note_on_c, 5, 59, 0
7, 48315, Note_on_c, 5, 71, 0
7, 48330, Note_on_c, 5, 59, 100
7, 48330, Note_on_c, 5, 71, 100
7, 48345, Note_on_c, 5, 71, 0
7, 48345, Note_on_c, 5, 59, 0
7, 48360, Note_on_c, 5, 59, 100
7, 48360, Note_on_c, 5, 71, 100
7, 48405, Note_on_c, 5, 71, 0
7, 48405, Note_on_c, 5, 59, 0
7, 48420, Note_on_c, 5, 64, 100
7, 48420, Note_on_c, 5, 76, 100
7, 48435, Note_on_c, 5, 76, 0
7, 48435, Note_on_c, 5, 64, 0
7, 48450, Note_on_c, 5, 64, 100
7, 48450, Note_on_c, 5, 76, 100
7, 48465, Note_on_c, 5, 76, 0
7, 48465, Note_on_c, 5, 64, 0
7, 48480, Note_on_c, 5, 76, 100
7, 48480, Note_on_c, 5, 64, 100
7, 48495, Note_on_c, 5, 64, 0
7, 48495, Note_on_c, 5, 76, 0
7, 48510, Note_on_c, 5, 76, 100
7, 48510, Note_on_c, 5, 64, 100
7, 48525, Note_on_c, 5, 64, 0
7, 48525, Note_on_c, 5, 76, 0
7, 48540, Note_on_c, 5, 64, 100
7, 48540, Note_on_c, 5, 76, 100
7, 48555, Note_on_c, 5, 76, 0
7, 48555, Note_on_c, 5, 64, 0
7, 48570, Note_on_c, 5, 76, 100
7, 48570, Note_on_c, 5, 64, 100
7, 48585, Note_on_c, 5, 64, 0
7, 48585, Note_on_c, 5, 76, 0
7, 48600, Note_on_c, 5, 64, 100
7, 48600, Note_on_c, 5, 76, 100
7, 48645, Note_on_c, 5, 76, 0
7, 48645, Note_on_c, 5, 64, 0
7, 48660, Note_on_c, 5, 62, 100
7, 48660, Note_on_c, 5, 74, 100
7, 48675, Note_on_c, 5, 74, 0
7, 48675, Note_on_c, 5, 62, 0
7, 48690, Note_on_c, 5, 74, 100
7, 48690, Note_on_c, 5, 62, 100
7, 48705, Note_on_c, 5, 62, 0
7, 48705, Note_on_c, 5, 74, 0
7, 48720, Note_on_c, 5, 62, 100
7, 48720, Note_on_c, 5, 74, 100
7, 48735, Note_on_c, 5, 74, 0
7, 48735, Note_on_c, 5, 62, 0
7, 48750, Note_on_c, 5, 74, 100
7, 48750, Note_on_c, 5, 62, 100
7, 48765, Note_on_c, 5, 62, 0
7, 48765, Note_on_c, 5, 74, 0
7, 48780, Note_on_c, 5, 62, 100
7, 48780, Note_on_c, 5, 74, 100
7, 48795, Note_on_c, 5, 74, 0
7, 48795, Note_on_c, 5, 62, 0
7, 48810, Note_on_c, 5, 74, 100
7, 48810, Note_on_c, 5, 62, 100
7, 48825, Note_on_c, 5, 62, 0
7, 48825, Note_on_c, 5, 74, 0
7, 48840, Note_on_c, 5, 62, 100
7, 48840, Note_on_c, 5, 74, 100
7, 48885, Note_on_c, 5, 74, 0
7, 48885, Note_on_c, 5, 62, 0
7, 48900, Note_on_c, 5, 57, 100
7, 48900, Note_on_c, 5, 69, 100
7, 48945, Note_on_c, 5, 69, 0
7, 48945, Note_on_c, 5, 57, 0
7, 48960, Note_on_c, 5, 71, 100
7, 48960, Note_on_c, 5, 59, 100
7, 48975, Note_on_c, 5, 59, 0
7, 48975, Note_on_c, 5, 71, 0
7, 48990, Note_on_c, 5, 59, 100
7, 48990, Note_on_c, 5, 71, 100
7, 49005, Note_on_c, 5, 71, 0
7, 49005, Note_on_c, 5, 59, 0
7, 49020, Note_on_c, 5, 59, 100
7, 49020, Note_on_c, 5, 71, 100
7, 49035, Note_on_c, 5, 71, 0
7, 49035, Note_on_c, 5, 59, 0
7, 49050, Note_on_c, 5, 71, 100
7, 49050, Note_on_c, 5, 59, 100
7, 49065, Note_on_c, 5, 59, 0
7, 49065, Note_on_c, 5, 71, 0
7, 49080, Note_on_c, 5, 59, 100
7, 49080, Note_on_c, 5, 71, 100
7, 49125, Note_on_c, 5, 71, 0
7, 49125, Note_on_c, 5, 59, 0
7, 49140, Note_on_c, 5, 71, 100
7, 49140, Note_on_c, 5, 59, 100
7, 49155, Note_on_c, 5, 59, 0
7, 49155, Note_on_c, 5, 71, 0
7, 49170, Note_on_c, 5, 71, 100
7, 49170, Note_on_c, 5, 59, 100
7, 49185, Note_on_c, 5, 59, 0
7, 49185, Note_on_c, 5, 71, 0
7, 49200, Note_on_c, 5, 71, 100
7, 49200, Note_on_c, 5, 59, 100
7, 49215, Note_on_c, 5, 59, 0
7, 49215, Note_on_c, 5, 71, 0
7, 49230, Note_on_c, 5, 59, 100
7, 49230, Note_on_c, 5, 71, 100
7, 49245, Note_on_c, 5, 71, 0
7, 49245, Note_on_c, 5, 59, 0
7, 49260, Note_on_c, 5, 71, 100
7, 49260, Note_on_c, 5, 59, 100
7, 49275, Note_on_c, 5, 59, 0
7, 49275, Note_on_c, 5, 71, 0
7, 49290, Note_on_c, 5, 71, 100
7, 49290, Note_on_c, 5, 59, 100
7, 49305, Note_on_c, 5, 59, 0
7, 49305, Note_on_c, 5, 71, 0
7, 49320, Note_on_c, 5, 59, 100
7, 49320, Note_on_c, 5, 71, 100
7, 49365, Note_on_c, 5, 71, 0
7, 49365, Note_on_c, 5, 59, 0
7, 49380, Note_on_c, 5, 74, 100
7, 49380, Note_on_c, 5, 62, 100
7, 49425, Note_on_c, 5, 62, 0
7, 49425, Note_on_c, 5, 74, 0
7, 49440, Note_on_c, 5, 59, 100
7, 49440, Note_on_c, 5, 71, 100
7, 49455, Note_on_c, 5, 71, 0
7, 49455, Note_on_c, 5, 59, 0
7, 49470, Note_on_c, 5, 71, 100
7, 49470, Note_on_c, 5, 59, 100
7, 49485, Note_on_c, 5, 59, 0
7, 49485, Note_on_c, 5, 71, 0
7, 49500, Note_on_c, 5, 59, 100
7, 49500, Note_on_c, 5, 71, 100
7, 49515, Note_on_c, 5, 71, 0
7, 49515, Note_on_c, 5, 59, 0
7, 49530, Note_on_c, 5, 59, 100
7, 49530, Note_on_c, 5, 71, 100
7, 49545, Note_on_c, 5, 71, 0
7, 49545, Note_on_c, 5, 59, 0
7, 49560, Note_on_c, 5, 71, 100
7, 49560, Note_on_c, 5, 59, 100
7, 49605, Note_on_c, 5, 59, 0
7, 49605, Note_on_c, 5, 71, 0
7, 49620, Note_on_c, 5, 59, 100
7, 49620, Note_on_c, 5, 71, 100
7, 49635, Note_on_c, 5, 71, 0
7, 49635, Note_on_c, 5, 59, 0
7, 49650, Note_on_c, 5, 71, 100
7, 49650, Note_on_c, 5, 59, 100
7, 49665, Note_on_c, 5, 59, 0
7, 49665, Note_on_c, 5, 71, 0
7, 49680, Note_on_c, 5, 59, 100
7, 49680, Note_on_c, 5, 71, 100
7, 49695, Note_on_c, 5, 71, 0
7, 49695, Note_on_c, 5, 59, 0
7, 49710, Note_on_c, 5, 71, 100
7, 49710, Note_on_c, 5, 59, 100
7, 49725, Note_on_c, 5, 59, 0
7, 49725, Note_on_c, 5, 71, 0
7, 49740, Note_on_c, 5, 71, 100
7, 49740, Note_on_c, 5, 59, 100
7, 49755, Note_on_c, 5, 59, 0
7, 49755, Note_on_c, 5, 71, 0
7, 49770, Note_on_c, 5, 59, 100
7, 49770, Note_on_c, 5, 71, 100
7, 49785, Note_on_c, 5, 71, 0
7, 49785, Note_on_c, 5, 59, 0
7, 49800, Note_on_c, 5, 74, 100
7, 49800, Note_on_c, 5, 62, 100
7, 49845, Note_on_c, 5, 62, 0
7, 49845, Note_on_c, 5, 74, 0
7, 49860, Note_on_c, 5, 62, 100
7, 49860, Note_on_c, 5, 74, 100
7, 49905, Note_on_c, 5, 74, 0
7, 49905, Note_on_c, 5, 62, 0
7, 49920, Note_on_c, 5, 71, 100
7, 49920, Note_on_c, 5, 59, 100
7, 49935, Note_on_c, 5, 59, 0
7, 49935, Note_on_c, 5, 71, 0
7, 49950, Note_on_c, 5, 59, 100
7, 49950, Note_on_c, 5, 71, 100
7, 49965, Note_on_c, 5, 71, 0
7, 49965, Note_on_c, 5, 59, 0
7, 49980, Note_on_c, 5, 71, 100
7, 49980, Note_on_c, 5, 59, 100
7, 49995, Note_on_c, 5, 59, 0
7, 49995, Note_on_c, 5, 71, 0
7, 50010, Note_on_c, 5, 71, 100
7, 50010, Note_on_c, 5, 59, 100
7, 50025, Note_on_c, 5, 59, 0
7, 50025, Note_on_c, 5, 71, 0
7, 50040, Note_on_c, 5, 59, 100
7, 50040, Note_on_c, 5, 71, 100
7, 50085, Note_on_c, 5, 71, 0
7, 50085, Note_on_c, 5, 59, 0
7, 50100, Note_on_c, 5, 71, 100
7, 50100, Note_on_c, 5, 59, 100
7, 50115, Note_on_c, 5, 59, 0
7, 50115, Note_on_c, 5, 71, 0
7, 50130, Note_on_c, 5, 59, 100
7, 50130, Note_on_c, 5, 71, 100
7, 50145, Note_on_c, 5, 71, 0
7, 50145, Note_on_c, 5, 59, 0
7, 50160, Note_on_c, 5, 71, 100
7, 50160, Note_on_c, 5, 59, 100
7, 50175, Note_on_c, 5, 59, 0
7, 50175, Note_on_c, 5, 71, 0
7, 50190, Note_on_c, 5, 59, 100
7, 50190, Note_on_c, 5, 71, 100
7, 50205, Note_on_c, 5, 71, 0
7, 50205, Note_on_c, 5, 59, 0
7, 50220, Note_on_c, 5, 71, 100
7, 50220, Note_on_c, 5, 59, 100
7, 50235, Note_on_c, 5, 59, 0
7, 50235, Note_on_c, 5, 71, 0
7, 50250, Note_on_c, 5, 71, 100
7, 50250, Note_on_c, 5, 59, 100
7, 50265, Note_on_c, 5, 59, 0
7, 50265, Note_on_c, 5, 71, 0
7, 50280, Note_on_c, 5, 59, 100
7, 50280, Note_on_c, 5, 71, 100
7, 50325, Note_on_c, 5, 71, 0
7, 50325, Note_on_c, 5, 59, 0
7, 50340, Note_on_c, 5, 76, 100
7, 50340, Note_on_c, 5, 64, 100
7, 50355, Note_on_c, 5, 64, 0
7, 50355, Note_on_c, 5, 76, 0
7, 50370, Note_on_c, 5, 64, 100
7, 50370, Note_on_c, 5, 76, 100
7, 50385, Note_on_c, 5, 76, 0
7, 50385, Note_on_c, 5, 64, 0
7, 50400, Note_on_c, 5, 76, 100
7, 50400, Note_on_c, 5, 64, 100
7, 50415, Note_on_c, 5, 64, 0
7, 50415, Note_on_c, 5, 76, 0
7, 50430, Note_on_c, 5, 64, 100
7, 50430, Note_on_c, 5, 76, 100
7, 50445, Note_on_c, 5, 76, 0
7, 50445, Note_on_c, 5, 64, 0
7, 50460, Note_on_c, 5, 76, 100
7, 50460, Note_on_c, 5, 64, 100
7, 50475, Note_on_c, 5, 64, 0
7, 50475, Note_on_c, 5, 76, 0
7, 50490, Note_on_c, 5, 64, 100
7, 50490, Note_on_c, 5, 76, 100
7, 50505, Note_on_c, 5, 76, 0
7, 50505, Note_on_c, 5, 64, 0
7, 50520, Note_on_c, 5, 76, 100
7, 50520, Note_on_c, 5, 64, 100
7, 50565, Note_on_c, 5, 64, 0
7, 50565, Note_on_c, 5, 76, 0
7, 50580, Note_on_c, 5, 62, 100
7, 50580, Note_on_c, 5, 74, 100
7, 50595, Note_on_c, 5, 74, 0
7, 50595, Note_on_c, 5, 62, 0
7, 50610, Note_on_c, 5, 74, 100
7, 50610, Note_on_c, 5, 62, 100
7, 50625, Note_on_c, 5, 62, 0
7, 50625, Note_on_c, 5, 74, 0
7, 50640, Note_on_c, 5, 74, 100
7, 50640, Note_on_c, 5, 62, 100
7, 50655, Note_on_c, 5, 62, 0
7, 50655, Note_on_c, 5, 74, 0
7, 50670, Note_on_c, 5, 74, 100
7, 50670, Note_on_c, 5, 62, 100
7, 50685, Note_on_c, 5, 62, 0
7, 50685, Note_on_c, 5, 74, 0
7, 50700, Note_on_c, 5, 74, 100
7, 50700, Note_on_c, 5, 62, 100
7, 50715, Note_on_c, 5, 62, 0
7, 50715, Note_on_c, 5, 74, 0
7, 50730, Note_on_c, 5, 62, 100
7, 50730, Note_on_c, 5, 74, 100
7, 50745, Note_on_c, 5, 74, 0
7, 50745, Note_on_c, 5, 62, 0
7, 50760, Note_on_c, 5, 74, 100
7, 50760, Note_on_c, 5, 62, 100
7, 50805, Note_on_c, 5, 62, 0
7, 50805, Note_on_c, 5, 74, 0
7, 50820, Note_on_c, 5, 57, 100
7, 50820, Note_on_c, 5, 69, 100
7, 50865, Note_on_c, 5, 69, 0
7, 50865, Note_on_c, 5, 57, 0
7, 50880, Note_on_c, 5, 71, 100
7, 50880, Note_on_c, 5, 59, 100
7, 50895, Note_on_c, 5, 59, 0
7, 50895, Note_on_c, 5, 71, 0
7, 50910, Note_on_c, 5, 71, 100
7, 50910, Note_on_c, 5, 59, 100
7, 50925, Note_on_c, 5, 59, 0
7, 50925, Note_on_c, 5, 71, 0
7, 50940, Note_on_c, 5, 71, 100
7, 50940, Note_on_c, 5, 59, 100
7, 50955, Note_on_c, 5, 59, 0
7, 50955, Note_on_c, 5, 71, 0
7, 50970, Note_on_c, 5, 71, 100
7, 50970, Note_on_c, 5, 59, 100
7, 50985, Note_on_c, 5, 59, 0
7, 50985, Note_on_c, 5, 71, 0
7, 51000, Note_on_c, 5, 71, 100
7, 51000, Note_on_c, 5, 59, 100
7, 51045, Note_on_c, 5, 59, 0
7, 51045, Note_on_c, 5, 71, 0
7, 51060, Note_on_c, 5, 71, 100
7, 51060, Note_on_c, 5, 59, 100
7, 51075, Note_on_c, 5, 59, 0
7, 51075, Note_on_c, 5, 71, 0
7, 51090, Note_on_c, 5, 71, 100
7, 51090, Note_on_c, 5, 59, 100
7, 51105, Note_on_c, 5, 59, 0
7, 51105, Note_on_c, 5, 71, 0
7, 51120, Note_on_c, 5, 59, 100
7, 51120, Note_on_c, 5, 71, 100
7, 51135, Note_on_c, 5, 71, 0
7, 51135, Note_on_c, 5, 59, 0
7, 51150, Note_on_c, 5, 59, 100
7, 51150, Note_on_c, 5, 71, 100
7, 51165, Note_on_c, 5, 71, 0
7, 51165, Note_on_c, 5, 59, 0
7, 51180, Note_on_c, 5, 59, 100
7, 51180, Note_on_c, 5, 71, 100
7, 51195, Note_on_c, 5, 71, 0
7, 51195, Note_on_c, 5, 59, 0
7, 51210, Note_on_c, 5, 71, 100
7, 51210, Note_on_c, 5, 59, 100
7, 51225, Note_on_c, 5, 59, 0
7, 51225, Note_on_c, 5, 71, 0
7, 51240, Note_on_c, 5, 62, 100
7, 51240, Note_on_c, 5, 74, 100
7, 51285, Note_on_c, 5, 74, 0
7, 51285, Note_on_c, 5, 62, 0
7, 51300, Note_on_c, 5, 74, 100
7, 51300, Note_on_c, 5, 62, 100
7, 51345, Note_on_c, 5, 62, 0
7, 51345, Note_on_c, 5, 74, 0
7, 51360, Note_on_c, 5, 71, 100
7, 51360, Note_on_c, 5, 59, 100
7, 51375, Note_on_c, 5, 59, 0
7, 51375, Note_on_c, 5, 71, 0
7, 51390, Note_on_c, 5, 71, 100
7, 51390, Note_on_c, 5, 59, 100
7, 51405, Note_on_c, 5, 59, 0
7, 51405, Note_on_c, 5, 71, 0
7, 51420, Note_on_c, 5, 71, 100
7, 51420, Note_on_c, 5, 59, 100
7, 51435, Note_on_c, 5, 59, 0
7, 51435, Note_on_c, 5, 71, 0
7, 51450, Note_on_c, 5, 59, 100
7, 51450, Note_on_c, 5, 71, 100
7, 51465, Note_on_c, 5, 71, 0
7, 51465, Note_on_c, 5, 59, 0
7, 51480, Note_on_c, 5, 59, 100
7, 51480, Note_on_c, 5, 71, 100
7, 51525, Note_on_c, 5, 71, 0
7, 51525, Note_on_c, 5, 59, 0
7, 51540, Note_on_c, 5, 71, 100
7, 51540, Note_on_c, 5, 59, 100
7, 51555, Note_on_c, 5, 59, 0
7, 51555, Note_on_c, 5, 71, 0
7, 51570, Note_on_c, 5, 59, 100
7, 51570, Note_on_c, 5, 71, 100
7, 51585, Note_on_c, 5, 71, 0
7, 51585, Note_on_c, 5, 59, 0
7, 51600, Note_on_c, 5, 59, 100
7, 51600, Note_on_c, 5, 71, 100
7, 51615, Note_on_c, 5, 71, 0
7, 51615, Note_on_c, 5, 59, 0
7, 51630, Note_on_c, 5, 59, 100
7, 51630, Note_on_c, 5, 71, 100
7, 51645, Note_on_c, 5, 71, 0
7, 51645, Note_on_c, 5, 59, 0
7, 51660, Note_on_c, 5, 71, 100
7, 51660, Note_on_c, 5, 59, 100
7, 51675, Note_on_c, 5, 59, 0
7, 51675, Note_on_c, 5, 71, 0
7, 51690, Note_on_c, 5, 59, 100
7, 51690, Note_on_c, 5, 71, 100
7, 51705, Note_on_c, 5, 71, 0
7, 51705, Note_on_c, 5, 59, 0
7, 51720, Note_on_c, 5, 62, 100
7, 51720, Note_on_c, 5, 74, 100
7, 51765, Note_on_c, 5, 74, 0
7, 51765, Note_on_c, 5, 62, 0
7, 51780, Note_on_c, 5, 74, 100
7, 51780, Note_on_c, 5, 62, 100
7, 51825, Note_on_c, 5, 62, 0
7, 51825, Note_on_c, 5, 74, 0
7, 51840, Note_on_c, 5, 59, 100
7, 51840, Note_on_c, 5, 71, 100
7, 51855, Note_on_c, 5, 71, 0
7, 51855, Note_on_c, 5, 59, 0
7, 51870, Note_on_c, 5, 59, 100
7, 51870, Note_on_c, 5, 71, 100
7, 51885, Note_on_c, 5, 71, 0
7, 51885, Note_on_c, 5, 59, 0
7, 51900, Note_on_c, 5, 59, 100
7, 51900, Note_on_c, 5, 71, 100
7, 51915, Note_on_c, 5, 71, 0
7, 51915, Note_on_c, 5, 59, 0
7, 51930, Note_on_c, 5, 71, 100
7, 51930, Note_on_c, 5, 59, 100
7, 51945, Note_on_c, 5, 59, 0
7, 51945, Note_on_c, 5, 71, 0
7, 51960, Note_on_c, 5, 62, 100
7, 51960, Note_on_c, 5, 74, 100
7, 52005, Note_on_c, 5, 74, 0
7, 52005, Note_on_c, 5, 62, 0
7, 52020, Note_on_c, 5, 62, 100
7, 52020, Note_on_c, 5, 74, 100
7, 52065, Note_on_c, 5, 74, 0
7, 52065, Note_on_c, 5, 62, 0
7, 52080, Note_on_c, 5, 71, 100
7, 52080, Note_on_c, 5, 59, 100
7, 52095, Note_on_c, 5, 59, 0
7, 52095, Note_on_c, 5, 71, 0
7, 52110, Note_on_c, 5, 59, 100
7, 52110, Note_on_c, 5, 71, 100
7, 52125, Note_on_c, 5, 71, 0
7, 52125, Note_on_c, 5, 59, 0
7, 52140, Note_on_c, 5, 59, 100
7, 52140, Note_on_c, 5, 71, 100
7, 52155, Note_on_c, 5, 71, 0
7, 52155, Note_on_c, 5, 59, 0
7, 52170, Note_on_c, 5, 59, 100
7, 52170, Note_on_c, 5, 71, 100
7, 52185, Note_on_c, 5, 71, 0
7, 52185, Note_on_c, 5, 59, 0
7, 52200, Note_on_c, 5, 74, 100
7, 52200, Note_on_c, 5, 62, 100
7, 52245, Note_on_c, 5, 62, 0
7, 52245, Note_on_c, 5, 74, 0
7, 52260, Note_on_c, 5, 62, 100
7, 52260, Note_on_c, 5, 74, 100
7, 52305, Note_on_c, 5, 74, 0
7, 52305, Note_on_c, 5, 62, 0
7, 52320, Note_on_c, 5, 59, 100
7, 52320, Note_on_c, 5, 71, 100
7, 52335, Note_on_c, 5, 71, 0
7, 52335, Note_on_c, 5, 59, 0
7, 52350, Note_on_c, 5, 71, 100
7, 52350, Note_on_c, 5, 59, 100
7, 52365, Note_on_c, 5, 59, 0
7, 52365, Note_on_c, 5, 71, 0
7, 52380, Note_on_c, 5, 62, 100
7, 52380, Note_on_c, 5, 74, 100
7, 52425, Note_on_c, 5, 74, 0
7, 52425, Note_on_c, 5, 62, 0
7, 52440, Note_on_c, 5, 59, 100
7, 52440, Note_on_c, 5, 71, 100
7, 52455, Note_on_c, 5, 71, 0
7, 52455, Note_on_c, 5, 59, 0
7, 52470, Note_on_c, 5, 59, 100
7, 52470, Note_on_c, 5, 71, 100
7, 52485, Note_on_c, 5, 71, 0
7, 52485, Note_on_c, 5, 59, 0
7, 52500, Note_on_c, 5, 74, 100
7, 52500, Note_on_c, 5, 62, 100
7, 52545, Note_on_c, 5, 62, 0
7, 52545, Note_on_c, 5, 74, 0
7, 52560, Note_on_c, 5, 59, 100
7, 52560, Note_on_c, 5, 71, 100
7, 52575, Note_on_c, 5, 71, 0
7, 52575, Note_on_c, 5, 59, 0
7, 52590, Note_on_c, 5, 59, 100
7, 52590, Note_on_c, 5, 71, 100
7, 52605, Note_on_c, 5, 71, 0
7, 52605, Note_on_c, 5, 59, 0
7, 52620, Note_on_c, 5, 62, 100
7, 52620, Note_on_c, 5, 74, 100
7, 52665, Note_on_c, 5, 74, 0
7, 52665, Note_on_c, 5, 62, 0
7, 52680, Note_on_c, 5, 59, 100
7, 52680, Note_on_c, 5, 71, 100
7, 52695, Note_on_c, 5, 71, 0
7, 52695, Note_on_c, 5, 59, 0
7, 52710, Note_on_c, 5, 71, 100
7, 52710, Note_on_c, 5, 59, 100
7, 52725, Note_on_c, 5, 59, 0
7, 52725, Note_on_c, 5, 71, 0
7, 52740, Note_on_c, 5, 74, 100
7, 52740, Note_on_c, 5, 62, 100
7, 52785, Note_on_c, 5, 62, 0
7, 52785, Note_on_c, 5, 74, 0
7, 52800, Note_on_c, 5, 71, 100
7, 52800, Note_on_c, 5, 59, 100
7, 52815, Note_on_c, 5, 59, 0
7, 52815, Note_on_c, 5, 71, 0
7, 52830, Note_on_c, 5, 71, 100
7, 52830, Note_on_c, 5, 59, 100
7, 52845, Note_on_c, 5, 59, 0
7, 52845, Note_on_c, 5, 71, 0
7, 52860, Note_on_c, 5, 59, 100
7, 52860, Note_on_c, 5, 71, 100
7, 52875, Note_on_c, 5, 71, 0
7, 52875, Note_on_c, 5, 59, 0
7, 52890, Note_on_c, 5, 59, 100
7, 52890, Note_on_c, 5, 71, 100
7, 52905, Note_on_c, 5, 71, 0
7, 52905, Note_on_c, 5, 59, 0
7, 52920, Note_on_c, 5, 71, 100
7, 52920, Note_on_c, 5, 59, 100
7, 52965, Note_on_c, 5, 59, 0
7, 52965, Note_on_c, 5, 71, 0
7, 52980, Note_on_c, 5, 59, 100
7, 52980, Note_on_c, 5, 71, 100
7, 52995, Note_on_c, 5, 71, 0
7, 52995, Note_on_c, 5, 59, 0
7, 53010, Note_on_c, 5, 59, 100
7, 53010, Note_on_c, 5, 71, 100
7, 53025, Note_on_c, 5, 71, 0
7, 53025, Note_on_c, 5, 59, 0
7, 53040, Note_on_c, 5, 59, 100
7, 53040, Note_on_c, 5, 71, 100
7, 53055, Note_on_c, 5, 71, 0
7, 53055, Note_on_c, 5, 59, 0
7, 53070, Note_on_c, 5, 71, 100
7, 53070, Note_on_c, 5, 59, 100
7, 53085, Note_on_c, 5, 59, 0
7, 53085, Note_on_c, 5, 71, 0
7, 53100, Note_on_c, 5, 71, 100
7, 53100, Note_on_c, 5, 59, 100
7, 53115, Note_on_c, 5, 59, 0
7, 53115, Note_on_c, 5, 71, 0
7, 53130, Note_on_c, 5, 71, 100
7, 53130, Note_on_c, 5, 59, 100
7, 53145, Note_on_c, 5, 59, 0
7, 53145, Note_on_c, 5, 71, 0
7, 53160, Note_on_c, 5, 71, 100
7, 53160, Note_on_c, 5, 59, 100
7, 53205, Note_on_c, 5, 59, 0
7, 53205, Note_on_c, 5, 71, 0
7, 53220, Note_on_c, 5, 64, 100
7, 53220, Note_on_c, 5, 76, 100
7, 53235, Note_on_c, 5, 76, 0
7, 53235, Note_on_c, 5, 64, 0
7, 53250, Note_on_c, 5, 64, 100
7, 53250, Note_on_c, 5, 76, 100
7, 53265, Note_on_c, 5, 76, 0
7, 53265, Note_on_c, 5, 64, 0
7, 53280, Note_on_c, 5, 64, 100
7, 53280, Note_on_c, 5, 76, 100
7, 53295, Note_on_c, 5, 76, 0
7, 53295, Note_on_c, 5, 64, 0
7, 53310, Note_on_c, 5, 64, 100
7, 53310, Note_on_c, 5, 76, 100
7, 53325, Note_on_c, 5, 76, 0
7, 53325, Note_on_c, 5, 64, 0
7, 53340, Note_on_c, 5, 76, 100
7, 53340, Note_on_c, 5, 64, 100
7, 53355, Note_on_c, 5, 64, 0
7, 53355, Note_on_c, 5, 76, 0
7, 53370, Note_on_c, 5, 64, 100
7, 53370, Note_on_c, 5, 76, 100
7, 53385, Note_on_c, 5, 76, 0
7, 53385, Note_on_c, 5, 64, 0
7, 53400, Note_on_c, 5, 64, 100
7, 53400, Note_on_c, 5, 76, 100
7, 53445, Note_on_c, 5, 76, 0
7, 53445, Note_on_c, 5, 64, 0
7, 53460, Note_on_c, 5, 62, 100
7, 53460, Note_on_c, 5, 74, 100
7, 53475, Note_on_c, 5, 74, 0
7, 53475, Note_on_c, 5, 62, 0
7, 53490, Note_on_c, 5, 62, 100
7, 53490, Note_on_c, 5, 74, 100
7, 53505, Note_on_c, 5, 74, 0
7, 53505, Note_on_c, 5, 62, 0
7, 53520, Note_on_c, 5, 62, 100
7, 53520, Note_on_c, 5, 74, 100
7, 53535, Note_on_c, 5, 74, 0
7, 53535, Note_on_c, 5, 62, 0
7, 53550, Note_on_c, 5, 62, 100
7, 53550, Note_on_c, 5, 74, 100
7, 53565, Note_on_c, 5, 74, 0
7, 53565, Note_on_c, 5, 62, 0
7, 53580, Note_on_c, 5, 62, 100
7, 53580, Note_on_c, 5, 74, 100
7, 53595, Note_on_c, 5, 74, 0
7, 53595, Note_on_c, 5, 62, 0
7, 53610, Note_on_c, 5, 74, 100
7, 53610, Note_on_c, 5, 62, 100
7, 53625, Note_on_c, 5, 62, 0
7, 53625, Note_on_c, 5, 74, 0
7, 53640, Note_on_c, 5, 74, 100
7, 53640, Note_on_c, 5, 62, 100
7, 53685, Note_on_c, 5, 62, 0
7, 53685, Note_on_c, 5, 74, 0
7, 53700, Note_on_c, 5, 57, 100
7, 53700, Note_on_c, 5, 69, 100
7, 53715, Note_on_c, 5, 69, 0
7, 53715, Note_on_c, 5, 57, 0
7, 53730, Note_on_c, 5, 69, 100
7, 53730, Note_on_c, 5, 57, 100
7, 53745, Note_on_c, 5, 57, 0
7, 53745, Note_on_c, 5, 69, 0
7, 53760, Note_on_c, 5, 59, 100
7, 53760, Note_on_c, 5, 71, 100
7, 53775, Note_on_c, 5, 71, 0
7, 53775, Note_on_c, 5, 59, 0
7, 53790, Note_on_c, 5, 71, 100
7, 53790, Note_on_c, 5, 59, 100
7, 53805, Note_on_c, 5, 59, 0
7, 53805, Note_on_c, 5, 71, 0
7, 53820, Note_on_c, 5, 71, 100
7, 53820, Note_on_c, 5, 59, 100
7, 53835, Note_on_c, 5, 59, 0
7, 53835, Note_on_c, 5, 71, 0
7, 53850, Note_on_c, 5, 59, 100
7, 53850, Note_on_c, 5, 71, 100
7, 53865, Note_on_c, 5, 71, 0
7, 53865, Note_on_c, 5, 59, 0
7, 53880, Note_on_c, 5, 59, 100
7, 53880, Note_on_c, 5, 71, 100
7, 53925, Note_on_c, 5, 71, 0
7, 53925, Note_on_c, 5, 59, 0
7, 53940, Note_on_c, 5, 59, 100
7, 53940, Note_on_c, 5, 71, 100
7, 53955, Note_on_c, 5, 71, 0
7, 53955, Note_on_c, 5, 59, 0
7, 53970, Note_on_c, 5, 71, 100
7, 53970, Note_on_c, 5, 59, 100
7, 53985, Note_on_c, 5, 59, 0
7, 53985, Note_on_c, 5, 71, 0
7, 54000, Note_on_c, 5, 59, 100
7, 54000, Note_on_c, 5, 71, 100
7, 54015, Note_on_c, 5, 71, 0
7, 54015, Note_on_c, 5, 59, 0
7, 54030, Note_on_c, 5, 71, 100
7, 54030, Note_on_c, 5, 59, 100
7, 54045, Note_on_c, 5, 59, 0
7, 54045, Note_on_c, 5, 71, 0
7, 54060, Note_on_c, 5, 71, 100
7, 54060, Note_on_c, 5, 59, 100
7, 54075, Note_on_c, 5, 59, 0
7, 54075, Note_on_c, 5, 71, 0
7, 54090, Note_on_c, 5, 59, 100
7, 54090, Note_on_c, 5, 71, 100
7, 54105, Note_on_c, 5, 71, 0
7, 54105, Note_on_c, 5, 59, 0
7, 54120, Note_on_c, 5, 59, 100
7, 54120, Note_on_c, 5, 71, 100
7, 54165, Note_on_c, 5, 71, 0
7, 54165, Note_on_c, 5, 59, 0
7, 54180, Note_on_c, 5, 64, 100
7, 54180, Note_on_c, 5, 76, 100
7, 54195, Note_on_c, 5, 76, 0
7, 54195, Note_on_c, 5, 64, 0
7, 54210, Note_on_c, 5, 76, 100
7, 54210, Note_on_c, 5, 64, 100
7, 54225, Note_on_c, 5, 64, 0
7, 54225, Note_on_c, 5, 76, 0
7, 54240, Note_on_c, 5, 59, 100
7, 54240, Note_on_c, 5, 71, 100
7, 54255, Note_on_c, 5, 71, 0
7, 54255, Note_on_c, 5, 59, 0
7, 54270, Note_on_c, 5, 71, 100
7, 54270, Note_on_c, 5, 59, 100
7, 54285, Note_on_c, 5, 59, 0
7, 54285, Note_on_c, 5, 71, 0
7, 54300, Note_on_c, 5, 71, 100
7, 54300, Note_on_c, 5, 59, 100
7, 54315, Note_on_c, 5, 59, 0
7, 54315, Note_on_c, 5, 71, 0
7, 54330, Note_on_c, 5, 59, 100
7, 54330, Note_on_c, 5, 71, 100
7, 54345, Note_on_c, 5, 71, 0
7, 54345, Note_on_c, 5, 59, 0
7, 54360, Note_on_c, 5, 59, 100
7, 54360, Note_on_c, 5, 71, 100
7, 54405, Note_on_c, 5, 71, 0
7, 54405, Note_on_c, 5, 59, 0
7, 54420, Note_on_c, 5, 59, 100
7, 54420, Note_on_c, 5, 71, 100
7, 54435, Note_on_c, 5, 71, 0
7, 54435, Note_on_c, 5, 59, 0
7, 54450, Note_on_c, 5, 71, 100
7, 54450, Note_on_c, 5, 59, 100
7, 54465, Note_on_c, 5, 59, 0
7, 54465, Note_on_c, 5, 71, 0
7, 54480, Note_on_c, 5, 59, 100
7, 54480, Note_on_c, 5, 71, 100
7, 54495, Note_on_c, 5, 71, 0
7, 54495, Note_on_c, 5, 59, 0
7, 54510, Note_on_c, 5, 71, 100
7, 54510, Note_on_c, 5, 59, 100
7, 54525, Note_on_c, 5, 59, 0
7, 54525, Note_on_c, 5, 71, 0
7, 54540, Note_on_c, 5, 71, 100
7, 54540, Note_on_c, 5, 59, 100
7, 54555, Note_on_c, 5, 59, 0
7, 54555, Note_on_c, 5, 71, 0
7, 54570, Note_on_c, 5, 59, 100
7, 54570, Note_on_c, 5, 71, 100
7, 54585, Note_on_c, 5, 71, 0
7, 54585, Note_on_c, 5, 59, 0
7, 54600, Note_on_c, 5, 71, 100
7, 54600, Note_on_c, 5, 59, 100
7, 54645, Note_on_c, 5, 59, 0
7, 54645, Note_on_c, 5, 71, 0
7, 54660, Note_on_c, 5, 64, 100
7, 54660, Note_on_c, 5, 76, 100
7, 54675, Note_on_c, 5, 76, 0
7, 54675, Note_on_c, 5, 64, 0
7, 54690, Note_on_c, 5, 76, 100
7, 54690, Note_on_c, 5, 64, 100
7, 54705, Note_on_c, 5, 64, 0
7, 54705, Note_on_c, 5, 76, 0
7, 54720, Note_on_c, 5, 59, 100
7, 54720, Note_on_c, 5, 71, 100
7, 54735, Note_on_c, 5, 71, 0
7, 54735, Note_on_c, 5, 59, 0
7, 54750, Note_on_c, 5, 71, 100
7, 54750, Note_on_c, 5, 59, 100
7, 54765, Note_on_c, 5, 59, 0
7, 54765, Note_on_c, 5, 71, 0
7, 54780, Note_on_c, 5, 71, 100
7, 54780, Note_on_c, 5, 59, 100
7, 54795, Note_on_c, 5, 59, 0
7, 54795, Note_on_c, 5, 71, 0
7, 54810, Note_on_c, 5, 59, 100
7, 54810, Note_on_c, 5, 71, 100
7, 54825, Note_on_c, 5, 71, 0
7, 54825, Note_on_c, 5, 59, 0
7, 54840, Note_on_c, 5, 71, 100
7, 54840, Note_on_c, 5, 59, 100
7, 54885, Note_on_c, 5, 59, 0
7, 54885, Note_on_c, 5, 71, 0
7, 54900, Note_on_c, 5, 71, 100
7, 54900, Note_on_c, 5, 59, 100
7, 54915, Note_on_c, 5, 59, 0
7, 54915, Note_on_c, 5, 71, 0
7, 54930, Note_on_c, 5, 71, 100
7, 54930, Note_on_c, 5, 59, 100
7, 54945, Note_on_c, 5, 59, 0
7, 54945, Note_on_c, 5, 71, 0
7, 54960, Note_on_c, 5, 71, 100
7, 54960, Note_on_c, 5, 59, 100
7, 54975, Note_on_c, 5, 59, 0
7, 54975, Note_on_c, 5, 71, 0
7, 54990, Note_on_c, 5, 71, 100
7, 54990, Note_on_c, 5, 59, 100
7, 55005, Note_on_c, 5, 59, 0
7, 55005, Note_on_c, 5, 71, 0
7, 55020, Note_on_c, 5, 71, 100
7, 55020, Note_on_c, 5, 59, 100
7, 55035, Note_on_c, 5, 59, 0
7, 55035, Note_on_c, 5, 71, 0
7, 55050, Note_on_c, 5, 71, 100
7, 55050, Note_on_c, 5, 59, 100
7, 55065, Note_on_c, 5, 59, 0
7, 55065, Note_on_c, 5, 71, 0
7, 55080, Note_on_c, 5, 71, 100
7, 55080, Note_on_c, 5, 59, 100
7, 55125, Note_on_c, 5, 59, 0
7, 55125, Note_on_c, 5, 71, 0
7, 55140, Note_on_c, 5, 76, 100
7, 55140, Note_on_c, 5, 64, 100
7, 55155, Note_on_c, 5, 64, 0
7, 55155, Note_on_c, 5, 76, 0
7, 55170, Note_on_c, 5, 64, 100
7, 55170, Note_on_c, 5, 76, 100
7, 55185, Note_on_c, 5, 76, 0
7, 55185, Note_on_c, 5, 64, 0
7, 55200, Note_on_c, 5, 76, 100
7, 55200, Note_on_c, 5, 64, 100
7, 55215, Note_on_c, 5, 64, 0
7, 55215, Note_on_c, 5, 76, 0
7, 55230, Note_on_c, 5, 64, 100
7, 55230, Note_on_c, 5, 76, 100
7, 55245, Note_on_c, 5, 76, 0
7, 55245, Note_on_c, 5, 64, 0
7, 55260, Note_on_c, 5, 64, 100
7, 55260, Note_on_c, 5, 76, 100
7, 55275, Note_on_c, 5, 76, 0
7, 55275, Note_on_c, 5, 64, 0
7, 55290, Note_on_c, 5, 64, 100
7, 55290, Note_on_c, 5, 76, 100
7, 55305, Note_on_c, 5, 76, 0
7, 55305, Note_on_c, 5, 64, 0
7, 55320, Note_on_c, 5, 64, 100
7, 55320, Note_on_c, 5, 76, 100
7, 55365, Note_on_c, 5, 76, 0
7, 55365, Note_on_c, 5, 64, 0
7, 55380, Note_on_c, 5, 62, 100
7, 55380, Note_on_c, 5, 74, 100
7, 55395, Note_on_c, 5, 74, 0
7, 55395, Note_on_c, 5, 62, 0
7, 55410, Note_on_c, 5, 62, 100
7, 55410, Note_on_c, 5, 74, 100
7, 55425, Note_on_c, 5, 74, 0
7, 55425, Note_on_c, 5, 62, 0
7, 55440, Note_on_c, 5, 62, 100
7, 55440, Note_on_c, 5, 74, 100
7, 55455, Note_on_c, 5, 74, 0
7, 55455, Note_on_c, 5, 62, 0
7, 55470, Note_on_c, 5, 62, 100
7, 55470, Note_on_c, 5, 74, 100
7, 55485, Note_on_c, 5, 74, 0
7, 55485, Note_on_c, 5, 62, 0
7, 55500, Note_on_c, 5, 74, 100
7, 55500, Note_on_c, 5, 62, 100
7, 55515, Note_on_c, 5, 62, 0
7, 55515, Note_on_c, 5, 74, 0
7, 55530, Note_on_c, 5, 62, 100
7, 55530, Note_on_c, 5, 74, 100
7, 55545, Note_on_c, 5, 74, 0
7, 55545, Note_on_c, 5, 62, 0
7, 55560, Note_on_c, 5, 62, 100
7, 55560, Note_on_c, 5, 74, 100
7, 55605, Note_on_c, 5, 74, 0
7, 55605, Note_on_c, 5, 62, 0
7, 55620, Note_on_c, 5, 57, 100
7, 55620, Note_on_c, 5, 69, 100
7, 55635, Note_on_c, 5, 69, 0
7, 55635, Note_on_c, 5, 57, 0
7, 55650, Note_on_c, 5, 69, 100
7, 55650, Note_on_c, 5, 57, 100
7, 55665, Note_on_c, 5, 57, 0
7, 55665, Note_on_c, 5, 69, 0
7, 55680, Note_on_c, 5, 59, 100
7, 55680, Note_on_c, 5, 71, 100
7, 55695, Note_on_c, 5, 71, 0
7, 55695, Note_on_c, 5, 59, 0
7, 55710, Note_on_c, 5, 59, 100
7, 55710, Note_on_c, 5, 71, 100
7, 55725, Note_on_c, 5, 71, 0
7, 55725, Note_on_c, 5, 59, 0
7, 55740, Note_on_c, 5, 71, 100
7, 55740, Note_on_c, 5, 59, 100
7, 55755, Note_on_c, 5, 59, 0
7, 55755, Note_on_c, 5, 71, 0
7, 55770, Note_on_c, 5, 59, 100
7, 55770, Note_on_c, 5, 71, 100
7, 55785, Note_on_c, 5, 71, 0
7, 55785, Note_on_c, 5, 59, 0
7, 55800, Note_on_c, 5, 59, 100
7, 55800, Note_on_c, 5, 71, 100
7, 55845, Note_on_c, 5, 71, 0
7, 55845, Note_on_c, 5, 59, 0
7, 55860, Note_on_c, 5, 59, 100
7, 55860, Note_on_c, 5, 71, 100
7, 55875, Note_on_c, 5, 71, 0
7, 55875, Note_on_c, 5, 59, 0
7, 55890, Note_on_c, 5, 71, 100
7, 55890, Note_on_c, 5, 59, 100
7, 55905, Note_on_c, 5, 59, 0
7, 55905, Note_on_c, 5, 71, 0
7, 55920, Note_on_c, 5, 59, 100
7, 55920, Note_on_c, 5, 71, 100
7, 55935, Note_on_c, 5, 71, 0
7, 55935, Note_on_c, 5, 59, 0
7, 55950, Note_on_c, 5, 59, 100
7, 55950, Note_on_c, 5, 71, 100
7, 55965, Note_on_c, 5, 71, 0
7, 55965, Note_on_c, 5, 59, 0
7, 55980, Note_on_c, 5, 71, 100
7, 55980, Note_on_c, 5, 59, 100
7, 55995, Note_on_c, 5, 59, 0
7, 55995, Note_on_c, 5, 71, 0
7, 56010, Note_on_c, 5, 59, 100
7, 56010, Note_on_c, 5, 71, 100
7, 56025, Note_on_c, 5, 71, 0
7, 56025, Note_on_c, 5, 59, 0
7, 56040, Note_on_c, 5, 59, 100
7, 56040, Note_on_c, 5, 71, 100
7, 56085, Note_on_c, 5, 71, 0
7, 56085, Note_on_c, 5, 59, 0
7, 56100, Note_on_c, 5, 64, 100
7, 56100, Note_on_c, 5, 76, 100
7, 56115, Note_on_c, 5, 76, 0
7, 56115, Note_on_c, 5, 64, 0
7, 56130, Note_on_c, 5, 76, 100
7, 56130, Note_on_c, 5, 64, 100
7, 56145, Note_on_c, 5, 64, 0
7, 56145, Note_on_c, 5, 76, 0
7, 56160, Note_on_c, 5, 71, 100
7, 56160, Note_on_c, 5, 59, 100
7, 56175, Note_on_c, 5, 59, 0
7, 56175, Note_on_c, 5, 71, 0
7, 56190, Note_on_c, 5, 59, 100
7, 56190, Note_on_c, 5, 71, 100
7, 56205, Note_on_c, 5, 71, 0
7, 56205, Note_on_c, 5, 59, 0
7, 56220, Note_on_c, 5, 59, 100
7, 56220, Note_on_c, 5, 71, 100
7, 56235, Note_on_c, 5, 71, 0
7, 56235, Note_on_c, 5, 59, 0
7, 56250, Note_on_c, 5, 71, 100
7, 56250, Note_on_c, 5, 59, 100
7, 56265, Note_on_c, 5, 59, 0
7, 56265, Note_on_c, 5, 71, 0
7, 56280, Note_on_c, 5, 71, 100
7, 56280, Note_on_c, 5, 59, 100
7, 56325, Note_on_c, 5, 59, 0
7, 56325, Note_on_c, 5, 71, 0
7, 56340, Note_on_c, 5, 59, 100
7, 56340, Note_on_c, 5, 71, 100
7, 56355, Note_on_c, 5, 71, 0
7, 56355, Note_on_c, 5, 59, 0
7, 56370, Note_on_c, 5, 59, 100
7, 56370, Note_on_c, 5, 71, 100
7, 56385, Note_on_c, 5, 71, 0
7, 56385, Note_on_c, 5, 59, 0
7, 56400, Note_on_c, 5, 71, 100
7, 56400, Note_on_c, 5, 59, 100
7, 56415, Note_on_c, 5, 59, 0
7, 56415, Note_on_c, 5, 71, 0
7, 56430, Note_on_c, 5, 59, 100
7, 56430, Note_on_c, 5, 71, 100
7, 56445, Note_on_c, 5, 71, 0
7, 56445, Note_on_c, 5, 59, 0
7, 56460, Note_on_c, 5, 59, 100
7, 56460, Note_on_c, 5, 71, 100
7, 56475, Note_on_c, 5, 71, 0
7, 56475, Note_on_c, 5, 59, 0
7, 56490, Note_on_c, 5, 71, 100
7, 56490, Note_on_c, 5, 59, 100
7, 56505, Note_on_c, 5, 59, 0
7, 56505, Note_on_c, 5, 71, 0
7, 56520, Note_on_c, 5, 71, 100
7, 56520, Note_on_c, 5, 59, 100
7, 56565, Note_on_c, 5, 59, 0
7, 56565, Note_on_c, 5, 71, 0
7, 56580, Note_on_c, 5, 64, 100
7, 56580, Note_on_c, 5, 76, 100
7, 56595, Note_on_c, 5, 76, 0
7, 56595, Note_on_c, 5, 64, 0
7, 56610, Note_on_c, 5, 64, 100
7, 56610, Note_on_c, 5, 76, 100
7, 56625, Note_on_c, 5, 76, 0
7, 56625, Note_on_c, 5, 64, 0
7, 56640, Note_on_c, 5, 71, 100
7, 56640, Note_on_c, 5, 59, 100
7, 56655, Note_on_c, 5, 59, 0
7, 56655, Note_on_c, 5, 71, 0
7, 56670, Note_on_c, 5, 59, 100
7, 56670, Note_on_c, 5, 71, 100
7, 56685, Note_on_c, 5, 71, 0
7, 56685, Note_on_c, 5, 59, 0
7, 56700, Note_on_c, 5, 59, 100
7, 56700, Note_on_c, 5, 71, 100
7, 56715, Note_on_c, 5, 71, 0
7, 56715, Note_on_c, 5, 59, 0
7, 56730, Note_on_c, 5, 59, 100
7, 56730, Note_on_c, 5, 71, 100
7, 56745, Note_on_c, 5, 71, 0
7, 56745, Note_on_c, 5, 59, 0
7, 56760, Note_on_c, 5, 59, 100
7, 56760, Note_on_c, 5, 71, 100
7, 56805, Note_on_c, 5, 71, 0
7, 56805, Note_on_c, 5, 59, 0
7, 56820, Note_on_c, 5, 71, 100
7, 56820, Note_on_c, 5, 59, 100
7, 56835, Note_on_c, 5, 59, 0
7, 56835, Note_on_c, 5, 71, 0
7, 56850, Note_on_c, 5, 71, 100
7, 56850, Note_on_c, 5, 59, 100
7, 56865, Note_on_c, 5, 59, 0
7, 56865, Note_on_c, 5, 71, 0
7, 56880, Note_on_c, 5, 59, 100
7, 56880, Note_on_c, 5, 71, 100
7, 56895, Note_on_c, 5, 71, 0
7, 56895, Note_on_c, 5, 59, 0
7, 56910, Note_on_c, 5, 59, 100
7, 56910, Note_on_c, 5, 71, 100
7, 56925, Note_on_c, 5, 71, 0
7, 56925, Note_on_c, 5, 59, 0
7, 56940, Note_on_c, 5, 59, 100
7, 56940, Note_on_c, 5, 71, 100
7, 56955, Note_on_c, 5, 71, 0
7, 56955, Note_on_c, 5, 59, 0
7, 56970, Note_on_c, 5, 71, 100
7, 56970, Note_on_c, 5, 59, 100
7, 56985, Note_on_c, 5, 59, 0
7, 56985, Note_on_c, 5, 71, 0
7, 57000, Note_on_c, 5, 71, 100
7, 57000, Note_on_c, 5, 59, 100
7, 57045, Note_on_c, 5, 59, 0
7, 57045, Note_on_c, 5, 71, 0
7, 57060, Note_on_c, 5, 64, 100
7, 57060, Note_on_c, 5, 76, 100
7, 57075, Note_on_c, 5, 76, 0
7, 57075, Note_on_c, 5, 64, 0
7, 57090, Note_on_c, 5, 76, 100
7, 57090, Note_on_c, 5, 64, 100
7, 57105, Note_on_c, 5, 64, 0
7, 57105, Note_on_c, 5, 76, 0
7, 57120, Note_on_c, 5, 76, 100
7, 57120, Note_on_c, 5, 64, 100
7, 57135, Note_on_c, 5, 64, 0
7, 57135, Note_on_c, 5, 76, 0
7, 57150, Note_on_c, 5, 64, 100
7, 57150, Note_on_c, 5, 76, 100
7, 57165, Note_on_c, 5, 76, 0
7, 57165, Note_on_c, 5, 64, 0
7, 57180, Note_on_c, 5, 64, 100
7, 57180, Note_on_c, 5, 76, 100
7, 57195, Note_on_c, 5, 76, 0
7, 57195, Note_on_c, 5, 64, 0
7, 57210, Note_on_c, 5, 76, 100
7, 57210, Note_on_c, 5, 64, 100
7, 57225, Note_on_c, 5, 64, 0
7, 57225, Note_on_c, 5, 76, 0
7, 57240, Note_on_c, 5, 64, 100
7, 57240, Note_on_c, 5, 76, 100
7, 57285, Note_on_c, 5, 76, 0
7, 57285, Note_on_c, 5, 64, 0
7, 57300, Note_on_c, 5, 74, 100
7, 57300, Note_on_c, 5, 62, 100
7, 57315, Note_on_c, 5, 62, 0
7, 57315, Note_on_c, 5, 74, 0
7, 57330, Note_on_c, 5, 74, 100
7, 57330, Note_on_c, 5, 62, 100
7, 57345, Note_on_c, 5, 62, 0
7, 57345, Note_on_c, 5, 74, 0
7, 57360, Note_on_c, 5, 74, 100
7, 57360, Note_on_c, 5, 62, 100
7, 57375, Note_on_c, 5, 62, 0
7, 57375, Note_on_c, 5, 74, 0
7, 57390, Note_on_c, 5, 74, 100
7, 57390, Note_on_c, 5, 62, 100
7, 57405, Note_on_c, 5, 62, 0
7, 57405, Note_on_c, 5, 74, 0
7, 57420, Note_on_c, 5, 62, 100
7, 57420, Note_on_c, 5, 74, 100
7, 57435, Note_on_c, 5, 74, 0
7, 57435, Note_on_c, 5, 62, 0
7, 57450, Note_on_c, 5, 74, 100
7, 57450, Note_on_c, 5, 62, 100
7, 57465, Note_on_c, 5, 62, 0
7, 57465, Note_on_c, 5, 74, 0
7, 57480, Note_on_c, 5, 62, 100
7, 57480, Note_on_c, 5, 74, 100
7, 57525, Note_on_c, 5, 74, 0
7, 57525, Note_on_c, 5, 62, 0
7, 57540, Note_on_c, 5, 69, 100
7, 57540, Note_on_c, 5, 57, 100
7, 57555, Note_on_c, 5, 57, 0
7, 57555, Note_on_c, 5, 69, 0
7, 57570, Note_on_c, 5, 69, 100
7, 57570, Note_on_c, 5, 57, 100
7, 57585, Note_on_c, 5, 57, 0
7, 57585, Note_on_c, 5, 69, 0
7, 57600, Note_on_c, 5, 59, 100
7, 57600, Note_on_c, 5, 71, 100
7, 57615, Note_on_c, 5, 71, 0
7, 57615, Note_on_c, 5, 59, 0
7, 57630, Note_on_c, 5, 71, 100
7, 57630, Note_on_c, 5, 59, 100
7, 57645, Note_on_c, 5, 59, 0
7, 57645, Note_on_c, 5, 71, 0
7, 57660, Note_on_c, 5, 71, 100
7, 57660, Note_on_c, 5, 59, 100
7, 57675, Note_on_c, 5, 59, 0
7, 57675, Note_on_c, 5, 71, 0
7, 57690, Note_on_c, 5, 71, 100
7, 57690, Note_on_c, 5, 59, 100
7, 57705, Note_on_c, 5, 59, 0
7, 57705, Note_on_c, 5, 71, 0
7, 57720, Note_on_c, 5, 59, 100
7, 57720, Note_on_c, 5, 71, 100
7, 57765, Note_on_c, 5, 71, 0
7, 57765, Note_on_c, 5, 59, 0
7, 57780, Note_on_c, 5, 71, 100
7, 57780, Note_on_c, 5, 59, 100
7, 57795, Note_on_c, 5, 59, 0
7, 57795, Note_on_c, 5, 71, 0
7, 57810, Note_on_c, 5, 71, 100
7, 57810, Note_on_c, 5, 59, 100
7, 57825, Note_on_c, 5, 59, 0
7, 57825, Note_on_c, 5, 71, 0
7, 57840, Note_on_c, 5, 71, 100
7, 57840, Note_on_c, 5, 59, 100
7, 57855, Note_on_c, 5, 59, 0
7, 57855, Note_on_c, 5, 71, 0
7, 57870, Note_on_c, 5, 71, 100
7, 57870, Note_on_c, 5, 59, 100
7, 57885, Note_on_c, 5, 59, 0
7, 57885, Note_on_c, 5, 71, 0
7, 57900, Note_on_c, 5, 71, 100
7, 57900, Note_on_c, 5, 59, 100
7, 57915, Note_on_c, 5, 59, 0
7, 57915, Note_on_c, 5, 71, 0
7, 57930, Note_on_c, 5, 71, 100
7, 57930, Note_on_c, 5, 59, 100
7, 57945, Note_on_c, 5, 59, 0
7, 57945, Note_on_c, 5, 71, 0
7, 57960, Note_on_c, 5, 59, 100
7, 57960, Note_on_c, 5, 71, 100
7, 58005, Note_on_c, 5, 71, 0
7, 58005, Note_on_c, 5, 59, 0
7, 58020, Note_on_c, 5, 76, 100
7, 58020, Note_on_c, 5, 64, 100
7, 58035, Note_on_c, 5, 64, 0
7, 58035, Note_on_c, 5, 76, 0
7, 58050, Note_on_c, 5, 76, 100
7, 58050, Note_on_c, 5, 64, 100
7, 58065, Note_on_c, 5, 64, 0
7, 58065, Note_on_c, 5, 76, 0
7, 58080, Note_on_c, 5, 71, 100
7, 58080, Note_on_c, 5, 59, 100
7, 58095, Note_on_c, 5, 59, 0
7, 58095, Note_on_c, 5, 71, 0
7, 58110, Note_on_c, 5, 59, 100
7, 58110, Note_on_c, 5, 71, 100
7, 58125, Note_on_c, 5, 71, 0
7, 58125, Note_on_c, 5, 59, 0
7, 58140, Note_on_c, 5, 59, 100
7, 58140, Note_on_c, 5, 71, 100
7, 58155, Note_on_c, 5, 71, 0
7, 58155, Note_on_c, 5, 59, 0
7, 58170, Note_on_c, 5, 59, 100
7, 58170, Note_on_c, 5, 71, 100
7, 58185, Note_on_c, 5, 71, 0
7, 58185, Note_on_c, 5, 59, 0
7, 58200, Note_on_c, 5, 71, 100
7, 58200, Note_on_c, 5, 59, 100
7, 58245, Note_on_c, 5, 59, 0
7, 58245, Note_on_c, 5, 71, 0
7, 58260, Note_on_c, 5, 59, 100
7, 58260, Note_on_c, 5, 71, 100
7, 58275, Note_on_c, 5, 71, 0
7, 58275, Note_on_c, 5, 59, 0
7, 58290, Note_on_c, 5, 59, 100
7, 58290, Note_on_c, 5, 71, 100
7, 58305, Note_on_c, 5, 71, 0
7, 58305, Note_on_c, 5, 59, 0
7, 58320, Note_on_c, 5, 59, 100
7, 58320, Note_on_c, 5, 71, 100
7, 58335, Note_on_c, 5, 71, 0
7, 58335, Note_on_c, 5, 59, 0
7, 58350, Note_on_c, 5, 59, 100
7, 58350, Note_on_c, 5, 71, 100
7, 58365, Note_on_c, 5, 71, 0
7, 58365, Note_on_c, 5, 59, 0
7, 58380, Note_on_c, 5, 59, 100
7, 58380, Note_on_c, 5, 71, 100
7, 58395, Note_on_c, 5, 71, 0
7, 58395, Note_on_c, 5, 59, 0
7, 58410, Note_on_c, 5, 59, 100
7, 58410, Note_on_c, 5, 71, 100
7, 58425, Note_on_c, 5, 71, 0
7, 58425, Note_on_c, 5, 59, 0
7, 58440, Note_on_c, 5, 71, 100
7, 58440, Note_on_c, 5, 59, 100
7, 58485, Note_on_c, 5, 59, 0
7, 58485, Note_on_c, 5, 71, 0
7, 58500, Note_on_c, 5, 76, 100
7, 58500, Note_on_c, 5, 64, 100
7, 58515, Note_on_c, 5, 64, 0
7, 58515, Note_on_c, 5, 76, 0
7, 58530, Note_on_c, 5, 76, 100
7, 58530, Note_on_c, 5, 64, 100
7, 58545, Note_on_c, 5, 64, 0
7, 58545, Note_on_c, 5, 76, 0
7, 58560, Note_on_c, 5, 71, 100
7, 58560, Note_on_c, 5, 59, 100
7, 58575, Note_on_c, 5, 59, 0
7, 58575, Note_on_c, 5, 71, 0
7, 58590, Note_on_c, 5, 59, 100
7, 58590, Note_on_c, 5, 71, 100
7, 58605, Note_on_c, 5, 71, 0
7, 58605, Note_on_c, 5, 59, 0
7, 58620, Note_on_c, 5, 71, 100
7, 58620, Note_on_c, 5, 59, 100
7, 58635, Note_on_c, 5, 59, 0
7, 58635, Note_on_c, 5, 71, 0
7, 58650, Note_on_c, 5, 59, 100
7, 58650, Note_on_c, 5, 71, 100
7, 58665, Note_on_c, 5, 71, 0
7, 58665, Note_on_c, 5, 59, 0
7, 58680, Note_on_c, 5, 59, 100
7, 58680, Note_on_c, 5, 71, 100
7, 58725, Note_on_c, 5, 71, 0
7, 58725, Note_on_c, 5, 59, 0
7, 58740, Note_on_c, 5, 59, 100
7, 58740, Note_on_c, 5, 71, 100
7, 58755, Note_on_c, 5, 71, 0
7, 58755, Note_on_c, 5, 59, 0
7, 58770, Note_on_c, 5, 59, 100
7, 58770, Note_on_c, 5, 71, 100
7, 58785, Note_on_c, 5, 71, 0
7, 58785, Note_on_c, 5, 59, 0
7, 58800, Note_on_c, 5, 59, 100
7, 58800, Note_on_c, 5, 71, 100
7, 58815, Note_on_c, 5, 71, 0
7, 58815, Note_on_c, 5, 59, 0
7, 58830, Note_on_c, 5, 59, 100
7, 58830, Note_on_c, 5, 71, 100
7, 58845, Note_on_c, 5, 71, 0
7, 58845, Note_on_c, 5, 59, 0
7, 58860, Note_on_c, 5, 71, 100
7, 58860, Note_on_c, 5, 59, 100
7, 58875, Note_on_c, 5, 59, 0
7, 58875, Note_on_c, 5, 71, 0
7, 58890, Note_on_c, 5, 59, 100
7, 58890, Note_on_c, 5, 71, 100
7, 58905, Note_on_c, 5, 71, 0
7, 58905, Note_on_c, 5, 59, 0
7, 58920, Note_on_c, 5, 59, 100
7, 58920, Note_on_c, 5, 71, 100
7, 58965, Note_on_c, 5, 71, 0
7, 58965, Note_on_c, 5, 59, 0
7, 58980, Note_on_c, 5, 76, 100
7, 58980, Note_on_c, 5, 64, 100
7, 58995, Note_on_c, 5, 64, 0
7, 58995, Note_on_c, 5, 76, 0
7, 59010, Note_on_c, 5, 64, 100
7, 59010, Note_on_c, 5, 76, 100
7, 59025, Note_on_c, 5, 76, 0
7, 59025, Note_on_c, 5, 64, 0
7, 59040, Note_on_c, 5, 64, 100
7, 59040, Note_on_c, 5, 76, 100
7, 59055, Note_on_c, 5, 76, 0
7, 59055, Note_on_c, 5, 64, 0
7, 59070, Note_on_c, 5, 64, 100
7, 59070, Note_on_c, 5, 76, 100
7, 59085, Note_on_c, 5, 76, 0
7, 59085, Note_on_c, 5, 64, 0
7, 59100, Note_on_c, 5, 76, 100
7, 59100, Note_on_c, 5, 64, 100
7, 59115, Note_on_c, 5, 64, 0
7, 59115, Note_on_c, 5, 76, 0
7, 59130, Note_on_c, 5, 76, 100
7, 59130, Note_on_c, 5, 64, 100
7, 59145, Note_on_c, 5, 64, 0
7, 59145, Note_on_c, 5, 76, 0
7, 59160, Note_on_c, 5, 76, 100
7, 59160, Note_on_c, 5, 64, 100
7, 59205, Note_on_c, 5, 64, 0
7, 59205, Note_on_c, 5, 76, 0
7, 59220, Note_on_c, 5, 74, 100
7, 59220, Note_on_c, 5, 62, 100
7, 59235, Note_on_c, 5, 62, 0
7, 59235, Note_on_c, 5, 74, 0
7, 59250, Note_on_c, 5, 62, 100
7, 59250, Note_on_c, 5, 74, 100
7, 59265, Note_on_c, 5, 74, 0
7, 59265, Note_on_c, 5, 62, 0
7, 59280, Note_on_c, 5, 62, 100
7, 59280, Note_on_c, 5, 74, 100
7, 59295, Note_on_c, 5, 74, 0
7, 59295, Note_on_c, 5, 62, 0
7, 59310, Note_on_c, 5, 62, 100
7, 59310, Note_on_c, 5, 74, 100
7, 59325, Note_on_c, 5, 74, 0
7, 59325, Note_on_c, 5, 62, 0
7, 59340, Note_on_c, 5, 74, 100
7, 59340, Note_on_c, 5, 62, 100
7, 59355, Note_on_c, 5, 62, 0
7, 59355, Note_on_c, 5, 74, 0
7, 59370, Note_on_c, 5, 62, 100
7, 59370, Note_on_c, 5, 74, 100
7, 59385, Note_on_c, 5, 74, 0
7, 59385, Note_on_c, 5, 62, 0
7, 59400, Note_on_c, 5, 74, 100
7, 59400, Note_on_c, 5, 62, 100
7, 59445, Note_on_c, 5, 62, 0
7, 59445, Note_on_c, 5, 74, 0
7, 59460, Note_on_c, 5, 57, 100
7, 59460, Note_on_c, 5, 69, 100
7, 59475, Note_on_c, 5, 69, 0
7, 59475, Note_on_c, 5, 57, 0
7, 59490, Note_on_c, 5, 69, 100
7, 59490, Note_on_c, 5, 57, 100
7, 59505, Note_on_c, 5, 57, 0
7, 59505, Note_on_c, 5, 69, 0
7, 59520, Note_on_c, 5, 59, 100
7, 59520, Note_on_c, 5, 71, 100
7, 59535, Note_on_c, 5, 71, 0
7, 59535, Note_on_c, 5, 59, 0
7, 59550, Note_on_c, 5, 59, 100
7, 59550, Note_on_c, 5, 71, 100
7, 59565, Note_on_c, 5, 71, 0
7, 59565, Note_on_c, 5, 59, 0
7, 59580, Note_on_c, 5, 71, 100
7, 59580, Note_on_c, 5, 59, 100
7, 59595, Note_on_c, 5, 59, 0
7, 59595, Note_on_c, 5, 71, 0
7, 59610, Note_on_c, 5, 59, 100
7, 59610, Note_on_c, 5, 71, 100
7, 59625, Note_on_c, 5, 71, 0
7, 59625, Note_on_c, 5, 59, 0
7, 59640, Note_on_c, 5, 71, 100
7, 59640, Note_on_c, 5, 59, 100
7, 59685, Note_on_c, 5, 59, 0
7, 59685, Note_on_c, 5, 71, 0
7, 59700, Note_on_c, 5, 59, 100
7, 59700, Note_on_c, 5, 71, 100
7, 59715, Note_on_c, 5, 71, 0
7, 59715, Note_on_c, 5, 59, 0
7, 59730, Note_on_c, 5, 71, 100
7, 59730, Note_on_c, 5, 59, 100
7, 59745, Note_on_c, 5, 59, 0
7, 59745, Note_on_c, 5, 71, 0
7, 59760, Note_on_c, 5, 59, 100
7, 59760, Note_on_c, 5, 71, 100
7, 59775, Note_on_c, 5, 71, 0
7, 59775, Note_on_c, 5, 59, 0
7, 59790, Note_on_c, 5, 59, 100
7, 59790, Note_on_c, 5, 71, 100
7, 59805, Note_on_c, 5, 71, 0
7, 59805, Note_on_c, 5, 59, 0
7, 59820, Note_on_c, 5, 71, 100
7, 59820, Note_on_c, 5, 59, 100
7, 59835, Note_on_c, 5, 59, 0
7, 59835, Note_on_c, 5, 71, 0
7, 59850, Note_on_c, 5, 59, 100
7, 59850, Note_on_c, 5, 71, 100
7, 59865, Note_on_c, 5, 71, 0
7, 59865, Note_on_c, 5, 59, 0
7, 59880, Note_on_c, 5, 71, 100
7, 59880, Note_on_c, 5, 59, 100
7, 59925, Note_on_c, 5, 59, 0
7, 59925, Note_on_c, 5, 71, 0
7, 59940, Note_on_c, 5, 64, 100
7, 59940, Note_on_c, 5, 76, 100
7, 59955, Note_on_c, 5, 76, 0
7, 59955, Note_on_c, 5, 64, 0
7, 59970, Note_on_c, 5, 76, 100
7, 59970, Note_on_c, 5, 64, 100
7, 59985, Note_on_c, 5, 64, 0
7, 59985, Note_on_c, 5, 76, 0
7, 60000, Note_on_c, 5, 59, 100
7, 60000, Note_on_c, 5, 71, 100
7, 60015, Note_on_c, 5, 71, 0
7, 60015, Note_on_c, 5, 59, 0
7, 60030, Note_on_c, 5, 59, 100
7, 60030, Note_on_c, 5, 71, 100
7, 60045, Note_on_c, 5, 71, 0
7, 60045, Note_on_c, 5, 59, 0
7, 60060, Note_on_c, 5, 71, 100
7, 60060, Note_on_c, 5, 59, 100
7, 60075, Note_on_c, 5, 59, 0
7, 60075, Note_on_c, 5, 71, 0
7, 60090, Note_on_c, 5, 59, 100
7, 60090, Note_on_c, 5, 71, 100
7, 60105, Note_on_c, 5, 71, 0
7, 60105, Note_on_c, 5, 59, 0
7, 60120, Note_on_c, 5, 71, 100
7, 60120, Note_on_c, 5, 59, 100
7, 60165, Note_on_c, 5, 59, 0
7, 60165, Note_on_c, 5, 71, 0
7, 60180, Note_on_c, 5, 59, 100
7, 60180, Note_on_c, 5, 71, 100
7, 60195, Note_on_c, 5, 71, 0
7, 60195, Note_on_c, 5, 59, 0
7, 60210, Note_on_c, 5, 71, 100
7, 60210, Note_on_c, 5, 59, 100
7, 60225, Note_on_c, 5, 59, 0
7, 60225, Note_on_c, 5, 71, 0
7, 60240, Note_on_c, 5, 59, 100
7, 60240, Note_on_c, 5, 71, 100
7, 60255, Note_on_c, 5, 71, 0
7, 60255, Note_on_c, 5, 59, 0
7, 60270, Note_on_c, 5, 59, 100
7, 60270, Note_on_c, 5, 71, 100
7, 60285, Note_on_c, 5, 71, 0
7, 60285, Note_on_c, 5, 59, 0
7, 60300, Note_on_c, 5, 71, 100
7, 60300, Note_on_c, 5, 59, 100
7, 60315, Note_on_c, 5, 59, 0
7, 60315, Note_on_c, 5, 71, 0
7, 60330, Note_on_c, 5, 59, 100
7, 60330, Note_on_c, 5, 71, 100
7, 60345, Note_on_c, 5, 71, 0
7, 60345, Note_on_c, 5, 59, 0
7, 60360, Note_on_c, 5, 71, 100
7, 60360, Note_on_c, 5, 59, 100
7, 60405, Note_on_c, 5, 59, 0
7, 60405, Note_on_c, 5, 71, 0
7, 60420, Note_on_c, 5, 64, 100
7, 60420, Note_on_c, 5, 76, 100
7, 60435, Note_on_c, 5, 76, 0
7, 60435, Note_on_c, 5, 64, 0
7, 60450, Note_on_c, 5, 76, 100
7, 60450, Note_on_c, 5, 64, 100
7, 60465, Note_on_c, 5, 64, 0
7, 60465, Note_on_c, 5, 76, 0
7, 60480, Note_on_c, 5, 59, 100
7, 60480, Note_on_c, 5, 71, 100
7, 60495, Note_on_c, 5, 71, 0
7, 60495, Note_on_c, 5, 59, 0
7, 60510, Note_on_c, 5, 71, 100
7, 60510, Note_on_c, 5, 59, 100
7, 60525, Note_on_c, 5, 59, 0
7, 60525, Note_on_c, 5, 71, 0
7, 60540, Note_on_c, 5, 71, 100
7, 60540, Note_on_c, 5, 59, 100
7, 60555, Note_on_c, 5, 59, 0
7, 60555, Note_on_c, 5, 71, 0
7, 60570, Note_on_c, 5, 59, 100
7, 60570, Note_on_c, 5, 71, 100
7, 60585, Note_on_c, 5, 71, 0
7, 60585, Note_on_c, 5, 59, 0
7, 60600, Note_on_c, 5, 71, 100
7, 60600, Note_on_c, 5, 59, 100
7, 60645, Note_on_c, 5, 59, 0
7, 60645, Note_on_c, 5, 71, 0
7, 60660, Note_on_c, 5, 59, 100
7, 60660, Note_on_c, 5, 71, 100
7, 60675, Note_on_c, 5, 71, 0
7, 60675, Note_on_c, 5, 59, 0
7, 60690, Note_on_c, 5, 71, 100
7, 60690, Note_on_c, 5, 59, 100
7, 60705, Note_on_c, 5, 59, 0
7, 60705, Note_on_c, 5, 71, 0
7, 60720, Note_on_c, 5, 59, 100
7, 60720, Note_on_c, 5, 71, 100
7, 60735, Note_on_c, 5, 71, 0
7, 60735, Note_on_c, 5, 59, 0
7, 60750, Note_on_c, 5, 71, 100
7, 60750, Note_on_c, 5, 59, 100
7, 60765, Note_on_c, 5, 59, 0
7, 60765, Note_on_c, 5, 71, 0
7, 60780, Note_on_c, 5, 71, 100
7, 60780, Note_on_c, 5, 59, 100
7, 60795, Note_on_c, 5, 59, 0
7, 60795, Note_on_c, 5, 71, 0
7, 60810, Note_on_c, 5, 59, 100
7, 60810, Note_on_c, 5, 71, 100
7, 60825, Note_on_c, 5, 71, 0
7, 60825, Note_on_c, 5, 59, 0
7, 60840, Note_on_c, 5, 71, 100
7, 60840, Note_on_c, 5, 59, 100
7, 60885, Note_on_c, 5, 59, 0
7, 60885, Note_on_c, 5, 71, 0
7, 60900, Note_on_c, 5, 74, 100
7, 60900, Note_on_c, 5, 62, 100
7, 60945, Note_on_c, 5, 62, 0
7, 60945, Note_on_c, 5, 74, 0
7, 60960, Note_on_c, 5, 71, 100
7, 60960, Note_on_c, 5, 59, 100
7, 60975, Note_on_c, 5, 59, 0
7, 60975, Note_on_c, 5, 71, 0
7, 60990, Note_on_c, 5, 71, 100
7, 60990, Note_on_c, 5, 59, 100
7, 61005, Note_on_c, 5, 59, 0
7, 61005, Note_on_c, 5, 71, 0
7, 61020, Note_on_c, 5, 59, 100
7, 61020, Note_on_c, 5, 71, 100
7, 61035, Note_on_c, 5, 71, 0
7, 61035, Note_on_c, 5, 59, 0
7, 61050, Note_on_c, 5, 59, 100
7, 61050, Note_on_c, 5, 71, 100
7, 61065, Note_on_c, 5, 71, 0
7, 61065, Note_on_c, 5, 59, 0
7, 61080, Note_on_c, 5, 71, 100
7, 61080, Note_on_c, 5, 59, 100
7, 61125, Note_on_c, 5, 59, 0
7, 61125, Note_on_c, 5, 71, 0
7, 61140, Note_on_c, 5, 59, 100
7, 61140, Note_on_c, 5, 71, 100
7, 61155, Note_on_c, 5, 71, 0
7, 61155, Note_on_c, 5, 59, 0
7, 61170, Note_on_c, 5, 59, 100
7, 61170, Note_on_c, 5, 71, 100
7, 61185, Note_on_c, 5, 71, 0
7, 61185, Note_on_c, 5, 59, 0
7, 61200, Note_on_c, 5, 71, 100
7, 61200, Note_on_c, 5, 59, 100
7, 61215, Note_on_c, 5, 59, 0
7, 61215, Note_on_c, 5, 71, 0
7, 61230, Note_on_c, 5, 59, 100
7, 61230, Note_on_c, 5, 71, 100
7, 61245, Note_on_c, 5, 71, 0
7, 61245, Note_on_c, 5, 59, 0
7, 61260, Note_on_c, 5, 71, 100
7, 61260, Note_on_c, 5, 59, 100
7, 61275, Note_on_c, 5, 59, 0
7, 61275, Note_on_c, 5, 71, 0
7, 61290, Note_on_c, 5, 59, 100
7, 61290, Note_on_c, 5, 71, 100
7, 61305, Note_on_c, 5, 71, 0
7, 61305, Note_on_c, 5, 59, 0
7, 61320, Note_on_c, 5, 74, 100
7, 61320, Note_on_c, 5, 62, 100
7, 61365, Note_on_c, 5, 62, 0
7, 61365, Note_on_c, 5, 74, 0
7, 61380, Note_on_c, 5, 62, 100
7, 61380, Note_on_c, 5, 74, 100
7, 61425, Note_on_c, 5, 74, 0
7, 61425, Note_on_c, 5, 62, 0
7, 61440, Note_on_c, 5, 59, 100
7, 61440, Note_on_c, 5, 71, 100
7, 61455, Note_on_c, 5, 71, 0
7, 61455, Note_on_c, 5, 59, 0
7, 61470, Note_on_c, 5, 71, 100
7, 61470, Note_on_c, 5, 59, 100
7, 61485, Note_on_c, 5, 59, 0
7, 61485, Note_on_c, 5, 71, 0
7, 61500, Note_on_c, 5, 71, 100
7, 61500, Note_on_c, 5, 59, 100
7, 61515, Note_on_c, 5, 59, 0
7, 61515, Note_on_c, 5, 71, 0
7, 61530, Note_on_c, 5, 59, 100
7, 61530, Note_on_c, 5, 71, 100
7, 61545, Note_on_c, 5, 71, 0
7, 61545, Note_on_c, 5, 59, 0
7, 61560, Note_on_c, 5, 71, 100
7, 61560, Note_on_c, 5, 59, 100
7, 61605, Note_on_c, 5, 59, 0
7, 61605, Note_on_c, 5, 71, 0
7, 61620, Note_on_c, 5, 59, 100
7, 61620, Note_on_c, 5, 71, 100
7, 61635, Note_on_c, 5, 71, 0
7, 61635, Note_on_c, 5, 59, 0
7, 61650, Note_on_c, 5, 59, 100
7, 61650, Note_on_c, 5, 71, 100
7, 61665, Note_on_c, 5, 71, 0
7, 61665, Note_on_c, 5, 59, 0
7, 61680, Note_on_c, 5, 71, 100
7, 61680, Note_on_c, 5, 59, 100
7, 61695, Note_on_c, 5, 59, 0
7, 61695, Note_on_c, 5, 71, 0
7, 61710, Note_on_c, 5, 71, 100
7, 61710, Note_on_c, 5, 59, 100
7, 61725, Note_on_c, 5, 59, 0
7, 61725, Note_on_c, 5, 71, 0
7, 61740, Note_on_c, 5, 59, 100
7, 61740, Note_on_c, 5, 71, 100
7, 61755, Note_on_c, 5, 71, 0
7, 61755, Note_on_c, 5, 59, 0
7, 61770, Note_on_c, 5, 71, 100
7, 61770, Note_on_c, 5, 59, 100
7, 61785, Note_on_c, 5, 59, 0
7, 61785, Note_on_c, 5, 71, 0
7, 61800, Note_on_c, 5, 71, 100
7, 61800, Note_on_c, 5, 59, 100
7, 61845, Note_on_c, 5, 59, 0
7, 61845, Note_on_c, 5, 71, 0
7, 61860, Note_on_c, 5, 76, 100
7, 61860, Note_on_c, 5, 64, 100
7, 61875, Note_on_c, 5, 64, 0
7, 61875, Note_on_c, 5, 76, 0
7, 61890, Note_on_c, 5, 76, 100
7, 61890, Note_on_c, 5, 64, 100
7, 61905, Note_on_c, 5, 64, 0
7, 61905, Note_on_c, 5, 76, 0
7, 61920, Note_on_c, 5, 76, 100
7, 61920, Note_on_c, 5, 64, 100
7, 61935, Note_on_c, 5, 64, 0
7, 61935, Note_on_c, 5, 76, 0
7, 61950, Note_on_c, 5, 76, 100
7, 61950, Note_on_c, 5, 64, 100
7, 61965, Note_on_c, 5, 64, 0
7, 61965, Note_on_c, 5, 76, 0
7, 61980, Note_on_c, 5, 64, 100
7, 61980, Note_on_c, 5, 76, 100
7, 61995, Note_on_c, 5, 76, 0
7, 61995, Note_on_c, 5, 64, 0
7, 62010, Note_on_c, 5, 76, 100
7, 62010, Note_on_c, 5, 64, 100
7, 62025, Note_on_c, 5, 64, 0
7, 62025, Note_on_c, 5, 76, 0
7, 62040, Note_on_c, 5, 76, 100
7, 62040, Note_on_c, 5, 64, 100
7, 62085, Note_on_c, 5, 64, 0
7, 62085, Note_on_c, 5, 76, 0
7, 62100, Note_on_c, 5, 74, 100
7, 62100, Note_on_c, 5, 62, 100
7, 62115, Note_on_c, 5, 62, 0
7, 62115, Note_on_c, 5, 74, 0
7, 62130, Note_on_c, 5, 74, 100
7, 62130, Note_on_c, 5, 62, 100
7, 62145, Note_on_c, 5, 62, 0
7, 62145, Note_on_c, 5, 74, 0
7, 62160, Note_on_c, 5, 74, 100
7, 62160, Note_on_c, 5, 62, 100
7, 62175, Note_on_c, 5, 62, 0
7, 62175, Note_on_c, 5, 74, 0
7, 62190, Note_on_c, 5, 74, 100
7, 62190, Note_on_c, 5, 62, 100
7, 62205, Note_on_c, 5, 62, 0
7, 62205, Note_on_c, 5, 74, 0
7, 62220, Note_on_c, 5, 62, 100
7, 62220, Note_on_c, 5, 74, 100
7, 62235, Note_on_c, 5, 74, 0
7, 62235, Note_on_c, 5, 62, 0
7, 62250, Note_on_c, 5, 74, 100
7, 62250, Note_on_c, 5, 62, 100
7, 62265, Note_on_c, 5, 62, 0
7, 62265, Note_on_c, 5, 74, 0
7, 62280, Note_on_c, 5, 74, 100
7, 62280, Note_on_c, 5, 62, 100
7, 62325, Note_on_c, 5, 62, 0
7, 62325, Note_on_c, 5, 74, 0
7, 62340, Note_on_c, 5, 69, 100
7, 62340, Note_on_c, 5, 57, 100
7, 62385, Note_on_c, 5, 57, 0
7, 62385, Note_on_c, 5, 69, 0
7, 62400, Note_on_c, 5, 59, 100
7, 62400, Note_on_c, 5, 71, 100
7, 62415, Note_on_c, 5, 71, 0
7, 62415, Note_on_c, 5, 59, 0
7, 62430, Note_on_c, 5, 59, 100
7, 62430, Note_on_c, 5, 71, 100
7, 62445, Note_on_c, 5, 71, 0
7, 62445, Note_on_c, 5, 59, 0
7, 62460, Note_on_c, 5, 71, 100
7, 62460, Note_on_c, 5, 59, 100
7, 62475, Note_on_c, 5, 59, 0
7, 62475, Note_on_c, 5, 71, 0
7, 62490, Note_on_c, 5, 71, 100
7, 62490, Note_on_c, 5, 59, 100
7, 62505, Note_on_c, 5, 59, 0
7, 62505, Note_on_c, 5, 71, 0
7, 62520, Note_on_c, 5, 71, 100
7, 62520, Note_on_c, 5, 59, 100
7, 62565, Note_on_c, 5, 59, 0
7, 62565, Note_on_c, 5, 71, 0
7, 62580, Note_on_c, 5, 71, 100
7, 62580, Note_on_c, 5, 59, 100
7, 62595, Note_on_c, 5, 59, 0
7, 62595, Note_on_c, 5, 71, 0
7, 62610, Note_on_c, 5, 71, 100
7, 62610, Note_on_c, 5, 59, 100
7, 62625, Note_on_c, 5, 59, 0
7, 62625, Note_on_c, 5, 71, 0
7, 62640, Note_on_c, 5, 59, 100
7, 62640, Note_on_c, 5, 71, 100
7, 62655, Note_on_c, 5, 71, 0
7, 62655, Note_on_c, 5, 59, 0
7, 62670, Note_on_c, 5, 59, 100
7, 62670, Note_on_c, 5, 71, 100
7, 62685, Note_on_c, 5, 71, 0
7, 62685, Note_on_c, 5, 59, 0
7, 62700, Note_on_c, 5, 71, 100
7, 62700, Note_on_c, 5, 59, 100
7, 62715, Note_on_c, 5, 59, 0
7, 62715, Note_on_c, 5, 71, 0
7, 62730, Note_on_c, 5, 71, 100
7, 62730, Note_on_c, 5, 59, 100
7, 62745, Note_on_c, 5, 59, 0
7, 62745, Note_on_c, 5, 71, 0
7, 62760, Note_on_c, 5, 71, 100
7, 62760, Note_on_c, 5, 59, 100
7, 62805, Note_on_c, 5, 59, 0
7, 62805, Note_on_c, 5, 71, 0
7, 62820, Note_on_c, 5, 74, 100
7, 62820, Note_on_c, 5, 62, 100
7, 62865, Note_on_c, 5, 62, 0
7, 62865, Note_on_c, 5, 74, 0
7, 62880, Note_on_c, 5, 71, 100
7, 62880, Note_on_c, 5, 59, 100
7, 62895, Note_on_c, 5, 59, 0
7, 62895, Note_on_c, 5, 71, 0
7, 62910, Note_on_c, 5, 59, 100
7, 62910, Note_on_c, 5, 71, 100
7, 62925, Note_on_c, 5, 71, 0
7, 62925, Note_on_c, 5, 59, 0
7, 62940, Note_on_c, 5, 59, 100
7, 62940, Note_on_c, 5, 71, 100
7, 62955, Note_on_c, 5, 71, 0
7, 62955, Note_on_c, 5, 59, 0
7, 62970, Note_on_c, 5, 71, 100
7, 62970, Note_on_c, 5, 59, 100
7, 62985, Note_on_c, 5, 59, 0
7, 62985, Note_on_c, 5, 71, 0
7, 63000, Note_on_c, 5, 71, 100
7, 63000, Note_on_c, 5, 59, 100
7, 63045, Note_on_c, 5, 59, 0
7, 63045, Note_on_c, 5, 71, 0
7, 63060, Note_on_c, 5, 71, 100
7, 63060, Note_on_c, 5, 59, 100
7, 63075, Note_on_c, 5, 59, 0
7, 63075, Note_on_c, 5, 71, 0
7, 63090, Note_on_c, 5, 71, 100
7, 63090, Note_on_c, 5, 59, 100
7, 63105, Note_on_c, 5, 59, 0
7, 63105, Note_on_c, 5, 71, 0
7, 63120, Note_on_c, 5, 71, 100
7, 63120, Note_on_c, 5, 59, 100
7, 63135, Note_on_c, 5, 59, 0
7, 63135, Note_on_c, 5, 71, 0
7, 63150, Note_on_c, 5, 59, 100
7, 63150, Note_on_c, 5, 71, 100
7, 63165, Note_on_c, 5, 71, 0
7, 63165, Note_on_c, 5, 59, 0
7, 63180, Note_on_c, 5, 59, 100
7, 63180, Note_on_c, 5, 71, 100
7, 63195, Note_on_c, 5, 71, 0
7, 63195, Note_on_c, 5, 59, 0
7, 63210, Note_on_c, 5, 71, 100
7, 63210, Note_on_c, 5, 59, 100
7, 63225, Note_on_c, 5, 59, 0
7, 63225, Note_on_c, 5, 71, 0
7, 63240, Note_on_c, 5, 74, 100
7, 63240, Note_on_c, 5, 62, 100
7, 63285, Note_on_c, 5, 62, 0
7, 63285, Note_on_c, 5, 74, 0
7, 63300, Note_on_c, 5, 74, 100
7, 63300, Note_on_c, 5, 62, 100
7, 63345, Note_on_c, 5, 62, 0
7, 63345, Note_on_c, 5, 74, 0
7, 63360, Note_on_c, 5, 71, 100
7, 63360, Note_on_c, 5, 59, 100
7, 63375, Note_on_c, 5, 59, 0
7, 63375, Note_on_c, 5, 71, 0
7, 63390, Note_on_c, 5, 71, 100
7, 63390, Note_on_c, 5, 59, 100
7, 63405, Note_on_c, 5, 59, 0
7, 63405, Note_on_c, 5, 71, 0
7, 63420, Note_on_c, 5, 59, 100
7, 63420, Note_on_c, 5, 71, 100
7, 63435, Note_on_c, 5, 71, 0
7, 63435, Note_on_c, 5, 59, 0
7, 63450, Note_on_c, 5, 59, 100
7, 63450, Note_on_c, 5, 71, 100
7, 63465, Note_on_c, 5, 71, 0
7, 63465, Note_on_c, 5, 59, 0
7, 63480, Note_on_c, 5, 71, 100
7, 63480, Note_on_c, 5, 59, 100
7, 63525, Note_on_c, 5, 59, 0
7, 63525, Note_on_c, 5, 71, 0
7, 63540, Note_on_c, 5, 71, 100
7, 63540, Note_on_c, 5, 59, 100
7, 63555, Note_on_c, 5, 59, 0
7, 63555, Note_on_c, 5, 71, 0
7, 63570, Note_on_c, 5, 71, 100
7, 63570, Note_on_c, 5, 59, 100
7, 63585, Note_on_c, 5, 59, 0
7, 63585, Note_on_c, 5, 71, 0
7, 63600, Note_on_c, 5, 71, 100
7, 63600, Note_on_c, 5, 59, 100
7, 63615, Note_on_c, 5, 59, 0
7, 63615, Note_on_c, 5, 71, 0
7, 63630, Note_on_c, 5, 71, 100
7, 63630, Note_on_c, 5, 59, 100
7, 63645, Note_on_c, 5, 59, 0
7, 63645, Note_on_c, 5, 71, 0
7, 63660, Note_on_c, 5, 59, 100
7, 63660, Note_on_c, 5, 71, 100
7, 63675, Note_on_c, 5, 71, 0
7, 63675, Note_on_c, 5, 59, 0
7, 63690, Note_on_c, 5, 59, 100
7, 63690, Note_on_c, 5, 71, 100
7, 63705, Note_on_c, 5, 71, 0
7, 63705, Note_on_c, 5, 59, 0
7, 63720, Note_on_c, 5, 71, 100
7, 63720, Note_on_c, 5, 59, 100
7, 63765, Note_on_c, 5, 59, 0
7, 63765, Note_on_c, 5, 71, 0
7, 63780, Note_on_c, 5, 76, 100
7, 63780, Note_on_c, 5, 64, 100
7, 63795, Note_on_c, 5, 64, 0
7, 63795, Note_on_c, 5, 76, 0
7, 63810, Note_on_c, 5, 76, 100
7, 63810, Note_on_c, 5, 64, 100
7, 63825, Note_on_c, 5, 64, 0
7, 63825, Note_on_c, 5, 76, 0
7, 63840, Note_on_c, 5, 76, 100
7, 63840, Note_on_c, 5, 64, 100
7, 63855, Note_on_c, 5, 64, 0
7, 63855, Note_on_c, 5, 76, 0
7, 63870, Note_on_c, 5, 76, 100
7, 63870, Note_on_c, 5, 64, 100
7, 63885, Note_on_c, 5, 64, 0
7, 63885, Note_on_c, 5, 76, 0
7, 63900, Note_on_c, 5, 64, 100
7, 63900, Note_on_c, 5, 76, 100
7, 63915, Note_on_c, 5, 76, 0
7, 63915, Note_on_c, 5, 64, 0
7, 63930, Note_on_c, 5, 64, 100
7, 63930, Note_on_c, 5, 76, 100
7, 63945, Note_on_c, 5, 76, 0
7, 63945, Note_on_c, 5, 64, 0
7, 63960, Note_on_c, 5, 64, 100
7, 63960, Note_on_c, 5, 76, 100
7, 64005, Note_on_c, 5, 76, 0
7, 64005, Note_on_c, 5, 64, 0
7, 64020, Note_on_c, 5, 74, 100
7, 64020, Note_on_c, 5, 62, 100
7, 64035, Note_on_c, 5, 62, 0
7, 64035, Note_on_c, 5, 74, 0
7, 64050, Note_on_c, 5, 62, 100
7, 64050, Note_on_c, 5, 74, 100
7, 64065, Note_on_c, 5, 74, 0
7, 64065, Note_on_c, 5, 62, 0
7, 64080, Note_on_c, 5, 62, 100
7, 64080, Note_on_c, 5, 74, 100
7, 64095, Note_on_c, 5, 74, 0
7, 64095, Note_on_c, 5, 62, 0
7, 64110, Note_on_c, 5, 74, 100
7, 64110, Note_on_c, 5, 62, 100
7, 64125, Note_on_c, 5, 62, 0
7, 64125, Note_on_c, 5, 74, 0
7, 64140, Note_on_c, 5, 62, 100
7, 64140, Note_on_c, 5, 74, 100
7, 64155, Note_on_c, 5, 74, 0
7, 64155, Note_on_c, 5, 62, 0
7, 64170, Note_on_c, 5, 62, 100
7, 64170, Note_on_c, 5, 74, 100
7, 64185, Note_on_c, 5, 74, 0
7, 64185, Note_on_c, 5, 62, 0
7, 64200, Note_on_c, 5, 74, 100
7, 64200, Note_on_c, 5, 62, 100
7, 64245, Note_on_c, 5, 62, 0
7, 64245, Note_on_c, 5, 74, 0
7, 64260, Note_on_c, 5, 57, 100
7, 64260, Note_on_c, 5, 69, 100
7, 64305, Note_on_c, 5, 69, 0
7, 64305, Note_on_c, 5, 57, 0
7, 64320, Note_on_c, 5, 59, 100
7, 64320, Note_on_c, 5, 71, 100
7, 64335, Note_on_c, 5, 71, 0
7, 64335, Note_on_c, 5, 59, 0
7, 64350, Note_on_c, 5, 71, 100
7, 64350, Note_on_c, 5, 59, 100
7, 64365, Note_on_c, 5, 59, 0
7, 64365, Note_on_c, 5, 71, 0
7, 64380, Note_on_c, 5, 71, 100
7, 64380, Note_on_c, 5, 59, 100
7, 64395, Note_on_c, 5, 59, 0
7, 64395, Note_on_c, 5, 71, 0
7, 64410, Note_on_c, 5, 59, 100
7, 64410, Note_on_c, 5, 71, 100
7, 64425, Note_on_c, 5, 71, 0
7, 64425, Note_on_c, 5, 59, 0
7, 64440, Note_on_c, 5, 59, 100
7, 64440, Note_on_c, 5, 71, 100
7, 64485, Note_on_c, 5, 71, 0
7, 64485, Note_on_c, 5, 59, 0
7, 64500, Note_on_c, 5, 71, 100
7, 64500, Note_on_c, 5, 59, 100
7, 64515, Note_on_c, 5, 59, 0
7, 64515, Note_on_c, 5, 71, 0
7, 64530, Note_on_c, 5, 59, 100
7, 64530, Note_on_c, 5, 71, 100
7, 64545, Note_on_c, 5, 71, 0
7, 64545, Note_on_c, 5, 59, 0
7, 64560, Note_on_c, 5, 59, 100
7, 64560, Note_on_c, 5, 71, 100
7, 64575, Note_on_c, 5, 71, 0
7, 64575, Note_on_c, 5, 59, 0
7, 64590, Note_on_c, 5, 71, 100
7, 64590, Note_on_c, 5, 59, 100
7, 64605, Note_on_c, 5, 59, 0
7, 64605, Note_on_c, 5, 71, 0
7, 64620, Note_on_c, 5, 71, 100
7, 64620, Note_on_c, 5, 59, 100
7, 64635, Note_on_c, 5, 59, 0
7, 64635, Note_on_c, 5, 71, 0
7, 64650, Note_on_c, 5, 71, 100
7, 64650, Note_on_c, 5, 59, 100
7, 64665, Note_on_c, 5, 59, 0
7, 64665, Note_on_c, 5, 71, 0
7, 64680, Note_on_c, 5, 62, 100
7, 64680, Note_on_c, 5, 74, 100
7, 64725, Note_on_c, 5, 74, 0
7, 64725, Note_on_c, 5, 62, 0
7, 64740, Note_on_c, 5, 74, 100
7, 64740, Note_on_c, 5, 62, 100
7, 64785, Note_on_c, 5, 62, 0
7, 64785, Note_on_c, 5, 74, 0
7, 64800, Note_on_c, 5, 71, 100
7, 64800, Note_on_c, 5, 59, 100
7, 64815, Note_on_c, 5, 59, 0
7, 64815, Note_on_c, 5, 71, 0
7, 64830, Note_on_c, 5, 59, 100
7, 64830, Note_on_c, 5, 71, 100
7, 64845, Note_on_c, 5, 71, 0
7, 64845, Note_on_c, 5, 59, 0
7, 64860, Note_on_c, 5, 71, 100
7, 64860, Note_on_c, 5, 59, 100
7, 64875, Note_on_c, 5, 59, 0
7, 64875, Note_on_c, 5, 71, 0
7, 64890, Note_on_c, 5, 71, 100
7, 64890, Note_on_c, 5, 59, 100
7, 64905, Note_on_c, 5, 59, 0
7, 64905, Note_on_c, 5, 71, 0
7, 64920, Note_on_c, 5, 71, 100
7, 64920, Note_on_c, 5, 59, 100
7, 64965, Note_on_c, 5, 59, 0
7, 64965, Note_on_c, 5, 71, 0
7, 64980, Note_on_c, 5, 59, 100
7, 64980, Note_on_c, 5, 71, 100
7, 64995, Note_on_c, 5, 71, 0
7, 64995, Note_on_c, 5, 59, 0
7, 65010, Note_on_c, 5, 71, 100
7, 65010, Note_on_c, 5, 59, 100
7, 65025, Note_on_c, 5, 59, 0
7, 65025, Note_on_c, 5, 71, 0
7, 65040, Note_on_c, 5, 71, 100
7, 65040, Note_on_c, 5, 59, 100
7, 65055, Note_on_c, 5, 59, 0
7, 65055, Note_on_c, 5, 71, 0
7, 65070, Note_on_c, 5, 59, 100
7, 65070, Note_on_c, 5, 71, 100
7, 65085, Note_on_c, 5, 71, 0
7, 65085, Note_on_c, 5, 59, 0
7, 65100, Note_on_c, 5, 71, 100
7, 65100, Note_on_c, 5, 59, 100
7, 65115, Note_on_c, 5, 59, 0
7, 65115, Note_on_c, 5, 71, 0
7, 65130, Note_on_c, 5, 71, 100
7, 65130, Note_on_c, 5, 59, 100
7, 65145, Note_on_c, 5, 59, 0
7, 65145, Note_on_c, 5, 71, 0
7, 65160, Note_on_c, 5, 74, 100
7, 65160, Note_on_c, 5, 62, 100
7, 65205, Note_on_c, 5, 62, 0
7, 65205, Note_on_c, 5, 74, 0
7, 65220, Note_on_c, 5, 62, 100
7, 65220, Note_on_c, 5, 74, 100
7, 65265, Note_on_c, 5, 74, 0
7, 65265, Note_on_c, 5, 62, 0
7, 65280, Note_on_c, 5, 71, 100
7, 65280, Note_on_c, 5, 59, 100
7, 65295, Note_on_c, 5, 59, 0
7, 65295, Note_on_c, 5, 71, 0
7, 65310, Note_on_c, 5, 71, 100
7, 65310, Note_on_c, 5, 59, 100
7, 65325, Note_on_c, 5, 59, 0
7, 65325, Note_on_c, 5, 71, 0
7, 65340, Note_on_c, 5, 59, 100
7, 65340, Note_on_c, 5, 71, 100
7, 65355, Note_on_c, 5, 71, 0
7, 65355, Note_on_c, 5, 59, 0
7, 65370, Note_on_c, 5, 71, 100
7, 65370, Note_on_c, 5, 59, 100
7, 65385, Note_on_c, 5, 59, 0
7, 65385, Note_on_c, 5, 71, 0
7, 65400, Note_on_c, 5, 74, 100
7, 65400, Note_on_c, 5, 62, 100
7, 65445, Note_on_c, 5, 62, 0
7, 65445, Note_on_c, 5, 74, 0
7, 65460, Note_on_c, 5, 74, 100
7, 65460, Note_on_c, 5, 62, 100
7, 65505, Note_on_c, 5, 62, 0
7, 65505, Note_on_c, 5, 74, 0
7, 65520, Note_on_c, 5, 59, 100
7, 65520, Note_on_c, 5, 71, 100
7, 65535, Note_on_c, 5, 71, 0
7, 65535, Note_on_c, 5, 59, 0
7, 65550, Note_on_c, 5, 71, 100
7, 65550, Note_on_c, 5, 59, 100
7, 65565, Note_on_c, 5, 59, 0
7, 65565, Note_on_c, 5, 71, 0
7, 65580, Note_on_c, 5, 71, 100
7, 65580, Note_on_c, 5, 59, 100
7, 65595, Note_on_c, 5, 59, 0
7, 65595, Note_on_c, 5, 71, 0
7, 65610, Note_on_c, 5, 59, 100
7, 65610, Note_on_c, 5, 71, 100
7, 65625, Note_on_c, 5, 71, 0
7, 65625, Note_on_c, 5, 59, 0
7, 65640, Note_on_c, 5, 74, 100
7, 65640, Note_on_c, 5, 62, 100
7, 65685, Note_on_c, 5, 62, 0
7, 65685, Note_on_c, 5, 74, 0
7, 65700, Note_on_c, 5, 74, 100
7, 65700, Note_on_c, 5, 62, 100
7, 65745, Note_on_c, 5, 62, 0
7, 65745, Note_on_c, 5, 74, 0
7, 65760, Note_on_c, 5, 71, 100
7, 65760, Note_on_c, 5, 59, 100
7, 65775, Note_on_c, 5, 59, 0
7, 65775, Note_on_c, 5, 71, 0
7, 65790, Note_on_c, 5, 59, 100
7, 65790, Note_on_c, 5, 71, 100
7, 65805, Note_on_c, 5, 71, 0
7, 65805, Note_on_c, 5, 59, 0
7, 65820, Note_on_c, 5, 74, 100
7, 65820, Note_on_c, 5, 62, 100
7, 65865, Note_on_c, 5, 62, 0
7, 65865, Note_on_c, 5, 74, 0
7, 65880, Note_on_c, 5, 71, 100
7, 65880, Note_on_c, 5, 59, 100
7, 65895, Note_on_c, 5, 59, 0
7, 65895, Note_on_c, 5, 71, 0
7, 65910, Note_on_c, 5, 59, 100
7, 65910, Note_on_c, 5, 71, 100
7, 65925, Note_on_c, 5, 71, 0
7, 65925, Note_on_c, 5, 59, 0
7, 65940, Note_on_c, 5, 74, 100
7, 65940, Note_on_c, 5, 62, 100
7, 65985, Note_on_c, 5, 62, 0
7, 65985, Note_on_c, 5, 74, 0
7, 66000, Note_on_c, 5, 71, 100
7, 66000, Note_on_c, 5, 59, 100
7, 66015, Note_on_c, 5, 59, 0
7, 66015, Note_on_c, 5, 71, 0
7, 66030, Note_on_c, 5, 71, 100
7, 66030, Note_on_c, 5, 59, 100
7, 66045, Note_on_c, 5, 59, 0
7, 66045, Note_on_c, 5, 71, 0
7, 66060, Note_on_c, 5, 62, 100
7, 66060, Note_on_c, 5, 74, 100
7, 66105, Note_on_c, 5, 74, 0
7, 66105, Note_on_c, 5, 62, 0
7, 66120, Note_on_c, 5, 71, 100
7, 66120, Note_on_c, 5, 59, 100
7, 66135, Note_on_c, 5, 59, 0
7, 66135, Note_on_c, 5, 71, 0
7, 66150, Note_on_c, 5, 71, 100
7, 66150, Note_on_c, 5, 59, 100
7, 66165, Note_on_c, 5, 59, 0
7, 66165, Note_on_c, 5, 71, 0
7, 66180, Note_on_c, 5, 62, 100
7, 66180, Note_on_c, 5, 74, 100
7, 66225, Note_on_c, 5, 74, 0
7, 66225, Note_on_c, 5, 62, 0
7, 66225, End_track
8, 0, Start_track
8, 0, Sequencer_specific, 5, 5, 15, 9, 0, 64
8, 0, Sequencer_specific, 15, 5, 15, 6, 71, 101, 110, 101, 114, 97, 108, 32, 77, 73, 68, 73
8, 0, Title_t, ""
8, 0, Control_c, 6, 91, 117
8, 0, Control_c, 6, 74, 127
8, 150, Control_c, 6, 0, 0
8, 151, Control_c, 6, 32, 0
8, 152, Program_c, 6, 109
8, 153, Control_c, 6, 7, 127
8, 153, Control_c, 6, 10, 70
8, 646, Control_c, 6, 99, 1
8, 647, Control_c, 6, 98, 32
8, 648, Control_c, 6, 6, 93
8, 649, Control_c, 6, 38, 96
8, 856, Control_c, 6, 91, 100
8, 943, Control_c, 6, 99, 1
8, 944, Control_c, 6, 98, 33
8, 945, Control_c, 6, 6, 70
8, 946, Control_c, 6, 38, 40
8, 4800, Note_on_c, 6, 52, 100
8, 4815, Note_on_c, 6, 52, 0
8, 4830, Note_on_c, 6, 52, 100
8, 4845, Note_on_c, 6, 52, 0
8, 4860, Note_on_c, 6, 52, 100
8, 4875, Note_on_c, 6, 52, 0
8, 4890, Note_on_c, 6, 52, 100
8, 4905, Note_on_c, 6, 52, 0
8, 4920, Note_on_c, 6, 52, 100
8, 4980, Note_on_c, 6, 52, 0
8, 5640, Note_on_c, 6, 55, 100
8, 5670, Note_on_c, 6, 55, 0
8, 5760, Note_on_c, 6, 52, 100
8, 5775, Note_on_c, 6, 52, 0
8, 5790, Note_on_c, 6, 52, 100
8, 5805, Note_on_c, 6, 52, 0
8, 5820, Note_on_c, 6, 52, 100
8, 5835, Note_on_c, 6, 52, 0
8, 5850, Note_on_c, 6, 52, 100
8, 5865, Note_on_c, 6, 52, 0
8, 5880, Note_on_c, 6, 52, 100
8, 5940, Note_on_c, 6, 52, 0
8, 6720, Note_on_c, 6, 52, 100
8, 6735, Note_on_c, 6, 52, 0
8, 6750, Note_on_c, 6, 52, 100
8, 6765, Note_on_c, 6, 52, 0
8, 6780, Note_on_c, 6, 52, 100
8, 6795, Note_on_c, 6, 52, 0
8, 6810, Note_on_c, 6, 52, 100
8, 6825, Note_on_c, 6, 52, 0
8, 6840, Note_on_c, 6, 52, 100
8, 6900, Note_on_c, 6, 52, 0
8, 7200, Note_on_c, 6, 52, 100
8, 7215, Note_on_c, 6, 52, 0
8, 7230, Note_on_c, 6, 52, 100
8, 7245, Note_on_c, 6, 52, 0
8, 7260, Note_on_c, 6, 52, 100
8, 7275, Note_on_c, 6, 52, 0
8, 7290, Note_on_c, 6, 52, 100
8, 7305, Note_on_c, 6, 52, 0
8, 7320, Note_on_c, 6, 52, 100
8, 7380, Note_on_c, 6, 52, 0
8, 7680, Control_c, 6, 11, 127
8, 7680, Note_on_c, 6, 52, 100
8, 7695, Note_on_c, 6, 52, 0
8, 7702, Control_c, 6, 11, 126
8, 7710, Note_on_c, 6, 52, 100
8, 7725, Note_on_c, 6, 52, 0
8, 7725, Control_c, 6, 11, 125
8, 7740, Note_on_c, 6, 52, 100
8, 7748, Control_c, 6, 11, 124
8, 7755, Note_on_c, 6, 52, 0
8, 7770, Note_on_c, 6, 52, 100
8, 7771, Control_c, 6, 11, 123
8, 7785, Note_on_c, 6, 52, 0
8, 7794, Control_c, 6, 11, 122
8, 7800, Note_on_c, 6, 52, 100
8, 7817, Control_c, 6, 11, 121
8, 7839, Control_c, 6, 11, 120
8, 7860, Note_on_c, 6, 52, 0
8, 7862, Control_c, 6, 11, 119
8, 7885, Control_c, 6, 11, 118
8, 7908, Control_c, 6, 11, 117
8, 7920, Note_on_c, 6, 52, 100
8, 7931, Control_c, 6, 11, 116
8, 7935, Note_on_c, 6, 52, 0
8, 7950, Note_on_c, 6, 52, 100
8, 7954, Control_c, 6, 11, 115
8, 7965, Note_on_c, 6, 52, 0
8, 7976, Control_c, 6, 11, 114
8, 7980, Note_on_c, 6, 52, 100
8, 7995, Note_on_c, 6, 52, 0
8, 7999, Control_c, 6, 11, 113
8, 8010, Note_on_c, 6, 52, 100
8, 8022, Control_c, 6, 11, 112
8, 8025, Note_on_c, 6, 52, 0
8, 8040, Note_on_c, 6, 52, 100
8, 8045, Control_c, 6, 11, 111
8, 8068, Control_c, 6, 11, 110
8, 8091, Control_c, 6, 11, 109
8, 8100, Note_on_c, 6, 52, 0
8, 8113, Control_c, 6, 11, 108
8, 8136, Control_c, 6, 11, 107
8, 8159, Control_c, 6, 11, 106
8, 8160, Note_on_c, 6, 52, 100
8, 8175, Note_on_c, 6, 52, 0
8, 8182, Control_c, 6, 11, 105
8, 8190, Note_on_c, 6, 52, 100
8, 8205, Note_on_c, 6, 52, 0
8, 8205, Control_c, 6, 11, 104
8, 8220, Note_on_c, 6, 52, 100
8, 8228, Control_c, 6, 11, 103
8, 8235, Note_on_c, 6, 52, 0
8, 8250, Control_c, 6, 11, 102
8, 8250, Note_on_c, 6, 52, 100
8, 8265, Note_on_c, 6, 52, 0
8, 8273, Control_c, 6, 11, 101
8, 8280, Note_on_c, 6, 52, 100
8, 8296, Control_c, 6, 11, 100
8, 8319, Control_c, 6, 11, 99
8, 8325, Note_on_c, 6, 52, 0
8, 8340, Note_on_c, 6, 52, 100
8, 8342, Control_c, 6, 11, 98
8, 8355, Note_on_c, 6, 52, 0
8, 8365, Control_c, 6, 11, 97
8, 8387, Control_c, 6, 11, 96
8, 8400, Note_on_c, 6, 52, 100
8, 8410, Control_c, 6, 11, 95
8, 8415, Note_on_c, 6, 52, 0
8, 8430, Note_on_c, 6, 52, 100
8, 8433, Control_c, 6, 11, 94
8, 8445, Note_on_c, 6, 52, 0
8, 8456, Control_c, 6, 11, 93
8, 8460, Note_on_c, 6, 52, 100
8, 8475, Note_on_c, 6, 52, 0
8, 8479, Control_c, 6, 11, 92
8, 8490, Note_on_c, 6, 52, 100
8, 8502, Control_c, 6, 11, 91
8, 8505, Note_on_c, 6, 52, 0
8, 8520, Note_on_c, 6, 52, 100
8, 8524, Control_c, 6, 11, 90
8, 8547, Control_c, 6, 11, 89
8, 8565, Note_on_c, 6, 52, 0
8, 8570, Control_c, 6, 11, 88
8, 8580, Note_on_c, 6, 52, 100
8, 8593, Control_c, 6, 11, 87
8, 8595, Note_on_c, 6, 52, 0
8, 8616, Control_c, 6, 11, 86
8, 8639, Control_c, 6, 11, 85
8, 8640, Control_c, 6, 11, 127
8, 8640, Note_on_c, 6, 52, 100
8, 8655, Note_on_c, 6, 52, 0
8, 8670, Note_on_c, 6, 52, 100
8, 8685, Note_on_c, 6, 52, 0
8, 8700, Note_on_c, 6, 52, 100
8, 8715, Note_on_c, 6, 52, 0
8, 8730, Note_on_c, 6, 52, 100
8, 8745, Note_on_c, 6, 52, 0
8, 8760, Note_on_c, 6, 52, 100
8, 8805, Note_on_c, 6, 52, 0
8, 8820, Note_on_c, 6, 52, 100
8, 8835, Note_on_c, 6, 52, 0
8, 8850, Note_on_c, 6, 52, 100
8, 8865, Note_on_c, 6, 52, 0
8, 8880, Note_on_c, 6, 52, 100
8, 8895, Note_on_c, 6, 52, 0
8, 8910, Note_on_c, 6, 52, 100
8, 8925, Note_on_c, 6, 52, 0
8, 8940, Note_on_c, 6, 52, 100
8, 8955, Note_on_c, 6, 52, 0
8, 8970, Note_on_c, 6, 52, 100
8, 8985, Note_on_c, 6, 52, 0
8, 9000, Note_on_c, 6, 52, 100
8, 9045, Note_on_c, 6, 52, 0
8, 9060, Note_on_c, 6, 57, 100
8, 9075, Note_on_c, 6, 57, 0
8, 9090, Note_on_c, 6, 57, 100
8, 9105, Note_on_c, 6, 57, 0
8, 9120, Note_on_c, 6, 57, 100
8, 9135, Note_on_c, 6, 57, 0
8, 9150, Note_on_c, 6, 57, 100
8, 9165, Note_on_c, 6, 57, 0
8, 9180, Note_on_c, 6, 57, 100
8, 9195, Note_on_c, 6, 57, 0
8, 9210, Note_on_c, 6, 57, 100
8, 9225, Note_on_c, 6, 57, 0
8, 9240, Note_on_c, 6, 57, 100
8, 9285, Note_on_c, 6, 57, 0
8, 9300, Note_on_c, 6, 55, 100
8, 9315, Note_on_c, 6, 55, 0
8, 9330, Note_on_c, 6, 55, 100
8, 9345, Note_on_c, 6, 55, 0
8, 9360, Note_on_c, 6, 55, 100
8, 9375, Note_on_c, 6, 55, 0
8, 9390, Note_on_c, 6, 55, 100
8, 9405, Note_on_c, 6, 55, 0
8, 9420, Note_on_c, 6, 55, 100
8, 9435, Note_on_c, 6, 55, 0
8, 9450, Note_on_c, 6, 55, 100
8, 9465, Note_on_c, 6, 55, 0
8, 9480, Note_on_c, 6, 55, 100
8, 9525, Note_on_c, 6, 55, 0
8, 9540, Note_on_c, 6, 50, 100
8, 9555, Note_on_c, 6, 50, 0
8, 9570, Note_on_c, 6, 50, 100
8, 9585, Note_on_c, 6, 50, 0
8, 9600, Note_on_c, 6, 52, 100
8, 9615, Note_on_c, 6, 52, 0
8, 9630, Note_on_c, 6, 52, 100
8, 9645, Note_on_c, 6, 52, 0
8, 9660, Note_on_c, 6, 52, 100
8, 9675, Note_on_c, 6, 52, 0
8, 9690, Note_on_c, 6, 52, 100
8, 9705, Note_on_c, 6, 52, 0
8, 9720, Note_on_c, 6, 52, 100
8, 9765, Note_on_c, 6, 52, 0
8, 9780, Note_on_c, 6, 52, 100
8, 9795, Note_on_c, 6, 52, 0
8, 9810, Note_on_c, 6, 52, 100
8, 9825, Note_on_c, 6, 52, 0
8, 9840, Note_on_c, 6, 52, 100
8, 9855, Note_on_c, 6, 52, 0
8, 9870, Note_on_c, 6, 52, 100
8, 9885, Note_on_c, 6, 52, 0
8, 9900, Note_on_c, 6, 52, 100
8, 9915, Note_on_c, 6, 52, 0
8, 9930, Note_on_c, 6, 52, 100
8, 9945, Note_on_c, 6, 52, 0
8, 9960, Note_on_c, 6, 52, 100
8, 10005, Note_on_c, 6, 52, 0
8, 10020, Note_on_c, 6, 57, 100
8, 10035, Note_on_c, 6, 57, 0
8, 10050, Note_on_c, 6, 57, 100
8, 10065, Note_on_c, 6, 57, 0
8, 10080, Note_on_c, 6, 52, 100
8, 10095, Note_on_c, 6, 52, 0
8, 10110, Note_on_c, 6, 52, 100
8, 10125, Note_on_c, 6, 52, 0
8, 10140, Note_on_c, 6, 52, 100
8, 10155, Note_on_c, 6, 52, 0
8, 10170, Note_on_c, 6, 52, 100
8, 10185, Note_on_c, 6, 52, 0
8, 10200, Note_on_c, 6, 52, 100
8, 10245, Note_on_c, 6, 52, 0
8, 10260, Note_on_c, 6, 52, 100
8, 10275, Note_on_c, 6, 52, 0
8, 10290, Note_on_c, 6, 52, 100
8, 10305, Note_on_c, 6, 52, 0
8, 10320, Note_on_c, 6, 52, 100
8, 10335, Note_on_c, 6, 52, 0
8, 10350, Note_on_c, 6, 52, 100
8, 10365, Note_on_c, 6, 52, 0
8, 10380, Note_on_c, 6, 52, 100
8, 10395, Note_on_c, 6, 52, 0
8, 10410, Note_on_c, 6, 52, 100
8, 10425, Note_on_c, 6, 52, 0
8, 10440, Note_on_c, 6, 52, 100
8, 10485, Note_on_c, 6, 52, 0
8, 10500, Note_on_c, 6, 57, 100
8, 10515, Note_on_c, 6, 57, 0
8, 10530, Note_on_c, 6, 57, 100
8, 10545, Note_on_c, 6, 57, 0
8, 10560, Note_on_c, 6, 52, 100
8, 10575, Note_on_c, 6, 52, 0
8, 10590, Note_on_c, 6, 52, 100
8, 10605, Note_on_c, 6, 52, 0
8, 10620, Note_on_c, 6, 52, 100
8, 10635, Note_on_c, 6, 52, 0
8, 10650, Note_on_c, 6, 52, 100
8, 10665, Note_on_c, 6, 52, 0
8, 10680, Note_on_c, 6, 52, 100
8, 10725, Note_on_c, 6, 52, 0
8, 10740, Note_on_c, 6, 52, 100
8, 10755, Note_on_c, 6, 52, 0
8, 10770, Note_on_c, 6, 52, 100
8, 10785, Note_on_c, 6, 52, 0
8, 10800, Note_on_c, 6, 52, 100
8, 10815, Note_on_c, 6, 52, 0
8, 10830, Note_on_c, 6, 52, 100
8, 10845, Note_on_c, 6, 52, 0
8, 10860, Note_on_c, 6, 52, 100
8, 10875, Note_on_c, 6, 52, 0
8, 10890, Note_on_c, 6, 52, 100
8, 10905, Note_on_c, 6, 52, 0
8, 10920, Note_on_c, 6, 52, 100
8, 10965, Note_on_c, 6, 52, 0
8, 10980, Note_on_c, 6, 57, 100
8, 10995, Note_on_c, 6, 57, 0
8, 11010, Note_on_c, 6, 57, 100
8, 11025, Note_on_c, 6, 57, 0
8, 11040, Note_on_c, 6, 57, 100
8, 11055, Note_on_c, 6, 57, 0
8, 11070, Note_on_c, 6, 57, 100
8, 11085, Note_on_c, 6, 57, 0
8, 11100, Note_on_c, 6, 57, 100
8, 11115, Note_on_c, 6, 57, 0
8, 11130, Note_on_c, 6, 57, 100
8, 11145, Note_on_c, 6, 57, 0
8, 11160, Note_on_c, 6, 57, 100
8, 11205, Note_on_c, 6, 57, 0
8, 11220, Note_on_c, 6, 55, 100
8, 11235, Note_on_c, 6, 55, 0
8, 11250, Note_on_c, 6, 55, 100
8, 11265, Note_on_c, 6, 55, 0
8, 11280, Note_on_c, 6, 55, 100
8, 11295, Note_on_c, 6, 55, 0
8, 11310, Note_on_c, 6, 55, 100
8, 11325, Note_on_c, 6, 55, 0
8, 11340, Note_on_c, 6, 55, 100
8, 11355, Note_on_c, 6, 55, 0
8, 11370, Note_on_c, 6, 55, 100
8, 11385, Note_on_c, 6, 55, 0
8, 11400, Note_on_c, 6, 55, 100
8, 11445, Note_on_c, 6, 55, 0
8, 11460, Note_on_c, 6, 50, 100
8, 11475, Note_on_c, 6, 50, 0
8, 11490, Note_on_c, 6, 50, 100
8, 11505, Note_on_c, 6, 50, 0
8, 11520, Note_on_c, 6, 52, 100
8, 11535, Note_on_c, 6, 52, 0
8, 11550, Note_on_c, 6, 52, 100
8, 11565, Note_on_c, 6, 52, 0
8, 11580, Note_on_c, 6, 52, 100
8, 11595, Note_on_c, 6, 52, 0
8, 11610, Note_on_c, 6, 52, 100
8, 11625, Note_on_c, 6, 52, 0
8, 11640, Note_on_c, 6, 52, 100
8, 11685, Note_on_c, 6, 52, 0
8, 11700, Note_on_c, 6, 52, 100
8, 11715, Note_on_c, 6, 52, 0
8, 11730, Note_on_c, 6, 52, 100
8, 11745, Note_on_c, 6, 52, 0
8, 11760, Note_on_c, 6, 52, 100
8, 11775, Note_on_c, 6, 52, 0
8, 11790, Note_on_c, 6, 52, 100
8, 11805, Note_on_c, 6, 52, 0
8, 11820, Note_on_c, 6, 52, 100
8, 11835, Note_on_c, 6, 52, 0
8, 11850, Note_on_c, 6, 52, 100
8, 11865, Note_on_c, 6, 52, 0
8, 11880, Note_on_c, 6, 52, 100
8, 11925, Note_on_c, 6, 52, 0
8, 11940, Note_on_c, 6, 57, 100
8, 11955, Note_on_c, 6, 57, 0
8, 11970, Note_on_c, 6, 57, 100
8, 11985, Note_on_c, 6, 57, 0
8, 12000, Note_on_c, 6, 52, 100
8, 12015, Note_on_c, 6, 52, 0
8, 12030, Note_on_c, 6, 52, 100
8, 12045, Note_on_c, 6, 52, 0
8, 12060, Note_on_c, 6, 52, 100
8, 12075, Note_on_c, 6, 52, 0
8, 12090, Note_on_c, 6, 52, 100
8, 12105, Note_on_c, 6, 52, 0
8, 12120, Note_on_c, 6, 52, 100
8, 12165, Note_on_c, 6, 52, 0
8, 12180, Note_on_c, 6, 52, 100
8, 12195, Note_on_c, 6, 52, 0
8, 12210, Note_on_c, 6, 52, 100
8, 12225, Note_on_c, 6, 52, 0
8, 12240, Note_on_c, 6, 52, 100
8, 12255, Note_on_c, 6, 52, 0
8, 12270, Note_on_c, 6, 52, 100
8, 12285, Note_on_c, 6, 52, 0
8, 12300, Note_on_c, 6, 52, 100
8, 12315, Note_on_c, 6, 52, 0
8, 12330, Note_on_c, 6, 52, 100
8, 12345, Note_on_c, 6, 52, 0
8, 12360, Note_on_c, 6, 52, 100
8, 12405, Note_on_c, 6, 52, 0
8, 12420, Note_on_c, 6, 57, 100
8, 12435, Note_on_c, 6, 57, 0
8, 12450, Note_on_c, 6, 57, 100
8, 12465, Note_on_c, 6, 57, 0
8, 12480, Note_on_c, 6, 52, 100
8, 12495, Note_on_c, 6, 52, 0
8, 12510, Note_on_c, 6, 52, 100
8, 12525, Note_on_c, 6, 52, 0
8, 12540, Note_on_c, 6, 52, 100
8, 12555, Note_on_c, 6, 52, 0
8, 12570, Note_on_c, 6, 52, 100
8, 12585, Note_on_c, 6, 52, 0
8, 12600, Note_on_c, 6, 52, 100
8, 12645, Note_on_c, 6, 52, 0
8, 12660, Note_on_c, 6, 52, 100
8, 12675, Note_on_c, 6, 52, 0
8, 12690, Note_on_c, 6, 52, 100
8, 12705, Note_on_c, 6, 52, 0
8, 12720, Note_on_c, 6, 52, 100
8, 12735, Note_on_c, 6, 52, 0
8, 12750, Note_on_c, 6, 52, 100
8, 12765, Note_on_c, 6, 52, 0
8, 12780, Note_on_c, 6, 52, 100
8, 12795, Note_on_c, 6, 52, 0
8, 12810, Note_on_c, 6, 52, 100
8, 12825, Note_on_c, 6, 52, 0
8, 12840, Note_on_c, 6, 52, 100
8, 12885, Note_on_c, 6, 52, 0
8, 12900, Note_on_c, 6, 57, 100
8, 12915, Note_on_c, 6, 57, 0
8, 12930, Note_on_c, 6, 57, 100
8, 12945, Note_on_c, 6, 57, 0
8, 12960, Note_on_c, 6, 57, 100
8, 12975, Note_on_c, 6, 57, 0
8, 12990, Note_on_c, 6, 57, 100
8, 13005, Note_on_c, 6, 57, 0
8, 13020, Note_on_c, 6, 57, 100
8, 13035, Note_on_c, 6, 57, 0
8, 13050, Note_on_c, 6, 57, 100
8, 13065, Note_on_c, 6, 57, 0
8, 13080, Note_on_c, 6, 57, 100
8, 13125, Note_on_c, 6, 57, 0
8, 13140, Note_on_c, 6, 55, 100
8, 13155, Note_on_c, 6, 55, 0
8, 13170, Note_on_c, 6, 55, 100
8, 13185, Note_on_c, 6, 55, 0
8, 13200, Note_on_c, 6, 55, 100
8, 13215, Note_on_c, 6, 55, 0
8, 13230, Note_on_c, 6, 55, 100
8, 13245, Note_on_c, 6, 55, 0
8, 13260, Note_on_c, 6, 55, 100
8, 13275, Note_on_c, 6, 55, 0
8, 13290, Note_on_c, 6, 55, 100
8, 13305, Note_on_c, 6, 55, 0
8, 13320, Note_on_c, 6, 55, 100
8, 13365, Note_on_c, 6, 55, 0
8, 13380, Note_on_c, 6, 50, 100
8, 13395, Note_on_c, 6, 50, 0
8, 13410, Note_on_c, 6, 50, 100
8, 13425, Note_on_c, 6, 50, 0
8, 13440, Note_on_c, 6, 52, 100
8, 13455, Note_on_c, 6, 52, 0
8, 13470, Note_on_c, 6, 52, 100
8, 13485, Note_on_c, 6, 52, 0
8, 13500, Note_on_c, 6, 52, 100
8, 13515, Note_on_c, 6, 52, 0
8, 13530, Note_on_c, 6, 52, 100
8, 13545, Note_on_c, 6, 52, 0
8, 13560, Note_on_c, 6, 52, 100
8, 13605, Note_on_c, 6, 52, 0
8, 13620, Note_on_c, 6, 52, 100
8, 13635, Note_on_c, 6, 52, 0
8, 13650, Note_on_c, 6, 52, 100
8, 13665, Note_on_c, 6, 52, 0
8, 13680, Note_on_c, 6, 52, 100
8, 13695, Note_on_c, 6, 52, 0
8, 13710, Note_on_c, 6, 52, 100
8, 13725, Note_on_c, 6, 52, 0
8, 13740, Note_on_c, 6, 52, 100
8, 13755, Note_on_c, 6, 52, 0
8, 13770, Note_on_c, 6, 52, 100
8, 13785, Note_on_c, 6, 52, 0
8, 13800, Note_on_c, 6, 52, 100
8, 13845, Note_on_c, 6, 52, 0
8, 13860, Note_on_c, 6, 57, 100
8, 13875, Note_on_c, 6, 57, 0
8, 13890, Note_on_c, 6, 57, 100
8, 13905, Note_on_c, 6, 57, 0
8, 13920, Note_on_c, 6, 52, 100
8, 13935, Note_on_c, 6, 52, 0
8, 13950, Note_on_c, 6, 52, 100
8, 13965, Note_on_c, 6, 52, 0
8, 13980, Note_on_c, 6, 52, 100
8, 13995, Note_on_c, 6, 52, 0
8, 14010, Note_on_c, 6, 52, 100
8, 14025, Note_on_c, 6, 52, 0
8, 14040, Note_on_c, 6, 52, 100
8, 14085, Note_on_c, 6, 52, 0
8, 14100, Note_on_c, 6, 52, 100
8, 14115, Note_on_c, 6, 52, 0
8, 14130, Note_on_c, 6, 52, 100
8, 14145, Note_on_c, 6, 52, 0
8, 14160, Note_on_c, 6, 52, 100
8, 14175, Note_on_c, 6, 52, 0
8, 14190, Note_on_c, 6, 52, 100
8, 14205, Note_on_c, 6, 52, 0
8, 14220, Note_on_c, 6, 52, 100
8, 14235, Note_on_c, 6, 52, 0
8, 14250, Note_on_c, 6, 52, 100
8, 14265, Note_on_c, 6, 52, 0
8, 14280, Note_on_c, 6, 52, 100
8, 14325, Note_on_c, 6, 52, 0
8, 14340, Note_on_c, 6, 57, 100
8, 14355, Note_on_c, 6, 57, 0
8, 14370, Note_on_c, 6, 57, 100
8, 14385, Note_on_c, 6, 57, 0
8, 14400, Note_on_c, 6, 52, 100
8, 14415, Note_on_c, 6, 52, 0
8, 14430, Note_on_c, 6, 52, 100
8, 14445, Note_on_c, 6, 52, 0
8, 14460, Note_on_c, 6, 52, 100
8, 14475, Note_on_c, 6, 52, 0
8, 14490, Note_on_c, 6, 52, 100
8, 14505, Note_on_c, 6, 52, 0
8, 14520, Note_on_c, 6, 52, 100
8, 14565, Note_on_c, 6, 52, 0
8, 14580, Note_on_c, 6, 52, 100
8, 14595, Note_on_c, 6, 52, 0
8, 14610, Note_on_c, 6, 52, 100
8, 14625, Note_on_c, 6, 52, 0
8, 14640, Note_on_c, 6, 52, 100
8, 14655, Note_on_c, 6, 52, 0
8, 14670, Note_on_c, 6, 52, 100
8, 14685, Note_on_c, 6, 52, 0
8, 14700, Note_on_c, 6, 52, 100
8, 14715, Note_on_c, 6, 52, 0
8, 14730, Note_on_c, 6, 52, 100
8, 14745, Note_on_c, 6, 52, 0
8, 14760, Note_on_c, 6, 52, 100
8, 14805, Note_on_c, 6, 52, 0
8, 14820, Note_on_c, 6, 57, 100
8, 14835, Note_on_c, 6, 57, 0
8, 14850, Note_on_c, 6, 57, 100
8, 14865, Note_on_c, 6, 57, 0
8, 14880, Note_on_c, 6, 57, 100
8, 14895, Note_on_c, 6, 57, 0
8, 14910, Note_on_c, 6, 57, 100
8, 14925, Note_on_c, 6, 57, 0
8, 14940, Note_on_c, 6, 57, 100
8, 14955, Note_on_c, 6, 57, 0
8, 14970, Note_on_c, 6, 57, 100
8, 14985, Note_on_c, 6, 57, 0
8, 15000, Note_on_c, 6, 57, 100
8, 15045, Note_on_c, 6, 57, 0
8, 15060, Note_on_c, 6, 55, 100
8, 15075, Note_on_c, 6, 55, 0
8, 15090, Note_on_c, 6, 55, 100
8, 15105, Note_on_c, 6, 55, 0
8, 15120, Note_on_c, 6, 55, 100
8, 15135, Note_on_c, 6, 55, 0
8, 15150, Note_on_c, 6, 55, 100
8, 15165, Note_on_c, 6, 55, 0
8, 15180, Note_on_c, 6, 55, 100
8, 15195, Note_on_c, 6, 55, 0
8, 15210, Note_on_c, 6, 55, 100
8, 15225, Note_on_c, 6, 55, 0
8, 15240, Note_on_c, 6, 55, 100
8, 15285, Note_on_c, 6, 55, 0
8, 15300, Note_on_c, 6, 50, 100
8, 15315, Note_on_c, 6, 50, 0
8, 15330, Note_on_c, 6, 50, 100
8, 15345, Note_on_c, 6, 50, 0
8, 15360, Note_on_c, 6, 52, 100
8, 15375, Note_on_c, 6, 52, 0
8, 15390, Note_on_c, 6, 52, 100
8, 15405, Note_on_c, 6, 52, 0
8, 15420, Note_on_c, 6, 52, 100
8, 15435, Note_on_c, 6, 52, 0
8, 15450, Note_on_c, 6, 52, 100
8, 15465, Note_on_c, 6, 52, 0
8, 15480, Note_on_c, 6, 52, 100
8, 15525, Note_on_c, 6, 52, 0
8, 15540, Note_on_c, 6, 52, 100
8, 15555, Note_on_c, 6, 52, 0
8, 15570, Note_on_c, 6, 52, 100
8, 15585, Note_on_c, 6, 52, 0
8, 15600, Note_on_c, 6, 52, 100
8, 15615, Note_on_c, 6, 52, 0
8, 15630, Note_on_c, 6, 52, 100
8, 15645, Note_on_c, 6, 52, 0
8, 15660, Note_on_c, 6, 52, 100
8, 15675, Note_on_c, 6, 52, 0
8, 15690, Note_on_c, 6, 52, 100
8, 15705, Note_on_c, 6, 52, 0
8, 15720, Note_on_c, 6, 52, 100
8, 15765, Note_on_c, 6, 52, 0
8, 15780, Note_on_c, 6, 57, 100
8, 15795, Note_on_c, 6, 57, 0
8, 15810, Note_on_c, 6, 57, 100
8, 15825, Note_on_c, 6, 57, 0
8, 15840, Note_on_c, 6, 52, 100
8, 15855, Note_on_c, 6, 52, 0
8, 15870, Note_on_c, 6, 52, 100
8, 15885, Note_on_c, 6, 52, 0
8, 15900, Note_on_c, 6, 52, 100
8, 15915, Note_on_c, 6, 52, 0
8, 15930, Note_on_c, 6, 52, 100
8, 15945, Note_on_c, 6, 52, 0
8, 15960, Note_on_c, 6, 52, 100
8, 16005, Note_on_c, 6, 52, 0
8, 16020, Note_on_c, 6, 52, 100
8, 16035, Note_on_c, 6, 52, 0
8, 16050, Note_on_c, 6, 52, 100
8, 16065, Note_on_c, 6, 52, 0
8, 16080, Note_on_c, 6, 52, 100
8, 16095, Note_on_c, 6, 52, 0
8, 16110, Note_on_c, 6, 52, 100
8, 16125, Note_on_c, 6, 52, 0
8, 16140, Note_on_c, 6, 52, 100
8, 16155, Note_on_c, 6, 52, 0
8, 16170, Note_on_c, 6, 52, 100
8, 16185, Note_on_c, 6, 52, 0
8, 16200, Note_on_c, 6, 52, 100
8, 16245, Note_on_c, 6, 52, 0
8, 16260, Note_on_c, 6, 57, 100
8, 16275, Note_on_c, 6, 57, 0
8, 16290, Note_on_c, 6, 57, 100
8, 16305, Note_on_c, 6, 57, 0
8, 16320, Note_on_c, 6, 52, 100
8, 16335, Note_on_c, 6, 52, 0
8, 16350, Note_on_c, 6, 52, 100
8, 16365, Note_on_c, 6, 52, 0
8, 16380, Note_on_c, 6, 52, 100
8, 16395, Note_on_c, 6, 52, 0
8, 16410, Note_on_c, 6, 52, 100
8, 16425, Note_on_c, 6, 52, 0
8, 16440, Note_on_c, 6, 52, 100
8, 16485, Note_on_c, 6, 52, 0
8, 16500, Note_on_c, 6, 52, 100
8, 16515, Note_on_c, 6, 52, 0
8, 16530, Note_on_c, 6, 52, 100
8, 16545, Note_on_c, 6, 52, 0
8, 16560, Note_on_c, 6, 52, 100
8, 16575, Note_on_c, 6, 52, 0
8, 16590, Note_on_c, 6, 52, 100
8, 16605, Note_on_c, 6, 52, 0
8, 16620, Note_on_c, 6, 52, 100
8, 16635, Note_on_c, 6, 52, 0
8, 16650, Note_on_c, 6, 52, 100
8, 16665, Note_on_c, 6, 52, 0
8, 16680, Note_on_c, 6, 52, 100
8, 16725, Note_on_c, 6, 52, 0
8, 16740, Note_on_c, 6, 55, 100
8, 16785, Note_on_c, 6, 55, 0
8, 16800, Note_on_c, 6, 52, 100
8, 16815, Note_on_c, 6, 52, 0
8, 16830, Note_on_c, 6, 52, 100
8, 16845, Note_on_c, 6, 52, 0
8, 16860, Note_on_c, 6, 52, 100
8, 16875, Note_on_c, 6, 52, 0
8, 16890, Note_on_c, 6, 52, 100
8, 16905, Note_on_c, 6, 52, 0
8, 16920, Note_on_c, 6, 52, 100
8, 16965, Note_on_c, 6, 52, 0
8, 16980, Note_on_c, 6, 52, 100
8, 16995, Note_on_c, 6, 52, 0
8, 17010, Note_on_c, 6, 52, 100
8, 17025, Note_on_c, 6, 52, 0
8, 17040, Note_on_c, 6, 52, 100
8, 17055, Note_on_c, 6, 52, 0
8, 17070, Note_on_c, 6, 52, 100
8, 17085, Note_on_c, 6, 52, 0
8, 17100, Note_on_c, 6, 52, 100
8, 17115, Note_on_c, 6, 52, 0
8, 17130, Note_on_c, 6, 52, 100
8, 17145, Note_on_c, 6, 52, 0
8, 17160, Note_on_c, 6, 55, 100
8, 17205, Note_on_c, 6, 55, 0
8, 17220, Note_on_c, 6, 55, 100
8, 17265, Note_on_c, 6, 55, 0
8, 17280, Note_on_c, 6, 52, 100
8, 17295, Note_on_c, 6, 52, 0
8, 17310, Note_on_c, 6, 52, 100
8, 17325, Note_on_c, 6, 52, 0
8, 17340, Note_on_c, 6, 52, 100
8, 17355, Note_on_c, 6, 52, 0
8, 17370, Note_on_c, 6, 52, 100
8, 17385, Note_on_c, 6, 52, 0
8, 17400, Note_on_c, 6, 52, 100
8, 17445, Note_on_c, 6, 52, 0
8, 17460, Note_on_c, 6, 52, 100
8, 17475, Note_on_c, 6, 52, 0
8, 17490, Note_on_c, 6, 52, 100
8, 17505, Note_on_c, 6, 52, 0
8, 17520, Note_on_c, 6, 52, 100
8, 17535, Note_on_c, 6, 52, 0
8, 17550, Note_on_c, 6, 52, 100
8, 17565, Note_on_c, 6, 52, 0
8, 17580, Note_on_c, 6, 52, 100
8, 17595, Note_on_c, 6, 52, 0
8, 17610, Note_on_c, 6, 52, 100
8, 17625, Note_on_c, 6, 52, 0
8, 17640, Note_on_c, 6, 52, 100
8, 17685, Note_on_c, 6, 52, 0
8, 17700, Note_on_c, 6, 57, 100
8, 17715, Note_on_c, 6, 57, 0
8, 17730, Note_on_c, 6, 57, 100
8, 17745, Note_on_c, 6, 57, 0
8, 17760, Note_on_c, 6, 57, 100
8, 17775, Note_on_c, 6, 57, 0
8, 17790, Note_on_c, 6, 57, 100
8, 17805, Note_on_c, 6, 57, 0
8, 17820, Note_on_c, 6, 57, 100
8, 17835, Note_on_c, 6, 57, 0
8, 17850, Note_on_c, 6, 57, 100
8, 17865, Note_on_c, 6, 57, 0
8, 17880, Note_on_c, 6, 57, 100
8, 17925, Note_on_c, 6, 57, 0
8, 17940, Note_on_c, 6, 55, 100
8, 17955, Note_on_c, 6, 55, 0
8, 17970, Note_on_c, 6, 55, 100
8, 17985, Note_on_c, 6, 55, 0
8, 18000, Note_on_c, 6, 55, 100
8, 18015, Note_on_c, 6, 55, 0
8, 18030, Note_on_c, 6, 55, 100
8, 18045, Note_on_c, 6, 55, 0
8, 18060, Note_on_c, 6, 55, 100
8, 18075, Note_on_c, 6, 55, 0
8, 18090, Note_on_c, 6, 55, 100
8, 18105, Note_on_c, 6, 55, 0
8, 18120, Note_on_c, 6, 55, 100
8, 18165, Note_on_c, 6, 55, 0
8, 18180, Note_on_c, 6, 50, 100
8, 18225, Note_on_c, 6, 50, 0
8, 18240, Note_on_c, 6, 52, 100
8, 18255, Note_on_c, 6, 52, 0
8, 18270, Note_on_c, 6, 52, 100
8, 18285, Note_on_c, 6, 52, 0
8, 18300, Note_on_c, 6, 52, 100
8, 18315, Note_on_c, 6, 52, 0
8, 18330, Note_on_c, 6, 52, 100
8, 18345, Note_on_c, 6, 52, 0
8, 18360, Note_on_c, 6, 52, 100
8, 18405, Note_on_c, 6, 52, 0
8, 18420, Note_on_c, 6, 52, 100
8, 18435, Note_on_c, 6, 52, 0
8, 18450, Note_on_c, 6, 52, 100
8, 18465, Note_on_c, 6, 52, 0
8, 18480, Note_on_c, 6, 52, 100
8, 18495, Note_on_c, 6, 52, 0
8, 18510, Note_on_c, 6, 52, 100
8, 18525, Note_on_c, 6, 52, 0
8, 18540, Note_on_c, 6, 52, 100
8, 18555, Note_on_c, 6, 52, 0
8, 18570, Note_on_c, 6, 52, 100
8, 18585, Note_on_c, 6, 52, 0
8, 18600, Note_on_c, 6, 52, 100
8, 18645, Note_on_c, 6, 52, 0
8, 18660, Note_on_c, 6, 55, 100
8, 18705, Note_on_c, 6, 55, 0
8, 18720, Note_on_c, 6, 52, 100
8, 18735, Note_on_c, 6, 52, 0
8, 18750, Note_on_c, 6, 52, 100
8, 18765, Note_on_c, 6, 52, 0
8, 18780, Note_on_c, 6, 52, 100
8, 18795, Note_on_c, 6, 52, 0
8, 18810, Note_on_c, 6, 52, 100
8, 18825, Note_on_c, 6, 52, 0
8, 18840, Note_on_c, 6, 52, 100
8, 18885, Note_on_c, 6, 52, 0
8, 18900, Note_on_c, 6, 52, 100
8, 18915, Note_on_c, 6, 52, 0
8, 18930, Note_on_c, 6, 52, 100
8, 18945, Note_on_c, 6, 52, 0
8, 18960, Note_on_c, 6, 52, 100
8, 18975, Note_on_c, 6, 52, 0
8, 18990, Note_on_c, 6, 52, 100
8, 19005, Note_on_c, 6, 52, 0
8, 19020, Note_on_c, 6, 52, 100
8, 19035, Note_on_c, 6, 52, 0
8, 19050, Note_on_c, 6, 52, 100
8, 19065, Note_on_c, 6, 52, 0
8, 19080, Note_on_c, 6, 55, 100
8, 19125, Note_on_c, 6, 55, 0
8, 19140, Note_on_c, 6, 55, 100
8, 19185, Note_on_c, 6, 55, 0
8, 19200, Note_on_c, 6, 52, 100
8, 19215, Note_on_c, 6, 52, 0
8, 19230, Note_on_c, 6, 52, 100
8, 19245, Note_on_c, 6, 52, 0
8, 19260, Note_on_c, 6, 52, 100
8, 19275, Note_on_c, 6, 52, 0
8, 19290, Note_on_c, 6, 52, 100
8, 19305, Note_on_c, 6, 52, 0
8, 19320, Note_on_c, 6, 52, 100
8, 19365, Note_on_c, 6, 52, 0
8, 19380, Note_on_c, 6, 52, 100
8, 19395, Note_on_c, 6, 52, 0
8, 19410, Note_on_c, 6, 52, 100
8, 19425, Note_on_c, 6, 52, 0
8, 19440, Note_on_c, 6, 52, 100
8, 19455, Note_on_c, 6, 52, 0
8, 19470, Note_on_c, 6, 52, 100
8, 19485, Note_on_c, 6, 52, 0
8, 19500, Note_on_c, 6, 52, 100
8, 19515, Note_on_c, 6, 52, 0
8, 19530, Note_on_c, 6, 52, 100
8, 19545, Note_on_c, 6, 52, 0
8, 19560, Note_on_c, 6, 52, 100
8, 19605, Note_on_c, 6, 52, 0
8, 19620, Note_on_c, 6, 57, 100
8, 19635, Note_on_c, 6, 57, 0
8, 19650, Note_on_c, 6, 57, 100
8, 19665, Note_on_c, 6, 57, 0
8, 19680, Note_on_c, 6, 57, 100
8, 19695, Note_on_c, 6, 57, 0
8, 19710, Note_on_c, 6, 57, 100
8, 19725, Note_on_c, 6, 57, 0
8, 19740, Note_on_c, 6, 57, 100
8, 19755, Note_on_c, 6, 57, 0
8, 19770, Note_on_c, 6, 57, 100
8, 19785, Note_on_c, 6, 57, 0
8, 19800, Note_on_c, 6, 57, 100
8, 19845, Note_on_c, 6, 57, 0
8, 19860, Note_on_c, 6, 55, 100
8, 19875, Note_on_c, 6, 55, 0
8, 19890, Note_on_c, 6, 55, 100
8, 19905, Note_on_c, 6, 55, 0
8, 19920, Note_on_c, 6, 55, 100
8, 19935, Note_on_c, 6, 55, 0
8, 19950, Note_on_c, 6, 55, 100
8, 19965, Note_on_c, 6, 55, 0
8, 19980, Note_on_c, 6, 55, 100
8, 19995, Note_on_c, 6, 55, 0
8, 20010, Note_on_c, 6, 55, 100
8, 20025, Note_on_c, 6, 55, 0
8, 20040, Note_on_c, 6, 55, 100
8, 20085, Note_on_c, 6, 55, 0
8, 20100, Note_on_c, 6, 50, 100
8, 20145, Note_on_c, 6, 50, 0
8, 20160, Note_on_c, 6, 52, 100
8, 20175, Note_on_c, 6, 52, 0
8, 20190, Note_on_c, 6, 52, 100
8, 20205, Note_on_c, 6, 52, 0
8, 20220, Note_on_c, 6, 52, 100
8, 20235, Note_on_c, 6, 52, 0
8, 20250, Note_on_c, 6, 52, 100
8, 20265, Note_on_c, 6, 52, 0
8, 20280, Note_on_c, 6, 52, 100
8, 20325, Note_on_c, 6, 52, 0
8, 20340, Note_on_c, 6, 52, 100
8, 20355, Note_on_c, 6, 52, 0
8, 20370, Note_on_c, 6, 52, 100
8, 20385, Note_on_c, 6, 52, 0
8, 20400, Note_on_c, 6, 52, 100
8, 20415, Note_on_c, 6, 52, 0
8, 20430, Note_on_c, 6, 52, 100
8, 20445, Note_on_c, 6, 52, 0
8, 20460, Note_on_c, 6, 52, 100
8, 20475, Note_on_c, 6, 52, 0
8, 20490, Note_on_c, 6, 52, 100
8, 20505, Note_on_c, 6, 52, 0
8, 20520, Note_on_c, 6, 55, 100
8, 20565, Note_on_c, 6, 55, 0
8, 20580, Note_on_c, 6, 55, 100
8, 20625, Note_on_c, 6, 55, 0
8, 20640, Note_on_c, 6, 52, 100
8, 20655, Note_on_c, 6, 52, 0
8, 20670, Note_on_c, 6, 52, 100
8, 20685, Note_on_c, 6, 52, 0
8, 20700, Note_on_c, 6, 52, 100
8, 20715, Note_on_c, 6, 52, 0
8, 20730, Note_on_c, 6, 52, 100
8, 20745, Note_on_c, 6, 52, 0
8, 20760, Note_on_c, 6, 52, 100
8, 20805, Note_on_c, 6, 52, 0
8, 20820, Note_on_c, 6, 52, 100
8, 20835, Note_on_c, 6, 52, 0
8, 20850, Note_on_c, 6, 52, 100
8, 20865, Note_on_c, 6, 52, 0
8, 20880, Note_on_c, 6, 52, 100
8, 20895, Note_on_c, 6, 52, 0
8, 20910, Note_on_c, 6, 52, 100
8, 20925, Note_on_c, 6, 52, 0
8, 20940, Note_on_c, 6, 52, 100
8, 20955, Note_on_c, 6, 52, 0
8, 20970, Note_on_c, 6, 52, 100
8, 20985, Note_on_c, 6, 52, 0
8, 21000, Note_on_c, 6, 55, 100
8, 21045, Note_on_c, 6, 55, 0
8, 21060, Note_on_c, 6, 55, 100
8, 21105, Note_on_c, 6, 55, 0
8, 21120, Note_on_c, 6, 52, 100
8, 21135, Note_on_c, 6, 52, 0
8, 21150, Note_on_c, 6, 52, 100
8, 21165, Note_on_c, 6, 52, 0
8, 21180, Note_on_c, 6, 52, 100
8, 21195, Note_on_c, 6, 52, 0
8, 21210, Note_on_c, 6, 52, 100
8, 21225, Note_on_c, 6, 52, 0
8, 21240, Note_on_c, 6, 55, 100
8, 21285, Note_on_c, 6, 55, 0
8, 21300, Note_on_c, 6, 55, 100
8, 21345, Note_on_c, 6, 55, 0
8, 21360, Note_on_c, 6, 52, 100
8, 21375, Note_on_c, 6, 52, 0
8, 21390, Note_on_c, 6, 52, 100
8, 21405, Note_on_c, 6, 52, 0
8, 21420, Note_on_c, 6, 52, 100
8, 21435, Note_on_c, 6, 52, 0
8, 21450, Note_on_c, 6, 52, 100
8, 21465, Note_on_c, 6, 52, 0
8, 21480, Note_on_c, 6, 55, 100
8, 21525, Note_on_c, 6, 55, 0
8, 21540, Note_on_c, 6, 55, 100
8, 21585, Note_on_c, 6, 55, 0
8, 21600, Note_on_c, 6, 52, 100
8, 21615, Note_on_c, 6, 52, 0
8, 21630, Note_on_c, 6, 52, 100
8, 21645, Note_on_c, 6, 52, 0
8, 21660, Note_on_c, 6, 55, 100
8, 21705, Note_on_c, 6, 55, 0
8, 21720, Note_on_c, 6, 52, 100
8, 21735, Note_on_c, 6, 52, 0
8, 21750, Note_on_c, 6, 52, 100
8, 21765, Note_on_c, 6, 52, 0
8, 21780, Note_on_c, 6, 55, 100
8, 21825, Note_on_c, 6, 55, 0
8, 21840, Note_on_c, 6, 52, 100
8, 21855, Note_on_c, 6, 52, 0
8, 21870, Note_on_c, 6, 52, 100
8, 21885, Note_on_c, 6, 52, 0
8, 21900, Note_on_c, 6, 55, 100
8, 21945, Note_on_c, 6, 55, 0
8, 21960, Note_on_c, 6, 52, 100
8, 21975, Note_on_c, 6, 52, 0
8, 21990, Note_on_c, 6, 52, 100
8, 22005, Note_on_c, 6, 52, 0
8, 22020, Note_on_c, 6, 55, 100
8, 22065, Note_on_c, 6, 55, 0
8, 29760, Note_on_c, 6, 52, 100
8, 29775, Note_on_c, 6, 52, 0
8, 29790, Note_on_c, 6, 52, 100
8, 29805, Note_on_c, 6, 52, 0
8, 29820, Note_on_c, 6, 52, 100
8, 29835, Note_on_c, 6, 52, 0
8, 29850, Note_on_c, 6, 52, 100
8, 29865, Note_on_c, 6, 52, 0
8, 29880, Note_on_c, 6, 52, 100
8, 29940, Note_on_c, 6, 52, 0
8, 30600, Note_on_c, 6, 55, 100
8, 30660, Note_on_c, 6, 55, 0
8, 30720, Note_on_c, 6, 52, 100
8, 30735, Note_on_c, 6, 52, 0
8, 30750, Note_on_c, 6, 52, 100
8, 30765, Note_on_c, 6, 52, 0
8, 30780, Note_on_c, 6, 52, 100
8, 30795, Note_on_c, 6, 52, 0
8, 30810, Note_on_c, 6, 52, 100
8, 30825, Note_on_c, 6, 52, 0
8, 30840, Note_on_c, 6, 52, 100
8, 30900, Note_on_c, 6, 52, 0
8, 31680, Note_on_c, 6, 52, 100
8, 31695, Note_on_c, 6, 52, 0
8, 31710, Note_on_c, 6, 52, 100
8, 31725, Note_on_c, 6, 52, 0
8, 31740, Note_on_c, 6, 52, 100
8, 31755, Note_on_c, 6, 52, 0
8, 31770, Note_on_c, 6, 52, 100
8, 31785, Note_on_c, 6, 52, 0
8, 31800, Note_on_c, 6, 52, 100
8, 31860, Note_on_c, 6, 52, 0
8, 32520, Note_on_c, 6, 55, 100
8, 32565, Note_on_c, 6, 55, 0
8, 32640, Note_on_c, 6, 57, 100
8, 32655, Note_on_c, 6, 57, 0
8, 32670, Note_on_c, 6, 57, 100
8, 32685, Note_on_c, 6, 57, 0
8, 32700, Note_on_c, 6, 57, 100
8, 32715, Note_on_c, 6, 57, 0
8, 32730, Note_on_c, 6, 57, 100
8, 32745, Note_on_c, 6, 57, 0
8, 32760, Note_on_c, 6, 57, 100
8, 32805, Note_on_c, 6, 57, 0
8, 32820, Note_on_c, 6, 55, 100
8, 32850, Note_on_c, 6, 55, 0
8, 33600, Note_on_c, 6, 52, 100
8, 33615, Note_on_c, 6, 52, 0
8, 33630, Note_on_c, 6, 52, 100
8, 33645, Note_on_c, 6, 52, 0
8, 33660, Note_on_c, 6, 52, 100
8, 33675, Note_on_c, 6, 52, 0
8, 33690, Note_on_c, 6, 52, 100
8, 33705, Note_on_c, 6, 52, 0
8, 33720, Note_on_c, 6, 52, 100
8, 33780, Note_on_c, 6, 52, 0
8, 34080, Note_on_c, 6, 52, 100
8, 34095, Note_on_c, 6, 52, 0
8, 34110, Note_on_c, 6, 52, 100
8, 34125, Note_on_c, 6, 52, 0
8, 34140, Note_on_c, 6, 52, 100
8, 34155, Note_on_c, 6, 52, 0
8, 34170, Note_on_c, 6, 52, 100
8, 34185, Note_on_c, 6, 52, 0
8, 34200, Note_on_c, 6, 52, 100
8, 34260, Note_on_c, 6, 52, 0
8, 34560, Note_on_c, 6, 52, 100
8, 34575, Note_on_c, 6, 52, 0
8, 34590, Note_on_c, 6, 52, 100
8, 34605, Note_on_c, 6, 52, 0
8, 34620, Note_on_c, 6, 52, 100
8, 34635, Note_on_c, 6, 52, 0
8, 34650, Note_on_c, 6, 52, 100
8, 34665, Note_on_c, 6, 52, 0
8, 34680, Note_on_c, 6, 52, 100
8, 34740, Note_on_c, 6, 52, 0
8, 35040, Note_on_c, 6, 52, 100
8, 35055, Note_on_c, 6, 52, 0
8, 35070, Note_on_c, 6, 52, 100
8, 35085, Note_on_c, 6, 52, 0
8, 35100, Note_on_c, 6, 52, 100
8, 35115, Note_on_c, 6, 52, 0
8, 35130, Note_on_c, 6, 52, 100
8, 35145, Note_on_c, 6, 52, 0
8, 35160, Note_on_c, 6, 52, 100
8, 35220, Note_on_c, 6, 52, 0
8, 35460, Note_on_c, 6, 55, 100
8, 35505, Note_on_c, 6, 55, 0
8, 35520, Note_on_c, 6, 52, 100
8, 35535, Note_on_c, 6, 52, 0
8, 35550, Note_on_c, 6, 52, 100
8, 35565, Note_on_c, 6, 52, 0
8, 35580, Note_on_c, 6, 52, 100
8, 35595, Note_on_c, 6, 52, 0
8, 35610, Note_on_c, 6, 52, 100
8, 35625, Note_on_c, 6, 52, 0
8, 35640, Note_on_c, 6, 52, 100
8, 35700, Note_on_c, 6, 52, 0
8, 35760, Note_on_c, 6, 52, 100
8, 35775, Note_on_c, 6, 52, 0
8, 35790, Note_on_c, 6, 52, 100
8, 35805, Note_on_c, 6, 52, 0
8, 35820, Note_on_c, 6, 52, 100
8, 35835, Note_on_c, 6, 52, 0
8, 35850, Note_on_c, 6, 52, 100
8, 35865, Note_on_c, 6, 52, 0
8, 35880, Note_on_c, 6, 52, 100
8, 35940, Note_on_c, 6, 52, 0
8, 36000, Note_on_c, 6, 52, 100
8, 36015, Note_on_c, 6, 52, 0
8, 36030, Note_on_c, 6, 52, 100
8, 36045, Note_on_c, 6, 52, 0
8, 36060, Note_on_c, 6, 52, 100
8, 36075, Note_on_c, 6, 52, 0
8, 36090, Note_on_c, 6, 52, 100
8, 36105, Note_on_c, 6, 52, 0
8, 36120, Note_on_c, 6, 52, 100
8, 36180, Note_on_c, 6, 52, 0
8, 36240, Note_on_c, 6, 52, 100
8, 36255, Note_on_c, 6, 52, 0
8, 36270, Note_on_c, 6, 52, 100
8, 36285, Note_on_c, 6, 52, 0
8, 36300, Note_on_c, 6, 52, 100
8, 36315, Note_on_c, 6, 52, 0
8, 36330, Note_on_c, 6, 52, 100
8, 36345, Note_on_c, 6, 52, 0
8, 36360, Note_on_c, 6, 52, 100
8, 36420, Note_on_c, 6, 52, 0
8, 36480, Note_on_c, 6, 52, 100
8, 36495, Note_on_c, 6, 52, 0
8, 36510, Note_on_c, 6, 52, 100
8, 36525, Note_on_c, 6, 52, 0
8, 36540, Note_on_c, 6, 52, 100
8, 36555, Note_on_c, 6, 52, 0
8, 36570, Note_on_c, 6, 52, 100
8, 36585, Note_on_c, 6, 52, 0
8, 36600, Note_on_c, 6, 52, 100
8, 36660, Note_on_c, 6, 52, 0
8, 36720, Note_on_c, 6, 52, 100
8, 36735, Note_on_c, 6, 52, 0
8, 36750, Note_on_c, 6, 52, 100
8, 36765, Note_on_c, 6, 52, 0
8, 36780, Note_on_c, 6, 52, 100
8, 36795, Note_on_c, 6, 52, 0
8, 36810, Note_on_c, 6, 52, 100
8, 36825, Note_on_c, 6, 52, 0
8, 36840, Note_on_c, 6, 52, 100
8, 36900, Note_on_c, 6, 52, 0
8, 36960, Note_on_c, 6, 52, 100
8, 36975, Note_on_c, 6, 52, 0
8, 36990, Note_on_c, 6, 52, 100
8, 37005, Note_on_c, 6, 52, 0
8, 37020, Note_on_c, 6, 52, 100
8, 37035, Note_on_c, 6, 52, 0
8, 37050, Note_on_c, 6, 52, 100
8, 37065, Note_on_c, 6, 52, 0
8, 37080, Note_on_c, 6, 52, 100
8, 37140, Note_on_c, 6, 52, 0
8, 37200, Note_on_c, 6, 52, 100
8, 37215, Note_on_c, 6, 52, 0
8, 37230, Note_on_c, 6, 52, 100
8, 37245, Note_on_c, 6, 52, 0
8, 37260, Note_on_c, 6, 52, 100
8, 37275, Note_on_c, 6, 52, 0
8, 37290, Note_on_c, 6, 52, 100
8, 37305, Note_on_c, 6, 52, 0
8, 37320, Note_on_c, 6, 52, 100
8, 37380, Note_on_c, 6, 52, 0
8, 37440, Note_on_c, 6, 52, 100
8, 37455, Note_on_c, 6, 52, 0
8, 37470, Note_on_c, 6, 52, 100
8, 37485, Note_on_c, 6, 52, 0
8, 37500, Note_on_c, 6, 52, 100
8, 37515, Note_on_c, 6, 52, 0
8, 37530, Note_on_c, 6, 52, 100
8, 37545, Note_on_c, 6, 52, 0
8, 37560, Note_on_c, 6, 52, 100
8, 37575, Note_on_c, 6, 52, 0
8, 37590, Note_on_c, 6, 52, 100
8, 37605, Note_on_c, 6, 52, 0
8, 37620, Note_on_c, 6, 52, 100
8, 37635, Note_on_c, 6, 52, 0
8, 37650, Note_on_c, 6, 52, 100
8, 37665, Note_on_c, 6, 52, 0
8, 37680, Note_on_c, 6, 52, 100
8, 37695, Note_on_c, 6, 52, 0
8, 37710, Note_on_c, 6, 52, 100
8, 37725, Note_on_c, 6, 52, 0
8, 37740, Note_on_c, 6, 52, 100
8, 37755, Note_on_c, 6, 52, 0
8, 37770, Note_on_c, 6, 52, 100
8, 37785, Note_on_c, 6, 52, 0
8, 37800, Note_on_c, 6, 52, 100
8, 37815, Note_on_c, 6, 52, 0
8, 37830, Note_on_c, 6, 52, 100
8, 37845, Note_on_c, 6, 52, 0
8, 37860, Note_on_c, 6, 52, 100
8, 37875, Note_on_c, 6, 52, 0
8, 37890, Note_on_c, 6, 52, 100
8, 37905, Note_on_c, 6, 52, 0
8, 37920, Note_on_c, 6, 52, 100
8, 37935, Note_on_c, 6, 52, 0
8, 37950, Note_on_c, 6, 52, 100
8, 37965, Note_on_c, 6, 52, 0
8, 37980, Note_on_c, 6, 52, 100
8, 37995, Note_on_c, 6, 52, 0
8, 38010, Note_on_c, 6, 52, 100
8, 38025, Note_on_c, 6, 52, 0
8, 38040, Note_on_c, 6, 52, 100
8, 38055, Note_on_c, 6, 52, 0
8, 38070, Note_on_c, 6, 52, 100
8, 38085, Note_on_c, 6, 52, 0
8, 38100, Note_on_c, 6, 52, 100
8, 38115, Note_on_c, 6, 52, 0
8, 38130, Note_on_c, 6, 52, 100
8, 38145, Note_on_c, 6, 52, 0
8, 38160, Note_on_c, 6, 52, 100
8, 38175, Note_on_c, 6, 52, 0
8, 38190, Note_on_c, 6, 52, 100
8, 38205, Note_on_c, 6, 52, 0
8, 38220, Note_on_c, 6, 52, 100
8, 38235, Note_on_c, 6, 52, 0
8, 38250, Note_on_c, 6, 52, 100
8, 38265, Note_on_c, 6, 52, 0
8, 38280, Note_on_c, 6, 52, 100
8, 38295, Note_on_c, 6, 52, 0
8, 38310, Note_on_c, 6, 52, 100
8, 38325, Note_on_c, 6, 52, 0
8, 38340, Note_on_c, 6, 52, 100
8, 38355, Note_on_c, 6, 52, 0
8, 38370, Note_on_c, 6, 52, 100
8, 38385, Note_on_c, 6, 52, 0
8, 38400, Note_on_c, 6, 52, 100
8, 38415, Note_on_c, 6, 52, 0
8, 38430, Note_on_c, 6, 52, 100
8, 38445, Note_on_c, 6, 52, 0
8, 38460, Note_on_c, 6, 52, 100
8, 38475, Note_on_c, 6, 52, 0
8, 38490, Note_on_c, 6, 52, 100
8, 38505, Note_on_c, 6, 52, 0
8, 38520, Note_on_c, 6, 52, 100
8, 38535, Note_on_c, 6, 52, 0
8, 38550, Note_on_c, 6, 52, 100
8, 38565, Note_on_c, 6, 52, 0
8, 38580, Note_on_c, 6, 52, 100
8, 38595, Note_on_c, 6, 52, 0
8, 38610, Note_on_c, 6, 52, 100
8, 38625, Note_on_c, 6, 52, 0
8, 38640, Note_on_c, 6, 52, 100
8, 38655, Note_on_c, 6, 52, 0
8, 38670, Note_on_c, 6, 52, 100
8, 38685, Note_on_c, 6, 52, 0
8, 38700, Note_on_c, 6, 52, 100
8, 38715, Note_on_c, 6, 52, 0
8, 38730, Note_on_c, 6, 52, 100
8, 38745, Note_on_c, 6, 52, 0
8, 38760, Note_on_c, 6, 52, 100
8, 38775, Note_on_c, 6, 52, 0
8, 38790, Note_on_c, 6, 52, 100
8, 38805, Note_on_c, 6, 52, 0
8, 38820, Note_on_c, 6, 52, 100
8, 38835, Note_on_c, 6, 52, 0
8, 38850, Note_on_c, 6, 52, 100
8, 38865, Note_on_c, 6, 52, 0
8, 38880, Note_on_c, 6, 52, 100
8, 38895, Note_on_c, 6, 52, 0
8, 38910, Note_on_c, 6, 52, 100
8, 38925, Note_on_c, 6, 52, 0
8, 38940, Note_on_c, 6, 52, 100
8, 38955, Note_on_c, 6, 52, 0
8, 38970, Note_on_c, 6, 52, 100
8, 38985, Note_on_c, 6, 52, 0
8, 39000, Note_on_c, 6, 52, 100
8, 39015, Note_on_c, 6, 52, 0
8, 39030, Note_on_c, 6, 52, 100
8, 39045, Note_on_c, 6, 52, 0
8, 39060, Note_on_c, 6, 52, 100
8, 39075, Note_on_c, 6, 52, 0
8, 39090, Note_on_c, 6, 52, 100
8, 39105, Note_on_c, 6, 52, 0
8, 39120, Note_on_c, 6, 52, 100
8, 39135, Note_on_c, 6, 52, 0
8, 39150, Note_on_c, 6, 52, 100
8, 39165, Note_on_c, 6, 52, 0
8, 39180, Note_on_c, 6, 52, 100
8, 39195, Note_on_c, 6, 52, 0
8, 39210, Note_on_c, 6, 52, 100
8, 39225, Note_on_c, 6, 52, 0
8, 39240, Note_on_c, 6, 52, 100
8, 39255, Note_on_c, 6, 52, 0
8, 39270, Note_on_c, 6, 52, 100
8, 39285, Note_on_c, 6, 52, 0
8, 39300, Note_on_c, 6, 52, 100
8, 39315, Note_on_c, 6, 52, 0
8, 39330, Note_on_c, 6, 52, 100
8, 39345, Note_on_c, 6, 52, 0
8, 39360, Note_on_c, 6, 52, 100
8, 39375, Note_on_c, 6, 52, 0
8, 39390, Note_on_c, 6, 52, 100
8, 39405, Note_on_c, 6, 52, 0
8, 39420, Note_on_c, 6, 52, 100
8, 39435, Note_on_c, 6, 52, 0
8, 39450, Note_on_c, 6, 52, 100
8, 39465, Note_on_c, 6, 52, 0
8, 39480, Note_on_c, 6, 52, 100
8, 39525, Note_on_c, 6, 52, 0
8, 39540, Note_on_c, 6, 52, 100
8, 39555, Note_on_c, 6, 52, 0
8, 39570, Note_on_c, 6, 52, 100
8, 39585, Note_on_c, 6, 52, 0
8, 39600, Note_on_c, 6, 52, 100
8, 39615, Note_on_c, 6, 52, 0
8, 39630, Note_on_c, 6, 52, 100
8, 39645, Note_on_c, 6, 52, 0
8, 39660, Note_on_c, 6, 52, 100
8, 39675, Note_on_c, 6, 52, 0
8, 39690, Note_on_c, 6, 52, 100
8, 39705, Note_on_c, 6, 52, 0
8, 39720, Note_on_c, 6, 52, 100
8, 39765, Note_on_c, 6, 52, 0
8, 39780, Note_on_c, 6, 57, 100
8, 39795, Note_on_c, 6, 57, 0
8, 39810, Note_on_c, 6, 57, 100
8, 39825, Note_on_c, 6, 57, 0
8, 39840, Note_on_c, 6, 57, 100
8, 39855, Note_on_c, 6, 57, 0
8, 39870, Note_on_c, 6, 57, 100
8, 39885, Note_on_c, 6, 57, 0
8, 39900, Note_on_c, 6, 57, 100
8, 39915, Note_on_c, 6, 57, 0
8, 39930, Note_on_c, 6, 57, 100
8, 39945, Note_on_c, 6, 57, 0
8, 39960, Note_on_c, 6, 57, 100
8, 40005, Note_on_c, 6, 57, 0
8, 40020, Note_on_c, 6, 55, 100
8, 40035, Note_on_c, 6, 55, 0
8, 40050, Note_on_c, 6, 55, 100
8, 40065, Note_on_c, 6, 55, 0
8, 40080, Note_on_c, 6, 55, 100
8, 40095, Note_on_c, 6, 55, 0
8, 40110, Note_on_c, 6, 55, 100
8, 40125, Note_on_c, 6, 55, 0
8, 40140, Note_on_c, 6, 55, 100
8, 40155, Note_on_c, 6, 55, 0
8, 40170, Note_on_c, 6, 55, 100
8, 40185, Note_on_c, 6, 55, 0
8, 40200, Note_on_c, 6, 55, 100
8, 40245, Note_on_c, 6, 55, 0
8, 40260, Note_on_c, 6, 50, 100
8, 40275, Note_on_c, 6, 50, 0
8, 40290, Note_on_c, 6, 50, 100
8, 40305, Note_on_c, 6, 50, 0
8, 40320, Note_on_c, 6, 52, 100
8, 40335, Note_on_c, 6, 52, 0
8, 40350, Note_on_c, 6, 52, 100
8, 40365, Note_on_c, 6, 52, 0
8, 40380, Note_on_c, 6, 52, 100
8, 40395, Note_on_c, 6, 52, 0
8, 40410, Note_on_c, 6, 52, 100
8, 40425, Note_on_c, 6, 52, 0
8, 40440, Note_on_c, 6, 52, 100
8, 40485, Note_on_c, 6, 52, 0
8, 40500, Note_on_c, 6, 52, 100
8, 40515, Note_on_c, 6, 52, 0
8, 40530, Note_on_c, 6, 52, 100
8, 40545, Note_on_c, 6, 52, 0
8, 40560, Note_on_c, 6, 52, 100
8, 40575, Note_on_c, 6, 52, 0
8, 40590, Note_on_c, 6, 52, 100
8, 40605, Note_on_c, 6, 52, 0
8, 40620, Note_on_c, 6, 52, 100
8, 40635, Note_on_c, 6, 52, 0
8, 40650, Note_on_c, 6, 52, 100
8, 40665, Note_on_c, 6, 52, 0
8, 40680, Note_on_c, 6, 52, 100
8, 40725, Note_on_c, 6, 52, 0
8, 40740, Note_on_c, 6, 57, 100
8, 40755, Note_on_c, 6, 57, 0
8, 40770, Note_on_c, 6, 57, 100
8, 40785, Note_on_c, 6, 57, 0
8, 40800, Note_on_c, 6, 52, 100
8, 40815, Note_on_c, 6, 52, 0
8, 40830, Note_on_c, 6, 52, 100
8, 40845, Note_on_c, 6, 52, 0
8, 40860, Note_on_c, 6, 52, 100
8, 40875, Note_on_c, 6, 52, 0
8, 40890, Note_on_c, 6, 52, 100
8, 40905, Note_on_c, 6, 52, 0
8, 40920, Note_on_c, 6, 52, 100
8, 40965, Note_on_c, 6, 52, 0
8, 40980, Note_on_c, 6, 52, 100
8, 40995, Note_on_c, 6, 52, 0
8, 41010, Note_on_c, 6, 52, 100
8, 41025, Note_on_c, 6, 52, 0
8, 41040, Note_on_c, 6, 52, 100
8, 41055, Note_on_c, 6, 52, 0
8, 41070, Note_on_c, 6, 52, 100
8, 41085, Note_on_c, 6, 52, 0
8, 41100, Note_on_c, 6, 52, 100
8, 41115, Note_on_c, 6, 52, 0
8, 41130, Note_on_c, 6, 52, 100
8, 41145, Note_on_c, 6, 52, 0
8, 41160, Note_on_c, 6, 52, 100
8, 41205, Note_on_c, 6, 52, 0
8, 41220, Note_on_c, 6, 57, 100
8, 41235, Note_on_c, 6, 57, 0
8, 41250, Note_on_c, 6, 57, 100
8, 41265, Note_on_c, 6, 57, 0
8, 41280, Note_on_c, 6, 52, 100
8, 41295, Note_on_c, 6, 52, 0
8, 41310, Note_on_c, 6, 52, 100
8, 41325, Note_on_c, 6, 52, 0
8, 41340, Note_on_c, 6, 52, 100
8, 41355, Note_on_c, 6, 52, 0
8, 41370, Note_on_c, 6, 52, 100
8, 41385, Note_on_c, 6, 52, 0
8, 41400, Note_on_c, 6, 52, 100
8, 41445, Note_on_c, 6, 52, 0
8, 41460, Note_on_c, 6, 52, 100
8, 41475, Note_on_c, 6, 52, 0
8, 41490, Note_on_c, 6, 52, 100
8, 41505, Note_on_c, 6, 52, 0
8, 41520, Note_on_c, 6, 52, 100
8, 41535, Note_on_c, 6, 52, 0
8, 41550, Note_on_c, 6, 52, 100
8, 41565, Note_on_c, 6, 52, 0
8, 41580, Note_on_c, 6, 52, 100
8, 41595, Note_on_c, 6, 52, 0
8, 41610, Note_on_c, 6, 52, 100
8, 41625, Note_on_c, 6, 52, 0
8, 41640, Note_on_c, 6, 52, 100
8, 41685, Note_on_c, 6, 52, 0
8, 41700, Note_on_c, 6, 57, 100
8, 41715, Note_on_c, 6, 57, 0
8, 41730, Note_on_c, 6, 57, 100
8, 41745, Note_on_c, 6, 57, 0
8, 41760, Note_on_c, 6, 57, 100
8, 41775, Note_on_c, 6, 57, 0
8, 41790, Note_on_c, 6, 57, 100
8, 41805, Note_on_c, 6, 57, 0
8, 41820, Note_on_c, 6, 57, 100
8, 41835, Note_on_c, 6, 57, 0
8, 41850, Note_on_c, 6, 57, 100
8, 41865, Note_on_c, 6, 57, 0
8, 41880, Note_on_c, 6, 57, 100
8, 41925, Note_on_c, 6, 57, 0
8, 41940, Note_on_c, 6, 55, 100
8, 41955, Note_on_c, 6, 55, 0
8, 41970, Note_on_c, 6, 55, 100
8, 41985, Note_on_c, 6, 55, 0
8, 42000, Note_on_c, 6, 55, 100
8, 42015, Note_on_c, 6, 55, 0
8, 42030, Note_on_c, 6, 55, 100
8, 42045, Note_on_c, 6, 55, 0
8, 42060, Note_on_c, 6, 55, 100
8, 42075, Note_on_c, 6, 55, 0
8, 42090, Note_on_c, 6, 55, 100
8, 42105, Note_on_c, 6, 55, 0
8, 42120, Note_on_c, 6, 55, 100
8, 42165, Note_on_c, 6, 55, 0
8, 42180, Note_on_c, 6, 50, 100
8, 42195, Note_on_c, 6, 50, 0
8, 42210, Note_on_c, 6, 50, 100
8, 42225, Note_on_c, 6, 50, 0
8, 42240, Note_on_c, 6, 52, 100
8, 42255, Note_on_c, 6, 52, 0
8, 42270, Note_on_c, 6, 52, 100
8, 42285, Note_on_c, 6, 52, 0
8, 42300, Note_on_c, 6, 52, 100
8, 42315, Note_on_c, 6, 52, 0
8, 42330, Note_on_c, 6, 52, 100
8, 42345, Note_on_c, 6, 52, 0
8, 42360, Note_on_c, 6, 52, 100
8, 42405, Note_on_c, 6, 52, 0
8, 42420, Note_on_c, 6, 52, 100
8, 42435, Note_on_c, 6, 52, 0
8, 42450, Note_on_c, 6, 52, 100
8, 42465, Note_on_c, 6, 52, 0
8, 42480, Note_on_c, 6, 52, 100
8, 42495, Note_on_c, 6, 52, 0
8, 42510, Note_on_c, 6, 52, 100
8, 42525, Note_on_c, 6, 52, 0
8, 42540, Note_on_c, 6, 52, 100
8, 42555, Note_on_c, 6, 52, 0
8, 42570, Note_on_c, 6, 52, 100
8, 42585, Note_on_c, 6, 52, 0
8, 42600, Note_on_c, 6, 52, 100
8, 42645, Note_on_c, 6, 52, 0
8, 42660, Note_on_c, 6, 57, 100
8, 42675, Note_on_c, 6, 57, 0
8, 42690, Note_on_c, 6, 57, 100
8, 42705, Note_on_c, 6, 57, 0
8, 42720, Note_on_c, 6, 52, 100
8, 42735, Note_on_c, 6, 52, 0
8, 42750, Note_on_c, 6, 52, 100
8, 42765, Note_on_c, 6, 52, 0
8, 42780, Note_on_c, 6, 52, 100
8, 42795, Note_on_c, 6, 52, 0
8, 42810, Note_on_c, 6, 52, 100
8, 42825, Note_on_c, 6, 52, 0
8, 42840, Note_on_c, 6, 52, 100
8, 42885, Note_on_c, 6, 52, 0
8, 42900, Note_on_c, 6, 52, 100
8, 42915, Note_on_c, 6, 52, 0
8, 42930, Note_on_c, 6, 52, 100
8, 42945, Note_on_c, 6, 52, 0
8, 42960, Note_on_c, 6, 52, 100
8, 42975, Note_on_c, 6, 52, 0
8, 42990, Note_on_c, 6, 52, 100
8, 43005, Note_on_c, 6, 52, 0
8, 43020, Note_on_c, 6, 52, 100
8, 43035, Note_on_c, 6, 52, 0
8, 43050, Note_on_c, 6, 52, 100
8, 43065, Note_on_c, 6, 52, 0
8, 43080, Note_on_c, 6, 52, 100
8, 43125, Note_on_c, 6, 52, 0
8, 43140, Note_on_c, 6, 57, 100
8, 43155, Note_on_c, 6, 57, 0
8, 43170, Note_on_c, 6, 57, 100
8, 43185, Note_on_c, 6, 57, 0
8, 43200, Note_on_c, 6, 52, 100
8, 43215, Note_on_c, 6, 52, 0
8, 43230, Note_on_c, 6, 52, 100
8, 43245, Note_on_c, 6, 52, 0
8, 43260, Note_on_c, 6, 52, 100
8, 43275, Note_on_c, 6, 52, 0
8, 43290, Note_on_c, 6, 52, 100
8, 43305, Note_on_c, 6, 52, 0
8, 43320, Note_on_c, 6, 52, 100
8, 43365, Note_on_c, 6, 52, 0
8, 43380, Note_on_c, 6, 52, 100
8, 43395, Note_on_c, 6, 52, 0
8, 43410, Note_on_c, 6, 52, 100
8, 43425, Note_on_c, 6, 52, 0
8, 43440, Note_on_c, 6, 52, 100
8, 43455, Note_on_c, 6, 52, 0
8, 43470, Note_on_c, 6, 52, 100
8, 43485, Note_on_c, 6, 52, 0
8, 43500, Note_on_c, 6, 52, 100
8, 43515, Note_on_c, 6, 52, 0
8, 43530, Note_on_c, 6, 52, 100
8, 43545, Note_on_c, 6, 52, 0
8, 43560, Note_on_c, 6, 52, 100
8, 43605, Note_on_c, 6, 52, 0
8, 43620, Note_on_c, 6, 57, 100
8, 43635, Note_on_c, 6, 57, 0
8, 43650, Note_on_c, 6, 57, 100
8, 43665, Note_on_c, 6, 57, 0
8, 43680, Note_on_c, 6, 57, 100
8, 43695, Note_on_c, 6, 57, 0
8, 43710, Note_on_c, 6, 57, 100
8, 43725, Note_on_c, 6, 57, 0
8, 43740, Note_on_c, 6, 57, 100
8, 43755, Note_on_c, 6, 57, 0
8, 43770, Note_on_c, 6, 57, 100
8, 43785, Note_on_c, 6, 57, 0
8, 43800, Note_on_c, 6, 57, 100
8, 43845, Note_on_c, 6, 57, 0
8, 43860, Note_on_c, 6, 55, 100
8, 43875, Note_on_c, 6, 55, 0
8, 43890, Note_on_c, 6, 55, 100
8, 43905, Note_on_c, 6, 55, 0
8, 43920, Note_on_c, 6, 55, 100
8, 43935, Note_on_c, 6, 55, 0
8, 43950, Note_on_c, 6, 55, 100
8, 43965, Note_on_c, 6, 55, 0
8, 43980, Note_on_c, 6, 55, 100
8, 43995, Note_on_c, 6, 55, 0
8, 44010, Note_on_c, 6, 55, 100
8, 44025, Note_on_c, 6, 55, 0
8, 44040, Note_on_c, 6, 55, 100
8, 44085, Note_on_c, 6, 55, 0
8, 44100, Note_on_c, 6, 50, 100
8, 44115, Note_on_c, 6, 50, 0
8, 44130, Note_on_c, 6, 50, 100
8, 44145, Note_on_c, 6, 50, 0
8, 44160, Note_on_c, 6, 52, 100
8, 44175, Note_on_c, 6, 52, 0
8, 44190, Note_on_c, 6, 52, 100
8, 44205, Note_on_c, 6, 52, 0
8, 44220, Note_on_c, 6, 52, 100
8, 44235, Note_on_c, 6, 52, 0
8, 44250, Note_on_c, 6, 52, 100
8, 44265, Note_on_c, 6, 52, 0
8, 44280, Note_on_c, 6, 52, 100
8, 44325, Note_on_c, 6, 52, 0
8, 44340, Note_on_c, 6, 52, 100
8, 44355, Note_on_c, 6, 52, 0
8, 44370, Note_on_c, 6, 52, 100
8, 44385, Note_on_c, 6, 52, 0
8, 44400, Note_on_c, 6, 52, 100
8, 44415, Note_on_c, 6, 52, 0
8, 44430, Note_on_c, 6, 52, 100
8, 44445, Note_on_c, 6, 52, 0
8, 44460, Note_on_c, 6, 52, 100
8, 44475, Note_on_c, 6, 52, 0
8, 44490, Note_on_c, 6, 52, 100
8, 44505, Note_on_c, 6, 52, 0
8, 44520, Note_on_c, 6, 52, 100
8, 44565, Note_on_c, 6, 52, 0
8, 44580, Note_on_c, 6, 57, 100
8, 44595, Note_on_c, 6, 57, 0
8, 44610, Note_on_c, 6, 57, 100
8, 44625, Note_on_c, 6, 57, 0
8, 44640, Note_on_c, 6, 52, 100
8, 44655, Note_on_c, 6, 52, 0
8, 44670, Note_on_c, 6, 52, 100
8, 44685, Note_on_c, 6, 52, 0
8, 44700, Note_on_c, 6, 52, 100
8, 44715, Note_on_c, 6, 52, 0
8, 44730, Note_on_c, 6, 52, 100
8, 44745, Note_on_c, 6, 52, 0
8, 44760, Note_on_c, 6, 52, 100
8, 44805, Note_on_c, 6, 52, 0
8, 44820, Note_on_c, 6, 52, 100
8, 44835, Note_on_c, 6, 52, 0
8, 44850, Note_on_c, 6, 52, 100
8, 44865, Note_on_c, 6, 52, 0
8, 44880, Note_on_c, 6, 52, 100
8, 44895, Note_on_c, 6, 52, 0
8, 44910, Note_on_c, 6, 52, 100
8, 44925, Note_on_c, 6, 52, 0
8, 44940, Note_on_c, 6, 52, 100
8, 44955, Note_on_c, 6, 52, 0
8, 44970, Note_on_c, 6, 52, 100
8, 44985, Note_on_c, 6, 52, 0
8, 45000, Note_on_c, 6, 52, 100
8, 45045, Note_on_c, 6, 52, 0
8, 45060, Note_on_c, 6, 57, 100
8, 45075, Note_on_c, 6, 57, 0
8, 45090, Note_on_c, 6, 57, 100
8, 45105, Note_on_c, 6, 57, 0
8, 45120, Note_on_c, 6, 52, 100
8, 45135, Note_on_c, 6, 52, 0
8, 45150, Note_on_c, 6, 52, 100
8, 45165, Note_on_c, 6, 52, 0
8, 45180, Note_on_c, 6, 52, 100
8, 45195, Note_on_c, 6, 52, 0
8, 45210, Note_on_c, 6, 52, 100
8, 45225, Note_on_c, 6, 52, 0
8, 45240, Note_on_c, 6, 52, 100
8, 45285, Note_on_c, 6, 52, 0
8, 45300, Note_on_c, 6, 52, 100
8, 45315, Note_on_c, 6, 52, 0
8, 45330, Note_on_c, 6, 52, 100
8, 45345, Note_on_c, 6, 52, 0
8, 45360, Note_on_c, 6, 52, 100
8, 45375, Note_on_c, 6, 52, 0
8, 45390, Note_on_c, 6, 52, 100
8, 45405, Note_on_c, 6, 52, 0
8, 45420, Note_on_c, 6, 52, 100
8, 45435, Note_on_c, 6, 52, 0
8, 45450, Note_on_c, 6, 52, 100
8, 45465, Note_on_c, 6, 52, 0
8, 45480, Note_on_c, 6, 52, 100
8, 45525, Note_on_c, 6, 52, 0
8, 45540, Note_on_c, 6, 57, 100
8, 45555, Note_on_c, 6, 57, 0
8, 45570, Note_on_c, 6, 57, 100
8, 45585, Note_on_c, 6, 57, 0
8, 45600, Note_on_c, 6, 57, 100
8, 45615, Note_on_c, 6, 57, 0
8, 45630, Note_on_c, 6, 57, 100
8, 45645, Note_on_c, 6, 57, 0
8, 45660, Note_on_c, 6, 57, 100
8, 45675, Note_on_c, 6, 57, 0
8, 45690, Note_on_c, 6, 57, 100
8, 45705, Note_on_c, 6, 57, 0
8, 45720, Note_on_c, 6, 57, 100
8, 45765, Note_on_c, 6, 57, 0
8, 45780, Note_on_c, 6, 55, 100
8, 45795, Note_on_c, 6, 55, 0
8, 45810, Note_on_c, 6, 55, 100
8, 45825, Note_on_c, 6, 55, 0
8, 45840, Note_on_c, 6, 55, 100
8, 45855, Note_on_c, 6, 55, 0
8, 45870, Note_on_c, 6, 55, 100
8, 45885, Note_on_c, 6, 55, 0
8, 45900, Note_on_c, 6, 55, 100
8, 45915, Note_on_c, 6, 55, 0
8, 45930, Note_on_c, 6, 55, 100
8, 45945, Note_on_c, 6, 55, 0
8, 45960, Note_on_c, 6, 55, 100
8, 46005, Note_on_c, 6, 55, 0
8, 46020, Note_on_c, 6, 50, 100
8, 46035, Note_on_c, 6, 50, 0
8, 46050, Note_on_c, 6, 50, 100
8, 46065, Note_on_c, 6, 50, 0
8, 46080, Note_on_c, 6, 52, 100
8, 46095, Note_on_c, 6, 52, 0
8, 46110, Note_on_c, 6, 52, 100
8, 46125, Note_on_c, 6, 52, 0
8, 46140, Note_on_c, 6, 52, 100
8, 46155, Note_on_c, 6, 52, 0
8, 46170, Note_on_c, 6, 52, 100
8, 46185, Note_on_c, 6, 52, 0
8, 46200, Note_on_c, 6, 52, 100
8, 46245, Note_on_c, 6, 52, 0
8, 46260, Note_on_c, 6, 52, 100
8, 46275, Note_on_c, 6, 52, 0
8, 46290, Note_on_c, 6, 52, 100
8, 46305, Note_on_c, 6, 52, 0
8, 46320, Note_on_c, 6, 52, 100
8, 46335, Note_on_c, 6, 52, 0
8, 46350, Note_on_c, 6, 52, 100
8, 46365, Note_on_c, 6, 52, 0
8, 46380, Note_on_c, 6, 52, 100
8, 46395, Note_on_c, 6, 52, 0
8, 46410, Note_on_c, 6, 52, 100
8, 46425, Note_on_c, 6, 52, 0
8, 46440, Note_on_c, 6, 52, 100
8, 46485, Note_on_c, 6, 52, 0
8, 46500, Note_on_c, 6, 57, 100
8, 46515, Note_on_c, 6, 57, 0
8, 46530, Note_on_c, 6, 57, 100
8, 46545, Note_on_c, 6, 57, 0
8, 46560, Note_on_c, 6, 52, 100
8, 46575, Note_on_c, 6, 52, 0
8, 46590, Note_on_c, 6, 52, 100
8, 46605, Note_on_c, 6, 52, 0
8, 46620, Note_on_c, 6, 52, 100
8, 46635, Note_on_c, 6, 52, 0
8, 46650, Note_on_c, 6, 52, 100
8, 46665, Note_on_c, 6, 52, 0
8, 46680, Note_on_c, 6, 52, 100
8, 46725, Note_on_c, 6, 52, 0
8, 46740, Note_on_c, 6, 52, 100
8, 46755, Note_on_c, 6, 52, 0
8, 46770, Note_on_c, 6, 52, 100
8, 46785, Note_on_c, 6, 52, 0
8, 46800, Note_on_c, 6, 52, 100
8, 46815, Note_on_c, 6, 52, 0
8, 46830, Note_on_c, 6, 52, 100
8, 46845, Note_on_c, 6, 52, 0
8, 46860, Note_on_c, 6, 52, 100
8, 46875, Note_on_c, 6, 52, 0
8, 46890, Note_on_c, 6, 52, 100
8, 46905, Note_on_c, 6, 52, 0
8, 46920, Note_on_c, 6, 52, 100
8, 46965, Note_on_c, 6, 52, 0
8, 46980, Note_on_c, 6, 57, 100
8, 46995, Note_on_c, 6, 57, 0
8, 47010, Note_on_c, 6, 57, 100
8, 47025, Note_on_c, 6, 57, 0
8, 47040, Note_on_c, 6, 52, 100
8, 47055, Note_on_c, 6, 52, 0
8, 47070, Note_on_c, 6, 52, 100
8, 47085, Note_on_c, 6, 52, 0
8, 47100, Note_on_c, 6, 52, 100
8, 47115, Note_on_c, 6, 52, 0
8, 47130, Note_on_c, 6, 52, 100
8, 47145, Note_on_c, 6, 52, 0
8, 47160, Note_on_c, 6, 52, 100
8, 47205, Note_on_c, 6, 52, 0
8, 47220, Note_on_c, 6, 52, 100
8, 47235, Note_on_c, 6, 52, 0
8, 47250, Note_on_c, 6, 52, 100
8, 47265, Note_on_c, 6, 52, 0
8, 47280, Note_on_c, 6, 52, 100
8, 47295, Note_on_c, 6, 52, 0
8, 47310, Note_on_c, 6, 52, 100
8, 47325, Note_on_c, 6, 52, 0
8, 47340, Note_on_c, 6, 52, 100
8, 47355, Note_on_c, 6, 52, 0
8, 47370, Note_on_c, 6, 52, 100
8, 47385, Note_on_c, 6, 52, 0
8, 47400, Note_on_c, 6, 52, 100
8, 47445, Note_on_c, 6, 52, 0
8, 47460, Note_on_c, 6, 55, 100
8, 47505, Note_on_c, 6, 55, 0
8, 47520, Note_on_c, 6, 52, 100
8, 47535, Note_on_c, 6, 52, 0
8, 47550, Note_on_c, 6, 52, 100
8, 47565, Note_on_c, 6, 52, 0
8, 47580, Note_on_c, 6, 52, 100
8, 47595, Note_on_c, 6, 52, 0
8, 47610, Note_on_c, 6, 52, 100
8, 47625, Note_on_c, 6, 52, 0
8, 47640, Note_on_c, 6, 52, 100
8, 47685, Note_on_c, 6, 52, 0
8, 47700, Note_on_c, 6, 52, 100
8, 47715, Note_on_c, 6, 52, 0
8, 47730, Note_on_c, 6, 52, 100
8, 47745, Note_on_c, 6, 52, 0
8, 47760, Note_on_c, 6, 52, 100
8, 47775, Note_on_c, 6, 52, 0
8, 47790, Note_on_c, 6, 52, 100
8, 47805, Note_on_c, 6, 52, 0
8, 47820, Note_on_c, 6, 52, 100
8, 47835, Note_on_c, 6, 52, 0
8, 47850, Note_on_c, 6, 52, 100
8, 47865, Note_on_c, 6, 52, 0
8, 47880, Note_on_c, 6, 55, 100
8, 47925, Note_on_c, 6, 55, 0
8, 47940, Note_on_c, 6, 55, 100
8, 47985, Note_on_c, 6, 55, 0
8, 48000, Note_on_c, 6, 52, 100
8, 48015, Note_on_c, 6, 52, 0
8, 48030, Note_on_c, 6, 52, 100
8, 48045, Note_on_c, 6, 52, 0
8, 48060, Note_on_c, 6, 52, 100
8, 48075, Note_on_c, 6, 52, 0
8, 48090, Note_on_c, 6, 52, 100
8, 48105, Note_on_c, 6, 52, 0
8, 48120, Note_on_c, 6, 52, 100
8, 48165, Note_on_c, 6, 52, 0
8, 48180, Note_on_c, 6, 52, 100
8, 48195, Note_on_c, 6, 52, 0
8, 48210, Note_on_c, 6, 52, 100
8, 48225, Note_on_c, 6, 52, 0
8, 48240, Note_on_c, 6, 52, 100
8, 48255, Note_on_c, 6, 52, 0
8, 48270, Note_on_c, 6, 52, 100
8, 48285, Note_on_c, 6, 52, 0
8, 48300, Note_on_c, 6, 52, 100
8, 48315, Note_on_c, 6, 52, 0
8, 48330, Note_on_c, 6, 52, 100
8, 48345, Note_on_c, 6, 52, 0
8, 48360, Note_on_c, 6, 52, 100
8, 48405, Note_on_c, 6, 52, 0
8, 48420, Note_on_c, 6, 57, 100
8, 48435, Note_on_c, 6, 57, 0
8, 48450, Note_on_c, 6, 57, 100
8, 48465, Note_on_c, 6, 57, 0
8, 48480, Note_on_c, 6, 57, 100
8, 48495, Note_on_c, 6, 57, 0
8, 48510, Note_on_c, 6, 57, 100
8, 48525, Note_on_c, 6, 57, 0
8, 48540, Note_on_c, 6, 57, 100
8, 48555, Note_on_c, 6, 57, 0
8, 48570, Note_on_c, 6, 57, 100
8, 48585, Note_on_c, 6, 57, 0
8, 48600, Note_on_c, 6, 57, 100
8, 48645, Note_on_c, 6, 57, 0
8, 48660, Note_on_c, 6, 55, 100
8, 48675, Note_on_c, 6, 55, 0
8, 48690, Note_on_c, 6, 55, 100
8, 48705, Note_on_c, 6, 55, 0
8, 48720, Note_on_c, 6, 55, 100
8, 48735, Note_on_c, 6, 55, 0
8, 48750, Note_on_c, 6, 55, 100
8, 48765, Note_on_c, 6, 55, 0
8, 48780, Note_on_c, 6, 55, 100
8, 48795, Note_on_c, 6, 55, 0
8, 48810, Note_on_c, 6, 55, 100
8, 48825, Note_on_c, 6, 55, 0
8, 48840, Note_on_c, 6, 55, 100
8, 48885, Note_on_c, 6, 55, 0
8, 48900, Note_on_c, 6, 50, 100
8, 48945, Note_on_c, 6, 50, 0
8, 48960, Note_on_c, 6, 52, 100
8, 48975, Note_on_c, 6, 52, 0
8, 48990, Note_on_c, 6, 52, 100
8, 49005, Note_on_c, 6, 52, 0
8, 49020, Note_on_c, 6, 52, 100
8, 49035, Note_on_c, 6, 52, 0
8, 49050, Note_on_c, 6, 52, 100
8, 49065, Note_on_c, 6, 52, 0
8, 49080, Note_on_c, 6, 52, 100
8, 49125, Note_on_c, 6, 52, 0
8, 49140, Note_on_c, 6, 52, 100
8, 49155, Note_on_c, 6, 52, 0
8, 49170, Note_on_c, 6, 52, 100
8, 49185, Note_on_c, 6, 52, 0
8, 49200, Note_on_c, 6, 52, 100
8, 49215, Note_on_c, 6, 52, 0
8, 49230, Note_on_c, 6, 52, 100
8, 49245, Note_on_c, 6, 52, 0
8, 49260, Note_on_c, 6, 52, 100
8, 49275, Note_on_c, 6, 52, 0
8, 49290, Note_on_c, 6, 52, 100
8, 49305, Note_on_c, 6, 52, 0
8, 49320, Note_on_c, 6, 52, 100
8, 49365, Note_on_c, 6, 52, 0
8, 49380, Note_on_c, 6, 55, 100
8, 49425, Note_on_c, 6, 55, 0
8, 49440, Note_on_c, 6, 52, 100
8, 49455, Note_on_c, 6, 52, 0
8, 49470, Note_on_c, 6, 52, 100
8, 49485, Note_on_c, 6, 52, 0
8, 49500, Note_on_c, 6, 52, 100
8, 49515, Note_on_c, 6, 52, 0
8, 49530, Note_on_c, 6, 52, 100
8, 49545, Note_on_c, 6, 52, 0
8, 49560, Note_on_c, 6, 52, 100
8, 49605, Note_on_c, 6, 52, 0
8, 49620, Note_on_c, 6, 52, 100
8, 49635, Note_on_c, 6, 52, 0
8, 49650, Note_on_c, 6, 52, 100
8, 49665, Note_on_c, 6, 52, 0
8, 49680, Note_on_c, 6, 52, 100
8, 49695, Note_on_c, 6, 52, 0
8, 49710, Note_on_c, 6, 52, 100
8, 49725, Note_on_c, 6, 52, 0
8, 49740, Note_on_c, 6, 52, 100
8, 49755, Note_on_c, 6, 52, 0
8, 49770, Note_on_c, 6, 52, 100
8, 49785, Note_on_c, 6, 52, 0
8, 49800, Note_on_c, 6, 55, 100
8, 49845, Note_on_c, 6, 55, 0
8, 49860, Note_on_c, 6, 55, 100
8, 49905, Note_on_c, 6, 55, 0
8, 49920, Note_on_c, 6, 52, 100
8, 49935, Note_on_c, 6, 52, 0
8, 49950, Note_on_c, 6, 52, 100
8, 49965, Note_on_c, 6, 52, 0
8, 49980, Note_on_c, 6, 52, 100
8, 49995, Note_on_c, 6, 52, 0
8, 50010, Note_on_c, 6, 52, 100
8, 50025, Note_on_c, 6, 52, 0
8, 50040, Note_on_c, 6, 52, 100
8, 50085, Note_on_c, 6, 52, 0
8, 50100, Note_on_c, 6, 52, 100
8, 50115, Note_on_c, 6, 52, 0
8, 50130, Note_on_c, 6, 52, 100
8, 50145, Note_on_c, 6, 52, 0
8, 50160, Note_on_c, 6, 52, 100
8, 50175, Note_on_c, 6, 52, 0
8, 50190, Note_on_c, 6, 52, 100
8, 50205, Note_on_c, 6, 52, 0
8, 50220, Note_on_c, 6, 52, 100
8, 50235, Note_on_c, 6, 52, 0
8, 50250, Note_on_c, 6, 52, 100
8, 50265, Note_on_c, 6, 52, 0
8, 50280, Note_on_c, 6, 52, 100
8, 50325, Note_on_c, 6, 52, 0
8, 50340, Note_on_c, 6, 57, 100
8, 50355, Note_on_c, 6, 57, 0
8, 50370, Note_on_c, 6, 57, 100
8, 50385, Note_on_c, 6, 57, 0
8, 50400, Note_on_c, 6, 57, 100
8, 50415, Note_on_c, 6, 57, 0
8, 50430, Note_on_c, 6, 57, 100
8, 50445, Note_on_c, 6, 57, 0
8, 50460, Note_on_c, 6, 57, 100
8, 50475, Note_on_c, 6, 57, 0
8, 50490, Note_on_c, 6, 57, 100
8, 50505, Note_on_c, 6, 57, 0
8, 50520, Note_on_c, 6, 57, 100
8, 50565, Note_on_c, 6, 57, 0
8, 50580, Note_on_c, 6, 55, 100
8, 50595, Note_on_c, 6, 55, 0
8, 50610, Note_on_c, 6, 55, 100
8, 50625, Note_on_c, 6, 55, 0
8, 50640, Note_on_c, 6, 55, 100
8, 50655, Note_on_c, 6, 55, 0
8, 50670, Note_on_c, 6, 55, 100
8, 50685, Note_on_c, 6, 55, 0
8, 50700, Note_on_c, 6, 55, 100
8, 50715, Note_on_c, 6, 55, 0
8, 50730, Note_on_c, 6, 55, 100
8, 50745, Note_on_c, 6, 55, 0
8, 50760, Note_on_c, 6, 55, 100
8, 50805, Note_on_c, 6, 55, 0
8, 50820, Note_on_c, 6, 50, 100
8, 50865, Note_on_c, 6, 50, 0
8, 50880, Note_on_c, 6, 52, 100
8, 50895, Note_on_c, 6, 52, 0
8, 50910, Note_on_c, 6, 52, 100
8, 50925, Note_on_c, 6, 52, 0
8, 50940, Note_on_c, 6, 52, 100
8, 50955, Note_on_c, 6, 52, 0
8, 50970, Note_on_c, 6, 52, 100
8, 50985, Note_on_c, 6, 52, 0
8, 51000, Note_on_c, 6, 52, 100
8, 51045, Note_on_c, 6, 52, 0
8, 51060, Note_on_c, 6, 52, 100
8, 51075, Note_on_c, 6, 52, 0
8, 51090, Note_on_c, 6, 52, 100
8, 51105, Note_on_c, 6, 52, 0
8, 51120, Note_on_c, 6, 52, 100
8, 51135, Note_on_c, 6, 52, 0
8, 51150, Note_on_c, 6, 52, 100
8, 51165, Note_on_c, 6, 52, 0
8, 51180, Note_on_c, 6, 52, 100
8, 51195, Note_on_c, 6, 52, 0
8, 51210, Note_on_c, 6, 52, 100
8, 51225, Note_on_c, 6, 52, 0
8, 51240, Note_on_c, 6, 55, 100
8, 51285, Note_on_c, 6, 55, 0
8, 51300, Note_on_c, 6, 55, 100
8, 51345, Note_on_c, 6, 55, 0
8, 51360, Note_on_c, 6, 52, 100
8, 51375, Note_on_c, 6, 52, 0
8, 51390, Note_on_c, 6, 52, 100
8, 51405, Note_on_c, 6, 52, 0
8, 51420, Note_on_c, 6, 52, 100
8, 51435, Note_on_c, 6, 52, 0
8, 51450, Note_on_c, 6, 52, 100
8, 51465, Note_on_c, 6, 52, 0
8, 51480, Note_on_c, 6, 52, 100
8, 51525, Note_on_c, 6, 52, 0
8, 51540, Note_on_c, 6, 52, 100
8, 51555, Note_on_c, 6, 52, 0
8, 51570, Note_on_c, 6, 52, 100
8, 51585, Note_on_c, 6, 52, 0
8, 51600, Note_on_c, 6, 52, 100
8, 51615, Note_on_c, 6, 52, 0
8, 51630, Note_on_c, 6, 52, 100
8, 51645, Note_on_c, 6, 52, 0
8, 51660, Note_on_c, 6, 52, 100
8, 51675, Note_on_c, 6, 52, 0
8, 51690, Note_on_c, 6, 52, 100
8, 51705, Note_on_c, 6, 52, 0
8, 51720, Note_on_c, 6, 55, 100
8, 51765, Note_on_c, 6, 55, 0
8, 51780, Note_on_c, 6, 55, 100
8, 51825, Note_on_c, 6, 55, 0
8, 51840, Note_on_c, 6, 52, 100
8, 51855, Note_on_c, 6, 52, 0
8, 51870, Note_on_c, 6, 52, 100
8, 51885, Note_on_c, 6, 52, 0
8, 51900, Note_on_c, 6, 52, 100
8, 51915, Note_on_c, 6, 52, 0
8, 51930, Note_on_c, 6, 52, 100
8, 51945, Note_on_c, 6, 52, 0
8, 51960, Note_on_c, 6, 55, 100
8, 52005, Note_on_c, 6, 55, 0
8, 52020, Note_on_c, 6, 55, 100
8, 52065, Note_on_c, 6, 55, 0
8, 52080, Note_on_c, 6, 52, 100
8, 52095, Note_on_c, 6, 52, 0
8, 52110, Note_on_c, 6, 52, 100
8, 52125, Note_on_c, 6, 52, 0
8, 52140, Note_on_c, 6, 52, 100
8, 52155, Note_on_c, 6, 52, 0
8, 52170, Note_on_c, 6, 52, 100
8, 52185, Note_on_c, 6, 52, 0
8, 52200, Note_on_c, 6, 55, 100
8, 52245, Note_on_c, 6, 55, 0
8, 52260, Note_on_c, 6, 55, 100
8, 52305, Note_on_c, 6, 55, 0
8, 52320, Note_on_c, 6, 52, 100
8, 52335, Note_on_c, 6, 52, 0
8, 52350, Note_on_c, 6, 52, 100
8, 52365, Note_on_c, 6, 52, 0
8, 52380, Note_on_c, 6, 55, 100
8, 52425, Note_on_c, 6, 55, 0
8, 52440, Note_on_c, 6, 52, 100
8, 52455, Note_on_c, 6, 52, 0
8, 52470, Note_on_c, 6, 52, 100
8, 52485, Note_on_c, 6, 52, 0
8, 52500, Note_on_c, 6, 55, 100
8, 52545, Note_on_c, 6, 55, 0
8, 52560, Note_on_c, 6, 52, 100
8, 52575, Note_on_c, 6, 52, 0
8, 52590, Note_on_c, 6, 52, 100
8, 52605, Note_on_c, 6, 52, 0
8, 52620, Note_on_c, 6, 55, 100
8, 52665, Note_on_c, 6, 55, 0
8, 52680, Note_on_c, 6, 52, 100
8, 52695, Note_on_c, 6, 52, 0
8, 52710, Note_on_c, 6, 52, 100
8, 52725, Note_on_c, 6, 52, 0
8, 52740, Note_on_c, 6, 55, 100
8, 52785, Note_on_c, 6, 55, 0
8, 52800, Note_on_c, 6, 52, 100
8, 52815, Note_on_c, 6, 52, 0
8, 52830, Note_on_c, 6, 52, 100
8, 52845, Note_on_c, 6, 52, 0
8, 52860, Note_on_c, 6, 52, 100
8, 52875, Note_on_c, 6, 52, 0
8, 52890, Note_on_c, 6, 52, 100
8, 52905, Note_on_c, 6, 52, 0
8, 52920, Note_on_c, 6, 52, 100
8, 52965, Note_on_c, 6, 52, 0
8, 52980, Note_on_c, 6, 52, 100
8, 52995, Note_on_c, 6, 52, 0
8, 53010, Note_on_c, 6, 52, 100
8, 53025, Note_on_c, 6, 52, 0
8, 53040, Note_on_c, 6, 52, 100
8, 53055, Note_on_c, 6, 52, 0
8, 53070, Note_on_c, 6, 52, 100
8, 53085, Note_on_c, 6, 52, 0
8, 53100, Note_on_c, 6, 52, 100
8, 53115, Note_on_c, 6, 52, 0
8, 53130, Note_on_c, 6, 52, 100
8, 53145, Note_on_c, 6, 52, 0
8, 53160, Note_on_c, 6, 52, 100
8, 53205, Note_on_c, 6, 52, 0
8, 53220, Note_on_c, 6, 57, 100
8, 53235, Note_on_c, 6, 57, 0
8, 53250, Note_on_c, 6, 57, 100
8, 53265, Note_on_c, 6, 57, 0
8, 53280, Note_on_c, 6, 57, 100
8, 53295, Note_on_c, 6, 57, 0
8, 53310, Note_on_c, 6, 57, 100
8, 53325, Note_on_c, 6, 57, 0
8, 53340, Note_on_c, 6, 57, 100
8, 53355, Note_on_c, 6, 57, 0
8, 53370, Note_on_c, 6, 57, 100
8, 53385, Note_on_c, 6, 57, 0
8, 53400, Note_on_c, 6, 57, 100
8, 53445, Note_on_c, 6, 57, 0
8, 53460, Note_on_c, 6, 55, 100
8, 53475, Note_on_c, 6, 55, 0
8, 53490, Note_on_c, 6, 55, 100
8, 53505, Note_on_c, 6, 55, 0
8, 53520, Note_on_c, 6, 55, 100
8, 53535, Note_on_c, 6, 55, 0
8, 53550, Note_on_c, 6, 55, 100
8, 53565, Note_on_c, 6, 55, 0
8, 53580, Note_on_c, 6, 55, 100
8, 53595, Note_on_c, 6, 55, 0
8, 53610, Note_on_c, 6, 55, 100
8, 53625, Note_on_c, 6, 55, 0
8, 53640, Note_on_c, 6, 55, 100
8, 53685, Note_on_c, 6, 55, 0
8, 53700, Note_on_c, 6, 50, 100
8, 53715, Note_on_c, 6, 50, 0
8, 53730, Note_on_c, 6, 50, 100
8, 53745, Note_on_c, 6, 50, 0
8, 53760, Note_on_c, 6, 52, 100
8, 53775, Note_on_c, 6, 52, 0
8, 53790, Note_on_c, 6, 52, 100
8, 53805, Note_on_c, 6, 52, 0
8, 53820, Note_on_c, 6, 52, 100
8, 53835, Note_on_c, 6, 52, 0
8, 53850, Note_on_c, 6, 52, 100
8, 53865, Note_on_c, 6, 52, 0
8, 53880, Note_on_c, 6, 52, 100
8, 53925, Note_on_c, 6, 52, 0
8, 53940, Note_on_c, 6, 52, 100
8, 53955, Note_on_c, 6, 52, 0
8, 53970, Note_on_c, 6, 52, 100
8, 53985, Note_on_c, 6, 52, 0
8, 54000, Note_on_c, 6, 52, 100
8, 54015, Note_on_c, 6, 52, 0
8, 54030, Note_on_c, 6, 52, 100
8, 54045, Note_on_c, 6, 52, 0
8, 54060, Note_on_c, 6, 52, 100
8, 54075, Note_on_c, 6, 52, 0
8, 54090, Note_on_c, 6, 52, 100
8, 54105, Note_on_c, 6, 52, 0
8, 54120, Note_on_c, 6, 52, 100
8, 54165, Note_on_c, 6, 52, 0
8, 54180, Note_on_c, 6, 57, 100
8, 54195, Note_on_c, 6, 57, 0
8, 54210, Note_on_c, 6, 57, 100
8, 54225, Note_on_c, 6, 57, 0
8, 54240, Note_on_c, 6, 52, 100
8, 54255, Note_on_c, 6, 52, 0
8, 54270, Note_on_c, 6, 52, 100
8, 54285, Note_on_c, 6, 52, 0
8, 54300, Note_on_c, 6, 52, 100
8, 54315, Note_on_c, 6, 52, 0
8, 54330, Note_on_c, 6, 52, 100
8, 54345, Note_on_c, 6, 52, 0
8, 54360, Note_on_c, 6, 52, 100
8, 54405, Note_on_c, 6, 52, 0
8, 54420, Note_on_c, 6, 52, 100
8, 54435, Note_on_c, 6, 52, 0
8, 54450, Note_on_c, 6, 52, 100
8, 54465, Note_on_c, 6, 52, 0
8, 54480, Note_on_c, 6, 52, 100
8, 54495, Note_on_c, 6, 52, 0
8, 54510, Note_on_c, 6, 52, 100
8, 54525, Note_on_c, 6, 52, 0
8, 54540, Note_on_c, 6, 52, 100
8, 54555, Note_on_c, 6, 52, 0
8, 54570, Note_on_c, 6, 52, 100
8, 54585, Note_on_c, 6, 52, 0
8, 54600, Note_on_c, 6, 52, 100
8, 54645, Note_on_c, 6, 52, 0
8, 54660, Note_on_c, 6, 57, 100
8, 54675, Note_on_c, 6, 57, 0
8, 54690, Note_on_c, 6, 57, 100
8, 54705, Note_on_c, 6, 57, 0
8, 54720, Note_on_c, 6, 52, 100
8, 54735, Note_on_c, 6, 52, 0
8, 54750, Note_on_c, 6, 52, 100
8, 54765, Note_on_c, 6, 52, 0
8, 54780, Note_on_c, 6, 52, 100
8, 54795, Note_on_c, 6, 52, 0
8, 54810, Note_on_c, 6, 52, 100
8, 54825, Note_on_c, 6, 52, 0
8, 54840, Note_on_c, 6, 52, 100
8, 54885, Note_on_c, 6, 52, 0
8, 54900, Note_on_c, 6, 52, 100
8, 54915, Note_on_c, 6, 52, 0
8, 54930, Note_on_c, 6, 52, 100
8, 54945, Note_on_c, 6, 52, 0
8, 54960, Note_on_c, 6, 52, 100
8, 54975, Note_on_c, 6, 52, 0
8, 54990, Note_on_c, 6, 52, 100
8, 55005, Note_on_c, 6, 52, 0
8, 55020, Note_on_c, 6, 52, 100
8, 55035, Note_on_c, 6, 52, 0
8, 55050, Note_on_c, 6, 52, 100
8, 55065, Note_on_c, 6, 52, 0
8, 55080, Note_on_c, 6, 52, 100
8, 55125, Note_on_c, 6, 52, 0
8, 55140, Note_on_c, 6, 57, 100
8, 55155, Note_on_c, 6, 57, 0
8, 55170, Note_on_c, 6, 57, 100
8, 55185, Note_on_c, 6, 57, 0
8, 55200, Note_on_c, 6, 57, 100
8, 55215, Note_on_c, 6, 57, 0
8, 55230, Note_on_c, 6, 57, 100
8, 55245, Note_on_c, 6, 57, 0
8, 55260, Note_on_c, 6, 57, 100
8, 55275, Note_on_c, 6, 57, 0
8, 55290, Note_on_c, 6, 57, 100
8, 55305, Note_on_c, 6, 57, 0
8, 55320, Note_on_c, 6, 57, 100
8, 55365, Note_on_c, 6, 57, 0
8, 55380, Note_on_c, 6, 55, 100
8, 55395, Note_on_c, 6, 55, 0
8, 55410, Note_on_c, 6, 55, 100
8, 55425, Note_on_c, 6, 55, 0
8, 55440, Note_on_c, 6, 55, 100
8, 55455, Note_on_c, 6, 55, 0
8, 55470, Note_on_c, 6, 55, 100
8, 55485, Note_on_c, 6, 55, 0
8, 55500, Note_on_c, 6, 55, 100
8, 55515, Note_on_c, 6, 55, 0
8, 55530, Note_on_c, 6, 55, 100
8, 55545, Note_on_c, 6, 55, 0
8, 55560, Note_on_c, 6, 55, 100
8, 55605, Note_on_c, 6, 55, 0
8, 55620, Note_on_c, 6, 50, 100
8, 55635, Note_on_c, 6, 50, 0
8, 55650, Note_on_c, 6, 50, 100
8, 55665, Note_on_c, 6, 50, 0
8, 55680, Note_on_c, 6, 52, 100
8, 55695, Note_on_c, 6, 52, 0
8, 55710, Note_on_c, 6, 52, 100
8, 55725, Note_on_c, 6, 52, 0
8, 55740, Note_on_c, 6, 52, 100
8, 55755, Note_on_c, 6, 52, 0
8, 55770, Note_on_c, 6, 52, 100
8, 55785, Note_on_c, 6, 52, 0
8, 55800, Note_on_c, 6, 52, 100
8, 55845, Note_on_c, 6, 52, 0
8, 55860, Note_on_c, 6, 52, 100
8, 55875, Note_on_c, 6, 52, 0
8, 55890, Note_on_c, 6, 52, 100
8, 55905, Note_on_c, 6, 52, 0
8, 55920, Note_on_c, 6, 52, 100
8, 55935, Note_on_c, 6, 52, 0
8, 55950, Note_on_c, 6, 52, 100
8, 55965, Note_on_c, 6, 52, 0
8, 55980, Note_on_c, 6, 52, 100
8, 55995, Note_on_c, 6, 52, 0
8, 56010, Note_on_c, 6, 52, 100
8, 56025, Note_on_c, 6, 52, 0
8, 56040, Note_on_c, 6, 52, 100
8, 56085, Note_on_c, 6, 52, 0
8, 56100, Note_on_c, 6, 57, 100
8, 56115, Note_on_c, 6, 57, 0
8, 56130, Note_on_c, 6, 57, 100
8, 56145, Note_on_c, 6, 57, 0
8, 56160, Note_on_c, 6, 52, 100
8, 56175, Note_on_c, 6, 52, 0
8, 56190, Note_on_c, 6, 52, 100
8, 56205, Note_on_c, 6, 52, 0
8, 56220, Note_on_c, 6, 52, 100
8, 56235, Note_on_c, 6, 52, 0
8, 56250, Note_on_c, 6, 52, 100
8, 56265, Note_on_c, 6, 52, 0
8, 56280, Note_on_c, 6, 52, 100
8, 56325, Note_on_c, 6, 52, 0
8, 56340, Note_on_c, 6, 52, 100
8, 56355, Note_on_c, 6, 52, 0
8, 56370, Note_on_c, 6, 52, 100
8, 56385, Note_on_c, 6, 52, 0
8, 56400, Note_on_c, 6, 52, 100
8, 56415, Note_on_c, 6, 52, 0
8, 56430, Note_on_c, 6, 52, 100
8, 56445, Note_on_c, 6, 52, 0
8, 56460, Note_on_c, 6, 52, 100
8, 56475, Note_on_c, 6, 52, 0
8, 56490, Note_on_c, 6, 52, 100
8, 56505, Note_on_c, 6, 52, 0
8, 56520, Note_on_c, 6, 52, 100
8, 56565, Note_on_c, 6, 52, 0
8, 56580, Note_on_c, 6, 57, 100
8, 56595, Note_on_c, 6, 57, 0
8, 56610, Note_on_c, 6, 57, 100
8, 56625, Note_on_c, 6, 57, 0
8, 56640, Note_on_c, 6, 52, 100
8, 56655, Note_on_c, 6, 52, 0
8, 56670, Note_on_c, 6, 52, 100
8, 56685, Note_on_c, 6, 52, 0
8, 56700, Note_on_c, 6, 52, 100
8, 56715, Note_on_c, 6, 52, 0
8, 56730, Note_on_c, 6, 52, 100
8, 56745, Note_on_c, 6, 52, 0
8, 56760, Note_on_c, 6, 52, 100
8, 56805, Note_on_c, 6, 52, 0
8, 56820, Note_on_c, 6, 52, 100
8, 56835, Note_on_c, 6, 52, 0
8, 56850, Note_on_c, 6, 52, 100
8, 56865, Note_on_c, 6, 52, 0
8, 56880, Note_on_c, 6, 52, 100
8, 56895, Note_on_c, 6, 52, 0
8, 56910, Note_on_c, 6, 52, 100
8, 56925, Note_on_c, 6, 52, 0
8, 56940, Note_on_c, 6, 52, 100
8, 56955, Note_on_c, 6, 52, 0
8, 56970, Note_on_c, 6, 52, 100
8, 56985, Note_on_c, 6, 52, 0
8, 57000, Note_on_c, 6, 52, 100
8, 57045, Note_on_c, 6, 52, 0
8, 57060, Note_on_c, 6, 57, 100
8, 57075, Note_on_c, 6, 57, 0
8, 57090, Note_on_c, 6, 57, 100
8, 57105, Note_on_c, 6, 57, 0
8, 57120, Note_on_c, 6, 57, 100
8, 57135, Note_on_c, 6, 57, 0
8, 57150, Note_on_c, 6, 57, 100
8, 57165, Note_on_c, 6, 57, 0
8, 57180, Note_on_c, 6, 57, 100
8, 57195, Note_on_c, 6, 57, 0
8, 57210, Note_on_c, 6, 57, 100
8, 57225, Note_on_c, 6, 57, 0
8, 57240, Note_on_c, 6, 57, 100
8, 57285, Note_on_c, 6, 57, 0
8, 57300, Note_on_c, 6, 55, 100
8, 57315, Note_on_c, 6, 55, 0
8, 57330, Note_on_c, 6, 55, 100
8, 57345, Note_on_c, 6, 55, 0
8, 57360, Note_on_c, 6, 55, 100
8, 57375, Note_on_c, 6, 55, 0
8, 57390, Note_on_c, 6, 55, 100
8, 57405, Note_on_c, 6, 55, 0
8, 57420, Note_on_c, 6, 55, 100
8, 57435, Note_on_c, 6, 55, 0
8, 57450, Note_on_c, 6, 55, 100
8, 57465, Note_on_c, 6, 55, 0
8, 57480, Note_on_c, 6, 55, 100
8, 57525, Note_on_c, 6, 55, 0
8, 57540, Note_on_c, 6, 50, 100
8, 57555, Note_on_c, 6, 50, 0
8, 57570, Note_on_c, 6, 50, 100
8, 57585, Note_on_c, 6, 50, 0
8, 57600, Note_on_c, 6, 52, 100
8, 57615, Note_on_c, 6, 52, 0
8, 57630, Note_on_c, 6, 52, 100
8, 57645, Note_on_c, 6, 52, 0
8, 57660, Note_on_c, 6, 52, 100
8, 57675, Note_on_c, 6, 52, 0
8, 57690, Note_on_c, 6, 52, 100
8, 57705, Note_on_c, 6, 52, 0
8, 57720, Note_on_c, 6, 52, 100
8, 57765, Note_on_c, 6, 52, 0
8, 57780, Note_on_c, 6, 52, 100
8, 57795, Note_on_c, 6, 52, 0
8, 57810, Note_on_c, 6, 52, 100
8, 57825, Note_on_c, 6, 52, 0
8, 57840, Note_on_c, 6, 52, 100
8, 57855, Note_on_c, 6, 52, 0
8, 57870, Note_on_c, 6, 52, 100
8, 57885, Note_on_c, 6, 52, 0
8, 57900, Note_on_c, 6, 52, 100
8, 57915, Note_on_c, 6, 52, 0
8, 57930, Note_on_c, 6, 52, 100
8, 57945, Note_on_c, 6, 52, 0
8, 57960, Note_on_c, 6, 52, 100
8, 58005, Note_on_c, 6, 52, 0
8, 58020, Note_on_c, 6, 57, 100
8, 58035, Note_on_c, 6, 57, 0
8, 58050, Note_on_c, 6, 57, 100
8, 58065, Note_on_c, 6, 57, 0
8, 58080, Note_on_c, 6, 52, 100
8, 58095, Note_on_c, 6, 52, 0
8, 58110, Note_on_c, 6, 52, 100
8, 58125, Note_on_c, 6, 52, 0
8, 58140, Note_on_c, 6, 52, 100
8, 58155, Note_on_c, 6, 52, 0
8, 58170, Note_on_c, 6, 52, 100
8, 58185, Note_on_c, 6, 52, 0
8, 58200, Note_on_c, 6, 52, 100
8, 58245, Note_on_c, 6, 52, 0
8, 58260, Note_on_c, 6, 52, 100
8, 58275, Note_on_c, 6, 52, 0
8, 58290, Note_on_c, 6, 52, 100
8, 58305, Note_on_c, 6, 52, 0
8, 58320, Note_on_c, 6, 52, 100
8, 58335, Note_on_c, 6, 52, 0
8, 58350, Note_on_c, 6, 52, 100
8, 58365, Note_on_c, 6, 52, 0
8, 58380, Note_on_c, 6, 52, 100
8, 58395, Note_on_c, 6, 52, 0
8, 58410, Note_on_c, 6, 52, 100
8, 58425, Note_on_c, 6, 52, 0
8, 58440, Note_on_c, 6, 52, 100
8, 58485, Note_on_c, 6, 52, 0
8, 58500, Note_on_c, 6, 57, 100
8, 58515, Note_on_c, 6, 57, 0
8, 58530, Note_on_c, 6, 57, 100
8, 58545, Note_on_c, 6, 57, 0
8, 58560, Note_on_c, 6, 52, 100
8, 58575, Note_on_c, 6, 52, 0
8, 58590, Note_on_c, 6, 52, 100
8, 58605, Note_on_c, 6, 52, 0
8, 58620, Note_on_c, 6, 52, 100
8, 58635, Note_on_c, 6, 52, 0
8, 58650, Note_on_c, 6, 52, 100
8, 58665, Note_on_c, 6, 52, 0
8, 58680, Note_on_c, 6, 52, 100
8, 58725, Note_on_c, 6, 52, 0
8, 58740, Note_on_c, 6, 52, 100
8, 58755, Note_on_c, 6, 52, 0
8, 58770, Note_on_c, 6, 52, 100
8, 58785, Note_on_c, 6, 52, 0
8, 58800, Note_on_c, 6, 52, 100
8, 58815, Note_on_c, 6, 52, 0
8, 58830, Note_on_c, 6, 52, 100
8, 58845, Note_on_c, 6, 52, 0
8, 58860, Note_on_c, 6, 52, 100
8, 58875, Note_on_c, 6, 52, 0
8, 58890, Note_on_c, 6, 52, 100
8, 58905, Note_on_c, 6, 52, 0
8, 58920, Note_on_c, 6, 52, 100
8, 58965, Note_on_c, 6, 52, 0
8, 58980, Note_on_c, 6, 57, 100
8, 58995, Note_on_c, 6, 57, 0
8, 59010, Note_on_c, 6, 57, 100
8, 59025, Note_on_c, 6, 57, 0
8, 59040, Note_on_c, 6, 57, 100
8, 59055, Note_on_c, 6, 57, 0
8, 59070, Note_on_c, 6, 57, 100
8, 59085, Note_on_c, 6, 57, 0
8, 59100, Note_on_c, 6, 57, 100
8, 59115, Note_on_c, 6, 57, 0
8, 59130, Note_on_c, 6, 57, 100
8, 59145, Note_on_c, 6, 57, 0
8, 59160, Note_on_c, 6, 57, 100
8, 59205, Note_on_c, 6, 57, 0
8, 59220, Note_on_c, 6, 55, 100
8, 59235, Note_on_c, 6, 55, 0
8, 59250, Note_on_c, 6, 55, 100
8, 59265, Note_on_c, 6, 55, 0
8, 59280, Note_on_c, 6, 55, 100
8, 59295, Note_on_c, 6, 55, 0
8, 59310, Note_on_c, 6, 55, 100
8, 59325, Note_on_c, 6, 55, 0
8, 59340, Note_on_c, 6, 55, 100
8, 59355, Note_on_c, 6, 55, 0
8, 59370, Note_on_c, 6, 55, 100
8, 59385, Note_on_c, 6, 55, 0
8, 59400, Note_on_c, 6, 55, 100
8, 59445, Note_on_c, 6, 55, 0
8, 59460, Note_on_c, 6, 50, 100
8, 59475, Note_on_c, 6, 50, 0
8, 59490, Note_on_c, 6, 50, 100
8, 59505, Note_on_c, 6, 50, 0
8, 59520, Note_on_c, 6, 52, 100
8, 59535, Note_on_c, 6, 52, 0
8, 59550, Note_on_c, 6, 52, 100
8, 59565, Note_on_c, 6, 52, 0
8, 59580, Note_on_c, 6, 52, 100
8, 59595, Note_on_c, 6, 52, 0
8, 59610, Note_on_c, 6, 52, 100
8, 59625, Note_on_c, 6, 52, 0
8, 59640, Note_on_c, 6, 52, 100
8, 59685, Note_on_c, 6, 52, 0
8, 59700, Note_on_c, 6, 52, 100
8, 59715, Note_on_c, 6, 52, 0
8, 59730, Note_on_c, 6, 52, 100
8, 59745, Note_on_c, 6, 52, 0
8, 59760, Note_on_c, 6, 52, 100
8, 59775, Note_on_c, 6, 52, 0
8, 59790, Note_on_c, 6, 52, 100
8, 59805, Note_on_c, 6, 52, 0
8, 59820, Note_on_c, 6, 52, 100
8, 59835, Note_on_c, 6, 52, 0
8, 59850, Note_on_c, 6, 52, 100
8, 59865, Note_on_c, 6, 52, 0
8, 59880, Note_on_c, 6, 52, 100
8, 59925, Note_on_c, 6, 52, 0
8, 59940, Note_on_c, 6, 57, 100
8, 59955, Note_on_c, 6, 57, 0
8, 59970, Note_on_c, 6, 57, 100
8, 59985, Note_on_c, 6, 57, 0
8, 60000, Note_on_c, 6, 52, 100
8, 60015, Note_on_c, 6, 52, 0
8, 60030, Note_on_c, 6, 52, 100
8, 60045, Note_on_c, 6, 52, 0
8, 60060, Note_on_c, 6, 52, 100
8, 60075, Note_on_c, 6, 52, 0
8, 60090, Note_on_c, 6, 52, 100
8, 60105, Note_on_c, 6, 52, 0
8, 60120, Note_on_c, 6, 52, 100
8, 60165, Note_on_c, 6, 52, 0
8, 60180, Note_on_c, 6, 52, 100
8, 60195, Note_on_c, 6, 52, 0
8, 60210, Note_on_c, 6, 52, 100
8, 60225, Note_on_c, 6, 52, 0
8, 60240, Note_on_c, 6, 52, 100
8, 60255, Note_on_c, 6, 52, 0
8, 60270, Note_on_c, 6, 52, 100
8, 60285, Note_on_c, 6, 52, 0
8, 60300, Note_on_c, 6, 52, 100
8, 60315, Note_on_c, 6, 52, 0
8, 60330, Note_on_c, 6, 52, 100
8, 60345, Note_on_c, 6, 52, 0
8, 60360, Note_on_c, 6, 52, 100
8, 60405, Note_on_c, 6, 52, 0
8, 60420, Note_on_c, 6, 57, 100
8, 60435, Note_on_c, 6, 57, 0
8, 60450, Note_on_c, 6, 57, 100
8, 60465, Note_on_c, 6, 57, 0
8, 60480, Note_on_c, 6, 52, 100
8, 60495, Note_on_c, 6, 52, 0
8, 60510, Note_on_c, 6, 52, 100
8, 60525, Note_on_c, 6, 52, 0
8, 60540, Note_on_c, 6, 52, 100
8, 60555, Note_on_c, 6, 52, 0
8, 60570, Note_on_c, 6, 52, 100
8, 60585, Note_on_c, 6, 52, 0
8, 60600, Note_on_c, 6, 52, 100
8, 60645, Note_on_c, 6, 52, 0
8, 60660, Note_on_c, 6, 52, 100
8, 60675, Note_on_c, 6, 52, 0
8, 60690, Note_on_c, 6, 52, 100
8, 60705, Note_on_c, 6, 52, 0
8, 60720, Note_on_c, 6, 52, 100
8, 60735, Note_on_c, 6, 52, 0
8, 60750, Note_on_c, 6, 52, 100
8, 60765, Note_on_c, 6, 52, 0
8, 60780, Note_on_c, 6, 52, 100
8, 60795, Note_on_c, 6, 52, 0
8, 60810, Note_on_c, 6, 52, 100
8, 60825, Note_on_c, 6, 52, 0
8, 60840, Note_on_c, 6, 52, 100
8, 60885, Note_on_c, 6, 52, 0
8, 60900, Note_on_c, 6, 55, 100
8, 60945, Note_on_c, 6, 55, 0
8, 60960, Note_on_c, 6, 52, 100
8, 60975, Note_on_c, 6, 52, 0
8, 60990, Note_on_c, 6, 52, 100
8, 61005, Note_on_c, 6, 52, 0
8, 61020, Note_on_c, 6, 52, 100
8, 61035, Note_on_c, 6, 52, 0
8, 61050, Note_on_c, 6, 52, 100
8, 61065, Note_on_c, 6, 52, 0
8, 61080, Note_on_c, 6, 52, 100
8, 61125, Note_on_c, 6, 52, 0
8, 61140, Note_on_c, 6, 52, 100
8, 61155, Note_on_c, 6, 52, 0
8, 61170, Note_on_c, 6, 52, 100
8, 61185, Note_on_c, 6, 52, 0
8, 61200, Note_on_c, 6, 52, 100
8, 61215, Note_on_c, 6, 52, 0
8, 61230, Note_on_c, 6, 52, 100
8, 61245, Note_on_c, 6, 52, 0
8, 61260, Note_on_c, 6, 52, 100
8, 61275, Note_on_c, 6, 52, 0
8, 61290, Note_on_c, 6, 52, 100
8, 61305, Note_on_c, 6, 52, 0
8, 61320, Note_on_c, 6, 55, 100
8, 61365, Note_on_c, 6, 55, 0
8, 61380, Note_on_c, 6, 55, 100
8, 61425, Note_on_c, 6, 55, 0
8, 61440, Note_on_c, 6, 52, 100
8, 61455, Note_on_c, 6, 52, 0
8, 61470, Note_on_c, 6, 52, 100
8, 61485, Note_on_c, 6, 52, 0
8, 61500, Note_on_c, 6, 52, 100
8, 61515, Note_on_c, 6, 52, 0
8, 61530, Note_on_c, 6, 52, 100
8, 61545, Note_on_c, 6, 52, 0
8, 61560, Note_on_c, 6, 52, 100
8, 61605, Note_on_c, 6, 52, 0
8, 61620, Note_on_c, 6, 52, 100
8, 61635, Note_on_c, 6, 52, 0
8, 61650, Note_on_c, 6, 52, 100
8, 61665, Note_on_c, 6, 52, 0
8, 61680, Note_on_c, 6, 52, 100
8, 61695, Note_on_c, 6, 52, 0
8, 61710, Note_on_c, 6, 52, 100
8, 61725, Note_on_c, 6, 52, 0
8, 61740, Note_on_c, 6, 52, 100
8, 61755, Note_on_c, 6, 52, 0
8, 61770, Note_on_c, 6, 52, 100
8, 61785, Note_on_c, 6, 52, 0
8, 61800, Note_on_c, 6, 52, 100
8, 61845, Note_on_c, 6, 52, 0
8, 61860, Note_on_c, 6, 57, 100
8, 61875, Note_on_c, 6, 57, 0
8, 61890, Note_on_c, 6, 57, 100
8, 61905, Note_on_c, 6, 57, 0
8, 61920, Note_on_c, 6, 57, 100
8, 61935, Note_on_c, 6, 57, 0
8, 61950, Note_on_c, 6, 57, 100
8, 61965, Note_on_c, 6, 57, 0
8, 61980, Note_on_c, 6, 57, 100
8, 61995, Note_on_c, 6, 57, 0
8, 62010, Note_on_c, 6, 57, 100
8, 62025, Note_on_c, 6, 57, 0
8, 62040, Note_on_c, 6, 57, 100
8, 62085, Note_on_c, 6, 57, 0
8, 62100, Note_on_c, 6, 55, 100
8, 62115, Note_on_c, 6, 55, 0
8, 62130, Note_on_c, 6, 55, 100
8, 62145, Note_on_c, 6, 55, 0
8, 62160, Note_on_c, 6, 55, 100
8, 62175, Note_on_c, 6, 55, 0
8, 62190, Note_on_c, 6, 55, 100
8, 62205, Note_on_c, 6, 55, 0
8, 62220, Note_on_c, 6, 55, 100
8, 62235, Note_on_c, 6, 55, 0
8, 62250, Note_on_c, 6, 55, 100
8, 62265, Note_on_c, 6, 55, 0
8, 62280, Note_on_c, 6, 55, 100
8, 62325, Note_on_c, 6, 55, 0
8, 62340, Note_on_c, 6, 50, 100
8, 62385, Note_on_c, 6, 50, 0
8, 62400, Note_on_c, 6, 52, 100
8, 62415, Note_on_c, 6, 52, 0
8, 62430, Note_on_c, 6, 52, 100
8, 62445, Note_on_c, 6, 52, 0
8, 62460, Note_on_c, 6, 52, 100
8, 62475, Note_on_c, 6, 52, 0
8, 62490, Note_on_c, 6, 52, 100
8, 62505, Note_on_c, 6, 52, 0
8, 62520, Note_on_c, 6, 52, 100
8, 62565, Note_on_c, 6, 52, 0
8, 62580, Note_on_c, 6, 52, 100
8, 62595, Note_on_c, 6, 52, 0
8, 62610, Note_on_c, 6, 52, 100
8, 62625, Note_on_c, 6, 52, 0
8, 62640, Note_on_c, 6, 52, 100
8, 62655, Note_on_c, 6, 52, 0
8, 62670, Note_on_c, 6, 52, 100
8, 62685, Note_on_c, 6, 52, 0
8, 62700, Note_on_c, 6, 52, 100
8, 62715, Note_on_c, 6, 52, 0
8, 62730, Note_on_c, 6, 52, 100
8, 62745, Note_on_c, 6, 52, 0
8, 62760, Note_on_c, 6, 52, 100
8, 62805, Note_on_c, 6, 52, 0
8, 62820, Note_on_c, 6, 55, 100
8, 62865, Note_on_c, 6, 55, 0
8, 62880, Note_on_c, 6, 52, 100
8, 62895, Note_on_c, 6, 52, 0
8, 62910, Note_on_c, 6, 52, 100
8, 62925, Note_on_c, 6, 52, 0
8, 62940, Note_on_c, 6, 52, 100
8, 62955, Note_on_c, 6, 52, 0
8, 62970, Note_on_c, 6, 52, 100
8, 62985, Note_on_c, 6, 52, 0
8, 63000, Note_on_c, 6, 52, 100
8, 63045, Note_on_c, 6, 52, 0
8, 63060, Note_on_c, 6, 52, 100
8, 63075, Note_on_c, 6, 52, 0
8, 63090, Note_on_c, 6, 52, 100
8, 63105, Note_on_c, 6, 52, 0
8, 63120, Note_on_c, 6, 52, 100
8, 63135, Note_on_c, 6, 52, 0
8, 63150, Note_on_c, 6, 52, 100
8, 63165, Note_on_c, 6, 52, 0
8, 63180, Note_on_c, 6, 52, 100
8, 63195, Note_on_c, 6, 52, 0
8, 63210, Note_on_c, 6, 52, 100
8, 63225, Note_on_c, 6, 52, 0
8, 63240, Note_on_c, 6, 55, 100
8, 63285, Note_on_c, 6, 55, 0
8, 63300, Note_on_c, 6, 55, 100
8, 63345, Note_on_c, 6, 55, 0
8, 63360, Note_on_c, 6, 52, 100
8, 63375, Note_on_c, 6, 52, 0
8, 63390, Note_on_c, 6, 52, 100
8, 63405, Note_on_c, 6, 52, 0
8, 63420, Note_on_c, 6, 52, 100
8, 63435, Note_on_c, 6, 52, 0
8, 63450, Note_on_c, 6, 52, 100
8, 63465, Note_on_c, 6, 52, 0
8, 63480, Note_on_c, 6, 52, 100
8, 63525, Note_on_c, 6, 52, 0
8, 63540, Note_on_c, 6, 52, 100
8, 63555, Note_on_c, 6, 52, 0
8, 63570, Note_on_c, 6, 52, 100
8, 63585, Note_on_c, 6, 52, 0
8, 63600, Note_on_c, 6, 52, 100
8, 63615, Note_on_c, 6, 52, 0
8, 63630, Note_on_c, 6, 52, 100
8, 63645, Note_on_c, 6, 52, 0
8, 63660, Note_on_c, 6, 52, 100
8, 63675, Note_on_c, 6, 52, 0
8, 63690, Note_on_c, 6, 52, 100
8, 63705, Note_on_c, 6, 52, 0
8, 63720, Note_on_c, 6, 52, 100
8, 63765, Note_on_c, 6, 52, 0
8, 63780, Note_on_c, 6, 57, 100
8, 63795, Note_on_c, 6, 57, 0
8, 63810, Note_on_c, 6, 57, 100
8, 63825, Note_on_c, 6, 57, 0
8, 63840, Note_on_c, 6, 57, 100
8, 63855, Note_on_c, 6, 57, 0
8, 63870, Note_on_c, 6, 57, 100
8, 63885, Note_on_c, 6, 57, 0
8, 63900, Note_on_c, 6, 57, 100
8, 63915, Note_on_c, 6, 57, 0
8, 63930, Note_on_c, 6, 57, 100
8, 63945, Note_on_c, 6, 57, 0
8, 63960, Note_on_c, 6, 57, 100
8, 64005, Note_on_c, 6, 57, 0
8, 64020, Note_on_c, 6, 55, 100
8, 64035, Note_on_c, 6, 55, 0
8, 64050, Note_on_c, 6, 55, 100
8, 64065, Note_on_c, 6, 55, 0
8, 64080, Note_on_c, 6, 55, 100
8, 64095, Note_on_c, 6, 55, 0
8, 64110, Note_on_c, 6, 55, 100
8, 64125, Note_on_c, 6, 55, 0
8, 64140, Note_on_c, 6, 55, 100
8, 64155, Note_on_c, 6, 55, 0
8, 64170, Note_on_c, 6, 55, 100
8, 64185, Note_on_c, 6, 55, 0
8, 64200, Note_on_c, 6, 55, 100
8, 64245, Note_on_c, 6, 55, 0
8, 64260, Note_on_c, 6, 50, 100
8, 64305, Note_on_c, 6, 50, 0
8, 64320, Note_on_c, 6, 52, 100
8, 64335, Note_on_c, 6, 52, 0
8, 64350, Note_on_c, 6, 52, 100
8, 64365, Note_on_c, 6, 52, 0
8, 64380, Note_on_c, 6, 52, 100
8, 64395, Note_on_c, 6, 52, 0
8, 64410, Note_on_c, 6, 52, 100
8, 64425, Note_on_c, 6, 52, 0
8, 64440, Note_on_c, 6, 52, 100
8, 64485, Note_on_c, 6, 52, 0
8, 64500, Note_on_c, 6, 52, 100
8, 64515, Note_on_c, 6, 52, 0
8, 64530, Note_on_c, 6, 52, 100
8, 64545, Note_on_c, 6, 52, 0
8, 64560, Note_on_c, 6, 52, 100
8, 64575, Note_on_c, 6, 52, 0
8, 64590, Note_on_c, 6, 52, 100
8, 64605, Note_on_c, 6, 52, 0
8, 64620, Note_on_c, 6, 52, 100
8, 64635, Note_on_c, 6, 52, 0
8, 64650, Note_on_c, 6, 52, 100
8, 64665, Note_on_c, 6, 52, 0
8, 64680, Note_on_c, 6, 55, 100
8, 64725, Note_on_c, 6, 55, 0
8, 64740, Note_on_c, 6, 55, 100
8, 64785, Note_on_c, 6, 55, 0
8, 64800, Note_on_c, 6, 52, 100
8, 64815, Note_on_c, 6, 52, 0
8, 64830, Note_on_c, 6, 52, 100
8, 64845, Note_on_c, 6, 52, 0
8, 64860, Note_on_c, 6, 52, 100
8, 64875, Note_on_c, 6, 52, 0
8, 64890, Note_on_c, 6, 52, 100
8, 64905, Note_on_c, 6, 52, 0
8, 64920, Note_on_c, 6, 52, 100
8, 64965, Note_on_c, 6, 52, 0
8, 64980, Note_on_c, 6, 52, 100
8, 64995, Note_on_c, 6, 52, 0
8, 65010, Note_on_c, 6, 52, 100
8, 65025, Note_on_c, 6, 52, 0
8, 65040, Note_on_c, 6, 52, 100
8, 65055, Note_on_c, 6, 52, 0
8, 65070, Note_on_c, 6, 52, 100
8, 65085, Note_on_c, 6, 52, 0
8, 65100, Note_on_c, 6, 52, 100
8, 65115, Note_on_c, 6, 52, 0
8, 65130, Note_on_c, 6, 52, 100
8, 65145, Note_on_c, 6, 52, 0
8, 65160, Note_on_c, 6, 55, 100
8, 65205, Note_on_c, 6, 55, 0
8, 65220, Note_on_c, 6, 55, 100
8, 65265, Note_on_c, 6, 55, 0
8, 65280, Note_on_c, 6, 52, 100
8, 65295, Note_on_c, 6, 52, 0
8, 65310, Note_on_c, 6, 52, 100
8, 65325, Note_on_c, 6, 52, 0
8, 65340, Note_on_c, 6, 52, 100
8, 65355, Note_on_c, 6, 52, 0
8, 65370, Note_on_c, 6, 52, 100
8, 65385, Note_on_c, 6, 52, 0
8, 65400, Note_on_c, 6, 55, 100
8, 65445, Note_on_c, 6, 55, 0
8, 65460, Note_on_c, 6, 55, 100
8, 65505, Note_on_c, 6, 55, 0
8, 65520, Note_on_c, 6, 52, 100
8, 65535, Note_on_c, 6, 52, 0
8, 65550, Note_on_c, 6, 52, 100
8, 65565, Note_on_c, 6, 52, 0
8, 65580, Note_on_c, 6, 52, 100
8, 65595, Note_on_c, 6, 52, 0
8, 65610, Note_on_c, 6, 52, 100
8, 65625, Note_on_c, 6, 52, 0
8, 65640, Note_on_c, 6, 55, 100
8, 65685, Note_on_c, 6, 55, 0
8, 65700, Note_on_c, 6, 55, 100
8, 65745, Note_on_c, 6, 55, 0
8, 65760, Note_on_c, 6, 52, 100
8, 65775, Note_on_c, 6, 52, 0
8, 65790, Note_on_c, 6, 52, 100
8, 65805, Note_on_c, 6, 52, 0
8, 65820, Note_on_c, 6, 55, 100
8, 65865, Note_on_c, 6, 55, 0
8, 65880, Note_on_c, 6, 52, 100
8, 65895, Note_on_c, 6, 52, 0
8, 65910, Note_on_c, 6, 52, 100
8, 65925, Note_on_c, 6, 52, 0
8, 65940, Note_on_c, 6, 55, 100
8, 65985, Note_on_c, 6, 55, 0
8, 66000, Note_on_c, 6, 52, 100
8, 66015, Note_on_c, 6, 52, 0
8, 66030, Note_on_c, 6, 52, 100
8, 66045, Note_on_c, 6, 52, 0
8, 66060, Note_on_c, 6, 55, 100
8, 66105, Note_on_c, 6, 55, 0
8, 66120, Note_on_c, 6, 52, 100
8, 66135, Note_on_c, 6, 52, 0
8, 66150, Note_on_c, 6, 52, 100
8, 66165, Note_on_c, 6, 52, 0
8, 66180, Note_on_c, 6, 55, 100
8, 66225, Note_on_c, 6, 55, 0
8, 66225, End_track
9, 0, Start_track
9, 0, Sequencer_specific, 5, 5, 15, 9, 0, 64
9, 0, Sequencer_specific, 15, 5, 15, 6, 71, 101, 110, 101, 114, 97, 108, 32, 77, 73, 68, 73
9, 0, Title_t, ""
9, 0, Control_c, 7, 91, 76
9, 155, Control_c, 7, 0, 0
9, 156, Control_c, 7, 32, 0
9, 157, Program_c, 7, 26
9, 158, Control_c, 7, 7, 127
9, 158, Control_c, 7, 10, 57
9, 458, Control_c, 7, 99, 1
9, 459, Control_c, 7, 98, 32
9, 460, Control_c, 7, 6, 31
9, 461, Control_c, 7, 38, 32
9, 960, Note_on_c, 7, 28, 100
9, 8640, Note_on_c, 7, 28, 0
9, 8700, Note_on_c, 7, 28, 127
9, 8760, Note_on_c, 7, 28, 0
9, 8820, Note_on_c, 7, 28, 127
9, 8880, Note_on_c, 7, 28, 0
9, 8940, Note_on_c, 7, 28, 127
9, 9000, Note_on_c, 7, 28, 0
9, 9060, Note_on_c, 7, 33, 127
9, 9120, Note_on_c, 7, 33, 0
9, 9180, Note_on_c, 7, 33, 127
9, 9240, Note_on_c, 7, 33, 0
9, 9300, Note_on_c, 7, 31, 127
9, 9360, Note_on_c, 7, 31, 0
9, 9420, Note_on_c, 7, 31, 127
9, 9480, Note_on_c, 7, 31, 0
9, 9540, Note_on_c, 7, 26, 127
9, 9600, Note_on_c, 7, 26, 0
9, 9660, Note_on_c, 7, 28, 127
9, 9720, Note_on_c, 7, 28, 0
9, 9780, Note_on_c, 7, 28, 127
9, 9840, Note_on_c, 7, 28, 0
9, 9900, Note_on_c, 7, 28, 127
9, 9960, Note_on_c, 7, 28, 0
9, 10020, Note_on_c, 7, 33, 127
9, 10080, Note_on_c, 7, 33, 0
9, 10140, Note_on_c, 7, 28, 127
9, 10200, Note_on_c, 7, 28, 0
9, 10260, Note_on_c, 7, 28, 127
9, 10320, Note_on_c, 7, 28, 0
9, 10380, Note_on_c, 7, 28, 127
9, 10440, Note_on_c, 7, 28, 0
9, 10500, Note_on_c, 7, 26, 127
9, 10560, Note_on_c, 7, 26, 0
9, 10620, Note_on_c, 7, 28, 127
9, 10680, Note_on_c, 7, 28, 0
9, 10740, Note_on_c, 7, 28, 127
9, 10800, Note_on_c, 7, 28, 0
9, 10860, Note_on_c, 7, 28, 127
9, 10920, Note_on_c, 7, 28, 0
9, 10980, Note_on_c, 7, 33, 127
9, 11040, Note_on_c, 7, 33, 0
9, 11100, Note_on_c, 7, 33, 127
9, 11160, Note_on_c, 7, 33, 0
9, 11220, Note_on_c, 7, 31, 127
9, 11280, Note_on_c, 7, 31, 0
9, 11340, Note_on_c, 7, 31, 127
9, 11400, Note_on_c, 7, 31, 0
9, 11460, Note_on_c, 7, 26, 127
9, 11520, Note_on_c, 7, 26, 0
9, 11580, Note_on_c, 7, 28, 127
9, 11640, Note_on_c, 7, 28, 0
9, 11700, Note_on_c, 7, 28, 127
9, 11760, Note_on_c, 7, 28, 0
9, 11820, Note_on_c, 7, 28, 127
9, 11880, Note_on_c, 7, 28, 0
9, 11940, Note_on_c, 7, 33, 127
9, 12000, Note_on_c, 7, 33, 0
9, 12060, Note_on_c, 7, 28, 127
9, 12120, Note_on_c, 7, 28, 0
9, 12180, Note_on_c, 7, 28, 127
9, 12240, Note_on_c, 7, 28, 0
9, 12300, Note_on_c, 7, 28, 127
9, 12360, Note_on_c, 7, 28, 0
9, 12420, Note_on_c, 7, 26, 127
9, 12480, Note_on_c, 7, 26, 0
9, 12540, Note_on_c, 7, 28, 127
9, 12600, Note_on_c, 7, 28, 0
9, 12660, Note_on_c, 7, 28, 127
9, 12720, Note_on_c, 7, 28, 0
9, 12780, Note_on_c, 7, 28, 127
9, 12840, Note_on_c, 7, 28, 0
9, 12900, Note_on_c, 7, 33, 127
9, 12960, Note_on_c, 7, 33, 0
9, 13020, Note_on_c, 7, 33, 127
9, 13080, Note_on_c, 7, 33, 0
9, 13140, Note_on_c, 7, 31, 127
9, 13200, Note_on_c, 7, 31, 0
9, 13260, Note_on_c, 7, 31, 127
9, 13320, Note_on_c, 7, 31, 0
9, 13380, Note_on_c, 7, 26, 127
9, 13440, Note_on_c, 7, 26, 0
9, 13500, Note_on_c, 7, 28, 127
9, 13560, Note_on_c, 7, 28, 0
9, 13620, Note_on_c, 7, 28, 127
9, 13680, Note_on_c, 7, 28, 0
9, 13740, Note_on_c, 7, 28, 127
9, 13800, Note_on_c, 7, 28, 0
9, 13860, Note_on_c, 7, 33, 127
9, 13920, Note_on_c, 7, 33, 0
9, 13980, Note_on_c, 7, 28, 127
9, 14040, Note_on_c, 7, 28, 0
9, 14100, Note_on_c, 7, 28, 127
9, 14160, Note_on_c, 7, 28, 0
9, 14220, Note_on_c, 7, 28, 127
9, 14280, Note_on_c, 7, 28, 0
9, 14340, Note_on_c, 7, 26, 127
9, 14400, Note_on_c, 7, 26, 0
9, 14460, Note_on_c, 7, 28, 127
9, 14520, Note_on_c, 7, 28, 0
9, 14580, Note_on_c, 7, 28, 127
9, 14640, Note_on_c, 7, 28, 0
9, 14700, Note_on_c, 7, 28, 127
9, 14760, Note_on_c, 7, 28, 0
9, 14820, Note_on_c, 7, 33, 127
9, 14880, Note_on_c, 7, 33, 0
9, 14940, Note_on_c, 7, 33, 127
9, 15000, Note_on_c, 7, 33, 0
9, 15060, Note_on_c, 7, 31, 127
9, 15120, Note_on_c, 7, 31, 0
9, 15180, Note_on_c, 7, 31, 127
9, 15240, Note_on_c, 7, 31, 0
9, 15300, Note_on_c, 7, 26, 127
9, 15360, Note_on_c, 7, 26, 0
9, 15420, Note_on_c, 7, 28, 127
9, 15480, Note_on_c, 7, 28, 0
9, 15540, Note_on_c, 7, 28, 127
9, 15600, Note_on_c, 7, 28, 0
9, 15660, Note_on_c, 7, 28, 127
9, 15720, Note_on_c, 7, 28, 0
9, 15780, Note_on_c, 7, 33, 127
9, 15840, Note_on_c, 7, 33, 0
9, 15900, Note_on_c, 7, 28, 127
9, 15960, Note_on_c, 7, 28, 0
9, 16020, Note_on_c, 7, 28, 127
9, 16080, Note_on_c, 7, 28, 0
9, 16140, Note_on_c, 7, 28, 127
9, 16200, Note_on_c, 7, 28, 0
9, 16260, Note_on_c, 7, 26, 127
9, 16320, Note_on_c, 7, 26, 0
9, 16380, Note_on_c, 7, 28, 127
9, 16440, Note_on_c, 7, 28, 0
9, 16500, Note_on_c, 7, 28, 127
9, 16560, Note_on_c, 7, 28, 0
9, 16620, Note_on_c, 7, 28, 127
9, 16680, Note_on_c, 7, 28, 0
9, 16740, Note_on_c, 7, 28, 127
9, 16800, Note_on_c, 7, 28, 0
9, 16860, Note_on_c, 7, 28, 127
9, 16920, Note_on_c, 7, 28, 0
9, 16980, Note_on_c, 7, 28, 127
9, 17040, Note_on_c, 7, 28, 0
9, 17100, Note_on_c, 7, 28, 127
9, 17160, Note_on_c, 7, 28, 0
9, 17220, Note_on_c, 7, 28, 127
9, 17280, Note_on_c, 7, 28, 0
9, 17340, Note_on_c, 7, 28, 127
9, 17400, Note_on_c, 7, 28, 0
9, 17460, Note_on_c, 7, 28, 127
9, 17520, Note_on_c, 7, 28, 0
9, 17580, Note_on_c, 7, 28, 127
9, 17640, Note_on_c, 7, 28, 0
9, 17700, Note_on_c, 7, 28, 127
9, 17760, Note_on_c, 7, 28, 0
9, 17820, Note_on_c, 7, 28, 127
9, 17880, Note_on_c, 7, 28, 0
9, 17940, Note_on_c, 7, 28, 127
9, 18000, Note_on_c, 7, 28, 0
9, 18060, Note_on_c, 7, 28, 127
9, 18120, Note_on_c, 7, 28, 0
9, 18180, Note_on_c, 7, 28, 127
9, 18240, Note_on_c, 7, 28, 0
9, 18300, Note_on_c, 7, 28, 127
9, 18360, Note_on_c, 7, 28, 0
9, 18420, Note_on_c, 7, 28, 127
9, 18480, Note_on_c, 7, 28, 0
9, 18540, Note_on_c, 7, 28, 127
9, 18600, Note_on_c, 7, 28, 0
9, 18660, Note_on_c, 7, 28, 127
9, 18720, Note_on_c, 7, 28, 0
9, 18780, Note_on_c, 7, 28, 127
9, 18840, Note_on_c, 7, 28, 0
9, 18900, Note_on_c, 7, 28, 127
9, 18960, Note_on_c, 7, 28, 0
9, 19020, Note_on_c, 7, 28, 127
9, 19080, Note_on_c, 7, 28, 0
9, 19140, Note_on_c, 7, 28, 127
9, 19200, Note_on_c, 7, 28, 0
9, 19260, Note_on_c, 7, 28, 127
9, 19320, Note_on_c, 7, 28, 0
9, 19380, Note_on_c, 7, 28, 127
9, 19440, Note_on_c, 7, 28, 0
9, 19500, Note_on_c, 7, 28, 127
9, 19560, Note_on_c, 7, 28, 0
9, 19620, Note_on_c, 7, 28, 127
9, 19680, Note_on_c, 7, 28, 0
9, 19740, Note_on_c, 7, 28, 127
9, 19800, Note_on_c, 7, 28, 0
9, 19860, Note_on_c, 7, 28, 127
9, 19920, Note_on_c, 7, 28, 0
9, 19980, Note_on_c, 7, 28, 127
9, 20040, Note_on_c, 7, 28, 0
9, 20100, Note_on_c, 7, 28, 127
9, 20160, Note_on_c, 7, 28, 0
9, 20220, Note_on_c, 7, 28, 127
9, 20280, Note_on_c, 7, 28, 0
9, 20340, Note_on_c, 7, 28, 127
9, 20400, Note_on_c, 7, 28, 0
9, 20460, Note_on_c, 7, 28, 127
9, 20520, Note_on_c, 7, 28, 0
9, 20580, Note_on_c, 7, 28, 127
9, 20640, Note_on_c, 7, 28, 0
9, 20700, Note_on_c, 7, 28, 127
9, 20760, Note_on_c, 7, 28, 0
9, 20820, Note_on_c, 7, 28, 127
9, 20880, Note_on_c, 7, 28, 0
9, 20940, Note_on_c, 7, 28, 127
9, 21000, Note_on_c, 7, 28, 0
9, 21060, Note_on_c, 7, 28, 127
9, 21120, Note_on_c, 7, 28, 0
9, 21180, Note_on_c, 7, 28, 127
9, 21240, Note_on_c, 7, 28, 0
9, 21300, Note_on_c, 7, 28, 127
9, 21360, Note_on_c, 7, 28, 0
9, 21420, Note_on_c, 7, 28, 127
9, 21480, Note_on_c, 7, 28, 0
9, 21540, Note_on_c, 7, 28, 127
9, 21600, Note_on_c, 7, 28, 0
9, 21660, Note_on_c, 7, 28, 127
9, 21720, Note_on_c, 7, 28, 0
9, 21780, Note_on_c, 7, 28, 127
9, 21840, Note_on_c, 7, 28, 0
9, 21900, Note_on_c, 7, 28, 127
9, 21960, Note_on_c, 7, 28, 0
9, 22020, Note_on_c, 7, 28, 127
9, 22080, Note_on_c, 7, 28, 0
9, 22080, Note_on_c, 7, 28, 127
9, 24000, Note_on_c, 7, 28, 0
9, 24000, Note_on_c, 7, 28, 127
9, 25920, Note_on_c, 7, 28, 0
9, 25920, Note_on_c, 7, 28, 127
9, 28320, Note_on_c, 7, 28, 0
9, 39420, Note_on_c, 7, 40, 100
9, 39480, Note_on_c, 7, 40, 0
9, 39540, Note_on_c, 7, 40, 100
9, 39600, Note_on_c, 7, 40, 0
9, 39660, Note_on_c, 7, 40, 100
9, 39720, Note_on_c, 7, 40, 0
9, 39780, Note_on_c, 7, 45, 100
9, 39840, Note_on_c, 7, 45, 0
9, 39900, Note_on_c, 7, 45, 100
9, 39960, Note_on_c, 7, 45, 0
9, 40020, Note_on_c, 7, 43, 100
9, 40080, Note_on_c, 7, 43, 0
9, 40140, Note_on_c, 7, 43, 100
9, 40200, Note_on_c, 7, 43, 0
9, 40260, Note_on_c, 7, 38, 100
9, 40320, Note_on_c, 7, 38, 0
9, 40380, Note_on_c, 7, 40, 100
9, 40440, Note_on_c, 7, 40, 0
9, 40500, Note_on_c, 7, 40, 100
9, 40560, Note_on_c, 7, 40, 0
9, 40620, Note_on_c, 7, 40, 100
9, 40680, Note_on_c, 7, 40, 0
9, 40740, Note_on_c, 7, 45, 100
9, 40800, Note_on_c, 7, 45, 0
9, 40860, Note_on_c, 7, 40, 100
9, 40920, Note_on_c, 7, 40, 0
9, 40980, Note_on_c, 7, 40, 100
9, 41040, Note_on_c, 7, 40, 0
9, 41100, Note_on_c, 7, 40, 100
9, 41160, Note_on_c, 7, 40, 0
9, 41220, Note_on_c, 7, 38, 100
9, 41280, Note_on_c, 7, 38, 0
9, 41340, Note_on_c, 7, 40, 100
9, 41400, Note_on_c, 7, 40, 0
9, 41460, Note_on_c, 7, 40, 100
9, 41520, Note_on_c, 7, 40, 0
9, 41580, Note_on_c, 7, 40, 100
9, 41640, Note_on_c, 7, 40, 0
9, 41700, Note_on_c, 7, 45, 100
9, 41760, Note_on_c, 7, 45, 0
9, 41820, Note_on_c, 7, 45, 100
9, 41880, Note_on_c, 7, 45, 0
9, 41940, Note_on_c, 7, 43, 100
9, 42000, Note_on_c, 7, 43, 0
9, 42060, Note_on_c, 7, 43, 100
9, 42120, Note_on_c, 7, 43, 0
9, 42180, Note_on_c, 7, 38, 100
9, 42240, Note_on_c, 7, 38, 0
9, 42300, Note_on_c, 7, 40, 100
9, 42360, Note_on_c, 7, 40, 0
9, 42420, Note_on_c, 7, 40, 100
9, 42480, Note_on_c, 7, 40, 0
9, 42540, Note_on_c, 7, 40, 100
9, 42600, Note_on_c, 7, 40, 0
9, 42660, Note_on_c, 7, 45, 100
9, 42720, Note_on_c, 7, 45, 0
9, 42780, Note_on_c, 7, 40, 100
9, 42840, Note_on_c, 7, 40, 0
9, 42900, Note_on_c, 7, 40, 100
9, 42960, Note_on_c, 7, 40, 0
9, 43020, Note_on_c, 7, 40, 100
9, 43080, Note_on_c, 7, 40, 0
9, 43140, Note_on_c, 7, 38, 100
9, 43200, Note_on_c, 7, 38, 0
9, 43260, Note_on_c, 7, 40, 100
9, 43320, Note_on_c, 7, 40, 0
9, 43380, Note_on_c, 7, 40, 100
9, 43440, Note_on_c, 7, 40, 0
9, 43500, Note_on_c, 7, 40, 100
9, 43560, Note_on_c, 7, 40, 0
9, 43620, Note_on_c, 7, 45, 100
9, 43680, Note_on_c, 7, 45, 0
9, 43740, Note_on_c, 7, 45, 100
9, 43800, Note_on_c, 7, 45, 0
9, 43860, Note_on_c, 7, 43, 100
9, 43920, Note_on_c, 7, 43, 0
9, 43980, Note_on_c, 7, 43, 100
9, 44040, Note_on_c, 7, 43, 0
9, 44100, Note_on_c, 7, 38, 100
9, 44160, Note_on_c, 7, 38, 0
9, 44220, Note_on_c, 7, 40, 100
9, 44280, Note_on_c, 7, 40, 0
9, 44340, Note_on_c, 7, 40, 100
9, 44400, Note_on_c, 7, 40, 0
9, 44460, Note_on_c, 7, 40, 100
9, 44520, Note_on_c, 7, 40, 0
9, 44580, Note_on_c, 7, 45, 100
9, 44640, Note_on_c, 7, 45, 0
9, 44700, Note_on_c, 7, 40, 100
9, 44760, Note_on_c, 7, 40, 0
9, 44820, Note_on_c, 7, 40, 100
9, 44880, Note_on_c, 7, 40, 0
9, 44940, Note_on_c, 7, 40, 100
9, 45000, Note_on_c, 7, 40, 0
9, 45060, Note_on_c, 7, 38, 100
9, 45120, Note_on_c, 7, 38, 0
9, 45180, Note_on_c, 7, 40, 100
9, 45240, Note_on_c, 7, 40, 0
9, 45300, Note_on_c, 7, 40, 100
9, 45360, Note_on_c, 7, 40, 0
9, 45420, Note_on_c, 7, 40, 100
9, 45480, Note_on_c, 7, 40, 0
9, 45540, Note_on_c, 7, 45, 100
9, 45600, Note_on_c, 7, 45, 0
9, 45660, Note_on_c, 7, 45, 100
9, 45720, Note_on_c, 7, 45, 0
9, 45780, Note_on_c, 7, 43, 100
9, 45840, Note_on_c, 7, 43, 0
9, 45900, Note_on_c, 7, 43, 100
9, 45960, Note_on_c, 7, 43, 0
9, 46020, Note_on_c, 7, 38, 100
9, 46080, Note_on_c, 7, 38, 0
9, 46140, Note_on_c, 7, 40, 100
9, 46200, Note_on_c, 7, 40, 0
9, 46260, Note_on_c, 7, 40, 100
9, 46320, Note_on_c, 7, 40, 0
9, 46380, Note_on_c, 7, 40, 100
9, 46440, Note_on_c, 7, 40, 0
9, 46500, Note_on_c, 7, 45, 100
9, 46560, Note_on_c, 7, 45, 0
9, 46620, Note_on_c, 7, 40, 100
9, 46680, Note_on_c, 7, 40, 0
9, 46740, Note_on_c, 7, 40, 100
9, 46800, Note_on_c, 7, 40, 0
9, 46860, Note_on_c, 7, 40, 100
9, 46920, Note_on_c, 7, 40, 0
9, 46980, Note_on_c, 7, 38, 100
9, 47040, Note_on_c, 7, 38, 0
9, 47100, Note_on_c, 7, 40, 100
9, 47160, Note_on_c, 7, 40, 0
9, 47220, Note_on_c, 7, 40, 100
9, 47280, Note_on_c, 7, 40, 0
9, 47340, Note_on_c, 7, 40, 100
9, 47400, Note_on_c, 7, 40, 0
9, 47460, Note_on_c, 7, 40, 100
9, 47520, Note_on_c, 7, 40, 0
9, 47580, Note_on_c, 7, 40, 100
9, 47640, Note_on_c, 7, 40, 0
9, 47700, Note_on_c, 7, 40, 100
9, 47760, Note_on_c, 7, 40, 0
9, 47820, Note_on_c, 7, 40, 100
9, 47880, Note_on_c, 7, 40, 0
9, 47940, Note_on_c, 7, 40, 100
9, 48000, Note_on_c, 7, 40, 0
9, 48060, Note_on_c, 7, 40, 100
9, 48120, Note_on_c, 7, 40, 0
9, 48180, Note_on_c, 7, 40, 100
9, 48240, Note_on_c, 7, 40, 0
9, 48300, Note_on_c, 7, 40, 100
9, 48360, Note_on_c, 7, 40, 0
9, 48420, Note_on_c, 7, 40, 100
9, 48480, Note_on_c, 7, 40, 0
9, 48540, Note_on_c, 7, 40, 100
9, 48600, Note_on_c, 7, 40, 0
9, 48660, Note_on_c, 7, 40, 100
9, 48720, Note_on_c, 7, 40, 0
9, 48780, Note_on_c, 7, 40, 100
9, 48840, Note_on_c, 7, 40, 0
9, 48900, Note_on_c, 7, 40, 100
9, 48960, Note_on_c, 7, 40, 0
9, 49020, Note_on_c, 7, 40, 100
9, 49080, Note_on_c, 7, 40, 0
9, 49140, Note_on_c, 7, 40, 100
9, 49200, Note_on_c, 7, 40, 0
9, 49260, Note_on_c, 7, 40, 100
9, 49320, Note_on_c, 7, 40, 0
9, 49380, Note_on_c, 7, 40, 100
9, 49440, Note_on_c, 7, 40, 0
9, 49500, Note_on_c, 7, 40, 100
9, 49560, Note_on_c, 7, 40, 0
9, 49620, Note_on_c, 7, 40, 100
9, 49680, Note_on_c, 7, 40, 0
9, 49740, Note_on_c, 7, 40, 100
9, 49800, Note_on_c, 7, 40, 0
9, 49860, Note_on_c, 7, 40, 100
9, 49920, Note_on_c, 7, 40, 0
9, 49980, Note_on_c, 7, 40, 100
9, 50040, Note_on_c, 7, 40, 0
9, 50100, Note_on_c, 7, 40, 100
9, 50160, Note_on_c, 7, 40, 0
9, 50220, Note_on_c, 7, 40, 100
9, 50280, Note_on_c, 7, 40, 0
9, 50340, Note_on_c, 7, 40, 100
9, 50400, Note_on_c, 7, 40, 0
9, 50460, Note_on_c, 7, 40, 100
9, 50520, Note_on_c, 7, 40, 0
9, 50580, Note_on_c, 7, 40, 100
9, 50640, Note_on_c, 7, 40, 0
9, 50700, Note_on_c, 7, 40, 100
9, 50760, Note_on_c, 7, 40, 0
9, 50820, Note_on_c, 7, 40, 100
9, 50880, Note_on_c, 7, 40, 0
9, 50940, Note_on_c, 7, 40, 100
9, 51000, Note_on_c, 7, 40, 0
9, 51060, Note_on_c, 7, 40, 100
9, 51120, Note_on_c, 7, 40, 0
9, 51180, Note_on_c, 7, 40, 100
9, 51240, Note_on_c, 7, 40, 0
9, 51300, Note_on_c, 7, 40, 100
9, 51360, Note_on_c, 7, 40, 0
9, 51420, Note_on_c, 7, 40, 100
9, 51480, Note_on_c, 7, 40, 0
9, 51540, Note_on_c, 7, 40, 100
9, 51600, Note_on_c, 7, 40, 0
9, 51660, Note_on_c, 7, 40, 100
9, 51720, Note_on_c, 7, 40, 0
9, 51780, Note_on_c, 7, 40, 100
9, 51840, Note_on_c, 7, 40, 0
9, 51900, Note_on_c, 7, 40, 100
9, 51960, Note_on_c, 7, 40, 0
9, 52020, Note_on_c, 7, 40, 100
9, 52080, Note_on_c, 7, 40, 0
9, 52140, Note_on_c, 7, 40, 100
9, 52200, Note_on_c, 7, 40, 0
9, 52260, Note_on_c, 7, 40, 100
9, 52320, Note_on_c, 7, 40, 0
9, 52380, Note_on_c, 7, 40, 100
9, 52440, Note_on_c, 7, 40, 0
9, 52500, Note_on_c, 7, 40, 100
9, 52560, Note_on_c, 7, 40, 0
9, 52620, Note_on_c, 7, 40, 100
9, 52680, Note_on_c, 7, 40, 0
9, 52740, Note_on_c, 7, 40, 100
9, 52800, Note_on_c, 7, 40, 0
9, 52860, Note_on_c, 7, 40, 100
9, 52920, Note_on_c, 7, 40, 0
9, 52980, Note_on_c, 7, 40, 100
9, 53040, Note_on_c, 7, 40, 0
9, 53100, Note_on_c, 7, 40, 100
9, 53160, Note_on_c, 7, 40, 0
9, 53220, Note_on_c, 7, 45, 100
9, 53280, Note_on_c, 7, 45, 0
9, 53340, Note_on_c, 7, 45, 100
9, 53400, Note_on_c, 7, 45, 0
9, 53460, Note_on_c, 7, 43, 100
9, 53520, Note_on_c, 7, 43, 0
9, 53580, Note_on_c, 7, 43, 100
9, 53640, Note_on_c, 7, 43, 0
9, 53700, Note_on_c, 7, 38, 100
9, 53760, Note_on_c, 7, 38, 0
9, 53820, Note_on_c, 7, 40, 100
9, 53880, Note_on_c, 7, 40, 0
9, 53940, Note_on_c, 7, 40, 100
9, 54000, Note_on_c, 7, 40, 0
9, 54060, Note_on_c, 7, 40, 100
9, 54120, Note_on_c, 7, 40, 0
9, 54180, Note_on_c, 7, 45, 100
9, 54240, Note_on_c, 7, 45, 0
9, 54300, Note_on_c, 7, 40, 100
9, 54360, Note_on_c, 7, 40, 0
9, 54420, Note_on_c, 7, 40, 100
9, 54480, Note_on_c, 7, 40, 0
9, 54540, Note_on_c, 7, 40, 100
9, 54600, Note_on_c, 7, 40, 0
9, 54660, Note_on_c, 7, 38, 100
9, 54720, Note_on_c, 7, 38, 0
9, 54780, Note_on_c, 7, 40, 100
9, 54840, Note_on_c, 7, 40, 0
9, 54900, Note_on_c, 7, 40, 100
9, 54960, Note_on_c, 7, 40, 0
9, 55020, Note_on_c, 7, 40, 100
9, 55080, Note_on_c, 7, 40, 0
9, 55140, Note_on_c, 7, 45, 100
9, 55200, Note_on_c, 7, 45, 0
9, 55260, Note_on_c, 7, 45, 100
9, 55320, Note_on_c, 7, 45, 0
9, 55380, Note_on_c, 7, 43, 100
9, 55440, Note_on_c, 7, 43, 0
9, 55500, Note_on_c, 7, 43, 100
9, 55560, Note_on_c, 7, 43, 0
9, 55620, Note_on_c, 7, 38, 100
9, 55680, Note_on_c, 7, 38, 0
9, 55740, Note_on_c, 7, 40, 100
9, 55800, Note_on_c, 7, 40, 0
9, 55860, Note_on_c, 7, 40, 100
9, 55920, Note_on_c, 7, 40, 0
9, 55980, Note_on_c, 7, 40, 100
9, 56040, Note_on_c, 7, 40, 0
9, 56100, Note_on_c, 7, 45, 100
9, 56160, Note_on_c, 7, 45, 0
9, 56220, Note_on_c, 7, 40, 100
9, 56280, Note_on_c, 7, 40, 0
9, 56340, Note_on_c, 7, 40, 100
9, 56400, Note_on_c, 7, 40, 0
9, 56460, Note_on_c, 7, 40, 100
9, 56520, Note_on_c, 7, 40, 0
9, 56580, Note_on_c, 7, 38, 100
9, 56640, Note_on_c, 7, 38, 0
9, 56700, Note_on_c, 7, 40, 100
9, 56760, Note_on_c, 7, 40, 0
9, 56820, Note_on_c, 7, 40, 100
9, 56880, Note_on_c, 7, 40, 0
9, 56940, Note_on_c, 7, 40, 100
9, 57000, Note_on_c, 7, 40, 0
9, 57060, Note_on_c, 7, 45, 100
9, 57120, Note_on_c, 7, 45, 0
9, 57180, Note_on_c, 7, 45, 100
9, 57240, Note_on_c, 7, 45, 0
9, 57300, Note_on_c, 7, 43, 100
9, 57360, Note_on_c, 7, 43, 0
9, 57420, Note_on_c, 7, 43, 100
9, 57480, Note_on_c, 7, 43, 0
9, 57540, Note_on_c, 7, 38, 100
9, 57600, Note_on_c, 7, 38, 0
9, 57660, Note_on_c, 7, 40, 100
9, 57720, Note_on_c, 7, 40, 0
9, 57780, Note_on_c, 7, 40, 100
9, 57840, Note_on_c, 7, 40, 0
9, 57900, Note_on_c, 7, 40, 100
9, 57960, Note_on_c, 7, 40, 0
9, 58020, Note_on_c, 7, 45, 100
9, 58080, Note_on_c, 7, 45, 0
9, 58140, Note_on_c, 7, 40, 100
9, 58200, Note_on_c, 7, 40, 0
9, 58260, Note_on_c, 7, 40, 100
9, 58320, Note_on_c, 7, 40, 0
9, 58380, Note_on_c, 7, 40, 100
9, 58440, Note_on_c, 7, 40, 0
9, 58500, Note_on_c, 7, 38, 100
9, 58560, Note_on_c, 7, 38, 0
9, 58620, Note_on_c, 7, 40, 100
9, 58680, Note_on_c, 7, 40, 0
9, 58740, Note_on_c, 7, 40, 100
9, 58800, Note_on_c, 7, 40, 0
9, 58860, Note_on_c, 7, 40, 100
9, 58920, Note_on_c, 7, 40, 0
9, 58980, Note_on_c, 7, 45, 100
9, 59040, Note_on_c, 7, 45, 0
9, 59100, Note_on_c, 7, 45, 100
9, 59160, Note_on_c, 7, 45, 0
9, 59220, Note_on_c, 7, 43, 100
9, 59280, Note_on_c, 7, 43, 0
9, 59340, Note_on_c, 7, 43, 100
9, 59400, Note_on_c, 7, 43, 0
9, 59460, Note_on_c, 7, 38, 100
9, 59520, Note_on_c, 7, 38, 0
9, 59580, Note_on_c, 7, 40, 100
9, 59640, Note_on_c, 7, 40, 0
9, 59700, Note_on_c, 7, 40, 100
9, 59760, Note_on_c, 7, 40, 0
9, 59820, Note_on_c, 7, 40, 100
9, 59880, Note_on_c, 7, 40, 0
9, 59940, Note_on_c, 7, 45, 100
9, 60000, Note_on_c, 7, 45, 0
9, 60060, Note_on_c, 7, 40, 100
9, 60120, Note_on_c, 7, 40, 0
9, 60180, Note_on_c, 7, 40, 100
9, 60240, Note_on_c, 7, 40, 0
9, 60300, Note_on_c, 7, 40, 100
9, 60360, Note_on_c, 7, 40, 0
9, 60420, Note_on_c, 7, 38, 100
9, 60480, Note_on_c, 7, 38, 0
9, 60540, Note_on_c, 7, 40, 100
9, 60600, Note_on_c, 7, 40, 0
9, 60660, Note_on_c, 7, 40, 100
9, 60720, Note_on_c, 7, 40, 0
9, 60780, Note_on_c, 7, 40, 100
9, 60840, Note_on_c, 7, 40, 0
9, 60900, Note_on_c, 7, 40, 100
9, 60960, Note_on_c, 7, 40, 0
9, 61020, Note_on_c, 7, 40, 100
9, 61080, Note_on_c, 7, 40, 0
9, 61140, Note_on_c, 7, 40, 100
9, 61200, Note_on_c, 7, 40, 0
9, 61260, Note_on_c, 7, 40, 100
9, 61320, Note_on_c, 7, 40, 0
9, 61380, Note_on_c, 7, 40, 100
9, 61440, Note_on_c, 7, 40, 0
9, 61500, Note_on_c, 7, 40, 100
9, 61560, Note_on_c, 7, 40, 0
9, 61620, Note_on_c, 7, 40, 100
9, 61680, Note_on_c, 7, 40, 0
9, 61740, Note_on_c, 7, 40, 100
9, 61800, Note_on_c, 7, 40, 0
9, 61860, Note_on_c, 7, 40, 100
9, 61920, Note_on_c, 7, 40, 0
9, 61980, Note_on_c, 7, 40, 100
9, 62040, Note_on_c, 7, 40, 0
9, 62100, Note_on_c, 7, 40, 100
9, 62160, Note_on_c, 7, 40, 0
9, 62220, Note_on_c, 7, 40, 100
9, 62280, Note_on_c, 7, 40, 0
9, 62340, Note_on_c, 7, 40, 100
9, 62400, Note_on_c, 7, 40, 0
9, 62460, Note_on_c, 7, 40, 100
9, 62520, Note_on_c, 7, 40, 0
9, 62580, Note_on_c, 7, 40, 100
9, 62640, Note_on_c, 7, 40, 0
9, 62700, Note_on_c, 7, 40, 100
9, 62760, Note_on_c, 7, 40, 0
9, 62820, Note_on_c, 7, 40, 100
9, 62880, Note_on_c, 7, 40, 0
9, 62940, Note_on_c, 7, 40, 100
9, 63000, Note_on_c, 7, 40, 0
9, 63060, Note_on_c, 7, 40, 100
9, 63120, Note_on_c, 7, 40, 0
9, 63180, Note_on_c, 7, 40, 100
9, 63240, Note_on_c, 7, 40, 0
9, 63300, Note_on_c, 7, 40, 100
9, 63360, Note_on_c, 7, 40, 0
9, 63420, Note_on_c, 7, 40, 100
9, 63480, Note_on_c, 7, 40, 0
9, 63540, Note_on_c, 7, 40, 100
9, 63600, Note_on_c, 7, 40, 0
9, 63660, Note_on_c, 7, 40, 100
9, 63720, Note_on_c, 7, 40, 0
9, 63780, Note_on_c, 7, 40, 100
9, 63840, Note_on_c, 7, 40, 0
9, 63900, Note_on_c, 7, 40, 100
9, 63960, Note_on_c, 7, 40, 0
9, 64020, Note_on_c, 7, 40, 100
9, 64080, Note_on_c, 7, 40, 0
9, 64140, Note_on_c, 7, 40, 100
9, 64200, Note_on_c, 7, 40, 0
9, 64260, Note_on_c, 7, 40, 100
9, 64320, Note_on_c, 7, 40, 0
9, 64380, Note_on_c, 7, 40, 100
9, 64440, Note_on_c, 7, 40, 0
9, 64500, Note_on_c, 7, 40, 100
9, 64560, Note_on_c, 7, 40, 0
9, 64620, Note_on_c, 7, 40, 100
9, 64680, Note_on_c, 7, 40, 0
9, 64740, Note_on_c, 7, 40, 100
9, 64800, Note_on_c, 7, 40, 0
9, 64860, Note_on_c, 7, 40, 100
9, 64920, Note_on_c, 7, 40, 0
9, 64980, Note_on_c, 7, 40, 100
9, 65040, Note_on_c, 7, 40, 0
9, 65100, Note_on_c, 7, 40, 100
9, 65160, Note_on_c, 7, 40, 0
9, 65220, Note_on_c, 7, 40, 100
9, 65280, Note_on_c, 7, 40, 0
9, 65340, Note_on_c, 7, 40, 100
9, 65400, Note_on_c, 7, 40, 0
9, 65460, Note_on_c, 7, 40, 100
9, 65520, Note_on_c, 7, 40, 0
9, 65580, Note_on_c, 7, 40, 100
9, 65640, Note_on_c, 7, 40, 0
9, 65700, Note_on_c, 7, 40, 100
9, 65760, Note_on_c, 7, 40, 0
9, 65820, Note_on_c, 7, 40, 100
9, 65880, Note_on_c, 7, 40, 0
9, 65940, Note_on_c, 7, 40, 100
9, 66000, Note_on_c, 7, 40, 0
9, 66060, Note_on_c, 7, 40, 100
9, 66120, Note_on_c, 7, 40, 0
9, 66180, Note_on_c, 7, 40, 100
9, 66240, Note_on_c, 7, 40, 0
9, 66240, End_track
10, 0, Start_track
10, 0, Program_c, 8, 0
10, 0, Sequencer_specific, 5, 5, 15, 9, 0, 64
10, 0, Sequencer_specific, 15, 5, 15, 6, 71, 101, 110, 101, 114, 97, 108, 32, 77, 73, 68, 73
10, 0, Title_t, ""
10, 163, Control_c, 8, 7, 90
10, 163, Control_c, 8, 10, 40
10, 163, End_track
11, 0, Start_track
11, 0, Sequencer_specific, 5, 5, 15, 9, 0, 64
11, 0, Sequencer_specific, 15, 5, 15, 6, 71, 101, 110, 101, 114, 97, 108, 32, 77, 73, 68, 73
11, 0, Title_t, ""
11, 0, Control_c, 9, 11, 127
11, 0, Control_c, 9, 93, 10
11, 0, Control_c, 9, 91, 90
11, 165, Control_c, 9, 0, 0
11, 166, Control_c, 9, 32, 0
11, 167, Program_c, 9, 0
11, 168, Control_c, 9, 7, 127
11, 168, Control_c, 9, 10, 64
11, 355, Control_c, 9, 0, 0
11, 356, Control_c, 9, 32, 0
11, 357, Program_c, 9, 0
11, 960, Note_on_c, 9, 49, 100
11, 960, Note_on_c, 9, 36, 100
11, 960, Note_on_c, 9, 43, 100
11, 960, Note_on_c, 9, 35, 127
11, 1080, Note_on_c, 9, 35, 0
11, 1080, Note_on_c, 9, 49, 0
11, 1080, Note_on_c, 9, 36, 0
11, 1080, Note_on_c, 9, 43, 0
11, 4680, Note_on_c, 9, 52, 100
11, 4680, Note_on_c, 9, 43, 100
11, 4680, Note_on_c, 9, 36, 100
11, 4680, Note_on_c, 9, 35, 100
11, 4800, Note_on_c, 9, 35, 0
11, 4800, Note_on_c, 9, 52, 0
11, 4800, Note_on_c, 9, 43, 0
11, 4800, Note_on_c, 9, 36, 0
11, 4800, Note_on_c, 9, 49, 100
11, 4800, Note_on_c, 9, 36, 100
11, 4800, Note_on_c, 9, 43, 100
11, 4800, Note_on_c, 9, 35, 100
11, 4800, Note_on_c, 9, 40, 30
11, 4830, Note_on_c, 9, 40, 0
11, 4830, Note_on_c, 9, 40, 30
11, 4860, Note_on_c, 9, 40, 0
11, 4860, Note_on_c, 9, 40, 31
11, 4890, Note_on_c, 9, 40, 0
11, 4890, Note_on_c, 9, 40, 31
11, 4920, Note_on_c, 9, 40, 0
11, 4920, Note_on_c, 9, 35, 0
11, 4920, Note_on_c, 9, 49, 0
11, 4920, Note_on_c, 9, 36, 0
11, 4920, Note_on_c, 9, 43, 0
11, 4920, Note_on_c, 9, 40, 32
11, 4950, Note_on_c, 9, 40, 0
11, 4950, Note_on_c, 9, 40, 32
11, 4980, Note_on_c, 9, 40, 0
11, 4980, Note_on_c, 9, 40, 33
11, 5010, Note_on_c, 9, 40, 0
11, 5010, Note_on_c, 9, 40, 33
11, 5040, Note_on_c, 9, 40, 0
11, 5040, Note_on_c, 9, 40, 34
11, 5070, Note_on_c, 9, 40, 0
11, 5070, Note_on_c, 9, 40, 34
11, 5100, Note_on_c, 9, 40, 0
11, 5100, Note_on_c, 9, 40, 35
11, 5130, Note_on_c, 9, 40, 0
11, 5130, Note_on_c, 9, 40, 36
11, 5160, Note_on_c, 9, 40, 0
11, 5160, Note_on_c, 9, 40, 36
11, 5190, Note_on_c, 9, 40, 0
11, 5190, Note_on_c, 9, 40, 37
11, 5220, Note_on_c, 9, 40, 0
11, 5220, Note_on_c, 9, 40, 37
11, 5250, Note_on_c, 9, 40, 0
11, 5250, Note_on_c, 9, 40, 38
11, 5280, Note_on_c, 9, 40, 0
11, 5280, Note_on_c, 9, 40, 38
11, 5310, Note_on_c, 9, 40, 0
11, 5310, Note_on_c, 9, 40, 39
11, 5340, Note_on_c, 9, 40, 0
11, 5340, Note_on_c, 9, 40, 39
11, 5370, Note_on_c, 9, 40, 0
11, 5370, Note_on_c, 9, 40, 40
11, 5400, Note_on_c, 9, 40, 0
11, 5400, Note_on_c, 9, 40, 41
11, 5430, Note_on_c, 9, 40, 0
11, 5430, Note_on_c, 9, 40, 41
11, 5460, Note_on_c, 9, 40, 0
11, 5460, Note_on_c, 9, 40, 42
11, 5490, Note_on_c, 9, 40, 0
11, 5490, Note_on_c, 9, 40, 42
11, 5520, Note_on_c, 9, 40, 0
11, 5520, Note_on_c, 9, 40, 43
11, 5550, Note_on_c, 9, 40, 0
11, 5550, Note_on_c, 9, 40, 43
11, 5580, Note_on_c, 9, 40, 0
11, 5580, Note_on_c, 9, 40, 44
11, 5610, Note_on_c, 9, 40, 0
11, 5610, Note_on_c, 9, 40, 44
11, 5640, Note_on_c, 9, 40, 0
11, 5640, Note_on_c, 9, 40, 45
11, 5670, Note_on_c, 9, 40, 0
11, 5670, Note_on_c, 9, 40, 45
11, 5700, Note_on_c, 9, 40, 0
11, 5700, Note_on_c, 9, 40, 46
11, 5730, Note_on_c, 9, 40, 0
11, 5730, Note_on_c, 9, 40, 47
11, 5760, Note_on_c, 9, 40, 0
11, 5760, Note_on_c, 9, 40, 47
11, 5790, Note_on_c, 9, 40, 0
11, 5790, Note_on_c, 9, 40, 48
11, 5820, Note_on_c, 9, 40, 0
11, 5820, Note_on_c, 9, 40, 48
11, 5850, Note_on_c, 9, 40, 0
11, 5850, Note_on_c, 9, 40, 49
11, 5880, Note_on_c, 9, 40, 0
11, 5880, Note_on_c, 9, 40, 49
11, 5910, Note_on_c, 9, 40, 0
11, 5910, Note_on_c, 9, 40, 50
11, 5940, Note_on_c, 9, 40, 0
11, 5940, Note_on_c, 9, 40, 50
11, 5970, Note_on_c, 9, 40, 0
11, 5970, Note_on_c, 9, 40, 51
11, 6000, Note_on_c, 9, 40, 0
11, 6000, Note_on_c, 9, 40, 52
11, 6030, Note_on_c, 9, 40, 0
11, 6030, Note_on_c, 9, 40, 52
11, 6060, Note_on_c, 9, 40, 0
11, 6060, Note_on_c, 9, 40, 53
11, 6090, Note_on_c, 9, 40, 0
11, 6090, Note_on_c, 9, 40, 53
11, 6120, Note_on_c, 9, 40, 0
11, 6120, Note_on_c, 9, 40, 54
11, 6150, Note_on_c, 9, 40, 0
11, 6150, Note_on_c, 9, 40, 54
11, 6180, Note_on_c, 9, 40, 0
11, 6180, Note_on_c, 9, 40, 55
11, 6210, Note_on_c, 9, 40, 0
11, 6210, Note_on_c, 9, 40, 55
11, 6240, Note_on_c, 9, 40, 0
11, 6240, Note_on_c, 9, 40, 56
11, 6270, Note_on_c, 9, 40, 57
11, 6300, Note_on_c, 9, 40, 0
11, 6300, Note_on_c, 9, 40, 57
11, 6330, Note_on_c, 9, 40, 0
11, 6330, Note_on_c, 9, 40, 58
11, 6360, Note_on_c, 9, 40, 0
11, 6360, Note_on_c, 9, 40, 58
11, 6390, Note_on_c, 9, 40, 0
11, 6390, Note_on_c, 9, 40, 59
11, 6420, Note_on_c, 9, 40, 0
11, 6420, Note_on_c, 9, 40, 59
11, 6450, Note_on_c, 9, 40, 0
11, 6450, Note_on_c, 9, 40, 60
11, 6480, Note_on_c, 9, 40, 0
11, 6480, Note_on_c, 9, 40, 60
11, 6510, Note_on_c, 9, 40, 0
11, 6510, Note_on_c, 9, 40, 61
11, 6540, Note_on_c, 9, 40, 0
11, 6540, Note_on_c, 9, 40, 61
11, 6570, Note_on_c, 9, 40, 0
11, 6570, Note_on_c, 9, 40, 62
11, 6600, Note_on_c, 9, 40, 0
11, 6600, Note_on_c, 9, 40, 63
11, 6630, Note_on_c, 9, 40, 0
11, 6630, Note_on_c, 9, 40, 63
11, 6660, Note_on_c, 9, 40, 0
11, 6660, Note_on_c, 9, 40, 64
11, 6690, Note_on_c, 9, 40, 0
11, 6690, Note_on_c, 9, 40, 64
11, 6720, Note_on_c, 9, 40, 0
11, 6720, Note_on_c, 9, 40, 65
11, 6750, Note_on_c, 9, 40, 0
11, 6750, Note_on_c, 9, 40, 0
11, 6750, Note_on_c, 9, 40, 65
11, 6780, Note_on_c, 9, 40, 0
11, 6780, Note_on_c, 9, 40, 66
11, 6810, Note_on_c, 9, 40, 0
11, 6810, Note_on_c, 9, 40, 66
11, 6840, Note_on_c, 9, 40, 0
11, 6840, Note_on_c, 9, 40, 67
11, 6870, Note_on_c, 9, 40, 0
11, 6870, Note_on_c, 9, 40, 68
11, 6900, Note_on_c, 9, 40, 0
11, 6900, Note_on_c, 9, 40, 68
11, 6930, Note_on_c, 9, 40, 0
11, 6930, Note_on_c, 9, 40, 69
11, 6960, Note_on_c, 9, 40, 0
11, 6960, Note_on_c, 9, 40, 69
11, 6990, Note_on_c, 9, 40, 0
11, 6990, Note_on_c, 9, 40, 70
11, 7020, Note_on_c, 9, 40, 0
11, 7020, Note_on_c, 9, 40, 70
11, 7050, Note_on_c, 9, 40, 0
11, 7050, Note_on_c, 9, 40, 71
11, 7080, Note_on_c, 9, 40, 0
11, 7080, Note_on_c, 9, 40, 71
11, 7110, Note_on_c, 9, 40, 0
11, 7110, Note_on_c, 9, 40, 72
11, 7140, Note_on_c, 9, 40, 0
11, 7140, Note_on_c, 9, 40, 72
11, 7170, Note_on_c, 9, 40, 0
11, 7170, Note_on_c, 9, 40, 73
11, 7200, Note_on_c, 9, 40, 0
11, 7200, Note_on_c, 9, 40, 74
11, 7230, Note_on_c, 9, 40, 0
11, 7230, Note_on_c, 9, 40, 74
11, 7260, Note_on_c, 9, 40, 0
11, 7260, Note_on_c, 9, 40, 75
11, 7290, Note_on_c, 9, 40, 0
11, 7290, Note_on_c, 9, 40, 75
11, 7320, Note_on_c, 9, 40, 0
11, 7320, Note_on_c, 9, 40, 76
11, 7350, Note_on_c, 9, 40, 0
11, 7350, Note_on_c, 9, 40, 76
11, 7380, Note_on_c, 9, 40, 0
11, 7380, Note_on_c, 9, 40, 77
11, 7410, Note_on_c, 9, 40, 0
11, 7410, Note_on_c, 9, 40, 77
11, 7440, Note_on_c, 9, 40, 0
11, 7440, Note_on_c, 9, 40, 78
11, 7470, Note_on_c, 9, 40, 0
11, 7470, Note_on_c, 9, 40, 79
11, 7500, Note_on_c, 9, 40, 0
11, 7500, Note_on_c, 9, 40, 79
11, 7530, Note_on_c, 9, 40, 0
11, 7530, Note_on_c, 9, 40, 80
11, 7560, Note_on_c, 9, 40, 0
11, 7560, Note_on_c, 9, 40, 80
11, 7590, Note_on_c, 9, 40, 0
11, 7590, Note_on_c, 9, 40, 81
11, 7620, Note_on_c, 9, 40, 0
11, 7620, Note_on_c, 9, 40, 81
11, 7650, Note_on_c, 9, 40, 0
11, 7650, Note_on_c, 9, 40, 82
11, 7680, Note_on_c, 9, 40, 0
11, 7680, Note_on_c, 9, 40, 82
11, 7710, Note_on_c, 9, 40, 0
11, 7710, Note_on_c, 9, 40, 83
11, 7740, Note_on_c, 9, 40, 0
11, 7740, Note_on_c, 9, 40, 84
11, 7770, Note_on_c, 9, 40, 0
11, 7770, Note_on_c, 9, 40, 84
11, 7800, Note_on_c, 9, 40, 0
11, 7800, Note_on_c, 9, 40, 85
11, 7830, Note_on_c, 9, 40, 0
11, 7830, Note_on_c, 9, 40, 85
11, 7860, Note_on_c, 9, 40, 0
11, 7860, Note_on_c, 9, 40, 86
11, 7890, Note_on_c, 9, 40, 0
11, 7890, Note_on_c, 9, 40, 86
11, 7920, Note_on_c, 9, 40, 0
11, 7920, Note_on_c, 9, 40, 87
11, 7950, Note_on_c, 9, 40, 0
11, 7950, Note_on_c, 9, 40, 87
11, 7980, Note_on_c, 9, 40, 0
11, 7980, Note_on_c, 9, 40, 88
11, 8010, Note_on_c, 9, 40, 0
11, 8010, Note_on_c, 9, 40, 88
11, 8040, Note_on_c, 9, 40, 0
11, 8040, Note_on_c, 9, 40, 89
11, 8070, Note_on_c, 9, 40, 0
11, 8070, Note_on_c, 9, 40, 90
11, 8100, Note_on_c, 9, 40, 0
11, 8100, Note_on_c, 9, 40, 90
11, 8130, Note_on_c, 9, 40, 0
11, 8130, Note_on_c, 9, 40, 91
11, 8160, Note_on_c, 9, 40, 0
11, 8160, Note_on_c, 9, 57, 100
11, 8160, Note_on_c, 9, 40, 91
11, 8160, Note_on_c, 9, 62, 127
11, 8190, Note_on_c, 9, 62, 0
11, 8190, Note_on_c, 9, 40, 0
11, 8190, Note_on_c, 9, 57, 0
11, 8190, Note_on_c, 9, 40, 92
11, 8220, Note_on_c, 9, 40, 0
11, 8220, Note_on_c, 9, 40, 92
11, 8250, Note_on_c, 9, 40, 0
11, 8250, Note_on_c, 9, 40, 93
11, 8280, Note_on_c, 9, 40, 0
11, 8280, Note_on_c, 9, 40, 93
11, 8280, Note_on_c, 9, 62, 127
11, 8310, Note_on_c, 9, 62, 0
11, 8310, Note_on_c, 9, 40, 0
11, 8310, Note_on_c, 9, 40, 94
11, 8340, Note_on_c, 9, 40, 0
11, 8340, Note_on_c, 9, 40, 95
11, 8370, Note_on_c, 9, 40, 0
11, 8370, Note_on_c, 9, 40, 95
11, 8400, Note_on_c, 9, 40, 0
11, 8400, Note_on_c, 9, 40, 96
11, 8400, Note_on_c, 9, 57, 100
11, 8400, Note_on_c, 9, 62, 127
11, 8430, Note_on_c, 9, 62, 0
11, 8430, Note_on_c, 9, 57, 0
11, 8430, Note_on_c, 9, 40, 0
11, 8430, Note_on_c, 9, 40, 96
11, 8430, Note_on_c, 9, 40, 96
11, 8460, Note_on_c, 9, 40, 0
11, 8460, Note_on_c, 9, 40, 0
11, 8460, Note_on_c, 9, 40, 97
11, 8460, Note_on_c, 9, 40, 97
11, 8490, Note_on_c, 9, 40, 0
11, 8490, Note_on_c, 9, 40, 0
11, 8490, Note_on_c, 9, 40, 97
11, 8490, Note_on_c, 9, 62, 127
11, 8490, Note_on_c, 9, 40, 97
11, 8520, Note_on_c, 9, 40, 0
11, 8520, Note_on_c, 9, 62, 0
11, 8520, Note_on_c, 9, 40, 0
11, 8520, Note_on_c, 9, 40, 98
11, 8520, Note_on_c, 9, 40, 98
11, 8520, Note_on_c, 9, 62, 127
11, 8550, Note_on_c, 9, 62, 0
11, 8550, Note_on_c, 9, 40, 0
11, 8550, Note_on_c, 9, 40, 0
11, 8550, Note_on_c, 9, 40, 98
11, 8550, Note_on_c, 9, 40, 98
11, 8580, Note_on_c, 9, 40, 0
11, 8580, Note_on_c, 9, 40, 0
11, 8580, Note_on_c, 9, 40, 99
11, 8580, Note_on_c, 9, 62, 127
11, 8580, Note_on_c, 9, 40, 99
11, 8610, Note_on_c, 9, 40, 0
11, 8610, Note_on_c, 9, 62, 0
11, 8610, Note_on_c, 9, 40, 0
11, 8610, Note_on_c, 9, 40, 100
11, 8610, Note_on_c, 9, 40, 100
11, 8640, Note_on_c, 9, 40, 0
11, 8640, Note_on_c, 9, 40, 0
11, 8640, Note_on_c, 9, 39, 90
11, 8640, Note_on_c, 9, 35, 127
11, 8640, Note_on_c, 9, 57, 100
11, 8670, Note_on_c, 9, 57, 0
11, 8670, Note_on_c, 9, 35, 0
11, 8670, Note_on_c, 9, 39, 0
11, 8700, Note_on_c, 9, 42, 100
11, 8700, Note_on_c, 9, 59, 100
11, 8730, Note_on_c, 9, 59, 0
11, 8730, Note_on_c, 9, 42, 0
11, 8760, Note_on_c, 9, 35, 127
11, 8760, Note_on_c, 9, 39, 100
11, 8790, Note_on_c, 9, 39, 0
11, 8790, Note_on_c, 9, 35, 0
11, 8820, Note_on_c, 9, 59, 100
11, 8820, Note_on_c, 9, 42, 100
11, 8850, Note_on_c, 9, 42, 0
11, 8850, Note_on_c, 9, 59, 0
11, 8880, Note_on_c, 9, 35, 127
11, 8910, Note_on_c, 9, 35, 0
11, 8940, Note_on_c, 9, 59, 100
11, 8940, Note_on_c, 9, 42, 100
11, 8970, Note_on_c, 9, 42, 0
11, 8970, Note_on_c, 9, 59, 0
11, 9000, Note_on_c, 9, 35, 127
11, 9000, Note_on_c, 9, 39, 100
11, 9030, Note_on_c, 9, 39, 0
11, 9030, Note_on_c, 9, 35, 0
11, 9060, Note_on_c, 9, 42, 100
11, 9060, Note_on_c, 9, 59, 100
11, 9090, Note_on_c, 9, 59, 0
11, 9090, Note_on_c, 9, 42, 0
11, 9120, Note_on_c, 9, 35, 127
11, 9150, Note_on_c, 9, 35, 0
11, 9180, Note_on_c, 9, 42, 100
11, 9180, Note_on_c, 9, 59, 100
11, 9210, Note_on_c, 9, 59, 0
11, 9210, Note_on_c, 9, 42, 0
11, 9240, Note_on_c, 9, 35, 127
11, 9240, Note_on_c, 9, 39, 100
11, 9270, Note_on_c, 9, 39, 0
11, 9270, Note_on_c, 9, 35, 0
11, 9300, Note_on_c, 9, 59, 100
11, 9300, Note_on_c, 9, 42, 100
11, 9330, Note_on_c, 9, 42, 0
11, 9330, Note_on_c, 9, 59, 0
11, 9360, Note_on_c, 9, 35, 127
11, 9390, Note_on_c, 9, 35, 0
11, 9420, Note_on_c, 9, 42, 100
11, 9420, Note_on_c, 9, 59, 100
11, 9450, Note_on_c, 9, 59, 0
11, 9450, Note_on_c, 9, 42, 0
11, 9480, Note_on_c, 9, 35, 127
11, 9480, Note_on_c, 9, 39, 100
11, 9510, Note_on_c, 9, 39, 0
11, 9510, Note_on_c, 9, 35, 0
11, 9540, Note_on_c, 9, 59, 100
11, 9540, Note_on_c, 9, 42, 100
11, 9570, Note_on_c, 9, 42, 0
11, 9570, Note_on_c, 9, 59, 0
11, 9600, Note_on_c, 9, 35, 127
11, 9630, Note_on_c, 9, 35, 0
11, 9660, Note_on_c, 9, 42, 100
11, 9660, Note_on_c, 9, 59, 100
11, 9690, Note_on_c, 9, 59, 0
11, 9690, Note_on_c, 9, 42, 0
11, 9720, Note_on_c, 9, 39, 100
11, 9720, Note_on_c, 9, 35, 127
11, 9750, Note_on_c, 9, 35, 0
11, 9750, Note_on_c, 9, 39, 0
11, 9780, Note_on_c, 9, 59, 100
11, 9780, Note_on_c, 9, 42, 100
11, 9810, Note_on_c, 9, 42, 0
11, 9810, Note_on_c, 9, 59, 0
11, 9840, Note_on_c, 9, 35, 127
11, 9870, Note_on_c, 9, 35, 0
11, 9900, Note_on_c, 9, 59, 100
11, 9900, Note_on_c, 9, 42, 100
11, 9930, Note_on_c, 9, 42, 0
11, 9930, Note_on_c, 9, 59, 0
11, 9960, Note_on_c, 9, 35, 127
11, 9960, Note_on_c, 9, 39, 100
11, 9990, Note_on_c, 9, 39, 0
11, 9990, Note_on_c, 9, 35, 0
11, 10020, Note_on_c, 9, 42, 100
11, 10020, Note_on_c, 9, 59, 100
11, 10050, Note_on_c, 9, 59, 0
11, 10050, Note_on_c, 9, 42, 0
11, 10080, Note_on_c, 9, 35, 127
11, 10080, Note_on_c, 9, 62, 127
11, 10110, Note_on_c, 9, 62, 0
11, 10110, Note_on_c, 9, 35, 0
11, 10140, Note_on_c, 9, 42, 100
11, 10140, Note_on_c, 9, 59, 100
11, 10170, Note_on_c, 9, 59, 0
11, 10170, Note_on_c, 9, 42, 0
11, 10170, Note_on_c, 9, 62, 127
11, 10200, Note_on_c, 9, 62, 0
11, 10200, Note_on_c, 9, 35, 127
11, 10200, Note_on_c, 9, 39, 100
11, 10200, Note_on_c, 9, 62, 127
11, 10230, Note_on_c, 9, 62, 0
11, 10230, Note_on_c, 9, 39, 0
11, 10230, Note_on_c, 9, 35, 0
11, 10260, Note_on_c, 9, 59, 100
11, 10260, Note_on_c, 9, 42, 100
11, 10260, Note_on_c, 9, 62, 127
11, 10290, Note_on_c, 9, 62, 0
11, 10290, Note_on_c, 9, 42, 0
11, 10290, Note_on_c, 9, 59, 0
11, 10320, Note_on_c, 9, 35, 127
11, 10320, Note_on_c, 9, 62, 127
11, 10350, Note_on_c, 9, 62, 0
11, 10350, Note_on_c, 9, 35, 0
11, 10380, Note_on_c, 9, 59, 100
11, 10380, Note_on_c, 9, 42, 100
11, 10410, Note_on_c, 9, 42, 0
11, 10410, Note_on_c, 9, 59, 0
11, 10410, Note_on_c, 9, 62, 127
11, 10440, Note_on_c, 9, 62, 0
11, 10440, Note_on_c, 9, 39, 100
11, 10440, Note_on_c, 9, 35, 127
11, 10440, Note_on_c, 9, 62, 127
11, 10470, Note_on_c, 9, 62, 0
11, 10470, Note_on_c, 9, 35, 0
11, 10470, Note_on_c, 9, 39, 0
11, 10500, Note_on_c, 9, 59, 100
11, 10500, Note_on_c, 9, 42, 100
11, 10500, Note_on_c, 9, 62, 127
11, 10530, Note_on_c, 9, 62, 0
11, 10530, Note_on_c, 9, 42, 0
11, 10530, Note_on_c, 9, 59, 0
11, 10560, Note_on_c, 9, 49, 100
11, 10560, Note_on_c, 9, 35, 127
11, 10590, Note_on_c, 9, 35, 0
11, 10590, Note_on_c, 9, 49, 0
11, 10620, Note_on_c, 9, 42, 100
11, 10620, Note_on_c, 9, 59, 100
11, 10650, Note_on_c, 9, 59, 0
11, 10650, Note_on_c, 9, 42, 0
11, 10680, Note_on_c, 9, 35, 127
11, 10680, Note_on_c, 9, 39, 100
11, 10710, Note_on_c, 9, 39, 0
11, 10710, Note_on_c, 9, 35, 0
11, 10740, Note_on_c, 9, 59, 100
11, 10740, Note_on_c, 9, 42, 100
11, 10770, Note_on_c, 9, 42, 0
11, 10770, Note_on_c, 9, 59, 0
11, 10800, Note_on_c, 9, 35, 127
11, 10830, Note_on_c, 9, 35, 0
11, 10860, Note_on_c, 9, 59, 100
11, 10860, Note_on_c, 9, 42, 100
11, 10890, Note_on_c, 9, 42, 0
11, 10890, Note_on_c, 9, 59, 0
11, 10920, Note_on_c, 9, 39, 100
11, 10920, Note_on_c, 9, 35, 127
11, 10950, Note_on_c, 9, 35, 0
11, 10950, Note_on_c, 9, 39, 0
11, 10980, Note_on_c, 9, 42, 100
11, 10980, Note_on_c, 9, 59, 100
11, 11010, Note_on_c, 9, 59, 0
11, 11010, Note_on_c, 9, 42, 0
11, 11040, Note_on_c, 9, 35, 127
11, 11070, Note_on_c, 9, 35, 0
11, 11100, Note_on_c, 9, 42, 100
11, 11100, Note_on_c, 9, 59, 100
11, 11130, Note_on_c, 9, 59, 0
11, 11130, Note_on_c, 9, 42, 0
11, 11160, Note_on_c, 9, 39, 100
11, 11160, Note_on_c, 9, 35, 127
11, 11190, Note_on_c, 9, 35, 0
11, 11190, Note_on_c, 9, 39, 0
11, 11220, Note_on_c, 9, 59, 100
11, 11220, Note_on_c, 9, 42, 100
11, 11250, Note_on_c, 9, 42, 0
11, 11250, Note_on_c, 9, 59, 0
11, 11280, Note_on_c, 9, 35, 127
11, 11310, Note_on_c, 9, 35, 0
11, 11340, Note_on_c, 9, 42, 100
11, 11340, Note_on_c, 9, 59, 100
11, 11370, Note_on_c, 9, 59, 0
11, 11370, Note_on_c, 9, 42, 0
11, 11400, Note_on_c, 9, 39, 100
11, 11400, Note_on_c, 9, 35, 127
11, 11430, Note_on_c, 9, 35, 0
11, 11430, Note_on_c, 9, 39, 0
11, 11460, Note_on_c, 9, 59, 100
11, 11460, Note_on_c, 9, 42, 100
11, 11490, Note_on_c, 9, 42, 0
11, 11490, Note_on_c, 9, 59, 0
11, 11520, Note_on_c, 9, 35, 127
11, 11550, Note_on_c, 9, 35, 0
11, 11580, Note_on_c, 9, 42, 100
11, 11580, Note_on_c, 9, 59, 100
11, 11610, Note_on_c, 9, 59, 0
11, 11610, Note_on_c, 9, 42, 0
11, 11640, Note_on_c, 9, 35, 127
11, 11640, Note_on_c, 9, 39, 100
11, 11670, Note_on_c, 9, 39, 0
11, 11670, Note_on_c, 9, 35, 0
11, 11700, Note_on_c, 9, 42, 100
11, 11700, Note_on_c, 9, 59, 100
11, 11730, Note_on_c, 9, 59, 0
11, 11730, Note_on_c, 9, 42, 0
11, 11760, Note_on_c, 9, 35, 127
11, 11790, Note_on_c, 9, 35, 0
11, 11820, Note_on_c, 9, 59, 100
11, 11820, Note_on_c, 9, 42, 100
11, 11850, Note_on_c, 9, 42, 0
11, 11850, Note_on_c, 9, 59, 0
11, 11880, Note_on_c, 9, 35, 127
11, 11880, Note_on_c, 9, 39, 100
11, 11910, Note_on_c, 9, 39, 0
11, 11910, Note_on_c, 9, 35, 0
11, 11940, Note_on_c, 9, 59, 100
11, 11940, Note_on_c, 9, 42, 100
11, 11970, Note_on_c, 9, 42, 0
11, 11970, Note_on_c, 9, 59, 0
11, 12000, Note_on_c, 9, 35, 127
11, 12000, Note_on_c, 9, 62, 127
11, 12030, Note_on_c, 9, 62, 0
11, 12030, Note_on_c, 9, 35, 0
11, 12060, Note_on_c, 9, 42, 100
11, 12060, Note_on_c, 9, 59, 100
11, 12090, Note_on_c, 9, 59, 0
11, 12090, Note_on_c, 9, 42, 0
11, 12090, Note_on_c, 9, 62, 127
11, 12120, Note_on_c, 9, 62, 0
11, 12120, Note_on_c, 9, 35, 127
11, 12120, Note_on_c, 9, 39, 100
11, 12120, Note_on_c, 9, 62, 127
11, 12150, Note_on_c, 9, 62, 0
11, 12150, Note_on_c, 9, 39, 0
11, 12150, Note_on_c, 9, 35, 0
11, 12180, Note_on_c, 9, 42, 100
11, 12180, Note_on_c, 9, 59, 100
11, 12180, Note_on_c, 9, 62, 127
11, 12210, Note_on_c, 9, 62, 0
11, 12210, Note_on_c, 9, 59, 0
11, 12210, Note_on_c, 9, 42, 0
11, 12240, Note_on_c, 9, 35, 127
11, 12240, Note_on_c, 9, 62, 127
11, 12270, Note_on_c, 9, 62, 0
11, 12270, Note_on_c, 9, 35, 0
11, 12300, Note_on_c, 9, 59, 100
11, 12300, Note_on_c, 9, 42, 100
11, 12330, Note_on_c, 9, 42, 0
11, 12330, Note_on_c, 9, 59, 0
11, 12330, Note_on_c, 9, 62, 127
11, 12360, Note_on_c, 9, 62, 0
11, 12360, Note_on_c, 9, 35, 127
11, 12360, Note_on_c, 9, 39, 100
11, 12360, Note_on_c, 9, 62, 127
11, 12390, Note_on_c, 9, 62, 0
11, 12390, Note_on_c, 9, 39, 0
11, 12390, Note_on_c, 9, 35, 0
11, 12420, Note_on_c, 9, 42, 100
11, 12420, Note_on_c, 9, 59, 100
11, 12420, Note_on_c, 9, 62, 127
11, 12450, Note_on_c, 9, 62, 0
11, 12450, Note_on_c, 9, 59, 0
11, 12450, Note_on_c, 9, 42, 0
11, 12480, Note_on_c, 9, 49, 100
11, 12480, Note_on_c, 9, 35, 127
11, 12510, Note_on_c, 9, 35, 0
11, 12540, Note_on_c, 9, 59, 100
11, 12540, Note_on_c, 9, 42, 100
11, 12570, Note_on_c, 9, 42, 0
11, 12570, Note_on_c, 9, 59, 0
11, 12600, Note_on_c, 9, 49, 0
11, 12600, Note_on_c, 9, 35, 127
11, 12600, Note_on_c, 9, 39, 100
11, 12630, Note_on_c, 9, 39, 0
11, 12630, Note_on_c, 9, 35, 0
11, 12660, Note_on_c, 9, 42, 100
11, 12660, Note_on_c, 9, 59, 100
11, 12690, Note_on_c, 9, 59, 0
11, 12690, Note_on_c, 9, 42, 0
11, 12720, Note_on_c, 9, 35, 127
11, 12750, Note_on_c, 9, 35, 0
11, 12780, Note_on_c, 9, 59, 100
11, 12780, Note_on_c, 9, 42, 100
11, 12810, Note_on_c, 9, 42, 0
11, 12810, Note_on_c, 9, 59, 0
11, 12840, Note_on_c, 9, 35, 127
11, 12840, Note_on_c, 9, 39, 100
11, 12870, Note_on_c, 9, 39, 0
11, 12870, Note_on_c, 9, 35, 0
11, 12900, Note_on_c, 9, 42, 100
11, 12900, Note_on_c, 9, 59, 100
11, 12930, Note_on_c, 9, 59, 0
11, 12930, Note_on_c, 9, 42, 0
11, 12960, Note_on_c, 9, 35, 127
11, 12990, Note_on_c, 9, 35, 0
11, 13020, Note_on_c, 9, 59, 100
11, 13020, Note_on_c, 9, 42, 100
11, 13050, Note_on_c, 9, 42, 0
11, 13050, Note_on_c, 9, 59, 0
11, 13080, Note_on_c, 9, 35, 127
11, 13080, Note_on_c, 9, 39, 100
11, 13110, Note_on_c, 9, 39, 0
11, 13110, Note_on_c, 9, 35, 0
11, 13140, Note_on_c, 9, 42, 100
11, 13140, Note_on_c, 9, 59, 100
11, 13170, Note_on_c, 9, 59, 0
11, 13170, Note_on_c, 9, 42, 0
11, 13200, Note_on_c, 9, 35, 127
11, 13230, Note_on_c, 9, 35, 0
11, 13260, Note_on_c, 9, 59, 100
11, 13260, Note_on_c, 9, 42, 100
11, 13290, Note_on_c, 9, 42, 0
11, 13290, Note_on_c, 9, 59, 0
11, 13320, Note_on_c, 9, 35, 127
11, 13320, Note_on_c, 9, 39, 100
11, 13350, Note_on_c, 9, 39, 0
11, 13350, Note_on_c, 9, 35, 0
11, 13380, Note_on_c, 9, 42, 100
11, 13380, Note_on_c, 9, 59, 100
11, 13410, Note_on_c, 9, 59, 0
11, 13410, Note_on_c, 9, 42, 0
11, 13440, Note_on_c, 9, 35, 127
11, 13470, Note_on_c, 9, 35, 0
11, 13500, Note_on_c, 9, 59, 100
11, 13500, Note_on_c, 9, 42, 100
11, 13530, Note_on_c, 9, 42, 0
11, 13530, Note_on_c, 9, 59, 0
11, 13560, Note_on_c, 9, 35, 127
11, 13560, Note_on_c, 9, 39, 100
11, 13590, Note_on_c, 9, 39, 0
11, 13590, Note_on_c, 9, 35, 0
11, 13620, Note_on_c, 9, 42, 100
11, 13620, Note_on_c, 9, 59, 100
11, 13650, Note_on_c, 9, 59, 0
11, 13650, Note_on_c, 9, 42, 0
11, 13680, Note_on_c, 9, 35, 127
11, 13710, Note_on_c, 9, 35, 0
11, 13740, Note_on_c, 9, 59, 100
11, 13740, Note_on_c, 9, 42, 100
11, 13770, Note_on_c, 9, 42, 0
11, 13770, Note_on_c, 9, 59, 0
11, 13800, Note_on_c, 9, 39, 100
11, 13800, Note_on_c, 9, 35, 127
11, 13830, Note_on_c, 9, 35, 0
11, 13830, Note_on_c, 9, 39, 0
11, 13860, Note_on_c, 9, 42, 100
11, 13860, Note_on_c, 9, 59, 100
11, 13890, Note_on_c, 9, 59, 0
11, 13890, Note_on_c, 9, 42, 0
11, 13920, Note_on_c, 9, 35, 127
11, 13920, Note_on_c, 9, 62, 127
11, 13950, Note_on_c, 9, 62, 0
11, 13950, Note_on_c, 9, 35, 0
11, 13980, Note_on_c, 9, 59, 100
11, 13980, Note_on_c, 9, 42, 100
11, 14010, Note_on_c, 9, 42, 0
11, 14010, Note_on_c, 9, 59, 0
11, 14010, Note_on_c, 9, 62, 127
11, 14040, Note_on_c, 9, 62, 0
11, 14040, Note_on_c, 9, 35, 127
11, 14040, Note_on_c, 9, 39, 100
11, 14040, Note_on_c, 9, 62, 127
11, 14070, Note_on_c, 9, 62, 0
11, 14070, Note_on_c, 9, 39, 0
11, 14070, Note_on_c, 9, 35, 0
11, 14100, Note_on_c, 9, 42, 100
11, 14100, Note_on_c, 9, 59, 100
11, 14100, Note_on_c, 9, 62, 127
11, 14130, Note_on_c, 9, 62, 0
11, 14130, Note_on_c, 9, 59, 0
11, 14130, Note_on_c, 9, 42, 0
11, 14160, Note_on_c, 9, 35, 127
11, 14160, Note_on_c, 9, 62, 127
11, 14190, Note_on_c, 9, 62, 0
11, 14190, Note_on_c, 9, 35, 0
11, 14220, Note_on_c, 9, 59, 100
11, 14220, Note_on_c, 9, 42, 100
11, 14250, Note_on_c, 9, 42, 0
11, 14250, Note_on_c, 9, 59, 0
11, 14250, Note_on_c, 9, 62, 127
11, 14280, Note_on_c, 9, 62, 0
11, 14280, Note_on_c, 9, 35, 127
11, 14280, Note_on_c, 9, 39, 100
11, 14280, Note_on_c, 9, 62, 127
11, 14310, Note_on_c, 9, 62, 0
11, 14310, Note_on_c, 9, 39, 0
11, 14310, Note_on_c, 9, 35, 0
11, 14340, Note_on_c, 9, 42, 100
11, 14340, Note_on_c, 9, 59, 100
11, 14340, Note_on_c, 9, 62, 127
11, 14370, Note_on_c, 9, 62, 0
11, 14370, Note_on_c, 9, 59, 0
11, 14370, Note_on_c, 9, 42, 0
11, 14400, Note_on_c, 9, 49, 100
11, 14400, Note_on_c, 9, 35, 127
11, 14430, Note_on_c, 9, 35, 0
11, 14460, Note_on_c, 9, 59, 100
11, 14460, Note_on_c, 9, 42, 100
11, 14490, Note_on_c, 9, 42, 0
11, 14490, Note_on_c, 9, 59, 0
11, 14520, Note_on_c, 9, 49, 0
11, 14520, Note_on_c, 9, 35, 127
11, 14520, Note_on_c, 9, 39, 100
11, 14550, Note_on_c, 9, 39, 0
11, 14550, Note_on_c, 9, 35, 0
11, 14580, Note_on_c, 9, 42, 100
11, 14580, Note_on_c, 9, 59, 100
11, 14610, Note_on_c, 9, 59, 0
11, 14610, Note_on_c, 9, 42, 0
11, 14640, Note_on_c, 9, 35, 127
11, 14670, Note_on_c, 9, 35, 0
11, 14700, Note_on_c, 9, 59, 100
11, 14700, Note_on_c, 9, 42, 100
11, 14730, Note_on_c, 9, 42, 0
11, 14730, Note_on_c, 9, 59, 0
11, 14760, Note_on_c, 9, 35, 127
11, 14760, Note_on_c, 9, 39, 100
11, 14790, Note_on_c, 9, 39, 0
11, 14790, Note_on_c, 9, 35, 0
11, 14820, Note_on_c, 9, 42, 100
11, 14820, Note_on_c, 9, 59, 100
11, 14850, Note_on_c, 9, 59, 0
11, 14850, Note_on_c, 9, 42, 0
11, 14880, Note_on_c, 9, 35, 127
11, 14910, Note_on_c, 9, 35, 0
11, 14940, Note_on_c, 9, 59, 100
11, 14940, Note_on_c, 9, 42, 100
11, 14970, Note_on_c, 9, 42, 0
11, 14970, Note_on_c, 9, 59, 0
11, 15000, Note_on_c, 9, 35, 127
11, 15000, Note_on_c, 9, 39, 100
11, 15030, Note_on_c, 9, 39, 0
11, 15030, Note_on_c, 9, 35, 0
11, 15060, Note_on_c, 9, 42, 100
11, 15060, Note_on_c, 9, 59, 100
11, 15090, Note_on_c, 9, 59, 0
11, 15090, Note_on_c, 9, 42, 0
11, 15120, Note_on_c, 9, 35, 127
11, 15150, Note_on_c, 9, 35, 0
11, 15180, Note_on_c, 9, 59, 100
11, 15180, Note_on_c, 9, 42, 100
11, 15210, Note_on_c, 9, 42, 0
11, 15210, Note_on_c, 9, 59, 0
11, 15240, Note_on_c, 9, 35, 127
11, 15240, Note_on_c, 9, 39, 100
11, 15270, Note_on_c, 9, 39, 0
11, 15270, Note_on_c, 9, 35, 0
11, 15300, Note_on_c, 9, 42, 100
11, 15300, Note_on_c, 9, 59, 100
11, 15330, Note_on_c, 9, 59, 0
11, 15330, Note_on_c, 9, 42, 0
11, 15360, Note_on_c, 9, 35, 127
11, 15390, Note_on_c, 9, 35, 0
11, 15420, Note_on_c, 9, 59, 100
11, 15420, Note_on_c, 9, 42, 100
11, 15450, Note_on_c, 9, 42, 0
11, 15450, Note_on_c, 9, 59, 0
11, 15480, Note_on_c, 9, 35, 127
11, 15480, Note_on_c, 9, 39, 100
11, 15510, Note_on_c, 9, 39, 0
11, 15510, Note_on_c, 9, 35, 0
11, 15540, Note_on_c, 9, 42, 100
11, 15540, Note_on_c, 9, 59, 100
11, 15570, Note_on_c, 9, 59, 0
11, 15570, Note_on_c, 9, 42, 0
11, 15600, Note_on_c, 9, 35, 127
11, 15630, Note_on_c, 9, 35, 0
11, 15660, Note_on_c, 9, 59, 100
11, 15660, Note_on_c, 9, 42, 100
11, 15690, Note_on_c, 9, 42, 0
11, 15690, Note_on_c, 9, 59, 0
11, 15720, Note_on_c, 9, 35, 127
11, 15720, Note_on_c, 9, 39, 100
11, 15750, Note_on_c, 9, 39, 0
11, 15750, Note_on_c, 9, 35, 0
11, 15780, Note_on_c, 9, 42, 100
11, 15780, Note_on_c, 9, 59, 100
11, 15810, Note_on_c, 9, 59, 0
11, 15810, Note_on_c, 9, 42, 0
11, 15840, Note_on_c, 9, 35, 127
11, 15840, Note_on_c, 9, 62, 127
11, 15870, Note_on_c, 9, 62, 0
11, 15870, Note_on_c, 9, 35, 0
11, 15900, Note_on_c, 9, 59, 100
11, 15900, Note_on_c, 9, 42, 100
11, 15930, Note_on_c, 9, 42, 0
11, 15930, Note_on_c, 9, 59, 0
11, 15930, Note_on_c, 9, 62, 127
11, 15960, Note_on_c, 9, 62, 0
11, 15960, Note_on_c, 9, 35, 127
11, 15960, Note_on_c, 9, 39, 100
11, 15960, Note_on_c, 9, 62, 127
11, 15990, Note_on_c, 9, 62, 0
11, 15990, Note_on_c, 9, 39, 0
11, 15990, Note_on_c, 9, 35, 0
11, 16020, Note_on_c, 9, 42, 100
11, 16020, Note_on_c, 9, 59, 100
11, 16020, Note_on_c, 9, 62, 127
11, 16050, Note_on_c, 9, 62, 0
11, 16050, Note_on_c, 9, 59, 0
11, 16050, Note_on_c, 9, 42, 0
11, 16080, Note_on_c, 9, 35, 127
11, 16080, Note_on_c, 9, 62, 127
11, 16110, Note_on_c, 9, 62, 0
11, 16110, Note_on_c, 9, 35, 0
11, 16140, Note_on_c, 9, 59, 100
11, 16140, Note_on_c, 9, 42, 100
11, 16170, Note_on_c, 9, 42, 0
11, 16170, Note_on_c, 9, 59, 0
11, 16170, Note_on_c, 9, 62, 127
11, 16200, Note_on_c, 9, 62, 0
11, 16200, Note_on_c, 9, 35, 127
11, 16200, Note_on_c, 9, 39, 100
11, 16200, Note_on_c, 9, 62, 127
11, 16230, Note_on_c, 9, 62, 0
11, 16230, Note_on_c, 9, 39, 0
11, 16230, Note_on_c, 9, 35, 0
11, 16260, Note_on_c, 9, 42, 100
11, 16260, Note_on_c, 9, 59, 100
11, 16260, Note_on_c, 9, 62, 127
11, 16290, Note_on_c, 9, 62, 0
11, 16290, Note_on_c, 9, 59, 0
11, 16290, Note_on_c, 9, 42, 0
11, 16320, Note_on_c, 9, 49, 100
11, 16320, Note_on_c, 9, 35, 127
11, 16350, Note_on_c, 9, 35, 0
11, 16350, Note_on_c, 9, 49, 0
11, 16380, Note_on_c, 9, 59, 100
11, 16380, Note_on_c, 9, 42, 100
11, 16410, Note_on_c, 9, 42, 0
11, 16410, Note_on_c, 9, 59, 0
11, 16440, Note_on_c, 9, 35, 127
11, 16440, Note_on_c, 9, 39, 100
11, 16470, Note_on_c, 9, 39, 0
11, 16470, Note_on_c, 9, 35, 0
11, 16500, Note_on_c, 9, 42, 100
11, 16500, Note_on_c, 9, 59, 100
11, 16530, Note_on_c, 9, 59, 0
11, 16530, Note_on_c, 9, 42, 0
11, 16560, Note_on_c, 9, 35, 127
11, 16590, Note_on_c, 9, 35, 0
11, 16620, Note_on_c, 9, 42, 100
11, 16620, Note_on_c, 9, 59, 100
11, 16650, Note_on_c, 9, 59, 0
11, 16650, Note_on_c, 9, 42, 0
11, 16680, Note_on_c, 9, 39, 100
11, 16680, Note_on_c, 9, 35, 127
11, 16710, Note_on_c, 9, 35, 0
11, 16710, Note_on_c, 9, 39, 0
11, 16740, Note_on_c, 9, 59, 100
11, 16740, Note_on_c, 9, 42, 100
11, 16770, Note_on_c, 9, 42, 0
11, 16770, Note_on_c, 9, 59, 0
11, 16800, Note_on_c, 9, 35, 127
11, 16830, Note_on_c, 9, 35, 0
11, 16860, Note_on_c, 9, 59, 100
11, 16860, Note_on_c, 9, 42, 100
11, 16890, Note_on_c, 9, 42, 0
11, 16890, Note_on_c, 9, 59, 0
11, 16920, Note_on_c, 9, 35, 127
11, 16920, Note_on_c, 9, 39, 100
11, 16950, Note_on_c, 9, 39, 0
11, 16950, Note_on_c, 9, 35, 0
11, 16980, Note_on_c, 9, 42, 100
11, 16980, Note_on_c, 9, 59, 100
11, 17010, Note_on_c, 9, 59, 0
11, 17010, Note_on_c, 9, 42, 0
11, 17040, Note_on_c, 9, 35, 127
11, 17070, Note_on_c, 9, 35, 0
11, 17100, Note_on_c, 9, 42, 100
11, 17100, Note_on_c, 9, 59, 100
11, 17130, Note_on_c, 9, 59, 0
11, 17130, Note_on_c, 9, 42, 0
11, 17160, Note_on_c, 9, 35, 127
11, 17160, Note_on_c, 9, 39, 100
11, 17190, Note_on_c, 9, 39, 0
11, 17190, Note_on_c, 9, 35, 0
11, 17220, Note_on_c, 9, 59, 100
11, 17220, Note_on_c, 9, 42, 100
11, 17250, Note_on_c, 9, 42, 0
11, 17250, Note_on_c, 9, 59, 0
11, 17280, Note_on_c, 9, 35, 127
11, 17310, Note_on_c, 9, 35, 0
11, 17340, Note_on_c, 9, 59, 100
11, 17340, Note_on_c, 9, 42, 100
11, 17370, Note_on_c, 9, 42, 0
11, 17370, Note_on_c, 9, 59, 0
11, 17400, Note_on_c, 9, 35, 127
11, 17400, Note_on_c, 9, 39, 100
11, 17430, Note_on_c, 9, 39, 0
11, 17430, Note_on_c, 9, 35, 0
11, 17460, Note_on_c, 9, 42, 100
11, 17460, Note_on_c, 9, 59, 100
11, 17490, Note_on_c, 9, 59, 0
11, 17490, Note_on_c, 9, 42, 0
11, 17520, Note_on_c, 9, 35, 127
11, 17550, Note_on_c, 9, 35, 0
11, 17580, Note_on_c, 9, 42, 100
11, 17580, Note_on_c, 9, 59, 100
11, 17610, Note_on_c, 9, 59, 0
11, 17610, Note_on_c, 9, 42, 0
11, 17640, Note_on_c, 9, 35, 127
11, 17640, Note_on_c, 9, 39, 100
11, 17670, Note_on_c, 9, 39, 0
11, 17670, Note_on_c, 9, 35, 0
11, 17700, Note_on_c, 9, 59, 100
11, 17700, Note_on_c, 9, 42, 100
11, 17730, Note_on_c, 9, 42, 0
11, 17730, Note_on_c, 9, 59, 0
11, 17760, Note_on_c, 9, 35, 127
11, 17790, Note_on_c, 9, 35, 0
11, 17820, Note_on_c, 9, 59, 100
11, 17820, Note_on_c, 9, 42, 100
11, 17850, Note_on_c, 9, 42, 0
11, 17850, Note_on_c, 9, 59, 0
11, 17880, Note_on_c, 9, 35, 127
11, 17880, Note_on_c, 9, 39, 100
11, 17910, Note_on_c, 9, 39, 0
11, 17910, Note_on_c, 9, 35, 0
11, 17940, Note_on_c, 9, 42, 100
11, 17940, Note_on_c, 9, 59, 100
11, 17970, Note_on_c, 9, 59, 0
11, 17970, Note_on_c, 9, 42, 0
11, 18000, Note_on_c, 9, 35, 127
11, 18030, Note_on_c, 9, 35, 0
11, 18060, Note_on_c, 9, 42, 100
11, 18060, Note_on_c, 9, 59, 100
11, 18090, Note_on_c, 9, 59, 0
11, 18090, Note_on_c, 9, 42, 0
11, 18120, Note_on_c, 9, 35, 127
11, 18120, Note_on_c, 9, 39, 100
11, 18150, Note_on_c, 9, 39, 0
11, 18150, Note_on_c, 9, 35, 0
11, 18180, Note_on_c, 9, 59, 100
11, 18180, Note_on_c, 9, 42, 100
11, 18210, Note_on_c, 9, 42, 0
11, 18210, Note_on_c, 9, 59, 0
11, 18240, Note_on_c, 9, 35, 127
11, 18270, Note_on_c, 9, 35, 0
11, 18300, Note_on_c, 9, 59, 100
11, 18300, Note_on_c, 9, 42, 100
11, 18330, Note_on_c, 9, 42, 0
11, 18330, Note_on_c, 9, 59, 0
11, 18360, Note_on_c, 9, 35, 127
11, 18360, Note_on_c, 9, 39, 100
11, 18390, Note_on_c, 9, 39, 0
11, 18390, Note_on_c, 9, 35, 0
11, 18420, Note_on_c, 9, 42, 100
11, 18420, Note_on_c, 9, 59, 100
11, 18450, Note_on_c, 9, 59, 0
11, 18450, Note_on_c, 9, 42, 0
11, 18480, Note_on_c, 9, 35, 127
11, 18510, Note_on_c, 9, 35, 0
11, 18540, Note_on_c, 9, 42, 100
11, 18540, Note_on_c, 9, 59, 100
11, 18570, Note_on_c, 9, 59, 0
11, 18570, Note_on_c, 9, 42, 0
11, 18600, Note_on_c, 9, 35, 127
11, 18600, Note_on_c, 9, 39, 100
11, 18630, Note_on_c, 9, 39, 0
11, 18630, Note_on_c, 9, 35, 0
11, 18660, Note_on_c, 9, 59, 100
11, 18660, Note_on_c, 9, 42, 100
11, 18690, Note_on_c, 9, 42, 0
11, 18690, Note_on_c, 9, 59, 0
11, 18720, Note_on_c, 9, 35, 127
11, 18750, Note_on_c, 9, 35, 0
11, 18780, Note_on_c, 9, 59, 100
11, 18780, Note_on_c, 9, 42, 100
11, 18810, Note_on_c, 9, 42, 0
11, 18810, Note_on_c, 9, 59, 0
11, 18840, Note_on_c, 9, 35, 127
11, 18840, Note_on_c, 9, 39, 100
11, 18870, Note_on_c, 9, 39, 0
11, 18870, Note_on_c, 9, 35, 0
11, 18900, Note_on_c, 9, 42, 100
11, 18900, Note_on_c, 9, 59, 100
11, 18930, Note_on_c, 9, 59, 0
11, 18930, Note_on_c, 9, 42, 0
11, 18960, Note_on_c, 9, 35, 127
11, 18990, Note_on_c, 9, 35, 0
11, 19020, Note_on_c, 9, 42, 100
11, 19020, Note_on_c, 9, 59, 100
11, 19050, Note_on_c, 9, 59, 0
11, 19050, Note_on_c, 9, 42, 0
11, 19080, Note_on_c, 9, 35, 127
11, 19080, Note_on_c, 9, 39, 100
11, 19110, Note_on_c, 9, 39, 0
11, 19110, Note_on_c, 9, 35, 0
11, 19140, Note_on_c, 9, 59, 100
11, 19140, Note_on_c, 9, 42, 100
11, 19170, Note_on_c, 9, 42, 0
11, 19170, Note_on_c, 9, 59, 0
11, 19200, Note_on_c, 9, 35, 127
11, 19230, Note_on_c, 9, 35, 0
11, 19260, Note_on_c, 9, 59, 100
11, 19260, Note_on_c, 9, 42, 100
11, 19290, Note_on_c, 9, 42, 0
11, 19290, Note_on_c, 9, 59, 0
11, 19320, Note_on_c, 9, 35, 127
11, 19320, Note_on_c, 9, 39, 100
11, 19350, Note_on_c, 9, 39, 0
11, 19350, Note_on_c, 9, 35, 0
11, 19380, Note_on_c, 9, 42, 100
11, 19380, Note_on_c, 9, 59, 100
11, 19410, Note_on_c, 9, 59, 0
11, 19410, Note_on_c, 9, 42, 0
11, 19440, Note_on_c, 9, 35, 127
11, 19470, Note_on_c, 9, 35, 0
11, 19500, Note_on_c, 9, 42, 100
11, 19500, Note_on_c, 9, 59, 100
11, 19530, Note_on_c, 9, 59, 0
11, 19530, Note_on_c, 9, 42, 0
11, 19560, Note_on_c, 9, 39, 100
11, 19560, Note_on_c, 9, 35, 127
11, 19590, Note_on_c, 9, 35, 0
11, 19590, Note_on_c, 9, 39, 0
11, 19620, Note_on_c, 9, 59, 100
11, 19620, Note_on_c, 9, 42, 100
11, 19650, Note_on_c, 9, 42, 0
11, 19650, Note_on_c, 9, 59, 0
11, 19680, Note_on_c, 9, 35, 127
11, 19710, Note_on_c, 9, 35, 0
11, 19740, Note_on_c, 9, 59, 100
11, 19740, Note_on_c, 9, 42, 100
11, 19770, Note_on_c, 9, 42, 0
11, 19770, Note_on_c, 9, 59, 0
11, 19800, Note_on_c, 9, 35, 127
11, 19800, Note_on_c, 9, 39, 100
11, 19830, Note_on_c, 9, 39, 0
11, 19830, Note_on_c, 9, 35, 0
11, 19860, Note_on_c, 9, 42, 100
11, 19860, Note_on_c, 9, 59, 100
11, 19890, Note_on_c, 9, 59, 0
11, 19890, Note_on_c, 9, 42, 0
11, 19920, Note_on_c, 9, 35, 127
11, 19950, Note_on_c, 9, 35, 0
11, 19980, Note_on_c, 9, 42, 100
11, 19980, Note_on_c, 9, 59, 100
11, 20010, Note_on_c, 9, 59, 0
11, 20010, Note_on_c, 9, 42, 0
11, 20040, Note_on_c, 9, 35, 127
11, 20040, Note_on_c, 9, 39, 100
11, 20070, Note_on_c, 9, 39, 0
11, 20070, Note_on_c, 9, 35, 0
11, 20100, Note_on_c, 9, 42, 100
11, 20100, Note_on_c, 9, 59, 100
11, 20130, Note_on_c, 9, 59, 0
11, 20130, Note_on_c, 9, 42, 0
11, 20160, Note_on_c, 9, 40, 60
11, 20160, Note_on_c, 9, 35, 127
11, 20190, Note_on_c, 9, 35, 0
11, 20190, Note_on_c, 9, 40, 0
11, 20190, Note_on_c, 9, 40, 70
11, 20220, Note_on_c, 9, 40, 0
11, 20220, Note_on_c, 9, 59, 100
11, 20220, Note_on_c, 9, 40, 70
11, 20220, Note_on_c, 9, 42, 100
11, 20250, Note_on_c, 9, 42, 0
11, 20250, Note_on_c, 9, 40, 0
11, 20250, Note_on_c, 9, 59, 0
11, 20250, Note_on_c, 9, 40, 70
11, 20280, Note_on_c, 9, 40, 0
11, 20280, Note_on_c, 9, 40, 70
11, 20280, Note_on_c, 9, 35, 127
11, 20280, Note_on_c, 9, 39, 100
11, 20310, Note_on_c, 9, 39, 0
11, 20310, Note_on_c, 9, 35, 0
11, 20310, Note_on_c, 9, 40, 0
11, 20310, Note_on_c, 9, 40, 70
11, 20340, Note_on_c, 9, 40, 0
11, 20340, Note_on_c, 9, 59, 100
11, 20340, Note_on_c, 9, 40, 70
11, 20340, Note_on_c, 9, 42, 100
11, 20370, Note_on_c, 9, 42, 0
11, 20370, Note_on_c, 9, 40, 0
11, 20370, Note_on_c, 9, 59, 0
11, 20370, Note_on_c, 9, 40, 70
11, 20400, Note_on_c, 9, 40, 0
11, 20400, Note_on_c, 9, 40, 70
11, 20400, Note_on_c, 9, 35, 127
11, 20430, Note_on_c, 9, 35, 0
11, 20430, Note_on_c, 9, 40, 0
11, 20430, Note_on_c, 9, 40, 70
11, 20460, Note_on_c, 9, 40, 0
11, 20460, Note_on_c, 9, 59, 100
11, 20460, Note_on_c, 9, 40, 70
11, 20460, Note_on_c, 9, 42, 100
11, 20490, Note_on_c, 9, 42, 0
11, 20490, Note_on_c, 9, 40, 0
11, 20490, Note_on_c, 9, 59, 0
11, 20490, Note_on_c, 9, 40, 70
11, 20520, Note_on_c, 9, 40, 0
11, 20520, Note_on_c, 9, 40, 70
11, 20520, Note_on_c, 9, 35, 127
11, 20520, Note_on_c, 9, 39, 100
11, 20550, Note_on_c, 9, 39, 0
11, 20550, Note_on_c, 9, 35, 0
11, 20550, Note_on_c, 9, 40, 0
11, 20550, Note_on_c, 9, 40, 70
11, 20580, Note_on_c, 9, 40, 0
11, 20580, Note_on_c, 9, 59, 100
11, 20580, Note_on_c, 9, 40, 70
11, 20580, Note_on_c, 9, 42, 100
11, 20610, Note_on_c, 9, 42, 0
11, 20610, Note_on_c, 9, 40, 0
11, 20610, Note_on_c, 9, 59, 0
11, 20610, Note_on_c, 9, 40, 70
11, 20640, Note_on_c, 9, 40, 0
11, 20640, Note_on_c, 9, 40, 70
11, 20640, Note_on_c, 9, 35, 127
11, 20670, Note_on_c, 9, 35, 0
11, 20670, Note_on_c, 9, 40, 0
11, 20670, Note_on_c, 9, 40, 70
11, 20700, Note_on_c, 9, 40, 0
11, 20700, Note_on_c, 9, 59, 100
11, 20700, Note_on_c, 9, 40, 70
11, 20700, Note_on_c, 9, 42, 100
11, 20730, Note_on_c, 9, 42, 0
11, 20730, Note_on_c, 9, 40, 0
11, 20730, Note_on_c, 9, 59, 0
11, 20730, Note_on_c, 9, 40, 70
11, 20760, Note_on_c, 9, 40, 0
11, 20760, Note_on_c, 9, 40, 70
11, 20760, Note_on_c, 9, 35, 127
11, 20760, Note_on_c, 9, 39, 100
11, 20790, Note_on_c, 9, 39, 0
11, 20790, Note_on_c, 9, 35, 0
11, 20790, Note_on_c, 9, 40, 0
11, 20790, Note_on_c, 9, 40, 70
11, 20820, Note_on_c, 9, 40, 0
11, 20820, Note_on_c, 9, 59, 100
11, 20820, Note_on_c, 9, 40, 70
11, 20820, Note_on_c, 9, 42, 100
11, 20850, Note_on_c, 9, 42, 0
11, 20850, Note_on_c, 9, 40, 0
11, 20850, Note_on_c, 9, 59, 0
11, 20850, Note_on_c, 9, 40, 70
11, 20880, Note_on_c, 9, 40, 0
11, 20880, Note_on_c, 9, 40, 70
11, 20880, Note_on_c, 9, 35, 127
11, 20910, Note_on_c, 9, 35, 0
11, 20910, Note_on_c, 9, 40, 0
11, 20910, Note_on_c, 9, 40, 70
11, 20940, Note_on_c, 9, 40, 0
11, 20940, Note_on_c, 9, 40, 70
11, 20940, Note_on_c, 9, 42, 100
11, 20940, Note_on_c, 9, 59, 100
11, 20970, Note_on_c, 9, 59, 0
11, 20970, Note_on_c, 9, 42, 0
11, 20970, Note_on_c, 9, 40, 0
11, 20970, Note_on_c, 9, 40, 70
11, 21000, Note_on_c, 9, 40, 0
11, 21000, Note_on_c, 9, 40, 70
11, 21000, Note_on_c, 9, 35, 127
11, 21000, Note_on_c, 9, 39, 100
11, 21030, Note_on_c, 9, 39, 0
11, 21030, Note_on_c, 9, 35, 0
11, 21030, Note_on_c, 9, 40, 0
11, 21030, Note_on_c, 9, 40, 70
11, 21060, Note_on_c, 9, 40, 0
11, 21060, Note_on_c, 9, 40, 70
11, 21060, Note_on_c, 9, 42, 100
11, 21060, Note_on_c, 9, 59, 100
11, 21090, Note_on_c, 9, 59, 0
11, 21090, Note_on_c, 9, 42, 0
11, 21090, Note_on_c, 9, 40, 0
11, 21090, Note_on_c, 9, 40, 70
11, 21120, Note_on_c, 9, 40, 0
11, 21120, Note_on_c, 9, 40, 80
11, 21120, Note_on_c, 9, 35, 127
11, 21150, Note_on_c, 9, 35, 0
11, 21150, Note_on_c, 9, 40, 0
11, 21150, Note_on_c, 9, 40, 80
11, 21180, Note_on_c, 9, 40, 0
11, 21180, Note_on_c, 9, 40, 80
11, 21180, Note_on_c, 9, 42, 100
11, 21180, Note_on_c, 9, 59, 100
11, 21210, Note_on_c, 9, 59, 0
11, 21210, Note_on_c, 9, 42, 0
11, 21210, Note_on_c, 9, 40, 0
11, 21210, Note_on_c, 9, 40, 80
11, 21240, Note_on_c, 9, 40, 0
11, 21240, Note_on_c, 9, 40, 80
11, 21240, Note_on_c, 9, 35, 127
11, 21240, Note_on_c, 9, 39, 100
11, 21270, Note_on_c, 9, 39, 0
11, 21270, Note_on_c, 9, 35, 0
11, 21270, Note_on_c, 9, 40, 0
11, 21270, Note_on_c, 9, 40, 80
11, 21300, Note_on_c, 9, 40, 0
11, 21300, Note_on_c, 9, 40, 80
11, 21300, Note_on_c, 9, 42, 100
11, 21300, Note_on_c, 9, 59, 100
11, 21330, Note_on_c, 9, 59, 0
11, 21330, Note_on_c, 9, 42, 0
11, 21330, Note_on_c, 9, 40, 0
11, 21330, Note_on_c, 9, 40, 80
11, 21360, Note_on_c, 9, 40, 0
11, 21360, Note_on_c, 9, 40, 80
11, 21360, Note_on_c, 9, 35, 127
11, 21390, Note_on_c, 9, 35, 0
11, 21390, Note_on_c, 9, 40, 0
11, 21390, Note_on_c, 9, 40, 80
11, 21420, Note_on_c, 9, 40, 0
11, 21420, Note_on_c, 9, 40, 80
11, 21420, Note_on_c, 9, 42, 100
11, 21420, Note_on_c, 9, 59, 100
11, 21450, Note_on_c, 9, 59, 0
11, 21450, Note_on_c, 9, 42, 0
11, 21450, Note_on_c, 9, 40, 0
11, 21450, Note_on_c, 9, 40, 80
11, 21480, Note_on_c, 9, 40, 0
11, 21480, Note_on_c, 9, 40, 80
11, 21480, Note_on_c, 9, 35, 127
11, 21480, Note_on_c, 9, 39, 100
11, 21510, Note_on_c, 9, 39, 0
11, 21510, Note_on_c, 9, 35, 0
11, 21510, Note_on_c, 9, 40, 0
11, 21510, Note_on_c, 9, 40, 80
11, 21540, Note_on_c, 9, 40, 0
11, 21540, Note_on_c, 9, 40, 80
11, 21540, Note_on_c, 9, 42, 100
11, 21540, Note_on_c, 9, 59, 100
11, 21570, Note_on_c, 9, 59, 0
11, 21570, Note_on_c, 9, 42, 0
11, 21570, Note_on_c, 9, 40, 0
11, 21570, Note_on_c, 9, 40, 80
11, 21600, Note_on_c, 9, 40, 0
11, 21600, Note_on_c, 9, 40, 90
11, 21600, Note_on_c, 9, 35, 127
11, 21600, Note_on_c, 9, 57, 100
11, 21630, Note_on_c, 9, 57, 0
11, 21630, Note_on_c, 9, 35, 0
11, 21630, Note_on_c, 9, 40, 0
11, 21630, Note_on_c, 9, 40, 100
11, 21630, Note_on_c, 9, 40, 90
11, 21660, Note_on_c, 9, 40, 0
11, 21660, Note_on_c, 9, 40, 0
11, 21660, Note_on_c, 9, 40, 100
11, 21660, Note_on_c, 9, 40, 90
11, 21660, Note_on_c, 9, 42, 100
11, 21660, Note_on_c, 9, 59, 100
11, 21690, Note_on_c, 9, 59, 0
11, 21690, Note_on_c, 9, 40, 0
11, 21690, Note_on_c, 9, 40, 0
11, 21690, Note_on_c, 9, 42, 0
11, 21690, Note_on_c, 9, 40, 100
11, 21690, Note_on_c, 9, 40, 90
11, 21720, Note_on_c, 9, 40, 0
11, 21720, Note_on_c, 9, 40, 0
11, 21720, Note_on_c, 9, 40, 90
11, 21720, Note_on_c, 9, 40, 90
11, 21720, Note_on_c, 9, 35, 127
11, 21750, Note_on_c, 9, 35, 0
11, 21750, Note_on_c, 9, 40, 0
11, 21750, Note_on_c, 9, 40, 0
11, 21750, Note_on_c, 9, 40, 90
11, 21750, Note_on_c, 9, 49, 100
11, 21750, Note_on_c, 9, 40, 90
11, 21780, Note_on_c, 9, 40, 0
11, 21780, Note_on_c, 9, 49, 0
11, 21780, Note_on_c, 9, 40, 0
11, 21780, Note_on_c, 9, 40, 90
11, 21780, Note_on_c, 9, 40, 90
11, 21780, Note_on_c, 9, 42, 100
11, 21780, Note_on_c, 9, 59, 100
11, 21810, Note_on_c, 9, 59, 0
11, 21810, Note_on_c, 9, 40, 0
11, 21810, Note_on_c, 9, 40, 0
11, 21810, Note_on_c, 9, 42, 0
11, 21810, Note_on_c, 9, 40, 90
11, 21810, Note_on_c, 9, 40, 90
11, 21840, Note_on_c, 9, 40, 0
11, 21840, Note_on_c, 9, 40, 0
11, 21840, Note_on_c, 9, 40, 90
11, 21840, Note_on_c, 9, 40, 90
11, 21840, Note_on_c, 9, 35, 127
11, 21840, Note_on_c, 9, 57, 100
11, 21870, Note_on_c, 9, 57, 0
11, 21870, Note_on_c, 9, 40, 0
11, 21870, Note_on_c, 9, 40, 0
11, 21870, Note_on_c, 9, 35, 0
11, 21870, Note_on_c, 9, 40, 90
11, 21870, Note_on_c, 9, 40, 90
11, 21900, Note_on_c, 9, 40, 0
11, 21900, Note_on_c, 9, 40, 0
11, 21900, Note_on_c, 9, 40, 90
11, 21900, Note_on_c, 9, 40, 90
11, 21900, Note_on_c, 9, 42, 100
11, 21900, Note_on_c, 9, 59, 100
11, 21930, Note_on_c, 9, 59, 0
11, 21930, Note_on_c, 9, 40, 0
11, 21930, Note_on_c, 9, 40, 0
11, 21930, Note_on_c, 9, 42, 0
11, 21930, Note_on_c, 9, 40, 90
11, 21930, Note_on_c, 9, 40, 90
11, 21960, Note_on_c, 9, 40, 0
11, 21960, Note_on_c, 9, 40, 0
11, 21960, Note_on_c, 9, 40, 90
11, 21960, Note_on_c, 9, 49, 100
11, 21960, Note_on_c, 9, 40, 90
11, 21960, Note_on_c, 9, 35, 127
11, 21990, Note_on_c, 9, 35, 0
11, 21990, Note_on_c, 9, 40, 0
11, 21990, Note_on_c, 9, 49, 0
11, 21990, Note_on_c, 9, 40, 0
11, 21990, Note_on_c, 9, 40, 90
11, 21990, Note_on_c, 9, 40, 90
11, 22020, Note_on_c, 9, 40, 0
11, 22020, Note_on_c, 9, 40, 0
11, 22020, Note_on_c, 9, 40, 90
11, 22020, Note_on_c, 9, 40, 90
11, 22020, Note_on_c, 9, 59, 100
11, 22050, Note_on_c, 9, 59, 0
11, 22050, Note_on_c, 9, 40, 0
11, 22050, Note_on_c, 9, 40, 0
11, 22050, Note_on_c, 9, 40, 90
11, 22050, Note_on_c, 9, 40, 90
11, 22080, Note_on_c, 9, 40, 0
11, 22080, Note_on_c, 9, 40, 0
11, 22080, Note_on_c, 9, 49, 100
11, 22080, Note_on_c, 9, 40, 90
11, 22080, Note_on_c, 9, 57, 100
11, 22080, Note_on_c, 9, 43, 100
11, 22110, Note_on_c, 9, 43, 0
11, 22110, Note_on_c, 9, 49, 0
11, 22110, Note_on_c, 9, 40, 0
11, 22110, Note_on_c, 9, 57, 0
11, 24000, Note_on_c, 9, 35, 127
11, 24000, Note_on_c, 9, 43, 100
11, 24000, Note_on_c, 9, 36, 100
11, 24030, Note_on_c, 9, 36, 0
11, 24030, Note_on_c, 9, 43, 0
11, 24030, Note_on_c, 9, 35, 0
11, 24480, Note_on_c, 9, 36, 100
11, 24480, Note_on_c, 9, 35, 127
11, 24480, Note_on_c, 9, 43, 100
11, 24510, Note_on_c, 9, 43, 0
11, 24510, Note_on_c, 9, 35, 0
11, 24510, Note_on_c, 9, 36, 0
11, 24720, Note_on_c, 9, 36, 100
11, 24720, Note_on_c, 9, 43, 100
11, 24720, Note_on_c, 9, 35, 127
11, 24750, Note_on_c, 9, 35, 0
11, 24750, Note_on_c, 9, 43, 0
11, 24750, Note_on_c, 9, 36, 0
11, 24840, Note_on_c, 9, 36, 100
11, 24840, Note_on_c, 9, 35, 127
11, 24840, Note_on_c, 9, 43, 100
11, 24870, Note_on_c, 9, 43, 0
11, 24870, Note_on_c, 9, 35, 0
11, 24870, Note_on_c, 9, 36, 0
11, 24960, Note_on_c, 9, 36, 100
11, 24960, Note_on_c, 9, 35, 127
11, 24960, Note_on_c, 9, 43, 100
11, 24990, Note_on_c, 9, 43, 0
11, 24990, Note_on_c, 9, 35, 0
11, 24990, Note_on_c, 9, 36, 0
11, 25920, Note_on_c, 9, 36, 100
11, 25920, Note_on_c, 9, 35, 127
11, 25920, Note_on_c, 9, 43, 100
11, 25920, Note_on_c, 9, 35, 127
11, 25920, Note_on_c, 9, 43, 100
11, 25920, Note_on_c, 9, 36, 100
11, 25935, Note_on_c, 9, 43, 0
11, 25935, Note_on_c, 9, 36, 0
11, 25935, Note_on_c, 9, 35, 0
11, 25950, Note_on_c, 9, 35, 0
11, 25950, Note_on_c, 9, 43, 0
11, 25950, Note_on_c, 9, 36, 0
11, 29640, Note_on_c, 9, 49, 100
11, 29640, Note_on_c, 9, 43, 100
11, 29640, Note_on_c, 9, 35, 127
11, 29640, Note_on_c, 9, 36, 100
11, 29655, Note_on_c, 9, 36, 0
11, 29655, Note_on_c, 9, 49, 0
11, 29655, Note_on_c, 9, 43, 0
11, 29655, Note_on_c, 9, 35, 0
11, 29760, Note_on_c, 9, 35, 127
11, 29760, Note_on_c, 9, 43, 100
11, 29760, Note_on_c, 9, 36, 100
11, 29760, Note_on_c, 9, 52, 100
11, 29775, Note_on_c, 9, 52, 0
11, 29775, Note_on_c, 9, 35, 0
11, 29775, Note_on_c, 9, 43, 0
11, 29775, Note_on_c, 9, 36, 0
11, 31680, Note_on_c, 9, 41, 100
11, 31680, Note_on_c, 9, 35, 127
11, 31680, Note_on_c, 9, 36, 100
11, 31680, Note_on_c, 9, 49, 100
11, 31695, Note_on_c, 9, 49, 0
11, 31695, Note_on_c, 9, 41, 0
11, 31695, Note_on_c, 9, 35, 0
11, 31695, Note_on_c, 9, 36, 0
11, 33480, Note_on_c, 9, 49, 100
11, 33480, Note_on_c, 9, 41, 100
11, 33480, Note_on_c, 9, 35, 127
11, 33495, Note_on_c, 9, 35, 0
11, 33600, Note_on_c, 9, 41, 0
11, 33600, Note_on_c, 9, 49, 0
11, 33600, Note_on_c, 9, 49, 100
11, 33600, Note_on_c, 9, 41, 100
11, 33600, Note_on_c, 9, 35, 127
11, 33615, Note_on_c, 9, 35, 0
11, 33615, Note_on_c, 9, 41, 0
11, 33720, Note_on_c, 9, 49, 0
11, 35520, Note_on_c, 9, 40, 30
11, 35535, Note_on_c, 9, 40, 0
11, 35550, Note_on_c, 9, 40, 30
11, 35565, Note_on_c, 9, 40, 0
11, 35580, Note_on_c, 9, 40, 30
11, 35595, Note_on_c, 9, 40, 0
11, 35610, Note_on_c, 9, 40, 30
11, 35625, Note_on_c, 9, 40, 0
11, 35640, Note_on_c, 9, 40, 30
11, 35655, Note_on_c, 9, 40, 0
11, 35670, Note_on_c, 9, 40, 30
11, 35685, Note_on_c, 9, 40, 0
11, 35700, Note_on_c, 9, 40, 30
11, 35715, Note_on_c, 9, 40, 0
11, 35730, Note_on_c, 9, 40, 30
11, 35745, Note_on_c, 9, 40, 0
11, 35760, Note_on_c, 9, 40, 30
11, 35775, Note_on_c, 9, 40, 0
11, 35790, Note_on_c, 9, 40, 30
11, 35805, Note_on_c, 9, 40, 0
11, 35820, Note_on_c, 9, 40, 30
11, 35835, Note_on_c, 9, 40, 0
11, 35850, Note_on_c, 9, 40, 30
11, 35865, Note_on_c, 9, 40, 0
11, 35880, Note_on_c, 9, 40, 30
11, 35895, Note_on_c, 9, 40, 0
11, 35910, Note_on_c, 9, 40, 30
11, 35925, Note_on_c, 9, 40, 0
11, 35940, Note_on_c, 9, 40, 30
11, 35955, Note_on_c, 9, 40, 0
11, 35970, Note_on_c, 9, 40, 30
11, 35985, Note_on_c, 9, 40, 0
11, 36000, Note_on_c, 9, 40, 40
11, 36015, Note_on_c, 9, 40, 0
11, 36030, Note_on_c, 9, 40, 40
11, 36045, Note_on_c, 9, 40, 0
11, 36060, Note_on_c, 9, 40, 40
11, 36075, Note_on_c, 9, 40, 0
11, 36090, Note_on_c, 9, 40, 40
11, 36105, Note_on_c, 9, 40, 0
11, 36120, Note_on_c, 9, 40, 40
11, 36135, Note_on_c, 9, 40, 0
11, 36150, Note_on_c, 9, 40, 40
11, 36165, Note_on_c, 9, 40, 0
11, 36180, Note_on_c, 9, 40, 40
11, 36195, Note_on_c, 9, 40, 0
11, 36210, Note_on_c, 9, 40, 40
11, 36225, Note_on_c, 9, 40, 0
11, 36240, Note_on_c, 9, 40, 40
11, 36255, Note_on_c, 9, 40, 0
11, 36270, Note_on_c, 9, 40, 40
11, 36285, Note_on_c, 9, 40, 0
11, 36300, Note_on_c, 9, 40, 40
11, 36315, Note_on_c, 9, 40, 0
11, 36330, Note_on_c, 9, 40, 40
11, 36345, Note_on_c, 9, 40, 0
11, 36360, Note_on_c, 9, 40, 40
11, 36375, Note_on_c, 9, 40, 0
11, 36390, Note_on_c, 9, 40, 40
11, 36405, Note_on_c, 9, 40, 0
11, 36420, Note_on_c, 9, 40, 40
11, 36435, Note_on_c, 9, 40, 0
11, 36450, Note_on_c, 9, 40, 40
11, 36465, Note_on_c, 9, 40, 0
11, 36480, Note_on_c, 9, 40, 50
11, 36495, Note_on_c, 9, 40, 0
11, 36510, Note_on_c, 9, 40, 40
11, 36525, Note_on_c, 9, 40, 0
11, 36540, Note_on_c, 9, 40, 40
11, 36555, Note_on_c, 9, 40, 0
11, 36570, Note_on_c, 9, 40, 40
11, 36585, Note_on_c, 9, 40, 0
11, 36600, Note_on_c, 9, 40, 40
11, 36615, Note_on_c, 9, 40, 0
11, 36630, Note_on_c, 9, 40, 40
11, 36645, Note_on_c, 9, 40, 0
11, 36660, Note_on_c, 9, 40, 40
11, 36675, Note_on_c, 9, 40, 0
11, 36690, Note_on_c, 9, 40, 40
11, 36705, Note_on_c, 9, 40, 0
11, 36720, Note_on_c, 9, 40, 40
11, 36735, Note_on_c, 9, 40, 0
11, 36750, Note_on_c, 9, 40, 40
11, 36765, Note_on_c, 9, 40, 0
11, 36780, Note_on_c, 9, 40, 40
11, 36795, Note_on_c, 9, 40, 0
11, 36810, Note_on_c, 9, 40, 40
11, 36825, Note_on_c, 9, 40, 0
11, 36840, Note_on_c, 9, 40, 40
11, 36855, Note_on_c, 9, 40, 0
11, 36870, Note_on_c, 9, 40, 40
11, 36885, Note_on_c, 9, 40, 0
11, 36900, Note_on_c, 9, 40, 40
11, 36915, Note_on_c, 9, 40, 0
11, 36930, Note_on_c, 9, 40, 40
11, 36945, Note_on_c, 9, 40, 0
11, 36960, Note_on_c, 9, 40, 50
11, 36990, Note_on_c, 9, 40, 50
11, 37020, Note_on_c, 9, 40, 50
11, 37025, Note_on_c, 9, 40, 0
11, 37050, Note_on_c, 9, 40, 50
11, 37055, Note_on_c, 9, 40, 0
11, 37080, Note_on_c, 9, 40, 50
11, 37085, Note_on_c, 9, 40, 0
11, 37110, Note_on_c, 9, 40, 50
11, 37115, Note_on_c, 9, 40, 0
11, 37140, Note_on_c, 9, 40, 50
11, 37145, Note_on_c, 9, 40, 0
11, 37170, Note_on_c, 9, 40, 50
11, 37175, Note_on_c, 9, 40, 0
11, 37200, Note_on_c, 9, 40, 50
11, 37205, Note_on_c, 9, 40, 0
11, 37230, Note_on_c, 9, 40, 50
11, 37235, Note_on_c, 9, 40, 0
11, 37260, Note_on_c, 9, 40, 50
11, 37265, Note_on_c, 9, 40, 0
11, 37290, Note_on_c, 9, 40, 50
11, 37295, Note_on_c, 9, 40, 0
11, 37320, Note_on_c, 9, 40, 50
11, 37325, Note_on_c, 9, 40, 0
11, 37350, Note_on_c, 9, 40, 50
11, 37355, Note_on_c, 9, 40, 0
11, 37380, Note_on_c, 9, 40, 50
11, 37385, Note_on_c, 9, 40, 0
11, 37410, Note_on_c, 9, 40, 50
11, 37415, Note_on_c, 9, 40, 0
11, 37440, Note_on_c, 9, 40, 60
11, 37445, Note_on_c, 9, 40, 0
11, 37455, Note_on_c, 9, 40, 0
11, 37470, Note_on_c, 9, 40, 70
11, 37475, Note_on_c, 9, 40, 0
11, 37485, Note_on_c, 9, 40, 0
11, 37500, Note_on_c, 9, 40, 70
11, 37515, Note_on_c, 9, 40, 0
11, 37530, Note_on_c, 9, 40, 70
11, 37545, Note_on_c, 9, 40, 0
11, 37560, Note_on_c, 9, 40, 70
11, 37575, Note_on_c, 9, 40, 0
11, 37590, Note_on_c, 9, 40, 70
11, 37605, Note_on_c, 9, 40, 0
11, 37620, Note_on_c, 9, 40, 70
11, 37635, Note_on_c, 9, 40, 0
11, 37650, Note_on_c, 9, 40, 70
11, 37665, Note_on_c, 9, 40, 0
11, 37680, Note_on_c, 9, 40, 70
11, 37695, Note_on_c, 9, 40, 0
11, 37710, Note_on_c, 9, 40, 70
11, 37725, Note_on_c, 9, 40, 0
11, 37740, Note_on_c, 9, 40, 70
11, 37755, Note_on_c, 9, 40, 0
11, 37770, Note_on_c, 9, 40, 70
11, 37785, Note_on_c, 9, 40, 0
11, 37800, Note_on_c, 9, 40, 70
11, 37815, Note_on_c, 9, 40, 0
11, 37830, Note_on_c, 9, 40, 70
11, 37845, Note_on_c, 9, 40, 0
11, 37860, Note_on_c, 9, 40, 70
11, 37875, Note_on_c, 9, 40, 0
11, 37890, Note_on_c, 9, 40, 70
11, 37905, Note_on_c, 9, 40, 0
11, 37920, Note_on_c, 9, 40, 70
11, 37935, Note_on_c, 9, 40, 0
11, 37950, Note_on_c, 9, 40, 70
11, 37965, Note_on_c, 9, 40, 0
11, 37980, Note_on_c, 9, 40, 70
11, 37995, Note_on_c, 9, 40, 0
11, 38010, Note_on_c, 9, 40, 70
11, 38025, Note_on_c, 9, 40, 0
11, 38040, Note_on_c, 9, 40, 70
11, 38055, Note_on_c, 9, 40, 0
11, 38070, Note_on_c, 9, 40, 70
11, 38085, Note_on_c, 9, 40, 0
11, 38100, Note_on_c, 9, 40, 70
11, 38115, Note_on_c, 9, 40, 0
11, 38130, Note_on_c, 9, 40, 70
11, 38145, Note_on_c, 9, 40, 0
11, 38160, Note_on_c, 9, 40, 70
11, 38175, Note_on_c, 9, 40, 0
11, 38190, Note_on_c, 9, 40, 70
11, 38205, Note_on_c, 9, 40, 0
11, 38220, Note_on_c, 9, 40, 70
11, 38235, Note_on_c, 9, 40, 0
11, 38250, Note_on_c, 9, 40, 70
11, 38265, Note_on_c, 9, 40, 0
11, 38280, Note_on_c, 9, 40, 70
11, 38295, Note_on_c, 9, 40, 0
11, 38310, Note_on_c, 9, 40, 70
11, 38325, Note_on_c, 9, 40, 0
11, 38340, Note_on_c, 9, 40, 70
11, 38355, Note_on_c, 9, 40, 0
11, 38370, Note_on_c, 9, 40, 70
11, 38385, Note_on_c, 9, 40, 0
11, 38400, Note_on_c, 9, 40, 80
11, 38415, Note_on_c, 9, 40, 0
11, 38430, Note_on_c, 9, 40, 80
11, 38445, Note_on_c, 9, 40, 0
11, 38460, Note_on_c, 9, 40, 80
11, 38475, Note_on_c, 9, 40, 0
11, 38490, Note_on_c, 9, 40, 80
11, 38505, Note_on_c, 9, 40, 0
11, 38520, Note_on_c, 9, 40, 80
11, 38535, Note_on_c, 9, 40, 0
11, 38550, Note_on_c, 9, 40, 80
11, 38565, Note_on_c, 9, 40, 0
11, 38580, Note_on_c, 9, 40, 80
11, 38595, Note_on_c, 9, 40, 0
11, 38610, Note_on_c, 9, 40, 80
11, 38625, Note_on_c, 9, 40, 0
11, 38640, Note_on_c, 9, 40, 80
11, 38655, Note_on_c, 9, 40, 0
11, 38670, Note_on_c, 9, 40, 80
11, 38685, Note_on_c, 9, 40, 0
11, 38700, Note_on_c, 9, 40, 80
11, 38715, Note_on_c, 9, 40, 0
11, 38730, Note_on_c, 9, 40, 80
11, 38745, Note_on_c, 9, 40, 0
11, 38760, Note_on_c, 9, 40, 80
11, 38775, Note_on_c, 9, 40, 0
11, 38790, Note_on_c, 9, 40, 80
11, 38805, Note_on_c, 9, 40, 0
11, 38820, Note_on_c, 9, 40, 80
11, 38835, Note_on_c, 9, 40, 0
11, 38850, Note_on_c, 9, 40, 80
11, 38865, Note_on_c, 9, 40, 0
11, 38880, Note_on_c, 9, 57, 100
11, 38880, Note_on_c, 9, 40, 90
11, 38880, Note_on_c, 9, 63, 100
11, 38895, Note_on_c, 9, 63, 0
11, 38895, Note_on_c, 9, 40, 0
11, 38895, Note_on_c, 9, 57, 0
11, 38910, Note_on_c, 9, 40, 90
11, 38925, Note_on_c, 9, 40, 0
11, 38940, Note_on_c, 9, 40, 90
11, 38955, Note_on_c, 9, 40, 0
11, 38970, Note_on_c, 9, 40, 90
11, 38970, Note_on_c, 9, 63, 100
11, 38985, Note_on_c, 9, 63, 0
11, 38985, Note_on_c, 9, 40, 0
11, 39000, Note_on_c, 9, 40, 90
11, 39000, Note_on_c, 9, 63, 100
11, 39000, Note_on_c, 9, 49, 100
11, 39015, Note_on_c, 9, 49, 0
11, 39015, Note_on_c, 9, 63, 0
11, 39015, Note_on_c, 9, 40, 0
11, 39030, Note_on_c, 9, 40, 90
11, 39045, Note_on_c, 9, 40, 0
11, 39060, Note_on_c, 9, 40, 90
11, 39060, Note_on_c, 9, 63, 100
11, 39075, Note_on_c, 9, 63, 0
11, 39075, Note_on_c, 9, 40, 0
11, 39090, Note_on_c, 9, 40, 90
11, 39105, Note_on_c, 9, 40, 0
11, 39120, Note_on_c, 9, 63, 100
11, 39120, Note_on_c, 9, 40, 90
11, 39120, Note_on_c, 9, 57, 100
11, 39135, Note_on_c, 9, 57, 0
11, 39135, Note_on_c, 9, 40, 0
11, 39135, Note_on_c, 9, 63, 0
11, 39135, Note_on_c, 9, 40, 90
11, 39150, Note_on_c, 9, 40, 0
11, 39150, Note_on_c, 9, 40, 90
11, 39165, Note_on_c, 9, 40, 0
11, 39165, Note_on_c, 9, 40, 90
11, 39180, Note_on_c, 9, 40, 0
11, 39180, Note_on_c, 9, 40, 90
11, 39195, Note_on_c, 9, 40, 0
11, 39195, Note_on_c, 9, 40, 90
11, 39210, Note_on_c, 9, 40, 0
11, 39210, Note_on_c, 9, 40, 90
11, 39210, Note_on_c, 9, 63, 100
11, 39225, Note_on_c, 9, 63, 0
11, 39225, Note_on_c, 9, 40, 0
11, 39225, Note_on_c, 9, 40, 90
11, 39240, Note_on_c, 9, 40, 0
11, 39240, Note_on_c, 9, 49, 100
11, 39240, Note_on_c, 9, 40, 90
11, 39240, Note_on_c, 9, 63, 100
11, 39255, Note_on_c, 9, 63, 0
11, 39255, Note_on_c, 9, 40, 0
11, 39255, Note_on_c, 9, 49, 0
11, 39255, Note_on_c, 9, 40, 90
11, 39270, Note_on_c, 9, 40, 0
11, 39270, Note_on_c, 9, 40, 90
11, 39285, Note_on_c, 9, 40, 0
11, 39285, Note_on_c, 9, 40, 90
11, 39300, Note_on_c, 9, 40, 0
11, 39300, Note_on_c, 9, 40, 90
11, 39300, Note_on_c, 9, 63, 100
11, 39315, Note_on_c, 9, 63, 0
11, 39315, Note_on_c, 9, 40, 0
11, 39315, Note_on_c, 9, 40, 90
11, 39330, Note_on_c, 9, 40, 0
11, 39330, Note_on_c, 9, 40, 90
11, 39345, Note_on_c, 9, 40, 0
11, 39345, Note_on_c, 9, 40, 90
11, 39360, Note_on_c, 9, 40, 0
11, 39360, Note_on_c, 9, 57, 100
11, 39360, Note_on_c, 9, 35, 127
11, 39375, Note_on_c, 9, 35, 0
11, 39375, Note_on_c, 9, 57, 0
11, 39420, Note_on_c, 9, 42, 100
11, 39420, Note_on_c, 9, 59, 100
11, 39435, Note_on_c, 9, 59, 0
11, 39435, Note_on_c, 9, 42, 0
11, 39480, Note_on_c, 9, 35, 127
11, 39480, Note_on_c, 9, 39, 100
11, 39495, Note_on_c, 9, 39, 0
11, 39495, Note_on_c, 9, 35, 0
11, 39540, Note_on_c, 9, 42, 100
11, 39540, Note_on_c, 9, 59, 100
11, 39555, Note_on_c, 9, 59, 0
11, 39555, Note_on_c, 9, 42, 0
11, 39600, Note_on_c, 9, 35, 127
11, 39615, Note_on_c, 9, 35, 0
11, 39660, Note_on_c, 9, 42, 100
11, 39660, Note_on_c, 9, 59, 100
11, 39675, Note_on_c, 9, 59, 0
11, 39675, Note_on_c, 9, 42, 0
11, 39720, Note_on_c, 9, 39, 100
11, 39720, Note_on_c, 9, 35, 127
11, 39735, Note_on_c, 9, 35, 0
11, 39735, Note_on_c, 9, 39, 0
11, 39780, Note_on_c, 9, 59, 100
11, 39780, Note_on_c, 9, 42, 100
11, 39795, Note_on_c, 9, 42, 0
11, 39795, Note_on_c, 9, 59, 0
11, 39840, Note_on_c, 9, 35, 127
11, 39855, Note_on_c, 9, 35, 0
11, 39900, Note_on_c, 9, 59, 100
11, 39900, Note_on_c, 9, 42, 100
11, 39915, Note_on_c, 9, 42, 0
11, 39915, Note_on_c, 9, 59, 0
11, 39960, Note_on_c, 9, 39, 100
11, 39960, Note_on_c, 9, 35, 127
11, 39975, Note_on_c, 9, 35, 0
11, 39975, Note_on_c, 9, 39, 0
11, 40020, Note_on_c, 9, 42, 100
11, 40020, Note_on_c, 9, 59, 100
11, 40035, Note_on_c, 9, 59, 0
11, 40035, Note_on_c, 9, 42, 0
11, 40080, Note_on_c, 9, 35, 127
11, 40095, Note_on_c, 9, 35, 0
11, 40140, Note_on_c, 9, 59, 100
11, 40140, Note_on_c, 9, 42, 100
11, 40155, Note_on_c, 9, 42, 0
11, 40155, Note_on_c, 9, 59, 0
11, 40200, Note_on_c, 9, 39, 100
11, 40200, Note_on_c, 9, 35, 127
11, 40215, Note_on_c, 9, 35, 0
11, 40215, Note_on_c, 9, 39, 0
11, 40260, Note_on_c, 9, 42, 100
11, 40260, Note_on_c, 9, 59, 100
11, 40275, Note_on_c, 9, 59, 0
11, 40275, Note_on_c, 9, 42, 0
11, 40320, Note_on_c, 9, 35, 127
11, 40335, Note_on_c, 9, 35, 0
11, 40380, Note_on_c, 9, 59, 100
11, 40380, Note_on_c, 9, 42, 100
11, 40395, Note_on_c, 9, 42, 0
11, 40395, Note_on_c, 9, 59, 0
11, 40440, Note_on_c, 9, 35, 127
11, 40440, Note_on_c, 9, 39, 100
11, 40455, Note_on_c, 9, 39, 0
11, 40455, Note_on_c, 9, 35, 0
11, 40500, Note_on_c, 9, 42, 100
11, 40500, Note_on_c, 9, 59, 100
11, 40515, Note_on_c, 9, 59, 0
11, 40515, Note_on_c, 9, 42, 0
11, 40560, Note_on_c, 9, 35, 127
11, 40575, Note_on_c, 9, 35, 0
11, 40620, Note_on_c, 9, 42, 100
11, 40620, Note_on_c, 9, 59, 100
11, 40635, Note_on_c, 9, 59, 0
11, 40635, Note_on_c, 9, 42, 0
11, 40680, Note_on_c, 9, 39, 100
11, 40680, Note_on_c, 9, 35, 127
11, 40695, Note_on_c, 9, 35, 0
11, 40695, Note_on_c, 9, 39, 0
11, 40740, Note_on_c, 9, 59, 100
11, 40740, Note_on_c, 9, 42, 100
11, 40755, Note_on_c, 9, 42, 0
11, 40755, Note_on_c, 9, 59, 0
11, 40800, Note_on_c, 9, 63, 100
11, 40800, Note_on_c, 9, 35, 127
11, 40815, Note_on_c, 9, 35, 0
11, 40815, Note_on_c, 9, 63, 0
11, 40860, Note_on_c, 9, 59, 100
11, 40860, Note_on_c, 9, 42, 100
11, 40875, Note_on_c, 9, 42, 0
11, 40875, Note_on_c, 9, 59, 0
11, 40890, Note_on_c, 9, 63, 100
11, 40905, Note_on_c, 9, 63, 0
11, 40920, Note_on_c, 9, 63, 100
11, 40920, Note_on_c, 9, 39, 100
11, 40920, Note_on_c, 9, 35, 127
11, 40935, Note_on_c, 9, 35, 0
11, 40935, Note_on_c, 9, 39, 0
11, 40935, Note_on_c, 9, 63, 0
11, 40980, Note_on_c, 9, 63, 100
11, 40980, Note_on_c, 9, 59, 100
11, 40980, Note_on_c, 9, 42, 100
11, 40995, Note_on_c, 9, 42, 0
11, 40995, Note_on_c, 9, 59, 0
11, 40995, Note_on_c, 9, 63, 0
11, 41040, Note_on_c, 9, 35, 127
11, 41040, Note_on_c, 9, 63, 100
11, 41055, Note_on_c, 9, 63, 0
11, 41055, Note_on_c, 9, 35, 0
11, 41100, Note_on_c, 9, 42, 100
11, 41100, Note_on_c, 9, 59, 100
11, 41115, Note_on_c, 9, 59, 0
11, 41115, Note_on_c, 9, 42, 0
11, 41130, Note_on_c, 9, 63, 100
11, 41145, Note_on_c, 9, 63, 0
11, 41160, Note_on_c, 9, 63, 100
11, 41160, Note_on_c, 9, 35, 127
11, 41160, Note_on_c, 9, 39, 100
11, 41175, Note_on_c, 9, 39, 0
11, 41175, Note_on_c, 9, 35, 0
11, 41175, Note_on_c, 9, 63, 0
11, 41220, Note_on_c, 9, 63, 100
11, 41220, Note_on_c, 9, 59, 100
11, 41220, Note_on_c, 9, 42, 100
11, 41235, Note_on_c, 9, 42, 0
11, 41235, Note_on_c, 9, 59, 0
11, 41235, Note_on_c, 9, 63, 0
11, 41280, Note_on_c, 9, 35, 127
11, 41295, Note_on_c, 9, 35, 0
11, 41340, Note_on_c, 9, 42, 100
11, 41340, Note_on_c, 9, 59, 100
11, 41355, Note_on_c, 9, 59, 0
11, 41355, Note_on_c, 9, 42, 0
11, 41400, Note_on_c, 9, 39, 100
11, 41400, Note_on_c, 9, 35, 127
11, 41415, Note_on_c, 9, 35, 0
11, 41415, Note_on_c, 9, 39, 0
11, 41460, Note_on_c, 9, 59, 100
11, 41460, Note_on_c, 9, 42, 100
11, 41475, Note_on_c, 9, 42, 0
11, 41475, Note_on_c, 9, 59, 0
11, 41520, Note_on_c, 9, 35, 127
11, 41535, Note_on_c, 9, 35, 0
11, 41580, Note_on_c, 9, 59, 100
11, 41580, Note_on_c, 9, 42, 100
11, 41595, Note_on_c, 9, 42, 0
11, 41595, Note_on_c, 9, 59, 0
11, 41640, Note_on_c, 9, 35, 127
11, 41640, Note_on_c, 9, 39, 100
11, 41655, Note_on_c, 9, 39, 0
11, 41655, Note_on_c, 9, 35, 0
11, 41700, Note_on_c, 9, 42, 100
11, 41700, Note_on_c, 9, 59, 100
11, 41715, Note_on_c, 9, 59, 0
11, 41715, Note_on_c, 9, 42, 0
11, 41760, Note_on_c, 9, 35, 127
11, 41775, Note_on_c, 9, 35, 0
11, 41820, Note_on_c, 9, 42, 100
11, 41820, Note_on_c, 9, 59, 100
11, 41835, Note_on_c, 9, 59, 0
11, 41835, Note_on_c, 9, 42, 0
11, 41880, Note_on_c, 9, 35, 127
11, 41880, Note_on_c, 9, 39, 100
11, 41895, Note_on_c, 9, 39, 0
11, 41895, Note_on_c, 9, 35, 0
11, 41940, Note_on_c, 9, 59, 100
11, 41940, Note_on_c, 9, 42, 100
11, 41955, Note_on_c, 9, 42, 0
11, 41955, Note_on_c, 9, 59, 0
11, 42000, Note_on_c, 9, 35, 127
11, 42015, Note_on_c, 9, 35, 0
11, 42060, Note_on_c, 9, 42, 100
11, 42060, Note_on_c, 9, 59, 100
11, 42075, Note_on_c, 9, 59, 0
11, 42075, Note_on_c, 9, 42, 0
11, 42120, Note_on_c, 9, 35, 127
11, 42120, Note_on_c, 9, 39, 100
11, 42135, Note_on_c, 9, 39, 0
11, 42135, Note_on_c, 9, 35, 0
11, 42180, Note_on_c, 9, 59, 100
11, 42180, Note_on_c, 9, 42, 100
11, 42195, Note_on_c, 9, 42, 0
11, 42195, Note_on_c, 9, 59, 0
11, 42240, Note_on_c, 9, 35, 127
11, 42255, Note_on_c, 9, 35, 0
11, 42300, Note_on_c, 9, 59, 100
11, 42300, Note_on_c, 9, 42, 100
11, 42315, Note_on_c, 9, 42, 0
11, 42315, Note_on_c, 9, 59, 0
11, 42360, Note_on_c, 9, 35, 127
11, 42360, Note_on_c, 9, 39, 100
11, 42375, Note_on_c, 9, 39, 0
11, 42375, Note_on_c, 9, 35, 0
11, 42420, Note_on_c, 9, 59, 100
11, 42420, Note_on_c, 9, 42, 100
11, 42435, Note_on_c, 9, 42, 0
11, 42435, Note_on_c, 9, 59, 0
11, 42480, Note_on_c, 9, 35, 127
11, 42495, Note_on_c, 9, 35, 0
11, 42540, Note_on_c, 9, 42, 100
11, 42540, Note_on_c, 9, 59, 100
11, 42555, Note_on_c, 9, 59, 0
11, 42555, Note_on_c, 9, 42, 0
11, 42600, Note_on_c, 9, 39, 100
11, 42600, Note_on_c, 9, 35, 127
11, 42615, Note_on_c, 9, 35, 0
11, 42615, Note_on_c, 9, 39, 0
11, 42660, Note_on_c, 9, 42, 100
11, 42660, Note_on_c, 9, 59, 100
11, 42675, Note_on_c, 9, 59, 0
11, 42675, Note_on_c, 9, 42, 0
11, 42720, Note_on_c, 9, 63, 100
11, 42720, Note_on_c, 9, 35, 127
11, 42735, Note_on_c, 9, 35, 0
11, 42735, Note_on_c, 9, 63, 0
11, 42780, Note_on_c, 9, 42, 100
11, 42780, Note_on_c, 9, 59, 100
11, 42795, Note_on_c, 9, 59, 0
11, 42795, Note_on_c, 9, 42, 0
11, 42810, Note_on_c, 9, 63, 100
11, 42825, Note_on_c, 9, 63, 0
11, 42840, Note_on_c, 9, 39, 100
11, 42840, Note_on_c, 9, 63, 100
11, 42840, Note_on_c, 9, 35, 127
11, 42855, Note_on_c, 9, 35, 0
11, 42855, Note_on_c, 9, 63, 0
11, 42855, Note_on_c, 9, 39, 0
11, 42900, Note_on_c, 9, 59, 100
11, 42900, Note_on_c, 9, 42, 100
11, 42900, Note_on_c, 9, 63, 100
11, 42915, Note_on_c, 9, 63, 0
11, 42915, Note_on_c, 9, 42, 0
11, 42915, Note_on_c, 9, 59, 0
11, 42960, Note_on_c, 9, 63, 100
11, 42960, Note_on_c, 9, 35, 127
11, 42975, Note_on_c, 9, 35, 0
11, 42975, Note_on_c, 9, 63, 0
11, 43020, Note_on_c, 9, 59, 100
11, 43020, Note_on_c, 9, 42, 100
11, 43035, Note_on_c, 9, 42, 0
11, 43035, Note_on_c, 9, 59, 0
11, 43050, Note_on_c, 9, 63, 100
11, 43065, Note_on_c, 9, 63, 0
11, 43080, Note_on_c, 9, 63, 100
11, 43080, Note_on_c, 9, 39, 100
11, 43080, Note_on_c, 9, 35, 127
11, 43095, Note_on_c, 9, 35, 0
11, 43095, Note_on_c, 9, 39, 0
11, 43095, Note_on_c, 9, 63, 0
11, 43140, Note_on_c, 9, 59, 100
11, 43140, Note_on_c, 9, 63, 100
11, 43140, Note_on_c, 9, 42, 100
11, 43155, Note_on_c, 9, 42, 0
11, 43155, Note_on_c, 9, 63, 0
11, 43155, Note_on_c, 9, 59, 0
11, 43200, Note_on_c, 9, 35, 127
11, 43200, Note_on_c, 9, 49, 100
11, 43215, Note_on_c, 9, 35, 0
11, 43260, Note_on_c, 9, 42, 100
11, 43260, Note_on_c, 9, 59, 100
11, 43275, Note_on_c, 9, 59, 0
11, 43275, Note_on_c, 9, 42, 0
11, 43320, Note_on_c, 9, 49, 0
11, 43320, Note_on_c, 9, 35, 127
11, 43320, Note_on_c, 9, 39, 100
11, 43335, Note_on_c, 9, 39, 0
11, 43335, Note_on_c, 9, 35, 0
11, 43380, Note_on_c, 9, 42, 100
11, 43380, Note_on_c, 9, 59, 100
11, 43395, Note_on_c, 9, 59, 0
11, 43395, Note_on_c, 9, 42, 0
11, 43440, Note_on_c, 9, 35, 127
11, 43455, Note_on_c, 9, 35, 0
11, 43500, Note_on_c, 9, 59, 100
11, 43500, Note_on_c, 9, 42, 100
11, 43515, Note_on_c, 9, 42, 0
11, 43515, Note_on_c, 9, 59, 0
11, 43560, Note_on_c, 9, 39, 100
11, 43560, Note_on_c, 9, 35, 127
11, 43575, Note_on_c, 9, 35, 0
11, 43575, Note_on_c, 9, 39, 0
11, 43620, Note_on_c, 9, 42, 100
11, 43620, Note_on_c, 9, 59, 100
11, 43635, Note_on_c, 9, 59, 0
11, 43635, Note_on_c, 9, 42, 0
11, 43680, Note_on_c, 9, 35, 127
11, 43695, Note_on_c, 9, 35, 0
11, 43740, Note_on_c, 9, 42, 100
11, 43740, Note_on_c, 9, 59, 100
11, 43755, Note_on_c, 9, 59, 0
11, 43755, Note_on_c, 9, 42, 0
11, 43800, Note_on_c, 9, 35, 127
11, 43800, Note_on_c, 9, 39, 100
11, 43815, Note_on_c, 9, 39, 0
11, 43815, Note_on_c, 9, 35, 0
11, 43860, Note_on_c, 9, 59, 100
11, 43860, Note_on_c, 9, 42, 100
11, 43875, Note_on_c, 9, 42, 0
11, 43875, Note_on_c, 9, 59, 0
11, 43920, Note_on_c, 9, 35, 127
11, 43935, Note_on_c, 9, 35, 0
11, 43980, Note_on_c, 9, 42, 100
11, 43980, Note_on_c, 9, 59, 100
11, 43995, Note_on_c, 9, 59, 0
11, 43995, Note_on_c, 9, 42, 0
11, 44040, Note_on_c, 9, 39, 100
11, 44040, Note_on_c, 9, 35, 127
11, 44055, Note_on_c, 9, 35, 0
11, 44055, Note_on_c, 9, 39, 0
11, 44100, Note_on_c, 9, 59, 100
11, 44100, Note_on_c, 9, 42, 100
11, 44115, Note_on_c, 9, 42, 0
11, 44115, Note_on_c, 9, 59, 0
11, 44160, Note_on_c, 9, 35, 127
11, 44175, Note_on_c, 9, 35, 0
11, 44220, Note_on_c, 9, 59, 100
11, 44220, Note_on_c, 9, 42, 100
11, 44235, Note_on_c, 9, 42, 0
11, 44235, Note_on_c, 9, 59, 0
11, 44280, Note_on_c, 9, 39, 100
11, 44280, Note_on_c, 9, 35, 127
11, 44295, Note_on_c, 9, 35, 0
11, 44295, Note_on_c, 9, 39, 0
11, 44340, Note_on_c, 9, 42, 100
11, 44340, Note_on_c, 9, 59, 100
11, 44355, Note_on_c, 9, 59, 0
11, 44355, Note_on_c, 9, 42, 0
11, 44400, Note_on_c, 9, 35, 127
11, 44415, Note_on_c, 9, 35, 0
11, 44460, Note_on_c, 9, 42, 100
11, 44460, Note_on_c, 9, 59, 100
11, 44475, Note_on_c, 9, 59, 0
11, 44475, Note_on_c, 9, 42, 0
11, 44520, Note_on_c, 9, 39, 100
11, 44520, Note_on_c, 9, 35, 127
11, 44535, Note_on_c, 9, 35, 0
11, 44535, Note_on_c, 9, 39, 0
11, 44580, Note_on_c, 9, 59, 100
11, 44580, Note_on_c, 9, 42, 100
11, 44595, Note_on_c, 9, 42, 0
11, 44595, Note_on_c, 9, 59, 0
11, 44640, Note_on_c, 9, 35, 127
11, 44640, Note_on_c, 9, 63, 100
11, 44655, Note_on_c, 9, 63, 0
11, 44655, Note_on_c, 9, 35, 0
11, 44700, Note_on_c, 9, 59, 100
11, 44700, Note_on_c, 9, 42, 100
11, 44715, Note_on_c, 9, 42, 0
11, 44715, Note_on_c, 9, 59, 0
11, 44730, Note_on_c, 9, 63, 100
11, 44745, Note_on_c, 9, 63, 0
11, 44760, Note_on_c, 9, 35, 127
11, 44760, Note_on_c, 9, 39, 100
11, 44760, Note_on_c, 9, 63, 100
11, 44775, Note_on_c, 9, 63, 0
11, 44775, Note_on_c, 9, 39, 0
11, 44775, Note_on_c, 9, 35, 0
11, 44820, Note_on_c, 9, 42, 100
11, 44820, Note_on_c, 9, 63, 100
11, 44820, Note_on_c, 9, 59, 100
11, 44835, Note_on_c, 9, 59, 0
11, 44835, Note_on_c, 9, 63, 0
11, 44835, Note_on_c, 9, 42, 0
11, 44880, Note_on_c, 9, 63, 100
11, 44880, Note_on_c, 9, 35, 127
11, 44895, Note_on_c, 9, 35, 0
11, 44895, Note_on_c, 9, 63, 0
11, 44940, Note_on_c, 9, 42, 100
11, 44940, Note_on_c, 9, 59, 100
11, 44955, Note_on_c, 9, 59, 0
11, 44955, Note_on_c, 9, 42, 0
11, 44970, Note_on_c, 9, 63, 100
11, 44985, Note_on_c, 9, 63, 0
11, 45000, Note_on_c, 9, 35, 127
11, 45000, Note_on_c, 9, 39, 100
11, 45000, Note_on_c, 9, 63, 100
11, 45015, Note_on_c, 9, 63, 0
11, 45015, Note_on_c, 9, 39, 0
11, 45015, Note_on_c, 9, 35, 0
11, 45060, Note_on_c, 9, 63, 100
11, 45060, Note_on_c, 9, 42, 100
11, 45060, Note_on_c, 9, 59, 100
11, 45075, Note_on_c, 9, 59, 0
11, 45075, Note_on_c, 9, 42, 0
11, 45075, Note_on_c, 9, 63, 0
11, 45120, Note_on_c, 9, 35, 127
11, 45135, Note_on_c, 9, 35, 0
11, 45180, Note_on_c, 9, 42, 100
11, 45180, Note_on_c, 9, 59, 100
11, 45195, Note_on_c, 9, 59, 0
11, 45195, Note_on_c, 9, 42, 0
11, 45240, Note_on_c, 9, 35, 127
11, 45240, Note_on_c, 9, 39, 100
11, 45255, Note_on_c, 9, 39, 0
11, 45255, Note_on_c, 9, 35, 0
11, 45300, Note_on_c, 9, 59, 100
11, 45300, Note_on_c, 9, 42, 100
11, 45315, Note_on_c, 9, 42, 0
11, 45315, Note_on_c, 9, 59, 0
11, 45360, Note_on_c, 9, 35, 127
11, 45375, Note_on_c, 9, 35, 0
11, 45420, Note_on_c, 9, 59, 100
11, 45420, Note_on_c, 9, 42, 100
11, 45435, Note_on_c, 9, 42, 0
11, 45435, Note_on_c, 9, 59, 0
11, 45480, Note_on_c, 9, 35, 127
11, 45480, Note_on_c, 9, 39, 100
11, 45495, Note_on_c, 9, 39, 0
11, 45495, Note_on_c, 9, 35, 0
11, 45540, Note_on_c, 9, 59, 100
11, 45540, Note_on_c, 9, 42, 100
11, 45555, Note_on_c, 9, 42, 0
11, 45555, Note_on_c, 9, 59, 0
11, 45600, Note_on_c, 9, 35, 127
11, 45615, Note_on_c, 9, 35, 0
11, 45660, Note_on_c, 9, 59, 100
11, 45660, Note_on_c, 9, 42, 100
11, 45675, Note_on_c, 9, 42, 0
11, 45675, Note_on_c, 9, 59, 0
11, 45720, Note_on_c, 9, 35, 127
11, 45720, Note_on_c, 9, 39, 100
11, 45735, Note_on_c, 9, 39, 0
11, 45735, Note_on_c, 9, 35, 0
11, 45780, Note_on_c, 9, 42, 100
11, 45780, Note_on_c, 9, 59, 100
11, 45795, Note_on_c, 9, 59, 0
11, 45795, Note_on_c, 9, 42, 0
11, 45840, Note_on_c, 9, 35, 127
11, 45855, Note_on_c, 9, 35, 0
11, 45900, Note_on_c, 9, 59, 100
11, 45900, Note_on_c, 9, 42, 100
11, 45915, Note_on_c, 9, 42, 0
11, 45915, Note_on_c, 9, 59, 0
11, 45960, Note_on_c, 9, 35, 127
11, 45960, Note_on_c, 9, 39, 100
11, 45975, Note_on_c, 9, 39, 0
11, 45975, Note_on_c, 9, 35, 0
11, 46020, Note_on_c, 9, 42, 100
11, 46020, Note_on_c, 9, 59, 100
11, 46035, Note_on_c, 9, 59, 0
11, 46035, Note_on_c, 9, 42, 0
11, 46080, Note_on_c, 9, 35, 127
11, 46095, Note_on_c, 9, 35, 0
11, 46140, Note_on_c, 9, 59, 100
11, 46140, Note_on_c, 9, 42, 100
11, 46155, Note_on_c, 9, 42, 0
11, 46155, Note_on_c, 9, 59, 0
11, 46200, Note_on_c, 9, 35, 127
11, 46200, Note_on_c, 9, 39, 100
11, 46215, Note_on_c, 9, 39, 0
11, 46215, Note_on_c, 9, 35, 0
11, 46260, Note_on_c, 9, 42, 100
11, 46260, Note_on_c, 9, 59, 100
11, 46275, Note_on_c, 9, 59, 0
11, 46275, Note_on_c, 9, 42, 0
11, 46320, Note_on_c, 9, 35, 127
11, 46335, Note_on_c, 9, 35, 0
11, 46380, Note_on_c, 9, 42, 100
11, 46380, Note_on_c, 9, 59, 100
11, 46395, Note_on_c, 9, 59, 0
11, 46395, Note_on_c, 9, 42, 0
11, 46440, Note_on_c, 9, 35, 127
11, 46440, Note_on_c, 9, 39, 100
11, 46455, Note_on_c, 9, 39, 0
11, 46455, Note_on_c, 9, 35, 0
11, 46500, Note_on_c, 9, 59, 100
11, 46500, Note_on_c, 9, 42, 100
11, 46515, Note_on_c, 9, 42, 0
11, 46515, Note_on_c, 9, 59, 0
11, 46560, Note_on_c, 9, 35, 127
11, 46560, Note_on_c, 9, 63, 100
11, 46575, Note_on_c, 9, 63, 0
11, 46575, Note_on_c, 9, 35, 0
11, 46620, Note_on_c, 9, 42, 100
11, 46620, Note_on_c, 9, 59, 100
11, 46635, Note_on_c, 9, 59, 0
11, 46635, Note_on_c, 9, 42, 0
11, 46650, Note_on_c, 9, 63, 100
11, 46665, Note_on_c, 9, 63, 0
11, 46680, Note_on_c, 9, 35, 127
11, 46680, Note_on_c, 9, 39, 100
11, 46680, Note_on_c, 9, 63, 100
11, 46695, Note_on_c, 9, 63, 0
11, 46695, Note_on_c, 9, 39, 0
11, 46695, Note_on_c, 9, 35, 0
11, 46740, Note_on_c, 9, 59, 100
11, 46740, Note_on_c, 9, 63, 100
11, 46740, Note_on_c, 9, 42, 100
11, 46755, Note_on_c, 9, 42, 0
11, 46755, Note_on_c, 9, 63, 0
11, 46755, Note_on_c, 9, 59, 0
11, 46800, Note_on_c, 9, 35, 127
11, 46800, Note_on_c, 9, 63, 100
11, 46815, Note_on_c, 9, 63, 0
11, 46815, Note_on_c, 9, 35, 0
11, 46860, Note_on_c, 9, 59, 100
11, 46860, Note_on_c, 9, 42, 100
11, 46875, Note_on_c, 9, 42, 0
11, 46875, Note_on_c, 9, 59, 0
11, 46890, Note_on_c, 9, 63, 100
11, 46905, Note_on_c, 9, 63, 0
11, 46920, Note_on_c, 9, 63, 100
11, 46920, Note_on_c, 9, 39, 100
11, 46920, Note_on_c, 9, 35, 127
11, 46935, Note_on_c, 9, 35, 0
11, 46935, Note_on_c, 9, 39, 0
11, 46935, Note_on_c, 9, 63, 0
11, 46980, Note_on_c, 9, 59, 100
11, 46980, Note_on_c, 9, 63, 100
11, 46980, Note_on_c, 9, 42, 100
11, 46995, Note_on_c, 9, 42, 0
11, 46995, Note_on_c, 9, 63, 0
11, 46995, Note_on_c, 9, 59, 0
11, 47040, Note_on_c, 9, 49, 100
11, 47040, Note_on_c, 9, 35, 127
11, 47055, Note_on_c, 9, 35, 0
11, 47055, Note_on_c, 9, 49, 0
11, 47100, Note_on_c, 9, 59, 100
11, 47100, Note_on_c, 9, 42, 100
11, 47115, Note_on_c, 9, 42, 0
11, 47115, Note_on_c, 9, 59, 0
11, 47160, Note_on_c, 9, 35, 127
11, 47160, Note_on_c, 9, 39, 100
11, 47175, Note_on_c, 9, 39, 0
11, 47175, Note_on_c, 9, 35, 0
11, 47220, Note_on_c, 9, 42, 100
11, 47220, Note_on_c, 9, 59, 100
11, 47235, Note_on_c, 9, 59, 0
11, 47235, Note_on_c, 9, 42, 0
11, 47280, Note_on_c, 9, 35, 127
11, 47295, Note_on_c, 9, 35, 0
11, 47340, Note_on_c, 9, 59, 100
11, 47340, Note_on_c, 9, 42, 100
11, 47355, Note_on_c, 9, 42, 0
11, 47355, Note_on_c, 9, 59, 0
11, 47400, Note_on_c, 9, 39, 100
11, 47400, Note_on_c, 9, 35, 127
11, 47415, Note_on_c, 9, 35, 0
11, 47415, Note_on_c, 9, 39, 0
11, 47460, Note_on_c, 9, 42, 100
11, 47460, Note_on_c, 9, 59, 100
11, 47475, Note_on_c, 9, 59, 0
11, 47475, Note_on_c, 9, 42, 0
11, 47520, Note_on_c, 9, 35, 127
11, 47535, Note_on_c, 9, 35, 0
11, 47580, Note_on_c, 9, 42, 100
11, 47580, Note_on_c, 9, 59, 100
11, 47595, Note_on_c, 9, 59, 0
11, 47595, Note_on_c, 9, 42, 0
11, 47640, Note_on_c, 9, 39, 100
11, 47640, Note_on_c, 9, 35, 127
11, 47655, Note_on_c, 9, 35, 0
11, 47655, Note_on_c, 9, 39, 0
11, 47700, Note_on_c, 9, 59, 100
11, 47700, Note_on_c, 9, 42, 100
11, 47715, Note_on_c, 9, 42, 0
11, 47715, Note_on_c, 9, 59, 0
11, 47760, Note_on_c, 9, 35, 127
11, 47775, Note_on_c, 9, 35, 0
11, 47820, Note_on_c, 9, 42, 100
11, 47820, Note_on_c, 9, 59, 100
11, 47835, Note_on_c, 9, 59, 0
11, 47835, Note_on_c, 9, 42, 0
11, 47880, Note_on_c, 9, 39, 100
11, 47880, Note_on_c, 9, 35, 127
11, 47895, Note_on_c, 9, 35, 0
11, 47895, Note_on_c, 9, 39, 0
11, 47940, Note_on_c, 9, 59, 100
11, 47940, Note_on_c, 9, 42, 100
11, 47955, Note_on_c, 9, 42, 0
11, 47955, Note_on_c, 9, 59, 0
11, 48000, Note_on_c, 9, 35, 127
11, 48015, Note_on_c, 9, 35, 0
11, 48060, Note_on_c, 9, 59, 100
11, 48060, Note_on_c, 9, 42, 100
11, 48075, Note_on_c, 9, 42, 0
11, 48075, Note_on_c, 9, 59, 0
11, 48120, Note_on_c, 9, 39, 100
11, 48120, Note_on_c, 9, 35, 127
11, 48135, Note_on_c, 9, 35, 0
11, 48135, Note_on_c, 9, 39, 0
11, 48180, Note_on_c, 9, 59, 100
11, 48180, Note_on_c, 9, 42, 100
11, 48195, Note_on_c, 9, 42, 0
11, 48195, Note_on_c, 9, 59, 0
11, 48240, Note_on_c, 9, 35, 127
11, 48255, Note_on_c, 9, 35, 0
11, 48300, Note_on_c, 9, 59, 100
11, 48300, Note_on_c, 9, 42, 100
11, 48315, Note_on_c, 9, 42, 0
11, 48315, Note_on_c, 9, 59, 0
11, 48360, Note_on_c, 9, 39, 100
11, 48360, Note_on_c, 9, 35, 127
11, 48375, Note_on_c, 9, 35, 0
11, 48375, Note_on_c, 9, 39, 0
11, 48420, Note_on_c, 9, 42, 100
11, 48420, Note_on_c, 9, 59, 100
11, 48435, Note_on_c, 9, 59, 0
11, 48435, Note_on_c, 9, 42, 0
11, 48480, Note_on_c, 9, 35, 127
11, 48495, Note_on_c, 9, 35, 0
11, 48540, Note_on_c, 9, 42, 100
11, 48540, Note_on_c, 9, 59, 100
11, 48555, Note_on_c, 9, 59, 0
11, 48555, Note_on_c, 9, 42, 0
11, 48600, Note_on_c, 9, 35, 127
11, 48600, Note_on_c, 9, 39, 100
11, 48615, Note_on_c, 9, 39, 0
11, 48615, Note_on_c, 9, 35, 0
11, 48660, Note_on_c, 9, 59, 100
11, 48660, Note_on_c, 9, 42, 100
11, 48675, Note_on_c, 9, 42, 0
11, 48675, Note_on_c, 9, 59, 0
11, 48720, Note_on_c, 9, 35, 127
11, 48735, Note_on_c, 9, 35, 0
11, 48780, Note_on_c, 9, 59, 100
11, 48780, Note_on_c, 9, 42, 100
11, 48795, Note_on_c, 9, 42, 0
11, 48795, Note_on_c, 9, 59, 0
11, 48840, Note_on_c, 9, 39, 100
11, 48840, Note_on_c, 9, 35, 127
11, 48855, Note_on_c, 9, 35, 0
11, 48855, Note_on_c, 9, 39, 0
11, 48900, Note_on_c, 9, 59, 100
11, 48900, Note_on_c, 9, 42, 100
11, 48915, Note_on_c, 9, 42, 0
11, 48915, Note_on_c, 9, 59, 0
11, 48960, Note_on_c, 9, 35, 127
11, 48975, Note_on_c, 9, 35, 0
11, 49020, Note_on_c, 9, 42, 100
11, 49020, Note_on_c, 9, 59, 100
11, 49035, Note_on_c, 9, 59, 0
11, 49035, Note_on_c, 9, 42, 0
11, 49080, Note_on_c, 9, 39, 100
11, 49080, Note_on_c, 9, 35, 127
11, 49095, Note_on_c, 9, 35, 0
11, 49095, Note_on_c, 9, 39, 0
11, 49140, Note_on_c, 9, 42, 100
11, 49140, Note_on_c, 9, 59, 100
11, 49155, Note_on_c, 9, 59, 0
11, 49155, Note_on_c, 9, 42, 0
11, 49200, Note_on_c, 9, 35, 127
11, 49215, Note_on_c, 9, 35, 0
11, 49260, Note_on_c, 9, 59, 100
11, 49260, Note_on_c, 9, 42, 100
11, 49275, Note_on_c, 9, 42, 0
11, 49275, Note_on_c, 9, 59, 0
11, 49320, Note_on_c, 9, 39, 100
11, 49320, Note_on_c, 9, 35, 127
11, 49335, Note_on_c, 9, 35, 0
11, 49335, Note_on_c, 9, 39, 0
11, 49380, Note_on_c, 9, 42, 100
11, 49380, Note_on_c, 9, 59, 100
11, 49395, Note_on_c, 9, 59, 0
11, 49395, Note_on_c, 9, 42, 0
11, 49440, Note_on_c, 9, 35, 127
11, 49455, Note_on_c, 9, 35, 0
11, 49500, Note_on_c, 9, 42, 100
11, 49500, Note_on_c, 9, 59, 100
11, 49515, Note_on_c, 9, 59, 0
11, 49515, Note_on_c, 9, 42, 0
11, 49560, Note_on_c, 9, 39, 100
11, 49560, Note_on_c, 9, 35, 127
11, 49575, Note_on_c, 9, 35, 0
11, 49575, Note_on_c, 9, 39, 0
11, 49620, Note_on_c, 9, 42, 100
11, 49620, Note_on_c, 9, 59, 100
11, 49635, Note_on_c, 9, 59, 0
11, 49635, Note_on_c, 9, 42, 0
11, 49680, Note_on_c, 9, 35, 127
11, 49695, Note_on_c, 9, 35, 0
11, 49740, Note_on_c, 9, 42, 100
11, 49740, Note_on_c, 9, 59, 100
11, 49755, Note_on_c, 9, 59, 0
11, 49755, Note_on_c, 9, 42, 0
11, 49800, Note_on_c, 9, 35, 127
11, 49800, Note_on_c, 9, 39, 100
11, 49815, Note_on_c, 9, 39, 0
11, 49815, Note_on_c, 9, 35, 0
11, 49860, Note_on_c, 9, 42, 100
11, 49860, Note_on_c, 9, 59, 100
11, 49875, Note_on_c, 9, 59, 0
11, 49875, Note_on_c, 9, 42, 0
11, 49920, Note_on_c, 9, 35, 127
11, 49935, Note_on_c, 9, 35, 0
11, 49980, Note_on_c, 9, 42, 100
11, 49980, Note_on_c, 9, 59, 100
11, 49995, Note_on_c, 9, 59, 0
11, 49995, Note_on_c, 9, 42, 0
11, 50040, Note_on_c, 9, 35, 127
11, 50040, Note_on_c, 9, 39, 100
11, 50055, Note_on_c, 9, 39, 0
11, 50055, Note_on_c, 9, 35, 0
11, 50100, Note_on_c, 9, 59, 100
11, 50100, Note_on_c, 9, 42, 100
11, 50115, Note_on_c, 9, 42, 0
11, 50115, Note_on_c, 9, 59, 0
11, 50160, Note_on_c, 9, 35, 127
11, 50175, Note_on_c, 9, 35, 0
11, 50220, Note_on_c, 9, 42, 100
11, 50220, Note_on_c, 9, 59, 100
11, 50235, Note_on_c, 9, 59, 0
11, 50235, Note_on_c, 9, 42, 0
11, 50280, Note_on_c, 9, 39, 100
11, 50280, Note_on_c, 9, 35, 127
11, 50295, Note_on_c, 9, 35, 0
11, 50295, Note_on_c, 9, 39, 0
11, 50340, Note_on_c, 9, 59, 100
11, 50340, Note_on_c, 9, 42, 100
11, 50355, Note_on_c, 9, 42, 0
11, 50355, Note_on_c, 9, 59, 0
11, 50400, Note_on_c, 9, 35, 127
11, 50415, Note_on_c, 9, 35, 0
11, 50460, Note_on_c, 9, 59, 100
11, 50460, Note_on_c, 9, 42, 100
11, 50475, Note_on_c, 9, 42, 0
11, 50475, Note_on_c, 9, 59, 0
11, 50520, Note_on_c, 9, 35, 127
11, 50520, Note_on_c, 9, 39, 100
11, 50535, Note_on_c, 9, 39, 0
11, 50535, Note_on_c, 9, 35, 0
11, 50580, Note_on_c, 9, 59, 100
11, 50580, Note_on_c, 9, 42, 100
11, 50595, Note_on_c, 9, 42, 0
11, 50595, Note_on_c, 9, 59, 0
11, 50640, Note_on_c, 9, 35, 127
11, 50655, Note_on_c, 9, 35, 0
11, 50700, Note_on_c, 9, 59, 100
11, 50700, Note_on_c, 9, 42, 100
11, 50715, Note_on_c, 9, 42, 0
11, 50715, Note_on_c, 9, 59, 0
11, 50760, Note_on_c, 9, 39, 100
11, 50760, Note_on_c, 9, 35, 127
11, 50775, Note_on_c, 9, 35, 0
11, 50775, Note_on_c, 9, 39, 0
11, 50820, Note_on_c, 9, 42, 100
11, 50820, Note_on_c, 9, 59, 100
11, 50835, Note_on_c, 9, 59, 0
11, 50835, Note_on_c, 9, 42, 0
11, 50880, Note_on_c, 9, 40, 60
11, 50880, Note_on_c, 9, 35, 127
11, 50895, Note_on_c, 9, 35, 0
11, 50895, Note_on_c, 9, 40, 0
11, 50910, Note_on_c, 9, 40, 70
11, 50925, Note_on_c, 9, 40, 0
11, 50940, Note_on_c, 9, 40, 70
11, 50940, Note_on_c, 9, 42, 100
11, 50940, Note_on_c, 9, 59, 100
11, 50955, Note_on_c, 9, 59, 0
11, 50955, Note_on_c, 9, 42, 0
11, 50955, Note_on_c, 9, 40, 0
11, 50970, Note_on_c, 9, 40, 70
11, 50985, Note_on_c, 9, 40, 0
11, 51000, Note_on_c, 9, 35, 127
11, 51000, Note_on_c, 9, 40, 70
11, 51000, Note_on_c, 9, 39, 100
11, 51015, Note_on_c, 9, 39, 0
11, 51015, Note_on_c, 9, 40, 0
11, 51015, Note_on_c, 9, 35, 0
11, 51030, Note_on_c, 9, 40, 70
11, 51045, Note_on_c, 9, 40, 0
11, 51060, Note_on_c, 9, 59, 100
11, 51060, Note_on_c, 9, 42, 100
11, 51060, Note_on_c, 9, 40, 70
11, 51075, Note_on_c, 9, 40, 0
11, 51075, Note_on_c, 9, 42, 0
11, 51075, Note_on_c, 9, 59, 0
11, 51090, Note_on_c, 9, 40, 70
11, 51105, Note_on_c, 9, 40, 0
11, 51120, Note_on_c, 9, 35, 127
11, 51120, Note_on_c, 9, 40, 70
11, 51135, Note_on_c, 9, 40, 0
11, 51135, Note_on_c, 9, 35, 0
11, 51150, Note_on_c, 9, 40, 70
11, 51165, Note_on_c, 9, 40, 0
11, 51180, Note_on_c, 9, 42, 100
11, 51180, Note_on_c, 9, 40, 70
11, 51180, Note_on_c, 9, 59, 100
11, 51195, Note_on_c, 9, 59, 0
11, 51195, Note_on_c, 9, 40, 0
11, 51195, Note_on_c, 9, 42, 0
11, 51210, Note_on_c, 9, 40, 70
11, 51225, Note_on_c, 9, 40, 0
11, 51240, Note_on_c, 9, 35, 127
11, 51240, Note_on_c, 9, 40, 70
11, 51240, Note_on_c, 9, 39, 100
11, 51255, Note_on_c, 9, 39, 0
11, 51255, Note_on_c, 9, 40, 0
11, 51255, Note_on_c, 9, 35, 0
11, 51270, Note_on_c, 9, 40, 70
11, 51285, Note_on_c, 9, 40, 0
11, 51300, Note_on_c, 9, 59, 100
11, 51300, Note_on_c, 9, 42, 100
11, 51300, Note_on_c, 9, 40, 70
11, 51315, Note_on_c, 9, 40, 0
11, 51315, Note_on_c, 9, 42, 0
11, 51315, Note_on_c, 9, 59, 0
11, 51330, Note_on_c, 9, 40, 70
11, 51345, Note_on_c, 9, 40, 0
11, 51360, Note_on_c, 9, 40, 70
11, 51360, Note_on_c, 9, 35, 127
11, 51375, Note_on_c, 9, 35, 0
11, 51375, Note_on_c, 9, 40, 0
11, 51390, Note_on_c, 9, 40, 70
11, 51405, Note_on_c, 9, 40, 0
11, 51420, Note_on_c, 9, 59, 100
11, 51420, Note_on_c, 9, 40, 70
11, 51420, Note_on_c, 9, 42, 100
11, 51435, Note_on_c, 9, 42, 0
11, 51435, Note_on_c, 9, 40, 0
11, 51435, Note_on_c, 9, 59, 0
11, 51450, Note_on_c, 9, 40, 70
11, 51465, Note_on_c, 9, 40, 0
11, 51480, Note_on_c, 9, 40, 70
11, 51480, Note_on_c, 9, 39, 100
11, 51480, Note_on_c, 9, 35, 127
11, 51495, Note_on_c, 9, 35, 0
11, 51495, Note_on_c, 9, 39, 0
11, 51495, Note_on_c, 9, 40, 0
11, 51510, Note_on_c, 9, 40, 70
11, 51525, Note_on_c, 9, 40, 0
11, 51540, Note_on_c, 9, 42, 100
11, 51540, Note_on_c, 9, 40, 70
11, 51540, Note_on_c, 9, 59, 100
11, 51555, Note_on_c, 9, 59, 0
11, 51555, Note_on_c, 9, 40, 0
11, 51555, Note_on_c, 9, 42, 0
11, 51570, Note_on_c, 9, 40, 70
11, 51585, Note_on_c, 9, 40, 0
11, 51600, Note_on_c, 9, 35, 127
11, 51600, Note_on_c, 9, 40, 70
11, 51615, Note_on_c, 9, 40, 0
11, 51615, Note_on_c, 9, 35, 0
11, 51630, Note_on_c, 9, 40, 70
11, 51645, Note_on_c, 9, 40, 0
11, 51660, Note_on_c, 9, 40, 70
11, 51660, Note_on_c, 9, 42, 100
11, 51660, Note_on_c, 9, 59, 100
11, 51675, Note_on_c, 9, 59, 0
11, 51675, Note_on_c, 9, 42, 0
11, 51675, Note_on_c, 9, 40, 0
11, 51690, Note_on_c, 9, 40, 70
11, 51705, Note_on_c, 9, 40, 0
11, 51720, Note_on_c, 9, 40, 70
11, 51720, Note_on_c, 9, 35, 127
11, 51720, Note_on_c, 9, 39, 100
11, 51735, Note_on_c, 9, 39, 0
11, 51735, Note_on_c, 9, 35, 0
11, 51735, Note_on_c, 9, 40, 0
11, 51750, Note_on_c, 9, 40, 70
11, 51765, Note_on_c, 9, 40, 0
11, 51780, Note_on_c, 9, 42, 100
11, 51780, Note_on_c, 9, 40, 70
11, 51780, Note_on_c, 9, 59, 100
11, 51795, Note_on_c, 9, 59, 0
11, 51795, Note_on_c, 9, 40, 0
11, 51795, Note_on_c, 9, 42, 0
11, 51810, Note_on_c, 9, 40, 70
11, 51825, Note_on_c, 9, 40, 0
11, 51840, Note_on_c, 9, 35, 127
11, 51840, Note_on_c, 9, 40, 80
11, 51855, Note_on_c, 9, 40, 0
11, 51855, Note_on_c, 9, 35, 0
11, 51870, Note_on_c, 9, 40, 80
11, 51885, Note_on_c, 9, 40, 0
11, 51900, Note_on_c, 9, 59, 100
11, 51900, Note_on_c, 9, 40, 80
11, 51900, Note_on_c, 9, 42, 100
11, 51915, Note_on_c, 9, 42, 0
11, 51915, Note_on_c, 9, 40, 0
11, 51915, Note_on_c, 9, 59, 0
11, 51930, Note_on_c, 9, 40, 80
11, 51945, Note_on_c, 9, 40, 0
11, 51960, Note_on_c, 9, 35, 127
11, 51960, Note_on_c, 9, 39, 100
11, 51960, Note_on_c, 9, 40, 80
11, 51975, Note_on_c, 9, 40, 0
11, 51975, Note_on_c, 9, 39, 0
11, 51975, Note_on_c, 9, 35, 0
11, 51990, Note_on_c, 9, 40, 80
11, 52005, Note_on_c, 9, 40, 0
11, 52020, Note_on_c, 9, 40, 80
11, 52020, Note_on_c, 9, 59, 100
11, 52020, Note_on_c, 9, 42, 100
11, 52035, Note_on_c, 9, 42, 0
11, 52035, Note_on_c, 9, 59, 0
11, 52035, Note_on_c, 9, 40, 0
11, 52050, Note_on_c, 9, 40, 80
11, 52065, Note_on_c, 9, 40, 0
11, 52080, Note_on_c, 9, 40, 80
11, 52080, Note_on_c, 9, 35, 127
11, 52095, Note_on_c, 9, 35, 0
11, 52095, Note_on_c, 9, 40, 0
11, 52110, Note_on_c, 9, 40, 80
11, 52125, Note_on_c, 9, 40, 0
11, 52140, Note_on_c, 9, 40, 80
11, 52140, Note_on_c, 9, 59, 100
11, 52140, Note_on_c, 9, 42, 100
11, 52155, Note_on_c, 9, 42, 0
11, 52155, Note_on_c, 9, 59, 0
11, 52155, Note_on_c, 9, 40, 0
11, 52170, Note_on_c, 9, 40, 80
11, 52185, Note_on_c, 9, 40, 0
11, 52200, Note_on_c, 9, 35, 127
11, 52200, Note_on_c, 9, 39, 100
11, 52200, Note_on_c, 9, 40, 80
11, 52215, Note_on_c, 9, 40, 0
11, 52215, Note_on_c, 9, 39, 0
11, 52215, Note_on_c, 9, 35, 0
11, 52230, Note_on_c, 9, 40, 80
11, 52245, Note_on_c, 9, 40, 0
11, 52260, Note_on_c, 9, 59, 100
11, 52260, Note_on_c, 9, 40, 80
11, 52260, Note_on_c, 9, 42, 100
11, 52275, Note_on_c, 9, 42, 0
11, 52275, Note_on_c, 9, 40, 0
11, 52275, Note_on_c, 9, 59, 0
11, 52290, Note_on_c, 9, 40, 80
11, 52305, Note_on_c, 9, 40, 0
11, 52320, Note_on_c, 9, 35, 127
11, 52320, Note_on_c, 9, 57, 100
11, 52320, Note_on_c, 9, 40, 90
11, 52335, Note_on_c, 9, 40, 0
11, 52335, Note_on_c, 9, 57, 0
11, 52335, Note_on_c, 9, 35, 0
11, 52335, Note_on_c, 9, 40, 100
11, 52350, Note_on_c, 9, 40, 0
11, 52350, Note_on_c, 9, 40, 90
11, 52365, Note_on_c, 9, 40, 0
11, 52365, Note_on_c, 9, 40, 100
11, 52380, Note_on_c, 9, 40, 0
11, 52380, Note_on_c, 9, 42, 100
11, 52380, Note_on_c, 9, 40, 90
11, 52380, Note_on_c, 9, 59, 100
11, 52395, Note_on_c, 9, 59, 0
11, 52395, Note_on_c, 9, 40, 0
11, 52395, Note_on_c, 9, 42, 0
11, 52395, Note_on_c, 9, 40, 100
11, 52410, Note_on_c, 9, 40, 0
11, 52410, Note_on_c, 9, 40, 90
11, 52425, Note_on_c, 9, 40, 0
11, 52425, Note_on_c, 9, 40, 90
11, 52440, Note_on_c, 9, 40, 0
11, 52440, Note_on_c, 9, 40, 90
11, 52440, Note_on_c, 9, 35, 127
11, 52455, Note_on_c, 9, 35, 0
11, 52455, Note_on_c, 9, 40, 0
11, 52455, Note_on_c, 9, 49, 100
11, 52455, Note_on_c, 9, 40, 90
11, 52470, Note_on_c, 9, 40, 0
11, 52470, Note_on_c, 9, 49, 0
11, 52470, Note_on_c, 9, 40, 90
11, 52485, Note_on_c, 9, 40, 0
11, 52485, Note_on_c, 9, 40, 90
11, 52500, Note_on_c, 9, 40, 0
11, 52500, Note_on_c, 9, 40, 90
11, 52500, Note_on_c, 9, 42, 100
11, 52500, Note_on_c, 9, 59, 100
11, 52515, Note_on_c, 9, 59, 0
11, 52515, Note_on_c, 9, 42, 0
11, 52515, Note_on_c, 9, 40, 0
11, 52515, Note_on_c, 9, 40, 90
11, 52530, Note_on_c, 9, 40, 0
11, 52530, Note_on_c, 9, 40, 90
11, 52545, Note_on_c, 9, 40, 0
11, 52545, Note_on_c, 9, 40, 90
11, 52560, Note_on_c, 9, 40, 0
11, 52560, Note_on_c, 9, 35, 127
11, 52560, Note_on_c, 9, 40, 90
11, 52560, Note_on_c, 9, 57, 100
11, 52575, Note_on_c, 9, 57, 0
11, 52575, Note_on_c, 9, 40, 0
11, 52575, Note_on_c, 9, 35, 0
11, 52575, Note_on_c, 9, 40, 90
11, 52590, Note_on_c, 9, 40, 0
11, 52590, Note_on_c, 9, 40, 90
11, 52605, Note_on_c, 9, 40, 0
11, 52605, Note_on_c, 9, 40, 90
11, 52620, Note_on_c, 9, 40, 0
11, 52620, Note_on_c, 9, 40, 90
11, 52620, Note_on_c, 9, 42, 100
11, 52620, Note_on_c, 9, 59, 100
11, 52635, Note_on_c, 9, 59, 0
11, 52635, Note_on_c, 9, 42, 0
11, 52635, Note_on_c, 9, 40, 0
11, 52635, Note_on_c, 9, 40, 90
11, 52650, Note_on_c, 9, 40, 0
11, 52650, Note_on_c, 9, 40, 90
11, 52665, Note_on_c, 9, 40, 0
11, 52665, Note_on_c, 9, 40, 90
11, 52680, Note_on_c, 9, 40, 0
11, 52680, Note_on_c, 9, 40, 90
11, 52680, Note_on_c, 9, 35, 127
11, 52680, Note_on_c, 9, 49, 100
11, 52695, Note_on_c, 9, 49, 0
11, 52695, Note_on_c, 9, 35, 0
11, 52695, Note_on_c, 9, 40, 0
11, 52695, Note_on_c, 9, 40, 90
11, 52710, Note_on_c, 9, 40, 0
11, 52710, Note_on_c, 9, 40, 90
11, 52725, Note_on_c, 9, 40, 0
11, 52725, Note_on_c, 9, 40, 90
11, 52740, Note_on_c, 9, 40, 0
11, 52740, Note_on_c, 9, 40, 90
11, 52740, Note_on_c, 9, 59, 100
11, 52755, Note_on_c, 9, 59, 0
11, 52755, Note_on_c, 9, 40, 0
11, 52755, Note_on_c, 9, 40, 90
11, 52770, Note_on_c, 9, 40, 0
11, 52770, Note_on_c, 9, 40, 90
11, 52785, Note_on_c, 9, 40, 0
11, 52785, Note_on_c, 9, 40, 90
11, 52800, Note_on_c, 9, 40, 0
11, 52800, Note_on_c, 9, 49, 100
11, 52800, Note_on_c, 9, 35, 127
11, 52800, Note_on_c, 9, 57, 100
11, 52815, Note_on_c, 9, 57, 0
11, 52815, Note_on_c, 9, 35, 0
11, 52860, Note_on_c, 9, 42, 100
11, 52860, Note_on_c, 9, 59, 100
11, 52875, Note_on_c, 9, 59, 0
11, 52875, Note_on_c, 9, 42, 0
11, 52920, Note_on_c, 9, 49, 0
11, 52920, Note_on_c, 9, 39, 100
11, 52920, Note_on_c, 9, 35, 127
11, 52935, Note_on_c, 9, 35, 0
11, 52935, Note_on_c, 9, 39, 0
11, 52980, Note_on_c, 9, 59, 100
11, 52980, Note_on_c, 9, 42, 100
11, 52995, Note_on_c, 9, 42, 0
11, 52995, Note_on_c, 9, 59, 0
11, 53040, Note_on_c, 9, 35, 127
11, 53055, Note_on_c, 9, 35, 0
11, 53100, Note_on_c, 9, 42, 100
11, 53100, Note_on_c, 9, 59, 100
11, 53115, Note_on_c, 9, 59, 0
11, 53115, Note_on_c, 9, 42, 0
11, 53160, Note_on_c, 9, 35, 127
11, 53160, Note_on_c, 9, 39, 100
11, 53175, Note_on_c, 9, 39, 0
11, 53175, Note_on_c, 9, 35, 0
11, 53220, Note_on_c, 9, 42, 100
11, 53220, Note_on_c, 9, 59, 100
11, 53235, Note_on_c, 9, 59, 0
11, 53235, Note_on_c, 9, 42, 0
11, 53280, Note_on_c, 9, 35, 127
11, 53295, Note_on_c, 9, 35, 0
11, 53340, Note_on_c, 9, 59, 100
11, 53340, Note_on_c, 9, 42, 100
11, 53355, Note_on_c, 9, 42, 0
11, 53355, Note_on_c, 9, 59, 0
11, 53400, Note_on_c, 9, 39, 100
11, 53400, Note_on_c, 9, 35, 127
11, 53415, Note_on_c, 9, 35, 0
11, 53415, Note_on_c, 9, 39, 0
11, 53460, Note_on_c, 9, 59, 100
11, 53460, Note_on_c, 9, 42, 100
11, 53475, Note_on_c, 9, 42, 0
11, 53475, Note_on_c, 9, 59, 0
11, 53520, Note_on_c, 9, 35, 127
11, 53535, Note_on_c, 9, 35, 0
11, 53580, Note_on_c, 9, 59, 100
11, 53580, Note_on_c, 9, 42, 100
11, 53595, Note_on_c, 9, 42, 0
11, 53595, Note_on_c, 9, 59, 0
11, 53640, Note_on_c, 9, 39, 100
11, 53640, Note_on_c, 9, 35, 127
11, 53655, Note_on_c, 9, 35, 0
11, 53655, Note_on_c, 9, 39, 0
11, 53700, Note_on_c, 9, 59, 100
11, 53700, Note_on_c, 9, 42, 100
11, 53715, Note_on_c, 9, 42, 0
11, 53715, Note_on_c, 9, 59, 0
11, 53760, Note_on_c, 9, 35, 127
11, 53775, Note_on_c, 9, 35, 0
11, 53820, Note_on_c, 9, 42, 100
11, 53820, Note_on_c, 9, 59, 100
11, 53835, Note_on_c, 9, 59, 0
11, 53835, Note_on_c, 9, 42, 0
11, 53880, Note_on_c, 9, 39, 100
11, 53880, Note_on_c, 9, 35, 127
11, 53895, Note_on_c, 9, 35, 0
11, 53895, Note_on_c, 9, 39, 0
11, 53940, Note_on_c, 9, 42, 100
11, 53940, Note_on_c, 9, 59, 100
11, 53955, Note_on_c, 9, 59, 0
11, 53955, Note_on_c, 9, 42, 0
11, 54000, Note_on_c, 9, 35, 127
11, 54015, Note_on_c, 9, 35, 0
11, 54060, Note_on_c, 9, 59, 100
11, 54060, Note_on_c, 9, 42, 100
11, 54075, Note_on_c, 9, 42, 0
11, 54075, Note_on_c, 9, 59, 0
11, 54120, Note_on_c, 9, 39, 100
11, 54120, Note_on_c, 9, 35, 127
11, 54135, Note_on_c, 9, 35, 0
11, 54135, Note_on_c, 9, 39, 0
11, 54180, Note_on_c, 9, 42, 100
11, 54180, Note_on_c, 9, 59, 100
11, 54195, Note_on_c, 9, 59, 0
11, 54195, Note_on_c, 9, 42, 0
11, 54240, Note_on_c, 9, 63, 100
11, 54240, Note_on_c, 9, 35, 127
11, 54255, Note_on_c, 9, 35, 0
11, 54255, Note_on_c, 9, 63, 0
11, 54300, Note_on_c, 9, 42, 100
11, 54300, Note_on_c, 9, 59, 100
11, 54315, Note_on_c, 9, 59, 0
11, 54315, Note_on_c, 9, 42, 0
11, 54330, Note_on_c, 9, 63, 100
11, 54345, Note_on_c, 9, 63, 0
11, 54360, Note_on_c, 9, 39, 100
11, 54360, Note_on_c, 9, 35, 127
11, 54360, Note_on_c, 9, 63, 100
11, 54375, Note_on_c, 9, 63, 0
11, 54375, Note_on_c, 9, 35, 0
11, 54375, Note_on_c, 9, 39, 0
11, 54420, Note_on_c, 9, 63, 100
11, 54420, Note_on_c, 9, 42, 100
11, 54420, Note_on_c, 9, 59, 100
11, 54435, Note_on_c, 9, 59, 0
11, 54435, Note_on_c, 9, 42, 0
11, 54435, Note_on_c, 9, 63, 0
11, 54480, Note_on_c, 9, 63, 100
11, 54480, Note_on_c, 9, 35, 127
11, 54495, Note_on_c, 9, 35, 0
11, 54495, Note_on_c, 9, 63, 0
11, 54540, Note_on_c, 9, 59, 100
11, 54540, Note_on_c, 9, 42, 100
11, 54555, Note_on_c, 9, 42, 0
11, 54555, Note_on_c, 9, 59, 0
11, 54570, Note_on_c, 9, 63, 100
11, 54585, Note_on_c, 9, 63, 0
11, 54600, Note_on_c, 9, 35, 127
11, 54600, Note_on_c, 9, 63, 100
11, 54600, Note_on_c, 9, 39, 100
11, 54615, Note_on_c, 9, 39, 0
11, 54615, Note_on_c, 9, 63, 0
11, 54615, Note_on_c, 9, 35, 0
11, 54660, Note_on_c, 9, 59, 100
11, 54660, Note_on_c, 9, 42, 100
11, 54660, Note_on_c, 9, 63, 100
11, 54675, Note_on_c, 9, 63, 0
11, 54675, Note_on_c, 9, 42, 0
11, 54675, Note_on_c, 9, 59, 0
11, 54720, Note_on_c, 9, 35, 127
11, 54735, Note_on_c, 9, 35, 0
11, 54780, Note_on_c, 9, 42, 100
11, 54780, Note_on_c, 9, 59, 100
11, 54795, Note_on_c, 9, 59, 0
11, 54795, Note_on_c, 9, 42, 0
11, 54840, Note_on_c, 9, 35, 127
11, 54840, Note_on_c, 9, 39, 100
11, 54855, Note_on_c, 9, 39, 0
11, 54855, Note_on_c, 9, 35, 0
11, 54900, Note_on_c, 9, 59, 100
11, 54900, Note_on_c, 9, 42, 100
11, 54915, Note_on_c, 9, 42, 0
11, 54915, Note_on_c, 9, 59, 0
11, 54960, Note_on_c, 9, 35, 127
11, 54975, Note_on_c, 9, 35, 0
11, 55020, Note_on_c, 9, 42, 100
11, 55020, Note_on_c, 9, 59, 100
11, 55035, Note_on_c, 9, 59, 0
11, 55035, Note_on_c, 9, 42, 0
11, 55080, Note_on_c, 9, 39, 100
11, 55080, Note_on_c, 9, 35, 127
11, 55095, Note_on_c, 9, 35, 0
11, 55095, Note_on_c, 9, 39, 0
11, 55140, Note_on_c, 9, 59, 100
11, 55140, Note_on_c, 9, 42, 100
11, 55155, Note_on_c, 9, 42, 0
11, 55155, Note_on_c, 9, 59, 0
11, 55200, Note_on_c, 9, 35, 127
11, 55215, Note_on_c, 9, 35, 0
11, 55260, Note_on_c, 9, 42, 100
11, 55260, Note_on_c, 9, 59, 100
11, 55275, Note_on_c, 9, 59, 0
11, 55275, Note_on_c, 9, 42, 0
11, 55320, Note_on_c, 9, 35, 127
11, 55320, Note_on_c, 9, 39, 100
11, 55335, Note_on_c, 9, 39, 0
11, 55335, Note_on_c, 9, 35, 0
11, 55380, Note_on_c, 9, 42, 100
11, 55380, Note_on_c, 9, 59, 100
11, 55395, Note_on_c, 9, 59, 0
11, 55395, Note_on_c, 9, 42, 0
11, 55440, Note_on_c, 9, 35, 127
11, 55455, Note_on_c, 9, 35, 0
11, 55500, Note_on_c, 9, 59, 100
11, 55500, Note_on_c, 9, 42, 100
11, 55515, Note_on_c, 9, 42, 0
11, 55515, Note_on_c, 9, 59, 0
11, 55560, Note_on_c, 9, 39, 100
11, 55560, Note_on_c, 9, 35, 127
11, 55575, Note_on_c, 9, 35, 0
11, 55575, Note_on_c, 9, 39, 0
11, 55620, Note_on_c, 9, 59, 100
11, 55620, Note_on_c, 9, 42, 100
11, 55635, Note_on_c, 9, 42, 0
11, 55635, Note_on_c, 9, 59, 0
11, 55680, Note_on_c, 9, 35, 127
11, 55695, Note_on_c, 9, 35, 0
11, 55740, Note_on_c, 9, 59, 100
11, 55740, Note_on_c, 9, 42, 100
11, 55755, Note_on_c, 9, 42, 0
11, 55755, Note_on_c, 9, 59, 0
11, 55800, Note_on_c, 9, 35, 127
11, 55800, Note_on_c, 9, 39, 100
11, 55815, Note_on_c, 9, 39, 0
11, 55815, Note_on_c, 9, 35, 0
11, 55860, Note_on_c, 9, 59, 100
11, 55860, Note_on_c, 9, 42, 100
11, 55875, Note_on_c, 9, 42, 0
11, 55875, Note_on_c, 9, 59, 0
11, 55920, Note_on_c, 9, 35, 127
11, 55935, Note_on_c, 9, 35, 0
11, 55980, Note_on_c, 9, 42, 100
11, 55980, Note_on_c, 9, 59, 100
11, 55995, Note_on_c, 9, 59, 0
11, 55995, Note_on_c, 9, 42, 0
11, 56040, Note_on_c, 9, 39, 100
11, 56040, Note_on_c, 9, 35, 127
11, 56055, Note_on_c, 9, 35, 0
11, 56055, Note_on_c, 9, 39, 0
11, 56100, Note_on_c, 9, 42, 100
11, 56100, Note_on_c, 9, 59, 100
11, 56115, Note_on_c, 9, 59, 0
11, 56115, Note_on_c, 9, 42, 0
11, 56160, Note_on_c, 9, 63, 100
11, 56160, Note_on_c, 9, 35, 127
11, 56175, Note_on_c, 9, 35, 0
11, 56175, Note_on_c, 9, 63, 0
11, 56220, Note_on_c, 9, 42, 100
11, 56220, Note_on_c, 9, 59, 100
11, 56235, Note_on_c, 9, 59, 0
11, 56235, Note_on_c, 9, 42, 0
11, 56250, Note_on_c, 9, 63, 100
11, 56265, Note_on_c, 9, 63, 0
11, 56280, Note_on_c, 9, 63, 100
11, 56280, Note_on_c, 9, 39, 100
11, 56280, Note_on_c, 9, 35, 127
11, 56295, Note_on_c, 9, 35, 0
11, 56295, Note_on_c, 9, 39, 0
11, 56295, Note_on_c, 9, 63, 0
11, 56340, Note_on_c, 9, 42, 100
11, 56340, Note_on_c, 9, 59, 100
11, 56340, Note_on_c, 9, 63, 100
11, 56355, Note_on_c, 9, 63, 0
11, 56355, Note_on_c, 9, 59, 0
11, 56355, Note_on_c, 9, 42, 0
11, 56400, Note_on_c, 9, 35, 127
11, 56400, Note_on_c, 9, 63, 100
11, 56415, Note_on_c, 9, 63, 0
11, 56415, Note_on_c, 9, 35, 0
11, 56460, Note_on_c, 9, 59, 100
11, 56460, Note_on_c, 9, 42, 100
11, 56475, Note_on_c, 9, 42, 0
11, 56475, Note_on_c, 9, 59, 0
11, 56490, Note_on_c, 9, 63, 100
11, 56505, Note_on_c, 9, 63, 0
11, 56520, Note_on_c, 9, 39, 100
11, 56520, Note_on_c, 9, 63, 100
11, 56520, Note_on_c, 9, 35, 127
11, 56535, Note_on_c, 9, 35, 0
11, 56535, Note_on_c, 9, 63, 0
11, 56535, Note_on_c, 9, 39, 0
11, 56580, Note_on_c, 9, 63, 100
11, 56580, Note_on_c, 9, 42, 100
11, 56580, Note_on_c, 9, 59, 100
11, 56595, Note_on_c, 9, 59, 0
11, 56595, Note_on_c, 9, 42, 0
11, 56595, Note_on_c, 9, 63, 0
11, 56640, Note_on_c, 9, 49, 100
11, 56640, Note_on_c, 9, 35, 127
11, 56655, Note_on_c, 9, 35, 0
11, 56700, Note_on_c, 9, 59, 100
11, 56700, Note_on_c, 9, 42, 100
11, 56715, Note_on_c, 9, 42, 0
11, 56715, Note_on_c, 9, 59, 0
11, 56760, Note_on_c, 9, 49, 0
11, 56760, Note_on_c, 9, 39, 100
11, 56760, Note_on_c, 9, 35, 127
11, 56775, Note_on_c, 9, 35, 0
11, 56775, Note_on_c, 9, 39, 0
11, 56820, Note_on_c, 9, 42, 100
11, 56820, Note_on_c, 9, 59, 100
11, 56835, Note_on_c, 9, 59, 0
11, 56835, Note_on_c, 9, 42, 0
11, 56880, Note_on_c, 9, 35, 127
11, 56895, Note_on_c, 9, 35, 0
11, 56940, Note_on_c, 9, 42, 100
11, 56940, Note_on_c, 9, 59, 100
11, 56955, Note_on_c, 9, 59, 0
11, 56955, Note_on_c, 9, 42, 0
11, 57000, Note_on_c, 9, 35, 127
11, 57000, Note_on_c, 9, 39, 100
11, 57015, Note_on_c, 9, 39, 0
11, 57015, Note_on_c, 9, 35, 0
11, 57060, Note_on_c, 9, 42, 100
11, 57060, Note_on_c, 9, 59, 100
11, 57075, Note_on_c, 9, 59, 0
11, 57075, Note_on_c, 9, 42, 0
11, 57120, Note_on_c, 9, 35, 127
11, 57135, Note_on_c, 9, 35, 0
11, 57180, Note_on_c, 9, 42, 100
11, 57180, Note_on_c, 9, 59, 100
11, 57195, Note_on_c, 9, 59, 0
11, 57195, Note_on_c, 9, 42, 0
11, 57240, Note_on_c, 9, 35, 127
11, 57240, Note_on_c, 9, 39, 100
11, 57255, Note_on_c, 9, 39, 0
11, 57255, Note_on_c, 9, 35, 0
11, 57300, Note_on_c, 9, 59, 100
11, 57300, Note_on_c, 9, 42, 100
11, 57315, Note_on_c, 9, 42, 0
11, 57315, Note_on_c, 9, 59, 0
11, 57360, Note_on_c, 9, 35, 127
11, 57375, Note_on_c, 9, 35, 0
11, 57420, Note_on_c, 9, 59, 100
11, 57420, Note_on_c, 9, 42, 100
11, 57435, Note_on_c, 9, 42, 0
11, 57435, Note_on_c, 9, 59, 0
11, 57480, Note_on_c, 9, 39, 100
11, 57480, Note_on_c, 9, 35, 127
11, 57495, Note_on_c, 9, 35, 0
11, 57495, Note_on_c, 9, 39, 0
11, 57540, Note_on_c, 9, 59, 100
11, 57540, Note_on_c, 9, 42, 100
11, 57555, Note_on_c, 9, 42, 0
11, 57555, Note_on_c, 9, 59, 0
11, 57600, Note_on_c, 9, 35, 127
11, 57615, Note_on_c, 9, 35, 0
11, 57660, Note_on_c, 9, 59, 100
11, 57660, Note_on_c, 9, 42, 100
11, 57675, Note_on_c, 9, 42, 0
11, 57675, Note_on_c, 9, 59, 0
11, 57720, Note_on_c, 9, 39, 100
11, 57720, Note_on_c, 9, 35, 127
11, 57735, Note_on_c, 9, 35, 0
11, 57735, Note_on_c, 9, 39, 0
11, 57780, Note_on_c, 9, 42, 100
11, 57780, Note_on_c, 9, 59, 100
11, 57795, Note_on_c, 9, 59, 0
11, 57795, Note_on_c, 9, 42, 0
11, 57840, Note_on_c, 9, 35, 127
11, 57855, Note_on_c, 9, 35, 0
11, 57900, Note_on_c, 9, 59, 100
11, 57900, Note_on_c, 9, 42, 100
11, 57915, Note_on_c, 9, 42, 0
11, 57915, Note_on_c, 9, 59, 0
11, 57960, Note_on_c, 9, 35, 127
11, 57960, Note_on_c, 9, 39, 100
11, 57975, Note_on_c, 9, 39, 0
11, 57975, Note_on_c, 9, 35, 0
11, 58020, Note_on_c, 9, 59, 100
11, 58020, Note_on_c, 9, 42, 100
11, 58035, Note_on_c, 9, 42, 0
11, 58035, Note_on_c, 9, 59, 0
11, 58080, Note_on_c, 9, 63, 100
11, 58080, Note_on_c, 9, 35, 127
11, 58095, Note_on_c, 9, 35, 0
11, 58095, Note_on_c, 9, 63, 0
11, 58140, Note_on_c, 9, 59, 100
11, 58140, Note_on_c, 9, 42, 100
11, 58155, Note_on_c, 9, 42, 0
11, 58155, Note_on_c, 9, 59, 0
11, 58170, Note_on_c, 9, 63, 100
11, 58185, Note_on_c, 9, 63, 0
11, 58200, Note_on_c, 9, 35, 127
11, 58200, Note_on_c, 9, 63, 100
11, 58200, Note_on_c, 9, 39, 100
11, 58215, Note_on_c, 9, 39, 0
11, 58215, Note_on_c, 9, 63, 0
11, 58215, Note_on_c, 9, 35, 0
11, 58260, Note_on_c, 9, 42, 100
11, 58260, Note_on_c, 9, 59, 100
11, 58260, Note_on_c, 9, 63, 100
11, 58275, Note_on_c, 9, 63, 0
11, 58275, Note_on_c, 9, 59, 0
11, 58275, Note_on_c, 9, 42, 0
11, 58320, Note_on_c, 9, 35, 127
11, 58320, Note_on_c, 9, 63, 100
11, 58335, Note_on_c, 9, 63, 0
11, 58335, Note_on_c, 9, 35, 0
11, 58380, Note_on_c, 9, 42, 100
11, 58380, Note_on_c, 9, 59, 100
11, 58395, Note_on_c, 9, 59, 0
11, 58395, Note_on_c, 9, 42, 0
11, 58410, Note_on_c, 9, 63, 100
11, 58425, Note_on_c, 9, 63, 0
11, 58440, Note_on_c, 9, 35, 127
11, 58440, Note_on_c, 9, 39, 100
11, 58440, Note_on_c, 9, 63, 100
11, 58455, Note_on_c, 9, 63, 0
11, 58455, Note_on_c, 9, 39, 0
11, 58455, Note_on_c, 9, 35, 0
11, 58500, Note_on_c, 9, 63, 100
11, 58500, Note_on_c, 9, 59, 100
11, 58500, Note_on_c, 9, 42, 100
11, 58515, Note_on_c, 9, 42, 0
11, 58515, Note_on_c, 9, 59, 0
11, 58515, Note_on_c, 9, 63, 0
11, 58560, Note_on_c, 9, 35, 127
11, 58575, Note_on_c, 9, 35, 0
11, 58620, Note_on_c, 9, 42, 100
11, 58620, Note_on_c, 9, 59, 100
11, 58635, Note_on_c, 9, 59, 0
11, 58635, Note_on_c, 9, 42, 0
11, 58680, Note_on_c, 9, 35, 127
11, 58680, Note_on_c, 9, 39, 100
11, 58695, Note_on_c, 9, 39, 0
11, 58695, Note_on_c, 9, 35, 0
11, 58740, Note_on_c, 9, 59, 100
11, 58740, Note_on_c, 9, 42, 100
11, 58755, Note_on_c, 9, 42, 0
11, 58755, Note_on_c, 9, 59, 0
11, 58800, Note_on_c, 9, 35, 127
11, 58815, Note_on_c, 9, 35, 0
11, 58860, Note_on_c, 9, 42, 100
11, 58860, Note_on_c, 9, 59, 100
11, 58875, Note_on_c, 9, 59, 0
11, 58875, Note_on_c, 9, 42, 0
11, 58920, Note_on_c, 9, 35, 127
11, 58920, Note_on_c, 9, 39, 100
11, 58935, Note_on_c, 9, 39, 0
11, 58935, Note_on_c, 9, 35, 0
11, 58980, Note_on_c, 9, 59, 100
11, 58980, Note_on_c, 9, 42, 100
11, 58995, Note_on_c, 9, 42, 0
11, 58995, Note_on_c, 9, 59, 0
11, 59040, Note_on_c, 9, 35, 127
11, 59055, Note_on_c, 9, 35, 0
11, 59100, Note_on_c, 9, 42, 100
11, 59100, Note_on_c, 9, 59, 100
11, 59115, Note_on_c, 9, 59, 0
11, 59115, Note_on_c, 9, 42, 0
11, 59160, Note_on_c, 9, 35, 127
11, 59160, Note_on_c, 9, 39, 100
11, 59175, Note_on_c, 9, 39, 0
11, 59175, Note_on_c, 9, 35, 0
11, 59220, Note_on_c, 9, 42, 100
11, 59220, Note_on_c, 9, 59, 100
11, 59235, Note_on_c, 9, 59, 0
11, 59235, Note_on_c, 9, 42, 0
11, 59280, Note_on_c, 9, 35, 127
11, 59295, Note_on_c, 9, 35, 0
11, 59340, Note_on_c, 9, 59, 100
11, 59340, Note_on_c, 9, 42, 100
11, 59355, Note_on_c, 9, 42, 0
11, 59355, Note_on_c, 9, 59, 0
11, 59400, Note_on_c, 9, 39, 100
11, 59400, Note_on_c, 9, 35, 127
11, 59415, Note_on_c, 9, 35, 0
11, 59415, Note_on_c, 9, 39, 0
11, 59460, Note_on_c, 9, 42, 100
11, 59460, Note_on_c, 9, 59, 100
11, 59475, Note_on_c, 9, 59, 0
11, 59475, Note_on_c, 9, 42, 0
11, 59520, Note_on_c, 9, 35, 127
11, 59535, Note_on_c, 9, 35, 0
11, 59580, Note_on_c, 9, 59, 100
11, 59580, Note_on_c, 9, 42, 100
11, 59595, Note_on_c, 9, 42, 0
11, 59595, Note_on_c, 9, 59, 0
11, 59640, Note_on_c, 9, 39, 100
11, 59640, Note_on_c, 9, 35, 127
11, 59655, Note_on_c, 9, 35, 0
11, 59655, Note_on_c, 9, 39, 0
11, 59700, Note_on_c, 9, 42, 100
11, 59700, Note_on_c, 9, 59, 100
11, 59715, Note_on_c, 9, 59, 0
11, 59715, Note_on_c, 9, 42, 0
11, 59760, Note_on_c, 9, 35, 127
11, 59775, Note_on_c, 9, 35, 0
11, 59820, Note_on_c, 9, 59, 100
11, 59820, Note_on_c, 9, 42, 100
11, 59835, Note_on_c, 9, 42, 0
11, 59835, Note_on_c, 9, 59, 0
11, 59880, Note_on_c, 9, 35, 127
11, 59880, Note_on_c, 9, 39, 100
11, 59895, Note_on_c, 9, 39, 0
11, 59895, Note_on_c, 9, 35, 0
11, 59940, Note_on_c, 9, 42, 100
11, 59940, Note_on_c, 9, 59, 100
11, 59955, Note_on_c, 9, 59, 0
11, 59955, Note_on_c, 9, 42, 0
11, 60000, Note_on_c, 9, 35, 127
11, 60000, Note_on_c, 9, 63, 100
11, 60015, Note_on_c, 9, 63, 0
11, 60015, Note_on_c, 9, 35, 0
11, 60060, Note_on_c, 9, 42, 100
11, 60060, Note_on_c, 9, 59, 100
11, 60075, Note_on_c, 9, 59, 0
11, 60075, Note_on_c, 9, 42, 0
11, 60090, Note_on_c, 9, 63, 100
11, 60105, Note_on_c, 9, 63, 0
11, 60120, Note_on_c, 9, 39, 100
11, 60120, Note_on_c, 9, 35, 127
11, 60120, Note_on_c, 9, 63, 100
11, 60135, Note_on_c, 9, 63, 0
11, 60135, Note_on_c, 9, 35, 0
11, 60135, Note_on_c, 9, 39, 0
11, 60180, Note_on_c, 9, 42, 100
11, 60180, Note_on_c, 9, 63, 100
11, 60180, Note_on_c, 9, 59, 100
11, 60195, Note_on_c, 9, 59, 0
11, 60195, Note_on_c, 9, 63, 0
11, 60195, Note_on_c, 9, 42, 0
11, 60240, Note_on_c, 9, 63, 100
11, 60240, Note_on_c, 9, 35, 127
11, 60255, Note_on_c, 9, 35, 0
11, 60255, Note_on_c, 9, 63, 0
11, 60300, Note_on_c, 9, 42, 100
11, 60300, Note_on_c, 9, 59, 100
11, 60315, Note_on_c, 9, 59, 0
11, 60315, Note_on_c, 9, 42, 0
11, 60330, Note_on_c, 9, 63, 100
11, 60345, Note_on_c, 9, 63, 0
11, 60360, Note_on_c, 9, 39, 100
11, 60360, Note_on_c, 9, 63, 100
11, 60360, Note_on_c, 9, 35, 127
11, 60375, Note_on_c, 9, 35, 0
11, 60375, Note_on_c, 9, 63, 0
11, 60375, Note_on_c, 9, 39, 0
11, 60420, Note_on_c, 9, 59, 100
11, 60420, Note_on_c, 9, 63, 100
11, 60420, Note_on_c, 9, 42, 100
11, 60435, Note_on_c, 9, 42, 0
11, 60435, Note_on_c, 9, 63, 0
11, 60435, Note_on_c, 9, 59, 0
11, 60480, Note_on_c, 9, 49, 100
11, 60480, Note_on_c, 9, 35, 127
11, 60495, Note_on_c, 9, 35, 0
11, 60495, Note_on_c, 9, 49, 0
11, 60540, Note_on_c, 9, 42, 100
11, 60540, Note_on_c, 9, 59, 100
11, 60555, Note_on_c, 9, 59, 0
11, 60555, Note_on_c, 9, 42, 0
11, 60600, Note_on_c, 9, 39, 100
11, 60600, Note_on_c, 9, 35, 127
11, 60615, Note_on_c, 9, 35, 0
11, 60615, Note_on_c, 9, 39, 0
11, 60660, Note_on_c, 9, 59, 100
11, 60660, Note_on_c, 9, 42, 100
11, 60675, Note_on_c, 9, 42, 0
11, 60675, Note_on_c, 9, 59, 0
11, 60720, Note_on_c, 9, 35, 127
11, 60735, Note_on_c, 9, 35, 0
11, 60780, Note_on_c, 9, 42, 100
11, 60780, Note_on_c, 9, 59, 100
11, 60795, Note_on_c, 9, 59, 0
11, 60795, Note_on_c, 9, 42, 0
11, 60840, Note_on_c, 9, 35, 127
11, 60840, Note_on_c, 9, 39, 100
11, 60855, Note_on_c, 9, 39, 0
11, 60855, Note_on_c, 9, 35, 0
11, 60900, Note_on_c, 9, 59, 100
11, 60900, Note_on_c, 9, 42, 100
11, 60915, Note_on_c, 9, 42, 0
11, 60915, Note_on_c, 9, 59, 0
11, 60960, Note_on_c, 9, 35, 127
11, 60975, Note_on_c, 9, 35, 0
11, 61020, Note_on_c, 9, 59, 100
11, 61020, Note_on_c, 9, 42, 100
11, 61035, Note_on_c, 9, 42, 0
11, 61035, Note_on_c, 9, 59, 0
11, 61080, Note_on_c, 9, 35, 127
11, 61080, Note_on_c, 9, 39, 100
11, 61095, Note_on_c, 9, 39, 0
11, 61095, Note_on_c, 9, 35, 0
11, 61140, Note_on_c, 9, 42, 100
11, 61140, Note_on_c, 9, 59, 100
11, 61155, Note_on_c, 9, 59, 0
11, 61155, Note_on_c, 9, 42, 0
11, 61200, Note_on_c, 9, 35, 127
11, 61215, Note_on_c, 9, 35, 0
11, 61260, Note_on_c, 9, 42, 100
11, 61260, Note_on_c, 9, 59, 100
11, 61275, Note_on_c, 9, 59, 0
11, 61275, Note_on_c, 9, 42, 0
11, 61320, Note_on_c, 9, 39, 100
11, 61320, Note_on_c, 9, 35, 127
11, 61335, Note_on_c, 9, 35, 0
11, 61335, Note_on_c, 9, 39, 0
11, 61380, Note_on_c, 9, 59, 100
11, 61380, Note_on_c, 9, 42, 100
11, 61395, Note_on_c, 9, 42, 0
11, 61395, Note_on_c, 9, 59, 0
11, 61440, Note_on_c, 9, 35, 127
11, 61455, Note_on_c, 9, 35, 0
11, 61500, Note_on_c, 9, 42, 100
11, 61500, Note_on_c, 9, 59, 100
11, 61515, Note_on_c, 9, 59, 0
11, 61515, Note_on_c, 9, 42, 0
11, 61560, Note_on_c, 9, 35, 127
11, 61560, Note_on_c, 9, 39, 100
11, 61575, Note_on_c, 9, 39, 0
11, 61575, Note_on_c, 9, 35, 0
11, 61620, Note_on_c, 9, 59, 100
11, 61620, Note_on_c, 9, 42, 100
11, 61635, Note_on_c, 9, 42, 0
11, 61635, Note_on_c, 9, 59, 0
11, 61680, Note_on_c, 9, 35, 127
11, 61695, Note_on_c, 9, 35, 0
11, 61740, Note_on_c, 9, 42, 100
11, 61740, Note_on_c, 9, 59, 100
11, 61755, Note_on_c, 9, 59, 0
11, 61755, Note_on_c, 9, 42, 0
11, 61800, Note_on_c, 9, 35, 127
11, 61800, Note_on_c, 9, 39, 100
11, 61815, Note_on_c, 9, 39, 0
11, 61815, Note_on_c, 9, 35, 0
11, 61860, Note_on_c, 9, 59, 100
11, 61860, Note_on_c, 9, 42, 100
11, 61875, Note_on_c, 9, 42, 0
11, 61875, Note_on_c, 9, 59, 0
11, 61920, Note_on_c, 9, 35, 127
11, 61935, Note_on_c, 9, 35, 0
11, 61980, Note_on_c, 9, 59, 100
11, 61980, Note_on_c, 9, 42, 100
11, 61995, Note_on_c, 9, 42, 0
11, 61995, Note_on_c, 9, 59, 0
11, 62040, Note_on_c, 9, 35, 127
11, 62040, Note_on_c, 9, 39, 100
11, 62055, Note_on_c, 9, 39, 0
11, 62055, Note_on_c, 9, 35, 0
11, 62100, Note_on_c, 9, 59, 100
11, 62100, Note_on_c, 9, 42, 100
11, 62115, Note_on_c, 9, 42, 0
11, 62115, Note_on_c, 9, 59, 0
11, 62160, Note_on_c, 9, 35, 127
11, 62175, Note_on_c, 9, 35, 0
11, 62220, Note_on_c, 9, 42, 100
11, 62220, Note_on_c, 9, 59, 100
11, 62235, Note_on_c, 9, 59, 0
11, 62235, Note_on_c, 9, 42, 0
11, 62280, Note_on_c, 9, 39, 100
11, 62280, Note_on_c, 9, 35, 127
11, 62295, Note_on_c, 9, 35, 0
11, 62295, Note_on_c, 9, 39, 0
11, 62340, Note_on_c, 9, 59, 100
11, 62340, Note_on_c, 9, 42, 100
11, 62355, Note_on_c, 9, 42, 0
11, 62355, Note_on_c, 9, 59, 0
11, 62400, Note_on_c, 9, 35, 127
11, 62415, Note_on_c, 9, 35, 0
11, 62460, Note_on_c, 9, 42, 100
11, 62460, Note_on_c, 9, 59, 100
11, 62475, Note_on_c, 9, 59, 0
11, 62475, Note_on_c, 9, 42, 0
11, 62520, Note_on_c, 9, 39, 100
11, 62520, Note_on_c, 9, 35, 127
11, 62535, Note_on_c, 9, 35, 0
11, 62535, Note_on_c, 9, 39, 0
11, 62580, Note_on_c, 9, 42, 100
11, 62580, Note_on_c, 9, 59, 100
11, 62595, Note_on_c, 9, 59, 0
11, 62595, Note_on_c, 9, 42, 0
11, 62640, Note_on_c, 9, 35, 127
11, 62655, Note_on_c, 9, 35, 0
11, 62700, Note_on_c, 9, 42, 100
11, 62700, Note_on_c, 9, 59, 100
11, 62715, Note_on_c, 9, 59, 0
11, 62715, Note_on_c, 9, 42, 0
11, 62760, Note_on_c, 9, 35, 127
11, 62760, Note_on_c, 9, 39, 100
11, 62775, Note_on_c, 9, 39, 0
11, 62775, Note_on_c, 9, 35, 0
11, 62820, Note_on_c, 9, 42, 100
11, 62820, Note_on_c, 9, 59, 100
11, 62835, Note_on_c, 9, 59, 0
11, 62835, Note_on_c, 9, 42, 0
11, 62880, Note_on_c, 9, 35, 127
11, 62895, Note_on_c, 9, 35, 0
11, 62940, Note_on_c, 9, 59, 100
11, 62940, Note_on_c, 9, 42, 100
11, 62955, Note_on_c, 9, 42, 0
11, 62955, Note_on_c, 9, 59, 0
11, 63000, Note_on_c, 9, 39, 100
11, 63000, Note_on_c, 9, 35, 127
11, 63015, Note_on_c, 9, 35, 0
11, 63015, Note_on_c, 9, 39, 0
11, 63060, Note_on_c, 9, 42, 100
11, 63060, Note_on_c, 9, 59, 100
11, 63075, Note_on_c, 9, 59, 0
11, 63075, Note_on_c, 9, 42, 0
11, 63120, Note_on_c, 9, 35, 127
11, 63135, Note_on_c, 9, 35, 0
11, 63180, Note_on_c, 9, 42, 100
11, 63180, Note_on_c, 9, 59, 100
11, 63195, Note_on_c, 9, 59, 0
11, 63195, Note_on_c, 9, 42, 0
11, 63240, Note_on_c, 9, 35, 127
11, 63240, Note_on_c, 9, 39, 100
11, 63255, Note_on_c, 9, 39, 0
11, 63255, Note_on_c, 9, 35, 0
11, 63300, Note_on_c, 9, 42, 100
11, 63300, Note_on_c, 9, 59, 100
11, 63315, Note_on_c, 9, 59, 0
11, 63315, Note_on_c, 9, 42, 0
11, 63360, Note_on_c, 9, 35, 127
11, 63375, Note_on_c, 9, 35, 0
11, 63420, Note_on_c, 9, 59, 100
11, 63420, Note_on_c, 9, 42, 100
11, 63435, Note_on_c, 9, 42, 0
11, 63435, Note_on_c, 9, 59, 0
11, 63480, Note_on_c, 9, 35, 127
11, 63480, Note_on_c, 9, 39, 100
11, 63495, Note_on_c, 9, 39, 0
11, 63495, Note_on_c, 9, 35, 0
11, 63540, Note_on_c, 9, 59, 100
11, 63540, Note_on_c, 9, 42, 100
11, 63555, Note_on_c, 9, 42, 0
11, 63555, Note_on_c, 9, 59, 0
11, 63600, Note_on_c, 9, 35, 127
11, 63615, Note_on_c, 9, 35, 0
11, 63660, Note_on_c, 9, 42, 100
11, 63660, Note_on_c, 9, 59, 100
11, 63675, Note_on_c, 9, 59, 0
11, 63675, Note_on_c, 9, 42, 0
11, 63720, Note_on_c, 9, 35, 127
11, 63720, Note_on_c, 9, 39, 100
11, 63735, Note_on_c, 9, 39, 0
11, 63735, Note_on_c, 9, 35, 0
11, 63780, Note_on_c, 9, 42, 100
11, 63780, Note_on_c, 9, 59, 100
11, 63795, Note_on_c, 9, 59, 0
11, 63795, Note_on_c, 9, 42, 0
11, 63840, Note_on_c, 9, 35, 127
11, 63855, Note_on_c, 9, 35, 0
11, 63900, Note_on_c, 9, 42, 100
11, 63900, Note_on_c, 9, 59, 100
11, 63915, Note_on_c, 9, 59, 0
11, 63915, Note_on_c, 9, 42, 0
11, 63960, Note_on_c, 9, 35, 127
11, 63960, Note_on_c, 9, 39, 100
11, 63975, Note_on_c, 9, 39, 0
11, 63975, Note_on_c, 9, 35, 0
11, 64020, Note_on_c, 9, 42, 100
11, 64020, Note_on_c, 9, 59, 100
11, 64035, Note_on_c, 9, 59, 0
11, 64035, Note_on_c, 9, 42, 0
11, 64080, Note_on_c, 9, 35, 127
11, 64095, Note_on_c, 9, 35, 0
11, 64140, Note_on_c, 9, 42, 100
11, 64140, Note_on_c, 9, 59, 100
11, 64155, Note_on_c, 9, 59, 0
11, 64155, Note_on_c, 9, 42, 0
11, 64200, Note_on_c, 9, 39, 100
11, 64200, Note_on_c, 9, 35, 127
11, 64215, Note_on_c, 9, 35, 0
11, 64215, Note_on_c, 9, 39, 0
11, 64260, Note_on_c, 9, 59, 100
11, 64260, Note_on_c, 9, 42, 100
11, 64275, Note_on_c, 9, 42, 0
11, 64275, Note_on_c, 9, 59, 0
11, 64320, Note_on_c, 9, 40, 60
11, 64320, Note_on_c, 9, 35, 127
11, 64335, Note_on_c, 9, 35, 0
11, 64335, Note_on_c, 9, 40, 0
11, 64350, Note_on_c, 9, 40, 70
11, 64365, Note_on_c, 9, 40, 0
11, 64380, Note_on_c, 9, 42, 100
11, 64380, Note_on_c, 9, 40, 70
11, 64380, Note_on_c, 9, 59, 100
11, 64395, Note_on_c, 9, 59, 0
11, 64395, Note_on_c, 9, 40, 0
11, 64395, Note_on_c, 9, 42, 0
11, 64410, Note_on_c, 9, 40, 70
11, 64425, Note_on_c, 9, 40, 0
11, 64440, Note_on_c, 9, 35, 127
11, 64440, Note_on_c, 9, 40, 70
11, 64440, Note_on_c, 9, 39, 100
11, 64455, Note_on_c, 9, 39, 0
11, 64455, Note_on_c, 9, 40, 0
11, 64455, Note_on_c, 9, 35, 0
11, 64470, Note_on_c, 9, 40, 70
11, 64485, Note_on_c, 9, 40, 0
11, 64500, Note_on_c, 9, 40, 70
11, 64500, Note_on_c, 9, 59, 100
11, 64500, Note_on_c, 9, 42, 100
11, 64515, Note_on_c, 9, 42, 0
11, 64515, Note_on_c, 9, 59, 0
11, 64515, Note_on_c, 9, 40, 0
11, 64530, Note_on_c, 9, 40, 70
11, 64545, Note_on_c, 9, 40, 0
11, 64560, Note_on_c, 9, 35, 127
11, 64560, Note_on_c, 9, 40, 70
11, 64575, Note_on_c, 9, 40, 0
11, 64575, Note_on_c, 9, 35, 0
11, 64590, Note_on_c, 9, 40, 70
11, 64605, Note_on_c, 9, 40, 0
11, 64620, Note_on_c, 9, 59, 100
11, 64620, Note_on_c, 9, 42, 100
11, 64620, Note_on_c, 9, 40, 70
11, 64635, Note_on_c, 9, 40, 0
11, 64635, Note_on_c, 9, 42, 0
11, 64635, Note_on_c, 9, 59, 0
11, 64650, Note_on_c, 9, 40, 70
11, 64665, Note_on_c, 9, 40, 0
11, 64680, Note_on_c, 9, 35, 127
11, 64680, Note_on_c, 9, 40, 70
11, 64680, Note_on_c, 9, 39, 100
11, 64695, Note_on_c, 9, 39, 0
11, 64695, Note_on_c, 9, 40, 0
11, 64695, Note_on_c, 9, 35, 0
11, 64710, Note_on_c, 9, 40, 70
11, 64725, Note_on_c, 9, 40, 0
11, 64740, Note_on_c, 9, 40, 70
11, 64740, Note_on_c, 9, 42, 100
11, 64740, Note_on_c, 9, 59, 100
11, 64755, Note_on_c, 9, 59, 0
11, 64755, Note_on_c, 9, 42, 0
11, 64755, Note_on_c, 9, 40, 0
11, 64770, Note_on_c, 9, 40, 70
11, 64785, Note_on_c, 9, 40, 0
11, 64800, Note_on_c, 9, 40, 70
11, 64800, Note_on_c, 9, 35, 127
11, 64815, Note_on_c, 9, 35, 0
11, 64815, Note_on_c, 9, 40, 0
11, 64830, Note_on_c, 9, 40, 70
11, 64845, Note_on_c, 9, 40, 0
11, 64860, Note_on_c, 9, 59, 100
11, 64860, Note_on_c, 9, 40, 70
11, 64860, Note_on_c, 9, 42, 100
11, 64875, Note_on_c, 9, 42, 0
11, 64875, Note_on_c, 9, 40, 0
11, 64875, Note_on_c, 9, 59, 0
11, 64890, Note_on_c, 9, 40, 70
11, 64905, Note_on_c, 9, 40, 0
11, 64920, Note_on_c, 9, 40, 70
11, 64920, Note_on_c, 9, 35, 127
11, 64920, Note_on_c, 9, 39, 100
11, 64935, Note_on_c, 9, 39, 0
11, 64935, Note_on_c, 9, 35, 0
11, 64935, Note_on_c, 9, 40, 0
11, 64950, Note_on_c, 9, 40, 70
11, 64965, Note_on_c, 9, 40, 0
11, 64980, Note_on_c, 9, 40, 70
11, 64980, Note_on_c, 9, 59, 100
11, 64980, Note_on_c, 9, 42, 100
11, 64995, Note_on_c, 9, 42, 0
11, 64995, Note_on_c, 9, 59, 0
11, 64995, Note_on_c, 9, 40, 0
11, 65010, Note_on_c, 9, 40, 70
11, 65025, Note_on_c, 9, 40, 0
11, 65040, Note_on_c, 9, 35, 127
11, 65040, Note_on_c, 9, 40, 70
11, 65055, Note_on_c, 9, 40, 0
11, 65055, Note_on_c, 9, 35, 0
11, 65070, Note_on_c, 9, 40, 70
11, 65085, Note_on_c, 9, 40, 0
11, 65100, Note_on_c, 9, 42, 100
11, 65100, Note_on_c, 9, 59, 100
11, 65100, Note_on_c, 9, 40, 70
11, 65115, Note_on_c, 9, 40, 0
11, 65115, Note_on_c, 9, 59, 0
11, 65115, Note_on_c, 9, 42, 0
11, 65130, Note_on_c, 9, 40, 70
11, 65145, Note_on_c, 9, 40, 0
11, 65160, Note_on_c, 9, 40, 70
11, 65160, Note_on_c, 9, 35, 127
11, 65160, Note_on_c, 9, 39, 100
11, 65175, Note_on_c, 9, 39, 0
11, 65175, Note_on_c, 9, 35, 0
11, 65175, Note_on_c, 9, 40, 0
11, 65190, Note_on_c, 9, 40, 70
11, 65205, Note_on_c, 9, 40, 0
11, 65220, Note_on_c, 9, 42, 100
11, 65220, Note_on_c, 9, 59, 100
11, 65220, Note_on_c, 9, 40, 70
11, 65235, Note_on_c, 9, 40, 0
11, 65235, Note_on_c, 9, 59, 0
11, 65235, Note_on_c, 9, 42, 0
11, 65250, Note_on_c, 9, 40, 70
11, 65265, Note_on_c, 9, 40, 0
11, 65280, Note_on_c, 9, 35, 127
11, 65280, Note_on_c, 9, 40, 80
11, 65295, Note_on_c, 9, 40, 0
11, 65295, Note_on_c, 9, 35, 0
11, 65310, Note_on_c, 9, 40, 80
11, 65325, Note_on_c, 9, 40, 0
11, 65340, Note_on_c, 9, 40, 80
11, 65340, Note_on_c, 9, 42, 100
11, 65340, Note_on_c, 9, 59, 100
11, 65355, Note_on_c, 9, 59, 0
11, 65355, Note_on_c, 9, 42, 0
11, 65355, Note_on_c, 9, 40, 0
11, 65370, Note_on_c, 9, 40, 80
11, 65385, Note_on_c, 9, 40, 0
11, 65400, Note_on_c, 9, 35, 127
11, 65400, Note_on_c, 9, 40, 80
11, 65400, Note_on_c, 9, 39, 100
11, 65415, Note_on_c, 9, 39, 0
11, 65415, Note_on_c, 9, 40, 0
11, 65415, Note_on_c, 9, 35, 0
11, 65430, Note_on_c, 9, 40, 80
11, 65445, Note_on_c, 9, 40, 0
11, 65460, Note_on_c, 9, 59, 100
11, 65460, Note_on_c, 9, 40, 80
11, 65460, Note_on_c, 9, 42, 100
11, 65475, Note_on_c, 9, 42, 0
11, 65475, Note_on_c, 9, 40, 0
11, 65475, Note_on_c, 9, 59, 0
11, 65490, Note_on_c, 9, 40, 80
11, 65505, Note_on_c, 9, 40, 0
11, 65520, Note_on_c, 9, 40, 80
11, 65520, Note_on_c, 9, 35, 127
11, 65535, Note_on_c, 9, 35, 0
11, 65535, Note_on_c, 9, 40, 0
11, 65550, Note_on_c, 9, 40, 80
11, 65565, Note_on_c, 9, 40, 0
11, 65580, Note_on_c, 9, 59, 100
11, 65580, Note_on_c, 9, 42, 100
11, 65580, Note_on_c, 9, 40, 80
11, 65595, Note_on_c, 9, 40, 0
11, 65595, Note_on_c, 9, 42, 0
11, 65595, Note_on_c, 9, 59, 0
11, 65610, Note_on_c, 9, 40, 80
11, 65625, Note_on_c, 9, 40, 0
11, 65640, Note_on_c, 9, 35, 127
11, 65640, Note_on_c, 9, 40, 80
11, 65640, Note_on_c, 9, 39, 100
11, 65655, Note_on_c, 9, 39, 0
11, 65655, Note_on_c, 9, 40, 0
11, 65655, Note_on_c, 9, 35, 0
11, 65670, Note_on_c, 9, 40, 80
11, 65685, Note_on_c, 9, 40, 0
11, 65700, Note_on_c, 9, 42, 100
11, 65700, Note_on_c, 9, 59, 100
11, 65700, Note_on_c, 9, 40, 80
11, 65715, Note_on_c, 9, 40, 0
11, 65715, Note_on_c, 9, 59, 0
11, 65715, Note_on_c, 9, 42, 0
11, 65730, Note_on_c, 9, 40, 80
11, 65745, Note_on_c, 9, 40, 0
11, 65760, Note_on_c, 9, 57, 100
11, 65760, Note_on_c, 9, 40, 90
11, 65760, Note_on_c, 9, 35, 127
11, 65775, Note_on_c, 9, 35, 0
11, 65775, Note_on_c, 9, 40, 0
11, 65775, Note_on_c, 9, 57, 0
11, 65775, Note_on_c, 9, 40, 100
11, 65790, Note_on_c, 9, 40, 0
11, 65790, Note_on_c, 9, 40, 90
11, 65805, Note_on_c, 9, 40, 0
11, 65805, Note_on_c, 9, 40, 100
11, 65820, Note_on_c, 9, 40, 0
11, 65820, Note_on_c, 9, 59, 100
11, 65820, Note_on_c, 9, 40, 90
11, 65820, Note_on_c, 9, 42, 100
11, 65835, Note_on_c, 9, 42, 0
11, 65835, Note_on_c, 9, 40, 0
11, 65835, Note_on_c, 9, 59, 0
11, 65835, Note_on_c, 9, 40, 100
11, 65850, Note_on_c, 9, 40, 0
11, 65850, Note_on_c, 9, 40, 90
11, 65865, Note_on_c, 9, 40, 0
11, 65865, Note_on_c, 9, 40, 90
11, 65880, Note_on_c, 9, 40, 0
11, 65880, Note_on_c, 9, 40, 90
11, 65880, Note_on_c, 9, 35, 127
11, 65895, Note_on_c, 9, 35, 0
11, 65895, Note_on_c, 9, 40, 0
11, 65895, Note_on_c, 9, 40, 90
11, 65895, Note_on_c, 9, 49, 100
11, 65910, Note_on_c, 9, 49, 0
11, 65910, Note_on_c, 9, 40, 0
11, 65910, Note_on_c, 9, 40, 90
11, 65925, Note_on_c, 9, 40, 0
11, 65925, Note_on_c, 9, 40, 90
11, 65940, Note_on_c, 9, 40, 0
11, 65940, Note_on_c, 9, 59, 100
11, 65940, Note_on_c, 9, 40, 90
11, 65940, Note_on_c, 9, 42, 100
11, 65955, Note_on_c, 9, 42, 0
11, 65955, Note_on_c, 9, 40, 0
11, 65955, Note_on_c, 9, 59, 0
11, 65955, Note_on_c, 9, 40, 90
11, 65970, Note_on_c, 9, 40, 0
11, 65970, Note_on_c, 9, 40, 90
11, 65985, Note_on_c, 9, 40, 0
11, 65985, Note_on_c, 9, 40, 90
11, 66000, Note_on_c, 9, 40, 0
11, 66000, Note_on_c, 9, 57, 100
11, 66000, Note_on_c, 9, 40, 90
11, 66000, Note_on_c, 9, 35, 127
11, 66015, Note_on_c, 9, 35, 0
11, 66015, Note_on_c, 9, 40, 0
11, 66015, Note_on_c, 9, 57, 0
11, 66015, Note_on_c, 9, 40, 90
11, 66030, Note_on_c, 9, 40, 0
11, 66030, Note_on_c, 9, 40, 90
11, 66045, Note_on_c, 9, 40, 0
11, 66045, Note_on_c, 9, 40, 90
11, 66060, Note_on_c, 9, 40, 0
11, 66060, Note_on_c, 9, 42, 100
11, 66060, Note_on_c, 9, 59, 100
11, 66060, Note_on_c, 9, 40, 90
11, 66075, Note_on_c, 9, 40, 0
11, 66075, Note_on_c, 9, 59, 0
11, 66075, Note_on_c, 9, 42, 0
11, 66075, Note_on_c, 9, 40, 90
11, 66090, Note_on_c, 9, 40, 0
11, 66090, Note_on_c, 9, 40, 90
11, 66105, Note_on_c, 9, 40, 0
11, 66105, Note_on_c, 9, 40, 90
11, 66120, Note_on_c, 9, 40, 0
11, 66120, Note_on_c, 9, 49, 100
11, 66120, Note_on_c, 9, 40, 90
11, 66120, Note_on_c, 9, 35, 127
11, 66135, Note_on_c, 9, 35, 0
11, 66135, Note_on_c, 9, 40, 0
11, 66135, Note_on_c, 9, 49, 0
11, 66135, Note_on_c, 9, 40, 90
11, 66150, Note_on_c, 9, 40, 0
11, 66150, Note_on_c, 9, 40, 90
11, 66165, Note_on_c, 9, 40, 0
11, 66165, Note_on_c, 9, 40, 90
11, 66180, Note_on_c, 9, 40, 0
11, 66180, Note_on_c, 9, 59, 100
11, 66180, Note_on_c, 9, 40, 90
11, 66195, Note_on_c, 9, 40, 0
11, 66195, Note_on_c, 9, 59, 0
11, 66195, Note_on_c, 9, 40, 90
11, 66210, Note_on_c, 9, 40, 0
11, 66210, Note_on_c, 9, 40, 90
11, 66225, Note_on_c, 9, 40, 0
11, 66225, Note_on_c, 9, 40, 90
11, 66240, Note_on_c, 9, 40, 0
11, 66240, Note_on_c, 9, 57, 100
11, 66255, Note_on_c, 9, 57, 0
11, 66255, End_track
12, 0, Start_track
12, 0, Sequencer_specific, 5, 5, 15, 9, 0, 64
12, 0, Sequencer_specific, 15, 5, 15, 6, 71, 101, 110, 101, 114, 97, 108, 32, 77, 73, 68, 73
12, 0, Title_t, ""
12, 170, Control_c, 10, 0, 64
12, 171, Control_c, 10, 32, 0
12, 172, Program_c, 10, 48
12, 173, Control_c, 10, 7, 127
12, 173, Control_c, 10, 10, 0
12, 173, End_track
13, 0, Start_track
13, 0, Sequencer_specific, 5, 5, 15, 9, 0, 64
13, 0, Sequencer_specific, 15, 5, 15, 6, 71, 101, 110, 101, 114, 97, 108, 32, 77, 73, 68, 73
13, 0, Title_t, ""
13, 175, Control_c, 11, 0, 0
13, 176, Control_c, 11, 32, 0
13, 177, Program_c, 11, 87
13, 178, Control_c, 11, 7, 102
13, 178, Control_c, 11, 10, 65
13, 376, Control_c, 11, 93, 10
13, 376, Control_c, 11, 11, 127
13, 376, Control_c, 11, 91, 100
13, 25427, Control_c, 11, 99, 1
13, 25428, Control_c, 11, 98, 33
13, 25429, Control_c, 11, 6, 66
13, 25430, Control_c, 11, 38, 52
13, 25907, Control_c, 11, 99, 1
13, 25908, Control_c, 11, 98, 32
13, 25909, Control_c, 11, 6, 23
13, 25910, Control_c, 11, 38, 56
13, 25920, Note_on_c, 11, 40, 100
13, 25950, Note_on_c, 11, 40, 0
13, 25950, Note_on_c, 11, 40, 100
13, 25980, Note_on_c, 11, 40, 0
13, 25980, Note_on_c, 11, 28, 100
13, 26010, Note_on_c, 11, 28, 0
13, 26010, Note_on_c, 11, 40, 100
13, 26040, Note_on_c, 11, 40, 0
13, 26040, Note_on_c, 11, 40, 100
13, 26070, Note_on_c, 11, 40, 0
13, 26070, Note_on_c, 11, 28, 100
13, 26100, Note_on_c, 11, 28, 0
13, 26100, Note_on_c, 11, 40, 100
13, 26160, Note_on_c, 11, 40, 0
13, 26160, Note_on_c, 11, 40, 100
13, 26190, Note_on_c, 11, 40, 0
13, 26190, Note_on_c, 11, 40, 100
13, 26220, Note_on_c, 11, 40, 0
13, 26220, Note_on_c, 11, 28, 100
13, 26250, Note_on_c, 11, 28, 0
13, 26250, Note_on_c, 11, 40, 100
13, 26280, Note_on_c, 11, 40, 0
13, 26280, Note_on_c, 11, 40, 100
13, 26310, Note_on_c, 11, 40, 0
13, 26310, Note_on_c, 11, 28, 100
13, 26340, Note_on_c, 11, 28, 0
13, 26340, Note_on_c, 11, 40, 100
13, 26400, Note_on_c, 11, 40, 0
13, 26400, Control_c, 11, 99, 1
13, 26401, Control_c, 11, 98, 32
13, 26402, Control_c, 11, 6, 25
13, 26403, Control_c, 11, 38, 0
13, 26403, Note_on_c, 11, 40, 100
13, 26430, Note_on_c, 11, 40, 0
13, 26430, Note_on_c, 11, 40, 100
13, 26460, Note_on_c, 11, 40, 0
13, 26460, Note_on_c, 11, 28, 100
13, 26490, Note_on_c, 11, 28, 0
13, 26490, Note_on_c, 11, 40, 100
13, 26520, Note_on_c, 11, 40, 0
13, 26520, Note_on_c, 11, 40, 100
13, 26550, Note_on_c, 11, 40, 0
13, 26550, Note_on_c, 11, 28, 100
13, 26580, Note_on_c, 11, 28, 0
13, 26580, Note_on_c, 11, 40, 100
13, 26640, Note_on_c, 11, 40, 0
13, 26640, Note_on_c, 11, 40, 100
13, 26670, Note_on_c, 11, 40, 0
13, 26670, Note_on_c, 11, 40, 100
13, 26700, Note_on_c, 11, 40, 0
13, 26700, Note_on_c, 11, 28, 100
13, 26730, Note_on_c, 11, 28, 0
13, 26730, Note_on_c, 11, 40, 100
13, 26760, Note_on_c, 11, 40, 0
13, 26760, Note_on_c, 11, 40, 100
13, 26790, Note_on_c, 11, 40, 0
13, 26790, Note_on_c, 11, 28, 100
13, 26820, Note_on_c, 11, 28, 0
13, 26820, Note_on_c, 11, 40, 100
13, 26880, Note_on_c, 11, 40, 0
13, 26880, Control_c, 11, 99, 1
13, 26881, Control_c, 11, 98, 32
13, 26882, Control_c, 11, 6, 25
13, 26883, Control_c, 11, 38, 100
13, 26883, Note_on_c, 11, 40, 100
13, 26910, Note_on_c, 11, 40, 0
13, 26910, Note_on_c, 11, 40, 100
13, 26940, Note_on_c, 11, 40, 0
13, 26940, Note_on_c, 11, 28, 100
13, 26970, Note_on_c, 11, 28, 0
13, 26970, Note_on_c, 11, 40, 100
13, 27000, Note_on_c, 11, 40, 0
13, 27000, Note_on_c, 11, 40, 100
13, 27030, Note_on_c, 11, 40, 0
13, 27030, Note_on_c, 11, 28, 100
13, 27060, Note_on_c, 11, 28, 0
13, 27060, Note_on_c, 11, 40, 100
13, 27120, Note_on_c, 11, 40, 0
13, 27120, Note_on_c, 11, 40, 100
13, 27150, Note_on_c, 11, 40, 0
13, 27150, Note_on_c, 11, 40, 100
13, 27180, Note_on_c, 11, 40, 0
13, 27180, Note_on_c, 11, 28, 100
13, 27210, Note_on_c, 11, 28, 0
13, 27210, Note_on_c, 11, 40, 100
13, 27240, Note_on_c, 11, 40, 0
13, 27240, Note_on_c, 11, 40, 100
13, 27270, Note_on_c, 11, 40, 0
13, 27270, Note_on_c, 11, 28, 100
13, 27300, Note_on_c, 11, 28, 0
13, 27300, Note_on_c, 11, 40, 100
13, 27360, Note_on_c, 11, 40, 0
13, 27360, Control_c, 11, 99, 1
13, 27361, Control_c, 11, 98, 32
13, 27362, Control_c, 11, 6, 26
13, 27363, Control_c, 11, 38, 72
13, 27363, Note_on_c, 11, 40, 100
13, 27390, Note_on_c, 11, 40, 0
13, 27390, Note_on_c, 11, 40, 100
13, 27420, Note_on_c, 11, 40, 0
13, 27420, Note_on_c, 11, 28, 100
13, 27450, Note_on_c, 11, 28, 0
13, 27450, Note_on_c, 11, 40, 100
13, 27480, Note_on_c, 11, 40, 0
13, 27480, Note_on_c, 11, 40, 100
13, 27510, Note_on_c, 11, 40, 0
13, 27510, Note_on_c, 11, 28, 100
13, 27540, Note_on_c, 11, 28, 0
13, 27540, Note_on_c, 11, 40, 100
13, 27600, Note_on_c, 11, 40, 0
13, 27600, Note_on_c, 11, 40, 100
13, 27630, Note_on_c, 11, 40, 0
13, 27630, Note_on_c, 11, 40, 100
13, 27660, Note_on_c, 11, 40, 0
13, 27660, Note_on_c, 11, 28, 100
13, 27690, Note_on_c, 11, 28, 0
13, 27690, Note_on_c, 11, 40, 100
13, 27720, Note_on_c, 11, 40, 0
13, 27720, Note_on_c, 11, 40, 100
13, 27750, Note_on_c, 11, 40, 0
13, 27750, Note_on_c, 11, 28, 100
13, 27780, Note_on_c, 11, 28, 0
13, 27780, Note_on_c, 11, 40, 100
13, 27840, Note_on_c, 11, 40, 0
13, 27840, Control_c, 11, 99, 1
13, 27841, Control_c, 11, 98, 32
13, 27842, Control_c, 11, 6, 27
13, 27843, Control_c, 11, 38, 44
13, 27843, Note_on_c, 11, 40, 100
13, 27870, Note_on_c, 11, 40, 0
13, 27870, Note_on_c, 11, 40, 100
13, 27900, Note_on_c, 11, 40, 0
13, 27900, Note_on_c, 11, 28, 100
13, 27930, Note_on_c, 11, 28, 0
13, 27930, Note_on_c, 11, 40, 100
13, 27960, Note_on_c, 11, 40, 0
13, 27960, Note_on_c, 11, 40, 100
13, 27990, Note_on_c, 11, 40, 0
13, 27990, Note_on_c, 11, 28, 100
13, 28020, Note_on_c, 11, 28, 0
13, 28020, Note_on_c, 11, 40, 100
13, 28080, Note_on_c, 11, 40, 0
13, 28080, Note_on_c, 11, 40, 100
13, 28110, Note_on_c, 11, 40, 0
13, 28110, Note_on_c, 11, 40, 100
13, 28140, Note_on_c, 11, 40, 0
13, 28140, Note_on_c, 11, 28, 100
13, 28170, Note_on_c, 11, 28, 0
13, 28170, Note_on_c, 11, 40, 100
13, 28200, Note_on_c, 11, 40, 0
13, 28200, Note_on_c, 11, 40, 100
13, 28230, Note_on_c, 11, 40, 0
13, 28230, Note_on_c, 11, 28, 100
13, 28260, Note_on_c, 11, 28, 0
13, 28260, Note_on_c, 11, 40, 100
13, 28320, Note_on_c, 11, 40, 0
13, 28320, Control_c, 11, 99, 1
13, 28321, Control_c, 11, 98, 32
13, 28322, Control_c, 11, 6, 28
13, 28323, Control_c, 11, 38, 16
13, 28323, Note_on_c, 11, 40, 100
13, 28350, Note_on_c, 11, 40, 0
13, 28350, Note_on_c, 11, 40, 100
13, 28380, Note_on_c, 11, 40, 0
13, 28380, Note_on_c, 11, 28, 100
13, 28410, Note_on_c, 11, 28, 0
13, 28410, Note_on_c, 11, 40, 100
13, 28440, Note_on_c, 11, 40, 0
13, 28440, Note_on_c, 11, 40, 100
13, 28470, Note_on_c, 11, 40, 0
13, 28470, Note_on_c, 11, 28, 100
13, 28500, Note_on_c, 11, 28, 0
13, 28500, Note_on_c, 11, 40, 100
13, 28560, Note_on_c, 11, 40, 0
13, 28560, Note_on_c, 11, 40, 100
13, 28590, Note_on_c, 11, 40, 0
13, 28590, Note_on_c, 11, 40, 100
13, 28620, Note_on_c, 11, 40, 0
13, 28620, Note_on_c, 11, 28, 100
13, 28650, Note_on_c, 11, 28, 0
13, 28650, Note_on_c, 11, 40, 100
13, 28680, Note_on_c, 11, 40, 0
13, 28680, Note_on_c, 11, 40, 100
13, 28710, Note_on_c, 11, 40, 0
13, 28710, Note_on_c, 11, 28, 100
13, 28740, Note_on_c, 11, 28, 0
13, 28740, Note_on_c, 11, 40, 100
13, 28800, Note_on_c, 11, 40, 0
13, 28800, Control_c, 11, 99, 1
13, 28801, Control_c, 11, 98, 32
13, 28802, Control_c, 11, 6, 28
13, 28803, Control_c, 11, 38, 116
13, 28803, Note_on_c, 11, 40, 100
13, 28830, Note_on_c, 11, 40, 0
13, 28830, Note_on_c, 11, 40, 100
13, 28860, Note_on_c, 11, 40, 0
13, 28860, Note_on_c, 11, 28, 100
13, 28890, Note_on_c, 11, 28, 0
13, 28890, Note_on_c, 11, 40, 100
13, 28920, Note_on_c, 11, 40, 0
13, 28920, Note_on_c, 11, 40, 100
13, 28950, Note_on_c, 11, 40, 0
13, 28950, Note_on_c, 11, 28, 100
13, 28980, Note_on_c, 11, 28, 0
13, 28980, Note_on_c, 11, 40, 100
13, 29040, Note_on_c, 11, 40, 0
13, 29040, Note_on_c, 11, 40, 100
13, 29070, Note_on_c, 11, 40, 0
13, 29070, Note_on_c, 11, 40, 100
13, 29100, Note_on_c, 11, 40, 0
13, 29100, Note_on_c, 11, 28, 100
13, 29130, Note_on_c, 11, 28, 0
13, 29130, Note_on_c, 11, 40, 100
13, 29160, Note_on_c, 11, 40, 0
13, 29160, Note_on_c, 11, 40, 100
13, 29190, Note_on_c, 11, 40, 0
13, 29190, Note_on_c, 11, 28, 100
13, 29220, Note_on_c, 11, 28, 0
13, 29220, Note_on_c, 11, 40, 100
13, 29280, Note_on_c, 11, 40, 0
13, 29280, Control_c, 11, 99, 1
13, 29281, Control_c, 11, 98, 32
13, 29282, Control_c, 11, 6, 29
13, 29283, Control_c, 11, 38, 88
13, 29283, Note_on_c, 11, 40, 100
13, 29310, Note_on_c, 11, 40, 0
13, 29310, Note_on_c, 11, 40, 100
13, 29340, Note_on_c, 11, 40, 0
13, 29340, Note_on_c, 11, 28, 100
13, 29370, Note_on_c, 11, 28, 0
13, 29370, Note_on_c, 11, 40, 100
13, 29400, Note_on_c, 11, 40, 0
13, 29400, Note_on_c, 11, 40, 100
13, 29430, Note_on_c, 11, 40, 0
13, 29430, Note_on_c, 11, 28, 100
13, 29460, Note_on_c, 11, 28, 0
13, 29460, Note_on_c, 11, 40, 100
13, 29520, Note_on_c, 11, 40, 0
13, 29520, Note_on_c, 11, 40, 100
13, 29550, Note_on_c, 11, 40, 0
13, 29550, Note_on_c, 11, 40, 100
13, 29580, Note_on_c, 11, 40, 0
13, 29580, Note_on_c, 11, 28, 100
13, 29610, Note_on_c, 11, 28, 0
13, 29610, Note_on_c, 11, 40, 100
13, 29640, Note_on_c, 11, 40, 0
13, 29640, Note_on_c, 11, 40, 100
13, 29670, Note_on_c, 11, 40, 0
13, 29670, Note_on_c, 11, 28, 100
13, 29700, Note_on_c, 11, 28, 0
13, 29700, Note_on_c, 11, 40, 100
13, 29760, Note_on_c, 11, 40, 0
13, 29760, Control_c, 11, 99, 1
13, 29761, Control_c, 11, 98, 32
13, 29762, Control_c, 11, 6, 30
13, 29763, Control_c, 11, 38, 60
13, 29763, Note_on_c, 11, 40, 100
13, 29790, Note_on_c, 11, 40, 0
13, 29790, Note_on_c, 11, 40, 100
13, 29820, Note_on_c, 11, 40, 0
13, 29820, Note_on_c, 11, 28, 100
13, 29850, Note_on_c, 11, 28, 0
13, 29850, Note_on_c, 11, 40, 100
13, 29880, Note_on_c, 11, 40, 0
13, 29880, Note_on_c, 11, 40, 100
13, 29910, Note_on_c, 11, 40, 0
13, 29910, Note_on_c, 11, 28, 100
13, 29940, Note_on_c, 11, 28, 0
13, 29940, Note_on_c, 11, 40, 100
13, 30000, Note_on_c, 11, 40, 0
13, 30000, Note_on_c, 11, 40, 100
13, 30030, Note_on_c, 11, 40, 0
13, 30030, Note_on_c, 11, 40, 100
13, 30060, Note_on_c, 11, 40, 0
13, 30060, Note_on_c, 11, 28, 100
13, 30090, Note_on_c, 11, 28, 0
13, 30090, Note_on_c, 11, 40, 100
13, 30120, Note_on_c, 11, 40, 0
13, 30120, Note_on_c, 11, 40, 100
13, 30150, Note_on_c, 11, 40, 0
13, 30150, Note_on_c, 11, 28, 100
13, 30180, Note_on_c, 11, 28, 0
13, 30180, Note_on_c, 11, 40, 100
13, 30240, Note_on_c, 11, 40, 0
13, 30240, Control_c, 11, 99, 1
13, 30241, Control_c, 11, 98, 32
13, 30242, Control_c, 11, 6, 31
13, 30243, Control_c, 11, 38, 32
13, 30243, Note_on_c, 11, 40, 100
13, 30270, Note_on_c, 11, 40, 0
13, 30270, Note_on_c, 11, 40, 100
13, 30300, Note_on_c, 11, 40, 0
13, 30300, Note_on_c, 11, 28, 100
13, 30330, Note_on_c, 11, 28, 0
13, 30330, Note_on_c, 11, 40, 100
13, 30360, Note_on_c, 11, 40, 0
13, 30360, Note_on_c, 11, 40, 100
13, 30390, Note_on_c, 11, 40, 0
13, 30390, Note_on_c, 11, 28, 100
13, 30420, Note_on_c, 11, 28, 0
13, 30420, Note_on_c, 11, 40, 100
13, 30480, Note_on_c, 11, 40, 0
13, 30480, Note_on_c, 11, 40, 100
13, 30510, Note_on_c, 11, 40, 0
13, 30510, Note_on_c, 11, 40, 100
13, 30540, Note_on_c, 11, 40, 0
13, 30540, Note_on_c, 11, 28, 100
13, 30570, Note_on_c, 11, 28, 0
13, 30570, Note_on_c, 11, 40, 100
13, 30600, Note_on_c, 11, 40, 0
13, 30600, Note_on_c, 11, 40, 100
13, 30630, Note_on_c, 11, 40, 0
13, 30630, Note_on_c, 11, 28, 100
13, 30660, Note_on_c, 11, 28, 0
13, 30660, Note_on_c, 11, 40, 100
13, 30720, Note_on_c, 11, 40, 0
13, 30720, Control_c, 11, 99, 1
13, 30721, Control_c, 11, 98, 32
13, 30722, Control_c, 11, 6, 32
13, 30723, Control_c, 11, 38, 104
13, 30723, Note_on_c, 11, 40, 100
13, 30750, Note_on_c, 11, 40, 0
13, 30750, Note_on_c, 11, 40, 100
13, 30780, Note_on_c, 11, 40, 0
13, 30780, Note_on_c, 11, 28, 100
13, 30810, Note_on_c, 11, 28, 0
13, 30810, Note_on_c, 11, 40, 100
13, 30840, Note_on_c, 11, 40, 0
13, 30840, Note_on_c, 11, 40, 100
13, 30870, Note_on_c, 11, 40, 0
13, 30870, Note_on_c, 11, 28, 100
13, 30900, Note_on_c, 11, 28, 0
13, 30900, Note_on_c, 11, 40, 100
13, 30960, Note_on_c, 11, 40, 0
13, 30960, Note_on_c, 11, 40, 100
13, 30990, Note_on_c, 11, 40, 0
13, 30990, Note_on_c, 11, 40, 100
13, 31020, Note_on_c, 11, 40, 0
13, 31020, Note_on_c, 11, 28, 100
13, 31050, Note_on_c, 11, 28, 0
13, 31050, Note_on_c, 11, 40, 100
13, 31080, Note_on_c, 11, 40, 0
13, 31080, Note_on_c, 11, 40, 100
13, 31110, Note_on_c, 11, 40, 0
13, 31110, Note_on_c, 11, 28, 100
13, 31140, Note_on_c, 11, 28, 0
13, 31140, Note_on_c, 11, 40, 100
13, 31200, Note_on_c, 11, 40, 0
13, 31200, Control_c, 11, 99, 1
13, 31201, Control_c, 11, 98, 32
13, 31202, Control_c, 11, 6, 34
13, 31203, Control_c, 11, 38, 48
13, 31203, Note_on_c, 11, 40, 100
13, 31230, Note_on_c, 11, 40, 0
13, 31230, Note_on_c, 11, 40, 100
13, 31260, Note_on_c, 11, 40, 0
13, 31260, Note_on_c, 11, 28, 100
13, 31290, Note_on_c, 11, 28, 0
13, 31290, Note_on_c, 11, 40, 100
13, 31320, Note_on_c, 11, 40, 0
13, 31320, Note_on_c, 11, 40, 100
13, 31350, Note_on_c, 11, 40, 0
13, 31350, Note_on_c, 11, 28, 100
13, 31380, Note_on_c, 11, 28, 0
13, 31380, Note_on_c, 11, 40, 100
13, 31440, Note_on_c, 11, 40, 0
13, 31440, Note_on_c, 11, 40, 100
13, 31470, Note_on_c, 11, 40, 0
13, 31470, Note_on_c, 11, 40, 100
13, 31500, Note_on_c, 11, 40, 0
13, 31500, Note_on_c, 11, 28, 100
13, 31530, Note_on_c, 11, 28, 0
13, 31530, Note_on_c, 11, 40, 100
13, 31560, Note_on_c, 11, 40, 0
13, 31560, Note_on_c, 11, 40, 100
13, 31590, Note_on_c, 11, 40, 0
13, 31590, Note_on_c, 11, 28, 100
13, 31620, Note_on_c, 11, 28, 0
13, 31620, Note_on_c, 11, 40, 100
13, 31680, Note_on_c, 11, 40, 0
13, 31680, Control_c, 11, 99, 1
13, 31681, Control_c, 11, 98, 32
13, 31682, Control_c, 11, 6, 35
13, 31683, Control_c, 11, 38, 120
13, 31683, Note_on_c, 11, 40, 100
13, 31710, Note_on_c, 11, 40, 0
13, 31710, Note_on_c, 11, 40, 100
13, 31740, Note_on_c, 11, 40, 0
13, 31740, Note_on_c, 11, 28, 100
13, 31770, Note_on_c, 11, 28, 0
13, 31770, Note_on_c, 11, 40, 100
13, 31800, Note_on_c, 11, 40, 0
13, 31800, Note_on_c, 11, 40, 100
13, 31830, Note_on_c, 11, 40, 0
13, 31830, Note_on_c, 11, 28, 100
13, 31860, Note_on_c, 11, 28, 0
13, 31860, Note_on_c, 11, 40, 100
13, 31920, Note_on_c, 11, 40, 0
13, 31920, Note_on_c, 11, 40, 100
13, 31950, Note_on_c, 11, 40, 0
13, 31950, Note_on_c, 11, 40, 100
13, 31980, Note_on_c, 11, 40, 0
13, 31980, Note_on_c, 11, 28, 100
13, 32010, Note_on_c, 11, 28, 0
13, 32010, Note_on_c, 11, 40, 100
13, 32040, Note_on_c, 11, 40, 0
13, 32040, Note_on_c, 11, 40, 100
13, 32070, Note_on_c, 11, 40, 0
13, 32070, Note_on_c, 11, 28, 100
13, 32100, Note_on_c, 11, 28, 0
13, 32100, Note_on_c, 11, 40, 100
13, 32160, Note_on_c, 11, 40, 0
13, 32160, Control_c, 11, 99, 1
13, 32161, Control_c, 11, 98, 32
13, 32162, Control_c, 11, 6, 37
13, 32163, Control_c, 11, 38, 64
13, 32163, Note_on_c, 11, 40, 100
13, 32190, Note_on_c, 11, 40, 0
13, 32190, Note_on_c, 11, 40, 100
13, 32220, Note_on_c, 11, 40, 0
13, 32220, Note_on_c, 11, 28, 100
13, 32250, Note_on_c, 11, 28, 0
13, 32250, Note_on_c, 11, 40, 100
13, 32280, Note_on_c, 11, 40, 0
13, 32280, Note_on_c, 11, 40, 100
13, 32310, Note_on_c, 11, 40, 0
13, 32310, Note_on_c, 11, 28, 100
13, 32340, Note_on_c, 11, 28, 0
13, 32340, Note_on_c, 11, 40, 100
13, 32400, Note_on_c, 11, 40, 0
13, 32400, Note_on_c, 11, 40, 100
13, 32430, Note_on_c, 11, 40, 0
13, 32430, Note_on_c, 11, 40, 100
13, 32460, Note_on_c, 11, 40, 0
13, 32460, Note_on_c, 11, 28, 100
13, 32490, Note_on_c, 11, 28, 0
13, 32490, Note_on_c, 11, 40, 100
13, 32520, Note_on_c, 11, 40, 0
13, 32520, Note_on_c, 11, 40, 100
13, 32550, Note_on_c, 11, 40, 0
13, 32550, Note_on_c, 11, 28, 100
13, 32580, Note_on_c, 11, 28, 0
13, 32580, Note_on_c, 11, 40, 100
13, 32640, Note_on_c, 11, 40, 0
13, 32640, Control_c, 11, 99, 1
13, 32641, Control_c, 11, 98, 32
13, 32642, Control_c, 11, 6, 39
13, 32643, Control_c, 11, 38, 8
13, 32643, Note_on_c, 11, 40, 100
13, 32670, Note_on_c, 11, 40, 0
13, 32670, Note_on_c, 11, 40, 100
13, 32700, Note_on_c, 11, 40, 0
13, 32700, Note_on_c, 11, 28, 100
13, 32730, Note_on_c, 11, 28, 0
13, 32730, Note_on_c, 11, 40, 100
13, 32760, Note_on_c, 11, 40, 0
13, 32760, Note_on_c, 11, 40, 100
13, 32790, Note_on_c, 11, 40, 0
13, 32790, Note_on_c, 11, 28, 100
13, 32820, Note_on_c, 11, 28, 0
13, 32820, Note_on_c, 11, 40, 100
13, 32880, Note_on_c, 11, 40, 0
13, 32880, Note_on_c, 11, 40, 100
13, 32910, Note_on_c, 11, 40, 0
13, 32910, Note_on_c, 11, 40, 100
13, 32940, Note_on_c, 11, 40, 0
13, 32940, Note_on_c, 11, 28, 100
13, 32970, Note_on_c, 11, 28, 0
13, 32970, Note_on_c, 11, 40, 100
13, 33000, Note_on_c, 11, 40, 0
13, 33000, Note_on_c, 11, 40, 100
13, 33030, Note_on_c, 11, 40, 0
13, 33030, Note_on_c, 11, 28, 100
13, 33060, Note_on_c, 11, 28, 0
13, 33060, Note_on_c, 11, 40, 100
13, 33120, Note_on_c, 11, 40, 0
13, 33120, Control_c, 11, 99, 1
13, 33121, Control_c, 11, 98, 32
13, 33122, Control_c, 11, 6, 40
13, 33123, Control_c, 11, 38, 80
13, 33123, Note_on_c, 11, 40, 100
13, 33150, Note_on_c, 11, 40, 0
13, 33150, Note_on_c, 11, 40, 100
13, 33180, Note_on_c, 11, 40, 0
13, 33180, Note_on_c, 11, 28, 100
13, 33210, Note_on_c, 11, 28, 0
13, 33210, Note_on_c, 11, 40, 100
13, 33240, Note_on_c, 11, 40, 0
13, 33240, Note_on_c, 11, 40, 100
13, 33270, Note_on_c, 11, 40, 0
13, 33270, Note_on_c, 11, 28, 100
13, 33300, Note_on_c, 11, 28, 0
13, 33300, Note_on_c, 11, 40, 100
13, 33360, Note_on_c, 11, 40, 0
13, 33360, Note_on_c, 11, 40, 100
13, 33390, Note_on_c, 11, 40, 0
13, 33390, Note_on_c, 11, 40, 100
13, 33420, Note_on_c, 11, 40, 0
13, 33420, Note_on_c, 11, 28, 100
13, 33450, Note_on_c, 11, 28, 0
13, 33450, Note_on_c, 11, 40, 100
13, 33480, Note_on_c, 11, 40, 0
13, 33480, Note_on_c, 11, 40, 100
13, 33510, Note_on_c, 11, 40, 0
13, 33510, Note_on_c, 11, 28, 100
13, 33540, Note_on_c, 11, 28, 0
13, 33540, Note_on_c, 11, 40, 100
13, 33600, Note_on_c, 11, 40, 0
13, 33600, Control_c, 11, 99, 1
13, 33601, Control_c, 11, 98, 32
13, 33602, Control_c, 11, 6, 42
13, 33603, Control_c, 11, 38, 24
13, 33603, Note_on_c, 11, 40, 100
13, 33630, Note_on_c, 11, 40, 0
13, 33630, Note_on_c, 11, 40, 100
13, 33660, Note_on_c, 11, 40, 0
13, 33660, Note_on_c, 11, 28, 100
13, 33690, Note_on_c, 11, 28, 0
13, 33690, Note_on_c, 11, 40, 100
13, 33720, Note_on_c, 11, 40, 0
13, 33720, Note_on_c, 11, 40, 100
13, 33750, Note_on_c, 11, 40, 0
13, 33750, Note_on_c, 11, 28, 100
13, 33780, Note_on_c, 11, 28, 0
13, 33780, Note_on_c, 11, 40, 100
13, 33840, Note_on_c, 11, 40, 0
13, 33840, Note_on_c, 11, 40, 100
13, 33870, Note_on_c, 11, 40, 0
13, 33870, Note_on_c, 11, 40, 100
13, 33900, Note_on_c, 11, 40, 0
13, 33900, Note_on_c, 11, 28, 100
13, 33930, Note_on_c, 11, 28, 0
13, 33930, Note_on_c, 11, 40, 100
13, 33960, Note_on_c, 11, 40, 0
13, 33960, Note_on_c, 11, 40, 100
13, 33990, Note_on_c, 11, 40, 0
13, 33990, Note_on_c, 11, 28, 100
13, 34020, Note_on_c, 11, 28, 0
13, 34020, Note_on_c, 11, 40, 100
13, 34080, Note_on_c, 11, 40, 0
13, 34080, Control_c, 11, 99, 1
13, 34081, Control_c, 11, 98, 32
13, 34082, Control_c, 11, 6, 43
13, 34083, Control_c, 11, 38, 96
13, 34083, Note_on_c, 11, 40, 100
13, 34110, Note_on_c, 11, 40, 0
13, 34110, Note_on_c, 11, 40, 100
13, 34140, Note_on_c, 11, 40, 0
13, 34140, Note_on_c, 11, 28, 100
13, 34170, Note_on_c, 11, 28, 0
13, 34170, Note_on_c, 11, 40, 100
13, 34200, Note_on_c, 11, 40, 0
13, 34200, Note_on_c, 11, 40, 100
13, 34230, Note_on_c, 11, 40, 0
13, 34230, Note_on_c, 11, 28, 100
13, 34260, Note_on_c, 11, 28, 0
13, 34260, Note_on_c, 11, 40, 100
13, 34320, Note_on_c, 11, 40, 0
13, 34320, Note_on_c, 11, 40, 100
13, 34350, Note_on_c, 11, 40, 0
13, 34350, Note_on_c, 11, 40, 100
13, 34380, Note_on_c, 11, 40, 0
13, 34380, Note_on_c, 11, 28, 100
13, 34410, Note_on_c, 11, 28, 0
13, 34410, Note_on_c, 11, 40, 100
13, 34440, Note_on_c, 11, 40, 0
13, 34440, Note_on_c, 11, 40, 100
13, 34470, Note_on_c, 11, 40, 0
13, 34470, Note_on_c, 11, 28, 100
13, 34500, Note_on_c, 11, 28, 0
13, 34500, Note_on_c, 11, 40, 100
13, 34560, Note_on_c, 11, 40, 0
13, 34560, Control_c, 11, 99, 1
13, 34561, Control_c, 11, 98, 32
13, 34562, Control_c, 11, 6, 45
13, 34563, Control_c, 11, 38, 40
13, 34563, Note_on_c, 11, 40, 100
13, 34590, Note_on_c, 11, 40, 0
13, 34590, Note_on_c, 11, 40, 100
13, 34620, Note_on_c, 11, 40, 0
13, 34620, Note_on_c, 11, 28, 100
13, 34650, Note_on_c, 11, 28, 0
13, 34650, Note_on_c, 11, 40, 100
13, 34680, Note_on_c, 11, 40, 0
13, 34680, Note_on_c, 11, 40, 100
13, 34710, Note_on_c, 11, 40, 0
13, 34710, Note_on_c, 11, 28, 100
13, 34740, Note_on_c, 11, 28, 0
13, 34740, Note_on_c, 11, 40, 100
13, 34800, Note_on_c, 11, 40, 0
13, 34800, Note_on_c, 11, 40, 100
13, 34830, Note_on_c, 11, 40, 0
13, 34830, Note_on_c, 11, 40, 100
13, 34860, Note_on_c, 11, 40, 0
13, 34860, Note_on_c, 11, 28, 100
13, 34890, Note_on_c, 11, 28, 0
13, 34890, Note_on_c, 11, 40, 100
13, 34920, Note_on_c, 11, 40, 0
13, 34920, Note_on_c, 11, 40, 100
13, 34950, Note_on_c, 11, 40, 0
13, 34950, Note_on_c, 11, 28, 100
13, 34980, Note_on_c, 11, 28, 0
13, 34980, Note_on_c, 11, 40, 100
13, 35040, Note_on_c, 11, 40, 0
13, 35040, Control_c, 11, 99, 1
13, 35041, Control_c, 11, 98, 32
13, 35042, Control_c, 11, 6, 46
13, 35043, Control_c, 11, 38, 112
13, 35043, Note_on_c, 11, 40, 100
13, 35070, Note_on_c, 11, 40, 0
13, 35070, Note_on_c, 11, 40, 100
13, 35100, Note_on_c, 11, 40, 0
13, 35100, Note_on_c, 11, 28, 100
13, 35130, Note_on_c, 11, 28, 0
13, 35130, Note_on_c, 11, 40, 100
13, 35160, Note_on_c, 11, 40, 0
13, 35160, Note_on_c, 11, 40, 100
13, 35190, Note_on_c, 11, 40, 0
13, 35190, Note_on_c, 11, 28, 100
13, 35220, Note_on_c, 11, 28, 0
13, 35220, Note_on_c, 11, 40, 100
13, 35280, Note_on_c, 11, 40, 0
13, 35280, Note_on_c, 11, 40, 100
13, 35310, Note_on_c, 11, 40, 0
13, 35310, Note_on_c, 11, 40, 100
13, 35340, Note_on_c, 11, 40, 0
13, 35340, Note_on_c, 11, 28, 100
13, 35370, Note_on_c, 11, 28, 0
13, 35370, Note_on_c, 11, 40, 100
13, 35400, Note_on_c, 11, 40, 0
13, 35400, Note_on_c, 11, 40, 100
13, 35430, Note_on_c, 11, 40, 0
13, 35430, Note_on_c, 11, 28, 100
13, 35460, Note_on_c, 11, 28, 0
13, 35460, Note_on_c, 11, 40, 100
13, 35520, Note_on_c, 11, 40, 0
13, 35520, Control_c, 11, 99, 1
13, 35521, Control_c, 11, 98, 32
13, 35522, Control_c, 11, 6, 48
13, 35523, Control_c, 11, 38, 56
13, 35523, Note_on_c, 11, 40, 100
13, 35550, Note_on_c, 11, 40, 0
13, 35550, Note_on_c, 11, 40, 100
13, 35580, Note_on_c, 11, 40, 0
13, 35580, Note_on_c, 11, 28, 100
13, 35610, Note_on_c, 11, 28, 0
13, 35610, Note_on_c, 11, 40, 100
13, 35640, Note_on_c, 11, 40, 0
13, 35640, Note_on_c, 11, 40, 100
13, 35670, Note_on_c, 11, 40, 0
13, 35670, Note_on_c, 11, 28, 100
13, 35700, Note_on_c, 11, 28, 0
13, 35700, Note_on_c, 11, 40, 100
13, 35760, Note_on_c, 11, 40, 0
13, 35760, Note_on_c, 11, 40, 100
13, 35790, Note_on_c, 11, 40, 0
13, 35790, Note_on_c, 11, 40, 100
13, 35820, Note_on_c, 11, 40, 0
13, 35820, Note_on_c, 11, 28, 100
13, 35850, Note_on_c, 11, 28, 0
13, 35850, Note_on_c, 11, 40, 100
13, 35880, Note_on_c, 11, 40, 0
13, 35880, Note_on_c, 11, 40, 100
13, 35910, Note_on_c, 11, 40, 0
13, 35910, Note_on_c, 11, 28, 100
13, 35940, Note_on_c, 11, 28, 0
13, 35940, Note_on_c, 11, 40, 100
13, 36000, Note_on_c, 11, 40, 0
13, 36000, Control_c, 11, 99, 1
13, 36001, Control_c, 11, 98, 32
13, 36002, Control_c, 11, 6, 50
13, 36003, Control_c, 11, 38, 0
13, 36003, Note_on_c, 11, 40, 100
13, 36030, Note_on_c, 11, 40, 0
13, 36030, Note_on_c, 11, 40, 100
13, 36060, Note_on_c, 11, 40, 0
13, 36060, Note_on_c, 11, 28, 100
13, 36090, Note_on_c, 11, 28, 0
13, 36090, Note_on_c, 11, 40, 100
13, 36120, Note_on_c, 11, 40, 0
13, 36120, Note_on_c, 11, 40, 100
13, 36150, Note_on_c, 11, 40, 0
13, 36150, Note_on_c, 11, 28, 100
13, 36180, Note_on_c, 11, 28, 0
13, 36180, Note_on_c, 11, 40, 100
13, 36240, Note_on_c, 11, 40, 0
13, 36240, Note_on_c, 11, 40, 100
13, 36270, Note_on_c, 11, 40, 0
13, 36270, Note_on_c, 11, 40, 100
13, 36300, Note_on_c, 11, 40, 0
13, 36300, Note_on_c, 11, 28, 100
13, 36330, Note_on_c, 11, 28, 0
13, 36330, Note_on_c, 11, 40, 100
13, 36360, Note_on_c, 11, 40, 0
13, 36360, Note_on_c, 11, 40, 100
13, 36390, Note_on_c, 11, 40, 0
13, 36390, Note_on_c, 11, 28, 100
13, 36420, Note_on_c, 11, 28, 0
13, 36420, Note_on_c, 11, 40, 100
13, 36480, Note_on_c, 11, 40, 0
13, 36480, Control_c, 11, 99, 1
13, 36481, Control_c, 11, 98, 32
13, 36482, Control_c, 11, 6, 51
13, 36483, Control_c, 11, 38, 72
13, 36483, Note_on_c, 11, 40, 100
13, 36510, Note_on_c, 11, 40, 0
13, 36510, Note_on_c, 11, 40, 100
13, 36540, Note_on_c, 11, 40, 0
13, 36540, Note_on_c, 11, 28, 100
13, 36570, Note_on_c, 11, 28, 0
13, 36570, Note_on_c, 11, 40, 100
13, 36600, Note_on_c, 11, 40, 0
13, 36600, Note_on_c, 11, 40, 100
13, 36630, Note_on_c, 11, 40, 0
13, 36630, Note_on_c, 11, 28, 100
13, 36660, Note_on_c, 11, 28, 0
13, 36660, Note_on_c, 11, 40, 100
13, 36720, Note_on_c, 11, 40, 0
13, 36720, Note_on_c, 11, 40, 100
13, 36750, Note_on_c, 11, 40, 0
13, 36750, Note_on_c, 11, 40, 100
13, 36780, Note_on_c, 11, 40, 0
13, 36780, Note_on_c, 11, 28, 100
13, 36810, Note_on_c, 11, 28, 0
13, 36810, Note_on_c, 11, 40, 100
13, 36840, Note_on_c, 11, 40, 0
13, 36840, Note_on_c, 11, 40, 100
13, 36870, Note_on_c, 11, 40, 0
13, 36870, Note_on_c, 11, 28, 100
13, 36900, Note_on_c, 11, 28, 0
13, 36900, Note_on_c, 11, 40, 100
13, 36960, Note_on_c, 11, 40, 0
13, 36960, Control_c, 11, 99, 1
13, 36961, Control_c, 11, 98, 32
13, 36962, Control_c, 11, 6, 53
13, 36963, Control_c, 11, 38, 116
13, 36963, Note_on_c, 11, 40, 100
13, 36990, Note_on_c, 11, 40, 0
13, 36990, Note_on_c, 11, 40, 100
13, 37020, Note_on_c, 11, 40, 0
13, 37020, Note_on_c, 11, 28, 100
13, 37050, Note_on_c, 11, 28, 0
13, 37050, Note_on_c, 11, 40, 100
13, 37080, Note_on_c, 11, 40, 0
13, 37080, Note_on_c, 11, 40, 100
13, 37110, Note_on_c, 11, 40, 0
13, 37110, Note_on_c, 11, 28, 100
13, 37140, Note_on_c, 11, 28, 0
13, 37140, Note_on_c, 11, 40, 100
13, 37200, Note_on_c, 11, 40, 0
13, 37200, Note_on_c, 11, 40, 100
13, 37230, Note_on_c, 11, 40, 0
13, 37230, Note_on_c, 11, 40, 100
13, 37260, Note_on_c, 11, 40, 0
13, 37260, Note_on_c, 11, 28, 100
13, 37290, Note_on_c, 11, 28, 0
13, 37290, Note_on_c, 11, 40, 100
13, 37320, Note_on_c, 11, 40, 0
13, 37320, Note_on_c, 11, 40, 100
13, 37350, Note_on_c, 11, 40, 0
13, 37350, Note_on_c, 11, 28, 100
13, 37380, Note_on_c, 11, 28, 0
13, 37380, Note_on_c, 11, 40, 100
13, 37440, Note_on_c, 11, 40, 0
13, 37440, Control_c, 11, 99, 1
13, 37441, Control_c, 11, 98, 32
13, 37442, Control_c, 11, 6, 58
13, 37443, Control_c, 11, 38, 76
13, 37443, Note_on_c, 11, 40, 100
13, 37470, Note_on_c, 11, 40, 0
13, 37470, Note_on_c, 11, 40, 100
13, 37500, Note_on_c, 11, 40, 0
13, 37500, Note_on_c, 11, 28, 100
13, 37530, Note_on_c, 11, 28, 0
13, 37530, Note_on_c, 11, 40, 100
13, 37560, Note_on_c, 11, 40, 0
13, 37560, Note_on_c, 11, 40, 100
13, 37590, Note_on_c, 11, 40, 0
13, 37590, Note_on_c, 11, 28, 100
13, 37620, Note_on_c, 11, 28, 0
13, 37620, Note_on_c, 11, 40, 100
13, 37680, Note_on_c, 11, 40, 0
13, 37680, Note_on_c, 11, 40, 100
13, 37710, Note_on_c, 11, 40, 0
13, 37710, Note_on_c, 11, 40, 100
13, 37740, Note_on_c, 11, 40, 0
13, 37740, Note_on_c, 11, 28, 100
13, 37770, Note_on_c, 11, 28, 0
13, 37770, Note_on_c, 11, 40, 100
13, 37800, Note_on_c, 11, 40, 0
13, 37800, Note_on_c, 11, 40, 100
13, 37830, Note_on_c, 11, 40, 0
13, 37830, Note_on_c, 11, 28, 100
13, 37860, Note_on_c, 11, 28, 0
13, 37860, Note_on_c, 11, 40, 100
13, 37920, Note_on_c, 11, 40, 0
13, 37920, Control_c, 11, 99, 1
13, 37921, Control_c, 11, 98, 32
13, 37922, Control_c, 11, 6, 62
13, 37923, Control_c, 11, 38, 64
13, 37923, Note_on_c, 11, 40, 100
13, 37950, Note_on_c, 11, 40, 0
13, 37950, Note_on_c, 11, 40, 100
13, 37980, Note_on_c, 11, 40, 0
13, 37980, Note_on_c, 11, 28, 100
13, 38010, Note_on_c, 11, 28, 0
13, 38010, Note_on_c, 11, 40, 100
13, 38040, Note_on_c, 11, 40, 0
13, 38040, Note_on_c, 11, 40, 100
13, 38070, Note_on_c, 11, 40, 0
13, 38070, Note_on_c, 11, 28, 100
13, 38100, Note_on_c, 11, 28, 0
13, 38100, Note_on_c, 11, 40, 100
13, 38160, Note_on_c, 11, 40, 0
13, 38160, Note_on_c, 11, 40, 100
13, 38190, Note_on_c, 11, 40, 0
13, 38190, Note_on_c, 11, 40, 100
13, 38220, Note_on_c, 11, 40, 0
13, 38220, Note_on_c, 11, 28, 100
13, 38250, Note_on_c, 11, 28, 0
13, 38250, Note_on_c, 11, 40, 100
13, 38280, Note_on_c, 11, 40, 0
13, 38280, Note_on_c, 11, 40, 100
13, 38310, Note_on_c, 11, 40, 0
13, 38310, Note_on_c, 11, 28, 100
13, 38340, Note_on_c, 11, 28, 0
13, 38340, Note_on_c, 11, 40, 100
13, 38400, Note_on_c, 11, 40, 0
13, 38400, Control_c, 11, 99, 1
13, 38401, Control_c, 11, 98, 32
13, 38402, Control_c, 11, 6, 66
13, 38403, Control_c, 11, 38, 52
13, 38403, Note_on_c, 11, 40, 100
13, 38430, Note_on_c, 11, 40, 0
13, 38430, Note_on_c, 11, 40, 100
13, 38460, Note_on_c, 11, 40, 0
13, 38460, Note_on_c, 11, 28, 100
13, 38490, Note_on_c, 11, 28, 0
13, 38490, Note_on_c, 11, 40, 100
13, 38520, Note_on_c, 11, 40, 0
13, 38520, Note_on_c, 11, 40, 100
13, 38550, Note_on_c, 11, 40, 0
13, 38550, Note_on_c, 11, 28, 100
13, 38580, Note_on_c, 11, 28, 0
13, 38580, Note_on_c, 11, 40, 100
13, 38640, Note_on_c, 11, 40, 0
13, 38640, Note_on_c, 11, 40, 100
13, 38670, Note_on_c, 11, 40, 0
13, 38670, Note_on_c, 11, 40, 100
13, 38700, Note_on_c, 11, 40, 0
13, 38700, Note_on_c, 11, 28, 100
13, 38730, Note_on_c, 11, 28, 0
13, 38730, Note_on_c, 11, 40, 100
13, 38760, Note_on_c, 11, 40, 0
13, 38760, Note_on_c, 11, 40, 100
13, 38790, Note_on_c, 11, 40, 0
13, 38790, Note_on_c, 11, 28, 100
13, 38820, Note_on_c, 11, 28, 0
13, 38820, Note_on_c, 11, 40, 100
13, 38880, Note_on_c, 11, 40, 0
13, 38880, Control_c, 11, 99, 1
13, 38881, Control_c, 11, 98, 32
13, 38882, Control_c, 11, 6, 70
13, 38883, Control_c, 11, 38, 40
13, 38883, Note_on_c, 11, 40, 100
13, 38910, Note_on_c, 11, 40, 0
13, 38910, Note_on_c, 11, 40, 100
13, 38940, Note_on_c, 11, 40, 0
13, 38940, Note_on_c, 11, 28, 100
13, 38970, Note_on_c, 11, 28, 0
13, 38970, Note_on_c, 11, 40, 100
13, 39000, Note_on_c, 11, 40, 0
13, 39000, Note_on_c, 11, 40, 100
13, 39030, Note_on_c, 11, 40, 0
13, 39030, Note_on_c, 11, 28, 100
13, 39060, Note_on_c, 11, 28, 0
13, 39060, Note_on_c, 11, 40, 100
13, 39120, Note_on_c, 11, 40, 0
13, 39120, Note_on_c, 11, 40, 100
13, 39150, Note_on_c, 11, 40, 0
13, 39150, Note_on_c, 11, 40, 100
13, 39180, Note_on_c, 11, 40, 0
13, 39180, Note_on_c, 11, 28, 100
13, 39210, Note_on_c, 11, 28, 0
13, 39210, Note_on_c, 11, 40, 100
13, 39240, Note_on_c, 11, 40, 0
13, 39240, Note_on_c, 11, 40, 100
13, 39270, Note_on_c, 11, 40, 0
13, 39270, Note_on_c, 11, 28, 100
13, 39300, Note_on_c, 11, 28, 0
13, 39300, Note_on_c, 11, 40, 100
13, 39360, Note_on_c, 11, 40, 0
13, 39360, Control_c, 11, 99, 1
13, 39361, Control_c, 11, 98, 32
13, 39362, Control_c, 11, 6, 85
13, 39363, Control_c, 11, 38, 120
13, 39363, Note_on_c, 11, 40, 100
13, 39390, Note_on_c, 11, 40, 0
13, 39390, Note_on_c, 11, 40, 100
13, 39420, Note_on_c, 11, 40, 0
13, 39420, Note_on_c, 11, 28, 100
13, 39450, Note_on_c, 11, 28, 0
13, 39450, Note_on_c, 11, 40, 100
13, 39480, Note_on_c, 11, 40, 0
13, 39480, Note_on_c, 11, 40, 100
13, 39510, Note_on_c, 11, 40, 0
13, 39510, Note_on_c, 11, 28, 100
13, 39540, Note_on_c, 11, 28, 0
13, 39540, Note_on_c, 11, 40, 100
13, 39600, Note_on_c, 11, 40, 0
13, 39600, Note_on_c, 11, 40, 100
13, 39630, Note_on_c, 11, 40, 0
13, 39630, Note_on_c, 11, 40, 100
13, 39660, Note_on_c, 11, 40, 0
13, 39660, Note_on_c, 11, 28, 100
13, 39690, Note_on_c, 11, 28, 0
13, 39690, Note_on_c, 11, 40, 100
13, 39720, Note_on_c, 11, 40, 0
13, 39720, Note_on_c, 11, 40, 100
13, 39750, Note_on_c, 11, 40, 0
13, 39750, Note_on_c, 11, 28, 100
13, 39780, Note_on_c, 11, 28, 0
13, 39780, Note_on_c, 11, 40, 100
13, 39840, Note_on_c, 11, 40, 0
13, 39840, Note_on_c, 11, 45, 100
13, 39870, Note_on_c, 11, 45, 0
13, 39870, Note_on_c, 11, 45, 100
13, 39900, Note_on_c, 11, 45, 0
13, 39900, Note_on_c, 11, 33, 100
13, 39930, Note_on_c, 11, 33, 0
13, 39930, Note_on_c, 11, 45, 100
13, 39960, Note_on_c, 11, 45, 0
13, 39960, Note_on_c, 11, 45, 100
13, 39990, Note_on_c, 11, 45, 0
13, 39990, Note_on_c, 11, 33, 100
13, 40020, Note_on_c, 11, 33, 0
13, 40020, Note_on_c, 11, 45, 100
13, 40080, Note_on_c, 11, 45, 0
13, 40080, Note_on_c, 11, 43, 100
13, 40110, Note_on_c, 11, 43, 0
13, 40110, Note_on_c, 11, 43, 100
13, 40140, Note_on_c, 11, 43, 0
13, 40140, Note_on_c, 11, 31, 100
13, 40170, Note_on_c, 11, 31, 0
13, 40170, Note_on_c, 11, 43, 100
13, 40200, Note_on_c, 11, 43, 0
13, 40200, Note_on_c, 11, 43, 100
13, 40230, Note_on_c, 11, 43, 0
13, 40230, Note_on_c, 11, 31, 100
13, 40260, Note_on_c, 11, 31, 0
13, 40260, Note_on_c, 11, 43, 100
13, 40320, Note_on_c, 11, 43, 0
13, 40320, Note_on_c, 11, 40, 100
13, 40350, Note_on_c, 11, 40, 0
13, 40350, Note_on_c, 11, 40, 100
13, 40380, Note_on_c, 11, 40, 0
13, 40380, Note_on_c, 11, 28, 100
13, 40410, Note_on_c, 11, 28, 0
13, 40410, Note_on_c, 11, 40, 100
13, 40440, Note_on_c, 11, 40, 0
13, 40440, Note_on_c, 11, 40, 100
13, 40470, Note_on_c, 11, 40, 0
13, 40470, Note_on_c, 11, 28, 100
13, 40500, Note_on_c, 11, 28, 0
13, 40500, Note_on_c, 11, 40, 100
13, 40560, Note_on_c, 11, 40, 0
13, 40560, Note_on_c, 11, 40, 100
13, 40590, Note_on_c, 11, 40, 0
13, 40590, Note_on_c, 11, 40, 100
13, 40620, Note_on_c, 11, 40, 0
13, 40620, Note_on_c, 11, 28, 100
13, 40650, Note_on_c, 11, 28, 0
13, 40650, Note_on_c, 11, 40, 100
13, 40680, Note_on_c, 11, 40, 0
13, 40680, Note_on_c, 11, 40, 100
13, 40710, Note_on_c, 11, 40, 0
13, 40710, Note_on_c, 11, 28, 100
13, 40740, Note_on_c, 11, 28, 0
13, 40740, Note_on_c, 11, 40, 100
13, 40800, Note_on_c, 11, 40, 0
13, 40800, Note_on_c, 11, 40, 100
13, 40830, Note_on_c, 11, 40, 0
13, 40830, Note_on_c, 11, 40, 100
13, 40860, Note_on_c, 11, 40, 0
13, 40860, Note_on_c, 11, 28, 100
13, 40890, Note_on_c, 11, 28, 0
13, 40890, Note_on_c, 11, 40, 100
13, 40920, Note_on_c, 11, 40, 0
13, 40920, Note_on_c, 11, 40, 100
13, 40950, Note_on_c, 11, 40, 0
13, 40950, Note_on_c, 11, 28, 100
13, 40980, Note_on_c, 11, 28, 0
13, 40980, Note_on_c, 11, 40, 100
13, 41040, Note_on_c, 11, 40, 0
13, 41040, Note_on_c, 11, 40, 100
13, 41070, Note_on_c, 11, 40, 0
13, 41070, Note_on_c, 11, 40, 100
13, 41100, Note_on_c, 11, 40, 0
13, 41100, Note_on_c, 11, 28, 100
13, 41130, Note_on_c, 11, 28, 0
13, 41130, Note_on_c, 11, 40, 100
13, 41160, Note_on_c, 11, 40, 0
13, 41160, Note_on_c, 11, 40, 100
13, 41190, Note_on_c, 11, 40, 0
13, 41190, Note_on_c, 11, 28, 100
13, 41220, Note_on_c, 11, 28, 0
13, 41220, Note_on_c, 11, 40, 100
13, 41280, Note_on_c, 11, 40, 0
13, 41280, Note_on_c, 11, 40, 100
13, 41310, Note_on_c, 11, 40, 0
13, 41310, Note_on_c, 11, 40, 100
13, 41340, Note_on_c, 11, 40, 0
13, 41340, Note_on_c, 11, 28, 100
13, 41370, Note_on_c, 11, 28, 0
13, 41370, Note_on_c, 11, 40, 100
13, 41400, Note_on_c, 11, 40, 0
13, 41400, Note_on_c, 11, 40, 100
13, 41430, Note_on_c, 11, 40, 0
13, 41430, Note_on_c, 11, 28, 100
13, 41460, Note_on_c, 11, 28, 0
13, 41460, Note_on_c, 11, 40, 100
13, 41520, Note_on_c, 11, 40, 0
13, 41520, Note_on_c, 11, 40, 100
13, 41550, Note_on_c, 11, 40, 0
13, 41550, Note_on_c, 11, 40, 100
13, 41580, Note_on_c, 11, 40, 0
13, 41580, Note_on_c, 11, 28, 100
13, 41610, Note_on_c, 11, 28, 0
13, 41610, Note_on_c, 11, 40, 100
13, 41640, Note_on_c, 11, 40, 0
13, 41640, Note_on_c, 11, 40, 100
13, 41670, Note_on_c, 11, 40, 0
13, 41670, Note_on_c, 11, 28, 100
13, 41700, Note_on_c, 11, 28, 0
13, 41700, Note_on_c, 11, 40, 100
13, 41760, Note_on_c, 11, 40, 0
13, 41760, Note_on_c, 11, 45, 100
13, 41790, Note_on_c, 11, 45, 0
13, 41790, Note_on_c, 11, 45, 100
13, 41820, Note_on_c, 11, 45, 0
13, 41820, Note_on_c, 11, 33, 100
13, 41850, Note_on_c, 11, 33, 0
13, 41850, Note_on_c, 11, 45, 100
13, 41880, Note_on_c, 11, 45, 0
13, 41880, Note_on_c, 11, 45, 100
13, 41910, Note_on_c, 11, 45, 0
13, 41910, Note_on_c, 11, 33, 100
13, 41940, Note_on_c, 11, 33, 0
13, 41940, Note_on_c, 11, 45, 100
13, 42000, Note_on_c, 11, 45, 0
13, 42000, Note_on_c, 11, 43, 100
13, 42030, Note_on_c, 11, 43, 0
13, 42030, Note_on_c, 11, 43, 100
13, 42060, Note_on_c, 11, 43, 0
13, 42060, Note_on_c, 11, 31, 100
13, 42090, Note_on_c, 11, 31, 0
13, 42090, Note_on_c, 11, 43, 100
13, 42120, Note_on_c, 11, 43, 0
13, 42120, Note_on_c, 11, 43, 100
13, 42150, Note_on_c, 11, 43, 0
13, 42150, Note_on_c, 11, 31, 100
13, 42180, Note_on_c, 11, 31, 0
13, 42180, Note_on_c, 11, 43, 100
13, 42240, Note_on_c, 11, 43, 0
13, 42240, Note_on_c, 11, 40, 100
13, 42270, Note_on_c, 11, 40, 0
13, 42270, Note_on_c, 11, 40, 100
13, 42300, Note_on_c, 11, 40, 0
13, 42300, Note_on_c, 11, 28, 100
13, 42330, Note_on_c, 11, 28, 0
13, 42330, Note_on_c, 11, 40, 100
13, 42360, Note_on_c, 11, 40, 0
13, 42360, Note_on_c, 11, 40, 100
13, 42390, Note_on_c, 11, 40, 0
13, 42390, Note_on_c, 11, 28, 100
13, 42420, Note_on_c, 11, 28, 0
13, 42420, Note_on_c, 11, 40, 100
13, 42480, Note_on_c, 11, 40, 0
13, 42480, Note_on_c, 11, 40, 100
13, 42510, Note_on_c, 11, 40, 0
13, 42510, Note_on_c, 11, 40, 100
13, 42540, Note_on_c, 11, 40, 0
13, 42540, Note_on_c, 11, 28, 100
13, 42570, Note_on_c, 11, 28, 0
13, 42570, Note_on_c, 11, 40, 100
13, 42600, Note_on_c, 11, 40, 0
13, 42600, Note_on_c, 11, 40, 100
13, 42630, Note_on_c, 11, 40, 0
13, 42630, Note_on_c, 11, 28, 100
13, 42660, Note_on_c, 11, 28, 0
13, 42660, Note_on_c, 11, 40, 100
13, 42720, Note_on_c, 11, 40, 0
13, 42720, Note_on_c, 11, 40, 100
13, 42750, Note_on_c, 11, 40, 0
13, 42750, Note_on_c, 11, 40, 100
13, 42780, Note_on_c, 11, 40, 0
13, 42780, Note_on_c, 11, 28, 100
13, 42810, Note_on_c, 11, 28, 0
13, 42810, Note_on_c, 11, 40, 100
13, 42840, Note_on_c, 11, 40, 0
13, 42840, Note_on_c, 11, 40, 100
13, 42870, Note_on_c, 11, 40, 0
13, 42870, Note_on_c, 11, 28, 100
13, 42900, Note_on_c, 11, 28, 0
13, 42900, Note_on_c, 11, 40, 100
13, 42960, Note_on_c, 11, 40, 0
13, 42960, Note_on_c, 11, 40, 100
13, 42990, Note_on_c, 11, 40, 0
13, 42990, Note_on_c, 11, 40, 100
13, 43020, Note_on_c, 11, 40, 0
13, 43020, Note_on_c, 11, 28, 100
13, 43050, Note_on_c, 11, 28, 0
13, 43050, Note_on_c, 11, 40, 100
13, 43080, Note_on_c, 11, 40, 0
13, 43080, Note_on_c, 11, 40, 100
13, 43110, Note_on_c, 11, 40, 0
13, 43110, Note_on_c, 11, 28, 100
13, 43140, Note_on_c, 11, 28, 0
13, 43140, Note_on_c, 11, 40, 100
13, 43200, Note_on_c, 11, 40, 0
13, 43200, Note_on_c, 11, 40, 100
13, 43230, Note_on_c, 11, 40, 0
13, 43230, Note_on_c, 11, 40, 100
13, 43260, Note_on_c, 11, 40, 0
13, 43260, Note_on_c, 11, 28, 100
13, 43290, Note_on_c, 11, 28, 0
13, 43290, Note_on_c, 11, 40, 100
13, 43320, Note_on_c, 11, 40, 0
13, 43320, Note_on_c, 11, 40, 100
13, 43350, Note_on_c, 11, 40, 0
13, 43350, Note_on_c, 11, 28, 100
13, 43380, Note_on_c, 11, 28, 0
13, 43380, Note_on_c, 11, 40, 100
13, 43440, Note_on_c, 11, 40, 0
13, 43440, Note_on_c, 11, 40, 100
13, 43470, Note_on_c, 11, 40, 0
13, 43470, Note_on_c, 11, 40, 100
13, 43500, Note_on_c, 11, 40, 0
13, 43500, Note_on_c, 11, 28, 100
13, 43530, Note_on_c, 11, 28, 0
13, 43530, Note_on_c, 11, 40, 100
13, 43560, Note_on_c, 11, 40, 0
13, 43560, Note_on_c, 11, 40, 100
13, 43590, Note_on_c, 11, 40, 0
13, 43590, Note_on_c, 11, 28, 100
13, 43620, Note_on_c, 11, 28, 0
13, 43620, Note_on_c, 11, 40, 100
13, 43680, Note_on_c, 11, 40, 0
13, 43680, Note_on_c, 11, 45, 100
13, 43710, Note_on_c, 11, 45, 0
13, 43710, Note_on_c, 11, 45, 100
13, 43740, Note_on_c, 11, 45, 0
13, 43740, Note_on_c, 11, 33, 100
13, 43770, Note_on_c, 11, 33, 0
13, 43770, Note_on_c, 11, 45, 100
13, 43800, Note_on_c, 11, 45, 0
13, 43800, Note_on_c, 11, 45, 100
13, 43830, Note_on_c, 11, 45, 0
13, 43830, Note_on_c, 11, 33, 100
13, 43860, Note_on_c, 11, 33, 0
13, 43860, Note_on_c, 11, 45, 100
13, 43920, Note_on_c, 11, 45, 0
13, 43920, Note_on_c, 11, 43, 100
13, 43950, Note_on_c, 11, 43, 0
13, 43950, Note_on_c, 11, 43, 100
13, 43980, Note_on_c, 11, 43, 0
13, 43980, Note_on_c, 11, 31, 100
13, 44010, Note_on_c, 11, 31, 0
13, 44010, Note_on_c, 11, 43, 100
13, 44040, Note_on_c, 11, 43, 0
13, 44040, Note_on_c, 11, 43, 100
13, 44070, Note_on_c, 11, 43, 0
13, 44070, Note_on_c, 11, 31, 100
13, 44100, Note_on_c, 11, 31, 0
13, 44100, Note_on_c, 11, 43, 100
13, 44160, Note_on_c, 11, 43, 0
13, 44160, Note_on_c, 11, 40, 100
13, 44190, Note_on_c, 11, 40, 0
13, 44190, Note_on_c, 11, 40, 100
13, 44220, Note_on_c, 11, 40, 0
13, 44220, Note_on_c, 11, 28, 100
13, 44250, Note_on_c, 11, 28, 0
13, 44250, Note_on_c, 11, 40, 100
13, 44280, Note_on_c, 11, 40, 0
13, 44280, Note_on_c, 11, 40, 100
13, 44310, Note_on_c, 11, 40, 0
13, 44310, Note_on_c, 11, 28, 100
13, 44340, Note_on_c, 11, 28, 0
13, 44340, Note_on_c, 11, 40, 100
13, 44400, Note_on_c, 11, 40, 0
13, 44400, Note_on_c, 11, 40, 100
13, 44430, Note_on_c, 11, 40, 0
13, 44430, Note_on_c, 11, 40, 100
13, 44460, Note_on_c, 11, 40, 0
13, 44460, Note_on_c, 11, 28, 100
13, 44490, Note_on_c, 11, 28, 0
13, 44490, Note_on_c, 11, 40, 100
13, 44520, Note_on_c, 11, 40, 0
13, 44520, Note_on_c, 11, 40, 100
13, 44550, Note_on_c, 11, 40, 0
13, 44550, Note_on_c, 11, 28, 100
13, 44580, Note_on_c, 11, 28, 0
13, 44580, Note_on_c, 11, 40, 100
13, 44640, Note_on_c, 11, 40, 0
13, 44640, Note_on_c, 11, 40, 100
13, 44670, Note_on_c, 11, 40, 0
13, 44670, Note_on_c, 11, 40, 100
13, 44700, Note_on_c, 11, 40, 0
13, 44700, Note_on_c, 11, 28, 100
13, 44730, Note_on_c, 11, 28, 0
13, 44730, Note_on_c, 11, 40, 100
13, 44760, Note_on_c, 11, 40, 0
13, 44760, Note_on_c, 11, 40, 100
13, 44790, Note_on_c, 11, 40, 0
13, 44790, Note_on_c, 11, 28, 100
13, 44820, Note_on_c, 11, 28, 0
13, 44820, Note_on_c, 11, 40, 100
13, 44880, Note_on_c, 11, 40, 0
13, 44880, Note_on_c, 11, 40, 100
13, 44910, Note_on_c, 11, 40, 0
13, 44910, Note_on_c, 11, 40, 100
13, 44940, Note_on_c, 11, 40, 0
13, 44940, Note_on_c, 11, 28, 100
13, 44970, Note_on_c, 11, 28, 0
13, 44970, Note_on_c, 11, 40, 100
13, 45000, Note_on_c, 11, 40, 0
13, 45000, Note_on_c, 11, 40, 100
13, 45030, Note_on_c, 11, 40, 0
13, 45030, Note_on_c, 11, 28, 100
13, 45060, Note_on_c, 11, 28, 0
13, 45060, Note_on_c, 11, 40, 100
13, 45120, Note_on_c, 11, 40, 0
13, 45120, Note_on_c, 11, 40, 100
13, 45150, Note_on_c, 11, 40, 0
13, 45150, Note_on_c, 11, 40, 100
13, 45180, Note_on_c, 11, 40, 0
13, 45180, Note_on_c, 11, 28, 100
13, 45210, Note_on_c, 11, 28, 0
13, 45210, Note_on_c, 11, 40, 100
13, 45240, Note_on_c, 11, 40, 0
13, 45240, Note_on_c, 11, 40, 100
13, 45270, Note_on_c, 11, 40, 0
13, 45270, Note_on_c, 11, 28, 100
13, 45300, Note_on_c, 11, 28, 0
13, 45300, Note_on_c, 11, 40, 100
13, 45360, Note_on_c, 11, 40, 0
13, 45360, Note_on_c, 11, 40, 100
13, 45390, Note_on_c, 11, 40, 0
13, 45390, Note_on_c, 11, 40, 100
13, 45420, Note_on_c, 11, 40, 0
13, 45420, Note_on_c, 11, 28, 100
13, 45450, Note_on_c, 11, 28, 0
13, 45450, Note_on_c, 11, 40, 100
13, 45480, Note_on_c, 11, 40, 0
13, 45480, Note_on_c, 11, 40, 100
13, 45510, Note_on_c, 11, 40, 0
13, 45510, Note_on_c, 11, 28, 100
13, 45540, Note_on_c, 11, 28, 0
13, 45540, Note_on_c, 11, 40, 100
13, 45600, Note_on_c, 11, 40, 0
13, 45600, Note_on_c, 11, 45, 100
13, 45630, Note_on_c, 11, 45, 0
13, 45630, Note_on_c, 11, 45, 100
13, 45660, Note_on_c, 11, 45, 0
13, 45660, Note_on_c, 11, 33, 100
13, 45690, Note_on_c, 11, 33, 0
13, 45690, Note_on_c, 11, 45, 100
13, 45720, Note_on_c, 11, 45, 0
13, 45720, Note_on_c, 11, 45, 100
13, 45750, Note_on_c, 11, 45, 0
13, 45750, Note_on_c, 11, 33, 100
13, 45780, Note_on_c, 11, 33, 0
13, 45780, Note_on_c, 11, 45, 100
13, 45840, Note_on_c, 11, 45, 0
13, 45840, Note_on_c, 11, 43, 100
13, 45870, Note_on_c, 11, 43, 0
13, 45870, Note_on_c, 11, 43, 100
13, 45900, Note_on_c, 11, 43, 0
13, 45900, Note_on_c, 11, 31, 100
13, 45930, Note_on_c, 11, 31, 0
13, 45930, Note_on_c, 11, 43, 100
13, 45960, Note_on_c, 11, 43, 0
13, 45960, Note_on_c, 11, 43, 100
13, 45990, Note_on_c, 11, 43, 0
13, 45990, Note_on_c, 11, 31, 100
13, 46020, Note_on_c, 11, 31, 0
13, 46020, Note_on_c, 11, 43, 100
13, 46080, Note_on_c, 11, 43, 0
13, 46080, Note_on_c, 11, 40, 100
13, 46110, Note_on_c, 11, 40, 0
13, 46110, Note_on_c, 11, 40, 100
13, 46140, Note_on_c, 11, 40, 0
13, 46140, Note_on_c, 11, 28, 100
13, 46170, Note_on_c, 11, 28, 0
13, 46170, Note_on_c, 11, 40, 100
13, 46200, Note_on_c, 11, 40, 0
13, 46200, Note_on_c, 11, 40, 100
13, 46230, Note_on_c, 11, 40, 0
13, 46230, Note_on_c, 11, 28, 100
13, 46260, Note_on_c, 11, 28, 0
13, 46260, Note_on_c, 11, 40, 100
13, 46320, Note_on_c, 11, 40, 0
13, 46320, Note_on_c, 11, 40, 100
13, 46350, Note_on_c, 11, 40, 0
13, 46350, Note_on_c, 11, 40, 100
13, 46380, Note_on_c, 11, 40, 0
13, 46380, Note_on_c, 11, 28, 100
13, 46410, Note_on_c, 11, 28, 0
13, 46410, Note_on_c, 11, 40, 100
13, 46440, Note_on_c, 11, 40, 0
13, 46440, Note_on_c, 11, 40, 100
13, 46470, Note_on_c, 11, 40, 0
13, 46470, Note_on_c, 11, 28, 100
13, 46500, Note_on_c, 11, 28, 0
13, 46500, Note_on_c, 11, 40, 100
13, 46560, Note_on_c, 11, 40, 0
13, 46560, Note_on_c, 11, 40, 100
13, 46590, Note_on_c, 11, 40, 0
13, 46590, Note_on_c, 11, 40, 100
13, 46620, Note_on_c, 11, 40, 0
13, 46620, Note_on_c, 11, 28, 100
13, 46650, Note_on_c, 11, 28, 0
13, 46650, Note_on_c, 11, 40, 100
13, 46680, Note_on_c, 11, 40, 0
13, 46680, Note_on_c, 11, 40, 100
13, 46710, Note_on_c, 11, 40, 0
13, 46710, Note_on_c, 11, 28, 100
13, 46740, Note_on_c, 11, 28, 0
13, 46740, Note_on_c, 11, 40, 100
13, 46800, Note_on_c, 11, 40, 0
13, 46800, Note_on_c, 11, 40, 100
13, 46830, Note_on_c, 11, 40, 0
13, 46830, Note_on_c, 11, 40, 100
13, 46860, Note_on_c, 11, 40, 0
13, 46860, Note_on_c, 11, 28, 100
13, 46890, Note_on_c, 11, 28, 0
13, 46890, Note_on_c, 11, 40, 100
13, 46920, Note_on_c, 11, 40, 0
13, 46920, Note_on_c, 11, 40, 100
13, 46950, Note_on_c, 11, 40, 0
13, 46950, Note_on_c, 11, 28, 100
13, 46980, Note_on_c, 11, 28, 0
13, 46980, Note_on_c, 11, 40, 100
13, 47040, Note_on_c, 11, 40, 0
13, 47040, Note_on_c, 11, 40, 100
13, 47070, Note_on_c, 11, 40, 0
13, 47070, Note_on_c, 11, 40, 100
13, 47100, Note_on_c, 11, 40, 0
13, 47100, Note_on_c, 11, 28, 100
13, 47130, Note_on_c, 11, 28, 0
13, 47130, Note_on_c, 11, 40, 100
13, 47160, Note_on_c, 11, 40, 0
13, 47160, Note_on_c, 11, 40, 100
13, 47190, Note_on_c, 11, 40, 0
13, 47190, Note_on_c, 11, 28, 100
13, 47220, Note_on_c, 11, 28, 0
13, 47220, Note_on_c, 11, 40, 100
13, 47280, Note_on_c, 11, 40, 0
13, 47280, Note_on_c, 11, 40, 100
13, 47310, Note_on_c, 11, 40, 0
13, 47310, Note_on_c, 11, 40, 100
13, 47340, Note_on_c, 11, 40, 0
13, 47340, Note_on_c, 11, 28, 100
13, 47370, Note_on_c, 11, 28, 0
13, 47370, Note_on_c, 11, 40, 100
13, 47400, Note_on_c, 11, 40, 0
13, 47400, Note_on_c, 11, 40, 100
13, 47430, Note_on_c, 11, 40, 0
13, 47430, Note_on_c, 11, 28, 100
13, 47460, Note_on_c, 11, 28, 0
13, 47460, Note_on_c, 11, 40, 100
13, 47520, Note_on_c, 11, 40, 0
13, 47520, Note_on_c, 11, 40, 100
13, 47550, Note_on_c, 11, 40, 0
13, 47550, Note_on_c, 11, 40, 100
13, 47580, Note_on_c, 11, 40, 0
13, 47580, Note_on_c, 11, 28, 100
13, 47610, Note_on_c, 11, 28, 0
13, 47610, Note_on_c, 11, 40, 100
13, 47640, Note_on_c, 11, 40, 0
13, 47640, Note_on_c, 11, 40, 100
13, 47670, Note_on_c, 11, 40, 0
13, 47670, Note_on_c, 11, 28, 100
13, 47700, Note_on_c, 11, 28, 0
13, 47700, Note_on_c, 11, 40, 100
13, 47760, Note_on_c, 11, 40, 0
13, 47760, Note_on_c, 11, 40, 100
13, 47790, Note_on_c, 11, 40, 0
13, 47790, Note_on_c, 11, 40, 100
13, 47820, Note_on_c, 11, 40, 0
13, 47820, Note_on_c, 11, 28, 100
13, 47850, Note_on_c, 11, 28, 0
13, 47850, Note_on_c, 11, 40, 100
13, 47880, Note_on_c, 11, 40, 0
13, 47880, Note_on_c, 11, 40, 100
13, 47910, Note_on_c, 11, 40, 0
13, 47910, Note_on_c, 11, 28, 100
13, 47940, Note_on_c, 11, 28, 0
13, 47940, Note_on_c, 11, 40, 100
13, 48000, Note_on_c, 11, 40, 0
13, 48000, Note_on_c, 11, 40, 100
13, 48030, Note_on_c, 11, 40, 0
13, 48030, Note_on_c, 11, 40, 100
13, 48060, Note_on_c, 11, 40, 0
13, 48060, Note_on_c, 11, 28, 100
13, 48090, Note_on_c, 11, 28, 0
13, 48090, Note_on_c, 11, 40, 100
13, 48120, Note_on_c, 11, 40, 0
13, 48120, Note_on_c, 11, 40, 100
13, 48150, Note_on_c, 11, 40, 0
13, 48150, Note_on_c, 11, 28, 100
13, 48180, Note_on_c, 11, 28, 0
13, 48180, Note_on_c, 11, 40, 100
13, 48240, Note_on_c, 11, 40, 0
13, 48240, Note_on_c, 11, 40, 100
13, 48270, Note_on_c, 11, 40, 0
13, 48270, Note_on_c, 11, 40, 100
13, 48300, Note_on_c, 11, 40, 0
13, 48300, Note_on_c, 11, 28, 100
13, 48330, Note_on_c, 11, 28, 0
13, 48330, Note_on_c, 11, 40, 100
13, 48360, Note_on_c, 11, 40, 0
13, 48360, Note_on_c, 11, 40, 100
13, 48390, Note_on_c, 11, 40, 0
13, 48390, Note_on_c, 11, 28, 100
13, 48420, Note_on_c, 11, 28, 0
13, 48420, Note_on_c, 11, 40, 100
13, 48480, Note_on_c, 11, 40, 0
13, 48480, Note_on_c, 11, 45, 100
13, 48510, Note_on_c, 11, 45, 0
13, 48510, Note_on_c, 11, 45, 100
13, 48540, Note_on_c, 11, 45, 0
13, 48540, Note_on_c, 11, 33, 100
13, 48570, Note_on_c, 11, 33, 0
13, 48570, Note_on_c, 11, 45, 100
13, 48600, Note_on_c, 11, 45, 0
13, 48600, Note_on_c, 11, 45, 100
13, 48630, Note_on_c, 11, 45, 0
13, 48630, Note_on_c, 11, 33, 100
13, 48660, Note_on_c, 11, 33, 0
13, 48660, Note_on_c, 11, 45, 100
13, 48720, Note_on_c, 11, 45, 0
13, 48720, Note_on_c, 11, 43, 100
13, 48750, Note_on_c, 11, 43, 0
13, 48750, Note_on_c, 11, 43, 100
13, 48780, Note_on_c, 11, 43, 0
13, 48780, Note_on_c, 11, 31, 100
13, 48810, Note_on_c, 11, 31, 0
13, 48810, Note_on_c, 11, 43, 100
13, 48840, Note_on_c, 11, 43, 0
13, 48840, Note_on_c, 11, 43, 100
13, 48870, Note_on_c, 11, 43, 0
13, 48870, Note_on_c, 11, 31, 100
13, 48900, Note_on_c, 11, 31, 0
13, 48900, Note_on_c, 11, 43, 100
13, 48960, Note_on_c, 11, 43, 0
13, 48960, Note_on_c, 11, 40, 100
13, 48990, Note_on_c, 11, 40, 0
13, 48990, Note_on_c, 11, 40, 100
13, 49020, Note_on_c, 11, 40, 0
13, 49020, Note_on_c, 11, 28, 100
13, 49050, Note_on_c, 11, 28, 0
13, 49050, Note_on_c, 11, 40, 100
13, 49080, Note_on_c, 11, 40, 0
13, 49080, Note_on_c, 11, 40, 100
13, 49110, Note_on_c, 11, 40, 0
13, 49110, Note_on_c, 11, 28, 100
13, 49140, Note_on_c, 11, 28, 0
13, 49140, Note_on_c, 11, 40, 100
13, 49200, Note_on_c, 11, 40, 0
13, 49200, Note_on_c, 11, 40, 100
13, 49230, Note_on_c, 11, 40, 0
13, 49230, Note_on_c, 11, 40, 100
13, 49260, Note_on_c, 11, 40, 0
13, 49260, Note_on_c, 11, 28, 100
13, 49290, Note_on_c, 11, 28, 0
13, 49290, Note_on_c, 11, 40, 100
13, 49320, Note_on_c, 11, 40, 0
13, 49320, Note_on_c, 11, 40, 100
13, 49350, Note_on_c, 11, 40, 0
13, 49350, Note_on_c, 11, 28, 100
13, 49380, Note_on_c, 11, 28, 0
13, 49380, Note_on_c, 11, 40, 100
13, 49440, Note_on_c, 11, 40, 0
13, 49440, Note_on_c, 11, 40, 100
13, 49470, Note_on_c, 11, 40, 0
13, 49470, Note_on_c, 11, 40, 100
13, 49500, Note_on_c, 11, 40, 0
13, 49500, Note_on_c, 11, 28, 100
13, 49530, Note_on_c, 11, 28, 0
13, 49530, Note_on_c, 11, 40, 100
13, 49560, Note_on_c, 11, 40, 0
13, 49560, Note_on_c, 11, 40, 100
13, 49590, Note_on_c, 11, 40, 0
13, 49590, Note_on_c, 11, 28, 100
13, 49620, Note_on_c, 11, 28, 0
13, 49620, Note_on_c, 11, 40, 100
13, 49680, Note_on_c, 11, 40, 0
13, 49680, Note_on_c, 11, 40, 100
13, 49710, Note_on_c, 11, 40, 0
13, 49710, Note_on_c, 11, 40, 100
13, 49740, Note_on_c, 11, 40, 0
13, 49740, Note_on_c, 11, 28, 100
13, 49770, Note_on_c, 11, 28, 0
13, 49770, Note_on_c, 11, 40, 100
13, 49800, Note_on_c, 11, 40, 0
13, 49800, Note_on_c, 11, 40, 100
13, 49830, Note_on_c, 11, 40, 0
13, 49830, Note_on_c, 11, 28, 100
13, 49860, Note_on_c, 11, 28, 0
13, 49860, Note_on_c, 11, 40, 100
13, 49920, Note_on_c, 11, 40, 0
13, 49920, Note_on_c, 11, 40, 100
13, 49950, Note_on_c, 11, 40, 0
13, 49950, Note_on_c, 11, 40, 100
13, 49980, Note_on_c, 11, 40, 0
13, 49980, Note_on_c, 11, 28, 100
13, 50010, Note_on_c, 11, 28, 0
13, 50010, Note_on_c, 11, 40, 100
13, 50040, Note_on_c, 11, 40, 0
13, 50040, Note_on_c, 11, 40, 100
13, 50070, Note_on_c, 11, 40, 0
13, 50070, Note_on_c, 11, 28, 100
13, 50100, Note_on_c, 11, 28, 0
13, 50100, Note_on_c, 11, 40, 100
13, 50160, Note_on_c, 11, 40, 0
13, 50160, Note_on_c, 11, 40, 100
13, 50190, Note_on_c, 11, 40, 0
13, 50190, Note_on_c, 11, 40, 100
13, 50220, Note_on_c, 11, 40, 0
13, 50220, Note_on_c, 11, 28, 100
13, 50250, Note_on_c, 11, 28, 0
13, 50250, Note_on_c, 11, 40, 100
13, 50280, Note_on_c, 11, 40, 0
13, 50280, Note_on_c, 11, 40, 100
13, 50310, Note_on_c, 11, 40, 0
13, 50310, Note_on_c, 11, 28, 100
13, 50340, Note_on_c, 11, 28, 0
13, 50340, Note_on_c, 11, 40, 100
13, 50400, Note_on_c, 11, 40, 0
13, 50400, Note_on_c, 11, 45, 100
13, 50430, Note_on_c, 11, 45, 0
13, 50430, Note_on_c, 11, 45, 100
13, 50460, Note_on_c, 11, 45, 0
13, 50460, Note_on_c, 11, 33, 100
13, 50490, Note_on_c, 11, 33, 0
13, 50490, Note_on_c, 11, 45, 100
13, 50520, Note_on_c, 11, 45, 0
13, 50520, Note_on_c, 11, 45, 100
13, 50550, Note_on_c, 11, 45, 0
13, 50550, Note_on_c, 11, 33, 100
13, 50580, Note_on_c, 11, 33, 0
13, 50580, Note_on_c, 11, 45, 100
13, 50640, Note_on_c, 11, 45, 0
13, 50640, Note_on_c, 11, 43, 100
13, 50670, Note_on_c, 11, 43, 0
13, 50670, Note_on_c, 11, 43, 100
13, 50700, Note_on_c, 11, 43, 0
13, 50700, Note_on_c, 11, 31, 100
13, 50730, Note_on_c, 11, 31, 0
13, 50730, Note_on_c, 11, 43, 100
13, 50760, Note_on_c, 11, 43, 0
13, 50760, Note_on_c, 11, 43, 100
13, 50790, Note_on_c, 11, 43, 0
13, 50790, Note_on_c, 11, 31, 100
13, 50820, Note_on_c, 11, 31, 0
13, 50820, Note_on_c, 11, 43, 100
13, 50880, Note_on_c, 11, 43, 0
13, 50880, Note_on_c, 11, 40, 100
13, 50910, Note_on_c, 11, 40, 0
13, 50910, Note_on_c, 11, 40, 100
13, 50940, Note_on_c, 11, 40, 0
13, 50940, Note_on_c, 11, 28, 100
13, 50970, Note_on_c, 11, 28, 0
13, 50970, Note_on_c, 11, 40, 100
13, 51000, Note_on_c, 11, 40, 0
13, 51000, Note_on_c, 11, 40, 100
13, 51030, Note_on_c, 11, 40, 0
13, 51030, Note_on_c, 11, 28, 100
13, 51060, Note_on_c, 11, 28, 0
13, 51060, Note_on_c, 11, 40, 100
13, 51120, Note_on_c, 11, 40, 0
13, 51120, Note_on_c, 11, 40, 100
13, 51150, Note_on_c, 11, 40, 0
13, 51150, Note_on_c, 11, 40, 100
13, 51180, Note_on_c, 11, 40, 0
13, 51180, Note_on_c, 11, 28, 100
13, 51210, Note_on_c, 11, 28, 0
13, 51210, Note_on_c, 11, 40, 100
13, 51240, Note_on_c, 11, 40, 0
13, 51240, Note_on_c, 11, 40, 100
13, 51270, Note_on_c, 11, 40, 0
13, 51270, Note_on_c, 11, 28, 100
13, 51300, Note_on_c, 11, 28, 0
13, 51300, Note_on_c, 11, 40, 100
13, 51360, Note_on_c, 11, 40, 0
13, 51360, Note_on_c, 11, 40, 100
13, 51390, Note_on_c, 11, 40, 0
13, 51390, Note_on_c, 11, 40, 100
13, 51420, Note_on_c, 11, 40, 0
13, 51420, Note_on_c, 11, 28, 100
13, 51450, Note_on_c, 11, 28, 0
13, 51450, Note_on_c, 11, 40, 100
13, 51480, Note_on_c, 11, 40, 0
13, 51480, Note_on_c, 11, 40, 100
13, 51510, Note_on_c, 11, 40, 0
13, 51510, Note_on_c, 11, 28, 100
13, 51540, Note_on_c, 11, 28, 0
13, 51540, Note_on_c, 11, 40, 100
13, 51600, Note_on_c, 11, 40, 0
13, 51600, Note_on_c, 11, 40, 100
13, 51630, Note_on_c, 11, 40, 0
13, 51630, Note_on_c, 11, 40, 100
13, 51660, Note_on_c, 11, 40, 0
13, 51660, Note_on_c, 11, 28, 100
13, 51690, Note_on_c, 11, 28, 0
13, 51690, Note_on_c, 11, 40, 100
13, 51720, Note_on_c, 11, 40, 0
13, 51720, Note_on_c, 11, 40, 100
13, 51750, Note_on_c, 11, 40, 0
13, 51750, Note_on_c, 11, 28, 100
13, 51780, Note_on_c, 11, 28, 0
13, 51780, Note_on_c, 11, 40, 100
13, 51840, Note_on_c, 11, 40, 0
13, 51840, Note_on_c, 11, 40, 100
13, 51870, Note_on_c, 11, 40, 0
13, 51870, Note_on_c, 11, 40, 100
13, 51900, Note_on_c, 11, 40, 0
13, 51900, Note_on_c, 11, 28, 100
13, 51930, Note_on_c, 11, 28, 0
13, 51930, Note_on_c, 11, 40, 100
13, 51960, Note_on_c, 11, 40, 0
13, 51960, Note_on_c, 11, 40, 100
13, 51990, Note_on_c, 11, 40, 0
13, 51990, Note_on_c, 11, 28, 100
13, 52020, Note_on_c, 11, 28, 0
13, 52020, Note_on_c, 11, 40, 100
13, 52080, Note_on_c, 11, 40, 0
13, 52080, Note_on_c, 11, 40, 100
13, 52110, Note_on_c, 11, 40, 0
13, 52110, Note_on_c, 11, 40, 100
13, 52140, Note_on_c, 11, 40, 0
13, 52140, Note_on_c, 11, 28, 100
13, 52170, Note_on_c, 11, 28, 0
13, 52170, Note_on_c, 11, 40, 100
13, 52200, Note_on_c, 11, 40, 0
13, 52200, Note_on_c, 11, 40, 100
13, 52230, Note_on_c, 11, 40, 0
13, 52230, Note_on_c, 11, 28, 100
13, 52260, Note_on_c, 11, 28, 0
13, 52260, Note_on_c, 11, 40, 100
13, 52320, Note_on_c, 11, 40, 0
13, 52320, Note_on_c, 11, 40, 100
13, 52350, Note_on_c, 11, 40, 0
13, 52350, Note_on_c, 11, 40, 100
13, 52380, Note_on_c, 11, 40, 0
13, 52380, Note_on_c, 11, 28, 100
13, 52410, Note_on_c, 11, 28, 0
13, 52410, Note_on_c, 11, 40, 100
13, 52440, Note_on_c, 11, 40, 0
13, 52440, Note_on_c, 11, 40, 100
13, 52470, Note_on_c, 11, 40, 0
13, 52470, Note_on_c, 11, 28, 100
13, 52500, Note_on_c, 11, 28, 0
13, 52500, Note_on_c, 11, 40, 100
13, 52560, Note_on_c, 11, 40, 0
13, 52560, Note_on_c, 11, 40, 100
13, 52590, Note_on_c, 11, 40, 0
13, 52590, Note_on_c, 11, 40, 100
13, 52620, Note_on_c, 11, 40, 0
13, 52620, Note_on_c, 11, 28, 100
13, 52650, Note_on_c, 11, 28, 0
13, 52650, Note_on_c, 11, 40, 100
13, 52680, Note_on_c, 11, 40, 0
13, 52680, Note_on_c, 11, 40, 100
13, 52710, Note_on_c, 11, 40, 0
13, 52710, Note_on_c, 11, 28, 100
13, 52740, Note_on_c, 11, 28, 0
13, 52740, Note_on_c, 11, 40, 100
13, 52800, Note_on_c, 11, 40, 0
13, 52800, Note_on_c, 11, 40, 100
13, 52830, Note_on_c, 11, 40, 0
13, 52830, Note_on_c, 11, 40, 100
13, 52860, Note_on_c, 11, 40, 0
13, 52860, Note_on_c, 11, 28, 100
13, 52890, Note_on_c, 11, 28, 0
13, 52890, Note_on_c, 11, 40, 100
13, 52920, Note_on_c, 11, 40, 0
13, 52920, Note_on_c, 11, 40, 100
13, 52950, Note_on_c, 11, 40, 0
13, 52950, Note_on_c, 11, 28, 100
13, 52980, Note_on_c, 11, 28, 0
13, 52980, Note_on_c, 11, 40, 100
13, 53040, Note_on_c, 11, 40, 0
13, 53040, Note_on_c, 11, 40, 100
13, 53070, Note_on_c, 11, 40, 0
13, 53070, Note_on_c, 11, 40, 100
13, 53100, Note_on_c, 11, 40, 0
13, 53100, Note_on_c, 11, 28, 100
13, 53130, Note_on_c, 11, 28, 0
13, 53130, Note_on_c, 11, 40, 100
13, 53160, Note_on_c, 11, 40, 0
13, 53160, Note_on_c, 11, 40, 100
13, 53190, Note_on_c, 11, 40, 0
13, 53190, Note_on_c, 11, 28, 100
13, 53220, Note_on_c, 11, 28, 0
13, 53220, Note_on_c, 11, 40, 100
13, 53280, Note_on_c, 11, 40, 0
13, 53280, Note_on_c, 11, 45, 100
13, 53310, Note_on_c, 11, 45, 0
13, 53310, Note_on_c, 11, 45, 100
13, 53340, Note_on_c, 11, 45, 0
13, 53340, Note_on_c, 11, 33, 100
13, 53370, Note_on_c, 11, 33, 0
13, 53370, Note_on_c, 11, 45, 100
13, 53400, Note_on_c, 11, 45, 0
13, 53400, Note_on_c, 11, 45, 100
13, 53430, Note_on_c, 11, 45, 0
13, 53430, Note_on_c, 11, 33, 100
13, 53460, Note_on_c, 11, 33, 0
13, 53460, Note_on_c, 11, 45, 100
13, 53520, Note_on_c, 11, 45, 0
13, 53520, Note_on_c, 11, 43, 100
13, 53550, Note_on_c, 11, 43, 0
13, 53550, Note_on_c, 11, 43, 100
13, 53580, Note_on_c, 11, 43, 0
13, 53580, Note_on_c, 11, 31, 100
13, 53610, Note_on_c, 11, 31, 0
13, 53610, Note_on_c, 11, 43, 100
13, 53640, Note_on_c, 11, 43, 0
13, 53640, Note_on_c, 11, 43, 100
13, 53670, Note_on_c, 11, 43, 0
13, 53670, Note_on_c, 11, 31, 100
13, 53700, Note_on_c, 11, 31, 0
13, 53700, Note_on_c, 11, 43, 100
13, 53760, Note_on_c, 11, 43, 0
13, 53760, Note_on_c, 11, 40, 100
13, 53790, Note_on_c, 11, 40, 0
13, 53790, Note_on_c, 11, 40, 100
13, 53820, Note_on_c, 11, 40, 0
13, 53820, Note_on_c, 11, 28, 100
13, 53850, Note_on_c, 11, 28, 0
13, 53850, Note_on_c, 11, 40, 100
13, 53880, Note_on_c, 11, 40, 0
13, 53880, Note_on_c, 11, 40, 100
13, 53910, Note_on_c, 11, 40, 0
13, 53910, Note_on_c, 11, 28, 100
13, 53940, Note_on_c, 11, 28, 0
13, 53940, Note_on_c, 11, 40, 100
13, 54000, Note_on_c, 11, 40, 0
13, 54000, Note_on_c, 11, 40, 100
13, 54030, Note_on_c, 11, 40, 0
13, 54030, Note_on_c, 11, 40, 100
13, 54060, Note_on_c, 11, 40, 0
13, 54060, Note_on_c, 11, 28, 100
13, 54090, Note_on_c, 11, 28, 0
13, 54090, Note_on_c, 11, 40, 100
13, 54120, Note_on_c, 11, 40, 0
13, 54120, Note_on_c, 11, 40, 100
13, 54150, Note_on_c, 11, 40, 0
13, 54150, Note_on_c, 11, 28, 100
13, 54180, Note_on_c, 11, 28, 0
13, 54180, Note_on_c, 11, 40, 100
13, 54240, Note_on_c, 11, 40, 0
13, 54240, Note_on_c, 11, 40, 100
13, 54270, Note_on_c, 11, 40, 0
13, 54270, Note_on_c, 11, 40, 100
13, 54300, Note_on_c, 11, 40, 0
13, 54300, Note_on_c, 11, 28, 100
13, 54330, Note_on_c, 11, 28, 0
13, 54330, Note_on_c, 11, 40, 100
13, 54360, Note_on_c, 11, 40, 0
13, 54360, Note_on_c, 11, 40, 100
13, 54390, Note_on_c, 11, 40, 0
13, 54390, Note_on_c, 11, 28, 100
13, 54420, Note_on_c, 11, 28, 0
13, 54420, Note_on_c, 11, 40, 100
13, 54480, Note_on_c, 11, 40, 0
13, 54480, Note_on_c, 11, 40, 100
13, 54510, Note_on_c, 11, 40, 0
13, 54510, Note_on_c, 11, 40, 100
13, 54540, Note_on_c, 11, 40, 0
13, 54540, Note_on_c, 11, 28, 100
13, 54570, Note_on_c, 11, 28, 0
13, 54570, Note_on_c, 11, 40, 100
13, 54600, Note_on_c, 11, 40, 0
13, 54600, Note_on_c, 11, 40, 100
13, 54630, Note_on_c, 11, 40, 0
13, 54630, Note_on_c, 11, 28, 100
13, 54660, Note_on_c, 11, 28, 0
13, 54660, Note_on_c, 11, 40, 100
13, 54720, Note_on_c, 11, 40, 0
13, 54720, Note_on_c, 11, 40, 100
13, 54750, Note_on_c, 11, 40, 0
13, 54750, Note_on_c, 11, 40, 100
13, 54780, Note_on_c, 11, 40, 0
13, 54780, Note_on_c, 11, 28, 100
13, 54810, Note_on_c, 11, 28, 0
13, 54810, Note_on_c, 11, 40, 100
13, 54840, Note_on_c, 11, 40, 0
13, 54840, Note_on_c, 11, 40, 100
13, 54870, Note_on_c, 11, 40, 0
13, 54870, Note_on_c, 11, 28, 100
13, 54900, Note_on_c, 11, 28, 0
13, 54900, Note_on_c, 11, 40, 100
13, 54960, Note_on_c, 11, 40, 0
13, 54960, Note_on_c, 11, 40, 100
13, 54990, Note_on_c, 11, 40, 0
13, 54990, Note_on_c, 11, 40, 100
13, 55020, Note_on_c, 11, 40, 0
13, 55020, Note_on_c, 11, 28, 100
13, 55050, Note_on_c, 11, 28, 0
13, 55050, Note_on_c, 11, 40, 100
13, 55080, Note_on_c, 11, 40, 0
13, 55080, Note_on_c, 11, 40, 100
13, 55110, Note_on_c, 11, 40, 0
13, 55110, Note_on_c, 11, 28, 100
13, 55140, Note_on_c, 11, 28, 0
13, 55140, Note_on_c, 11, 40, 100
13, 55200, Note_on_c, 11, 40, 0
13, 55200, Note_on_c, 11, 45, 100
13, 55230, Note_on_c, 11, 45, 0
13, 55230, Note_on_c, 11, 45, 100
13, 55260, Note_on_c, 11, 45, 0
13, 55260, Note_on_c, 11, 33, 100
13, 55290, Note_on_c, 11, 33, 0
13, 55290, Note_on_c, 11, 45, 100
13, 55320, Note_on_c, 11, 45, 0
13, 55320, Note_on_c, 11, 45, 100
13, 55350, Note_on_c, 11, 45, 0
13, 55350, Note_on_c, 11, 33, 100
13, 55380, Note_on_c, 11, 33, 0
13, 55380, Note_on_c, 11, 45, 100
13, 55440, Note_on_c, 11, 45, 0
13, 55440, Note_on_c, 11, 43, 100
13, 55470, Note_on_c, 11, 43, 0
13, 55470, Note_on_c, 11, 43, 100
13, 55500, Note_on_c, 11, 43, 0
13, 55500, Note_on_c, 11, 31, 100
13, 55530, Note_on_c, 11, 31, 0
13, 55530, Note_on_c, 11, 43, 100
13, 55560, Note_on_c, 11, 43, 0
13, 55560, Note_on_c, 11, 43, 100
13, 55590, Note_on_c, 11, 43, 0
13, 55590, Note_on_c, 11, 31, 100
13, 55620, Note_on_c, 11, 31, 0
13, 55620, Note_on_c, 11, 43, 100
13, 55680, Note_on_c, 11, 43, 0
13, 55680, Note_on_c, 11, 40, 100
13, 55710, Note_on_c, 11, 40, 0
13, 55710, Note_on_c, 11, 40, 100
13, 55740, Note_on_c, 11, 40, 0
13, 55740, Note_on_c, 11, 28, 100
13, 55770, Note_on_c, 11, 28, 0
13, 55770, Note_on_c, 11, 40, 100
13, 55800, Note_on_c, 11, 40, 0
13, 55800, Note_on_c, 11, 40, 100
13, 55830, Note_on_c, 11, 40, 0
13, 55830, Note_on_c, 11, 28, 100
13, 55860, Note_on_c, 11, 28, 0
13, 55860, Note_on_c, 11, 40, 100
13, 55920, Note_on_c, 11, 40, 0
13, 55920, Note_on_c, 11, 40, 100
13, 55950, Note_on_c, 11, 40, 0
13, 55950, Note_on_c, 11, 40, 100
13, 55980, Note_on_c, 11, 40, 0
13, 55980, Note_on_c, 11, 28, 100
13, 56010, Note_on_c, 11, 28, 0
13, 56010, Note_on_c, 11, 40, 100
13, 56040, Note_on_c, 11, 40, 0
13, 56040, Note_on_c, 11, 40, 100
13, 56070, Note_on_c, 11, 40, 0
13, 56070, Note_on_c, 11, 28, 100
13, 56100, Note_on_c, 11, 28, 0
13, 56100, Note_on_c, 11, 40, 100
13, 56160, Note_on_c, 11, 40, 0
13, 56160, Note_on_c, 11, 40, 100
13, 56190, Note_on_c, 11, 40, 0
13, 56190, Note_on_c, 11, 40, 100
13, 56220, Note_on_c, 11, 40, 0
13, 56220, Note_on_c, 11, 28, 100
13, 56250, Note_on_c, 11, 28, 0
13, 56250, Note_on_c, 11, 40, 100
13, 56280, Note_on_c, 11, 40, 0
13, 56280, Note_on_c, 11, 40, 100
13, 56310, Note_on_c, 11, 40, 0
13, 56310, Note_on_c, 11, 28, 100
13, 56340, Note_on_c, 11, 28, 0
13, 56340, Note_on_c, 11, 40, 100
13, 56400, Note_on_c, 11, 40, 0
13, 56400, Note_on_c, 11, 40, 100
13, 56430, Note_on_c, 11, 40, 0
13, 56430, Note_on_c, 11, 40, 100
13, 56460, Note_on_c, 11, 40, 0
13, 56460, Note_on_c, 11, 28, 100
13, 56490, Note_on_c, 11, 28, 0
13, 56490, Note_on_c, 11, 40, 100
13, 56520, Note_on_c, 11, 40, 0
13, 56520, Note_on_c, 11, 40, 100
13, 56550, Note_on_c, 11, 40, 0
13, 56550, Note_on_c, 11, 28, 100
13, 56580, Note_on_c, 11, 28, 0
13, 56580, Note_on_c, 11, 40, 100
13, 56640, Note_on_c, 11, 40, 0
13, 56640, Note_on_c, 11, 40, 100
13, 56670, Note_on_c, 11, 40, 0
13, 56670, Note_on_c, 11, 40, 100
13, 56700, Note_on_c, 11, 40, 0
13, 56700, Note_on_c, 11, 28, 100
13, 56730, Note_on_c, 11, 28, 0
13, 56730, Note_on_c, 11, 40, 100
13, 56760, Note_on_c, 11, 40, 0
13, 56760, Note_on_c, 11, 40, 100
13, 56790, Note_on_c, 11, 40, 0
13, 56790, Note_on_c, 11, 28, 100
13, 56820, Note_on_c, 11, 28, 0
13, 56820, Note_on_c, 11, 40, 100
13, 56880, Note_on_c, 11, 40, 0
13, 56880, Note_on_c, 11, 40, 100
13, 56910, Note_on_c, 11, 40, 0
13, 56910, Note_on_c, 11, 40, 100
13, 56940, Note_on_c, 11, 40, 0
13, 56940, Note_on_c, 11, 28, 100
13, 56970, Note_on_c, 11, 28, 0
13, 56970, Note_on_c, 11, 40, 100
13, 57000, Note_on_c, 11, 40, 0
13, 57000, Note_on_c, 11, 40, 100
13, 57030, Note_on_c, 11, 40, 0
13, 57030, Note_on_c, 11, 28, 100
13, 57060, Note_on_c, 11, 28, 0
13, 57060, Note_on_c, 11, 40, 100
13, 57120, Note_on_c, 11, 40, 0
13, 57120, Note_on_c, 11, 45, 100
13, 57150, Note_on_c, 11, 45, 0
13, 57150, Note_on_c, 11, 45, 100
13, 57180, Note_on_c, 11, 45, 0
13, 57180, Note_on_c, 11, 33, 100
13, 57210, Note_on_c, 11, 33, 0
13, 57210, Note_on_c, 11, 45, 100
13, 57240, Note_on_c, 11, 45, 0
13, 57240, Note_on_c, 11, 45, 100
13, 57270, Note_on_c, 11, 45, 0
13, 57270, Note_on_c, 11, 33, 100
13, 57300, Note_on_c, 11, 33, 0
13, 57300, Note_on_c, 11, 45, 100
13, 57360, Note_on_c, 11, 45, 0
13, 57360, Note_on_c, 11, 43, 100
13, 57390, Note_on_c, 11, 43, 0
13, 57390, Note_on_c, 11, 43, 100
13, 57420, Note_on_c, 11, 43, 0
13, 57420, Note_on_c, 11, 31, 100
13, 57450, Note_on_c, 11, 31, 0
13, 57450, Note_on_c, 11, 43, 100
13, 57480, Note_on_c, 11, 43, 0
13, 57480, Note_on_c, 11, 43, 100
13, 57510, Note_on_c, 11, 43, 0
13, 57510, Note_on_c, 11, 31, 100
13, 57540, Note_on_c, 11, 31, 0
13, 57540, Note_on_c, 11, 43, 100
13, 57600, Note_on_c, 11, 43, 0
13, 57600, Note_on_c, 11, 40, 100
13, 57630, Note_on_c, 11, 40, 0
13, 57630, Note_on_c, 11, 40, 100
13, 57660, Note_on_c, 11, 40, 0
13, 57660, Note_on_c, 11, 28, 100
13, 57690, Note_on_c, 11, 28, 0
13, 57690, Note_on_c, 11, 40, 100
13, 57720, Note_on_c, 11, 40, 0
13, 57720, Note_on_c, 11, 40, 100
13, 57750, Note_on_c, 11, 40, 0
13, 57750, Note_on_c, 11, 28, 100
13, 57780, Note_on_c, 11, 28, 0
13, 57780, Note_on_c, 11, 40, 100
13, 57840, Note_on_c, 11, 40, 0
13, 57840, Note_on_c, 11, 40, 100
13, 57870, Note_on_c, 11, 40, 0
13, 57870, Note_on_c, 11, 40, 100
13, 57900, Note_on_c, 11, 40, 0
13, 57900, Note_on_c, 11, 28, 100
13, 57930, Note_on_c, 11, 28, 0
13, 57930, Note_on_c, 11, 40, 100
13, 57960, Note_on_c, 11, 40, 0
13, 57960, Note_on_c, 11, 40, 100
13, 57990, Note_on_c, 11, 40, 0
13, 57990, Note_on_c, 11, 28, 100
13, 58020, Note_on_c, 11, 28, 0
13, 58020, Note_on_c, 11, 40, 100
13, 58080, Note_on_c, 11, 40, 0
13, 58080, Note_on_c, 11, 40, 100
13, 58110, Note_on_c, 11, 40, 0
13, 58110, Note_on_c, 11, 40, 100
13, 58140, Note_on_c, 11, 40, 0
13, 58140, Note_on_c, 11, 28, 100
13, 58170, Note_on_c, 11, 28, 0
13, 58170, Note_on_c, 11, 40, 100
13, 58200, Note_on_c, 11, 40, 0
13, 58200, Note_on_c, 11, 40, 100
13, 58230, Note_on_c, 11, 40, 0
13, 58230, Note_on_c, 11, 28, 100
13, 58260, Note_on_c, 11, 28, 0
13, 58260, Note_on_c, 11, 40, 100
13, 58320, Note_on_c, 11, 40, 0
13, 58320, Note_on_c, 11, 40, 100
13, 58350, Note_on_c, 11, 40, 0
13, 58350, Note_on_c, 11, 40, 100
13, 58380, Note_on_c, 11, 40, 0
13, 58380, Note_on_c, 11, 28, 100
13, 58410, Note_on_c, 11, 28, 0
13, 58410, Note_on_c, 11, 40, 100
13, 58440, Note_on_c, 11, 40, 0
13, 58440, Note_on_c, 11, 40, 100
13, 58470, Note_on_c, 11, 40, 0
13, 58470, Note_on_c, 11, 28, 100
13, 58500, Note_on_c, 11, 28, 0
13, 58500, Note_on_c, 11, 40, 100
13, 58560, Note_on_c, 11, 40, 0
13, 58560, Note_on_c, 11, 40, 100
13, 58590, Note_on_c, 11, 40, 0
13, 58590, Note_on_c, 11, 40, 100
13, 58620, Note_on_c, 11, 40, 0
13, 58620, Note_on_c, 11, 28, 100
13, 58650, Note_on_c, 11, 28, 0
13, 58650, Note_on_c, 11, 40, 100
13, 58680, Note_on_c, 11, 40, 0
13, 58680, Note_on_c, 11, 40, 100
13, 58710, Note_on_c, 11, 40, 0
13, 58710, Note_on_c, 11, 28, 100
13, 58740, Note_on_c, 11, 28, 0
13, 58740, Note_on_c, 11, 40, 100
13, 58800, Note_on_c, 11, 40, 0
13, 58800, Note_on_c, 11, 40, 100
13, 58830, Note_on_c, 11, 40, 0
13, 58830, Note_on_c, 11, 40, 100
13, 58860, Note_on_c, 11, 40, 0
13, 58860, Note_on_c, 11, 28, 100
13, 58890, Note_on_c, 11, 28, 0
13, 58890, Note_on_c, 11, 40, 100
13, 58920, Note_on_c, 11, 40, 0
13, 58920, Note_on_c, 11, 40, 100
13, 58950, Note_on_c, 11, 40, 0
13, 58950, Note_on_c, 11, 28, 100
13, 58980, Note_on_c, 11, 28, 0
13, 58980, Note_on_c, 11, 40, 100
13, 59040, Note_on_c, 11, 40, 0
13, 59040, Note_on_c, 11, 45, 100
13, 59070, Note_on_c, 11, 45, 0
13, 59070, Note_on_c, 11, 45, 100
13, 59100, Note_on_c, 11, 45, 0
13, 59100, Note_on_c, 11, 33, 100
13, 59130, Note_on_c, 11, 33, 0
13, 59130, Note_on_c, 11, 45, 100
13, 59160, Note_on_c, 11, 45, 0
13, 59160, Note_on_c, 11, 45, 100
13, 59190, Note_on_c, 11, 45, 0
13, 59190, Note_on_c, 11, 33, 100
13, 59220, Note_on_c, 11, 33, 0
13, 59220, Note_on_c, 11, 45, 100
13, 59280, Note_on_c, 11, 45, 0
13, 59280, Note_on_c, 11, 43, 100
13, 59310, Note_on_c, 11, 43, 0
13, 59310, Note_on_c, 11, 43, 100
13, 59340, Note_on_c, 11, 43, 0
13, 59340, Note_on_c, 11, 31, 100
13, 59370, Note_on_c, 11, 31, 0
13, 59370, Note_on_c, 11, 43, 100
13, 59400, Note_on_c, 11, 43, 0
13, 59400, Note_on_c, 11, 43, 100
13, 59430, Note_on_c, 11, 43, 0
13, 59430, Note_on_c, 11, 31, 100
13, 59460, Note_on_c, 11, 31, 0
13, 59460, Note_on_c, 11, 43, 100
13, 59520, Note_on_c, 11, 43, 0
13, 59520, Note_on_c, 11, 40, 100
13, 59550, Note_on_c, 11, 40, 0
13, 59550, Note_on_c, 11, 40, 100
13, 59580, Note_on_c, 11, 40, 0
13, 59580, Note_on_c, 11, 28, 100
13, 59610, Note_on_c, 11, 28, 0
13, 59610, Note_on_c, 11, 40, 100
13, 59640, Note_on_c, 11, 40, 0
13, 59640, Note_on_c, 11, 40, 100
13, 59670, Note_on_c, 11, 40, 0
13, 59670, Note_on_c, 11, 28, 100
13, 59700, Note_on_c, 11, 28, 0
13, 59700, Note_on_c, 11, 40, 100
13, 59760, Note_on_c, 11, 40, 0
13, 59760, Note_on_c, 11, 40, 100
13, 59790, Note_on_c, 11, 40, 0
13, 59790, Note_on_c, 11, 40, 100
13, 59820, Note_on_c, 11, 40, 0
13, 59820, Note_on_c, 11, 28, 100
13, 59850, Note_on_c, 11, 28, 0
13, 59850, Note_on_c, 11, 40, 100
13, 59880, Note_on_c, 11, 40, 0
13, 59880, Note_on_c, 11, 40, 100
13, 59910, Note_on_c, 11, 40, 0
13, 59910, Note_on_c, 11, 28, 100
13, 59940, Note_on_c, 11, 28, 0
13, 59940, Note_on_c, 11, 40, 100
13, 60000, Note_on_c, 11, 40, 0
13, 60000, Note_on_c, 11, 40, 100
13, 60030, Note_on_c, 11, 40, 0
13, 60030, Note_on_c, 11, 40, 100
13, 60060, Note_on_c, 11, 40, 0
13, 60060, Note_on_c, 11, 28, 100
13, 60090, Note_on_c, 11, 28, 0
13, 60090, Note_on_c, 11, 40, 100
13, 60120, Note_on_c, 11, 40, 0
13, 60120, Note_on_c, 11, 40, 100
13, 60150, Note_on_c, 11, 40, 0
13, 60150, Note_on_c, 11, 28, 100
13, 60180, Note_on_c, 11, 28, 0
13, 60180, Note_on_c, 11, 40, 100
13, 60240, Note_on_c, 11, 40, 0
13, 60240, Note_on_c, 11, 40, 100
13, 60270, Note_on_c, 11, 40, 0
13, 60270, Note_on_c, 11, 40, 100
13, 60300, Note_on_c, 11, 40, 0
13, 60300, Note_on_c, 11, 28, 100
13, 60330, Note_on_c, 11, 28, 0
13, 60330, Note_on_c, 11, 40, 100
13, 60360, Note_on_c, 11, 40, 0
13, 60360, Note_on_c, 11, 40, 100
13, 60390, Note_on_c, 11, 40, 0
13, 60390, Note_on_c, 11, 28, 100
13, 60420, Note_on_c, 11, 28, 0
13, 60420, Note_on_c, 11, 40, 100
13, 60480, Note_on_c, 11, 40, 0
13, 60480, Note_on_c, 11, 40, 100
13, 60510, Note_on_c, 11, 40, 0
13, 60510, Note_on_c, 11, 40, 100
13, 60540, Note_on_c, 11, 40, 0
13, 60540, Note_on_c, 11, 28, 100
13, 60570, Note_on_c, 11, 28, 0
13, 60570, Note_on_c, 11, 40, 100
13, 60600, Note_on_c, 11, 40, 0
13, 60600, Note_on_c, 11, 40, 100
13, 60630, Note_on_c, 11, 40, 0
13, 60630, Note_on_c, 11, 28, 100
13, 60660, Note_on_c, 11, 28, 0
13, 60660, Note_on_c, 11, 40, 100
13, 60720, Note_on_c, 11, 40, 0
13, 60720, Note_on_c, 11, 40, 100
13, 60750, Note_on_c, 11, 40, 0
13, 60750, Note_on_c, 11, 40, 100
13, 60780, Note_on_c, 11, 40, 0
13, 60780, Note_on_c, 11, 28, 100
13, 60810, Note_on_c, 11, 28, 0
13, 60810, Note_on_c, 11, 40, 100
13, 60840, Note_on_c, 11, 40, 0
13, 60840, Note_on_c, 11, 40, 100
13, 60870, Note_on_c, 11, 40, 0
13, 60870, Note_on_c, 11, 28, 100
13, 60900, Note_on_c, 11, 28, 0
13, 60900, Note_on_c, 11, 40, 100
13, 60960, Note_on_c, 11, 40, 0
13, 60960, Note_on_c, 11, 40, 100
13, 60990, Note_on_c, 11, 40, 0
13, 60990, Note_on_c, 11, 40, 100
13, 61020, Note_on_c, 11, 40, 0
13, 61020, Note_on_c, 11, 28, 100
13, 61050, Note_on_c, 11, 28, 0
13, 61050, Note_on_c, 11, 40, 100
13, 61080, Note_on_c, 11, 40, 0
13, 61080, Note_on_c, 11, 40, 100
13, 61110, Note_on_c, 11, 40, 0
13, 61110, Note_on_c, 11, 28, 100
13, 61140, Note_on_c, 11, 28, 0
13, 61140, Note_on_c, 11, 40, 100
13, 61200, Note_on_c, 11, 40, 0
13, 61200, Note_on_c, 11, 40, 100
13, 61230, Note_on_c, 11, 40, 0
13, 61230, Note_on_c, 11, 40, 100
13, 61260, Note_on_c, 11, 40, 0
13, 61260, Note_on_c, 11, 28, 100
13, 61290, Note_on_c, 11, 28, 0
13, 61290, Note_on_c, 11, 40, 100
13, 61320, Note_on_c, 11, 40, 0
13, 61320, Note_on_c, 11, 40, 100
13, 61350, Note_on_c, 11, 40, 0
13, 61350, Note_on_c, 11, 28, 100
13, 61380, Note_on_c, 11, 28, 0
13, 61380, Note_on_c, 11, 40, 100
13, 61440, Note_on_c, 11, 40, 0
13, 61440, Note_on_c, 11, 40, 100
13, 61470, Note_on_c, 11, 40, 0
13, 61470, Note_on_c, 11, 40, 100
13, 61500, Note_on_c, 11, 40, 0
13, 61500, Note_on_c, 11, 28, 100
13, 61530, Note_on_c, 11, 28, 0
13, 61530, Note_on_c, 11, 40, 100
13, 61560, Note_on_c, 11, 40, 0
13, 61560, Note_on_c, 11, 40, 100
13, 61590, Note_on_c, 11, 40, 0
13, 61590, Note_on_c, 11, 28, 100
13, 61620, Note_on_c, 11, 28, 0
13, 61620, Note_on_c, 11, 40, 100
13, 61680, Note_on_c, 11, 40, 0
13, 61680, Note_on_c, 11, 40, 100
13, 61710, Note_on_c, 11, 40, 0
13, 61710, Note_on_c, 11, 40, 100
13, 61740, Note_on_c, 11, 40, 0
13, 61740, Note_on_c, 11, 28, 100
13, 61770, Note_on_c, 11, 28, 0
13, 61770, Note_on_c, 11, 40, 100
13, 61800, Note_on_c, 11, 40, 0
13, 61800, Note_on_c, 11, 40, 100
13, 61830, Note_on_c, 11, 40, 0
13, 61830, Note_on_c, 11, 28, 100
13, 61860, Note_on_c, 11, 28, 0
13, 61860, Note_on_c, 11, 40, 100
13, 61920, Note_on_c, 11, 40, 0
13, 61920, Note_on_c, 11, 45, 100
13, 61950, Note_on_c, 11, 45, 0
13, 61950, Note_on_c, 11, 45, 100
13, 61980, Note_on_c, 11, 45, 0
13, 61980, Note_on_c, 11, 33, 100
13, 62010, Note_on_c, 11, 33, 0
13, 62010, Note_on_c, 11, 45, 100
13, 62040, Note_on_c, 11, 45, 0
13, 62040, Note_on_c, 11, 45, 100
13, 62070, Note_on_c, 11, 45, 0
13, 62070, Note_on_c, 11, 33, 100
13, 62100, Note_on_c, 11, 33, 0
13, 62100, Note_on_c, 11, 45, 100
13, 62160, Note_on_c, 11, 45, 0
13, 62160, Note_on_c, 11, 43, 100
13, 62190, Note_on_c, 11, 43, 0
13, 62190, Note_on_c, 11, 43, 100
13, 62220, Note_on_c, 11, 43, 0
13, 62220, Note_on_c, 11, 31, 100
13, 62250, Note_on_c, 11, 31, 0
13, 62250, Note_on_c, 11, 43, 100
13, 62280, Note_on_c, 11, 43, 0
13, 62280, Note_on_c, 11, 43, 100
13, 62310, Note_on_c, 11, 43, 0
13, 62310, Note_on_c, 11, 31, 100
13, 62340, Note_on_c, 11, 31, 0
13, 62340, Note_on_c, 11, 43, 100
13, 62400, Note_on_c, 11, 43, 0
13, 62400, Note_on_c, 11, 40, 100
13, 62430, Note_on_c, 11, 40, 0
13, 62430, Note_on_c, 11, 40, 100
13, 62460, Note_on_c, 11, 40, 0
13, 62460, Note_on_c, 11, 28, 100
13, 62490, Note_on_c, 11, 28, 0
13, 62490, Note_on_c, 11, 40, 100
13, 62520, Note_on_c, 11, 40, 0
13, 62520, Note_on_c, 11, 40, 100
13, 62550, Note_on_c, 11, 40, 0
13, 62550, Note_on_c, 11, 28, 100
13, 62580, Note_on_c, 11, 28, 0
13, 62580, Note_on_c, 11, 40, 100
13, 62640, Note_on_c, 11, 40, 0
13, 62640, Note_on_c, 11, 40, 100
13, 62670, Note_on_c, 11, 40, 0
13, 62670, Note_on_c, 11, 40, 100
13, 62700, Note_on_c, 11, 40, 0
13, 62700, Note_on_c, 11, 28, 100
13, 62730, Note_on_c, 11, 28, 0
13, 62730, Note_on_c, 11, 40, 100
13, 62760, Note_on_c, 11, 40, 0
13, 62760, Note_on_c, 11, 40, 100
13, 62790, Note_on_c, 11, 40, 0
13, 62790, Note_on_c, 11, 28, 100
13, 62820, Note_on_c, 11, 28, 0
13, 62820, Note_on_c, 11, 40, 100
13, 62880, Note_on_c, 11, 40, 0
13, 62880, Note_on_c, 11, 40, 100
13, 62910, Note_on_c, 11, 40, 0
13, 62910, Note_on_c, 11, 40, 100
13, 62940, Note_on_c, 11, 40, 0
13, 62940, Note_on_c, 11, 28, 100
13, 62970, Note_on_c, 11, 28, 0
13, 62970, Note_on_c, 11, 40, 100
13, 63000, Note_on_c, 11, 40, 0
13, 63000, Note_on_c, 11, 40, 100
13, 63030, Note_on_c, 11, 40, 0
13, 63030, Note_on_c, 11, 28, 100
13, 63060, Note_on_c, 11, 28, 0
13, 63060, Note_on_c, 11, 40, 100
13, 63120, Note_on_c, 11, 40, 0
13, 63120, Note_on_c, 11, 40, 100
13, 63150, Note_on_c, 11, 40, 0
13, 63150, Note_on_c, 11, 40, 100
13, 63180, Note_on_c, 11, 40, 0
13, 63180, Note_on_c, 11, 28, 100
13, 63210, Note_on_c, 11, 28, 0
13, 63210, Note_on_c, 11, 40, 100
13, 63240, Note_on_c, 11, 40, 0
13, 63240, Note_on_c, 11, 40, 100
13, 63270, Note_on_c, 11, 40, 0
13, 63270, Note_on_c, 11, 28, 100
13, 63300, Note_on_c, 11, 28, 0
13, 63300, Note_on_c, 11, 40, 100
13, 63360, Note_on_c, 11, 40, 0
13, 63360, Note_on_c, 11, 40, 100
13, 63390, Note_on_c, 11, 40, 0
13, 63390, Note_on_c, 11, 40, 100
13, 63420, Note_on_c, 11, 40, 0
13, 63420, Note_on_c, 11, 28, 100
13, 63450, Note_on_c, 11, 28, 0
13, 63450, Note_on_c, 11, 40, 100
13, 63480, Note_on_c, 11, 40, 0
13, 63480, Note_on_c, 11, 40, 100
13, 63510, Note_on_c, 11, 40, 0
13, 63510, Note_on_c, 11, 28, 100
13, 63540, Note_on_c, 11, 28, 0
13, 63540, Note_on_c, 11, 40, 100
13, 63600, Note_on_c, 11, 40, 0
13, 63600, Note_on_c, 11, 40, 100
13, 63630, Note_on_c, 11, 40, 0
13, 63630, Note_on_c, 11, 40, 100
13, 63660, Note_on_c, 11, 40, 0
13, 63660, Note_on_c, 11, 28, 100
13, 63690, Note_on_c, 11, 28, 0
13, 63690, Note_on_c, 11, 40, 100
13, 63720, Note_on_c, 11, 40, 0
13, 63720, Note_on_c, 11, 40, 100
13, 63750, Note_on_c, 11, 40, 0
13, 63750, Note_on_c, 11, 28, 100
13, 63780, Note_on_c, 11, 28, 0
13, 63780, Note_on_c, 11, 40, 100
13, 63840, Note_on_c, 11, 40, 0
13, 63840, Note_on_c, 11, 45, 100
13, 63870, Note_on_c, 11, 45, 0
13, 63870, Note_on_c, 11, 45, 100
13, 63900, Note_on_c, 11, 45, 0
13, 63900, Note_on_c, 11, 33, 100
13, 63930, Note_on_c, 11, 33, 0
13, 63930, Note_on_c, 11, 45, 100
13, 63960, Note_on_c, 11, 45, 0
13, 63960, Note_on_c, 11, 45, 100
13, 63990, Note_on_c, 11, 45, 0
13, 63990, Note_on_c, 11, 33, 100
13, 64020, Note_on_c, 11, 33, 0
13, 64020, Note_on_c, 11, 45, 100
13, 64080, Note_on_c, 11, 45, 0
13, 64080, Note_on_c, 11, 43, 100
13, 64110, Note_on_c, 11, 43, 0
13, 64110, Note_on_c, 11, 43, 100
13, 64140, Note_on_c, 11, 43, 0
13, 64140, Note_on_c, 11, 31, 100
13, 64170, Note_on_c, 11, 31, 0
13, 64170, Note_on_c, 11, 43, 100
13, 64200, Note_on_c, 11, 43, 0
13, 64200, Note_on_c, 11, 43, 100
13, 64230, Note_on_c, 11, 43, 0
13, 64230, Note_on_c, 11, 31, 100
13, 64260, Note_on_c, 11, 31, 0
13, 64260, Note_on_c, 11, 43, 100
13, 64320, Note_on_c, 11, 43, 0
13, 64320, Note_on_c, 11, 40, 100
13, 64350, Note_on_c, 11, 40, 0
13, 64350, Note_on_c, 11, 40, 100
13, 64380, Note_on_c, 11, 40, 0
13, 64380, Note_on_c, 11, 28, 100
13, 64410, Note_on_c, 11, 28, 0
13, 64410, Note_on_c, 11, 40, 100
13, 64440, Note_on_c, 11, 40, 0
13, 64440, Note_on_c, 11, 40, 100
13, 64470, Note_on_c, 11, 40, 0
13, 64470, Note_on_c, 11, 28, 100
13, 64500, Note_on_c, 11, 28, 0
13, 64500, Note_on_c, 11, 40, 100
13, 64560, Note_on_c, 11, 40, 0
13, 64560, Note_on_c, 11, 40, 100
13, 64590, Note_on_c, 11, 40, 0
13, 64590, Note_on_c, 11, 40, 100
13, 64620, Note_on_c, 11, 40, 0
13, 64620, Note_on_c, 11, 28, 100
13, 64650, Note_on_c, 11, 28, 0
13, 64650, Note_on_c, 11, 40, 100
13, 64680, Note_on_c, 11, 40, 0
13, 64680, Note_on_c, 11, 40, 100
13, 64710, Note_on_c, 11, 40, 0
13, 64710, Note_on_c, 11, 28, 100
13, 64740, Note_on_c, 11, 28, 0
13, 64740, Note_on_c, 11, 40, 100
13, 64800, Note_on_c, 11, 40, 0
13, 64800, Note_on_c, 11, 40, 100
13, 64830, Note_on_c, 11, 40, 0
13, 64830, Note_on_c, 11, 40, 100
13, 64860, Note_on_c, 11, 40, 0
13, 64860, Note_on_c, 11, 28, 100
13, 64890, Note_on_c, 11, 28, 0
13, 64890, Note_on_c, 11, 40, 100
13, 64920, Note_on_c, 11, 40, 0
13, 64920, Note_on_c, 11, 40, 100
13, 64950, Note_on_c, 11, 40, 0
13, 64950, Note_on_c, 11, 28, 100
13, 64980, Note_on_c, 11, 28, 0
13, 64980, Note_on_c, 11, 40, 100
13, 65040, Note_on_c, 11, 40, 0
13, 65040, Note_on_c, 11, 40, 100
13, 65070, Note_on_c, 11, 40, 0
13, 65070, Note_on_c, 11, 40, 100
13, 65100, Note_on_c, 11, 40, 0
13, 65100, Note_on_c, 11, 28, 100
13, 65130, Note_on_c, 11, 28, 0
13, 65130, Note_on_c, 11, 40, 100
13, 65160, Note_on_c, 11, 40, 0
13, 65160, Note_on_c, 11, 40, 100
13, 65190, Note_on_c, 11, 40, 0
13, 65190, Note_on_c, 11, 28, 100
13, 65220, Note_on_c, 11, 28, 0
13, 65220, Note_on_c, 11, 40, 100
13, 65280, Note_on_c, 11, 40, 0
13, 65280, Note_on_c, 11, 40, 100
13, 65310, Note_on_c, 11, 40, 0
13, 65310, Note_on_c, 11, 40, 100
13, 65340, Note_on_c, 11, 40, 0
13, 65340, Note_on_c, 11, 28, 100
13, 65370, Note_on_c, 11, 28, 0
13, 65370, Note_on_c, 11, 40, 100
13, 65400, Note_on_c, 11, 40, 0
13, 65400, Note_on_c, 11, 40, 100
13, 65430, Note_on_c, 11, 40, 0
13, 65430, Note_on_c, 11, 28, 100
13, 65460, Note_on_c, 11, 28, 0
13, 65460, Note_on_c, 11, 40, 100
13, 65520, Note_on_c, 11, 40, 0
13, 65520, Note_on_c, 11, 40, 100
13, 65550, Note_on_c, 11, 40, 0
13, 65550, Note_on_c, 11, 40, 100
13, 65580, Note_on_c, 11, 40, 0
13, 65580, Note_on_c, 11, 28, 100
13, 65610, Note_on_c, 11, 28, 0
13, 65610, Note_on_c, 11, 40, 100
13, 65640, Note_on_c, 11, 40, 0
13, 65640, Note_on_c, 11, 40, 100
13, 65670, Note_on_c, 11, 40, 0
13, 65670, Note_on_c, 11, 28, 100
13, 65700, Note_on_c, 11, 28, 0
13, 65700, Note_on_c, 11, 40, 100
13, 65760, Note_on_c, 11, 40, 0
13, 65760, Note_on_c, 11, 40, 100
13, 65790, Note_on_c, 11, 40, 0
13, 65790, Note_on_c, 11, 40, 100
13, 65820, Note_on_c, 11, 40, 0
13, 65820, Note_on_c, 11, 28, 100
13, 65850, Note_on_c, 11, 28, 0
13, 65850, Note_on_c, 11, 40, 100
13, 65880, Note_on_c, 11, 40, 0
13, 65880, Note_on_c, 11, 40, 100
13, 65910, Note_on_c, 11, 40, 0
13, 65910, Note_on_c, 11, 28, 100
13, 65940, Note_on_c, 11, 28, 0
13, 65940, Note_on_c, 11, 40, 100
13, 66000, Note_on_c, 11, 40, 0
13, 66000, Note_on_c, 11, 40, 100
13, 66030, Note_on_c, 11, 40, 0
13, 66030, Note_on_c, 11, 40, 100
13, 66060, Note_on_c, 11, 40, 0
13, 66060, Note_on_c, 11, 28, 100
13, 66090, Note_on_c, 11, 28, 0
13, 66090, Note_on_c, 11, 40, 100
13, 66120, Note_on_c, 11, 40, 0
13, 66120, Note_on_c, 11, 40, 100
13, 66150, Note_on_c, 11, 40, 0
13, 66150, Note_on_c, 11, 28, 100
13, 66180, Note_on_c, 11, 28, 0
13, 66180, Note_on_c, 11, 40, 100
13, 66240, Note_on_c, 11, 40, 0
13, 66240, End_track
14, 0, Start_track
14, 0, Sequencer_specific, 5, 5, 15, 9, 0, 64
14, 0, Sequencer_specific, 15, 5, 15, 6, 71, 101, 110, 101, 114, 97, 108, 32, 77, 73, 68, 73
14, 0, Title_t, ""
14, 180, Control_c, 12, 0, 0
14, 181, Control_c, 12, 32, 6
14, 182, Program_c, 12, 39
14, 183, Control_c, 12, 7, 127
14, 183, Control_c, 12, 10, 85
14, 183, End_track
15, 0, Start_track
15, 0, Sequencer_specific, 5, 5, 15, 9, 0, 64
15, 0, Sequencer_specific, 15, 5, 15, 6, 71, 101, 110, 101, 114, 97, 108, 32, 77, 73, 68, 73
15, 0, Title_t, ""
15, 185, Control_c, 13, 0, 126
15, 186, Control_c, 13, 32, 0
15, 187, Program_c, 13, 12
15, 188, Control_c, 13, 7, 60
15, 188, Control_c, 13, 10, 127
15, 188, End_track
16, 0, Start_track
16, 0, Sequencer_specific, 5, 5, 15, 9, 0, 64
16, 0, Sequencer_specific, 15, 5, 15, 6, 71, 101, 110, 101, 114, 97, 108, 32, 77, 73, 68, 73
16, 0, Title_t, ""
16, 190, Control_c, 14, 0, 0
16, 191, Control_c, 14, 32, 0
16, 192, Program_c, 14, 24
16, 193, Control_c, 14, 7, 100
16, 193, Control_c, 14, 10, 56
16, 193, End_track
17, 0, Start_track
17, 0, Sequencer_specific, 5, 5, 15, 9, 0, 64
17, 0, Sequencer_specific, 15, 5, 15, 6, 71, 101, 110, 101, 114, 97, 108, 32, 77, 73, 68, 73
17, 0, Title_t, ""
17, 195, Control_c, 15, 0, 0
17, 196, Control_c, 15, 32, 0
17, 197, Program_c, 15, 123
17, 198, Control_c, 15, 7, 127
17, 376, Control_c, 15, 91, 127
17, 28499, Control_c, 15, 0, 0
17, 28500, Control_c, 15, 32, 0
17, 28501, Program_c, 15, 119
17, 28593, Control_c, 15, 0, 0
17, 28594, Control_c, 15, 32, 0
17, 28595, Program_c, 15, 122
17, 28793, Control_c, 15, 0, 0
17, 28794, Control_c, 15, 32, 0
17, 28795, Program_c, 15, 123
17, 28931, Control_c, 15, 0, 1
17, 28932, Control_c, 15, 32, 0
17, 28933, Program_c, 15, 123
17, 28964, Control_c, 15, 0, 1
17, 28965, Control_c, 15, 32, 0
17, 28966, Program_c, 15, 123
17, 29864, Note_on_c, 15, 53, 127
17, 29864, Note_on_c, 15, 55, 127
17, 29866, Note_on_c, 15, 57, 127
17, 29915, Note_on_c, 15, 57, 0
17, 29916, Note_on_c, 15, 55, 0
17, 29917, Note_on_c, 15, 53, 0
17, 29950, Note_on_c, 15, 55, 127
17, 29950, Note_on_c, 15, 57, 127
17, 29951, Note_on_c, 15, 53, 127
17, 30025, Note_on_c, 15, 53, 0
17, 30026, Note_on_c, 15, 57, 0
17, 30026, Note_on_c, 15, 55, 0
17, 30827, Note_on_c, 15, 53, 127
17, 30828, Note_on_c, 15, 55, 127
17, 30829, Note_on_c, 15, 57, 127
17, 30885, Note_on_c, 15, 57, 0
17, 30885, Note_on_c, 15, 55, 0
17, 30886, Note_on_c, 15, 53, 0
17, 31039, Note_on_c, 15, 55, 127
17, 31039, Note_on_c, 15, 53, 127
17, 31040, Note_on_c, 15, 57, 127
17, 31086, Note_on_c, 15, 57, 0
17, 31087, Note_on_c, 15, 53, 0
17, 31087, Note_on_c, 15, 55, 0
17, 31122, Note_on_c, 15, 55, 127
17, 31122, Note_on_c, 15, 53, 127
17, 31123, Note_on_c, 15, 57, 127
17, 31174, Note_on_c, 15, 53, 0
17, 31176, Note_on_c, 15, 57, 0
17, 31176, Note_on_c, 15, 55, 0
17, 31209, Note_on_c, 15, 55, 127
17, 31209, Note_on_c, 15, 53, 127
17, 31210, Note_on_c, 15, 57, 127
17, 31279, Note_on_c, 15, 57, 0
17, 31281, Note_on_c, 15, 55, 0
17, 31286, Note_on_c, 15, 53, 0
17, 31922, Note_on_c, 15, 53, 127
17, 31923, Note_on_c, 15, 55, 127
17, 31924, Note_on_c, 15, 57, 126
17, 31969, Note_on_c, 15, 55, 0
17, 31969, Note_on_c, 15, 53, 0
17, 31970, Note_on_c, 15, 57, 0
17, 32004, Note_on_c, 15, 53, 127
17, 32005, Note_on_c, 15, 55, 127
17, 32005, Note_on_c, 15, 57, 127
17, 32068, Note_on_c, 15, 57, 0
17, 32070, Note_on_c, 15, 55, 0
17, 32071, Note_on_c, 15, 53, 0
17, 32294, Note_on_c, 15, 53, 127
17, 32294, Note_on_c, 15, 55, 127
17, 32295, Note_on_c, 15, 57, 126
17, 32342, Note_on_c, 15, 57, 0
17, 32342, Note_on_c, 15, 53, 0
17, 32343, Note_on_c, 15, 55, 0
17, 32378, Note_on_c, 15, 55, 127
17, 32379, Note_on_c, 15, 53, 127
17, 32379, Note_on_c, 15, 57, 127
17, 32437, Note_on_c, 15, 57, 0
17, 32437, Note_on_c, 15, 53, 0
17, 32437, Note_on_c, 15, 55, 0
17, 32475, Note_on_c, 15, 53, 127
17, 32476, Note_on_c, 15, 55, 127
17, 32477, Note_on_c, 15, 57, 127
17, 32545, Note_on_c, 15, 57, 0
17, 32546, Note_on_c, 15, 55, 0
17, 32548, Note_on_c, 15, 53, 0
17, 32936, Note_on_c, 15, 53, 127
17, 32936, Note_on_c, 15, 55, 127
17, 32937, Note_on_c, 15, 57, 127
17, 32999, Note_on_c, 15, 57, 0
17, 33000, Note_on_c, 15, 55, 0
17, 33002, Note_on_c, 15, 53, 0
17, 33489, Note_on_c, 15, 53, 126
17, 33489, Note_on_c, 15, 55, 125
17, 33491, Note_on_c, 15, 57, 124
17, 33534, Note_on_c, 15, 57, 0
17, 33535, Note_on_c, 15, 55, 0
17, 33535, Note_on_c, 15, 53, 0
17, 33580, Note_on_c, 15, 53, 127
17, 33580, Note_on_c, 15, 55, 127
17, 33582, Note_on_c, 15, 57, 127
17, 33644, Note_on_c, 15, 57, 0
17, 33644, Note_on_c, 15, 53, 0
17, 33646, Note_on_c, 15, 55, 0
17, 33944, Note_on_c, 15, 53, 126
17, 33944, Note_on_c, 15, 55, 126
17, 33946, Note_on_c, 15, 57, 125
17, 33997, Note_on_c, 15, 57, 0
17, 33998, Note_on_c, 15, 55, 0
17, 33999, Note_on_c, 15, 53, 0
17, 34041, Note_on_c, 15, 53, 127
17, 34041, Note_on_c, 15, 55, 127
17, 34042, Note_on_c, 15, 57, 126
17, 34114, Note_on_c, 15, 57, 0
17, 34115, Note_on_c, 15, 55, 0
17, 34117, Note_on_c, 15, 53, 0
17, 34426, Note_on_c, 15, 53, 123
17, 34426, Note_on_c, 15, 55, 123
17, 34427, Note_on_c, 15, 57, 122
17, 34476, Note_on_c, 15, 55, 0
17, 34477, Note_on_c, 15, 57, 0
17, 34477, Note_on_c, 15, 53, 0
17, 34511, Note_on_c, 15, 53, 127
17, 34511, Note_on_c, 15, 55, 127
17, 34512, Note_on_c, 15, 57, 126
17, 34568, Note_on_c, 15, 53, 0
17, 34569, Note_on_c, 15, 57, 0
17, 34569, Note_on_c, 15, 55, 0
17, 34616, Note_on_c, 15, 53, 127
17, 34616, Note_on_c, 15, 55, 127
17, 34616, Note_on_c, 15, 57, 125
17, 34680, Note_on_c, 15, 53, 0
17, 34681, Note_on_c, 15, 55, 0
17, 34682, Note_on_c, 15, 57, 0
17, 34977, Note_on_c, 15, 53, 125
17, 34977, Note_on_c, 15, 55, 125
17, 34978, Note_on_c, 15, 57, 124
17, 35043, Note_on_c, 15, 57, 0
17, 35045, Note_on_c, 15, 55, 0
17, 35046, Note_on_c, 15, 53, 0
17, 35046, End_track
18, 0, Start_track
18, 0, Sequencer_specific, 5, 5, 15, 9, 0, 64
18, 0, Sequencer_specific, 15, 5, 15, 6, 71, 101, 110, 101, 114, 97, 108, 32, 77, 73, 68, 73
18, 0, Program_c, 0, 0
18, 0, Title_t, "Track 18"
18, 0, Title_t, "Darude - Sandstorm"
18, 0, Text_t, "2000 (C) by Izzet Selanik from Toplist-Team.com\012"
18, 0, Copyright_t, "2000 (C) by Izzet Selanik and Arne Mulder from Toplist-Team.com"
18, 0, End_track
19, 0, Start_track
19, 0, Sequencer_specific, 5, 5, 15, 9, 64, 64
19, 0, Sequencer_specific, 15, 5, 15, 6, 71, 101, 110, 101, 114, 97, 108, 32, 77, 73, 68, 73
19, 0, Title_t, "Track 19"
19, 0, End_track
0, 0, End_of_file
