0, 0, Header, 0, 1, 384
1, 0, Start_track
1, 0, Title_t, "Herz an Herz"
1, 0, Text_t, "Downloaded from Sweden's Unofficial Blümchen Site\012"
1, 0, Text_t, "http://home3.swipnet.se/~w-36288/\012"
1, 0, Text_t, "This file is copyrighted by the author.\012"
1, 0, SMPTE_offset, 96, 0, 3, 0, 0
1, 0, Time_signature, 4, 2, 24, 8
1, 0, Key_signature, 0, "major"
1, 0, Tempo, 346821
1, 0, Control_c, 1, 0, 0
1, 0, Control_c, 1, 32, 0
1, 0, Program_c, 1, 87
1, 0, Control_c, 1, 7, 85
1, 0, Control_c, 1, 10, 76
1, 0, Control_c, 2, 0, 0
1, 0, Control_c, 2, 32, 0
1, 0, Program_c, 2, 48
1, 0, Control_c, 2, 7, 92
1, 0, Control_c, 2, 10, 76
1, 0, Control_c, 3, 0, 0
1, 0, Control_c, 3, 32, 0
1, 0, Program_c, 3, 102
1, 0, Control_c, 3, 7, 100
1, 0, Control_c, 3, 10, 76
1, 0, Control_c, 4, 0, 0
1, 0, Control_c, 4, 32, 0
1, 0, Program_c, 4, 11
1, 0, Control_c, 4, 7, 50
1, 0, Control_c, 4, 10, 76
1, 0, Control_c, 5, 0, 0
1, 0, Control_c, 5, 32, 0
1, 0, Program_c, 5, 87
1, 0, Control_c, 5, 7, 85
1, 0, Control_c, 5, 10, 76
1, 0, Control_c, 6, 0, 0
1, 0, Control_c, 6, 32, 0
1, 0, Program_c, 6, 59
1, 0, Control_c, 6, 7, 85
1, 0, Control_c, 6, 10, 76
1, 0, Control_c, 7, 0, 0
1, 0, Control_c, 7, 32, 0
1, 0, Program_c, 7, 87
1, 0, Control_c, 7, 7, 85
1, 0, Control_c, 7, 10, 76
1, 0, Control_c, 8, 0, 0
1, 0, Control_c, 8, 32, 0
1, 0, Program_c, 8, 94
1, 0, Control_c, 8, 7, 84
1, 0, Control_c, 8, 10, 76
1, 0, Control_c, 9, 0, 0
1, 0, Control_c, 9, 32, 0
1, 0, Program_c, 9, 25
1, 0, Control_c, 9, 7, 100
1, 0, Control_c, 9, 10, 76
1, 0, Control_c, 10, 0, 0
1, 0, Control_c, 10, 32, 0
1, 0, Program_c, 10, 119
1, 0, Control_c, 10, 7, 83
1, 0, Control_c, 10, 10, 76
1, 0, Control_c, 11, 0, 0
1, 0, Control_c, 11, 32, 0
1, 0, Program_c, 11, 87
1, 0, Control_c, 11, 7, 99
1, 0, Control_c, 11, 10, 76
1, 0, Control_c, 12, 0, 0
1, 0, Control_c, 12, 32, 0
1, 0, Program_c, 12, 81
1, 0, Control_c, 12, 7, 86
1, 0, Control_c, 12, 10, 76
1, 62, Control_c, 1, 121, 0
1, 62, Control_c, 3, 121, 0
1, 150, Control_c, 2, 121, 0
1, 182, Control_c, 4, 121, 0
1, 206, Control_c, 5, 121, 0
1, 218, Control_c, 1, 91, 40
1, 242, Control_c, 6, 121, 0
1, 274, Control_c, 2, 11, 127
1, 314, Control_c, 1, 93, 127
1, 330, Control_c, 2, 91, 105
1, 338, Control_c, 7, 121, 0
1, 350, Control_c, 4, 91, 127
1, 374, Control_c, 5, 91, 105
1, 410, Control_c, 6, 91, 105
1, 426, Control_c, 2, 93, 127
1, 446, Control_c, 3, 91, 127
1, 446, Control_c, 4, 93, 127
1, 446, Control_c, 8, 121, 0
1, 470, Control_c, 5, 93, 127
1, 494, Control_c, 7, 91, 105
1, 506, Control_c, 6, 93, 127
1, 506, Control_c, 9, 121, 0
1, 518, Control_c, 12, 121, 0
1, 530, Control_c, 10, 121, 0
1, 542, Control_c, 3, 93, 127
1, 542, Control_c, 11, 121, 0
1, 590, Control_c, 7, 93, 127
1, 626, Control_c, 8, 91, 121
1, 662, Control_c, 10, 91, 105
1, 674, Control_c, 12, 11, 127
1, 698, Control_c, 9, 91, 65
1, 698, Control_c, 11, 91, 105
1, 722, Control_c, 8, 93, 127
1, 758, Control_c, 10, 93, 127
1, 794, Control_c, 9, 93, 30
1, 794, Control_c, 11, 93, 127
1, 902, Control_c, 12, 91, 105
1, 998, Control_c, 12, 93, 127
1, 1488, Note_on_c, 2, 43, 71
1, 1488, Note_on_c, 2, 62, 71
1, 1488, Note_on_c, 2, 67, 71
1, 1488, Note_on_c, 2, 70, 71
1, 1536, Note_on_c, 3, 70, 95
1, 2120, Control_c, 2, 64, 127
1, 2120, Control_c, 2, 64, 127
1, 2122, Control_c, 2, 64, 127
1, 2123, Control_c, 2, 64, 127
1, 2124, Control_c, 2, 64, 127
1, 2124, Control_c, 2, 64, 127
1, 2124, Control_c, 2, 64, 127
1, 2124, Control_c, 2, 64, 127
1, 2124, Control_c, 2, 64, 127
1, 2124, Control_c, 2, 64, 127
1, 2124, Control_c, 2, 64, 127
1, 2124, Control_c, 2, 64, 127
1, 2124, Control_c, 2, 64, 127
1, 2124, Control_c, 2, 64, 127
1, 2124, Control_c, 2, 64, 127
1, 2240, Control_c, 2, 64, 0
1, 2240, Control_c, 2, 64, 0
1, 2240, Control_c, 2, 64, 0
1, 2240, Control_c, 2, 64, 0
1, 2240, Control_c, 2, 64, 0
1, 2240, Control_c, 2, 64, 0
1, 2240, Control_c, 2, 64, 0
1, 2240, Control_c, 2, 64, 0
1, 2240, Control_c, 2, 64, 0
1, 2240, Control_c, 2, 64, 0
1, 2240, Control_c, 2, 64, 0
1, 2240, Control_c, 2, 64, 0
1, 2240, Control_c, 2, 64, 0
1, 2240, Control_c, 2, 64, 0
1, 2240, Control_c, 2, 64, 0
1, 2250, Note_on_c, 2, 70, 0
1, 2250, Note_on_c, 2, 67, 0
1, 2250, Note_on_c, 2, 43, 0
1, 2250, Note_on_c, 2, 62, 0
1, 2256, Note_on_c, 2, 45, 71
1, 2256, Note_on_c, 2, 60, 71
1, 2256, Note_on_c, 2, 65, 71
1, 2256, Note_on_c, 2, 69, 71
1, 2298, Note_on_c, 3, 70, 0
1, 2304, Note_on_c, 3, 69, 82
1, 2653, Note_on_c, 3, 69, 0
1, 2688, Note_on_c, 3, 65, 87
1, 2989, Note_on_c, 2, 60, 0
1, 3018, Note_on_c, 2, 45, 0
1, 3024, Note_on_c, 2, 46, 71
1, 3024, Note_on_c, 2, 58, 71
1, 3024, Note_on_c, 2, 62, 71
1, 3041, Note_on_c, 2, 69, 0
1, 3072, Note_on_c, 4, 89, 113
1, 3072, Note_on_c, 10, 72, 90
1, 3162, Note_on_c, 3, 65, 0
1, 3186, Note_on_c, 4, 89, 0
1, 3264, Note_on_c, 4, 86, 113
1, 3423, Note_on_c, 4, 86, 0
1, 3456, Note_on_c, 4, 82, 113
1, 3642, Note_on_c, 4, 82, 0
1, 3648, Note_on_c, 4, 86, 113
1, 3840, Note_on_c, 3, 65, 82
1, 3840, Note_on_c, 4, 89, 113
1, 3847, Note_on_c, 4, 86, 0
1, 4026, Note_on_c, 4, 89, 0
1, 4032, Note_on_c, 4, 86, 114
1, 4176, Note_on_c, 4, 86, 0
1, 4224, Note_on_c, 3, 69, 87
1, 4224, Note_on_c, 4, 82, 114
1, 4227, Note_on_c, 3, 65, 0
1, 4410, Note_on_c, 4, 82, 0
1, 4416, Note_on_c, 4, 86, 114
1, 4454, Note_on_c, 3, 69, 0
1, 4554, Note_on_c, 2, 58, 0
1, 4554, Note_on_c, 2, 62, 0
1, 4554, Note_on_c, 2, 46, 0
1, 4560, Note_on_c, 2, 41, 71
1, 4560, Note_on_c, 2, 57, 71
1, 4560, Note_on_c, 2, 60, 71
1, 4573, Note_on_c, 4, 86, 0
1, 4608, Note_on_c, 3, 69, 82
1, 4608, Note_on_c, 4, 89, 114
1, 4608, Note_on_c, 9, 57, 102
1, 4626, Note_on_c, 9, 57, 0
1, 4649, Note_on_c, 10, 72, 0
1, 4770, Note_on_c, 4, 89, 0
1, 4800, Note_on_c, 4, 84, 114
1, 4978, Note_on_c, 4, 84, 0
1, 4992, Note_on_c, 4, 81, 115
1, 5099, Note_on_c, 3, 69, 0
1, 5106, Note_on_c, 4, 81, 0
1, 5184, Note_on_c, 4, 84, 115
1, 5354, Note_on_c, 4, 84, 0
1, 5376, Note_on_c, 3, 69, 80
1, 5376, Note_on_c, 4, 89, 115
1, 5550, Note_on_c, 4, 89, 0
1, 5568, Note_on_c, 4, 84, 115
1, 5738, Note_on_c, 4, 84, 0
1, 5760, Note_on_c, 3, 72, 89
1, 5760, Note_on_c, 4, 91, 115
1, 5781, Note_on_c, 3, 69, 0
1, 5909, Note_on_c, 4, 91, 0
1, 5952, Note_on_c, 4, 84, 115
1, 6084, Note_on_c, 4, 84, 0
1, 6096, Note_on_c, 2, 38, 71
1, 6096, Note_on_c, 2, 50, 71
1, 6109, Note_on_c, 3, 72, 0
1, 6144, Note_on_c, 3, 74, 89
1, 6144, Note_on_c, 4, 93, 110
1, 6234, Note_on_c, 4, 93, 0
1, 6299, Note_on_c, 2, 41, 0
1, 6336, Note_on_c, 4, 89, 110
1, 6426, Note_on_c, 3, 74, 0
1, 6513, Note_on_c, 4, 89, 0
1, 6528, Note_on_c, 3, 76, 95
1, 6528, Note_on_c, 4, 96, 110
1, 6618, Note_on_c, 4, 96, 0
1, 6720, Note_on_c, 4, 89, 110
1, 6905, Note_on_c, 4, 89, 0
1, 6912, Note_on_c, 3, 74, 107
1, 6912, Note_on_c, 4, 93, 110
1, 6946, Note_on_c, 3, 76, 0
1, 7002, Note_on_c, 4, 93, 0
1, 7104, Note_on_c, 4, 84, 110
1, 7296, Note_on_c, 4, 84, 0
1, 7296, Note_on_c, 3, 72, 87
1, 7296, Note_on_c, 4, 91, 110
1, 7298, Note_on_c, 3, 74, 0
1, 7386, Note_on_c, 4, 91, 0
1, 7488, Note_on_c, 4, 84, 112
1, 7488, Note_on_c, 9, 49, 44
1, 7506, Note_on_c, 9, 49, 0
1, 7590, Note_on_c, 2, 57, 0
1, 7590, Note_on_c, 2, 60, 0
1, 7626, Note_on_c, 2, 65, 0
1, 7632, Note_on_c, 2, 45, 71
1, 7632, Note_on_c, 2, 57, 71
1, 7632, Note_on_c, 2, 60, 71
1, 7632, Note_on_c, 2, 64, 71
1, 7635, Note_on_c, 2, 50, 0
1, 7654, Note_on_c, 2, 38, 0
1, 7674, Note_on_c, 4, 84, 0
1, 7680, Note_on_c, 3, 69, 82
1, 7680, Note_on_c, 4, 88, 107
1, 7680, Note_on_c, 9, 57, 102
1, 7687, Note_on_c, 3, 72, 0
1, 7698, Note_on_c, 9, 57, 0
1, 7872, Note_on_c, 4, 81, 107
1, 7894, Note_on_c, 4, 88, 0
1, 8057, Note_on_c, 4, 81, 0
1, 8064, Note_on_c, 4, 84, 107
1, 8085, Note_on_c, 3, 69, 0
1, 8256, Note_on_c, 4, 84, 0
1, 8256, Note_on_c, 4, 81, 107
1, 8423, Note_on_c, 4, 81, 0
1, 8448, Note_on_c, 3, 67, 61
1, 8448, Note_on_c, 4, 88, 107
1, 8640, Note_on_c, 4, 81, 107
1, 8662, Note_on_c, 4, 88, 0
1, 8756, Note_on_c, 3, 67, 0
1, 8825, Note_on_c, 4, 81, 0
1, 8832, Note_on_c, 3, 69, 78
1, 8832, Note_on_c, 4, 84, 107
1, 9024, Note_on_c, 4, 84, 0
1, 9024, Note_on_c, 4, 81, 107
1, 9161, Note_on_c, 2, 57, 0
1, 9161, Note_on_c, 2, 45, 0
1, 9168, Note_on_c, 2, 43, 71
1, 9168, Note_on_c, 2, 55, 71
1, 9168, Note_on_c, 2, 58, 71
1, 9168, Note_on_c, 2, 62, 71
1, 9184, Note_on_c, 2, 64, 0
1, 9189, Note_on_c, 3, 69, 0
1, 9189, Note_on_c, 2, 60, 0
1, 9191, Note_on_c, 4, 81, 0
1, 9216, Note_on_c, 3, 67, 76
1, 9216, Note_on_c, 4, 86, 107
1, 9377, Note_on_c, 4, 86, 0
1, 9408, Note_on_c, 4, 79, 107
1, 9591, Note_on_c, 4, 79, 0
1, 9600, Note_on_c, 4, 82, 107
1, 9614, Control_c, 2, 64, 127
1, 9614, Control_c, 2, 64, 127
1, 9614, Control_c, 2, 64, 127
1, 9614, Control_c, 2, 64, 127
1, 9614, Control_c, 2, 64, 127
1, 9614, Control_c, 2, 64, 127
1, 9614, Control_c, 2, 64, 127
1, 9614, Control_c, 2, 64, 127
1, 9614, Control_c, 2, 64, 127
1, 9614, Control_c, 2, 64, 127
1, 9614, Control_c, 2, 64, 127
1, 9614, Control_c, 2, 64, 127
1, 9614, Control_c, 2, 64, 127
1, 9614, Control_c, 2, 64, 127
1, 9614, Control_c, 2, 64, 127
1, 9746, Note_on_c, 4, 82, 0
1, 9784, Note_on_c, 3, 67, 0
1, 9792, Note_on_c, 4, 79, 107
1, 9864, Note_on_c, 2, 58, 0
1, 9880, Note_on_c, 2, 43, 0
1, 9910, Control_c, 2, 64, 0
1, 9910, Control_c, 2, 64, 0
1, 9912, Control_c, 2, 64, 0
1, 9913, Control_c, 2, 64, 0
1, 9914, Control_c, 2, 64, 0
1, 9914, Control_c, 2, 64, 0
1, 9914, Control_c, 2, 64, 0
1, 9914, Control_c, 2, 64, 0
1, 9914, Control_c, 2, 64, 0
1, 9914, Control_c, 2, 64, 0
1, 9914, Control_c, 2, 64, 0
1, 9914, Control_c, 2, 64, 0
1, 9914, Control_c, 2, 64, 0
1, 9914, Control_c, 2, 64, 0
1, 9914, Control_c, 2, 64, 0
1, 9936, Note_on_c, 2, 45, 71
1, 9936, Note_on_c, 2, 57, 71
1, 9936, Note_on_c, 2, 60, 71
1, 9936, Note_on_c, 2, 64, 71
1, 9942, Note_on_c, 2, 62, 0
1, 9942, Note_on_c, 2, 55, 0
1, 9959, Note_on_c, 4, 79, 0
1, 9984, Note_on_c, 3, 67, 82
1, 9984, Note_on_c, 4, 84, 107
1, 9984, Note_on_c, 9, 49, 95
1, 10002, Note_on_c, 9, 49, 0
1, 10136, Note_on_c, 4, 84, 0
1, 10176, Note_on_c, 4, 79, 107
1, 10297, Note_on_c, 2, 45, 0
1, 10320, Note_on_c, 2, 46, 71
1, 10320, Note_on_c, 2, 58, 71
1, 10320, Note_on_c, 2, 62, 71
1, 10320, Note_on_c, 2, 65, 71
1, 10322, Note_on_c, 2, 57, 0
1, 10322, Note_on_c, 2, 60, 0
1, 10322, Note_on_c, 2, 64, 0
1, 10328, Note_on_c, 3, 67, 0
1, 10368, Note_on_c, 3, 69, 65
1, 10368, Note_on_c, 4, 86, 107
1, 10385, Note_on_c, 4, 79, 0
1, 10526, Note_on_c, 4, 86, 0
1, 10560, Note_on_c, 4, 79, 107
1, 10668, Note_on_c, 4, 79, 0
1, 10704, Note_on_c, 2, 48, 71
1, 10704, Note_on_c, 2, 60, 71
1, 10704, Note_on_c, 2, 64, 71
1, 10704, Note_on_c, 2, 67, 71
1, 10710, Note_on_c, 2, 62, 0
1, 10710, Note_on_c, 2, 65, 0
1, 10710, Note_on_c, 2, 58, 0
1, 10727, Note_on_c, 2, 46, 0
1, 10752, Note_on_c, 3, 67, 69
1, 10752, Note_on_c, 4, 91, 107
1, 10752, Note_on_c, 9, 57, 87
1, 10756, Note_on_c, 3, 69, 0
1, 10770, Note_on_c, 9, 57, 0
1, 10944, Note_on_c, 4, 88, 107
1, 10951, Note_on_c, 4, 91, 0
1, 11108, Note_on_c, 3, 67, 0
1, 11136, Note_on_c, 4, 84, 107
1, 11149, Note_on_c, 4, 88, 0
1, 11328, Note_on_c, 4, 88, 107
1, 11376, Note_on_c, 4, 84, 0
1, 11496, Note_on_c, 4, 88, 0
1, 11520, Note_on_c, 3, 65, 89
1, 11520, Note_on_c, 4, 91, 107
1, 11712, Note_on_c, 4, 88, 107
1, 11743, Note_on_c, 4, 91, 0
1, 11870, Note_on_c, 3, 65, 0
1, 11873, Note_on_c, 4, 88, 0
1, 11904, Note_on_c, 3, 69, 76
1, 11904, Note_on_c, 4, 84, 107
1, 12096, Note_on_c, 4, 88, 107
1, 12121, Note_on_c, 2, 67, 0
1, 12143, Note_on_c, 4, 84, 0
1, 12154, Note_on_c, 3, 69, 0
1, 12240, Note_on_c, 2, 50, 71
1, 12240, Note_on_c, 2, 57, 71
1, 12240, Note_on_c, 2, 62, 71
1, 12240, Note_on_c, 2, 67, 71
1, 12246, Note_on_c, 2, 60, 0
1, 12246, Note_on_c, 2, 48, 0
1, 12246, Note_on_c, 2, 64, 0
1, 12286, Note_on_c, 4, 88, 0
1, 12288, Note_on_c, 3, 69, 80
1, 12288, Note_on_c, 4, 93, 107
1, 12288, Note_on_c, 5, 62, 68
1, 12288, Note_on_c, 10, 72, 100
1, 12288, Note_on_c, 11, 62, 68
1, 12289, Note_on_c, 5, 67, 68
1, 12289, Note_on_c, 11, 67, 68
1, 12290, Control_c, 5, 10, 111
1, 12290, Control_c, 5, 11, 111
1, 12290, Control_c, 11, 10, 22
1, 12290, Control_c, 11, 11, 83
1, 12336, Note_on_c, 11, 67, 0
1, 12336, Note_on_c, 5, 67, 0
1, 12341, Note_on_c, 5, 62, 0
1, 12341, Note_on_c, 11, 62, 0
1, 12384, Note_on_c, 5, 62, 53
1, 12384, Note_on_c, 11, 62, 53
1, 12385, Note_on_c, 5, 67, 53
1, 12385, Note_on_c, 11, 67, 53
1, 12432, Note_on_c, 11, 67, 0
1, 12432, Note_on_c, 5, 67, 0
1, 12437, Note_on_c, 5, 62, 0
1, 12437, Note_on_c, 11, 62, 0
1, 12480, Note_on_c, 4, 91, 107
1, 12480, Note_on_c, 5, 62, 53
1, 12480, Note_on_c, 9, 40, 67
1, 12480, Note_on_c, 9, 50, 127
1, 12480, Note_on_c, 11, 62, 53
1, 12481, Note_on_c, 5, 67, 104
1, 12481, Note_on_c, 11, 67, 104
1, 12498, Note_on_c, 9, 50, 0
1, 12498, Note_on_c, 9, 40, 0
1, 12528, Note_on_c, 11, 67, 0
1, 12528, Note_on_c, 5, 67, 0
1, 12533, Note_on_c, 5, 62, 0
1, 12533, Note_on_c, 11, 62, 0
1, 12536, Note_on_c, 4, 93, 0
1, 12576, Note_on_c, 5, 62, 35
1, 12576, Note_on_c, 11, 62, 35
1, 12577, Note_on_c, 5, 67, 59
1, 12577, Note_on_c, 11, 67, 59
1, 12624, Note_on_c, 11, 67, 0
1, 12624, Note_on_c, 5, 67, 0
1, 12629, Note_on_c, 5, 62, 0
1, 12629, Note_on_c, 11, 62, 0
1, 12672, Note_on_c, 4, 86, 107
1, 12672, Note_on_c, 5, 62, 89
1, 12672, Note_on_c, 9, 40, 67
1, 12672, Note_on_c, 9, 50, 127
1, 12672, Note_on_c, 11, 62, 89
1, 12673, Note_on_c, 5, 67, 44
1, 12673, Note_on_c, 11, 67, 44
1, 12675, Note_on_c, 4, 91, 0
1, 12690, Note_on_c, 9, 50, 0
1, 12690, Note_on_c, 9, 40, 0
1, 12720, Note_on_c, 11, 67, 0
1, 12720, Note_on_c, 5, 67, 0
1, 12725, Note_on_c, 5, 62, 0
1, 12725, Note_on_c, 11, 62, 0
1, 12768, Note_on_c, 5, 62, 63
1, 12768, Note_on_c, 11, 62, 63
1, 12769, Note_on_c, 5, 67, 50
1, 12769, Note_on_c, 11, 67, 50
1, 12816, Note_on_c, 11, 67, 0
1, 12816, Note_on_c, 5, 67, 0
1, 12821, Note_on_c, 5, 62, 0
1, 12821, Note_on_c, 11, 62, 0
1, 12864, Note_on_c, 4, 91, 107
1, 12864, Note_on_c, 5, 62, 82
1, 12864, Note_on_c, 9, 40, 53
1, 12864, Note_on_c, 9, 47, 113
1, 12864, Note_on_c, 11, 62, 82
1, 12865, Note_on_c, 5, 67, 89
1, 12865, Note_on_c, 11, 67, 89
1, 12882, Note_on_c, 9, 47, 0
1, 12882, Note_on_c, 9, 40, 0
1, 12899, Note_on_c, 4, 86, 0
1, 12912, Note_on_c, 11, 67, 0
1, 12912, Note_on_c, 5, 67, 0
1, 12917, Note_on_c, 5, 62, 0
1, 12917, Note_on_c, 11, 62, 0
1, 12960, Note_on_c, 5, 62, 41
1, 12960, Note_on_c, 9, 40, 52
1, 12960, Note_on_c, 9, 47, 112
1, 12960, Note_on_c, 11, 62, 41
1, 12961, Note_on_c, 5, 67, 53
1, 12961, Note_on_c, 11, 67, 53
1, 12978, Note_on_c, 9, 47, 0
1, 12978, Note_on_c, 9, 40, 0
1, 13008, Note_on_c, 11, 67, 0
1, 13008, Note_on_c, 5, 67, 0
1, 13008, Note_on_c, 2, 66, 71
1, 13013, Note_on_c, 11, 62, 0
1, 13013, Note_on_c, 5, 62, 0
1, 13031, Note_on_c, 2, 67, 0
1, 13045, Note_on_c, 4, 91, 0
1, 13056, Note_on_c, 4, 93, 107
1, 13056, Note_on_c, 5, 66, 68
1, 13056, Note_on_c, 5, 62, 68
1, 13056, Note_on_c, 9, 40, 67
1, 13056, Note_on_c, 9, 50, 127
1, 13056, Note_on_c, 11, 66, 68
1, 13056, Note_on_c, 11, 62, 68
1, 13074, Note_on_c, 9, 50, 0
1, 13074, Note_on_c, 9, 40, 0
1, 13103, Note_on_c, 5, 66, 0
1, 13103, Note_on_c, 11, 66, 0
1, 13109, Note_on_c, 5, 62, 0
1, 13109, Note_on_c, 11, 62, 0
1, 13152, Note_on_c, 5, 66, 53
1, 13152, Note_on_c, 5, 62, 53
1, 13152, Note_on_c, 11, 66, 53
1, 13152, Note_on_c, 11, 62, 53
1, 13199, Note_on_c, 11, 66, 0
1, 13199, Note_on_c, 5, 66, 0
1, 13205, Note_on_c, 5, 62, 0
1, 13205, Note_on_c, 11, 62, 0
1, 13248, Note_on_c, 4, 90, 107
1, 13248, Note_on_c, 5, 66, 104
1, 13248, Note_on_c, 5, 62, 53
1, 13248, Note_on_c, 11, 66, 104
1, 13248, Note_on_c, 11, 62, 53
1, 13295, Note_on_c, 11, 66, 0
1, 13295, Note_on_c, 5, 66, 0
1, 13301, Note_on_c, 5, 62, 0
1, 13301, Note_on_c, 11, 62, 0
1, 13329, Note_on_c, 4, 93, 0
1, 13344, Note_on_c, 5, 66, 59
1, 13344, Note_on_c, 5, 62, 35
1, 13344, Note_on_c, 11, 66, 59
1, 13344, Note_on_c, 11, 62, 35
1, 13391, Note_on_c, 11, 66, 0
1, 13391, Note_on_c, 5, 66, 0
1, 13397, Note_on_c, 5, 62, 0
1, 13397, Note_on_c, 11, 62, 0
1, 13429, Note_on_c, 4, 90, 0
1, 13434, Note_on_c, 3, 69, 0
1, 13440, Note_on_c, 4, 86, 107
1, 13440, Note_on_c, 5, 66, 44
1, 13440, Note_on_c, 5, 62, 89
1, 13440, Note_on_c, 9, 40, 67
1, 13440, Note_on_c, 9, 50, 127
1, 13440, Note_on_c, 11, 66, 44
1, 13440, Note_on_c, 11, 62, 89
1, 13458, Note_on_c, 9, 50, 0
1, 13458, Note_on_c, 9, 40, 0
1, 13487, Note_on_c, 11, 66, 0
1, 13487, Note_on_c, 5, 66, 0
1, 13493, Note_on_c, 5, 62, 0
1, 13493, Note_on_c, 11, 62, 0
1, 13536, Note_on_c, 5, 66, 50
1, 13536, Note_on_c, 5, 62, 63
1, 13536, Note_on_c, 11, 66, 50
1, 13536, Note_on_c, 11, 62, 63
1, 13583, Note_on_c, 11, 66, 0
1, 13583, Note_on_c, 5, 66, 0
1, 13589, Note_on_c, 5, 62, 0
1, 13589, Note_on_c, 11, 62, 0
1, 13632, Note_on_c, 4, 90, 107
1, 13632, Note_on_c, 5, 66, 89
1, 13632, Note_on_c, 5, 62, 82
1, 13632, Note_on_c, 9, 40, 67
1, 13632, Note_on_c, 9, 50, 127
1, 13632, Note_on_c, 11, 66, 89
1, 13632, Note_on_c, 11, 62, 82
1, 13650, Note_on_c, 9, 50, 0
1, 13650, Note_on_c, 9, 40, 0
1, 13679, Note_on_c, 5, 66, 0
1, 13679, Note_on_c, 4, 86, 0
1, 13679, Note_on_c, 11, 66, 0
1, 13685, Note_on_c, 5, 62, 0
1, 13685, Note_on_c, 11, 62, 0
1, 13728, Note_on_c, 5, 66, 53
1, 13728, Note_on_c, 5, 62, 41
1, 13728, Note_on_c, 11, 66, 53
1, 13728, Note_on_c, 11, 62, 41
1, 13757, Note_on_c, 4, 90, 0
1, 13770, Note_on_c, 2, 62, 0
1, 13775, Note_on_c, 11, 66, 0
1, 13775, Note_on_c, 5, 66, 0
1, 13776, Note_on_c, 2, 43, 71
1, 13776, Note_on_c, 2, 62, 71
1, 13776, Note_on_c, 2, 67, 71
1, 13776, Note_on_c, 2, 70, 71
1, 13778, Note_on_c, 2, 66, 0
1, 13779, Note_on_c, 2, 50, 0
1, 13781, Note_on_c, 5, 62, 0
1, 13781, Note_on_c, 11, 62, 0
1, 13788, Note_on_c, 2, 57, 0
1, 13803, Note_on_c, 2, 62, 0
1, 13824, Note_on_c, 3, 70, 101
1, 13824, Note_on_c, 4, 94, 107
1, 13824, Note_on_c, 5, 70, 68
1, 13824, Note_on_c, 5, 62, 68
1, 13824, Note_on_c, 9, 40, 67
1, 13824, Note_on_c, 9, 50, 127
1, 13824, Note_on_c, 9, 49, 127
1, 13824, Note_on_c, 11, 70, 68
1, 13824, Note_on_c, 11, 62, 68
1, 13842, Note_on_c, 9, 49, 0
1, 13842, Note_on_c, 9, 50, 0
1, 13842, Note_on_c, 9, 40, 0
1, 13871, Note_on_c, 5, 70, 0
1, 13871, Note_on_c, 11, 70, 0
1, 13877, Note_on_c, 5, 62, 0
1, 13877, Note_on_c, 11, 62, 0
1, 13920, Note_on_c, 5, 70, 53
1, 13920, Note_on_c, 5, 62, 53
1, 13920, Note_on_c, 9, 40, 60
1, 13920, Note_on_c, 9, 50, 120
1, 13920, Note_on_c, 11, 70, 53
1, 13920, Note_on_c, 11, 62, 53
1, 13938, Note_on_c, 9, 50, 0
1, 13938, Note_on_c, 9, 40, 0
1, 13967, Note_on_c, 11, 70, 0
1, 13967, Note_on_c, 5, 70, 0
1, 13973, Note_on_c, 5, 62, 0
1, 13973, Note_on_c, 11, 62, 0
1, 14016, Note_on_c, 4, 91, 107
1, 14016, Note_on_c, 5, 70, 104
1, 14016, Note_on_c, 5, 62, 53
1, 14016, Note_on_c, 11, 70, 104
1, 14016, Note_on_c, 11, 62, 53
1, 14049, Note_on_c, 4, 94, 0
1, 14063, Note_on_c, 11, 70, 0
1, 14063, Note_on_c, 5, 70, 0
1, 14069, Note_on_c, 5, 62, 0
1, 14069, Note_on_c, 11, 62, 0
1, 14080, Note_on_c, 10, 72, 0
1, 14112, Note_on_c, 5, 70, 59
1, 14112, Note_on_c, 5, 62, 35
1, 14112, Note_on_c, 9, 40, 62
1, 14112, Note_on_c, 9, 50, 122
1, 14112, Note_on_c, 11, 70, 59
1, 14112, Note_on_c, 11, 62, 35
1, 14130, Note_on_c, 9, 50, 0
1, 14130, Note_on_c, 9, 40, 0
1, 14133, Control_c, 2, 64, 127
1, 14133, Control_c, 2, 64, 127
1, 14135, Control_c, 2, 64, 127
1, 14136, Control_c, 2, 64, 127
1, 14137, Control_c, 2, 64, 127
1, 14139, Control_c, 2, 64, 127
1, 14140, Control_c, 2, 64, 127
1, 14141, Control_c, 2, 64, 127
1, 14143, Control_c, 2, 64, 127
1, 14144, Control_c, 2, 64, 127
1, 14145, Control_c, 2, 64, 127
1, 14145, Control_c, 2, 64, 127
1, 14146, Control_c, 2, 64, 127
1, 14147, Control_c, 2, 64, 127
1, 14148, Control_c, 2, 64, 127
1, 14159, Note_on_c, 5, 70, 0
1, 14159, Note_on_c, 11, 70, 0
1, 14165, Note_on_c, 11, 62, 0
1, 14165, Note_on_c, 5, 62, 0
1, 14179, Note_on_c, 4, 91, 0
1, 14208, Note_on_c, 4, 86, 107
1, 14208, Note_on_c, 5, 70, 44
1, 14208, Note_on_c, 5, 62, 89
1, 14208, Note_on_c, 9, 40, 62
1, 14208, Note_on_c, 9, 40, 62
1, 14208, Note_on_c, 9, 50, 122
1, 14208, Note_on_c, 9, 50, 122
1, 14208, Note_on_c, 11, 70, 44
1, 14208, Note_on_c, 11, 62, 89
1, 14226, Note_on_c, 9, 50, 0
1, 14226, Note_on_c, 9, 40, 0
1, 14255, Note_on_c, 5, 70, 0
1, 14255, Note_on_c, 11, 70, 0
1, 14261, Note_on_c, 5, 62, 0
1, 14261, Note_on_c, 11, 62, 0
1, 14304, Note_on_c, 5, 70, 50
1, 14304, Note_on_c, 5, 62, 63
1, 14304, Note_on_c, 11, 70, 50
1, 14304, Note_on_c, 11, 62, 63
1, 14351, Note_on_c, 11, 70, 0
1, 14351, Note_on_c, 5, 70, 0
1, 14357, Note_on_c, 5, 62, 0
1, 14357, Note_on_c, 11, 62, 0
1, 14400, Note_on_c, 4, 89, 107
1, 14400, Note_on_c, 5, 70, 89
1, 14400, Note_on_c, 5, 62, 82
1, 14400, Note_on_c, 11, 70, 89
1, 14400, Note_on_c, 11, 62, 82
1, 14447, Note_on_c, 11, 70, 0
1, 14447, Note_on_c, 5, 70, 0
1, 14453, Note_on_c, 5, 62, 0
1, 14453, Note_on_c, 11, 62, 0
1, 14496, Note_on_c, 5, 70, 53
1, 14496, Note_on_c, 5, 62, 41
1, 14496, Note_on_c, 9, 40, 67
1, 14496, Note_on_c, 9, 50, 127
1, 14496, Note_on_c, 11, 70, 53
1, 14496, Note_on_c, 11, 62, 41
1, 14498, Note_on_c, 4, 86, 0
1, 14514, Note_on_c, 9, 40, 0
1, 14514, Note_on_c, 9, 50, 0
1, 14538, Note_on_c, 2, 67, 0
1, 14538, Note_on_c, 2, 43, 0
1, 14538, Note_on_c, 2, 70, 0
1, 14543, Note_on_c, 5, 70, 0
1, 14543, Note_on_c, 11, 70, 0
1, 14544, Note_on_c, 2, 45, 71
1, 14544, Note_on_c, 2, 60, 71
1, 14544, Note_on_c, 2, 65, 71
1, 14544, Note_on_c, 2, 69, 71
1, 14549, Note_on_c, 11, 62, 0
1, 14549, Note_on_c, 5, 62, 0
1, 14555, Note_on_c, 4, 89, 0
1, 14572, Note_on_c, 3, 70, 0
1, 14592, Note_on_c, 3, 69, 87
1, 14592, Note_on_c, 4, 93, 107
1, 14592, Note_on_c, 5, 60, 68
1, 14592, Note_on_c, 5, 69, 68
1, 14592, Note_on_c, 9, 40, 60
1, 14592, Note_on_c, 9, 50, 120
1, 14592, Note_on_c, 11, 60, 68
1, 14592, Note_on_c, 11, 69, 68
1, 14606, Control_c, 2, 64, 0
1, 14606, Control_c, 2, 64, 0
1, 14606, Control_c, 2, 64, 0
1, 14606, Control_c, 2, 64, 0
1, 14606, Control_c, 2, 64, 0
1, 14606, Control_c, 2, 64, 0
1, 14606, Control_c, 2, 64, 0
1, 14606, Control_c, 2, 64, 0
1, 14606, Control_c, 2, 64, 0
1, 14606, Control_c, 2, 64, 0
1, 14606, Control_c, 2, 64, 0
1, 14606, Control_c, 2, 64, 0
1, 14606, Control_c, 2, 64, 0
1, 14606, Control_c, 2, 64, 0
1, 14606, Control_c, 2, 64, 0
1, 14610, Note_on_c, 9, 40, 0
1, 14610, Note_on_c, 9, 50, 0
1, 14639, Note_on_c, 5, 69, 0
1, 14639, Note_on_c, 11, 69, 0
1, 14645, Note_on_c, 5, 60, 0
1, 14645, Note_on_c, 11, 60, 0
1, 14688, Note_on_c, 5, 60, 53
1, 14688, Note_on_c, 5, 69, 53
1, 14688, Note_on_c, 9, 40, 67
1, 14688, Note_on_c, 9, 48, 127
1, 14688, Note_on_c, 11, 60, 53
1, 14688, Note_on_c, 11, 69, 53
1, 14706, Note_on_c, 9, 48, 0
1, 14706, Note_on_c, 9, 40, 0
1, 14735, Note_on_c, 5, 69, 0
1, 14735, Note_on_c, 11, 69, 0
1, 14741, Note_on_c, 5, 60, 0
1, 14741, Note_on_c, 11, 60, 0
1, 14784, Note_on_c, 4, 89, 107
1, 14784, Note_on_c, 5, 60, 53
1, 14784, Note_on_c, 5, 69, 104
1, 14784, Note_on_c, 9, 40, 60
1, 14784, Note_on_c, 9, 48, 120
1, 14784, Note_on_c, 11, 60, 53
1, 14784, Note_on_c, 11, 69, 104
1, 14802, Note_on_c, 9, 48, 0
1, 14802, Note_on_c, 9, 40, 0
1, 14817, Note_on_c, 4, 93, 0
1, 14831, Note_on_c, 5, 69, 0
1, 14831, Note_on_c, 11, 69, 0
1, 14837, Note_on_c, 5, 60, 0
1, 14837, Note_on_c, 11, 60, 0
1, 14880, Note_on_c, 5, 60, 35
1, 14880, Note_on_c, 5, 69, 59
1, 14880, Note_on_c, 9, 40, 67
1, 14880, Note_on_c, 9, 47, 127
1, 14880, Note_on_c, 11, 60, 35
1, 14880, Note_on_c, 11, 69, 59
1, 14898, Note_on_c, 9, 47, 0
1, 14898, Note_on_c, 9, 40, 0
1, 14927, Note_on_c, 5, 69, 0
1, 14927, Note_on_c, 11, 69, 0
1, 14933, Note_on_c, 5, 60, 0
1, 14933, Note_on_c, 11, 60, 0
1, 14960, Control_c, 2, 64, 127
1, 14960, Control_c, 2, 64, 127
1, 14960, Control_c, 2, 64, 127
1, 14960, Control_c, 2, 64, 127
1, 14960, Control_c, 2, 64, 127
1, 14960, Control_c, 2, 64, 127
1, 14960, Control_c, 2, 64, 127
1, 14960, Control_c, 2, 64, 127
1, 14960, Control_c, 2, 64, 127
1, 14960, Control_c, 2, 64, 127
1, 14960, Control_c, 2, 64, 127
1, 14960, Control_c, 2, 64, 127
1, 14960, Control_c, 2, 64, 127
1, 14960, Control_c, 2, 64, 127
1, 14960, Control_c, 2, 64, 127
1, 14974, Note_on_c, 4, 89, 0
1, 14976, Note_on_c, 4, 84, 107
1, 14976, Note_on_c, 5, 60, 89
1, 14976, Note_on_c, 5, 69, 44
1, 14976, Note_on_c, 9, 40, 60
1, 14976, Note_on_c, 9, 47, 120
1, 14976, Note_on_c, 11, 60, 89
1, 14976, Note_on_c, 11, 69, 44
1, 14994, Note_on_c, 9, 47, 0
1, 14994, Note_on_c, 9, 40, 0
1, 15023, Note_on_c, 5, 69, 0
1, 15023, Note_on_c, 11, 69, 0
1, 15029, Note_on_c, 5, 60, 0
1, 15029, Note_on_c, 11, 60, 0
1, 15072, Note_on_c, 5, 60, 63
1, 15072, Note_on_c, 5, 69, 50
1, 15072, Note_on_c, 9, 40, 67
1, 15072, Note_on_c, 9, 41, 127
1, 15072, Note_on_c, 11, 60, 63
1, 15072, Note_on_c, 11, 69, 50
1, 15090, Note_on_c, 9, 41, 0
1, 15090, Note_on_c, 9, 40, 0
1, 15119, Note_on_c, 5, 69, 0
1, 15119, Note_on_c, 11, 69, 0
1, 15125, Note_on_c, 5, 60, 0
1, 15125, Note_on_c, 11, 60, 0
1, 15166, Note_on_c, 4, 84, 0
1, 15168, Note_on_c, 4, 89, 107
1, 15168, Note_on_c, 5, 60, 82
1, 15168, Note_on_c, 5, 69, 89
1, 15168, Note_on_c, 9, 40, 60
1, 15168, Note_on_c, 9, 41, 120
1, 15168, Note_on_c, 11, 60, 82
1, 15168, Note_on_c, 11, 69, 89
1, 15186, Note_on_c, 9, 41, 0
1, 15186, Note_on_c, 9, 40, 0
1, 15215, Note_on_c, 5, 69, 0
1, 15215, Note_on_c, 11, 69, 0
1, 15221, Note_on_c, 5, 60, 0
1, 15221, Note_on_c, 11, 60, 0
1, 15264, Note_on_c, 5, 60, 41
1, 15264, Note_on_c, 5, 69, 53
1, 15264, Note_on_c, 9, 40, 67
1, 15264, Note_on_c, 9, 41, 127
1, 15264, Note_on_c, 11, 60, 41
1, 15264, Note_on_c, 11, 69, 53
1, 15282, Note_on_c, 9, 41, 0
1, 15282, Note_on_c, 9, 40, 0
1, 15306, Note_on_c, 2, 65, 0
1, 15311, Note_on_c, 5, 69, 0
1, 15311, Note_on_c, 11, 69, 0
1, 15312, Note_on_c, 2, 46, 71
1, 15312, Note_on_c, 2, 58, 71
1, 15312, Note_on_c, 2, 62, 71
1, 15312, Note_on_c, 2, 65, 71
1, 15317, Note_on_c, 5, 60, 0
1, 15317, Note_on_c, 11, 60, 0
1, 15318, Note_on_c, 2, 69, 0
1, 15318, Note_on_c, 2, 60, 0
1, 15318, Note_on_c, 2, 45, 0
1, 15318, Note_on_c, 2, 65, 0
1, 15320, Control_c, 2, 64, 0
1, 15320, Control_c, 2, 64, 0
1, 15320, Control_c, 2, 64, 0
1, 15320, Control_c, 2, 64, 0
1, 15320, Control_c, 2, 64, 0
1, 15320, Control_c, 2, 64, 0
1, 15320, Control_c, 2, 64, 0
1, 15320, Control_c, 2, 64, 0
1, 15320, Control_c, 2, 64, 0
1, 15320, Control_c, 2, 64, 0
1, 15320, Control_c, 2, 64, 0
1, 15320, Control_c, 2, 64, 0
1, 15320, Control_c, 2, 64, 0
1, 15320, Control_c, 2, 64, 0
1, 15320, Control_c, 2, 64, 0
1, 15343, Note_on_c, 4, 89, 0
1, 15352, Note_on_c, 3, 69, 0
1, 15360, Note_on_c, 3, 65, 89
1, 15360, Note_on_c, 4, 89, 107
1, 15360, Note_on_c, 5, 58, 64
1, 15360, Note_on_c, 9, 27, 120
1, 15360, Note_on_c, 9, 36, 120
1, 15360, Note_on_c, 9, 57, 54
1, 15360, Note_on_c, 11, 58, 64
1, 15378, Note_on_c, 9, 57, 0
1, 15378, Note_on_c, 9, 36, 0
1, 15378, Note_on_c, 9, 27, 0
1, 15450, Note_on_c, 5, 58, 0
1, 15450, Note_on_c, 11, 58, 0
1, 15456, Note_on_c, 5, 65, 65
1, 15456, Note_on_c, 11, 65, 65
1, 15546, Note_on_c, 11, 65, 0
1, 15546, Note_on_c, 5, 65, 0
1, 15552, Note_on_c, 4, 86, 107
1, 15552, Note_on_c, 5, 70, 80
1, 15552, Note_on_c, 11, 70, 80
1, 15584, Note_on_c, 4, 89, 0
1, 15648, Note_on_c, 5, 74, 68
1, 15648, Note_on_c, 11, 74, 68
1, 15667, Note_on_c, 11, 70, 0
1, 15667, Note_on_c, 5, 70, 0
1, 15738, Note_on_c, 5, 74, 0
1, 15738, Note_on_c, 11, 74, 0
1, 15742, Note_on_c, 4, 86, 0
1, 15744, Note_on_c, 4, 82, 107
1, 15744, Note_on_c, 5, 77, 86
1, 15744, Note_on_c, 11, 77, 86
1, 15840, Note_on_c, 5, 74, 59
1, 15840, Note_on_c, 11, 74, 59
1, 15846, Note_on_c, 11, 77, 0
1, 15846, Note_on_c, 5, 77, 0
1, 15930, Note_on_c, 5, 74, 0
1, 15930, Note_on_c, 11, 74, 0
1, 15936, Note_on_c, 4, 86, 107
1, 15936, Note_on_c, 5, 70, 80
1, 15936, Note_on_c, 11, 70, 80
1, 15938, Note_on_c, 3, 65, 0
1, 15967, Note_on_c, 4, 82, 0
1, 16032, Note_on_c, 5, 65, 94
1, 16032, Note_on_c, 11, 65, 94
1, 16051, Note_on_c, 11, 70, 0
1, 16051, Note_on_c, 5, 70, 0
1, 16103, Note_on_c, 4, 86, 0
1, 16122, Note_on_c, 5, 65, 0
1, 16122, Note_on_c, 11, 65, 0
1, 16128, Note_on_c, 3, 65, 80
1, 16128, Note_on_c, 4, 89, 107
1, 16128, Note_on_c, 5, 58, 59
1, 16128, Note_on_c, 11, 58, 59
1, 16218, Note_on_c, 11, 58, 0
1, 16218, Note_on_c, 5, 58, 0
1, 16224, Note_on_c, 5, 65, 94
1, 16224, Note_on_c, 11, 65, 94
1, 16314, Note_on_c, 11, 65, 0
1, 16314, Note_on_c, 5, 65, 0
1, 16320, Note_on_c, 4, 86, 107
1, 16320, Note_on_c, 5, 70, 64
1, 16320, Note_on_c, 11, 70, 64
1, 16344, Note_on_c, 4, 89, 0
1, 16416, Note_on_c, 5, 74, 77
1, 16416, Note_on_c, 11, 74, 77
1, 16435, Note_on_c, 11, 70, 0
1, 16435, Note_on_c, 5, 70, 0
1, 16482, Note_on_c, 4, 86, 0
1, 16506, Note_on_c, 5, 74, 0
1, 16506, Note_on_c, 11, 74, 0
1, 16512, Note_on_c, 3, 69, 95
1, 16512, Note_on_c, 4, 82, 107
1, 16512, Note_on_c, 5, 77, 86
1, 16512, Note_on_c, 11, 77, 86
1, 16518, Note_on_c, 3, 65, 0
1, 16608, Note_on_c, 5, 74, 71
1, 16608, Note_on_c, 11, 74, 71
1, 16614, Note_on_c, 11, 77, 0
1, 16614, Note_on_c, 5, 77, 0
1, 16698, Note_on_c, 5, 74, 0
1, 16698, Note_on_c, 11, 74, 0
1, 16704, Note_on_c, 4, 86, 107
1, 16704, Note_on_c, 5, 70, 64
1, 16704, Note_on_c, 11, 70, 64
1, 16725, Note_on_c, 4, 82, 0
1, 16763, Note_on_c, 3, 69, 0
1, 16800, Note_on_c, 5, 65, 80
1, 16800, Note_on_c, 11, 65, 80
1, 16819, Note_on_c, 11, 70, 0
1, 16819, Note_on_c, 5, 70, 0
1, 16842, Note_on_c, 2, 58, 0
1, 16842, Note_on_c, 2, 46, 0
1, 16842, Note_on_c, 2, 62, 0
1, 16848, Note_on_c, 2, 41, 71
1, 16848, Note_on_c, 2, 53, 71
1, 16848, Note_on_c, 2, 57, 71
1, 16848, Note_on_c, 2, 60, 71
1, 16857, Note_on_c, 4, 86, 0
1, 16890, Note_on_c, 11, 65, 0
1, 16890, Note_on_c, 5, 65, 0
1, 16896, Note_on_c, 3, 69, 95
1, 16896, Note_on_c, 4, 89, 107
1, 16896, Note_on_c, 5, 57, 59
1, 16896, Note_on_c, 11, 57, 59
1, 16986, Note_on_c, 11, 57, 0
1, 16986, Note_on_c, 5, 57, 0
1, 16992, Note_on_c, 5, 65, 68
1, 16992, Note_on_c, 11, 65, 68
1, 17082, Note_on_c, 11, 65, 0
1, 17082, Note_on_c, 5, 65, 0
1, 17088, Note_on_c, 4, 84, 107
1, 17088, Note_on_c, 5, 69, 64
1, 17088, Note_on_c, 11, 69, 64
1, 17145, Note_on_c, 4, 89, 0
1, 17184, Note_on_c, 5, 72, 74
1, 17184, Note_on_c, 11, 72, 74
1, 17203, Note_on_c, 11, 69, 0
1, 17203, Note_on_c, 5, 69, 0
1, 17244, Note_on_c, 4, 84, 0
1, 17274, Note_on_c, 5, 72, 0
1, 17274, Note_on_c, 11, 72, 0
1, 17280, Note_on_c, 4, 81, 107
1, 17280, Note_on_c, 5, 77, 89
1, 17280, Note_on_c, 11, 77, 89
1, 17376, Note_on_c, 5, 72, 77
1, 17376, Note_on_c, 11, 72, 77
1, 17382, Note_on_c, 11, 77, 0
1, 17382, Note_on_c, 5, 77, 0
1, 17412, Note_on_c, 3, 69, 0
1, 17466, Note_on_c, 5, 72, 0
1, 17466, Note_on_c, 11, 72, 0
1, 17468, Note_on_c, 4, 81, 0
1, 17472, Note_on_c, 4, 84, 107
1, 17472, Note_on_c, 5, 69, 64
1, 17472, Note_on_c, 11, 69, 64
1, 17568, Note_on_c, 5, 65, 74
1, 17568, Note_on_c, 11, 65, 74
1, 17587, Note_on_c, 11, 69, 0
1, 17587, Note_on_c, 5, 69, 0
1, 17645, Note_on_c, 4, 84, 0
1, 17658, Note_on_c, 5, 65, 0
1, 17658, Note_on_c, 11, 65, 0
1, 17664, Note_on_c, 3, 69, 92
1, 17664, Note_on_c, 4, 89, 107
1, 17664, Note_on_c, 5, 57, 59
1, 17664, Note_on_c, 11, 57, 59
1, 17754, Note_on_c, 11, 57, 0
1, 17754, Note_on_c, 5, 57, 0
1, 17760, Note_on_c, 5, 65, 74
1, 17760, Note_on_c, 11, 65, 74
1, 17850, Note_on_c, 11, 65, 0
1, 17850, Note_on_c, 5, 65, 0
1, 17856, Note_on_c, 4, 84, 107
1, 17856, Note_on_c, 5, 69, 64
1, 17856, Note_on_c, 11, 69, 64
1, 17903, Note_on_c, 4, 89, 0
1, 17952, Note_on_c, 5, 72, 80
1, 17952, Note_on_c, 11, 72, 80
1, 17971, Note_on_c, 11, 69, 0
1, 17971, Note_on_c, 5, 69, 0
1, 18010, Note_on_c, 4, 84, 0
1, 18042, Note_on_c, 5, 72, 0
1, 18042, Note_on_c, 11, 72, 0
1, 18048, Note_on_c, 3, 72, 95
1, 18048, Note_on_c, 4, 81, 107
1, 18048, Note_on_c, 5, 77, 86
1, 18048, Note_on_c, 11, 77, 86
1, 18097, Note_on_c, 3, 69, 0
1, 18144, Note_on_c, 5, 72, 74
1, 18144, Note_on_c, 11, 72, 74
1, 18150, Note_on_c, 11, 77, 0
1, 18150, Note_on_c, 5, 77, 0
1, 18234, Note_on_c, 5, 72, 0
1, 18234, Note_on_c, 11, 72, 0
1, 18240, Note_on_c, 4, 84, 107
1, 18240, Note_on_c, 5, 69, 64
1, 18240, Note_on_c, 11, 69, 64
1, 18259, Note_on_c, 4, 81, 0
1, 18336, Note_on_c, 5, 65, 80
1, 18336, Note_on_c, 11, 65, 80
1, 18355, Note_on_c, 11, 69, 0
1, 18355, Note_on_c, 5, 69, 0
1, 18378, Note_on_c, 2, 57, 0
1, 18378, Note_on_c, 2, 60, 0
1, 18378, Note_on_c, 2, 41, 0
1, 18378, Note_on_c, 2, 53, 0
1, 18384, Note_on_c, 2, 38, 71
1, 18384, Note_on_c, 2, 50, 71
1, 18384, Note_on_c, 2, 53, 71
1, 18384, Note_on_c, 2, 57, 71
1, 18392, Note_on_c, 2, 65, 71
1, 18400, Note_on_c, 4, 84, 0
1, 18409, Note_on_c, 3, 72, 0
1, 18426, Note_on_c, 5, 65, 0
1, 18426, Note_on_c, 11, 65, 0
1, 18432, Note_on_c, 3, 74, 107
1, 18432, Note_on_c, 4, 93, 107
1, 18432, Note_on_c, 5, 62, 59
1, 18432, Note_on_c, 9, 57, 87
1, 18432, Note_on_c, 11, 62, 59
1, 18450, Note_on_c, 9, 57, 0
1, 18522, Note_on_c, 5, 62, 0
1, 18522, Note_on_c, 11, 62, 0
1, 18528, Note_on_c, 5, 69, 74
1, 18528, Note_on_c, 11, 69, 74
1, 18618, Note_on_c, 11, 69, 0
1, 18618, Note_on_c, 5, 69, 0
1, 18624, Note_on_c, 4, 89, 107
1, 18624, Note_on_c, 5, 74, 64
1, 18624, Note_on_c, 11, 74, 64
1, 18662, Note_on_c, 4, 93, 0
1, 18720, Note_on_c, 5, 77, 80
1, 18720, Note_on_c, 11, 77, 80
1, 18739, Note_on_c, 5, 74, 0
1, 18739, Note_on_c, 11, 74, 0
1, 18798, Note_on_c, 4, 89, 0
1, 18810, Note_on_c, 5, 77, 0
1, 18810, Note_on_c, 11, 77, 0
1, 18814, Note_on_c, 3, 74, 0
1, 18816, Note_on_c, 3, 76, 92
1, 18816, Note_on_c, 4, 86, 107
1, 18816, Note_on_c, 5, 86, 71
1, 18816, Note_on_c, 11, 86, 71
1, 18912, Note_on_c, 5, 74, 74
1, 18912, Note_on_c, 11, 74, 74
1, 18918, Note_on_c, 11, 86, 0
1, 18918, Note_on_c, 5, 86, 0
1, 19002, Note_on_c, 11, 74, 0
1, 19002, Note_on_c, 5, 74, 0
1, 19008, Note_on_c, 4, 89, 107
1, 19008, Note_on_c, 5, 69, 64
1, 19008, Note_on_c, 11, 69, 64
1, 19022, Note_on_c, 4, 86, 0
1, 19104, Note_on_c, 5, 65, 80
1, 19104, Note_on_c, 11, 65, 80
1, 19123, Note_on_c, 5, 69, 0
1, 19123, Note_on_c, 11, 69, 0
1, 19125, Note_on_c, 3, 76, 0
1, 19194, Note_on_c, 5, 65, 0
1, 19194, Note_on_c, 11, 65, 0
1, 19198, Note_on_c, 4, 89, 0
1, 19200, Note_on_c, 3, 74, 107
1, 19200, Note_on_c, 4, 93, 107
1, 19200, Note_on_c, 5, 62, 59
1, 19200, Note_on_c, 11, 62, 59
1, 19290, Note_on_c, 11, 62, 0
1, 19290, Note_on_c, 5, 62, 0
1, 19296, Note_on_c, 5, 69, 74
1, 19296, Note_on_c, 11, 69, 74
1, 19386, Note_on_c, 11, 69, 0
1, 19386, Note_on_c, 5, 69, 0
1, 19392, Note_on_c, 4, 89, 107
1, 19392, Note_on_c, 5, 72, 64
1, 19392, Note_on_c, 11, 72, 64
1, 19394, Control_c, 11, 10, 22
1, 19394, Control_c, 11, 10, 22
1, 19420, Note_on_c, 4, 93, 0
1, 19488, Note_on_c, 5, 77, 80
1, 19488, Note_on_c, 11, 77, 80
1, 19490, Control_c, 11, 10, 22
1, 19507, Note_on_c, 5, 72, 0
1, 19507, Note_on_c, 11, 72, 0
1, 19535, Note_on_c, 4, 89, 0
1, 19538, Note_on_c, 9, 40, 0
1, 19578, Note_on_c, 5, 77, 0
1, 19578, Note_on_c, 11, 77, 0
1, 19584, Note_on_c, 3, 72, 92
1, 19584, Note_on_c, 4, 86, 107
1, 19584, Note_on_c, 5, 86, 74
1, 19584, Note_on_c, 11, 86, 74
1, 19601, Note_on_c, 3, 74, 0
1, 19680, Note_on_c, 5, 77, 74
1, 19680, Note_on_c, 11, 77, 74
1, 19686, Note_on_c, 11, 86, 0
1, 19686, Note_on_c, 5, 86, 0
1, 19770, Note_on_c, 5, 77, 0
1, 19770, Note_on_c, 11, 77, 0
1, 19776, Note_on_c, 4, 89, 107
1, 19776, Note_on_c, 5, 72, 64
1, 19776, Note_on_c, 11, 72, 64
1, 19819, Note_on_c, 4, 86, 0
1, 19872, Note_on_c, 5, 69, 80
1, 19872, Note_on_c, 11, 69, 80
1, 19891, Note_on_c, 11, 72, 0
1, 19891, Note_on_c, 5, 72, 0
1, 19914, Note_on_c, 2, 50, 0
1, 19914, Note_on_c, 2, 53, 0
1, 19914, Note_on_c, 2, 38, 0
1, 19920, Note_on_c, 2, 62, 71
1, 19922, Note_on_c, 2, 65, 0
1, 19928, Note_on_c, 2, 50, 71
1, 19928, Note_on_c, 2, 54, 71
1, 19928, Note_on_c, 2, 66, 71
1, 19939, Note_on_c, 4, 89, 0
1, 19962, Note_on_c, 5, 69, 0
1, 19962, Note_on_c, 11, 69, 0
1, 19968, Note_on_c, 3, 72, 0
1, 19968, Note_on_c, 3, 69, 95
1, 19968, Note_on_c, 4, 93, 107
1, 19968, Note_on_c, 5, 62, 59
1, 19968, Note_on_c, 11, 62, 59
1, 20058, Note_on_c, 11, 62, 0
1, 20058, Note_on_c, 5, 62, 0
1, 20064, Note_on_c, 5, 69, 74
1, 20064, Note_on_c, 11, 69, 74
1, 20066, Control_c, 11, 10, 21
1, 20154, Note_on_c, 11, 69, 0
1, 20154, Note_on_c, 5, 69, 0
1, 20160, Note_on_c, 4, 90, 107
1, 20160, Note_on_c, 5, 74, 64
1, 20160, Note_on_c, 11, 74, 64
1, 20256, Note_on_c, 5, 69, 80
1, 20256, Note_on_c, 11, 69, 80
1, 20268, Note_on_c, 4, 93, 0
1, 20275, Note_on_c, 11, 74, 0
1, 20275, Note_on_c, 5, 74, 0
1, 20310, Note_on_c, 4, 90, 0
1, 20346, Note_on_c, 11, 69, 0
1, 20346, Note_on_c, 5, 69, 0
1, 20352, Note_on_c, 4, 86, 107
1, 20352, Note_on_c, 5, 66, 80
1, 20352, Note_on_c, 11, 66, 80
1, 20354, Note_on_c, 3, 69, 0
1, 20442, Note_on_c, 11, 66, 0
1, 20442, Note_on_c, 5, 66, 0
1, 20448, Note_on_c, 5, 62, 80
1, 20448, Note_on_c, 11, 62, 80
1, 20498, Note_on_c, 9, 50, 0
1, 20538, Note_on_c, 11, 62, 0
1, 20538, Note_on_c, 5, 62, 0
1, 20544, Note_on_c, 4, 90, 107
1, 20544, Note_on_c, 5, 69, 80
1, 20544, Note_on_c, 11, 69, 80
1, 20603, Note_on_c, 4, 86, 0
1, 20634, Note_on_c, 11, 69, 0
1, 20634, Note_on_c, 5, 69, 0
1, 20640, Note_on_c, 5, 74, 80
1, 20640, Note_on_c, 11, 74, 80
1, 20687, Note_on_c, 4, 90, 0
1, 20730, Note_on_c, 11, 74, 0
1, 20730, Note_on_c, 5, 74, 0
1, 20736, Note_on_c, 3, 70, 88
1, 20736, Note_on_c, 4, 93, 107
1, 20736, Note_on_c, 5, 69, 80
1, 20736, Note_on_c, 11, 69, 80
1, 20826, Note_on_c, 11, 69, 0
1, 20826, Note_on_c, 5, 69, 0
1, 20832, Note_on_c, 5, 66, 80
1, 20832, Note_on_c, 11, 66, 80
1, 20922, Note_on_c, 11, 66, 0
1, 20922, Note_on_c, 5, 66, 0
1, 20928, Note_on_c, 4, 90, 107
1, 20928, Note_on_c, 5, 69, 80
1, 20928, Note_on_c, 11, 69, 80
1, 20951, Note_on_c, 4, 93, 0
1, 21018, Note_on_c, 11, 69, 0
1, 21018, Note_on_c, 5, 69, 0
1, 21024, Note_on_c, 5, 62, 80
1, 21024, Note_on_c, 11, 62, 80
1, 21070, Note_on_c, 4, 90, 0
1, 21079, Note_on_c, 3, 70, 0
1, 21084, Control_c, 2, 64, 127
1, 21114, Note_on_c, 11, 62, 0
1, 21114, Note_on_c, 5, 62, 0
1, 21120, Note_on_c, 3, 69, 69
1, 21120, Note_on_c, 4, 86, 107
1, 21120, Note_on_c, 5, 66, 80
1, 21120, Note_on_c, 11, 66, 80
1, 21210, Note_on_c, 11, 66, 0
1, 21210, Note_on_c, 5, 66, 0
1, 21216, Note_on_c, 5, 62, 80
1, 21216, Note_on_c, 11, 62, 80
1, 21306, Note_on_c, 11, 62, 0
1, 21306, Note_on_c, 5, 62, 0
1, 21312, Note_on_c, 4, 90, 107
1, 21312, Note_on_c, 5, 57, 80
1, 21312, Note_on_c, 11, 57, 80
1, 21329, Note_on_c, 4, 86, 0
1, 21382, Control_c, 2, 64, 0
1, 21402, Note_on_c, 11, 57, 0
1, 21402, Note_on_c, 5, 57, 0
1, 21408, Note_on_c, 5, 62, 80
1, 21408, Note_on_c, 11, 62, 80
1, 21410, Control_c, 11, 10, 20
1, 21433, Note_on_c, 4, 90, 0
1, 21450, Note_on_c, 2, 62, 0
1, 21456, Note_on_c, 2, 53, 71
1, 21456, Note_on_c, 2, 58, 71
1, 21458, Note_on_c, 2, 50, 0
1, 21458, Note_on_c, 2, 54, 0
1, 21458, Note_on_c, 2, 66, 0
1, 21458, Note_on_c, 2, 57, 0
1, 21464, Note_on_c, 2, 46, 71
1, 21464, Note_on_c, 2, 62, 71
1, 21471, Note_on_c, 3, 69, 0
1, 21498, Note_on_c, 5, 62, 0
1, 21498, Note_on_c, 11, 62, 0
1, 21504, Note_on_c, 3, 65, 87
1, 21504, Note_on_c, 4, 89, 107
1, 21504, Note_on_c, 5, 58, 59
1, 21504, Note_on_c, 9, 57, 71
1, 21504, Note_on_c, 11, 58, 59
1, 21522, Note_on_c, 9, 57, 0
1, 21594, Note_on_c, 11, 58, 0
1, 21594, Note_on_c, 5, 58, 0
1, 21600, Note_on_c, 5, 62, 68
1, 21600, Note_on_c, 11, 62, 68
1, 21690, Note_on_c, 11, 62, 0
1, 21690, Note_on_c, 5, 62, 0
1, 21696, Note_on_c, 4, 86, 107
1, 21696, Note_on_c, 5, 65, 64
1, 21696, Note_on_c, 11, 65, 64
1, 21753, Note_on_c, 4, 89, 0
1, 21786, Note_on_c, 11, 65, 0
1, 21786, Note_on_c, 5, 65, 0
1, 21792, Note_on_c, 5, 70, 64
1, 21792, Note_on_c, 11, 70, 64
1, 21873, Note_on_c, 4, 86, 0
1, 21882, Note_on_c, 11, 70, 0
1, 21882, Note_on_c, 5, 70, 0
1, 21888, Note_on_c, 4, 82, 107
1, 21888, Note_on_c, 5, 74, 95
1, 21888, Note_on_c, 11, 74, 95
1, 21978, Note_on_c, 11, 74, 0
1, 21978, Note_on_c, 5, 74, 0
1, 21984, Note_on_c, 5, 65, 68
1, 21984, Note_on_c, 11, 65, 68
1, 22055, Note_on_c, 3, 65, 0
1, 22074, Note_on_c, 11, 65, 0
1, 22074, Note_on_c, 5, 65, 0
1, 22080, Note_on_c, 4, 86, 107
1, 22080, Note_on_c, 5, 62, 59
1, 22080, Note_on_c, 11, 62, 59
1, 22117, Note_on_c, 4, 82, 0
1, 22170, Note_on_c, 11, 62, 0
1, 22170, Note_on_c, 5, 62, 0
1, 22176, Note_on_c, 5, 65, 53
1, 22176, Note_on_c, 11, 65, 53
1, 22246, Note_on_c, 4, 86, 0
1, 22266, Note_on_c, 5, 65, 0
1, 22266, Note_on_c, 11, 65, 0
1, 22272, Note_on_c, 3, 65, 80
1, 22272, Note_on_c, 4, 89, 107
1, 22272, Note_on_c, 5, 58, 64
1, 22272, Note_on_c, 11, 58, 64
1, 22362, Note_on_c, 11, 58, 0
1, 22362, Note_on_c, 5, 58, 0
1, 22368, Note_on_c, 5, 65, 65
1, 22368, Note_on_c, 11, 65, 65
1, 22458, Note_on_c, 11, 65, 0
1, 22458, Note_on_c, 5, 65, 0
1, 22464, Note_on_c, 4, 86, 107
1, 22464, Note_on_c, 5, 70, 65
1, 22464, Note_on_c, 11, 70, 65
1, 22514, Note_on_c, 4, 89, 0
1, 22554, Note_on_c, 11, 70, 0
1, 22554, Note_on_c, 5, 70, 0
1, 22560, Note_on_c, 5, 65, 65
1, 22560, Note_on_c, 11, 65, 65
1, 22642, Note_on_c, 3, 65, 0
1, 22650, Note_on_c, 11, 65, 0
1, 22650, Note_on_c, 5, 65, 0
1, 22656, Note_on_c, 3, 62, 82
1, 22656, Note_on_c, 4, 82, 107
1, 22656, Note_on_c, 5, 74, 95
1, 22656, Note_on_c, 11, 74, 95
1, 22691, Note_on_c, 4, 86, 0
1, 22746, Note_on_c, 11, 74, 0
1, 22746, Note_on_c, 5, 74, 0
1, 22752, Note_on_c, 5, 65, 71
1, 22752, Note_on_c, 11, 65, 71
1, 22754, Control_c, 11, 10, 19
1, 22842, Note_on_c, 11, 65, 0
1, 22842, Note_on_c, 5, 65, 0
1, 22848, Note_on_c, 4, 86, 107
1, 22848, Note_on_c, 5, 58, 56
1, 22848, Note_on_c, 11, 58, 56
1, 22870, Note_on_c, 4, 82, 0
1, 22898, Note_on_c, 2, 53, 0
1, 22898, Note_on_c, 2, 58, 0
1, 22938, Note_on_c, 11, 58, 0
1, 22938, Note_on_c, 5, 58, 0
1, 22944, Note_on_c, 5, 62, 53
1, 22944, Note_on_c, 11, 62, 53
1, 22989, Note_on_c, 3, 62, 0
1, 22994, Note_on_c, 2, 46, 0
1, 22994, Note_on_c, 2, 62, 0
1, 23000, Note_on_c, 2, 43, 71
1, 23000, Note_on_c, 2, 55, 71
1, 23000, Note_on_c, 2, 58, 71
1, 23008, Note_on_c, 2, 62, 71
1, 23019, Note_on_c, 4, 86, 0
1, 23034, Note_on_c, 5, 62, 0
1, 23034, Note_on_c, 11, 62, 0
1, 23040, Note_on_c, 3, 65, 82
1, 23040, Note_on_c, 4, 91, 107
1, 23040, Note_on_c, 5, 55, 47
1, 23040, Note_on_c, 11, 55, 47
1, 23130, Note_on_c, 11, 55, 0
1, 23130, Note_on_c, 5, 55, 0
1, 23136, Note_on_c, 5, 58, 64
1, 23136, Note_on_c, 11, 58, 64
1, 23226, Note_on_c, 11, 58, 0
1, 23226, Note_on_c, 5, 58, 0
1, 23232, Note_on_c, 4, 86, 107
1, 23232, Note_on_c, 5, 60, 64
1, 23232, Note_on_c, 11, 60, 64
1, 23280, Note_on_c, 4, 91, 0
1, 23322, Note_on_c, 11, 60, 0
1, 23322, Note_on_c, 5, 60, 0
1, 23328, Note_on_c, 5, 62, 80
1, 23328, Note_on_c, 11, 62, 80
1, 23391, Note_on_c, 4, 86, 0
1, 23418, Note_on_c, 11, 62, 0
1, 23418, Note_on_c, 5, 62, 0
1, 23424, Note_on_c, 4, 82, 107
1, 23424, Note_on_c, 5, 67, 68
1, 23424, Note_on_c, 11, 67, 68
1, 23514, Note_on_c, 11, 67, 0
1, 23514, Note_on_c, 5, 67, 0
1, 23520, Note_on_c, 5, 70, 65
1, 23520, Note_on_c, 11, 70, 65
1, 23610, Note_on_c, 11, 70, 0
1, 23610, Note_on_c, 5, 70, 0
1, 23616, Note_on_c, 4, 86, 107
1, 23616, Note_on_c, 5, 74, 64
1, 23616, Note_on_c, 11, 74, 64
1, 23648, Note_on_c, 4, 82, 0
1, 23706, Note_on_c, 11, 74, 0
1, 23706, Note_on_c, 5, 74, 0
1, 23712, Note_on_c, 5, 77, 71
1, 23712, Note_on_c, 11, 77, 71
1, 23762, Note_on_c, 2, 43, 0
1, 23762, Note_on_c, 2, 58, 0
1, 23762, Note_on_c, 2, 55, 0
1, 23768, Note_on_c, 2, 48, 71
1, 23768, Note_on_c, 2, 55, 71
1, 23768, Note_on_c, 2, 60, 71
1, 23768, Note_on_c, 2, 64, 71
1, 23770, Note_on_c, 2, 62, 0
1, 23772, Note_on_c, 4, 86, 0
1, 23802, Note_on_c, 11, 77, 0
1, 23802, Note_on_c, 5, 77, 0
1, 23808, Note_on_c, 3, 67, 95
1, 23808, Note_on_c, 4, 91, 107
1, 23808, Note_on_c, 5, 79, 80
1, 23808, Note_on_c, 9, 49, 93
1, 23808, Note_on_c, 11, 79, 80
1, 23826, Note_on_c, 9, 49, 0
1, 23837, Note_on_c, 3, 65, 0
1, 23898, Note_on_c, 5, 79, 0
1, 23898, Note_on_c, 11, 79, 0
1, 23904, Note_on_c, 5, 74, 71
1, 23904, Note_on_c, 11, 74, 71
1, 23994, Note_on_c, 11, 74, 0
1, 23994, Note_on_c, 5, 74, 0
1, 24000, Note_on_c, 4, 88, 107
1, 24000, Note_on_c, 5, 72, 71
1, 24000, Note_on_c, 11, 72, 71
1, 24060, Note_on_c, 4, 91, 0
1, 24090, Note_on_c, 11, 72, 0
1, 24090, Note_on_c, 5, 72, 0
1, 24096, Note_on_c, 5, 70, 65
1, 24096, Note_on_c, 11, 70, 65
1, 24098, Control_c, 11, 10, 18
1, 24176, Note_on_c, 4, 88, 0
1, 24186, Note_on_c, 11, 70, 0
1, 24186, Note_on_c, 5, 70, 0
1, 24192, Note_on_c, 4, 84, 107
1, 24192, Note_on_c, 5, 67, 68
1, 24192, Note_on_c, 11, 67, 68
1, 24282, Note_on_c, 11, 67, 0
1, 24282, Note_on_c, 5, 67, 0
1, 24288, Note_on_c, 5, 62, 80
1, 24288, Note_on_c, 11, 62, 80
1, 24378, Note_on_c, 11, 62, 0
1, 24378, Note_on_c, 5, 62, 0
1, 24384, Note_on_c, 4, 88, 107
1, 24384, Note_on_c, 5, 67, 80
1, 24384, Note_on_c, 11, 67, 80
1, 24411, Note_on_c, 4, 84, 0
1, 24474, Note_on_c, 11, 67, 0
1, 24474, Note_on_c, 5, 67, 0
1, 24480, Note_on_c, 5, 62, 80
1, 24480, Note_on_c, 11, 62, 80
1, 24511, Note_on_c, 4, 88, 0
1, 24530, Note_on_c, 2, 64, 0
1, 24530, Note_on_c, 2, 48, 0
1, 24530, Note_on_c, 2, 55, 0
1, 24530, Note_on_c, 2, 60, 0
1, 24536, Note_on_c, 2, 41, 71
1, 24536, Note_on_c, 2, 60, 71
1, 24536, Note_on_c, 2, 65, 71
1, 24536, Note_on_c, 2, 69, 71
1, 24563, Note_on_c, 3, 67, 0
1, 24570, Note_on_c, 5, 62, 0
1, 24570, Note_on_c, 11, 62, 0
1, 24576, Note_on_c, 3, 65, 67
1, 24576, Note_on_c, 4, 89, 107
1, 24576, Note_on_c, 5, 53, 59
1, 24576, Note_on_c, 11, 53, 59
1, 24578, Control_c, 5, 11, 105
1, 24578, Control_c, 11, 11, 79
1, 24666, Note_on_c, 11, 53, 0
1, 24666, Note_on_c, 5, 53, 0
1, 24672, Note_on_c, 5, 60, 74
1, 24672, Note_on_c, 11, 60, 74
1, 24674, Control_c, 11, 11, 80
1, 24762, Note_on_c, 11, 60, 0
1, 24762, Note_on_c, 5, 60, 0
1, 24768, Note_on_c, 5, 65, 64
1, 24768, Note_on_c, 11, 65, 64
1, 24770, Control_c, 11, 11, 81
1, 24864, Note_on_c, 5, 72, 64
1, 24864, Note_on_c, 11, 72, 64
1, 24883, Note_on_c, 11, 65, 0
1, 24883, Note_on_c, 5, 65, 0
1, 24954, Note_on_c, 5, 72, 0
1, 24954, Note_on_c, 11, 72, 0
1, 24960, Note_on_c, 5, 77, 79
1, 24960, Note_on_c, 11, 77, 79
1, 24962, Control_c, 11, 11, 82
1, 25050, Note_on_c, 11, 77, 0
1, 25050, Note_on_c, 5, 77, 0
1, 25056, Note_on_c, 5, 72, 64
1, 25056, Note_on_c, 11, 72, 64
1, 25058, Control_c, 11, 11, 83
1, 25146, Note_on_c, 11, 72, 0
1, 25146, Note_on_c, 5, 72, 0
1, 25152, Note_on_c, 5, 65, 64
1, 25152, Note_on_c, 11, 65, 64
1, 25248, Note_on_c, 5, 60, 74
1, 25248, Note_on_c, 11, 60, 74
1, 25250, Control_c, 11, 11, 84
1, 25267, Note_on_c, 11, 65, 0
1, 25267, Note_on_c, 5, 65, 0
1, 25278, Note_on_c, 4, 89, 0
1, 25338, Note_on_c, 5, 60, 0
1, 25338, Note_on_c, 11, 60, 0
1, 25344, Note_on_c, 5, 53, 59
1, 25344, Note_on_c, 11, 53, 59
1, 25434, Note_on_c, 11, 53, 0
1, 25434, Note_on_c, 5, 53, 0
1, 25440, Note_on_c, 5, 60, 74
1, 25440, Note_on_c, 11, 60, 74
1, 25442, Control_c, 11, 11, 85
1, 25442, Control_c, 11, 10, 17
1, 25530, Note_on_c, 11, 60, 0
1, 25530, Note_on_c, 5, 60, 0
1, 25536, Note_on_c, 5, 65, 64
1, 25536, Note_on_c, 11, 65, 64
1, 25538, Control_c, 11, 11, 86
1, 25632, Note_on_c, 5, 72, 64
1, 25632, Note_on_c, 11, 72, 64
1, 25651, Note_on_c, 11, 65, 0
1, 25651, Note_on_c, 5, 65, 0
1, 25722, Note_on_c, 11, 72, 0
1, 25722, Note_on_c, 5, 72, 0
1, 25728, Note_on_c, 5, 77, 83
1, 25728, Note_on_c, 11, 77, 79
1, 25730, Control_c, 11, 11, 87
1, 25818, Note_on_c, 11, 77, 0
1, 25818, Note_on_c, 5, 77, 0
1, 25824, Note_on_c, 5, 72, 64
1, 25824, Note_on_c, 11, 72, 64
1, 25914, Note_on_c, 11, 72, 0
1, 25914, Note_on_c, 5, 72, 0
1, 25920, Note_on_c, 5, 65, 64
1, 25920, Note_on_c, 11, 65, 64
1, 25922, Control_c, 11, 11, 88
1, 25970, Note_on_c, 2, 41, 0
1, 26016, Note_on_c, 5, 60, 74
1, 26016, Note_on_c, 11, 60, 74
1, 26018, Control_c, 11, 11, 89
1, 26035, Note_on_c, 5, 65, 0
1, 26035, Note_on_c, 11, 65, 0
1, 26072, Note_on_c, 2, 77, 56
1, 26086, Control_c, 2, 11, 127
1, 26106, Note_on_c, 11, 60, 0
1, 26106, Note_on_c, 5, 60, 0
1, 26112, Note_on_c, 5, 53, 59
1, 26112, Note_on_c, 10, 72, 104
1, 26112, Note_on_c, 11, 53, 59
1, 26120, Note_on_c, 3, 65, 0
1, 26202, Note_on_c, 11, 53, 0
1, 26202, Note_on_c, 5, 53, 0
1, 26208, Note_on_c, 5, 60, 74
1, 26208, Note_on_c, 11, 60, 74
1, 26210, Control_c, 5, 11, 105
1, 26210, Control_c, 11, 11, 86
1, 26298, Note_on_c, 11, 60, 0
1, 26298, Note_on_c, 5, 60, 0
1, 26304, Note_on_c, 5, 65, 64
1, 26304, Note_on_c, 11, 65, 64
1, 26306, Control_c, 5, 11, 101
1, 26306, Control_c, 11, 11, 83
1, 26400, Note_on_c, 5, 72, 64
1, 26400, Note_on_c, 11, 72, 64
1, 26402, Control_c, 5, 11, 98
1, 26402, Control_c, 11, 11, 81
1, 26419, Note_on_c, 11, 65, 0
1, 26419, Note_on_c, 5, 65, 0
1, 26490, Note_on_c, 11, 72, 0
1, 26490, Note_on_c, 5, 72, 0
1, 26496, Note_on_c, 5, 77, 83
1, 26496, Note_on_c, 11, 77, 86
1, 26498, Control_c, 5, 11, 94
1, 26498, Control_c, 11, 11, 78
1, 26586, Note_on_c, 11, 77, 0
1, 26586, Note_on_c, 5, 77, 0
1, 26592, Note_on_c, 5, 72, 64
1, 26592, Note_on_c, 11, 72, 64
1, 26594, Control_c, 5, 11, 90
1, 26594, Control_c, 11, 11, 76
1, 26682, Note_on_c, 11, 72, 0
1, 26682, Note_on_c, 5, 72, 0
1, 26688, Note_on_c, 5, 65, 64
1, 26688, Note_on_c, 11, 65, 64
1, 26690, Control_c, 5, 11, 87
1, 26690, Control_c, 11, 11, 73
1, 26784, Note_on_c, 5, 60, 74
1, 26784, Note_on_c, 11, 60, 74
1, 26786, Control_c, 5, 11, 83
1, 26786, Control_c, 11, 11, 71
1, 26786, Control_c, 11, 10, 16
1, 26803, Note_on_c, 11, 65, 0
1, 26803, Note_on_c, 5, 65, 0
1, 26874, Note_on_c, 11, 60, 0
1, 26874, Note_on_c, 5, 60, 0
1, 26880, Note_on_c, 5, 53, 59
1, 26880, Note_on_c, 11, 53, 59
1, 26882, Control_c, 5, 11, 79
1, 26882, Control_c, 11, 11, 0
1, 26970, Note_on_c, 11, 53, 0
1, 26970, Note_on_c, 5, 53, 0
1, 26976, Note_on_c, 5, 60, 74
1, 26978, Control_c, 5, 11, 76
1, 27050, Control_c, 12, 99, 1
1, 27066, Note_on_c, 5, 60, 0
1, 27072, Note_on_c, 5, 65, 64
1, 27074, Control_c, 5, 11, 72
1, 27146, Control_c, 12, 98, 33
1, 27168, Note_on_c, 5, 72, 64
1, 27170, Control_c, 5, 11, 69
1, 27187, Note_on_c, 5, 65, 0
1, 27258, Note_on_c, 5, 72, 0
1, 27264, Note_on_c, 5, 77, 83
1, 27266, Control_c, 5, 11, 65
1, 27266, Control_c, 12, 6, 84
1, 27326, Control_c, 12, 99, 1
1, 27354, Note_on_c, 5, 77, 0
1, 27360, Note_on_c, 5, 72, 64
1, 27362, Control_c, 5, 11, 61
1, 27398, Control_c, 12, 98, 32
1, 27450, Note_on_c, 5, 72, 0
1, 27456, Note_on_c, 5, 65, 64
1, 27458, Control_c, 5, 11, 58
1, 27506, Control_c, 12, 6, 64
1, 27552, Note_on_c, 5, 60, 74
1, 27554, Control_c, 5, 11, 54
1, 27566, Control_c, 12, 6, 10
1, 27571, Note_on_c, 5, 65, 0
1, 27642, Note_on_c, 5, 60, 0
1, 27646, Control_c, 2, 11, 119
1, 27648, Note_on_c, 5, 53, 127
1, 27648, Note_on_c, 6, 53, 127
1, 27648, Note_on_c, 9, 57, 90
1, 27648, Note_on_c, 12, 53, 80
1, 27650, Pitch_bend_c, 5, 7239
1, 27650, Control_c, 5, 11, 74
1, 27650, Control_c, 6, 11, 108
1, 27650, Pitch_bend_c, 6, 8391
1, 27650, Control_c, 11, 11, 115
1, 27666, Note_on_c, 9, 57, 0
1, 27691, Note_on_c, 12, 53, 0
1, 27698, Control_c, 12, 10, 5
1, 27742, Control_c, 2, 11, 111
1, 27744, Note_on_c, 12, 53, 73
1, 27746, Control_c, 12, 10, 13
1, 27746, Control_c, 12, 6, 25
1, 27778, Note_on_c, 12, 53, 0
1, 27794, Control_c, 12, 10, 20
1, 27795, Note_on_c, 10, 72, 0
1, 27823, Note_on_c, 5, 53, 0
1, 27823, Note_on_c, 6, 53, 0
1, 27838, Control_c, 2, 11, 104
1, 27840, Note_on_c, 12, 53, 80
1, 27842, Control_c, 12, 10, 27
1, 27883, Note_on_c, 12, 53, 0
1, 27890, Control_c, 12, 10, 34
1, 27914, Control_c, 12, 6, 40
1, 27934, Control_c, 2, 11, 96
1, 27936, Note_on_c, 12, 53, 73
1, 27938, Control_c, 12, 10, 41
1, 27970, Note_on_c, 12, 53, 0
1, 27986, Control_c, 12, 10, 49
1, 28030, Control_c, 2, 11, 89
1, 28032, Note_on_c, 12, 53, 80
1, 28034, Control_c, 12, 10, 56
1, 28075, Note_on_c, 12, 53, 0
1, 28082, Control_c, 12, 10, 63
1, 28118, Control_c, 12, 6, 60
1, 28126, Control_c, 2, 11, 81
1, 28128, Note_on_c, 12, 53, 73
1, 28130, Control_c, 12, 10, 70
1, 28162, Note_on_c, 12, 53, 0
1, 28178, Control_c, 12, 10, 77
1, 28222, Control_c, 2, 11, 74
1, 28224, Note_on_c, 5, 53, 127
1, 28224, Note_on_c, 6, 53, 127
1, 28224, Note_on_c, 12, 53, 80
1, 28226, Control_c, 12, 10, 84
1, 28267, Note_on_c, 12, 53, 0
1, 28274, Control_c, 12, 10, 92
1, 28298, Control_c, 12, 6, 85
1, 28318, Control_c, 2, 11, 66
1, 28320, Note_on_c, 12, 53, 73
1, 28322, Control_c, 12, 10, 99
1, 28354, Note_on_c, 12, 53, 0
1, 28370, Control_c, 12, 10, 106
1, 28376, Note_on_c, 6, 53, 0
1, 28376, Note_on_c, 5, 53, 0
1, 28414, Control_c, 2, 11, 59
1, 28416, Note_on_c, 12, 53, 80
1, 28418, Pitch_bend_c, 7, 8907
1, 28418, Control_c, 12, 10, 113
1, 28459, Note_on_c, 12, 53, 0
1, 28466, Control_c, 12, 10, 120
1, 28510, Control_c, 2, 11, 52
1, 28512, Note_on_c, 12, 53, 73
1, 28514, Pitch_bend_c, 11, 7475
1, 28514, Control_c, 12, 6, 110
1, 28546, Note_on_c, 12, 53, 0
1, 28606, Control_c, 2, 11, 44
1, 28615, Note_on_c, 7, 54, 74
1, 28615, Note_on_c, 11, 54, 74
1, 28702, Control_c, 2, 11, 37
1, 28780, Note_on_c, 11, 54, 0
1, 28780, Note_on_c, 7, 54, 0
1, 28798, Control_c, 2, 11, 29
1, 28800, Note_on_c, 5, 53, 127
1, 28800, Note_on_c, 6, 53, 127
1, 28894, Control_c, 2, 11, 22
1, 28928, Note_on_c, 6, 53, 0
1, 28928, Note_on_c, 5, 53, 0
1, 28988, Note_on_c, 7, 54, 74
1, 28988, Note_on_c, 11, 54, 74
1, 28990, Control_c, 2, 11, 14
1, 29086, Control_c, 2, 11, 7
1, 29090, Control_c, 12, 6, 10
1, 29122, Note_on_c, 2, 60, 0
1, 29122, Note_on_c, 2, 69, 0
1, 29122, Note_on_c, 2, 65, 0
1, 29127, Note_on_c, 11, 54, 0
1, 29127, Note_on_c, 7, 54, 0
1, 29184, Note_on_c, 5, 53, 127
1, 29184, Note_on_c, 6, 53, 127
1, 29184, Note_on_c, 12, 53, 80
1, 29186, Control_c, 12, 10, 125
1, 29227, Note_on_c, 12, 53, 0
1, 29234, Control_c, 12, 10, 119
1, 29246, Note_on_c, 2, 77, 0
1, 29280, Note_on_c, 12, 53, 73
1, 29282, Control_c, 12, 10, 113
1, 29282, Control_c, 12, 6, 25
1, 29314, Note_on_c, 12, 53, 0
1, 29330, Control_c, 12, 10, 107
1, 29361, Note_on_c, 6, 53, 0
1, 29361, Note_on_c, 5, 53, 0
1, 29376, Note_on_c, 12, 53, 80
1, 29378, Control_c, 12, 10, 101
1, 29419, Note_on_c, 12, 53, 0
1, 29426, Control_c, 12, 10, 95
1, 29450, Control_c, 12, 6, 40
1, 29472, Note_on_c, 12, 53, 73
1, 29474, Control_c, 12, 10, 89
1, 29506, Note_on_c, 12, 53, 0
1, 29522, Control_c, 12, 10, 83
1, 29568, Note_on_c, 12, 53, 80
1, 29570, Control_c, 12, 10, 77
1, 29611, Note_on_c, 12, 53, 0
1, 29618, Control_c, 12, 10, 71
1, 29654, Control_c, 12, 6, 60
1, 29664, Note_on_c, 12, 53, 73
1, 29666, Control_c, 12, 10, 65
1, 29698, Note_on_c, 12, 53, 0
1, 29714, Control_c, 12, 10, 59
1, 29760, Note_on_c, 5, 53, 127
1, 29760, Note_on_c, 6, 53, 127
1, 29760, Note_on_c, 12, 53, 80
1, 29762, Control_c, 12, 10, 53
1, 29803, Note_on_c, 12, 53, 0
1, 29810, Control_c, 12, 10, 47
1, 29834, Control_c, 12, 6, 85
1, 29856, Note_on_c, 12, 53, 73
1, 29858, Control_c, 12, 10, 41
1, 29890, Note_on_c, 12, 53, 0
1, 29896, Note_on_c, 6, 53, 0
1, 29896, Note_on_c, 5, 53, 0
1, 29906, Control_c, 12, 10, 35
1, 29952, Note_on_c, 12, 53, 80
1, 29954, Control_c, 12, 10, 29
1, 29995, Note_on_c, 12, 53, 0
1, 30002, Control_c, 12, 10, 23
1, 30048, Note_on_c, 12, 53, 73
1, 30050, Control_c, 12, 10, 17
1, 30050, Control_c, 12, 6, 110
1, 30082, Note_on_c, 12, 53, 0
1, 30098, Control_c, 12, 10, 11
1, 30146, Control_c, 12, 10, 5
1, 30151, Note_on_c, 7, 54, 71
1, 30151, Note_on_c, 11, 54, 71
1, 30316, Note_on_c, 11, 54, 0
1, 30316, Note_on_c, 7, 54, 0
1, 30336, Note_on_c, 5, 53, 127
1, 30336, Note_on_c, 6, 53, 127
1, 30462, Note_on_c, 6, 53, 0
1, 30462, Note_on_c, 5, 53, 0
1, 30524, Note_on_c, 7, 54, 71
1, 30524, Note_on_c, 11, 54, 71
1, 30626, Control_c, 12, 6, 10
1, 30663, Note_on_c, 11, 54, 0
1, 30663, Note_on_c, 7, 54, 0
1, 30720, Note_on_c, 5, 53, 120
1, 30720, Note_on_c, 6, 53, 120
1, 30720, Note_on_c, 12, 53, 80
1, 30763, Note_on_c, 12, 53, 0
1, 30770, Control_c, 12, 10, 5
1, 30816, Note_on_c, 12, 53, 73
1, 30818, Control_c, 12, 10, 13
1, 30818, Control_c, 12, 6, 25
1, 30850, Note_on_c, 12, 53, 0
1, 30866, Control_c, 12, 10, 20
1, 30883, Note_on_c, 6, 53, 0
1, 30883, Note_on_c, 5, 53, 0
1, 30912, Note_on_c, 12, 53, 80
1, 30914, Control_c, 12, 10, 27
1, 30955, Note_on_c, 12, 53, 0
1, 30962, Control_c, 12, 10, 34
1, 30986, Control_c, 12, 6, 40
1, 31008, Note_on_c, 12, 53, 73
1, 31010, Control_c, 12, 10, 41
1, 31042, Note_on_c, 12, 53, 0
1, 31058, Control_c, 12, 10, 49
1, 31104, Note_on_c, 12, 53, 80
1, 31106, Control_c, 12, 10, 56
1, 31147, Note_on_c, 12, 53, 0
1, 31154, Control_c, 12, 10, 63
1, 31190, Control_c, 12, 6, 60
1, 31200, Note_on_c, 12, 53, 73
1, 31202, Control_c, 12, 10, 70
1, 31234, Note_on_c, 12, 53, 0
1, 31250, Control_c, 12, 10, 77
1, 31296, Note_on_c, 5, 53, 127
1, 31296, Note_on_c, 6, 53, 127
1, 31296, Note_on_c, 12, 53, 80
1, 31298, Control_c, 12, 10, 84
1, 31339, Note_on_c, 12, 53, 0
1, 31346, Control_c, 12, 10, 92
1, 31370, Control_c, 12, 6, 85
1, 31392, Note_on_c, 12, 53, 73
1, 31394, Control_c, 12, 10, 99
1, 31426, Note_on_c, 12, 53, 0
1, 31434, Note_on_c, 6, 53, 0
1, 31434, Note_on_c, 5, 53, 0
1, 31442, Control_c, 12, 10, 106
1, 31488, Note_on_c, 12, 53, 80
1, 31490, Pitch_bend_c, 7, 8907
1, 31490, Pitch_bend_c, 11, 7475
1, 31490, Control_c, 12, 10, 113
1, 31531, Note_on_c, 12, 53, 0
1, 31538, Control_c, 12, 10, 120
1, 31584, Note_on_c, 12, 53, 73
1, 31586, Control_c, 12, 6, 110
1, 31618, Note_on_c, 12, 53, 0
1, 31687, Note_on_c, 7, 54, 74
1, 31687, Note_on_c, 11, 54, 74
1, 31852, Note_on_c, 11, 54, 0
1, 31852, Note_on_c, 7, 54, 0
1, 31872, Note_on_c, 5, 53, 127
1, 31872, Note_on_c, 6, 53, 127
1, 32009, Note_on_c, 6, 53, 0
1, 32009, Note_on_c, 5, 53, 0
1, 32060, Note_on_c, 7, 54, 74
1, 32060, Note_on_c, 11, 54, 74
1, 32162, Control_c, 12, 6, 10
1, 32199, Note_on_c, 11, 54, 0
1, 32199, Note_on_c, 7, 54, 0
1, 32256, Note_on_c, 5, 53, 112
1, 32256, Note_on_c, 6, 53, 112
1, 32256, Note_on_c, 12, 53, 80
1, 32258, Control_c, 12, 10, 125
1, 32299, Note_on_c, 12, 53, 0
1, 32306, Control_c, 12, 10, 119
1, 32352, Note_on_c, 12, 53, 73
1, 32354, Control_c, 12, 10, 113
1, 32354, Control_c, 12, 6, 25
1, 32386, Note_on_c, 12, 53, 0
1, 32402, Control_c, 12, 10, 107
1, 32415, Note_on_c, 6, 53, 0
1, 32415, Note_on_c, 5, 53, 0
1, 32448, Note_on_c, 12, 53, 80
1, 32450, Control_c, 12, 10, 101
1, 32491, Note_on_c, 12, 53, 0
1, 32498, Control_c, 12, 10, 95
1, 32522, Control_c, 12, 6, 40
1, 32544, Note_on_c, 12, 53, 73
1, 32546, Control_c, 12, 10, 89
1, 32578, Note_on_c, 12, 53, 0
1, 32594, Control_c, 12, 10, 83
1, 32640, Note_on_c, 12, 53, 80
1, 32642, Control_c, 12, 10, 77
1, 32683, Note_on_c, 12, 53, 0
1, 32690, Control_c, 12, 10, 71
1, 32726, Control_c, 12, 6, 60
1, 32736, Note_on_c, 12, 53, 73
1, 32738, Control_c, 12, 10, 65
1, 32770, Note_on_c, 12, 53, 0
1, 32786, Control_c, 12, 10, 59
1, 32832, Note_on_c, 5, 53, 127
1, 32832, Note_on_c, 6, 53, 127
1, 32832, Note_on_c, 12, 53, 80
1, 32834, Control_c, 12, 10, 53
1, 32875, Note_on_c, 12, 53, 0
1, 32882, Control_c, 12, 10, 47
1, 32906, Control_c, 12, 6, 85
1, 32928, Note_on_c, 12, 53, 73
1, 32930, Control_c, 12, 10, 41
1, 32960, Note_on_c, 6, 53, 0
1, 32960, Note_on_c, 5, 53, 0
1, 32962, Note_on_c, 12, 53, 0
1, 32978, Control_c, 12, 10, 35
1, 33024, Note_on_c, 12, 53, 80
1, 33026, Control_c, 12, 10, 29
1, 33067, Note_on_c, 12, 53, 0
1, 33074, Control_c, 12, 10, 23
1, 33120, Note_on_c, 12, 53, 73
1, 33122, Control_c, 12, 10, 17
1, 33122, Control_c, 12, 6, 110
1, 33154, Note_on_c, 12, 53, 0
1, 33170, Control_c, 12, 10, 11
1, 33218, Control_c, 12, 10, 5
1, 33223, Note_on_c, 7, 54, 71
1, 33223, Note_on_c, 11, 54, 71
1, 33388, Note_on_c, 11, 54, 0
1, 33388, Note_on_c, 7, 54, 0
1, 33408, Note_on_c, 5, 53, 127
1, 33408, Note_on_c, 6, 53, 127
1, 33553, Note_on_c, 6, 53, 0
1, 33553, Note_on_c, 5, 53, 0
1, 33596, Note_on_c, 7, 54, 71
1, 33596, Note_on_c, 11, 54, 71
1, 33698, Control_c, 12, 6, 10
1, 33735, Note_on_c, 11, 54, 0
1, 33735, Note_on_c, 7, 54, 0
1, 33792, Note_on_c, 5, 53, 127
1, 33792, Note_on_c, 6, 53, 127
1, 33792, Note_on_c, 12, 53, 80
1, 33795, Pitch_bend_c, 7, 8192
1, 33795, Pitch_bend_c, 11, 8192
1, 33835, Note_on_c, 12, 53, 0
1, 33842, Control_c, 12, 10, 5
1, 33888, Note_on_c, 12, 53, 73
1, 33890, Control_c, 12, 10, 13
1, 33890, Control_c, 12, 6, 25
1, 33922, Note_on_c, 12, 53, 0
1, 33938, Control_c, 12, 10, 20
1, 33984, Note_on_c, 12, 53, 80
1, 33986, Control_c, 12, 10, 27
1, 34027, Note_on_c, 12, 53, 0
1, 34034, Control_c, 12, 10, 34
1, 34070, Control_c, 12, 6, 30
1, 34080, Note_on_c, 12, 53, 73
1, 34082, Control_c, 12, 10, 41
1, 34114, Note_on_c, 12, 53, 0
1, 34130, Control_c, 12, 10, 49
1, 34176, Note_on_c, 12, 53, 80
1, 34178, Control_c, 12, 10, 56
1, 34219, Note_on_c, 12, 53, 0
1, 34226, Control_c, 12, 10, 63
1, 34272, Note_on_c, 12, 53, 73
1, 34274, Control_c, 12, 10, 70
1, 34306, Note_on_c, 12, 53, 0
1, 34322, Control_c, 12, 10, 77
1, 34368, Note_on_c, 12, 53, 80
1, 34370, Control_c, 12, 10, 84
1, 34411, Note_on_c, 12, 53, 0
1, 34418, Control_c, 12, 10, 92
1, 34464, Note_on_c, 12, 53, 73
1, 34466, Control_c, 12, 10, 99
1, 34498, Note_on_c, 12, 53, 0
1, 34514, Control_c, 12, 10, 106
1, 34560, Note_on_c, 12, 53, 80
1, 34562, Pitch_bend_c, 6, 8192
1, 34562, Control_c, 12, 10, 113
1, 34603, Note_on_c, 12, 53, 0
1, 34610, Control_c, 12, 10, 120
1, 34656, Note_on_c, 12, 53, 73
1, 34690, Note_on_c, 12, 53, 0
1, 34752, Note_on_c, 12, 53, 80
1, 34795, Note_on_c, 12, 53, 0
1, 34848, Note_on_c, 12, 53, 73
1, 34882, Note_on_c, 12, 53, 0
1, 34944, Note_on_c, 12, 53, 80
1, 34962, Note_on_c, 12, 53, 0
1, 35040, Note_on_c, 12, 53, 73
1, 35074, Note_on_c, 12, 53, 0
1, 35136, Note_on_c, 12, 53, 80
1, 35179, Note_on_c, 12, 53, 0
1, 35232, Note_on_c, 12, 53, 73
1, 35266, Note_on_c, 12, 53, 0
1, 35328, Note_on_c, 12, 53, 80
1, 35330, Pitch_bend_c, 7, 8192
1, 35330, Pitch_bend_c, 11, 8192
1, 35330, Control_c, 12, 10, 125
1, 35371, Note_on_c, 12, 53, 0
1, 35378, Control_c, 12, 10, 119
1, 35424, Note_on_c, 12, 53, 73
1, 35426, Control_c, 12, 10, 113
1, 35458, Note_on_c, 12, 53, 0
1, 35474, Control_c, 12, 10, 107
1, 35520, Note_on_c, 12, 53, 80
1, 35522, Control_c, 12, 10, 101
1, 35563, Note_on_c, 12, 53, 0
1, 35570, Control_c, 12, 10, 95
1, 35616, Note_on_c, 12, 53, 73
1, 35618, Control_c, 12, 10, 89
1, 35650, Note_on_c, 12, 53, 0
1, 35666, Control_c, 12, 10, 83
1, 35712, Note_on_c, 12, 53, 80
1, 35714, Control_c, 12, 10, 77
1, 35755, Note_on_c, 12, 53, 0
1, 35762, Control_c, 12, 10, 71
1, 35808, Note_on_c, 12, 53, 73
1, 35810, Control_c, 12, 10, 65
1, 35842, Note_on_c, 12, 53, 0
1, 35858, Control_c, 12, 10, 59
1, 35904, Note_on_c, 12, 53, 80
1, 35906, Control_c, 12, 10, 53
1, 35947, Note_on_c, 12, 53, 0
1, 35954, Control_c, 12, 10, 47
1, 36000, Note_on_c, 12, 53, 73
1, 36002, Control_c, 12, 10, 41
1, 36034, Note_on_c, 12, 53, 0
1, 36050, Control_c, 12, 10, 35
1, 36096, Note_on_c, 12, 53, 80
1, 36098, Control_c, 12, 10, 29
1, 36139, Note_on_c, 12, 53, 0
1, 36146, Control_c, 12, 10, 23
1, 36192, Note_on_c, 12, 53, 73
1, 36194, Control_c, 12, 10, 17
1, 36226, Note_on_c, 12, 53, 0
1, 36242, Control_c, 12, 10, 11
1, 36288, Note_on_c, 12, 53, 80
1, 36290, Control_c, 12, 10, 5
1, 36331, Note_on_c, 12, 53, 0
1, 36384, Note_on_c, 12, 53, 73
1, 36418, Note_on_c, 12, 53, 0
1, 36480, Note_on_c, 12, 53, 80
1, 36523, Note_on_c, 12, 53, 0
1, 36576, Note_on_c, 12, 53, 73
1, 36610, Note_on_c, 12, 53, 0
1, 36672, Note_on_c, 12, 53, 80
1, 36715, Note_on_c, 12, 53, 0
1, 36768, Note_on_c, 12, 53, 73
1, 36770, Note_on_c, 6, 53, 0
1, 36770, Note_on_c, 5, 53, 0
1, 36770, Control_c, 12, 6, 10
1, 36802, Note_on_c, 12, 53, 0
1, 36864, Note_on_c, 1, 29, 60
1, 36864, Note_on_c, 5, 53, 127
1, 36864, Note_on_c, 6, 53, 127
1, 36864, Note_on_c, 9, 27, 127
1, 36864, Note_on_c, 9, 45, 107
1, 36864, Note_on_c, 9, 36, 127
1, 36864, Note_on_c, 11, 29, 60
1, 36864, Note_on_c, 12, 53, 80
1, 36866, Control_c, 1, 10, 10
1, 36866, Pitch_bend_c, 1, 8990
1, 36866, Control_c, 5, 11, 74
1, 36866, Control_c, 11, 10, 121
1, 36866, Pitch_bend_c, 11, 7592
1, 36882, Note_on_c, 9, 36, 0
1, 36882, Note_on_c, 9, 27, 0
1, 36882, Note_on_c, 9, 45, 0
1, 36907, Note_on_c, 12, 53, 0
1, 36914, Control_c, 12, 10, 5
1, 36951, Note_on_c, 1, 29, 0
1, 36951, Note_on_c, 11, 29, 0
1, 36960, Note_on_c, 12, 53, 73
1, 36962, Control_c, 12, 10, 13
1, 36962, Control_c, 12, 6, 25
1, 36994, Note_on_c, 12, 53, 0
1, 37010, Control_c, 12, 10, 20
1, 37039, Note_on_c, 5, 53, 0
1, 37039, Note_on_c, 6, 53, 0
1, 37056, Note_on_c, 1, 41, 92
1, 37056, Note_on_c, 11, 41, 92
1, 37056, Note_on_c, 12, 53, 80
1, 37058, Control_c, 12, 10, 27
1, 37099, Note_on_c, 12, 53, 0
1, 37106, Control_c, 12, 10, 34
1, 37130, Control_c, 12, 6, 40
1, 37146, Note_on_c, 11, 41, 0
1, 37146, Note_on_c, 1, 41, 0
1, 37152, Note_on_c, 12, 53, 73
1, 37154, Control_c, 12, 10, 41
1, 37186, Note_on_c, 12, 53, 0
1, 37202, Control_c, 12, 10, 49
1, 37248, Note_on_c, 1, 29, 66
1, 37248, Note_on_c, 9, 27, 127
1, 37248, Note_on_c, 9, 45, 107
1, 37248, Note_on_c, 9, 36, 127
1, 37248, Note_on_c, 11, 29, 66
1, 37248, Note_on_c, 12, 53, 80
1, 37250, Control_c, 12, 10, 56
1, 37266, Note_on_c, 9, 36, 0
1, 37266, Note_on_c, 9, 45, 0
1, 37266, Note_on_c, 9, 27, 0
1, 37291, Note_on_c, 12, 53, 0
1, 37298, Control_c, 12, 10, 63
1, 37334, Control_c, 12, 6, 60
1, 37338, Note_on_c, 11, 29, 0
1, 37338, Note_on_c, 1, 29, 0
1, 37344, Note_on_c, 12, 53, 73
1, 37346, Control_c, 12, 10, 70
1, 37378, Note_on_c, 12, 53, 0
1, 37394, Control_c, 12, 10, 77
1, 37440, Note_on_c, 1, 41, 92
1, 37440, Note_on_c, 5, 53, 127
1, 37440, Note_on_c, 6, 53, 127
1, 37440, Note_on_c, 11, 41, 92
1, 37440, Note_on_c, 12, 53, 80
1, 37442, Control_c, 12, 10, 84
1, 37483, Note_on_c, 12, 53, 0
1, 37490, Control_c, 12, 10, 92
1, 37514, Control_c, 12, 6, 85
1, 37530, Note_on_c, 1, 41, 0
1, 37530, Note_on_c, 11, 41, 0
1, 37536, Note_on_c, 12, 53, 73
1, 37538, Control_c, 12, 10, 99
1, 37570, Note_on_c, 12, 53, 0
1, 37586, Control_c, 12, 10, 106
1, 37592, Note_on_c, 6, 53, 0
1, 37592, Note_on_c, 5, 53, 0
1, 37632, Note_on_c, 1, 29, 66
1, 37632, Note_on_c, 9, 27, 127
1, 37632, Note_on_c, 9, 45, 107
1, 37632, Note_on_c, 9, 36, 127
1, 37632, Note_on_c, 11, 29, 66
1, 37632, Note_on_c, 12, 53, 80
1, 37634, Pitch_bend_c, 7, 8907
1, 37634, Control_c, 12, 10, 113
1, 37650, Note_on_c, 9, 36, 0
1, 37650, Note_on_c, 9, 45, 0
1, 37650, Note_on_c, 9, 27, 0
1, 37675, Note_on_c, 12, 53, 0
1, 37682, Control_c, 12, 10, 120
1, 37722, Note_on_c, 11, 29, 0
1, 37722, Note_on_c, 1, 29, 0
1, 37728, Note_on_c, 12, 53, 73
1, 37730, Control_c, 12, 6, 110
1, 37762, Note_on_c, 12, 53, 0
1, 37824, Note_on_c, 1, 41, 92
1, 37824, Note_on_c, 11, 41, 92
1, 37831, Note_on_c, 7, 54, 74
1, 37914, Note_on_c, 11, 41, 0
1, 37914, Note_on_c, 1, 41, 0
1, 37996, Note_on_c, 7, 54, 0
1, 38016, Note_on_c, 1, 29, 66
1, 38016, Note_on_c, 5, 53, 127
1, 38016, Note_on_c, 6, 53, 127
1, 38016, Note_on_c, 9, 27, 127
1, 38016, Note_on_c, 9, 45, 107
1, 38016, Note_on_c, 9, 36, 127
1, 38016, Note_on_c, 11, 29, 66
1, 38034, Note_on_c, 9, 36, 0
1, 38034, Note_on_c, 9, 27, 0
1, 38034, Note_on_c, 9, 45, 0
1, 38106, Note_on_c, 1, 29, 0
1, 38106, Note_on_c, 11, 29, 0
1, 38144, Note_on_c, 6, 53, 0
1, 38144, Note_on_c, 5, 53, 0
1, 38204, Note_on_c, 7, 54, 74
1, 38208, Note_on_c, 1, 41, 89
1, 38208, Note_on_c, 11, 41, 89
1, 38302, Note_on_c, 11, 41, 0
1, 38302, Note_on_c, 1, 41, 0
1, 38306, Control_c, 12, 6, 10
1, 38343, Note_on_c, 7, 54, 0
1, 38400, Note_on_c, 1, 29, 63
1, 38400, Note_on_c, 5, 53, 127
1, 38400, Note_on_c, 6, 53, 127
1, 38400, Note_on_c, 9, 27, 127
1, 38400, Note_on_c, 9, 45, 107
1, 38400, Note_on_c, 9, 36, 127
1, 38400, Note_on_c, 11, 29, 63
1, 38400, Note_on_c, 12, 53, 80
1, 38402, Control_c, 12, 10, 125
1, 38418, Note_on_c, 9, 36, 0
1, 38418, Note_on_c, 9, 27, 0
1, 38418, Note_on_c, 9, 45, 0
1, 38443, Note_on_c, 12, 53, 0
1, 38450, Control_c, 12, 10, 119
1, 38487, Note_on_c, 1, 29, 0
1, 38487, Note_on_c, 11, 29, 0
1, 38496, Note_on_c, 12, 53, 73
1, 38498, Control_c, 12, 10, 113
1, 38498, Control_c, 12, 6, 25
1, 38530, Note_on_c, 12, 53, 0
1, 38546, Control_c, 12, 10, 107
1, 38577, Note_on_c, 5, 53, 0
1, 38577, Note_on_c, 6, 53, 0
1, 38592, Note_on_c, 1, 41, 89
1, 38592, Note_on_c, 11, 41, 89
1, 38592, Note_on_c, 12, 53, 80
1, 38594, Control_c, 12, 10, 101
1, 38635, Note_on_c, 12, 53, 0
1, 38642, Control_c, 12, 10, 95
1, 38666, Control_c, 12, 6, 40
1, 38682, Note_on_c, 11, 41, 0
1, 38682, Note_on_c, 1, 41, 0
1, 38688, Note_on_c, 12, 53, 73
1, 38690, Control_c, 12, 10, 89
1, 38722, Note_on_c, 12, 53, 0
1, 38738, Control_c, 12, 10, 83
1, 38784, Note_on_c, 1, 29, 63
1, 38784, Note_on_c, 9, 27, 127
1, 38784, Note_on_c, 9, 45, 107
1, 38784, Note_on_c, 9, 36, 127
1, 38784, Note_on_c, 11, 29, 63
1, 38784, Note_on_c, 12, 53, 80
1, 38786, Control_c, 12, 10, 77
1, 38802, Note_on_c, 9, 36, 0
1, 38802, Note_on_c, 9, 45, 0
1, 38802, Note_on_c, 9, 27, 0
1, 38827, Note_on_c, 12, 53, 0
1, 38834, Control_c, 12, 10, 71
1, 38870, Control_c, 12, 6, 60
1, 38874, Note_on_c, 11, 29, 0
1, 38874, Note_on_c, 1, 29, 0
1, 38880, Note_on_c, 12, 53, 73
1, 38882, Control_c, 12, 10, 65
1, 38914, Note_on_c, 12, 53, 0
1, 38930, Control_c, 12, 10, 59
1, 38976, Note_on_c, 1, 41, 89
1, 38976, Note_on_c, 5, 53, 127
1, 38976, Note_on_c, 6, 53, 127
1, 38976, Note_on_c, 11, 41, 89
1, 38976, Note_on_c, 12, 53, 80
1, 38978, Control_c, 12, 10, 53
1, 39019, Note_on_c, 12, 53, 0
1, 39026, Control_c, 12, 10, 47
1, 39050, Control_c, 12, 6, 85
1, 39066, Note_on_c, 1, 41, 0
1, 39066, Note_on_c, 11, 41, 0
1, 39072, Note_on_c, 12, 53, 73
1, 39074, Control_c, 12, 10, 41
1, 39106, Note_on_c, 12, 53, 0
1, 39112, Note_on_c, 6, 53, 0
1, 39112, Note_on_c, 5, 53, 0
1, 39122, Control_c, 12, 10, 35
1, 39168, Note_on_c, 1, 29, 63
1, 39168, Note_on_c, 9, 27, 127
1, 39168, Note_on_c, 9, 45, 107
1, 39168, Note_on_c, 9, 36, 127
1, 39168, Note_on_c, 11, 29, 63
1, 39168, Note_on_c, 12, 53, 80
1, 39170, Control_c, 12, 10, 29
1, 39186, Note_on_c, 9, 36, 0
1, 39186, Note_on_c, 9, 45, 0
1, 39186, Note_on_c, 9, 27, 0
1, 39211, Note_on_c, 12, 53, 0
1, 39218, Control_c, 12, 10, 23
1, 39258, Note_on_c, 11, 29, 0
1, 39258, Note_on_c, 1, 29, 0
1, 39264, Note_on_c, 12, 53, 73
1, 39266, Control_c, 12, 10, 17
1, 39266, Control_c, 12, 6, 110
1, 39298, Note_on_c, 12, 53, 0
1, 39314, Control_c, 12, 10, 11
1, 39360, Note_on_c, 1, 41, 86
1, 39360, Note_on_c, 11, 41, 86
1, 39362, Control_c, 12, 10, 5
1, 39367, Note_on_c, 7, 54, 71
1, 39450, Note_on_c, 11, 41, 0
1, 39450, Note_on_c, 1, 41, 0
1, 39532, Note_on_c, 7, 54, 0
1, 39552, Note_on_c, 1, 29, 63
1, 39552, Note_on_c, 5, 53, 127
1, 39552, Note_on_c, 6, 53, 127
1, 39552, Note_on_c, 9, 27, 127
1, 39552, Note_on_c, 9, 45, 107
1, 39552, Note_on_c, 9, 36, 127
1, 39552, Note_on_c, 11, 29, 63
1, 39570, Note_on_c, 9, 36, 0
1, 39570, Note_on_c, 9, 27, 0
1, 39570, Note_on_c, 9, 45, 0
1, 39642, Note_on_c, 1, 29, 0
1, 39642, Note_on_c, 11, 29, 0
1, 39678, Note_on_c, 6, 53, 0
1, 39678, Note_on_c, 5, 53, 0
1, 39740, Note_on_c, 7, 54, 71
1, 39744, Note_on_c, 1, 41, 86
1, 39744, Note_on_c, 11, 41, 86
1, 39838, Note_on_c, 11, 41, 0
1, 39838, Note_on_c, 1, 41, 0
1, 39842, Control_c, 12, 6, 10
1, 39879, Note_on_c, 7, 54, 0
1, 39936, Note_on_c, 1, 29, 60
1, 39936, Note_on_c, 5, 53, 120
1, 39936, Note_on_c, 6, 53, 120
1, 39936, Note_on_c, 9, 27, 127
1, 39936, Note_on_c, 9, 45, 107
1, 39936, Note_on_c, 9, 36, 127
1, 39936, Note_on_c, 11, 29, 60
1, 39936, Note_on_c, 12, 53, 80
1, 39938, Control_c, 1, 10, 10
1, 39938, Pitch_bend_c, 1, 8990
1, 39954, Note_on_c, 9, 36, 0
1, 39954, Note_on_c, 9, 27, 0
1, 39954, Note_on_c, 9, 45, 0
1, 39979, Note_on_c, 12, 53, 0
1, 39986, Control_c, 12, 10, 5
1, 40023, Note_on_c, 1, 29, 0
1, 40023, Note_on_c, 11, 29, 0
1, 40032, Note_on_c, 12, 53, 73
1, 40034, Control_c, 12, 10, 13
1, 40034, Control_c, 12, 6, 25
1, 40066, Note_on_c, 12, 53, 0
1, 40082, Control_c, 12, 10, 20
1, 40099, Note_on_c, 5, 53, 0
1, 40099, Note_on_c, 6, 53, 0
1, 40128, Note_on_c, 1, 41, 92
1, 40128, Note_on_c, 11, 41, 92
1, 40128, Note_on_c, 12, 53, 80
1, 40130, Control_c, 12, 10, 27
1, 40171, Note_on_c, 12, 53, 0
1, 40178, Control_c, 12, 10, 34
1, 40202, Control_c, 12, 6, 40
1, 40218, Note_on_c, 11, 41, 0
1, 40218, Note_on_c, 1, 41, 0
1, 40224, Note_on_c, 12, 53, 73
1, 40226, Control_c, 12, 10, 41
1, 40258, Note_on_c, 12, 53, 0
1, 40274, Control_c, 12, 10, 49
1, 40320, Note_on_c, 1, 29, 66
1, 40320, Note_on_c, 9, 27, 127
1, 40320, Note_on_c, 9, 45, 107
1, 40320, Note_on_c, 9, 36, 127
1, 40320, Note_on_c, 11, 29, 66
1, 40320, Note_on_c, 12, 53, 80
1, 40322, Control_c, 12, 10, 56
1, 40338, Note_on_c, 9, 36, 0
1, 40338, Note_on_c, 9, 45, 0
1, 40338, Note_on_c, 9, 27, 0
1, 40363, Note_on_c, 12, 53, 0
1, 40370, Control_c, 12, 10, 63
1, 40406, Control_c, 12, 6, 60
1, 40410, Note_on_c, 11, 29, 0
1, 40410, Note_on_c, 1, 29, 0
1, 40416, Note_on_c, 12, 53, 73
1, 40418, Control_c, 12, 10, 70
1, 40450, Note_on_c, 12, 53, 0
1, 40466, Control_c, 12, 10, 77
1, 40512, Note_on_c, 1, 41, 92
1, 40512, Note_on_c, 5, 53, 127
1, 40512, Note_on_c, 6, 53, 127
1, 40512, Note_on_c, 11, 41, 92
1, 40512, Note_on_c, 12, 53, 80
1, 40514, Control_c, 12, 10, 84
1, 40555, Note_on_c, 12, 53, 0
1, 40562, Control_c, 12, 10, 92
1, 40586, Control_c, 12, 6, 85
1, 40602, Note_on_c, 1, 41, 0
1, 40602, Note_on_c, 11, 41, 0
1, 40608, Note_on_c, 12, 53, 73
1, 40610, Control_c, 12, 10, 99
1, 40642, Note_on_c, 12, 53, 0
1, 40650, Note_on_c, 6, 53, 0
1, 40650, Note_on_c, 5, 53, 0
1, 40658, Control_c, 12, 10, 106
1, 40704, Note_on_c, 1, 29, 66
1, 40704, Note_on_c, 9, 27, 127
1, 40704, Note_on_c, 9, 45, 107
1, 40704, Note_on_c, 9, 36, 127
1, 40704, Note_on_c, 11, 29, 66
1, 40704, Note_on_c, 12, 53, 80
1, 40706, Pitch_bend_c, 7, 8907
1, 40706, Control_c, 12, 10, 113
1, 40722, Note_on_c, 9, 36, 0
1, 40722, Note_on_c, 9, 45, 0
1, 40722, Note_on_c, 9, 27, 0
1, 40747, Note_on_c, 12, 53, 0
1, 40754, Control_c, 12, 10, 120
1, 40794, Note_on_c, 11, 29, 0
1, 40794, Note_on_c, 1, 29, 0
1, 40800, Note_on_c, 12, 53, 73
1, 40802, Control_c, 12, 6, 110
1, 40834, Note_on_c, 12, 53, 0
1, 40896, Note_on_c, 1, 41, 92
1, 40896, Note_on_c, 11, 41, 92
1, 40903, Note_on_c, 7, 54, 74
1, 40986, Note_on_c, 11, 41, 0
1, 40986, Note_on_c, 1, 41, 0
1, 41068, Note_on_c, 7, 54, 0
1, 41088, Note_on_c, 1, 29, 66
1, 41088, Note_on_c, 5, 53, 127
1, 41088, Note_on_c, 6, 53, 127
1, 41088, Note_on_c, 9, 27, 127
1, 41088, Note_on_c, 9, 45, 107
1, 41088, Note_on_c, 9, 36, 127
1, 41088, Note_on_c, 11, 29, 66
1, 41106, Note_on_c, 9, 36, 0
1, 41106, Note_on_c, 9, 27, 0
1, 41106, Note_on_c, 9, 45, 0
1, 41178, Note_on_c, 1, 29, 0
1, 41178, Note_on_c, 11, 29, 0
1, 41225, Note_on_c, 6, 53, 0
1, 41225, Note_on_c, 5, 53, 0
1, 41276, Note_on_c, 7, 54, 74
1, 41280, Note_on_c, 1, 41, 89
1, 41280, Note_on_c, 11, 41, 89
1, 41374, Note_on_c, 11, 41, 0
1, 41374, Note_on_c, 1, 41, 0
1, 41378, Control_c, 12, 6, 10
1, 41415, Note_on_c, 7, 54, 0
1, 41472, Note_on_c, 1, 29, 63
1, 41472, Note_on_c, 5, 53, 112
1, 41472, Note_on_c, 6, 53, 112
1, 41472, Note_on_c, 9, 27, 127
1, 41472, Note_on_c, 9, 45, 107
1, 41472, Note_on_c, 9, 36, 127
1, 41472, Note_on_c, 11, 29, 63
1, 41472, Note_on_c, 12, 53, 80
1, 41474, Control_c, 12, 10, 125
1, 41490, Note_on_c, 9, 36, 0
1, 41490, Note_on_c, 9, 27, 0
1, 41490, Note_on_c, 9, 45, 0
1, 41515, Note_on_c, 12, 53, 0
1, 41522, Control_c, 12, 10, 119
1, 41559, Note_on_c, 1, 29, 0
1, 41559, Note_on_c, 11, 29, 0
1, 41568, Note_on_c, 12, 53, 73
1, 41570, Control_c, 12, 10, 113
1, 41570, Control_c, 12, 6, 25
1, 41602, Note_on_c, 12, 53, 0
1, 41618, Control_c, 12, 10, 107
1, 41631, Note_on_c, 5, 53, 0
1, 41631, Note_on_c, 6, 53, 0
1, 41664, Note_on_c, 1, 41, 89
1, 41664, Note_on_c, 11, 41, 89
1, 41664, Note_on_c, 12, 53, 80
1, 41666, Control_c, 12, 10, 101
1, 41707, Note_on_c, 12, 53, 0
1, 41714, Control_c, 12, 10, 95
1, 41738, Control_c, 12, 6, 40
1, 41754, Note_on_c, 11, 41, 0
1, 41754, Note_on_c, 1, 41, 0
1, 41760, Note_on_c, 12, 53, 73
1, 41762, Control_c, 12, 10, 89
1, 41794, Note_on_c, 12, 53, 0
1, 41810, Control_c, 12, 10, 83
1, 41856, Note_on_c, 1, 29, 63
1, 41856, Note_on_c, 9, 27, 127
1, 41856, Note_on_c, 9, 45, 107
1, 41856, Note_on_c, 9, 36, 127
1, 41856, Note_on_c, 11, 29, 63
1, 41856, Note_on_c, 12, 53, 80
1, 41858, Control_c, 12, 10, 77
1, 41874, Note_on_c, 9, 36, 0
1, 41874, Note_on_c, 9, 45, 0
1, 41874, Note_on_c, 9, 27, 0
1, 41899, Note_on_c, 12, 53, 0
1, 41906, Control_c, 12, 10, 71
1, 41942, Control_c, 12, 6, 60
1, 41946, Note_on_c, 11, 29, 0
1, 41946, Note_on_c, 1, 29, 0
1, 41952, Note_on_c, 12, 53, 73
1, 41954, Control_c, 12, 10, 65
1, 41986, Note_on_c, 12, 53, 0
1, 42002, Control_c, 12, 10, 59
1, 42048, Note_on_c, 1, 41, 89
1, 42048, Note_on_c, 5, 53, 127
1, 42048, Note_on_c, 6, 53, 127
1, 42048, Note_on_c, 11, 41, 89
1, 42048, Note_on_c, 12, 53, 80
1, 42050, Control_c, 12, 10, 53
1, 42091, Note_on_c, 12, 53, 0
1, 42098, Control_c, 12, 10, 47
1, 42122, Control_c, 12, 6, 85
1, 42138, Note_on_c, 1, 41, 0
1, 42138, Note_on_c, 11, 41, 0
1, 42144, Note_on_c, 12, 53, 73
1, 42146, Control_c, 12, 10, 41
1, 42176, Note_on_c, 6, 53, 0
1, 42176, Note_on_c, 5, 53, 0
1, 42178, Note_on_c, 12, 53, 0
1, 42194, Control_c, 12, 10, 35
1, 42240, Note_on_c, 1, 29, 63
1, 42240, Note_on_c, 9, 27, 127
1, 42240, Note_on_c, 9, 45, 107
1, 42240, Note_on_c, 9, 36, 127
1, 42240, Note_on_c, 11, 29, 63
1, 42240, Note_on_c, 12, 53, 80
1, 42242, Control_c, 12, 10, 29
1, 42258, Note_on_c, 9, 36, 0
1, 42258, Note_on_c, 9, 45, 0
1, 42258, Note_on_c, 9, 27, 0
1, 42283, Note_on_c, 12, 53, 0
1, 42290, Control_c, 12, 10, 23
1, 42330, Note_on_c, 11, 29, 0
1, 42330, Note_on_c, 1, 29, 0
1, 42336, Note_on_c, 12, 53, 73
1, 42338, Control_c, 12, 10, 17
1, 42338, Control_c, 12, 6, 110
1, 42370, Note_on_c, 12, 53, 0
1, 42386, Control_c, 12, 10, 11
1, 42432, Note_on_c, 1, 41, 86
1, 42432, Note_on_c, 11, 41, 86
1, 42434, Control_c, 12, 10, 5
1, 42439, Note_on_c, 7, 54, 71
1, 42522, Note_on_c, 11, 41, 0
1, 42522, Note_on_c, 1, 41, 0
1, 42604, Note_on_c, 7, 54, 0
1, 42624, Note_on_c, 1, 29, 63
1, 42624, Note_on_c, 5, 53, 127
1, 42624, Note_on_c, 6, 53, 127
1, 42624, Note_on_c, 9, 27, 127
1, 42624, Note_on_c, 9, 45, 107
1, 42624, Note_on_c, 9, 36, 127
1, 42624, Note_on_c, 11, 29, 63
1, 42642, Note_on_c, 9, 36, 0
1, 42642, Note_on_c, 9, 27, 0
1, 42642, Note_on_c, 9, 45, 0
1, 42714, Note_on_c, 1, 29, 0
1, 42714, Note_on_c, 11, 29, 0
1, 42769, Note_on_c, 6, 53, 0
1, 42769, Note_on_c, 5, 53, 0
1, 42812, Note_on_c, 7, 54, 71
1, 42816, Note_on_c, 1, 41, 86
1, 42816, Note_on_c, 9, 42, 60
1, 42816, Note_on_c, 11, 41, 86
1, 42834, Note_on_c, 9, 42, 0
1, 42902, Note_on_c, 9, 42, 87
1, 42910, Note_on_c, 11, 41, 0
1, 42910, Note_on_c, 1, 41, 0
1, 42914, Control_c, 12, 6, 10
1, 42920, Note_on_c, 9, 42, 0
1, 42951, Note_on_c, 7, 54, 0
1, 43008, Note_on_c, 1, 29, 60
1, 43008, Note_on_c, 5, 53, 127
1, 43008, Note_on_c, 6, 53, 127
1, 43008, Note_on_c, 9, 27, 127
1, 43008, Note_on_c, 9, 45, 107
1, 43008, Note_on_c, 9, 36, 127
1, 43008, Note_on_c, 9, 42, 87
1, 43008, Note_on_c, 11, 29, 60
1, 43008, Note_on_c, 12, 53, 80
1, 43010, Control_c, 1, 10, 10
1, 43010, Pitch_bend_c, 1, 8990
1, 43026, Note_on_c, 9, 42, 0
1, 43026, Note_on_c, 9, 27, 0
1, 43026, Note_on_c, 9, 36, 0
1, 43026, Note_on_c, 9, 45, 0
1, 43051, Note_on_c, 12, 53, 0
1, 43058, Control_c, 12, 10, 5
1, 43095, Note_on_c, 1, 29, 0
1, 43095, Note_on_c, 11, 29, 0
1, 43104, Note_on_c, 12, 53, 73
1, 43106, Control_c, 12, 10, 13
1, 43106, Control_c, 12, 6, 25
1, 43138, Note_on_c, 12, 53, 0
1, 43154, Control_c, 12, 10, 20
1, 43185, Note_on_c, 5, 53, 0
1, 43185, Note_on_c, 6, 53, 0
1, 43200, Note_on_c, 1, 41, 92
1, 43200, Note_on_c, 11, 41, 92
1, 43200, Note_on_c, 12, 53, 80
1, 43202, Control_c, 12, 10, 27
1, 43243, Note_on_c, 12, 53, 0
1, 43248, Note_on_c, 9, 42, 87
1, 43250, Control_c, 12, 10, 34
1, 43266, Note_on_c, 9, 42, 0
1, 43274, Control_c, 12, 6, 40
1, 43290, Note_on_c, 11, 41, 0
1, 43290, Note_on_c, 1, 41, 0
1, 43296, Note_on_c, 12, 53, 73
1, 43298, Control_c, 12, 10, 41
1, 43330, Note_on_c, 12, 53, 0
1, 43346, Control_c, 12, 10, 49
1, 43392, Note_on_c, 1, 29, 66
1, 43392, Note_on_c, 9, 27, 127
1, 43392, Note_on_c, 9, 45, 107
1, 43392, Note_on_c, 9, 36, 127
1, 43392, Note_on_c, 11, 29, 66
1, 43392, Note_on_c, 12, 53, 80
1, 43394, Control_c, 12, 10, 56
1, 43410, Note_on_c, 9, 36, 0
1, 43410, Note_on_c, 9, 45, 0
1, 43410, Note_on_c, 9, 27, 0
1, 43435, Note_on_c, 12, 53, 0
1, 43442, Control_c, 12, 10, 63
1, 43478, Control_c, 12, 6, 60
1, 43482, Note_on_c, 11, 29, 0
1, 43482, Note_on_c, 1, 29, 0
1, 43488, Note_on_c, 12, 53, 73
1, 43490, Control_c, 12, 10, 70
1, 43522, Note_on_c, 12, 53, 0
1, 43538, Control_c, 12, 10, 77
1, 43584, Note_on_c, 1, 41, 92
1, 43584, Note_on_c, 5, 53, 127
1, 43584, Note_on_c, 6, 53, 127
1, 43584, Note_on_c, 9, 42, 87
1, 43584, Note_on_c, 11, 41, 92
1, 43584, Note_on_c, 12, 53, 80
1, 43586, Control_c, 12, 10, 84
1, 43602, Note_on_c, 9, 42, 0
1, 43627, Note_on_c, 12, 53, 0
1, 43634, Control_c, 12, 10, 92
1, 43658, Control_c, 12, 6, 85
1, 43674, Note_on_c, 1, 41, 0
1, 43674, Note_on_c, 11, 41, 0
1, 43680, Note_on_c, 12, 53, 73
1, 43682, Control_c, 12, 10, 99
1, 43714, Note_on_c, 12, 53, 0
1, 43720, Note_on_c, 6, 53, 0
1, 43720, Note_on_c, 5, 53, 0
1, 43730, Control_c, 12, 10, 106
1, 43776, Note_on_c, 1, 29, 66
1, 43776, Note_on_c, 9, 27, 127
1, 43776, Note_on_c, 9, 45, 107
1, 43776, Note_on_c, 9, 36, 127
1, 43776, Note_on_c, 11, 29, 66
1, 43776, Note_on_c, 12, 53, 80
1, 43778, Pitch_bend_c, 7, 8907
1, 43778, Control_c, 12, 10, 113
1, 43794, Note_on_c, 9, 36, 0
1, 43794, Note_on_c, 9, 45, 0
1, 43794, Note_on_c, 9, 27, 0
1, 43819, Note_on_c, 12, 53, 0
1, 43824, Note_on_c, 9, 42, 52
1, 43826, Control_c, 12, 10, 120
1, 43842, Note_on_c, 9, 42, 0
1, 43866, Note_on_c, 11, 29, 0
1, 43866, Note_on_c, 1, 29, 0
1, 43872, Note_on_c, 12, 53, 73
1, 43874, Control_c, 12, 6, 110
1, 43882, Note_on_c, 9, 42, 87
1, 43900, Note_on_c, 9, 42, 0
1, 43906, Note_on_c, 12, 53, 0
1, 43968, Note_on_c, 1, 41, 92
1, 43968, Note_on_c, 11, 41, 92
1, 43975, Note_on_c, 7, 54, 74
1, 44058, Note_on_c, 11, 41, 0
1, 44058, Note_on_c, 1, 41, 0
1, 44140, Note_on_c, 7, 54, 0
1, 44160, Note_on_c, 1, 29, 66
1, 44160, Note_on_c, 5, 53, 127
1, 44160, Note_on_c, 6, 53, 127
1, 44160, Note_on_c, 9, 27, 127
1, 44160, Note_on_c, 9, 45, 107
1, 44160, Note_on_c, 9, 36, 127
1, 44160, Note_on_c, 11, 29, 66
1, 44178, Note_on_c, 9, 36, 0
1, 44178, Note_on_c, 9, 27, 0
1, 44178, Note_on_c, 9, 45, 0
1, 44250, Note_on_c, 1, 29, 0
1, 44250, Note_on_c, 11, 29, 0
1, 44286, Note_on_c, 6, 53, 0
1, 44286, Note_on_c, 5, 53, 0
1, 44348, Note_on_c, 7, 54, 74
1, 44352, Note_on_c, 1, 41, 89
1, 44352, Note_on_c, 11, 41, 89
1, 44400, Note_on_c, 9, 42, 60
1, 44418, Note_on_c, 9, 42, 0
1, 44446, Note_on_c, 11, 41, 0
1, 44446, Note_on_c, 1, 41, 0
1, 44450, Control_c, 12, 6, 10
1, 44486, Note_on_c, 9, 42, 87
1, 44487, Note_on_c, 7, 54, 0
1, 44504, Note_on_c, 9, 42, 0
1, 44544, Note_on_c, 1, 29, 63
1, 44544, Note_on_c, 5, 53, 120
1, 44544, Note_on_c, 6, 53, 120
1, 44544, Note_on_c, 9, 27, 127
1, 44544, Note_on_c, 9, 45, 107
1, 44544, Note_on_c, 9, 36, 127
1, 44544, Note_on_c, 9, 42, 87
1, 44544, Note_on_c, 11, 29, 63
1, 44544, Note_on_c, 12, 53, 80
1, 44546, Control_c, 12, 10, 125
1, 44562, Note_on_c, 9, 42, 0
1, 44562, Note_on_c, 9, 27, 0
1, 44562, Note_on_c, 9, 36, 0
1, 44562, Note_on_c, 9, 45, 0
1, 44587, Note_on_c, 12, 53, 0
1, 44594, Control_c, 12, 10, 119
1, 44631, Note_on_c, 1, 29, 0
1, 44631, Note_on_c, 11, 29, 0
1, 44640, Note_on_c, 12, 53, 73
1, 44642, Control_c, 12, 10, 113
1, 44642, Control_c, 12, 6, 25
1, 44674, Note_on_c, 12, 53, 0
1, 44690, Control_c, 12, 10, 107
1, 44707, Note_on_c, 5, 53, 0
1, 44707, Note_on_c, 6, 53, 0
1, 44736, Note_on_c, 1, 41, 89
1, 44736, Note_on_c, 11, 41, 89
1, 44736, Note_on_c, 12, 53, 80
1, 44738, Control_c, 12, 10, 101
1, 44779, Note_on_c, 12, 53, 0
1, 44784, Note_on_c, 9, 42, 87
1, 44786, Control_c, 12, 10, 95
1, 44802, Note_on_c, 9, 42, 0
1, 44810, Control_c, 12, 6, 40
1, 44826, Note_on_c, 11, 41, 0
1, 44826, Note_on_c, 1, 41, 0
1, 44832, Note_on_c, 12, 53, 73
1, 44834, Control_c, 12, 10, 89
1, 44866, Note_on_c, 12, 53, 0
1, 44882, Control_c, 12, 10, 83
1, 44928, Note_on_c, 1, 29, 63
1, 44928, Note_on_c, 9, 27, 127
1, 44928, Note_on_c, 9, 45, 107
1, 44928, Note_on_c, 9, 36, 127
1, 44928, Note_on_c, 11, 29, 63
1, 44928, Note_on_c, 12, 53, 80
1, 44930, Control_c, 12, 10, 77
1, 44946, Note_on_c, 9, 36, 0
1, 44946, Note_on_c, 9, 45, 0
1, 44946, Note_on_c, 9, 27, 0
1, 44971, Note_on_c, 12, 53, 0
1, 44978, Control_c, 12, 10, 71
1, 45014, Control_c, 12, 6, 60
1, 45018, Note_on_c, 11, 29, 0
1, 45018, Note_on_c, 1, 29, 0
1, 45024, Note_on_c, 12, 53, 73
1, 45026, Control_c, 12, 10, 65
1, 45058, Note_on_c, 12, 53, 0
1, 45074, Control_c, 12, 10, 59
1, 45120, Note_on_c, 1, 41, 89
1, 45120, Note_on_c, 5, 53, 127
1, 45120, Note_on_c, 6, 53, 127
1, 45120, Note_on_c, 9, 42, 87
1, 45120, Note_on_c, 11, 41, 89
1, 45120, Note_on_c, 12, 53, 80
1, 45122, Control_c, 12, 10, 53
1, 45138, Note_on_c, 9, 42, 0
1, 45163, Note_on_c, 12, 53, 0
1, 45170, Control_c, 12, 10, 47
1, 45194, Control_c, 12, 6, 85
1, 45210, Note_on_c, 1, 41, 0
1, 45210, Note_on_c, 11, 41, 0
1, 45216, Note_on_c, 12, 53, 73
1, 45218, Control_c, 12, 10, 41
1, 45250, Note_on_c, 12, 53, 0
1, 45258, Note_on_c, 6, 53, 0
1, 45258, Note_on_c, 5, 53, 0
1, 45266, Control_c, 12, 10, 35
1, 45312, Note_on_c, 1, 29, 63
1, 45312, Note_on_c, 9, 27, 127
1, 45312, Note_on_c, 9, 45, 107
1, 45312, Note_on_c, 9, 36, 127
1, 45312, Note_on_c, 11, 29, 63
1, 45312, Note_on_c, 12, 53, 80
1, 45314, Control_c, 12, 10, 29
1, 45330, Note_on_c, 9, 36, 0
1, 45330, Note_on_c, 9, 45, 0
1, 45330, Note_on_c, 9, 27, 0
1, 45355, Note_on_c, 12, 53, 0
1, 45360, Note_on_c, 9, 42, 52
1, 45362, Control_c, 12, 10, 23
1, 45378, Note_on_c, 9, 42, 0
1, 45402, Note_on_c, 11, 29, 0
1, 45402, Note_on_c, 1, 29, 0
1, 45408, Note_on_c, 12, 53, 73
1, 45410, Control_c, 12, 10, 17
1, 45410, Control_c, 12, 6, 110
1, 45418, Note_on_c, 9, 42, 87
1, 45436, Note_on_c, 9, 42, 0
1, 45442, Note_on_c, 12, 53, 0
1, 45458, Control_c, 12, 10, 11
1, 45504, Note_on_c, 1, 41, 86
1, 45504, Note_on_c, 11, 41, 86
1, 45506, Control_c, 12, 10, 5
1, 45511, Note_on_c, 7, 54, 71
1, 45594, Note_on_c, 11, 41, 0
1, 45594, Note_on_c, 1, 41, 0
1, 45676, Note_on_c, 7, 54, 0
1, 45696, Note_on_c, 1, 29, 63
1, 45696, Note_on_c, 5, 53, 127
1, 45696, Note_on_c, 6, 53, 127
1, 45696, Note_on_c, 9, 27, 127
1, 45696, Note_on_c, 9, 45, 107
1, 45696, Note_on_c, 9, 36, 127
1, 45696, Note_on_c, 11, 29, 63
1, 45714, Note_on_c, 9, 36, 0
1, 45714, Note_on_c, 9, 27, 0
1, 45714, Note_on_c, 9, 45, 0
1, 45786, Note_on_c, 1, 29, 0
1, 45786, Note_on_c, 11, 29, 0
1, 45833, Note_on_c, 6, 53, 0
1, 45833, Note_on_c, 5, 53, 0
1, 45884, Note_on_c, 7, 54, 71
1, 45888, Note_on_c, 1, 41, 86
1, 45888, Note_on_c, 11, 41, 86
1, 45936, Note_on_c, 9, 42, 60
1, 45954, Note_on_c, 9, 42, 0
1, 45982, Note_on_c, 11, 41, 0
1, 45982, Note_on_c, 1, 41, 0
1, 45986, Control_c, 12, 6, 10
1, 46022, Note_on_c, 9, 42, 87
1, 46023, Note_on_c, 7, 54, 0
1, 46040, Note_on_c, 9, 42, 0
1, 46080, Note_on_c, 1, 29, 73
1, 46080, Note_on_c, 5, 53, 112
1, 46080, Note_on_c, 6, 53, 112
1, 46080, Note_on_c, 9, 27, 127
1, 46080, Note_on_c, 9, 45, 107
1, 46080, Note_on_c, 9, 36, 127
1, 46080, Note_on_c, 9, 42, 87
1, 46080, Note_on_c, 11, 29, 73
1, 46080, Note_on_c, 12, 53, 80
1, 46098, Note_on_c, 9, 42, 0
1, 46098, Note_on_c, 9, 27, 0
1, 46098, Note_on_c, 9, 36, 0
1, 46098, Note_on_c, 9, 45, 0
1, 46123, Note_on_c, 12, 53, 0
1, 46130, Control_c, 12, 10, 5
1, 46167, Note_on_c, 1, 29, 0
1, 46167, Note_on_c, 11, 29, 0
1, 46176, Note_on_c, 12, 53, 73
1, 46178, Control_c, 12, 10, 13
1, 46178, Control_c, 12, 6, 25
1, 46210, Note_on_c, 12, 53, 0
1, 46226, Control_c, 12, 10, 20
1, 46239, Note_on_c, 5, 53, 0
1, 46239, Note_on_c, 6, 53, 0
1, 46272, Note_on_c, 1, 41, 95
1, 46272, Note_on_c, 11, 41, 92
1, 46272, Note_on_c, 12, 53, 80
1, 46274, Control_c, 12, 10, 27
1, 46315, Note_on_c, 12, 53, 0
1, 46320, Note_on_c, 9, 42, 87
1, 46322, Control_c, 12, 10, 34
1, 46338, Note_on_c, 9, 42, 0
1, 46346, Control_c, 12, 6, 40
1, 46362, Note_on_c, 11, 41, 0
1, 46362, Note_on_c, 1, 41, 0
1, 46368, Note_on_c, 12, 53, 73
1, 46370, Control_c, 12, 10, 41
1, 46402, Note_on_c, 12, 53, 0
1, 46418, Control_c, 12, 10, 49
1, 46464, Note_on_c, 1, 29, 73
1, 46464, Note_on_c, 9, 27, 127
1, 46464, Note_on_c, 9, 45, 107
1, 46464, Note_on_c, 9, 36, 127
1, 46464, Note_on_c, 11, 29, 73
1, 46464, Note_on_c, 12, 53, 80
1, 46466, Control_c, 12, 10, 56
1, 46482, Note_on_c, 9, 36, 0
1, 46482, Note_on_c, 9, 45, 0
1, 46482, Note_on_c, 9, 27, 0
1, 46507, Note_on_c, 12, 53, 0
1, 46514, Control_c, 12, 10, 63
1, 46550, Control_c, 12, 6, 60
1, 46554, Note_on_c, 11, 29, 0
1, 46554, Note_on_c, 1, 29, 0
1, 46560, Note_on_c, 12, 53, 73
1, 46562, Control_c, 12, 10, 70
1, 46594, Note_on_c, 12, 53, 0
1, 46610, Control_c, 12, 10, 77
1, 46656, Note_on_c, 1, 41, 95
1, 46656, Note_on_c, 5, 53, 127
1, 46656, Note_on_c, 6, 53, 127
1, 46656, Note_on_c, 9, 42, 87
1, 46656, Note_on_c, 11, 41, 92
1, 46656, Note_on_c, 12, 53, 80
1, 46658, Control_c, 12, 10, 84
1, 46674, Note_on_c, 9, 42, 0
1, 46699, Note_on_c, 12, 53, 0
1, 46706, Control_c, 12, 10, 92
1, 46730, Control_c, 12, 6, 85
1, 46746, Note_on_c, 1, 41, 0
1, 46746, Note_on_c, 11, 41, 0
1, 46752, Note_on_c, 12, 53, 73
1, 46754, Control_c, 12, 10, 99
1, 46784, Note_on_c, 6, 53, 0
1, 46784, Note_on_c, 5, 53, 0
1, 46786, Note_on_c, 12, 53, 0
1, 46802, Control_c, 12, 10, 106
1, 46848, Note_on_c, 1, 29, 65
1, 46848, Note_on_c, 9, 27, 127
1, 46848, Note_on_c, 9, 45, 107
1, 46848, Note_on_c, 9, 36, 127
1, 46848, Note_on_c, 11, 29, 65
1, 46848, Note_on_c, 12, 53, 80
1, 46850, Control_c, 12, 10, 113
1, 46866, Note_on_c, 9, 36, 0
1, 46866, Note_on_c, 9, 45, 0
1, 46866, Note_on_c, 9, 27, 0
1, 46891, Note_on_c, 12, 53, 0
1, 46896, Note_on_c, 9, 42, 52
1, 46898, Control_c, 12, 10, 120
1, 46914, Note_on_c, 9, 42, 0
1, 46938, Note_on_c, 11, 29, 0
1, 46938, Note_on_c, 1, 29, 0
1, 46944, Note_on_c, 12, 53, 73
1, 46946, Control_c, 12, 6, 110
1, 46954, Note_on_c, 9, 42, 87
1, 46972, Note_on_c, 9, 42, 0
1, 46978, Note_on_c, 12, 53, 0
1, 47040, Note_on_c, 1, 41, 95
1, 47040, Note_on_c, 11, 41, 92
1, 47047, Note_on_c, 7, 54, 74
1, 47130, Note_on_c, 11, 41, 0
1, 47130, Note_on_c, 1, 41, 0
1, 47212, Note_on_c, 7, 54, 0
1, 47232, Note_on_c, 1, 29, 65
1, 47232, Note_on_c, 5, 53, 127
1, 47232, Note_on_c, 6, 53, 127
1, 47232, Note_on_c, 9, 27, 127
1, 47232, Note_on_c, 9, 45, 107
1, 47232, Note_on_c, 9, 36, 127
1, 47232, Note_on_c, 11, 29, 65
1, 47250, Note_on_c, 9, 36, 0
1, 47250, Note_on_c, 9, 27, 0
1, 47250, Note_on_c, 9, 45, 0
1, 47322, Note_on_c, 1, 29, 0
1, 47322, Note_on_c, 11, 29, 0
1, 47377, Note_on_c, 6, 53, 0
1, 47377, Note_on_c, 5, 53, 0
1, 47420, Note_on_c, 7, 54, 74
1, 47424, Note_on_c, 1, 41, 92
1, 47424, Note_on_c, 11, 41, 92
1, 47472, Note_on_c, 9, 42, 60
1, 47490, Note_on_c, 9, 42, 0
1, 47518, Note_on_c, 11, 41, 0
1, 47518, Note_on_c, 1, 41, 0
1, 47522, Control_c, 12, 6, 10
1, 47558, Note_on_c, 9, 42, 87
1, 47559, Note_on_c, 7, 54, 0
1, 47576, Note_on_c, 9, 42, 0
1, 47616, Note_on_c, 5, 53, 127
1, 47616, Note_on_c, 6, 53, 127
1, 47616, Note_on_c, 9, 27, 127
1, 47616, Note_on_c, 9, 45, 107
1, 47616, Note_on_c, 9, 36, 127
1, 47616, Note_on_c, 9, 42, 87
1, 47616, Note_on_c, 12, 53, 80
1, 47618, Control_c, 12, 10, 125
1, 47619, Pitch_bend_c, 1, 8192
1, 47619, Pitch_bend_c, 7, 8192
1, 47619, Pitch_bend_c, 11, 8192
1, 47634, Note_on_c, 9, 42, 0
1, 47634, Note_on_c, 9, 45, 0
1, 47634, Note_on_c, 9, 27, 0
1, 47634, Note_on_c, 9, 36, 0
1, 47659, Note_on_c, 12, 53, 0
1, 47666, Control_c, 12, 10, 119
1, 47712, Note_on_c, 12, 53, 73
1, 47714, Control_c, 12, 10, 113
1, 47714, Control_c, 12, 6, 25
1, 47746, Note_on_c, 12, 53, 0
1, 47762, Control_c, 12, 10, 107
1, 47808, Note_on_c, 9, 48, 127
1, 47808, Note_on_c, 9, 38, 127
1, 47808, Note_on_c, 12, 53, 80
1, 47810, Control_c, 12, 10, 101
1, 47826, Note_on_c, 9, 38, 0
1, 47826, Note_on_c, 9, 48, 0
1, 47851, Note_on_c, 12, 53, 0
1, 47858, Control_c, 12, 10, 95
1, 47882, Control_c, 12, 6, 40
1, 47904, Note_on_c, 12, 53, 73
1, 47906, Control_c, 12, 10, 89
1, 47938, Note_on_c, 12, 53, 0
1, 47954, Control_c, 12, 10, 83
1, 48000, Note_on_c, 9, 48, 87
1, 48000, Note_on_c, 9, 38, 87
1, 48000, Note_on_c, 12, 53, 80
1, 48002, Control_c, 12, 10, 77
1, 48018, Note_on_c, 9, 38, 0
1, 48018, Note_on_c, 9, 48, 0
1, 48043, Note_on_c, 12, 53, 0
1, 48050, Control_c, 12, 10, 71
1, 48086, Control_c, 12, 6, 60
1, 48096, Note_on_c, 9, 48, 72
1, 48096, Note_on_c, 9, 38, 72
1, 48096, Note_on_c, 12, 53, 73
1, 48098, Control_c, 12, 10, 65
1, 48114, Note_on_c, 9, 38, 0
1, 48114, Note_on_c, 9, 48, 0
1, 48130, Note_on_c, 12, 53, 0
1, 48146, Control_c, 12, 10, 59
1, 48192, Note_on_c, 9, 48, 72
1, 48192, Note_on_c, 9, 38, 72
1, 48192, Note_on_c, 12, 53, 80
1, 48194, Control_c, 12, 10, 53
1, 48210, Note_on_c, 9, 38, 0
1, 48210, Note_on_c, 9, 48, 0
1, 48235, Note_on_c, 12, 53, 0
1, 48242, Control_c, 12, 10, 47
1, 48266, Control_c, 12, 6, 85
1, 48288, Note_on_c, 9, 48, 101
1, 48288, Note_on_c, 9, 38, 101
1, 48288, Note_on_c, 12, 53, 73
1, 48290, Control_c, 12, 10, 41
1, 48306, Note_on_c, 9, 38, 0
1, 48306, Note_on_c, 9, 48, 0
1, 48322, Note_on_c, 12, 53, 0
1, 48338, Control_c, 12, 10, 35
1, 48384, Note_on_c, 12, 53, 80
1, 48386, Control_c, 12, 10, 29
1, 48427, Note_on_c, 12, 53, 0
1, 48434, Control_c, 12, 10, 23
1, 48480, Note_on_c, 12, 53, 73
1, 48482, Control_c, 12, 10, 17
1, 48482, Control_c, 12, 6, 110
1, 48514, Note_on_c, 12, 53, 0
1, 48530, Control_c, 12, 10, 11
1, 48576, Note_on_c, 9, 48, 127
1, 48576, Note_on_c, 9, 38, 127
1, 48578, Control_c, 12, 10, 5
1, 48594, Note_on_c, 9, 38, 0
1, 48594, Note_on_c, 9, 48, 0
1, 48768, Note_on_c, 9, 48, 87
1, 48768, Note_on_c, 9, 38, 87
1, 48786, Note_on_c, 9, 38, 0
1, 48786, Note_on_c, 9, 48, 0
1, 48864, Note_on_c, 9, 48, 72
1, 48864, Note_on_c, 9, 38, 72
1, 48882, Note_on_c, 9, 38, 0
1, 48882, Note_on_c, 9, 48, 0
1, 48960, Note_on_c, 9, 48, 72
1, 48960, Note_on_c, 9, 38, 72
1, 48978, Note_on_c, 9, 38, 0
1, 48978, Note_on_c, 9, 48, 0
1, 49056, Note_on_c, 9, 48, 107
1, 49056, Note_on_c, 9, 38, 107
1, 49058, Control_c, 12, 6, 10
1, 49074, Note_on_c, 9, 38, 0
1, 49074, Note_on_c, 9, 48, 0
1, 49146, Note_on_c, 6, 53, 0
1, 49146, Note_on_c, 5, 53, 0
1, 49152, Note_on_c, 1, 29, 60
1, 49152, Note_on_c, 6, 53, 127
1, 49152, Note_on_c, 7, 65, 80
1, 49152, Note_on_c, 9, 27, 127
1, 49152, Note_on_c, 9, 45, 107
1, 49152, Note_on_c, 9, 36, 127
1, 49152, Note_on_c, 9, 42, 66
1, 49152, Note_on_c, 9, 70, 92
1, 49152, Note_on_c, 11, 29, 60
1, 49152, Note_on_c, 12, 53, 80
1, 49154, Control_c, 1, 10, 10
1, 49154, Pitch_bend_c, 1, 8990
1, 49154, Pitch_bend_c, 5, 8192
1, 49154, Pitch_bend_c, 7, 8192
1, 49170, Note_on_c, 9, 70, 0
1, 49170, Note_on_c, 9, 42, 0
1, 49170, Note_on_c, 9, 27, 0
1, 49170, Note_on_c, 9, 36, 0
1, 49170, Note_on_c, 9, 45, 0
1, 49195, Note_on_c, 12, 53, 0
1, 49202, Control_c, 12, 10, 5
1, 49239, Note_on_c, 11, 29, 0
1, 49239, Note_on_c, 1, 29, 0
1, 49248, Note_on_c, 9, 42, 75
1, 49248, Note_on_c, 12, 53, 73
1, 49250, Control_c, 12, 10, 13
1, 49250, Control_c, 12, 6, 25
1, 49266, Note_on_c, 9, 42, 0
1, 49282, Note_on_c, 12, 53, 0
1, 49298, Control_c, 12, 10, 20
1, 49317, Note_on_c, 7, 65, 0
1, 49327, Note_on_c, 6, 53, 0
1, 49344, Note_on_c, 1, 41, 92
1, 49344, Note_on_c, 9, 46, 107
1, 49344, Note_on_c, 11, 41, 92
1, 49344, Note_on_c, 12, 53, 80
1, 49346, Control_c, 12, 10, 27
1, 49362, Note_on_c, 9, 46, 0
1, 49387, Note_on_c, 12, 53, 0
1, 49394, Control_c, 12, 10, 34
1, 49418, Control_c, 12, 6, 40
1, 49434, Note_on_c, 11, 41, 0
1, 49434, Note_on_c, 1, 41, 0
1, 49440, Note_on_c, 9, 70, 40
1, 49440, Note_on_c, 12, 53, 73
1, 49442, Control_c, 12, 10, 41
1, 49458, Note_on_c, 9, 70, 0
1, 49474, Note_on_c, 12, 53, 0
1, 49490, Control_c, 12, 10, 49
1, 49536, Note_on_c, 1, 29, 66
1, 49536, Note_on_c, 9, 27, 127
1, 49536, Note_on_c, 9, 45, 107
1, 49536, Note_on_c, 9, 36, 127
1, 49536, Note_on_c, 9, 42, 66
1, 49536, Note_on_c, 9, 70, 86
1, 49536, Note_on_c, 11, 29, 66
1, 49536, Note_on_c, 12, 53, 80
1, 49538, Control_c, 12, 10, 56
1, 49554, Note_on_c, 9, 70, 0
1, 49554, Note_on_c, 9, 36, 0
1, 49554, Note_on_c, 9, 45, 0
1, 49554, Note_on_c, 9, 27, 0
1, 49554, Note_on_c, 9, 42, 0
1, 49579, Note_on_c, 12, 53, 0
1, 49586, Control_c, 12, 10, 63
1, 49622, Control_c, 12, 6, 60
1, 49626, Note_on_c, 1, 29, 0
1, 49626, Note_on_c, 11, 29, 0
1, 49632, Note_on_c, 9, 42, 75
1, 49632, Note_on_c, 12, 53, 73
1, 49634, Control_c, 12, 10, 70
1, 49650, Note_on_c, 9, 42, 0
1, 49666, Note_on_c, 12, 53, 0
1, 49682, Control_c, 12, 10, 77
1, 49728, Note_on_c, 1, 41, 92
1, 49728, Note_on_c, 6, 53, 127
1, 49728, Note_on_c, 7, 65, 83
1, 49728, Note_on_c, 9, 46, 92
1, 49728, Note_on_c, 9, 70, 80
1, 49728, Note_on_c, 11, 41, 92
1, 49728, Note_on_c, 12, 53, 80
1, 49730, Control_c, 12, 10, 84
1, 49746, Note_on_c, 9, 70, 0
1, 49746, Note_on_c, 9, 46, 0
1, 49771, Note_on_c, 12, 53, 0
1, 49778, Control_c, 12, 10, 92
1, 49802, Control_c, 12, 6, 85
1, 49818, Note_on_c, 1, 41, 0
1, 49818, Note_on_c, 11, 41, 0
1, 49824, Note_on_c, 12, 53, 73
1, 49826, Control_c, 12, 10, 99
1, 49858, Note_on_c, 12, 53, 0
1, 49874, Control_c, 12, 10, 106
1, 49880, Note_on_c, 6, 53, 0
1, 49893, Note_on_c, 7, 65, 0
1, 49920, Note_on_c, 1, 29, 66
1, 49920, Note_on_c, 9, 27, 127
1, 49920, Note_on_c, 9, 45, 107
1, 49920, Note_on_c, 9, 36, 127
1, 49920, Note_on_c, 9, 42, 66
1, 49920, Note_on_c, 9, 70, 92
1, 49920, Note_on_c, 11, 29, 66
1, 49920, Note_on_c, 12, 53, 80
1, 49922, Control_c, 12, 10, 113
1, 49938, Note_on_c, 9, 70, 0
1, 49938, Note_on_c, 9, 36, 0
1, 49938, Note_on_c, 9, 45, 0
1, 49938, Note_on_c, 9, 27, 0
1, 49938, Note_on_c, 9, 42, 0
1, 49963, Note_on_c, 12, 53, 0
1, 49970, Control_c, 12, 10, 120
1, 50010, Note_on_c, 1, 29, 0
1, 50010, Note_on_c, 11, 29, 0
1, 50016, Note_on_c, 9, 42, 75
1, 50016, Note_on_c, 12, 53, 73
1, 50018, Control_c, 12, 6, 110
1, 50034, Note_on_c, 9, 42, 0
1, 50050, Note_on_c, 12, 53, 0
1, 50112, Note_on_c, 1, 41, 92
1, 50112, Note_on_c, 9, 46, 107
1, 50112, Note_on_c, 9, 70, 20
1, 50112, Note_on_c, 11, 41, 92
1, 50119, Note_on_c, 7, 54, 74
1, 50130, Note_on_c, 9, 70, 0
1, 50130, Note_on_c, 9, 46, 0
1, 50202, Note_on_c, 1, 41, 0
1, 50202, Note_on_c, 11, 41, 0
1, 50208, Note_on_c, 9, 70, 49
1, 50226, Note_on_c, 9, 70, 0
1, 50284, Note_on_c, 7, 54, 0
1, 50304, Note_on_c, 1, 29, 66
1, 50304, Note_on_c, 6, 53, 127
1, 50304, Note_on_c, 7, 65, 83
1, 50304, Note_on_c, 9, 27, 127
1, 50304, Note_on_c, 9, 45, 107
1, 50304, Note_on_c, 9, 36, 127
1, 50304, Note_on_c, 9, 42, 66
1, 50304, Note_on_c, 9, 70, 76
1, 50304, Note_on_c, 11, 29, 66
1, 50322, Note_on_c, 9, 70, 0
1, 50322, Note_on_c, 9, 42, 0
1, 50322, Note_on_c, 9, 27, 0
1, 50322, Note_on_c, 9, 45, 0
1, 50322, Note_on_c, 9, 36, 0
1, 50394, Note_on_c, 1, 29, 0
1, 50394, Note_on_c, 11, 29, 0
1, 50400, Note_on_c, 9, 42, 75
1, 50418, Note_on_c, 9, 42, 0
1, 50432, Note_on_c, 6, 53, 0
1, 50469, Note_on_c, 7, 65, 0
1, 50492, Note_on_c, 7, 54, 74
1, 50496, Note_on_c, 1, 41, 89
1, 50496, Note_on_c, 9, 46, 107
1, 50496, Note_on_c, 9, 70, 66
1, 50496, Note_on_c, 11, 41, 89
1, 50514, Note_on_c, 9, 70, 0
1, 50514, Note_on_c, 9, 46, 0
1, 50590, Note_on_c, 11, 41, 0
1, 50590, Note_on_c, 1, 41, 0
1, 50594, Control_c, 12, 6, 10
1, 50631, Note_on_c, 7, 54, 0
1, 50688, Note_on_c, 1, 29, 63
1, 50688, Note_on_c, 6, 53, 127
1, 50688, Note_on_c, 7, 65, 80
1, 50688, Note_on_c, 9, 27, 127
1, 50688, Note_on_c, 9, 45, 107
1, 50688, Note_on_c, 9, 36, 127
1, 50688, Note_on_c, 9, 42, 66
1, 50688, Note_on_c, 9, 70, 92
1, 50688, Note_on_c, 11, 29, 63
1, 50688, Note_on_c, 12, 53, 80
1, 50690, Control_c, 12, 10, 125
1, 50691, Pitch_bend_c, 5, 8192
1, 50706, Note_on_c, 9, 70, 0
1, 50706, Note_on_c, 9, 42, 0
1, 50706, Note_on_c, 9, 27, 0
1, 50706, Note_on_c, 9, 36, 0
1, 50706, Note_on_c, 9, 45, 0
1, 50731, Note_on_c, 12, 53, 0
1, 50738, Control_c, 12, 10, 119
1, 50775, Note_on_c, 11, 29, 0
1, 50775, Note_on_c, 1, 29, 0
1, 50784, Note_on_c, 9, 42, 75
1, 50784, Note_on_c, 12, 53, 73
1, 50786, Control_c, 12, 10, 113
1, 50786, Control_c, 12, 6, 25
1, 50802, Note_on_c, 9, 42, 0
1, 50818, Note_on_c, 12, 53, 0
1, 50834, Control_c, 12, 10, 107
1, 50853, Note_on_c, 7, 65, 0
1, 50863, Note_on_c, 6, 53, 0
1, 50880, Note_on_c, 1, 41, 89
1, 50880, Note_on_c, 9, 46, 107
1, 50880, Note_on_c, 11, 41, 89
1, 50880, Note_on_c, 12, 53, 80
1, 50882, Control_c, 12, 10, 101
1, 50898, Note_on_c, 9, 46, 0
1, 50923, Note_on_c, 12, 53, 0
1, 50930, Control_c, 12, 10, 95
1, 50954, Control_c, 12, 6, 40
1, 50970, Note_on_c, 11, 41, 0
1, 50970, Note_on_c, 1, 41, 0
1, 50976, Note_on_c, 9, 70, 44
1, 50976, Note_on_c, 12, 53, 73
1, 50978, Control_c, 12, 10, 89
1, 50994, Note_on_c, 9, 70, 0
1, 51010, Note_on_c, 12, 53, 0
1, 51026, Control_c, 12, 10, 83
1, 51072, Note_on_c, 1, 29, 63
1, 51072, Note_on_c, 9, 27, 127
1, 51072, Note_on_c, 9, 45, 107
1, 51072, Note_on_c, 9, 36, 127
1, 51072, Note_on_c, 9, 42, 66
1, 51072, Note_on_c, 9, 70, 92
1, 51072, Note_on_c, 11, 29, 63
1, 51072, Note_on_c, 12, 53, 80
1, 51074, Control_c, 12, 10, 77
1, 51090, Note_on_c, 9, 70, 0
1, 51090, Note_on_c, 9, 36, 0
1, 51090, Note_on_c, 9, 45, 0
1, 51090, Note_on_c, 9, 27, 0
1, 51090, Note_on_c, 9, 42, 0
1, 51115, Note_on_c, 12, 53, 0
1, 51122, Control_c, 12, 10, 71
1, 51158, Control_c, 12, 6, 60
1, 51162, Note_on_c, 1, 29, 0
1, 51162, Note_on_c, 11, 29, 0
1, 51168, Note_on_c, 9, 42, 75
1, 51168, Note_on_c, 12, 53, 73
1, 51170, Control_c, 12, 10, 65
1, 51186, Note_on_c, 9, 42, 0
1, 51202, Note_on_c, 12, 53, 0
1, 51218, Control_c, 12, 10, 59
1, 51264, Note_on_c, 1, 41, 89
1, 51264, Note_on_c, 6, 53, 127
1, 51264, Note_on_c, 7, 65, 83
1, 51264, Note_on_c, 9, 46, 107
1, 51264, Note_on_c, 9, 70, 80
1, 51264, Note_on_c, 11, 41, 89
1, 51264, Note_on_c, 12, 53, 80
1, 51266, Control_c, 12, 10, 53
1, 51282, Note_on_c, 9, 70, 0
1, 51282, Note_on_c, 9, 46, 0
1, 51307, Note_on_c, 12, 53, 0
1, 51314, Control_c, 12, 10, 47
1, 51338, Control_c, 12, 6, 85
1, 51354, Note_on_c, 1, 41, 0
1, 51354, Note_on_c, 11, 41, 0
1, 51360, Note_on_c, 12, 53, 73
1, 51362, Control_c, 12, 10, 41
1, 51394, Note_on_c, 12, 53, 0
1, 51410, Control_c, 12, 10, 35
1, 51416, Note_on_c, 6, 53, 0
1, 51429, Note_on_c, 7, 65, 0
1, 51456, Note_on_c, 1, 29, 63
1, 51456, Note_on_c, 9, 27, 127
1, 51456, Note_on_c, 9, 45, 107
1, 51456, Note_on_c, 9, 36, 127
1, 51456, Note_on_c, 9, 42, 66
1, 51456, Note_on_c, 9, 70, 86
1, 51456, Note_on_c, 11, 29, 63
1, 51456, Note_on_c, 12, 53, 80
1, 51458, Control_c, 12, 10, 29
1, 51474, Note_on_c, 9, 70, 0
1, 51474, Note_on_c, 9, 36, 0
1, 51474, Note_on_c, 9, 45, 0
1, 51474, Note_on_c, 9, 27, 0
1, 51474, Note_on_c, 9, 42, 0
1, 51499, Note_on_c, 12, 53, 0
1, 51506, Control_c, 12, 10, 23
1, 51546, Note_on_c, 1, 29, 0
1, 51546, Note_on_c, 11, 29, 0
1, 51552, Note_on_c, 9, 42, 75
1, 51552, Note_on_c, 12, 53, 73
1, 51554, Control_c, 12, 10, 17
1, 51554, Control_c, 12, 6, 110
1, 51570, Note_on_c, 9, 42, 0
1, 51586, Note_on_c, 12, 53, 0
1, 51602, Control_c, 12, 10, 11
1, 51648, Note_on_c, 1, 41, 86
1, 51648, Note_on_c, 9, 46, 107
1, 51648, Note_on_c, 9, 70, 13
1, 51648, Note_on_c, 11, 41, 86
1, 51650, Control_c, 12, 10, 5
1, 51655, Note_on_c, 7, 54, 71
1, 51666, Note_on_c, 9, 70, 0
1, 51666, Note_on_c, 9, 46, 0
1, 51738, Note_on_c, 1, 41, 0
1, 51738, Note_on_c, 11, 41, 0
1, 51744, Note_on_c, 9, 70, 26
1, 51762, Note_on_c, 9, 70, 0
1, 51820, Note_on_c, 7, 54, 0
1, 51840, Note_on_c, 1, 29, 63
1, 51840, Note_on_c, 6, 53, 127
1, 51840, Note_on_c, 7, 65, 83
1, 51840, Note_on_c, 9, 27, 127
1, 51840, Note_on_c, 9, 45, 107
1, 51840, Note_on_c, 9, 36, 127
1, 51840, Note_on_c, 9, 42, 66
1, 51840, Note_on_c, 9, 70, 92
1, 51840, Note_on_c, 11, 29, 63
1, 51858, Note_on_c, 9, 70, 0
1, 51858, Note_on_c, 9, 42, 0
1, 51858, Note_on_c, 9, 27, 0
1, 51858, Note_on_c, 9, 45, 0
1, 51858, Note_on_c, 9, 36, 0
1, 51930, Note_on_c, 1, 29, 0
1, 51930, Note_on_c, 11, 29, 0
1, 51936, Note_on_c, 9, 42, 75
1, 51954, Note_on_c, 9, 42, 0
1, 51968, Note_on_c, 6, 53, 0
1, 52005, Note_on_c, 7, 65, 0
1, 52028, Note_on_c, 7, 54, 71
1, 52032, Note_on_c, 1, 41, 86
1, 52032, Note_on_c, 9, 46, 107
1, 52032, Note_on_c, 9, 70, 63
1, 52032, Note_on_c, 11, 41, 86
1, 52050, Note_on_c, 9, 70, 0
1, 52050, Note_on_c, 9, 46, 0
1, 52126, Note_on_c, 11, 41, 0
1, 52126, Note_on_c, 1, 41, 0
1, 52130, Control_c, 12, 6, 10
1, 52167, Note_on_c, 7, 54, 0
1, 52224, Note_on_c, 1, 29, 60
1, 52224, Note_on_c, 6, 53, 127
1, 52224, Note_on_c, 7, 65, 80
1, 52224, Note_on_c, 9, 27, 127
1, 52224, Note_on_c, 9, 45, 107
1, 52224, Note_on_c, 9, 36, 127
1, 52224, Note_on_c, 9, 42, 66
1, 52224, Note_on_c, 9, 70, 92
1, 52224, Note_on_c, 11, 29, 60
1, 52224, Note_on_c, 12, 53, 80
1, 52226, Control_c, 1, 10, 10
1, 52226, Pitch_bend_c, 1, 8990
1, 52226, Pitch_bend_c, 5, 8192
1, 52226, Pitch_bend_c, 7, 8192
1, 52242, Note_on_c, 9, 70, 0
1, 52242, Note_on_c, 9, 42, 0
1, 52242, Note_on_c, 9, 27, 0
1, 52242, Note_on_c, 9, 36, 0
1, 52242, Note_on_c, 9, 45, 0
1, 52267, Note_on_c, 12, 53, 0
1, 52274, Control_c, 12, 10, 5
1, 52311, Note_on_c, 11, 29, 0
1, 52311, Note_on_c, 1, 29, 0
1, 52320, Note_on_c, 9, 42, 75
1, 52320, Note_on_c, 12, 53, 73
1, 52322, Control_c, 12, 10, 13
1, 52322, Control_c, 12, 6, 25
1, 52338, Note_on_c, 9, 42, 0
1, 52354, Note_on_c, 12, 53, 0
1, 52370, Control_c, 12, 10, 20
1, 52389, Note_on_c, 7, 65, 0
1, 52399, Note_on_c, 6, 53, 0
1, 52416, Note_on_c, 1, 41, 92
1, 52416, Note_on_c, 9, 46, 107
1, 52416, Note_on_c, 11, 41, 92
1, 52416, Note_on_c, 12, 53, 80
1, 52418, Control_c, 12, 10, 27
1, 52434, Note_on_c, 9, 46, 0
1, 52459, Note_on_c, 12, 53, 0
1, 52466, Control_c, 12, 10, 34
1, 52490, Control_c, 12, 6, 40
1, 52506, Note_on_c, 11, 41, 0
1, 52506, Note_on_c, 1, 41, 0
1, 52512, Note_on_c, 9, 70, 40
1, 52512, Note_on_c, 12, 53, 73
1, 52514, Control_c, 12, 10, 41
1, 52530, Note_on_c, 9, 70, 0
1, 52546, Note_on_c, 12, 53, 0
1, 52562, Control_c, 12, 10, 49
1, 52608, Note_on_c, 1, 29, 66
1, 52608, Note_on_c, 9, 27, 127
1, 52608, Note_on_c, 9, 45, 107
1, 52608, Note_on_c, 9, 36, 127
1, 52608, Note_on_c, 9, 42, 66
1, 52608, Note_on_c, 9, 70, 86
1, 52608, Note_on_c, 11, 29, 66
1, 52608, Note_on_c, 12, 53, 80
1, 52610, Control_c, 12, 10, 56
1, 52626, Note_on_c, 9, 70, 0
1, 52626, Note_on_c, 9, 36, 0
1, 52626, Note_on_c, 9, 45, 0
1, 52626, Note_on_c, 9, 27, 0
1, 52626, Note_on_c, 9, 42, 0
1, 52651, Note_on_c, 12, 53, 0
1, 52658, Control_c, 12, 10, 63
1, 52694, Control_c, 12, 6, 60
1, 52698, Note_on_c, 1, 29, 0
1, 52698, Note_on_c, 11, 29, 0
1, 52704, Note_on_c, 9, 42, 75
1, 52704, Note_on_c, 12, 53, 73
1, 52706, Control_c, 12, 10, 70
1, 52722, Note_on_c, 9, 42, 0
1, 52738, Note_on_c, 12, 53, 0
1, 52754, Control_c, 12, 10, 77
1, 52800, Note_on_c, 1, 41, 92
1, 52800, Note_on_c, 6, 53, 127
1, 52800, Note_on_c, 7, 65, 83
1, 52800, Note_on_c, 9, 46, 92
1, 52800, Note_on_c, 9, 70, 80
1, 52800, Note_on_c, 11, 41, 92
1, 52800, Note_on_c, 12, 53, 80
1, 52802, Control_c, 12, 10, 84
1, 52818, Note_on_c, 9, 70, 0
1, 52818, Note_on_c, 9, 46, 0
1, 52843, Note_on_c, 12, 53, 0
1, 52850, Control_c, 12, 10, 92
1, 52874, Control_c, 12, 6, 85
1, 52890, Note_on_c, 1, 41, 0
1, 52890, Note_on_c, 11, 41, 0
1, 52896, Note_on_c, 12, 53, 73
1, 52898, Control_c, 12, 10, 99
1, 52930, Note_on_c, 12, 53, 0
1, 52946, Control_c, 12, 10, 106
1, 52952, Note_on_c, 6, 53, 0
1, 52965, Note_on_c, 7, 65, 0
1, 52992, Note_on_c, 1, 29, 66
1, 52992, Note_on_c, 9, 27, 127
1, 52992, Note_on_c, 9, 45, 107
1, 52992, Note_on_c, 9, 36, 127
1, 52992, Note_on_c, 9, 42, 66
1, 52992, Note_on_c, 9, 70, 92
1, 52992, Note_on_c, 11, 29, 66
1, 52992, Note_on_c, 12, 53, 80
1, 52994, Control_c, 12, 10, 113
1, 53010, Note_on_c, 9, 70, 0
1, 53010, Note_on_c, 9, 36, 0
1, 53010, Note_on_c, 9, 45, 0
1, 53010, Note_on_c, 9, 27, 0
1, 53010, Note_on_c, 9, 42, 0
1, 53035, Note_on_c, 12, 53, 0
1, 53042, Control_c, 12, 10, 120
1, 53082, Note_on_c, 1, 29, 0
1, 53082, Note_on_c, 11, 29, 0
1, 53088, Note_on_c, 9, 42, 75
1, 53088, Note_on_c, 12, 53, 73
1, 53090, Control_c, 12, 6, 110
1, 53106, Note_on_c, 9, 42, 0
1, 53122, Note_on_c, 12, 53, 0
1, 53184, Note_on_c, 1, 41, 92
1, 53184, Note_on_c, 9, 46, 107
1, 53184, Note_on_c, 9, 70, 20
1, 53184, Note_on_c, 11, 41, 92
1, 53191, Note_on_c, 7, 54, 74
1, 53202, Note_on_c, 9, 70, 0
1, 53202, Note_on_c, 9, 46, 0
1, 53274, Note_on_c, 1, 41, 0
1, 53274, Note_on_c, 11, 41, 0
1, 53280, Note_on_c, 9, 70, 49
1, 53298, Note_on_c, 9, 70, 0
1, 53356, Note_on_c, 7, 54, 0
1, 53376, Note_on_c, 1, 29, 66
1, 53376, Note_on_c, 6, 53, 127
1, 53376, Note_on_c, 7, 65, 83
1, 53376, Note_on_c, 9, 27, 127
1, 53376, Note_on_c, 9, 45, 107
1, 53376, Note_on_c, 9, 36, 127
1, 53376, Note_on_c, 9, 42, 66
1, 53376, Note_on_c, 9, 70, 76
1, 53376, Note_on_c, 11, 29, 66
1, 53394, Note_on_c, 9, 70, 0
1, 53394, Note_on_c, 9, 42, 0
1, 53394, Note_on_c, 9, 27, 0
1, 53394, Note_on_c, 9, 45, 0
1, 53394, Note_on_c, 9, 36, 0
1, 53466, Note_on_c, 1, 29, 0
1, 53466, Note_on_c, 11, 29, 0
1, 53472, Note_on_c, 9, 42, 75
1, 53490, Note_on_c, 9, 42, 0
1, 53504, Note_on_c, 6, 53, 0
1, 53541, Note_on_c, 7, 65, 0
1, 53564, Note_on_c, 7, 54, 74
1, 53568, Note_on_c, 1, 41, 89
1, 53568, Note_on_c, 9, 46, 107
1, 53568, Note_on_c, 9, 70, 66
1, 53568, Note_on_c, 11, 41, 89
1, 53586, Note_on_c, 9, 70, 0
1, 53586, Note_on_c, 9, 46, 0
1, 53662, Note_on_c, 11, 41, 0
1, 53662, Note_on_c, 1, 41, 0
1, 53666, Control_c, 12, 6, 10
1, 53703, Note_on_c, 7, 54, 0
1, 53760, Note_on_c, 1, 29, 63
1, 53760, Note_on_c, 6, 53, 127
1, 53760, Note_on_c, 7, 65, 80
1, 53760, Note_on_c, 9, 27, 127
1, 53760, Note_on_c, 9, 45, 107
1, 53760, Note_on_c, 9, 36, 127
1, 53760, Note_on_c, 9, 42, 66
1, 53760, Note_on_c, 9, 70, 92
1, 53760, Note_on_c, 11, 29, 63
1, 53760, Note_on_c, 12, 53, 80
1, 53762, Control_c, 12, 10, 125
1, 53778, Note_on_c, 9, 70, 0
1, 53778, Note_on_c, 9, 42, 0
1, 53778, Note_on_c, 9, 27, 0
1, 53778, Note_on_c, 9, 36, 0
1, 53778, Note_on_c, 9, 45, 0
1, 53803, Note_on_c, 12, 53, 0
1, 53810, Control_c, 12, 10, 119
1, 53847, Note_on_c, 11, 29, 0
1, 53847, Note_on_c, 1, 29, 0
1, 53856, Note_on_c, 9, 42, 75
1, 53856, Note_on_c, 12, 53, 73
1, 53858, Control_c, 12, 10, 113
1, 53858, Control_c, 12, 6, 25
1, 53874, Note_on_c, 9, 42, 0
1, 53890, Note_on_c, 12, 53, 0
1, 53906, Control_c, 12, 10, 107
1, 53925, Note_on_c, 7, 65, 0
1, 53935, Note_on_c, 6, 53, 0
1, 53952, Note_on_c, 1, 41, 89
1, 53952, Note_on_c, 9, 46, 107
1, 53952, Note_on_c, 11, 41, 89
1, 53952, Note_on_c, 12, 53, 80
1, 53954, Control_c, 12, 10, 101
1, 53970, Note_on_c, 9, 46, 0
1, 53995, Note_on_c, 12, 53, 0
1, 54002, Control_c, 12, 10, 95
1, 54026, Control_c, 12, 6, 40
1, 54042, Note_on_c, 11, 41, 0
1, 54042, Note_on_c, 1, 41, 0
1, 54048, Note_on_c, 9, 70, 44
1, 54048, Note_on_c, 12, 53, 73
1, 54050, Control_c, 12, 10, 89
1, 54066, Note_on_c, 9, 70, 0
1, 54082, Note_on_c, 12, 53, 0
1, 54098, Control_c, 12, 10, 83
1, 54144, Note_on_c, 1, 29, 63
1, 54144, Note_on_c, 9, 27, 127
1, 54144, Note_on_c, 9, 45, 107
1, 54144, Note_on_c, 9, 36, 127
1, 54144, Note_on_c, 9, 42, 66
1, 54144, Note_on_c, 9, 70, 92
1, 54144, Note_on_c, 11, 29, 63
1, 54144, Note_on_c, 12, 53, 80
1, 54146, Control_c, 12, 10, 77
1, 54162, Note_on_c, 9, 70, 0
1, 54162, Note_on_c, 9, 36, 0
1, 54162, Note_on_c, 9, 45, 0
1, 54162, Note_on_c, 9, 27, 0
1, 54162, Note_on_c, 9, 42, 0
1, 54187, Note_on_c, 12, 53, 0
1, 54194, Control_c, 12, 10, 71
1, 54230, Control_c, 12, 6, 60
1, 54234, Note_on_c, 1, 29, 0
1, 54234, Note_on_c, 11, 29, 0
1, 54240, Note_on_c, 9, 42, 75
1, 54240, Note_on_c, 12, 53, 73
1, 54242, Control_c, 12, 10, 65
1, 54258, Note_on_c, 9, 42, 0
1, 54274, Note_on_c, 12, 53, 0
1, 54290, Control_c, 12, 10, 59
1, 54336, Note_on_c, 1, 41, 89
1, 54336, Note_on_c, 6, 53, 127
1, 54336, Note_on_c, 7, 65, 83
1, 54336, Note_on_c, 9, 46, 107
1, 54336, Note_on_c, 9, 70, 80
1, 54336, Note_on_c, 11, 41, 89
1, 54336, Note_on_c, 12, 53, 80
1, 54338, Control_c, 12, 10, 53
1, 54354, Note_on_c, 9, 70, 0
1, 54354, Note_on_c, 9, 46, 0
1, 54379, Note_on_c, 12, 53, 0
1, 54386, Control_c, 12, 10, 47
1, 54410, Control_c, 12, 6, 85
1, 54426, Note_on_c, 1, 41, 0
1, 54426, Note_on_c, 11, 41, 0
1, 54432, Note_on_c, 12, 53, 73
1, 54434, Control_c, 12, 10, 41
1, 54466, Note_on_c, 12, 53, 0
1, 54482, Control_c, 12, 10, 35
1, 54488, Note_on_c, 6, 53, 0
1, 54501, Note_on_c, 7, 65, 0
1, 54528, Note_on_c, 1, 29, 63
1, 54528, Note_on_c, 9, 27, 127
1, 54528, Note_on_c, 9, 45, 107
1, 54528, Note_on_c, 9, 36, 127
1, 54528, Note_on_c, 9, 42, 66
1, 54528, Note_on_c, 9, 70, 86
1, 54528, Note_on_c, 11, 29, 63
1, 54528, Note_on_c, 12, 53, 80
1, 54530, Control_c, 12, 10, 29
1, 54546, Note_on_c, 9, 70, 0
1, 54546, Note_on_c, 9, 36, 0
1, 54546, Note_on_c, 9, 45, 0
1, 54546, Note_on_c, 9, 27, 0
1, 54546, Note_on_c, 9, 42, 0
1, 54571, Note_on_c, 12, 53, 0
1, 54578, Control_c, 12, 10, 23
1, 54618, Note_on_c, 1, 29, 0
1, 54618, Note_on_c, 11, 29, 0
1, 54624, Note_on_c, 9, 42, 75
1, 54624, Note_on_c, 12, 53, 73
1, 54626, Control_c, 12, 10, 17
1, 54626, Control_c, 12, 6, 110
1, 54642, Note_on_c, 9, 42, 0
1, 54658, Note_on_c, 12, 53, 0
1, 54674, Control_c, 12, 10, 11
1, 54720, Note_on_c, 1, 41, 86
1, 54720, Note_on_c, 9, 46, 107
1, 54720, Note_on_c, 9, 70, 13
1, 54720, Note_on_c, 11, 41, 86
1, 54722, Control_c, 12, 10, 5
1, 54727, Note_on_c, 7, 54, 71
1, 54738, Note_on_c, 9, 70, 0
1, 54738, Note_on_c, 9, 46, 0
1, 54810, Note_on_c, 1, 41, 0
1, 54810, Note_on_c, 11, 41, 0
1, 54816, Note_on_c, 9, 70, 26
1, 54834, Note_on_c, 9, 70, 0
1, 54892, Note_on_c, 7, 54, 0
1, 54912, Note_on_c, 1, 29, 63
1, 54912, Note_on_c, 6, 53, 127
1, 54912, Note_on_c, 7, 65, 83
1, 54912, Note_on_c, 9, 27, 127
1, 54912, Note_on_c, 9, 45, 107
1, 54912, Note_on_c, 9, 36, 127
1, 54912, Note_on_c, 9, 42, 66
1, 54912, Note_on_c, 9, 70, 92
1, 54912, Note_on_c, 11, 29, 63
1, 54930, Note_on_c, 9, 70, 0
1, 54930, Note_on_c, 9, 42, 0
1, 54930, Note_on_c, 9, 27, 0
1, 54930, Note_on_c, 9, 45, 0
1, 54930, Note_on_c, 9, 36, 0
1, 55002, Note_on_c, 1, 29, 0
1, 55002, Note_on_c, 11, 29, 0
1, 55008, Note_on_c, 9, 42, 75
1, 55026, Note_on_c, 9, 42, 0
1, 55040, Note_on_c, 6, 53, 0
1, 55077, Note_on_c, 7, 65, 0
1, 55100, Note_on_c, 7, 54, 71
1, 55104, Note_on_c, 1, 41, 86
1, 55104, Note_on_c, 9, 46, 107
1, 55104, Note_on_c, 9, 70, 63
1, 55104, Note_on_c, 11, 41, 86
1, 55122, Note_on_c, 9, 70, 0
1, 55122, Note_on_c, 9, 46, 0
1, 55198, Note_on_c, 11, 41, 0
1, 55198, Note_on_c, 1, 41, 0
1, 55202, Control_c, 12, 6, 10
1, 55239, Note_on_c, 7, 54, 0
1, 55296, Note_on_c, 1, 29, 60
1, 55296, Note_on_c, 6, 53, 127
1, 55296, Note_on_c, 7, 65, 80
1, 55296, Note_on_c, 9, 27, 127
1, 55296, Note_on_c, 9, 45, 107
1, 55296, Note_on_c, 9, 36, 127
1, 55296, Note_on_c, 9, 42, 66
1, 55296, Note_on_c, 9, 70, 92
1, 55296, Note_on_c, 11, 29, 60
1, 55296, Note_on_c, 12, 53, 80
1, 55298, Control_c, 1, 10, 10
1, 55298, Pitch_bend_c, 1, 8990
1, 55298, Pitch_bend_c, 7, 8192
1, 55314, Note_on_c, 9, 70, 0
1, 55314, Note_on_c, 9, 42, 0
1, 55314, Note_on_c, 9, 27, 0
1, 55314, Note_on_c, 9, 36, 0
1, 55314, Note_on_c, 9, 45, 0
1, 55339, Note_on_c, 12, 53, 0
1, 55346, Control_c, 12, 10, 5
1, 55383, Note_on_c, 11, 29, 0
1, 55383, Note_on_c, 1, 29, 0
1, 55392, Note_on_c, 9, 42, 75
1, 55392, Note_on_c, 12, 53, 73
1, 55394, Control_c, 12, 10, 13
1, 55394, Control_c, 12, 6, 25
1, 55410, Note_on_c, 9, 42, 0
1, 55426, Note_on_c, 12, 53, 0
1, 55442, Control_c, 12, 10, 20
1, 55461, Note_on_c, 7, 65, 0
1, 55471, Note_on_c, 6, 53, 0
1, 55488, Note_on_c, 1, 41, 92
1, 55488, Note_on_c, 9, 46, 107
1, 55488, Note_on_c, 11, 41, 92
1, 55488, Note_on_c, 12, 53, 80
1, 55490, Control_c, 12, 10, 27
1, 55506, Note_on_c, 9, 46, 0
1, 55531, Note_on_c, 12, 53, 0
1, 55538, Control_c, 12, 10, 34
1, 55562, Control_c, 12, 6, 40
1, 55578, Note_on_c, 11, 41, 0
1, 55578, Note_on_c, 1, 41, 0
1, 55584, Note_on_c, 9, 70, 40
1, 55584, Note_on_c, 12, 53, 73
1, 55586, Control_c, 12, 10, 41
1, 55602, Note_on_c, 9, 70, 0
1, 55618, Note_on_c, 12, 53, 0
1, 55634, Control_c, 12, 10, 49
1, 55680, Note_on_c, 1, 29, 66
1, 55680, Note_on_c, 9, 27, 127
1, 55680, Note_on_c, 9, 45, 107
1, 55680, Note_on_c, 9, 36, 127
1, 55680, Note_on_c, 9, 42, 66
1, 55680, Note_on_c, 9, 70, 86
1, 55680, Note_on_c, 11, 29, 66
1, 55680, Note_on_c, 12, 53, 80
1, 55682, Control_c, 12, 10, 56
1, 55698, Note_on_c, 9, 70, 0
1, 55698, Note_on_c, 9, 36, 0
1, 55698, Note_on_c, 9, 45, 0
1, 55698, Note_on_c, 9, 27, 0
1, 55698, Note_on_c, 9, 42, 0
1, 55723, Note_on_c, 12, 53, 0
1, 55730, Control_c, 12, 10, 63
1, 55766, Control_c, 12, 6, 60
1, 55770, Note_on_c, 1, 29, 0
1, 55770, Note_on_c, 11, 29, 0
1, 55776, Note_on_c, 9, 42, 75
1, 55776, Note_on_c, 12, 53, 73
1, 55778, Control_c, 12, 10, 70
1, 55794, Note_on_c, 9, 42, 0
1, 55810, Note_on_c, 12, 53, 0
1, 55826, Control_c, 12, 10, 77
1, 55872, Note_on_c, 1, 41, 92
1, 55872, Note_on_c, 6, 53, 127
1, 55872, Note_on_c, 7, 65, 83
1, 55872, Note_on_c, 9, 46, 92
1, 55872, Note_on_c, 9, 70, 80
1, 55872, Note_on_c, 11, 41, 92
1, 55872, Note_on_c, 12, 53, 80
1, 55874, Control_c, 12, 10, 84
1, 55890, Note_on_c, 9, 70, 0
1, 55890, Note_on_c, 9, 46, 0
1, 55915, Note_on_c, 12, 53, 0
1, 55922, Control_c, 12, 10, 92
1, 55946, Control_c, 12, 6, 85
1, 55962, Note_on_c, 1, 41, 0
1, 55962, Note_on_c, 11, 41, 0
1, 55968, Note_on_c, 12, 53, 73
1, 55970, Control_c, 12, 10, 99
1, 56002, Note_on_c, 12, 53, 0
1, 56018, Control_c, 12, 10, 106
1, 56024, Note_on_c, 6, 53, 0
1, 56037, Note_on_c, 7, 65, 0
1, 56064, Note_on_c, 1, 29, 66
1, 56064, Note_on_c, 9, 27, 127
1, 56064, Note_on_c, 9, 45, 107
1, 56064, Note_on_c, 9, 36, 127
1, 56064, Note_on_c, 9, 42, 66
1, 56064, Note_on_c, 9, 70, 92
1, 56064, Note_on_c, 11, 29, 66
1, 56064, Note_on_c, 12, 53, 80
1, 56066, Control_c, 12, 10, 113
1, 56082, Note_on_c, 9, 70, 0
1, 56082, Note_on_c, 9, 36, 0
1, 56082, Note_on_c, 9, 45, 0
1, 56082, Note_on_c, 9, 27, 0
1, 56082, Note_on_c, 9, 42, 0
1, 56107, Note_on_c, 12, 53, 0
1, 56114, Control_c, 12, 10, 120
1, 56154, Note_on_c, 1, 29, 0
1, 56154, Note_on_c, 11, 29, 0
1, 56160, Note_on_c, 9, 42, 75
1, 56160, Note_on_c, 12, 53, 73
1, 56162, Control_c, 12, 6, 110
1, 56178, Note_on_c, 9, 42, 0
1, 56194, Note_on_c, 12, 53, 0
1, 56256, Note_on_c, 1, 41, 92
1, 56256, Note_on_c, 9, 46, 107
1, 56256, Note_on_c, 9, 70, 20
1, 56256, Note_on_c, 11, 41, 92
1, 56263, Note_on_c, 7, 54, 74
1, 56274, Note_on_c, 9, 70, 0
1, 56274, Note_on_c, 9, 46, 0
1, 56346, Note_on_c, 1, 41, 0
1, 56346, Note_on_c, 11, 41, 0
1, 56352, Note_on_c, 9, 70, 49
1, 56370, Note_on_c, 9, 70, 0
1, 56428, Note_on_c, 7, 54, 0
1, 56448, Note_on_c, 1, 29, 66
1, 56448, Note_on_c, 6, 53, 127
1, 56448, Note_on_c, 7, 65, 83
1, 56448, Note_on_c, 9, 27, 127
1, 56448, Note_on_c, 9, 45, 107
1, 56448, Note_on_c, 9, 36, 127
1, 56448, Note_on_c, 9, 42, 66
1, 56448, Note_on_c, 9, 70, 76
1, 56448, Note_on_c, 11, 29, 66
1, 56466, Note_on_c, 9, 70, 0
1, 56466, Note_on_c, 9, 42, 0
1, 56466, Note_on_c, 9, 27, 0
1, 56466, Note_on_c, 9, 45, 0
1, 56466, Note_on_c, 9, 36, 0
1, 56538, Note_on_c, 1, 29, 0
1, 56538, Note_on_c, 11, 29, 0
1, 56544, Note_on_c, 9, 42, 75
1, 56562, Note_on_c, 9, 42, 0
1, 56576, Note_on_c, 6, 53, 0
1, 56613, Note_on_c, 7, 65, 0
1, 56636, Note_on_c, 7, 54, 74
1, 56640, Note_on_c, 1, 41, 89
1, 56640, Note_on_c, 9, 46, 107
1, 56640, Note_on_c, 9, 70, 66
1, 56640, Note_on_c, 11, 41, 89
1, 56658, Note_on_c, 9, 70, 0
1, 56658, Note_on_c, 9, 46, 0
1, 56734, Note_on_c, 11, 41, 0
1, 56734, Note_on_c, 1, 41, 0
1, 56738, Control_c, 12, 6, 10
1, 56775, Note_on_c, 7, 54, 0
1, 56832, Note_on_c, 1, 29, 63
1, 56832, Note_on_c, 6, 53, 127
1, 56832, Note_on_c, 7, 65, 80
1, 56832, Note_on_c, 9, 27, 127
1, 56832, Note_on_c, 9, 45, 107
1, 56832, Note_on_c, 9, 36, 127
1, 56832, Note_on_c, 9, 42, 66
1, 56832, Note_on_c, 9, 70, 92
1, 56832, Note_on_c, 11, 29, 63
1, 56832, Note_on_c, 12, 53, 80
1, 56834, Control_c, 12, 10, 125
1, 56850, Note_on_c, 9, 70, 0
1, 56850, Note_on_c, 9, 42, 0
1, 56850, Note_on_c, 9, 27, 0
1, 56850, Note_on_c, 9, 36, 0
1, 56850, Note_on_c, 9, 45, 0
1, 56875, Note_on_c, 12, 53, 0
1, 56882, Control_c, 12, 10, 119
1, 56919, Note_on_c, 11, 29, 0
1, 56919, Note_on_c, 1, 29, 0
1, 56928, Note_on_c, 9, 42, 75
1, 56928, Note_on_c, 12, 53, 73
1, 56930, Control_c, 12, 10, 113
1, 56930, Control_c, 12, 6, 25
1, 56946, Note_on_c, 9, 42, 0
1, 56962, Note_on_c, 12, 53, 0
1, 56978, Control_c, 12, 10, 107
1, 56997, Note_on_c, 7, 65, 0
1, 57007, Note_on_c, 6, 53, 0
1, 57024, Note_on_c, 1, 41, 89
1, 57024, Note_on_c, 9, 46, 107
1, 57024, Note_on_c, 11, 41, 89
1, 57024, Note_on_c, 12, 53, 80
1, 57026, Control_c, 12, 10, 101
1, 57042, Note_on_c, 9, 46, 0
1, 57067, Note_on_c, 12, 53, 0
1, 57074, Control_c, 12, 10, 95
1, 57098, Control_c, 12, 6, 40
1, 57114, Note_on_c, 11, 41, 0
1, 57114, Note_on_c, 1, 41, 0
1, 57120, Note_on_c, 9, 70, 44
1, 57120, Note_on_c, 12, 53, 73
1, 57122, Control_c, 12, 10, 89
1, 57138, Note_on_c, 9, 70, 0
1, 57154, Note_on_c, 12, 53, 0
1, 57170, Control_c, 12, 10, 83
1, 57216, Note_on_c, 1, 29, 63
1, 57216, Note_on_c, 9, 27, 127
1, 57216, Note_on_c, 9, 45, 107
1, 57216, Note_on_c, 9, 36, 127
1, 57216, Note_on_c, 9, 42, 66
1, 57216, Note_on_c, 9, 70, 92
1, 57216, Note_on_c, 11, 29, 63
1, 57216, Note_on_c, 12, 53, 80
1, 57218, Control_c, 12, 10, 77
1, 57234, Note_on_c, 9, 70, 0
1, 57234, Note_on_c, 9, 36, 0
1, 57234, Note_on_c, 9, 45, 0
1, 57234, Note_on_c, 9, 27, 0
1, 57234, Note_on_c, 9, 42, 0
1, 57259, Note_on_c, 12, 53, 0
1, 57266, Control_c, 12, 10, 71
1, 57302, Control_c, 12, 6, 60
1, 57306, Note_on_c, 1, 29, 0
1, 57306, Note_on_c, 11, 29, 0
1, 57312, Note_on_c, 9, 42, 75
1, 57312, Note_on_c, 12, 53, 73
1, 57314, Control_c, 12, 10, 65
1, 57330, Note_on_c, 9, 42, 0
1, 57346, Note_on_c, 12, 53, 0
1, 57362, Control_c, 12, 10, 59
1, 57408, Note_on_c, 1, 41, 89
1, 57408, Note_on_c, 6, 53, 127
1, 57408, Note_on_c, 7, 65, 83
1, 57408, Note_on_c, 9, 46, 107
1, 57408, Note_on_c, 9, 70, 80
1, 57408, Note_on_c, 11, 41, 89
1, 57408, Note_on_c, 12, 53, 80
1, 57410, Control_c, 12, 10, 53
1, 57426, Note_on_c, 9, 70, 0
1, 57426, Note_on_c, 9, 46, 0
1, 57451, Note_on_c, 12, 53, 0
1, 57458, Control_c, 12, 10, 47
1, 57482, Control_c, 12, 6, 85
1, 57498, Note_on_c, 1, 41, 0
1, 57498, Note_on_c, 11, 41, 0
1, 57504, Note_on_c, 12, 53, 73
1, 57506, Control_c, 12, 10, 41
1, 57538, Note_on_c, 12, 53, 0
1, 57554, Control_c, 12, 10, 35
1, 57560, Note_on_c, 6, 53, 0
1, 57573, Note_on_c, 7, 65, 0
1, 57600, Note_on_c, 1, 29, 63
1, 57600, Note_on_c, 9, 27, 127
1, 57600, Note_on_c, 9, 45, 107
1, 57600, Note_on_c, 9, 36, 127
1, 57600, Note_on_c, 9, 42, 66
1, 57600, Note_on_c, 9, 70, 86
1, 57600, Note_on_c, 11, 29, 63
1, 57600, Note_on_c, 12, 53, 80
1, 57602, Control_c, 12, 10, 29
1, 57618, Note_on_c, 9, 70, 0
1, 57618, Note_on_c, 9, 36, 0
1, 57618, Note_on_c, 9, 45, 0
1, 57618, Note_on_c, 9, 27, 0
1, 57618, Note_on_c, 9, 42, 0
1, 57643, Note_on_c, 12, 53, 0
1, 57650, Control_c, 12, 10, 23
1, 57690, Note_on_c, 1, 29, 0
1, 57690, Note_on_c, 11, 29, 0
1, 57696, Note_on_c, 9, 42, 75
1, 57696, Note_on_c, 12, 53, 73
1, 57698, Control_c, 12, 10, 17
1, 57698, Control_c, 12, 6, 110
1, 57714, Note_on_c, 9, 42, 0
1, 57730, Note_on_c, 12, 53, 0
1, 57746, Control_c, 12, 10, 11
1, 57792, Note_on_c, 1, 41, 86
1, 57792, Note_on_c, 9, 46, 107
1, 57792, Note_on_c, 9, 70, 13
1, 57792, Note_on_c, 11, 41, 86
1, 57794, Control_c, 12, 10, 5
1, 57799, Note_on_c, 7, 54, 71
1, 57810, Note_on_c, 9, 70, 0
1, 57810, Note_on_c, 9, 46, 0
1, 57882, Note_on_c, 1, 41, 0
1, 57882, Note_on_c, 11, 41, 0
1, 57888, Note_on_c, 9, 70, 26
1, 57906, Note_on_c, 9, 70, 0
1, 57964, Note_on_c, 7, 54, 0
1, 57984, Note_on_c, 1, 29, 63
1, 57984, Note_on_c, 6, 53, 127
1, 57984, Note_on_c, 7, 65, 83
1, 57984, Note_on_c, 9, 27, 127
1, 57984, Note_on_c, 9, 45, 107
1, 57984, Note_on_c, 9, 36, 127
1, 57984, Note_on_c, 9, 42, 66
1, 57984, Note_on_c, 9, 70, 92
1, 57984, Note_on_c, 11, 29, 63
1, 58002, Note_on_c, 9, 70, 0
1, 58002, Note_on_c, 9, 42, 0
1, 58002, Note_on_c, 9, 27, 0
1, 58002, Note_on_c, 9, 45, 0
1, 58002, Note_on_c, 9, 36, 0
1, 58074, Note_on_c, 1, 29, 0
1, 58074, Note_on_c, 11, 29, 0
1, 58080, Note_on_c, 9, 42, 75
1, 58098, Note_on_c, 9, 42, 0
1, 58112, Note_on_c, 6, 53, 0
1, 58149, Note_on_c, 7, 65, 0
1, 58172, Note_on_c, 7, 54, 71
1, 58176, Note_on_c, 1, 41, 86
1, 58176, Note_on_c, 9, 46, 107
1, 58176, Note_on_c, 9, 70, 63
1, 58176, Note_on_c, 11, 41, 86
1, 58194, Note_on_c, 9, 70, 0
1, 58194, Note_on_c, 9, 46, 0
1, 58270, Note_on_c, 11, 41, 0
1, 58270, Note_on_c, 1, 41, 0
1, 58274, Control_c, 12, 6, 10
1, 58311, Note_on_c, 7, 54, 0
1, 58368, Note_on_c, 1, 29, 60
1, 58368, Note_on_c, 6, 53, 127
1, 58368, Note_on_c, 7, 65, 80
1, 58368, Note_on_c, 9, 27, 127
1, 58368, Note_on_c, 9, 45, 107
1, 58368, Note_on_c, 9, 36, 127
1, 58368, Note_on_c, 9, 42, 66
1, 58368, Note_on_c, 9, 70, 92
1, 58368, Note_on_c, 11, 29, 60
1, 58368, Note_on_c, 12, 53, 80
1, 58370, Control_c, 1, 10, 10
1, 58370, Pitch_bend_c, 1, 8990
1, 58370, Pitch_bend_c, 7, 8192
1, 58386, Note_on_c, 9, 70, 0
1, 58386, Note_on_c, 9, 42, 0
1, 58386, Note_on_c, 9, 27, 0
1, 58386, Note_on_c, 9, 36, 0
1, 58386, Note_on_c, 9, 45, 0
1, 58411, Note_on_c, 12, 53, 0
1, 58418, Control_c, 12, 10, 5
1, 58455, Note_on_c, 11, 29, 0
1, 58455, Note_on_c, 1, 29, 0
1, 58464, Note_on_c, 9, 42, 75
1, 58464, Note_on_c, 12, 53, 73
1, 58466, Control_c, 12, 10, 13
1, 58466, Control_c, 12, 6, 25
1, 58482, Note_on_c, 9, 42, 0
1, 58498, Note_on_c, 12, 53, 0
1, 58514, Control_c, 12, 10, 20
1, 58533, Note_on_c, 7, 65, 0
1, 58543, Note_on_c, 6, 53, 0
1, 58560, Note_on_c, 1, 41, 92
1, 58560, Note_on_c, 9, 46, 107
1, 58560, Note_on_c, 11, 41, 92
1, 58560, Note_on_c, 12, 53, 80
1, 58562, Control_c, 12, 10, 27
1, 58578, Note_on_c, 9, 46, 0
1, 58603, Note_on_c, 12, 53, 0
1, 58610, Control_c, 12, 10, 34
1, 58634, Control_c, 12, 6, 40
1, 58650, Note_on_c, 11, 41, 0
1, 58650, Note_on_c, 1, 41, 0
1, 58656, Note_on_c, 9, 70, 40
1, 58656, Note_on_c, 12, 53, 73
1, 58658, Control_c, 12, 10, 41
1, 58674, Note_on_c, 9, 70, 0
1, 58690, Note_on_c, 12, 53, 0
1, 58706, Control_c, 12, 10, 49
1, 58752, Note_on_c, 1, 29, 66
1, 58752, Note_on_c, 9, 27, 127
1, 58752, Note_on_c, 9, 45, 107
1, 58752, Note_on_c, 9, 36, 127
1, 58752, Note_on_c, 9, 42, 66
1, 58752, Note_on_c, 9, 70, 86
1, 58752, Note_on_c, 11, 29, 66
1, 58752, Note_on_c, 12, 53, 80
1, 58754, Control_c, 12, 10, 56
1, 58770, Note_on_c, 9, 70, 0
1, 58770, Note_on_c, 9, 36, 0
1, 58770, Note_on_c, 9, 45, 0
1, 58770, Note_on_c, 9, 27, 0
1, 58770, Note_on_c, 9, 42, 0
1, 58795, Note_on_c, 12, 53, 0
1, 58802, Control_c, 12, 10, 63
1, 58838, Control_c, 12, 6, 60
1, 58842, Note_on_c, 1, 29, 0
1, 58842, Note_on_c, 11, 29, 0
1, 58848, Note_on_c, 9, 42, 75
1, 58848, Note_on_c, 12, 53, 73
1, 58850, Control_c, 12, 10, 70
1, 58866, Note_on_c, 9, 42, 0
1, 58882, Note_on_c, 12, 53, 0
1, 58898, Control_c, 12, 10, 77
1, 58944, Note_on_c, 1, 41, 92
1, 58944, Note_on_c, 6, 53, 127
1, 58944, Note_on_c, 7, 65, 83
1, 58944, Note_on_c, 9, 46, 92
1, 58944, Note_on_c, 9, 70, 80
1, 58944, Note_on_c, 11, 41, 92
1, 58944, Note_on_c, 12, 53, 80
1, 58946, Control_c, 12, 10, 84
1, 58962, Note_on_c, 9, 70, 0
1, 58962, Note_on_c, 9, 46, 0
1, 58987, Note_on_c, 12, 53, 0
1, 58994, Control_c, 12, 10, 92
1, 59018, Control_c, 12, 6, 85
1, 59034, Note_on_c, 1, 41, 0
1, 59034, Note_on_c, 11, 41, 0
1, 59040, Note_on_c, 12, 53, 73
1, 59042, Control_c, 12, 10, 99
1, 59074, Note_on_c, 12, 53, 0
1, 59090, Control_c, 12, 10, 106
1, 59096, Note_on_c, 6, 53, 0
1, 59109, Note_on_c, 7, 65, 0
1, 59136, Note_on_c, 1, 29, 66
1, 59136, Note_on_c, 9, 27, 127
1, 59136, Note_on_c, 9, 45, 107
1, 59136, Note_on_c, 9, 36, 127
1, 59136, Note_on_c, 9, 42, 66
1, 59136, Note_on_c, 9, 70, 92
1, 59136, Note_on_c, 11, 29, 66
1, 59136, Note_on_c, 12, 53, 80
1, 59138, Control_c, 12, 10, 113
1, 59154, Note_on_c, 9, 70, 0
1, 59154, Note_on_c, 9, 36, 0
1, 59154, Note_on_c, 9, 45, 0
1, 59154, Note_on_c, 9, 27, 0
1, 59154, Note_on_c, 9, 42, 0
1, 59179, Note_on_c, 12, 53, 0
1, 59186, Control_c, 12, 10, 120
1, 59226, Note_on_c, 1, 29, 0
1, 59226, Note_on_c, 11, 29, 0
1, 59232, Note_on_c, 9, 42, 75
1, 59232, Note_on_c, 12, 53, 73
1, 59234, Control_c, 12, 6, 110
1, 59250, Note_on_c, 9, 42, 0
1, 59266, Note_on_c, 12, 53, 0
1, 59328, Note_on_c, 1, 41, 92
1, 59328, Note_on_c, 9, 46, 107
1, 59328, Note_on_c, 9, 70, 20
1, 59328, Note_on_c, 11, 41, 92
1, 59335, Note_on_c, 7, 54, 74
1, 59346, Note_on_c, 9, 70, 0
1, 59346, Note_on_c, 9, 46, 0
1, 59418, Note_on_c, 1, 41, 0
1, 59418, Note_on_c, 11, 41, 0
1, 59424, Note_on_c, 9, 70, 49
1, 59442, Note_on_c, 9, 70, 0
1, 59500, Note_on_c, 7, 54, 0
1, 59520, Note_on_c, 1, 29, 66
1, 59520, Note_on_c, 6, 53, 127
1, 59520, Note_on_c, 7, 65, 83
1, 59520, Note_on_c, 9, 27, 127
1, 59520, Note_on_c, 9, 45, 107
1, 59520, Note_on_c, 9, 36, 127
1, 59520, Note_on_c, 9, 42, 66
1, 59520, Note_on_c, 9, 70, 76
1, 59520, Note_on_c, 11, 29, 66
1, 59538, Note_on_c, 9, 70, 0
1, 59538, Note_on_c, 9, 42, 0
1, 59538, Note_on_c, 9, 27, 0
1, 59538, Note_on_c, 9, 45, 0
1, 59538, Note_on_c, 9, 36, 0
1, 59610, Note_on_c, 1, 29, 0
1, 59610, Note_on_c, 11, 29, 0
1, 59616, Note_on_c, 9, 42, 75
1, 59634, Note_on_c, 9, 42, 0
1, 59648, Note_on_c, 6, 53, 0
1, 59685, Note_on_c, 7, 65, 0
1, 59708, Note_on_c, 7, 54, 74
1, 59712, Note_on_c, 1, 41, 89
1, 59712, Note_on_c, 9, 46, 107
1, 59712, Note_on_c, 9, 70, 66
1, 59712, Note_on_c, 11, 41, 89
1, 59730, Note_on_c, 9, 70, 0
1, 59730, Note_on_c, 9, 46, 0
1, 59806, Note_on_c, 11, 41, 0
1, 59806, Note_on_c, 1, 41, 0
1, 59810, Control_c, 12, 6, 10
1, 59847, Note_on_c, 7, 54, 0
1, 59904, Note_on_c, 1, 29, 63
1, 59904, Note_on_c, 6, 53, 127
1, 59904, Note_on_c, 7, 65, 80
1, 59904, Note_on_c, 9, 27, 127
1, 59904, Note_on_c, 9, 45, 107
1, 59904, Note_on_c, 9, 36, 127
1, 59904, Note_on_c, 9, 42, 66
1, 59904, Note_on_c, 9, 70, 92
1, 59904, Note_on_c, 11, 29, 63
1, 59904, Note_on_c, 12, 53, 80
1, 59906, Control_c, 12, 10, 125
1, 59922, Note_on_c, 9, 70, 0
1, 59922, Note_on_c, 9, 42, 0
1, 59922, Note_on_c, 9, 27, 0
1, 59922, Note_on_c, 9, 36, 0
1, 59922, Note_on_c, 9, 45, 0
1, 59947, Note_on_c, 12, 53, 0
1, 59954, Control_c, 12, 10, 119
1, 59991, Note_on_c, 11, 29, 0
1, 59991, Note_on_c, 1, 29, 0
1, 60000, Note_on_c, 9, 42, 75
1, 60000, Note_on_c, 12, 53, 73
1, 60002, Control_c, 12, 10, 113
1, 60002, Control_c, 12, 6, 25
1, 60018, Note_on_c, 9, 42, 0
1, 60034, Note_on_c, 12, 53, 0
1, 60050, Control_c, 12, 10, 107
1, 60069, Note_on_c, 7, 65, 0
1, 60079, Note_on_c, 6, 53, 0
1, 60096, Note_on_c, 1, 41, 89
1, 60096, Note_on_c, 9, 46, 107
1, 60096, Note_on_c, 11, 41, 89
1, 60096, Note_on_c, 12, 53, 80
1, 60098, Control_c, 12, 10, 101
1, 60114, Note_on_c, 9, 46, 0
1, 60139, Note_on_c, 12, 53, 0
1, 60146, Control_c, 12, 10, 95
1, 60170, Control_c, 12, 6, 40
1, 60186, Note_on_c, 11, 41, 0
1, 60186, Note_on_c, 1, 41, 0
1, 60192, Note_on_c, 9, 70, 44
1, 60192, Note_on_c, 12, 53, 73
1, 60194, Control_c, 12, 10, 89
1, 60210, Note_on_c, 9, 70, 0
1, 60226, Note_on_c, 12, 53, 0
1, 60242, Control_c, 12, 10, 83
1, 60288, Note_on_c, 1, 29, 63
1, 60288, Note_on_c, 9, 27, 127
1, 60288, Note_on_c, 9, 45, 107
1, 60288, Note_on_c, 9, 36, 127
1, 60288, Note_on_c, 9, 42, 66
1, 60288, Note_on_c, 9, 70, 92
1, 60288, Note_on_c, 11, 29, 63
1, 60288, Note_on_c, 12, 53, 80
1, 60290, Control_c, 12, 10, 77
1, 60306, Note_on_c, 9, 70, 0
1, 60306, Note_on_c, 9, 36, 0
1, 60306, Note_on_c, 9, 45, 0
1, 60306, Note_on_c, 9, 27, 0
1, 60306, Note_on_c, 9, 42, 0
1, 60331, Note_on_c, 12, 53, 0
1, 60338, Control_c, 12, 10, 71
1, 60374, Control_c, 12, 6, 60
1, 60378, Note_on_c, 1, 29, 0
1, 60378, Note_on_c, 11, 29, 0
1, 60384, Note_on_c, 9, 42, 75
1, 60384, Note_on_c, 12, 53, 73
1, 60386, Control_c, 12, 10, 65
1, 60402, Note_on_c, 9, 42, 0
1, 60418, Note_on_c, 12, 53, 0
1, 60434, Control_c, 12, 10, 59
1, 60480, Note_on_c, 1, 41, 89
1, 60480, Note_on_c, 6, 53, 127
1, 60480, Note_on_c, 7, 65, 83
1, 60480, Note_on_c, 9, 46, 107
1, 60480, Note_on_c, 9, 70, 80
1, 60480, Note_on_c, 11, 41, 89
1, 60480, Note_on_c, 12, 53, 80
1, 60482, Control_c, 12, 10, 53
1, 60498, Note_on_c, 9, 70, 0
1, 60498, Note_on_c, 9, 46, 0
1, 60523, Note_on_c, 12, 53, 0
1, 60530, Control_c, 12, 10, 47
1, 60554, Control_c, 12, 6, 85
1, 60570, Note_on_c, 1, 41, 0
1, 60570, Note_on_c, 11, 41, 0
1, 60576, Note_on_c, 12, 53, 73
1, 60578, Control_c, 12, 10, 41
1, 60610, Note_on_c, 12, 53, 0
1, 60626, Control_c, 12, 10, 35
1, 60632, Note_on_c, 6, 53, 0
1, 60645, Note_on_c, 7, 65, 0
1, 60672, Note_on_c, 1, 29, 63
1, 60672, Note_on_c, 9, 27, 127
1, 60672, Note_on_c, 9, 45, 107
1, 60672, Note_on_c, 9, 36, 127
1, 60672, Note_on_c, 9, 42, 66
1, 60672, Note_on_c, 9, 70, 86
1, 60672, Note_on_c, 11, 29, 63
1, 60672, Note_on_c, 12, 53, 80
1, 60674, Control_c, 12, 10, 29
1, 60690, Note_on_c, 9, 70, 0
1, 60690, Note_on_c, 9, 36, 0
1, 60690, Note_on_c, 9, 45, 0
1, 60690, Note_on_c, 9, 27, 0
1, 60690, Note_on_c, 9, 42, 0
1, 60715, Note_on_c, 12, 53, 0
1, 60722, Control_c, 12, 10, 23
1, 60762, Note_on_c, 1, 29, 0
1, 60762, Note_on_c, 11, 29, 0
1, 60768, Note_on_c, 9, 42, 75
1, 60768, Note_on_c, 12, 53, 73
1, 60770, Control_c, 12, 10, 17
1, 60770, Control_c, 12, 6, 110
1, 60786, Note_on_c, 9, 42, 0
1, 60802, Note_on_c, 12, 53, 0
1, 60818, Control_c, 12, 10, 11
1, 60864, Note_on_c, 1, 41, 86
1, 60864, Note_on_c, 9, 46, 107
1, 60864, Note_on_c, 9, 70, 13
1, 60864, Note_on_c, 11, 41, 86
1, 60866, Control_c, 12, 10, 5
1, 60871, Note_on_c, 7, 54, 71
1, 60882, Note_on_c, 9, 70, 0
1, 60882, Note_on_c, 9, 46, 0
1, 60954, Note_on_c, 1, 41, 0
1, 60954, Note_on_c, 11, 41, 0
1, 60960, Note_on_c, 9, 70, 26
1, 60978, Note_on_c, 9, 70, 0
1, 61036, Note_on_c, 7, 54, 0
1, 61056, Note_on_c, 1, 29, 63
1, 61056, Note_on_c, 6, 53, 127
1, 61056, Note_on_c, 7, 65, 83
1, 61056, Note_on_c, 9, 27, 127
1, 61056, Note_on_c, 9, 45, 107
1, 61056, Note_on_c, 9, 36, 127
1, 61056, Note_on_c, 9, 42, 66
1, 61056, Note_on_c, 9, 70, 92
1, 61056, Note_on_c, 11, 29, 63
1, 61074, Note_on_c, 9, 70, 0
1, 61074, Note_on_c, 9, 42, 0
1, 61074, Note_on_c, 9, 27, 0
1, 61074, Note_on_c, 9, 45, 0
1, 61074, Note_on_c, 9, 36, 0
1, 61146, Note_on_c, 1, 29, 0
1, 61146, Note_on_c, 11, 29, 0
1, 61152, Note_on_c, 9, 42, 75
1, 61170, Note_on_c, 9, 42, 0
1, 61184, Note_on_c, 6, 53, 0
1, 61221, Note_on_c, 7, 65, 0
1, 61244, Note_on_c, 7, 54, 71
1, 61248, Note_on_c, 1, 41, 86
1, 61248, Note_on_c, 9, 46, 107
1, 61248, Note_on_c, 9, 70, 63
1, 61248, Note_on_c, 11, 41, 86
1, 61266, Note_on_c, 9, 70, 0
1, 61266, Note_on_c, 9, 46, 0
1, 61342, Note_on_c, 11, 41, 0
1, 61342, Note_on_c, 1, 41, 0
1, 61346, Control_c, 12, 6, 10
1, 61383, Note_on_c, 7, 54, 0
1, 61440, Note_on_c, 6, 53, 127
1, 61440, Note_on_c, 9, 27, 127
1, 61440, Note_on_c, 9, 45, 107
1, 61440, Note_on_c, 9, 36, 127
1, 61440, Note_on_c, 12, 53, 80
1, 61442, Pitch_bend_c, 11, 8192
1, 61443, Pitch_bend_c, 1, 8192
1, 61443, Pitch_bend_c, 7, 8192
1, 61458, Note_on_c, 9, 36, 0
1, 61458, Note_on_c, 9, 45, 0
1, 61458, Note_on_c, 9, 27, 0
1, 61483, Note_on_c, 12, 53, 0
1, 61490, Control_c, 12, 10, 5
1, 61536, Note_on_c, 12, 53, 73
1, 61538, Control_c, 12, 10, 13
1, 61538, Control_c, 12, 6, 25
1, 61570, Note_on_c, 12, 53, 0
1, 61586, Control_c, 12, 10, 20
1, 61615, Note_on_c, 6, 53, 0
1, 61632, Note_on_c, 12, 53, 80
1, 61634, Control_c, 12, 10, 27
1, 61675, Note_on_c, 12, 53, 0
1, 61682, Control_c, 12, 10, 34
1, 61706, Control_c, 12, 6, 40
1, 61728, Note_on_c, 12, 53, 73
1, 61730, Control_c, 12, 10, 41
1, 61762, Note_on_c, 12, 53, 0
1, 61778, Control_c, 12, 10, 49
1, 61824, Note_on_c, 9, 27, 127
1, 61824, Note_on_c, 9, 36, 127
1, 61824, Note_on_c, 9, 45, 107
1, 61824, Note_on_c, 12, 53, 80
1, 61826, Control_c, 12, 10, 56
1, 61842, Note_on_c, 9, 45, 0
1, 61842, Note_on_c, 9, 27, 0
1, 61842, Note_on_c, 9, 36, 0
1, 61867, Note_on_c, 12, 53, 0
1, 61874, Control_c, 12, 10, 63
1, 61910, Control_c, 12, 6, 60
1, 61920, Note_on_c, 12, 53, 73
1, 61922, Control_c, 12, 10, 70
1, 61954, Note_on_c, 12, 53, 0
1, 61970, Control_c, 12, 10, 77
1, 62016, Note_on_c, 6, 53, 127
1, 62016, Note_on_c, 12, 53, 80
1, 62018, Control_c, 12, 10, 84
1, 62059, Note_on_c, 12, 53, 0
1, 62066, Control_c, 12, 10, 92
1, 62090, Control_c, 12, 6, 85
1, 62112, Note_on_c, 12, 53, 73
1, 62114, Control_c, 12, 10, 99
1, 62146, Note_on_c, 12, 53, 0
1, 62162, Control_c, 12, 10, 106
1, 62168, Note_on_c, 6, 53, 0
1, 62208, Note_on_c, 9, 48, 110
1, 62208, Note_on_c, 9, 38, 110
1, 62208, Note_on_c, 12, 53, 80
1, 62210, Control_c, 12, 10, 113
1, 62226, Note_on_c, 9, 38, 0
1, 62226, Note_on_c, 9, 48, 0
1, 62251, Note_on_c, 12, 53, 0
1, 62258, Control_c, 12, 10, 120
1, 62304, Note_on_c, 9, 48, 83
1, 62304, Note_on_c, 9, 38, 83
1, 62304, Note_on_c, 12, 53, 73
1, 62306, Control_c, 12, 6, 110
1, 62322, Note_on_c, 9, 38, 0
1, 62322, Note_on_c, 9, 48, 0
1, 62338, Note_on_c, 12, 53, 0
1, 62400, Note_on_c, 9, 48, 110
1, 62400, Note_on_c, 9, 38, 110
1, 62400, Note_on_c, 12, 53, 80
1, 62418, Note_on_c, 9, 38, 0
1, 62418, Note_on_c, 9, 48, 0
1, 62443, Note_on_c, 12, 53, 0
1, 62496, Note_on_c, 9, 48, 83
1, 62496, Note_on_c, 9, 38, 83
1, 62496, Note_on_c, 12, 53, 73
1, 62514, Note_on_c, 9, 38, 0
1, 62514, Note_on_c, 9, 48, 0
1, 62530, Note_on_c, 12, 53, 0
1, 62592, Note_on_c, 6, 53, 127
1, 62592, Note_on_c, 9, 48, 110
1, 62592, Note_on_c, 9, 38, 110
1, 62592, Note_on_c, 12, 53, 80
1, 62610, Note_on_c, 9, 38, 0
1, 62610, Note_on_c, 9, 48, 0
1, 62635, Note_on_c, 12, 53, 0
1, 62688, Note_on_c, 9, 48, 83
1, 62688, Note_on_c, 9, 38, 83
1, 62688, Note_on_c, 12, 53, 73
1, 62706, Note_on_c, 9, 38, 0
1, 62706, Note_on_c, 9, 48, 0
1, 62720, Note_on_c, 6, 53, 0
1, 62722, Note_on_c, 12, 53, 0
1, 62784, Note_on_c, 9, 48, 110
1, 62784, Note_on_c, 9, 38, 110
1, 62784, Note_on_c, 12, 53, 80
1, 62802, Note_on_c, 9, 38, 0
1, 62802, Note_on_c, 9, 48, 0
1, 62827, Note_on_c, 12, 53, 0
1, 62880, Note_on_c, 9, 48, 83
1, 62880, Note_on_c, 9, 38, 83
1, 62880, Note_on_c, 12, 53, 73
1, 62882, Control_c, 12, 6, 10
1, 62898, Note_on_c, 9, 38, 0
1, 62898, Note_on_c, 9, 48, 0
1, 62914, Note_on_c, 12, 53, 0
1, 62976, Note_on_c, 1, 29, 60
1, 62976, Note_on_c, 2, 60, 80
1, 62976, Note_on_c, 6, 53, 127
1, 62976, Note_on_c, 7, 65, 80
1, 62976, Note_on_c, 9, 27, 127
1, 62976, Note_on_c, 9, 45, 107
1, 62976, Note_on_c, 9, 36, 127
1, 62976, Note_on_c, 9, 42, 66
1, 62976, Note_on_c, 9, 70, 92
1, 62976, Note_on_c, 9, 57, 97
1, 62976, Note_on_c, 11, 29, 60
1, 62976, Note_on_c, 12, 53, 80
1, 62978, Control_c, 1, 10, 10
1, 62978, Pitch_bend_c, 1, 8990
1, 62978, Control_c, 2, 11, 108
1, 62983, Note_on_c, 2, 65, 91
1, 62994, Note_on_c, 9, 57, 0
1, 62994, Note_on_c, 9, 70, 0
1, 62994, Note_on_c, 9, 36, 0
1, 62994, Note_on_c, 9, 42, 0
1, 62994, Note_on_c, 9, 45, 0
1, 62994, Note_on_c, 9, 27, 0
1, 63019, Note_on_c, 12, 53, 0
1, 63019, Note_on_c, 2, 89, 68
1, 63026, Control_c, 12, 10, 5
1, 63063, Note_on_c, 1, 29, 0
1, 63063, Note_on_c, 11, 29, 0
1, 63072, Note_on_c, 9, 42, 75
1, 63072, Note_on_c, 12, 53, 73
1, 63074, Control_c, 12, 10, 13
1, 63074, Control_c, 12, 6, 25
1, 63090, Note_on_c, 9, 42, 0
1, 63106, Note_on_c, 12, 53, 0
1, 63122, Control_c, 12, 10, 20
1, 63141, Note_on_c, 7, 65, 0
1, 63151, Note_on_c, 6, 53, 0
1, 63168, Note_on_c, 1, 41, 92
1, 63168, Note_on_c, 9, 46, 107
1, 63168, Note_on_c, 11, 41, 92
1, 63168, Note_on_c, 12, 53, 80
1, 63170, Control_c, 12, 10, 27
1, 63186, Note_on_c, 9, 46, 0
1, 63211, Note_on_c, 12, 53, 0
1, 63218, Control_c, 12, 10, 34
1, 63242, Control_c, 12, 6, 40
1, 63258, Note_on_c, 1, 41, 0
1, 63258, Note_on_c, 11, 41, 0
1, 63264, Note_on_c, 9, 70, 40
1, 63264, Note_on_c, 12, 53, 73
1, 63266, Control_c, 12, 10, 41
1, 63282, Note_on_c, 9, 70, 0
1, 63298, Note_on_c, 12, 53, 0
1, 63314, Control_c, 12, 10, 49
1, 63360, Note_on_c, 1, 29, 66
1, 63360, Note_on_c, 9, 38, 92
1, 63360, Note_on_c, 9, 27, 127
1, 63360, Note_on_c, 9, 45, 107
1, 63360, Note_on_c, 9, 36, 127
1, 63360, Note_on_c, 9, 42, 66
1, 63360, Note_on_c, 9, 70, 86
1, 63360, Note_on_c, 11, 29, 66
1, 63360, Note_on_c, 12, 53, 80
1, 63362, Control_c, 12, 10, 56
1, 63378, Note_on_c, 9, 70, 0
1, 63378, Note_on_c, 9, 42, 0
1, 63378, Note_on_c, 9, 45, 0
1, 63378, Note_on_c, 9, 36, 0
1, 63378, Note_on_c, 9, 27, 0
1, 63378, Note_on_c, 9, 38, 0
1, 63403, Note_on_c, 12, 53, 0
1, 63410, Control_c, 12, 10, 63
1, 63446, Control_c, 12, 6, 60
1, 63450, Note_on_c, 1, 29, 0
1, 63450, Note_on_c, 11, 29, 0
1, 63456, Note_on_c, 9, 42, 75
1, 63456, Note_on_c, 12, 53, 73
1, 63458, Control_c, 12, 10, 70
1, 63474, Note_on_c, 9, 42, 0
1, 63490, Note_on_c, 12, 53, 0
1, 63506, Control_c, 12, 10, 77
1, 63552, Note_on_c, 1, 41, 92
1, 63552, Note_on_c, 6, 53, 127
1, 63552, Note_on_c, 7, 65, 83
1, 63552, Note_on_c, 9, 46, 92
1, 63552, Note_on_c, 9, 70, 80
1, 63552, Note_on_c, 11, 41, 92
1, 63552, Note_on_c, 12, 53, 80
1, 63554, Control_c, 12, 10, 84
1, 63570, Note_on_c, 9, 70, 0
1, 63570, Note_on_c, 9, 46, 0
1, 63595, Note_on_c, 12, 53, 0
1, 63602, Control_c, 12, 10, 92
1, 63626, Control_c, 12, 6, 85
1, 63642, Note_on_c, 11, 41, 0
1, 63642, Note_on_c, 1, 41, 0
1, 63648, Note_on_c, 12, 53, 73
1, 63650, Control_c, 12, 10, 99
1, 63682, Note_on_c, 12, 53, 0
1, 63698, Control_c, 12, 10, 106
1, 63704, Note_on_c, 6, 53, 0
1, 63717, Note_on_c, 7, 65, 0
1, 63744, Note_on_c, 1, 29, 66
1, 63744, Note_on_c, 9, 27, 127
1, 63744, Note_on_c, 9, 45, 107
1, 63744, Note_on_c, 9, 36, 127
1, 63744, Note_on_c, 9, 42, 66
1, 63744, Note_on_c, 9, 70, 92
1, 63744, Note_on_c, 11, 29, 66
1, 63744, Note_on_c, 12, 53, 80
1, 63746, Control_c, 12, 10, 113
1, 63762, Note_on_c, 9, 70, 0
1, 63762, Note_on_c, 9, 42, 0
1, 63762, Note_on_c, 9, 36, 0
1, 63762, Note_on_c, 9, 45, 0
1, 63762, Note_on_c, 9, 27, 0
1, 63787, Note_on_c, 12, 53, 0
1, 63794, Control_c, 12, 10, 120
1, 63834, Note_on_c, 11, 29, 0
1, 63834, Note_on_c, 1, 29, 0
1, 63840, Note_on_c, 9, 42, 75
1, 63840, Note_on_c, 12, 53, 73
1, 63842, Control_c, 12, 6, 110
1, 63858, Note_on_c, 9, 42, 0
1, 63874, Note_on_c, 12, 53, 0
1, 63936, Note_on_c, 1, 41, 92
1, 63936, Note_on_c, 9, 46, 107
1, 63936, Note_on_c, 9, 70, 20
1, 63936, Note_on_c, 11, 41, 92
1, 63954, Note_on_c, 9, 70, 0
1, 63954, Note_on_c, 9, 46, 0
1, 64026, Note_on_c, 1, 41, 0
1, 64026, Note_on_c, 11, 41, 0
1, 64032, Note_on_c, 9, 70, 49
1, 64050, Note_on_c, 9, 70, 0
1, 64128, Note_on_c, 1, 29, 66
1, 64128, Note_on_c, 6, 53, 127
1, 64128, Note_on_c, 7, 65, 83
1, 64128, Note_on_c, 9, 38, 92
1, 64128, Note_on_c, 9, 27, 127
1, 64128, Note_on_c, 9, 45, 107
1, 64128, Note_on_c, 9, 36, 127
1, 64128, Note_on_c, 9, 42, 66
1, 64128, Note_on_c, 9, 70, 76
1, 64128, Note_on_c, 11, 29, 66
1, 64146, Note_on_c, 9, 70, 0
1, 64146, Note_on_c, 9, 36, 0
1, 64146, Note_on_c, 9, 38, 0
1, 64146, Note_on_c, 9, 45, 0
1, 64146, Note_on_c, 9, 27, 0
1, 64146, Note_on_c, 9, 42, 0
1, 64218, Note_on_c, 1, 29, 0
1, 64218, Note_on_c, 11, 29, 0
1, 64224, Note_on_c, 9, 42, 75
1, 64242, Note_on_c, 9, 42, 0
1, 64256, Note_on_c, 6, 53, 0
1, 64293, Note_on_c, 7, 65, 0
1, 64320, Note_on_c, 1, 41, 89
1, 64320, Note_on_c, 9, 46, 107
1, 64320, Note_on_c, 9, 70, 66
1, 64320, Note_on_c, 11, 41, 89
1, 64338, Note_on_c, 9, 70, 0
1, 64338, Note_on_c, 9, 46, 0
1, 64414, Note_on_c, 1, 41, 0
1, 64414, Note_on_c, 11, 41, 0
1, 64418, Control_c, 12, 6, 10
1, 64512, Note_on_c, 1, 29, 63
1, 64512, Note_on_c, 6, 52, 127
1, 64512, Note_on_c, 7, 64, 80
1, 64512, Note_on_c, 9, 27, 127
1, 64512, Note_on_c, 9, 45, 107
1, 64512, Note_on_c, 9, 36, 127
1, 64512, Note_on_c, 9, 42, 66
1, 64512, Note_on_c, 9, 70, 92
1, 64512, Note_on_c, 11, 29, 63
1, 64512, Note_on_c, 12, 53, 80
1, 64514, Control_c, 12, 10, 125
1, 64530, Note_on_c, 9, 70, 0
1, 64530, Note_on_c, 9, 42, 0
1, 64530, Note_on_c, 9, 27, 0
1, 64530, Note_on_c, 9, 36, 0
1, 64530, Note_on_c, 9, 45, 0
1, 64532, Note_on_c, 2, 89, 0
1, 64536, Note_on_c, 2, 88, 47
1, 64555, Note_on_c, 12, 53, 0
1, 64562, Control_c, 12, 10, 119
1, 64599, Note_on_c, 11, 29, 0
1, 64599, Note_on_c, 1, 29, 0
1, 64608, Note_on_c, 9, 42, 75
1, 64608, Note_on_c, 12, 53, 73
1, 64610, Control_c, 12, 10, 113
1, 64610, Control_c, 12, 6, 25
1, 64626, Note_on_c, 9, 42, 0
1, 64642, Note_on_c, 12, 53, 0
1, 64658, Control_c, 12, 10, 107
1, 64677, Note_on_c, 7, 64, 0
1, 64687, Note_on_c, 6, 52, 0
1, 64704, Note_on_c, 1, 41, 89
1, 64704, Note_on_c, 9, 46, 107
1, 64704, Note_on_c, 11, 41, 89
1, 64704, Note_on_c, 12, 53, 80
1, 64706, Control_c, 12, 10, 101
1, 64722, Note_on_c, 9, 46, 0
1, 64747, Note_on_c, 12, 53, 0
1, 64754, Control_c, 12, 10, 95
1, 64778, Control_c, 12, 6, 40
1, 64794, Note_on_c, 1, 41, 0
1, 64794, Note_on_c, 11, 41, 0
1, 64800, Note_on_c, 9, 70, 44
1, 64800, Note_on_c, 12, 53, 73
1, 64802, Control_c, 12, 10, 89
1, 64818, Note_on_c, 9, 70, 0
1, 64834, Note_on_c, 12, 53, 0
1, 64850, Control_c, 12, 10, 83
1, 64896, Note_on_c, 1, 29, 63
1, 64896, Note_on_c, 9, 38, 92
1, 64896, Note_on_c, 9, 27, 127
1, 64896, Note_on_c, 9, 45, 107
1, 64896, Note_on_c, 9, 36, 127
1, 64896, Note_on_c, 9, 42, 66
1, 64896, Note_on_c, 9, 70, 92
1, 64896, Note_on_c, 11, 29, 63
1, 64896, Note_on_c, 12, 53, 80
1, 64898, Control_c, 12, 10, 77
1, 64914, Note_on_c, 9, 70, 0
1, 64914, Note_on_c, 9, 42, 0
1, 64914, Note_on_c, 9, 45, 0
1, 64914, Note_on_c, 9, 36, 0
1, 64914, Note_on_c, 9, 27, 0
1, 64914, Note_on_c, 9, 38, 0
1, 64939, Note_on_c, 12, 53, 0
1, 64946, Control_c, 12, 10, 71
1, 64982, Control_c, 12, 6, 60
1, 64986, Note_on_c, 1, 29, 0
1, 64986, Note_on_c, 11, 29, 0
1, 64992, Note_on_c, 9, 42, 75
1, 64992, Note_on_c, 12, 53, 73
1, 64994, Control_c, 12, 10, 65
1, 65010, Note_on_c, 9, 42, 0
1, 65026, Note_on_c, 12, 53, 0
1, 65042, Control_c, 12, 10, 59
1, 65088, Note_on_c, 1, 41, 89
1, 65088, Note_on_c, 6, 52, 127
1, 65088, Note_on_c, 7, 64, 83
1, 65088, Note_on_c, 9, 46, 107
1, 65088, Note_on_c, 9, 70, 80
1, 65088, Note_on_c, 11, 41, 89
1, 65088, Note_on_c, 12, 53, 80
1, 65090, Control_c, 12, 10, 53
1, 65106, Note_on_c, 9, 70, 0
1, 65106, Note_on_c, 9, 46, 0
1, 65131, Note_on_c, 12, 53, 0
1, 65138, Control_c, 12, 10, 47
1, 65162, Control_c, 12, 6, 85
1, 65178, Note_on_c, 11, 41, 0
1, 65178, Note_on_c, 1, 41, 0
1, 65184, Note_on_c, 12, 53, 73
1, 65186, Control_c, 12, 10, 41
1, 65218, Note_on_c, 12, 53, 0
1, 65234, Control_c, 12, 10, 35
1, 65240, Note_on_c, 6, 52, 0
1, 65253, Note_on_c, 7, 64, 0
1, 65280, Note_on_c, 1, 29, 63
1, 65280, Note_on_c, 9, 27, 127
1, 65280, Note_on_c, 9, 45, 107
1, 65280, Note_on_c, 9, 36, 127
1, 65280, Note_on_c, 9, 42, 66
1, 65280, Note_on_c, 9, 70, 86
1, 65280, Note_on_c, 11, 29, 63
1, 65280, Note_on_c, 12, 53, 80
1, 65282, Control_c, 12, 10, 29
1, 65298, Note_on_c, 9, 70, 0
1, 65298, Note_on_c, 9, 42, 0
1, 65298, Note_on_c, 9, 36, 0
1, 65298, Note_on_c, 9, 45, 0
1, 65298, Note_on_c, 9, 27, 0
1, 65323, Note_on_c, 12, 53, 0
1, 65330, Control_c, 12, 10, 23
1, 65370, Note_on_c, 11, 29, 0
1, 65370, Note_on_c, 1, 29, 0
1, 65376, Note_on_c, 9, 42, 75
1, 65376, Note_on_c, 12, 53, 73
1, 65378, Control_c, 12, 10, 17
1, 65378, Control_c, 12, 6, 110
1, 65394, Note_on_c, 9, 42, 0
1, 65410, Note_on_c, 12, 53, 0
1, 65426, Control_c, 12, 10, 11
1, 65472, Note_on_c, 1, 41, 86
1, 65472, Note_on_c, 9, 46, 107
1, 65472, Note_on_c, 9, 70, 13
1, 65472, Note_on_c, 11, 41, 86
1, 65474, Control_c, 12, 10, 5
1, 65490, Note_on_c, 9, 70, 0
1, 65490, Note_on_c, 9, 46, 0
1, 65562, Note_on_c, 1, 41, 0
1, 65562, Note_on_c, 11, 41, 0
1, 65568, Note_on_c, 9, 70, 26
1, 65586, Note_on_c, 9, 70, 0
1, 65664, Note_on_c, 1, 29, 63
1, 65664, Note_on_c, 6, 52, 127
1, 65664, Note_on_c, 7, 64, 83
1, 65664, Note_on_c, 9, 38, 92
1, 65664, Note_on_c, 9, 27, 127
1, 65664, Note_on_c, 9, 45, 107
1, 65664, Note_on_c, 9, 36, 127
1, 65664, Note_on_c, 9, 42, 66
1, 65664, Note_on_c, 9, 70, 92
1, 65664, Note_on_c, 11, 29, 63
1, 65682, Note_on_c, 9, 70, 0
1, 65682, Note_on_c, 9, 36, 0
1, 65682, Note_on_c, 9, 38, 0
1, 65682, Note_on_c, 9, 45, 0
1, 65682, Note_on_c, 9, 27, 0
1, 65682, Note_on_c, 9, 42, 0
1, 65754, Note_on_c, 1, 29, 0
1, 65754, Note_on_c, 11, 29, 0
1, 65760, Note_on_c, 9, 42, 75
1, 65778, Note_on_c, 9, 42, 0
1, 65792, Note_on_c, 6, 52, 0
1, 65829, Note_on_c, 7, 64, 0
1, 65856, Note_on_c, 1, 41, 86
1, 65856, Note_on_c, 9, 46, 107
1, 65856, Note_on_c, 9, 70, 63
1, 65856, Note_on_c, 11, 41, 86
1, 65874, Note_on_c, 9, 70, 0
1, 65874, Note_on_c, 9, 46, 0
1, 65950, Note_on_c, 1, 41, 0
1, 65950, Note_on_c, 11, 41, 0
1, 65954, Control_c, 12, 6, 10
1, 66039, Note_on_c, 2, 86, 55
1, 66047, Note_on_c, 2, 88, 0
1, 66048, Note_on_c, 1, 29, 60
1, 66048, Note_on_c, 6, 50, 127
1, 66048, Note_on_c, 7, 62, 80
1, 66048, Note_on_c, 9, 27, 127
1, 66048, Note_on_c, 9, 45, 107
1, 66048, Note_on_c, 9, 36, 127
1, 66048, Note_on_c, 9, 42, 66
1, 66048, Note_on_c, 9, 70, 92
1, 66048, Note_on_c, 11, 29, 60
1, 66048, Note_on_c, 12, 53, 80
1, 66050, Control_c, 1, 10, 10
1, 66050, Pitch_bend_c, 1, 8990
1, 66066, Note_on_c, 9, 70, 0
1, 66066, Note_on_c, 9, 42, 0
1, 66066, Note_on_c, 9, 27, 0
1, 66066, Note_on_c, 9, 36, 0
1, 66066, Note_on_c, 9, 45, 0
1, 66091, Note_on_c, 12, 53, 0
1, 66098, Control_c, 12, 10, 5
1, 66135, Note_on_c, 1, 29, 0
1, 66135, Note_on_c, 11, 29, 0
1, 66144, Note_on_c, 9, 42, 75
1, 66144, Note_on_c, 12, 53, 73
1, 66146, Control_c, 12, 10, 13
1, 66146, Control_c, 12, 6, 25
1, 66162, Note_on_c, 9, 42, 0
1, 66178, Note_on_c, 12, 53, 0
1, 66194, Control_c, 12, 10, 20
1, 66213, Note_on_c, 7, 62, 0
1, 66223, Note_on_c, 6, 50, 0
1, 66240, Note_on_c, 1, 41, 92
1, 66240, Note_on_c, 9, 46, 107
1, 66240, Note_on_c, 11, 41, 92
1, 66240, Note_on_c, 12, 53, 80
1, 66242, Control_c, 12, 10, 27
1, 66258, Note_on_c, 9, 46, 0
1, 66283, Note_on_c, 12, 53, 0
1, 66290, Control_c, 12, 10, 34
1, 66314, Control_c, 12, 6, 40
1, 66330, Note_on_c, 1, 41, 0
1, 66330, Note_on_c, 11, 41, 0
1, 66336, Note_on_c, 9, 70, 40
1, 66336, Note_on_c, 12, 53, 73
1, 66338, Control_c, 12, 10, 41
1, 66354, Note_on_c, 9, 70, 0
1, 66370, Note_on_c, 12, 53, 0
1, 66386, Control_c, 12, 10, 49
1, 66432, Note_on_c, 1, 29, 66
1, 66432, Note_on_c, 9, 38, 92
1, 66432, Note_on_c, 9, 27, 127
1, 66432, Note_on_c, 9, 45, 107
1, 66432, Note_on_c, 9, 36, 127
1, 66432, Note_on_c, 9, 42, 66
1, 66432, Note_on_c, 9, 70, 86
1, 66432, Note_on_c, 11, 29, 66
1, 66432, Note_on_c, 12, 53, 80
1, 66434, Control_c, 12, 10, 56
1, 66450, Note_on_c, 9, 70, 0
1, 66450, Note_on_c, 9, 42, 0
1, 66450, Note_on_c, 9, 45, 0
1, 66450, Note_on_c, 9, 36, 0
1, 66450, Note_on_c, 9, 27, 0
1, 66450, Note_on_c, 9, 38, 0
1, 66475, Note_on_c, 12, 53, 0
1, 66482, Control_c, 12, 10, 63
1, 66518, Control_c, 12, 6, 60
1, 66522, Note_on_c, 1, 29, 0
1, 66522, Note_on_c, 11, 29, 0
1, 66528, Note_on_c, 9, 42, 75
1, 66528, Note_on_c, 12, 53, 73
1, 66530, Control_c, 12, 10, 70
1, 66546, Note_on_c, 9, 42, 0
1, 66562, Note_on_c, 12, 53, 0
1, 66578, Control_c, 12, 10, 77
1, 66624, Note_on_c, 1, 41, 92
1, 66624, Note_on_c, 6, 50, 127
1, 66624, Note_on_c, 7, 62, 83
1, 66624, Note_on_c, 9, 46, 92
1, 66624, Note_on_c, 9, 70, 80
1, 66624, Note_on_c, 11, 41, 92
1, 66624, Note_on_c, 12, 53, 80
1, 66626, Control_c, 12, 10, 84
1, 66642, Note_on_c, 9, 70, 0
1, 66642, Note_on_c, 9, 46, 0
1, 66667, Note_on_c, 12, 53, 0
1, 66674, Control_c, 12, 10, 92
1, 66698, Control_c, 12, 6, 85
1, 66714, Note_on_c, 11, 41, 0
1, 66714, Note_on_c, 1, 41, 0
1, 66720, Note_on_c, 12, 53, 73
1, 66722, Control_c, 12, 10, 99
1, 66754, Note_on_c, 12, 53, 0
1, 66770, Control_c, 12, 10, 106
1, 66776, Note_on_c, 6, 50, 0
1, 66789, Note_on_c, 7, 62, 0
1, 66816, Note_on_c, 1, 29, 66
1, 66816, Note_on_c, 9, 27, 127
1, 66816, Note_on_c, 9, 45, 107
1, 66816, Note_on_c, 9, 36, 127
1, 66816, Note_on_c, 9, 42, 66
1, 66816, Note_on_c, 9, 70, 92
1, 66816, Note_on_c, 11, 29, 66
1, 66816, Note_on_c, 12, 53, 80
1, 66818, Control_c, 12, 10, 113
1, 66834, Note_on_c, 9, 70, 0
1, 66834, Note_on_c, 9, 42, 0
1, 66834, Note_on_c, 9, 36, 0
1, 66834, Note_on_c, 9, 45, 0
1, 66834, Note_on_c, 9, 27, 0
1, 66859, Note_on_c, 12, 53, 0
1, 66866, Control_c, 12, 10, 120
1, 66906, Note_on_c, 11, 29, 0
1, 66906, Note_on_c, 1, 29, 0
1, 66912, Note_on_c, 9, 42, 75
1, 66912, Note_on_c, 12, 53, 73
1, 66914, Control_c, 12, 6, 110
1, 66930, Note_on_c, 9, 42, 0
1, 66946, Note_on_c, 12, 53, 0
1, 67008, Note_on_c, 1, 41, 92
1, 67008, Note_on_c, 9, 46, 107
1, 67008, Note_on_c, 9, 70, 20
1, 67008, Note_on_c, 11, 41, 92
1, 67026, Note_on_c, 9, 70, 0
1, 67026, Note_on_c, 9, 46, 0
1, 67098, Note_on_c, 1, 41, 0
1, 67098, Note_on_c, 11, 41, 0
1, 67104, Note_on_c, 9, 70, 49
1, 67122, Note_on_c, 9, 70, 0
1, 67200, Note_on_c, 1, 29, 66
1, 67200, Note_on_c, 6, 50, 127
1, 67200, Note_on_c, 7, 62, 83
1, 67200, Note_on_c, 9, 38, 92
1, 67200, Note_on_c, 9, 27, 127
1, 67200, Note_on_c, 9, 45, 107
1, 67200, Note_on_c, 9, 36, 127
1, 67200, Note_on_c, 9, 42, 66
1, 67200, Note_on_c, 9, 70, 76
1, 67200, Note_on_c, 11, 29, 66
1, 67218, Note_on_c, 9, 70, 0
1, 67218, Note_on_c, 9, 36, 0
1, 67218, Note_on_c, 9, 38, 0
1, 67218, Note_on_c, 9, 45, 0
1, 67218, Note_on_c, 9, 27, 0
1, 67218, Note_on_c, 9, 42, 0
1, 67290, Note_on_c, 1, 29, 0
1, 67290, Note_on_c, 11, 29, 0
1, 67296, Note_on_c, 9, 42, 75
1, 67314, Note_on_c, 9, 42, 0
1, 67328, Note_on_c, 6, 50, 0
1, 67365, Note_on_c, 7, 62, 0
1, 67392, Note_on_c, 1, 41, 89
1, 67392, Note_on_c, 9, 46, 107
1, 67392, Note_on_c, 9, 70, 66
1, 67392, Note_on_c, 11, 41, 89
1, 67410, Note_on_c, 9, 70, 0
1, 67410, Note_on_c, 9, 46, 0
1, 67486, Note_on_c, 1, 41, 0
1, 67486, Note_on_c, 11, 41, 0
1, 67490, Control_c, 12, 6, 10
1, 67558, Note_on_c, 2, 86, 0
1, 67562, Note_on_c, 2, 84, 58
1, 67584, Note_on_c, 1, 29, 63
1, 67584, Note_on_c, 6, 48, 127
1, 67584, Note_on_c, 7, 60, 80
1, 67584, Note_on_c, 9, 27, 127
1, 67584, Note_on_c, 9, 45, 107
1, 67584, Note_on_c, 9, 36, 127
1, 67584, Note_on_c, 9, 42, 66
1, 67584, Note_on_c, 9, 70, 92
1, 67584, Note_on_c, 11, 29, 63
1, 67584, Note_on_c, 12, 53, 80
1, 67586, Control_c, 12, 10, 125
1, 67602, Note_on_c, 9, 70, 0
1, 67602, Note_on_c, 9, 42, 0
1, 67602, Note_on_c, 9, 27, 0
1, 67602, Note_on_c, 9, 36, 0
1, 67602, Note_on_c, 9, 45, 0
1, 67627, Note_on_c, 12, 53, 0
1, 67634, Control_c, 12, 10, 119
1, 67671, Note_on_c, 1, 29, 0
1, 67671, Note_on_c, 11, 29, 0
1, 67680, Note_on_c, 9, 42, 75
1, 67680, Note_on_c, 12, 53, 73
1, 67682, Control_c, 12, 10, 113
1, 67682, Control_c, 12, 6, 25
1, 67698, Note_on_c, 9, 42, 0
1, 67714, Note_on_c, 12, 53, 0
1, 67730, Control_c, 12, 10, 107
1, 67749, Note_on_c, 7, 60, 0
1, 67759, Note_on_c, 6, 48, 0
1, 67776, Note_on_c, 1, 41, 89
1, 67776, Note_on_c, 9, 46, 107
1, 67776, Note_on_c, 11, 41, 89
1, 67776, Note_on_c, 12, 53, 80
1, 67778, Control_c, 12, 10, 101
1, 67794, Note_on_c, 9, 46, 0
1, 67819, Note_on_c, 12, 53, 0
1, 67826, Control_c, 12, 10, 95
1, 67850, Control_c, 12, 6, 40
1, 67866, Note_on_c, 1, 41, 0
1, 67866, Note_on_c, 11, 41, 0
1, 67872, Note_on_c, 9, 70, 44
1, 67872, Note_on_c, 12, 53, 73
1, 67874, Control_c, 12, 10, 89
1, 67890, Note_on_c, 9, 70, 0
1, 67906, Note_on_c, 12, 53, 0
1, 67922, Control_c, 12, 10, 83
1, 67968, Note_on_c, 1, 29, 63
1, 67968, Note_on_c, 9, 38, 92
1, 67968, Note_on_c, 9, 27, 127
1, 67968, Note_on_c, 9, 45, 107
1, 67968, Note_on_c, 9, 36, 127
1, 67968, Note_on_c, 9, 42, 66
1, 67968, Note_on_c, 9, 70, 92
1, 67968, Note_on_c, 11, 29, 63
1, 67968, Note_on_c, 12, 53, 80
1, 67970, Control_c, 12, 10, 77
1, 67986, Note_on_c, 9, 70, 0
1, 67986, Note_on_c, 9, 42, 0
1, 67986, Note_on_c, 9, 45, 0
1, 67986, Note_on_c, 9, 36, 0
1, 67986, Note_on_c, 9, 27, 0
1, 67986, Note_on_c, 9, 38, 0
1, 68011, Note_on_c, 12, 53, 0
1, 68018, Control_c, 12, 10, 71
1, 68054, Control_c, 12, 6, 60
1, 68058, Note_on_c, 1, 29, 0
1, 68058, Note_on_c, 11, 29, 0
1, 68064, Note_on_c, 9, 42, 75
1, 68064, Note_on_c, 12, 53, 73
1, 68066, Control_c, 12, 10, 65
1, 68082, Note_on_c, 9, 42, 0
1, 68098, Note_on_c, 12, 53, 0
1, 68114, Control_c, 12, 10, 59
1, 68160, Note_on_c, 1, 41, 89
1, 68160, Note_on_c, 6, 48, 127
1, 68160, Note_on_c, 7, 60, 83
1, 68160, Note_on_c, 9, 46, 107
1, 68160, Note_on_c, 9, 70, 80
1, 68160, Note_on_c, 11, 41, 89
1, 68160, Note_on_c, 12, 53, 80
1, 68162, Control_c, 12, 10, 53
1, 68178, Note_on_c, 9, 70, 0
1, 68178, Note_on_c, 9, 46, 0
1, 68203, Note_on_c, 12, 53, 0
1, 68210, Control_c, 12, 10, 47
1, 68234, Control_c, 12, 6, 85
1, 68250, Note_on_c, 11, 41, 0
1, 68250, Note_on_c, 1, 41, 0
1, 68256, Note_on_c, 12, 53, 73
1, 68258, Control_c, 12, 10, 41
1, 68290, Note_on_c, 12, 53, 0
1, 68306, Control_c, 12, 10, 35
1, 68312, Note_on_c, 6, 48, 0
1, 68325, Note_on_c, 7, 60, 0
1, 68352, Note_on_c, 1, 29, 63
1, 68352, Note_on_c, 9, 27, 127
1, 68352, Note_on_c, 9, 45, 107
1, 68352, Note_on_c, 9, 36, 127
1, 68352, Note_on_c, 9, 42, 66
1, 68352, Note_on_c, 9, 70, 86
1, 68352, Note_on_c, 11, 29, 63
1, 68352, Note_on_c, 12, 53, 80
1, 68354, Control_c, 12, 10, 29
1, 68370, Note_on_c, 9, 70, 0
1, 68370, Note_on_c, 9, 42, 0
1, 68370, Note_on_c, 9, 36, 0
1, 68370, Note_on_c, 9, 45, 0
1, 68370, Note_on_c, 9, 27, 0
1, 68395, Note_on_c, 12, 53, 0
1, 68402, Control_c, 12, 10, 23
1, 68442, Note_on_c, 11, 29, 0
1, 68442, Note_on_c, 1, 29, 0
1, 68448, Note_on_c, 9, 42, 75
1, 68448, Note_on_c, 12, 53, 73
1, 68450, Control_c, 12, 10, 17
1, 68450, Control_c, 12, 6, 110
1, 68466, Note_on_c, 9, 42, 0
1, 68482, Note_on_c, 12, 53, 0
1, 68498, Control_c, 12, 10, 11
1, 68544, Note_on_c, 1, 41, 86
1, 68544, Note_on_c, 9, 46, 107
1, 68544, Note_on_c, 9, 70, 13
1, 68544, Note_on_c, 11, 41, 86
1, 68546, Control_c, 12, 10, 5
1, 68562, Note_on_c, 9, 70, 0
1, 68562, Note_on_c, 9, 46, 0
1, 68634, Note_on_c, 1, 41, 0
1, 68634, Note_on_c, 11, 41, 0
1, 68640, Note_on_c, 9, 70, 26
1, 68658, Note_on_c, 9, 70, 0
1, 68736, Note_on_c, 1, 29, 63
1, 68736, Note_on_c, 6, 48, 127
1, 68736, Note_on_c, 7, 60, 83
1, 68736, Note_on_c, 9, 38, 92
1, 68736, Note_on_c, 9, 27, 127
1, 68736, Note_on_c, 9, 45, 107
1, 68736, Note_on_c, 9, 36, 127
1, 68736, Note_on_c, 9, 42, 66
1, 68736, Note_on_c, 9, 70, 92
1, 68736, Note_on_c, 11, 29, 63
1, 68754, Note_on_c, 9, 70, 0
1, 68754, Note_on_c, 9, 36, 0
1, 68754, Note_on_c, 9, 38, 0
1, 68754, Note_on_c, 9, 45, 0
1, 68754, Note_on_c, 9, 27, 0
1, 68754, Note_on_c, 9, 42, 0
1, 68826, Note_on_c, 1, 29, 0
1, 68826, Note_on_c, 11, 29, 0
1, 68832, Note_on_c, 9, 42, 75
1, 68850, Note_on_c, 9, 42, 0
1, 68864, Note_on_c, 6, 48, 0
1, 68901, Note_on_c, 7, 60, 0
1, 68928, Note_on_c, 1, 41, 86
1, 68928, Note_on_c, 9, 46, 107
1, 68928, Note_on_c, 9, 70, 63
1, 68928, Note_on_c, 11, 41, 86
1, 68946, Note_on_c, 9, 70, 0
1, 68946, Note_on_c, 9, 46, 0
1, 69022, Note_on_c, 1, 41, 0
1, 69022, Note_on_c, 11, 41, 0
1, 69026, Control_c, 12, 6, 10
1, 69112, Note_on_c, 2, 84, 0
1, 69120, Note_on_c, 1, 29, 60
1, 69120, Note_on_c, 5, 58, 64
1, 69120, Note_on_c, 6, 53, 127
1, 69120, Note_on_c, 7, 65, 80
1, 69120, Note_on_c, 9, 27, 127
1, 69120, Note_on_c, 9, 36, 127
1, 69120, Note_on_c, 9, 45, 107
1, 69120, Note_on_c, 9, 42, 66
1, 69120, Note_on_c, 9, 70, 92
1, 69120, Note_on_c, 11, 29, 60
1, 69120, Note_on_c, 12, 53, 80
1, 69122, Control_c, 1, 10, 10
1, 69122, Pitch_bend_c, 1, 8990
1, 69122, Control_c, 5, 10, 4
1, 69132, Note_on_c, 2, 58, 75
1, 69138, Note_on_c, 9, 70, 0
1, 69138, Note_on_c, 9, 42, 0
1, 69138, Note_on_c, 9, 27, 0
1, 69138, Note_on_c, 9, 45, 0
1, 69138, Note_on_c, 9, 36, 0
1, 69162, Note_on_c, 5, 58, 0
1, 69163, Note_on_c, 12, 53, 0
1, 69170, Control_c, 12, 10, 5
1, 69207, Note_on_c, 1, 29, 0
1, 69207, Note_on_c, 11, 29, 0
1, 69216, Note_on_c, 5, 62, 64
1, 69216, Note_on_c, 9, 42, 75
1, 69216, Note_on_c, 12, 53, 73
1, 69218, Control_c, 5, 10, 10
1, 69218, Control_c, 12, 10, 13
1, 69218, Control_c, 12, 6, 25
1, 69234, Note_on_c, 9, 42, 0
1, 69250, Note_on_c, 12, 53, 0
1, 69258, Note_on_c, 5, 62, 0
1, 69266, Control_c, 12, 10, 20
1, 69285, Note_on_c, 7, 65, 0
1, 69295, Note_on_c, 6, 53, 0
1, 69312, Note_on_c, 1, 41, 92
1, 69312, Note_on_c, 5, 58, 65
1, 69312, Note_on_c, 9, 46, 107
1, 69312, Note_on_c, 11, 41, 92
1, 69312, Note_on_c, 12, 53, 80
1, 69314, Control_c, 5, 10, 15
1, 69314, Control_c, 12, 10, 27
1, 69330, Note_on_c, 9, 46, 0
1, 69354, Note_on_c, 5, 58, 0
1, 69355, Note_on_c, 12, 53, 0
1, 69362, Control_c, 12, 10, 34
1, 69386, Control_c, 12, 6, 40
1, 69402, Note_on_c, 1, 41, 0
1, 69402, Note_on_c, 11, 41, 0
1, 69408, Note_on_c, 5, 65, 80
1, 69408, Note_on_c, 9, 70, 40
1, 69408, Note_on_c, 12, 53, 73
1, 69410, Control_c, 5, 10, 20
1, 69410, Control_c, 12, 10, 41
1, 69426, Note_on_c, 9, 70, 0
1, 69442, Note_on_c, 12, 53, 0
1, 69458, Control_c, 12, 10, 49
1, 69498, Note_on_c, 5, 65, 0
1, 69504, Note_on_c, 1, 29, 66
1, 69504, Note_on_c, 5, 70, 68
1, 69504, Note_on_c, 9, 27, 127
1, 69504, Note_on_c, 9, 36, 127
1, 69504, Note_on_c, 9, 38, 107
1, 69504, Note_on_c, 9, 45, 107
1, 69504, Note_on_c, 9, 42, 66
1, 69504, Note_on_c, 9, 70, 86
1, 69504, Note_on_c, 11, 29, 66
1, 69504, Note_on_c, 12, 53, 80
1, 69506, Control_c, 5, 10, 25
1, 69506, Control_c, 12, 10, 56
1, 69522, Note_on_c, 9, 70, 0
1, 69522, Note_on_c, 9, 42, 0
1, 69522, Note_on_c, 9, 36, 0
1, 69522, Note_on_c, 9, 45, 0
1, 69522, Note_on_c, 9, 38, 0
1, 69522, Note_on_c, 9, 27, 0
1, 69547, Note_on_c, 12, 53, 0
1, 69554, Control_c, 12, 10, 63
1, 69590, Control_c, 12, 6, 60
1, 69594, Note_on_c, 11, 29, 0
1, 69594, Note_on_c, 1, 29, 0
1, 69594, Note_on_c, 5, 70, 0
1, 69600, Note_on_c, 5, 65, 59
1, 69600, Note_on_c, 9, 42, 75
1, 69600, Note_on_c, 12, 53, 73
1, 69602, Control_c, 5, 10, 30
1, 69602, Control_c, 12, 10, 70
1, 69618, Note_on_c, 9, 42, 0
1, 69634, Note_on_c, 12, 53, 0
1, 69650, Control_c, 12, 10, 77
1, 69690, Note_on_c, 5, 65, 0
1, 69696, Note_on_c, 1, 41, 92
1, 69696, Note_on_c, 5, 74, 80
1, 69696, Note_on_c, 6, 53, 127
1, 69696, Note_on_c, 7, 65, 83
1, 69696, Note_on_c, 9, 46, 92
1, 69696, Note_on_c, 9, 70, 80
1, 69696, Note_on_c, 11, 41, 92
1, 69696, Note_on_c, 12, 53, 80
1, 69698, Control_c, 5, 10, 35
1, 69698, Control_c, 12, 10, 84
1, 69714, Note_on_c, 9, 70, 0
1, 69714, Note_on_c, 9, 46, 0
1, 69739, Note_on_c, 12, 53, 0
1, 69746, Control_c, 12, 10, 92
1, 69770, Control_c, 12, 6, 85
1, 69786, Note_on_c, 1, 41, 0
1, 69786, Note_on_c, 11, 41, 0
1, 69792, Note_on_c, 5, 70, 94
1, 69792, Note_on_c, 12, 53, 73
1, 69794, Control_c, 5, 10, 40
1, 69794, Control_c, 12, 10, 99
1, 69811, Note_on_c, 5, 74, 0
1, 69826, Note_on_c, 12, 53, 0
1, 69842, Control_c, 12, 10, 106
1, 69848, Note_on_c, 6, 53, 0
1, 69861, Note_on_c, 7, 65, 0
1, 69882, Note_on_c, 5, 70, 0
1, 69888, Note_on_c, 1, 29, 66
1, 69888, Note_on_c, 5, 77, 110
1, 69888, Note_on_c, 9, 27, 127
1, 69888, Note_on_c, 9, 36, 127
1, 69888, Note_on_c, 9, 45, 107
1, 69888, Note_on_c, 9, 42, 66
1, 69888, Note_on_c, 9, 70, 92
1, 69888, Note_on_c, 11, 29, 66
1, 69888, Note_on_c, 12, 53, 80
1, 69890, Control_c, 5, 10, 45
1, 69890, Control_c, 12, 10, 113
1, 69906, Note_on_c, 9, 70, 0
1, 69906, Note_on_c, 9, 42, 0
1, 69906, Note_on_c, 9, 36, 0
1, 69906, Note_on_c, 9, 45, 0
1, 69906, Note_on_c, 9, 27, 0
1, 69931, Note_on_c, 12, 53, 0
1, 69938, Control_c, 12, 10, 120
1, 69978, Note_on_c, 11, 29, 0
1, 69978, Note_on_c, 1, 29, 0
1, 69984, Note_on_c, 5, 74, 80
1, 69984, Note_on_c, 9, 42, 75
1, 69984, Note_on_c, 12, 53, 73
1, 69986, Control_c, 5, 10, 51
1, 69986, Control_c, 12, 6, 110
1, 69990, Note_on_c, 5, 77, 0
1, 70002, Note_on_c, 9, 42, 0
1, 70018, Note_on_c, 12, 53, 0
1, 70080, Note_on_c, 1, 41, 92
1, 70080, Note_on_c, 5, 70, 94
1, 70080, Note_on_c, 9, 46, 107
1, 70080, Note_on_c, 9, 70, 20
1, 70080, Note_on_c, 11, 41, 92
1, 70082, Control_c, 5, 10, 56
1, 70098, Note_on_c, 9, 70, 0
1, 70098, Note_on_c, 9, 46, 0
1, 70099, Note_on_c, 5, 74, 0
1, 70170, Note_on_c, 1, 41, 0
1, 70170, Note_on_c, 11, 41, 0
1, 70170, Note_on_c, 5, 70, 0
1, 70176, Note_on_c, 5, 65, 59
1, 70176, Note_on_c, 9, 70, 49
1, 70178, Control_c, 5, 10, 61
1, 70194, Note_on_c, 9, 70, 0
1, 70266, Note_on_c, 5, 65, 0
1, 70272, Note_on_c, 1, 29, 66
1, 70272, Note_on_c, 5, 70, 68
1, 70272, Note_on_c, 6, 53, 127
1, 70272, Note_on_c, 7, 65, 83
1, 70272, Note_on_c, 9, 27, 127
1, 70272, Note_on_c, 9, 36, 127
1, 70272, Note_on_c, 9, 38, 107
1, 70272, Note_on_c, 9, 45, 107
1, 70272, Note_on_c, 9, 42, 66
1, 70272, Note_on_c, 9, 70, 76
1, 70272, Note_on_c, 11, 29, 66
1, 70274, Control_c, 5, 10, 66
1, 70290, Note_on_c, 9, 70, 0
1, 70290, Note_on_c, 9, 38, 0
1, 70290, Note_on_c, 9, 36, 0
1, 70290, Note_on_c, 9, 27, 0
1, 70290, Note_on_c, 9, 42, 0
1, 70290, Note_on_c, 9, 45, 0
1, 70362, Note_on_c, 5, 70, 0
1, 70362, Note_on_c, 1, 29, 0
1, 70362, Note_on_c, 11, 29, 0
1, 70368, Note_on_c, 5, 65, 80
1, 70368, Note_on_c, 9, 42, 75
1, 70370, Control_c, 5, 10, 71
1, 70386, Note_on_c, 9, 42, 0
1, 70400, Note_on_c, 6, 53, 0
1, 70437, Note_on_c, 7, 65, 0
1, 70458, Note_on_c, 5, 65, 0
1, 70464, Note_on_c, 1, 41, 89
1, 70464, Note_on_c, 5, 58, 65
1, 70464, Note_on_c, 9, 46, 107
1, 70464, Note_on_c, 9, 70, 66
1, 70464, Note_on_c, 11, 41, 89
1, 70466, Control_c, 5, 10, 76
1, 70482, Note_on_c, 9, 70, 0
1, 70482, Note_on_c, 9, 46, 0
1, 70506, Note_on_c, 5, 58, 0
1, 70558, Note_on_c, 11, 41, 0
1, 70558, Note_on_c, 1, 41, 0
1, 70560, Note_on_c, 5, 62, 64
1, 70562, Control_c, 5, 10, 81
1, 70562, Control_c, 12, 6, 10
1, 70602, Note_on_c, 5, 62, 0
1, 70656, Note_on_c, 1, 29, 63
1, 70656, Note_on_c, 5, 58, 64
1, 70656, Note_on_c, 6, 55, 127
1, 70656, Note_on_c, 7, 67, 80
1, 70656, Note_on_c, 9, 27, 127
1, 70656, Note_on_c, 9, 36, 127
1, 70656, Note_on_c, 9, 45, 107
1, 70656, Note_on_c, 9, 42, 66
1, 70656, Note_on_c, 9, 70, 92
1, 70656, Note_on_c, 11, 29, 63
1, 70656, Note_on_c, 12, 53, 80
1, 70658, Control_c, 5, 10, 86
1, 70658, Control_c, 12, 10, 125
1, 70674, Note_on_c, 9, 70, 0
1, 70674, Note_on_c, 9, 45, 0
1, 70674, Note_on_c, 9, 36, 0
1, 70674, Note_on_c, 9, 27, 0
1, 70674, Note_on_c, 9, 42, 0
1, 70698, Note_on_c, 5, 58, 0
1, 70699, Note_on_c, 12, 53, 0
1, 70706, Control_c, 12, 10, 119
1, 70743, Note_on_c, 1, 29, 0
1, 70743, Note_on_c, 11, 29, 0
1, 70752, Note_on_c, 5, 62, 64
1, 70752, Note_on_c, 9, 42, 75
1, 70752, Note_on_c, 12, 53, 73
1, 70754, Control_c, 5, 10, 92
1, 70754, Control_c, 12, 10, 113
1, 70754, Control_c, 12, 6, 25
1, 70770, Note_on_c, 9, 42, 0
1, 70786, Note_on_c, 12, 53, 0
1, 70794, Note_on_c, 5, 62, 0
1, 70802, Control_c, 12, 10, 107
1, 70821, Note_on_c, 7, 67, 0
1, 70831, Note_on_c, 6, 55, 0
1, 70848, Note_on_c, 1, 41, 89
1, 70848, Note_on_c, 5, 58, 65
1, 70848, Note_on_c, 9, 46, 107
1, 70848, Note_on_c, 11, 41, 89
1, 70848, Note_on_c, 12, 53, 80
1, 70850, Control_c, 5, 10, 97
1, 70850, Control_c, 12, 10, 101
1, 70866, Note_on_c, 9, 46, 0
1, 70890, Note_on_c, 5, 58, 0
1, 70891, Note_on_c, 12, 53, 0
1, 70898, Control_c, 12, 10, 95
1, 70922, Control_c, 12, 6, 40
1, 70938, Note_on_c, 1, 41, 0
1, 70938, Note_on_c, 11, 41, 0
1, 70944, Note_on_c, 5, 65, 80
1, 70944, Note_on_c, 9, 70, 44
1, 70944, Note_on_c, 12, 53, 73
1, 70946, Control_c, 5, 10, 102
1, 70946, Control_c, 12, 10, 89
1, 70962, Note_on_c, 9, 70, 0
1, 70978, Note_on_c, 12, 53, 0
1, 70994, Control_c, 12, 10, 83
1, 71034, Note_on_c, 5, 65, 0
1, 71040, Note_on_c, 1, 29, 63
1, 71040, Note_on_c, 5, 70, 68
1, 71040, Note_on_c, 9, 27, 127
1, 71040, Note_on_c, 9, 36, 127
1, 71040, Note_on_c, 9, 38, 107
1, 71040, Note_on_c, 9, 45, 107
1, 71040, Note_on_c, 9, 42, 66
1, 71040, Note_on_c, 9, 70, 92
1, 71040, Note_on_c, 11, 29, 63
1, 71040, Note_on_c, 12, 53, 80
1, 71042, Control_c, 5, 10, 107
1, 71042, Control_c, 12, 10, 77
1, 71058, Note_on_c, 9, 70, 0
1, 71058, Note_on_c, 9, 42, 0
1, 71058, Note_on_c, 9, 36, 0
1, 71058, Note_on_c, 9, 45, 0
1, 71058, Note_on_c, 9, 38, 0
1, 71058, Note_on_c, 9, 27, 0
1, 71083, Note_on_c, 12, 53, 0
1, 71090, Control_c, 12, 10, 71
1, 71126, Control_c, 12, 6, 60
1, 71130, Note_on_c, 11, 29, 0
1, 71130, Note_on_c, 1, 29, 0
1, 71130, Note_on_c, 5, 70, 0
1, 71136, Note_on_c, 5, 65, 59
1, 71136, Note_on_c, 9, 42, 75
1, 71136, Note_on_c, 12, 53, 73
1, 71138, Control_c, 5, 10, 112
1, 71138, Control_c, 12, 10, 65
1, 71154, Note_on_c, 9, 42, 0
1, 71170, Note_on_c, 12, 53, 0
1, 71186, Control_c, 12, 10, 59
1, 71226, Note_on_c, 5, 65, 0
1, 71232, Note_on_c, 1, 41, 89
1, 71232, Note_on_c, 5, 74, 80
1, 71232, Note_on_c, 6, 55, 127
1, 71232, Note_on_c, 7, 67, 83
1, 71232, Note_on_c, 9, 46, 107
1, 71232, Note_on_c, 9, 70, 80
1, 71232, Note_on_c, 11, 41, 89
1, 71232, Note_on_c, 12, 53, 80
1, 71234, Control_c, 5, 10, 117
1, 71234, Control_c, 12, 10, 53
1, 71250, Note_on_c, 9, 70, 0
1, 71250, Note_on_c, 9, 46, 0
1, 71275, Note_on_c, 12, 53, 0
1, 71282, Control_c, 12, 10, 47
1, 71306, Control_c, 12, 6, 85
1, 71322, Note_on_c, 1, 41, 0
1, 71322, Note_on_c, 11, 41, 0
1, 71328, Note_on_c, 5, 70, 94
1, 71328, Note_on_c, 12, 53, 73
1, 71330, Control_c, 5, 10, 122
1, 71330, Control_c, 12, 10, 41
1, 71347, Note_on_c, 5, 74, 0
1, 71362, Note_on_c, 12, 53, 0
1, 71378, Control_c, 12, 10, 35
1, 71384, Note_on_c, 6, 55, 0
1, 71397, Note_on_c, 7, 67, 0
1, 71418, Note_on_c, 5, 70, 0
1, 71424, Note_on_c, 1, 29, 63
1, 71424, Note_on_c, 5, 77, 110
1, 71424, Note_on_c, 9, 27, 127
1, 71424, Note_on_c, 9, 36, 127
1, 71424, Note_on_c, 9, 45, 107
1, 71424, Note_on_c, 9, 42, 66
1, 71424, Note_on_c, 9, 70, 86
1, 71424, Note_on_c, 11, 29, 63
1, 71424, Note_on_c, 12, 53, 80
1, 71426, Control_c, 12, 10, 29
1, 71442, Note_on_c, 9, 70, 0
1, 71442, Note_on_c, 9, 42, 0
1, 71442, Note_on_c, 9, 36, 0
1, 71442, Note_on_c, 9, 45, 0
1, 71442, Note_on_c, 9, 27, 0
1, 71467, Note_on_c, 12, 53, 0
1, 71474, Control_c, 12, 10, 23
1, 71514, Note_on_c, 11, 29, 0
1, 71514, Note_on_c, 1, 29, 0
1, 71520, Note_on_c, 5, 74, 80
1, 71520, Note_on_c, 9, 42, 75
1, 71520, Note_on_c, 12, 53, 73
1, 71522, Control_c, 5, 10, 125
1, 71522, Control_c, 12, 10, 17
1, 71522, Control_c, 12, 6, 110
1, 71526, Note_on_c, 5, 77, 0
1, 71538, Note_on_c, 9, 42, 0
1, 71554, Note_on_c, 12, 53, 0
1, 71570, Control_c, 12, 10, 11
1, 71616, Note_on_c, 1, 41, 86
1, 71616, Note_on_c, 5, 70, 94
1, 71616, Note_on_c, 9, 46, 107
1, 71616, Note_on_c, 9, 70, 13
1, 71616, Note_on_c, 11, 41, 86
1, 71618, Control_c, 5, 10, 117
1, 71618, Control_c, 12, 10, 5
1, 71634, Note_on_c, 9, 70, 0
1, 71634, Note_on_c, 9, 46, 0
1, 71635, Note_on_c, 5, 74, 0
1, 71706, Note_on_c, 1, 41, 0
1, 71706, Note_on_c, 11, 41, 0
1, 71706, Note_on_c, 5, 70, 0
1, 71712, Note_on_c, 5, 65, 59
1, 71712, Note_on_c, 9, 70, 26
1, 71714, Control_c, 5, 10, 110
1, 71730, Note_on_c, 9, 70, 0
1, 71802, Note_on_c, 5, 65, 0
1, 71808, Note_on_c, 1, 29, 63
1, 71808, Note_on_c, 5, 70, 68
1, 71808, Note_on_c, 6, 55, 127
1, 71808, Note_on_c, 7, 67, 83
1, 71808, Note_on_c, 9, 27, 127
1, 71808, Note_on_c, 9, 36, 127
1, 71808, Note_on_c, 9, 38, 107
1, 71808, Note_on_c, 9, 45, 107
1, 71808, Note_on_c, 9, 42, 66
1, 71808, Note_on_c, 9, 70, 92
1, 71808, Note_on_c, 11, 29, 63
1, 71810, Control_c, 5, 10, 102
1, 71826, Note_on_c, 9, 70, 0
1, 71826, Note_on_c, 9, 38, 0
1, 71826, Note_on_c, 9, 36, 0
1, 71826, Note_on_c, 9, 27, 0
1, 71826, Note_on_c, 9, 42, 0
1, 71826, Note_on_c, 9, 45, 0
1, 71898, Note_on_c, 5, 70, 0
1, 71898, Note_on_c, 1, 29, 0
1, 71898, Note_on_c, 11, 29, 0
1, 71904, Note_on_c, 5, 65, 80
1, 71904, Note_on_c, 9, 42, 75
1, 71906, Control_c, 5, 10, 95
1, 71922, Note_on_c, 9, 42, 0
1, 71936, Note_on_c, 6, 55, 0
1, 71973, Note_on_c, 7, 67, 0
1, 71994, Note_on_c, 5, 65, 0
1, 72000, Note_on_c, 1, 41, 86
1, 72000, Note_on_c, 5, 58, 65
1, 72000, Note_on_c, 9, 46, 107
1, 72000, Note_on_c, 9, 70, 63
1, 72000, Note_on_c, 11, 41, 86
1, 72002, Control_c, 5, 10, 87
1, 72018, Note_on_c, 9, 70, 0
1, 72018, Note_on_c, 9, 46, 0
1, 72042, Note_on_c, 5, 58, 0
1, 72094, Note_on_c, 11, 41, 0
1, 72094, Note_on_c, 1, 41, 0
1, 72096, Note_on_c, 5, 62, 64
1, 72098, Control_c, 5, 10, 80
1, 72098, Control_c, 12, 6, 10
1, 72138, Note_on_c, 5, 62, 0
1, 72192, Note_on_c, 1, 29, 60
1, 72192, Note_on_c, 5, 58, 64
1, 72192, Note_on_c, 6, 58, 127
1, 72192, Note_on_c, 7, 70, 80
1, 72192, Note_on_c, 9, 27, 127
1, 72192, Note_on_c, 9, 36, 127
1, 72192, Note_on_c, 9, 45, 107
1, 72192, Note_on_c, 9, 42, 66
1, 72192, Note_on_c, 9, 70, 92
1, 72192, Note_on_c, 11, 29, 60
1, 72192, Note_on_c, 12, 53, 80
1, 72194, Control_c, 5, 10, 72
1, 72210, Note_on_c, 9, 70, 0
1, 72210, Note_on_c, 9, 45, 0
1, 72210, Note_on_c, 9, 36, 0
1, 72210, Note_on_c, 9, 27, 0
1, 72210, Note_on_c, 9, 42, 0
1, 72234, Note_on_c, 5, 58, 0
1, 72235, Note_on_c, 12, 53, 0
1, 72242, Control_c, 12, 10, 5
1, 72279, Note_on_c, 1, 29, 0
1, 72279, Note_on_c, 11, 29, 0
1, 72288, Note_on_c, 5, 62, 64
1, 72288, Note_on_c, 9, 42, 75
1, 72288, Note_on_c, 12, 53, 73
1, 72290, Control_c, 5, 10, 65
1, 72290, Control_c, 12, 10, 13
1, 72290, Control_c, 12, 6, 25
1, 72306, Note_on_c, 9, 42, 0
1, 72322, Note_on_c, 12, 53, 0
1, 72330, Note_on_c, 5, 62, 0
1, 72338, Control_c, 12, 10, 20
1, 72357, Note_on_c, 7, 70, 0
1, 72367, Note_on_c, 6, 58, 0
1, 72384, Note_on_c, 1, 41, 92
1, 72384, Note_on_c, 5, 58, 65
1, 72384, Note_on_c, 9, 46, 107
1, 72384, Note_on_c, 11, 41, 92
1, 72384, Note_on_c, 12, 53, 80
1, 72386, Control_c, 5, 10, 57
1, 72386, Control_c, 12, 10, 27
1, 72402, Note_on_c, 9, 46, 0
1, 72426, Note_on_c, 5, 58, 0
1, 72427, Note_on_c, 12, 53, 0
1, 72434, Control_c, 12, 10, 34
1, 72458, Control_c, 12, 6, 40
1, 72474, Note_on_c, 1, 41, 0
1, 72474, Note_on_c, 11, 41, 0
1, 72480, Note_on_c, 5, 65, 80
1, 72480, Note_on_c, 9, 70, 40
1, 72480, Note_on_c, 12, 53, 73
1, 72482, Control_c, 5, 10, 50
1, 72482, Control_c, 12, 10, 41
1, 72498, Note_on_c, 9, 70, 0
1, 72514, Note_on_c, 12, 53, 0
1, 72530, Control_c, 12, 10, 49
1, 72570, Note_on_c, 5, 65, 0
1, 72576, Note_on_c, 1, 29, 66
1, 72576, Note_on_c, 5, 70, 68
1, 72576, Note_on_c, 9, 27, 127
1, 72576, Note_on_c, 9, 36, 127
1, 72576, Note_on_c, 9, 38, 107
1, 72576, Note_on_c, 9, 45, 107
1, 72576, Note_on_c, 9, 42, 66
1, 72576, Note_on_c, 9, 70, 86
1, 72576, Note_on_c, 11, 29, 66
1, 72576, Note_on_c, 12, 53, 80
1, 72578, Control_c, 5, 10, 42
1, 72578, Control_c, 12, 10, 56
1, 72594, Note_on_c, 9, 70, 0
1, 72594, Note_on_c, 9, 42, 0
1, 72594, Note_on_c, 9, 36, 0
1, 72594, Note_on_c, 9, 45, 0
1, 72594, Note_on_c, 9, 38, 0
1, 72594, Note_on_c, 9, 27, 0
1, 72619, Note_on_c, 12, 53, 0
1, 72626, Control_c, 12, 10, 63
1, 72662, Control_c, 12, 6, 60
1, 72666, Note_on_c, 11, 29, 0
1, 72666, Note_on_c, 1, 29, 0
1, 72666, Note_on_c, 5, 70, 0
1, 72672, Note_on_c, 5, 65, 59
1, 72672, Note_on_c, 9, 42, 75
1, 72672, Note_on_c, 12, 53, 73
1, 72674, Control_c, 5, 10, 34
1, 72674, Control_c, 12, 10, 70
1, 72690, Note_on_c, 9, 42, 0
1, 72706, Note_on_c, 12, 53, 0
1, 72722, Control_c, 12, 10, 77
1, 72762, Note_on_c, 5, 65, 0
1, 72768, Note_on_c, 1, 41, 92
1, 72768, Note_on_c, 5, 74, 80
1, 72768, Note_on_c, 6, 58, 127
1, 72768, Note_on_c, 7, 70, 83
1, 72768, Note_on_c, 9, 46, 92
1, 72768, Note_on_c, 9, 70, 80
1, 72768, Note_on_c, 11, 41, 92
1, 72768, Note_on_c, 12, 53, 80
1, 72770, Control_c, 5, 10, 27
1, 72770, Control_c, 12, 10, 84
1, 72786, Note_on_c, 9, 70, 0
1, 72786, Note_on_c, 9, 46, 0
1, 72811, Note_on_c, 12, 53, 0
1, 72818, Control_c, 12, 10, 92
1, 72842, Control_c, 12, 6, 85
1, 72858, Note_on_c, 1, 41, 0
1, 72858, Note_on_c, 11, 41, 0
1, 72864, Note_on_c, 5, 70, 94
1, 72864, Note_on_c, 12, 53, 73
1, 72866, Control_c, 5, 10, 19
1, 72866, Control_c, 12, 10, 99
1, 72883, Note_on_c, 5, 74, 0
1, 72898, Note_on_c, 12, 53, 0
1, 72914, Control_c, 12, 10, 106
1, 72920, Note_on_c, 6, 58, 0
1, 72933, Note_on_c, 7, 70, 0
1, 72954, Note_on_c, 5, 70, 0
1, 72960, Note_on_c, 1, 29, 66
1, 72960, Note_on_c, 5, 77, 110
1, 72960, Note_on_c, 9, 27, 127
1, 72960, Note_on_c, 9, 36, 127
1, 72960, Note_on_c, 9, 45, 107
1, 72960, Note_on_c, 9, 42, 66
1, 72960, Note_on_c, 9, 70, 92
1, 72960, Note_on_c, 11, 29, 66
1, 72960, Note_on_c, 12, 53, 80
1, 72962, Control_c, 5, 10, 12
1, 72962, Control_c, 12, 10, 113
1, 72978, Note_on_c, 9, 70, 0
1, 72978, Note_on_c, 9, 42, 0
1, 72978, Note_on_c, 9, 36, 0
1, 72978, Note_on_c, 9, 45, 0
1, 72978, Note_on_c, 9, 27, 0
1, 73003, Note_on_c, 12, 53, 0
1, 73010, Control_c, 12, 10, 120
1, 73050, Note_on_c, 11, 29, 0
1, 73050, Note_on_c, 1, 29, 0
1, 73050, Control_c, 2, 121, 0
1, 73056, Note_on_c, 5, 74, 80
1, 73056, Note_on_c, 9, 42, 75
1, 73056, Note_on_c, 12, 53, 73
1, 73058, Control_c, 5, 10, 26
1, 73058, Control_c, 12, 6, 110
1, 73062, Note_on_c, 5, 77, 0
1, 73074, Note_on_c, 9, 42, 0
1, 73090, Note_on_c, 12, 53, 0
1, 73152, Note_on_c, 1, 41, 92
1, 73152, Note_on_c, 5, 70, 94
1, 73152, Note_on_c, 9, 46, 107
1, 73152, Note_on_c, 9, 70, 20
1, 73152, Note_on_c, 11, 41, 92
1, 73154, Control_c, 5, 10, 39
1, 73170, Note_on_c, 9, 70, 0
1, 73170, Note_on_c, 9, 46, 0
1, 73171, Note_on_c, 5, 74, 0
1, 73242, Note_on_c, 1, 41, 0
1, 73242, Note_on_c, 11, 41, 0
1, 73242, Note_on_c, 5, 70, 0
1, 73242, Control_c, 2, 0, 0
1, 73242, Control_c, 2, 32, 0
1, 73242, Program_c, 2, 48
1, 73248, Note_on_c, 5, 65, 59
1, 73248, Note_on_c, 9, 70, 49
1, 73250, Control_c, 5, 10, 53
1, 73266, Note_on_c, 9, 70, 0
1, 73306, Control_c, 2, 11, 125
1, 73338, Note_on_c, 5, 65, 0
1, 73338, Control_c, 2, 7, 120
1, 73344, Note_on_c, 1, 29, 66
1, 73344, Note_on_c, 5, 70, 68
1, 73344, Note_on_c, 6, 58, 127
1, 73344, Note_on_c, 7, 70, 83
1, 73344, Note_on_c, 9, 27, 127
1, 73344, Note_on_c, 9, 36, 127
1, 73344, Note_on_c, 9, 38, 107
1, 73344, Note_on_c, 9, 45, 107
1, 73344, Note_on_c, 9, 42, 66
1, 73344, Note_on_c, 9, 70, 76
1, 73344, Note_on_c, 11, 29, 66
1, 73346, Control_c, 4, 7, 80
1, 73346, Control_c, 5, 10, 67
1, 73362, Note_on_c, 9, 70, 0
1, 73362, Note_on_c, 9, 38, 0
1, 73362, Note_on_c, 9, 36, 0
1, 73362, Note_on_c, 9, 27, 0
1, 73362, Note_on_c, 9, 42, 0
1, 73362, Note_on_c, 9, 45, 0
1, 73378, Control_c, 2, 11, 127
1, 73434, Note_on_c, 5, 70, 0
1, 73434, Note_on_c, 1, 29, 0
1, 73434, Note_on_c, 11, 29, 0
1, 73434, Control_c, 2, 91, 105
1, 73440, Note_on_c, 5, 65, 80
1, 73440, Note_on_c, 9, 42, 75
1, 73442, Control_c, 4, 91, 105
1, 73442, Control_c, 5, 10, 81
1, 73458, Note_on_c, 9, 42, 0
1, 73472, Note_on_c, 6, 58, 0
1, 73509, Note_on_c, 7, 70, 0
1, 73530, Note_on_c, 5, 65, 0
1, 73530, Control_c, 2, 93, 127
1, 73536, Note_on_c, 1, 41, 89
1, 73536, Note_on_c, 5, 58, 65
1, 73536, Note_on_c, 9, 46, 107
1, 73536, Note_on_c, 9, 70, 66
1, 73536, Note_on_c, 11, 41, 89
1, 73538, Control_c, 5, 10, 95
1, 73554, Note_on_c, 9, 70, 0
1, 73554, Note_on_c, 9, 46, 0
1, 73578, Note_on_c, 5, 58, 0
1, 73626, Control_c, 2, 10, 76
1, 73630, Note_on_c, 11, 41, 0
1, 73630, Note_on_c, 1, 41, 0
1, 73632, Note_on_c, 5, 62, 64
1, 73634, Control_c, 5, 10, 109
1, 73634, Control_c, 12, 6, 10
1, 73674, Note_on_c, 5, 62, 0
1, 73722, Note_on_c, 2, 58, 0
1, 73722, Note_on_c, 2, 60, 0
1, 73728, Note_on_c, 1, 31, 63
1, 73728, Note_on_c, 2, 55, 75
1, 73728, Note_on_c, 2, 62, 75
1, 73728, Note_on_c, 2, 70, 75
1, 73728, Note_on_c, 3, 70, 95
1, 73728, Note_on_c, 5, 70, 68
1, 73728, Note_on_c, 5, 62, 68
1, 73728, Note_on_c, 6, 58, 127
1, 73728, Note_on_c, 7, 70, 80
1, 73728, Note_on_c, 9, 27, 127
1, 73728, Note_on_c, 9, 36, 127
1, 73728, Note_on_c, 9, 45, 107
1, 73728, Note_on_c, 9, 42, 66
1, 73728, Note_on_c, 9, 70, 92
1, 73728, Note_on_c, 11, 31, 63
1, 73728, Note_on_c, 12, 53, 80
1, 73730, Control_c, 5, 10, 123
1, 73730, Control_c, 12, 10, 125
1, 73746, Note_on_c, 9, 70, 0
1, 73746, Note_on_c, 9, 42, 0
1, 73746, Note_on_c, 9, 27, 0
1, 73746, Note_on_c, 9, 45, 0
1, 73746, Note_on_c, 9, 36, 0
1, 73771, Note_on_c, 12, 53, 0
1, 73775, Note_on_c, 5, 70, 0
1, 73778, Control_c, 12, 10, 119
1, 73781, Note_on_c, 5, 62, 0
1, 73815, Note_on_c, 11, 31, 0
1, 73815, Note_on_c, 1, 31, 0
1, 73824, Note_on_c, 5, 70, 53
1, 73824, Note_on_c, 5, 62, 53
1, 73824, Note_on_c, 9, 42, 75
1, 73824, Note_on_c, 12, 53, 73
1, 73826, Control_c, 5, 10, 114
1, 73826, Control_c, 12, 10, 113
1, 73826, Control_c, 12, 6, 25
1, 73842, Note_on_c, 9, 42, 0
1, 73858, Note_on_c, 12, 53, 0
1, 73871, Note_on_c, 5, 70, 0
1, 73874, Control_c, 12, 10, 107
1, 73877, Note_on_c, 5, 62, 0
1, 73893, Note_on_c, 7, 70, 0
1, 73903, Note_on_c, 6, 58, 0
1, 73920, Note_on_c, 1, 43, 89
1, 73920, Note_on_c, 5, 70, 104
1, 73920, Note_on_c, 5, 62, 53
1, 73920, Note_on_c, 9, 46, 107
1, 73920, Note_on_c, 11, 43, 89
1, 73920, Note_on_c, 12, 53, 80
1, 73922, Control_c, 5, 10, 106
1, 73922, Control_c, 12, 10, 101
1, 73938, Note_on_c, 9, 46, 0
1, 73963, Note_on_c, 12, 53, 0
1, 73967, Note_on_c, 5, 70, 0
1, 73970, Control_c, 12, 10, 95
1, 73973, Note_on_c, 5, 62, 0
1, 73994, Control_c, 12, 6, 40
1, 74010, Note_on_c, 11, 43, 0
1, 74010, Note_on_c, 1, 43, 0
1, 74016, Note_on_c, 5, 70, 59
1, 74016, Note_on_c, 5, 62, 35
1, 74016, Note_on_c, 9, 70, 44
1, 74016, Note_on_c, 12, 53, 73
1, 74018, Control_c, 5, 10, 99
1, 74018, Control_c, 12, 10, 89
1, 74034, Note_on_c, 9, 70, 0
1, 74050, Note_on_c, 12, 53, 0
1, 74063, Note_on_c, 5, 70, 0
1, 74066, Control_c, 12, 10, 83
1, 74069, Note_on_c, 5, 62, 0
1, 74112, Note_on_c, 1, 31, 63
1, 74112, Note_on_c, 5, 70, 44
1, 74112, Note_on_c, 5, 62, 89
1, 74112, Note_on_c, 9, 27, 127
1, 74112, Note_on_c, 9, 36, 127
1, 74112, Note_on_c, 9, 38, 107
1, 74112, Note_on_c, 9, 45, 107
1, 74112, Note_on_c, 9, 42, 66
1, 74112, Note_on_c, 9, 70, 92
1, 74112, Note_on_c, 11, 31, 63
1, 74112, Note_on_c, 12, 53, 80
1, 74114, Control_c, 5, 10, 91
1, 74114, Control_c, 12, 10, 77
1, 74130, Note_on_c, 9, 70, 0
1, 74130, Note_on_c, 9, 36, 0
1, 74130, Note_on_c, 9, 27, 0
1, 74130, Note_on_c, 9, 42, 0
1, 74130, Note_on_c, 9, 38, 0
1, 74130, Note_on_c, 9, 45, 0
1, 74155, Note_on_c, 12, 53, 0
1, 74159, Note_on_c, 5, 70, 0
1, 74162, Control_c, 12, 10, 71
1, 74165, Note_on_c, 5, 62, 0
1, 74198, Control_c, 12, 6, 60
1, 74202, Note_on_c, 11, 31, 0
1, 74202, Note_on_c, 1, 31, 0
1, 74208, Note_on_c, 5, 70, 50
1, 74208, Note_on_c, 5, 62, 63
1, 74208, Note_on_c, 9, 42, 75
1, 74208, Note_on_c, 12, 53, 73
1, 74210, Control_c, 5, 10, 83
1, 74210, Control_c, 12, 10, 65
1, 74226, Note_on_c, 9, 42, 0
1, 74242, Note_on_c, 12, 53, 0
1, 74255, Note_on_c, 5, 70, 0
1, 74258, Control_c, 12, 10, 59
1, 74261, Note_on_c, 5, 62, 0
1, 74304, Note_on_c, 1, 43, 89
1, 74304, Note_on_c, 5, 70, 89
1, 74304, Note_on_c, 5, 62, 82
1, 74304, Note_on_c, 6, 58, 127
1, 74304, Note_on_c, 7, 70, 83
1, 74304, Note_on_c, 9, 46, 107
1, 74304, Note_on_c, 9, 70, 80
1, 74304, Note_on_c, 11, 43, 89
1, 74304, Note_on_c, 12, 53, 80
1, 74306, Control_c, 5, 10, 76
1, 74306, Control_c, 12, 10, 53
1, 74312, Control_c, 2, 64, 127
1, 74312, Control_c, 2, 64, 127
1, 74314, Control_c, 2, 64, 127
1, 74315, Control_c, 2, 64, 127
1, 74316, Control_c, 2, 64, 127
1, 74316, Control_c, 2, 64, 127
1, 74316, Control_c, 2, 64, 127
1, 74316, Control_c, 2, 64, 127
1, 74316, Control_c, 2, 64, 127
1, 74316, Control_c, 2, 64, 127
1, 74316, Control_c, 2, 64, 127
1, 74316, Control_c, 2, 64, 127
1, 74316, Control_c, 2, 64, 127
1, 74316, Control_c, 2, 64, 127
1, 74316, Control_c, 2, 64, 127
1, 74322, Note_on_c, 9, 70, 0
1, 74322, Note_on_c, 9, 46, 0
1, 74347, Note_on_c, 12, 53, 0
1, 74351, Note_on_c, 5, 70, 0
1, 74354, Control_c, 12, 10, 47
1, 74357, Note_on_c, 5, 62, 0
1, 74378, Control_c, 12, 6, 85
1, 74394, Note_on_c, 1, 43, 0
1, 74394, Note_on_c, 11, 43, 0
1, 74400, Note_on_c, 5, 70, 53
1, 74400, Note_on_c, 5, 62, 41
1, 74400, Note_on_c, 12, 53, 73
1, 74402, Control_c, 5, 10, 68
1, 74402, Control_c, 12, 10, 41
1, 74432, Control_c, 2, 64, 0
1, 74432, Control_c, 2, 64, 0
1, 74432, Control_c, 2, 64, 0
1, 74432, Control_c, 2, 64, 0
1, 74432, Control_c, 2, 64, 0
1, 74432, Control_c, 2, 64, 0
1, 74432, Control_c, 2, 64, 0
1, 74432, Control_c, 2, 64, 0
1, 74432, Control_c, 2, 64, 0
1, 74432, Control_c, 2, 64, 0
1, 74432, Control_c, 2, 64, 0
1, 74432, Control_c, 2, 64, 0
1, 74432, Control_c, 2, 64, 0
1, 74432, Control_c, 2, 64, 0
1, 74432, Control_c, 2, 64, 0
1, 74434, Note_on_c, 12, 53, 0
1, 74447, Note_on_c, 5, 70, 0
1, 74450, Control_c, 12, 10, 35
1, 74453, Note_on_c, 5, 62, 0
1, 74456, Note_on_c, 6, 58, 0
1, 74469, Note_on_c, 7, 70, 0
1, 74490, Note_on_c, 2, 55, 0
1, 74490, Note_on_c, 2, 70, 0
1, 74490, Note_on_c, 2, 65, 0
1, 74490, Note_on_c, 2, 62, 0
1, 74496, Note_on_c, 1, 33, 63
1, 74496, Note_on_c, 2, 57, 70
1, 74496, Note_on_c, 2, 65, 70
1, 74496, Note_on_c, 2, 72, 70
1, 74496, Note_on_c, 3, 69, 82
1, 74496, Note_on_c, 5, 60, 68
1, 74496, Note_on_c, 5, 69, 68
1, 74496, Note_on_c, 9, 27, 127
1, 74496, Note_on_c, 9, 36, 127
1, 74496, Note_on_c, 9, 45, 107
1, 74496, Note_on_c, 9, 42, 66
1, 74496, Note_on_c, 9, 70, 86
1, 74496, Note_on_c, 11, 33, 63
1, 74496, Note_on_c, 12, 53, 80
1, 74498, Control_c, 5, 10, 61
1, 74498, Control_c, 12, 10, 29
1, 74514, Note_on_c, 9, 70, 0
1, 74514, Note_on_c, 9, 36, 0
1, 74514, Note_on_c, 9, 27, 0
1, 74514, Note_on_c, 9, 42, 0
1, 74514, Note_on_c, 9, 45, 0
1, 74525, Note_on_c, 3, 70, 0
1, 74539, Note_on_c, 12, 53, 0
1, 74543, Note_on_c, 5, 69, 0
1, 74546, Control_c, 12, 10, 23
1, 74549, Note_on_c, 5, 60, 0
1, 74586, Note_on_c, 1, 33, 0
1, 74586, Note_on_c, 11, 33, 0
1, 74592, Note_on_c, 5, 60, 53
1, 74592, Note_on_c, 5, 69, 53
1, 74592, Note_on_c, 9, 42, 75
1, 74592, Note_on_c, 12, 53, 73
1, 74594, Control_c, 5, 10, 53
1, 74594, Control_c, 12, 10, 17
1, 74594, Control_c, 12, 6, 110
1, 74610, Note_on_c, 9, 42, 0
1, 74626, Note_on_c, 12, 53, 0
1, 74639, Note_on_c, 5, 69, 0
1, 74642, Control_c, 12, 10, 11
1, 74645, Note_on_c, 5, 60, 0
1, 74688, Note_on_c, 1, 45, 86
1, 74688, Note_on_c, 5, 60, 53
1, 74688, Note_on_c, 5, 69, 104
1, 74688, Note_on_c, 9, 27, 99
1, 74688, Note_on_c, 9, 36, 99
1, 74688, Note_on_c, 9, 45, 79
1, 74688, Note_on_c, 9, 46, 107
1, 74688, Note_on_c, 9, 70, 13
1, 74688, Note_on_c, 11, 45, 86
1, 74690, Control_c, 5, 10, 45
1, 74690, Control_c, 12, 10, 5
1, 74706, Note_on_c, 9, 70, 0
1, 74706, Note_on_c, 9, 45, 0
1, 74706, Note_on_c, 9, 36, 0
1, 74706, Note_on_c, 9, 27, 0
1, 74706, Note_on_c, 9, 46, 0
1, 74735, Note_on_c, 5, 69, 0
1, 74741, Note_on_c, 5, 60, 0
1, 74778, Note_on_c, 11, 45, 0
1, 74778, Note_on_c, 1, 45, 0
1, 74784, Note_on_c, 5, 60, 35
1, 74784, Note_on_c, 5, 69, 59
1, 74784, Note_on_c, 9, 27, 123
1, 74784, Note_on_c, 9, 36, 123
1, 74784, Note_on_c, 9, 45, 103
1, 74784, Note_on_c, 9, 70, 26
1, 74786, Control_c, 5, 10, 38
1, 74802, Note_on_c, 9, 70, 0
1, 74802, Note_on_c, 9, 45, 0
1, 74802, Note_on_c, 9, 27, 0
1, 74802, Note_on_c, 9, 36, 0
1, 74831, Note_on_c, 5, 69, 0
1, 74837, Note_on_c, 5, 60, 0
1, 74880, Note_on_c, 1, 33, 63
1, 74880, Note_on_c, 5, 60, 89
1, 74880, Note_on_c, 5, 69, 44
1, 74880, Note_on_c, 6, 57, 127
1, 74880, Note_on_c, 7, 69, 83
1, 74880, Note_on_c, 9, 27, 127
1, 74880, Note_on_c, 9, 36, 127
1, 74880, Note_on_c, 9, 45, 107
1, 74880, Note_on_c, 9, 42, 66
1, 74880, Note_on_c, 9, 70, 92
1, 74880, Note_on_c, 11, 33, 63
1, 74882, Control_c, 5, 10, 30
1, 74898, Note_on_c, 9, 70, 0
1, 74898, Note_on_c, 9, 27, 0
1, 74898, Note_on_c, 9, 42, 0
1, 74898, Note_on_c, 9, 36, 0
1, 74898, Note_on_c, 9, 45, 0
1, 74927, Note_on_c, 5, 69, 0
1, 74933, Note_on_c, 5, 60, 0
1, 74970, Note_on_c, 11, 33, 0
1, 74970, Note_on_c, 1, 33, 0
1, 74976, Note_on_c, 5, 60, 63
1, 74976, Note_on_c, 5, 69, 50
1, 74976, Note_on_c, 9, 42, 75
1, 74978, Control_c, 5, 10, 22
1, 74994, Note_on_c, 9, 42, 0
1, 75008, Note_on_c, 6, 57, 0
1, 75023, Note_on_c, 5, 69, 0
1, 75029, Note_on_c, 5, 60, 0
1, 75035, Note_on_c, 3, 69, 0
1, 75045, Note_on_c, 7, 69, 0
1, 75072, Note_on_c, 1, 45, 86
1, 75072, Note_on_c, 5, 60, 82
1, 75072, Note_on_c, 5, 69, 89
1, 75072, Note_on_c, 9, 27, 127
1, 75072, Note_on_c, 9, 36, 127
1, 75072, Note_on_c, 9, 45, 107
1, 75072, Note_on_c, 9, 46, 107
1, 75072, Note_on_c, 9, 70, 63
1, 75072, Note_on_c, 11, 45, 86
1, 75074, Control_c, 5, 10, 15
1, 75090, Note_on_c, 9, 70, 0
1, 75090, Note_on_c, 9, 46, 0
1, 75090, Note_on_c, 9, 36, 0
1, 75090, Note_on_c, 9, 27, 0
1, 75090, Note_on_c, 9, 45, 0
1, 75119, Note_on_c, 5, 69, 0
1, 75125, Note_on_c, 5, 60, 0
1, 75166, Note_on_c, 1, 45, 0
1, 75166, Note_on_c, 11, 45, 0
1, 75168, Note_on_c, 5, 60, 41
1, 75168, Note_on_c, 5, 69, 53
1, 75170, Control_c, 5, 10, 5
1, 75170, Control_c, 12, 6, 10
1, 75208, Note_on_c, 2, 65, 0
1, 75214, Note_on_c, 2, 65, 61
1, 75215, Note_on_c, 5, 69, 0
1, 75216, Note_on_c, 2, 46, 61
1, 75216, Note_on_c, 2, 58, 61
1, 75216, Note_on_c, 2, 62, 61
1, 75221, Note_on_c, 5, 60, 0
1, 75258, Note_on_c, 2, 72, 0
1, 75258, Note_on_c, 2, 57, 0
1, 75264, Note_on_c, 3, 65, 76
1, 75264, Note_on_c, 4, 89, 113
1, 75264, Note_on_c, 5, 58, 71
1, 75264, Note_on_c, 5, 65, 71
1, 75264, Note_on_c, 9, 27, 127
1, 75264, Note_on_c, 9, 36, 127
1, 75264, Note_on_c, 9, 45, 107
1, 75264, Note_on_c, 11, 58, 71
1, 75264, Note_on_c, 11, 65, 71
1, 75266, Control_c, 5, 10, 19
1, 75266, Pitch_bend_c, 5, 8192
1, 75266, Control_c, 5, 11, 111
1, 75266, Control_c, 6, 11, 127
1, 75266, Pitch_bend_c, 7, 8192
1, 75266, Control_c, 11, 10, 111
1, 75266, Pitch_bend_c, 11, 7192
1, 75266, Control_c, 11, 11, 86
1, 75267, Pitch_bend_c, 1, 8192
1, 75282, Note_on_c, 9, 45, 0
1, 75282, Note_on_c, 9, 36, 0
1, 75282, Note_on_c, 9, 27, 0
1, 75298, Note_on_c, 5, 58, 0
1, 75298, Note_on_c, 11, 58, 0
1, 75302, Note_on_c, 5, 65, 0
1, 75302, Note_on_c, 11, 65, 0
1, 75360, Note_on_c, 5, 58, 86
1, 75360, Note_on_c, 5, 65, 86
1, 75360, Note_on_c, 11, 58, 86
1, 75360, Note_on_c, 11, 65, 86
1, 75378, Note_on_c, 4, 89, 0
1, 75394, Note_on_c, 11, 58, 0
1, 75394, Note_on_c, 5, 58, 0
1, 75398, Note_on_c, 5, 65, 0
1, 75398, Note_on_c, 11, 65, 0
1, 75456, Note_on_c, 4, 86, 113
1, 75456, Note_on_c, 5, 58, 92
1, 75456, Note_on_c, 5, 65, 92
1, 75456, Note_on_c, 6, 65, 127
1, 75456, Note_on_c, 11, 58, 92
1, 75456, Note_on_c, 11, 65, 92
1, 75498, Note_on_c, 11, 65, 0
1, 75498, Note_on_c, 5, 58, 0
1, 75498, Note_on_c, 11, 58, 0
1, 75498, Note_on_c, 5, 65, 0
1, 75552, Note_on_c, 5, 58, 53
1, 75552, Note_on_c, 5, 65, 53
1, 75552, Note_on_c, 11, 58, 53
1, 75552, Note_on_c, 11, 65, 53
1, 75586, Note_on_c, 11, 58, 0
1, 75586, Note_on_c, 5, 58, 0
1, 75590, Note_on_c, 5, 65, 0
1, 75590, Note_on_c, 11, 65, 0
1, 75615, Note_on_c, 4, 86, 0
1, 75627, Note_on_c, 6, 65, 0
1, 75648, Note_on_c, 4, 82, 113
1, 75648, Note_on_c, 5, 58, 71
1, 75648, Note_on_c, 5, 65, 71
1, 75648, Note_on_c, 11, 58, 71
1, 75648, Note_on_c, 11, 65, 71
1, 75682, Note_on_c, 11, 58, 0
1, 75682, Note_on_c, 5, 58, 0
1, 75686, Note_on_c, 5, 65, 0
1, 75686, Note_on_c, 11, 65, 0
1, 75744, Note_on_c, 5, 58, 83
1, 75744, Note_on_c, 5, 65, 83
1, 75744, Note_on_c, 11, 58, 83
1, 75744, Note_on_c, 11, 65, 83
1, 75778, Note_on_c, 11, 58, 0
1, 75778, Note_on_c, 5, 58, 0
1, 75782, Note_on_c, 5, 65, 0
1, 75782, Note_on_c, 11, 65, 0
1, 75834, Note_on_c, 4, 82, 0
1, 75840, Note_on_c, 4, 86, 113
1, 75840, Note_on_c, 5, 58, 92
1, 75840, Note_on_c, 5, 65, 92
1, 75840, Note_on_c, 6, 65, 107
1, 75840, Note_on_c, 11, 58, 92
1, 75840, Note_on_c, 11, 65, 92
1, 75882, Note_on_c, 11, 65, 0
1, 75882, Note_on_c, 5, 58, 0
1, 75882, Note_on_c, 11, 58, 0
1, 75882, Note_on_c, 5, 65, 0
1, 75930, Note_on_c, 3, 65, 0
1, 75936, Note_on_c, 5, 58, 64
1, 75936, Note_on_c, 5, 65, 64
1, 75936, Note_on_c, 11, 58, 64
1, 75936, Note_on_c, 11, 65, 64
1, 75970, Note_on_c, 11, 58, 0
1, 75970, Note_on_c, 5, 58, 0
1, 75974, Note_on_c, 5, 65, 0
1, 75974, Note_on_c, 11, 65, 0
1, 76013, Note_on_c, 6, 65, 0
1, 76032, Note_on_c, 3, 65, 82
1, 76032, Note_on_c, 4, 89, 113
1, 76032, Note_on_c, 5, 58, 71
1, 76032, Note_on_c, 5, 65, 71
1, 76032, Note_on_c, 11, 58, 71
1, 76032, Note_on_c, 11, 65, 71
1, 76033, Note_on_c, 11, 65, 0
1, 76033, Note_on_c, 5, 58, 0
1, 76033, Note_on_c, 11, 58, 0
1, 76033, Note_on_c, 5, 65, 0
1, 76039, Note_on_c, 4, 86, 0
1, 76128, Note_on_c, 5, 58, 80
1, 76128, Note_on_c, 5, 65, 80
1, 76128, Note_on_c, 11, 58, 80
1, 76128, Note_on_c, 11, 65, 80
1, 76129, Note_on_c, 11, 65, 0
1, 76129, Note_on_c, 11, 58, 0
1, 76129, Note_on_c, 5, 58, 0
1, 76129, Note_on_c, 5, 65, 0
1, 76218, Note_on_c, 4, 89, 0
1, 76224, Note_on_c, 4, 86, 114
1, 76224, Note_on_c, 5, 58, 92
1, 76224, Note_on_c, 5, 65, 92
1, 76224, Note_on_c, 6, 65, 84
1, 76224, Note_on_c, 11, 58, 92
1, 76224, Note_on_c, 11, 65, 92
1, 76266, Note_on_c, 11, 65, 0
1, 76266, Note_on_c, 5, 58, 0
1, 76266, Note_on_c, 11, 58, 0
1, 76266, Note_on_c, 5, 65, 0
1, 76320, Note_on_c, 5, 58, 64
1, 76320, Note_on_c, 5, 65, 64
1, 76320, Note_on_c, 11, 58, 64
1, 76320, Note_on_c, 11, 65, 64
1, 76354, Note_on_c, 11, 58, 0
1, 76354, Note_on_c, 5, 58, 0
1, 76358, Note_on_c, 5, 65, 0
1, 76358, Note_on_c, 11, 65, 0
1, 76368, Note_on_c, 4, 86, 0
1, 76383, Note_on_c, 6, 65, 0
1, 76416, Note_on_c, 3, 69, 87
1, 76416, Note_on_c, 4, 82, 114
1, 76416, Note_on_c, 5, 58, 71
1, 76416, Note_on_c, 5, 65, 71
1, 76416, Note_on_c, 11, 58, 71
1, 76416, Note_on_c, 11, 65, 71
1, 76417, Note_on_c, 11, 65, 0
1, 76417, Note_on_c, 5, 58, 0
1, 76417, Note_on_c, 11, 58, 0
1, 76417, Note_on_c, 5, 65, 0
1, 76419, Note_on_c, 3, 65, 0
1, 76512, Note_on_c, 5, 58, 80
1, 76512, Note_on_c, 5, 65, 80
1, 76512, Note_on_c, 11, 58, 80
1, 76512, Note_on_c, 11, 65, 80
1, 76513, Note_on_c, 11, 65, 0
1, 76513, Note_on_c, 11, 58, 0
1, 76513, Note_on_c, 5, 58, 0
1, 76513, Note_on_c, 5, 65, 0
1, 76602, Note_on_c, 4, 82, 0
1, 76608, Note_on_c, 4, 86, 114
1, 76608, Note_on_c, 5, 58, 92
1, 76608, Note_on_c, 5, 65, 92
1, 76608, Note_on_c, 6, 65, 62
1, 76608, Note_on_c, 11, 58, 92
1, 76608, Note_on_c, 11, 65, 92
1, 76646, Note_on_c, 3, 69, 0
1, 76650, Note_on_c, 5, 65, 0
1, 76650, Note_on_c, 11, 65, 0
1, 76650, Note_on_c, 11, 58, 0
1, 76650, Note_on_c, 5, 58, 0
1, 76704, Note_on_c, 5, 58, 64
1, 76704, Note_on_c, 5, 65, 64
1, 76704, Note_on_c, 11, 58, 64
1, 76704, Note_on_c, 11, 65, 64
1, 76714, Note_on_c, 6, 65, 0
1, 76738, Note_on_c, 11, 58, 0
1, 76738, Note_on_c, 5, 58, 0
1, 76742, Note_on_c, 5, 65, 0
1, 76742, Note_on_c, 11, 65, 0
1, 76746, Note_on_c, 2, 62, 0
1, 76746, Note_on_c, 2, 46, 0
1, 76746, Note_on_c, 2, 58, 0
1, 76752, Note_on_c, 2, 41, 61
1, 76752, Note_on_c, 2, 57, 61
1, 76752, Note_on_c, 2, 60, 61
1, 76765, Note_on_c, 4, 86, 0
1, 76794, Note_on_c, 2, 65, 0
1, 76800, Note_on_c, 3, 69, 82
1, 76800, Note_on_c, 4, 89, 114
1, 76800, Note_on_c, 5, 57, 71
1, 76800, Note_on_c, 5, 60, 71
1, 76800, Note_on_c, 11, 57, 71
1, 76800, Note_on_c, 11, 60, 71
1, 76802, Pitch_bend_c, 1, 8192
1, 76834, Note_on_c, 11, 57, 0
1, 76834, Note_on_c, 5, 57, 0
1, 76838, Note_on_c, 11, 60, 0
1, 76838, Note_on_c, 5, 60, 0
1, 76896, Note_on_c, 5, 57, 86
1, 76896, Note_on_c, 5, 60, 86
1, 76896, Note_on_c, 11, 57, 86
1, 76896, Note_on_c, 11, 60, 86
1, 76930, Note_on_c, 11, 57, 0
1, 76930, Note_on_c, 5, 57, 0
1, 76934, Note_on_c, 11, 60, 0
1, 76934, Note_on_c, 5, 60, 0
1, 76962, Note_on_c, 4, 89, 0
1, 76992, Note_on_c, 4, 84, 114
1, 76992, Note_on_c, 5, 57, 92
1, 76992, Note_on_c, 5, 60, 92
1, 76992, Note_on_c, 6, 72, 127
1, 76992, Note_on_c, 11, 57, 92
1, 76992, Note_on_c, 11, 60, 92
1, 77034, Note_on_c, 11, 60, 0
1, 77034, Note_on_c, 11, 57, 0
1, 77034, Note_on_c, 5, 60, 0
1, 77034, Note_on_c, 5, 57, 0
1, 77088, Note_on_c, 5, 57, 53
1, 77088, Note_on_c, 5, 60, 53
1, 77088, Note_on_c, 11, 57, 53
1, 77088, Note_on_c, 11, 60, 53
1, 77122, Note_on_c, 11, 57, 0
1, 77122, Note_on_c, 5, 57, 0
1, 77126, Note_on_c, 5, 60, 0
1, 77126, Note_on_c, 11, 60, 0
1, 77163, Note_on_c, 6, 72, 0
1, 77170, Note_on_c, 4, 84, 0
1, 77184, Note_on_c, 4, 81, 115
1, 77184, Note_on_c, 5, 57, 71
1, 77184, Note_on_c, 5, 60, 71
1, 77184, Note_on_c, 11, 57, 71
1, 77184, Note_on_c, 11, 60, 71
1, 77218, Note_on_c, 11, 57, 0
1, 77218, Note_on_c, 5, 57, 0
1, 77222, Note_on_c, 11, 60, 0
1, 77222, Note_on_c, 5, 60, 0
1, 77280, Note_on_c, 5, 57, 83
1, 77280, Note_on_c, 5, 60, 83
1, 77280, Note_on_c, 11, 57, 83
1, 77280, Note_on_c, 11, 60, 83
1, 77291, Note_on_c, 3, 69, 0
1, 77298, Note_on_c, 4, 81, 0
1, 77314, Note_on_c, 11, 57, 0
1, 77314, Note_on_c, 5, 57, 0
1, 77318, Note_on_c, 11, 60, 0
1, 77318, Note_on_c, 5, 60, 0
1, 77376, Note_on_c, 4, 84, 115
1, 77376, Note_on_c, 5, 57, 92
1, 77376, Note_on_c, 5, 60, 92
1, 77376, Note_on_c, 6, 72, 107
1, 77376, Note_on_c, 11, 57, 92
1, 77376, Note_on_c, 11, 60, 92
1, 77418, Note_on_c, 11, 60, 0
1, 77418, Note_on_c, 11, 57, 0
1, 77418, Note_on_c, 5, 60, 0
1, 77418, Note_on_c, 5, 57, 0
1, 77472, Note_on_c, 5, 57, 64
1, 77472, Note_on_c, 5, 60, 64
1, 77472, Note_on_c, 11, 57, 64
1, 77472, Note_on_c, 11, 60, 64
1, 77506, Note_on_c, 11, 57, 0
1, 77506, Note_on_c, 5, 57, 0
1, 77510, Note_on_c, 11, 60, 0
1, 77510, Note_on_c, 5, 60, 0
1, 77546, Note_on_c, 4, 84, 0
1, 77549, Note_on_c, 6, 72, 0
1, 77568, Note_on_c, 3, 69, 80
1, 77568, Note_on_c, 4, 89, 115
1, 77568, Note_on_c, 5, 57, 71
1, 77568, Note_on_c, 5, 60, 71
1, 77568, Note_on_c, 11, 57, 71
1, 77568, Note_on_c, 11, 60, 71
1, 77569, Note_on_c, 11, 60, 0
1, 77569, Note_on_c, 11, 57, 0
1, 77569, Note_on_c, 5, 60, 0
1, 77569, Note_on_c, 5, 57, 0
1, 77664, Note_on_c, 5, 57, 80
1, 77664, Note_on_c, 5, 60, 80
1, 77664, Note_on_c, 11, 57, 80
1, 77664, Note_on_c, 11, 60, 80
1, 77665, Note_on_c, 11, 60, 0
1, 77665, Note_on_c, 11, 57, 0
1, 77665, Note_on_c, 5, 60, 0
1, 77665, Note_on_c, 5, 57, 0
1, 77742, Note_on_c, 4, 89, 0
1, 77760, Note_on_c, 4, 84, 115
1, 77760, Note_on_c, 5, 57, 92
1, 77760, Note_on_c, 5, 60, 92
1, 77760, Note_on_c, 6, 72, 84
1, 77760, Note_on_c, 11, 57, 92
1, 77760, Note_on_c, 11, 60, 92
1, 77802, Note_on_c, 11, 60, 0
1, 77802, Note_on_c, 11, 57, 0
1, 77802, Note_on_c, 5, 60, 0
1, 77802, Note_on_c, 5, 57, 0
1, 77856, Note_on_c, 5, 57, 64
1, 77856, Note_on_c, 5, 60, 64
1, 77856, Note_on_c, 11, 57, 64
1, 77856, Note_on_c, 11, 60, 64
1, 77890, Note_on_c, 11, 57, 0
1, 77890, Note_on_c, 5, 57, 0
1, 77894, Note_on_c, 5, 60, 0
1, 77894, Note_on_c, 11, 60, 0
1, 77919, Note_on_c, 6, 72, 0
1, 77930, Note_on_c, 4, 84, 0
1, 77952, Note_on_c, 3, 72, 89
1, 77952, Note_on_c, 4, 91, 115
1, 77952, Note_on_c, 5, 57, 71
1, 77952, Note_on_c, 5, 60, 71
1, 77952, Note_on_c, 11, 57, 71
1, 77952, Note_on_c, 11, 60, 71
1, 77953, Note_on_c, 11, 60, 0
1, 77953, Note_on_c, 11, 57, 0
1, 77953, Note_on_c, 5, 57, 0
1, 77953, Note_on_c, 5, 60, 0
1, 77973, Note_on_c, 3, 69, 0
1, 78048, Note_on_c, 5, 57, 80
1, 78048, Note_on_c, 5, 60, 80
1, 78048, Note_on_c, 11, 57, 80
1, 78048, Note_on_c, 11, 60, 80
1, 78049, Note_on_c, 11, 60, 0
1, 78049, Note_on_c, 11, 57, 0
1, 78049, Note_on_c, 5, 60, 0
1, 78049, Note_on_c, 5, 57, 0
1, 78101, Note_on_c, 4, 91, 0
1, 78144, Note_on_c, 4, 84, 115
1, 78144, Note_on_c, 5, 57, 92
1, 78144, Note_on_c, 5, 60, 92
1, 78144, Note_on_c, 6, 72, 62
1, 78144, Note_on_c, 11, 57, 92
1, 78144, Note_on_c, 11, 60, 92
1, 78186, Note_on_c, 11, 60, 0
1, 78186, Note_on_c, 11, 57, 0
1, 78186, Note_on_c, 5, 60, 0
1, 78186, Note_on_c, 5, 57, 0
1, 78240, Note_on_c, 5, 57, 64
1, 78240, Note_on_c, 5, 60, 64
1, 78240, Note_on_c, 11, 57, 64
1, 78240, Note_on_c, 11, 60, 64
1, 78250, Note_on_c, 6, 72, 0
1, 78274, Note_on_c, 11, 57, 0
1, 78274, Note_on_c, 5, 57, 0
1, 78276, Note_on_c, 4, 84, 0
1, 78278, Note_on_c, 5, 60, 0
1, 78278, Note_on_c, 11, 60, 0
1, 78288, Note_on_c, 2, 38, 61
1, 78288, Note_on_c, 2, 50, 61
1, 78301, Note_on_c, 3, 72, 0
1, 78336, Note_on_c, 3, 74, 89
1, 78336, Note_on_c, 4, 93, 110
1, 78336, Note_on_c, 5, 53, 71
1, 78336, Note_on_c, 5, 57, 71
1, 78336, Note_on_c, 11, 53, 71
1, 78336, Note_on_c, 11, 57, 71
1, 78337, Note_on_c, 11, 57, 0
1, 78337, Note_on_c, 5, 53, 0
1, 78337, Note_on_c, 11, 53, 0
1, 78337, Note_on_c, 5, 57, 0
1, 78426, Note_on_c, 4, 93, 0
1, 78432, Note_on_c, 5, 53, 80
1, 78432, Note_on_c, 5, 57, 80
1, 78432, Note_on_c, 11, 53, 80
1, 78432, Note_on_c, 11, 57, 80
1, 78433, Note_on_c, 11, 57, 0
1, 78433, Note_on_c, 11, 53, 0
1, 78433, Note_on_c, 5, 53, 0
1, 78433, Note_on_c, 5, 57, 0
1, 78491, Note_on_c, 2, 41, 0
1, 78528, Note_on_c, 4, 89, 110
1, 78528, Note_on_c, 5, 53, 92
1, 78528, Note_on_c, 5, 57, 92
1, 78528, Note_on_c, 6, 72, 127
1, 78528, Note_on_c, 11, 53, 92
1, 78528, Note_on_c, 11, 57, 92
1, 78570, Note_on_c, 11, 57, 0
1, 78570, Note_on_c, 5, 53, 0
1, 78570, Note_on_c, 11, 53, 0
1, 78570, Note_on_c, 5, 57, 0
1, 78618, Note_on_c, 3, 74, 0
1, 78624, Note_on_c, 5, 53, 64
1, 78624, Note_on_c, 5, 57, 64
1, 78624, Note_on_c, 11, 53, 64
1, 78624, Note_on_c, 11, 57, 64
1, 78658, Note_on_c, 11, 53, 0
1, 78658, Note_on_c, 5, 53, 0
1, 78662, Note_on_c, 5, 57, 0
1, 78662, Note_on_c, 11, 57, 0
1, 78699, Note_on_c, 6, 72, 0
1, 78705, Note_on_c, 4, 89, 0
1, 78720, Note_on_c, 3, 76, 95
1, 78720, Note_on_c, 4, 96, 110
1, 78720, Note_on_c, 5, 53, 71
1, 78720, Note_on_c, 5, 57, 71
1, 78720, Note_on_c, 11, 53, 71
1, 78720, Note_on_c, 11, 57, 71
1, 78721, Note_on_c, 11, 57, 0
1, 78721, Note_on_c, 11, 53, 0
1, 78721, Note_on_c, 5, 53, 0
1, 78721, Note_on_c, 5, 57, 0
1, 78810, Note_on_c, 4, 96, 0
1, 78816, Note_on_c, 5, 53, 80
1, 78816, Note_on_c, 5, 57, 80
1, 78816, Note_on_c, 11, 53, 80
1, 78816, Note_on_c, 11, 57, 80
1, 78817, Note_on_c, 11, 57, 0
1, 78817, Note_on_c, 11, 53, 0
1, 78817, Note_on_c, 5, 57, 0
1, 78817, Note_on_c, 5, 53, 0
1, 78912, Note_on_c, 4, 89, 110
1, 78912, Note_on_c, 5, 53, 92
1, 78912, Note_on_c, 5, 57, 92
1, 78912, Note_on_c, 6, 69, 107
1, 78912, Note_on_c, 11, 53, 92
1, 78912, Note_on_c, 11, 57, 92
1, 78954, Note_on_c, 11, 57, 0
1, 78954, Note_on_c, 5, 53, 0
1, 78954, Note_on_c, 11, 53, 0
1, 78954, Note_on_c, 5, 57, 0
1, 79008, Note_on_c, 5, 53, 64
1, 79008, Note_on_c, 5, 57, 64
1, 79008, Note_on_c, 11, 53, 64
1, 79008, Note_on_c, 11, 57, 64
1, 79042, Note_on_c, 11, 53, 0
1, 79042, Note_on_c, 5, 53, 0
1, 79046, Note_on_c, 5, 57, 0
1, 79046, Note_on_c, 11, 57, 0
1, 79085, Note_on_c, 6, 69, 0
1, 79097, Note_on_c, 4, 89, 0
1, 79104, Note_on_c, 3, 74, 107
1, 79104, Note_on_c, 4, 93, 110
1, 79104, Note_on_c, 5, 53, 71
1, 79104, Note_on_c, 5, 57, 71
1, 79104, Note_on_c, 11, 53, 71
1, 79104, Note_on_c, 11, 57, 71
1, 79105, Note_on_c, 11, 57, 0
1, 79105, Note_on_c, 5, 53, 0
1, 79105, Note_on_c, 11, 53, 0
1, 79105, Note_on_c, 5, 57, 0
1, 79138, Note_on_c, 3, 76, 0
1, 79194, Note_on_c, 4, 93, 0
1, 79200, Note_on_c, 5, 53, 80
1, 79200, Note_on_c, 5, 57, 80
1, 79200, Note_on_c, 11, 53, 80
1, 79200, Note_on_c, 11, 57, 80
1, 79201, Note_on_c, 11, 57, 0
1, 79201, Note_on_c, 11, 53, 0
1, 79201, Note_on_c, 5, 57, 0
1, 79201, Note_on_c, 5, 53, 0
1, 79296, Note_on_c, 4, 84, 110
1, 79296, Note_on_c, 5, 53, 92
1, 79296, Note_on_c, 5, 57, 92
1, 79296, Note_on_c, 6, 69, 84
1, 79296, Note_on_c, 11, 53, 92
1, 79296, Note_on_c, 11, 57, 92
1, 79338, Note_on_c, 11, 57, 0
1, 79338, Note_on_c, 5, 53, 0
1, 79338, Note_on_c, 11, 53, 0
1, 79338, Note_on_c, 5, 57, 0
1, 79392, Note_on_c, 5, 53, 64
1, 79392, Note_on_c, 5, 57, 64
1, 79392, Note_on_c, 11, 53, 64
1, 79392, Note_on_c, 11, 57, 64
1, 79426, Note_on_c, 11, 53, 0
1, 79426, Note_on_c, 5, 53, 0
1, 79430, Note_on_c, 5, 57, 0
1, 79430, Note_on_c, 11, 57, 0
1, 79455, Note_on_c, 6, 69, 0
1, 79488, Note_on_c, 4, 84, 0
1, 79488, Note_on_c, 3, 72, 87
1, 79488, Note_on_c, 4, 91, 110
1, 79488, Note_on_c, 5, 53, 71
1, 79488, Note_on_c, 5, 57, 71
1, 79488, Note_on_c, 11, 53, 71
1, 79488, Note_on_c, 11, 57, 71
1, 79489, Note_on_c, 11, 57, 0
1, 79489, Note_on_c, 5, 53, 0
1, 79489, Note_on_c, 11, 53, 0
1, 79489, Note_on_c, 5, 57, 0
1, 79490, Note_on_c, 3, 74, 0
1, 79578, Note_on_c, 4, 91, 0
1, 79584, Note_on_c, 5, 53, 80
1, 79584, Note_on_c, 5, 57, 80
1, 79584, Note_on_c, 11, 53, 80
1, 79584, Note_on_c, 11, 57, 80
1, 79585, Note_on_c, 11, 57, 0
1, 79585, Note_on_c, 11, 53, 0
1, 79585, Note_on_c, 5, 57, 0
1, 79585, Note_on_c, 5, 53, 0
1, 79680, Note_on_c, 4, 84, 112
1, 79680, Note_on_c, 5, 53, 92
1, 79680, Note_on_c, 5, 57, 92
1, 79680, Note_on_c, 6, 69, 89
1, 79680, Note_on_c, 11, 53, 92
1, 79680, Note_on_c, 11, 57, 92
1, 79722, Note_on_c, 11, 57, 0
1, 79722, Note_on_c, 5, 53, 0
1, 79722, Note_on_c, 11, 53, 0
1, 79722, Note_on_c, 5, 57, 0
1, 79776, Note_on_c, 5, 53, 64
1, 79776, Note_on_c, 5, 57, 64
1, 79776, Note_on_c, 11, 53, 64
1, 79776, Note_on_c, 11, 57, 64
1, 79782, Note_on_c, 2, 60, 0
1, 79782, Note_on_c, 2, 57, 0
1, 79786, Note_on_c, 6, 69, 0
1, 79810, Note_on_c, 5, 53, 0
1, 79810, Note_on_c, 11, 53, 0
1, 79814, Note_on_c, 5, 57, 0
1, 79814, Note_on_c, 11, 57, 0
1, 79824, Note_on_c, 2, 45, 61
1, 79824, Note_on_c, 2, 57, 61
1, 79824, Note_on_c, 2, 60, 61
1, 79824, Note_on_c, 2, 64, 61
1, 79827, Note_on_c, 2, 50, 0
1, 79846, Note_on_c, 2, 38, 0
1, 79866, Note_on_c, 4, 84, 0
1, 79872, Note_on_c, 3, 69, 82
1, 79872, Note_on_c, 4, 88, 107
1, 79872, Note_on_c, 5, 64, 71
1, 79872, Note_on_c, 5, 57, 71
1, 79872, Note_on_c, 11, 64, 71
1, 79872, Note_on_c, 11, 57, 71
1, 79873, Note_on_c, 11, 57, 0
1, 79873, Note_on_c, 5, 64, 0
1, 79873, Note_on_c, 11, 64, 0
1, 79873, Note_on_c, 5, 57, 0
1, 79879, Note_on_c, 3, 72, 0
1, 79968, Note_on_c, 5, 64, 80
1, 79968, Note_on_c, 5, 57, 80
1, 79968, Note_on_c, 11, 64, 80
1, 79968, Note_on_c, 11, 57, 80
1, 79969, Note_on_c, 11, 57, 0
1, 79969, Note_on_c, 11, 64, 0
1, 79969, Note_on_c, 5, 64, 0
1, 79969, Note_on_c, 5, 57, 0
1, 80064, Note_on_c, 4, 81, 107
1, 80064, Note_on_c, 5, 64, 92
1, 80064, Note_on_c, 5, 57, 92
1, 80064, Note_on_c, 6, 72, 127
1, 80064, Note_on_c, 11, 64, 92
1, 80064, Note_on_c, 11, 57, 92
1, 80086, Note_on_c, 4, 88, 0
1, 80106, Note_on_c, 11, 64, 0
1, 80106, Note_on_c, 5, 64, 0
1, 80106, Note_on_c, 5, 57, 0
1, 80106, Note_on_c, 11, 57, 0
1, 80160, Note_on_c, 5, 64, 64
1, 80160, Note_on_c, 5, 57, 64
1, 80160, Note_on_c, 11, 64, 64
1, 80160, Note_on_c, 11, 57, 64
1, 80194, Note_on_c, 11, 57, 0
1, 80194, Note_on_c, 5, 57, 0
1, 80198, Note_on_c, 5, 64, 0
1, 80198, Note_on_c, 11, 64, 0
1, 80235, Note_on_c, 6, 72, 0
1, 80249, Note_on_c, 4, 81, 0
1, 80256, Note_on_c, 4, 84, 107
1, 80256, Note_on_c, 5, 64, 71
1, 80256, Note_on_c, 5, 57, 71
1, 80256, Note_on_c, 11, 64, 71
1, 80256, Note_on_c, 11, 57, 71
1, 80257, Note_on_c, 11, 57, 0
1, 80257, Note_on_c, 11, 64, 0
1, 80257, Note_on_c, 5, 64, 0
1, 80257, Note_on_c, 5, 57, 0
1, 80277, Note_on_c, 3, 69, 0
1, 80352, Note_on_c, 5, 64, 80
1, 80352, Note_on_c, 5, 57, 80
1, 80352, Note_on_c, 11, 64, 80
1, 80352, Note_on_c, 11, 57, 80
1, 80353, Note_on_c, 11, 57, 0
1, 80353, Note_on_c, 11, 64, 0
1, 80353, Note_on_c, 5, 57, 0
1, 80353, Note_on_c, 5, 64, 0
1, 80448, Note_on_c, 4, 84, 0
1, 80448, Note_on_c, 4, 81, 107
1, 80448, Note_on_c, 5, 64, 92
1, 80448, Note_on_c, 5, 57, 92
1, 80448, Note_on_c, 6, 69, 107
1, 80448, Note_on_c, 11, 64, 92
1, 80448, Note_on_c, 11, 57, 92
1, 80490, Note_on_c, 11, 57, 0
1, 80490, Note_on_c, 11, 64, 0
1, 80490, Note_on_c, 5, 57, 0
1, 80490, Note_on_c, 5, 64, 0
1, 80544, Note_on_c, 5, 64, 64
1, 80544, Note_on_c, 5, 57, 64
1, 80544, Note_on_c, 11, 64, 64
1, 80544, Note_on_c, 11, 57, 64
1, 80578, Note_on_c, 11, 57, 0
1, 80578, Note_on_c, 5, 57, 0
1, 80582, Note_on_c, 5, 64, 0
1, 80582, Note_on_c, 11, 64, 0
1, 80615, Note_on_c, 4, 81, 0
1, 80621, Note_on_c, 6, 69, 0
1, 80640, Note_on_c, 3, 67, 61
1, 80640, Note_on_c, 4, 88, 107
1, 80640, Note_on_c, 5, 64, 71
1, 80640, Note_on_c, 5, 57, 71
1, 80640, Note_on_c, 11, 64, 71
1, 80640, Note_on_c, 11, 57, 71
1, 80641, Note_on_c, 11, 57, 0
1, 80641, Note_on_c, 11, 64, 0
1, 80641, Note_on_c, 5, 64, 0
1, 80641, Note_on_c, 5, 57, 0
1, 80736, Note_on_c, 5, 64, 80
1, 80736, Note_on_c, 5, 57, 80
1, 80736, Note_on_c, 11, 64, 80
1, 80736, Note_on_c, 11, 57, 80
1, 80737, Note_on_c, 11, 57, 0
1, 80737, Note_on_c, 11, 64, 0
1, 80737, Note_on_c, 5, 64, 0
1, 80737, Note_on_c, 5, 57, 0
1, 80832, Note_on_c, 4, 81, 107
1, 80832, Note_on_c, 5, 64, 92
1, 80832, Note_on_c, 5, 57, 92
1, 80832, Note_on_c, 6, 67, 84
1, 80832, Note_on_c, 11, 64, 92
1, 80832, Note_on_c, 11, 57, 92
1, 80854, Note_on_c, 4, 88, 0
1, 80874, Note_on_c, 11, 64, 0
1, 80874, Note_on_c, 5, 64, 0
1, 80874, Note_on_c, 5, 57, 0
1, 80874, Note_on_c, 11, 57, 0
1, 80928, Note_on_c, 5, 64, 64
1, 80928, Note_on_c, 5, 57, 64
1, 80928, Note_on_c, 11, 64, 64
1, 80928, Note_on_c, 11, 57, 64
1, 80948, Note_on_c, 3, 67, 0
1, 80962, Note_on_c, 11, 57, 0
1, 80962, Note_on_c, 5, 57, 0
1, 80966, Note_on_c, 5, 64, 0
1, 80966, Note_on_c, 11, 64, 0
1, 80991, Note_on_c, 6, 67, 0
1, 81017, Note_on_c, 4, 81, 0
1, 81024, Note_on_c, 3, 69, 78
1, 81024, Note_on_c, 4, 84, 107
1, 81024, Note_on_c, 5, 64, 71
1, 81024, Note_on_c, 5, 57, 71
1, 81024, Note_on_c, 11, 64, 71
1, 81024, Note_on_c, 11, 57, 71
1, 81025, Note_on_c, 11, 57, 0
1, 81025, Note_on_c, 11, 64, 0
1, 81025, Note_on_c, 5, 64, 0
1, 81025, Note_on_c, 5, 57, 0
1, 81120, Note_on_c, 5, 64, 80
1, 81120, Note_on_c, 5, 57, 80
1, 81120, Note_on_c, 11, 64, 80
1, 81120, Note_on_c, 11, 57, 80
1, 81121, Note_on_c, 11, 57, 0
1, 81121, Note_on_c, 11, 64, 0
1, 81121, Note_on_c, 5, 64, 0
1, 81121, Note_on_c, 5, 57, 0
1, 81216, Note_on_c, 4, 84, 0
1, 81216, Note_on_c, 4, 81, 107
1, 81216, Note_on_c, 5, 64, 92
1, 81216, Note_on_c, 5, 57, 92
1, 81216, Note_on_c, 6, 65, 80
1, 81216, Note_on_c, 11, 64, 92
1, 81216, Note_on_c, 11, 57, 92
1, 81258, Note_on_c, 11, 57, 0
1, 81258, Note_on_c, 5, 64, 0
1, 81258, Note_on_c, 11, 64, 0
1, 81258, Note_on_c, 5, 57, 0
1, 81312, Note_on_c, 5, 64, 64
1, 81312, Note_on_c, 5, 57, 64
1, 81312, Note_on_c, 11, 64, 64
1, 81312, Note_on_c, 11, 57, 64
1, 81322, Note_on_c, 6, 65, 0
1, 81346, Note_on_c, 11, 57, 0
1, 81346, Note_on_c, 5, 57, 0
1, 81350, Note_on_c, 5, 64, 0
1, 81350, Note_on_c, 11, 64, 0
1, 81353, Note_on_c, 2, 45, 0
1, 81353, Note_on_c, 2, 57, 0
1, 81360, Note_on_c, 2, 43, 61
1, 81360, Note_on_c, 2, 55, 61
1, 81360, Note_on_c, 2, 58, 61
1, 81360, Note_on_c, 2, 62, 61
1, 81376, Note_on_c, 2, 64, 0
1, 81381, Note_on_c, 3, 69, 0
1, 81381, Note_on_c, 2, 60, 0
1, 81383, Note_on_c, 4, 81, 0
1, 81408, Note_on_c, 3, 67, 76
1, 81408, Note_on_c, 4, 86, 107
1, 81408, Note_on_c, 5, 62, 71
1, 81408, Note_on_c, 5, 55, 71
1, 81408, Note_on_c, 9, 42, 66
1, 81408, Note_on_c, 9, 70, 92
1, 81408, Note_on_c, 11, 62, 71
1, 81408, Note_on_c, 11, 55, 71
1, 81409, Note_on_c, 11, 55, 0
1, 81409, Note_on_c, 5, 55, 0
1, 81409, Note_on_c, 5, 62, 0
1, 81409, Note_on_c, 11, 62, 0
1, 81426, Note_on_c, 9, 42, 0
1, 81426, Note_on_c, 9, 70, 0
1, 81504, Note_on_c, 5, 62, 80
1, 81504, Note_on_c, 5, 55, 80
1, 81504, Note_on_c, 9, 42, 75
1, 81504, Note_on_c, 11, 62, 80
1, 81504, Note_on_c, 11, 55, 80
1, 81505, Note_on_c, 11, 55, 0
1, 81505, Note_on_c, 5, 62, 0
1, 81505, Note_on_c, 11, 62, 0
1, 81505, Note_on_c, 5, 55, 0
1, 81522, Note_on_c, 9, 42, 0
1, 81569, Note_on_c, 4, 86, 0
1, 81600, Note_on_c, 4, 79, 107
1, 81600, Note_on_c, 5, 62, 92
1, 81600, Note_on_c, 5, 55, 92
1, 81600, Note_on_c, 6, 67, 107
1, 81600, Note_on_c, 9, 46, 107
1, 81600, Note_on_c, 11, 62, 92
1, 81600, Note_on_c, 11, 55, 92
1, 81618, Note_on_c, 9, 46, 0
1, 81642, Note_on_c, 11, 62, 0
1, 81642, Note_on_c, 5, 55, 0
1, 81642, Note_on_c, 5, 62, 0
1, 81642, Note_on_c, 11, 55, 0
1, 81696, Note_on_c, 5, 62, 64
1, 81696, Note_on_c, 5, 55, 64
1, 81696, Note_on_c, 9, 70, 40
1, 81696, Note_on_c, 11, 62, 64
1, 81696, Note_on_c, 11, 55, 64
1, 81714, Note_on_c, 9, 70, 0
1, 81730, Note_on_c, 5, 55, 0
1, 81730, Note_on_c, 11, 55, 0
1, 81734, Note_on_c, 11, 62, 0
1, 81734, Note_on_c, 5, 62, 0
1, 81773, Note_on_c, 6, 67, 0
1, 81783, Note_on_c, 4, 79, 0
1, 81792, Note_on_c, 4, 82, 107
1, 81792, Note_on_c, 5, 62, 71
1, 81792, Note_on_c, 5, 55, 71
1, 81792, Note_on_c, 9, 42, 66
1, 81792, Note_on_c, 9, 70, 86
1, 81792, Note_on_c, 11, 62, 71
1, 81792, Note_on_c, 11, 55, 71
1, 81793, Note_on_c, 11, 55, 0
1, 81793, Note_on_c, 5, 55, 0
1, 81793, Note_on_c, 5, 62, 0
1, 81793, Note_on_c, 11, 62, 0
1, 81806, Control_c, 2, 64, 127
1, 81806, Control_c, 2, 64, 127
1, 81806, Control_c, 2, 64, 127
1, 81806, Control_c, 2, 64, 127
1, 81806, Control_c, 2, 64, 127
1, 81806, Control_c, 2, 64, 127
1, 81806, Control_c, 2, 64, 127
1, 81806, Control_c, 2, 64, 127
1, 81806, Control_c, 2, 64, 127
1, 81806, Control_c, 2, 64, 127
1, 81806, Control_c, 2, 64, 127
1, 81806, Control_c, 2, 64, 127
1, 81806, Control_c, 2, 64, 127
1, 81806, Control_c, 2, 64, 127
1, 81806, Control_c, 2, 64, 127
1, 81810, Note_on_c, 9, 42, 0
1, 81810, Note_on_c, 9, 70, 0
1, 81888, Note_on_c, 5, 62, 80
1, 81888, Note_on_c, 5, 55, 80
1, 81888, Note_on_c, 9, 42, 75
1, 81888, Note_on_c, 11, 62, 80
1, 81888, Note_on_c, 11, 55, 80
1, 81889, Note_on_c, 11, 55, 0
1, 81889, Note_on_c, 5, 62, 0
1, 81889, Note_on_c, 11, 62, 0
1, 81889, Note_on_c, 5, 55, 0
1, 81906, Note_on_c, 9, 42, 0
1, 81938, Note_on_c, 4, 82, 0
1, 81976, Note_on_c, 3, 67, 0
1, 81984, Note_on_c, 4, 79, 107
1, 81984, Note_on_c, 5, 62, 92
1, 81984, Note_on_c, 5, 55, 92
1, 81984, Note_on_c, 6, 67, 84
1, 81984, Note_on_c, 9, 46, 92
1, 81984, Note_on_c, 9, 70, 80
1, 81984, Note_on_c, 11, 62, 92
1, 81984, Note_on_c, 11, 55, 92
1, 82002, Note_on_c, 9, 70, 0
1, 82002, Note_on_c, 9, 46, 0
1, 82026, Note_on_c, 11, 62, 0
1, 82026, Note_on_c, 5, 55, 0
1, 82026, Note_on_c, 11, 55, 0
1, 82026, Note_on_c, 5, 62, 0
1, 82056, Note_on_c, 2, 58, 0
1, 82072, Note_on_c, 2, 43, 0
1, 82080, Note_on_c, 5, 62, 64
1, 82080, Note_on_c, 5, 55, 64
1, 82080, Note_on_c, 11, 62, 64
1, 82080, Note_on_c, 11, 55, 64
1, 82102, Control_c, 2, 64, 0
1, 82102, Control_c, 2, 64, 0
1, 82104, Control_c, 2, 64, 0
1, 82105, Control_c, 2, 64, 0
1, 82106, Control_c, 2, 64, 0
1, 82106, Control_c, 2, 64, 0
1, 82106, Control_c, 2, 64, 0
1, 82106, Control_c, 2, 64, 0
1, 82106, Control_c, 2, 64, 0
1, 82106, Control_c, 2, 64, 0
1, 82106, Control_c, 2, 64, 0
1, 82106, Control_c, 2, 64, 0
1, 82106, Control_c, 2, 64, 0
1, 82106, Control_c, 2, 64, 0
1, 82106, Control_c, 2, 64, 0
1, 82114, Note_on_c, 11, 55, 0
1, 82114, Note_on_c, 5, 55, 0
1, 82118, Note_on_c, 5, 62, 0
1, 82118, Note_on_c, 11, 62, 0
1, 82128, Note_on_c, 2, 45, 61
1, 82128, Note_on_c, 2, 57, 61
1, 82128, Note_on_c, 2, 60, 61
1, 82128, Note_on_c, 2, 64, 61
1, 82134, Note_on_c, 2, 55, 0
1, 82134, Note_on_c, 2, 62, 0
1, 82143, Note_on_c, 6, 67, 0
1, 82151, Note_on_c, 4, 79, 0
1, 82176, Note_on_c, 3, 67, 82
1, 82176, Note_on_c, 4, 84, 107
1, 82176, Note_on_c, 5, 64, 71
1, 82176, Note_on_c, 5, 57, 71
1, 82176, Note_on_c, 9, 42, 66
1, 82176, Note_on_c, 9, 70, 92
1, 82176, Note_on_c, 11, 64, 71
1, 82176, Note_on_c, 11, 57, 71
1, 82177, Note_on_c, 11, 57, 0
1, 82177, Note_on_c, 5, 57, 0
1, 82177, Note_on_c, 5, 64, 0
1, 82177, Note_on_c, 11, 64, 0
1, 82194, Note_on_c, 9, 42, 0
1, 82194, Note_on_c, 9, 70, 0
1, 82272, Note_on_c, 5, 64, 80
1, 82272, Note_on_c, 5, 57, 80
1, 82272, Note_on_c, 9, 42, 75
1, 82272, Note_on_c, 11, 64, 80
1, 82272, Note_on_c, 11, 57, 80
1, 82273, Note_on_c, 11, 57, 0
1, 82273, Note_on_c, 5, 64, 0
1, 82273, Note_on_c, 11, 64, 0
1, 82273, Note_on_c, 5, 57, 0
1, 82290, Note_on_c, 9, 42, 0
1, 82328, Note_on_c, 4, 84, 0
1, 82368, Note_on_c, 4, 79, 107
1, 82368, Note_on_c, 5, 64, 92
1, 82368, Note_on_c, 5, 57, 92
1, 82368, Note_on_c, 6, 65, 89
1, 82368, Note_on_c, 9, 46, 107
1, 82368, Note_on_c, 9, 70, 20
1, 82368, Note_on_c, 11, 64, 92
1, 82368, Note_on_c, 11, 57, 92
1, 82386, Note_on_c, 9, 70, 0
1, 82386, Note_on_c, 9, 46, 0
1, 82410, Note_on_c, 5, 57, 0
1, 82410, Note_on_c, 5, 64, 0
1, 82410, Note_on_c, 11, 57, 0
1, 82410, Note_on_c, 11, 64, 0
1, 82464, Note_on_c, 5, 64, 64
1, 82464, Note_on_c, 5, 57, 64
1, 82464, Note_on_c, 9, 70, 49
1, 82464, Note_on_c, 11, 64, 64
1, 82464, Note_on_c, 11, 57, 64
1, 82474, Note_on_c, 6, 65, 0
1, 82482, Note_on_c, 9, 70, 0
1, 82489, Note_on_c, 2, 45, 0
1, 82498, Note_on_c, 5, 57, 0
1, 82498, Note_on_c, 11, 57, 0
1, 82502, Note_on_c, 5, 64, 0
1, 82502, Note_on_c, 11, 64, 0
1, 82512, Note_on_c, 2, 46, 61
1, 82512, Note_on_c, 2, 58, 61
1, 82512, Note_on_c, 2, 62, 61
1, 82512, Note_on_c, 2, 65, 61
1, 82514, Note_on_c, 2, 64, 0
1, 82514, Note_on_c, 2, 60, 0
1, 82514, Note_on_c, 2, 57, 0
1, 82520, Note_on_c, 3, 67, 0
1, 82560, Note_on_c, 3, 69, 65
1, 82560, Note_on_c, 4, 86, 107
1, 82560, Note_on_c, 5, 65, 71
1, 82560, Note_on_c, 5, 58, 71
1, 82560, Note_on_c, 9, 42, 66
1, 82560, Note_on_c, 9, 70, 76
1, 82560, Note_on_c, 11, 65, 71
1, 82560, Note_on_c, 11, 58, 71
1, 82561, Note_on_c, 11, 58, 0
1, 82561, Note_on_c, 5, 65, 0
1, 82561, Note_on_c, 11, 65, 0
1, 82561, Note_on_c, 5, 58, 0
1, 82577, Note_on_c, 4, 79, 0
1, 82578, Note_on_c, 9, 70, 0
1, 82578, Note_on_c, 9, 42, 0
1, 82656, Note_on_c, 5, 65, 80
1, 82656, Note_on_c, 5, 58, 80
1, 82656, Note_on_c, 9, 42, 75
1, 82656, Note_on_c, 11, 65, 80
1, 82656, Note_on_c, 11, 58, 80
1, 82657, Note_on_c, 11, 58, 0
1, 82657, Note_on_c, 5, 65, 0
1, 82657, Note_on_c, 11, 65, 0
1, 82657, Note_on_c, 5, 58, 0
1, 82674, Note_on_c, 9, 42, 0
1, 82718, Note_on_c, 4, 86, 0
1, 82752, Note_on_c, 4, 79, 107
1, 82752, Note_on_c, 5, 65, 92
1, 82752, Note_on_c, 5, 58, 92
1, 82752, Note_on_c, 6, 67, 89
1, 82752, Note_on_c, 9, 46, 107
1, 82752, Note_on_c, 9, 70, 66
1, 82752, Note_on_c, 11, 65, 92
1, 82752, Note_on_c, 11, 58, 92
1, 82770, Note_on_c, 9, 70, 0
1, 82770, Note_on_c, 9, 46, 0
1, 82794, Note_on_c, 5, 58, 0
1, 82794, Note_on_c, 5, 65, 0
1, 82794, Note_on_c, 11, 58, 0
1, 82794, Note_on_c, 11, 65, 0
1, 82848, Note_on_c, 5, 65, 64
1, 82848, Note_on_c, 5, 58, 64
1, 82848, Note_on_c, 11, 65, 64
1, 82848, Note_on_c, 11, 58, 64
1, 82858, Note_on_c, 6, 67, 0
1, 82860, Note_on_c, 4, 79, 0
1, 82882, Note_on_c, 5, 58, 0
1, 82882, Note_on_c, 11, 58, 0
1, 82886, Note_on_c, 5, 65, 0
1, 82886, Note_on_c, 11, 65, 0
1, 82896, Note_on_c, 2, 48, 61
1, 82896, Note_on_c, 2, 60, 61
1, 82896, Note_on_c, 2, 64, 61
1, 82896, Note_on_c, 2, 67, 61
1, 82902, Note_on_c, 2, 65, 0
1, 82902, Note_on_c, 2, 62, 0
1, 82902, Note_on_c, 2, 58, 0
1, 82919, Note_on_c, 2, 46, 0
1, 82944, Note_on_c, 3, 67, 69
1, 82944, Note_on_c, 4, 91, 107
1, 82944, Note_on_c, 5, 67, 71
1, 82944, Note_on_c, 5, 60, 71
1, 82944, Note_on_c, 9, 42, 66
1, 82944, Note_on_c, 9, 70, 92
1, 82944, Note_on_c, 11, 67, 71
1, 82944, Note_on_c, 11, 60, 71
1, 82945, Note_on_c, 11, 60, 0
1, 82945, Note_on_c, 5, 67, 0
1, 82945, Note_on_c, 11, 67, 0
1, 82945, Note_on_c, 5, 60, 0
1, 82948, Note_on_c, 3, 69, 0
1, 82962, Note_on_c, 9, 70, 0
1, 82962, Note_on_c, 9, 42, 0
1, 83040, Note_on_c, 5, 67, 80
1, 83040, Note_on_c, 5, 60, 80
1, 83040, Note_on_c, 9, 42, 75
1, 83040, Note_on_c, 11, 67, 80
1, 83040, Note_on_c, 11, 60, 80
1, 83041, Note_on_c, 11, 60, 0
1, 83041, Note_on_c, 5, 67, 0
1, 83041, Note_on_c, 11, 67, 0
1, 83041, Note_on_c, 5, 60, 0
1, 83058, Note_on_c, 9, 42, 0
1, 83136, Note_on_c, 4, 88, 107
1, 83136, Note_on_c, 5, 67, 92
1, 83136, Note_on_c, 5, 60, 92
1, 83136, Note_on_c, 6, 67, 107
1, 83136, Note_on_c, 9, 46, 107
1, 83136, Note_on_c, 11, 67, 92
1, 83136, Note_on_c, 11, 60, 92
1, 83143, Note_on_c, 4, 91, 0
1, 83154, Note_on_c, 9, 46, 0
1, 83178, Note_on_c, 5, 67, 0
1, 83178, Note_on_c, 5, 60, 0
1, 83178, Note_on_c, 11, 60, 0
1, 83178, Note_on_c, 11, 67, 0
1, 83232, Note_on_c, 5, 67, 64
1, 83232, Note_on_c, 5, 60, 64
1, 83232, Note_on_c, 9, 70, 44
1, 83232, Note_on_c, 11, 67, 64
1, 83232, Note_on_c, 11, 60, 64
1, 83250, Note_on_c, 9, 70, 0
1, 83266, Note_on_c, 5, 60, 0
1, 83266, Note_on_c, 11, 60, 0
1, 83270, Note_on_c, 11, 67, 0
1, 83270, Note_on_c, 5, 67, 0
1, 83300, Note_on_c, 3, 67, 0
1, 83309, Note_on_c, 6, 67, 0
1, 83328, Note_on_c, 4, 84, 107
1, 83328, Note_on_c, 5, 67, 71
1, 83328, Note_on_c, 5, 60, 71
1, 83328, Note_on_c, 9, 42, 66
1, 83328, Note_on_c, 9, 70, 92
1, 83328, Note_on_c, 11, 67, 71
1, 83328, Note_on_c, 11, 60, 71
1, 83329, Note_on_c, 11, 60, 0
1, 83329, Note_on_c, 5, 60, 0
1, 83329, Note_on_c, 5, 67, 0
1, 83329, Note_on_c, 11, 67, 0
1, 83341, Note_on_c, 4, 88, 0
1, 83346, Note_on_c, 9, 42, 0
1, 83346, Note_on_c, 9, 70, 0
1, 83424, Note_on_c, 5, 67, 80
1, 83424, Note_on_c, 5, 60, 80
1, 83424, Note_on_c, 9, 42, 75
1, 83424, Note_on_c, 11, 67, 80
1, 83424, Note_on_c, 11, 60, 80
1, 83425, Note_on_c, 11, 60, 0
1, 83425, Note_on_c, 11, 67, 0
1, 83425, Note_on_c, 5, 60, 0
1, 83425, Note_on_c, 5, 67, 0
1, 83442, Note_on_c, 9, 42, 0
1, 83520, Note_on_c, 4, 88, 107
1, 83520, Note_on_c, 5, 67, 92
1, 83520, Note_on_c, 5, 60, 92
1, 83520, Note_on_c, 6, 67, 107
1, 83520, Note_on_c, 9, 46, 107
1, 83520, Note_on_c, 9, 70, 80
1, 83520, Note_on_c, 11, 67, 92
1, 83520, Note_on_c, 11, 60, 92
1, 83538, Note_on_c, 9, 70, 0
1, 83538, Note_on_c, 9, 46, 0
1, 83562, Note_on_c, 5, 60, 0
1, 83562, Note_on_c, 5, 67, 0
1, 83562, Note_on_c, 11, 60, 0
1, 83562, Note_on_c, 11, 67, 0
1, 83568, Note_on_c, 4, 84, 0
1, 83616, Note_on_c, 5, 67, 64
1, 83616, Note_on_c, 5, 60, 64
1, 83616, Note_on_c, 11, 67, 64
1, 83616, Note_on_c, 11, 60, 64
1, 83650, Note_on_c, 11, 60, 0
1, 83650, Note_on_c, 5, 60, 0
1, 83654, Note_on_c, 5, 67, 0
1, 83654, Note_on_c, 11, 67, 0
1, 83679, Note_on_c, 6, 67, 0
1, 83688, Note_on_c, 4, 88, 0
1, 83712, Note_on_c, 3, 65, 89
1, 83712, Note_on_c, 4, 91, 107
1, 83712, Note_on_c, 5, 67, 71
1, 83712, Note_on_c, 5, 60, 71
1, 83712, Note_on_c, 9, 42, 66
1, 83712, Note_on_c, 9, 70, 86
1, 83712, Note_on_c, 11, 67, 71
1, 83712, Note_on_c, 11, 60, 71
1, 83713, Note_on_c, 11, 60, 0
1, 83713, Note_on_c, 5, 60, 0
1, 83713, Note_on_c, 5, 67, 0
1, 83713, Note_on_c, 11, 67, 0
1, 83730, Note_on_c, 9, 42, 0
1, 83730, Note_on_c, 9, 70, 0
1, 83808, Note_on_c, 5, 67, 80
1, 83808, Note_on_c, 5, 60, 80
1, 83808, Note_on_c, 9, 42, 75
1, 83808, Note_on_c, 11, 67, 80
1, 83808, Note_on_c, 11, 60, 80
1, 83809, Note_on_c, 11, 60, 0
1, 83809, Note_on_c, 5, 67, 0
1, 83809, Note_on_c, 11, 67, 0
1, 83809, Note_on_c, 5, 60, 0
1, 83826, Note_on_c, 9, 42, 0
1, 83904, Note_on_c, 4, 88, 107
1, 83904, Note_on_c, 5, 67, 92
1, 83904, Note_on_c, 5, 60, 92
1, 83904, Note_on_c, 6, 67, 107
1, 83904, Note_on_c, 9, 46, 107
1, 83904, Note_on_c, 9, 70, 13
1, 83904, Note_on_c, 11, 67, 92
1, 83904, Note_on_c, 11, 60, 92
1, 83922, Note_on_c, 9, 70, 0
1, 83922, Note_on_c, 9, 46, 0
1, 83935, Note_on_c, 4, 91, 0
1, 83946, Note_on_c, 5, 67, 0
1, 83946, Note_on_c, 5, 60, 0
1, 83946, Note_on_c, 11, 67, 0
1, 83946, Note_on_c, 11, 60, 0
1, 84000, Note_on_c, 5, 67, 64
1, 84000, Note_on_c, 5, 60, 64
1, 84000, Note_on_c, 9, 70, 26
1, 84000, Note_on_c, 11, 67, 64
1, 84000, Note_on_c, 11, 60, 64
1, 84018, Note_on_c, 9, 70, 0
1, 84034, Note_on_c, 5, 60, 0
1, 84034, Note_on_c, 11, 60, 0
1, 84038, Note_on_c, 11, 67, 0
1, 84038, Note_on_c, 5, 67, 0
1, 84062, Note_on_c, 3, 65, 0
1, 84065, Note_on_c, 4, 88, 0
1, 84077, Note_on_c, 6, 67, 0
1, 84096, Note_on_c, 3, 69, 76
1, 84096, Note_on_c, 4, 84, 107
1, 84096, Note_on_c, 5, 67, 71
1, 84096, Note_on_c, 5, 60, 71
1, 84096, Note_on_c, 9, 42, 66
1, 84096, Note_on_c, 9, 70, 92
1, 84096, Note_on_c, 11, 67, 71
1, 84096, Note_on_c, 11, 60, 71
1, 84097, Note_on_c, 11, 60, 0
1, 84097, Note_on_c, 5, 60, 0
1, 84097, Note_on_c, 5, 67, 0
1, 84097, Note_on_c, 11, 67, 0
1, 84114, Note_on_c, 9, 42, 0
1, 84114, Note_on_c, 9, 70, 0
1, 84192, Note_on_c, 5, 67, 80
1, 84192, Note_on_c, 5, 60, 80
1, 84192, Note_on_c, 9, 42, 75
1, 84192, Note_on_c, 11, 67, 80
1, 84192, Note_on_c, 11, 60, 80
1, 84193, Note_on_c, 11, 60, 0
1, 84193, Note_on_c, 5, 67, 0
1, 84193, Note_on_c, 11, 67, 0
1, 84193, Note_on_c, 5, 60, 0
1, 84210, Note_on_c, 9, 42, 0
1, 84288, Note_on_c, 4, 88, 107
1, 84288, Note_on_c, 5, 67, 92
1, 84288, Note_on_c, 5, 60, 92
1, 84288, Note_on_c, 6, 65, 98
1, 84288, Note_on_c, 9, 46, 107
1, 84288, Note_on_c, 9, 70, 63
1, 84288, Note_on_c, 11, 67, 92
1, 84288, Note_on_c, 11, 60, 92
1, 84306, Note_on_c, 9, 70, 0
1, 84306, Note_on_c, 9, 46, 0
1, 84313, Note_on_c, 2, 67, 0
1, 84330, Note_on_c, 5, 67, 0
1, 84330, Note_on_c, 5, 60, 0
1, 84330, Note_on_c, 11, 67, 0
1, 84330, Note_on_c, 11, 60, 0
1, 84335, Note_on_c, 4, 84, 0
1, 84346, Note_on_c, 3, 69, 0
1, 84384, Note_on_c, 5, 67, 64
1, 84384, Note_on_c, 5, 60, 64
1, 84384, Note_on_c, 11, 67, 64
1, 84384, Note_on_c, 11, 60, 64
1, 84418, Note_on_c, 11, 60, 0
1, 84418, Note_on_c, 5, 60, 0
1, 84422, Note_on_c, 11, 67, 0
1, 84422, Note_on_c, 5, 67, 0
1, 84432, Note_on_c, 2, 50, 61
1, 84432, Note_on_c, 2, 57, 61
1, 84432, Note_on_c, 2, 62, 61
1, 84432, Note_on_c, 2, 67, 61
1, 84438, Note_on_c, 2, 48, 0
1, 84438, Note_on_c, 2, 64, 0
1, 84438, Note_on_c, 2, 60, 0
1, 84447, Note_on_c, 6, 65, 0
1, 84478, Note_on_c, 4, 88, 0
1, 84480, Note_on_c, 3, 69, 80
1, 84480, Note_on_c, 4, 93, 107
1, 84480, Note_on_c, 5, 67, 71
1, 84480, Note_on_c, 5, 62, 71
1, 84480, Note_on_c, 9, 27, 127
1, 84480, Note_on_c, 9, 45, 107
1, 84480, Note_on_c, 9, 36, 127
1, 84480, Note_on_c, 9, 42, 66
1, 84480, Note_on_c, 9, 70, 92
1, 84480, Note_on_c, 11, 67, 71
1, 84480, Note_on_c, 11, 62, 71
1, 84481, Note_on_c, 11, 62, 0
1, 84481, Note_on_c, 5, 67, 0
1, 84481, Note_on_c, 11, 67, 0
1, 84481, Note_on_c, 5, 62, 0
1, 84498, Note_on_c, 9, 70, 0
1, 84498, Note_on_c, 9, 45, 0
1, 84498, Note_on_c, 9, 27, 0
1, 84498, Note_on_c, 9, 36, 0
1, 84498, Note_on_c, 9, 42, 0
1, 84576, Note_on_c, 5, 67, 80
1, 84576, Note_on_c, 5, 62, 80
1, 84576, Note_on_c, 9, 42, 75
1, 84576, Note_on_c, 11, 67, 80
1, 84576, Note_on_c, 11, 62, 80
1, 84577, Note_on_c, 11, 62, 0
1, 84577, Note_on_c, 5, 67, 0
1, 84577, Note_on_c, 11, 67, 0
1, 84577, Note_on_c, 5, 62, 0
1, 84594, Note_on_c, 9, 42, 0
1, 84672, Note_on_c, 4, 91, 107
1, 84672, Note_on_c, 5, 67, 92
1, 84672, Note_on_c, 5, 62, 92
1, 84672, Note_on_c, 6, 69, 107
1, 84672, Note_on_c, 9, 27, 127
1, 84672, Note_on_c, 9, 45, 107
1, 84672, Note_on_c, 9, 36, 127
1, 84672, Note_on_c, 9, 46, 107
1, 84672, Note_on_c, 11, 67, 92
1, 84672, Note_on_c, 11, 62, 92
1, 84690, Note_on_c, 9, 46, 0
1, 84690, Note_on_c, 9, 36, 0
1, 84690, Note_on_c, 9, 27, 0
1, 84690, Note_on_c, 9, 45, 0
1, 84714, Note_on_c, 11, 62, 0
1, 84714, Note_on_c, 5, 62, 0
1, 84714, Note_on_c, 5, 67, 0
1, 84714, Note_on_c, 11, 67, 0
1, 84728, Note_on_c, 4, 93, 0
1, 84768, Note_on_c, 5, 67, 64
1, 84768, Note_on_c, 5, 62, 64
1, 84768, Note_on_c, 9, 70, 40
1, 84768, Note_on_c, 11, 67, 64
1, 84768, Note_on_c, 11, 62, 64
1, 84786, Note_on_c, 9, 70, 0
1, 84802, Note_on_c, 5, 62, 0
1, 84802, Note_on_c, 11, 62, 0
1, 84806, Note_on_c, 11, 67, 0
1, 84806, Note_on_c, 5, 67, 0
1, 84845, Note_on_c, 6, 69, 0
1, 84864, Note_on_c, 4, 86, 107
1, 84864, Note_on_c, 5, 67, 71
1, 84864, Note_on_c, 5, 62, 71
1, 84864, Note_on_c, 9, 27, 127
1, 84864, Note_on_c, 9, 45, 107
1, 84864, Note_on_c, 9, 36, 127
1, 84864, Note_on_c, 9, 42, 66
1, 84864, Note_on_c, 9, 70, 86
1, 84864, Note_on_c, 11, 67, 71
1, 84864, Note_on_c, 11, 62, 71
1, 84865, Note_on_c, 11, 62, 0
1, 84865, Note_on_c, 11, 67, 0
1, 84865, Note_on_c, 5, 67, 0
1, 84865, Note_on_c, 5, 62, 0
1, 84867, Note_on_c, 4, 91, 0
1, 84882, Note_on_c, 9, 42, 0
1, 84882, Note_on_c, 9, 45, 0
1, 84882, Note_on_c, 9, 27, 0
1, 84882, Note_on_c, 9, 36, 0
1, 84882, Note_on_c, 9, 70, 0
1, 84960, Note_on_c, 5, 67, 80
1, 84960, Note_on_c, 5, 62, 80
1, 84960, Note_on_c, 9, 42, 75
1, 84960, Note_on_c, 11, 67, 80
1, 84960, Note_on_c, 11, 62, 80
1, 84961, Note_on_c, 11, 62, 0
1, 84961, Note_on_c, 5, 67, 0
1, 84961, Note_on_c, 11, 67, 0
1, 84961, Note_on_c, 5, 62, 0
1, 84978, Note_on_c, 9, 42, 0
1, 85056, Note_on_c, 4, 91, 107
1, 85056, Note_on_c, 5, 67, 92
1, 85056, Note_on_c, 5, 62, 92
1, 85056, Note_on_c, 6, 69, 107
1, 85056, Note_on_c, 9, 40, 127
1, 85056, Note_on_c, 9, 48, 127
1, 85056, Note_on_c, 9, 46, 92
1, 85056, Note_on_c, 9, 70, 80
1, 85056, Note_on_c, 11, 67, 92
1, 85056, Note_on_c, 11, 62, 92
1, 85074, Note_on_c, 9, 70, 0
1, 85074, Note_on_c, 9, 46, 0
1, 85074, Note_on_c, 9, 48, 0
1, 85091, Note_on_c, 4, 86, 0
1, 85098, Note_on_c, 11, 62, 0
1, 85098, Note_on_c, 5, 62, 0
1, 85098, Note_on_c, 5, 67, 0
1, 85098, Note_on_c, 11, 67, 0
1, 85152, Note_on_c, 5, 67, 64
1, 85152, Note_on_c, 5, 62, 64
1, 85152, Note_on_c, 9, 40, 127
1, 85152, Note_on_c, 9, 48, 127
1, 85152, Note_on_c, 11, 67, 64
1, 85152, Note_on_c, 11, 62, 64
1, 85170, Note_on_c, 9, 48, 0
1, 85170, Note_on_c, 9, 40, 0
1, 85186, Note_on_c, 5, 62, 0
1, 85186, Note_on_c, 11, 62, 0
1, 85190, Note_on_c, 5, 67, 0
1, 85190, Note_on_c, 11, 67, 0
1, 85200, Note_on_c, 2, 66, 61
1, 85215, Note_on_c, 6, 69, 0
1, 85223, Note_on_c, 2, 67, 0
1, 85237, Note_on_c, 4, 91, 0
1, 85248, Note_on_c, 4, 93, 107
1, 85248, Note_on_c, 5, 66, 71
1, 85248, Note_on_c, 5, 62, 71
1, 85248, Note_on_c, 9, 27, 127
1, 85248, Note_on_c, 9, 45, 107
1, 85248, Note_on_c, 9, 36, 127
1, 85248, Note_on_c, 9, 42, 66
1, 85248, Note_on_c, 9, 70, 92
1, 85248, Note_on_c, 11, 66, 71
1, 85248, Note_on_c, 11, 62, 71
1, 85249, Note_on_c, 11, 62, 0
1, 85249, Note_on_c, 11, 66, 0
1, 85249, Note_on_c, 5, 66, 0
1, 85249, Note_on_c, 5, 62, 0
1, 85266, Note_on_c, 9, 42, 0
1, 85266, Note_on_c, 9, 45, 0
1, 85266, Note_on_c, 9, 27, 0
1, 85266, Note_on_c, 9, 36, 0
1, 85266, Note_on_c, 9, 70, 0
1, 85344, Note_on_c, 5, 66, 80
1, 85344, Note_on_c, 5, 62, 80
1, 85344, Note_on_c, 9, 42, 75
1, 85344, Note_on_c, 11, 66, 80
1, 85344, Note_on_c, 11, 62, 80
1, 85345, Note_on_c, 11, 62, 0
1, 85345, Note_on_c, 5, 62, 0
1, 85345, Note_on_c, 5, 66, 0
1, 85345, Note_on_c, 11, 66, 0
1, 85362, Note_on_c, 9, 42, 0
1, 85440, Note_on_c, 4, 90, 107
1, 85440, Note_on_c, 5, 66, 92
1, 85440, Note_on_c, 5, 62, 92
1, 85440, Note_on_c, 6, 69, 107
1, 85440, Note_on_c, 9, 46, 107
1, 85440, Note_on_c, 9, 70, 20
1, 85440, Note_on_c, 11, 66, 92
1, 85440, Note_on_c, 11, 62, 92
1, 85458, Note_on_c, 9, 70, 0
1, 85458, Note_on_c, 9, 46, 0
1, 85482, Note_on_c, 5, 66, 0
1, 85482, Note_on_c, 11, 66, 0
1, 85482, Note_on_c, 5, 62, 0
1, 85482, Note_on_c, 11, 62, 0
1, 85521, Note_on_c, 4, 93, 0
1, 85536, Note_on_c, 5, 66, 64
1, 85536, Note_on_c, 5, 62, 64
1, 85536, Note_on_c, 9, 70, 49
1, 85536, Note_on_c, 11, 66, 64
1, 85536, Note_on_c, 11, 62, 64
1, 85554, Note_on_c, 9, 70, 0
1, 85570, Note_on_c, 5, 62, 0
1, 85570, Note_on_c, 11, 62, 0
1, 85574, Note_on_c, 5, 66, 0
1, 85574, Note_on_c, 11, 66, 0
1, 85613, Note_on_c, 6, 69, 0
1, 85621, Note_on_c, 4, 90, 0
1, 85626, Note_on_c, 3, 69, 0
1, 85632, Note_on_c, 4, 86, 107
1, 85632, Note_on_c, 5, 66, 71
1, 85632, Note_on_c, 5, 62, 71
1, 85632, Note_on_c, 9, 27, 127
1, 85632, Note_on_c, 9, 45, 107
1, 85632, Note_on_c, 9, 36, 127
1, 85632, Note_on_c, 9, 42, 66
1, 85632, Note_on_c, 9, 70, 76
1, 85632, Note_on_c, 11, 66, 71
1, 85632, Note_on_c, 11, 62, 71
1, 85633, Note_on_c, 11, 62, 0
1, 85633, Note_on_c, 5, 66, 0
1, 85633, Note_on_c, 11, 66, 0
1, 85633, Note_on_c, 5, 62, 0
1, 85650, Note_on_c, 9, 70, 0
1, 85650, Note_on_c, 9, 45, 0
1, 85650, Note_on_c, 9, 27, 0
1, 85650, Note_on_c, 9, 36, 0
1, 85650, Note_on_c, 9, 42, 0
1, 85728, Note_on_c, 5, 66, 80
1, 85728, Note_on_c, 5, 62, 80
1, 85728, Note_on_c, 9, 42, 75
1, 85728, Note_on_c, 11, 66, 80
1, 85728, Note_on_c, 11, 62, 80
1, 85729, Note_on_c, 11, 62, 0
1, 85729, Note_on_c, 5, 66, 0
1, 85729, Note_on_c, 11, 66, 0
1, 85729, Note_on_c, 5, 62, 0
1, 85746, Note_on_c, 9, 42, 0
1, 85824, Note_on_c, 4, 90, 107
1, 85824, Note_on_c, 5, 66, 92
1, 85824, Note_on_c, 5, 62, 92
1, 85824, Note_on_c, 6, 69, 107
1, 85824, Note_on_c, 9, 27, 127
1, 85824, Note_on_c, 9, 36, 127
1, 85824, Note_on_c, 9, 45, 107
1, 85824, Note_on_c, 9, 46, 107
1, 85824, Note_on_c, 9, 70, 66
1, 85824, Note_on_c, 11, 66, 92
1, 85824, Note_on_c, 11, 62, 92
1, 85842, Note_on_c, 9, 70, 0
1, 85842, Note_on_c, 9, 46, 0
1, 85842, Note_on_c, 9, 27, 0
1, 85842, Note_on_c, 9, 45, 0
1, 85842, Note_on_c, 9, 36, 0
1, 85866, Note_on_c, 11, 62, 0
1, 85866, Note_on_c, 11, 66, 0
1, 85866, Note_on_c, 5, 62, 0
1, 85866, Note_on_c, 5, 66, 0
1, 85871, Note_on_c, 4, 86, 0
1, 85920, Note_on_c, 5, 66, 64
1, 85920, Note_on_c, 5, 62, 64
1, 85920, Note_on_c, 11, 66, 64
1, 85920, Note_on_c, 11, 62, 64
1, 85949, Note_on_c, 4, 90, 0
1, 85954, Note_on_c, 11, 62, 0
1, 85954, Note_on_c, 5, 62, 0
1, 85958, Note_on_c, 5, 66, 0
1, 85958, Note_on_c, 11, 66, 0
1, 85962, Note_on_c, 2, 62, 0
1, 85968, Note_on_c, 2, 43, 61
1, 85968, Note_on_c, 2, 62, 61
1, 85968, Note_on_c, 2, 67, 61
1, 85968, Note_on_c, 2, 70, 61
1, 85970, Note_on_c, 2, 66, 0
1, 85971, Note_on_c, 2, 50, 0
1, 85980, Note_on_c, 2, 57, 0
1, 85995, Note_on_c, 2, 62, 0
1, 85997, Note_on_c, 6, 69, 0
1, 86016, Note_on_c, 3, 70, 101
1, 86016, Note_on_c, 4, 94, 107
1, 86016, Note_on_c, 5, 62, 71
1, 86016, Note_on_c, 5, 70, 71
1, 86016, Note_on_c, 9, 40, 127
1, 86016, Note_on_c, 9, 50, 127
1, 86016, Note_on_c, 9, 42, 66
1, 86016, Note_on_c, 9, 70, 92
1, 86016, Note_on_c, 11, 62, 71
1, 86016, Note_on_c, 11, 70, 71
1, 86017, Note_on_c, 11, 70, 0
1, 86017, Note_on_c, 5, 62, 0
1, 86017, Note_on_c, 11, 62, 0
1, 86017, Note_on_c, 5, 70, 0
1, 86034, Note_on_c, 9, 42, 0
1, 86034, Note_on_c, 9, 70, 0
1, 86034, Note_on_c, 9, 40, 0
1, 86112, Note_on_c, 5, 62, 80
1, 86112, Note_on_c, 5, 70, 80
1, 86112, Note_on_c, 9, 42, 75
1, 86112, Note_on_c, 11, 62, 80
1, 86112, Note_on_c, 11, 70, 80
1, 86113, Note_on_c, 11, 70, 0
1, 86113, Note_on_c, 5, 70, 0
1, 86113, Note_on_c, 5, 62, 0
1, 86113, Note_on_c, 11, 62, 0
1, 86130, Note_on_c, 9, 42, 0
1, 86208, Note_on_c, 4, 91, 107
1, 86208, Note_on_c, 5, 62, 92
1, 86208, Note_on_c, 5, 70, 92
1, 86208, Note_on_c, 6, 70, 107
1, 86208, Note_on_c, 9, 46, 107
1, 86208, Note_on_c, 11, 62, 92
1, 86208, Note_on_c, 11, 70, 92
1, 86226, Note_on_c, 9, 46, 0
1, 86241, Note_on_c, 4, 94, 0
1, 86250, Note_on_c, 5, 70, 0
1, 86250, Note_on_c, 5, 62, 0
1, 86250, Note_on_c, 11, 62, 0
1, 86250, Note_on_c, 11, 70, 0
1, 86304, Note_on_c, 5, 62, 64
1, 86304, Note_on_c, 5, 70, 64
1, 86304, Note_on_c, 9, 70, 44
1, 86304, Note_on_c, 11, 62, 64
1, 86304, Note_on_c, 11, 70, 64
1, 86322, Note_on_c, 9, 70, 0
1, 86325, Control_c, 2, 64, 127
1, 86325, Control_c, 2, 64, 127
1, 86327, Control_c, 2, 64, 127
1, 86328, Control_c, 2, 64, 127
1, 86329, Control_c, 2, 64, 127
1, 86331, Control_c, 2, 64, 127
1, 86332, Control_c, 2, 64, 127
1, 86333, Control_c, 2, 64, 127
1, 86335, Control_c, 2, 64, 127
1, 86336, Control_c, 2, 64, 127
1, 86337, Control_c, 2, 64, 127
1, 86337, Control_c, 2, 64, 127
1, 86338, Control_c, 2, 64, 127
1, 86339, Control_c, 2, 64, 127
1, 86340, Control_c, 2, 64, 127
1, 86342, Note_on_c, 5, 70, 0
1, 86342, Note_on_c, 5, 62, 0
1, 86342, Note_on_c, 11, 70, 0
1, 86342, Note_on_c, 11, 62, 0
1, 86371, Note_on_c, 4, 91, 0
1, 86381, Note_on_c, 6, 70, 0
1, 86400, Note_on_c, 4, 86, 107
1, 86400, Note_on_c, 5, 62, 71
1, 86400, Note_on_c, 5, 70, 71
1, 86400, Note_on_c, 9, 40, 127
1, 86400, Note_on_c, 9, 50, 100
1, 86400, Note_on_c, 9, 42, 66
1, 86400, Note_on_c, 9, 70, 92
1, 86400, Note_on_c, 11, 62, 71
1, 86400, Note_on_c, 11, 70, 71
1, 86401, Note_on_c, 11, 70, 0
1, 86401, Note_on_c, 5, 62, 0
1, 86401, Note_on_c, 11, 62, 0
1, 86401, Note_on_c, 5, 70, 0
1, 86418, Note_on_c, 9, 70, 0
1, 86418, Note_on_c, 9, 40, 0
1, 86418, Note_on_c, 9, 50, 0
1, 86418, Note_on_c, 9, 42, 0
1, 86496, Note_on_c, 5, 62, 80
1, 86496, Note_on_c, 5, 70, 80
1, 86496, Note_on_c, 9, 42, 75
1, 86496, Note_on_c, 11, 62, 80
1, 86496, Note_on_c, 11, 70, 80
1, 86497, Note_on_c, 11, 70, 0
1, 86497, Note_on_c, 5, 70, 0
1, 86497, Note_on_c, 5, 62, 0
1, 86497, Note_on_c, 11, 62, 0
1, 86514, Note_on_c, 9, 42, 0
1, 86592, Note_on_c, 4, 89, 107
1, 86592, Note_on_c, 5, 62, 92
1, 86592, Note_on_c, 5, 70, 92
1, 86592, Note_on_c, 6, 70, 107
1, 86592, Note_on_c, 9, 46, 107
1, 86592, Note_on_c, 9, 70, 80
1, 86592, Note_on_c, 11, 62, 92
1, 86592, Note_on_c, 11, 70, 92
1, 86610, Note_on_c, 9, 70, 0
1, 86610, Note_on_c, 9, 46, 0
1, 86634, Note_on_c, 5, 62, 0
1, 86634, Note_on_c, 11, 62, 0
1, 86634, Note_on_c, 5, 70, 0
1, 86634, Note_on_c, 11, 70, 0
1, 86688, Note_on_c, 5, 62, 64
1, 86688, Note_on_c, 5, 70, 64
1, 86688, Note_on_c, 9, 40, 100
1, 86688, Note_on_c, 9, 50, 90
1, 86688, Note_on_c, 11, 62, 64
1, 86688, Note_on_c, 11, 70, 64
1, 86690, Note_on_c, 4, 86, 0
1, 86706, Note_on_c, 9, 40, 0
1, 86706, Note_on_c, 9, 50, 0
1, 86726, Note_on_c, 5, 62, 0
1, 86726, Note_on_c, 5, 70, 0
1, 86726, Note_on_c, 11, 70, 0
1, 86726, Note_on_c, 11, 62, 0
1, 86730, Note_on_c, 2, 70, 0
1, 86730, Note_on_c, 2, 43, 0
1, 86730, Note_on_c, 2, 67, 0
1, 86736, Note_on_c, 2, 45, 61
1, 86736, Note_on_c, 2, 60, 61
1, 86736, Note_on_c, 2, 65, 61
1, 86736, Note_on_c, 2, 69, 61
1, 86747, Note_on_c, 4, 89, 0
1, 86751, Note_on_c, 6, 70, 0
1, 86764, Note_on_c, 3, 70, 0
1, 86784, Note_on_c, 3, 69, 87
1, 86784, Note_on_c, 4, 93, 107
1, 86784, Note_on_c, 5, 60, 71
1, 86784, Note_on_c, 5, 69, 71
1, 86784, Note_on_c, 9, 40, 127
1, 86784, Note_on_c, 9, 50, 127
1, 86784, Note_on_c, 9, 42, 66
1, 86784, Note_on_c, 9, 70, 86
1, 86784, Note_on_c, 11, 60, 71
1, 86784, Note_on_c, 11, 69, 71
1, 86785, Note_on_c, 11, 69, 0
1, 86785, Note_on_c, 11, 60, 0
1, 86785, Note_on_c, 5, 60, 0
1, 86785, Note_on_c, 5, 69, 0
1, 86798, Control_c, 2, 64, 0
1, 86798, Control_c, 2, 64, 0
1, 86798, Control_c, 2, 64, 0
1, 86798, Control_c, 2, 64, 0
1, 86798, Control_c, 2, 64, 0
1, 86798, Control_c, 2, 64, 0
1, 86798, Control_c, 2, 64, 0
1, 86798, Control_c, 2, 64, 0
1, 86798, Control_c, 2, 64, 0
1, 86798, Control_c, 2, 64, 0
1, 86798, Control_c, 2, 64, 0
1, 86798, Control_c, 2, 64, 0
1, 86798, Control_c, 2, 64, 0
1, 86798, Control_c, 2, 64, 0
1, 86798, Control_c, 2, 64, 0
1, 86802, Note_on_c, 9, 42, 0
1, 86802, Note_on_c, 9, 40, 0
1, 86802, Note_on_c, 9, 50, 0
1, 86802, Note_on_c, 9, 70, 0
1, 86880, Note_on_c, 5, 60, 80
1, 86880, Note_on_c, 5, 69, 80
1, 86880, Note_on_c, 9, 42, 75
1, 86880, Note_on_c, 11, 60, 80
1, 86880, Note_on_c, 11, 69, 80
1, 86881, Note_on_c, 11, 69, 0
1, 86881, Note_on_c, 5, 60, 0
1, 86881, Note_on_c, 11, 60, 0
1, 86881, Note_on_c, 5, 69, 0
1, 86898, Note_on_c, 9, 42, 0
1, 86976, Note_on_c, 4, 89, 107
1, 86976, Note_on_c, 5, 60, 92
1, 86976, Note_on_c, 5, 69, 92
1, 86976, Note_on_c, 6, 69, 107
1, 86976, Note_on_c, 9, 40, 100
1, 86976, Note_on_c, 9, 50, 90
1, 86976, Note_on_c, 9, 46, 107
1, 86976, Note_on_c, 9, 70, 13
1, 86976, Note_on_c, 11, 60, 92
1, 86976, Note_on_c, 11, 69, 92
1, 86994, Note_on_c, 9, 70, 0
1, 86994, Note_on_c, 9, 46, 0
1, 86994, Note_on_c, 9, 50, 0
1, 86994, Note_on_c, 9, 40, 0
1, 87009, Note_on_c, 4, 93, 0
1, 87018, Note_on_c, 11, 60, 0
1, 87018, Note_on_c, 11, 69, 0
1, 87018, Note_on_c, 5, 69, 0
1, 87018, Note_on_c, 5, 60, 0
1, 87072, Note_on_c, 5, 60, 64
1, 87072, Note_on_c, 5, 69, 64
1, 87072, Note_on_c, 9, 70, 26
1, 87072, Note_on_c, 11, 60, 64
1, 87072, Note_on_c, 11, 69, 64
1, 87090, Note_on_c, 9, 70, 0
1, 87110, Note_on_c, 5, 60, 0
1, 87110, Note_on_c, 11, 69, 0
1, 87110, Note_on_c, 5, 69, 0
1, 87110, Note_on_c, 11, 60, 0
1, 87149, Note_on_c, 6, 69, 0
1, 87152, Control_c, 2, 64, 127
1, 87152, Control_c, 2, 64, 127
1, 87152, Control_c, 2, 64, 127
1, 87152, Control_c, 2, 64, 127
1, 87152, Control_c, 2, 64, 127
1, 87152, Control_c, 2, 64, 127
1, 87152, Control_c, 2, 64, 127
1, 87152, Control_c, 2, 64, 127
1, 87152, Control_c, 2, 64, 127
1, 87152, Control_c, 2, 64, 127
1, 87152, Control_c, 2, 64, 127
1, 87152, Control_c, 2, 64, 127
1, 87152, Control_c, 2, 64, 127
1, 87152, Control_c, 2, 64, 127
1, 87152, Control_c, 2, 64, 127
1, 87166, Note_on_c, 4, 89, 0
1, 87168, Note_on_c, 4, 84, 107
1, 87168, Note_on_c, 5, 60, 71
1, 87168, Note_on_c, 5, 69, 71
1, 87168, Note_on_c, 9, 40, 127
1, 87168, Note_on_c, 9, 50, 127
1, 87168, Note_on_c, 9, 42, 66
1, 87168, Note_on_c, 9, 70, 92
1, 87168, Note_on_c, 11, 60, 71
1, 87168, Note_on_c, 11, 69, 71
1, 87169, Note_on_c, 11, 69, 0
1, 87169, Note_on_c, 11, 60, 0
1, 87169, Note_on_c, 5, 60, 0
1, 87169, Note_on_c, 5, 69, 0
1, 87186, Note_on_c, 9, 42, 0
1, 87186, Note_on_c, 9, 50, 0
1, 87186, Note_on_c, 9, 40, 0
1, 87186, Note_on_c, 9, 70, 0
1, 87264, Note_on_c, 5, 60, 80
1, 87264, Note_on_c, 5, 69, 80
1, 87264, Note_on_c, 9, 27, 95
1, 87264, Note_on_c, 9, 36, 95
1, 87264, Note_on_c, 9, 45, 75
1, 87264, Note_on_c, 9, 42, 75
1, 87264, Note_on_c, 11, 60, 80
1, 87264, Note_on_c, 11, 69, 80
1, 87265, Note_on_c, 11, 69, 0
1, 87265, Note_on_c, 11, 60, 0
1, 87265, Note_on_c, 5, 60, 0
1, 87265, Note_on_c, 5, 69, 0
1, 87282, Note_on_c, 9, 45, 0
1, 87282, Note_on_c, 9, 27, 0
1, 87282, Note_on_c, 9, 36, 0
1, 87282, Note_on_c, 9, 42, 0
1, 87358, Note_on_c, 4, 84, 0
1, 87360, Note_on_c, 4, 89, 107
1, 87360, Note_on_c, 5, 60, 92
1, 87360, Note_on_c, 5, 69, 92
1, 87360, Note_on_c, 6, 69, 107
1, 87360, Note_on_c, 9, 27, 111
1, 87360, Note_on_c, 9, 36, 111
1, 87360, Note_on_c, 9, 45, 91
1, 87360, Note_on_c, 9, 46, 107
1, 87360, Note_on_c, 9, 70, 63
1, 87360, Note_on_c, 11, 60, 92
1, 87360, Note_on_c, 11, 69, 92
1, 87378, Note_on_c, 9, 70, 0
1, 87378, Note_on_c, 9, 46, 0
1, 87378, Note_on_c, 9, 45, 0
1, 87378, Note_on_c, 9, 36, 0
1, 87378, Note_on_c, 9, 27, 0
1, 87402, Note_on_c, 11, 69, 0
1, 87402, Note_on_c, 5, 60, 0
1, 87402, Note_on_c, 11, 60, 0
1, 87402, Note_on_c, 5, 69, 0
1, 87456, Note_on_c, 5, 60, 64
1, 87456, Note_on_c, 5, 69, 64
1, 87456, Note_on_c, 9, 27, 127
1, 87456, Note_on_c, 9, 36, 127
1, 87456, Note_on_c, 9, 45, 107
1, 87456, Note_on_c, 11, 60, 64
1, 87456, Note_on_c, 11, 69, 64
1, 87474, Note_on_c, 9, 45, 0
1, 87474, Note_on_c, 9, 36, 0
1, 87474, Note_on_c, 9, 27, 0
1, 87494, Note_on_c, 11, 69, 0
1, 87494, Note_on_c, 5, 60, 0
1, 87494, Note_on_c, 5, 69, 0
1, 87494, Note_on_c, 11, 60, 0
1, 87498, Note_on_c, 2, 65, 0
1, 87504, Note_on_c, 2, 46, 61
1, 87504, Note_on_c, 2, 58, 61
1, 87504, Note_on_c, 2, 62, 61
1, 87504, Note_on_c, 2, 65, 61
1, 87510, Note_on_c, 2, 65, 0
1, 87510, Note_on_c, 2, 45, 0
1, 87510, Note_on_c, 2, 60, 0
1, 87510, Note_on_c, 2, 69, 0
1, 87512, Control_c, 2, 64, 0
1, 87512, Control_c, 2, 64, 0
1, 87512, Control_c, 2, 64, 0
1, 87512, Control_c, 2, 64, 0
1, 87512, Control_c, 2, 64, 0
1, 87512, Control_c, 2, 64, 0
1, 87512, Control_c, 2, 64, 0
1, 87512, Control_c, 2, 64, 0
1, 87512, Control_c, 2, 64, 0
1, 87512, Control_c, 2, 64, 0
1, 87512, Control_c, 2, 64, 0
1, 87512, Control_c, 2, 64, 0
1, 87512, Control_c, 2, 64, 0
1, 87512, Control_c, 2, 64, 0
1, 87512, Control_c, 2, 64, 0
1, 87533, Note_on_c, 6, 69, 0
1, 87535, Note_on_c, 4, 89, 0
1, 87544, Note_on_c, 3, 69, 0
1, 87552, Note_on_c, 1, 34, 60
1, 87552, Note_on_c, 3, 65, 89
1, 87552, Note_on_c, 4, 89, 107
1, 87552, Note_on_c, 5, 58, 64
1, 87552, Note_on_c, 9, 27, 127
1, 87552, Note_on_c, 9, 45, 107
1, 87552, Note_on_c, 9, 36, 127
1, 87552, Note_on_c, 9, 42, 66
1, 87552, Note_on_c, 9, 70, 92
1, 87552, Note_on_c, 9, 57, 97
1, 87552, Note_on_c, 12, 53, 80
1, 87554, Pitch_bend_c, 1, 8192
1, 87554, Control_c, 5, 10, 9
1, 87555, Pitch_bend_c, 11, 8192
1, 87570, Note_on_c, 9, 57, 0
1, 87570, Note_on_c, 9, 27, 0
1, 87570, Note_on_c, 9, 36, 0
1, 87570, Note_on_c, 9, 70, 0
1, 87570, Note_on_c, 9, 45, 0
1, 87570, Note_on_c, 9, 42, 0
1, 87595, Note_on_c, 12, 53, 0
1, 87602, Control_c, 12, 10, 5
1, 87639, Note_on_c, 1, 34, 0
1, 87642, Note_on_c, 5, 58, 0
1, 87648, Note_on_c, 5, 65, 65
1, 87648, Note_on_c, 9, 42, 75
1, 87648, Note_on_c, 12, 53, 73
1, 87650, Control_c, 5, 10, 13
1, 87650, Control_c, 12, 10, 13
1, 87650, Control_c, 12, 6, 25
1, 87666, Note_on_c, 9, 42, 0
1, 87682, Note_on_c, 12, 53, 0
1, 87698, Control_c, 12, 10, 20
1, 87738, Note_on_c, 5, 65, 0
1, 87744, Note_on_c, 1, 46, 92
1, 87744, Note_on_c, 4, 86, 107
1, 87744, Note_on_c, 5, 70, 80
1, 87744, Note_on_c, 6, 65, 125
1, 87744, Note_on_c, 9, 46, 107
1, 87744, Note_on_c, 12, 53, 80
1, 87746, Control_c, 5, 10, 17
1, 87746, Control_c, 12, 10, 27
1, 87762, Note_on_c, 9, 46, 0
1, 87776, Note_on_c, 4, 89, 0
1, 87787, Note_on_c, 12, 53, 0
1, 87794, Control_c, 12, 10, 34
1, 87818, Control_c, 12, 6, 40
1, 87834, Note_on_c, 1, 46, 0
1, 87840, Note_on_c, 5, 74, 68
1, 87840, Note_on_c, 9, 70, 40
1, 87840, Note_on_c, 12, 53, 73
1, 87842, Control_c, 5, 10, 20
1, 87842, Control_c, 12, 10, 41
1, 87858, Note_on_c, 9, 70, 0
1, 87859, Note_on_c, 5, 70, 0
1, 87874, Note_on_c, 12, 53, 0
1, 87890, Control_c, 12, 10, 49
1, 87919, Note_on_c, 6, 65, 0
1, 87930, Note_on_c, 5, 74, 0
1, 87934, Note_on_c, 4, 86, 0
1, 87936, Note_on_c, 1, 34, 66
1, 87936, Note_on_c, 4, 82, 107
1, 87936, Note_on_c, 5, 77, 86
1, 87936, Note_on_c, 9, 27, 127
1, 87936, Note_on_c, 9, 38, 127
1, 87936, Note_on_c, 9, 36, 127
1, 87936, Note_on_c, 9, 45, 107
1, 87936, Note_on_c, 9, 42, 66
1, 87936, Note_on_c, 9, 70, 86
1, 87936, Note_on_c, 12, 53, 80
1, 87938, Control_c, 5, 10, 24
1, 87938, Control_c, 12, 10, 56
1, 87954, Note_on_c, 9, 70, 0
1, 87954, Note_on_c, 9, 27, 0
1, 87954, Note_on_c, 9, 36, 0
1, 87954, Note_on_c, 9, 42, 0
1, 87954, Note_on_c, 9, 38, 0
1, 87954, Note_on_c, 9, 45, 0
1, 87979, Note_on_c, 12, 53, 0
1, 87986, Control_c, 12, 10, 63
1, 88022, Control_c, 12, 6, 60
1, 88026, Note_on_c, 1, 34, 0
1, 88032, Note_on_c, 5, 74, 59
1, 88032, Note_on_c, 9, 42, 75
1, 88032, Note_on_c, 12, 53, 73
1, 88034, Control_c, 5, 10, 28
1, 88034, Control_c, 12, 10, 70
1, 88038, Note_on_c, 5, 77, 0
1, 88050, Note_on_c, 9, 42, 0
1, 88066, Note_on_c, 12, 53, 0
1, 88082, Control_c, 12, 10, 77
1, 88122, Note_on_c, 5, 74, 0
1, 88128, Note_on_c, 1, 46, 92
1, 88128, Note_on_c, 4, 86, 107
1, 88128, Note_on_c, 5, 70, 80
1, 88128, Note_on_c, 6, 65, 105
1, 88128, Note_on_c, 9, 46, 92
1, 88128, Note_on_c, 9, 70, 80
1, 88128, Note_on_c, 12, 53, 80
1, 88130, Note_on_c, 3, 65, 0
1, 88130, Control_c, 5, 10, 31
1, 88130, Control_c, 12, 10, 84
1, 88146, Note_on_c, 9, 70, 0
1, 88146, Note_on_c, 9, 46, 0
1, 88159, Note_on_c, 4, 82, 0
1, 88171, Note_on_c, 12, 53, 0
1, 88178, Control_c, 12, 10, 92
1, 88202, Control_c, 12, 6, 85
1, 88218, Note_on_c, 1, 46, 0
1, 88224, Note_on_c, 5, 65, 94
1, 88224, Note_on_c, 12, 53, 73
1, 88226, Control_c, 5, 10, 35
1, 88226, Control_c, 12, 10, 99
1, 88243, Note_on_c, 5, 70, 0
1, 88258, Note_on_c, 12, 53, 0
1, 88274, Control_c, 12, 10, 106
1, 88280, Note_on_c, 6, 65, 0
1, 88295, Note_on_c, 4, 86, 0
1, 88314, Note_on_c, 5, 65, 0
1, 88320, Note_on_c, 1, 34, 66
1, 88320, Note_on_c, 3, 65, 80
1, 88320, Note_on_c, 4, 89, 107
1, 88320, Note_on_c, 5, 58, 59
1, 88320, Note_on_c, 9, 27, 127
1, 88320, Note_on_c, 9, 36, 127
1, 88320, Note_on_c, 9, 45, 107
1, 88320, Note_on_c, 9, 42, 66
1, 88320, Note_on_c, 9, 70, 92
1, 88320, Note_on_c, 12, 53, 80
1, 88322, Control_c, 5, 10, 39
1, 88322, Control_c, 12, 10, 113
1, 88338, Note_on_c, 9, 70, 0
1, 88338, Note_on_c, 9, 27, 0
1, 88338, Note_on_c, 9, 42, 0
1, 88338, Note_on_c, 9, 36, 0
1, 88338, Note_on_c, 9, 45, 0
1, 88363, Note_on_c, 12, 53, 0
1, 88370, Control_c, 12, 10, 120
1, 88410, Note_on_c, 1, 34, 0
1, 88410, Note_on_c, 5, 58, 0
1, 88416, Note_on_c, 5, 65, 94
1, 88416, Note_on_c, 9, 42, 75
1, 88416, Note_on_c, 12, 53, 73
1, 88418, Control_c, 5, 10, 42
1, 88418, Control_c, 12, 6, 110
1, 88434, Note_on_c, 9, 42, 0
1, 88450, Note_on_c, 12, 53, 0
1, 88506, Note_on_c, 5, 65, 0
1, 88512, Note_on_c, 1, 46, 92
1, 88512, Note_on_c, 4, 86, 107
1, 88512, Note_on_c, 5, 70, 64
1, 88512, Note_on_c, 6, 65, 85
1, 88512, Note_on_c, 9, 46, 107
1, 88512, Note_on_c, 9, 70, 20
1, 88514, Control_c, 5, 10, 46
1, 88530, Note_on_c, 9, 70, 0
1, 88530, Note_on_c, 9, 46, 0
1, 88536, Note_on_c, 4, 89, 0
1, 88602, Note_on_c, 1, 46, 0
1, 88608, Note_on_c, 5, 74, 77
1, 88608, Note_on_c, 9, 70, 49
1, 88610, Control_c, 5, 10, 50
1, 88626, Note_on_c, 9, 70, 0
1, 88627, Note_on_c, 5, 70, 0
1, 88640, Note_on_c, 6, 65, 0
1, 88674, Note_on_c, 4, 86, 0
1, 88698, Note_on_c, 5, 74, 0
1, 88704, Note_on_c, 1, 34, 66
1, 88704, Note_on_c, 3, 69, 95
1, 88704, Note_on_c, 4, 82, 107
1, 88704, Note_on_c, 5, 77, 86
1, 88704, Note_on_c, 9, 27, 127
1, 88704, Note_on_c, 9, 38, 127
1, 88704, Note_on_c, 9, 45, 107
1, 88704, Note_on_c, 9, 36, 127
1, 88704, Note_on_c, 9, 42, 66
1, 88704, Note_on_c, 9, 70, 76
1, 88706, Control_c, 5, 10, 54
1, 88710, Note_on_c, 3, 65, 0
1, 88722, Note_on_c, 9, 70, 0
1, 88722, Note_on_c, 9, 45, 0
1, 88722, Note_on_c, 9, 27, 0
1, 88722, Note_on_c, 9, 42, 0
1, 88722, Note_on_c, 9, 38, 0
1, 88722, Note_on_c, 9, 36, 0
1, 88794, Note_on_c, 1, 34, 0
1, 88800, Note_on_c, 5, 74, 71
1, 88800, Note_on_c, 9, 42, 75
1, 88802, Control_c, 5, 10, 57
1, 88806, Note_on_c, 5, 77, 0
1, 88818, Note_on_c, 9, 42, 0
1, 88890, Note_on_c, 5, 74, 0
1, 88896, Note_on_c, 1, 46, 89
1, 88896, Note_on_c, 4, 86, 107
1, 88896, Note_on_c, 5, 70, 64
1, 88896, Note_on_c, 9, 46, 107
1, 88896, Note_on_c, 9, 70, 66
1, 88898, Control_c, 5, 10, 61
1, 88914, Note_on_c, 9, 70, 0
1, 88914, Note_on_c, 9, 46, 0
1, 88917, Note_on_c, 4, 82, 0
1, 88955, Note_on_c, 3, 69, 0
1, 88990, Note_on_c, 1, 46, 0
1, 88992, Note_on_c, 5, 65, 80
1, 88994, Control_c, 5, 10, 65
1, 88994, Control_c, 12, 6, 10
1, 89011, Note_on_c, 5, 70, 0
1, 89034, Note_on_c, 2, 46, 0
1, 89034, Note_on_c, 2, 62, 0
1, 89034, Note_on_c, 2, 58, 0
1, 89040, Note_on_c, 2, 41, 61
1, 89040, Note_on_c, 2, 53, 61
1, 89040, Note_on_c, 2, 57, 61
1, 89040, Note_on_c, 2, 60, 61
1, 89049, Note_on_c, 4, 86, 0
1, 89082, Note_on_c, 5, 65, 0
1, 89088, Note_on_c, 1, 29, 63
1, 89088, Note_on_c, 3, 69, 95
1, 89088, Note_on_c, 4, 89, 107
1, 89088, Note_on_c, 5, 57, 59
1, 89088, Note_on_c, 9, 27, 127
1, 89088, Note_on_c, 9, 45, 107
1, 89088, Note_on_c, 9, 36, 127
1, 89088, Note_on_c, 9, 42, 66
1, 89088, Note_on_c, 9, 70, 92
1, 89088, Note_on_c, 12, 53, 80
1, 89090, Control_c, 5, 10, 68
1, 89090, Pitch_bend_c, 11, 8192
1, 89090, Control_c, 12, 10, 125
1, 89106, Note_on_c, 9, 70, 0
1, 89106, Note_on_c, 9, 42, 0
1, 89106, Note_on_c, 9, 45, 0
1, 89106, Note_on_c, 9, 27, 0
1, 89106, Note_on_c, 9, 36, 0
1, 89131, Note_on_c, 12, 53, 0
1, 89138, Control_c, 12, 10, 119
1, 89175, Note_on_c, 1, 29, 0
1, 89178, Note_on_c, 5, 57, 0
1, 89184, Note_on_c, 5, 65, 68
1, 89184, Note_on_c, 9, 42, 75
1, 89184, Note_on_c, 12, 53, 73
1, 89186, Control_c, 5, 10, 72
1, 89186, Control_c, 12, 10, 113
1, 89186, Control_c, 12, 6, 25
1, 89202, Note_on_c, 9, 42, 0
1, 89218, Note_on_c, 12, 53, 0
1, 89234, Control_c, 12, 10, 107
1, 89274, Note_on_c, 5, 65, 0
1, 89280, Note_on_c, 1, 41, 89
1, 89280, Note_on_c, 4, 84, 107
1, 89280, Note_on_c, 5, 69, 64
1, 89280, Note_on_c, 6, 72, 125
1, 89280, Note_on_c, 9, 46, 107
1, 89280, Note_on_c, 12, 53, 80
1, 89282, Control_c, 5, 10, 76
1, 89282, Control_c, 12, 10, 101
1, 89298, Note_on_c, 9, 46, 0
1, 89323, Note_on_c, 12, 53, 0
1, 89330, Control_c, 12, 10, 95
1, 89337, Note_on_c, 4, 89, 0
1, 89354, Control_c, 12, 6, 40
1, 89370, Note_on_c, 1, 41, 0
1, 89376, Note_on_c, 5, 72, 74
1, 89376, Note_on_c, 9, 70, 44
1, 89376, Note_on_c, 12, 53, 73
1, 89378, Control_c, 5, 10, 79
1, 89378, Control_c, 12, 10, 89
1, 89394, Note_on_c, 9, 70, 0
1, 89395, Note_on_c, 5, 69, 0
1, 89410, Note_on_c, 12, 53, 0
1, 89426, Control_c, 12, 10, 83
1, 89436, Note_on_c, 4, 84, 0
1, 89455, Note_on_c, 6, 72, 0
1, 89466, Note_on_c, 5, 72, 0
1, 89472, Note_on_c, 1, 29, 63
1, 89472, Note_on_c, 4, 81, 107
1, 89472, Note_on_c, 5, 77, 89
1, 89472, Note_on_c, 9, 27, 127
1, 89472, Note_on_c, 9, 38, 127
1, 89472, Note_on_c, 9, 45, 107
1, 89472, Note_on_c, 9, 36, 127
1, 89472, Note_on_c, 9, 42, 66
1, 89472, Note_on_c, 9, 70, 92
1, 89472, Note_on_c, 12, 53, 80
1, 89474, Control_c, 5, 10, 83
1, 89474, Control_c, 12, 10, 77
1, 89490, Note_on_c, 9, 70, 0
1, 89490, Note_on_c, 9, 42, 0
1, 89490, Note_on_c, 9, 36, 0
1, 89490, Note_on_c, 9, 38, 0
1, 89490, Note_on_c, 9, 27, 0
1, 89490, Note_on_c, 9, 45, 0
1, 89515, Note_on_c, 12, 53, 0
1, 89522, Control_c, 12, 10, 71
1, 89558, Control_c, 12, 6, 60
1, 89562, Note_on_c, 1, 29, 0
1, 89568, Note_on_c, 5, 72, 77
1, 89568, Note_on_c, 9, 42, 75
1, 89568, Note_on_c, 12, 53, 73
1, 89570, Control_c, 5, 10, 87
1, 89570, Control_c, 12, 10, 65
1, 89574, Note_on_c, 5, 77, 0
1, 89586, Note_on_c, 9, 42, 0
1, 89602, Note_on_c, 12, 53, 0
1, 89604, Note_on_c, 3, 69, 0
1, 89618, Control_c, 12, 10, 59
1, 89658, Note_on_c, 5, 72, 0
1, 89660, Note_on_c, 4, 81, 0
1, 89664, Note_on_c, 1, 41, 89
1, 89664, Note_on_c, 4, 84, 107
1, 89664, Note_on_c, 5, 69, 64
1, 89664, Note_on_c, 6, 72, 105
1, 89664, Note_on_c, 9, 46, 107
1, 89664, Note_on_c, 9, 70, 80
1, 89664, Note_on_c, 12, 53, 80
1, 89666, Control_c, 5, 10, 91
1, 89666, Control_c, 12, 10, 53
1, 89682, Note_on_c, 9, 70, 0
1, 89682, Note_on_c, 9, 46, 0
1, 89707, Note_on_c, 12, 53, 0
1, 89714, Control_c, 12, 10, 47
1, 89738, Control_c, 12, 6, 85
1, 89754, Note_on_c, 1, 41, 0
1, 89760, Note_on_c, 5, 65, 74
1, 89760, Note_on_c, 12, 53, 73
1, 89762, Control_c, 5, 10, 94
1, 89762, Control_c, 12, 10, 41
1, 89779, Note_on_c, 5, 69, 0
1, 89794, Note_on_c, 12, 53, 0
1, 89810, Control_c, 12, 10, 35
1, 89816, Note_on_c, 6, 72, 0
1, 89837, Note_on_c, 4, 84, 0
1, 89850, Note_on_c, 5, 65, 0
1, 89856, Note_on_c, 1, 29, 63
1, 89856, Note_on_c, 3, 69, 92
1, 89856, Note_on_c, 4, 89, 107
1, 89856, Note_on_c, 5, 57, 59
1, 89856, Note_on_c, 9, 27, 127
1, 89856, Note_on_c, 9, 45, 107
1, 89856, Note_on_c, 9, 36, 127
1, 89856, Note_on_c, 9, 42, 66
1, 89856, Note_on_c, 9, 70, 86
1, 89856, Note_on_c, 12, 53, 80
1, 89858, Control_c, 5, 10, 98
1, 89858, Control_c, 12, 10, 29
1, 89874, Note_on_c, 9, 70, 0
1, 89874, Note_on_c, 9, 42, 0
1, 89874, Note_on_c, 9, 45, 0
1, 89874, Note_on_c, 9, 27, 0
1, 89874, Note_on_c, 9, 36, 0
1, 89899, Note_on_c, 12, 53, 0
1, 89906, Control_c, 12, 10, 23
1, 89946, Note_on_c, 5, 57, 0
1, 89946, Note_on_c, 1, 29, 0
1, 89952, Note_on_c, 5, 65, 74
1, 89952, Note_on_c, 9, 42, 75
1, 89952, Note_on_c, 12, 53, 73
1, 89954, Control_c, 5, 10, 102
1, 89954, Control_c, 12, 10, 17
1, 89954, Control_c, 12, 6, 110
1, 89970, Note_on_c, 9, 42, 0
1, 89986, Note_on_c, 12, 53, 0
1, 90002, Control_c, 12, 10, 11
1, 90042, Note_on_c, 5, 65, 0
1, 90048, Note_on_c, 1, 41, 86
1, 90048, Note_on_c, 4, 84, 107
1, 90048, Note_on_c, 5, 69, 64
1, 90048, Note_on_c, 6, 72, 85
1, 90048, Note_on_c, 9, 46, 107
1, 90048, Note_on_c, 9, 70, 13
1, 90050, Control_c, 5, 10, 105
1, 90050, Control_c, 12, 10, 5
1, 90066, Note_on_c, 9, 70, 0
1, 90066, Note_on_c, 9, 46, 0
1, 90095, Note_on_c, 4, 89, 0
1, 90138, Note_on_c, 1, 41, 0
1, 90144, Note_on_c, 5, 72, 80
1, 90144, Note_on_c, 9, 70, 26
1, 90146, Control_c, 5, 10, 109
1, 90162, Note_on_c, 9, 70, 0
1, 90163, Note_on_c, 5, 69, 0
1, 90176, Note_on_c, 6, 72, 0
1, 90202, Note_on_c, 4, 84, 0
1, 90234, Note_on_c, 5, 72, 0
1, 90240, Note_on_c, 1, 29, 63
1, 90240, Note_on_c, 3, 72, 95
1, 90240, Note_on_c, 4, 81, 107
1, 90240, Note_on_c, 5, 77, 86
1, 90240, Note_on_c, 9, 27, 127
1, 90240, Note_on_c, 9, 38, 127
1, 90240, Note_on_c, 9, 45, 107
1, 90240, Note_on_c, 9, 36, 127
1, 90240, Note_on_c, 9, 42, 66
1, 90240, Note_on_c, 9, 70, 92
1, 90242, Control_c, 5, 10, 113
1, 90258, Note_on_c, 9, 70, 0
1, 90258, Note_on_c, 9, 42, 0
1, 90258, Note_on_c, 9, 36, 0
1, 90258, Note_on_c, 9, 27, 0
1, 90258, Note_on_c, 9, 45, 0
1, 90258, Note_on_c, 9, 38, 0
1, 90289, Note_on_c, 3, 69, 0
1, 90330, Note_on_c, 1, 29, 0
1, 90336, Note_on_c, 5, 72, 74
1, 90336, Note_on_c, 9, 42, 75
1, 90338, Control_c, 5, 10, 116
1, 90342, Note_on_c, 5, 77, 0
1, 90354, Note_on_c, 9, 42, 0
1, 90426, Note_on_c, 5, 72, 0
1, 90432, Note_on_c, 1, 41, 86
1, 90432, Note_on_c, 4, 84, 107
1, 90432, Note_on_c, 5, 69, 64
1, 90432, Note_on_c, 9, 46, 107
1, 90432, Note_on_c, 9, 70, 63
1, 90434, Control_c, 5, 10, 120
1, 90450, Note_on_c, 9, 70, 0
1, 90450, Note_on_c, 9, 46, 0
1, 90451, Note_on_c, 4, 81, 0
1, 90526, Note_on_c, 1, 41, 0
1, 90528, Note_on_c, 5, 65, 80
1, 90530, Control_c, 5, 10, 124
1, 90530, Control_c, 12, 6, 10
1, 90547, Note_on_c, 5, 69, 0
1, 90570, Note_on_c, 2, 41, 0
1, 90570, Note_on_c, 2, 60, 0
1, 90570, Note_on_c, 2, 53, 0
1, 90570, Note_on_c, 2, 57, 0
1, 90576, Note_on_c, 2, 38, 61
1, 90576, Note_on_c, 2, 50, 61
1, 90576, Note_on_c, 2, 53, 61
1, 90576, Note_on_c, 2, 57, 61
1, 90584, Note_on_c, 2, 65, 61
1, 90592, Note_on_c, 4, 84, 0
1, 90601, Note_on_c, 3, 72, 0
1, 90618, Note_on_c, 5, 65, 0
1, 90624, Note_on_c, 1, 26, 60
1, 90624, Note_on_c, 3, 74, 107
1, 90624, Note_on_c, 4, 93, 107
1, 90624, Note_on_c, 5, 62, 59
1, 90624, Note_on_c, 9, 27, 127
1, 90624, Note_on_c, 9, 45, 107
1, 90624, Note_on_c, 9, 36, 127
1, 90624, Note_on_c, 9, 42, 66
1, 90624, Note_on_c, 9, 70, 92
1, 90624, Note_on_c, 12, 53, 80
1, 90626, Control_c, 5, 10, 127
1, 90642, Note_on_c, 9, 70, 0
1, 90642, Note_on_c, 9, 42, 0
1, 90642, Note_on_c, 9, 36, 0
1, 90642, Note_on_c, 9, 45, 0
1, 90642, Note_on_c, 9, 27, 0
1, 90667, Note_on_c, 12, 53, 0
1, 90674, Control_c, 12, 10, 5
1, 90711, Note_on_c, 1, 26, 0
1, 90714, Note_on_c, 5, 62, 0
1, 90720, Note_on_c, 5, 69, 74
1, 90720, Note_on_c, 9, 42, 75
1, 90720, Note_on_c, 12, 53, 73
1, 90722, Control_c, 5, 10, 124
1, 90722, Control_c, 12, 10, 13
1, 90722, Control_c, 12, 6, 25
1, 90738, Note_on_c, 9, 42, 0
1, 90754, Note_on_c, 12, 53, 0
1, 90770, Control_c, 12, 10, 20
1, 90810, Note_on_c, 5, 69, 0
1, 90816, Note_on_c, 1, 38, 92
1, 90816, Note_on_c, 4, 89, 107
1, 90816, Note_on_c, 5, 74, 64
1, 90816, Note_on_c, 6, 69, 125
1, 90816, Note_on_c, 9, 46, 107
1, 90816, Note_on_c, 12, 53, 80
1, 90818, Control_c, 5, 10, 120
1, 90818, Control_c, 12, 10, 27
1, 90834, Note_on_c, 9, 46, 0
1, 90854, Note_on_c, 4, 93, 0
1, 90859, Note_on_c, 12, 53, 0
1, 90866, Control_c, 12, 10, 34
1, 90890, Control_c, 12, 6, 40
1, 90906, Note_on_c, 1, 38, 0
1, 90912, Note_on_c, 5, 77, 80
1, 90912, Note_on_c, 9, 70, 40
1, 90912, Note_on_c, 12, 53, 73
1, 90914, Control_c, 5, 10, 116
1, 90914, Control_c, 12, 10, 41
1, 90930, Note_on_c, 9, 70, 0
1, 90931, Note_on_c, 5, 74, 0
1, 90946, Note_on_c, 12, 53, 0
1, 90962, Control_c, 12, 10, 49
1, 90990, Note_on_c, 4, 89, 0
1, 90991, Note_on_c, 6, 69, 0
1, 91002, Note_on_c, 5, 77, 0
1, 91006, Note_on_c, 3, 74, 0
1, 91008, Note_on_c, 1, 26, 66
1, 91008, Note_on_c, 3, 76, 92
1, 91008, Note_on_c, 4, 86, 107
1, 91008, Note_on_c, 5, 86, 71
1, 91008, Note_on_c, 9, 27, 127
1, 91008, Note_on_c, 9, 38, 127
1, 91008, Note_on_c, 9, 45, 107
1, 91008, Note_on_c, 9, 36, 127
1, 91008, Note_on_c, 9, 42, 66
1, 91008, Note_on_c, 9, 70, 86
1, 91008, Note_on_c, 12, 53, 80
1, 91010, Control_c, 5, 10, 112
1, 91010, Control_c, 12, 10, 56
1, 91026, Note_on_c, 9, 70, 0
1, 91026, Note_on_c, 9, 42, 0
1, 91026, Note_on_c, 9, 36, 0
1, 91026, Note_on_c, 9, 45, 0
1, 91026, Note_on_c, 9, 38, 0
1, 91026, Note_on_c, 9, 27, 0
1, 91051, Note_on_c, 12, 53, 0
1, 91058, Control_c, 12, 10, 63
1, 91094, Control_c, 12, 6, 60
1, 91098, Note_on_c, 1, 26, 0
1, 91104, Note_on_c, 5, 74, 74
1, 91104, Note_on_c, 9, 42, 75
1, 91104, Note_on_c, 12, 53, 73
1, 91106, Control_c, 5, 10, 108
1, 91106, Control_c, 12, 10, 70
1, 91110, Note_on_c, 5, 86, 0
1, 91122, Note_on_c, 9, 42, 0
1, 91138, Note_on_c, 12, 53, 0
1, 91154, Control_c, 12, 10, 77
1, 91194, Note_on_c, 5, 74, 0
1, 91200, Note_on_c, 1, 38, 92
1, 91200, Note_on_c, 4, 89, 107
1, 91200, Note_on_c, 5, 69, 64
1, 91200, Note_on_c, 6, 69, 105
1, 91200, Note_on_c, 9, 46, 92
1, 91200, Note_on_c, 9, 70, 80
1, 91200, Note_on_c, 12, 53, 80
1, 91202, Control_c, 5, 10, 104
1, 91202, Control_c, 12, 10, 84
1, 91214, Note_on_c, 4, 86, 0
1, 91218, Note_on_c, 9, 70, 0
1, 91218, Note_on_c, 9, 46, 0
1, 91243, Note_on_c, 12, 53, 0
1, 91250, Control_c, 12, 10, 92
1, 91274, Control_c, 12, 6, 85
1, 91290, Note_on_c, 1, 38, 0
1, 91296, Note_on_c, 5, 65, 80
1, 91296, Note_on_c, 12, 53, 73
1, 91298, Control_c, 5, 10, 100
1, 91298, Control_c, 12, 10, 99
1, 91315, Note_on_c, 5, 69, 0
1, 91317, Note_on_c, 3, 76, 0
1, 91330, Note_on_c, 12, 53, 0
1, 91346, Control_c, 12, 10, 106
1, 91352, Note_on_c, 6, 69, 0
1, 91386, Note_on_c, 5, 65, 0
1, 91390, Note_on_c, 4, 89, 0
1, 91392, Note_on_c, 1, 26, 66
1, 91392, Note_on_c, 3, 74, 107
1, 91392, Note_on_c, 4, 93, 107
1, 91392, Note_on_c, 5, 62, 59
1, 91392, Note_on_c, 9, 27, 127
1, 91392, Note_on_c, 9, 45, 107
1, 91392, Note_on_c, 9, 36, 127
1, 91392, Note_on_c, 9, 42, 66
1, 91392, Note_on_c, 9, 70, 92
1, 91392, Note_on_c, 12, 53, 80
1, 91394, Control_c, 5, 10, 96
1, 91394, Control_c, 12, 10, 113
1, 91410, Note_on_c, 9, 70, 0
1, 91410, Note_on_c, 9, 42, 0
1, 91410, Note_on_c, 9, 36, 0
1, 91410, Note_on_c, 9, 45, 0
1, 91410, Note_on_c, 9, 27, 0
1, 91435, Note_on_c, 12, 53, 0
1, 91442, Control_c, 12, 10, 120
1, 91482, Note_on_c, 1, 26, 0
1, 91482, Note_on_c, 5, 62, 0
1, 91488, Note_on_c, 5, 69, 74
1, 91488, Note_on_c, 9, 42, 75
1, 91488, Note_on_c, 12, 53, 73
1, 91490, Control_c, 5, 10, 92
1, 91490, Control_c, 12, 6, 110
1, 91506, Note_on_c, 9, 42, 0
1, 91522, Note_on_c, 12, 53, 0
1, 91578, Note_on_c, 5, 69, 0
1, 91584, Note_on_c, 1, 38, 92
1, 91584, Note_on_c, 4, 89, 107
1, 91584, Note_on_c, 5, 72, 64
1, 91584, Note_on_c, 6, 69, 85
1, 91584, Note_on_c, 9, 46, 107
1, 91584, Note_on_c, 9, 70, 20
1, 91586, Control_c, 5, 10, 88
1, 91602, Note_on_c, 9, 70, 0
1, 91602, Note_on_c, 9, 46, 0
1, 91612, Note_on_c, 4, 93, 0
1, 91674, Note_on_c, 1, 38, 0
1, 91680, Note_on_c, 5, 77, 80
1, 91680, Note_on_c, 9, 70, 49
1, 91682, Control_c, 5, 10, 84
1, 91698, Note_on_c, 9, 70, 0
1, 91699, Note_on_c, 5, 72, 0
1, 91712, Note_on_c, 6, 69, 0
1, 91727, Note_on_c, 4, 89, 0
1, 91770, Note_on_c, 5, 77, 0
1, 91776, Note_on_c, 1, 26, 66
1, 91776, Note_on_c, 3, 72, 92
1, 91776, Note_on_c, 4, 86, 107
1, 91776, Note_on_c, 5, 86, 74
1, 91776, Note_on_c, 9, 27, 127
1, 91776, Note_on_c, 9, 38, 127
1, 91776, Note_on_c, 9, 45, 107
1, 91776, Note_on_c, 9, 36, 127
1, 91776, Note_on_c, 9, 42, 66
1, 91776, Note_on_c, 9, 70, 76
1, 91778, Control_c, 5, 10, 80
1, 91793, Note_on_c, 3, 74, 0
1, 91794, Note_on_c, 9, 70, 0
1, 91794, Note_on_c, 9, 42, 0
1, 91794, Note_on_c, 9, 36, 0
1, 91794, Note_on_c, 9, 27, 0
1, 91794, Note_on_c, 9, 45, 0
1, 91794, Note_on_c, 9, 38, 0
1, 91866, Note_on_c, 1, 26, 0
1, 91872, Note_on_c, 5, 77, 74
1, 91872, Note_on_c, 9, 42, 75
1, 91874, Control_c, 5, 10, 76
1, 91878, Note_on_c, 5, 86, 0
1, 91890, Note_on_c, 9, 42, 0
1, 91962, Note_on_c, 5, 77, 0
1, 91968, Note_on_c, 1, 38, 89
1, 91968, Note_on_c, 4, 89, 107
1, 91968, Note_on_c, 5, 72, 64
1, 91968, Note_on_c, 9, 46, 107
1, 91968, Note_on_c, 9, 70, 66
1, 91970, Control_c, 5, 10, 72
1, 91986, Note_on_c, 9, 70, 0
1, 91986, Note_on_c, 9, 46, 0
1, 92011, Note_on_c, 4, 86, 0
1, 92062, Note_on_c, 1, 38, 0
1, 92064, Note_on_c, 5, 69, 80
1, 92066, Control_c, 5, 10, 68
1, 92066, Control_c, 12, 6, 10
1, 92083, Note_on_c, 5, 72, 0
1, 92106, Note_on_c, 2, 50, 0
1, 92106, Note_on_c, 2, 53, 0
1, 92106, Note_on_c, 2, 38, 0
1, 92112, Note_on_c, 2, 62, 61
1, 92114, Note_on_c, 2, 65, 0
1, 92120, Note_on_c, 2, 50, 61
1, 92120, Note_on_c, 2, 54, 61
1, 92120, Note_on_c, 2, 66, 61
1, 92131, Note_on_c, 4, 89, 0
1, 92154, Note_on_c, 5, 69, 0
1, 92160, Note_on_c, 3, 72, 0
1, 92160, Note_on_c, 1, 26, 63
1, 92160, Note_on_c, 3, 69, 95
1, 92160, Note_on_c, 4, 93, 107
1, 92160, Note_on_c, 5, 62, 59
1, 92160, Note_on_c, 9, 27, 127
1, 92160, Note_on_c, 9, 45, 107
1, 92160, Note_on_c, 9, 36, 127
1, 92160, Note_on_c, 9, 42, 66
1, 92160, Note_on_c, 9, 70, 92
1, 92160, Note_on_c, 12, 54, 80
1, 92162, Control_c, 5, 10, 64
1, 92162, Control_c, 12, 10, 125
1, 92178, Note_on_c, 9, 70, 0
1, 92178, Note_on_c, 9, 42, 0
1, 92178, Note_on_c, 9, 36, 0
1, 92178, Note_on_c, 9, 45, 0
1, 92178, Note_on_c, 9, 27, 0
1, 92203, Note_on_c, 12, 54, 0
1, 92210, Control_c, 12, 10, 119
1, 92247, Note_on_c, 1, 26, 0
1, 92250, Note_on_c, 5, 62, 0
1, 92256, Note_on_c, 5, 69, 74
1, 92256, Note_on_c, 9, 42, 75
1, 92256, Note_on_c, 12, 54, 73
1, 92258, Control_c, 5, 10, 60
1, 92258, Control_c, 12, 10, 113
1, 92258, Control_c, 12, 6, 25
1, 92274, Note_on_c, 9, 42, 0
1, 92290, Note_on_c, 12, 54, 0
1, 92306, Control_c, 12, 10, 107
1, 92346, Note_on_c, 5, 69, 0
1, 92352, Note_on_c, 1, 38, 89
1, 92352, Note_on_c, 4, 90, 107
1, 92352, Note_on_c, 5, 74, 64
1, 92352, Note_on_c, 6, 69, 125
1, 92352, Note_on_c, 9, 46, 107
1, 92352, Note_on_c, 12, 54, 80
1, 92354, Control_c, 5, 10, 56
1, 92354, Control_c, 12, 10, 101
1, 92370, Note_on_c, 9, 46, 0
1, 92395, Note_on_c, 12, 54, 0
1, 92402, Control_c, 12, 10, 95
1, 92426, Control_c, 12, 6, 40
1, 92442, Note_on_c, 1, 38, 0
1, 92448, Note_on_c, 5, 69, 80
1, 92448, Note_on_c, 9, 70, 44
1, 92448, Note_on_c, 12, 54, 73
1, 92450, Control_c, 5, 10, 52
1, 92450, Control_c, 12, 10, 89
1, 92460, Note_on_c, 4, 93, 0
1, 92466, Note_on_c, 9, 70, 0
1, 92467, Note_on_c, 5, 74, 0
1, 92482, Note_on_c, 12, 54, 0
1, 92498, Control_c, 12, 10, 83
1, 92502, Note_on_c, 4, 90, 0
1, 92527, Note_on_c, 6, 69, 0
1, 92538, Note_on_c, 5, 69, 0
1, 92544, Note_on_c, 1, 26, 63
1, 92544, Note_on_c, 4, 86, 107
1, 92544, Note_on_c, 5, 66, 80
1, 92544, Note_on_c, 9, 27, 127
1, 92544, Note_on_c, 9, 38, 127
1, 92544, Note_on_c, 9, 45, 107
1, 92544, Note_on_c, 9, 36, 127
1, 92544, Note_on_c, 9, 42, 66
1, 92544, Note_on_c, 9, 70, 92
1, 92544, Note_on_c, 12, 54, 80
1, 92546, Note_on_c, 3, 69, 0
1, 92546, Control_c, 5, 10, 48
1, 92546, Control_c, 12, 10, 77
1, 92562, Note_on_c, 9, 70, 0
1, 92562, Note_on_c, 9, 42, 0
1, 92562, Note_on_c, 9, 36, 0
1, 92562, Note_on_c, 9, 38, 0
1, 92562, Note_on_c, 9, 27, 0
1, 92562, Note_on_c, 9, 45, 0
1, 92587, Note_on_c, 12, 54, 0
1, 92594, Control_c, 12, 10, 71
1, 92630, Control_c, 12, 6, 60
1, 92634, Note_on_c, 5, 66, 0
1, 92634, Note_on_c, 1, 26, 0
1, 92640, Note_on_c, 5, 62, 80
1, 92640, Note_on_c, 9, 42, 75
1, 92640, Note_on_c, 12, 54, 73
1, 92642, Control_c, 5, 10, 44
1, 92642, Control_c, 12, 10, 65
1, 92658, Note_on_c, 9, 42, 0
1, 92674, Note_on_c, 12, 54, 0
1, 92690, Control_c, 12, 10, 59
1, 92730, Note_on_c, 5, 62, 0
1, 92736, Note_on_c, 1, 38, 89
1, 92736, Note_on_c, 4, 90, 107
1, 92736, Note_on_c, 5, 69, 80
1, 92736, Note_on_c, 6, 69, 105
1, 92736, Note_on_c, 9, 46, 107
1, 92736, Note_on_c, 9, 70, 80
1, 92736, Note_on_c, 12, 54, 80
1, 92738, Control_c, 5, 10, 40
1, 92738, Control_c, 12, 10, 53
1, 92754, Note_on_c, 9, 70, 0
1, 92754, Note_on_c, 9, 46, 0
1, 92779, Note_on_c, 12, 54, 0
1, 92786, Control_c, 12, 10, 47
1, 92795, Note_on_c, 4, 86, 0
1, 92810, Control_c, 12, 6, 85
1, 92826, Note_on_c, 5, 69, 0
1, 92826, Note_on_c, 1, 38, 0
1, 92832, Note_on_c, 5, 74, 80
1, 92832, Note_on_c, 12, 54, 73
1, 92834, Control_c, 5, 10, 36
1, 92834, Control_c, 12, 10, 41
1, 92866, Note_on_c, 12, 54, 0
1, 92879, Note_on_c, 4, 90, 0
1, 92882, Control_c, 12, 10, 35
1, 92888, Note_on_c, 6, 69, 0
1, 92922, Note_on_c, 5, 74, 0
1, 92928, Note_on_c, 1, 26, 63
1, 92928, Note_on_c, 3, 70, 88
1, 92928, Note_on_c, 4, 93, 107
1, 92928, Note_on_c, 5, 69, 80
1, 92928, Note_on_c, 9, 27, 127
1, 92928, Note_on_c, 9, 45, 107
1, 92928, Note_on_c, 9, 36, 127
1, 92928, Note_on_c, 9, 42, 66
1, 92928, Note_on_c, 9, 70, 86
1, 92928, Note_on_c, 12, 54, 80
1, 92930, Control_c, 5, 10, 32
1, 92930, Control_c, 12, 10, 29
1, 92946, Note_on_c, 9, 70, 0
1, 92946, Note_on_c, 9, 42, 0
1, 92946, Note_on_c, 9, 36, 0
1, 92946, Note_on_c, 9, 45, 0
1, 92946, Note_on_c, 9, 27, 0
1, 92971, Note_on_c, 12, 54, 0
1, 92978, Control_c, 12, 10, 23
1, 93018, Note_on_c, 1, 26, 0
1, 93018, Note_on_c, 5, 69, 0
1, 93024, Note_on_c, 5, 66, 80
1, 93024, Note_on_c, 9, 42, 75
1, 93024, Note_on_c, 12, 54, 73
1, 93026, Control_c, 5, 10, 28
1, 93026, Control_c, 12, 10, 17
1, 93026, Control_c, 12, 6, 110
1, 93042, Note_on_c, 9, 42, 0
1, 93058, Note_on_c, 12, 54, 0
1, 93074, Control_c, 12, 10, 11
1, 93114, Note_on_c, 5, 66, 0
1, 93120, Note_on_c, 1, 38, 86
1, 93120, Note_on_c, 4, 90, 107
1, 93120, Note_on_c, 5, 69, 80
1, 93120, Note_on_c, 6, 69, 85
1, 93120, Note_on_c, 9, 46, 107
1, 93120, Note_on_c, 9, 70, 13
1, 93122, Control_c, 5, 10, 24
1, 93122, Control_c, 12, 10, 5
1, 93138, Note_on_c, 9, 70, 0
1, 93138, Note_on_c, 9, 46, 0
1, 93143, Note_on_c, 4, 93, 0
1, 93210, Note_on_c, 1, 38, 0
1, 93210, Note_on_c, 5, 69, 0
1, 93216, Note_on_c, 5, 62, 80
1, 93216, Note_on_c, 9, 70, 26
1, 93218, Control_c, 5, 10, 20
1, 93234, Note_on_c, 9, 70, 0
1, 93248, Note_on_c, 6, 69, 0
1, 93262, Note_on_c, 4, 90, 0
1, 93271, Note_on_c, 3, 70, 0
1, 93276, Control_c, 2, 64, 127
1, 93306, Note_on_c, 5, 62, 0
1, 93312, Note_on_c, 1, 26, 63
1, 93312, Note_on_c, 3, 69, 69
1, 93312, Note_on_c, 4, 86, 107
1, 93312, Note_on_c, 5, 66, 80
1, 93312, Note_on_c, 9, 27, 127
1, 93312, Note_on_c, 9, 38, 127
1, 93312, Note_on_c, 9, 45, 107
1, 93312, Note_on_c, 9, 36, 127
1, 93312, Note_on_c, 9, 42, 66
1, 93312, Note_on_c, 9, 70, 92
1, 93314, Control_c, 5, 10, 16
1, 93330, Note_on_c, 9, 70, 0
1, 93330, Note_on_c, 9, 42, 0
1, 93330, Note_on_c, 9, 36, 0
1, 93330, Note_on_c, 9, 27, 0
1, 93330, Note_on_c, 9, 45, 0
1, 93330, Note_on_c, 9, 38, 0
1, 93402, Note_on_c, 1, 26, 0
1, 93402, Note_on_c, 5, 66, 0
1, 93408, Note_on_c, 5, 62, 80
1, 93408, Note_on_c, 9, 42, 75
1, 93410, Control_c, 5, 10, 12
1, 93426, Note_on_c, 9, 42, 0
1, 93498, Note_on_c, 5, 62, 0
1, 93504, Note_on_c, 1, 38, 86
1, 93504, Note_on_c, 4, 90, 107
1, 93504, Note_on_c, 5, 57, 80
1, 93504, Note_on_c, 9, 46, 107
1, 93504, Note_on_c, 9, 70, 63
1, 93506, Control_c, 5, 10, 8
1, 93521, Note_on_c, 4, 86, 0
1, 93522, Note_on_c, 9, 70, 0
1, 93522, Note_on_c, 9, 46, 0
1, 93574, Control_c, 2, 64, 0
1, 93594, Note_on_c, 5, 57, 0
1, 93598, Note_on_c, 1, 38, 0
1, 93600, Note_on_c, 5, 62, 80
1, 93602, Control_c, 5, 10, 4
1, 93602, Control_c, 12, 6, 10
1, 93625, Note_on_c, 4, 90, 0
1, 93642, Note_on_c, 2, 62, 0
1, 93648, Note_on_c, 2, 53, 61
1, 93648, Note_on_c, 2, 58, 61
1, 93650, Note_on_c, 2, 54, 0
1, 93650, Note_on_c, 2, 66, 0
1, 93650, Note_on_c, 2, 57, 0
1, 93650, Note_on_c, 2, 50, 0
1, 93656, Note_on_c, 2, 46, 61
1, 93656, Note_on_c, 2, 62, 61
1, 93663, Note_on_c, 3, 69, 0
1, 93690, Note_on_c, 5, 62, 0
1, 93696, Note_on_c, 1, 34, 60
1, 93696, Note_on_c, 3, 65, 87
1, 93696, Note_on_c, 4, 89, 107
1, 93696, Note_on_c, 5, 58, 59
1, 93696, Note_on_c, 9, 27, 127
1, 93696, Note_on_c, 9, 45, 107
1, 93696, Note_on_c, 9, 36, 127
1, 93696, Note_on_c, 9, 42, 66
1, 93696, Note_on_c, 9, 70, 92
1, 93696, Note_on_c, 12, 53, 80
1, 93698, Control_c, 5, 10, 2
1, 93714, Note_on_c, 9, 70, 0
1, 93714, Note_on_c, 9, 42, 0
1, 93714, Note_on_c, 9, 45, 0
1, 93714, Note_on_c, 9, 27, 0
1, 93714, Note_on_c, 9, 36, 0
1, 93739, Note_on_c, 12, 53, 0
1, 93746, Control_c, 12, 10, 5
1, 93783, Note_on_c, 1, 34, 0
1, 93786, Note_on_c, 5, 58, 0
1, 93792, Note_on_c, 5, 62, 68
1, 93792, Note_on_c, 9, 42, 75
1, 93792, Note_on_c, 12, 53, 73
1, 93794, Control_c, 5, 10, 6
1, 93794, Control_c, 12, 10, 13
1, 93794, Control_c, 12, 6, 25
1, 93810, Note_on_c, 9, 42, 0
1, 93826, Note_on_c, 12, 53, 0
1, 93842, Control_c, 12, 10, 20
1, 93882, Note_on_c, 5, 62, 0
1, 93888, Note_on_c, 1, 46, 92
1, 93888, Note_on_c, 4, 86, 107
1, 93888, Note_on_c, 5, 65, 64
1, 93888, Note_on_c, 6, 65, 125
1, 93888, Note_on_c, 9, 46, 107
1, 93888, Note_on_c, 12, 53, 80
1, 93890, Control_c, 5, 10, 10
1, 93890, Control_c, 12, 10, 27
1, 93906, Note_on_c, 9, 46, 0
1, 93931, Note_on_c, 12, 53, 0
1, 93938, Control_c, 12, 10, 34
1, 93945, Note_on_c, 4, 89, 0
1, 93962, Control_c, 12, 6, 40
1, 93978, Note_on_c, 5, 65, 0
1, 93978, Note_on_c, 1, 46, 0
1, 93984, Note_on_c, 5, 70, 64
1, 93984, Note_on_c, 9, 70, 40
1, 93984, Note_on_c, 12, 53, 73
1, 93986, Control_c, 5, 10, 14
1, 93986, Control_c, 12, 10, 41
1, 94002, Note_on_c, 9, 70, 0
1, 94018, Note_on_c, 12, 53, 0
1, 94034, Control_c, 12, 10, 49
1, 94063, Note_on_c, 6, 65, 0
1, 94065, Note_on_c, 4, 86, 0
1, 94074, Note_on_c, 5, 70, 0
1, 94080, Note_on_c, 1, 34, 66
1, 94080, Note_on_c, 4, 82, 107
1, 94080, Note_on_c, 5, 74, 95
1, 94080, Note_on_c, 9, 27, 127
1, 94080, Note_on_c, 9, 38, 127
1, 94080, Note_on_c, 9, 36, 127
1, 94080, Note_on_c, 9, 45, 107
1, 94080, Note_on_c, 9, 42, 66
1, 94080, Note_on_c, 9, 70, 86
1, 94080, Note_on_c, 12, 53, 80
1, 94082, Control_c, 5, 10, 18
1, 94082, Control_c, 12, 10, 56
1, 94098, Note_on_c, 9, 70, 0
1, 94098, Note_on_c, 9, 42, 0
1, 94098, Note_on_c, 9, 45, 0
1, 94098, Note_on_c, 9, 38, 0
1, 94098, Note_on_c, 9, 27, 0
1, 94098, Note_on_c, 9, 36, 0
1, 94123, Note_on_c, 12, 53, 0
1, 94130, Control_c, 12, 10, 63
1, 94166, Control_c, 12, 6, 60
1, 94170, Note_on_c, 5, 74, 0
1, 94170, Note_on_c, 1, 34, 0
1, 94176, Note_on_c, 5, 65, 68
1, 94176, Note_on_c, 9, 42, 75
1, 94176, Note_on_c, 12, 53, 73
1, 94178, Control_c, 5, 10, 22
1, 94178, Control_c, 12, 10, 70
1, 94194, Note_on_c, 9, 42, 0
1, 94210, Note_on_c, 12, 53, 0
1, 94226, Control_c, 12, 10, 77
1, 94247, Note_on_c, 3, 65, 0
1, 94266, Note_on_c, 5, 65, 0
1, 94272, Note_on_c, 1, 46, 92
1, 94272, Note_on_c, 4, 86, 107
1, 94272, Note_on_c, 5, 62, 59
1, 94272, Note_on_c, 6, 65, 105
1, 94272, Note_on_c, 9, 46, 92
1, 94272, Note_on_c, 9, 70, 80
1, 94272, Note_on_c, 12, 53, 80
1, 94274, Control_c, 5, 10, 26
1, 94274, Control_c, 12, 10, 84
1, 94290, Note_on_c, 9, 70, 0
1, 94290, Note_on_c, 9, 46, 0
1, 94309, Note_on_c, 4, 82, 0
1, 94315, Note_on_c, 12, 53, 0
1, 94322, Control_c, 12, 10, 92
1, 94346, Control_c, 12, 6, 85
1, 94362, Note_on_c, 5, 62, 0
1, 94362, Note_on_c, 1, 46, 0
1, 94368, Note_on_c, 5, 65, 53
1, 94368, Note_on_c, 12, 53, 73
1, 94370, Control_c, 5, 10, 30
1, 94370, Control_c, 12, 10, 99
1, 94402, Note_on_c, 12, 53, 0
1, 94418, Control_c, 12, 10, 106
1, 94424, Note_on_c, 6, 65, 0
1, 94438, Note_on_c, 4, 86, 0
1, 94458, Note_on_c, 5, 65, 0
1, 94464, Note_on_c, 1, 34, 66
1, 94464, Note_on_c, 3, 65, 80
1, 94464, Note_on_c, 4, 89, 107
1, 94464, Note_on_c, 5, 58, 64
1, 94464, Note_on_c, 9, 27, 127
1, 94464, Note_on_c, 9, 36, 127
1, 94464, Note_on_c, 9, 45, 107
1, 94464, Note_on_c, 9, 42, 66
1, 94464, Note_on_c, 9, 70, 92
1, 94464, Note_on_c, 12, 53, 80
1, 94466, Control_c, 5, 10, 34
1, 94466, Control_c, 12, 10, 113
1, 94482, Note_on_c, 9, 70, 0
1, 94482, Note_on_c, 9, 42, 0
1, 94482, Note_on_c, 9, 36, 0
1, 94482, Note_on_c, 9, 27, 0
1, 94482, Note_on_c, 9, 45, 0
1, 94507, Note_on_c, 12, 53, 0
1, 94514, Control_c, 12, 10, 120
1, 94554, Note_on_c, 5, 58, 0
1, 94554, Note_on_c, 1, 34, 0
1, 94560, Note_on_c, 5, 65, 65
1, 94560, Note_on_c, 9, 42, 75
1, 94560, Note_on_c, 12, 53, 73
1, 94562, Control_c, 5, 10, 38
1, 94562, Control_c, 12, 6, 110
1, 94578, Note_on_c, 9, 42, 0
1, 94594, Note_on_c, 12, 53, 0
1, 94650, Note_on_c, 5, 65, 0
1, 94656, Note_on_c, 1, 46, 92
1, 94656, Note_on_c, 4, 86, 107
1, 94656, Note_on_c, 5, 70, 65
1, 94656, Note_on_c, 6, 67, 107
1, 94656, Note_on_c, 9, 46, 107
1, 94656, Note_on_c, 9, 70, 20
1, 94658, Control_c, 5, 10, 42
1, 94674, Note_on_c, 9, 70, 0
1, 94674, Note_on_c, 9, 46, 0
1, 94706, Note_on_c, 4, 89, 0
1, 94746, Note_on_c, 5, 70, 0
1, 94746, Note_on_c, 1, 46, 0
1, 94752, Note_on_c, 5, 65, 65
1, 94752, Note_on_c, 9, 70, 49
1, 94754, Control_c, 5, 10, 45
1, 94770, Note_on_c, 9, 70, 0
1, 94784, Note_on_c, 6, 67, 0
1, 94834, Note_on_c, 3, 65, 0
1, 94842, Note_on_c, 5, 65, 0
1, 94848, Note_on_c, 1, 34, 66
1, 94848, Note_on_c, 3, 62, 82
1, 94848, Note_on_c, 4, 82, 107
1, 94848, Note_on_c, 5, 74, 95
1, 94848, Note_on_c, 9, 27, 127
1, 94848, Note_on_c, 9, 38, 127
1, 94848, Note_on_c, 9, 45, 107
1, 94848, Note_on_c, 9, 36, 127
1, 94848, Note_on_c, 9, 42, 66
1, 94848, Note_on_c, 9, 70, 76
1, 94850, Control_c, 5, 10, 49
1, 94866, Note_on_c, 9, 70, 0
1, 94866, Note_on_c, 9, 42, 0
1, 94866, Note_on_c, 9, 36, 0
1, 94866, Note_on_c, 9, 27, 0
1, 94866, Note_on_c, 9, 45, 0
1, 94866, Note_on_c, 9, 38, 0
1, 94883, Note_on_c, 4, 86, 0
1, 94938, Note_on_c, 5, 74, 0
1, 94938, Note_on_c, 1, 34, 0
1, 94944, Note_on_c, 5, 65, 71
1, 94944, Note_on_c, 9, 42, 75
1, 94946, Control_c, 5, 10, 53
1, 94962, Note_on_c, 9, 42, 0
1, 95034, Note_on_c, 5, 65, 0
1, 95040, Note_on_c, 1, 46, 89
1, 95040, Note_on_c, 4, 86, 107
1, 95040, Note_on_c, 5, 58, 56
1, 95040, Note_on_c, 6, 69, 110
1, 95040, Note_on_c, 9, 46, 107
1, 95040, Note_on_c, 9, 70, 66
1, 95042, Control_c, 5, 10, 57
1, 95058, Note_on_c, 9, 70, 0
1, 95058, Note_on_c, 9, 46, 0
1, 95062, Note_on_c, 4, 82, 0
1, 95090, Note_on_c, 2, 58, 0
1, 95090, Note_on_c, 2, 53, 0
1, 95130, Note_on_c, 5, 58, 0
1, 95134, Note_on_c, 1, 46, 0
1, 95136, Note_on_c, 5, 62, 53
1, 95138, Control_c, 5, 10, 61
1, 95168, Note_on_c, 6, 69, 0
1, 95181, Note_on_c, 3, 62, 0
1, 95186, Note_on_c, 2, 46, 0
1, 95186, Note_on_c, 2, 62, 0
1, 95192, Note_on_c, 2, 43, 61
1, 95192, Note_on_c, 2, 55, 61
1, 95192, Note_on_c, 2, 58, 61
1, 95200, Note_on_c, 2, 62, 61
1, 95211, Note_on_c, 4, 86, 0
1, 95226, Note_on_c, 5, 62, 0
1, 95232, Note_on_c, 1, 31, 63
1, 95232, Note_on_c, 3, 65, 82
1, 95232, Note_on_c, 4, 91, 107
1, 95232, Note_on_c, 5, 55, 47
1, 95232, Note_on_c, 9, 27, 127
1, 95232, Note_on_c, 9, 45, 107
1, 95232, Note_on_c, 9, 36, 127
1, 95232, Note_on_c, 9, 42, 66
1, 95232, Note_on_c, 9, 70, 92
1, 95232, Note_on_c, 12, 55, 80
1, 95234, Control_c, 5, 10, 65
1, 95234, Control_c, 12, 10, 125
1, 95250, Note_on_c, 9, 70, 0
1, 95250, Note_on_c, 9, 42, 0
1, 95250, Note_on_c, 9, 45, 0
1, 95250, Note_on_c, 9, 27, 0
1, 95250, Note_on_c, 9, 36, 0
1, 95275, Note_on_c, 12, 55, 0
1, 95282, Control_c, 12, 10, 119
1, 95319, Note_on_c, 1, 31, 0
1, 95322, Note_on_c, 5, 55, 0
1, 95328, Note_on_c, 5, 58, 64
1, 95328, Note_on_c, 9, 42, 75
1, 95328, Note_on_c, 12, 55, 73
1, 95330, Control_c, 5, 10, 69
1, 95330, Control_c, 12, 10, 113
1, 95330, Control_c, 12, 6, 25
1, 95346, Note_on_c, 9, 42, 0
1, 95362, Note_on_c, 12, 55, 0
1, 95378, Control_c, 12, 10, 107
1, 95418, Note_on_c, 5, 58, 0
1, 95424, Note_on_c, 1, 43, 89
1, 95424, Note_on_c, 4, 86, 107
1, 95424, Note_on_c, 5, 60, 64
1, 95424, Note_on_c, 6, 72, 110
1, 95424, Note_on_c, 9, 46, 107
1, 95424, Note_on_c, 12, 55, 80
1, 95426, Control_c, 5, 10, 73
1, 95426, Control_c, 12, 10, 101
1, 95442, Note_on_c, 9, 46, 0
1, 95467, Note_on_c, 12, 55, 0
1, 95472, Note_on_c, 4, 91, 0
1, 95474, Control_c, 12, 10, 95
1, 95498, Control_c, 12, 6, 40
1, 95514, Note_on_c, 5, 60, 0
1, 95514, Note_on_c, 1, 43, 0
1, 95520, Note_on_c, 5, 62, 80
1, 95520, Note_on_c, 9, 70, 44
1, 95520, Note_on_c, 12, 55, 73
1, 95522, Control_c, 5, 10, 77
1, 95522, Control_c, 12, 10, 89
1, 95538, Note_on_c, 9, 70, 0
1, 95552, Note_on_c, 6, 72, 0
1, 95554, Note_on_c, 12, 55, 0
1, 95570, Control_c, 12, 10, 83
1, 95583, Note_on_c, 4, 86, 0
1, 95610, Note_on_c, 5, 62, 0
1, 95616, Note_on_c, 1, 31, 63
1, 95616, Note_on_c, 4, 82, 107
1, 95616, Note_on_c, 5, 67, 68
1, 95616, Note_on_c, 9, 27, 127
1, 95616, Note_on_c, 9, 38, 127
1, 95616, Note_on_c, 9, 45, 107
1, 95616, Note_on_c, 9, 36, 127
1, 95616, Note_on_c, 9, 42, 66
1, 95616, Note_on_c, 9, 70, 92
1, 95616, Note_on_c, 12, 55, 80
1, 95618, Control_c, 5, 10, 81
1, 95618, Control_c, 12, 10, 77
1, 95634, Note_on_c, 9, 70, 0
1, 95634, Note_on_c, 9, 42, 0
1, 95634, Note_on_c, 9, 36, 0
1, 95634, Note_on_c, 9, 38, 0
1, 95634, Note_on_c, 9, 27, 0
1, 95634, Note_on_c, 9, 45, 0
1, 95659, Note_on_c, 12, 55, 0
1, 95666, Control_c, 12, 10, 71
1, 95702, Control_c, 12, 6, 60
1, 95706, Note_on_c, 5, 67, 0
1, 95706, Note_on_c, 1, 31, 0
1, 95712, Note_on_c, 5, 70, 65
1, 95712, Note_on_c, 9, 42, 75
1, 95712, Note_on_c, 12, 55, 73
1, 95714, Control_c, 5, 10, 85
1, 95714, Control_c, 12, 10, 65
1, 95730, Note_on_c, 9, 42, 0
1, 95746, Note_on_c, 12, 55, 0
1, 95762, Control_c, 12, 10, 59
1, 95802, Note_on_c, 5, 70, 0
1, 95808, Note_on_c, 1, 43, 89
1, 95808, Note_on_c, 4, 86, 107
1, 95808, Note_on_c, 5, 74, 64
1, 95808, Note_on_c, 6, 69, 104
1, 95808, Note_on_c, 9, 46, 107
1, 95808, Note_on_c, 9, 70, 80
1, 95808, Note_on_c, 12, 55, 80
1, 95810, Control_c, 5, 10, 88
1, 95810, Control_c, 12, 10, 53
1, 95826, Note_on_c, 9, 70, 0
1, 95826, Note_on_c, 9, 46, 0
1, 95840, Note_on_c, 4, 82, 0
1, 95851, Note_on_c, 12, 55, 0
1, 95858, Control_c, 12, 10, 47
1, 95898, Note_on_c, 5, 74, 0
1, 95898, Note_on_c, 1, 43, 0
1, 95904, Note_on_c, 5, 77, 71
1, 95904, Note_on_c, 12, 55, 73
1, 95906, Control_c, 5, 10, 92
1, 95906, Control_c, 12, 10, 41
1, 95936, Note_on_c, 6, 69, 0
1, 95938, Note_on_c, 12, 55, 0
1, 95954, Note_on_c, 2, 43, 0
1, 95954, Note_on_c, 2, 55, 0
1, 95954, Note_on_c, 2, 58, 0
1, 95954, Control_c, 12, 10, 35
1, 95960, Note_on_c, 2, 48, 61
1, 95960, Note_on_c, 2, 55, 61
1, 95960, Note_on_c, 2, 60, 61
1, 95960, Note_on_c, 2, 64, 61
1, 95962, Note_on_c, 2, 62, 0
1, 95964, Note_on_c, 4, 86, 0
1, 95994, Note_on_c, 5, 77, 0
1, 96000, Note_on_c, 1, 36, 63
1, 96000, Note_on_c, 3, 67, 95
1, 96000, Note_on_c, 4, 91, 107
1, 96000, Note_on_c, 5, 79, 80
1, 96000, Note_on_c, 9, 27, 127
1, 96000, Note_on_c, 9, 45, 107
1, 96000, Note_on_c, 9, 36, 127
1, 96000, Note_on_c, 9, 42, 66
1, 96000, Note_on_c, 9, 70, 86
1, 96000, Note_on_c, 12, 55, 80
1, 96002, Control_c, 5, 10, 96
1, 96002, Control_c, 12, 10, 29
1, 96018, Note_on_c, 9, 70, 0
1, 96018, Note_on_c, 9, 42, 0
1, 96018, Note_on_c, 9, 36, 0
1, 96018, Note_on_c, 9, 45, 0
1, 96018, Note_on_c, 9, 27, 0
1, 96029, Note_on_c, 3, 65, 0
1, 96043, Note_on_c, 12, 55, 0
1, 96050, Control_c, 12, 10, 23
1, 96090, Note_on_c, 5, 79, 0
1, 96090, Note_on_c, 1, 36, 0
1, 96096, Note_on_c, 5, 74, 71
1, 96096, Note_on_c, 9, 42, 75
1, 96096, Note_on_c, 12, 55, 73
1, 96098, Control_c, 5, 10, 100
1, 96098, Control_c, 12, 10, 17
1, 96114, Note_on_c, 9, 42, 0
1, 96130, Note_on_c, 12, 55, 0
1, 96146, Control_c, 12, 10, 11
1, 96186, Note_on_c, 5, 74, 0
1, 96192, Note_on_c, 1, 48, 86
1, 96192, Note_on_c, 4, 88, 107
1, 96192, Note_on_c, 5, 72, 71
1, 96192, Note_on_c, 6, 67, 104
1, 96192, Note_on_c, 9, 46, 107
1, 96192, Note_on_c, 9, 70, 13
1, 96194, Control_c, 5, 10, 104
1, 96194, Control_c, 12, 10, 5
1, 96210, Note_on_c, 9, 70, 0
1, 96210, Note_on_c, 9, 46, 0
1, 96252, Note_on_c, 4, 91, 0
1, 96282, Note_on_c, 5, 72, 0
1, 96282, Note_on_c, 1, 48, 0
1, 96288, Note_on_c, 5, 70, 65
1, 96288, Note_on_c, 9, 70, 26
1, 96290, Control_c, 5, 10, 108
1, 96306, Note_on_c, 9, 70, 0
1, 96320, Note_on_c, 6, 67, 0
1, 96368, Note_on_c, 4, 88, 0
1, 96378, Note_on_c, 5, 70, 0
1, 96384, Note_on_c, 1, 36, 63
1, 96384, Note_on_c, 4, 84, 107
1, 96384, Note_on_c, 5, 67, 68
1, 96384, Note_on_c, 9, 27, 127
1, 96384, Note_on_c, 9, 38, 127
1, 96384, Note_on_c, 9, 45, 107
1, 96384, Note_on_c, 9, 36, 127
1, 96384, Note_on_c, 9, 42, 66
1, 96384, Note_on_c, 9, 70, 92
1, 96386, Control_c, 5, 10, 112
1, 96402, Note_on_c, 9, 70, 0
1, 96402, Note_on_c, 9, 42, 0
1, 96402, Note_on_c, 9, 38, 0
1, 96402, Note_on_c, 9, 36, 0
1, 96402, Note_on_c, 9, 27, 0
1, 96402, Note_on_c, 9, 45, 0
1, 96474, Note_on_c, 5, 67, 0
1, 96474, Note_on_c, 1, 36, 0
1, 96480, Note_on_c, 5, 62, 80
1, 96480, Note_on_c, 9, 42, 75
1, 96482, Control_c, 5, 10, 116
1, 96498, Note_on_c, 9, 42, 0
1, 96570, Note_on_c, 5, 62, 0
1, 96576, Note_on_c, 1, 48, 86
1, 96576, Note_on_c, 4, 88, 107
1, 96576, Note_on_c, 5, 67, 80
1, 96576, Note_on_c, 6, 65, 104
1, 96576, Note_on_c, 9, 46, 107
1, 96576, Note_on_c, 9, 70, 63
1, 96578, Control_c, 5, 10, 120
1, 96594, Note_on_c, 9, 70, 0
1, 96594, Note_on_c, 9, 46, 0
1, 96603, Note_on_c, 4, 84, 0
1, 96666, Note_on_c, 5, 67, 0
1, 96670, Note_on_c, 1, 48, 0
1, 96672, Note_on_c, 5, 62, 80
1, 96674, Control_c, 5, 10, 124
1, 96674, Control_c, 12, 6, 10
1, 96703, Note_on_c, 4, 88, 0
1, 96704, Note_on_c, 6, 65, 0
1, 96722, Note_on_c, 2, 60, 0
1, 96722, Note_on_c, 2, 64, 0
1, 96722, Note_on_c, 2, 48, 0
1, 96722, Note_on_c, 2, 55, 0
1, 96728, Note_on_c, 2, 41, 61
1, 96728, Note_on_c, 2, 60, 61
1, 96728, Note_on_c, 2, 65, 61
1, 96728, Note_on_c, 2, 69, 61
1, 96755, Note_on_c, 3, 67, 0
1, 96762, Note_on_c, 5, 62, 0
1, 96768, Note_on_c, 1, 29, 60
1, 96768, Note_on_c, 3, 65, 67
1, 96768, Note_on_c, 4, 89, 107
1, 96768, Note_on_c, 5, 53, 59
1, 96768, Note_on_c, 9, 27, 127
1, 96768, Note_on_c, 9, 45, 107
1, 96768, Note_on_c, 9, 36, 127
1, 96768, Note_on_c, 9, 42, 66
1, 96768, Note_on_c, 9, 70, 92
1, 96768, Note_on_c, 12, 53, 80
1, 96770, Control_c, 5, 10, 127
1, 96770, Control_c, 5, 11, 127
1, 96786, Note_on_c, 9, 70, 0
1, 96786, Note_on_c, 9, 42, 0
1, 96786, Note_on_c, 9, 45, 0
1, 96786, Note_on_c, 9, 27, 0
1, 96786, Note_on_c, 9, 36, 0
1, 96811, Note_on_c, 12, 53, 0
1, 96818, Control_c, 12, 10, 5
1, 96855, Note_on_c, 1, 29, 0
1, 96858, Note_on_c, 5, 53, 0
1, 96864, Note_on_c, 5, 60, 74
1, 96864, Note_on_c, 9, 42, 75
1, 96864, Note_on_c, 12, 53, 73
1, 96866, Control_c, 5, 10, 124
1, 96866, Control_c, 12, 10, 13
1, 96866, Control_c, 12, 6, 25
1, 96882, Note_on_c, 9, 42, 0
1, 96898, Note_on_c, 12, 53, 0
1, 96914, Control_c, 12, 10, 20
1, 96954, Note_on_c, 5, 60, 0
1, 96960, Note_on_c, 1, 41, 92
1, 96960, Note_on_c, 5, 65, 64
1, 96960, Note_on_c, 6, 65, 104
1, 96960, Note_on_c, 9, 46, 107
1, 96960, Note_on_c, 12, 53, 80
1, 96962, Control_c, 5, 10, 120
1, 96962, Control_c, 12, 10, 27
1, 96978, Note_on_c, 9, 46, 0
1, 97003, Note_on_c, 12, 53, 0
1, 97010, Control_c, 12, 10, 34
1, 97034, Control_c, 12, 6, 40
1, 97050, Note_on_c, 1, 41, 0
1, 97056, Note_on_c, 5, 72, 64
1, 97056, Note_on_c, 9, 70, 40
1, 97056, Note_on_c, 12, 53, 73
1, 97058, Control_c, 5, 10, 116
1, 97058, Control_c, 12, 10, 41
1, 97074, Note_on_c, 9, 70, 0
1, 97075, Note_on_c, 5, 65, 0
1, 97088, Note_on_c, 6, 65, 0
1, 97090, Note_on_c, 12, 53, 0
1, 97106, Control_c, 12, 10, 49
1, 97146, Note_on_c, 5, 72, 0
1, 97152, Note_on_c, 1, 29, 66
1, 97152, Note_on_c, 5, 77, 92
1, 97152, Note_on_c, 9, 27, 127
1, 97152, Note_on_c, 9, 38, 127
1, 97152, Note_on_c, 9, 45, 107
1, 97152, Note_on_c, 9, 36, 127
1, 97152, Note_on_c, 9, 42, 66
1, 97152, Note_on_c, 9, 70, 86
1, 97152, Note_on_c, 12, 53, 80
1, 97154, Control_c, 5, 10, 112
1, 97154, Control_c, 12, 10, 56
1, 97170, Note_on_c, 9, 70, 0
1, 97170, Note_on_c, 9, 42, 0
1, 97170, Note_on_c, 9, 36, 0
1, 97170, Note_on_c, 9, 38, 0
1, 97170, Note_on_c, 9, 27, 0
1, 97170, Note_on_c, 9, 45, 0
1, 97195, Note_on_c, 12, 53, 0
1, 97202, Control_c, 12, 10, 63
1, 97238, Control_c, 12, 6, 60
1, 97242, Note_on_c, 5, 77, 0
1, 97242, Note_on_c, 1, 29, 0
1, 97248, Note_on_c, 5, 72, 64
1, 97248, Note_on_c, 9, 42, 75
1, 97248, Note_on_c, 12, 53, 73
1, 97250, Control_c, 5, 10, 108
1, 97250, Control_c, 12, 10, 70
1, 97266, Note_on_c, 9, 42, 0
1, 97282, Note_on_c, 12, 53, 0
1, 97298, Control_c, 12, 10, 77
1, 97338, Note_on_c, 5, 72, 0
1, 97344, Note_on_c, 1, 41, 92
1, 97344, Note_on_c, 5, 65, 64
1, 97344, Note_on_c, 6, 65, 89
1, 97344, Note_on_c, 9, 46, 92
1, 97344, Note_on_c, 9, 70, 80
1, 97344, Note_on_c, 12, 53, 80
1, 97346, Control_c, 5, 10, 104
1, 97346, Control_c, 12, 10, 84
1, 97362, Note_on_c, 9, 70, 0
1, 97362, Note_on_c, 9, 46, 0
1, 97387, Note_on_c, 12, 53, 0
1, 97394, Control_c, 12, 10, 92
1, 97418, Control_c, 12, 6, 85
1, 97434, Note_on_c, 1, 41, 0
1, 97440, Note_on_c, 5, 60, 74
1, 97440, Note_on_c, 12, 53, 73
1, 97442, Control_c, 5, 10, 100
1, 97442, Control_c, 12, 10, 99
1, 97459, Note_on_c, 5, 65, 0
1, 97470, Note_on_c, 4, 89, 0
1, 97472, Note_on_c, 6, 65, 0
1, 97474, Note_on_c, 12, 53, 0
1, 97490, Control_c, 12, 10, 106
1, 97530, Note_on_c, 5, 60, 0
1, 97536, Note_on_c, 1, 29, 66
1, 97536, Note_on_c, 5, 53, 59
1, 97536, Note_on_c, 9, 27, 127
1, 97536, Note_on_c, 9, 45, 107
1, 97536, Note_on_c, 9, 36, 127
1, 97536, Note_on_c, 9, 42, 66
1, 97536, Note_on_c, 9, 70, 92
1, 97536, Note_on_c, 12, 53, 80
1, 97538, Control_c, 5, 10, 96
1, 97538, Control_c, 12, 10, 113
1, 97554, Note_on_c, 9, 70, 0
1, 97554, Note_on_c, 9, 27, 0
1, 97554, Note_on_c, 9, 42, 0
1, 97554, Note_on_c, 9, 45, 0
1, 97554, Note_on_c, 9, 36, 0
1, 97579, Note_on_c, 12, 53, 0
1, 97586, Control_c, 12, 10, 120
1, 97626, Note_on_c, 1, 29, 0
1, 97626, Note_on_c, 5, 53, 0
1, 97632, Note_on_c, 5, 60, 74
1, 97632, Note_on_c, 9, 42, 75
1, 97632, Note_on_c, 12, 53, 73
1, 97634, Control_c, 5, 10, 92
1, 97634, Control_c, 12, 6, 110
1, 97650, Note_on_c, 9, 42, 0
1, 97666, Note_on_c, 12, 53, 0
1, 97722, Note_on_c, 5, 60, 0
1, 97728, Note_on_c, 1, 41, 92
1, 97728, Note_on_c, 5, 65, 64
1, 97728, Note_on_c, 6, 65, 81
1, 97728, Note_on_c, 9, 46, 107
1, 97728, Note_on_c, 9, 70, 20
1, 97730, Control_c, 5, 10, 88
1, 97746, Note_on_c, 9, 70, 0
1, 97746, Note_on_c, 9, 46, 0
1, 97818, Note_on_c, 1, 41, 0
1, 97824, Note_on_c, 5, 72, 64
1, 97824, Note_on_c, 9, 70, 49
1, 97826, Control_c, 5, 10, 84
1, 97842, Note_on_c, 9, 70, 0
1, 97843, Note_on_c, 5, 65, 0
1, 97856, Note_on_c, 6, 65, 0
1, 97914, Note_on_c, 5, 72, 0
1, 97920, Note_on_c, 1, 29, 66
1, 97920, Note_on_c, 5, 77, 92
1, 97920, Note_on_c, 9, 27, 127
1, 97920, Note_on_c, 9, 38, 127
1, 97920, Note_on_c, 9, 45, 107
1, 97920, Note_on_c, 9, 36, 127
1, 97920, Note_on_c, 9, 42, 66
1, 97920, Note_on_c, 9, 70, 76
1, 97922, Control_c, 5, 10, 80
1, 97938, Note_on_c, 9, 70, 0
1, 97938, Note_on_c, 9, 45, 0
1, 97938, Note_on_c, 9, 27, 0
1, 97938, Note_on_c, 9, 42, 0
1, 97938, Note_on_c, 9, 38, 0
1, 97938, Note_on_c, 9, 36, 0
1, 98010, Note_on_c, 5, 77, 0
1, 98010, Note_on_c, 1, 29, 0
1, 98016, Note_on_c, 5, 72, 64
1, 98016, Note_on_c, 9, 42, 75
1, 98018, Control_c, 5, 10, 76
1, 98034, Note_on_c, 9, 42, 0
1, 98106, Note_on_c, 5, 72, 0
1, 98112, Note_on_c, 1, 41, 89
1, 98112, Note_on_c, 5, 65, 64
1, 98112, Note_on_c, 6, 65, 72
1, 98112, Note_on_c, 9, 46, 107
1, 98112, Note_on_c, 9, 70, 66
1, 98114, Control_c, 5, 10, 72
1, 98130, Note_on_c, 9, 70, 0
1, 98130, Note_on_c, 9, 46, 0
1, 98162, Note_on_c, 2, 41, 0
1, 98206, Note_on_c, 1, 41, 0
1, 98208, Note_on_c, 5, 60, 74
1, 98210, Control_c, 5, 10, 68
1, 98210, Control_c, 12, 6, 10
1, 98227, Note_on_c, 5, 65, 0
1, 98240, Note_on_c, 6, 65, 0
1, 98264, Note_on_c, 2, 77, 46
1, 98278, Control_c, 2, 11, 127
1, 98298, Note_on_c, 5, 60, 0
1, 98304, Note_on_c, 1, 29, 63
1, 98304, Note_on_c, 5, 53, 59
1, 98304, Note_on_c, 9, 27, 127
1, 98304, Note_on_c, 9, 45, 107
1, 98304, Note_on_c, 9, 36, 127
1, 98304, Note_on_c, 9, 42, 66
1, 98304, Note_on_c, 9, 70, 92
1, 98304, Note_on_c, 12, 53, 80
1, 98306, Control_c, 5, 10, 64
1, 98306, Control_c, 5, 11, 125
1, 98306, Control_c, 12, 10, 125
1, 98307, Pitch_bend_c, 6, 8192
1, 98312, Note_on_c, 3, 65, 0
1, 98322, Note_on_c, 9, 45, 0
1, 98322, Note_on_c, 9, 27, 0
1, 98322, Note_on_c, 9, 70, 0
1, 98322, Note_on_c, 9, 36, 0
1, 98322, Note_on_c, 9, 42, 0
1, 98347, Note_on_c, 12, 53, 0
1, 98354, Control_c, 12, 10, 119
1, 98391, Note_on_c, 1, 29, 0
1, 98394, Note_on_c, 5, 53, 0
1, 98400, Note_on_c, 5, 60, 74
1, 98400, Note_on_c, 9, 42, 75
1, 98400, Note_on_c, 12, 53, 73
1, 98402, Control_c, 5, 10, 60
1, 98402, Control_c, 5, 11, 120
1, 98402, Control_c, 12, 10, 113
1, 98402, Control_c, 12, 6, 25
1, 98418, Note_on_c, 9, 42, 0
1, 98434, Note_on_c, 12, 53, 0
1, 98450, Control_c, 12, 10, 107
1, 98490, Note_on_c, 5, 60, 0
1, 98496, Note_on_c, 1, 41, 89
1, 98496, Note_on_c, 5, 65, 64
1, 98496, Note_on_c, 9, 46, 107
1, 98496, Note_on_c, 12, 53, 80
1, 98498, Control_c, 5, 10, 56
1, 98498, Control_c, 5, 11, 116
1, 98498, Control_c, 12, 10, 101
1, 98514, Note_on_c, 9, 46, 0
1, 98539, Note_on_c, 12, 53, 0
1, 98546, Control_c, 12, 10, 95
1, 98570, Control_c, 12, 6, 40
1, 98586, Note_on_c, 1, 41, 0
1, 98592, Note_on_c, 5, 72, 64
1, 98592, Note_on_c, 9, 70, 44
1, 98592, Note_on_c, 12, 53, 73
1, 98594, Control_c, 5, 10, 52
1, 98594, Control_c, 5, 11, 111
1, 98594, Control_c, 12, 10, 89
1, 98610, Note_on_c, 9, 70, 0
1, 98611, Note_on_c, 5, 65, 0
1, 98626, Note_on_c, 12, 53, 0
1, 98642, Control_c, 12, 10, 83
1, 98682, Note_on_c, 5, 72, 0
1, 98688, Note_on_c, 1, 29, 63
1, 98688, Note_on_c, 5, 77, 92
1, 98688, Note_on_c, 9, 27, 127
1, 98688, Note_on_c, 9, 38, 127
1, 98688, Note_on_c, 9, 45, 107
1, 98688, Note_on_c, 9, 36, 127
1, 98688, Note_on_c, 9, 42, 66
1, 98688, Note_on_c, 9, 70, 92
1, 98688, Note_on_c, 12, 53, 80
1, 98690, Control_c, 5, 10, 48
1, 98690, Control_c, 5, 11, 107
1, 98690, Control_c, 12, 10, 77
1, 98706, Note_on_c, 9, 70, 0
1, 98706, Note_on_c, 9, 38, 0
1, 98706, Note_on_c, 9, 27, 0
1, 98706, Note_on_c, 9, 42, 0
1, 98706, Note_on_c, 9, 45, 0
1, 98706, Note_on_c, 9, 36, 0
1, 98731, Note_on_c, 12, 53, 0
1, 98738, Control_c, 12, 10, 71
1, 98774, Control_c, 12, 6, 60
1, 98778, Note_on_c, 1, 29, 0
1, 98778, Note_on_c, 5, 77, 0
1, 98784, Note_on_c, 5, 72, 64
1, 98784, Note_on_c, 9, 42, 75
1, 98784, Note_on_c, 12, 53, 73
1, 98786, Control_c, 5, 10, 44
1, 98786, Control_c, 5, 11, 102
1, 98786, Control_c, 12, 10, 65
1, 98802, Note_on_c, 9, 42, 0
1, 98818, Note_on_c, 12, 53, 0
1, 98834, Control_c, 12, 10, 59
1, 98874, Note_on_c, 5, 72, 0
1, 98880, Note_on_c, 1, 41, 89
1, 98880, Note_on_c, 5, 65, 64
1, 98880, Note_on_c, 9, 46, 107
1, 98880, Note_on_c, 9, 70, 80
1, 98880, Note_on_c, 12, 53, 80
1, 98882, Control_c, 5, 10, 40
1, 98882, Control_c, 5, 11, 98
1, 98882, Control_c, 12, 10, 53
1, 98898, Note_on_c, 9, 70, 0
1, 98898, Note_on_c, 9, 46, 0
1, 98923, Note_on_c, 12, 53, 0
1, 98930, Control_c, 12, 10, 47
1, 98954, Control_c, 12, 6, 85
1, 98970, Note_on_c, 1, 41, 0
1, 98976, Note_on_c, 5, 60, 74
1, 98976, Note_on_c, 9, 27, 127
1, 98976, Note_on_c, 9, 45, 107
1, 98976, Note_on_c, 9, 36, 127
1, 98976, Note_on_c, 12, 53, 73
1, 98978, Control_c, 5, 10, 36
1, 98978, Control_c, 5, 11, 93
1, 98978, Control_c, 12, 10, 41
1, 98994, Note_on_c, 9, 36, 0
1, 98994, Note_on_c, 9, 45, 0
1, 98994, Note_on_c, 9, 27, 0
1, 98995, Note_on_c, 5, 65, 0
1, 99010, Note_on_c, 12, 53, 0
1, 99026, Control_c, 12, 10, 35
1, 99066, Note_on_c, 5, 60, 0
1, 99072, Note_on_c, 1, 29, 63
1, 99072, Note_on_c, 5, 53, 59
1, 99072, Note_on_c, 9, 27, 127
1, 99072, Note_on_c, 9, 45, 107
1, 99072, Note_on_c, 9, 36, 127
1, 99072, Note_on_c, 9, 42, 66
1, 99072, Note_on_c, 9, 70, 86
1, 99072, Note_on_c, 12, 53, 80
1, 99074, Control_c, 5, 10, 32
1, 99074, Control_c, 5, 11, 89
1, 99074, Control_c, 12, 10, 29
1, 99090, Note_on_c, 9, 70, 0
1, 99090, Note_on_c, 9, 45, 0
1, 99090, Note_on_c, 9, 27, 0
1, 99090, Note_on_c, 9, 42, 0
1, 99090, Note_on_c, 9, 36, 0
1, 99115, Note_on_c, 12, 53, 0
1, 99122, Control_c, 12, 10, 23
1, 99162, Note_on_c, 1, 29, 0
1, 99162, Note_on_c, 5, 53, 0
1, 99168, Note_on_c, 5, 60, 74
1, 99168, Note_on_c, 9, 42, 75
1, 99168, Note_on_c, 12, 53, 73
1, 99170, Control_c, 5, 10, 28
1, 99170, Control_c, 5, 11, 84
1, 99170, Control_c, 12, 10, 17
1, 99170, Control_c, 12, 6, 110
1, 99186, Note_on_c, 9, 42, 0
1, 99202, Note_on_c, 12, 53, 0
1, 99218, Control_c, 12, 10, 11
1, 99258, Note_on_c, 5, 60, 0
1, 99264, Note_on_c, 1, 41, 86
1, 99264, Note_on_c, 5, 65, 64
1, 99264, Note_on_c, 9, 27, 127
1, 99264, Note_on_c, 9, 45, 107
1, 99264, Note_on_c, 9, 36, 127
1, 99264, Note_on_c, 9, 46, 107
1, 99264, Note_on_c, 9, 70, 13
1, 99266, Control_c, 5, 10, 24
1, 99266, Control_c, 5, 11, 80
1, 99266, Control_c, 12, 10, 5
1, 99282, Note_on_c, 9, 70, 0
1, 99282, Note_on_c, 9, 45, 0
1, 99282, Note_on_c, 9, 27, 0
1, 99282, Note_on_c, 9, 46, 0
1, 99282, Note_on_c, 9, 36, 0
1, 99354, Note_on_c, 1, 41, 0
1, 99360, Note_on_c, 5, 72, 64
1, 99360, Note_on_c, 9, 70, 26
1, 99362, Control_c, 5, 10, 20
1, 99362, Control_c, 5, 11, 75
1, 99378, Note_on_c, 9, 70, 0
1, 99379, Note_on_c, 5, 65, 0
1, 99450, Note_on_c, 5, 72, 0
1, 99456, Note_on_c, 1, 29, 63
1, 99456, Note_on_c, 5, 77, 92
1, 99456, Note_on_c, 9, 27, 127
1, 99456, Note_on_c, 9, 38, 127
1, 99456, Note_on_c, 9, 45, 107
1, 99456, Note_on_c, 9, 36, 127
1, 99456, Note_on_c, 9, 42, 66
1, 99456, Note_on_c, 9, 70, 92
1, 99458, Control_c, 5, 10, 16
1, 99458, Control_c, 5, 11, 71
1, 99474, Note_on_c, 9, 70, 0
1, 99474, Note_on_c, 9, 38, 0
1, 99474, Note_on_c, 9, 27, 0
1, 99474, Note_on_c, 9, 42, 0
1, 99474, Note_on_c, 9, 45, 0
1, 99474, Note_on_c, 9, 36, 0
1, 99546, Note_on_c, 1, 29, 0
1, 99546, Note_on_c, 5, 77, 0
1, 99552, Note_on_c, 5, 72, 64
1, 99552, Note_on_c, 9, 42, 75
1, 99554, Control_c, 5, 10, 12
1, 99554, Control_c, 5, 11, 66
1, 99570, Note_on_c, 9, 42, 0
1, 99642, Note_on_c, 5, 72, 0
1, 99648, Note_on_c, 1, 41, 86
1, 99648, Note_on_c, 5, 65, 64
1, 99648, Note_on_c, 9, 27, 127
1, 99648, Note_on_c, 9, 45, 107
1, 99648, Note_on_c, 9, 36, 127
1, 99648, Note_on_c, 9, 46, 107
1, 99648, Note_on_c, 9, 70, 63
1, 99650, Control_c, 5, 10, 8
1, 99650, Control_c, 5, 11, 62
1, 99666, Note_on_c, 9, 70, 0
1, 99666, Note_on_c, 9, 45, 0
1, 99666, Note_on_c, 9, 27, 0
1, 99666, Note_on_c, 9, 46, 0
1, 99666, Note_on_c, 9, 36, 0
1, 99742, Note_on_c, 1, 41, 0
1, 99744, Note_on_c, 5, 60, 74
1, 99744, Note_on_c, 9, 27, 127
1, 99744, Note_on_c, 9, 45, 107
1, 99744, Note_on_c, 9, 36, 127
1, 99746, Control_c, 5, 10, 4
1, 99746, Control_c, 5, 11, 58
1, 99746, Control_c, 12, 6, 10
1, 99762, Note_on_c, 9, 36, 0
1, 99762, Note_on_c, 9, 45, 0
1, 99762, Note_on_c, 9, 27, 0
1, 99763, Note_on_c, 5, 65, 0
1, 99834, Note_on_c, 2, 65, 0
1, 99834, Note_on_c, 5, 60, 0
1, 99834, Note_on_c, 2, 69, 0
1, 99834, Note_on_c, 2, 60, 0
1, 99838, Control_c, 2, 11, 119
1, 99840, Note_on_c, 1, 34, 60
1, 99840, Note_on_c, 2, 46, 61
1, 99840, Note_on_c, 2, 58, 61
1, 99840, Note_on_c, 2, 62, 61
1, 99840, Note_on_c, 2, 65, 61
1, 99840, Note_on_c, 5, 58, 64
1, 99840, Note_on_c, 6, 65, 122
1, 99840, Note_on_c, 9, 27, 127
1, 99840, Note_on_c, 9, 45, 107
1, 99840, Note_on_c, 9, 36, 127
1, 99840, Note_on_c, 9, 42, 66
1, 99840, Note_on_c, 9, 70, 92
1, 99840, Note_on_c, 9, 57, 97
1, 99842, Control_c, 5, 11, 127
1, 99842, Control_c, 5, 10, 9
1, 99842, Control_c, 6, 11, 127
1, 99858, Note_on_c, 9, 57, 0
1, 99858, Note_on_c, 9, 70, 0
1, 99858, Note_on_c, 9, 45, 0
1, 99858, Note_on_c, 9, 42, 0
1, 99858, Note_on_c, 9, 27, 0
1, 99858, Note_on_c, 9, 36, 0
1, 99927, Note_on_c, 1, 34, 0
1, 99930, Note_on_c, 5, 58, 0
1, 99936, Note_on_c, 5, 65, 65
1, 99936, Note_on_c, 9, 42, 75
1, 99938, Control_c, 5, 10, 13
1, 99954, Note_on_c, 9, 42, 0
1, 100026, Note_on_c, 5, 65, 0
1, 100026, Note_on_c, 6, 65, 0
1, 100032, Note_on_c, 1, 46, 92
1, 100032, Note_on_c, 5, 70, 80
1, 100032, Note_on_c, 9, 46, 107
1, 100034, Control_c, 5, 10, 17
1, 100050, Note_on_c, 9, 46, 0
1, 100122, Note_on_c, 1, 46, 0
1, 100128, Note_on_c, 5, 74, 68
1, 100128, Note_on_c, 9, 70, 40
1, 100130, Control_c, 5, 10, 20
1, 100146, Note_on_c, 9, 70, 0
1, 100147, Note_on_c, 5, 70, 0
1, 100218, Note_on_c, 5, 74, 0
1, 100224, Note_on_c, 1, 34, 66
1, 100224, Note_on_c, 5, 77, 86
1, 100224, Note_on_c, 6, 65, 109
1, 100224, Note_on_c, 9, 27, 127
1, 100224, Note_on_c, 9, 38, 127
1, 100224, Note_on_c, 9, 36, 127
1, 100224, Note_on_c, 9, 45, 107
1, 100224, Note_on_c, 9, 42, 66
1, 100224, Note_on_c, 9, 70, 86
1, 100226, Control_c, 5, 10, 24
1, 100242, Note_on_c, 9, 70, 0
1, 100242, Note_on_c, 9, 42, 0
1, 100242, Note_on_c, 9, 38, 0
1, 100242, Note_on_c, 9, 45, 0
1, 100242, Note_on_c, 9, 27, 0
1, 100242, Note_on_c, 9, 36, 0
1, 100314, Note_on_c, 6, 65, 0
1, 100314, Note_on_c, 1, 34, 0
1, 100320, Note_on_c, 5, 74, 59
1, 100320, Note_on_c, 9, 42, 75
1, 100322, Control_c, 5, 10, 28
1, 100326, Note_on_c, 5, 77, 0
1, 100338, Note_on_c, 9, 42, 0
1, 100410, Note_on_c, 5, 74, 0
1, 100416, Note_on_c, 1, 46, 92
1, 100416, Note_on_c, 5, 70, 80
1, 100416, Note_on_c, 9, 46, 92
1, 100416, Note_on_c, 9, 70, 80
1, 100418, Control_c, 5, 10, 31
1, 100434, Note_on_c, 9, 70, 0
1, 100434, Note_on_c, 9, 46, 0
1, 100506, Note_on_c, 1, 46, 0
1, 100512, Note_on_c, 5, 65, 94
1, 100514, Control_c, 5, 10, 35
1, 100531, Note_on_c, 5, 70, 0
1, 100602, Note_on_c, 5, 65, 0
1, 100608, Note_on_c, 1, 34, 66
1, 100608, Note_on_c, 5, 58, 59
1, 100608, Note_on_c, 6, 65, 96
1, 100608, Note_on_c, 9, 27, 127
1, 100608, Note_on_c, 9, 36, 127
1, 100608, Note_on_c, 9, 45, 107
1, 100608, Note_on_c, 9, 42, 66
1, 100608, Note_on_c, 9, 70, 92
1, 100610, Control_c, 5, 10, 39
1, 100626, Note_on_c, 9, 70, 0
1, 100626, Note_on_c, 9, 36, 0
1, 100626, Note_on_c, 9, 42, 0
1, 100626, Note_on_c, 9, 27, 0
1, 100626, Note_on_c, 9, 45, 0
1, 100698, Note_on_c, 1, 34, 0
1, 100698, Note_on_c, 6, 65, 0
1, 100698, Note_on_c, 5, 58, 0
1, 100704, Note_on_c, 5, 65, 94
1, 100704, Note_on_c, 9, 42, 75
1, 100706, Control_c, 5, 10, 42
1, 100722, Note_on_c, 9, 42, 0
1, 100794, Note_on_c, 5, 65, 0
1, 100800, Note_on_c, 1, 46, 92
1, 100800, Note_on_c, 5, 70, 64
1, 100800, Note_on_c, 9, 46, 107
1, 100800, Note_on_c, 9, 70, 20
1, 100802, Control_c, 5, 10, 46
1, 100818, Note_on_c, 9, 70, 0
1, 100818, Note_on_c, 9, 46, 0
1, 100890, Note_on_c, 1, 46, 0
1, 100896, Note_on_c, 5, 74, 77
1, 100896, Note_on_c, 9, 70, 49
1, 100898, Control_c, 5, 10, 50
1, 100914, Note_on_c, 9, 70, 0
1, 100915, Note_on_c, 5, 70, 0
1, 100986, Note_on_c, 5, 74, 0
1, 100992, Note_on_c, 1, 34, 66
1, 100992, Note_on_c, 5, 77, 86
1, 100992, Note_on_c, 6, 65, 83
1, 100992, Note_on_c, 9, 27, 127
1, 100992, Note_on_c, 9, 38, 127
1, 100992, Note_on_c, 9, 45, 107
1, 100992, Note_on_c, 9, 36, 127
1, 100992, Note_on_c, 9, 42, 66
1, 100992, Note_on_c, 9, 70, 76
1, 100994, Control_c, 5, 10, 54
1, 101010, Note_on_c, 9, 70, 0
1, 101010, Note_on_c, 9, 42, 0
1, 101010, Note_on_c, 9, 38, 0
1, 101010, Note_on_c, 9, 36, 0
1, 101010, Note_on_c, 9, 27, 0
1, 101010, Note_on_c, 9, 45, 0
1, 101082, Note_on_c, 6, 65, 0
1, 101082, Note_on_c, 1, 34, 0
1, 101088, Note_on_c, 5, 74, 71
1, 101088, Note_on_c, 9, 42, 75
1, 101090, Control_c, 5, 10, 57
1, 101094, Note_on_c, 5, 77, 0
1, 101106, Note_on_c, 9, 42, 0
1, 101178, Note_on_c, 5, 74, 0
1, 101184, Note_on_c, 1, 46, 89
1, 101184, Note_on_c, 5, 70, 64
1, 101184, Note_on_c, 9, 46, 107
1, 101184, Note_on_c, 9, 70, 66
1, 101186, Control_c, 5, 10, 61
1, 101202, Note_on_c, 9, 70, 0
1, 101202, Note_on_c, 9, 46, 0
1, 101278, Note_on_c, 1, 46, 0
1, 101280, Note_on_c, 5, 65, 80
1, 101282, Control_c, 5, 10, 65
1, 101299, Note_on_c, 5, 70, 0
1, 101370, Note_on_c, 2, 65, 0
1, 101370, Note_on_c, 5, 65, 0
1, 101370, Note_on_c, 2, 58, 0
1, 101370, Note_on_c, 2, 46, 0
1, 101370, Note_on_c, 2, 62, 0
1, 101376, Note_on_c, 1, 29, 63
1, 101376, Note_on_c, 2, 41, 61
1, 101376, Note_on_c, 2, 53, 61
1, 101376, Note_on_c, 2, 57, 61
1, 101376, Note_on_c, 2, 60, 61
1, 101376, Note_on_c, 5, 57, 59
1, 101376, Note_on_c, 9, 27, 127
1, 101376, Note_on_c, 9, 45, 107
1, 101376, Note_on_c, 9, 36, 127
1, 101376, Note_on_c, 9, 42, 66
1, 101376, Note_on_c, 9, 70, 92
1, 101378, Control_c, 5, 10, 68
1, 101382, Note_on_c, 6, 72, 121
1, 101394, Note_on_c, 9, 70, 0
1, 101394, Note_on_c, 9, 27, 0
1, 101394, Note_on_c, 9, 42, 0
1, 101394, Note_on_c, 9, 45, 0
1, 101394, Note_on_c, 9, 36, 0
1, 101438, Note_on_c, 2, 77, 0
1, 101463, Note_on_c, 1, 29, 0
1, 101466, Note_on_c, 5, 57, 0
1, 101472, Note_on_c, 5, 65, 68
1, 101472, Note_on_c, 9, 42, 75
1, 101474, Control_c, 5, 10, 72
1, 101490, Note_on_c, 9, 42, 0
1, 101562, Note_on_c, 5, 65, 0
1, 101568, Note_on_c, 1, 41, 89
1, 101568, Note_on_c, 5, 69, 64
1, 101568, Note_on_c, 9, 46, 107
1, 101570, Control_c, 5, 10, 76
1, 101586, Note_on_c, 9, 46, 0
1, 101635, Note_on_c, 6, 72, 0
1, 101658, Note_on_c, 1, 41, 0
1, 101664, Note_on_c, 5, 72, 74
1, 101664, Note_on_c, 9, 70, 44
1, 101666, Control_c, 5, 10, 79
1, 101682, Note_on_c, 9, 70, 0
1, 101683, Note_on_c, 5, 69, 0
1, 101754, Note_on_c, 5, 72, 0
1, 101760, Note_on_c, 1, 29, 63
1, 101760, Note_on_c, 5, 77, 89
1, 101760, Note_on_c, 6, 72, 104
1, 101760, Note_on_c, 9, 27, 127
1, 101760, Note_on_c, 9, 38, 127
1, 101760, Note_on_c, 9, 45, 107
1, 101760, Note_on_c, 9, 36, 127
1, 101760, Note_on_c, 9, 42, 66
1, 101760, Note_on_c, 9, 70, 92
1, 101762, Control_c, 5, 10, 83
1, 101778, Note_on_c, 9, 70, 0
1, 101778, Note_on_c, 9, 45, 0
1, 101778, Note_on_c, 9, 27, 0
1, 101778, Note_on_c, 9, 42, 0
1, 101778, Note_on_c, 9, 38, 0
1, 101778, Note_on_c, 9, 36, 0
1, 101850, Note_on_c, 1, 29, 0
1, 101856, Note_on_c, 5, 72, 77
1, 101856, Note_on_c, 9, 42, 75
1, 101858, Control_c, 5, 10, 87
1, 101862, Note_on_c, 5, 77, 0
1, 101874, Note_on_c, 9, 42, 0
1, 101946, Note_on_c, 5, 72, 0
1, 101952, Note_on_c, 1, 41, 89
1, 101952, Note_on_c, 5, 69, 64
1, 101952, Note_on_c, 9, 46, 107
1, 101952, Note_on_c, 9, 70, 80
1, 101954, Control_c, 5, 10, 91
1, 101970, Note_on_c, 9, 70, 0
1, 101970, Note_on_c, 9, 46, 0
1, 102013, Note_on_c, 6, 72, 0
1, 102042, Note_on_c, 1, 41, 0
1, 102048, Note_on_c, 5, 65, 74
1, 102050, Control_c, 5, 10, 94
1, 102067, Note_on_c, 5, 69, 0
1, 102138, Note_on_c, 5, 65, 0
1, 102144, Note_on_c, 1, 29, 63
1, 102144, Note_on_c, 5, 57, 59
1, 102144, Note_on_c, 6, 72, 87
1, 102144, Note_on_c, 9, 27, 127
1, 102144, Note_on_c, 9, 45, 107
1, 102144, Note_on_c, 9, 36, 127
1, 102144, Note_on_c, 9, 42, 66
1, 102144, Note_on_c, 9, 70, 86
1, 102146, Control_c, 5, 10, 98
1, 102162, Note_on_c, 9, 70, 0
1, 102162, Note_on_c, 9, 27, 0
1, 102162, Note_on_c, 9, 42, 0
1, 102162, Note_on_c, 9, 45, 0
1, 102162, Note_on_c, 9, 36, 0
1, 102234, Note_on_c, 5, 57, 0
1, 102234, Note_on_c, 1, 29, 0
1, 102240, Note_on_c, 5, 65, 74
1, 102240, Note_on_c, 9, 42, 75
1, 102242, Control_c, 5, 10, 102
1, 102258, Note_on_c, 9, 42, 0
1, 102330, Note_on_c, 5, 65, 0
1, 102336, Note_on_c, 1, 41, 86
1, 102336, Note_on_c, 5, 69, 64
1, 102336, Note_on_c, 9, 46, 107
1, 102336, Note_on_c, 9, 70, 13
1, 102338, Control_c, 5, 10, 105
1, 102354, Note_on_c, 9, 70, 0
1, 102354, Note_on_c, 9, 46, 0
1, 102397, Note_on_c, 6, 72, 0
1, 102426, Note_on_c, 1, 41, 0
1, 102432, Note_on_c, 5, 72, 80
1, 102432, Note_on_c, 9, 70, 26
1, 102434, Control_c, 5, 10, 109
1, 102450, Note_on_c, 9, 70, 0
1, 102451, Note_on_c, 5, 69, 0
1, 102518, Note_on_c, 6, 74, 127
1, 102522, Note_on_c, 5, 72, 0
1, 102528, Note_on_c, 1, 29, 63
1, 102528, Note_on_c, 5, 77, 86
1, 102528, Note_on_c, 9, 27, 127
1, 102528, Note_on_c, 9, 38, 127
1, 102528, Note_on_c, 9, 45, 107
1, 102528, Note_on_c, 9, 36, 127
1, 102528, Note_on_c, 9, 42, 66
1, 102528, Note_on_c, 9, 70, 92
1, 102530, Control_c, 5, 10, 113
1, 102546, Note_on_c, 9, 70, 0
1, 102546, Note_on_c, 9, 45, 0
1, 102546, Note_on_c, 9, 27, 0
1, 102546, Note_on_c, 9, 42, 0
1, 102546, Note_on_c, 9, 38, 0
1, 102546, Note_on_c, 9, 36, 0
1, 102618, Note_on_c, 1, 29, 0
1, 102624, Note_on_c, 5, 72, 74
1, 102624, Note_on_c, 9, 42, 75
1, 102626, Control_c, 5, 10, 116
1, 102630, Note_on_c, 5, 77, 0
1, 102642, Note_on_c, 9, 42, 0
1, 102714, Note_on_c, 5, 72, 0
1, 102720, Note_on_c, 1, 41, 86
1, 102720, Note_on_c, 5, 69, 64
1, 102720, Note_on_c, 9, 46, 107
1, 102720, Note_on_c, 9, 70, 63
1, 102722, Note_on_c, 6, 74, 0
1, 102722, Control_c, 5, 10, 120
1, 102738, Note_on_c, 9, 70, 0
1, 102738, Note_on_c, 9, 46, 0
1, 102814, Note_on_c, 1, 41, 0
1, 102816, Note_on_c, 5, 65, 80
1, 102818, Control_c, 5, 10, 124
1, 102835, Note_on_c, 5, 69, 0
1, 102906, Note_on_c, 5, 65, 0
1, 102906, Note_on_c, 2, 41, 0
1, 102906, Note_on_c, 2, 53, 0
1, 102906, Note_on_c, 2, 60, 0
1, 102906, Note_on_c, 2, 57, 0
1, 102912, Note_on_c, 1, 26, 60
1, 102912, Note_on_c, 2, 50, 61
1, 102912, Note_on_c, 2, 53, 61
1, 102912, Note_on_c, 2, 57, 61
1, 102912, Note_on_c, 5, 62, 59
1, 102912, Note_on_c, 6, 69, 127
1, 102912, Note_on_c, 9, 27, 127
1, 102912, Note_on_c, 9, 45, 107
1, 102912, Note_on_c, 9, 36, 127
1, 102912, Note_on_c, 9, 42, 66
1, 102912, Note_on_c, 9, 70, 92
1, 102914, Control_c, 5, 10, 127
1, 102920, Note_on_c, 2, 65, 61
1, 102930, Note_on_c, 9, 70, 0
1, 102930, Note_on_c, 9, 45, 0
1, 102930, Note_on_c, 9, 27, 0
1, 102930, Note_on_c, 9, 42, 0
1, 102930, Note_on_c, 9, 36, 0
1, 102999, Note_on_c, 1, 26, 0
1, 103002, Note_on_c, 5, 62, 0
1, 103008, Note_on_c, 5, 69, 74
1, 103008, Note_on_c, 9, 42, 75
1, 103010, Control_c, 5, 10, 124
1, 103026, Note_on_c, 9, 42, 0
1, 103098, Note_on_c, 5, 69, 0
1, 103104, Note_on_c, 1, 38, 92
1, 103104, Note_on_c, 5, 74, 64
1, 103104, Note_on_c, 9, 46, 107
1, 103106, Control_c, 5, 10, 120
1, 103122, Note_on_c, 9, 46, 0
1, 103142, Note_on_c, 6, 69, 0
1, 103194, Note_on_c, 1, 38, 0
1, 103200, Note_on_c, 9, 70, 40
1, 103202, Control_c, 5, 10, 116
1, 103218, Note_on_c, 9, 70, 0
1, 103219, Note_on_c, 5, 74, 0
1, 103296, Note_on_c, 1, 26, 66
1, 103296, Note_on_c, 5, 77, 80
1, 103296, Note_on_c, 5, 86, 71
1, 103296, Note_on_c, 6, 69, 114
1, 103296, Note_on_c, 9, 27, 127
1, 103296, Note_on_c, 9, 38, 127
1, 103296, Note_on_c, 9, 45, 107
1, 103296, Note_on_c, 9, 36, 127
1, 103296, Note_on_c, 9, 42, 66
1, 103296, Note_on_c, 9, 70, 86
1, 103298, Control_c, 5, 10, 112
1, 103314, Note_on_c, 9, 70, 0
1, 103314, Note_on_c, 9, 42, 0
1, 103314, Note_on_c, 9, 38, 0
1, 103314, Note_on_c, 9, 36, 0
1, 103314, Note_on_c, 9, 27, 0
1, 103314, Note_on_c, 9, 45, 0
1, 103386, Note_on_c, 5, 77, 0
1, 103386, Note_on_c, 1, 26, 0
1, 103392, Note_on_c, 5, 74, 74
1, 103392, Note_on_c, 9, 42, 75
1, 103394, Control_c, 5, 10, 108
1, 103398, Note_on_c, 5, 86, 0
1, 103410, Note_on_c, 9, 42, 0
1, 103482, Note_on_c, 5, 74, 0
1, 103488, Note_on_c, 1, 38, 92
1, 103488, Note_on_c, 5, 69, 64
1, 103488, Note_on_c, 9, 46, 92
1, 103488, Note_on_c, 9, 70, 80
1, 103490, Control_c, 5, 10, 104
1, 103506, Note_on_c, 9, 70, 0
1, 103506, Note_on_c, 9, 46, 0
1, 103526, Note_on_c, 6, 69, 0
1, 103578, Note_on_c, 1, 38, 0
1, 103584, Note_on_c, 5, 65, 80
1, 103586, Control_c, 5, 10, 100
1, 103603, Note_on_c, 5, 69, 0
1, 103674, Note_on_c, 5, 65, 0
1, 103680, Note_on_c, 1, 26, 66
1, 103680, Note_on_c, 5, 62, 59
1, 103680, Note_on_c, 6, 69, 100
1, 103680, Note_on_c, 9, 27, 127
1, 103680, Note_on_c, 9, 45, 107
1, 103680, Note_on_c, 9, 36, 127
1, 103680, Note_on_c, 9, 42, 66
1, 103680, Note_on_c, 9, 70, 92
1, 103682, Control_c, 5, 10, 96
1, 103698, Note_on_c, 9, 70, 0
1, 103698, Note_on_c, 9, 27, 0
1, 103698, Note_on_c, 9, 42, 0
1, 103698, Note_on_c, 9, 45, 0
1, 103698, Note_on_c, 9, 36, 0
1, 103770, Note_on_c, 5, 62, 0
1, 103770, Note_on_c, 1, 26, 0
1, 103776, Note_on_c, 5, 69, 74
1, 103776, Note_on_c, 9, 42, 75
1, 103778, Control_c, 5, 10, 92
1, 103794, Note_on_c, 9, 42, 0
1, 103866, Note_on_c, 5, 69, 0
1, 103872, Note_on_c, 1, 38, 92
1, 103872, Note_on_c, 5, 72, 64
1, 103872, Note_on_c, 9, 46, 107
1, 103872, Note_on_c, 9, 70, 20
1, 103874, Control_c, 5, 10, 88
1, 103890, Note_on_c, 9, 70, 0
1, 103890, Note_on_c, 9, 46, 0
1, 103910, Note_on_c, 6, 69, 0
1, 103962, Note_on_c, 1, 38, 0
1, 103968, Note_on_c, 5, 77, 80
1, 103968, Note_on_c, 9, 70, 49
1, 103970, Control_c, 5, 10, 84
1, 103986, Note_on_c, 9, 70, 0
1, 103987, Note_on_c, 5, 72, 0
1, 104058, Note_on_c, 5, 77, 0
1, 104064, Note_on_c, 1, 26, 66
1, 104064, Note_on_c, 5, 77, 74
1, 104064, Note_on_c, 5, 86, 74
1, 104064, Note_on_c, 6, 69, 86
1, 104064, Note_on_c, 9, 27, 127
1, 104064, Note_on_c, 9, 38, 127
1, 104064, Note_on_c, 9, 45, 107
1, 104064, Note_on_c, 9, 36, 127
1, 104064, Note_on_c, 9, 42, 66
1, 104064, Note_on_c, 9, 70, 76
1, 104066, Control_c, 5, 10, 80
1, 104082, Note_on_c, 9, 70, 0
1, 104082, Note_on_c, 9, 42, 0
1, 104082, Note_on_c, 9, 38, 0
1, 104082, Note_on_c, 9, 36, 0
1, 104082, Note_on_c, 9, 27, 0
1, 104082, Note_on_c, 9, 45, 0
1, 104154, Note_on_c, 5, 77, 0
1, 104154, Note_on_c, 1, 26, 0
1, 104160, Note_on_c, 9, 42, 75
1, 104162, Control_c, 5, 10, 76
1, 104166, Note_on_c, 5, 86, 0
1, 104178, Note_on_c, 9, 42, 0
1, 104256, Note_on_c, 1, 38, 89
1, 104256, Note_on_c, 5, 72, 64
1, 104256, Note_on_c, 9, 46, 107
1, 104256, Note_on_c, 9, 70, 66
1, 104258, Control_c, 5, 10, 72
1, 104274, Note_on_c, 9, 70, 0
1, 104274, Note_on_c, 9, 46, 0
1, 104294, Note_on_c, 6, 69, 0
1, 104350, Note_on_c, 1, 38, 0
1, 104352, Note_on_c, 5, 69, 80
1, 104354, Control_c, 5, 10, 68
1, 104371, Note_on_c, 5, 72, 0
1, 104442, Note_on_c, 5, 69, 0
1, 104442, Note_on_c, 2, 53, 0
1, 104442, Note_on_c, 2, 50, 0
1, 104448, Note_on_c, 1, 33, 63
1, 104448, Note_on_c, 2, 45, 61
1, 104448, Note_on_c, 2, 60, 61
1, 104448, Note_on_c, 2, 64, 61
1, 104448, Note_on_c, 5, 60, 59
1, 104448, Note_on_c, 6, 72, 127
1, 104448, Note_on_c, 9, 27, 127
1, 104448, Note_on_c, 9, 45, 107
1, 104448, Note_on_c, 9, 36, 127
1, 104448, Note_on_c, 9, 42, 66
1, 104448, Note_on_c, 9, 70, 92
1, 104450, Note_on_c, 2, 65, 0
1, 104450, Control_c, 5, 10, 64
1, 104466, Note_on_c, 9, 36, 0
1, 104466, Note_on_c, 9, 27, 0
1, 104466, Note_on_c, 9, 70, 0
1, 104466, Note_on_c, 9, 45, 0
1, 104466, Note_on_c, 9, 42, 0
1, 104535, Note_on_c, 1, 33, 0
1, 104538, Note_on_c, 5, 60, 0
1, 104544, Note_on_c, 5, 69, 74
1, 104544, Note_on_c, 9, 42, 75
1, 104546, Control_c, 5, 10, 60
1, 104562, Note_on_c, 9, 42, 0
1, 104634, Note_on_c, 5, 69, 0
1, 104640, Note_on_c, 1, 45, 89
1, 104640, Note_on_c, 5, 72, 64
1, 104640, Note_on_c, 9, 46, 107
1, 104642, Control_c, 5, 10, 56
1, 104658, Note_on_c, 9, 46, 0
1, 104678, Note_on_c, 6, 72, 0
1, 104730, Note_on_c, 1, 45, 0
1, 104736, Note_on_c, 9, 70, 44
1, 104738, Control_c, 5, 10, 52
1, 104754, Note_on_c, 9, 70, 0
1, 104755, Note_on_c, 5, 72, 0
1, 104832, Note_on_c, 1, 33, 63
1, 104832, Note_on_c, 5, 76, 80
1, 104832, Note_on_c, 6, 72, 97
1, 104832, Note_on_c, 6, 69, 127
1, 104832, Note_on_c, 9, 27, 127
1, 104832, Note_on_c, 9, 38, 127
1, 104832, Note_on_c, 9, 45, 107
1, 104832, Note_on_c, 9, 36, 127
1, 104832, Note_on_c, 9, 42, 66
1, 104832, Note_on_c, 9, 70, 92
1, 104834, Control_c, 5, 10, 48
1, 104850, Note_on_c, 9, 70, 0
1, 104850, Note_on_c, 9, 42, 0
1, 104850, Note_on_c, 9, 38, 0
1, 104850, Note_on_c, 9, 36, 0
1, 104850, Note_on_c, 9, 27, 0
1, 104850, Note_on_c, 9, 45, 0
1, 104922, Note_on_c, 5, 76, 0
1, 104922, Note_on_c, 1, 33, 0
1, 104928, Note_on_c, 5, 72, 74
1, 104928, Note_on_c, 9, 42, 75
1, 104930, Control_c, 5, 10, 44
1, 104946, Note_on_c, 9, 42, 0
1, 105018, Note_on_c, 5, 72, 0
1, 105024, Note_on_c, 1, 45, 89
1, 105024, Note_on_c, 5, 69, 64
1, 105024, Note_on_c, 9, 46, 107
1, 105024, Note_on_c, 9, 70, 80
1, 105026, Control_c, 5, 10, 40
1, 105042, Note_on_c, 9, 70, 0
1, 105042, Note_on_c, 9, 46, 0
1, 105062, Note_on_c, 6, 69, 0
1, 105062, Note_on_c, 6, 72, 0
1, 105114, Note_on_c, 1, 45, 0
1, 105120, Note_on_c, 5, 64, 80
1, 105122, Control_c, 5, 10, 36
1, 105139, Note_on_c, 5, 69, 0
1, 105210, Note_on_c, 5, 64, 0
1, 105216, Note_on_c, 1, 33, 63
1, 105216, Note_on_c, 5, 60, 59
1, 105216, Note_on_c, 6, 69, 97
1, 105216, Note_on_c, 6, 67, 127
1, 105216, Note_on_c, 9, 27, 127
1, 105216, Note_on_c, 9, 45, 107
1, 105216, Note_on_c, 9, 36, 127
1, 105216, Note_on_c, 9, 42, 66
1, 105216, Note_on_c, 9, 70, 86
1, 105218, Control_c, 5, 10, 32
1, 105234, Note_on_c, 9, 70, 0
1, 105234, Note_on_c, 9, 45, 0
1, 105234, Note_on_c, 9, 42, 0
1, 105234, Note_on_c, 9, 27, 0
1, 105234, Note_on_c, 9, 36, 0
1, 105306, Note_on_c, 5, 60, 0
1, 105306, Note_on_c, 1, 33, 0
1, 105312, Note_on_c, 5, 69, 74
1, 105312, Note_on_c, 9, 42, 75
1, 105314, Control_c, 5, 10, 28
1, 105330, Note_on_c, 9, 42, 0
1, 105402, Note_on_c, 5, 69, 0
1, 105408, Note_on_c, 1, 45, 86
1, 105408, Note_on_c, 5, 72, 64
1, 105408, Note_on_c, 9, 46, 107
1, 105408, Note_on_c, 9, 70, 13
1, 105410, Control_c, 5, 10, 24
1, 105426, Note_on_c, 9, 70, 0
1, 105426, Note_on_c, 9, 46, 0
1, 105446, Note_on_c, 6, 67, 0
1, 105446, Note_on_c, 6, 69, 0
1, 105498, Note_on_c, 1, 45, 0
1, 105504, Note_on_c, 9, 70, 26
1, 105506, Control_c, 5, 10, 20
1, 105522, Note_on_c, 9, 70, 0
1, 105523, Note_on_c, 5, 72, 0
1, 105600, Note_on_c, 1, 33, 63
1, 105600, Note_on_c, 5, 76, 80
1, 105600, Note_on_c, 6, 67, 97
1, 105600, Note_on_c, 6, 65, 127
1, 105600, Note_on_c, 9, 27, 127
1, 105600, Note_on_c, 9, 38, 127
1, 105600, Note_on_c, 9, 45, 107
1, 105600, Note_on_c, 9, 36, 127
1, 105600, Note_on_c, 9, 42, 66
1, 105600, Note_on_c, 9, 70, 92
1, 105602, Control_c, 5, 10, 16
1, 105618, Note_on_c, 9, 70, 0
1, 105618, Note_on_c, 9, 42, 0
1, 105618, Note_on_c, 9, 38, 0
1, 105618, Note_on_c, 9, 36, 0
1, 105618, Note_on_c, 9, 27, 0
1, 105618, Note_on_c, 9, 45, 0
1, 105690, Note_on_c, 5, 76, 0
1, 105690, Note_on_c, 1, 33, 0
1, 105696, Note_on_c, 5, 72, 74
1, 105696, Note_on_c, 9, 42, 75
1, 105698, Control_c, 5, 10, 12
1, 105714, Note_on_c, 9, 42, 0
1, 105786, Note_on_c, 5, 72, 0
1, 105792, Note_on_c, 1, 45, 86
1, 105792, Note_on_c, 5, 69, 64
1, 105792, Note_on_c, 9, 46, 107
1, 105792, Note_on_c, 9, 70, 63
1, 105794, Control_c, 5, 10, 8
1, 105810, Note_on_c, 9, 70, 0
1, 105810, Note_on_c, 9, 46, 0
1, 105830, Note_on_c, 6, 65, 0
1, 105830, Note_on_c, 6, 67, 0
1, 105886, Note_on_c, 1, 45, 0
1, 105888, Note_on_c, 5, 64, 80
1, 105888, Note_on_c, 9, 27, 127
1, 105888, Note_on_c, 9, 45, 107
1, 105888, Note_on_c, 9, 36, 127
1, 105890, Control_c, 5, 10, 4
1, 105906, Note_on_c, 9, 36, 0
1, 105906, Note_on_c, 9, 45, 0
1, 105906, Note_on_c, 9, 27, 0
1, 105907, Note_on_c, 5, 69, 0
1, 105978, Note_on_c, 5, 64, 0
1, 105978, Note_on_c, 2, 64, 0
1, 105978, Note_on_c, 2, 60, 0
1, 105978, Note_on_c, 2, 45, 0
1, 105984, Note_on_c, 1, 34, 60
1, 105984, Note_on_c, 2, 53, 61
1, 105984, Note_on_c, 2, 58, 61
1, 105984, Note_on_c, 5, 58, 59
1, 105984, Note_on_c, 6, 65, 97
1, 105984, Note_on_c, 6, 62, 127
1, 105984, Note_on_c, 9, 27, 127
1, 105984, Note_on_c, 9, 45, 107
1, 105984, Note_on_c, 9, 36, 127
1, 105984, Note_on_c, 9, 42, 66
1, 105984, Note_on_c, 9, 70, 92
1, 105986, Note_on_c, 2, 57, 0
1, 105986, Control_c, 5, 10, 2
1, 105992, Note_on_c, 2, 46, 61
1, 105992, Note_on_c, 2, 62, 61
1, 106002, Note_on_c, 9, 45, 0
1, 106002, Note_on_c, 9, 27, 0
1, 106002, Note_on_c, 9, 70, 0
1, 106002, Note_on_c, 9, 36, 0
1, 106002, Note_on_c, 9, 42, 0
1, 106071, Note_on_c, 1, 34, 0
1, 106074, Note_on_c, 5, 58, 0
1, 106080, Note_on_c, 5, 62, 68
1, 106080, Note_on_c, 9, 42, 75
1, 106082, Control_c, 5, 10, 6
1, 106098, Note_on_c, 9, 42, 0
1, 106170, Note_on_c, 5, 62, 0
1, 106176, Note_on_c, 1, 46, 92
1, 106176, Note_on_c, 5, 65, 64
1, 106176, Note_on_c, 9, 46, 107
1, 106178, Control_c, 5, 10, 10
1, 106194, Note_on_c, 9, 46, 0
1, 106214, Note_on_c, 6, 65, 0
1, 106214, Note_on_c, 6, 62, 0
1, 106266, Note_on_c, 1, 46, 0
1, 106266, Note_on_c, 5, 65, 0
1, 106272, Note_on_c, 5, 70, 64
1, 106272, Note_on_c, 9, 70, 40
1, 106274, Control_c, 5, 10, 14
1, 106290, Note_on_c, 9, 70, 0
1, 106362, Note_on_c, 5, 70, 0
1, 106368, Note_on_c, 1, 34, 66
1, 106368, Note_on_c, 5, 74, 95
1, 106368, Note_on_c, 6, 62, 97
1, 106368, Note_on_c, 6, 65, 127
1, 106368, Note_on_c, 9, 27, 127
1, 106368, Note_on_c, 9, 38, 127
1, 106368, Note_on_c, 9, 36, 127
1, 106368, Note_on_c, 9, 45, 107
1, 106368, Note_on_c, 9, 42, 66
1, 106368, Note_on_c, 9, 70, 86
1, 106370, Control_c, 5, 10, 18
1, 106386, Note_on_c, 9, 70, 0
1, 106386, Note_on_c, 9, 42, 0
1, 106386, Note_on_c, 9, 38, 0
1, 106386, Note_on_c, 9, 45, 0
1, 106386, Note_on_c, 9, 27, 0
1, 106386, Note_on_c, 9, 36, 0
1, 106458, Note_on_c, 5, 74, 0
1, 106458, Note_on_c, 1, 34, 0
1, 106464, Note_on_c, 5, 65, 68
1, 106464, Note_on_c, 9, 42, 75
1, 106466, Control_c, 5, 10, 22
1, 106482, Note_on_c, 9, 42, 0
1, 106554, Note_on_c, 5, 65, 0
1, 106560, Note_on_c, 1, 46, 92
1, 106560, Note_on_c, 5, 62, 59
1, 106560, Note_on_c, 9, 46, 92
1, 106560, Note_on_c, 9, 70, 80
1, 106562, Control_c, 5, 10, 26
1, 106578, Note_on_c, 9, 70, 0
1, 106578, Note_on_c, 9, 46, 0
1, 106598, Note_on_c, 6, 65, 0
1, 106598, Note_on_c, 6, 62, 0
1, 106650, Note_on_c, 1, 46, 0
1, 106650, Note_on_c, 5, 62, 0
1, 106656, Note_on_c, 5, 65, 53
1, 106658, Control_c, 5, 10, 30
1, 106746, Note_on_c, 5, 65, 0
1, 106752, Note_on_c, 1, 34, 66
1, 106752, Note_on_c, 5, 58, 64
1, 106752, Note_on_c, 6, 65, 113
1, 106752, Note_on_c, 9, 27, 127
1, 106752, Note_on_c, 9, 36, 127
1, 106752, Note_on_c, 9, 45, 107
1, 106752, Note_on_c, 9, 42, 66
1, 106752, Note_on_c, 9, 70, 92
1, 106754, Control_c, 5, 10, 34
1, 106770, Note_on_c, 9, 70, 0
1, 106770, Note_on_c, 9, 27, 0
1, 106770, Note_on_c, 9, 42, 0
1, 106770, Note_on_c, 9, 36, 0
1, 106770, Note_on_c, 9, 45, 0
1, 106842, Note_on_c, 5, 58, 0
1, 106842, Note_on_c, 1, 34, 0
1, 106848, Note_on_c, 5, 65, 65
1, 106848, Note_on_c, 9, 42, 75
1, 106850, Control_c, 5, 10, 38
1, 106866, Note_on_c, 9, 42, 0
1, 106938, Note_on_c, 5, 65, 0
1, 106944, Note_on_c, 1, 46, 92
1, 106944, Note_on_c, 5, 70, 65
1, 106944, Note_on_c, 9, 46, 107
1, 106944, Note_on_c, 9, 70, 20
1, 106946, Control_c, 5, 10, 42
1, 106962, Note_on_c, 9, 70, 0
1, 106962, Note_on_c, 9, 46, 0
1, 106982, Note_on_c, 6, 65, 0
1, 107034, Note_on_c, 1, 46, 0
1, 107034, Note_on_c, 5, 70, 0
1, 107040, Note_on_c, 5, 65, 65
1, 107040, Note_on_c, 9, 70, 49
1, 107042, Control_c, 5, 10, 45
1, 107058, Note_on_c, 9, 70, 0
1, 107130, Note_on_c, 5, 65, 0
1, 107136, Note_on_c, 1, 34, 66
1, 107136, Note_on_c, 5, 74, 95
1, 107136, Note_on_c, 6, 67, 119
1, 107136, Note_on_c, 9, 27, 127
1, 107136, Note_on_c, 9, 38, 127
1, 107136, Note_on_c, 9, 45, 107
1, 107136, Note_on_c, 9, 36, 127
1, 107136, Note_on_c, 9, 42, 66
1, 107136, Note_on_c, 9, 70, 76
1, 107138, Control_c, 5, 10, 49
1, 107154, Note_on_c, 9, 70, 0
1, 107154, Note_on_c, 9, 45, 0
1, 107154, Note_on_c, 9, 27, 0
1, 107154, Note_on_c, 9, 42, 0
1, 107154, Note_on_c, 9, 38, 0
1, 107154, Note_on_c, 9, 36, 0
1, 107226, Note_on_c, 5, 74, 0
1, 107226, Note_on_c, 1, 34, 0
1, 107232, Note_on_c, 5, 65, 71
1, 107232, Note_on_c, 9, 42, 75
1, 107234, Control_c, 5, 10, 53
1, 107250, Note_on_c, 9, 42, 0
1, 107322, Note_on_c, 5, 65, 0
1, 107328, Note_on_c, 1, 46, 89
1, 107328, Note_on_c, 5, 58, 56
1, 107328, Note_on_c, 9, 46, 107
1, 107328, Note_on_c, 9, 70, 66
1, 107330, Control_c, 5, 10, 57
1, 107346, Note_on_c, 9, 70, 0
1, 107346, Note_on_c, 9, 46, 0
1, 107366, Note_on_c, 6, 67, 0
1, 107418, Note_on_c, 5, 58, 0
1, 107422, Note_on_c, 1, 46, 0
1, 107424, Note_on_c, 5, 62, 53
1, 107426, Note_on_c, 2, 53, 0
1, 107426, Note_on_c, 2, 58, 0
1, 107426, Control_c, 5, 10, 61
1, 107514, Note_on_c, 5, 62, 0
1, 107520, Note_on_c, 1, 31, 63
1, 107520, Note_on_c, 5, 55, 47
1, 107520, Note_on_c, 6, 69, 119
1, 107520, Note_on_c, 9, 27, 127
1, 107520, Note_on_c, 9, 45, 107
1, 107520, Note_on_c, 9, 36, 127
1, 107520, Note_on_c, 9, 42, 66
1, 107520, Note_on_c, 9, 70, 92
1, 107522, Note_on_c, 2, 46, 0
1, 107522, Note_on_c, 2, 62, 0
1, 107522, Control_c, 5, 10, 65
1, 107528, Note_on_c, 2, 43, 61
1, 107528, Note_on_c, 2, 55, 61
1, 107528, Note_on_c, 2, 58, 61
1, 107536, Note_on_c, 2, 62, 61
1, 107538, Note_on_c, 9, 36, 0
1, 107538, Note_on_c, 9, 45, 0
1, 107538, Note_on_c, 9, 27, 0
1, 107538, Note_on_c, 9, 42, 0
1, 107538, Note_on_c, 9, 70, 0
1, 107607, Note_on_c, 1, 31, 0
1, 107610, Note_on_c, 5, 55, 0
1, 107616, Note_on_c, 5, 58, 64
1, 107616, Note_on_c, 9, 42, 75
1, 107618, Control_c, 5, 10, 69
1, 107634, Note_on_c, 9, 42, 0
1, 107706, Note_on_c, 5, 58, 0
1, 107712, Note_on_c, 1, 43, 89
1, 107712, Note_on_c, 5, 60, 64
1, 107712, Note_on_c, 9, 46, 107
1, 107714, Control_c, 5, 10, 73
1, 107730, Note_on_c, 9, 46, 0
1, 107750, Note_on_c, 6, 69, 0
1, 107802, Note_on_c, 1, 43, 0
1, 107802, Note_on_c, 5, 60, 0
1, 107808, Note_on_c, 5, 62, 80
1, 107808, Note_on_c, 9, 70, 44
1, 107810, Control_c, 5, 10, 77
1, 107826, Note_on_c, 9, 70, 0
1, 107898, Note_on_c, 5, 62, 0
1, 107904, Note_on_c, 1, 31, 63
1, 107904, Note_on_c, 5, 67, 68
1, 107904, Note_on_c, 6, 69, 95
1, 107904, Note_on_c, 9, 27, 127
1, 107904, Note_on_c, 9, 38, 127
1, 107904, Note_on_c, 9, 45, 107
1, 107904, Note_on_c, 9, 36, 127
1, 107904, Note_on_c, 9, 42, 66
1, 107904, Note_on_c, 9, 70, 92
1, 107906, Control_c, 5, 10, 81
1, 107922, Note_on_c, 9, 70, 0
1, 107922, Note_on_c, 9, 45, 0
1, 107922, Note_on_c, 9, 27, 0
1, 107922, Note_on_c, 9, 42, 0
1, 107922, Note_on_c, 9, 38, 0
1, 107922, Note_on_c, 9, 36, 0
1, 107994, Note_on_c, 5, 67, 0
1, 107994, Note_on_c, 1, 31, 0
1, 108000, Note_on_c, 5, 70, 65
1, 108000, Note_on_c, 9, 42, 75
1, 108002, Control_c, 5, 10, 85
1, 108018, Note_on_c, 9, 42, 0
1, 108090, Note_on_c, 5, 70, 0
1, 108096, Note_on_c, 1, 43, 89
1, 108096, Note_on_c, 5, 74, 64
1, 108096, Note_on_c, 9, 46, 107
1, 108096, Note_on_c, 9, 70, 80
1, 108098, Control_c, 5, 10, 88
1, 108114, Note_on_c, 9, 70, 0
1, 108114, Note_on_c, 9, 46, 0
1, 108134, Note_on_c, 6, 69, 0
1, 108186, Note_on_c, 1, 43, 0
1, 108186, Note_on_c, 5, 74, 0
1, 108192, Note_on_c, 5, 77, 71
1, 108194, Control_c, 5, 10, 92
1, 108282, Note_on_c, 5, 77, 0
1, 108288, Note_on_c, 1, 36, 63
1, 108288, Note_on_c, 5, 79, 80
1, 108288, Note_on_c, 6, 67, 119
1, 108288, Note_on_c, 9, 27, 127
1, 108288, Note_on_c, 9, 45, 107
1, 108288, Note_on_c, 9, 36, 127
1, 108288, Note_on_c, 9, 42, 66
1, 108288, Note_on_c, 9, 70, 86
1, 108290, Note_on_c, 2, 55, 0
1, 108290, Note_on_c, 2, 58, 0
1, 108290, Note_on_c, 2, 43, 0
1, 108290, Control_c, 5, 10, 96
1, 108296, Note_on_c, 2, 48, 61
1, 108296, Note_on_c, 2, 55, 61
1, 108296, Note_on_c, 2, 60, 61
1, 108296, Note_on_c, 2, 64, 61
1, 108298, Note_on_c, 2, 62, 0
1, 108306, Note_on_c, 9, 45, 0
1, 108306, Note_on_c, 9, 27, 0
1, 108306, Note_on_c, 9, 42, 0
1, 108306, Note_on_c, 9, 36, 0
1, 108306, Note_on_c, 9, 70, 0
1, 108378, Note_on_c, 5, 79, 0
1, 108378, Note_on_c, 1, 36, 0
1, 108384, Note_on_c, 5, 74, 71
1, 108384, Note_on_c, 9, 42, 75
1, 108386, Control_c, 5, 10, 100
1, 108402, Note_on_c, 9, 42, 0
1, 108474, Note_on_c, 5, 74, 0
1, 108480, Note_on_c, 1, 48, 86
1, 108480, Note_on_c, 5, 72, 71
1, 108480, Note_on_c, 9, 46, 107
1, 108480, Note_on_c, 9, 70, 13
1, 108482, Control_c, 5, 10, 104
1, 108498, Note_on_c, 9, 70, 0
1, 108498, Note_on_c, 9, 46, 0
1, 108518, Note_on_c, 6, 67, 0
1, 108570, Note_on_c, 1, 48, 0
1, 108570, Note_on_c, 5, 72, 0
1, 108576, Note_on_c, 5, 70, 65
1, 108576, Note_on_c, 9, 70, 26
1, 108578, Control_c, 5, 10, 108
1, 108594, Note_on_c, 9, 70, 0
1, 108666, Note_on_c, 5, 70, 0
1, 108672, Note_on_c, 1, 36, 63
1, 108672, Note_on_c, 5, 67, 68
1, 108672, Note_on_c, 6, 67, 95
1, 108672, Note_on_c, 9, 27, 127
1, 108672, Note_on_c, 9, 38, 127
1, 108672, Note_on_c, 9, 45, 107
1, 108672, Note_on_c, 9, 36, 127
1, 108672, Note_on_c, 9, 42, 66
1, 108672, Note_on_c, 9, 70, 92
1, 108674, Control_c, 5, 10, 112
1, 108690, Note_on_c, 9, 70, 0
1, 108690, Note_on_c, 9, 45, 0
1, 108690, Note_on_c, 9, 27, 0
1, 108690, Note_on_c, 9, 42, 0
1, 108690, Note_on_c, 9, 38, 0
1, 108690, Note_on_c, 9, 36, 0
1, 108762, Note_on_c, 5, 67, 0
1, 108762, Note_on_c, 1, 36, 0
1, 108768, Note_on_c, 5, 62, 80
1, 108768, Note_on_c, 9, 42, 75
1, 108770, Control_c, 5, 10, 116
1, 108786, Note_on_c, 9, 42, 0
1, 108794, Note_on_c, 9, 40, 0
1, 108858, Note_on_c, 5, 62, 0
1, 108864, Note_on_c, 1, 48, 86
1, 108864, Note_on_c, 5, 67, 80
1, 108864, Note_on_c, 9, 46, 107
1, 108864, Note_on_c, 9, 70, 63
1, 108866, Control_c, 5, 10, 120
1, 108882, Note_on_c, 9, 70, 0
1, 108882, Note_on_c, 9, 46, 0
1, 108902, Note_on_c, 6, 67, 0
1, 108954, Note_on_c, 5, 67, 0
1, 108958, Note_on_c, 1, 48, 0
1, 108960, Note_on_c, 5, 62, 80
1, 108962, Control_c, 5, 10, 124
1, 109050, Note_on_c, 5, 62, 0
1, 109056, Note_on_c, 1, 29, 60
1, 109056, Note_on_c, 2, 77, 41
1, 109056, Note_on_c, 5, 53, 59
1, 109056, Note_on_c, 6, 65, 119
1, 109056, Note_on_c, 9, 27, 127
1, 109056, Note_on_c, 9, 45, 107
1, 109056, Note_on_c, 9, 36, 127
1, 109056, Note_on_c, 9, 42, 66
1, 109056, Note_on_c, 9, 70, 92
1, 109058, Note_on_c, 2, 48, 0
1, 109058, Note_on_c, 2, 60, 0
1, 109058, Note_on_c, 2, 55, 0
1, 109058, Note_on_c, 2, 64, 0
1, 109058, Control_c, 5, 10, 127
1, 109058, Control_c, 5, 11, 127
1, 109064, Note_on_c, 2, 41, 61
1, 109064, Note_on_c, 2, 60, 61
1, 109064, Note_on_c, 2, 65, 61
1, 109064, Note_on_c, 2, 69, 61
1, 109074, Note_on_c, 9, 27, 0
1, 109074, Note_on_c, 9, 36, 0
1, 109074, Note_on_c, 9, 45, 0
1, 109074, Note_on_c, 9, 42, 0
1, 109074, Note_on_c, 9, 70, 0
1, 109143, Note_on_c, 1, 29, 0
1, 109146, Note_on_c, 5, 53, 0
1, 109152, Note_on_c, 5, 60, 74
1, 109152, Note_on_c, 9, 42, 75
1, 109154, Control_c, 5, 10, 124
1, 109170, Note_on_c, 9, 42, 0
1, 109242, Note_on_c, 5, 60, 0
1, 109248, Note_on_c, 1, 41, 92
1, 109248, Note_on_c, 5, 65, 64
1, 109248, Note_on_c, 9, 46, 107
1, 109250, Control_c, 5, 10, 120
1, 109266, Note_on_c, 9, 46, 0
1, 109286, Note_on_c, 6, 65, 0
1, 109338, Note_on_c, 1, 41, 0
1, 109344, Note_on_c, 5, 72, 64
1, 109344, Note_on_c, 9, 70, 40
1, 109346, Control_c, 5, 10, 116
1, 109362, Note_on_c, 9, 70, 0
1, 109363, Note_on_c, 5, 65, 0
1, 109434, Note_on_c, 5, 72, 0
1, 109440, Note_on_c, 1, 29, 66
1, 109440, Note_on_c, 5, 77, 92
1, 109440, Note_on_c, 6, 65, 95
1, 109440, Note_on_c, 9, 27, 127
1, 109440, Note_on_c, 9, 38, 127
1, 109440, Note_on_c, 9, 45, 107
1, 109440, Note_on_c, 9, 36, 127
1, 109440, Note_on_c, 9, 42, 66
1, 109440, Note_on_c, 9, 70, 86
1, 109442, Control_c, 5, 10, 112
1, 109458, Note_on_c, 9, 70, 0
1, 109458, Note_on_c, 9, 45, 0
1, 109458, Note_on_c, 9, 27, 0
1, 109458, Note_on_c, 9, 42, 0
1, 109458, Note_on_c, 9, 38, 0
1, 109458, Note_on_c, 9, 36, 0
1, 109530, Note_on_c, 5, 77, 0
1, 109530, Note_on_c, 1, 29, 0
1, 109536, Note_on_c, 5, 72, 64
1, 109536, Note_on_c, 9, 42, 75
1, 109538, Control_c, 5, 10, 108
1, 109554, Note_on_c, 9, 42, 0
1, 109626, Note_on_c, 5, 72, 0
1, 109632, Note_on_c, 1, 41, 92
1, 109632, Note_on_c, 5, 65, 64
1, 109632, Note_on_c, 9, 46, 92
1, 109632, Note_on_c, 9, 70, 80
1, 109634, Control_c, 5, 10, 104
1, 109650, Note_on_c, 9, 70, 0
1, 109650, Note_on_c, 9, 46, 0
1, 109670, Note_on_c, 6, 65, 0
1, 109722, Note_on_c, 1, 41, 0
1, 109728, Note_on_c, 5, 60, 74
1, 109730, Control_c, 5, 10, 100
1, 109747, Note_on_c, 5, 65, 0
1, 109818, Note_on_c, 5, 60, 0
1, 109824, Note_on_c, 1, 29, 66
1, 109824, Note_on_c, 5, 53, 59
1, 109824, Note_on_c, 6, 65, 89
1, 109824, Note_on_c, 9, 27, 127
1, 109824, Note_on_c, 9, 45, 107
1, 109824, Note_on_c, 9, 36, 127
1, 109824, Note_on_c, 9, 42, 66
1, 109824, Note_on_c, 9, 70, 92
1, 109826, Control_c, 5, 10, 96
1, 109842, Note_on_c, 9, 70, 0
1, 109842, Note_on_c, 9, 27, 0
1, 109842, Note_on_c, 9, 42, 0
1, 109842, Note_on_c, 9, 45, 0
1, 109842, Note_on_c, 9, 36, 0
1, 109914, Note_on_c, 5, 53, 0
1, 109914, Note_on_c, 1, 29, 0
1, 109920, Note_on_c, 5, 60, 74
1, 109920, Note_on_c, 9, 42, 75
1, 109922, Control_c, 5, 10, 92
1, 109938, Note_on_c, 9, 42, 0
1, 110010, Note_on_c, 5, 60, 0
1, 110016, Note_on_c, 1, 41, 92
1, 110016, Note_on_c, 5, 65, 64
1, 110016, Note_on_c, 9, 46, 107
1, 110016, Note_on_c, 9, 70, 20
1, 110018, Control_c, 5, 10, 88
1, 110034, Note_on_c, 9, 70, 0
1, 110034, Note_on_c, 9, 46, 0
1, 110054, Note_on_c, 6, 65, 0
1, 110106, Note_on_c, 1, 41, 0
1, 110112, Note_on_c, 5, 72, 64
1, 110112, Note_on_c, 9, 70, 49
1, 110114, Control_c, 5, 10, 84
1, 110130, Note_on_c, 9, 70, 0
1, 110131, Note_on_c, 5, 65, 0
1, 110202, Note_on_c, 5, 72, 0
1, 110208, Note_on_c, 1, 29, 66
1, 110208, Note_on_c, 5, 77, 92
1, 110208, Note_on_c, 6, 65, 83
1, 110208, Note_on_c, 9, 27, 127
1, 110208, Note_on_c, 9, 38, 127
1, 110208, Note_on_c, 9, 45, 107
1, 110208, Note_on_c, 9, 36, 127
1, 110208, Note_on_c, 9, 42, 66
1, 110208, Note_on_c, 9, 70, 76
1, 110210, Control_c, 5, 10, 80
1, 110226, Note_on_c, 9, 70, 0
1, 110226, Note_on_c, 9, 45, 0
1, 110226, Note_on_c, 9, 27, 0
1, 110226, Note_on_c, 9, 42, 0
1, 110226, Note_on_c, 9, 38, 0
1, 110226, Note_on_c, 9, 36, 0
1, 110298, Note_on_c, 5, 77, 0
1, 110298, Note_on_c, 1, 29, 0
1, 110304, Note_on_c, 5, 72, 64
1, 110304, Note_on_c, 9, 42, 75
1, 110306, Control_c, 5, 10, 76
1, 110322, Note_on_c, 9, 42, 0
1, 110394, Note_on_c, 5, 72, 0
1, 110400, Note_on_c, 1, 41, 89
1, 110400, Note_on_c, 5, 65, 64
1, 110400, Note_on_c, 9, 46, 107
1, 110400, Note_on_c, 9, 70, 66
1, 110402, Control_c, 5, 10, 72
1, 110418, Note_on_c, 9, 70, 0
1, 110418, Note_on_c, 9, 46, 0
1, 110438, Note_on_c, 6, 65, 0
1, 110494, Note_on_c, 1, 41, 0
1, 110496, Note_on_c, 5, 60, 74
1, 110498, Note_on_c, 2, 41, 0
1, 110498, Control_c, 5, 10, 68
1, 110515, Note_on_c, 5, 65, 0
1, 110586, Note_on_c, 5, 60, 0
1, 110592, Note_on_c, 1, 29, 60
1, 110592, Note_on_c, 5, 53, 59
1, 110592, Note_on_c, 9, 27, 127
1, 110592, Note_on_c, 9, 45, 107
1, 110592, Note_on_c, 9, 36, 127
1, 110592, Note_on_c, 9, 42, 66
1, 110592, Note_on_c, 9, 70, 92
1, 110594, Control_c, 5, 10, 64
1, 110594, Control_c, 5, 11, 125
1, 110594, Pitch_bend_c, 6, 8192
1, 110610, Note_on_c, 9, 70, 0
1, 110610, Note_on_c, 9, 36, 0
1, 110610, Note_on_c, 9, 45, 0
1, 110610, Note_on_c, 9, 27, 0
1, 110610, Note_on_c, 9, 42, 0
1, 110679, Note_on_c, 1, 29, 0
1, 110682, Note_on_c, 5, 53, 0
1, 110688, Note_on_c, 5, 60, 74
1, 110688, Note_on_c, 9, 42, 75
1, 110690, Control_c, 5, 10, 60
1, 110690, Control_c, 5, 11, 120
1, 110706, Note_on_c, 9, 42, 0
1, 110778, Note_on_c, 5, 60, 0
1, 110784, Note_on_c, 1, 41, 92
1, 110784, Note_on_c, 5, 65, 64
1, 110784, Note_on_c, 9, 46, 107
1, 110786, Control_c, 5, 10, 56
1, 110786, Control_c, 5, 11, 116
1, 110802, Note_on_c, 9, 46, 0
1, 110874, Note_on_c, 1, 41, 0
1, 110880, Note_on_c, 5, 72, 64
1, 110880, Note_on_c, 9, 70, 44
1, 110882, Control_c, 5, 10, 52
1, 110882, Control_c, 5, 11, 111
1, 110898, Note_on_c, 9, 70, 0
1, 110899, Note_on_c, 5, 65, 0
1, 110970, Note_on_c, 5, 72, 0
1, 110976, Note_on_c, 1, 29, 66
1, 110976, Note_on_c, 5, 77, 92
1, 110976, Note_on_c, 9, 27, 127
1, 110976, Note_on_c, 9, 38, 127
1, 110976, Note_on_c, 9, 45, 107
1, 110976, Note_on_c, 9, 36, 127
1, 110976, Note_on_c, 9, 42, 66
1, 110976, Note_on_c, 9, 70, 92
1, 110978, Control_c, 5, 10, 48
1, 110978, Control_c, 5, 11, 107
1, 110994, Note_on_c, 9, 70, 0
1, 110994, Note_on_c, 9, 45, 0
1, 110994, Note_on_c, 9, 38, 0
1, 110994, Note_on_c, 9, 27, 0
1, 110994, Note_on_c, 9, 42, 0
1, 110994, Note_on_c, 9, 36, 0
1, 111066, Note_on_c, 5, 77, 0
1, 111066, Note_on_c, 1, 29, 0
1, 111072, Note_on_c, 5, 72, 64
1, 111072, Note_on_c, 9, 42, 75
1, 111074, Control_c, 5, 10, 44
1, 111074, Control_c, 5, 11, 102
1, 111090, Note_on_c, 9, 42, 0
1, 111162, Note_on_c, 5, 72, 0
1, 111168, Note_on_c, 1, 41, 92
1, 111168, Note_on_c, 5, 65, 64
1, 111168, Note_on_c, 9, 46, 107
1, 111168, Note_on_c, 9, 70, 80
1, 111170, Control_c, 5, 10, 40
1, 111170, Control_c, 5, 11, 98
1, 111186, Note_on_c, 9, 70, 0
1, 111186, Note_on_c, 9, 46, 0
1, 111258, Note_on_c, 1, 41, 0
1, 111264, Note_on_c, 5, 60, 74
1, 111264, Note_on_c, 9, 27, 127
1, 111264, Note_on_c, 9, 45, 107
1, 111264, Note_on_c, 9, 36, 127
1, 111266, Control_c, 3, 11, 88
1, 111266, Control_c, 5, 10, 36
1, 111266, Control_c, 5, 11, 93
1, 111282, Note_on_c, 9, 36, 0
1, 111282, Note_on_c, 9, 45, 0
1, 111282, Note_on_c, 9, 27, 0
1, 111283, Note_on_c, 5, 65, 0
1, 111354, Note_on_c, 5, 60, 0
1, 111360, Note_on_c, 1, 29, 66
1, 111360, Note_on_c, 3, 65, 122
1, 111360, Note_on_c, 5, 53, 59
1, 111360, Note_on_c, 9, 27, 127
1, 111360, Note_on_c, 9, 45, 107
1, 111360, Note_on_c, 9, 36, 127
1, 111360, Note_on_c, 9, 42, 66
1, 111360, Note_on_c, 9, 70, 86
1, 111362, Control_c, 5, 10, 32
1, 111362, Control_c, 5, 11, 89
1, 111378, Note_on_c, 9, 70, 0
1, 111378, Note_on_c, 9, 45, 0
1, 111378, Note_on_c, 9, 27, 0
1, 111378, Note_on_c, 9, 42, 0
1, 111378, Note_on_c, 9, 36, 0
1, 111395, Note_on_c, 8, 65, 127
1, 111450, Note_on_c, 1, 29, 0
1, 111450, Note_on_c, 5, 53, 0
1, 111456, Note_on_c, 5, 60, 74
1, 111456, Note_on_c, 9, 42, 75
1, 111458, Control_c, 5, 10, 28
1, 111458, Control_c, 5, 11, 84
1, 111474, Note_on_c, 9, 42, 0
1, 111546, Note_on_c, 5, 60, 0
1, 111552, Note_on_c, 1, 41, 92
1, 111552, Note_on_c, 5, 65, 64
1, 111552, Note_on_c, 9, 27, 127
1, 111552, Note_on_c, 9, 45, 107
1, 111552, Note_on_c, 9, 36, 127
1, 111552, Note_on_c, 9, 46, 107
1, 111552, Note_on_c, 9, 70, 13
1, 111554, Control_c, 5, 10, 24
1, 111554, Control_c, 5, 11, 80
1, 111570, Note_on_c, 9, 70, 0
1, 111570, Note_on_c, 9, 27, 0
1, 111570, Note_on_c, 9, 46, 0
1, 111570, Note_on_c, 9, 45, 0
1, 111570, Note_on_c, 9, 36, 0
1, 111604, Note_on_c, 3, 65, 0
1, 111639, Note_on_c, 8, 65, 0
1, 111642, Note_on_c, 1, 41, 0
1, 111648, Note_on_c, 5, 72, 64
1, 111648, Note_on_c, 9, 70, 26
1, 111650, Control_c, 5, 10, 20
1, 111650, Control_c, 5, 11, 75
1, 111666, Note_on_c, 9, 70, 0
1, 111667, Note_on_c, 5, 65, 0
1, 111738, Note_on_c, 5, 72, 0
1, 111744, Note_on_c, 1, 29, 66
1, 111744, Note_on_c, 3, 69, 122
1, 111744, Note_on_c, 5, 77, 92
1, 111744, Note_on_c, 9, 27, 127
1, 111744, Note_on_c, 9, 38, 127
1, 111744, Note_on_c, 9, 45, 107
1, 111744, Note_on_c, 9, 36, 127
1, 111744, Note_on_c, 9, 42, 66
1, 111744, Note_on_c, 9, 70, 92
1, 111746, Control_c, 5, 10, 16
1, 111746, Control_c, 5, 11, 71
1, 111762, Note_on_c, 9, 70, 0
1, 111762, Note_on_c, 9, 38, 0
1, 111762, Note_on_c, 9, 27, 0
1, 111762, Note_on_c, 9, 42, 0
1, 111762, Note_on_c, 9, 45, 0
1, 111762, Note_on_c, 9, 36, 0
1, 111780, Note_on_c, 8, 69, 127
1, 111834, Note_on_c, 1, 29, 0
1, 111834, Note_on_c, 5, 77, 0
1, 111840, Note_on_c, 5, 72, 64
1, 111840, Note_on_c, 9, 42, 75
1, 111842, Control_c, 5, 10, 12
1, 111842, Control_c, 5, 11, 66
1, 111858, Note_on_c, 9, 42, 0
1, 111930, Note_on_c, 5, 72, 0
1, 111936, Note_on_c, 1, 41, 89
1, 111936, Note_on_c, 5, 65, 64
1, 111936, Note_on_c, 9, 27, 127
1, 111936, Note_on_c, 9, 45, 107
1, 111936, Note_on_c, 9, 36, 127
1, 111936, Note_on_c, 9, 46, 107
1, 111936, Note_on_c, 9, 70, 63
1, 111938, Control_c, 5, 10, 8
1, 111938, Control_c, 5, 11, 62
1, 111954, Note_on_c, 9, 70, 0
1, 111954, Note_on_c, 9, 27, 0
1, 111954, Note_on_c, 9, 46, 0
1, 111954, Note_on_c, 9, 45, 0
1, 111954, Note_on_c, 9, 36, 0
1, 111975, Note_on_c, 3, 69, 0
1, 112011, Note_on_c, 8, 69, 0
1, 112030, Note_on_c, 1, 41, 0
1, 112032, Note_on_c, 5, 60, 74
1, 112032, Note_on_c, 9, 27, 127
1, 112032, Note_on_c, 9, 45, 107
1, 112032, Note_on_c, 9, 36, 127
1, 112034, Control_c, 5, 10, 4
1, 112034, Control_c, 5, 11, 58
1, 112050, Note_on_c, 9, 36, 0
1, 112050, Note_on_c, 9, 45, 0
1, 112050, Note_on_c, 9, 27, 0
1, 112051, Note_on_c, 5, 65, 0
1, 112114, Note_on_c, 2, 77, 0
1, 112122, Note_on_c, 2, 65, 0
1, 112122, Note_on_c, 2, 60, 0
1, 112122, Note_on_c, 2, 69, 0
1, 112122, Note_on_c, 5, 60, 0
1, 112128, Note_on_c, 3, 69, 122
1, 112128, Note_on_c, 9, 27, 127
1, 112128, Note_on_c, 9, 45, 107
1, 112128, Note_on_c, 9, 36, 127
1, 112130, Control_c, 1, 11, 102
1, 112130, Pitch_bend_c, 1, 9190
1, 112130, Pitch_bend_c, 5, 8192
1, 112130, Control_c, 11, 11, 92
1, 112130, Pitch_bend_c, 11, 7592
1, 112146, Note_on_c, 9, 36, 0
1, 112146, Note_on_c, 9, 27, 0
1, 112146, Note_on_c, 9, 45, 0
1, 112163, Note_on_c, 8, 69, 127
1, 112226, Control_c, 1, 93, 127
1, 112320, Note_on_c, 1, 53, 92
1, 112320, Note_on_c, 1, 65, 92
1, 112320, Note_on_c, 11, 53, 92
1, 112320, Note_on_c, 11, 65, 92
1, 112330, Note_on_c, 3, 69, 0
1, 112365, Note_on_c, 8, 69, 0
1, 112410, Note_on_c, 11, 53, 0
1, 112410, Note_on_c, 1, 53, 0
1, 112410, Note_on_c, 1, 65, 0
1, 112410, Note_on_c, 11, 65, 0
1, 112704, Note_on_c, 1, 53, 92
1, 112704, Note_on_c, 1, 65, 92
1, 112704, Note_on_c, 11, 53, 92
1, 112704, Note_on_c, 11, 65, 92
1, 112794, Note_on_c, 11, 65, 0
1, 112794, Note_on_c, 1, 65, 0
1, 112794, Note_on_c, 11, 53, 0
1, 112794, Note_on_c, 1, 53, 0
1, 113088, Note_on_c, 1, 53, 92
1, 113088, Note_on_c, 1, 65, 92
1, 113088, Note_on_c, 11, 53, 92
1, 113088, Note_on_c, 11, 65, 92
1, 113178, Note_on_c, 11, 65, 0
1, 113178, Note_on_c, 1, 65, 0
1, 113178, Note_on_c, 11, 53, 0
1, 113178, Note_on_c, 1, 53, 0
1, 113472, Note_on_c, 1, 53, 89
1, 113472, Note_on_c, 1, 65, 89
1, 113472, Note_on_c, 11, 53, 89
1, 113472, Note_on_c, 11, 65, 89
1, 113566, Note_on_c, 11, 65, 0
1, 113566, Note_on_c, 1, 65, 0
1, 113566, Note_on_c, 11, 53, 0
1, 113566, Note_on_c, 1, 53, 0
1, 113667, Pitch_bend_c, 5, 8192
1, 113856, Note_on_c, 1, 53, 92
1, 113856, Note_on_c, 1, 65, 92
1, 113856, Note_on_c, 11, 53, 92
1, 113856, Note_on_c, 11, 65, 92
1, 113946, Note_on_c, 11, 65, 0
1, 113946, Note_on_c, 1, 65, 0
1, 113946, Note_on_c, 11, 53, 0
1, 113946, Note_on_c, 1, 53, 0
1, 114240, Note_on_c, 1, 53, 92
1, 114240, Note_on_c, 1, 65, 92
1, 114240, Note_on_c, 11, 53, 92
1, 114240, Note_on_c, 11, 65, 92
1, 114330, Note_on_c, 11, 65, 0
1, 114330, Note_on_c, 1, 65, 0
1, 114330, Note_on_c, 11, 53, 0
1, 114330, Note_on_c, 1, 53, 0
1, 114624, Note_on_c, 1, 53, 92
1, 114624, Note_on_c, 1, 65, 92
1, 114624, Note_on_c, 9, 27, 127
1, 114624, Note_on_c, 9, 36, 127
1, 114624, Note_on_c, 9, 45, 107
1, 114624, Note_on_c, 9, 55, 127
1, 114624, Note_on_c, 11, 53, 92
1, 114624, Note_on_c, 11, 65, 92
1, 114642, Note_on_c, 9, 55, 0
1, 114642, Note_on_c, 9, 27, 0
1, 114642, Note_on_c, 9, 45, 0
1, 114642, Note_on_c, 9, 36, 0
1, 114714, Note_on_c, 11, 53, 0
1, 114714, Note_on_c, 1, 65, 0
1, 114714, Note_on_c, 11, 65, 0
1, 114714, Note_on_c, 1, 53, 0
1, 114816, Note_on_c, 1, 51, 89
1, 114816, Note_on_c, 1, 63, 89
1, 114816, Note_on_c, 9, 27, 127
1, 114816, Note_on_c, 9, 45, 107
1, 114816, Note_on_c, 9, 36, 127
1, 114816, Note_on_c, 9, 49, 127
1, 114816, Note_on_c, 11, 51, 89
1, 114816, Note_on_c, 11, 63, 89
1, 114834, Note_on_c, 9, 49, 0
1, 114834, Note_on_c, 9, 27, 0
1, 114834, Note_on_c, 9, 36, 0
1, 114834, Note_on_c, 9, 45, 0
1, 114910, Note_on_c, 11, 51, 0
1, 114910, Note_on_c, 1, 63, 0
1, 114910, Note_on_c, 11, 63, 0
1, 114910, Note_on_c, 1, 51, 0
1, 115008, Note_on_c, 1, 53, 89
1, 115008, Note_on_c, 1, 65, 89
1, 115008, Note_on_c, 9, 27, 127
1, 115008, Note_on_c, 9, 36, 127
1, 115008, Note_on_c, 9, 45, 107
1, 115008, Note_on_c, 9, 55, 127
1, 115008, Note_on_c, 11, 53, 89
1, 115008, Note_on_c, 11, 65, 89
1, 115026, Note_on_c, 9, 55, 0
1, 115026, Note_on_c, 9, 27, 0
1, 115026, Note_on_c, 9, 45, 0
1, 115026, Note_on_c, 9, 36, 0
1, 115102, Note_on_c, 11, 53, 0
1, 115102, Note_on_c, 1, 65, 0
1, 115102, Note_on_c, 11, 65, 0
1, 115102, Note_on_c, 1, 53, 0
1, 115200, Note_on_c, 1, 53, 89
1, 115200, Note_on_c, 1, 65, 89
1, 115200, Note_on_c, 9, 27, 127
1, 115200, Note_on_c, 9, 45, 107
1, 115200, Note_on_c, 9, 36, 127
1, 115200, Note_on_c, 9, 57, 117
1, 115200, Note_on_c, 11, 53, 89
1, 115200, Note_on_c, 11, 65, 89
1, 115202, Pitch_bend_c, 5, 8192
1, 115218, Note_on_c, 9, 57, 0
1, 115218, Note_on_c, 9, 27, 0
1, 115218, Note_on_c, 9, 36, 0
1, 115218, Note_on_c, 9, 45, 0
1, 115294, Note_on_c, 11, 53, 0
1, 115294, Note_on_c, 1, 65, 0
1, 115294, Note_on_c, 11, 65, 0
1, 115294, Note_on_c, 1, 53, 0
1, 115392, Note_on_c, 1, 44, 92
1, 115392, Note_on_c, 1, 56, 92
1, 115392, Note_on_c, 11, 44, 92
1, 115392, Note_on_c, 11, 56, 92
1, 115482, Note_on_c, 11, 56, 0
1, 115482, Note_on_c, 1, 56, 0
1, 115482, Note_on_c, 11, 44, 0
1, 115482, Note_on_c, 1, 44, 0
1, 115776, Note_on_c, 1, 44, 92
1, 115776, Note_on_c, 1, 56, 92
1, 115776, Note_on_c, 11, 44, 92
1, 115776, Note_on_c, 11, 56, 92
1, 115866, Note_on_c, 11, 56, 0
1, 115866, Note_on_c, 1, 56, 0
1, 115866, Note_on_c, 11, 44, 0
1, 115866, Note_on_c, 1, 44, 0
1, 116160, Note_on_c, 1, 44, 92
1, 116160, Note_on_c, 1, 56, 92
1, 116160, Note_on_c, 11, 44, 92
1, 116160, Note_on_c, 11, 56, 92
1, 116250, Note_on_c, 11, 56, 0
1, 116250, Note_on_c, 1, 56, 0
1, 116250, Note_on_c, 11, 44, 0
1, 116250, Note_on_c, 1, 44, 0
1, 116544, Note_on_c, 1, 44, 89
1, 116544, Note_on_c, 1, 56, 89
1, 116544, Note_on_c, 11, 44, 89
1, 116544, Note_on_c, 11, 56, 89
1, 116638, Note_on_c, 11, 56, 0
1, 116638, Note_on_c, 1, 56, 0
1, 116638, Note_on_c, 11, 44, 0
1, 116638, Note_on_c, 1, 44, 0
1, 116736, Note_on_c, 1, 44, 89
1, 116736, Note_on_c, 1, 56, 89
1, 116736, Note_on_c, 11, 44, 89
1, 116736, Note_on_c, 11, 56, 89
1, 116830, Note_on_c, 11, 56, 0
1, 116830, Note_on_c, 1, 56, 0
1, 116830, Note_on_c, 11, 44, 0
1, 116830, Note_on_c, 1, 44, 0
1, 116928, Note_on_c, 1, 46, 92
1, 116928, Note_on_c, 1, 58, 92
1, 116928, Note_on_c, 11, 46, 92
1, 116928, Note_on_c, 11, 58, 92
1, 117018, Note_on_c, 11, 58, 0
1, 117018, Note_on_c, 1, 58, 0
1, 117018, Note_on_c, 11, 46, 0
1, 117018, Note_on_c, 1, 46, 0
1, 117312, Note_on_c, 1, 46, 92
1, 117312, Note_on_c, 1, 58, 92
1, 117312, Note_on_c, 11, 46, 92
1, 117312, Note_on_c, 11, 58, 92
1, 117314, Control_c, 3, 11, 93
1, 117314, Control_c, 8, 11, 127
1, 117402, Note_on_c, 11, 58, 0
1, 117402, Note_on_c, 1, 58, 0
1, 117402, Note_on_c, 11, 46, 0
1, 117402, Note_on_c, 1, 46, 0
1, 117504, Note_on_c, 3, 65, 122
1, 117539, Note_on_c, 8, 65, 127
1, 117696, Note_on_c, 1, 46, 92
1, 117696, Note_on_c, 1, 58, 92
1, 117696, Note_on_c, 11, 46, 92
1, 117696, Note_on_c, 11, 58, 92
1, 117748, Note_on_c, 3, 65, 0
1, 117783, Note_on_c, 8, 65, 0
1, 117786, Note_on_c, 11, 46, 0
1, 117786, Note_on_c, 1, 46, 0
1, 117786, Note_on_c, 1, 58, 0
1, 117786, Note_on_c, 11, 58, 0
1, 117888, Note_on_c, 3, 69, 122
1, 117924, Note_on_c, 8, 69, 127
1, 118080, Note_on_c, 1, 46, 89
1, 118080, Note_on_c, 1, 58, 89
1, 118080, Note_on_c, 11, 46, 89
1, 118080, Note_on_c, 11, 58, 89
1, 118119, Note_on_c, 3, 69, 0
1, 118155, Note_on_c, 8, 69, 0
1, 118174, Note_on_c, 11, 46, 0
1, 118174, Note_on_c, 1, 46, 0
1, 118174, Note_on_c, 1, 58, 0
1, 118174, Note_on_c, 11, 58, 0
1, 118272, Note_on_c, 1, 29, 74
1, 118272, Note_on_c, 3, 69, 122
1, 118272, Note_on_c, 9, 27, 127
1, 118272, Note_on_c, 9, 36, 127
1, 118272, Note_on_c, 9, 45, 107
1, 118272, Note_on_c, 9, 42, 66
1, 118272, Note_on_c, 9, 70, 92
1, 118272, Note_on_c, 11, 29, 74
1, 118290, Note_on_c, 9, 70, 0
1, 118290, Note_on_c, 9, 42, 0
1, 118290, Note_on_c, 9, 27, 0
1, 118290, Note_on_c, 9, 36, 0
1, 118290, Note_on_c, 9, 45, 0
1, 118307, Note_on_c, 8, 69, 127
1, 118368, Note_on_c, 9, 42, 75
1, 118386, Note_on_c, 9, 42, 0
1, 118431, Note_on_c, 11, 29, 0
1, 118431, Note_on_c, 1, 29, 0
1, 118464, Note_on_c, 1, 41, 100
1, 118464, Note_on_c, 1, 65, 92
1, 118464, Note_on_c, 9, 46, 107
1, 118464, Note_on_c, 11, 41, 100
1, 118464, Note_on_c, 11, 65, 92
1, 118474, Note_on_c, 3, 69, 0
1, 118482, Note_on_c, 9, 46, 0
1, 118509, Note_on_c, 8, 69, 0
1, 118554, Note_on_c, 11, 65, 0
1, 118554, Note_on_c, 1, 41, 0
1, 118554, Note_on_c, 1, 65, 0
1, 118554, Note_on_c, 11, 41, 0
1, 118560, Note_on_c, 9, 70, 40
1, 118578, Note_on_c, 9, 70, 0
1, 118656, Note_on_c, 1, 29, 74
1, 118656, Note_on_c, 9, 27, 127
1, 118656, Note_on_c, 9, 36, 127
1, 118656, Note_on_c, 9, 45, 107
1, 118656, Note_on_c, 9, 42, 66
1, 118656, Note_on_c, 9, 70, 86
1, 118656, Note_on_c, 11, 29, 74
1, 118674, Note_on_c, 9, 70, 0
1, 118674, Note_on_c, 9, 36, 0
1, 118674, Note_on_c, 9, 45, 0
1, 118674, Note_on_c, 9, 27, 0
1, 118674, Note_on_c, 9, 42, 0
1, 118752, Note_on_c, 9, 42, 75
1, 118770, Note_on_c, 9, 42, 0
1, 118848, Note_on_c, 1, 41, 110
1, 118848, Note_on_c, 1, 65, 92
1, 118848, Note_on_c, 9, 46, 92
1, 118848, Note_on_c, 9, 70, 80
1, 118848, Note_on_c, 11, 41, 110
1, 118848, Note_on_c, 11, 65, 92
1, 118854, Note_on_c, 1, 29, 0
1, 118854, Note_on_c, 11, 29, 0
1, 118866, Note_on_c, 9, 70, 0
1, 118866, Note_on_c, 9, 46, 0
1, 118938, Note_on_c, 11, 41, 0
1, 118938, Note_on_c, 1, 65, 0
1, 118938, Note_on_c, 11, 65, 0
1, 118938, Note_on_c, 1, 41, 0
1, 119040, Note_on_c, 1, 29, 71
1, 119040, Note_on_c, 9, 27, 127
1, 119040, Note_on_c, 9, 36, 127
1, 119040, Note_on_c, 9, 45, 107
1, 119040, Note_on_c, 9, 42, 66
1, 119040, Note_on_c, 9, 70, 92
1, 119040, Note_on_c, 11, 29, 71
1, 119058, Note_on_c, 9, 70, 0
1, 119058, Note_on_c, 9, 36, 0
1, 119058, Note_on_c, 9, 45, 0
1, 119058, Note_on_c, 9, 27, 0
1, 119058, Note_on_c, 9, 42, 0
1, 119136, Note_on_c, 9, 42, 75
1, 119154, Note_on_c, 9, 42, 0
1, 119232, Note_on_c, 1, 41, 102
1, 119232, Note_on_c, 1, 65, 92
1, 119232, Note_on_c, 9, 46, 107
1, 119232, Note_on_c, 9, 70, 20
1, 119232, Note_on_c, 11, 41, 102
1, 119232, Note_on_c, 11, 65, 92
1, 119240, Note_on_c, 1, 29, 0
1, 119240, Note_on_c, 11, 29, 0
1, 119250, Note_on_c, 9, 70, 0
1, 119250, Note_on_c, 9, 46, 0
1, 119322, Note_on_c, 11, 41, 0
1, 119322, Note_on_c, 1, 65, 0
1, 119322, Note_on_c, 11, 65, 0
1, 119322, Note_on_c, 1, 41, 0
1, 119328, Note_on_c, 9, 70, 49
1, 119346, Note_on_c, 9, 70, 0
1, 119424, Note_on_c, 1, 29, 74
1, 119424, Note_on_c, 9, 27, 127
1, 119424, Note_on_c, 9, 36, 127
1, 119424, Note_on_c, 9, 45, 107
1, 119424, Note_on_c, 9, 42, 66
1, 119424, Note_on_c, 9, 70, 76
1, 119424, Note_on_c, 11, 29, 74
1, 119442, Note_on_c, 9, 70, 0
1, 119442, Note_on_c, 9, 36, 0
1, 119442, Note_on_c, 9, 45, 0
1, 119442, Note_on_c, 9, 27, 0
1, 119442, Note_on_c, 9, 42, 0
1, 119520, Note_on_c, 9, 42, 75
1, 119538, Note_on_c, 9, 42, 0
1, 119616, Note_on_c, 1, 41, 83
1, 119616, Note_on_c, 1, 65, 89
1, 119616, Note_on_c, 9, 46, 107
1, 119616, Note_on_c, 9, 70, 66
1, 119616, Note_on_c, 11, 41, 83
1, 119616, Note_on_c, 11, 65, 89
1, 119625, Note_on_c, 1, 29, 0
1, 119625, Note_on_c, 11, 29, 0
1, 119634, Note_on_c, 9, 70, 0
1, 119634, Note_on_c, 9, 46, 0
1, 119706, Note_on_c, 11, 41, 0
1, 119706, Note_on_c, 1, 41, 0
1, 119710, Note_on_c, 1, 65, 0
1, 119710, Note_on_c, 11, 65, 0
1, 119808, Note_on_c, 1, 29, 68
1, 119808, Note_on_c, 9, 27, 127
1, 119808, Note_on_c, 9, 36, 127
1, 119808, Note_on_c, 9, 45, 107
1, 119808, Note_on_c, 9, 42, 66
1, 119808, Note_on_c, 9, 70, 92
1, 119808, Note_on_c, 11, 29, 68
1, 119826, Note_on_c, 9, 70, 0
1, 119826, Note_on_c, 9, 36, 0
1, 119826, Note_on_c, 9, 45, 0
1, 119826, Note_on_c, 9, 27, 0
1, 119826, Note_on_c, 9, 42, 0
1, 119904, Note_on_c, 9, 42, 75
1, 119922, Note_on_c, 9, 42, 0
1, 120000, Note_on_c, 1, 41, 94
1, 120000, Note_on_c, 1, 65, 92
1, 120000, Note_on_c, 9, 46, 107
1, 120000, Note_on_c, 11, 41, 94
1, 120000, Note_on_c, 11, 65, 92
1, 120018, Note_on_c, 9, 46, 0
1, 120023, Note_on_c, 11, 29, 0
1, 120023, Note_on_c, 1, 29, 0
1, 120090, Note_on_c, 1, 41, 0
1, 120090, Note_on_c, 1, 65, 0
1, 120090, Note_on_c, 11, 65, 0
1, 120090, Note_on_c, 11, 41, 0
1, 120096, Note_on_c, 9, 70, 44
1, 120114, Note_on_c, 9, 70, 0
1, 120192, Note_on_c, 1, 29, 71
1, 120192, Note_on_c, 9, 27, 127
1, 120192, Note_on_c, 9, 36, 127
1, 120192, Note_on_c, 9, 45, 107
1, 120192, Note_on_c, 9, 42, 66
1, 120192, Note_on_c, 9, 70, 92
1, 120192, Note_on_c, 11, 29, 71
1, 120210, Note_on_c, 9, 70, 0
1, 120210, Note_on_c, 9, 36, 0
1, 120210, Note_on_c, 9, 45, 0
1, 120210, Note_on_c, 9, 27, 0
1, 120210, Note_on_c, 9, 42, 0
1, 120288, Note_on_c, 9, 42, 75
1, 120306, Note_on_c, 9, 42, 0
1, 120384, Note_on_c, 1, 41, 85
1, 120384, Note_on_c, 1, 65, 92
1, 120384, Note_on_c, 9, 46, 107
1, 120384, Note_on_c, 9, 70, 80
1, 120384, Note_on_c, 11, 41, 85
1, 120384, Note_on_c, 11, 65, 92
1, 120392, Note_on_c, 1, 29, 0
1, 120392, Note_on_c, 11, 29, 0
1, 120402, Note_on_c, 9, 70, 0
1, 120402, Note_on_c, 9, 46, 0
1, 120474, Note_on_c, 11, 41, 0
1, 120474, Note_on_c, 1, 65, 0
1, 120474, Note_on_c, 11, 65, 0
1, 120474, Note_on_c, 1, 41, 0
1, 120576, Note_on_c, 1, 29, 71
1, 120576, Note_on_c, 9, 27, 127
1, 120576, Note_on_c, 9, 36, 127
1, 120576, Note_on_c, 9, 45, 107
1, 120576, Note_on_c, 9, 42, 66
1, 120576, Note_on_c, 9, 70, 86
1, 120576, Note_on_c, 11, 29, 71
1, 120594, Note_on_c, 9, 70, 0
1, 120594, Note_on_c, 9, 36, 0
1, 120594, Note_on_c, 9, 45, 0
1, 120594, Note_on_c, 9, 27, 0
1, 120594, Note_on_c, 9, 42, 0
1, 120672, Note_on_c, 9, 42, 75
1, 120690, Note_on_c, 9, 42, 0
1, 120768, Note_on_c, 1, 41, 87
1, 120768, Note_on_c, 1, 65, 92
1, 120768, Note_on_c, 9, 46, 107
1, 120768, Note_on_c, 9, 70, 13
1, 120768, Note_on_c, 11, 41, 87
1, 120768, Note_on_c, 11, 65, 92
1, 120776, Note_on_c, 1, 29, 0
1, 120776, Note_on_c, 11, 29, 0
1, 120786, Note_on_c, 9, 70, 0
1, 120786, Note_on_c, 9, 46, 0
1, 120858, Note_on_c, 11, 41, 0
1, 120858, Note_on_c, 1, 65, 0
1, 120858, Note_on_c, 11, 65, 0
1, 120858, Note_on_c, 1, 41, 0
1, 120864, Note_on_c, 9, 70, 26
1, 120882, Note_on_c, 9, 70, 0
1, 120960, Note_on_c, 1, 29, 85
1, 120960, Note_on_c, 1, 63, 89
1, 120960, Note_on_c, 9, 27, 127
1, 120960, Note_on_c, 9, 36, 127
1, 120960, Note_on_c, 9, 45, 107
1, 120960, Note_on_c, 9, 42, 66
1, 120960, Note_on_c, 9, 70, 92
1, 120960, Note_on_c, 11, 29, 85
1, 120960, Note_on_c, 11, 63, 89
1, 120978, Note_on_c, 9, 70, 0
1, 120978, Note_on_c, 9, 42, 0
1, 120978, Note_on_c, 9, 27, 0
1, 120978, Note_on_c, 9, 45, 0
1, 120978, Note_on_c, 9, 36, 0
1, 121054, Note_on_c, 1, 63, 0
1, 121054, Note_on_c, 11, 63, 0
1, 121056, Note_on_c, 9, 42, 75
1, 121074, Note_on_c, 9, 42, 0
1, 121142, Note_on_c, 11, 29, 0
1, 121142, Note_on_c, 1, 29, 0
1, 121152, Note_on_c, 1, 41, 85
1, 121152, Note_on_c, 1, 65, 89
1, 121152, Note_on_c, 9, 46, 107
1, 121152, Note_on_c, 9, 70, 63
1, 121152, Note_on_c, 11, 41, 85
1, 121152, Note_on_c, 11, 65, 89
1, 121170, Note_on_c, 9, 70, 0
1, 121170, Note_on_c, 9, 46, 0
1, 121242, Note_on_c, 1, 41, 0
1, 121242, Note_on_c, 11, 41, 0
1, 121246, Note_on_c, 1, 65, 0
1, 121246, Note_on_c, 11, 65, 0
1, 121344, Note_on_c, 1, 32, 71
1, 121344, Note_on_c, 1, 53, 71
1, 121344, Note_on_c, 1, 65, 71
1, 121344, Note_on_c, 9, 27, 127
1, 121344, Note_on_c, 9, 36, 127
1, 121344, Note_on_c, 9, 38, 77
1, 121344, Note_on_c, 9, 45, 107
1, 121344, Note_on_c, 9, 50, 127
1, 121344, Note_on_c, 9, 42, 66
1, 121344, Note_on_c, 9, 70, 92
1, 121344, Note_on_c, 9, 57, 110
1, 121344, Note_on_c, 11, 32, 71
1, 121344, Note_on_c, 11, 53, 71
1, 121344, Note_on_c, 11, 65, 71
1, 121362, Note_on_c, 9, 57, 0
1, 121362, Note_on_c, 9, 42, 0
1, 121362, Note_on_c, 9, 50, 0
1, 121362, Note_on_c, 9, 45, 0
1, 121362, Note_on_c, 9, 38, 0
1, 121362, Note_on_c, 9, 70, 0
1, 121362, Note_on_c, 9, 36, 0
1, 121362, Note_on_c, 9, 27, 0
1, 121438, Note_on_c, 1, 53, 0
1, 121438, Note_on_c, 11, 65, 0
1, 121438, Note_on_c, 1, 65, 0
1, 121438, Note_on_c, 11, 53, 0
1, 121440, Note_on_c, 9, 38, 77
1, 121440, Note_on_c, 9, 50, 127
1, 121440, Note_on_c, 9, 42, 75
1, 121458, Note_on_c, 9, 42, 0
1, 121458, Note_on_c, 9, 50, 0
1, 121458, Note_on_c, 9, 38, 0
1, 121503, Note_on_c, 1, 32, 0
1, 121503, Note_on_c, 11, 32, 0
1, 121536, Note_on_c, 1, 44, 100
1, 121536, Note_on_c, 1, 56, 92
1, 121536, Note_on_c, 9, 38, 77
1, 121536, Note_on_c, 9, 50, 127
1, 121536, Note_on_c, 9, 46, 107
1, 121536, Note_on_c, 11, 44, 100
1, 121536, Note_on_c, 11, 56, 92
1, 121554, Note_on_c, 9, 46, 0
1, 121554, Note_on_c, 9, 50, 0
1, 121554, Note_on_c, 9, 38, 0
1, 121626, Note_on_c, 1, 56, 0
1, 121626, Note_on_c, 1, 44, 0
1, 121626, Note_on_c, 11, 56, 0
1, 121626, Note_on_c, 11, 44, 0
1, 121632, Note_on_c, 9, 38, 77
1, 121632, Note_on_c, 9, 50, 127
1, 121632, Note_on_c, 9, 70, 40
1, 121650, Note_on_c, 9, 70, 0
1, 121650, Note_on_c, 9, 50, 0
1, 121650, Note_on_c, 9, 38, 0
1, 121728, Note_on_c, 1, 32, 77
1, 121728, Note_on_c, 9, 27, 127
1, 121728, Note_on_c, 9, 36, 127
1, 121728, Note_on_c, 9, 38, 77
1, 121728, Note_on_c, 9, 45, 107
1, 121728, Note_on_c, 9, 50, 127
1, 121728, Note_on_c, 9, 42, 66
1, 121728, Note_on_c, 9, 70, 86
1, 121728, Note_on_c, 11, 32, 77
1, 121746, Note_on_c, 9, 70, 0
1, 121746, Note_on_c, 9, 42, 0
1, 121746, Note_on_c, 9, 45, 0
1, 121746, Note_on_c, 9, 36, 0
1, 121746, Note_on_c, 9, 27, 0
1, 121746, Note_on_c, 9, 50, 0
1, 121746, Note_on_c, 9, 38, 0
1, 121824, Note_on_c, 9, 38, 77
1, 121824, Note_on_c, 9, 50, 127
1, 121824, Note_on_c, 9, 42, 75
1, 121842, Note_on_c, 9, 42, 0
1, 121842, Note_on_c, 9, 50, 0
1, 121842, Note_on_c, 9, 38, 0
1, 121920, Note_on_c, 1, 44, 100
1, 121920, Note_on_c, 1, 56, 92
1, 121920, Note_on_c, 9, 38, 77
1, 121920, Note_on_c, 9, 50, 127
1, 121920, Note_on_c, 9, 46, 92
1, 121920, Note_on_c, 9, 70, 80
1, 121920, Note_on_c, 11, 44, 100
1, 121920, Note_on_c, 11, 56, 92
1, 121926, Note_on_c, 11, 32, 0
1, 121926, Note_on_c, 1, 32, 0
1, 121938, Note_on_c, 9, 70, 0
1, 121938, Note_on_c, 9, 46, 0
1, 121938, Note_on_c, 9, 38, 0
1, 121938, Note_on_c, 9, 50, 0
1, 122010, Note_on_c, 11, 44, 0
1, 122010, Note_on_c, 11, 56, 0
1, 122010, Note_on_c, 1, 56, 0
1, 122010, Note_on_c, 1, 44, 0
1, 122016, Note_on_c, 9, 38, 77
1, 122016, Note_on_c, 9, 50, 127
1, 122034, Note_on_c, 9, 38, 0
1, 122034, Note_on_c, 9, 50, 0
1, 122112, Note_on_c, 1, 32, 74
1, 122112, Note_on_c, 9, 27, 127
1, 122112, Note_on_c, 9, 36, 127
1, 122112, Note_on_c, 9, 38, 77
1, 122112, Note_on_c, 9, 45, 107
1, 122112, Note_on_c, 9, 50, 127
1, 122112, Note_on_c, 9, 42, 66
1, 122112, Note_on_c, 9, 70, 92
1, 122112, Note_on_c, 9, 57, 102
1, 122112, Note_on_c, 11, 32, 74
1, 122130, Note_on_c, 9, 57, 0
1, 122130, Note_on_c, 9, 70, 0
1, 122130, Note_on_c, 9, 27, 0
1, 122130, Note_on_c, 9, 45, 0
1, 122130, Note_on_c, 9, 36, 0
1, 122130, Note_on_c, 9, 42, 0
1, 122130, Note_on_c, 9, 50, 0
1, 122130, Note_on_c, 9, 38, 0
1, 122208, Note_on_c, 9, 38, 77
1, 122208, Note_on_c, 9, 50, 127
1, 122208, Note_on_c, 9, 42, 75
1, 122226, Note_on_c, 9, 42, 0
1, 122226, Note_on_c, 9, 50, 0
1, 122226, Note_on_c, 9, 38, 0
1, 122304, Note_on_c, 1, 44, 102
1, 122304, Note_on_c, 1, 56, 92
1, 122304, Note_on_c, 9, 38, 77
1, 122304, Note_on_c, 9, 50, 127
1, 122304, Note_on_c, 9, 46, 107
1, 122304, Note_on_c, 9, 70, 20
1, 122304, Note_on_c, 11, 44, 102
1, 122304, Note_on_c, 11, 56, 92
1, 122312, Note_on_c, 11, 32, 0
1, 122312, Note_on_c, 1, 32, 0
1, 122322, Note_on_c, 9, 70, 0
1, 122322, Note_on_c, 9, 46, 0
1, 122322, Note_on_c, 9, 38, 0
1, 122322, Note_on_c, 9, 50, 0
1, 122394, Note_on_c, 11, 44, 0
1, 122394, Note_on_c, 11, 56, 0
1, 122394, Note_on_c, 1, 56, 0
1, 122394, Note_on_c, 1, 44, 0
1, 122400, Note_on_c, 9, 38, 77
1, 122400, Note_on_c, 9, 50, 127
1, 122400, Note_on_c, 9, 70, 49
1, 122418, Note_on_c, 9, 70, 0
1, 122418, Note_on_c, 9, 50, 0
1, 122418, Note_on_c, 9, 38, 0
1, 122496, Note_on_c, 1, 32, 74
1, 122496, Note_on_c, 9, 27, 127
1, 122496, Note_on_c, 9, 36, 127
1, 122496, Note_on_c, 9, 38, 77
1, 122496, Note_on_c, 9, 45, 107
1, 122496, Note_on_c, 9, 50, 127
1, 122496, Note_on_c, 9, 42, 66
1, 122496, Note_on_c, 9, 70, 76
1, 122496, Note_on_c, 11, 32, 74
1, 122514, Note_on_c, 9, 70, 0
1, 122514, Note_on_c, 9, 42, 0
1, 122514, Note_on_c, 9, 45, 0
1, 122514, Note_on_c, 9, 36, 0
1, 122514, Note_on_c, 9, 27, 0
1, 122514, Note_on_c, 9, 50, 0
1, 122514, Note_on_c, 9, 38, 0
1, 122592, Note_on_c, 9, 38, 77
1, 122592, Note_on_c, 9, 50, 127
1, 122592, Note_on_c, 9, 42, 75
1, 122610, Note_on_c, 9, 42, 0
1, 122610, Note_on_c, 9, 50, 0
1, 122610, Note_on_c, 9, 38, 0
1, 122688, Note_on_c, 1, 44, 83
1, 122688, Note_on_c, 1, 56, 89
1, 122688, Note_on_c, 9, 38, 77
1, 122688, Note_on_c, 9, 50, 127
1, 122688, Note_on_c, 9, 46, 107
1, 122688, Note_on_c, 9, 70, 66
1, 122688, Note_on_c, 11, 44, 83
1, 122688, Note_on_c, 11, 56, 89
1, 122697, Note_on_c, 11, 32, 0
1, 122697, Note_on_c, 1, 32, 0
1, 122706, Note_on_c, 9, 70, 0
1, 122706, Note_on_c, 9, 46, 0
1, 122706, Note_on_c, 9, 38, 0
1, 122706, Note_on_c, 9, 50, 0
1, 122778, Note_on_c, 1, 44, 0
1, 122778, Note_on_c, 11, 44, 0
1, 122782, Note_on_c, 11, 56, 0
1, 122782, Note_on_c, 1, 56, 0
1, 122784, Note_on_c, 9, 38, 77
1, 122784, Note_on_c, 9, 50, 127
1, 122802, Note_on_c, 9, 38, 0
1, 122802, Note_on_c, 9, 50, 0
1, 122880, Note_on_c, 1, 34, 65
1, 122880, Note_on_c, 1, 56, 65
1, 122880, Note_on_c, 9, 35, 127
1, 122880, Note_on_c, 9, 36, 127
1, 122880, Note_on_c, 9, 38, 97
1, 122880, Note_on_c, 9, 45, 107
1, 122880, Note_on_c, 9, 42, 66
1, 122880, Note_on_c, 9, 70, 92
1, 122880, Note_on_c, 9, 57, 117
1, 122880, Note_on_c, 11, 34, 65
1, 122880, Note_on_c, 11, 56, 65
1, 122898, Note_on_c, 9, 57, 0
1, 122898, Note_on_c, 9, 70, 0
1, 122898, Note_on_c, 9, 45, 0
1, 122898, Note_on_c, 9, 35, 0
1, 122898, Note_on_c, 9, 42, 0
1, 122898, Note_on_c, 9, 38, 0
1, 122898, Note_on_c, 9, 36, 0
1, 122928, Note_on_c, 9, 38, 71
1, 122928, Note_on_c, 9, 50, 71
1, 122946, Note_on_c, 9, 38, 0
1, 122946, Note_on_c, 9, 50, 0
1, 122974, Note_on_c, 1, 56, 0
1, 122974, Note_on_c, 11, 56, 0
1, 122976, Note_on_c, 9, 38, 97
1, 122976, Note_on_c, 9, 50, 127
1, 122976, Note_on_c, 9, 42, 75
1, 122994, Note_on_c, 9, 42, 0
1, 122994, Note_on_c, 9, 50, 0
1, 122994, Note_on_c, 9, 38, 0
1, 123024, Note_on_c, 9, 38, 86
1, 123024, Note_on_c, 9, 50, 86
1, 123042, Note_on_c, 9, 38, 0
1, 123042, Note_on_c, 9, 50, 0
1, 123072, Note_on_c, 1, 46, 94
1, 123072, Note_on_c, 1, 58, 92
1, 123072, Note_on_c, 9, 38, 97
1, 123072, Note_on_c, 9, 50, 127
1, 123072, Note_on_c, 9, 46, 107
1, 123072, Note_on_c, 11, 46, 94
1, 123072, Note_on_c, 11, 58, 92
1, 123090, Note_on_c, 9, 46, 0
1, 123090, Note_on_c, 9, 38, 0
1, 123090, Note_on_c, 9, 50, 0
1, 123095, Note_on_c, 1, 34, 0
1, 123095, Note_on_c, 11, 34, 0
1, 123120, Note_on_c, 9, 38, 89
1, 123120, Note_on_c, 9, 50, 89
1, 123138, Note_on_c, 9, 38, 0
1, 123138, Note_on_c, 9, 50, 0
1, 123162, Note_on_c, 1, 46, 0
1, 123162, Note_on_c, 11, 58, 0
1, 123162, Note_on_c, 1, 58, 0
1, 123162, Note_on_c, 11, 46, 0
1, 123168, Note_on_c, 9, 38, 97
1, 123168, Note_on_c, 9, 50, 127
1, 123168, Note_on_c, 9, 70, 44
1, 123186, Note_on_c, 9, 70, 0
1, 123186, Note_on_c, 9, 50, 0
1, 123186, Note_on_c, 9, 38, 0
1, 123216, Note_on_c, 9, 38, 77
1, 123216, Note_on_c, 9, 50, 77
1, 123234, Note_on_c, 9, 38, 0
1, 123234, Note_on_c, 9, 50, 0
1, 123264, Note_on_c, 1, 34, 68
1, 123264, Note_on_c, 9, 35, 127
1, 123264, Note_on_c, 9, 36, 127
1, 123264, Note_on_c, 9, 45, 107
1, 123264, Note_on_c, 9, 42, 66
1, 123264, Note_on_c, 9, 70, 92
1, 123264, Note_on_c, 9, 57, 110
1, 123264, Note_on_c, 11, 34, 68
1, 123282, Note_on_c, 9, 57, 0
1, 123282, Note_on_c, 9, 70, 0
1, 123282, Note_on_c, 9, 36, 0
1, 123282, Note_on_c, 9, 45, 0
1, 123282, Note_on_c, 9, 35, 0
1, 123282, Note_on_c, 9, 42, 0
1, 123312, Note_on_c, 9, 38, 77
1, 123312, Note_on_c, 9, 50, 77
1, 123330, Note_on_c, 9, 38, 0
1, 123330, Note_on_c, 9, 50, 0
1, 123360, Note_on_c, 9, 38, 97
1, 123360, Note_on_c, 9, 50, 127
1, 123360, Note_on_c, 9, 42, 75
1, 123378, Note_on_c, 9, 42, 0
1, 123378, Note_on_c, 9, 50, 0
1, 123378, Note_on_c, 9, 38, 0
1, 123408, Note_on_c, 9, 38, 92
1, 123408, Note_on_c, 9, 50, 92
1, 123426, Note_on_c, 9, 38, 0
1, 123426, Note_on_c, 9, 50, 0
1, 123456, Note_on_c, 1, 46, 85
1, 123456, Note_on_c, 1, 58, 92
1, 123456, Note_on_c, 9, 38, 97
1, 123456, Note_on_c, 9, 50, 127
1, 123456, Note_on_c, 9, 46, 107
1, 123456, Note_on_c, 9, 70, 80
1, 123456, Note_on_c, 11, 46, 85
1, 123456, Note_on_c, 11, 58, 92
1, 123464, Note_on_c, 11, 34, 0
1, 123464, Note_on_c, 1, 34, 0
1, 123474, Note_on_c, 9, 70, 0
1, 123474, Note_on_c, 9, 46, 0
1, 123474, Note_on_c, 9, 50, 0
1, 123474, Note_on_c, 9, 38, 0
1, 123504, Note_on_c, 9, 38, 95
1, 123504, Note_on_c, 9, 50, 95
1, 123522, Note_on_c, 9, 38, 0
1, 123522, Note_on_c, 9, 50, 0
1, 123546, Note_on_c, 1, 46, 0
1, 123546, Note_on_c, 11, 58, 0
1, 123546, Note_on_c, 1, 58, 0
1, 123546, Note_on_c, 11, 46, 0
1, 123552, Note_on_c, 9, 38, 97
1, 123552, Note_on_c, 9, 50, 127
1, 123570, Note_on_c, 9, 38, 0
1, 123570, Note_on_c, 9, 50, 0
1, 123600, Note_on_c, 9, 38, 77
1, 123618, Note_on_c, 9, 38, 0
1, 123648, Note_on_c, 1, 34, 68
1, 123648, Note_on_c, 3, 65, 122
1, 123648, Note_on_c, 8, 65, 127
1, 123648, Note_on_c, 9, 35, 127
1, 123648, Note_on_c, 9, 36, 127
1, 123648, Note_on_c, 9, 45, 107
1, 123648, Note_on_c, 9, 42, 66
1, 123648, Note_on_c, 9, 70, 86
1, 123648, Note_on_c, 9, 57, 117
1, 123648, Note_on_c, 11, 34, 68
1, 123666, Note_on_c, 9, 57, 0
1, 123666, Note_on_c, 9, 70, 0
1, 123666, Note_on_c, 9, 45, 0
1, 123666, Note_on_c, 9, 42, 0
1, 123666, Note_on_c, 9, 36, 0
1, 123666, Note_on_c, 9, 35, 0
1, 123696, Note_on_c, 9, 38, 71
1, 123696, Note_on_c, 9, 50, 71
1, 123714, Note_on_c, 9, 38, 0
1, 123714, Note_on_c, 9, 50, 0
1, 123744, Note_on_c, 9, 38, 97
1, 123744, Note_on_c, 9, 50, 127
1, 123744, Note_on_c, 9, 42, 75
1, 123762, Note_on_c, 9, 42, 0
1, 123762, Note_on_c, 9, 38, 0
1, 123762, Note_on_c, 9, 50, 0
1, 123792, Note_on_c, 9, 38, 95
1, 123792, Note_on_c, 9, 50, 95
1, 123810, Note_on_c, 9, 38, 0
1, 123810, Note_on_c, 9, 50, 0
1, 123840, Note_on_c, 1, 46, 87
1, 123840, Note_on_c, 1, 58, 92
1, 123840, Note_on_c, 9, 38, 97
1, 123840, Note_on_c, 9, 50, 127
1, 123840, Note_on_c, 9, 46, 107
1, 123840, Note_on_c, 9, 70, 13
1, 123840, Note_on_c, 11, 46, 87
1, 123840, Note_on_c, 11, 58, 92
1, 123848, Note_on_c, 11, 34, 0
1, 123848, Note_on_c, 1, 34, 0
1, 123858, Note_on_c, 9, 38, 0
1, 123858, Note_on_c, 9, 70, 0
1, 123858, Note_on_c, 9, 46, 0
1, 123858, Note_on_c, 9, 50, 0
1, 123888, Note_on_c, 9, 38, 107
1, 123888, Note_on_c, 9, 50, 107
1, 123892, Note_on_c, 3, 65, 0
1, 123892, Note_on_c, 8, 65, 0
1, 123906, Note_on_c, 9, 38, 0
1, 123906, Note_on_c, 9, 50, 0
1, 123930, Note_on_c, 11, 58, 0
1, 123930, Note_on_c, 11, 46, 0
1, 123930, Note_on_c, 1, 58, 0
1, 123930, Note_on_c, 1, 46, 0
1, 123936, Note_on_c, 9, 38, 97
1, 123936, Note_on_c, 9, 50, 127
1, 123936, Note_on_c, 9, 70, 26
1, 123954, Note_on_c, 9, 70, 0
1, 123954, Note_on_c, 9, 50, 0
1, 123954, Note_on_c, 9, 38, 0
1, 123984, Note_on_c, 9, 38, 98
1, 124002, Note_on_c, 9, 38, 0
1, 124026, Pitch_bend_c, 3, 0
1, 124026, Pitch_bend_c, 8, 0
1, 124032, Note_on_c, 1, 34, 64
1, 124032, Note_on_c, 3, 69, 122
1, 124032, Note_on_c, 8, 69, 127
1, 124032, Note_on_c, 9, 35, 127
1, 124032, Note_on_c, 9, 36, 127
1, 124032, Note_on_c, 9, 45, 107
1, 124032, Note_on_c, 9, 42, 66
1, 124032, Note_on_c, 9, 70, 92
1, 124032, Note_on_c, 9, 57, 117
1, 124032, Note_on_c, 11, 34, 64
1, 124034, Pitch_bend_c, 3, 455
1, 124034, Pitch_bend_c, 8, 455
1, 124042, Pitch_bend_c, 3, 910
1, 124042, Pitch_bend_c, 8, 910
1, 124050, Note_on_c, 9, 57, 0
1, 124050, Note_on_c, 9, 70, 0
1, 124050, Note_on_c, 9, 45, 0
1, 124050, Note_on_c, 9, 42, 0
1, 124050, Note_on_c, 9, 36, 0
1, 124050, Note_on_c, 9, 35, 0
1, 124050, Pitch_bend_c, 3, 1365
1, 124050, Pitch_bend_c, 8, 1365
1, 124058, Pitch_bend_c, 3, 1820
1, 124058, Pitch_bend_c, 8, 1820
1, 124066, Pitch_bend_c, 3, 2275
1, 124066, Pitch_bend_c, 8, 2275
1, 124074, Pitch_bend_c, 3, 2730
1, 124074, Pitch_bend_c, 8, 2730
1, 124080, Note_on_c, 9, 38, 80
1, 124080, Note_on_c, 9, 50, 80
1, 124082, Pitch_bend_c, 3, 3185
1, 124082, Pitch_bend_c, 8, 3185
1, 124090, Pitch_bend_c, 3, 3640
1, 124090, Pitch_bend_c, 8, 3640
1, 124098, Note_on_c, 9, 38, 0
1, 124098, Note_on_c, 9, 50, 0
1, 124098, Pitch_bend_c, 3, 4095
1, 124098, Pitch_bend_c, 8, 4095
1, 124106, Pitch_bend_c, 3, 4550
1, 124106, Pitch_bend_c, 8, 4550
1, 124114, Pitch_bend_c, 3, 5006
1, 124114, Pitch_bend_c, 8, 5006
1, 124122, Pitch_bend_c, 3, 5461
1, 124122, Pitch_bend_c, 8, 5461
1, 124128, Note_on_c, 9, 38, 97
1, 124128, Note_on_c, 9, 50, 127
1, 124128, Note_on_c, 9, 42, 75
1, 124130, Pitch_bend_c, 3, 5916
1, 124130, Pitch_bend_c, 8, 5916
1, 124138, Pitch_bend_c, 3, 6371
1, 124138, Pitch_bend_c, 8, 6371
1, 124146, Note_on_c, 9, 42, 0
1, 124146, Note_on_c, 9, 38, 0
1, 124146, Note_on_c, 9, 50, 0
1, 124146, Pitch_bend_c, 3, 6826
1, 124146, Pitch_bend_c, 8, 6826
1, 124154, Pitch_bend_c, 3, 7281
1, 124154, Pitch_bend_c, 8, 7281
1, 124162, Pitch_bend_c, 3, 8763
1, 124162, Pitch_bend_c, 8, 8763
1, 124176, Note_on_c, 9, 38, 89
1, 124176, Note_on_c, 9, 50, 89
1, 124194, Note_on_c, 9, 38, 0
1, 124194, Note_on_c, 9, 50, 0
1, 124214, Note_on_c, 11, 34, 0
1, 124214, Note_on_c, 1, 34, 0
1, 124224, Note_on_c, 1, 46, 85
1, 124224, Note_on_c, 1, 58, 89
1, 124224, Note_on_c, 9, 38, 97
1, 124224, Note_on_c, 9, 50, 127
1, 124224, Note_on_c, 9, 46, 107
1, 124224, Note_on_c, 9, 70, 63
1, 124224, Note_on_c, 11, 46, 85
1, 124224, Note_on_c, 11, 58, 89
1, 124242, Note_on_c, 9, 70, 0
1, 124242, Note_on_c, 9, 46, 0
1, 124242, Note_on_c, 9, 38, 0
1, 124242, Note_on_c, 9, 50, 0
1, 124263, Note_on_c, 8, 69, 0
1, 124263, Note_on_c, 3, 69, 0
1, 124272, Note_on_c, 9, 38, 98
1, 124272, Note_on_c, 9, 50, 98
1, 124290, Note_on_c, 9, 38, 0
1, 124290, Note_on_c, 9, 50, 0
1, 124314, Note_on_c, 1, 46, 0
1, 124314, Note_on_c, 11, 46, 0
1, 124318, Note_on_c, 1, 58, 0
1, 124318, Note_on_c, 11, 58, 0
1, 124320, Note_on_c, 9, 35, 127
1, 124320, Note_on_c, 9, 36, 127
1, 124320, Note_on_c, 9, 38, 97
1, 124320, Note_on_c, 9, 45, 107
1, 124320, Note_on_c, 9, 50, 127
1, 124338, Note_on_c, 9, 45, 0
1, 124338, Note_on_c, 9, 38, 0
1, 124338, Note_on_c, 9, 36, 0
1, 124338, Note_on_c, 9, 50, 0
1, 124338, Note_on_c, 9, 35, 0
1, 124368, Note_on_c, 9, 38, 83
1, 124386, Note_on_c, 9, 38, 0
1, 124416, Note_on_c, 1, 29, 74
1, 124416, Note_on_c, 3, 69, 122
1, 124416, Note_on_c, 8, 69, 127
1, 124416, Note_on_c, 9, 27, 127
1, 124416, Note_on_c, 9, 45, 107
1, 124416, Note_on_c, 9, 36, 127
1, 124416, Note_on_c, 9, 42, 66
1, 124416, Note_on_c, 9, 70, 92
1, 124416, Note_on_c, 9, 57, 117
1, 124416, Note_on_c, 11, 29, 74
1, 124434, Note_on_c, 9, 57, 0
1, 124434, Note_on_c, 9, 70, 0
1, 124434, Note_on_c, 9, 36, 0
1, 124434, Note_on_c, 9, 42, 0
1, 124434, Note_on_c, 9, 45, 0
1, 124434, Note_on_c, 9, 27, 0
1, 124512, Note_on_c, 9, 42, 75
1, 124530, Note_on_c, 9, 42, 0
1, 124575, Note_on_c, 11, 29, 0
1, 124575, Note_on_c, 1, 29, 0
1, 124608, Note_on_c, 1, 41, 100
1, 124608, Note_on_c, 1, 65, 92
1, 124608, Note_on_c, 9, 46, 107
1, 124608, Note_on_c, 11, 41, 100
1, 124608, Note_on_c, 11, 65, 92
1, 124618, Note_on_c, 3, 69, 0
1, 124618, Note_on_c, 8, 69, 0
1, 124626, Note_on_c, 9, 46, 0
1, 124698, Note_on_c, 11, 65, 0
1, 124698, Note_on_c, 1, 41, 0
1, 124698, Note_on_c, 1, 65, 0
1, 124698, Note_on_c, 11, 41, 0
1, 124704, Note_on_c, 9, 70, 40
1, 124722, Note_on_c, 9, 70, 0
1, 124800, Note_on_c, 1, 29, 74
1, 124800, Note_on_c, 9, 27, 127
1, 124800, Note_on_c, 9, 38, 127
1, 124800, Note_on_c, 9, 36, 127
1, 124800, Note_on_c, 9, 45, 107
1, 124800, Note_on_c, 9, 42, 66
1, 124800, Note_on_c, 9, 70, 86
1, 124800, Note_on_c, 11, 29, 74
1, 124818, Note_on_c, 9, 70, 0
1, 124818, Note_on_c, 9, 42, 0
1, 124818, Note_on_c, 9, 38, 0
1, 124818, Note_on_c, 9, 36, 0
1, 124818, Note_on_c, 9, 27, 0
1, 124818, Note_on_c, 9, 45, 0
1, 124896, Note_on_c, 9, 42, 75
1, 124914, Note_on_c, 9, 42, 0
1, 124992, Note_on_c, 1, 41, 110
1, 124992, Note_on_c, 1, 65, 92
1, 124992, Note_on_c, 9, 46, 92
1, 124992, Note_on_c, 9, 70, 80
1, 124992, Note_on_c, 11, 41, 110
1, 124992, Note_on_c, 11, 65, 92
1, 124998, Note_on_c, 1, 29, 0
1, 124998, Note_on_c, 11, 29, 0
1, 125010, Note_on_c, 9, 70, 0
1, 125010, Note_on_c, 9, 46, 0
1, 125082, Note_on_c, 11, 41, 0
1, 125082, Note_on_c, 1, 65, 0
1, 125082, Note_on_c, 11, 65, 0
1, 125082, Note_on_c, 1, 41, 0
1, 125184, Note_on_c, 1, 29, 71
1, 125184, Note_on_c, 3, 65, 122
1, 125184, Note_on_c, 8, 65, 127
1, 125184, Note_on_c, 9, 27, 127
1, 125184, Note_on_c, 9, 36, 127
1, 125184, Note_on_c, 9, 45, 107
1, 125184, Note_on_c, 9, 42, 66
1, 125184, Note_on_c, 9, 70, 92
1, 125184, Note_on_c, 11, 29, 71
1, 125202, Note_on_c, 9, 70, 0
1, 125202, Note_on_c, 9, 42, 0
1, 125202, Note_on_c, 9, 45, 0
1, 125202, Note_on_c, 9, 36, 0
1, 125202, Note_on_c, 9, 27, 0
1, 125280, Note_on_c, 9, 42, 75
1, 125298, Note_on_c, 9, 42, 0
1, 125376, Note_on_c, 1, 41, 102
1, 125376, Note_on_c, 1, 65, 92
1, 125376, Note_on_c, 9, 46, 107
1, 125376, Note_on_c, 9, 70, 20
1, 125376, Note_on_c, 11, 41, 102
1, 125376, Note_on_c, 11, 65, 92
1, 125384, Note_on_c, 11, 29, 0
1, 125384, Note_on_c, 1, 29, 0
1, 125394, Note_on_c, 9, 70, 0
1, 125394, Note_on_c, 9, 46, 0
1, 125428, Note_on_c, 3, 65, 0
1, 125428, Note_on_c, 8, 65, 0
1, 125466, Note_on_c, 1, 41, 0
1, 125466, Note_on_c, 11, 65, 0
1, 125466, Note_on_c, 1, 65, 0
1, 125466, Note_on_c, 11, 41, 0
1, 125472, Note_on_c, 9, 70, 49
1, 125490, Note_on_c, 9, 70, 0
1, 125562, Pitch_bend_c, 3, 0
1, 125562, Pitch_bend_c, 8, 0
1, 125568, Note_on_c, 1, 29, 74
1, 125568, Note_on_c, 3, 69, 122
1, 125568, Note_on_c, 8, 69, 127
1, 125568, Note_on_c, 9, 27, 127
1, 125568, Note_on_c, 9, 38, 127
1, 125568, Note_on_c, 9, 45, 107
1, 125568, Note_on_c, 9, 36, 127
1, 125568, Note_on_c, 9, 42, 66
1, 125568, Note_on_c, 9, 70, 76
1, 125568, Note_on_c, 11, 29, 74
1, 125570, Pitch_bend_c, 3, 455
1, 125570, Pitch_bend_c, 8, 455
1, 125578, Pitch_bend_c, 3, 910
1, 125578, Pitch_bend_c, 8, 910
1, 125586, Note_on_c, 9, 70, 0
1, 125586, Note_on_c, 9, 42, 0
1, 125586, Note_on_c, 9, 45, 0
1, 125586, Note_on_c, 9, 36, 0
1, 125586, Note_on_c, 9, 38, 0
1, 125586, Note_on_c, 9, 27, 0
1, 125586, Pitch_bend_c, 3, 1365
1, 125586, Pitch_bend_c, 8, 1365
1, 125594, Pitch_bend_c, 3, 1820
1, 125594, Pitch_bend_c, 8, 1820
1, 125602, Pitch_bend_c, 3, 2275
1, 125602, Pitch_bend_c, 8, 2275
1, 125610, Pitch_bend_c, 3, 2730
1, 125610, Pitch_bend_c, 8, 2730
1, 125618, Pitch_bend_c, 3, 3185
1, 125618, Pitch_bend_c, 8, 3185
1, 125626, Pitch_bend_c, 3, 3640
1, 125626, Pitch_bend_c, 8, 3640
1, 125634, Pitch_bend_c, 3, 4095
1, 125634, Pitch_bend_c, 8, 4095
1, 125642, Pitch_bend_c, 3, 4550
1, 125642, Pitch_bend_c, 8, 4550
1, 125650, Pitch_bend_c, 3, 5006
1, 125650, Pitch_bend_c, 8, 5006
1, 125658, Pitch_bend_c, 3, 5461
1, 125658, Pitch_bend_c, 8, 5461
1, 125664, Note_on_c, 9, 42, 75
1, 125666, Pitch_bend_c, 3, 5916
1, 125666, Pitch_bend_c, 8, 5916
1, 125674, Pitch_bend_c, 3, 6371
1, 125674, Pitch_bend_c, 8, 6371
1, 125682, Note_on_c, 9, 42, 0
1, 125682, Pitch_bend_c, 3, 6826
1, 125682, Pitch_bend_c, 8, 6826
1, 125690, Pitch_bend_c, 3, 7281
1, 125690, Pitch_bend_c, 8, 7281
1, 125698, Pitch_bend_c, 3, 8763
1, 125698, Pitch_bend_c, 8, 8763
1, 125760, Note_on_c, 1, 41, 83
1, 125760, Note_on_c, 1, 65, 89
1, 125760, Note_on_c, 9, 46, 107
1, 125760, Note_on_c, 9, 70, 66
1, 125760, Note_on_c, 11, 41, 83
1, 125760, Note_on_c, 11, 65, 89
1, 125769, Note_on_c, 11, 29, 0
1, 125769, Note_on_c, 1, 29, 0
1, 125778, Note_on_c, 9, 70, 0
1, 125778, Note_on_c, 9, 46, 0
1, 125799, Note_on_c, 3, 69, 0
1, 125799, Note_on_c, 8, 69, 0
1, 125850, Note_on_c, 11, 41, 0
1, 125850, Note_on_c, 1, 41, 0
1, 125854, Note_on_c, 1, 65, 0
1, 125854, Note_on_c, 11, 65, 0
1, 125952, Note_on_c, 1, 29, 68
1, 125952, Note_on_c, 3, 69, 122
1, 125952, Note_on_c, 8, 69, 127
1, 125952, Note_on_c, 9, 27, 127
1, 125952, Note_on_c, 9, 45, 107
1, 125952, Note_on_c, 9, 36, 127
1, 125952, Note_on_c, 9, 42, 66
1, 125952, Note_on_c, 9, 70, 92
1, 125952, Note_on_c, 11, 29, 68
1, 125970, Note_on_c, 9, 70, 0
1, 125970, Note_on_c, 9, 42, 0
1, 125970, Note_on_c, 9, 36, 0
1, 125970, Note_on_c, 9, 45, 0
1, 125970, Note_on_c, 9, 27, 0
1, 126048, Note_on_c, 9, 42, 75
1, 126066, Note_on_c, 9, 42, 0
1, 126144, Note_on_c, 1, 41, 94
1, 126144, Note_on_c, 1, 65, 92
1, 126144, Note_on_c, 9, 46, 107
1, 126144, Note_on_c, 11, 41, 94
1, 126144, Note_on_c, 11, 65, 92
1, 126154, Note_on_c, 3, 69, 0
1, 126154, Note_on_c, 8, 69, 0
1, 126162, Note_on_c, 9, 46, 0
1, 126167, Note_on_c, 1, 29, 0
1, 126167, Note_on_c, 11, 29, 0
1, 126234, Note_on_c, 1, 65, 0
1, 126234, Note_on_c, 11, 65, 0
1, 126234, Note_on_c, 11, 41, 0
1, 126234, Note_on_c, 1, 41, 0
1, 126240, Note_on_c, 9, 70, 44
1, 126258, Note_on_c, 9, 70, 0
1, 126336, Note_on_c, 1, 29, 71
1, 126336, Note_on_c, 9, 27, 127
1, 126336, Note_on_c, 9, 38, 127
1, 126336, Note_on_c, 9, 45, 107
1, 126336, Note_on_c, 9, 36, 127
1, 126336, Note_on_c, 9, 42, 66
1, 126336, Note_on_c, 9, 70, 92
1, 126336, Note_on_c, 11, 29, 71
1, 126354, Note_on_c, 9, 70, 0
1, 126354, Note_on_c, 9, 42, 0
1, 126354, Note_on_c, 9, 38, 0
1, 126354, Note_on_c, 9, 45, 0
1, 126354, Note_on_c, 9, 27, 0
1, 126354, Note_on_c, 9, 36, 0
1, 126432, Note_on_c, 9, 42, 75
1, 126450, Note_on_c, 9, 42, 0
1, 126528, Note_on_c, 1, 41, 85
1, 126528, Note_on_c, 1, 65, 92
1, 126528, Note_on_c, 9, 46, 107
1, 126528, Note_on_c, 9, 70, 80
1, 126528, Note_on_c, 11, 41, 85
1, 126528, Note_on_c, 11, 65, 92
1, 126536, Note_on_c, 1, 29, 0
1, 126536, Note_on_c, 11, 29, 0
1, 126546, Note_on_c, 9, 70, 0
1, 126546, Note_on_c, 9, 46, 0
1, 126618, Note_on_c, 11, 41, 0
1, 126618, Note_on_c, 1, 65, 0
1, 126618, Note_on_c, 11, 65, 0
1, 126618, Note_on_c, 1, 41, 0
1, 126720, Note_on_c, 1, 29, 71
1, 126720, Note_on_c, 3, 65, 122
1, 126720, Note_on_c, 8, 65, 127
1, 126720, Note_on_c, 9, 27, 127
1, 126720, Note_on_c, 9, 45, 107
1, 126720, Note_on_c, 9, 36, 127
1, 126720, Note_on_c, 9, 42, 66
1, 126720, Note_on_c, 9, 70, 86
1, 126720, Note_on_c, 11, 29, 71
1, 126738, Note_on_c, 9, 70, 0
1, 126738, Note_on_c, 9, 42, 0
1, 126738, Note_on_c, 9, 36, 0
1, 126738, Note_on_c, 9, 45, 0
1, 126738, Note_on_c, 9, 27, 0
1, 126816, Note_on_c, 9, 42, 75
1, 126834, Note_on_c, 9, 42, 0
1, 126912, Note_on_c, 1, 41, 87
1, 126912, Note_on_c, 1, 65, 92
1, 126912, Note_on_c, 9, 46, 107
1, 126912, Note_on_c, 9, 70, 13
1, 126912, Note_on_c, 11, 41, 87
1, 126912, Note_on_c, 11, 65, 92
1, 126920, Note_on_c, 11, 29, 0
1, 126920, Note_on_c, 1, 29, 0
1, 126930, Note_on_c, 9, 70, 0
1, 126930, Note_on_c, 9, 46, 0
1, 126964, Note_on_c, 3, 65, 0
1, 126964, Note_on_c, 8, 65, 0
1, 127002, Note_on_c, 1, 41, 0
1, 127002, Note_on_c, 11, 65, 0
1, 127002, Note_on_c, 1, 65, 0
1, 127002, Note_on_c, 11, 41, 0
1, 127008, Note_on_c, 9, 70, 26
1, 127026, Note_on_c, 9, 70, 0
1, 127098, Pitch_bend_c, 3, 0
1, 127098, Pitch_bend_c, 8, 0
1, 127104, Note_on_c, 1, 29, 85
1, 127104, Note_on_c, 1, 63, 89
1, 127104, Note_on_c, 3, 69, 122
1, 127104, Note_on_c, 8, 69, 127
1, 127104, Note_on_c, 9, 27, 127
1, 127104, Note_on_c, 9, 38, 127
1, 127104, Note_on_c, 9, 45, 107
1, 127104, Note_on_c, 9, 36, 127
1, 127104, Note_on_c, 9, 42, 66
1, 127104, Note_on_c, 9, 70, 92
1, 127104, Note_on_c, 11, 29, 85
1, 127104, Note_on_c, 11, 63, 89
1, 127106, Pitch_bend_c, 3, 455
1, 127106, Pitch_bend_c, 8, 455
1, 127114, Pitch_bend_c, 3, 910
1, 127114, Pitch_bend_c, 8, 910
1, 127122, Note_on_c, 9, 70, 0
1, 127122, Note_on_c, 9, 42, 0
1, 127122, Note_on_c, 9, 38, 0
1, 127122, Note_on_c, 9, 36, 0
1, 127122, Note_on_c, 9, 45, 0
1, 127122, Note_on_c, 9, 27, 0
1, 127122, Pitch_bend_c, 3, 1365
1, 127122, Pitch_bend_c, 8, 1365
1, 127130, Pitch_bend_c, 3, 1820
1, 127130, Pitch_bend_c, 8, 1820
1, 127138, Pitch_bend_c, 3, 2275
1, 127138, Pitch_bend_c, 8, 2275
1, 127146, Pitch_bend_c, 3, 2730
1, 127146, Pitch_bend_c, 8, 2730
1, 127154, Pitch_bend_c, 3, 3185
1, 127154, Pitch_bend_c, 8, 3185
1, 127162, Pitch_bend_c, 3, 3640
1, 127162, Pitch_bend_c, 8, 3640
1, 127170, Pitch_bend_c, 3, 4095
1, 127170, Pitch_bend_c, 8, 4095
1, 127178, Pitch_bend_c, 3, 4550
1, 127178, Pitch_bend_c, 8, 4550
1, 127186, Pitch_bend_c, 3, 5006
1, 127186, Pitch_bend_c, 8, 5006
1, 127194, Pitch_bend_c, 3, 5461
1, 127194, Pitch_bend_c, 8, 5461
1, 127198, Note_on_c, 11, 63, 0
1, 127198, Note_on_c, 1, 63, 0
1, 127200, Note_on_c, 9, 42, 75
1, 127202, Pitch_bend_c, 3, 5916
1, 127202, Pitch_bend_c, 8, 5916
1, 127210, Pitch_bend_c, 3, 6371
1, 127210, Pitch_bend_c, 8, 6371
1, 127218, Note_on_c, 9, 42, 0
1, 127218, Pitch_bend_c, 3, 6826
1, 127218, Pitch_bend_c, 8, 6826
1, 127226, Pitch_bend_c, 3, 7281
1, 127226, Pitch_bend_c, 8, 7281
1, 127234, Pitch_bend_c, 3, 8763
1, 127234, Pitch_bend_c, 8, 8763
1, 127286, Note_on_c, 1, 29, 0
1, 127286, Note_on_c, 11, 29, 0
1, 127296, Note_on_c, 1, 41, 85
1, 127296, Note_on_c, 1, 65, 89
1, 127296, Note_on_c, 9, 46, 107
1, 127296, Note_on_c, 9, 70, 63
1, 127296, Note_on_c, 11, 41, 85
1, 127296, Note_on_c, 11, 65, 89
1, 127314, Note_on_c, 9, 70, 0
1, 127314, Note_on_c, 9, 46, 0
1, 127335, Note_on_c, 8, 69, 0
1, 127335, Note_on_c, 3, 69, 0
1, 127386, Note_on_c, 1, 41, 0
1, 127386, Note_on_c, 11, 41, 0
1, 127390, Note_on_c, 1, 65, 0
1, 127390, Note_on_c, 11, 65, 0
1, 127488, Note_on_c, 1, 32, 71
1, 127488, Note_on_c, 1, 53, 71
1, 127488, Note_on_c, 1, 65, 71
1, 127488, Note_on_c, 3, 69, 122
1, 127488, Note_on_c, 8, 69, 127
1, 127488, Note_on_c, 9, 27, 127
1, 127488, Note_on_c, 9, 45, 107
1, 127488, Note_on_c, 9, 36, 127
1, 127488, Note_on_c, 9, 42, 66
1, 127488, Note_on_c, 9, 70, 92
1, 127488, Note_on_c, 11, 32, 71
1, 127488, Note_on_c, 11, 53, 71
1, 127488, Note_on_c, 11, 65, 71
1, 127506, Note_on_c, 9, 70, 0
1, 127506, Note_on_c, 9, 42, 0
1, 127506, Note_on_c, 9, 27, 0
1, 127506, Note_on_c, 9, 36, 0
1, 127506, Note_on_c, 9, 45, 0
1, 127582, Note_on_c, 1, 53, 0
1, 127582, Note_on_c, 11, 65, 0
1, 127582, Note_on_c, 1, 65, 0
1, 127582, Note_on_c, 11, 53, 0
1, 127584, Note_on_c, 9, 42, 75
1, 127602, Note_on_c, 9, 42, 0
1, 127647, Note_on_c, 11, 32, 0
1, 127647, Note_on_c, 1, 32, 0
1, 127680, Note_on_c, 1, 44, 100
1, 127680, Note_on_c, 1, 56, 92
1, 127680, Note_on_c, 9, 46, 107
1, 127680, Note_on_c, 11, 44, 100
1, 127680, Note_on_c, 11, 56, 92
1, 127690, Note_on_c, 3, 69, 0
1, 127690, Note_on_c, 8, 69, 0
1, 127698, Note_on_c, 9, 46, 0
1, 127770, Note_on_c, 1, 44, 0
1, 127770, Note_on_c, 1, 56, 0
1, 127770, Note_on_c, 11, 56, 0
1, 127770, Note_on_c, 11, 44, 0
1, 127776, Note_on_c, 9, 70, 40
1, 127794, Note_on_c, 9, 70, 0
1, 127872, Note_on_c, 1, 32, 77
1, 127872, Note_on_c, 9, 27, 127
1, 127872, Note_on_c, 9, 38, 127
1, 127872, Note_on_c, 9, 45, 107
1, 127872, Note_on_c, 9, 36, 127
1, 127872, Note_on_c, 9, 42, 66
1, 127872, Note_on_c, 9, 70, 86
1, 127872, Note_on_c, 11, 32, 77
1, 127890, Note_on_c, 9, 70, 0
1, 127890, Note_on_c, 9, 42, 0
1, 127890, Note_on_c, 9, 38, 0
1, 127890, Note_on_c, 9, 45, 0
1, 127890, Note_on_c, 9, 27, 0
1, 127890, Note_on_c, 9, 36, 0
1, 127968, Note_on_c, 9, 42, 75
1, 127986, Note_on_c, 9, 42, 0
1, 128064, Note_on_c, 1, 44, 100
1, 128064, Note_on_c, 1, 56, 92
1, 128064, Note_on_c, 9, 46, 92
1, 128064, Note_on_c, 9, 70, 80
1, 128064, Note_on_c, 11, 44, 100
1, 128064, Note_on_c, 11, 56, 92
1, 128070, Note_on_c, 1, 32, 0
1, 128070, Note_on_c, 11, 32, 0
1, 128082, Note_on_c, 9, 70, 0
1, 128082, Note_on_c, 9, 46, 0
1, 128154, Note_on_c, 11, 44, 0
1, 128154, Note_on_c, 1, 56, 0
1, 128154, Note_on_c, 11, 56, 0
1, 128154, Note_on_c, 1, 44, 0
1, 128256, Note_on_c, 1, 32, 74
1, 128256, Note_on_c, 3, 65, 122
1, 128256, Note_on_c, 8, 65, 127
1, 128256, Note_on_c, 9, 27, 127
1, 128256, Note_on_c, 9, 45, 107
1, 128256, Note_on_c, 9, 36, 127
1, 128256, Note_on_c, 9, 42, 66
1, 128256, Note_on_c, 9, 70, 92
1, 128256, Note_on_c, 11, 32, 74
1, 128274, Note_on_c, 9, 70, 0
1, 128274, Note_on_c, 9, 42, 0
1, 128274, Note_on_c, 9, 36, 0
1, 128274, Note_on_c, 9, 45, 0
1, 128274, Note_on_c, 9, 27, 0
1, 128352, Note_on_c, 9, 42, 75
1, 128370, Note_on_c, 9, 42, 0
1, 128448, Note_on_c, 1, 44, 102
1, 128448, Note_on_c, 1, 56, 92
1, 128448, Note_on_c, 9, 46, 107
1, 128448, Note_on_c, 9, 70, 20
1, 128448, Note_on_c, 11, 44, 102
1, 128448, Note_on_c, 11, 56, 92
1, 128456, Note_on_c, 11, 32, 0
1, 128456, Note_on_c, 1, 32, 0
1, 128466, Note_on_c, 9, 70, 0
1, 128466, Note_on_c, 9, 46, 0
1, 128500, Note_on_c, 3, 65, 0
1, 128500, Note_on_c, 8, 65, 0
1, 128538, Note_on_c, 1, 44, 0
1, 128538, Note_on_c, 11, 56, 0
1, 128538, Note_on_c, 1, 56, 0
1, 128538, Note_on_c, 11, 44, 0
1, 128544, Note_on_c, 9, 70, 49
1, 128562, Note_on_c, 9, 70, 0
1, 128640, Note_on_c, 1, 32, 74
1, 128640, Note_on_c, 3, 69, 122
1, 128640, Note_on_c, 8, 69, 127
1, 128640, Note_on_c, 9, 27, 127
1, 128640, Note_on_c, 9, 38, 127
1, 128640, Note_on_c, 9, 45, 107
1, 128640, Note_on_c, 9, 36, 127
1, 128640, Note_on_c, 9, 42, 66
1, 128640, Note_on_c, 9, 70, 76
1, 128640, Note_on_c, 11, 32, 74
1, 128642, Pitch_bend_c, 3, 0
1, 128642, Pitch_bend_c, 8, 0
1, 128650, Pitch_bend_c, 3, 455
1, 128650, Pitch_bend_c, 8, 455
1, 128658, Note_on_c, 9, 70, 0
1, 128658, Note_on_c, 9, 42, 0
1, 128658, Note_on_c, 9, 45, 0
1, 128658, Note_on_c, 9, 36, 0
1, 128658, Note_on_c, 9, 38, 0
1, 128658, Note_on_c, 9, 27, 0
1, 128658, Pitch_bend_c, 3, 910
1, 128658, Pitch_bend_c, 8, 910
1, 128666, Pitch_bend_c, 3, 1365
1, 128666, Pitch_bend_c, 8, 1365
1, 128674, Pitch_bend_c, 3, 1820
1, 128674, Pitch_bend_c, 8, 1820
1, 128682, Pitch_bend_c, 3, 2275
1, 128682, Pitch_bend_c, 8, 2275
1, 128690, Pitch_bend_c, 3, 2730
1, 128690, Pitch_bend_c, 8, 2730
1, 128698, Pitch_bend_c, 3, 3185
1, 128698, Pitch_bend_c, 8, 3185
1, 128706, Pitch_bend_c, 3, 3640
1, 128706, Pitch_bend_c, 8, 3640
1, 128714, Pitch_bend_c, 3, 4095
1, 128714, Pitch_bend_c, 8, 4095
1, 128722, Pitch_bend_c, 3, 4550
1, 128722, Pitch_bend_c, 8, 4550
1, 128730, Pitch_bend_c, 3, 5006
1, 128730, Pitch_bend_c, 8, 5006
1, 128736, Note_on_c, 9, 42, 75
1, 128738, Pitch_bend_c, 3, 5461
1, 128738, Pitch_bend_c, 8, 5461
1, 128746, Pitch_bend_c, 3, 5916
1, 128746, Pitch_bend_c, 8, 5916
1, 128754, Note_on_c, 9, 42, 0
1, 128754, Pitch_bend_c, 3, 6371
1, 128754, Pitch_bend_c, 8, 6371
1, 128762, Pitch_bend_c, 3, 6826
1, 128762, Pitch_bend_c, 8, 6826
1, 128770, Pitch_bend_c, 3, 7281
1, 128770, Pitch_bend_c, 8, 7281
1, 128778, Pitch_bend_c, 3, 8763
1, 128778, Pitch_bend_c, 8, 8763
1, 128832, Note_on_c, 1, 44, 83
1, 128832, Note_on_c, 1, 56, 89
1, 128832, Note_on_c, 9, 46, 107
1, 128832, Note_on_c, 9, 70, 66
1, 128832, Note_on_c, 11, 44, 83
1, 128832, Note_on_c, 11, 56, 89
1, 128841, Note_on_c, 11, 32, 0
1, 128841, Note_on_c, 1, 32, 0
1, 128850, Note_on_c, 9, 70, 0
1, 128850, Note_on_c, 9, 46, 0
1, 128871, Note_on_c, 3, 69, 0
1, 128871, Note_on_c, 8, 69, 0
1, 128922, Note_on_c, 11, 44, 0
1, 128922, Note_on_c, 1, 44, 0
1, 128926, Note_on_c, 1, 56, 0
1, 128926, Note_on_c, 11, 56, 0
1, 129024, Note_on_c, 1, 34, 65
1, 129024, Note_on_c, 1, 56, 65
1, 129024, Note_on_c, 3, 69, 122
1, 129024, Note_on_c, 8, 69, 127
1, 129024, Note_on_c, 9, 27, 127
1, 129024, Note_on_c, 9, 45, 107
1, 129024, Note_on_c, 9, 36, 127
1, 129024, Note_on_c, 9, 42, 66
1, 129024, Note_on_c, 9, 70, 92
1, 129024, Note_on_c, 11, 34, 65
1, 129024, Note_on_c, 11, 56, 65
1, 129042, Note_on_c, 9, 70, 0
1, 129042, Note_on_c, 9, 42, 0
1, 129042, Note_on_c, 9, 45, 0
1, 129042, Note_on_c, 9, 36, 0
1, 129042, Note_on_c, 9, 27, 0
1, 129118, Note_on_c, 11, 56, 0
1, 129118, Note_on_c, 1, 56, 0
1, 129120, Note_on_c, 9, 42, 75
1, 129138, Note_on_c, 9, 42, 0
1, 129216, Note_on_c, 1, 46, 94
1, 129216, Note_on_c, 1, 58, 92
1, 129216, Note_on_c, 9, 46, 107
1, 129216, Note_on_c, 11, 46, 94
1, 129216, Note_on_c, 11, 58, 92
1, 129226, Note_on_c, 3, 69, 0
1, 129226, Note_on_c, 8, 69, 0
1, 129234, Note_on_c, 9, 46, 0
1, 129239, Note_on_c, 1, 34, 0
1, 129239, Note_on_c, 11, 34, 0
1, 129306, Note_on_c, 1, 58, 0
1, 129306, Note_on_c, 11, 58, 0
1, 129306, Note_on_c, 11, 46, 0
1, 129306, Note_on_c, 1, 46, 0
1, 129312, Note_on_c, 9, 70, 44
1, 129330, Note_on_c, 9, 70, 0
1, 129408, Note_on_c, 1, 34, 68
1, 129408, Note_on_c, 9, 27, 127
1, 129408, Note_on_c, 9, 38, 127
1, 129408, Note_on_c, 9, 45, 107
1, 129408, Note_on_c, 9, 36, 127
1, 129408, Note_on_c, 9, 42, 66
1, 129408, Note_on_c, 9, 70, 92
1, 129408, Note_on_c, 11, 34, 68
1, 129426, Note_on_c, 9, 70, 0
1, 129426, Note_on_c, 9, 42, 0
1, 129426, Note_on_c, 9, 38, 0
1, 129426, Note_on_c, 9, 45, 0
1, 129426, Note_on_c, 9, 27, 0
1, 129426, Note_on_c, 9, 36, 0
1, 129504, Note_on_c, 9, 42, 75
1, 129522, Note_on_c, 9, 42, 0
1, 129600, Note_on_c, 1, 46, 85
1, 129600, Note_on_c, 1, 58, 92
1, 129600, Note_on_c, 9, 46, 107
1, 129600, Note_on_c, 9, 70, 80
1, 129600, Note_on_c, 11, 46, 85
1, 129600, Note_on_c, 11, 58, 92
1, 129608, Note_on_c, 1, 34, 0
1, 129608, Note_on_c, 11, 34, 0
1, 129618, Note_on_c, 9, 70, 0
1, 129618, Note_on_c, 9, 46, 0
1, 129690, Note_on_c, 11, 46, 0
1, 129690, Note_on_c, 1, 58, 0
1, 129690, Note_on_c, 11, 58, 0
1, 129690, Note_on_c, 1, 46, 0
1, 129792, Note_on_c, 1, 34, 68
1, 129792, Note_on_c, 3, 65, 122
1, 129792, Note_on_c, 8, 65, 127
1, 129792, Note_on_c, 9, 27, 127
1, 129792, Note_on_c, 9, 45, 107
1, 129792, Note_on_c, 9, 36, 127
1, 129792, Note_on_c, 9, 42, 66
1, 129792, Note_on_c, 9, 70, 86
1, 129792, Note_on_c, 11, 34, 68
1, 129810, Note_on_c, 9, 70, 0
1, 129810, Note_on_c, 9, 42, 0
1, 129810, Note_on_c, 9, 36, 0
1, 129810, Note_on_c, 9, 45, 0
1, 129810, Note_on_c, 9, 27, 0
1, 129888, Note_on_c, 9, 42, 75
1, 129906, Note_on_c, 9, 42, 0
1, 129984, Note_on_c, 1, 46, 87
1, 129984, Note_on_c, 1, 58, 92
1, 129984, Note_on_c, 9, 46, 107
1, 129984, Note_on_c, 9, 70, 13
1, 129984, Note_on_c, 11, 46, 87
1, 129984, Note_on_c, 11, 58, 92
1, 129992, Note_on_c, 11, 34, 0
1, 129992, Note_on_c, 1, 34, 0
1, 130002, Note_on_c, 9, 70, 0
1, 130002, Note_on_c, 9, 46, 0
1, 130036, Note_on_c, 3, 65, 0
1, 130036, Note_on_c, 8, 65, 0
1, 130074, Note_on_c, 1, 46, 0
1, 130074, Note_on_c, 11, 58, 0
1, 130074, Note_on_c, 1, 58, 0
1, 130074, Note_on_c, 11, 46, 0
1, 130080, Note_on_c, 9, 70, 26
1, 130098, Note_on_c, 9, 70, 0
1, 130170, Pitch_bend_c, 3, 0
1, 130170, Pitch_bend_c, 8, 0
1, 130176, Note_on_c, 1, 34, 64
1, 130176, Note_on_c, 3, 69, 122
1, 130176, Note_on_c, 8, 69, 127
1, 130176, Note_on_c, 9, 27, 127
1, 130176, Note_on_c, 9, 38, 127
1, 130176, Note_on_c, 9, 45, 107
1, 130176, Note_on_c, 9, 36, 127
1, 130176, Note_on_c, 9, 42, 66
1, 130176, Note_on_c, 9, 70, 92
1, 130176, Note_on_c, 11, 34, 64
1, 130178, Pitch_bend_c, 3, 455
1, 130178, Pitch_bend_c, 8, 455
1, 130186, Pitch_bend_c, 3, 910
1, 130186, Pitch_bend_c, 8, 910
1, 130194, Note_on_c, 9, 70, 0
1, 130194, Note_on_c, 9, 42, 0
1, 130194, Note_on_c, 9, 45, 0
1, 130194, Note_on_c, 9, 36, 0
1, 130194, Note_on_c, 9, 38, 0
1, 130194, Note_on_c, 9, 27, 0
1, 130194, Pitch_bend_c, 3, 1365
1, 130194, Pitch_bend_c, 8, 1365
1, 130202, Pitch_bend_c, 3, 1820
1, 130202, Pitch_bend_c, 8, 1820
1, 130210, Pitch_bend_c, 3, 2275
1, 130210, Pitch_bend_c, 8, 2275
1, 130218, Pitch_bend_c, 3, 2730
1, 130218, Pitch_bend_c, 8, 2730
1, 130226, Pitch_bend_c, 3, 3185
1, 130226, Pitch_bend_c, 8, 3185
1, 130234, Pitch_bend_c, 3, 3640
1, 130234, Pitch_bend_c, 8, 3640
1, 130242, Pitch_bend_c, 3, 4095
1, 130242, Pitch_bend_c, 8, 4095
1, 130250, Pitch_bend_c, 3, 4550
1, 130250, Pitch_bend_c, 8, 4550
1, 130258, Pitch_bend_c, 3, 5006
1, 130258, Pitch_bend_c, 8, 5006
1, 130266, Pitch_bend_c, 3, 5461
1, 130266, Pitch_bend_c, 8, 5461
1, 130272, Note_on_c, 9, 42, 75
1, 130274, Pitch_bend_c, 3, 5916
1, 130274, Pitch_bend_c, 8, 5916
1, 130282, Pitch_bend_c, 3, 6371
1, 130282, Pitch_bend_c, 8, 6371
1, 130290, Note_on_c, 9, 42, 0
1, 130290, Pitch_bend_c, 3, 6826
1, 130290, Pitch_bend_c, 8, 6826
1, 130298, Pitch_bend_c, 3, 7281
1, 130298, Pitch_bend_c, 8, 7281
1, 130306, Pitch_bend_c, 3, 8763
1, 130306, Pitch_bend_c, 8, 8763
1, 130358, Note_on_c, 11, 34, 0
1, 130358, Note_on_c, 1, 34, 0
1, 130368, Note_on_c, 1, 46, 85
1, 130368, Note_on_c, 1, 58, 89
1, 130368, Note_on_c, 9, 46, 107
1, 130368, Note_on_c, 9, 70, 63
1, 130368, Note_on_c, 11, 46, 85
1, 130368, Note_on_c, 11, 58, 89
1, 130386, Note_on_c, 9, 70, 0
1, 130386, Note_on_c, 9, 46, 0
1, 130407, Note_on_c, 8, 69, 0
1, 130407, Note_on_c, 3, 69, 0
1, 130458, Note_on_c, 11, 46, 0
1, 130458, Note_on_c, 1, 46, 0
1, 130462, Note_on_c, 1, 58, 0
1, 130462, Note_on_c, 11, 58, 0
1, 130464, Note_on_c, 9, 27, 127
1, 130464, Note_on_c, 9, 45, 107
1, 130464, Note_on_c, 9, 36, 127
1, 130482, Note_on_c, 9, 36, 0
1, 130482, Note_on_c, 9, 45, 0
1, 130482, Note_on_c, 9, 27, 0
1, 130560, Note_on_c, 1, 29, 74
1, 130560, Note_on_c, 3, 69, 122
1, 130560, Note_on_c, 8, 69, 127
1, 130560, Note_on_c, 8, 69, 127
1, 130560, Note_on_c, 9, 27, 127
1, 130560, Note_on_c, 9, 45, 107
1, 130560, Note_on_c, 9, 36, 127
1, 130560, Note_on_c, 9, 42, 66
1, 130560, Note_on_c, 9, 70, 92
1, 130560, Note_on_c, 11, 29, 74
1, 130578, Note_on_c, 9, 70, 0
1, 130578, Note_on_c, 9, 42, 0
1, 130578, Note_on_c, 9, 45, 0
1, 130578, Note_on_c, 9, 36, 0
1, 130578, Note_on_c, 9, 27, 0
1, 130656, Note_on_c, 9, 42, 75
1, 130674, Note_on_c, 9, 42, 0
1, 130719, Note_on_c, 1, 29, 0
1, 130719, Note_on_c, 11, 29, 0
1, 130752, Note_on_c, 1, 41, 100
1, 130752, Note_on_c, 1, 65, 92
1, 130752, Note_on_c, 9, 46, 107
1, 130752, Note_on_c, 11, 41, 100
1, 130752, Note_on_c, 11, 65, 92
1, 130762, Note_on_c, 8, 69, 0
1, 130762, Note_on_c, 3, 69, 0
1, 130770, Note_on_c, 9, 46, 0
1, 130842, Note_on_c, 1, 41, 0
1, 130842, Note_on_c, 11, 65, 0
1, 130842, Note_on_c, 11, 41, 0
1, 130842, Note_on_c, 1, 65, 0
1, 130848, Note_on_c, 9, 70, 40
1, 130866, Note_on_c, 9, 70, 0
1, 130944, Note_on_c, 1, 29, 74
1, 130944, Note_on_c, 9, 27, 127
1, 130944, Note_on_c, 9, 38, 127
1, 130944, Note_on_c, 9, 36, 127
1, 130944, Note_on_c, 9, 45, 107
1, 130944, Note_on_c, 9, 42, 66
1, 130944, Note_on_c, 9, 70, 86
1, 130944, Note_on_c, 11, 29, 74
1, 130962, Note_on_c, 9, 70, 0
1, 130962, Note_on_c, 9, 42, 0
1, 130962, Note_on_c, 9, 45, 0
1, 130962, Note_on_c, 9, 27, 0
1, 130962, Note_on_c, 9, 38, 0
1, 130962, Note_on_c, 9, 36, 0
1, 131040, Note_on_c, 9, 42, 75
1, 131058, Note_on_c, 9, 42, 0
1, 131136, Note_on_c, 1, 41, 110
1, 131136, Note_on_c, 1, 65, 92
1, 131136, Note_on_c, 9, 46, 92
1, 131136, Note_on_c, 9, 70, 80
1, 131136, Note_on_c, 11, 41, 110
1, 131136, Note_on_c, 11, 65, 92
1, 131142, Note_on_c, 1, 29, 0
1, 131142, Note_on_c, 11, 29, 0
1, 131154, Note_on_c, 9, 70, 0
1, 131154, Note_on_c, 9, 46, 0
1, 131226, Note_on_c, 11, 41, 0
1, 131226, Note_on_c, 1, 41, 0
1, 131226, Note_on_c, 11, 65, 0
1, 131226, Note_on_c, 1, 65, 0
1, 131328, Note_on_c, 1, 29, 71
1, 131328, Note_on_c, 3, 65, 122
1, 131328, Note_on_c, 8, 65, 127
1, 131328, Note_on_c, 9, 27, 127
1, 131328, Note_on_c, 9, 36, 127
1, 131328, Note_on_c, 9, 45, 107
1, 131328, Note_on_c, 9, 42, 66
1, 131328, Note_on_c, 9, 70, 92
1, 131328, Note_on_c, 11, 29, 71
1, 131346, Note_on_c, 9, 70, 0
1, 131346, Note_on_c, 9, 42, 0
1, 131346, Note_on_c, 9, 36, 0
1, 131346, Note_on_c, 9, 45, 0
1, 131346, Note_on_c, 9, 27, 0
1, 131424, Note_on_c, 9, 42, 75
1, 131442, Note_on_c, 9, 42, 0
1, 131520, Note_on_c, 1, 41, 102
1, 131520, Note_on_c, 1, 65, 92
1, 131520, Note_on_c, 9, 46, 107
1, 131520, Note_on_c, 9, 70, 20
1, 131520, Note_on_c, 11, 41, 102
1, 131520, Note_on_c, 11, 65, 92
1, 131528, Note_on_c, 1, 29, 0
1, 131528, Note_on_c, 11, 29, 0
1, 131538, Note_on_c, 9, 70, 0
1, 131538, Note_on_c, 9, 46, 0
1, 131572, Note_on_c, 8, 65, 0
1, 131572, Note_on_c, 3, 65, 0
1, 131610, Note_on_c, 1, 41, 0
1, 131610, Note_on_c, 11, 41, 0
1, 131610, Note_on_c, 1, 65, 0
1, 131610, Note_on_c, 11, 65, 0
1, 131616, Note_on_c, 9, 70, 49
1, 131634, Note_on_c, 9, 70, 0
1, 131712, Note_on_c, 1, 29, 74
1, 131712, Note_on_c, 3, 69, 122
1, 131712, Note_on_c, 8, 69, 127
1, 131712, Note_on_c, 9, 27, 127
1, 131712, Note_on_c, 9, 38, 127
1, 131712, Note_on_c, 9, 45, 107
1, 131712, Note_on_c, 9, 36, 127
1, 131712, Note_on_c, 9, 42, 66
1, 131712, Note_on_c, 9, 70, 76
1, 131712, Note_on_c, 11, 29, 74
1, 131722, Pitch_bend_c, 3, 0
1, 131722, Pitch_bend_c, 8, 0
1, 131730, Note_on_c, 9, 70, 0
1, 131730, Note_on_c, 9, 42, 0
1, 131730, Note_on_c, 9, 45, 0
1, 131730, Note_on_c, 9, 38, 0
1, 131730, Note_on_c, 9, 36, 0
1, 131730, Note_on_c, 9, 27, 0
1, 131730, Pitch_bend_c, 3, 455
1, 131730, Pitch_bend_c, 8, 455
1, 131738, Pitch_bend_c, 3, 910
1, 131738, Pitch_bend_c, 8, 910
1, 131746, Pitch_bend_c, 3, 1365
1, 131746, Pitch_bend_c, 8, 1365
1, 131754, Pitch_bend_c, 3, 1820
1, 131754, Pitch_bend_c, 8, 1820
1, 131762, Pitch_bend_c, 3, 2275
1, 131762, Pitch_bend_c, 8, 2275
1, 131770, Pitch_bend_c, 3, 2730
1, 131770, Pitch_bend_c, 8, 2730
1, 131778, Pitch_bend_c, 3, 3185
1, 131778, Pitch_bend_c, 8, 3185
1, 131786, Pitch_bend_c, 3, 3640
1, 131786, Pitch_bend_c, 8, 3640
1, 131794, Pitch_bend_c, 3, 4095
1, 131794, Pitch_bend_c, 8, 4095
1, 131802, Pitch_bend_c, 3, 4550
1, 131802, Pitch_bend_c, 8, 4550
1, 131808, Note_on_c, 9, 42, 75
1, 131810, Pitch_bend_c, 3, 5006
1, 131810, Pitch_bend_c, 8, 5006
1, 131818, Pitch_bend_c, 3, 5461
1, 131818, Pitch_bend_c, 8, 5461
1, 131826, Note_on_c, 9, 42, 0
1, 131826, Pitch_bend_c, 3, 5916
1, 131826, Pitch_bend_c, 8, 5916
1, 131834, Pitch_bend_c, 3, 6371
1, 131834, Pitch_bend_c, 8, 6371
1, 131842, Pitch_bend_c, 3, 6826
1, 131842, Pitch_bend_c, 8, 6826
1, 131850, Pitch_bend_c, 3, 7281
1, 131850, Pitch_bend_c, 8, 7281
1, 131858, Pitch_bend_c, 3, 8763
1, 131858, Pitch_bend_c, 8, 8763
1, 131904, Note_on_c, 1, 41, 83
1, 131904, Note_on_c, 1, 65, 89
1, 131904, Note_on_c, 9, 46, 107
1, 131904, Note_on_c, 9, 70, 66
1, 131904, Note_on_c, 11, 41, 83
1, 131904, Note_on_c, 11, 65, 89
1, 131913, Note_on_c, 11, 29, 0
1, 131913, Note_on_c, 1, 29, 0
1, 131922, Note_on_c, 9, 70, 0
1, 131922, Note_on_c, 9, 46, 0
1, 131943, Note_on_c, 3, 69, 0
1, 131943, Note_on_c, 8, 69, 0
1, 131994, Note_on_c, 11, 41, 0
1, 131994, Note_on_c, 1, 41, 0
1, 131998, Note_on_c, 1, 65, 0
1, 131998, Note_on_c, 11, 65, 0
1, 132096, Note_on_c, 1, 29, 68
1, 132096, Note_on_c, 3, 69, 122
1, 132096, Note_on_c, 8, 69, 127
1, 132096, Note_on_c, 9, 27, 127
1, 132096, Note_on_c, 9, 45, 107
1, 132096, Note_on_c, 9, 36, 127
1, 132096, Note_on_c, 9, 42, 66
1, 132096, Note_on_c, 9, 70, 92
1, 132096, Note_on_c, 11, 29, 68
1, 132114, Note_on_c, 9, 70, 0
1, 132114, Note_on_c, 9, 42, 0
1, 132114, Note_on_c, 9, 45, 0
1, 132114, Note_on_c, 9, 36, 0
1, 132114, Note_on_c, 9, 27, 0
1, 132192, Note_on_c, 9, 42, 75
1, 132210, Note_on_c, 9, 42, 0
1, 132288, Note_on_c, 1, 41, 94
1, 132288, Note_on_c, 1, 65, 92
1, 132288, Note_on_c, 9, 46, 107
1, 132288, Note_on_c, 11, 41, 94
1, 132288, Note_on_c, 11, 65, 92
1, 132298, Note_on_c, 3, 69, 0
1, 132298, Note_on_c, 8, 69, 0
1, 132306, Note_on_c, 9, 46, 0
1, 132311, Note_on_c, 11, 29, 0
1, 132311, Note_on_c, 1, 29, 0
1, 132378, Note_on_c, 1, 41, 0
1, 132378, Note_on_c, 1, 65, 0
1, 132378, Note_on_c, 11, 65, 0
1, 132378, Note_on_c, 11, 41, 0
1, 132384, Note_on_c, 9, 70, 44
1, 132402, Note_on_c, 9, 70, 0
1, 132480, Note_on_c, 1, 29, 71
1, 132480, Note_on_c, 9, 27, 127
1, 132480, Note_on_c, 9, 38, 127
1, 132480, Note_on_c, 9, 45, 107
1, 132480, Note_on_c, 9, 36, 127
1, 132480, Note_on_c, 9, 42, 66
1, 132480, Note_on_c, 9, 70, 92
1, 132480, Note_on_c, 11, 29, 71
1, 132498, Note_on_c, 9, 70, 0
1, 132498, Note_on_c, 9, 42, 0
1, 132498, Note_on_c, 9, 36, 0
1, 132498, Note_on_c, 9, 27, 0
1, 132498, Note_on_c, 9, 38, 0
1, 132498, Note_on_c, 9, 45, 0
1, 132576, Note_on_c, 9, 42, 75
1, 132594, Note_on_c, 9, 42, 0
1, 132672, Note_on_c, 1, 41, 85
1, 132672, Note_on_c, 1, 65, 92
1, 132672, Note_on_c, 9, 46, 107
1, 132672, Note_on_c, 9, 70, 80
1, 132672, Note_on_c, 11, 41, 85
1, 132672, Note_on_c, 11, 65, 92
1, 132680, Note_on_c, 1, 29, 0
1, 132680, Note_on_c, 11, 29, 0
1, 132690, Note_on_c, 9, 70, 0
1, 132690, Note_on_c, 9, 46, 0
1, 132762, Note_on_c, 11, 41, 0
1, 132762, Note_on_c, 1, 41, 0
1, 132762, Note_on_c, 11, 65, 0
1, 132762, Note_on_c, 1, 65, 0
1, 132864, Note_on_c, 1, 29, 71
1, 132864, Note_on_c, 3, 65, 122
1, 132864, Note_on_c, 8, 65, 127
1, 132864, Note_on_c, 9, 27, 127
1, 132864, Note_on_c, 9, 45, 107
1, 132864, Note_on_c, 9, 36, 127
1, 132864, Note_on_c, 9, 42, 66
1, 132864, Note_on_c, 9, 70, 86
1, 132864, Note_on_c, 11, 29, 71
1, 132882, Note_on_c, 9, 70, 0
1, 132882, Note_on_c, 9, 42, 0
1, 132882, Note_on_c, 9, 45, 0
1, 132882, Note_on_c, 9, 36, 0
1, 132882, Note_on_c, 9, 27, 0
1, 132960, Note_on_c, 9, 42, 75
1, 132978, Note_on_c, 9, 42, 0
1, 133056, Note_on_c, 1, 41, 87
1, 133056, Note_on_c, 1, 65, 92
1, 133056, Note_on_c, 9, 46, 107
1, 133056, Note_on_c, 9, 70, 13
1, 133056, Note_on_c, 11, 41, 87
1, 133056, Note_on_c, 11, 65, 92
1, 133064, Note_on_c, 1, 29, 0
1, 133064, Note_on_c, 11, 29, 0
1, 133074, Note_on_c, 9, 70, 0
1, 133074, Note_on_c, 9, 46, 0
1, 133108, Note_on_c, 8, 65, 0
1, 133108, Note_on_c, 3, 65, 0
1, 133146, Note_on_c, 1, 41, 0
1, 133146, Note_on_c, 11, 41, 0
1, 133146, Note_on_c, 1, 65, 0
1, 133146, Note_on_c, 11, 65, 0
1, 133152, Note_on_c, 9, 70, 26
1, 133170, Note_on_c, 9, 70, 0
1, 133234, Pitch_bend_c, 3, 0
1, 133234, Pitch_bend_c, 8, 0
1, 133242, Pitch_bend_c, 3, 455
1, 133242, Pitch_bend_c, 8, 455
1, 133248, Note_on_c, 1, 29, 85
1, 133248, Note_on_c, 1, 63, 89
1, 133248, Note_on_c, 3, 69, 122
1, 133248, Note_on_c, 8, 69, 127
1, 133248, Note_on_c, 9, 27, 127
1, 133248, Note_on_c, 9, 38, 127
1, 133248, Note_on_c, 9, 45, 107
1, 133248, Note_on_c, 9, 36, 127
1, 133248, Note_on_c, 9, 42, 66
1, 133248, Note_on_c, 9, 70, 92
1, 133248, Note_on_c, 11, 29, 85
1, 133248, Note_on_c, 11, 63, 89
1, 133250, Pitch_bend_c, 3, 910
1, 133250, Pitch_bend_c, 8, 910
1, 133258, Pitch_bend_c, 3, 1365
1, 133258, Pitch_bend_c, 8, 1365
1, 133266, Note_on_c, 9, 70, 0
1, 133266, Note_on_c, 9, 36, 0
1, 133266, Note_on_c, 9, 27, 0
1, 133266, Note_on_c, 9, 45, 0
1, 133266, Note_on_c, 9, 38, 0
1, 133266, Note_on_c, 9, 42, 0
1, 133266, Pitch_bend_c, 3, 1820
1, 133266, Pitch_bend_c, 8, 1820
1, 133274, Pitch_bend_c, 3, 2275
1, 133274, Pitch_bend_c, 8, 2275
1, 133282, Pitch_bend_c, 3, 2730
1, 133282, Pitch_bend_c, 8, 2730
1, 133290, Pitch_bend_c, 3, 3185
1, 133290, Pitch_bend_c, 8, 3185
1, 133298, Pitch_bend_c, 3, 3640
1, 133298, Pitch_bend_c, 8, 3640
1, 133306, Pitch_bend_c, 3, 4095
1, 133306, Pitch_bend_c, 8, 4095
1, 133314, Pitch_bend_c, 3, 4550
1, 133314, Pitch_bend_c, 8, 4550
1, 133322, Pitch_bend_c, 3, 5006
1, 133322, Pitch_bend_c, 8, 5006
1, 133330, Pitch_bend_c, 3, 5461
1, 133330, Pitch_bend_c, 8, 5461
1, 133338, Pitch_bend_c, 3, 5916
1, 133338, Pitch_bend_c, 8, 5916
1, 133342, Note_on_c, 1, 63, 0
1, 133342, Note_on_c, 11, 63, 0
1, 133344, Note_on_c, 9, 42, 75
1, 133346, Pitch_bend_c, 3, 6371
1, 133346, Pitch_bend_c, 8, 6371
1, 133354, Pitch_bend_c, 3, 6826
1, 133354, Pitch_bend_c, 8, 6826
1, 133362, Note_on_c, 9, 42, 0
1, 133362, Pitch_bend_c, 3, 7281
1, 133362, Pitch_bend_c, 8, 7281
1, 133370, Pitch_bend_c, 3, 8763
1, 133370, Pitch_bend_c, 8, 8763
1, 133430, Note_on_c, 11, 29, 0
1, 133430, Note_on_c, 1, 29, 0
1, 133440, Note_on_c, 1, 41, 85
1, 133440, Note_on_c, 1, 65, 89
1, 133440, Note_on_c, 9, 46, 107
1, 133440, Note_on_c, 9, 70, 63
1, 133440, Note_on_c, 11, 41, 85
1, 133440, Note_on_c, 11, 65, 89
1, 133458, Note_on_c, 9, 70, 0
1, 133458, Note_on_c, 9, 46, 0
1, 133479, Note_on_c, 8, 69, 0
1, 133479, Note_on_c, 3, 69, 0
1, 133530, Note_on_c, 11, 41, 0
1, 133530, Note_on_c, 1, 41, 0
1, 133534, Note_on_c, 11, 65, 0
1, 133534, Note_on_c, 1, 65, 0
1, 133632, Note_on_c, 1, 32, 71
1, 133632, Note_on_c, 1, 53, 71
1, 133632, Note_on_c, 1, 65, 71
1, 133632, Note_on_c, 3, 69, 122
1, 133632, Note_on_c, 8, 69, 127
1, 133632, Note_on_c, 9, 27, 127
1, 133632, Note_on_c, 9, 45, 107
1, 133632, Note_on_c, 9, 36, 127
1, 133632, Note_on_c, 9, 42, 76
1, 133632, Note_on_c, 9, 70, 102
1, 133632, Note_on_c, 11, 32, 71
1, 133632, Note_on_c, 11, 53, 71
1, 133632, Note_on_c, 11, 65, 71
1, 133650, Note_on_c, 9, 70, 0
1, 133650, Note_on_c, 9, 36, 0
1, 133650, Note_on_c, 9, 45, 0
1, 133650, Note_on_c, 9, 27, 0
1, 133650, Note_on_c, 9, 42, 0
1, 133726, Note_on_c, 1, 65, 0
1, 133726, Note_on_c, 1, 53, 0
1, 133726, Note_on_c, 11, 53, 0
1, 133726, Note_on_c, 11, 65, 0
1, 133728, Note_on_c, 9, 42, 85
1, 133746, Note_on_c, 9, 42, 0
1, 133791, Note_on_c, 11, 32, 0
1, 133791, Note_on_c, 1, 32, 0
1, 133824, Note_on_c, 1, 44, 100
1, 133824, Note_on_c, 1, 56, 92
1, 133824, Note_on_c, 9, 46, 117
1, 133824, Note_on_c, 11, 44, 100
1, 133824, Note_on_c, 11, 56, 92
1, 133834, Note_on_c, 8, 69, 0
1, 133834, Note_on_c, 3, 69, 0
1, 133842, Note_on_c, 9, 46, 0
1, 133914, Note_on_c, 11, 44, 0
1, 133914, Note_on_c, 11, 56, 0
1, 133914, Note_on_c, 1, 44, 0
1, 133914, Note_on_c, 1, 56, 0
1, 133920, Note_on_c, 9, 70, 50
1, 133938, Note_on_c, 9, 70, 0
1, 134016, Note_on_c, 1, 32, 77
1, 134016, Note_on_c, 9, 27, 127
1, 134016, Note_on_c, 9, 38, 127
1, 134016, Note_on_c, 9, 45, 107
1, 134016, Note_on_c, 9, 36, 127
1, 134016, Note_on_c, 9, 42, 76
1, 134016, Note_on_c, 9, 70, 96
1, 134016, Note_on_c, 11, 32, 77
1, 134034, Note_on_c, 9, 70, 0
1, 134034, Note_on_c, 9, 42, 0
1, 134034, Note_on_c, 9, 36, 0
1, 134034, Note_on_c, 9, 27, 0
1, 134034, Note_on_c, 9, 38, 0
1, 134034, Note_on_c, 9, 45, 0
1, 134112, Note_on_c, 9, 42, 85
1, 134130, Note_on_c, 9, 42, 0
1, 134208, Note_on_c, 1, 44, 100
1, 134208, Note_on_c, 1, 56, 92
1, 134208, Note_on_c, 9, 46, 102
1, 134208, Note_on_c, 9, 70, 90
1, 134208, Note_on_c, 11, 44, 100
1, 134208, Note_on_c, 11, 56, 92
1, 134214, Note_on_c, 1, 32, 0
1, 134214, Note_on_c, 11, 32, 0
1, 134226, Note_on_c, 9, 70, 0
1, 134226, Note_on_c, 9, 46, 0
1, 134298, Note_on_c, 11, 44, 0
1, 134298, Note_on_c, 1, 44, 0
1, 134298, Note_on_c, 11, 56, 0
1, 134298, Note_on_c, 1, 56, 0
1, 134400, Note_on_c, 1, 32, 74
1, 134400, Note_on_c, 3, 65, 122
1, 134400, Note_on_c, 8, 65, 127
1, 134400, Note_on_c, 9, 27, 127
1, 134400, Note_on_c, 9, 45, 107
1, 134400, Note_on_c, 9, 36, 127
1, 134400, Note_on_c, 9, 42, 76
1, 134400, Note_on_c, 9, 70, 102
1, 134400, Note_on_c, 11, 32, 74
1, 134418, Note_on_c, 9, 70, 0
1, 134418, Note_on_c, 9, 42, 0
1, 134418, Note_on_c, 9, 45, 0
1, 134418, Note_on_c, 9, 36, 0
1, 134418, Note_on_c, 9, 27, 0
1, 134496, Note_on_c, 9, 42, 85
1, 134514, Note_on_c, 9, 42, 0
1, 134592, Note_on_c, 1, 44, 102
1, 134592, Note_on_c, 1, 56, 92
1, 134592, Note_on_c, 9, 46, 117
1, 134592, Note_on_c, 9, 70, 30
1, 134592, Note_on_c, 11, 44, 102
1, 134592, Note_on_c, 11, 56, 92
1, 134600, Note_on_c, 1, 32, 0
1, 134600, Note_on_c, 11, 32, 0
1, 134610, Note_on_c, 9, 70, 0
1, 134610, Note_on_c, 9, 46, 0
1, 134644, Note_on_c, 8, 65, 0
1, 134644, Note_on_c, 3, 65, 0
1, 134682, Note_on_c, 1, 44, 0
1, 134682, Note_on_c, 11, 44, 0
1, 134682, Note_on_c, 1, 56, 0
1, 134682, Note_on_c, 11, 56, 0
1, 134688, Note_on_c, 9, 70, 59
1, 134706, Note_on_c, 9, 70, 0
1, 134778, Pitch_bend_c, 3, 0
1, 134778, Pitch_bend_c, 8, 0
1, 134784, Note_on_c, 1, 32, 74
1, 134784, Note_on_c, 3, 69, 122
1, 134784, Note_on_c, 8, 69, 127
1, 134784, Note_on_c, 9, 27, 127
1, 134784, Note_on_c, 9, 38, 127
1, 134784, Note_on_c, 9, 45, 107
1, 134784, Note_on_c, 9, 36, 127
1, 134784, Note_on_c, 9, 42, 76
1, 134784, Note_on_c, 9, 70, 86
1, 134784, Note_on_c, 11, 32, 74
1, 134786, Pitch_bend_c, 3, 455
1, 134786, Pitch_bend_c, 8, 455
1, 134794, Pitch_bend_c, 3, 910
1, 134794, Pitch_bend_c, 8, 910
1, 134802, Note_on_c, 9, 70, 0
1, 134802, Note_on_c, 9, 42, 0
1, 134802, Note_on_c, 9, 45, 0
1, 134802, Note_on_c, 9, 38, 0
1, 134802, Note_on_c, 9, 36, 0
1, 134802, Note_on_c, 9, 27, 0
1, 134802, Pitch_bend_c, 3, 1365
1, 134802, Pitch_bend_c, 8, 1365
1, 134810, Pitch_bend_c, 3, 1820
1, 134810, Pitch_bend_c, 8, 1820
1, 134818, Pitch_bend_c, 3, 2275
1, 134818, Pitch_bend_c, 8, 2275
1, 134826, Pitch_bend_c, 3, 2730
1, 134826, Pitch_bend_c, 8, 2730
1, 134834, Pitch_bend_c, 3, 3185
1, 134834, Pitch_bend_c, 8, 3185
1, 134842, Pitch_bend_c, 3, 3640
1, 134842, Pitch_bend_c, 8, 3640
1, 134850, Pitch_bend_c, 3, 4095
1, 134850, Pitch_bend_c, 8, 4095
1, 134858, Pitch_bend_c, 3, 4550
1, 134858, Pitch_bend_c, 8, 4550
1, 134866, Pitch_bend_c, 3, 5006
1, 134866, Pitch_bend_c, 8, 5006
1, 134874, Pitch_bend_c, 3, 5461
1, 134874, Pitch_bend_c, 8, 5461
1, 134880, Note_on_c, 9, 42, 85
1, 134882, Pitch_bend_c, 3, 5916
1, 134882, Pitch_bend_c, 8, 5916
1, 134890, Pitch_bend_c, 3, 6371
1, 134890, Pitch_bend_c, 8, 6371
1, 134898, Note_on_c, 9, 42, 0
1, 134898, Pitch_bend_c, 3, 6826
1, 134898, Pitch_bend_c, 8, 6826
1, 134906, Pitch_bend_c, 3, 7281
1, 134906, Pitch_bend_c, 8, 7281
1, 134914, Pitch_bend_c, 3, 8763
1, 134914, Pitch_bend_c, 8, 8763
1, 134976, Note_on_c, 1, 44, 83
1, 134976, Note_on_c, 1, 56, 89
1, 134976, Note_on_c, 9, 46, 117
1, 134976, Note_on_c, 9, 70, 76
1, 134976, Note_on_c, 11, 44, 83
1, 134976, Note_on_c, 11, 56, 89
1, 134985, Note_on_c, 11, 32, 0
1, 134985, Note_on_c, 1, 32, 0
1, 134994, Note_on_c, 9, 70, 0
1, 134994, Note_on_c, 9, 46, 0
1, 135015, Note_on_c, 3, 69, 0
1, 135015, Note_on_c, 8, 69, 0
1, 135066, Note_on_c, 11, 44, 0
1, 135066, Note_on_c, 1, 44, 0
1, 135070, Note_on_c, 1, 56, 0
1, 135070, Note_on_c, 11, 56, 0
1, 135168, Note_on_c, 3, 69, 122
1, 135168, Note_on_c, 8, 69, 127
1, 135168, Note_on_c, 11, 57, 43
1, 135168, Note_on_c, 12, 57, 93
1, 135170, Control_c, 11, 11, 127
1, 135170, Control_c, 12, 11, 127
1, 135171, Pitch_bend_c, 1, 8192
1, 135211, Note_on_c, 12, 57, 0
1, 135211, Note_on_c, 11, 57, 0
1, 135218, Control_c, 11, 10, 5
1, 135218, Control_c, 12, 10, 5
1, 135264, Note_on_c, 11, 57, 43
1, 135264, Note_on_c, 12, 57, 50
1, 135266, Control_c, 11, 10, 13
1, 135266, Control_c, 12, 10, 13
1, 135298, Note_on_c, 12, 57, 0
1, 135298, Note_on_c, 11, 57, 0
1, 135314, Control_c, 11, 10, 20
1, 135314, Control_c, 12, 10, 20
1, 135360, Note_on_c, 11, 57, 43
1, 135360, Note_on_c, 12, 57, 85
1, 135362, Control_c, 11, 10, 27
1, 135362, Control_c, 12, 10, 27
1, 135370, Note_on_c, 3, 69, 0
1, 135370, Note_on_c, 8, 69, 0
1, 135403, Note_on_c, 11, 57, 0
1, 135403, Note_on_c, 12, 57, 0
1, 135410, Control_c, 11, 10, 34
1, 135410, Control_c, 12, 10, 34
1, 135456, Note_on_c, 11, 57, 43
1, 135456, Note_on_c, 12, 57, 43
1, 135458, Control_c, 11, 10, 41
1, 135458, Control_c, 12, 10, 41
1, 135490, Note_on_c, 12, 57, 0
1, 135490, Note_on_c, 11, 57, 0
1, 135506, Control_c, 11, 10, 49
1, 135506, Control_c, 12, 10, 49
1, 135552, Note_on_c, 11, 57, 48
1, 135552, Note_on_c, 12, 57, 66
1, 135554, Control_c, 11, 10, 56
1, 135554, Control_c, 12, 10, 56
1, 135595, Note_on_c, 12, 57, 0
1, 135595, Note_on_c, 11, 57, 0
1, 135602, Control_c, 11, 10, 63
1, 135602, Control_c, 12, 10, 63
1, 135648, Note_on_c, 11, 57, 53
1, 135648, Note_on_c, 12, 57, 52
1, 135650, Control_c, 11, 10, 70
1, 135650, Control_c, 12, 10, 70
1, 135682, Note_on_c, 12, 57, 0
1, 135682, Note_on_c, 11, 57, 0
1, 135698, Control_c, 11, 10, 77
1, 135698, Control_c, 12, 10, 77
1, 135744, Note_on_c, 11, 57, 60
1, 135744, Note_on_c, 12, 57, 66
1, 135746, Control_c, 11, 10, 84
1, 135746, Control_c, 12, 10, 84
1, 135787, Note_on_c, 12, 57, 0
1, 135787, Note_on_c, 11, 57, 0
1, 135794, Control_c, 11, 10, 92
1, 135794, Control_c, 12, 10, 92
1, 135840, Note_on_c, 11, 57, 67
1, 135840, Note_on_c, 12, 57, 75
1, 135842, Control_c, 11, 10, 99
1, 135842, Control_c, 12, 10, 99
1, 135874, Note_on_c, 12, 57, 0
1, 135874, Note_on_c, 11, 57, 0
1, 135890, Control_c, 11, 10, 106
1, 135890, Control_c, 12, 10, 106
1, 135936, Note_on_c, 3, 65, 122
1, 135936, Note_on_c, 11, 57, 67
1, 135936, Note_on_c, 12, 57, 89
1, 135938, Control_c, 11, 10, 113
1, 135938, Control_c, 12, 10, 113
1, 135979, Note_on_c, 12, 57, 0
1, 135979, Note_on_c, 11, 57, 0
1, 135986, Control_c, 11, 10, 120
1, 135986, Control_c, 12, 10, 120
1, 136032, Note_on_c, 11, 57, 67
1, 136032, Note_on_c, 12, 57, 91
1, 136066, Note_on_c, 12, 57, 0
1, 136066, Note_on_c, 11, 57, 0
1, 136128, Note_on_c, 11, 57, 67
1, 136128, Note_on_c, 12, 57, 91
1, 136171, Note_on_c, 12, 57, 0
1, 136171, Note_on_c, 11, 57, 0
1, 136180, Note_on_c, 3, 65, 0
1, 136224, Note_on_c, 11, 57, 67
1, 136224, Note_on_c, 12, 57, 88
1, 136258, Note_on_c, 12, 57, 0
1, 136258, Note_on_c, 11, 57, 0
1, 136320, Note_on_c, 3, 69, 122
1, 136320, Note_on_c, 9, 38, 83
1, 136320, Note_on_c, 11, 57, 67
1, 136320, Note_on_c, 12, 57, 83
1, 136338, Note_on_c, 9, 38, 0
1, 136363, Note_on_c, 11, 57, 0
1, 136363, Note_on_c, 12, 57, 0
1, 136368, Note_on_c, 9, 38, 87
1, 136386, Note_on_c, 9, 38, 0
1, 136416, Note_on_c, 9, 38, 92
1, 136416, Note_on_c, 11, 57, 67
1, 136416, Note_on_c, 12, 57, 78
1, 136434, Note_on_c, 9, 38, 0
1, 136450, Note_on_c, 11, 57, 0
1, 136450, Note_on_c, 12, 57, 0
1, 136464, Note_on_c, 9, 38, 96
1, 136482, Note_on_c, 9, 38, 0
1, 136512, Note_on_c, 9, 38, 101
1, 136512, Note_on_c, 11, 57, 67
1, 136512, Note_on_c, 12, 57, 75
1, 136530, Note_on_c, 9, 38, 0
1, 136551, Note_on_c, 3, 69, 0
1, 136555, Note_on_c, 11, 57, 0
1, 136555, Note_on_c, 12, 57, 0
1, 136560, Note_on_c, 9, 38, 105
1, 136578, Note_on_c, 9, 38, 0
1, 136608, Note_on_c, 9, 38, 110
1, 136608, Note_on_c, 11, 57, 60
1, 136608, Note_on_c, 12, 57, 69
1, 136626, Note_on_c, 9, 38, 0
1, 136642, Note_on_c, 11, 57, 0
1, 136642, Note_on_c, 12, 57, 0
1, 136656, Note_on_c, 9, 38, 114
1, 136674, Note_on_c, 9, 38, 0
1, 136704, Note_on_c, 1, 29, 74
1, 136704, Note_on_c, 3, 69, 122
1, 136704, Note_on_c, 8, 69, 127
1, 136704, Note_on_c, 9, 27, 127
1, 136704, Note_on_c, 9, 45, 107
1, 136704, Note_on_c, 9, 36, 127
1, 136704, Note_on_c, 9, 42, 66
1, 136704, Note_on_c, 9, 70, 92
1, 136704, Note_on_c, 11, 29, 74
1, 136704, Note_on_c, 12, 53, 80
1, 136706, Control_c, 1, 11, 102
1, 136706, Control_c, 11, 11, 92
1, 136706, Control_c, 12, 11, 127
1, 136722, Note_on_c, 9, 70, 0
1, 136722, Note_on_c, 9, 42, 0
1, 136722, Note_on_c, 9, 45, 0
1, 136722, Note_on_c, 9, 36, 0
1, 136722, Note_on_c, 9, 27, 0
1, 136747, Note_on_c, 12, 53, 0
1, 136754, Control_c, 12, 10, 5
1, 136800, Note_on_c, 9, 42, 75
1, 136800, Note_on_c, 12, 53, 73
1, 136802, Control_c, 12, 10, 13
1, 136802, Control_c, 12, 6, 25
1, 136818, Note_on_c, 9, 42, 0
1, 136834, Note_on_c, 12, 53, 0
1, 136850, Control_c, 12, 10, 20
1, 136863, Note_on_c, 1, 29, 0
1, 136863, Note_on_c, 11, 29, 0
1, 136896, Note_on_c, 1, 41, 100
1, 136896, Note_on_c, 1, 65, 92
1, 136896, Note_on_c, 9, 46, 107
1, 136896, Note_on_c, 11, 41, 100
1, 136896, Note_on_c, 11, 65, 92
1, 136896, Note_on_c, 12, 53, 80
1, 136898, Control_c, 12, 10, 27
1, 136906, Note_on_c, 8, 69, 0
1, 136906, Note_on_c, 3, 69, 0
1, 136914, Note_on_c, 9, 46, 0
1, 136939, Note_on_c, 12, 53, 0
1, 136946, Control_c, 12, 10, 34
1, 136970, Control_c, 12, 6, 40
1, 136986, Note_on_c, 11, 41, 0
1, 136986, Note_on_c, 1, 65, 0
1, 136986, Note_on_c, 11, 65, 0
1, 136986, Note_on_c, 1, 41, 0
1, 136992, Note_on_c, 9, 70, 40
1, 136992, Note_on_c, 12, 53, 73
1, 136994, Control_c, 12, 10, 41
1, 137010, Note_on_c, 9, 70, 0
1, 137026, Note_on_c, 12, 53, 0
1, 137042, Control_c, 12, 10, 49
1, 137088, Note_on_c, 1, 29, 74
1, 137088, Note_on_c, 9, 27, 127
1, 137088, Note_on_c, 9, 39, 127
1, 137088, Note_on_c, 9, 38, 127
1, 137088, Note_on_c, 9, 36, 127
1, 137088, Note_on_c, 9, 45, 107
1, 137088, Note_on_c, 9, 42, 66
1, 137088, Note_on_c, 9, 70, 86
1, 137088, Note_on_c, 11, 29, 74
1, 137088, Note_on_c, 12, 53, 80
1, 137090, Control_c, 12, 10, 56
1, 137106, Note_on_c, 9, 70, 0
1, 137106, Note_on_c, 9, 42, 0
1, 137106, Note_on_c, 9, 36, 0
1, 137106, Note_on_c, 9, 27, 0
1, 137106, Note_on_c, 9, 45, 0
1, 137106, Note_on_c, 9, 38, 0
1, 137106, Note_on_c, 9, 39, 0
1, 137131, Note_on_c, 12, 53, 0
1, 137138, Control_c, 12, 10, 63
1, 137174, Control_c, 12, 6, 60
1, 137184, Note_on_c, 9, 42, 75
1, 137184, Note_on_c, 12, 53, 73
1, 137186, Control_c, 12, 10, 70
1, 137202, Note_on_c, 9, 42, 0
1, 137218, Note_on_c, 12, 53, 0
1, 137234, Control_c, 12, 10, 77
1, 137280, Note_on_c, 1, 41, 110
1, 137280, Note_on_c, 1, 65, 92
1, 137280, Note_on_c, 9, 46, 92
1, 137280, Note_on_c, 9, 70, 80
1, 137280, Note_on_c, 11, 41, 110
1, 137280, Note_on_c, 11, 65, 92
1, 137280, Note_on_c, 12, 53, 80
1, 137282, Control_c, 12, 10, 84
1, 137286, Note_on_c, 11, 29, 0
1, 137286, Note_on_c, 1, 29, 0
1, 137298, Note_on_c, 9, 70, 0
1, 137298, Note_on_c, 9, 46, 0
1, 137323, Note_on_c, 12, 53, 0
1, 137330, Control_c, 12, 10, 92
1, 137354, Control_c, 12, 6, 85
1, 137370, Note_on_c, 1, 65, 0
1, 137370, Note_on_c, 11, 65, 0
1, 137370, Note_on_c, 1, 41, 0
1, 137370, Note_on_c, 11, 41, 0
1, 137376, Note_on_c, 12, 53, 73
1, 137378, Control_c, 12, 10, 99
1, 137410, Note_on_c, 12, 53, 0
1, 137426, Control_c, 12, 10, 106
1, 137472, Note_on_c, 1, 29, 71
1, 137472, Note_on_c, 3, 65, 122
1, 137472, Note_on_c, 8, 65, 127
1, 137472, Note_on_c, 9, 27, 127
1, 137472, Note_on_c, 9, 36, 127
1, 137472, Note_on_c, 9, 45, 107
1, 137472, Note_on_c, 9, 42, 66
1, 137472, Note_on_c, 9, 70, 92
1, 137472, Note_on_c, 11, 29, 71
1, 137472, Note_on_c, 12, 53, 80
1, 137474, Control_c, 12, 10, 113
1, 137490, Note_on_c, 9, 70, 0
1, 137490, Note_on_c, 9, 42, 0
1, 137490, Note_on_c, 9, 36, 0
1, 137490, Note_on_c, 9, 45, 0
1, 137490, Note_on_c, 9, 27, 0
1, 137515, Note_on_c, 12, 53, 0
1, 137522, Control_c, 12, 10, 120
1, 137568, Note_on_c, 9, 42, 75
1, 137568, Note_on_c, 12, 53, 73
1, 137570, Control_c, 12, 6, 110
1, 137586, Note_on_c, 9, 42, 0
1, 137602, Note_on_c, 12, 53, 0
1, 137664, Note_on_c, 1, 41, 102
1, 137664, Note_on_c, 1, 65, 92
1, 137664, Note_on_c, 9, 46, 107
1, 137664, Note_on_c, 9, 70, 20
1, 137664, Note_on_c, 11, 41, 102
1, 137664, Note_on_c, 11, 65, 92
1, 137672, Note_on_c, 1, 29, 0
1, 137672, Note_on_c, 11, 29, 0
1, 137682, Note_on_c, 9, 70, 0
1, 137682, Note_on_c, 9, 46, 0
1, 137716, Note_on_c, 8, 65, 0
1, 137716, Note_on_c, 3, 65, 0
1, 137754, Note_on_c, 1, 41, 0
1, 137754, Note_on_c, 11, 41, 0
1, 137754, Note_on_c, 1, 65, 0
1, 137754, Note_on_c, 11, 65, 0
1, 137760, Note_on_c, 9, 70, 49
1, 137778, Note_on_c, 9, 70, 0
1, 137856, Note_on_c, 1, 29, 74
1, 137856, Note_on_c, 3, 69, 122
1, 137856, Note_on_c, 8, 69, 127
1, 137856, Note_on_c, 9, 27, 127
1, 137856, Note_on_c, 9, 39, 127
1, 137856, Note_on_c, 9, 38, 127
1, 137856, Note_on_c, 9, 45, 107
1, 137856, Note_on_c, 9, 36, 127
1, 137856, Note_on_c, 9, 42, 66
1, 137856, Note_on_c, 9, 70, 76
1, 137856, Note_on_c, 11, 29, 74
1, 137858, Pitch_bend_c, 3, 0
1, 137858, Pitch_bend_c, 8, 0
1, 137866, Pitch_bend_c, 3, 455
1, 137866, Pitch_bend_c, 8, 455
1, 137874, Note_on_c, 9, 70, 0
1, 137874, Note_on_c, 9, 36, 0
1, 137874, Note_on_c, 9, 39, 0
1, 137874, Note_on_c, 9, 45, 0
1, 137874, Note_on_c, 9, 38, 0
1, 137874, Note_on_c, 9, 42, 0
1, 137874, Note_on_c, 9, 27, 0
1, 137874, Pitch_bend_c, 3, 910
1, 137874, Pitch_bend_c, 8, 910
1, 137882, Pitch_bend_c, 3, 1365
1, 137882, Pitch_bend_c, 8, 1365
1, 137890, Pitch_bend_c, 3, 1820
1, 137890, Pitch_bend_c, 8, 1820
1, 137898, Pitch_bend_c, 3, 2275
1, 137898, Pitch_bend_c, 8, 2275
1, 137906, Pitch_bend_c, 3, 2730
1, 137906, Pitch_bend_c, 8, 2730
1, 137914, Pitch_bend_c, 3, 3185
1, 137914, Pitch_bend_c, 8, 3185
1, 137922, Pitch_bend_c, 3, 3640
1, 137922, Pitch_bend_c, 8, 3640
1, 137930, Pitch_bend_c, 3, 4095
1, 137930, Pitch_bend_c, 8, 4095
1, 137938, Pitch_bend_c, 3, 4550
1, 137938, Pitch_bend_c, 8, 4550
1, 137946, Pitch_bend_c, 3, 5006
1, 137946, Pitch_bend_c, 8, 5006
1, 137952, Note_on_c, 9, 42, 75
1, 137954, Pitch_bend_c, 3, 5461
1, 137954, Pitch_bend_c, 8, 5461
1, 137962, Pitch_bend_c, 3, 5916
1, 137962, Pitch_bend_c, 8, 5916
1, 137970, Note_on_c, 9, 42, 0
1, 137970, Pitch_bend_c, 3, 6371
1, 137970, Pitch_bend_c, 8, 6371
1, 137978, Pitch_bend_c, 3, 6826
1, 137978, Pitch_bend_c, 8, 6826
1, 137986, Pitch_bend_c, 3, 7281
1, 137986, Pitch_bend_c, 8, 7281
1, 137994, Pitch_bend_c, 3, 8763
1, 137994, Pitch_bend_c, 8, 8763
1, 138048, Note_on_c, 1, 41, 83
1, 138048, Note_on_c, 1, 65, 89
1, 138048, Note_on_c, 9, 46, 107
1, 138048, Note_on_c, 9, 70, 66
1, 138048, Note_on_c, 11, 41, 83
1, 138048, Note_on_c, 11, 65, 89
1, 138057, Note_on_c, 1, 29, 0
1, 138057, Note_on_c, 11, 29, 0
1, 138066, Note_on_c, 9, 70, 0
1, 138066, Note_on_c, 9, 46, 0
1, 138087, Note_on_c, 3, 69, 0
1, 138087, Note_on_c, 8, 69, 0
1, 138138, Note_on_c, 11, 41, 0
1, 138138, Note_on_c, 1, 41, 0
1, 138142, Note_on_c, 1, 65, 0
1, 138142, Note_on_c, 11, 65, 0
1, 138146, Control_c, 12, 6, 10
1, 138240, Note_on_c, 1, 29, 68
1, 138240, Note_on_c, 3, 69, 122
1, 138240, Note_on_c, 8, 69, 127
1, 138240, Note_on_c, 9, 27, 127
1, 138240, Note_on_c, 9, 45, 107
1, 138240, Note_on_c, 9, 36, 127
1, 138240, Note_on_c, 9, 42, 66
1, 138240, Note_on_c, 9, 70, 92
1, 138240, Note_on_c, 11, 29, 68
1, 138240, Note_on_c, 12, 53, 80
1, 138242, Control_c, 12, 10, 125
1, 138258, Note_on_c, 9, 70, 0
1, 138258, Note_on_c, 9, 42, 0
1, 138258, Note_on_c, 9, 45, 0
1, 138258, Note_on_c, 9, 36, 0
1, 138258, Note_on_c, 9, 27, 0
1, 138283, Note_on_c, 12, 53, 0
1, 138290, Control_c, 12, 10, 119
1, 138336, Note_on_c, 9, 42, 75
1, 138336, Note_on_c, 12, 53, 73
1, 138338, Control_c, 12, 10, 113
1, 138338, Control_c, 12, 6, 25
1, 138354, Note_on_c, 9, 42, 0
1, 138370, Note_on_c, 12, 53, 0
1, 138386, Control_c, 12, 10, 107
1, 138432, Note_on_c, 1, 41, 94
1, 138432, Note_on_c, 1, 65, 92
1, 138432, Note_on_c, 9, 46, 107
1, 138432, Note_on_c, 11, 41, 94
1, 138432, Note_on_c, 11, 65, 92
1, 138432, Note_on_c, 12, 53, 80
1, 138434, Control_c, 12, 10, 101
1, 138442, Note_on_c, 3, 69, 0
1, 138442, Note_on_c, 8, 69, 0
1, 138450, Note_on_c, 9, 46, 0
1, 138455, Note_on_c, 1, 29, 0
1, 138455, Note_on_c, 11, 29, 0
1, 138475, Note_on_c, 12, 53, 0
1, 138482, Control_c, 12, 10, 95
1, 138506, Control_c, 12, 6, 40
1, 138522, Note_on_c, 1, 65, 0
1, 138522, Note_on_c, 11, 65, 0
1, 138522, Note_on_c, 11, 41, 0
1, 138522, Note_on_c, 1, 41, 0
1, 138528, Note_on_c, 9, 70, 44
1, 138528, Note_on_c, 12, 53, 73
1, 138530, Control_c, 12, 10, 89
1, 138546, Note_on_c, 9, 70, 0
1, 138562, Note_on_c, 12, 53, 0
1, 138578, Control_c, 12, 10, 83
1, 138624, Note_on_c, 1, 29, 71
1, 138624, Note_on_c, 9, 27, 127
1, 138624, Note_on_c, 9, 39, 127
1, 138624, Note_on_c, 9, 38, 127
1, 138624, Note_on_c, 9, 45, 107
1, 138624, Note_on_c, 9, 36, 127
1, 138624, Note_on_c, 9, 42, 66
1, 138624, Note_on_c, 9, 70, 92
1, 138624, Note_on_c, 11, 29, 71
1, 138624, Note_on_c, 12, 53, 80
1, 138626, Control_c, 12, 10, 77
1, 138642, Note_on_c, 9, 70, 0
1, 138642, Note_on_c, 9, 42, 0
1, 138642, Note_on_c, 9, 45, 0
1, 138642, Note_on_c, 9, 27, 0
1, 138642, Note_on_c, 9, 36, 0
1, 138642, Note_on_c, 9, 38, 0
1, 138642, Note_on_c, 9, 39, 0
1, 138667, Note_on_c, 12, 53, 0
1, 138674, Control_c, 12, 10, 71
1, 138710, Control_c, 12, 6, 60
1, 138720, Note_on_c, 9, 42, 75
1, 138720, Note_on_c, 12, 53, 73
1, 138722, Control_c, 12, 10, 65
1, 138738, Note_on_c, 9, 42, 0
1, 138754, Note_on_c, 12, 53, 0
1, 138770, Control_c, 12, 10, 59
1, 138816, Note_on_c, 1, 41, 85
1, 138816, Note_on_c, 1, 65, 92
1, 138816, Note_on_c, 9, 46, 107
1, 138816, Note_on_c, 9, 70, 80
1, 138816, Note_on_c, 11, 41, 85
1, 138816, Note_on_c, 11, 65, 92
1, 138816, Note_on_c, 12, 53, 80
1, 138818, Control_c, 12, 10, 53
1, 138824, Note_on_c, 11, 29, 0
1, 138824, Note_on_c, 1, 29, 0
1, 138834, Note_on_c, 9, 70, 0
1, 138834, Note_on_c, 9, 46, 0
1, 138859, Note_on_c, 12, 53, 0
1, 138866, Control_c, 12, 10, 47
1, 138890, Control_c, 12, 6, 85
1, 138906, Note_on_c, 1, 65, 0
1, 138906, Note_on_c, 11, 65, 0
1, 138906, Note_on_c, 1, 41, 0
1, 138906, Note_on_c, 11, 41, 0
1, 138912, Note_on_c, 12, 53, 73
1, 138914, Control_c, 12, 10, 41
1, 138946, Note_on_c, 12, 53, 0
1, 138962, Control_c, 12, 10, 35
1, 139008, Note_on_c, 1, 29, 71
1, 139008, Note_on_c, 3, 65, 122
1, 139008, Note_on_c, 8, 65, 127
1, 139008, Note_on_c, 9, 27, 127
1, 139008, Note_on_c, 9, 45, 107
1, 139008, Note_on_c, 9, 36, 127
1, 139008, Note_on_c, 9, 42, 66
1, 139008, Note_on_c, 9, 70, 86
1, 139008, Note_on_c, 11, 29, 71
1, 139008, Note_on_c, 12, 53, 80
1, 139010, Control_c, 12, 10, 29
1, 139026, Note_on_c, 9, 70, 0
1, 139026, Note_on_c, 9, 42, 0
1, 139026, Note_on_c, 9, 45, 0
1, 139026, Note_on_c, 9, 36, 0
1, 139026, Note_on_c, 9, 27, 0
1, 139051, Note_on_c, 12, 53, 0
1, 139058, Control_c, 12, 10, 23
1, 139104, Note_on_c, 9, 42, 75
1, 139104, Note_on_c, 12, 53, 73
1, 139106, Control_c, 12, 10, 17
1, 139106, Control_c, 12, 6, 110
1, 139122, Note_on_c, 9, 42, 0
1, 139138, Note_on_c, 12, 53, 0
1, 139154, Control_c, 12, 10, 11
1, 139200, Note_on_c, 1, 41, 87
1, 139200, Note_on_c, 1, 65, 92
1, 139200, Note_on_c, 9, 46, 107
1, 139200, Note_on_c, 9, 70, 13
1, 139200, Note_on_c, 11, 41, 87
1, 139200, Note_on_c, 11, 65, 92
1, 139202, Control_c, 12, 10, 5
1, 139208, Note_on_c, 1, 29, 0
1, 139208, Note_on_c, 11, 29, 0
1, 139218, Note_on_c, 9, 70, 0
1, 139218, Note_on_c, 9, 46, 0
1, 139252, Note_on_c, 8, 65, 0
1, 139252, Note_on_c, 3, 65, 0
1, 139290, Note_on_c, 1, 41, 0
1, 139290, Note_on_c, 11, 41, 0
1, 139290, Note_on_c, 1, 65, 0
1, 139290, Note_on_c, 11, 65, 0
1, 139296, Note_on_c, 9, 70, 26
1, 139314, Note_on_c, 9, 70, 0
1, 139392, Note_on_c, 1, 29, 85
1, 139392, Note_on_c, 1, 63, 89
1, 139392, Note_on_c, 3, 69, 122
1, 139392, Note_on_c, 8, 69, 127
1, 139392, Note_on_c, 9, 27, 127
1, 139392, Note_on_c, 9, 39, 127
1, 139392, Note_on_c, 9, 38, 127
1, 139392, Note_on_c, 9, 45, 107
1, 139392, Note_on_c, 9, 36, 127
1, 139392, Note_on_c, 9, 42, 66
1, 139392, Note_on_c, 9, 70, 92
1, 139392, Note_on_c, 11, 29, 85
1, 139392, Note_on_c, 11, 63, 89
1, 139394, Pitch_bend_c, 3, 0
1, 139394, Pitch_bend_c, 8, 0
1, 139402, Pitch_bend_c, 3, 455
1, 139402, Pitch_bend_c, 8, 455
1, 139410, Note_on_c, 9, 70, 0
1, 139410, Note_on_c, 9, 45, 0
1, 139410, Note_on_c, 9, 27, 0
1, 139410, Note_on_c, 9, 38, 0
1, 139410, Note_on_c, 9, 39, 0
1, 139410, Note_on_c, 9, 42, 0
1, 139410, Note_on_c, 9, 36, 0
1, 139410, Pitch_bend_c, 3, 910
1, 139410, Pitch_bend_c, 8, 910
1, 139418, Pitch_bend_c, 3, 1365
1, 139418, Pitch_bend_c, 8, 1365
1, 139426, Pitch_bend_c, 3, 1820
1, 139426, Pitch_bend_c, 8, 1820
1, 139434, Pitch_bend_c, 3, 2275
1, 139434, Pitch_bend_c, 8, 2275
1, 139442, Pitch_bend_c, 3, 2730
1, 139442, Pitch_bend_c, 8, 2730
1, 139450, Pitch_bend_c, 3, 3185
1, 139450, Pitch_bend_c, 8, 3185
1, 139458, Pitch_bend_c, 3, 3640
1, 139458, Pitch_bend_c, 8, 3640
1, 139466, Pitch_bend_c, 3, 4095
1, 139466, Pitch_bend_c, 8, 4095
1, 139474, Pitch_bend_c, 3, 4550
1, 139474, Pitch_bend_c, 8, 4550
1, 139482, Pitch_bend_c, 3, 5006
1, 139482, Pitch_bend_c, 8, 5006
1, 139486, Note_on_c, 1, 63, 0
1, 139486, Note_on_c, 11, 63, 0
1, 139488, Note_on_c, 9, 42, 75
1, 139490, Pitch_bend_c, 3, 5461
1, 139490, Pitch_bend_c, 8, 5461
1, 139498, Pitch_bend_c, 3, 5916
1, 139498, Pitch_bend_c, 8, 5916
1, 139506, Note_on_c, 9, 42, 0
1, 139506, Pitch_bend_c, 3, 6371
1, 139506, Pitch_bend_c, 8, 6371
1, 139514, Pitch_bend_c, 3, 6826
1, 139514, Pitch_bend_c, 8, 6826
1, 139522, Pitch_bend_c, 3, 7281
1, 139522, Pitch_bend_c, 8, 7281
1, 139530, Pitch_bend_c, 3, 8763
1, 139530, Pitch_bend_c, 8, 8763
1, 139574, Note_on_c, 11, 29, 0
1, 139574, Note_on_c, 1, 29, 0
1, 139584, Note_on_c, 1, 41, 85
1, 139584, Note_on_c, 1, 65, 89
1, 139584, Note_on_c, 9, 46, 107
1, 139584, Note_on_c, 9, 70, 63
1, 139584, Note_on_c, 11, 41, 85
1, 139584, Note_on_c, 11, 65, 89
1, 139602, Note_on_c, 9, 70, 0
1, 139602, Note_on_c, 9, 46, 0
1, 139623, Note_on_c, 8, 69, 0
1, 139623, Note_on_c, 3, 69, 0
1, 139674, Note_on_c, 11, 41, 0
1, 139674, Note_on_c, 1, 41, 0
1, 139678, Note_on_c, 11, 65, 0
1, 139678, Note_on_c, 1, 65, 0
1, 139682, Control_c, 12, 6, 10
1, 139776, Note_on_c, 1, 32, 71
1, 139776, Note_on_c, 1, 53, 71
1, 139776, Note_on_c, 1, 65, 71
1, 139776, Note_on_c, 3, 69, 122
1, 139776, Note_on_c, 8, 69, 127
1, 139776, Note_on_c, 9, 27, 127
1, 139776, Note_on_c, 9, 45, 107
1, 139776, Note_on_c, 9, 36, 127
1, 139776, Note_on_c, 9, 42, 66
1, 139776, Note_on_c, 9, 70, 92
1, 139776, Note_on_c, 11, 32, 71
1, 139776, Note_on_c, 11, 53, 71
1, 139776, Note_on_c, 11, 65, 71
1, 139776, Note_on_c, 12, 53, 80
1, 139778, Control_c, 12, 11, 127
1, 139794, Note_on_c, 9, 70, 0
1, 139794, Note_on_c, 9, 36, 0
1, 139794, Note_on_c, 9, 45, 0
1, 139794, Note_on_c, 9, 27, 0
1, 139794, Note_on_c, 9, 42, 0
1, 139819, Note_on_c, 12, 53, 0
1, 139826, Control_c, 12, 10, 5
1, 139870, Note_on_c, 1, 65, 0
1, 139870, Note_on_c, 1, 53, 0
1, 139870, Note_on_c, 11, 53, 0
1, 139870, Note_on_c, 11, 65, 0
1, 139872, Note_on_c, 9, 42, 75
1, 139872, Note_on_c, 12, 53, 73
1, 139874, Control_c, 12, 10, 13
1, 139874, Control_c, 12, 6, 25
1, 139890, Note_on_c, 9, 42, 0
1, 139906, Note_on_c, 12, 53, 0
1, 139922, Control_c, 12, 10, 20
1, 139935, Note_on_c, 11, 32, 0
1, 139935, Note_on_c, 1, 32, 0
1, 139968, Note_on_c, 1, 44, 100
1, 139968, Note_on_c, 1, 56, 92
1, 139968, Note_on_c, 9, 46, 107
1, 139968, Note_on_c, 11, 44, 100
1, 139968, Note_on_c, 11, 56, 92
1, 139968, Note_on_c, 12, 53, 80
1, 139970, Control_c, 12, 10, 27
1, 139978, Note_on_c, 8, 69, 0
1, 139978, Note_on_c, 3, 69, 0
1, 139986, Note_on_c, 9, 46, 0
1, 140011, Note_on_c, 12, 53, 0
1, 140018, Control_c, 12, 10, 34
1, 140042, Control_c, 12, 6, 40
1, 140058, Note_on_c, 1, 56, 0
1, 140058, Note_on_c, 11, 56, 0
1, 140058, Note_on_c, 1, 44, 0
1, 140058, Note_on_c, 11, 44, 0
1, 140064, Note_on_c, 9, 70, 40
1, 140064, Note_on_c, 12, 53, 73
1, 140066, Control_c, 12, 10, 41
1, 140082, Note_on_c, 9, 70, 0
1, 140098, Note_on_c, 12, 53, 0
1, 140114, Control_c, 12, 10, 49
1, 140160, Note_on_c, 1, 32, 77
1, 140160, Note_on_c, 9, 27, 127
1, 140160, Note_on_c, 9, 39, 127
1, 140160, Note_on_c, 9, 38, 127
1, 140160, Note_on_c, 9, 45, 107
1, 140160, Note_on_c, 9, 36, 127
1, 140160, Note_on_c, 9, 42, 66
1, 140160, Note_on_c, 9, 70, 86
1, 140160, Note_on_c, 11, 32, 77
1, 140160, Note_on_c, 12, 53, 80
1, 140162, Control_c, 12, 10, 56
1, 140178, Note_on_c, 9, 70, 0
1, 140178, Note_on_c, 9, 42, 0
1, 140178, Note_on_c, 9, 45, 0
1, 140178, Note_on_c, 9, 27, 0
1, 140178, Note_on_c, 9, 36, 0
1, 140178, Note_on_c, 9, 38, 0
1, 140178, Note_on_c, 9, 39, 0
1, 140203, Note_on_c, 12, 53, 0
1, 140210, Control_c, 12, 10, 63
1, 140246, Control_c, 12, 6, 60
1, 140256, Note_on_c, 9, 42, 75
1, 140256, Note_on_c, 12, 53, 73
1, 140258, Control_c, 12, 10, 70
1, 140274, Note_on_c, 9, 42, 0
1, 140290, Note_on_c, 12, 53, 0
1, 140306, Control_c, 12, 10, 77
1, 140352, Note_on_c, 1, 44, 100
1, 140352, Note_on_c, 1, 56, 92
1, 140352, Note_on_c, 9, 46, 92
1, 140352, Note_on_c, 9, 70, 80
1, 140352, Note_on_c, 11, 44, 100
1, 140352, Note_on_c, 11, 56, 92
1, 140352, Note_on_c, 12, 53, 80
1, 140354, Control_c, 12, 10, 84
1, 140358, Note_on_c, 11, 32, 0
1, 140358, Note_on_c, 1, 32, 0
1, 140370, Note_on_c, 9, 70, 0
1, 140370, Note_on_c, 9, 46, 0
1, 140395, Note_on_c, 12, 53, 0
1, 140402, Control_c, 12, 10, 92
1, 140426, Control_c, 12, 6, 85
1, 140442, Note_on_c, 1, 56, 0
1, 140442, Note_on_c, 11, 56, 0
1, 140442, Note_on_c, 1, 44, 0
1, 140442, Note_on_c, 11, 44, 0
1, 140448, Note_on_c, 12, 53, 73
1, 140450, Control_c, 12, 10, 99
1, 140482, Note_on_c, 12, 53, 0
1, 140498, Control_c, 12, 10, 106
1, 140544, Note_on_c, 1, 32, 74
1, 140544, Note_on_c, 3, 65, 122
1, 140544, Note_on_c, 8, 65, 127
1, 140544, Note_on_c, 9, 27, 127
1, 140544, Note_on_c, 9, 45, 107
1, 140544, Note_on_c, 9, 36, 127
1, 140544, Note_on_c, 9, 42, 66
1, 140544, Note_on_c, 9, 70, 92
1, 140544, Note_on_c, 11, 32, 74
1, 140544, Note_on_c, 12, 53, 80
1, 140546, Control_c, 12, 10, 113
1, 140562, Note_on_c, 9, 70, 0
1, 140562, Note_on_c, 9, 42, 0
1, 140562, Note_on_c, 9, 45, 0
1, 140562, Note_on_c, 9, 36, 0
1, 140562, Note_on_c, 9, 27, 0
1, 140587, Note_on_c, 12, 53, 0
1, 140594, Control_c, 12, 10, 120
1, 140640, Note_on_c, 9, 42, 75
1, 140640, Note_on_c, 12, 53, 73
1, 140642, Control_c, 12, 6, 110
1, 140658, Note_on_c, 9, 42, 0
1, 140674, Note_on_c, 12, 53, 0
1, 140736, Note_on_c, 1, 44, 102
1, 140736, Note_on_c, 1, 56, 92
1, 140736, Note_on_c, 9, 46, 107
1, 140736, Note_on_c, 9, 70, 20
1, 140736, Note_on_c, 11, 44, 102
1, 140736, Note_on_c, 11, 56, 92
1, 140744, Note_on_c, 1, 32, 0
1, 140744, Note_on_c, 11, 32, 0
1, 140754, Note_on_c, 9, 70, 0
1, 140754, Note_on_c, 9, 46, 0
1, 140788, Note_on_c, 8, 65, 0
1, 140788, Note_on_c, 3, 65, 0
1, 140826, Note_on_c, 1, 44, 0
1, 140826, Note_on_c, 11, 44, 0
1, 140826, Note_on_c, 1, 56, 0
1, 140826, Note_on_c, 11, 56, 0
1, 140832, Note_on_c, 9, 70, 49
1, 140850, Note_on_c, 9, 70, 0
1, 140922, Pitch_bend_c, 3, 0
1, 140922, Pitch_bend_c, 8, 0
1, 140928, Note_on_c, 1, 32, 74
1, 140928, Note_on_c, 3, 69, 122
1, 140928, Note_on_c, 8, 69, 127
1, 140928, Note_on_c, 9, 27, 127
1, 140928, Note_on_c, 9, 39, 127
1, 140928, Note_on_c, 9, 38, 127
1, 140928, Note_on_c, 9, 45, 107
1, 140928, Note_on_c, 9, 36, 127
1, 140928, Note_on_c, 9, 42, 66
1, 140928, Note_on_c, 9, 70, 76
1, 140928, Note_on_c, 11, 32, 74
1, 140930, Pitch_bend_c, 3, 455
1, 140930, Pitch_bend_c, 8, 455
1, 140938, Pitch_bend_c, 3, 910
1, 140938, Pitch_bend_c, 8, 910
1, 140946, Note_on_c, 9, 70, 0
1, 140946, Note_on_c, 9, 36, 0
1, 140946, Note_on_c, 9, 39, 0
1, 140946, Note_on_c, 9, 45, 0
1, 140946, Note_on_c, 9, 38, 0
1, 140946, Note_on_c, 9, 42, 0
1, 140946, Note_on_c, 9, 27, 0
1, 140946, Pitch_bend_c, 3, 1365
1, 140946, Pitch_bend_c, 8, 1365
1, 140954, Pitch_bend_c, 3, 1820
1, 140954, Pitch_bend_c, 8, 1820
1, 140962, Pitch_bend_c, 3, 2275
1, 140962, Pitch_bend_c, 8, 2275
1, 140970, Pitch_bend_c, 3, 2730
1, 140970, Pitch_bend_c, 8, 2730
1, 140978, Pitch_bend_c, 3, 3185
1, 140978, Pitch_bend_c, 8, 3185
1, 140986, Pitch_bend_c, 3, 3640
1, 140986, Pitch_bend_c, 8, 3640
1, 140994, Pitch_bend_c, 3, 4095
1, 140994, Pitch_bend_c, 8, 4095
1, 141002, Pitch_bend_c, 3, 4550
1, 141002, Pitch_bend_c, 8, 4550
1, 141010, Pitch_bend_c, 3, 5006
1, 141010, Pitch_bend_c, 8, 5006
1, 141018, Pitch_bend_c, 3, 5461
1, 141018, Pitch_bend_c, 8, 5461
1, 141024, Note_on_c, 9, 42, 75
1, 141026, Pitch_bend_c, 3, 5916
1, 141026, Pitch_bend_c, 8, 5916
1, 141034, Pitch_bend_c, 3, 6371
1, 141034, Pitch_bend_c, 8, 6371
1, 141042, Note_on_c, 9, 42, 0
1, 141042, Pitch_bend_c, 3, 6826
1, 141042, Pitch_bend_c, 8, 6826
1, 141050, Pitch_bend_c, 3, 7281
1, 141050, Pitch_bend_c, 8, 7281
1, 141058, Pitch_bend_c, 3, 8763
1, 141058, Pitch_bend_c, 8, 8763
1, 141120, Note_on_c, 1, 44, 83
1, 141120, Note_on_c, 1, 56, 89
1, 141120, Note_on_c, 9, 46, 107
1, 141120, Note_on_c, 9, 70, 66
1, 141120, Note_on_c, 11, 44, 83
1, 141120, Note_on_c, 11, 56, 89
1, 141129, Note_on_c, 1, 32, 0
1, 141129, Note_on_c, 11, 32, 0
1, 141138, Note_on_c, 9, 70, 0
1, 141138, Note_on_c, 9, 46, 0
1, 141159, Note_on_c, 3, 69, 0
1, 141159, Note_on_c, 8, 69, 0
1, 141210, Note_on_c, 11, 44, 0
1, 141210, Note_on_c, 1, 44, 0
1, 141214, Note_on_c, 1, 56, 0
1, 141214, Note_on_c, 11, 56, 0
1, 141218, Control_c, 12, 6, 10
1, 141312, Note_on_c, 1, 34, 65
1, 141312, Note_on_c, 1, 56, 65
1, 141312, Note_on_c, 3, 69, 122
1, 141312, Note_on_c, 8, 69, 127
1, 141312, Note_on_c, 9, 27, 127
1, 141312, Note_on_c, 9, 45, 107
1, 141312, Note_on_c, 9, 36, 127
1, 141312, Note_on_c, 9, 42, 66
1, 141312, Note_on_c, 9, 70, 92
1, 141312, Note_on_c, 11, 34, 65
1, 141312, Note_on_c, 11, 56, 65
1, 141312, Note_on_c, 12, 53, 80
1, 141314, Control_c, 12, 10, 125
1, 141330, Note_on_c, 9, 70, 0
1, 141330, Note_on_c, 9, 42, 0
1, 141330, Note_on_c, 9, 27, 0
1, 141330, Note_on_c, 9, 36, 0
1, 141330, Note_on_c, 9, 45, 0
1, 141355, Note_on_c, 12, 53, 0
1, 141362, Control_c, 12, 10, 119
1, 141406, Note_on_c, 1, 56, 0
1, 141406, Note_on_c, 11, 56, 0
1, 141408, Note_on_c, 9, 42, 75
1, 141408, Note_on_c, 12, 53, 73
1, 141410, Control_c, 12, 10, 113
1, 141410, Control_c, 12, 6, 25
1, 141426, Note_on_c, 9, 42, 0
1, 141442, Note_on_c, 12, 53, 0
1, 141458, Control_c, 12, 10, 107
1, 141504, Note_on_c, 1, 46, 94
1, 141504, Note_on_c, 1, 58, 92
1, 141504, Note_on_c, 9, 46, 107
1, 141504, Note_on_c, 11, 46, 94
1, 141504, Note_on_c, 11, 58, 92
1, 141504, Note_on_c, 12, 53, 80
1, 141506, Control_c, 12, 10, 101
1, 141514, Note_on_c, 8, 69, 0
1, 141514, Note_on_c, 3, 69, 0
1, 141522, Note_on_c, 9, 46, 0
1, 141527, Note_on_c, 1, 34, 0
1, 141527, Note_on_c, 11, 34, 0
1, 141547, Note_on_c, 12, 53, 0
1, 141554, Control_c, 12, 10, 95
1, 141578, Control_c, 12, 6, 40
1, 141594, Note_on_c, 11, 46, 0
1, 141594, Note_on_c, 1, 58, 0
1, 141594, Note_on_c, 11, 58, 0
1, 141594, Note_on_c, 1, 46, 0
1, 141600, Note_on_c, 9, 70, 44
1, 141600, Note_on_c, 12, 53, 73
1, 141602, Control_c, 12, 10, 89
1, 141618, Note_on_c, 9, 70, 0
1, 141634, Note_on_c, 12, 53, 0
1, 141650, Control_c, 12, 10, 83
1, 141696, Note_on_c, 1, 34, 68
1, 141696, Note_on_c, 9, 27, 127
1, 141696, Note_on_c, 9, 39, 127
1, 141696, Note_on_c, 9, 38, 127
1, 141696, Note_on_c, 9, 45, 107
1, 141696, Note_on_c, 9, 36, 127
1, 141696, Note_on_c, 9, 42, 66
1, 141696, Note_on_c, 9, 70, 92
1, 141696, Note_on_c, 11, 34, 68
1, 141696, Note_on_c, 12, 53, 80
1, 141698, Control_c, 12, 10, 77
1, 141714, Note_on_c, 9, 70, 0
1, 141714, Note_on_c, 9, 42, 0
1, 141714, Note_on_c, 9, 45, 0
1, 141714, Note_on_c, 9, 27, 0
1, 141714, Note_on_c, 9, 36, 0
1, 141714, Note_on_c, 9, 38, 0
1, 141714, Note_on_c, 9, 39, 0
1, 141739, Note_on_c, 12, 53, 0
1, 141746, Control_c, 12, 10, 71
1, 141782, Control_c, 12, 6, 60
1, 141792, Note_on_c, 9, 42, 75
1, 141792, Note_on_c, 12, 53, 73
1, 141794, Control_c, 12, 10, 65
1, 141810, Note_on_c, 9, 42, 0
1, 141826, Note_on_c, 12, 53, 0
1, 141842, Control_c, 12, 10, 59
1, 141888, Note_on_c, 1, 46, 85
1, 141888, Note_on_c, 1, 58, 92
1, 141888, Note_on_c, 9, 46, 107
1, 141888, Note_on_c, 9, 70, 80
1, 141888, Note_on_c, 11, 46, 85
1, 141888, Note_on_c, 11, 58, 92
1, 141888, Note_on_c, 12, 53, 80
1, 141890, Control_c, 12, 10, 53
1, 141896, Note_on_c, 11, 34, 0
1, 141896, Note_on_c, 1, 34, 0
1, 141906, Note_on_c, 9, 70, 0
1, 141906, Note_on_c, 9, 46, 0
1, 141931, Note_on_c, 12, 53, 0
1, 141938, Control_c, 12, 10, 47
1, 141962, Control_c, 12, 6, 85
1, 141978, Note_on_c, 1, 58, 0
1, 141978, Note_on_c, 11, 58, 0
1, 141978, Note_on_c, 1, 46, 0
1, 141978, Note_on_c, 11, 46, 0
1, 141984, Note_on_c, 12, 53, 73
1, 141986, Control_c, 12, 10, 41
1, 142018, Note_on_c, 12, 53, 0
1, 142034, Control_c, 12, 10, 35
1, 142080, Note_on_c, 1, 34, 68
1, 142080, Note_on_c, 3, 65, 122
1, 142080, Note_on_c, 9, 27, 127
1, 142080, Note_on_c, 9, 45, 107
1, 142080, Note_on_c, 9, 36, 127
1, 142080, Note_on_c, 9, 42, 66
1, 142080, Note_on_c, 9, 70, 86
1, 142080, Note_on_c, 11, 34, 68
1, 142080, Note_on_c, 12, 53, 80
1, 142082, Control_c, 12, 10, 29
1, 142098, Note_on_c, 9, 70, 0
1, 142098, Note_on_c, 9, 42, 0
1, 142098, Note_on_c, 9, 36, 0
1, 142098, Note_on_c, 9, 45, 0
1, 142098, Note_on_c, 9, 27, 0
1, 142123, Note_on_c, 12, 53, 0
1, 142130, Control_c, 12, 10, 23
1, 142176, Note_on_c, 9, 42, 75
1, 142176, Note_on_c, 12, 53, 73
1, 142178, Control_c, 12, 10, 17
1, 142178, Control_c, 12, 6, 110
1, 142194, Note_on_c, 9, 42, 0
1, 142210, Note_on_c, 12, 53, 0
1, 142226, Control_c, 12, 10, 11
1, 142272, Note_on_c, 1, 46, 87
1, 142272, Note_on_c, 1, 58, 92
1, 142272, Note_on_c, 9, 46, 107
1, 142272, Note_on_c, 9, 70, 13
1, 142272, Note_on_c, 11, 46, 87
1, 142272, Note_on_c, 11, 58, 92
1, 142274, Control_c, 12, 10, 5
1, 142280, Note_on_c, 1, 34, 0
1, 142280, Note_on_c, 11, 34, 0
1, 142290, Note_on_c, 9, 70, 0
1, 142290, Note_on_c, 9, 46, 0
1, 142324, Note_on_c, 3, 65, 0
1, 142362, Note_on_c, 1, 58, 0
1, 142362, Note_on_c, 1, 46, 0
1, 142362, Note_on_c, 11, 58, 0
1, 142362, Note_on_c, 11, 46, 0
1, 142368, Note_on_c, 9, 70, 26
1, 142386, Note_on_c, 9, 70, 0
1, 142464, Note_on_c, 1, 34, 64
1, 142464, Note_on_c, 3, 69, 122
1, 142464, Note_on_c, 8, 65, 127
1, 142464, Note_on_c, 9, 27, 127
1, 142464, Note_on_c, 9, 39, 127
1, 142464, Note_on_c, 9, 38, 127
1, 142464, Note_on_c, 9, 45, 107
1, 142464, Note_on_c, 9, 36, 127
1, 142464, Note_on_c, 9, 42, 66
1, 142464, Note_on_c, 9, 70, 92
1, 142464, Note_on_c, 11, 34, 64
1, 142482, Note_on_c, 9, 70, 0
1, 142482, Note_on_c, 9, 36, 0
1, 142482, Note_on_c, 9, 39, 0
1, 142482, Note_on_c, 9, 45, 0
1, 142482, Note_on_c, 9, 38, 0
1, 142482, Note_on_c, 9, 42, 0
1, 142482, Note_on_c, 9, 27, 0
1, 142560, Note_on_c, 9, 42, 75
1, 142578, Note_on_c, 9, 42, 0
1, 142646, Note_on_c, 1, 34, 0
1, 142646, Note_on_c, 11, 34, 0
1, 142656, Note_on_c, 1, 46, 85
1, 142656, Note_on_c, 1, 58, 89
1, 142656, Note_on_c, 9, 46, 107
1, 142656, Note_on_c, 9, 70, 63
1, 142656, Note_on_c, 11, 46, 85
1, 142656, Note_on_c, 11, 58, 89
1, 142674, Note_on_c, 9, 70, 0
1, 142674, Note_on_c, 9, 46, 0
1, 142695, Note_on_c, 3, 69, 0
1, 142708, Note_on_c, 8, 65, 0
1, 142746, Note_on_c, 11, 46, 0
1, 142746, Note_on_c, 1, 46, 0
1, 142750, Note_on_c, 1, 58, 0
1, 142750, Note_on_c, 11, 58, 0
1, 142752, Note_on_c, 9, 27, 127
1, 142752, Note_on_c, 9, 45, 107
1, 142752, Note_on_c, 9, 36, 127
1, 142754, Control_c, 12, 6, 10
1, 142770, Note_on_c, 9, 36, 0
1, 142770, Note_on_c, 9, 27, 0
1, 142770, Note_on_c, 9, 45, 0
1, 142848, Note_on_c, 1, 29, 74
1, 142848, Note_on_c, 3, 69, 122
1, 142848, Note_on_c, 8, 69, 127
1, 142848, Note_on_c, 9, 27, 127
1, 142848, Note_on_c, 9, 45, 107
1, 142848, Note_on_c, 9, 36, 127
1, 142848, Note_on_c, 9, 42, 66
1, 142848, Note_on_c, 9, 70, 92
1, 142848, Note_on_c, 11, 29, 74
1, 142848, Note_on_c, 12, 53, 80
1, 142850, Control_c, 12, 11, 127
1, 142866, Note_on_c, 9, 70, 0
1, 142866, Note_on_c, 9, 42, 0
1, 142866, Note_on_c, 9, 45, 0
1, 142866, Note_on_c, 9, 36, 0
1, 142866, Note_on_c, 9, 27, 0
1, 142891, Note_on_c, 12, 53, 0
1, 142898, Control_c, 12, 10, 5
1, 142944, Note_on_c, 9, 42, 75
1, 142944, Note_on_c, 12, 53, 73
1, 142946, Control_c, 12, 10, 13
1, 142946, Control_c, 12, 6, 25
1, 142962, Note_on_c, 9, 42, 0
1, 142978, Note_on_c, 12, 53, 0
1, 142994, Control_c, 12, 10, 20
1, 143007, Note_on_c, 1, 29, 0
1, 143007, Note_on_c, 11, 29, 0
1, 143040, Note_on_c, 1, 41, 100
1, 143040, Note_on_c, 1, 65, 92
1, 143040, Note_on_c, 9, 46, 107
1, 143040, Note_on_c, 11, 41, 100
1, 143040, Note_on_c, 11, 65, 92
1, 143040, Note_on_c, 12, 53, 80
1, 143042, Control_c, 12, 10, 27
1, 143050, Note_on_c, 8, 69, 0
1, 143050, Note_on_c, 3, 69, 0
1, 143058, Note_on_c, 9, 46, 0
1, 143083, Note_on_c, 12, 53, 0
1, 143090, Control_c, 12, 10, 34
1, 143114, Control_c, 12, 6, 40
1, 143130, Note_on_c, 11, 41, 0
1, 143130, Note_on_c, 1, 65, 0
1, 143130, Note_on_c, 11, 65, 0
1, 143130, Note_on_c, 1, 41, 0
1, 143136, Note_on_c, 9, 70, 40
1, 143136, Note_on_c, 12, 53, 73
1, 143138, Control_c, 12, 10, 41
1, 143154, Note_on_c, 9, 70, 0
1, 143170, Note_on_c, 12, 53, 0
1, 143186, Control_c, 12, 10, 49
1, 143232, Note_on_c, 1, 29, 74
1, 143232, Note_on_c, 9, 27, 127
1, 143232, Note_on_c, 9, 39, 127
1, 143232, Note_on_c, 9, 38, 127
1, 143232, Note_on_c, 9, 36, 127
1, 143232, Note_on_c, 9, 45, 107
1, 143232, Note_on_c, 9, 42, 66
1, 143232, Note_on_c, 9, 70, 86
1, 143232, Note_on_c, 11, 29, 74
1, 143232, Note_on_c, 12, 53, 80
1, 143234, Control_c, 12, 10, 56
1, 143250, Note_on_c, 9, 70, 0
1, 143250, Note_on_c, 9, 42, 0
1, 143250, Note_on_c, 9, 36, 0
1, 143250, Note_on_c, 9, 27, 0
1, 143250, Note_on_c, 9, 45, 0
1, 143250, Note_on_c, 9, 38, 0
1, 143250, Note_on_c, 9, 39, 0
1, 143275, Note_on_c, 12, 53, 0
1, 143282, Control_c, 12, 10, 63
1, 143318, Control_c, 12, 6, 60
1, 143328, Note_on_c, 9, 42, 75
1, 143328, Note_on_c, 12, 53, 73
1, 143330, Control_c, 12, 10, 70
1, 143346, Note_on_c, 9, 42, 0
1, 143362, Note_on_c, 12, 53, 0
1, 143378, Control_c, 12, 10, 77
1, 143424, Note_on_c, 1, 41, 110
1, 143424, Note_on_c, 1, 65, 92
1, 143424, Note_on_c, 9, 46, 92
1, 143424, Note_on_c, 9, 70, 80
1, 143424, Note_on_c, 11, 41, 110
1, 143424, Note_on_c, 11, 65, 92
1, 143424, Note_on_c, 12, 53, 80
1, 143426, Control_c, 12, 10, 84
1, 143430, Note_on_c, 11, 29, 0
1, 143430, Note_on_c, 1, 29, 0
1, 143442, Note_on_c, 9, 70, 0
1, 143442, Note_on_c, 9, 46, 0
1, 143467, Note_on_c, 12, 53, 0
1, 143474, Control_c, 12, 10, 92
1, 143498, Control_c, 12, 6, 85
1, 143514, Note_on_c, 1, 65, 0
1, 143514, Note_on_c, 11, 65, 0
1, 143514, Note_on_c, 1, 41, 0
1, 143514, Note_on_c, 11, 41, 0
1, 143520, Note_on_c, 12, 53, 73
1, 143522, Control_c, 12, 10, 99
1, 143554, Note_on_c, 12, 53, 0
1, 143570, Control_c, 12, 10, 106
1, 143616, Note_on_c, 1, 29, 71
1, 143616, Note_on_c, 3, 65, 122
1, 143616, Note_on_c, 8, 65, 127
1, 143616, Note_on_c, 9, 27, 127
1, 143616, Note_on_c, 9, 36, 127
1, 143616, Note_on_c, 9, 45, 107
1, 143616, Note_on_c, 9, 42, 66
1, 143616, Note_on_c, 9, 70, 92
1, 143616, Note_on_c, 11, 29, 71
1, 143616, Note_on_c, 12, 53, 80
1, 143618, Control_c, 12, 10, 113
1, 143634, Note_on_c, 9, 70, 0
1, 143634, Note_on_c, 9, 42, 0
1, 143634, Note_on_c, 9, 36, 0
1, 143634, Note_on_c, 9, 45, 0
1, 143634, Note_on_c, 9, 27, 0
1, 143659, Note_on_c, 12, 53, 0
1, 143666, Control_c, 12, 10, 120
1, 143712, Note_on_c, 9, 42, 75
1, 143712, Note_on_c, 12, 53, 73
1, 143714, Control_c, 12, 6, 110
1, 143730, Note_on_c, 9, 42, 0
1, 143746, Note_on_c, 12, 53, 0
1, 143808, Note_on_c, 1, 41, 102
1, 143808, Note_on_c, 1, 65, 92
1, 143808, Note_on_c, 9, 46, 107
1, 143808, Note_on_c, 9, 70, 20
1, 143808, Note_on_c, 11, 41, 102
1, 143808, Note_on_c, 11, 65, 92
1, 143816, Note_on_c, 1, 29, 0
1, 143816, Note_on_c, 11, 29, 0
1, 143826, Note_on_c, 9, 70, 0
1, 143826, Note_on_c, 9, 46, 0
1, 143860, Note_on_c, 8, 65, 0
1, 143860, Note_on_c, 3, 65, 0
1, 143898, Note_on_c, 1, 41, 0
1, 143898, Note_on_c, 11, 41, 0
1, 143898, Note_on_c, 1, 65, 0
1, 143898, Note_on_c, 11, 65, 0
1, 143904, Note_on_c, 9, 70, 49
1, 143922, Note_on_c, 9, 70, 0
1, 144000, Note_on_c, 1, 29, 74
1, 144000, Note_on_c, 3, 69, 122
1, 144000, Note_on_c, 8, 69, 127
1, 144000, Note_on_c, 9, 27, 127
1, 144000, Note_on_c, 9, 39, 127
1, 144000, Note_on_c, 9, 38, 127
1, 144000, Note_on_c, 9, 45, 107
1, 144000, Note_on_c, 9, 36, 127
1, 144000, Note_on_c, 9, 42, 66
1, 144000, Note_on_c, 9, 70, 76
1, 144000, Note_on_c, 11, 29, 74
1, 144002, Pitch_bend_c, 3, 0
1, 144002, Pitch_bend_c, 8, 0
1, 144010, Pitch_bend_c, 3, 455
1, 144010, Pitch_bend_c, 8, 455
1, 144018, Note_on_c, 9, 70, 0
1, 144018, Note_on_c, 9, 36, 0
1, 144018, Note_on_c, 9, 39, 0
1, 144018, Note_on_c, 9, 45, 0
1, 144018, Note_on_c, 9, 38, 0
1, 144018, Note_on_c, 9, 42, 0
1, 144018, Note_on_c, 9, 27, 0
1, 144018, Pitch_bend_c, 3, 910
1, 144018, Pitch_bend_c, 8, 910
1, 144026, Pitch_bend_c, 3, 1365
1, 144026, Pitch_bend_c, 8, 1365
1, 144034, Pitch_bend_c, 3, 1820
1, 144034, Pitch_bend_c, 8, 1820
1, 144042, Pitch_bend_c, 3, 2275
1, 144042, Pitch_bend_c, 8, 2275
1, 144050, Pitch_bend_c, 3, 2730
1, 144050, Pitch_bend_c, 8, 2730
1, 144058, Pitch_bend_c, 3, 3185
1, 144058, Pitch_bend_c, 8, 3185
1, 144066, Pitch_bend_c, 3, 3640
1, 144066, Pitch_bend_c, 8, 3640
1, 144074, Pitch_bend_c, 3, 4095
1, 144074, Pitch_bend_c, 8, 4095
1, 144082, Pitch_bend_c, 3, 4550
1, 144082, Pitch_bend_c, 8, 4550
1, 144090, Pitch_bend_c, 3, 5006
1, 144090, Pitch_bend_c, 8, 5006
1, 144096, Note_on_c, 9, 42, 75
1, 144098, Pitch_bend_c, 3, 5461
1, 144098, Pitch_bend_c, 8, 5461
1, 144106, Pitch_bend_c, 3, 5916
1, 144106, Pitch_bend_c, 8, 5916
1, 144114, Note_on_c, 9, 42, 0
1, 144114, Pitch_bend_c, 3, 6371
1, 144114, Pitch_bend_c, 8, 6371
1, 144122, Pitch_bend_c, 3, 6826
1, 144122, Pitch_bend_c, 8, 6826
1, 144130, Pitch_bend_c, 3, 7281
1, 144130, Pitch_bend_c, 8, 7281
1, 144138, Pitch_bend_c, 3, 8763
1, 144138, Pitch_bend_c, 8, 8763
1, 144192, Note_on_c, 1, 41, 83
1, 144192, Note_on_c, 1, 65, 89
1, 144192, Note_on_c, 9, 46, 107
1, 144192, Note_on_c, 9, 70, 66
1, 144192, Note_on_c, 11, 41, 83
1, 144192, Note_on_c, 11, 65, 89
1, 144201, Note_on_c, 1, 29, 0
1, 144201, Note_on_c, 11, 29, 0
1, 144210, Note_on_c, 9, 70, 0
1, 144210, Note_on_c, 9, 46, 0
1, 144231, Note_on_c, 3, 69, 0
1, 144231, Note_on_c, 8, 69, 0
1, 144282, Note_on_c, 11, 41, 0
1, 144282, Note_on_c, 1, 41, 0
1, 144286, Note_on_c, 1, 65, 0
1, 144286, Note_on_c, 11, 65, 0
1, 144384, Note_on_c, 1, 29, 68
1, 144384, Note_on_c, 3, 69, 122
1, 144384, Note_on_c, 8, 69, 127
1, 144384, Note_on_c, 9, 27, 127
1, 144384, Note_on_c, 9, 45, 107
1, 144384, Note_on_c, 9, 36, 127
1, 144384, Note_on_c, 9, 42, 66
1, 144384, Note_on_c, 9, 70, 92
1, 144384, Note_on_c, 11, 29, 68
1, 144384, Note_on_c, 12, 53, 80
1, 144386, Control_c, 12, 10, 125
1, 144402, Note_on_c, 9, 70, 0
1, 144402, Note_on_c, 9, 42, 0
1, 144402, Note_on_c, 9, 45, 0
1, 144402, Note_on_c, 9, 36, 0
1, 144402, Note_on_c, 9, 27, 0
1, 144427, Note_on_c, 12, 53, 0
1, 144434, Control_c, 12, 10, 119
1, 144480, Note_on_c, 9, 42, 75
1, 144480, Note_on_c, 12, 53, 73
1, 144482, Control_c, 12, 10, 113
1, 144482, Control_c, 12, 6, 25
1, 144498, Note_on_c, 9, 42, 0
1, 144514, Note_on_c, 12, 53, 0
1, 144530, Control_c, 12, 10, 107
1, 144576, Note_on_c, 1, 41, 94
1, 144576, Note_on_c, 1, 65, 92
1, 144576, Note_on_c, 9, 46, 107
1, 144576, Note_on_c, 11, 41, 94
1, 144576, Note_on_c, 11, 65, 92
1, 144576, Note_on_c, 12, 53, 80
1, 144578, Control_c, 12, 10, 101
1, 144586, Note_on_c, 3, 69, 0
1, 144586, Note_on_c, 8, 69, 0
1, 144594, Note_on_c, 9, 46, 0
1, 144599, Note_on_c, 1, 29, 0
1, 144599, Note_on_c, 11, 29, 0
1, 144619, Note_on_c, 12, 53, 0
1, 144626, Control_c, 12, 10, 95
1, 144650, Control_c, 12, 6, 40
1, 144666, Note_on_c, 1, 65, 0
1, 144666, Note_on_c, 11, 65, 0
1, 144666, Note_on_c, 11, 41, 0
1, 144666, Note_on_c, 1, 41, 0
1, 144672, Note_on_c, 9, 70, 44
1, 144672, Note_on_c, 12, 53, 73
1, 144674, Control_c, 12, 10, 89
1, 144690, Note_on_c, 9, 70, 0
1, 144706, Note_on_c, 12, 53, 0
1, 144722, Control_c, 12, 10, 83
1, 144768, Note_on_c, 1, 29, 71
1, 144768, Note_on_c, 9, 27, 127
1, 144768, Note_on_c, 9, 39, 127
1, 144768, Note_on_c, 9, 38, 127
1, 144768, Note_on_c, 9, 45, 107
1, 144768, Note_on_c, 9, 36, 127
1, 144768, Note_on_c, 9, 42, 66
1, 144768, Note_on_c, 9, 70, 92
1, 144768, Note_on_c, 11, 29, 71
1, 144768, Note_on_c, 12, 53, 80
1, 144770, Control_c, 12, 10, 77
1, 144786, Note_on_c, 9, 70, 0
1, 144786, Note_on_c, 9, 42, 0
1, 144786, Note_on_c, 9, 45, 0
1, 144786, Note_on_c, 9, 27, 0
1, 144786, Note_on_c, 9, 36, 0
1, 144786, Note_on_c, 9, 38, 0
1, 144786, Note_on_c, 9, 39, 0
1, 144811, Note_on_c, 12, 53, 0
1, 144818, Control_c, 12, 10, 71
1, 144854, Control_c, 12, 6, 60
1, 144864, Note_on_c, 9, 42, 75
1, 144864, Note_on_c, 12, 53, 73
1, 144866, Control_c, 12, 10, 65
1, 144882, Note_on_c, 9, 42, 0
1, 144898, Note_on_c, 12, 53, 0
1, 144914, Control_c, 12, 10, 59
1, 144960, Note_on_c, 1, 41, 85
1, 144960, Note_on_c, 1, 65, 92
1, 144960, Note_on_c, 9, 46, 107
1, 144960, Note_on_c, 9, 70, 80
1, 144960, Note_on_c, 11, 41, 85
1, 144960, Note_on_c, 11, 65, 92
1, 144960, Note_on_c, 12, 53, 80
1, 144962, Control_c, 12, 10, 53
1, 144968, Note_on_c, 11, 29, 0
1, 144968, Note_on_c, 1, 29, 0
1, 144978, Note_on_c, 9, 70, 0
1, 144978, Note_on_c, 9, 46, 0
1, 145003, Note_on_c, 12, 53, 0
1, 145010, Control_c, 12, 10, 47
1, 145050, Note_on_c, 1, 65, 0
1, 145050, Note_on_c, 11, 65, 0
1, 145050, Note_on_c, 1, 41, 0
1, 145050, Note_on_c, 11, 41, 0
1, 145056, Note_on_c, 12, 53, 73
1, 145058, Control_c, 12, 10, 41
1, 145090, Note_on_c, 12, 53, 0
1, 145106, Control_c, 12, 10, 35
1, 145152, Note_on_c, 1, 29, 71
1, 145152, Note_on_c, 3, 65, 122
1, 145152, Note_on_c, 8, 65, 127
1, 145152, Note_on_c, 9, 27, 127
1, 145152, Note_on_c, 9, 45, 107
1, 145152, Note_on_c, 9, 36, 127
1, 145152, Note_on_c, 9, 42, 66
1, 145152, Note_on_c, 9, 70, 86
1, 145152, Note_on_c, 11, 29, 71
1, 145152, Note_on_c, 12, 53, 80
1, 145154, Control_c, 12, 10, 29
1, 145170, Note_on_c, 9, 70, 0
1, 145170, Note_on_c, 9, 42, 0
1, 145170, Note_on_c, 9, 45, 0
1, 145170, Note_on_c, 9, 36, 0
1, 145170, Note_on_c, 9, 27, 0
1, 145195, Note_on_c, 12, 53, 0
1, 145202, Control_c, 12, 10, 23
1, 145248, Note_on_c, 9, 42, 75
1, 145248, Note_on_c, 12, 53, 73
1, 145250, Control_c, 12, 10, 17
1, 145266, Note_on_c, 9, 42, 0
1, 145282, Note_on_c, 12, 53, 0
1, 145298, Control_c, 12, 10, 11
1, 145344, Note_on_c, 1, 41, 87
1, 145344, Note_on_c, 1, 65, 92
1, 145344, Note_on_c, 9, 46, 107
1, 145344, Note_on_c, 9, 70, 13
1, 145344, Note_on_c, 11, 41, 87
1, 145344, Note_on_c, 11, 65, 92
1, 145346, Control_c, 12, 10, 5
1, 145352, Note_on_c, 1, 29, 0
1, 145352, Note_on_c, 11, 29, 0
1, 145362, Note_on_c, 9, 70, 0
1, 145362, Note_on_c, 9, 46, 0
1, 145396, Note_on_c, 8, 65, 0
1, 145396, Note_on_c, 3, 65, 0
1, 145434, Note_on_c, 1, 41, 0
1, 145434, Note_on_c, 11, 41, 0
1, 145434, Note_on_c, 1, 65, 0
1, 145434, Note_on_c, 11, 65, 0
1, 145440, Note_on_c, 9, 70, 26
1, 145458, Note_on_c, 9, 70, 0
1, 145536, Note_on_c, 1, 29, 85
1, 145536, Note_on_c, 1, 63, 89
1, 145536, Note_on_c, 3, 69, 122
1, 145536, Note_on_c, 8, 69, 127
1, 145536, Note_on_c, 9, 27, 127
1, 145536, Note_on_c, 9, 39, 127
1, 145536, Note_on_c, 9, 38, 127
1, 145536, Note_on_c, 9, 45, 107
1, 145536, Note_on_c, 9, 36, 127
1, 145536, Note_on_c, 9, 42, 66
1, 145536, Note_on_c, 9, 70, 92
1, 145536, Note_on_c, 11, 29, 85
1, 145536, Note_on_c, 11, 63, 89
1, 145538, Pitch_bend_c, 3, 0
1, 145538, Pitch_bend_c, 8, 0
1, 145546, Pitch_bend_c, 3, 455
1, 145546, Pitch_bend_c, 8, 455
1, 145554, Note_on_c, 9, 70, 0
1, 145554, Note_on_c, 9, 45, 0
1, 145554, Note_on_c, 9, 27, 0
1, 145554, Note_on_c, 9, 38, 0
1, 145554, Note_on_c, 9, 39, 0
1, 145554, Note_on_c, 9, 42, 0
1, 145554, Note_on_c, 9, 36, 0
1, 145554, Pitch_bend_c, 3, 910
1, 145554, Pitch_bend_c, 8, 910
1, 145562, Pitch_bend_c, 3, 1365
1, 145562, Pitch_bend_c, 8, 1365
1, 145570, Pitch_bend_c, 3, 1820
1, 145570, Pitch_bend_c, 8, 1820
1, 145578, Pitch_bend_c, 3, 2275
1, 145578, Pitch_bend_c, 8, 2275
1, 145586, Pitch_bend_c, 3, 2730
1, 145586, Pitch_bend_c, 8, 2730
1, 145594, Pitch_bend_c, 3, 3185
1, 145594, Pitch_bend_c, 8, 3185
1, 145602, Pitch_bend_c, 3, 3640
1, 145602, Pitch_bend_c, 8, 3640
1, 145610, Pitch_bend_c, 3, 4095
1, 145610, Pitch_bend_c, 8, 4095
1, 145618, Pitch_bend_c, 3, 4550
1, 145618, Pitch_bend_c, 8, 4550
1, 145626, Pitch_bend_c, 3, 5006
1, 145626, Pitch_bend_c, 8, 5006
1, 145630, Note_on_c, 1, 63, 0
1, 145630, Note_on_c, 11, 63, 0
1, 145632, Note_on_c, 9, 42, 75
1, 145634, Pitch_bend_c, 3, 5461
1, 145634, Pitch_bend_c, 8, 5461
1, 145642, Pitch_bend_c, 3, 5916
1, 145642, Pitch_bend_c, 8, 5916
1, 145650, Note_on_c, 9, 42, 0
1, 145650, Pitch_bend_c, 3, 6371
1, 145650, Pitch_bend_c, 8, 6371
1, 145658, Pitch_bend_c, 3, 6826
1, 145658, Pitch_bend_c, 8, 6826
1, 145666, Pitch_bend_c, 3, 7281
1, 145666, Pitch_bend_c, 8, 7281
1, 145674, Pitch_bend_c, 3, 8763
1, 145674, Pitch_bend_c, 8, 8763
1, 145718, Note_on_c, 11, 29, 0
1, 145718, Note_on_c, 1, 29, 0
1, 145728, Note_on_c, 1, 41, 85
1, 145728, Note_on_c, 1, 65, 89
1, 145728, Note_on_c, 9, 46, 107
1, 145728, Note_on_c, 9, 70, 63
1, 145728, Note_on_c, 11, 41, 85
1, 145728, Note_on_c, 11, 65, 89
1, 145746, Note_on_c, 9, 70, 0
1, 145746, Note_on_c, 9, 46, 0
1, 145767, Note_on_c, 8, 69, 0
1, 145767, Note_on_c, 3, 69, 0
1, 145818, Note_on_c, 11, 41, 0
1, 145818, Note_on_c, 1, 41, 0
1, 145822, Note_on_c, 11, 65, 0
1, 145822, Note_on_c, 1, 65, 0
1, 145826, Control_c, 12, 6, 10
1, 145920, Note_on_c, 1, 32, 71
1, 145920, Note_on_c, 1, 53, 71
1, 145920, Note_on_c, 1, 65, 71
1, 145920, Note_on_c, 3, 69, 122
1, 145920, Note_on_c, 8, 69, 127
1, 145920, Note_on_c, 9, 27, 127
1, 145920, Note_on_c, 9, 45, 107
1, 145920, Note_on_c, 9, 36, 127
1, 145920, Note_on_c, 9, 42, 66
1, 145920, Note_on_c, 9, 70, 92
1, 145920, Note_on_c, 11, 32, 71
1, 145920, Note_on_c, 11, 53, 71
1, 145920, Note_on_c, 11, 65, 71
1, 145920, Note_on_c, 12, 53, 80
1, 145922, Control_c, 12, 11, 127
1, 145938, Note_on_c, 9, 70, 0
1, 145938, Note_on_c, 9, 36, 0
1, 145938, Note_on_c, 9, 45, 0
1, 145938, Note_on_c, 9, 27, 0
1, 145938, Note_on_c, 9, 42, 0
1, 145963, Note_on_c, 12, 53, 0
1, 145970, Control_c, 12, 10, 5
1, 146014, Note_on_c, 1, 65, 0
1, 146014, Note_on_c, 1, 53, 0
1, 146014, Note_on_c, 11, 53, 0
1, 146014, Note_on_c, 11, 65, 0
1, 146016, Note_on_c, 9, 42, 75
1, 146016, Note_on_c, 12, 53, 73
1, 146018, Control_c, 12, 10, 13
1, 146018, Control_c, 12, 6, 25
1, 146034, Note_on_c, 9, 42, 0
1, 146050, Note_on_c, 12, 53, 0
1, 146066, Control_c, 12, 10, 20
1, 146079, Note_on_c, 11, 32, 0
1, 146079, Note_on_c, 1, 32, 0
1, 146112, Note_on_c, 1, 44, 100
1, 146112, Note_on_c, 1, 56, 92
1, 146112, Note_on_c, 9, 46, 107
1, 146112, Note_on_c, 11, 44, 100
1, 146112, Note_on_c, 11, 56, 92
1, 146112, Note_on_c, 12, 53, 80
1, 146114, Control_c, 12, 10, 27
1, 146122, Note_on_c, 8, 69, 0
1, 146122, Note_on_c, 3, 69, 0
1, 146130, Note_on_c, 9, 46, 0
1, 146155, Note_on_c, 12, 53, 0
1, 146162, Control_c, 12, 10, 34
1, 146186, Control_c, 12, 6, 40
1, 146202, Note_on_c, 1, 56, 0
1, 146202, Note_on_c, 11, 56, 0
1, 146202, Note_on_c, 1, 44, 0
1, 146202, Note_on_c, 11, 44, 0
1, 146208, Note_on_c, 9, 70, 40
1, 146208, Note_on_c, 12, 53, 73
1, 146210, Control_c, 12, 10, 41
1, 146226, Note_on_c, 9, 70, 0
1, 146242, Note_on_c, 12, 53, 0
1, 146258, Control_c, 12, 10, 49
1, 146304, Note_on_c, 1, 32, 77
1, 146304, Note_on_c, 9, 27, 127
1, 146304, Note_on_c, 9, 39, 127
1, 146304, Note_on_c, 9, 38, 127
1, 146304, Note_on_c, 9, 45, 107
1, 146304, Note_on_c, 9, 36, 127
1, 146304, Note_on_c, 9, 42, 66
1, 146304, Note_on_c, 9, 70, 86
1, 146304, Note_on_c, 11, 32, 77
1, 146304, Note_on_c, 12, 53, 80
1, 146306, Control_c, 12, 10, 56
1, 146322, Note_on_c, 9, 70, 0
1, 146322, Note_on_c, 9, 42, 0
1, 146322, Note_on_c, 9, 45, 0
1, 146322, Note_on_c, 9, 27, 0
1, 146322, Note_on_c, 9, 36, 0
1, 146322, Note_on_c, 9, 38, 0
1, 146322, Note_on_c, 9, 39, 0
1, 146347, Note_on_c, 12, 53, 0
1, 146354, Control_c, 12, 10, 63
1, 146390, Control_c, 12, 6, 60
1, 146400, Note_on_c, 9, 42, 75
1, 146400, Note_on_c, 12, 53, 73
1, 146402, Control_c, 12, 10, 70
1, 146418, Note_on_c, 9, 42, 0
1, 146434, Note_on_c, 12, 53, 0
1, 146450, Control_c, 12, 10, 77
1, 146496, Note_on_c, 1, 44, 100
1, 146496, Note_on_c, 1, 56, 92
1, 146496, Note_on_c, 9, 46, 92
1, 146496, Note_on_c, 9, 70, 80
1, 146496, Note_on_c, 11, 44, 100
1, 146496, Note_on_c, 11, 56, 92
1, 146496, Note_on_c, 12, 53, 80
1, 146498, Control_c, 12, 10, 84
1, 146502, Note_on_c, 11, 32, 0
1, 146502, Note_on_c, 1, 32, 0
1, 146514, Note_on_c, 9, 70, 0
1, 146514, Note_on_c, 9, 46, 0
1, 146539, Note_on_c, 12, 53, 0
1, 146546, Control_c, 12, 10, 92
1, 146570, Control_c, 12, 6, 85
1, 146586, Note_on_c, 1, 56, 0
1, 146586, Note_on_c, 11, 56, 0
1, 146586, Note_on_c, 1, 44, 0
1, 146586, Note_on_c, 11, 44, 0
1, 146592, Note_on_c, 12, 53, 73
1, 146594, Control_c, 12, 10, 99
1, 146626, Note_on_c, 12, 53, 0
1, 146642, Control_c, 12, 10, 106
1, 146688, Note_on_c, 1, 32, 74
1, 146688, Note_on_c, 3, 65, 122
1, 146688, Note_on_c, 8, 65, 127
1, 146688, Note_on_c, 9, 27, 127
1, 146688, Note_on_c, 9, 45, 107
1, 146688, Note_on_c, 9, 36, 127
1, 146688, Note_on_c, 9, 42, 66
1, 146688, Note_on_c, 9, 70, 92
1, 146688, Note_on_c, 11, 32, 74
1, 146688, Note_on_c, 12, 53, 80
1, 146690, Control_c, 12, 10, 113
1, 146706, Note_on_c, 9, 70, 0
1, 146706, Note_on_c, 9, 42, 0
1, 146706, Note_on_c, 9, 45, 0
1, 146706, Note_on_c, 9, 36, 0
1, 146706, Note_on_c, 9, 27, 0
1, 146731, Note_on_c, 12, 53, 0
1, 146738, Control_c, 12, 10, 120
1, 146784, Note_on_c, 9, 42, 75
1, 146784, Note_on_c, 12, 53, 73
1, 146786, Control_c, 12, 6, 110
1, 146802, Note_on_c, 9, 42, 0
1, 146818, Note_on_c, 12, 53, 0
1, 146880, Note_on_c, 1, 44, 102
1, 146880, Note_on_c, 1, 56, 92
1, 146880, Note_on_c, 9, 46, 107
1, 146880, Note_on_c, 9, 70, 20
1, 146880, Note_on_c, 11, 44, 102
1, 146880, Note_on_c, 11, 56, 92
1, 146888, Note_on_c, 1, 32, 0
1, 146888, Note_on_c, 11, 32, 0
1, 146898, Note_on_c, 9, 70, 0
1, 146898, Note_on_c, 9, 46, 0
1, 146932, Note_on_c, 8, 65, 0
1, 146932, Note_on_c, 3, 65, 0
1, 146970, Note_on_c, 1, 44, 0
1, 146970, Note_on_c, 11, 44, 0
1, 146970, Note_on_c, 1, 56, 0
1, 146970, Note_on_c, 11, 56, 0
1, 146976, Note_on_c, 9, 70, 49
1, 146994, Note_on_c, 9, 70, 0
1, 147066, Pitch_bend_c, 3, 0
1, 147066, Pitch_bend_c, 8, 0
1, 147072, Note_on_c, 1, 32, 74
1, 147072, Note_on_c, 3, 69, 122
1, 147072, Note_on_c, 8, 69, 127
1, 147072, Note_on_c, 9, 27, 127
1, 147072, Note_on_c, 9, 39, 127
1, 147072, Note_on_c, 9, 38, 127
1, 147072, Note_on_c, 9, 45, 107
1, 147072, Note_on_c, 9, 36, 127
1, 147072, Note_on_c, 9, 42, 66
1, 147072, Note_on_c, 9, 70, 76
1, 147072, Note_on_c, 11, 32, 74
1, 147074, Pitch_bend_c, 3, 455
1, 147074, Pitch_bend_c, 8, 455
1, 147082, Pitch_bend_c, 3, 910
1, 147082, Pitch_bend_c, 8, 910
1, 147090, Note_on_c, 9, 70, 0
1, 147090, Note_on_c, 9, 36, 0
1, 147090, Note_on_c, 9, 39, 0
1, 147090, Note_on_c, 9, 45, 0
1, 147090, Note_on_c, 9, 38, 0
1, 147090, Note_on_c, 9, 42, 0
1, 147090, Note_on_c, 9, 27, 0
1, 147090, Pitch_bend_c, 3, 1365
1, 147090, Pitch_bend_c, 8, 1365
1, 147098, Pitch_bend_c, 3, 1820
1, 147098, Pitch_bend_c, 8, 1820
1, 147106, Pitch_bend_c, 3, 2275
1, 147106, Pitch_bend_c, 8, 2275
1, 147114, Pitch_bend_c, 3, 2730
1, 147114, Pitch_bend_c, 8, 2730
1, 147122, Pitch_bend_c, 3, 3185
1, 147122, Pitch_bend_c, 8, 3185
1, 147130, Pitch_bend_c, 3, 3640
1, 147130, Pitch_bend_c, 8, 3640
1, 147138, Pitch_bend_c, 3, 4095
1, 147138, Pitch_bend_c, 8, 4095
1, 147146, Pitch_bend_c, 3, 4550
1, 147146, Pitch_bend_c, 8, 4550
1, 147154, Pitch_bend_c, 3, 5006
1, 147154, Pitch_bend_c, 8, 5006
1, 147162, Pitch_bend_c, 3, 5461
1, 147162, Pitch_bend_c, 8, 5461
1, 147168, Note_on_c, 9, 42, 75
1, 147170, Pitch_bend_c, 3, 5916
1, 147170, Pitch_bend_c, 8, 5916
1, 147178, Pitch_bend_c, 3, 6371
1, 147178, Pitch_bend_c, 8, 6371
1, 147186, Note_on_c, 9, 42, 0
1, 147186, Pitch_bend_c, 3, 6826
1, 147186, Pitch_bend_c, 8, 6826
1, 147194, Pitch_bend_c, 3, 7281
1, 147194, Pitch_bend_c, 8, 7281
1, 147202, Pitch_bend_c, 3, 8763
1, 147202, Pitch_bend_c, 8, 8763
1, 147264, Note_on_c, 1, 44, 83
1, 147264, Note_on_c, 1, 56, 89
1, 147264, Note_on_c, 9, 46, 107
1, 147264, Note_on_c, 9, 70, 66
1, 147264, Note_on_c, 11, 44, 83
1, 147264, Note_on_c, 11, 56, 89
1, 147273, Note_on_c, 1, 32, 0
1, 147273, Note_on_c, 11, 32, 0
1, 147282, Note_on_c, 9, 70, 0
1, 147282, Note_on_c, 9, 46, 0
1, 147303, Note_on_c, 3, 69, 0
1, 147303, Note_on_c, 8, 69, 0
1, 147354, Note_on_c, 11, 44, 0
1, 147354, Note_on_c, 1, 44, 0
1, 147358, Note_on_c, 1, 56, 0
1, 147358, Note_on_c, 11, 56, 0
1, 147362, Control_c, 12, 6, 10
1, 147456, Note_on_c, 3, 69, 122
1, 147456, Note_on_c, 6, 53, 87
1, 147456, Note_on_c, 8, 69, 127
1, 147456, Note_on_c, 9, 27, 127
1, 147456, Note_on_c, 9, 36, 127
1, 147456, Note_on_c, 9, 38, 97
1, 147456, Note_on_c, 9, 45, 107
1, 147456, Note_on_c, 9, 42, 66
1, 147456, Note_on_c, 9, 70, 92
1, 147456, Note_on_c, 9, 57, 117
1, 147457, Note_on_c, 6, 65, 87
1, 147458, Pitch_bend_c, 1, 8192
1, 147459, Pitch_bend_c, 11, 8192
1, 147474, Note_on_c, 9, 57, 0
1, 147474, Note_on_c, 9, 42, 0
1, 147474, Note_on_c, 9, 36, 0
1, 147474, Note_on_c, 9, 45, 0
1, 147474, Note_on_c, 9, 38, 0
1, 147474, Note_on_c, 9, 70, 0
1, 147474, Note_on_c, 9, 27, 0
1, 147504, Note_on_c, 9, 38, 71
1, 147504, Note_on_c, 9, 50, 71
1, 147522, Note_on_c, 9, 38, 0
1, 147522, Note_on_c, 9, 50, 0
1, 147552, Note_on_c, 9, 38, 97
1, 147552, Note_on_c, 9, 50, 127
1, 147552, Note_on_c, 9, 42, 75
1, 147554, Control_c, 12, 6, 25
1, 147570, Note_on_c, 9, 42, 0
1, 147570, Note_on_c, 9, 38, 0
1, 147570, Note_on_c, 9, 50, 0
1, 147600, Note_on_c, 9, 38, 86
1, 147600, Note_on_c, 9, 50, 86
1, 147618, Note_on_c, 9, 38, 0
1, 147618, Note_on_c, 9, 50, 0
1, 147648, Note_on_c, 9, 38, 97
1, 147648, Note_on_c, 9, 50, 127
1, 147648, Note_on_c, 9, 46, 107
1, 147658, Note_on_c, 8, 69, 0
1, 147658, Note_on_c, 3, 69, 0
1, 147666, Note_on_c, 9, 50, 0
1, 147666, Note_on_c, 9, 46, 0
1, 147666, Note_on_c, 9, 38, 0
1, 147696, Note_on_c, 9, 38, 89
1, 147696, Note_on_c, 9, 50, 89
1, 147714, Note_on_c, 9, 38, 0
1, 147714, Note_on_c, 9, 50, 0
1, 147722, Control_c, 12, 6, 40
1, 147744, Note_on_c, 9, 38, 97
1, 147744, Note_on_c, 9, 50, 127
1, 147744, Note_on_c, 9, 70, 44
1, 147762, Note_on_c, 9, 70, 0
1, 147762, Note_on_c, 9, 50, 0
1, 147762, Note_on_c, 9, 38, 0
1, 147792, Note_on_c, 9, 38, 77
1, 147792, Note_on_c, 9, 50, 77
1, 147810, Note_on_c, 9, 38, 0
1, 147810, Note_on_c, 9, 50, 0
1, 147840, Note_on_c, 9, 27, 127
1, 147840, Note_on_c, 9, 36, 127
1, 147840, Note_on_c, 9, 45, 107
1, 147840, Note_on_c, 9, 42, 66
1, 147840, Note_on_c, 9, 70, 92
1, 147840, Note_on_c, 9, 57, 110
1, 147858, Note_on_c, 9, 57, 0
1, 147858, Note_on_c, 9, 70, 0
1, 147858, Note_on_c, 9, 45, 0
1, 147858, Note_on_c, 9, 42, 0
1, 147858, Note_on_c, 9, 27, 0
1, 147858, Note_on_c, 9, 36, 0
1, 147888, Note_on_c, 9, 38, 77
1, 147888, Note_on_c, 9, 50, 77
1, 147906, Note_on_c, 9, 38, 0
1, 147906, Note_on_c, 9, 50, 0
1, 147926, Control_c, 12, 6, 60
1, 147936, Note_on_c, 9, 38, 97
1, 147936, Note_on_c, 9, 50, 127
1, 147936, Note_on_c, 9, 42, 75
1, 147954, Note_on_c, 9, 42, 0
1, 147954, Note_on_c, 9, 50, 0
1, 147954, Note_on_c, 9, 38, 0
1, 147984, Note_on_c, 9, 38, 92
1, 147984, Note_on_c, 9, 50, 92
1, 148002, Note_on_c, 9, 38, 0
1, 148002, Note_on_c, 9, 50, 0
1, 148032, Note_on_c, 9, 38, 97
1, 148032, Note_on_c, 9, 50, 127
1, 148032, Note_on_c, 9, 46, 107
1, 148032, Note_on_c, 9, 70, 80
1, 148050, Note_on_c, 9, 70, 0
1, 148050, Note_on_c, 9, 46, 0
1, 148050, Note_on_c, 9, 50, 0
1, 148050, Note_on_c, 9, 38, 0
1, 148080, Note_on_c, 9, 38, 95
1, 148080, Note_on_c, 9, 50, 95
1, 148098, Note_on_c, 9, 38, 0
1, 148098, Note_on_c, 9, 50, 0
1, 148106, Control_c, 12, 6, 85
1, 148128, Note_on_c, 9, 38, 97
1, 148128, Note_on_c, 9, 50, 127
1, 148146, Note_on_c, 9, 38, 0
1, 148146, Note_on_c, 9, 50, 0
1, 148176, Note_on_c, 9, 38, 77
1, 148194, Note_on_c, 9, 38, 0
1, 148224, Note_on_c, 3, 65, 122
1, 148224, Note_on_c, 9, 27, 127
1, 148224, Note_on_c, 9, 36, 127
1, 148224, Note_on_c, 9, 45, 107
1, 148224, Note_on_c, 9, 42, 66
1, 148224, Note_on_c, 9, 70, 86
1, 148224, Note_on_c, 9, 57, 117
1, 148242, Note_on_c, 9, 57, 0
1, 148242, Note_on_c, 9, 45, 0
1, 148242, Note_on_c, 9, 70, 0
1, 148242, Note_on_c, 9, 36, 0
1, 148242, Note_on_c, 9, 42, 0
1, 148242, Note_on_c, 9, 27, 0
1, 148272, Note_on_c, 9, 38, 71
1, 148272, Note_on_c, 9, 50, 71
1, 148290, Note_on_c, 9, 38, 0
1, 148290, Note_on_c, 9, 50, 0
1, 148320, Note_on_c, 9, 38, 97
1, 148320, Note_on_c, 9, 50, 127
1, 148320, Note_on_c, 9, 42, 75
1, 148322, Control_c, 12, 6, 110
1, 148338, Note_on_c, 9, 42, 0
1, 148338, Note_on_c, 9, 38, 0
1, 148338, Note_on_c, 9, 50, 0
1, 148368, Note_on_c, 9, 38, 95
1, 148368, Note_on_c, 9, 50, 95
1, 148386, Note_on_c, 9, 38, 0
1, 148386, Note_on_c, 9, 50, 0
1, 148416, Note_on_c, 9, 38, 97
1, 148416, Note_on_c, 9, 50, 127
1, 148416, Note_on_c, 9, 46, 107
1, 148416, Note_on_c, 9, 70, 13
1, 148434, Note_on_c, 9, 70, 0
1, 148434, Note_on_c, 9, 46, 0
1, 148434, Note_on_c, 9, 38, 0
1, 148434, Note_on_c, 9, 50, 0
1, 148464, Note_on_c, 9, 38, 107
1, 148464, Note_on_c, 9, 50, 107
1, 148468, Note_on_c, 3, 65, 0
1, 148482, Note_on_c, 9, 38, 0
1, 148482, Note_on_c, 9, 50, 0
1, 148512, Note_on_c, 9, 38, 97
1, 148512, Note_on_c, 9, 50, 127
1, 148512, Note_on_c, 9, 70, 26
1, 148530, Note_on_c, 9, 70, 0
1, 148530, Note_on_c, 9, 50, 0
1, 148530, Note_on_c, 9, 38, 0
1, 148560, Note_on_c, 9, 38, 98
1, 148578, Note_on_c, 9, 38, 0
1, 148608, Note_on_c, 3, 69, 122
1, 148608, Note_on_c, 9, 27, 127
1, 148608, Note_on_c, 9, 36, 127
1, 148608, Note_on_c, 9, 45, 107
1, 148608, Note_on_c, 9, 42, 66
1, 148608, Note_on_c, 9, 70, 92
1, 148608, Note_on_c, 9, 57, 117
1, 148626, Note_on_c, 9, 57, 0
1, 148626, Note_on_c, 9, 45, 0
1, 148626, Note_on_c, 9, 70, 0
1, 148626, Note_on_c, 9, 36, 0
1, 148626, Note_on_c, 9, 42, 0
1, 148626, Note_on_c, 9, 27, 0
1, 148656, Note_on_c, 9, 38, 80
1, 148656, Note_on_c, 9, 50, 80
1, 148674, Note_on_c, 9, 38, 0
1, 148674, Note_on_c, 9, 50, 0
1, 148704, Note_on_c, 9, 38, 97
1, 148704, Note_on_c, 9, 50, 127
1, 148704, Note_on_c, 9, 42, 75
1, 148722, Note_on_c, 9, 42, 0
1, 148722, Note_on_c, 9, 38, 0
1, 148722, Note_on_c, 9, 50, 0
1, 148752, Note_on_c, 9, 38, 89
1, 148752, Note_on_c, 9, 50, 89
1, 148770, Note_on_c, 9, 38, 0
1, 148770, Note_on_c, 9, 50, 0
1, 148800, Note_on_c, 9, 38, 97
1, 148800, Note_on_c, 9, 50, 127
1, 148800, Note_on_c, 9, 46, 107
1, 148800, Note_on_c, 9, 70, 63
1, 148818, Note_on_c, 9, 70, 0
1, 148818, Note_on_c, 9, 46, 0
1, 148818, Note_on_c, 9, 38, 0
1, 148818, Note_on_c, 9, 50, 0
1, 148839, Note_on_c, 3, 69, 0
1, 148848, Note_on_c, 9, 38, 98
1, 148848, Note_on_c, 9, 50, 98
1, 148866, Note_on_c, 9, 38, 0
1, 148866, Note_on_c, 9, 50, 0
1, 148896, Note_on_c, 9, 27, 127
1, 148896, Note_on_c, 9, 36, 127
1, 148896, Note_on_c, 9, 38, 97
1, 148896, Note_on_c, 9, 45, 107
1, 148896, Note_on_c, 9, 50, 127
1, 148898, Control_c, 12, 6, 10
1, 148914, Note_on_c, 9, 45, 0
1, 148914, Note_on_c, 9, 38, 0
1, 148914, Note_on_c, 9, 50, 0
1, 148914, Note_on_c, 9, 27, 0
1, 148914, Note_on_c, 9, 36, 0
1, 148944, Note_on_c, 9, 38, 83
1, 148962, Note_on_c, 9, 38, 0
1, 148986, Note_on_c, 6, 65, 0
1, 148992, Note_on_c, 1, 29, 74
1, 148992, Note_on_c, 2, 72, 72
1, 148992, Note_on_c, 2, 77, 68
1, 148992, Note_on_c, 3, 69, 122
1, 148992, Note_on_c, 5, 57, 59
1, 148992, Note_on_c, 8, 69, 127
1, 148992, Note_on_c, 9, 27, 127
1, 148992, Note_on_c, 9, 45, 107
1, 148992, Note_on_c, 9, 36, 127
1, 148992, Note_on_c, 9, 42, 66
1, 148992, Note_on_c, 9, 70, 92
1, 148992, Note_on_c, 9, 57, 117
1, 148992, Note_on_c, 11, 29, 74
1, 148992, Note_on_c, 12, 53, 80
1, 148994, Control_c, 1, 10, 73
1, 148994, Control_c, 1, 11, 127
1, 148994, Control_c, 5, 10, 68
1, 148994, Control_c, 11, 11, 92
1, 148994, Control_c, 12, 11, 127
1, 148995, Note_on_c, 6, 53, 0
1, 149010, Note_on_c, 9, 45, 0
1, 149010, Note_on_c, 9, 27, 0
1, 149010, Note_on_c, 9, 42, 0
1, 149010, Note_on_c, 9, 57, 0
1, 149010, Note_on_c, 9, 36, 0
1, 149010, Note_on_c, 9, 70, 0
1, 149035, Note_on_c, 12, 53, 0
1, 149042, Control_c, 12, 10, 5
1, 149082, Note_on_c, 5, 57, 0
1, 149088, Note_on_c, 5, 65, 68
1, 149088, Note_on_c, 9, 42, 75
1, 149088, Note_on_c, 12, 53, 73
1, 149090, Control_c, 1, 93, 32
1, 149090, Control_c, 5, 10, 72
1, 149090, Control_c, 12, 10, 13
1, 149090, Control_c, 12, 6, 25
1, 149106, Note_on_c, 9, 42, 0
1, 149122, Note_on_c, 12, 53, 0
1, 149138, Control_c, 12, 10, 20
1, 149151, Note_on_c, 1, 29, 0
1, 149151, Note_on_c, 11, 29, 0
1, 149178, Note_on_c, 5, 65, 0
1, 149184, Note_on_c, 1, 41, 100
1, 149184, Note_on_c, 1, 65, 92
1, 149184, Note_on_c, 5, 60, 64
1, 149184, Note_on_c, 9, 46, 107
1, 149184, Note_on_c, 11, 41, 100
1, 149184, Note_on_c, 11, 65, 92
1, 149184, Note_on_c, 12, 53, 80
1, 149186, Control_c, 5, 10, 76
1, 149186, Control_c, 12, 10, 27
1, 149194, Note_on_c, 3, 69, 0
1, 149194, Note_on_c, 8, 69, 0
1, 149202, Note_on_c, 9, 46, 0
1, 149227, Note_on_c, 12, 53, 0
1, 149234, Control_c, 12, 10, 34
1, 149258, Control_c, 12, 6, 40
1, 149274, Note_on_c, 11, 41, 0
1, 149274, Note_on_c, 1, 65, 0
1, 149274, Note_on_c, 11, 65, 0
1, 149274, Note_on_c, 1, 41, 0
1, 149280, Note_on_c, 5, 69, 74
1, 149280, Note_on_c, 9, 70, 40
1, 149280, Note_on_c, 12, 53, 73
1, 149282, Control_c, 5, 10, 79
1, 149282, Control_c, 12, 10, 41
1, 149298, Note_on_c, 9, 70, 0
1, 149299, Note_on_c, 5, 60, 0
1, 149314, Note_on_c, 12, 53, 0
1, 149330, Control_c, 12, 10, 49
1, 149370, Note_on_c, 5, 69, 0
1, 149376, Note_on_c, 1, 29, 74
1, 149376, Note_on_c, 9, 27, 127
1, 149376, Note_on_c, 9, 39, 127
1, 149376, Note_on_c, 9, 38, 127
1, 149376, Note_on_c, 9, 36, 127
1, 149376, Note_on_c, 9, 45, 107
1, 149376, Note_on_c, 9, 42, 66
1, 149376, Note_on_c, 9, 70, 86
1, 149376, Note_on_c, 11, 29, 74
1, 149376, Note_on_c, 12, 53, 80
1, 149378, Control_c, 5, 10, 83
1, 149378, Control_c, 12, 10, 56
1, 149394, Note_on_c, 9, 70, 0
1, 149394, Note_on_c, 9, 45, 0
1, 149394, Note_on_c, 9, 39, 0
1, 149394, Note_on_c, 9, 36, 0
1, 149394, Note_on_c, 9, 38, 0
1, 149394, Note_on_c, 9, 42, 0
1, 149394, Note_on_c, 9, 27, 0
1, 149419, Note_on_c, 12, 53, 0
1, 149426, Control_c, 12, 10, 63
1, 149462, Control_c, 12, 6, 60
1, 149472, Note_on_c, 5, 65, 77
1, 149472, Note_on_c, 9, 42, 75
1, 149472, Note_on_c, 12, 53, 73
1, 149474, Control_c, 5, 10, 87
1, 149474, Control_c, 12, 10, 70
1, 149490, Note_on_c, 9, 42, 0
1, 149506, Note_on_c, 12, 53, 0
1, 149522, Control_c, 12, 10, 77
1, 149562, Note_on_c, 5, 65, 0
1, 149568, Note_on_c, 1, 41, 110
1, 149568, Note_on_c, 1, 65, 92
1, 149568, Note_on_c, 5, 72, 64
1, 149568, Note_on_c, 9, 46, 92
1, 149568, Note_on_c, 9, 70, 80
1, 149568, Note_on_c, 11, 41, 110
1, 149568, Note_on_c, 11, 65, 92
1, 149568, Note_on_c, 12, 53, 80
1, 149570, Control_c, 5, 10, 91
1, 149570, Control_c, 12, 10, 84
1, 149574, Note_on_c, 11, 29, 0
1, 149574, Note_on_c, 1, 29, 0
1, 149586, Note_on_c, 9, 70, 0
1, 149586, Note_on_c, 9, 46, 0
1, 149611, Note_on_c, 12, 53, 0
1, 149618, Control_c, 12, 10, 92
1, 149642, Control_c, 12, 6, 85
1, 149658, Note_on_c, 11, 41, 0
1, 149658, Note_on_c, 1, 65, 0
1, 149658, Note_on_c, 11, 65, 0
1, 149658, Note_on_c, 1, 41, 0
1, 149664, Note_on_c, 5, 69, 74
1, 149664, Note_on_c, 12, 53, 73
1, 149666, Control_c, 5, 10, 94
1, 149666, Control_c, 12, 10, 99
1, 149683, Note_on_c, 5, 72, 0
1, 149698, Note_on_c, 12, 53, 0
1, 149714, Control_c, 12, 10, 106
1, 149754, Note_on_c, 5, 69, 0
1, 149760, Note_on_c, 1, 29, 71
1, 149760, Note_on_c, 3, 65, 122
1, 149760, Note_on_c, 5, 77, 89
1, 149760, Note_on_c, 8, 65, 127
1, 149760, Note_on_c, 9, 27, 127
1, 149760, Note_on_c, 9, 36, 127
1, 149760, Note_on_c, 9, 45, 107
1, 149760, Note_on_c, 9, 42, 66
1, 149760, Note_on_c, 9, 70, 92
1, 149760, Note_on_c, 11, 29, 71
1, 149760, Note_on_c, 12, 53, 80
1, 149762, Control_c, 5, 10, 98
1, 149762, Control_c, 12, 10, 113
1, 149778, Note_on_c, 9, 70, 0
1, 149778, Note_on_c, 9, 36, 0
1, 149778, Note_on_c, 9, 27, 0
1, 149778, Note_on_c, 9, 42, 0
1, 149778, Note_on_c, 9, 45, 0
1, 149803, Note_on_c, 12, 53, 0
1, 149810, Control_c, 12, 10, 120
1, 149856, Note_on_c, 5, 72, 74
1, 149856, Note_on_c, 9, 42, 75
1, 149856, Note_on_c, 12, 53, 73
1, 149858, Control_c, 5, 10, 102
1, 149858, Control_c, 12, 6, 110
1, 149862, Note_on_c, 5, 77, 0
1, 149874, Note_on_c, 9, 42, 0
1, 149890, Note_on_c, 12, 53, 0
1, 149946, Note_on_c, 5, 72, 0
1, 149952, Note_on_c, 1, 41, 102
1, 149952, Note_on_c, 1, 65, 92
1, 149952, Note_on_c, 5, 69, 64
1, 149952, Note_on_c, 9, 46, 107
1, 149952, Note_on_c, 9, 70, 20
1, 149952, Note_on_c, 11, 41, 102
1, 149952, Note_on_c, 11, 65, 92
1, 149954, Control_c, 5, 10, 105
1, 149960, Note_on_c, 11, 29, 0
1, 149960, Note_on_c, 1, 29, 0
1, 149970, Note_on_c, 9, 70, 0
1, 149970, Note_on_c, 9, 46, 0
1, 150004, Note_on_c, 8, 65, 0
1, 150004, Note_on_c, 3, 65, 0
1, 150042, Note_on_c, 1, 41, 0
1, 150042, Note_on_c, 1, 65, 0
1, 150042, Note_on_c, 11, 41, 0
1, 150042, Note_on_c, 11, 65, 0
1, 150048, Note_on_c, 5, 65, 80
1, 150048, Note_on_c, 9, 70, 49
1, 150050, Control_c, 5, 10, 109
1, 150066, Note_on_c, 9, 70, 0
1, 150067, Note_on_c, 5, 69, 0
1, 150138, Note_on_c, 5, 65, 0
1, 150144, Note_on_c, 1, 29, 74
1, 150144, Note_on_c, 3, 69, 122
1, 150144, Note_on_c, 5, 72, 86
1, 150144, Note_on_c, 8, 69, 127
1, 150144, Note_on_c, 9, 27, 127
1, 150144, Note_on_c, 9, 39, 127
1, 150144, Note_on_c, 9, 38, 127
1, 150144, Note_on_c, 9, 45, 107
1, 150144, Note_on_c, 9, 36, 127
1, 150144, Note_on_c, 9, 42, 66
1, 150144, Note_on_c, 9, 70, 76
1, 150144, Note_on_c, 11, 29, 74
1, 150146, Pitch_bend_c, 3, 0
1, 150146, Control_c, 5, 10, 113
1, 150146, Pitch_bend_c, 8, 0
1, 150154, Pitch_bend_c, 3, 455
1, 150154, Pitch_bend_c, 8, 455
1, 150162, Note_on_c, 9, 70, 0
1, 150162, Note_on_c, 9, 39, 0
1, 150162, Note_on_c, 9, 45, 0
1, 150162, Note_on_c, 9, 27, 0
1, 150162, Note_on_c, 9, 42, 0
1, 150162, Note_on_c, 9, 38, 0
1, 150162, Note_on_c, 9, 36, 0
1, 150162, Pitch_bend_c, 3, 910
1, 150162, Pitch_bend_c, 8, 910
1, 150170, Pitch_bend_c, 3, 1365
1, 150170, Pitch_bend_c, 8, 1365
1, 150178, Pitch_bend_c, 3, 1820
1, 150178, Pitch_bend_c, 8, 1820
1, 150186, Pitch_bend_c, 3, 2275
1, 150186, Pitch_bend_c, 8, 2275
1, 150194, Pitch_bend_c, 3, 2730
1, 150194, Pitch_bend_c, 8, 2730
1, 150202, Pitch_bend_c, 3, 3185
1, 150202, Pitch_bend_c, 8, 3185
1, 150210, Pitch_bend_c, 3, 3640
1, 150210, Pitch_bend_c, 8, 3640
1, 150218, Pitch_bend_c, 3, 4095
1, 150218, Pitch_bend_c, 8, 4095
1, 150226, Pitch_bend_c, 3, 4550
1, 150226, Pitch_bend_c, 8, 4550
1, 150234, Pitch_bend_c, 3, 5006
1, 150234, Pitch_bend_c, 8, 5006
1, 150240, Note_on_c, 5, 60, 74
1, 150240, Note_on_c, 9, 42, 75
1, 150242, Pitch_bend_c, 3, 5461
1, 150242, Control_c, 5, 10, 116
1, 150242, Pitch_bend_c, 8, 5461
1, 150246, Note_on_c, 5, 72, 0
1, 150250, Pitch_bend_c, 3, 5916
1, 150250, Pitch_bend_c, 8, 5916
1, 150258, Note_on_c, 9, 42, 0
1, 150258, Pitch_bend_c, 3, 6371
1, 150258, Pitch_bend_c, 8, 6371
1, 150266, Pitch_bend_c, 3, 6826
1, 150266, Pitch_bend_c, 8, 6826
1, 150274, Pitch_bend_c, 3, 7281
1, 150274, Pitch_bend_c, 8, 7281
1, 150282, Pitch_bend_c, 3, 8763
1, 150282, Pitch_bend_c, 8, 8763
1, 150330, Note_on_c, 5, 60, 0
1, 150336, Note_on_c, 1, 41, 83
1, 150336, Note_on_c, 1, 65, 89
1, 150336, Note_on_c, 5, 65, 64
1, 150336, Note_on_c, 9, 46, 107
1, 150336, Note_on_c, 9, 70, 66
1, 150336, Note_on_c, 11, 41, 83
1, 150336, Note_on_c, 11, 65, 89
1, 150338, Control_c, 5, 10, 120
1, 150345, Note_on_c, 11, 29, 0
1, 150345, Note_on_c, 1, 29, 0
1, 150354, Note_on_c, 9, 70, 0
1, 150354, Note_on_c, 9, 46, 0
1, 150375, Note_on_c, 8, 69, 0
1, 150375, Note_on_c, 3, 69, 0
1, 150426, Note_on_c, 1, 41, 0
1, 150426, Note_on_c, 5, 65, 0
1, 150426, Note_on_c, 11, 41, 0
1, 150430, Note_on_c, 1, 65, 0
1, 150430, Note_on_c, 11, 65, 0
1, 150432, Note_on_c, 5, 60, 64
1, 150434, Control_c, 5, 10, 124
1, 150434, Control_c, 12, 6, 10
1, 150522, Note_on_c, 5, 60, 0
1, 150528, Note_on_c, 1, 29, 68
1, 150528, Note_on_c, 3, 69, 122
1, 150528, Note_on_c, 5, 57, 59
1, 150528, Note_on_c, 8, 69, 127
1, 150528, Note_on_c, 9, 27, 127
1, 150528, Note_on_c, 9, 45, 107
1, 150528, Note_on_c, 9, 36, 127
1, 150528, Note_on_c, 9, 42, 66
1, 150528, Note_on_c, 9, 70, 92
1, 150528, Note_on_c, 11, 29, 68
1, 150528, Note_on_c, 12, 53, 80
1, 150530, Control_c, 5, 10, 68
1, 150530, Control_c, 12, 10, 125
1, 150546, Note_on_c, 9, 70, 0
1, 150546, Note_on_c, 9, 45, 0
1, 150546, Note_on_c, 9, 27, 0
1, 150546, Note_on_c, 9, 42, 0
1, 150546, Note_on_c, 9, 36, 0
1, 150571, Note_on_c, 12, 53, 0
1, 150578, Control_c, 12, 10, 119
1, 150618, Note_on_c, 5, 57, 0
1, 150624, Note_on_c, 5, 65, 68
1, 150624, Note_on_c, 9, 42, 75
1, 150624, Note_on_c, 12, 53, 73
1, 150626, Control_c, 5, 10, 72
1, 150626, Control_c, 12, 10, 113
1, 150626, Control_c, 12, 6, 25
1, 150642, Note_on_c, 9, 42, 0
1, 150658, Note_on_c, 12, 53, 0
1, 150674, Control_c, 12, 10, 107
1, 150714, Note_on_c, 5, 65, 0
1, 150720, Note_on_c, 1, 41, 94
1, 150720, Note_on_c, 1, 65, 92
1, 150720, Note_on_c, 5, 60, 64
1, 150720, Note_on_c, 9, 46, 107
1, 150720, Note_on_c, 11, 41, 94
1, 150720, Note_on_c, 11, 65, 92
1, 150720, Note_on_c, 12, 53, 80
1, 150722, Control_c, 5, 10, 76
1, 150722, Control_c, 12, 10, 101
1, 150730, Note_on_c, 8, 69, 0
1, 150730, Note_on_c, 3, 69, 0
1, 150738, Note_on_c, 9, 46, 0
1, 150743, Note_on_c, 1, 29, 0
1, 150743, Note_on_c, 11, 29, 0
1, 150763, Note_on_c, 12, 53, 0
1, 150770, Control_c, 12, 10, 95
1, 150794, Control_c, 12, 6, 40
1, 150810, Note_on_c, 11, 41, 0
1, 150810, Note_on_c, 1, 41, 0
1, 150810, Note_on_c, 5, 60, 0
1, 150810, Note_on_c, 1, 65, 0
1, 150810, Note_on_c, 11, 65, 0
1, 150816, Note_on_c, 5, 69, 74
1, 150816, Note_on_c, 9, 70, 44
1, 150816, Note_on_c, 12, 53, 73
1, 150818, Control_c, 5, 10, 79
1, 150818, Control_c, 12, 10, 89
1, 150834, Note_on_c, 9, 70, 0
1, 150850, Note_on_c, 12, 53, 0
1, 150866, Control_c, 12, 10, 83
1, 150906, Note_on_c, 5, 69, 0
1, 150912, Note_on_c, 1, 29, 71
1, 150912, Note_on_c, 9, 27, 127
1, 150912, Note_on_c, 9, 39, 127
1, 150912, Note_on_c, 9, 38, 127
1, 150912, Note_on_c, 9, 45, 107
1, 150912, Note_on_c, 9, 36, 127
1, 150912, Note_on_c, 9, 42, 66
1, 150912, Note_on_c, 9, 70, 92
1, 150912, Note_on_c, 11, 29, 71
1, 150912, Note_on_c, 12, 53, 80
1, 150914, Control_c, 5, 10, 83
1, 150914, Control_c, 12, 10, 77
1, 150930, Note_on_c, 9, 70, 0
1, 150930, Note_on_c, 9, 36, 0
1, 150930, Note_on_c, 9, 39, 0
1, 150930, Note_on_c, 9, 45, 0
1, 150930, Note_on_c, 9, 38, 0
1, 150930, Note_on_c, 9, 42, 0
1, 150930, Note_on_c, 9, 27, 0
1, 150955, Note_on_c, 12, 53, 0
1, 150962, Control_c, 12, 10, 71
1, 150998, Control_c, 12, 6, 60
1, 151008, Note_on_c, 5, 65, 77
1, 151008, Note_on_c, 9, 42, 75
1, 151008, Note_on_c, 12, 53, 73
1, 151010, Control_c, 5, 10, 87
1, 151010, Control_c, 12, 10, 65
1, 151026, Note_on_c, 9, 42, 0
1, 151042, Note_on_c, 12, 53, 0
1, 151058, Control_c, 12, 10, 59
1, 151098, Note_on_c, 5, 65, 0
1, 151104, Note_on_c, 1, 41, 85
1, 151104, Note_on_c, 1, 65, 92
1, 151104, Note_on_c, 5, 72, 64
1, 151104, Note_on_c, 9, 46, 107
1, 151104, Note_on_c, 9, 70, 80
1, 151104, Note_on_c, 11, 41, 85
1, 151104, Note_on_c, 11, 65, 92
1, 151104, Note_on_c, 12, 53, 80
1, 151106, Control_c, 5, 10, 91
1, 151106, Control_c, 12, 10, 53
1, 151112, Note_on_c, 11, 29, 0
1, 151112, Note_on_c, 1, 29, 0
1, 151122, Note_on_c, 9, 70, 0
1, 151122, Note_on_c, 9, 46, 0
1, 151147, Note_on_c, 12, 53, 0
1, 151154, Control_c, 12, 10, 47
1, 151178, Control_c, 12, 6, 85
1, 151194, Note_on_c, 1, 65, 0
1, 151194, Note_on_c, 11, 41, 0
1, 151194, Note_on_c, 5, 72, 0
1, 151194, Note_on_c, 1, 41, 0
1, 151194, Note_on_c, 11, 65, 0
1, 151200, Note_on_c, 5, 69, 74
1, 151200, Note_on_c, 12, 53, 73
1, 151202, Control_c, 5, 10, 94
1, 151202, Control_c, 12, 10, 41
1, 151234, Note_on_c, 12, 53, 0
1, 151250, Control_c, 12, 10, 35
1, 151290, Note_on_c, 5, 69, 0
1, 151296, Note_on_c, 1, 29, 71
1, 151296, Note_on_c, 3, 65, 122
1, 151296, Note_on_c, 5, 77, 89
1, 151296, Note_on_c, 8, 65, 127
1, 151296, Note_on_c, 9, 27, 127
1, 151296, Note_on_c, 9, 45, 107
1, 151296, Note_on_c, 9, 36, 127
1, 151296, Note_on_c, 9, 42, 66
1, 151296, Note_on_c, 9, 70, 86
1, 151296, Note_on_c, 11, 29, 71
1, 151296, Note_on_c, 12, 53, 80
1, 151298, Control_c, 5, 10, 98
1, 151298, Control_c, 12, 10, 29
1, 151314, Note_on_c, 9, 70, 0
1, 151314, Note_on_c, 9, 45, 0
1, 151314, Note_on_c, 9, 27, 0
1, 151314, Note_on_c, 9, 42, 0
1, 151314, Note_on_c, 9, 36, 0
1, 151339, Note_on_c, 12, 53, 0
1, 151346, Control_c, 12, 10, 23
1, 151386, Note_on_c, 5, 77, 0
1, 151392, Note_on_c, 5, 72, 74
1, 151392, Note_on_c, 9, 42, 75
1, 151392, Note_on_c, 12, 53, 73
1, 151394, Control_c, 5, 10, 102
1, 151394, Control_c, 12, 10, 17
1, 151394, Control_c, 12, 6, 110
1, 151410, Note_on_c, 9, 42, 0
1, 151426, Note_on_c, 12, 53, 0
1, 151442, Control_c, 12, 10, 11
1, 151482, Note_on_c, 5, 72, 0
1, 151488, Note_on_c, 1, 41, 87
1, 151488, Note_on_c, 1, 65, 92
1, 151488, Note_on_c, 5, 69, 64
1, 151488, Note_on_c, 9, 46, 107
1, 151488, Note_on_c, 9, 70, 13
1, 151488, Note_on_c, 11, 41, 87
1, 151488, Note_on_c, 11, 65, 92
1, 151490, Control_c, 5, 10, 105
1, 151490, Control_c, 12, 10, 5
1, 151496, Note_on_c, 11, 29, 0
1, 151496, Note_on_c, 1, 29, 0
1, 151506, Note_on_c, 9, 70, 0
1, 151506, Note_on_c, 9, 46, 0
1, 151540, Note_on_c, 8, 65, 0
1, 151540, Note_on_c, 3, 65, 0
1, 151578, Note_on_c, 1, 41, 0
1, 151578, Note_on_c, 5, 69, 0
1, 151578, Note_on_c, 1, 65, 0
1, 151578, Note_on_c, 11, 65, 0
1, 151578, Note_on_c, 11, 41, 0
1, 151584, Note_on_c, 5, 65, 80
1, 151584, Note_on_c, 9, 70, 26
1, 151586, Control_c, 5, 10, 109
1, 151602, Note_on_c, 9, 70, 0
1, 151674, Note_on_c, 5, 65, 0
1, 151680, Note_on_c, 1, 29, 85
1, 151680, Note_on_c, 1, 63, 89
1, 151680, Note_on_c, 3, 69, 122
1, 151680, Note_on_c, 5, 72, 86
1, 151680, Note_on_c, 8, 69, 127
1, 151680, Note_on_c, 9, 27, 127
1, 151680, Note_on_c, 9, 39, 127
1, 151680, Note_on_c, 9, 38, 127
1, 151680, Note_on_c, 9, 45, 107
1, 151680, Note_on_c, 9, 36, 127
1, 151680, Note_on_c, 9, 42, 66
1, 151680, Note_on_c, 9, 70, 92
1, 151680, Note_on_c, 11, 29, 85
1, 151680, Note_on_c, 11, 63, 89
1, 151682, Pitch_bend_c, 3, 0
1, 151682, Control_c, 5, 10, 113
1, 151682, Pitch_bend_c, 8, 0
1, 151690, Pitch_bend_c, 3, 455
1, 151690, Pitch_bend_c, 8, 455
1, 151698, Note_on_c, 9, 70, 0
1, 151698, Note_on_c, 9, 42, 0
1, 151698, Note_on_c, 9, 27, 0
1, 151698, Note_on_c, 9, 36, 0
1, 151698, Note_on_c, 9, 38, 0
1, 151698, Note_on_c, 9, 39, 0
1, 151698, Note_on_c, 9, 45, 0
1, 151698, Pitch_bend_c, 3, 910
1, 151698, Pitch_bend_c, 8, 910
1, 151706, Pitch_bend_c, 3, 1365
1, 151706, Pitch_bend_c, 8, 1365
1, 151714, Pitch_bend_c, 3, 1820
1, 151714, Pitch_bend_c, 8, 1820
1, 151722, Pitch_bend_c, 3, 2275
1, 151722, Pitch_bend_c, 8, 2275
1, 151730, Pitch_bend_c, 3, 2730
1, 151730, Pitch_bend_c, 8, 2730
1, 151738, Pitch_bend_c, 3, 3185
1, 151738, Pitch_bend_c, 8, 3185
1, 151746, Pitch_bend_c, 3, 3640
1, 151746, Pitch_bend_c, 8, 3640
1, 151754, Pitch_bend_c, 3, 4095
1, 151754, Pitch_bend_c, 8, 4095
1, 151762, Pitch_bend_c, 3, 4550
1, 151762, Pitch_bend_c, 8, 4550
1, 151770, Note_on_c, 5, 72, 0
1, 151770, Pitch_bend_c, 3, 5006
1, 151770, Pitch_bend_c, 8, 5006
1, 151774, Note_on_c, 11, 63, 0
1, 151774, Note_on_c, 1, 63, 0
1, 151776, Note_on_c, 5, 60, 74
1, 151776, Note_on_c, 9, 42, 75
1, 151778, Pitch_bend_c, 3, 5461
1, 151778, Control_c, 5, 10, 116
1, 151778, Pitch_bend_c, 8, 5461
1, 151786, Pitch_bend_c, 3, 5916
1, 151786, Pitch_bend_c, 8, 5916
1, 151794, Note_on_c, 9, 42, 0
1, 151794, Pitch_bend_c, 3, 6371
1, 151794, Pitch_bend_c, 8, 6371
1, 151802, Pitch_bend_c, 3, 6826
1, 151802, Pitch_bend_c, 8, 6826
1, 151810, Pitch_bend_c, 3, 7281
1, 151810, Pitch_bend_c, 8, 7281
1, 151818, Pitch_bend_c, 3, 8763
1, 151818, Pitch_bend_c, 8, 8763
1, 151862, Note_on_c, 11, 29, 0
1, 151862, Note_on_c, 1, 29, 0
1, 151866, Note_on_c, 5, 60, 0
1, 151872, Note_on_c, 1, 41, 85
1, 151872, Note_on_c, 1, 65, 89
1, 151872, Note_on_c, 5, 65, 64
1, 151872, Note_on_c, 9, 46, 107
1, 151872, Note_on_c, 9, 70, 63
1, 151872, Note_on_c, 11, 41, 85
1, 151872, Note_on_c, 11, 65, 89
1, 151874, Control_c, 5, 10, 120
1, 151890, Note_on_c, 9, 70, 0
1, 151890, Note_on_c, 9, 46, 0
1, 151911, Note_on_c, 8, 69, 0
1, 151911, Note_on_c, 3, 69, 0
1, 151962, Note_on_c, 5, 65, 0
1, 151962, Note_on_c, 11, 41, 0
1, 151962, Note_on_c, 1, 41, 0
1, 151966, Note_on_c, 1, 65, 0
1, 151966, Note_on_c, 11, 65, 0
1, 151968, Note_on_c, 5, 60, 64
1, 151970, Control_c, 5, 10, 124
1, 151970, Control_c, 12, 6, 10
1, 152053, Note_on_c, 2, 77, 0
1, 152056, Note_on_c, 2, 75, 68
1, 152058, Note_on_c, 5, 60, 0
1, 152058, Note_on_c, 2, 72, 0
1, 152064, Note_on_c, 1, 32, 71
1, 152064, Note_on_c, 1, 53, 71
1, 152064, Note_on_c, 1, 65, 71
1, 152064, Note_on_c, 3, 69, 122
1, 152064, Note_on_c, 5, 56, 59
1, 152064, Note_on_c, 8, 69, 127
1, 152064, Note_on_c, 9, 27, 127
1, 152064, Note_on_c, 9, 45, 107
1, 152064, Note_on_c, 9, 36, 127
1, 152064, Note_on_c, 9, 42, 66
1, 152064, Note_on_c, 9, 70, 92
1, 152064, Note_on_c, 11, 32, 71
1, 152064, Note_on_c, 11, 53, 71
1, 152064, Note_on_c, 11, 65, 71
1, 152064, Note_on_c, 12, 53, 80
1, 152065, Note_on_c, 2, 70, 68
1, 152066, Control_c, 5, 10, 68
1, 152066, Control_c, 12, 11, 127
1, 152082, Note_on_c, 9, 70, 0
1, 152082, Note_on_c, 9, 27, 0
1, 152082, Note_on_c, 9, 42, 0
1, 152082, Note_on_c, 9, 45, 0
1, 152082, Note_on_c, 9, 36, 0
1, 152107, Note_on_c, 12, 53, 0
1, 152114, Control_c, 12, 10, 5
1, 152154, Note_on_c, 5, 56, 0
1, 152158, Note_on_c, 11, 53, 0
1, 152158, Note_on_c, 11, 65, 0
1, 152158, Note_on_c, 1, 65, 0
1, 152158, Note_on_c, 1, 53, 0
1, 152160, Note_on_c, 5, 63, 68
1, 152160, Note_on_c, 9, 42, 75
1, 152160, Note_on_c, 12, 53, 73
1, 152162, Control_c, 5, 10, 72
1, 152162, Control_c, 12, 10, 13
1, 152162, Control_c, 12, 6, 25
1, 152178, Note_on_c, 9, 42, 0
1, 152194, Note_on_c, 12, 53, 0
1, 152210, Control_c, 12, 10, 20
1, 152223, Note_on_c, 1, 32, 0
1, 152223, Note_on_c, 11, 32, 0
1, 152250, Note_on_c, 5, 63, 0
1, 152256, Note_on_c, 1, 44, 100
1, 152256, Note_on_c, 1, 56, 92
1, 152256, Note_on_c, 5, 60, 64
1, 152256, Note_on_c, 9, 46, 107
1, 152256, Note_on_c, 11, 44, 100
1, 152256, Note_on_c, 11, 56, 92
1, 152256, Note_on_c, 12, 53, 80
1, 152258, Control_c, 5, 10, 76
1, 152258, Control_c, 12, 10, 27
1, 152266, Note_on_c, 3, 69, 0
1, 152266, Note_on_c, 8, 69, 0
1, 152274, Note_on_c, 9, 46, 0
1, 152299, Note_on_c, 12, 53, 0
1, 152306, Control_c, 12, 10, 34
1, 152330, Control_c, 12, 6, 40
1, 152346, Note_on_c, 5, 60, 0
1, 152346, Note_on_c, 1, 56, 0
1, 152346, Note_on_c, 1, 44, 0
1, 152346, Note_on_c, 11, 44, 0
1, 152346, Note_on_c, 11, 56, 0
1, 152352, Note_on_c, 5, 68, 74
1, 152352, Note_on_c, 9, 70, 40
1, 152352, Note_on_c, 12, 53, 73
1, 152354, Control_c, 5, 10, 79
1, 152354, Control_c, 12, 10, 41
1, 152370, Note_on_c, 9, 70, 0
1, 152386, Note_on_c, 12, 53, 0
1, 152402, Control_c, 12, 10, 49
1, 152442, Note_on_c, 5, 68, 0
1, 152448, Note_on_c, 1, 32, 77
1, 152448, Note_on_c, 9, 27, 127
1, 152448, Note_on_c, 9, 39, 127
1, 152448, Note_on_c, 9, 38, 127
1, 152448, Note_on_c, 9, 45, 107
1, 152448, Note_on_c, 9, 36, 127
1, 152448, Note_on_c, 9, 42, 66
1, 152448, Note_on_c, 9, 70, 86
1, 152448, Note_on_c, 11, 32, 77
1, 152448, Note_on_c, 12, 53, 80
1, 152450, Control_c, 5, 10, 83
1, 152450, Control_c, 12, 10, 56
1, 152466, Note_on_c, 9, 70, 0
1, 152466, Note_on_c, 9, 36, 0
1, 152466, Note_on_c, 9, 39, 0
1, 152466, Note_on_c, 9, 45, 0
1, 152466, Note_on_c, 9, 38, 0
1, 152466, Note_on_c, 9, 42, 0
1, 152466, Note_on_c, 9, 27, 0
1, 152491, Note_on_c, 12, 53, 0
1, 152498, Control_c, 12, 10, 63
1, 152534, Control_c, 12, 6, 60
1, 152544, Note_on_c, 5, 63, 77
1, 152544, Note_on_c, 9, 42, 75
1, 152544, Note_on_c, 12, 53, 73
1, 152546, Control_c, 5, 10, 87
1, 152546, Control_c, 12, 10, 70
1, 152562, Note_on_c, 9, 42, 0
1, 152578, Note_on_c, 12, 53, 0
1, 152594, Control_c, 12, 10, 77
1, 152634, Note_on_c, 5, 63, 0
1, 152640, Note_on_c, 1, 44, 100
1, 152640, Note_on_c, 1, 56, 92
1, 152640, Note_on_c, 5, 72, 64
1, 152640, Note_on_c, 9, 46, 92
1, 152640, Note_on_c, 9, 70, 80
1, 152640, Note_on_c, 11, 44, 100
1, 152640, Note_on_c, 11, 56, 92
1, 152640, Note_on_c, 12, 53, 80
1, 152642, Control_c, 5, 10, 91
1, 152642, Control_c, 12, 10, 84
1, 152646, Note_on_c, 11, 32, 0
1, 152646, Note_on_c, 1, 32, 0
1, 152658, Note_on_c, 9, 70, 0
1, 152658, Note_on_c, 9, 46, 0
1, 152683, Note_on_c, 12, 53, 0
1, 152690, Control_c, 12, 10, 92
1, 152714, Control_c, 12, 6, 85
1, 152730, Note_on_c, 1, 56, 0
1, 152730, Note_on_c, 11, 44, 0
1, 152730, Note_on_c, 5, 72, 0
1, 152730, Note_on_c, 1, 44, 0
1, 152730, Note_on_c, 11, 56, 0
1, 152736, Note_on_c, 5, 68, 74
1, 152736, Note_on_c, 12, 53, 73
1, 152738, Control_c, 5, 10, 94
1, 152738, Control_c, 12, 10, 99
1, 152770, Note_on_c, 12, 53, 0
1, 152786, Control_c, 12, 10, 106
1, 152826, Note_on_c, 5, 68, 0
1, 152832, Note_on_c, 1, 32, 74
1, 152832, Note_on_c, 3, 65, 122
1, 152832, Note_on_c, 5, 75, 89
1, 152832, Note_on_c, 8, 65, 127
1, 152832, Note_on_c, 9, 27, 127
1, 152832, Note_on_c, 9, 45, 107
1, 152832, Note_on_c, 9, 36, 127
1, 152832, Note_on_c, 9, 42, 66
1, 152832, Note_on_c, 9, 70, 92
1, 152832, Note_on_c, 11, 32, 74
1, 152832, Note_on_c, 12, 53, 80
1, 152834, Control_c, 5, 10, 98
1, 152834, Control_c, 12, 10, 113
1, 152850, Note_on_c, 9, 70, 0
1, 152850, Note_on_c, 9, 45, 0
1, 152850, Note_on_c, 9, 27, 0
1, 152850, Note_on_c, 9, 42, 0
1, 152850, Note_on_c, 9, 36, 0
1, 152875, Note_on_c, 12, 53, 0
1, 152882, Control_c, 12, 10, 120
1, 152922, Note_on_c, 5, 75, 0
1, 152928, Note_on_c, 5, 72, 74
1, 152928, Note_on_c, 9, 42, 75
1, 152928, Note_on_c, 12, 53, 73
1, 152930, Control_c, 5, 10, 102
1, 152930, Control_c, 12, 6, 110
1, 152946, Note_on_c, 9, 42, 0
1, 152962, Note_on_c, 12, 53, 0
1, 153018, Note_on_c, 5, 72, 0
1, 153024, Note_on_c, 1, 44, 102
1, 153024, Note_on_c, 1, 56, 92
1, 153024, Note_on_c, 5, 68, 64
1, 153024, Note_on_c, 9, 46, 107
1, 153024, Note_on_c, 9, 70, 20
1, 153024, Note_on_c, 11, 44, 102
1, 153024, Note_on_c, 11, 56, 92
1, 153026, Control_c, 5, 10, 105
1, 153032, Note_on_c, 11, 32, 0
1, 153032, Note_on_c, 1, 32, 0
1, 153042, Note_on_c, 9, 70, 0
1, 153042, Note_on_c, 9, 46, 0
1, 153076, Note_on_c, 8, 65, 0
1, 153076, Note_on_c, 3, 65, 0
1, 153114, Note_on_c, 1, 44, 0
1, 153114, Note_on_c, 5, 68, 0
1, 153114, Note_on_c, 1, 56, 0
1, 153114, Note_on_c, 11, 56, 0
1, 153114, Note_on_c, 11, 44, 0
1, 153120, Note_on_c, 5, 63, 80
1, 153120, Note_on_c, 9, 70, 49
1, 153122, Control_c, 5, 10, 109
1, 153138, Note_on_c, 9, 70, 0
1, 153210, Note_on_c, 5, 63, 0
1, 153210, Pitch_bend_c, 3, 0
1, 153210, Pitch_bend_c, 8, 0
1, 153216, Note_on_c, 1, 32, 74
1, 153216, Note_on_c, 3, 69, 122
1, 153216, Note_on_c, 5, 72, 86
1, 153216, Note_on_c, 8, 69, 127
1, 153216, Note_on_c, 9, 27, 127
1, 153216, Note_on_c, 9, 39, 127
1, 153216, Note_on_c, 9, 38, 127
1, 153216, Note_on_c, 9, 45, 107
1, 153216, Note_on_c, 9, 36, 127
1, 153216, Note_on_c, 9, 42, 66
1, 153216, Note_on_c, 9, 70, 76
1, 153216, Note_on_c, 11, 32, 74
1, 153218, Pitch_bend_c, 3, 455
1, 153218, Control_c, 5, 10, 113
1, 153218, Pitch_bend_c, 8, 455
1, 153226, Pitch_bend_c, 3, 910
1, 153226, Pitch_bend_c, 8, 910
1, 153234, Note_on_c, 9, 70, 0
1, 153234, Note_on_c, 9, 39, 0
1, 153234, Note_on_c, 9, 45, 0
1, 153234, Note_on_c, 9, 27, 0
1, 153234, Note_on_c, 9, 42, 0
1, 153234, Note_on_c, 9, 38, 0
1, 153234, Note_on_c, 9, 36, 0
1, 153234, Pitch_bend_c, 3, 1365
1, 153234, Pitch_bend_c, 8, 1365
1, 153242, Pitch_bend_c, 3, 1820
1, 153242, Pitch_bend_c, 8, 1820
1, 153250, Pitch_bend_c, 3, 2275
1, 153250, Pitch_bend_c, 8, 2275
1, 153258, Pitch_bend_c, 3, 2730
1, 153258, Pitch_bend_c, 8, 2730
1, 153266, Pitch_bend_c, 3, 3185
1, 153266, Pitch_bend_c, 8, 3185
1, 153274, Pitch_bend_c, 3, 3640
1, 153274, Pitch_bend_c, 8, 3640
1, 153282, Pitch_bend_c, 3, 4095
1, 153282, Pitch_bend_c, 8, 4095
1, 153290, Pitch_bend_c, 3, 4550
1, 153290, Pitch_bend_c, 8, 4550
1, 153298, Pitch_bend_c, 3, 5006
1, 153298, Pitch_bend_c, 8, 5006
1, 153306, Note_on_c, 5, 72, 0
1, 153306, Pitch_bend_c, 3, 5461
1, 153306, Pitch_bend_c, 8, 5461
1, 153312, Note_on_c, 5, 60, 74
1, 153312, Note_on_c, 9, 42, 75
1, 153314, Pitch_bend_c, 3, 5916
1, 153314, Control_c, 5, 10, 116
1, 153314, Pitch_bend_c, 8, 5916
1, 153322, Pitch_bend_c, 3, 6371
1, 153322, Pitch_bend_c, 8, 6371
1, 153330, Note_on_c, 9, 42, 0
1, 153330, Pitch_bend_c, 3, 6826
1, 153330, Pitch_bend_c, 8, 6826
1, 153338, Pitch_bend_c, 3, 7281
1, 153338, Pitch_bend_c, 8, 7281
1, 153346, Pitch_bend_c, 3, 8763
1, 153346, Pitch_bend_c, 8, 8763
1, 153402, Note_on_c, 5, 60, 0
1, 153408, Note_on_c, 1, 44, 83
1, 153408, Note_on_c, 1, 56, 89
1, 153408, Note_on_c, 5, 63, 64
1, 153408, Note_on_c, 9, 46, 107
1, 153408, Note_on_c, 9, 70, 66
1, 153408, Note_on_c, 11, 44, 83
1, 153408, Note_on_c, 11, 56, 89
1, 153410, Control_c, 5, 10, 120
1, 153417, Note_on_c, 11, 32, 0
1, 153417, Note_on_c, 1, 32, 0
1, 153426, Note_on_c, 9, 70, 0
1, 153426, Note_on_c, 9, 46, 0
1, 153447, Note_on_c, 8, 69, 0
1, 153447, Note_on_c, 3, 69, 0
1, 153498, Note_on_c, 1, 44, 0
1, 153498, Note_on_c, 5, 63, 0
1, 153498, Note_on_c, 11, 44, 0
1, 153502, Note_on_c, 1, 56, 0
1, 153502, Note_on_c, 11, 56, 0
1, 153504, Note_on_c, 5, 60, 64
1, 153506, Control_c, 5, 10, 124
1, 153506, Control_c, 12, 6, 10
1, 153582, Note_on_c, 2, 70, 0
1, 153594, Note_on_c, 5, 60, 0
1, 153600, Note_on_c, 1, 34, 65
1, 153600, Note_on_c, 1, 56, 65
1, 153600, Note_on_c, 3, 69, 122
1, 153600, Note_on_c, 5, 58, 59
1, 153600, Note_on_c, 8, 69, 127
1, 153600, Note_on_c, 9, 27, 127
1, 153600, Note_on_c, 9, 45, 107
1, 153600, Note_on_c, 9, 36, 127
1, 153600, Note_on_c, 9, 42, 66
1, 153600, Note_on_c, 9, 70, 92
1, 153600, Note_on_c, 11, 34, 65
1, 153600, Note_on_c, 11, 56, 65
1, 153600, Note_on_c, 12, 53, 80
1, 153602, Control_c, 5, 10, 68
1, 153602, Control_c, 12, 10, 125
1, 153604, Note_on_c, 2, 75, 0
1, 153616, Note_on_c, 2, 72, 68
1, 153618, Note_on_c, 9, 36, 0
1, 153618, Note_on_c, 9, 45, 0
1, 153618, Note_on_c, 9, 27, 0
1, 153618, Note_on_c, 9, 70, 0
1, 153618, Note_on_c, 9, 42, 0
1, 153618, Note_on_c, 2, 77, 68
1, 153643, Note_on_c, 12, 53, 0
1, 153650, Control_c, 12, 10, 119
1, 153690, Note_on_c, 5, 58, 0
1, 153694, Note_on_c, 1, 56, 0
1, 153694, Note_on_c, 11, 56, 0
1, 153696, Note_on_c, 5, 65, 68
1, 153696, Note_on_c, 9, 42, 75
1, 153696, Note_on_c, 12, 53, 73
1, 153698, Control_c, 5, 10, 72
1, 153698, Control_c, 12, 10, 113
1, 153698, Control_c, 12, 6, 25
1, 153714, Note_on_c, 9, 42, 0
1, 153730, Note_on_c, 12, 53, 0
1, 153746, Control_c, 12, 10, 107
1, 153786, Note_on_c, 5, 65, 0
1, 153792, Note_on_c, 1, 46, 94
1, 153792, Note_on_c, 1, 58, 92
1, 153792, Note_on_c, 5, 62, 64
1, 153792, Note_on_c, 9, 46, 107
1, 153792, Note_on_c, 11, 46, 94
1, 153792, Note_on_c, 11, 58, 92
1, 153792, Note_on_c, 12, 53, 80
1, 153794, Control_c, 5, 10, 76
1, 153794, Control_c, 12, 10, 101
1, 153802, Note_on_c, 8, 69, 0
1, 153802, Note_on_c, 3, 69, 0
1, 153810, Note_on_c, 9, 46, 0
1, 153815, Note_on_c, 1, 34, 0
1, 153815, Note_on_c, 11, 34, 0
1, 153835, Note_on_c, 12, 53, 0
1, 153842, Control_c, 12, 10, 95
1, 153866, Control_c, 12, 6, 40
1, 153882, Note_on_c, 11, 58, 0
1, 153882, Note_on_c, 1, 46, 0
1, 153882, Note_on_c, 5, 62, 0
1, 153882, Note_on_c, 1, 58, 0
1, 153882, Note_on_c, 11, 46, 0
1, 153888, Note_on_c, 5, 70, 74
1, 153888, Note_on_c, 9, 70, 44
1, 153888, Note_on_c, 12, 53, 73
1, 153890, Control_c, 5, 10, 79
1, 153890, Control_c, 12, 10, 89
1, 153906, Note_on_c, 9, 70, 0
1, 153922, Note_on_c, 12, 53, 0
1, 153938, Control_c, 12, 10, 83
1, 153978, Note_on_c, 5, 70, 0
1, 153984, Note_on_c, 1, 34, 68
1, 153984, Note_on_c, 9, 27, 127
1, 153984, Note_on_c, 9, 39, 127
1, 153984, Note_on_c, 9, 38, 127
1, 153984, Note_on_c, 9, 45, 107
1, 153984, Note_on_c, 9, 36, 127
1, 153984, Note_on_c, 9, 42, 66
1, 153984, Note_on_c, 9, 70, 92
1, 153984, Note_on_c, 11, 34, 68
1, 153984, Note_on_c, 12, 53, 80
1, 153986, Control_c, 5, 10, 83
1, 153986, Control_c, 12, 10, 77
1, 154002, Note_on_c, 9, 70, 0
1, 154002, Note_on_c, 9, 36, 0
1, 154002, Note_on_c, 9, 39, 0
1, 154002, Note_on_c, 9, 45, 0
1, 154002, Note_on_c, 9, 38, 0
1, 154002, Note_on_c, 9, 42, 0
1, 154002, Note_on_c, 9, 27, 0
1, 154027, Note_on_c, 12, 53, 0
1, 154034, Control_c, 12, 10, 71
1, 154070, Control_c, 12, 6, 60
1, 154080, Note_on_c, 5, 65, 77
1, 154080, Note_on_c, 9, 42, 75
1, 154080, Note_on_c, 12, 53, 73
1, 154082, Control_c, 5, 10, 87
1, 154082, Control_c, 12, 10, 65
1, 154098, Note_on_c, 9, 42, 0
1, 154114, Note_on_c, 12, 53, 0
1, 154130, Control_c, 12, 10, 59
1, 154170, Note_on_c, 5, 65, 0
1, 154176, Note_on_c, 1, 46, 85
1, 154176, Note_on_c, 1, 58, 92
1, 154176, Note_on_c, 5, 74, 64
1, 154176, Note_on_c, 9, 46, 107
1, 154176, Note_on_c, 9, 70, 80
1, 154176, Note_on_c, 11, 46, 85
1, 154176, Note_on_c, 11, 58, 92
1, 154176, Note_on_c, 12, 53, 80
1, 154178, Control_c, 5, 10, 91
1, 154178, Control_c, 12, 10, 53
1, 154184, Note_on_c, 11, 34, 0
1, 154184, Note_on_c, 1, 34, 0
1, 154194, Note_on_c, 9, 70, 0
1, 154194, Note_on_c, 9, 46, 0
1, 154219, Note_on_c, 12, 53, 0
1, 154226, Control_c, 12, 10, 47
1, 154250, Control_c, 12, 6, 85
1, 154266, Note_on_c, 1, 58, 0
1, 154266, Note_on_c, 11, 46, 0
1, 154266, Note_on_c, 5, 74, 0
1, 154266, Note_on_c, 1, 46, 0
1, 154266, Note_on_c, 11, 58, 0
1, 154272, Note_on_c, 5, 70, 74
1, 154272, Note_on_c, 12, 53, 73
1, 154274, Control_c, 5, 10, 94
1, 154274, Control_c, 12, 10, 41
1, 154306, Note_on_c, 12, 53, 0
1, 154322, Control_c, 12, 10, 35
1, 154362, Note_on_c, 5, 70, 0
1, 154368, Note_on_c, 1, 34, 68
1, 154368, Note_on_c, 3, 65, 122
1, 154368, Note_on_c, 5, 77, 89
1, 154368, Note_on_c, 9, 27, 127
1, 154368, Note_on_c, 9, 45, 107
1, 154368, Note_on_c, 9, 36, 127
1, 154368, Note_on_c, 9, 42, 66
1, 154368, Note_on_c, 9, 70, 86
1, 154368, Note_on_c, 11, 34, 68
1, 154368, Note_on_c, 12, 53, 80
1, 154370, Control_c, 5, 10, 98
1, 154370, Control_c, 12, 10, 29
1, 154386, Note_on_c, 9, 70, 0
1, 154386, Note_on_c, 9, 36, 0
1, 154386, Note_on_c, 9, 45, 0
1, 154386, Note_on_c, 9, 27, 0
1, 154386, Note_on_c, 9, 42, 0
1, 154411, Note_on_c, 12, 53, 0
1, 154418, Control_c, 12, 10, 23
1, 154458, Note_on_c, 5, 77, 0
1, 154464, Note_on_c, 5, 74, 74
1, 154464, Note_on_c, 9, 42, 75
1, 154464, Note_on_c, 12, 53, 73
1, 154466, Control_c, 5, 10, 102
1, 154466, Control_c, 12, 10, 17
1, 154466, Control_c, 12, 6, 110
1, 154482, Note_on_c, 9, 42, 0
1, 154498, Note_on_c, 12, 53, 0
1, 154514, Control_c, 12, 10, 11
1, 154554, Note_on_c, 5, 74, 0
1, 154560, Note_on_c, 1, 46, 87
1, 154560, Note_on_c, 1, 58, 92
1, 154560, Note_on_c, 5, 70, 64
1, 154560, Note_on_c, 9, 46, 107
1, 154560, Note_on_c, 9, 70, 13
1, 154560, Note_on_c, 11, 46, 87
1, 154560, Note_on_c, 11, 58, 92
1, 154562, Control_c, 5, 10, 105
1, 154562, Control_c, 12, 10, 5
1, 154568, Note_on_c, 1, 34, 0
1, 154568, Note_on_c, 11, 34, 0
1, 154578, Note_on_c, 9, 46, 0
1, 154578, Note_on_c, 9, 70, 0
1, 154612, Note_on_c, 3, 65, 0
1, 154650, Note_on_c, 11, 46, 0
1, 154650, Note_on_c, 1, 46, 0
1, 154650, Note_on_c, 5, 70, 0
1, 154650, Note_on_c, 1, 58, 0
1, 154650, Note_on_c, 11, 58, 0
1, 154656, Note_on_c, 5, 65, 80
1, 154656, Note_on_c, 9, 70, 26
1, 154658, Control_c, 5, 10, 109
1, 154674, Note_on_c, 9, 70, 0
1, 154746, Note_on_c, 5, 65, 0
1, 154752, Note_on_c, 1, 34, 64
1, 154752, Note_on_c, 3, 69, 122
1, 154752, Note_on_c, 5, 74, 86
1, 154752, Note_on_c, 8, 65, 127
1, 154752, Note_on_c, 9, 27, 127
1, 154752, Note_on_c, 9, 39, 127
1, 154752, Note_on_c, 9, 38, 127
1, 154752, Note_on_c, 9, 45, 107
1, 154752, Note_on_c, 9, 36, 127
1, 154752, Note_on_c, 9, 42, 66
1, 154752, Note_on_c, 9, 70, 92
1, 154752, Note_on_c, 11, 34, 64
1, 154754, Control_c, 5, 10, 113
1, 154770, Note_on_c, 9, 70, 0
1, 154770, Note_on_c, 9, 39, 0
1, 154770, Note_on_c, 9, 45, 0
1, 154770, Note_on_c, 9, 27, 0
1, 154770, Note_on_c, 9, 42, 0
1, 154770, Note_on_c, 9, 38, 0
1, 154770, Note_on_c, 9, 36, 0
1, 154842, Note_on_c, 5, 74, 0
1, 154848, Note_on_c, 5, 62, 74
1, 154848, Note_on_c, 9, 42, 75
1, 154850, Control_c, 5, 10, 116
1, 154866, Note_on_c, 9, 42, 0
1, 154934, Note_on_c, 11, 34, 0
1, 154934, Note_on_c, 1, 34, 0
1, 154938, Note_on_c, 5, 62, 0
1, 154944, Note_on_c, 1, 46, 85
1, 154944, Note_on_c, 1, 58, 89
1, 154944, Note_on_c, 5, 65, 64
1, 154944, Note_on_c, 9, 46, 107
1, 154944, Note_on_c, 9, 70, 63
1, 154944, Note_on_c, 11, 46, 85
1, 154944, Note_on_c, 11, 58, 89
1, 154946, Control_c, 5, 10, 120
1, 154962, Note_on_c, 9, 70, 0
1, 154962, Note_on_c, 9, 46, 0
1, 154983, Note_on_c, 3, 69, 0
1, 154996, Note_on_c, 8, 65, 0
1, 155034, Note_on_c, 5, 65, 0
1, 155034, Note_on_c, 11, 46, 0
1, 155034, Note_on_c, 1, 46, 0
1, 155038, Note_on_c, 1, 58, 0
1, 155038, Note_on_c, 11, 58, 0
1, 155040, Note_on_c, 5, 62, 64
1, 155040, Note_on_c, 9, 27, 127
1, 155040, Note_on_c, 9, 45, 107
1, 155040, Note_on_c, 9, 36, 127
1, 155042, Control_c, 5, 10, 124
1, 155042, Control_c, 12, 6, 10
1, 155058, Note_on_c, 9, 36, 0
1, 155058, Note_on_c, 9, 45, 0
1, 155058, Note_on_c, 9, 27, 0
1, 155130, Note_on_c, 2, 77, 0
1, 155130, Note_on_c, 2, 72, 0
1, 155130, Note_on_c, 5, 62, 0
1, 155136, Note_on_c, 1, 29, 74
1, 155136, Note_on_c, 2, 72, 72
1, 155136, Note_on_c, 2, 77, 68
1, 155136, Note_on_c, 3, 69, 122
1, 155136, Note_on_c, 5, 57, 59
1, 155136, Note_on_c, 8, 69, 127
1, 155136, Note_on_c, 9, 27, 127
1, 155136, Note_on_c, 9, 45, 107
1, 155136, Note_on_c, 9, 36, 127
1, 155136, Note_on_c, 9, 42, 66
1, 155136, Note_on_c, 9, 70, 92
1, 155136, Note_on_c, 11, 29, 74
1, 155136, Note_on_c, 12, 53, 80
1, 155138, Control_c, 5, 10, 68
1, 155138, Control_c, 12, 11, 127
1, 155147, Note_on_c, 2, 72, 0
1, 155154, Note_on_c, 9, 36, 0
1, 155154, Note_on_c, 9, 45, 0
1, 155154, Note_on_c, 9, 27, 0
1, 155154, Note_on_c, 9, 70, 0
1, 155154, Note_on_c, 9, 42, 0
1, 155168, Note_on_c, 2, 77, 0
1, 155179, Note_on_c, 12, 53, 0
1, 155186, Control_c, 12, 10, 5
1, 155226, Note_on_c, 5, 57, 0
1, 155232, Note_on_c, 5, 65, 68
1, 155232, Note_on_c, 9, 42, 75
1, 155232, Note_on_c, 12, 53, 73
1, 155234, Control_c, 5, 10, 72
1, 155234, Control_c, 12, 10, 13
1, 155234, Control_c, 12, 6, 25
1, 155250, Note_on_c, 9, 42, 0
1, 155266, Note_on_c, 12, 53, 0
1, 155282, Control_c, 12, 10, 20
1, 155295, Note_on_c, 1, 29, 0
1, 155295, Note_on_c, 11, 29, 0
1, 155322, Note_on_c, 5, 65, 0
1, 155328, Note_on_c, 1, 41, 100
1, 155328, Note_on_c, 1, 65, 92
1, 155328, Note_on_c, 5, 60, 64
1, 155328, Note_on_c, 9, 46, 107
1, 155328, Note_on_c, 11, 41, 100
1, 155328, Note_on_c, 11, 65, 92
1, 155328, Note_on_c, 12, 53, 80
1, 155330, Control_c, 5, 10, 76
1, 155330, Control_c, 12, 10, 27
1, 155338, Note_on_c, 3, 69, 0
1, 155338, Note_on_c, 8, 69, 0
1, 155346, Note_on_c, 9, 46, 0
1, 155371, Note_on_c, 12, 53, 0
1, 155378, Control_c, 12, 10, 34
1, 155402, Control_c, 12, 6, 40
1, 155418, Note_on_c, 1, 41, 0
1, 155418, Note_on_c, 11, 41, 0
1, 155418, Note_on_c, 1, 65, 0
1, 155418, Note_on_c, 11, 65, 0
1, 155424, Note_on_c, 5, 69, 74
1, 155424, Note_on_c, 9, 70, 40
1, 155424, Note_on_c, 12, 53, 73
1, 155426, Control_c, 5, 10, 79
1, 155426, Control_c, 12, 10, 41
1, 155442, Note_on_c, 9, 70, 0
1, 155443, Note_on_c, 5, 60, 0
1, 155458, Note_on_c, 12, 53, 0
1, 155474, Control_c, 12, 10, 49
1, 155514, Note_on_c, 5, 69, 0
1, 155520, Note_on_c, 1, 29, 74
1, 155520, Note_on_c, 9, 27, 127
1, 155520, Note_on_c, 9, 39, 127
1, 155520, Note_on_c, 9, 38, 127
1, 155520, Note_on_c, 9, 36, 127
1, 155520, Note_on_c, 9, 45, 107
1, 155520, Note_on_c, 9, 42, 66
1, 155520, Note_on_c, 9, 70, 86
1, 155520, Note_on_c, 11, 29, 74
1, 155520, Note_on_c, 12, 53, 80
1, 155522, Control_c, 5, 10, 83
1, 155522, Control_c, 12, 10, 56
1, 155538, Note_on_c, 9, 70, 0
1, 155538, Note_on_c, 9, 42, 0
1, 155538, Note_on_c, 9, 36, 0
1, 155538, Note_on_c, 9, 27, 0
1, 155538, Note_on_c, 9, 45, 0
1, 155538, Note_on_c, 9, 38, 0
1, 155538, Note_on_c, 9, 39, 0
1, 155563, Note_on_c, 12, 53, 0
1, 155570, Control_c, 12, 10, 63
1, 155606, Control_c, 12, 6, 60
1, 155616, Note_on_c, 5, 65, 77
1, 155616, Note_on_c, 9, 42, 75
1, 155616, Note_on_c, 12, 53, 73
1, 155618, Control_c, 5, 10, 87
1, 155618, Control_c, 12, 10, 70
1, 155634, Note_on_c, 9, 42, 0
1, 155650, Note_on_c, 12, 53, 0
1, 155666, Control_c, 12, 10, 77
1, 155706, Note_on_c, 5, 65, 0
1, 155712, Note_on_c, 1, 41, 110
1, 155712, Note_on_c, 1, 65, 92
1, 155712, Note_on_c, 5, 72, 64
1, 155712, Note_on_c, 9, 46, 92
1, 155712, Note_on_c, 9, 70, 80
1, 155712, Note_on_c, 11, 41, 110
1, 155712, Note_on_c, 11, 65, 92
1, 155712, Note_on_c, 12, 53, 80
1, 155714, Control_c, 5, 10, 91
1, 155714, Control_c, 12, 10, 84
1, 155718, Note_on_c, 11, 29, 0
1, 155718, Note_on_c, 1, 29, 0
1, 155730, Note_on_c, 9, 70, 0
1, 155730, Note_on_c, 9, 46, 0
1, 155755, Note_on_c, 12, 53, 0
1, 155762, Control_c, 12, 10, 92
1, 155786, Control_c, 12, 6, 85
1, 155802, Note_on_c, 1, 41, 0
1, 155802, Note_on_c, 11, 41, 0
1, 155802, Note_on_c, 11, 65, 0
1, 155802, Note_on_c, 1, 65, 0
1, 155808, Note_on_c, 5, 69, 74
1, 155808, Note_on_c, 12, 53, 73
1, 155810, Control_c, 5, 10, 94
1, 155810, Control_c, 12, 10, 99
1, 155827, Note_on_c, 5, 72, 0
1, 155842, Note_on_c, 12, 53, 0
1, 155858, Control_c, 12, 10, 106
1, 155898, Note_on_c, 5, 69, 0
1, 155904, Note_on_c, 1, 29, 71
1, 155904, Note_on_c, 3, 65, 122
1, 155904, Note_on_c, 5, 77, 89
1, 155904, Note_on_c, 8, 65, 127
1, 155904, Note_on_c, 9, 27, 127
1, 155904, Note_on_c, 9, 36, 127
1, 155904, Note_on_c, 9, 45, 107
1, 155904, Note_on_c, 9, 42, 66
1, 155904, Note_on_c, 9, 70, 92
1, 155904, Note_on_c, 11, 29, 71
1, 155904, Note_on_c, 12, 53, 80
1, 155906, Control_c, 5, 10, 98
1, 155906, Control_c, 12, 10, 113
1, 155922, Note_on_c, 9, 70, 0
1, 155922, Note_on_c, 9, 42, 0
1, 155922, Note_on_c, 9, 27, 0
1, 155922, Note_on_c, 9, 45, 0
1, 155922, Note_on_c, 9, 36, 0
1, 155947, Note_on_c, 12, 53, 0
1, 155954, Control_c, 12, 10, 120
1, 156000, Note_on_c, 5, 72, 74
1, 156000, Note_on_c, 9, 42, 75
1, 156000, Note_on_c, 12, 53, 73
1, 156002, Control_c, 5, 10, 102
1, 156002, Control_c, 12, 6, 110
1, 156006, Note_on_c, 5, 77, 0
1, 156018, Note_on_c, 9, 42, 0
1, 156034, Note_on_c, 12, 53, 0
1, 156090, Note_on_c, 5, 72, 0
1, 156096, Note_on_c, 1, 41, 102
1, 156096, Note_on_c, 1, 65, 92
1, 156096, Note_on_c, 5, 69, 64
1, 156096, Note_on_c, 9, 46, 107
1, 156096, Note_on_c, 9, 70, 20
1, 156096, Note_on_c, 11, 41, 102
1, 156096, Note_on_c, 11, 65, 92
1, 156098, Control_c, 5, 10, 105
1, 156104, Note_on_c, 1, 29, 0
1, 156104, Note_on_c, 11, 29, 0
1, 156114, Note_on_c, 9, 70, 0
1, 156114, Note_on_c, 9, 46, 0
1, 156148, Note_on_c, 3, 65, 0
1, 156148, Note_on_c, 8, 65, 0
1, 156186, Note_on_c, 1, 65, 0
1, 156186, Note_on_c, 1, 41, 0
1, 156186, Note_on_c, 11, 41, 0
1, 156186, Note_on_c, 11, 65, 0
1, 156192, Note_on_c, 5, 65, 80
1, 156192, Note_on_c, 9, 70, 49
1, 156194, Control_c, 5, 10, 109
1, 156210, Note_on_c, 9, 70, 0
1, 156211, Note_on_c, 5, 69, 0
1, 156282, Note_on_c, 5, 65, 0
1, 156288, Note_on_c, 1, 29, 74
1, 156288, Note_on_c, 3, 69, 122
1, 156288, Note_on_c, 5, 72, 86
1, 156288, Note_on_c, 8, 69, 127
1, 156288, Note_on_c, 9, 27, 127
1, 156288, Note_on_c, 9, 39, 127
1, 156288, Note_on_c, 9, 38, 127
1, 156288, Note_on_c, 9, 45, 107
1, 156288, Note_on_c, 9, 36, 127
1, 156288, Note_on_c, 9, 42, 66
1, 156288, Note_on_c, 9, 70, 76
1, 156288, Note_on_c, 11, 29, 74
1, 156290, Pitch_bend_c, 3, 0
1, 156290, Control_c, 5, 10, 113
1, 156290, Pitch_bend_c, 8, 0
1, 156298, Pitch_bend_c, 3, 455
1, 156298, Pitch_bend_c, 8, 455
1, 156306, Note_on_c, 9, 70, 0
1, 156306, Note_on_c, 9, 45, 0
1, 156306, Note_on_c, 9, 27, 0
1, 156306, Note_on_c, 9, 38, 0
1, 156306, Note_on_c, 9, 39, 0
1, 156306, Note_on_c, 9, 42, 0
1, 156306, Note_on_c, 9, 36, 0
1, 156306, Pitch_bend_c, 3, 910
1, 156306, Pitch_bend_c, 8, 910
1, 156314, Pitch_bend_c, 3, 1365
1, 156314, Pitch_bend_c, 8, 1365
1, 156322, Pitch_bend_c, 3, 1820
1, 156322, Pitch_bend_c, 8, 1820
1, 156330, Pitch_bend_c, 3, 2275
1, 156330, Pitch_bend_c, 8, 2275
1, 156338, Pitch_bend_c, 3, 2730
1, 156338, Pitch_bend_c, 8, 2730
1, 156346, Pitch_bend_c, 3, 3185
1, 156346, Pitch_bend_c, 8, 3185
1, 156354, Pitch_bend_c, 3, 3640
1, 156354, Pitch_bend_c, 8, 3640
1, 156362, Pitch_bend_c, 3, 4095
1, 156362, Pitch_bend_c, 8, 4095
1, 156370, Pitch_bend_c, 3, 4550
1, 156370, Pitch_bend_c, 8, 4550
1, 156378, Pitch_bend_c, 3, 5006
1, 156378, Pitch_bend_c, 8, 5006
1, 156384, Note_on_c, 5, 60, 74
1, 156384, Note_on_c, 9, 42, 75
1, 156386, Pitch_bend_c, 3, 5461
1, 156386, Control_c, 5, 10, 116
1, 156386, Pitch_bend_c, 8, 5461
1, 156390, Note_on_c, 5, 72, 0
1, 156394, Pitch_bend_c, 3, 5916
1, 156394, Pitch_bend_c, 8, 5916
1, 156402, Note_on_c, 9, 42, 0
1, 156402, Pitch_bend_c, 3, 6371
1, 156402, Pitch_bend_c, 8, 6371
1, 156410, Pitch_bend_c, 3, 6826
1, 156410, Pitch_bend_c, 8, 6826
1, 156418, Pitch_bend_c, 3, 7281
1, 156418, Pitch_bend_c, 8, 7281
1, 156426, Pitch_bend_c, 3, 8763
1, 156426, Pitch_bend_c, 8, 8763
1, 156474, Note_on_c, 5, 60, 0
1, 156480, Note_on_c, 1, 41, 83
1, 156480, Note_on_c, 1, 65, 89
1, 156480, Note_on_c, 5, 65, 64
1, 156480, Note_on_c, 9, 46, 107
1, 156480, Note_on_c, 9, 70, 66
1, 156480, Note_on_c, 11, 41, 83
1, 156480, Note_on_c, 11, 65, 89
1, 156482, Control_c, 5, 10, 120
1, 156489, Note_on_c, 1, 29, 0
1, 156489, Note_on_c, 11, 29, 0
1, 156498, Note_on_c, 9, 70, 0
1, 156498, Note_on_c, 9, 46, 0
1, 156519, Note_on_c, 8, 69, 0
1, 156519, Note_on_c, 3, 69, 0
1, 156570, Note_on_c, 5, 65, 0
1, 156570, Note_on_c, 1, 41, 0
1, 156570, Note_on_c, 11, 41, 0
1, 156574, Note_on_c, 1, 65, 0
1, 156574, Note_on_c, 11, 65, 0
1, 156576, Note_on_c, 5, 60, 64
1, 156578, Control_c, 5, 10, 124
1, 156666, Note_on_c, 5, 60, 0
1, 156672, Note_on_c, 1, 29, 68
1, 156672, Note_on_c, 3, 69, 122
1, 156672, Note_on_c, 5, 57, 59
1, 156672, Note_on_c, 8, 69, 127
1, 156672, Note_on_c, 9, 27, 127
1, 156672, Note_on_c, 9, 45, 107
1, 156672, Note_on_c, 9, 36, 127
1, 156672, Note_on_c, 9, 42, 66
1, 156672, Note_on_c, 9, 70, 92
1, 156672, Note_on_c, 11, 29, 68
1, 156672, Note_on_c, 12, 53, 80
1, 156674, Control_c, 5, 10, 68
1, 156674, Control_c, 12, 10, 125
1, 156690, Note_on_c, 9, 70, 0
1, 156690, Note_on_c, 9, 42, 0
1, 156690, Note_on_c, 9, 27, 0
1, 156690, Note_on_c, 9, 36, 0
1, 156690, Note_on_c, 9, 45, 0
1, 156715, Note_on_c, 12, 53, 0
1, 156722, Control_c, 12, 10, 119
1, 156762, Note_on_c, 5, 57, 0
1, 156768, Note_on_c, 5, 65, 68
1, 156768, Note_on_c, 9, 42, 75
1, 156768, Note_on_c, 12, 53, 73
1, 156770, Control_c, 5, 10, 72
1, 156770, Control_c, 12, 10, 113
1, 156770, Control_c, 12, 6, 25
1, 156786, Note_on_c, 9, 42, 0
1, 156802, Note_on_c, 12, 53, 0
1, 156818, Control_c, 12, 10, 107
1, 156858, Note_on_c, 5, 65, 0
1, 156864, Note_on_c, 1, 41, 94
1, 156864, Note_on_c, 1, 65, 92
1, 156864, Note_on_c, 5, 60, 64
1, 156864, Note_on_c, 9, 46, 107
1, 156864, Note_on_c, 11, 41, 94
1, 156864, Note_on_c, 11, 65, 92
1, 156864, Note_on_c, 12, 53, 80
1, 156866, Control_c, 5, 10, 76
1, 156866, Control_c, 12, 10, 101
1, 156874, Note_on_c, 8, 69, 0
1, 156874, Note_on_c, 3, 69, 0
1, 156882, Note_on_c, 9, 46, 0
1, 156887, Note_on_c, 11, 29, 0
1, 156887, Note_on_c, 1, 29, 0
1, 156907, Note_on_c, 12, 53, 0
1, 156914, Control_c, 12, 10, 95
1, 156938, Control_c, 12, 6, 40
1, 156954, Note_on_c, 1, 65, 0
1, 156954, Note_on_c, 1, 41, 0
1, 156954, Note_on_c, 5, 60, 0
1, 156954, Note_on_c, 11, 41, 0
1, 156954, Note_on_c, 11, 65, 0
1, 156960, Note_on_c, 5, 69, 74
1, 156960, Note_on_c, 9, 70, 44
1, 156960, Note_on_c, 12, 53, 73
1, 156962, Control_c, 5, 10, 79
1, 156962, Control_c, 12, 10, 89
1, 156978, Note_on_c, 9, 70, 0
1, 156994, Note_on_c, 12, 53, 0
1, 157010, Control_c, 12, 10, 83
1, 157050, Note_on_c, 5, 69, 0
1, 157056, Note_on_c, 1, 29, 71
1, 157056, Note_on_c, 9, 27, 127
1, 157056, Note_on_c, 9, 39, 127
1, 157056, Note_on_c, 9, 38, 127
1, 157056, Note_on_c, 9, 45, 107
1, 157056, Note_on_c, 9, 36, 127
1, 157056, Note_on_c, 9, 42, 66
1, 157056, Note_on_c, 9, 70, 92
1, 157056, Note_on_c, 11, 29, 71
1, 157056, Note_on_c, 12, 53, 80
1, 157058, Control_c, 5, 10, 83
1, 157058, Control_c, 12, 10, 77
1, 157074, Note_on_c, 9, 70, 0
1, 157074, Note_on_c, 9, 42, 0
1, 157074, Note_on_c, 9, 45, 0
1, 157074, Note_on_c, 9, 27, 0
1, 157074, Note_on_c, 9, 36, 0
1, 157074, Note_on_c, 9, 38, 0
1, 157074, Note_on_c, 9, 39, 0
1, 157099, Note_on_c, 12, 53, 0
1, 157106, Control_c, 12, 10, 71
1, 157142, Control_c, 12, 6, 60
1, 157152, Note_on_c, 5, 65, 77
1, 157152, Note_on_c, 9, 42, 75
1, 157152, Note_on_c, 12, 53, 73
1, 157154, Control_c, 5, 10, 87
1, 157154, Control_c, 12, 10, 65
1, 157170, Note_on_c, 9, 42, 0
1, 157186, Note_on_c, 12, 53, 0
1, 157202, Control_c, 12, 10, 59
1, 157242, Note_on_c, 5, 65, 0
1, 157248, Note_on_c, 1, 41, 85
1, 157248, Note_on_c, 1, 65, 92
1, 157248, Note_on_c, 5, 72, 64
1, 157248, Note_on_c, 9, 46, 107
1, 157248, Note_on_c, 9, 70, 80
1, 157248, Note_on_c, 11, 41, 85
1, 157248, Note_on_c, 11, 65, 92
1, 157248, Note_on_c, 12, 53, 80
1, 157250, Control_c, 5, 10, 91
1, 157250, Control_c, 12, 10, 53
1, 157256, Note_on_c, 11, 29, 0
1, 157256, Note_on_c, 1, 29, 0
1, 157266, Note_on_c, 9, 70, 0
1, 157266, Note_on_c, 9, 46, 0
1, 157291, Note_on_c, 12, 53, 0
1, 157298, Control_c, 12, 10, 47
1, 157338, Note_on_c, 1, 41, 0
1, 157338, Note_on_c, 1, 65, 0
1, 157338, Note_on_c, 11, 41, 0
1, 157338, Note_on_c, 11, 65, 0
1, 157338, Note_on_c, 5, 72, 0
1, 157344, Note_on_c, 5, 69, 74
1, 157344, Note_on_c, 12, 53, 73
1, 157346, Control_c, 5, 10, 94
1, 157346, Control_c, 12, 10, 41
1, 157378, Note_on_c, 12, 53, 0
1, 157394, Control_c, 12, 10, 35
1, 157434, Note_on_c, 5, 69, 0
1, 157440, Note_on_c, 1, 29, 71
1, 157440, Note_on_c, 3, 65, 122
1, 157440, Note_on_c, 5, 77, 89
1, 157440, Note_on_c, 8, 65, 127
1, 157440, Note_on_c, 9, 27, 127
1, 157440, Note_on_c, 9, 45, 107
1, 157440, Note_on_c, 9, 36, 127
1, 157440, Note_on_c, 9, 42, 66
1, 157440, Note_on_c, 9, 70, 86
1, 157440, Note_on_c, 11, 29, 71
1, 157440, Note_on_c, 12, 53, 80
1, 157442, Control_c, 5, 10, 98
1, 157442, Control_c, 12, 10, 29
1, 157458, Note_on_c, 9, 70, 0
1, 157458, Note_on_c, 9, 42, 0
1, 157458, Note_on_c, 9, 27, 0
1, 157458, Note_on_c, 9, 36, 0
1, 157458, Note_on_c, 9, 45, 0
1, 157483, Note_on_c, 12, 53, 0
1, 157490, Control_c, 12, 10, 23
1, 157530, Note_on_c, 5, 77, 0
1, 157536, Note_on_c, 5, 72, 74
1, 157536, Note_on_c, 9, 42, 75
1, 157536, Note_on_c, 12, 53, 73
1, 157538, Control_c, 5, 10, 102
1, 157538, Control_c, 12, 10, 17
1, 157554, Note_on_c, 9, 42, 0
1, 157570, Note_on_c, 12, 53, 0
1, 157586, Control_c, 12, 10, 11
1, 157626, Note_on_c, 5, 72, 0
1, 157632, Note_on_c, 1, 41, 87
1, 157632, Note_on_c, 1, 65, 92
1, 157632, Note_on_c, 5, 69, 64
1, 157632, Note_on_c, 9, 46, 107
1, 157632, Note_on_c, 9, 70, 13
1, 157632, Note_on_c, 11, 41, 87
1, 157632, Note_on_c, 11, 65, 92
1, 157634, Control_c, 5, 10, 105
1, 157634, Control_c, 12, 10, 5
1, 157640, Note_on_c, 1, 29, 0
1, 157640, Note_on_c, 11, 29, 0
1, 157650, Note_on_c, 9, 70, 0
1, 157650, Note_on_c, 9, 46, 0
1, 157684, Note_on_c, 8, 65, 0
1, 157684, Note_on_c, 3, 65, 0
1, 157722, Note_on_c, 1, 65, 0
1, 157722, Note_on_c, 1, 41, 0
1, 157722, Note_on_c, 11, 65, 0
1, 157722, Note_on_c, 5, 69, 0
1, 157722, Note_on_c, 11, 41, 0
1, 157728, Note_on_c, 5, 65, 80
1, 157728, Note_on_c, 9, 70, 26
1, 157730, Control_c, 5, 10, 109
1, 157746, Note_on_c, 9, 70, 0
1, 157818, Note_on_c, 5, 65, 0
1, 157824, Note_on_c, 1, 29, 85
1, 157824, Note_on_c, 1, 63, 89
1, 157824, Note_on_c, 3, 69, 122
1, 157824, Note_on_c, 5, 72, 86
1, 157824, Note_on_c, 8, 69, 127
1, 157824, Note_on_c, 9, 27, 127
1, 157824, Note_on_c, 9, 39, 127
1, 157824, Note_on_c, 9, 38, 127
1, 157824, Note_on_c, 9, 45, 107
1, 157824, Note_on_c, 9, 36, 127
1, 157824, Note_on_c, 9, 42, 66
1, 157824, Note_on_c, 9, 70, 92
1, 157824, Note_on_c, 11, 29, 85
1, 157824, Note_on_c, 11, 63, 89
1, 157826, Pitch_bend_c, 3, 0
1, 157826, Control_c, 5, 10, 113
1, 157826, Pitch_bend_c, 8, 0
1, 157834, Pitch_bend_c, 3, 455
1, 157834, Pitch_bend_c, 8, 455
1, 157842, Note_on_c, 9, 70, 0
1, 157842, Note_on_c, 9, 38, 0
1, 157842, Note_on_c, 9, 39, 0
1, 157842, Note_on_c, 9, 27, 0
1, 157842, Note_on_c, 9, 42, 0
1, 157842, Note_on_c, 9, 45, 0
1, 157842, Note_on_c, 9, 36, 0
1, 157842, Pitch_bend_c, 3, 910
1, 157842, Pitch_bend_c, 8, 910
1, 157850, Pitch_bend_c, 3, 1365
1, 157850, Pitch_bend_c, 8, 1365
1, 157858, Pitch_bend_c, 3, 1820
1, 157858, Pitch_bend_c, 8, 1820
1, 157866, Pitch_bend_c, 3, 2275
1, 157866, Pitch_bend_c, 8, 2275
1, 157874, Pitch_bend_c, 3, 2730
1, 157874, Pitch_bend_c, 8, 2730
1, 157882, Pitch_bend_c, 3, 3185
1, 157882, Pitch_bend_c, 8, 3185
1, 157890, Pitch_bend_c, 3, 3640
1, 157890, Pitch_bend_c, 8, 3640
1, 157898, Pitch_bend_c, 3, 4095
1, 157898, Pitch_bend_c, 8, 4095
1, 157906, Pitch_bend_c, 3, 4550
1, 157906, Pitch_bend_c, 8, 4550
1, 157914, Note_on_c, 5, 72, 0
1, 157914, Pitch_bend_c, 3, 5006
1, 157914, Pitch_bend_c, 8, 5006
1, 157918, Note_on_c, 11, 63, 0
1, 157918, Note_on_c, 1, 63, 0
1, 157920, Note_on_c, 5, 60, 74
1, 157920, Note_on_c, 9, 42, 75
1, 157922, Pitch_bend_c, 3, 5461
1, 157922, Control_c, 5, 10, 116
1, 157922, Pitch_bend_c, 8, 5461
1, 157930, Pitch_bend_c, 3, 5916
1, 157930, Pitch_bend_c, 8, 5916
1, 157938, Note_on_c, 9, 42, 0
1, 157938, Pitch_bend_c, 3, 6371
1, 157938, Pitch_bend_c, 8, 6371
1, 157946, Pitch_bend_c, 3, 6826
1, 157946, Pitch_bend_c, 8, 6826
1, 157954, Pitch_bend_c, 3, 7281
1, 157954, Pitch_bend_c, 8, 7281
1, 157962, Pitch_bend_c, 3, 8763
1, 157962, Pitch_bend_c, 8, 8763
1, 158006, Note_on_c, 1, 29, 0
1, 158006, Note_on_c, 11, 29, 0
1, 158010, Note_on_c, 5, 60, 0
1, 158016, Note_on_c, 1, 41, 85
1, 158016, Note_on_c, 1, 65, 89
1, 158016, Note_on_c, 5, 65, 64
1, 158016, Note_on_c, 9, 46, 107
1, 158016, Note_on_c, 9, 70, 63
1, 158016, Note_on_c, 11, 41, 85
1, 158016, Note_on_c, 11, 65, 89
1, 158018, Control_c, 5, 10, 120
1, 158034, Note_on_c, 9, 70, 0
1, 158034, Note_on_c, 9, 46, 0
1, 158055, Note_on_c, 8, 69, 0
1, 158055, Note_on_c, 3, 69, 0
1, 158106, Note_on_c, 1, 41, 0
1, 158106, Note_on_c, 11, 41, 0
1, 158106, Note_on_c, 5, 65, 0
1, 158110, Note_on_c, 1, 65, 0
1, 158110, Note_on_c, 11, 65, 0
1, 158112, Note_on_c, 5, 60, 64
1, 158114, Control_c, 5, 10, 124
1, 158114, Control_c, 12, 6, 10
1, 158200, Note_on_c, 2, 75, 68
1, 158202, Note_on_c, 5, 60, 0
1, 158208, Note_on_c, 1, 32, 71
1, 158208, Note_on_c, 1, 53, 71
1, 158208, Note_on_c, 1, 65, 71
1, 158208, Note_on_c, 2, 68, 68
1, 158208, Note_on_c, 3, 69, 122
1, 158208, Note_on_c, 5, 56, 59
1, 158208, Note_on_c, 8, 69, 127
1, 158208, Note_on_c, 9, 27, 127
1, 158208, Note_on_c, 9, 45, 107
1, 158208, Note_on_c, 9, 36, 127
1, 158208, Note_on_c, 9, 42, 66
1, 158208, Note_on_c, 9, 70, 92
1, 158208, Note_on_c, 11, 32, 71
1, 158208, Note_on_c, 11, 53, 71
1, 158208, Note_on_c, 11, 65, 71
1, 158208, Note_on_c, 12, 53, 80
1, 158210, Control_c, 5, 10, 68
1, 158210, Control_c, 12, 11, 127
1, 158226, Note_on_c, 9, 70, 0
1, 158226, Note_on_c, 9, 42, 0
1, 158226, Note_on_c, 9, 27, 0
1, 158226, Note_on_c, 9, 36, 0
1, 158226, Note_on_c, 9, 45, 0
1, 158251, Note_on_c, 12, 53, 0
1, 158258, Control_c, 12, 10, 5
1, 158298, Note_on_c, 5, 56, 0
1, 158302, Note_on_c, 11, 65, 0
1, 158302, Note_on_c, 1, 65, 0
1, 158302, Note_on_c, 11, 53, 0
1, 158302, Note_on_c, 1, 53, 0
1, 158304, Note_on_c, 5, 63, 68
1, 158304, Note_on_c, 9, 42, 75
1, 158304, Note_on_c, 12, 53, 73
1, 158306, Control_c, 5, 10, 72
1, 158306, Control_c, 12, 10, 13
1, 158306, Control_c, 12, 6, 25
1, 158322, Note_on_c, 9, 42, 0
1, 158338, Note_on_c, 12, 53, 0
1, 158354, Control_c, 12, 10, 20
1, 158367, Note_on_c, 11, 32, 0
1, 158367, Note_on_c, 1, 32, 0
1, 158394, Note_on_c, 5, 63, 0
1, 158400, Note_on_c, 1, 44, 100
1, 158400, Note_on_c, 1, 56, 92
1, 158400, Note_on_c, 5, 60, 64
1, 158400, Note_on_c, 9, 46, 107
1, 158400, Note_on_c, 11, 44, 100
1, 158400, Note_on_c, 11, 56, 92
1, 158400, Note_on_c, 12, 53, 80
1, 158402, Control_c, 5, 10, 76
1, 158402, Control_c, 12, 10, 27
1, 158410, Note_on_c, 3, 69, 0
1, 158410, Note_on_c, 8, 69, 0
1, 158418, Note_on_c, 9, 46, 0
1, 158443, Note_on_c, 12, 53, 0
1, 158450, Control_c, 12, 10, 34
1, 158474, Control_c, 12, 6, 40
1, 158490, Note_on_c, 5, 60, 0
1, 158490, Note_on_c, 1, 56, 0
1, 158490, Note_on_c, 1, 44, 0
1, 158490, Note_on_c, 11, 44, 0
1, 158490, Note_on_c, 11, 56, 0
1, 158496, Note_on_c, 5, 68, 74
1, 158496, Note_on_c, 9, 70, 40
1, 158496, Note_on_c, 12, 53, 73
1, 158498, Control_c, 5, 10, 79
1, 158498, Control_c, 12, 10, 41
1, 158514, Note_on_c, 9, 70, 0
1, 158530, Note_on_c, 12, 53, 0
1, 158546, Control_c, 12, 10, 49
1, 158586, Note_on_c, 5, 68, 0
1, 158592, Note_on_c, 1, 32, 77
1, 158592, Note_on_c, 9, 27, 127
1, 158592, Note_on_c, 9, 39, 127
1, 158592, Note_on_c, 9, 38, 127
1, 158592, Note_on_c, 9, 45, 107
1, 158592, Note_on_c, 9, 36, 127
1, 158592, Note_on_c, 9, 42, 66
1, 158592, Note_on_c, 9, 70, 86
1, 158592, Note_on_c, 11, 32, 77
1, 158592, Note_on_c, 12, 53, 80
1, 158594, Control_c, 5, 10, 83
1, 158594, Control_c, 12, 10, 56
1, 158610, Note_on_c, 9, 70, 0
1, 158610, Note_on_c, 9, 36, 0
1, 158610, Note_on_c, 9, 39, 0
1, 158610, Note_on_c, 9, 45, 0
1, 158610, Note_on_c, 9, 38, 0
1, 158610, Note_on_c, 9, 42, 0
1, 158610, Note_on_c, 9, 27, 0
1, 158635, Note_on_c, 12, 53, 0
1, 158642, Control_c, 12, 10, 63
1, 158678, Control_c, 12, 6, 60
1, 158688, Note_on_c, 5, 63, 77
1, 158688, Note_on_c, 9, 42, 75
1, 158688, Note_on_c, 12, 53, 73
1, 158690, Control_c, 5, 10, 87
1, 158690, Control_c, 12, 10, 70
1, 158706, Note_on_c, 9, 42, 0
1, 158722, Note_on_c, 12, 53, 0
1, 158738, Control_c, 12, 10, 77
1, 158778, Note_on_c, 5, 63, 0
1, 158784, Note_on_c, 1, 44, 100
1, 158784, Note_on_c, 1, 56, 92
1, 158784, Note_on_c, 5, 72, 64
1, 158784, Note_on_c, 9, 46, 92
1, 158784, Note_on_c, 9, 70, 80
1, 158784, Note_on_c, 11, 44, 100
1, 158784, Note_on_c, 11, 56, 92
1, 158784, Note_on_c, 12, 53, 80
1, 158786, Control_c, 5, 10, 91
1, 158786, Control_c, 12, 10, 84
1, 158790, Note_on_c, 11, 32, 0
1, 158790, Note_on_c, 1, 32, 0
1, 158802, Note_on_c, 9, 70, 0
1, 158802, Note_on_c, 9, 46, 0
1, 158827, Note_on_c, 12, 53, 0
1, 158834, Control_c, 12, 10, 92
1, 158858, Control_c, 12, 6, 85
1, 158874, Note_on_c, 1, 56, 0
1, 158874, Note_on_c, 11, 44, 0
1, 158874, Note_on_c, 5, 72, 0
1, 158874, Note_on_c, 1, 44, 0
1, 158874, Note_on_c, 11, 56, 0
1, 158880, Note_on_c, 5, 68, 74
1, 158880, Note_on_c, 12, 53, 73
1, 158882, Control_c, 5, 10, 94
1, 158882, Control_c, 12, 10, 99
1, 158914, Note_on_c, 12, 53, 0
1, 158930, Control_c, 12, 10, 106
1, 158970, Note_on_c, 5, 68, 0
1, 158976, Note_on_c, 1, 32, 74
1, 158976, Note_on_c, 3, 65, 122
1, 158976, Note_on_c, 5, 75, 89
1, 158976, Note_on_c, 8, 65, 127
1, 158976, Note_on_c, 9, 27, 127
1, 158976, Note_on_c, 9, 45, 107
1, 158976, Note_on_c, 9, 36, 127
1, 158976, Note_on_c, 9, 42, 66
1, 158976, Note_on_c, 9, 70, 92
1, 158976, Note_on_c, 11, 32, 74
1, 158976, Note_on_c, 12, 53, 80
1, 158978, Control_c, 5, 10, 98
1, 158978, Control_c, 12, 10, 113
1, 158994, Note_on_c, 9, 70, 0
1, 158994, Note_on_c, 9, 45, 0
1, 158994, Note_on_c, 9, 27, 0
1, 158994, Note_on_c, 9, 42, 0
1, 158994, Note_on_c, 9, 36, 0
1, 159019, Note_on_c, 12, 53, 0
1, 159026, Control_c, 12, 10, 120
1, 159066, Note_on_c, 5, 75, 0
1, 159072, Note_on_c, 5, 72, 74
1, 159072, Note_on_c, 9, 42, 75
1, 159072, Note_on_c, 12, 53, 73
1, 159074, Control_c, 5, 10, 102
1, 159074, Control_c, 12, 6, 110
1, 159090, Note_on_c, 9, 42, 0
1, 159106, Note_on_c, 12, 53, 0
1, 159162, Note_on_c, 5, 72, 0
1, 159168, Note_on_c, 1, 44, 102
1, 159168, Note_on_c, 1, 56, 92
1, 159168, Note_on_c, 5, 68, 64
1, 159168, Note_on_c, 9, 46, 107
1, 159168, Note_on_c, 9, 70, 20
1, 159168, Note_on_c, 11, 44, 102
1, 159168, Note_on_c, 11, 56, 92
1, 159170, Control_c, 5, 10, 105
1, 159176, Note_on_c, 11, 32, 0
1, 159176, Note_on_c, 1, 32, 0
1, 159186, Note_on_c, 9, 70, 0
1, 159186, Note_on_c, 9, 46, 0
1, 159220, Note_on_c, 8, 65, 0
1, 159220, Note_on_c, 3, 65, 0
1, 159258, Note_on_c, 1, 44, 0
1, 159258, Note_on_c, 5, 68, 0
1, 159258, Note_on_c, 1, 56, 0
1, 159258, Note_on_c, 11, 56, 0
1, 159258, Note_on_c, 11, 44, 0
1, 159264, Note_on_c, 5, 63, 80
1, 159264, Note_on_c, 9, 70, 49
1, 159266, Control_c, 5, 10, 109
1, 159282, Note_on_c, 9, 70, 0
1, 159354, Note_on_c, 5, 63, 0
1, 159354, Pitch_bend_c, 3, 0
1, 159354, Pitch_bend_c, 8, 0
1, 159360, Note_on_c, 1, 32, 74
1, 159360, Note_on_c, 3, 69, 122
1, 159360, Note_on_c, 5, 72, 86
1, 159360, Note_on_c, 8, 69, 127
1, 159360, Note_on_c, 9, 27, 127
1, 159360, Note_on_c, 9, 39, 127
1, 159360, Note_on_c, 9, 38, 127
1, 159360, Note_on_c, 9, 45, 107
1, 159360, Note_on_c, 9, 36, 127
1, 159360, Note_on_c, 9, 42, 66
1, 159360, Note_on_c, 9, 70, 76
1, 159360, Note_on_c, 11, 32, 74
1, 159362, Pitch_bend_c, 3, 455
1, 159362, Control_c, 5, 10, 113
1, 159362, Pitch_bend_c, 8, 455
1, 159370, Pitch_bend_c, 3, 910
1, 159370, Pitch_bend_c, 8, 910
1, 159378, Note_on_c, 9, 70, 0
1, 159378, Note_on_c, 9, 39, 0
1, 159378, Note_on_c, 9, 45, 0
1, 159378, Note_on_c, 9, 27, 0
1, 159378, Note_on_c, 9, 42, 0
1, 159378, Note_on_c, 9, 38, 0
1, 159378, Note_on_c, 9, 36, 0
1, 159378, Pitch_bend_c, 3, 1365
1, 159378, Pitch_bend_c, 8, 1365
1, 159386, Pitch_bend_c, 3, 1820
1, 159386, Pitch_bend_c, 8, 1820
1, 159394, Pitch_bend_c, 3, 2275
1, 159394, Pitch_bend_c, 8, 2275
1, 159402, Pitch_bend_c, 3, 2730
1, 159402, Pitch_bend_c, 8, 2730
1, 159410, Pitch_bend_c, 3, 3185
1, 159410, Pitch_bend_c, 8, 3185
1, 159418, Pitch_bend_c, 3, 3640
1, 159418, Pitch_bend_c, 8, 3640
1, 159426, Pitch_bend_c, 3, 4095
1, 159426, Pitch_bend_c, 8, 4095
1, 159434, Pitch_bend_c, 3, 4550
1, 159434, Pitch_bend_c, 8, 4550
1, 159442, Pitch_bend_c, 3, 5006
1, 159442, Pitch_bend_c, 8, 5006
1, 159450, Note_on_c, 5, 72, 0
1, 159450, Pitch_bend_c, 3, 5461
1, 159450, Pitch_bend_c, 8, 5461
1, 159456, Note_on_c, 5, 60, 74
1, 159456, Note_on_c, 9, 42, 75
1, 159458, Pitch_bend_c, 3, 5916
1, 159458, Control_c, 5, 10, 116
1, 159458, Pitch_bend_c, 8, 5916
1, 159466, Pitch_bend_c, 3, 6371
1, 159466, Pitch_bend_c, 8, 6371
1, 159474, Note_on_c, 9, 42, 0
1, 159474, Pitch_bend_c, 3, 6826
1, 159474, Pitch_bend_c, 8, 6826
1, 159482, Pitch_bend_c, 3, 7281
1, 159482, Pitch_bend_c, 8, 7281
1, 159490, Pitch_bend_c, 3, 8763
1, 159490, Pitch_bend_c, 8, 8763
1, 159546, Note_on_c, 5, 60, 0
1, 159552, Note_on_c, 1, 44, 83
1, 159552, Note_on_c, 1, 56, 89
1, 159552, Note_on_c, 5, 63, 64
1, 159552, Note_on_c, 9, 46, 107
1, 159552, Note_on_c, 9, 70, 66
1, 159552, Note_on_c, 11, 44, 83
1, 159552, Note_on_c, 11, 56, 89
1, 159554, Control_c, 5, 10, 120
1, 159561, Note_on_c, 11, 32, 0
1, 159561, Note_on_c, 1, 32, 0
1, 159570, Note_on_c, 9, 70, 0
1, 159570, Note_on_c, 9, 46, 0
1, 159591, Note_on_c, 8, 69, 0
1, 159591, Note_on_c, 3, 69, 0
1, 159642, Note_on_c, 1, 44, 0
1, 159642, Note_on_c, 5, 63, 0
1, 159642, Note_on_c, 11, 44, 0
1, 159646, Note_on_c, 1, 56, 0
1, 159646, Note_on_c, 11, 56, 0
1, 159648, Note_on_c, 5, 60, 64
1, 159650, Control_c, 5, 10, 124
1, 159650, Control_c, 12, 6, 10
1, 159725, Note_on_c, 2, 68, 0
1, 159738, Note_on_c, 5, 60, 0
1, 159744, Note_on_c, 1, 46, 101
1, 159744, Note_on_c, 3, 69, 122
1, 159744, Note_on_c, 5, 58, 59
1, 159744, Note_on_c, 8, 69, 127
1, 159744, Note_on_c, 9, 27, 127
1, 159744, Note_on_c, 9, 45, 107
1, 159744, Note_on_c, 9, 36, 127
1, 159744, Note_on_c, 9, 42, 66
1, 159744, Note_on_c, 9, 70, 92
1, 159744, Note_on_c, 12, 53, 80
1, 159746, Control_c, 5, 10, 68
1, 159746, Pitch_bend_c, 11, 8192
1, 159746, Control_c, 12, 10, 125
1, 159748, Note_on_c, 2, 75, 0
1, 159760, Note_on_c, 2, 72, 68
1, 159762, Note_on_c, 9, 42, 0
1, 159762, Note_on_c, 9, 27, 0
1, 159762, Note_on_c, 9, 36, 0
1, 159762, Note_on_c, 9, 45, 0
1, 159762, Note_on_c, 9, 70, 0
1, 159762, Note_on_c, 2, 77, 68
1, 159787, Note_on_c, 12, 53, 0
1, 159794, Control_c, 12, 10, 119
1, 159834, Note_on_c, 5, 58, 0
1, 159834, Note_on_c, 1, 46, 0
1, 159840, Note_on_c, 1, 46, 65
1, 159840, Note_on_c, 5, 65, 68
1, 159840, Note_on_c, 9, 27, 127
1, 159840, Note_on_c, 9, 45, 107
1, 159840, Note_on_c, 9, 36, 127
1, 159840, Note_on_c, 9, 42, 75
1, 159840, Note_on_c, 12, 53, 73
1, 159842, Control_c, 5, 10, 72
1, 159842, Control_c, 12, 10, 113
1, 159842, Control_c, 12, 6, 25
1, 159858, Note_on_c, 9, 42, 0
1, 159858, Note_on_c, 9, 45, 0
1, 159858, Note_on_c, 9, 27, 0
1, 159858, Note_on_c, 9, 36, 0
1, 159874, Note_on_c, 12, 53, 0
1, 159890, Control_c, 12, 10, 107
1, 159930, Note_on_c, 1, 46, 0
1, 159930, Note_on_c, 5, 65, 0
1, 159936, Note_on_c, 1, 46, 94
1, 159936, Note_on_c, 5, 62, 64
1, 159936, Note_on_c, 9, 27, 127
1, 159936, Note_on_c, 9, 36, 127
1, 159936, Note_on_c, 9, 45, 107
1, 159936, Note_on_c, 9, 46, 107
1, 159936, Note_on_c, 12, 53, 80
1, 159938, Control_c, 5, 10, 76
1, 159938, Control_c, 12, 10, 101
1, 159946, Note_on_c, 3, 69, 0
1, 159946, Note_on_c, 8, 69, 0
1, 159954, Note_on_c, 9, 45, 0
1, 159954, Note_on_c, 9, 36, 0
1, 159954, Note_on_c, 9, 27, 0
1, 159954, Note_on_c, 9, 46, 0
1, 159979, Note_on_c, 12, 53, 0
1, 159986, Control_c, 12, 10, 95
1, 160010, Control_c, 12, 6, 40
1, 160026, Note_on_c, 5, 62, 0
1, 160026, Note_on_c, 1, 46, 0
1, 160032, Note_on_c, 5, 70, 74
1, 160032, Note_on_c, 9, 70, 44
1, 160032, Note_on_c, 12, 53, 73
1, 160034, Control_c, 5, 10, 79
1, 160034, Control_c, 12, 10, 89
1, 160050, Note_on_c, 9, 70, 0
1, 160066, Note_on_c, 12, 53, 0
1, 160082, Control_c, 12, 10, 83
1, 160122, Note_on_c, 5, 70, 0
1, 160128, Note_on_c, 1, 46, 101
1, 160128, Note_on_c, 9, 27, 127
1, 160128, Note_on_c, 9, 45, 107
1, 160128, Note_on_c, 9, 36, 127
1, 160128, Note_on_c, 9, 42, 66
1, 160128, Note_on_c, 9, 70, 92
1, 160128, Note_on_c, 12, 53, 80
1, 160130, Control_c, 5, 10, 83
1, 160130, Control_c, 12, 10, 77
1, 160146, Note_on_c, 9, 70, 0
1, 160146, Note_on_c, 9, 42, 0
1, 160146, Note_on_c, 9, 45, 0
1, 160146, Note_on_c, 9, 36, 0
1, 160146, Note_on_c, 9, 27, 0
1, 160171, Note_on_c, 12, 53, 0
1, 160178, Control_c, 12, 10, 71
1, 160214, Control_c, 12, 6, 60
1, 160218, Note_on_c, 1, 46, 0
1, 160224, Note_on_c, 1, 46, 65
1, 160224, Note_on_c, 5, 65, 77
1, 160224, Note_on_c, 9, 27, 127
1, 160224, Note_on_c, 9, 45, 107
1, 160224, Note_on_c, 9, 36, 127
1, 160224, Note_on_c, 9, 42, 75
1, 160224, Note_on_c, 12, 53, 73
1, 160226, Control_c, 5, 10, 87
1, 160226, Control_c, 12, 10, 65
1, 160242, Note_on_c, 9, 42, 0
1, 160242, Note_on_c, 9, 36, 0
1, 160242, Note_on_c, 9, 27, 0
1, 160242, Note_on_c, 9, 45, 0
1, 160258, Note_on_c, 12, 53, 0
1, 160274, Control_c, 12, 10, 59
1, 160314, Note_on_c, 1, 46, 0
1, 160314, Note_on_c, 5, 65, 0
1, 160320, Note_on_c, 1, 46, 94
1, 160320, Note_on_c, 5, 74, 64
1, 160320, Note_on_c, 9, 27, 127
1, 160320, Note_on_c, 9, 36, 127
1, 160320, Note_on_c, 9, 45, 107
1, 160320, Note_on_c, 9, 46, 107
1, 160320, Note_on_c, 9, 70, 80
1, 160320, Note_on_c, 12, 53, 80
1, 160322, Control_c, 5, 10, 91
1, 160322, Control_c, 12, 10, 53
1, 160328, Control_c, 2, 64, 127
1, 160328, Control_c, 2, 64, 127
1, 160330, Control_c, 2, 64, 127
1, 160331, Control_c, 2, 64, 127
1, 160332, Control_c, 2, 64, 127
1, 160332, Control_c, 2, 64, 127
1, 160332, Control_c, 2, 64, 127
1, 160332, Control_c, 2, 64, 127
1, 160332, Control_c, 2, 64, 127
1, 160332, Control_c, 2, 64, 127
1, 160332, Control_c, 2, 64, 127
1, 160332, Control_c, 2, 64, 127
1, 160332, Control_c, 2, 64, 127
1, 160332, Control_c, 2, 64, 127
1, 160332, Control_c, 2, 64, 127
1, 160338, Note_on_c, 9, 70, 0
1, 160338, Note_on_c, 9, 46, 0
1, 160338, Note_on_c, 9, 36, 0
1, 160338, Note_on_c, 9, 27, 0
1, 160338, Note_on_c, 9, 45, 0
1, 160363, Note_on_c, 12, 53, 0
1, 160370, Control_c, 12, 10, 47
1, 160394, Control_c, 12, 6, 85
1, 160410, Note_on_c, 1, 46, 0
1, 160410, Note_on_c, 5, 74, 0
1, 160416, Note_on_c, 5, 70, 74
1, 160416, Note_on_c, 12, 53, 73
1, 160418, Control_c, 5, 10, 94
1, 160418, Control_c, 12, 10, 41
1, 160448, Control_c, 2, 64, 0
1, 160448, Control_c, 2, 64, 0
1, 160448, Control_c, 2, 64, 0
1, 160448, Control_c, 2, 64, 0
1, 160448, Control_c, 2, 64, 0
1, 160448, Control_c, 2, 64, 0
1, 160448, Control_c, 2, 64, 0
1, 160448, Control_c, 2, 64, 0
1, 160448, Control_c, 2, 64, 0
1, 160448, Control_c, 2, 64, 0
1, 160448, Control_c, 2, 64, 0
1, 160448, Control_c, 2, 64, 0
1, 160448, Control_c, 2, 64, 0
1, 160448, Control_c, 2, 64, 0
1, 160448, Control_c, 2, 64, 0
1, 160450, Note_on_c, 12, 53, 0
1, 160466, Control_c, 12, 10, 35
1, 160506, Note_on_c, 5, 70, 0
1, 160512, Note_on_c, 1, 46, 101
1, 160512, Note_on_c, 5, 77, 89
1, 160512, Note_on_c, 9, 27, 127
1, 160512, Note_on_c, 9, 45, 107
1, 160512, Note_on_c, 9, 36, 127
1, 160512, Note_on_c, 9, 42, 66
1, 160512, Note_on_c, 9, 70, 86
1, 160512, Note_on_c, 12, 53, 80
1, 160514, Control_c, 5, 10, 98
1, 160514, Control_c, 12, 10, 29
1, 160530, Note_on_c, 9, 70, 0
1, 160530, Note_on_c, 9, 42, 0
1, 160530, Note_on_c, 9, 45, 0
1, 160530, Note_on_c, 9, 27, 0
1, 160530, Note_on_c, 9, 36, 0
1, 160555, Note_on_c, 12, 53, 0
1, 160562, Control_c, 12, 10, 23
1, 160602, Note_on_c, 1, 46, 0
1, 160602, Note_on_c, 5, 77, 0
1, 160608, Note_on_c, 1, 46, 65
1, 160608, Note_on_c, 5, 74, 74
1, 160608, Note_on_c, 9, 27, 127
1, 160608, Note_on_c, 9, 45, 107
1, 160608, Note_on_c, 9, 36, 127
1, 160608, Note_on_c, 9, 42, 75
1, 160608, Note_on_c, 12, 53, 73
1, 160610, Control_c, 5, 10, 102
1, 160610, Control_c, 12, 10, 17
1, 160610, Control_c, 12, 6, 110
1, 160626, Note_on_c, 9, 42, 0
1, 160626, Note_on_c, 9, 36, 0
1, 160626, Note_on_c, 9, 27, 0
1, 160626, Note_on_c, 9, 45, 0
1, 160642, Note_on_c, 12, 53, 0
1, 160658, Control_c, 12, 10, 11
1, 160698, Note_on_c, 1, 46, 0
1, 160698, Note_on_c, 5, 74, 0
1, 160704, Note_on_c, 1, 46, 94
1, 160704, Note_on_c, 5, 70, 64
1, 160704, Note_on_c, 9, 27, 127
1, 160704, Note_on_c, 9, 36, 127
1, 160704, Note_on_c, 9, 45, 107
1, 160704, Note_on_c, 9, 46, 107
1, 160704, Note_on_c, 9, 70, 13
1, 160706, Control_c, 5, 10, 105
1, 160706, Control_c, 12, 10, 5
1, 160722, Note_on_c, 9, 70, 0
1, 160722, Note_on_c, 9, 36, 0
1, 160722, Note_on_c, 9, 46, 0
1, 160722, Note_on_c, 9, 27, 0
1, 160722, Note_on_c, 9, 45, 0
1, 160794, Note_on_c, 1, 46, 0
1, 160794, Note_on_c, 5, 70, 0
1, 160800, Note_on_c, 5, 65, 80
1, 160800, Note_on_c, 9, 70, 26
1, 160802, Control_c, 5, 10, 109
1, 160818, Note_on_c, 9, 70, 0
1, 160890, Note_on_c, 5, 65, 0
1, 160896, Note_on_c, 1, 46, 101
1, 160896, Note_on_c, 5, 74, 86
1, 160896, Note_on_c, 9, 27, 127
1, 160896, Note_on_c, 9, 45, 107
1, 160896, Note_on_c, 9, 36, 127
1, 160896, Note_on_c, 9, 42, 66
1, 160896, Note_on_c, 9, 70, 92
1, 160898, Control_c, 5, 10, 113
1, 160914, Note_on_c, 9, 70, 0
1, 160914, Note_on_c, 9, 45, 0
1, 160914, Note_on_c, 9, 42, 0
1, 160914, Note_on_c, 9, 27, 0
1, 160914, Note_on_c, 9, 36, 0
1, 160986, Note_on_c, 1, 46, 0
1, 160986, Note_on_c, 5, 74, 0
1, 160992, Note_on_c, 1, 46, 65
1, 160992, Note_on_c, 5, 62, 74
1, 160992, Note_on_c, 9, 27, 127
1, 160992, Note_on_c, 9, 45, 107
1, 160992, Note_on_c, 9, 36, 127
1, 160992, Note_on_c, 9, 42, 75
1, 160994, Control_c, 5, 10, 116
1, 161010, Note_on_c, 9, 42, 0
1, 161010, Note_on_c, 9, 36, 0
1, 161010, Note_on_c, 9, 27, 0
1, 161010, Note_on_c, 9, 45, 0
1, 161082, Note_on_c, 1, 46, 0
1, 161082, Note_on_c, 5, 62, 0
1, 161088, Note_on_c, 1, 46, 94
1, 161088, Note_on_c, 5, 65, 64
1, 161088, Note_on_c, 9, 27, 127
1, 161088, Note_on_c, 9, 36, 127
1, 161088, Note_on_c, 9, 45, 107
1, 161088, Note_on_c, 9, 46, 107
1, 161088, Note_on_c, 9, 70, 63
1, 161090, Control_c, 5, 10, 120
1, 161106, Note_on_c, 9, 70, 0
1, 161106, Note_on_c, 9, 36, 0
1, 161106, Note_on_c, 9, 46, 0
1, 161106, Note_on_c, 9, 27, 0
1, 161106, Note_on_c, 9, 45, 0
1, 161178, Note_on_c, 1, 46, 0
1, 161178, Note_on_c, 2, 72, 0
1, 161178, Note_on_c, 2, 77, 0
1, 161178, Note_on_c, 5, 65, 0
1, 161184, Note_on_c, 5, 62, 64
1, 161186, Control_c, 5, 10, 124
1, 161186, Control_c, 12, 6, 10
1, 161224, Note_on_c, 2, 65, 66
1, 161232, Note_on_c, 2, 46, 66
1, 161232, Note_on_c, 2, 58, 66
1, 161232, Note_on_c, 2, 62, 66
1, 161274, Note_on_c, 5, 62, 0
1, 161280, Note_on_c, 4, 89, 113
1, 161280, Note_on_c, 5, 65, 98
1, 161280, Note_on_c, 5, 77, 98
1, 161280, Note_on_c, 7, 58, 71
1, 161280, Note_on_c, 7, 65, 71
1, 161280, Note_on_c, 9, 27, 127
1, 161280, Note_on_c, 9, 36, 127
1, 161280, Note_on_c, 9, 45, 107
1, 161298, Note_on_c, 9, 45, 0
1, 161298, Note_on_c, 9, 36, 0
1, 161298, Note_on_c, 9, 27, 0
1, 161314, Note_on_c, 7, 58, 0
1, 161318, Note_on_c, 7, 65, 0
1, 161376, Note_on_c, 7, 58, 86
1, 161376, Note_on_c, 7, 65, 86
1, 161394, Note_on_c, 4, 89, 0
1, 161410, Note_on_c, 7, 58, 0
1, 161414, Note_on_c, 7, 65, 0
1, 161438, Note_on_c, 5, 77, 0
1, 161441, Note_on_c, 5, 65, 0
1, 161472, Note_on_c, 4, 86, 113
1, 161472, Note_on_c, 7, 58, 92
1, 161472, Note_on_c, 7, 65, 92
1, 161514, Note_on_c, 7, 65, 0
1, 161514, Note_on_c, 7, 58, 0
1, 161568, Note_on_c, 7, 58, 53
1, 161568, Note_on_c, 7, 65, 53
1, 161602, Note_on_c, 7, 58, 0
1, 161606, Note_on_c, 7, 65, 0
1, 161631, Note_on_c, 4, 86, 0
1, 161664, Note_on_c, 4, 82, 113
1, 161664, Note_on_c, 5, 65, 85
1, 161664, Note_on_c, 5, 77, 85
1, 161664, Note_on_c, 7, 58, 71
1, 161664, Note_on_c, 7, 65, 71
1, 161698, Note_on_c, 7, 58, 0
1, 161702, Note_on_c, 7, 65, 0
1, 161760, Note_on_c, 7, 58, 83
1, 161760, Note_on_c, 7, 65, 83
1, 161794, Note_on_c, 7, 58, 0
1, 161798, Note_on_c, 7, 65, 0
1, 161822, Note_on_c, 5, 77, 0
1, 161825, Note_on_c, 5, 65, 0
1, 161850, Note_on_c, 4, 82, 0
1, 161856, Note_on_c, 4, 86, 113
1, 161856, Note_on_c, 7, 58, 92
1, 161856, Note_on_c, 7, 65, 92
1, 161898, Note_on_c, 7, 65, 0
1, 161898, Note_on_c, 7, 58, 0
1, 161952, Note_on_c, 7, 58, 64
1, 161952, Note_on_c, 7, 65, 64
1, 161986, Note_on_c, 7, 58, 0
1, 161990, Note_on_c, 7, 65, 0
1, 162048, Note_on_c, 4, 89, 113
1, 162048, Note_on_c, 5, 65, 72
1, 162048, Note_on_c, 5, 77, 72
1, 162048, Note_on_c, 7, 58, 71
1, 162048, Note_on_c, 7, 65, 71
1, 162049, Note_on_c, 7, 65, 0
1, 162049, Note_on_c, 7, 58, 0
1, 162055, Note_on_c, 4, 86, 0
1, 162144, Note_on_c, 7, 58, 80
1, 162144, Note_on_c, 7, 65, 80
1, 162145, Note_on_c, 7, 65, 0
1, 162145, Note_on_c, 7, 58, 0
1, 162206, Note_on_c, 5, 77, 0
1, 162209, Note_on_c, 5, 65, 0
1, 162234, Note_on_c, 4, 89, 0
1, 162240, Note_on_c, 4, 86, 114
1, 162240, Note_on_c, 7, 58, 92
1, 162240, Note_on_c, 7, 65, 92
1, 162282, Note_on_c, 7, 65, 0
1, 162282, Note_on_c, 7, 58, 0
1, 162336, Note_on_c, 7, 58, 64
1, 162336, Note_on_c, 7, 65, 64
1, 162370, Note_on_c, 7, 58, 0
1, 162374, Note_on_c, 7, 65, 0
1, 162384, Note_on_c, 4, 86, 0
1, 162432, Note_on_c, 4, 82, 114
1, 162432, Note_on_c, 5, 65, 58
1, 162432, Note_on_c, 5, 77, 58
1, 162432, Note_on_c, 7, 58, 71
1, 162432, Note_on_c, 7, 65, 71
1, 162433, Note_on_c, 7, 65, 0
1, 162433, Note_on_c, 7, 58, 0
1, 162528, Note_on_c, 7, 58, 80
1, 162528, Note_on_c, 7, 65, 80
1, 162529, Note_on_c, 7, 65, 0
1, 162529, Note_on_c, 7, 58, 0
1, 162590, Note_on_c, 5, 77, 0
1, 162593, Note_on_c, 5, 65, 0
1, 162618, Note_on_c, 4, 82, 0
1, 162624, Note_on_c, 4, 86, 114
1, 162624, Note_on_c, 7, 58, 92
1, 162624, Note_on_c, 7, 65, 92
1, 162666, Note_on_c, 7, 65, 0
1, 162666, Note_on_c, 7, 58, 0
1, 162720, Note_on_c, 7, 58, 64
1, 162720, Note_on_c, 7, 65, 64
1, 162754, Note_on_c, 7, 58, 0
1, 162758, Note_on_c, 7, 65, 0
1, 162762, Note_on_c, 2, 58, 0
1, 162762, Note_on_c, 2, 46, 0
1, 162762, Note_on_c, 2, 62, 0
1, 162768, Note_on_c, 2, 41, 61
1, 162768, Note_on_c, 2, 57, 61
1, 162768, Note_on_c, 2, 60, 61
1, 162781, Note_on_c, 4, 86, 0
1, 162816, Note_on_c, 4, 89, 114
1, 162816, Note_on_c, 5, 72, 98
1, 162816, Note_on_c, 5, 84, 98
1, 162816, Note_on_c, 7, 57, 71
1, 162816, Note_on_c, 7, 60, 71
1, 162850, Note_on_c, 7, 57, 0
1, 162854, Note_on_c, 7, 60, 0
1, 162912, Note_on_c, 7, 57, 86
1, 162912, Note_on_c, 7, 60, 86
1, 162946, Note_on_c, 7, 57, 0
1, 162950, Note_on_c, 7, 60, 0
1, 162974, Note_on_c, 5, 84, 0
1, 162977, Note_on_c, 5, 72, 0
1, 162978, Note_on_c, 4, 89, 0
1, 163008, Note_on_c, 4, 84, 114
1, 163008, Note_on_c, 7, 57, 92
1, 163008, Note_on_c, 7, 60, 92
1, 163050, Note_on_c, 7, 60, 0
1, 163050, Note_on_c, 7, 57, 0
1, 163104, Note_on_c, 7, 57, 53
1, 163104, Note_on_c, 7, 60, 53
1, 163138, Note_on_c, 7, 57, 0
1, 163142, Note_on_c, 7, 60, 0
1, 163186, Note_on_c, 4, 84, 0
1, 163200, Note_on_c, 4, 81, 115
1, 163200, Note_on_c, 5, 72, 85
1, 163200, Note_on_c, 5, 84, 85
1, 163200, Note_on_c, 7, 57, 71
1, 163200, Note_on_c, 7, 60, 71
1, 163234, Note_on_c, 7, 57, 0
1, 163238, Note_on_c, 7, 60, 0
1, 163296, Note_on_c, 7, 57, 83
1, 163296, Note_on_c, 7, 60, 83
1, 163314, Note_on_c, 4, 81, 0
1, 163330, Note_on_c, 7, 57, 0
1, 163334, Note_on_c, 7, 60, 0
1, 163358, Note_on_c, 5, 84, 0
1, 163361, Note_on_c, 5, 72, 0
1, 163392, Note_on_c, 4, 84, 115
1, 163392, Note_on_c, 7, 57, 92
1, 163392, Note_on_c, 7, 60, 92
1, 163434, Note_on_c, 7, 60, 0
1, 163434, Note_on_c, 7, 57, 0
1, 163488, Note_on_c, 7, 57, 64
1, 163488, Note_on_c, 7, 60, 64
1, 163522, Note_on_c, 7, 57, 0
1, 163526, Note_on_c, 7, 60, 0
1, 163562, Note_on_c, 4, 84, 0
1, 163584, Note_on_c, 4, 89, 115
1, 163584, Note_on_c, 5, 72, 72
1, 163584, Note_on_c, 5, 84, 72
1, 163584, Note_on_c, 7, 57, 71
1, 163584, Note_on_c, 7, 60, 71
1, 163585, Note_on_c, 7, 60, 0
1, 163585, Note_on_c, 7, 57, 0
1, 163680, Note_on_c, 7, 57, 80
1, 163680, Note_on_c, 7, 60, 80
1, 163681, Note_on_c, 7, 60, 0
1, 163681, Note_on_c, 7, 57, 0
1, 163742, Note_on_c, 5, 84, 0
1, 163745, Note_on_c, 5, 72, 0
1, 163758, Note_on_c, 4, 89, 0
1, 163776, Note_on_c, 4, 84, 115
1, 163776, Note_on_c, 7, 57, 92
1, 163776, Note_on_c, 7, 60, 92
1, 163818, Note_on_c, 7, 60, 0
1, 163818, Note_on_c, 7, 57, 0
1, 163872, Note_on_c, 7, 57, 64
1, 163872, Note_on_c, 7, 60, 64
1, 163906, Note_on_c, 7, 57, 0
1, 163910, Note_on_c, 7, 60, 0
1, 163946, Note_on_c, 4, 84, 0
1, 163968, Note_on_c, 4, 91, 115
1, 163968, Note_on_c, 5, 86, 93
1, 163968, Note_on_c, 5, 74, 93
1, 163968, Note_on_c, 7, 57, 71
1, 163968, Note_on_c, 7, 60, 71
1, 163969, Note_on_c, 7, 60, 0
1, 163969, Note_on_c, 7, 57, 0
1, 164064, Note_on_c, 7, 57, 80
1, 164064, Note_on_c, 7, 60, 80
1, 164065, Note_on_c, 7, 60, 0
1, 164065, Note_on_c, 7, 57, 0
1, 164117, Note_on_c, 4, 91, 0
1, 164126, Note_on_c, 5, 86, 0
1, 164129, Note_on_c, 5, 74, 0
1, 164160, Note_on_c, 4, 84, 115
1, 164160, Note_on_c, 7, 57, 92
1, 164160, Note_on_c, 7, 60, 92
1, 164202, Note_on_c, 7, 60, 0
1, 164202, Note_on_c, 7, 57, 0
1, 164256, Note_on_c, 7, 57, 64
1, 164256, Note_on_c, 7, 60, 64
1, 164290, Note_on_c, 7, 57, 0
1, 164292, Note_on_c, 4, 84, 0
1, 164294, Note_on_c, 7, 60, 0
1, 164304, Note_on_c, 2, 38, 61
1, 164304, Note_on_c, 2, 50, 61
1, 164352, Note_on_c, 4, 93, 110
1, 164352, Note_on_c, 5, 81, 93
1, 164352, Note_on_c, 5, 69, 93
1, 164352, Note_on_c, 7, 53, 71
1, 164352, Note_on_c, 7, 57, 71
1, 164353, Note_on_c, 7, 57, 0
1, 164353, Note_on_c, 7, 53, 0
1, 164442, Note_on_c, 4, 93, 0
1, 164448, Note_on_c, 7, 53, 80
1, 164448, Note_on_c, 7, 57, 80
1, 164449, Note_on_c, 7, 57, 0
1, 164449, Note_on_c, 7, 53, 0
1, 164507, Note_on_c, 2, 41, 0
1, 164510, Note_on_c, 5, 81, 0
1, 164513, Note_on_c, 5, 69, 0
1, 164544, Note_on_c, 4, 89, 110
1, 164544, Note_on_c, 7, 53, 92
1, 164544, Note_on_c, 7, 57, 92
1, 164586, Note_on_c, 7, 57, 0
1, 164586, Note_on_c, 7, 53, 0
1, 164640, Note_on_c, 7, 53, 64
1, 164640, Note_on_c, 7, 57, 64
1, 164674, Note_on_c, 7, 53, 0
1, 164678, Note_on_c, 7, 57, 0
1, 164721, Note_on_c, 4, 89, 0
1, 164736, Note_on_c, 4, 96, 110
1, 164736, Note_on_c, 5, 69, 85
1, 164736, Note_on_c, 5, 81, 85
1, 164736, Note_on_c, 7, 53, 71
1, 164736, Note_on_c, 7, 57, 71
1, 164737, Note_on_c, 7, 57, 0
1, 164737, Note_on_c, 7, 53, 0
1, 164826, Note_on_c, 4, 96, 0
1, 164832, Note_on_c, 7, 53, 80
1, 164832, Note_on_c, 7, 57, 80
1, 164833, Note_on_c, 7, 57, 0
1, 164833, Note_on_c, 7, 53, 0
1, 164894, Note_on_c, 5, 81, 0
1, 164897, Note_on_c, 5, 69, 0
1, 164928, Note_on_c, 4, 89, 110
1, 164928, Note_on_c, 7, 53, 92
1, 164928, Note_on_c, 7, 57, 92
1, 164970, Note_on_c, 7, 57, 0
1, 164970, Note_on_c, 7, 53, 0
1, 165024, Note_on_c, 7, 53, 64
1, 165024, Note_on_c, 7, 57, 64
1, 165058, Note_on_c, 7, 53, 0
1, 165062, Note_on_c, 7, 57, 0
1, 165113, Note_on_c, 4, 89, 0
1, 165120, Note_on_c, 4, 93, 110
1, 165120, Note_on_c, 5, 69, 72
1, 165120, Note_on_c, 5, 81, 72
1, 165120, Note_on_c, 7, 53, 71
1, 165120, Note_on_c, 7, 57, 71
1, 165121, Note_on_c, 7, 57, 0
1, 165121, Note_on_c, 7, 53, 0
1, 165210, Note_on_c, 4, 93, 0
1, 165216, Note_on_c, 7, 53, 80
1, 165216, Note_on_c, 7, 57, 80
1, 165217, Note_on_c, 7, 57, 0
1, 165217, Note_on_c, 7, 53, 0
1, 165278, Note_on_c, 5, 81, 0
1, 165281, Note_on_c, 5, 69, 0
1, 165312, Note_on_c, 4, 84, 110
1, 165312, Note_on_c, 7, 53, 92
1, 165312, Note_on_c, 7, 57, 92
1, 165354, Note_on_c, 7, 57, 0
1, 165354, Note_on_c, 7, 53, 0
1, 165408, Note_on_c, 7, 53, 64
1, 165408, Note_on_c, 7, 57, 64
1, 165442, Note_on_c, 7, 53, 0
1, 165446, Note_on_c, 7, 57, 0
1, 165504, Note_on_c, 4, 84, 0
1, 165504, Note_on_c, 4, 91, 110
1, 165504, Note_on_c, 5, 69, 58
1, 165504, Note_on_c, 5, 81, 58
1, 165504, Note_on_c, 7, 53, 71
1, 165504, Note_on_c, 7, 57, 71
1, 165505, Note_on_c, 7, 57, 0
1, 165505, Note_on_c, 7, 53, 0
1, 165594, Note_on_c, 4, 91, 0
1, 165600, Note_on_c, 7, 53, 80
1, 165600, Note_on_c, 7, 57, 80
1, 165601, Note_on_c, 7, 57, 0
1, 165601, Note_on_c, 7, 53, 0
1, 165662, Note_on_c, 5, 81, 0
1, 165665, Note_on_c, 5, 69, 0
1, 165696, Note_on_c, 4, 84, 112
1, 165696, Note_on_c, 7, 53, 92
1, 165696, Note_on_c, 7, 57, 92
1, 165738, Note_on_c, 7, 57, 0
1, 165738, Note_on_c, 7, 53, 0
1, 165786, Note_on_c, 2, 65, 0
1, 165792, Note_on_c, 7, 53, 64
1, 165792, Note_on_c, 7, 57, 64
1, 165798, Note_on_c, 2, 57, 0
1, 165798, Note_on_c, 2, 60, 0
1, 165826, Note_on_c, 7, 53, 0
1, 165830, Note_on_c, 7, 57, 0
1, 165840, Note_on_c, 2, 45, 61
1, 165840, Note_on_c, 2, 57, 61
1, 165840, Note_on_c, 2, 60, 61
1, 165840, Note_on_c, 2, 64, 61
1, 165843, Note_on_c, 2, 50, 0
1, 165862, Note_on_c, 2, 38, 0
1, 165882, Note_on_c, 4, 84, 0
1, 165888, Note_on_c, 4, 88, 107
1, 165888, Note_on_c, 5, 84, 93
1, 165888, Note_on_c, 5, 72, 93
1, 165888, Note_on_c, 7, 64, 71
1, 165888, Note_on_c, 7, 57, 71
1, 165889, Note_on_c, 7, 57, 0
1, 165889, Note_on_c, 7, 64, 0
1, 165984, Note_on_c, 7, 64, 80
1, 165984, Note_on_c, 7, 57, 80
1, 165985, Note_on_c, 7, 57, 0
1, 165985, Note_on_c, 7, 64, 0
1, 166046, Note_on_c, 5, 84, 0
1, 166049, Note_on_c, 5, 72, 0
1, 166080, Note_on_c, 4, 81, 107
1, 166080, Note_on_c, 7, 64, 92
1, 166080, Note_on_c, 7, 57, 92
1, 166102, Note_on_c, 4, 88, 0
1, 166122, Note_on_c, 7, 57, 0
1, 166122, Note_on_c, 7, 64, 0
1, 166176, Note_on_c, 7, 64, 64
1, 166176, Note_on_c, 7, 57, 64
1, 166210, Note_on_c, 7, 57, 0
1, 166214, Note_on_c, 7, 64, 0
1, 166265, Note_on_c, 4, 81, 0
1, 166272, Note_on_c, 4, 84, 107
1, 166272, Note_on_c, 5, 81, 93
1, 166272, Note_on_c, 5, 69, 93
1, 166272, Note_on_c, 7, 64, 71
1, 166272, Note_on_c, 7, 57, 71
1, 166273, Note_on_c, 7, 57, 0
1, 166273, Note_on_c, 7, 64, 0
1, 166368, Note_on_c, 7, 64, 80
1, 166368, Note_on_c, 7, 57, 80
1, 166369, Note_on_c, 7, 57, 0
1, 166369, Note_on_c, 7, 64, 0
1, 166430, Note_on_c, 5, 81, 0
1, 166433, Note_on_c, 5, 69, 0
1, 166464, Note_on_c, 4, 84, 0
1, 166464, Note_on_c, 4, 81, 107
1, 166464, Note_on_c, 7, 64, 92
1, 166464, Note_on_c, 7, 57, 92
1, 166506, Note_on_c, 7, 57, 0
1, 166506, Note_on_c, 7, 64, 0
1, 166560, Note_on_c, 7, 64, 64
1, 166560, Note_on_c, 7, 57, 64
1, 166594, Note_on_c, 7, 57, 0
1, 166598, Note_on_c, 7, 64, 0
1, 166631, Note_on_c, 4, 81, 0
1, 166656, Note_on_c, 4, 88, 107
1, 166656, Note_on_c, 5, 79, 93
1, 166656, Note_on_c, 5, 67, 93
1, 166656, Note_on_c, 7, 64, 71
1, 166656, Note_on_c, 7, 57, 71
1, 166657, Note_on_c, 7, 57, 0
1, 166657, Note_on_c, 7, 64, 0
1, 166752, Note_on_c, 7, 64, 80
1, 166752, Note_on_c, 7, 57, 80
1, 166753, Note_on_c, 7, 57, 0
1, 166753, Note_on_c, 7, 64, 0
1, 166814, Note_on_c, 5, 79, 0
1, 166817, Note_on_c, 5, 67, 0
1, 166848, Note_on_c, 4, 81, 107
1, 166848, Note_on_c, 7, 64, 92
1, 166848, Note_on_c, 7, 57, 92
1, 166870, Note_on_c, 4, 88, 0
1, 166890, Note_on_c, 7, 57, 0
1, 166890, Note_on_c, 7, 64, 0
1, 166944, Note_on_c, 7, 64, 64
1, 166944, Note_on_c, 7, 57, 64
1, 166978, Note_on_c, 7, 57, 0
1, 166982, Note_on_c, 7, 64, 0
1, 167033, Note_on_c, 4, 81, 0
1, 167040, Note_on_c, 4, 84, 107
1, 167040, Note_on_c, 5, 77, 93
1, 167040, Note_on_c, 5, 65, 93
1, 167040, Note_on_c, 7, 64, 71
1, 167040, Note_on_c, 7, 57, 71
1, 167041, Note_on_c, 7, 57, 0
1, 167041, Note_on_c, 7, 64, 0
1, 167136, Note_on_c, 7, 64, 80
1, 167136, Note_on_c, 7, 57, 80
1, 167137, Note_on_c, 7, 57, 0
1, 167137, Note_on_c, 7, 64, 0
1, 167198, Note_on_c, 5, 77, 0
1, 167201, Note_on_c, 5, 65, 0
1, 167232, Note_on_c, 4, 84, 0
1, 167232, Note_on_c, 4, 81, 107
1, 167232, Note_on_c, 7, 64, 92
1, 167232, Note_on_c, 7, 57, 92
1, 167274, Note_on_c, 7, 57, 0
1, 167274, Note_on_c, 7, 64, 0
1, 167328, Note_on_c, 7, 64, 64
1, 167328, Note_on_c, 7, 57, 64
1, 167362, Note_on_c, 7, 57, 0
1, 167366, Note_on_c, 7, 64, 0
1, 167369, Note_on_c, 2, 57, 0
1, 167369, Note_on_c, 2, 45, 0
1, 167376, Note_on_c, 2, 43, 61
1, 167376, Note_on_c, 2, 55, 61
1, 167376, Note_on_c, 2, 58, 61
1, 167376, Note_on_c, 2, 62, 61
1, 167392, Note_on_c, 2, 64, 0
1, 167397, Note_on_c, 2, 60, 0
1, 167399, Note_on_c, 4, 81, 0
1, 167424, Note_on_c, 4, 86, 107
1, 167424, Note_on_c, 5, 74, 93
1, 167424, Note_on_c, 5, 62, 93
1, 167424, Note_on_c, 7, 62, 71
1, 167424, Note_on_c, 7, 55, 71
1, 167425, Note_on_c, 7, 55, 0
1, 167425, Note_on_c, 7, 62, 0
1, 167520, Note_on_c, 7, 62, 80
1, 167520, Note_on_c, 7, 55, 80
1, 167521, Note_on_c, 7, 55, 0
1, 167521, Note_on_c, 7, 62, 0
1, 167582, Note_on_c, 5, 74, 0
1, 167585, Note_on_c, 5, 62, 0
1, 167585, Note_on_c, 4, 86, 0
1, 167616, Note_on_c, 4, 79, 107
1, 167616, Note_on_c, 7, 62, 92
1, 167616, Note_on_c, 7, 55, 92
1, 167658, Note_on_c, 7, 55, 0
1, 167658, Note_on_c, 7, 62, 0
1, 167712, Note_on_c, 7, 62, 64
1, 167712, Note_on_c, 7, 55, 64
1, 167746, Note_on_c, 7, 55, 0
1, 167750, Note_on_c, 7, 62, 0
1, 167799, Note_on_c, 4, 79, 0
1, 167808, Note_on_c, 4, 82, 107
1, 167808, Note_on_c, 5, 79, 93
1, 167808, Note_on_c, 5, 67, 93
1, 167808, Note_on_c, 7, 62, 71
1, 167808, Note_on_c, 7, 55, 71
1, 167809, Note_on_c, 7, 55, 0
1, 167809, Note_on_c, 7, 62, 0
1, 167822, Control_c, 2, 64, 127
1, 167822, Control_c, 2, 64, 127
1, 167822, Control_c, 2, 64, 127
1, 167822, Control_c, 2, 64, 127
1, 167822, Control_c, 2, 64, 127
1, 167822, Control_c, 2, 64, 127
1, 167822, Control_c, 2, 64, 127
1, 167822, Control_c, 2, 64, 127
1, 167822, Control_c, 2, 64, 127
1, 167822, Control_c, 2, 64, 127
1, 167822, Control_c, 2, 64, 127
1, 167822, Control_c, 2, 64, 127
1, 167822, Control_c, 2, 64, 127
1, 167822, Control_c, 2, 64, 127
1, 167822, Control_c, 2, 64, 127
1, 167904, Note_on_c, 7, 62, 80
1, 167904, Note_on_c, 7, 55, 80
1, 167905, Note_on_c, 7, 55, 0
1, 167905, Note_on_c, 7, 62, 0
1, 167954, Note_on_c, 4, 82, 0
1, 167966, Note_on_c, 5, 79, 0
1, 167969, Note_on_c, 5, 67, 0
1, 168000, Note_on_c, 4, 79, 107
1, 168000, Note_on_c, 7, 62, 92
1, 168000, Note_on_c, 7, 55, 92
1, 168042, Note_on_c, 7, 55, 0
1, 168042, Note_on_c, 7, 62, 0
1, 168072, Note_on_c, 2, 58, 0
1, 168088, Note_on_c, 2, 43, 0
1, 168096, Note_on_c, 7, 62, 64
1, 168096, Note_on_c, 7, 55, 64
1, 168118, Control_c, 2, 64, 0
1, 168118, Control_c, 2, 64, 0
1, 168120, Control_c, 2, 64, 0
1, 168121, Control_c, 2, 64, 0
1, 168122, Control_c, 2, 64, 0
1, 168122, Control_c, 2, 64, 0
1, 168122, Control_c, 2, 64, 0
1, 168122, Control_c, 2, 64, 0
1, 168122, Control_c, 2, 64, 0
1, 168122, Control_c, 2, 64, 0
1, 168122, Control_c, 2, 64, 0
1, 168122, Control_c, 2, 64, 0
1, 168122, Control_c, 2, 64, 0
1, 168122, Control_c, 2, 64, 0
1, 168122, Control_c, 2, 64, 0
1, 168130, Note_on_c, 7, 55, 0
1, 168134, Note_on_c, 7, 62, 0
1, 168144, Note_on_c, 2, 45, 61
1, 168144, Note_on_c, 2, 57, 61
1, 168144, Note_on_c, 2, 60, 61
1, 168144, Note_on_c, 2, 64, 61
1, 168150, Note_on_c, 2, 55, 0
1, 168150, Note_on_c, 2, 62, 0
1, 168167, Note_on_c, 4, 79, 0
1, 168192, Note_on_c, 4, 84, 107
1, 168192, Note_on_c, 5, 79, 77
1, 168192, Note_on_c, 5, 67, 77
1, 168192, Note_on_c, 7, 64, 71
1, 168192, Note_on_c, 7, 57, 71
1, 168193, Note_on_c, 7, 57, 0
1, 168193, Note_on_c, 7, 64, 0
1, 168288, Note_on_c, 7, 64, 80
1, 168288, Note_on_c, 7, 57, 80
1, 168289, Note_on_c, 7, 57, 0
1, 168289, Note_on_c, 7, 64, 0
1, 168344, Note_on_c, 4, 84, 0
1, 168350, Note_on_c, 5, 79, 0
1, 168353, Note_on_c, 5, 67, 0
1, 168384, Note_on_c, 4, 79, 107
1, 168384, Note_on_c, 7, 64, 92
1, 168384, Note_on_c, 7, 57, 92
1, 168426, Note_on_c, 7, 57, 0
1, 168426, Note_on_c, 7, 64, 0
1, 168480, Note_on_c, 7, 64, 64
1, 168480, Note_on_c, 7, 57, 64
1, 168505, Note_on_c, 2, 45, 0
1, 168514, Note_on_c, 7, 57, 0
1, 168518, Note_on_c, 7, 64, 0
1, 168528, Note_on_c, 2, 46, 61
1, 168528, Note_on_c, 2, 58, 61
1, 168528, Note_on_c, 2, 62, 61
1, 168528, Note_on_c, 2, 65, 61
1, 168530, Note_on_c, 2, 64, 0
1, 168530, Note_on_c, 2, 57, 0
1, 168530, Note_on_c, 2, 60, 0
1, 168576, Note_on_c, 4, 86, 107
1, 168576, Note_on_c, 5, 69, 87
1, 168576, Note_on_c, 5, 81, 87
1, 168576, Note_on_c, 7, 65, 71
1, 168576, Note_on_c, 7, 58, 71
1, 168577, Note_on_c, 7, 58, 0
1, 168577, Note_on_c, 7, 65, 0
1, 168593, Note_on_c, 4, 79, 0
1, 168672, Note_on_c, 7, 65, 80
1, 168672, Note_on_c, 7, 58, 80
1, 168673, Note_on_c, 7, 58, 0
1, 168673, Note_on_c, 7, 65, 0
1, 168734, Note_on_c, 5, 81, 0
1, 168734, Note_on_c, 4, 86, 0
1, 168737, Note_on_c, 5, 69, 0
1, 168768, Note_on_c, 4, 79, 107
1, 168768, Note_on_c, 7, 65, 92
1, 168768, Note_on_c, 7, 58, 92
1, 168810, Note_on_c, 7, 58, 0
1, 168810, Note_on_c, 7, 65, 0
1, 168864, Note_on_c, 7, 65, 64
1, 168864, Note_on_c, 7, 58, 64
1, 168876, Note_on_c, 4, 79, 0
1, 168898, Note_on_c, 7, 58, 0
1, 168902, Note_on_c, 7, 65, 0
1, 168912, Note_on_c, 2, 48, 61
1, 168912, Note_on_c, 2, 60, 61
1, 168912, Note_on_c, 2, 64, 61
1, 168912, Note_on_c, 2, 67, 61
1, 168918, Note_on_c, 2, 58, 0
1, 168918, Note_on_c, 2, 65, 0
1, 168918, Note_on_c, 2, 62, 0
1, 168935, Note_on_c, 2, 46, 0
1, 168960, Note_on_c, 4, 91, 107
1, 168960, Note_on_c, 5, 79, 95
1, 168960, Note_on_c, 5, 67, 95
1, 168960, Note_on_c, 7, 67, 71
1, 168960, Note_on_c, 7, 60, 71
1, 168961, Note_on_c, 7, 60, 0
1, 168961, Note_on_c, 7, 67, 0
1, 169056, Note_on_c, 7, 67, 80
1, 169056, Note_on_c, 7, 60, 80
1, 169057, Note_on_c, 7, 60, 0
1, 169057, Note_on_c, 7, 67, 0
1, 169118, Note_on_c, 5, 79, 0
1, 169121, Note_on_c, 5, 67, 0
1, 169152, Note_on_c, 4, 88, 107
1, 169152, Note_on_c, 7, 67, 92
1, 169152, Note_on_c, 7, 60, 92
1, 169159, Note_on_c, 4, 91, 0
1, 169194, Note_on_c, 7, 60, 0
1, 169194, Note_on_c, 7, 67, 0
1, 169248, Note_on_c, 7, 67, 64
1, 169248, Note_on_c, 7, 60, 64
1, 169282, Note_on_c, 7, 60, 0
1, 169286, Note_on_c, 7, 67, 0
1, 169344, Note_on_c, 4, 84, 107
1, 169344, Note_on_c, 5, 79, 83
1, 169344, Note_on_c, 5, 67, 83
1, 169344, Note_on_c, 7, 67, 71
1, 169344, Note_on_c, 7, 60, 71
1, 169345, Note_on_c, 7, 60, 0
1, 169345, Note_on_c, 7, 67, 0
1, 169357, Note_on_c, 4, 88, 0
1, 169440, Note_on_c, 7, 67, 80
1, 169440, Note_on_c, 7, 60, 80
1, 169441, Note_on_c, 7, 60, 0
1, 169441, Note_on_c, 7, 67, 0
1, 169502, Note_on_c, 5, 79, 0
1, 169505, Note_on_c, 5, 67, 0
1, 169536, Note_on_c, 4, 88, 107
1, 169536, Note_on_c, 7, 67, 92
1, 169536, Note_on_c, 7, 60, 92
1, 169578, Note_on_c, 7, 60, 0
1, 169578, Note_on_c, 7, 67, 0
1, 169584, Note_on_c, 4, 84, 0
1, 169632, Note_on_c, 7, 67, 64
1, 169632, Note_on_c, 7, 60, 64
1, 169666, Note_on_c, 7, 60, 0
1, 169670, Note_on_c, 7, 67, 0
1, 169704, Note_on_c, 4, 88, 0
1, 169728, Note_on_c, 4, 91, 107
1, 169728, Note_on_c, 5, 79, 70
1, 169728, Note_on_c, 5, 67, 70
1, 169728, Note_on_c, 7, 67, 71
1, 169728, Note_on_c, 7, 60, 71
1, 169729, Note_on_c, 7, 60, 0
1, 169729, Note_on_c, 7, 67, 0
1, 169824, Note_on_c, 7, 67, 80
1, 169824, Note_on_c, 7, 60, 80
1, 169825, Note_on_c, 7, 60, 0
1, 169825, Note_on_c, 7, 67, 0
1, 169886, Note_on_c, 5, 79, 0
1, 169889, Note_on_c, 5, 67, 0
1, 169920, Note_on_c, 4, 88, 107
1, 169920, Note_on_c, 7, 67, 92
1, 169920, Note_on_c, 7, 60, 92
1, 169951, Note_on_c, 4, 91, 0
1, 169962, Note_on_c, 7, 60, 0
1, 169962, Note_on_c, 7, 67, 0
1, 170016, Note_on_c, 7, 67, 64
1, 170016, Note_on_c, 7, 60, 64
1, 170050, Note_on_c, 7, 60, 0
1, 170054, Note_on_c, 7, 67, 0
1, 170081, Note_on_c, 4, 88, 0
1, 170112, Note_on_c, 4, 84, 107
1, 170112, Note_on_c, 5, 65, 98
1, 170112, Note_on_c, 5, 77, 98
1, 170112, Note_on_c, 7, 67, 71
1, 170112, Note_on_c, 7, 60, 71
1, 170113, Note_on_c, 7, 60, 0
1, 170113, Note_on_c, 7, 67, 0
1, 170208, Note_on_c, 7, 67, 80
1, 170208, Note_on_c, 7, 60, 80
1, 170209, Note_on_c, 7, 60, 0
1, 170209, Note_on_c, 7, 67, 0
1, 170270, Note_on_c, 5, 77, 0
1, 170273, Note_on_c, 5, 65, 0
1, 170304, Note_on_c, 4, 88, 107
1, 170304, Note_on_c, 7, 67, 92
1, 170304, Note_on_c, 7, 60, 92
1, 170329, Note_on_c, 2, 67, 0
1, 170346, Note_on_c, 7, 60, 0
1, 170346, Note_on_c, 7, 67, 0
1, 170351, Note_on_c, 4, 84, 0
1, 170400, Note_on_c, 7, 67, 64
1, 170400, Note_on_c, 7, 60, 64
1, 170434, Note_on_c, 7, 60, 0
1, 170438, Note_on_c, 7, 67, 0
1, 170448, Note_on_c, 2, 50, 61
1, 170448, Note_on_c, 2, 57, 61
1, 170448, Note_on_c, 2, 62, 61
1, 170448, Note_on_c, 2, 67, 61
1, 170454, Note_on_c, 2, 60, 0
1, 170454, Note_on_c, 2, 48, 0
1, 170454, Note_on_c, 2, 64, 0
1, 170494, Note_on_c, 4, 88, 0
1, 170496, Note_on_c, 4, 93, 107
1, 170496, Note_on_c, 5, 69, 93
1, 170496, Note_on_c, 5, 81, 93
1, 170496, Note_on_c, 7, 67, 71
1, 170496, Note_on_c, 7, 62, 71
1, 170497, Note_on_c, 7, 62, 0
1, 170497, Note_on_c, 7, 67, 0
1, 170592, Note_on_c, 7, 67, 80
1, 170592, Note_on_c, 7, 62, 80
1, 170593, Note_on_c, 7, 62, 0
1, 170593, Note_on_c, 7, 67, 0
1, 170654, Note_on_c, 5, 81, 0
1, 170657, Note_on_c, 5, 69, 0
1, 170688, Note_on_c, 4, 91, 107
1, 170688, Note_on_c, 7, 67, 92
1, 170688, Note_on_c, 7, 62, 92
1, 170688, Note_on_c, 9, 38, 107
1, 170688, Note_on_c, 9, 50, 127
1, 170706, Note_on_c, 9, 38, 0
1, 170706, Note_on_c, 9, 50, 0
1, 170730, Note_on_c, 7, 62, 0
1, 170730, Note_on_c, 7, 67, 0
1, 170744, Note_on_c, 4, 93, 0
1, 170784, Note_on_c, 7, 67, 64
1, 170784, Note_on_c, 7, 62, 64
1, 170818, Note_on_c, 7, 62, 0
1, 170822, Note_on_c, 7, 67, 0
1, 170880, Note_on_c, 4, 86, 107
1, 170880, Note_on_c, 5, 69, 78
1, 170880, Note_on_c, 5, 81, 78
1, 170880, Note_on_c, 7, 67, 71
1, 170880, Note_on_c, 7, 62, 71
1, 170880, Note_on_c, 9, 38, 107
1, 170880, Note_on_c, 9, 50, 127
1, 170881, Note_on_c, 7, 62, 0
1, 170881, Note_on_c, 7, 67, 0
1, 170883, Note_on_c, 4, 91, 0
1, 170898, Note_on_c, 9, 38, 0
1, 170898, Note_on_c, 9, 50, 0
1, 170976, Note_on_c, 7, 67, 80
1, 170976, Note_on_c, 7, 62, 80
1, 170977, Note_on_c, 7, 62, 0
1, 170977, Note_on_c, 7, 67, 0
1, 171038, Note_on_c, 5, 81, 0
1, 171041, Note_on_c, 5, 69, 0
1, 171072, Note_on_c, 4, 91, 107
1, 171072, Note_on_c, 7, 67, 92
1, 171072, Note_on_c, 7, 62, 92
1, 171072, Note_on_c, 9, 38, 93
1, 171072, Note_on_c, 9, 47, 113
1, 171090, Note_on_c, 9, 47, 0
1, 171090, Note_on_c, 9, 38, 0
1, 171107, Note_on_c, 4, 86, 0
1, 171114, Note_on_c, 7, 67, 0
1, 171114, Note_on_c, 7, 62, 0
1, 171168, Note_on_c, 7, 67, 64
1, 171168, Note_on_c, 7, 62, 64
1, 171168, Note_on_c, 9, 38, 92
1, 171168, Note_on_c, 9, 47, 112
1, 171186, Note_on_c, 9, 47, 0
1, 171186, Note_on_c, 9, 38, 0
1, 171202, Note_on_c, 7, 62, 0
1, 171206, Note_on_c, 7, 67, 0
1, 171216, Note_on_c, 2, 66, 61
1, 171239, Note_on_c, 2, 67, 0
1, 171253, Note_on_c, 4, 91, 0
1, 171264, Note_on_c, 4, 93, 107
1, 171264, Note_on_c, 5, 69, 64
1, 171264, Note_on_c, 5, 81, 64
1, 171264, Note_on_c, 7, 66, 71
1, 171264, Note_on_c, 7, 62, 71
1, 171264, Note_on_c, 9, 38, 107
1, 171264, Note_on_c, 9, 50, 127
1, 171265, Note_on_c, 7, 62, 0
1, 171265, Note_on_c, 7, 66, 0
1, 171282, Note_on_c, 9, 50, 0
1, 171282, Note_on_c, 9, 38, 0
1, 171360, Note_on_c, 7, 66, 80
1, 171360, Note_on_c, 7, 62, 80
1, 171361, Note_on_c, 7, 62, 0
1, 171361, Note_on_c, 7, 66, 0
1, 171422, Note_on_c, 5, 81, 0
1, 171425, Note_on_c, 5, 69, 0
1, 171456, Note_on_c, 4, 90, 107
1, 171456, Note_on_c, 7, 66, 92
1, 171456, Note_on_c, 7, 62, 92
1, 171498, Note_on_c, 7, 62, 0
1, 171498, Note_on_c, 7, 66, 0
1, 171537, Note_on_c, 4, 93, 0
1, 171552, Note_on_c, 7, 66, 64
1, 171552, Note_on_c, 7, 62, 64
1, 171586, Note_on_c, 7, 62, 0
1, 171590, Note_on_c, 7, 66, 0
1, 171637, Note_on_c, 4, 90, 0
1, 171648, Note_on_c, 4, 86, 107
1, 171648, Note_on_c, 5, 69, 50
1, 171648, Note_on_c, 5, 81, 50
1, 171648, Note_on_c, 7, 66, 71
1, 171648, Note_on_c, 7, 62, 71
1, 171648, Note_on_c, 9, 38, 107
1, 171648, Note_on_c, 9, 50, 127
1, 171649, Note_on_c, 7, 62, 0
1, 171649, Note_on_c, 7, 66, 0
1, 171666, Note_on_c, 9, 50, 0
1, 171666, Note_on_c, 9, 38, 0
1, 171744, Note_on_c, 7, 66, 80
1, 171744, Note_on_c, 7, 62, 80
1, 171745, Note_on_c, 7, 62, 0
1, 171745, Note_on_c, 7, 66, 0
1, 171806, Note_on_c, 5, 81, 0
1, 171809, Note_on_c, 5, 69, 0
1, 171840, Note_on_c, 4, 90, 107
1, 171840, Note_on_c, 7, 66, 92
1, 171840, Note_on_c, 7, 62, 92
1, 171840, Note_on_c, 9, 38, 107
1, 171840, Note_on_c, 9, 50, 127
1, 171858, Note_on_c, 9, 38, 0
1, 171858, Note_on_c, 9, 50, 0
1, 171882, Note_on_c, 7, 62, 0
1, 171882, Note_on_c, 7, 66, 0
1, 171887, Note_on_c, 4, 86, 0
1, 171936, Note_on_c, 7, 66, 64
1, 171936, Note_on_c, 7, 62, 64
1, 171965, Note_on_c, 4, 90, 0
1, 171970, Note_on_c, 7, 62, 0
1, 171974, Note_on_c, 7, 66, 0
1, 171978, Note_on_c, 2, 62, 0
1, 171984, Note_on_c, 2, 43, 61
1, 171984, Note_on_c, 2, 62, 61
1, 171984, Note_on_c, 2, 67, 61
1, 171984, Note_on_c, 2, 70, 61
1, 171986, Note_on_c, 2, 66, 0
1, 171987, Note_on_c, 2, 50, 0
1, 171996, Note_on_c, 2, 57, 0
1, 172011, Note_on_c, 2, 62, 0
1, 172032, Note_on_c, 4, 94, 107
1, 172032, Note_on_c, 5, 70, 93
1, 172032, Note_on_c, 5, 82, 93
1, 172032, Note_on_c, 7, 62, 71
1, 172032, Note_on_c, 7, 70, 71
1, 172032, Note_on_c, 9, 38, 107
1, 172032, Note_on_c, 9, 50, 127
1, 172033, Note_on_c, 7, 70, 0
1, 172033, Note_on_c, 7, 62, 0
1, 172050, Note_on_c, 9, 38, 0
1, 172050, Note_on_c, 9, 50, 0
1, 172128, Note_on_c, 7, 62, 80
1, 172128, Note_on_c, 7, 70, 80
1, 172128, Note_on_c, 9, 38, 100
1, 172128, Note_on_c, 9, 50, 120
1, 172129, Note_on_c, 7, 70, 0
1, 172129, Note_on_c, 7, 62, 0
1, 172146, Note_on_c, 9, 38, 0
1, 172146, Note_on_c, 9, 50, 0
1, 172190, Note_on_c, 5, 82, 0
1, 172193, Note_on_c, 5, 70, 0
1, 172224, Note_on_c, 4, 91, 107
1, 172224, Note_on_c, 7, 62, 92
1, 172224, Note_on_c, 7, 70, 92
1, 172257, Note_on_c, 4, 94, 0
1, 172266, Note_on_c, 7, 70, 0
1, 172266, Note_on_c, 7, 62, 0
1, 172320, Note_on_c, 7, 62, 64
1, 172320, Note_on_c, 7, 70, 64
1, 172320, Note_on_c, 9, 38, 102
1, 172320, Note_on_c, 9, 50, 122
1, 172338, Note_on_c, 9, 38, 0
1, 172338, Note_on_c, 9, 50, 0
1, 172341, Control_c, 2, 64, 127
1, 172341, Control_c, 2, 64, 127
1, 172343, Control_c, 2, 64, 127
1, 172344, Control_c, 2, 64, 127
1, 172345, Control_c, 2, 64, 127
1, 172347, Control_c, 2, 64, 127
1, 172348, Control_c, 2, 64, 127
1, 172349, Control_c, 2, 64, 127
1, 172351, Control_c, 2, 64, 127
1, 172352, Control_c, 2, 64, 127
1, 172353, Control_c, 2, 64, 127
1, 172353, Control_c, 2, 64, 127
1, 172354, Control_c, 2, 64, 127
1, 172355, Control_c, 2, 64, 127
1, 172356, Control_c, 2, 64, 127
1, 172358, Note_on_c, 7, 70, 0
1, 172358, Note_on_c, 7, 62, 0
1, 172387, Note_on_c, 4, 91, 0
1, 172410, Note_on_c, 9, 50, 0
1, 172416, Note_on_c, 4, 86, 107
1, 172416, Note_on_c, 5, 70, 78
1, 172416, Note_on_c, 5, 82, 78
1, 172416, Note_on_c, 7, 62, 71
1, 172416, Note_on_c, 7, 70, 71
1, 172416, Note_on_c, 9, 38, 102
1, 172416, Note_on_c, 9, 50, 122
1, 172416, Note_on_c, 9, 50, 122
1, 172417, Note_on_c, 7, 70, 0
1, 172417, Note_on_c, 7, 62, 0
1, 172434, Note_on_c, 9, 50, 0
1, 172434, Note_on_c, 9, 38, 0
1, 172512, Note_on_c, 7, 62, 80
1, 172512, Note_on_c, 7, 70, 80
1, 172513, Note_on_c, 7, 70, 0
1, 172513, Note_on_c, 7, 62, 0
1, 172574, Note_on_c, 5, 82, 0
1, 172577, Note_on_c, 5, 70, 0
1, 172608, Note_on_c, 4, 89, 107
1, 172608, Note_on_c, 7, 62, 92
1, 172608, Note_on_c, 7, 70, 92
1, 172650, Note_on_c, 7, 70, 0
1, 172650, Note_on_c, 7, 62, 0
1, 172704, Note_on_c, 7, 62, 64
1, 172704, Note_on_c, 7, 70, 64
1, 172704, Note_on_c, 9, 38, 107
1, 172704, Note_on_c, 9, 50, 127
1, 172706, Note_on_c, 4, 86, 0
1, 172722, Note_on_c, 9, 38, 0
1, 172722, Note_on_c, 9, 50, 0
1, 172742, Note_on_c, 7, 62, 0
1, 172742, Note_on_c, 7, 70, 0
1, 172746, Note_on_c, 2, 70, 0
1, 172746, Note_on_c, 2, 43, 0
1, 172746, Note_on_c, 2, 67, 0
1, 172752, Note_on_c, 2, 45, 61
1, 172752, Note_on_c, 2, 60, 61
1, 172752, Note_on_c, 2, 65, 61
1, 172752, Note_on_c, 2, 69, 61
1, 172763, Note_on_c, 4, 89, 0
1, 172800, Note_on_c, 4, 93, 107
1, 172800, Note_on_c, 5, 69, 93
1, 172800, Note_on_c, 5, 81, 93
1, 172800, Note_on_c, 7, 60, 71
1, 172800, Note_on_c, 7, 69, 71
1, 172800, Note_on_c, 9, 38, 100
1, 172800, Note_on_c, 9, 50, 120
1, 172801, Note_on_c, 7, 69, 0
1, 172801, Note_on_c, 7, 60, 0
1, 172814, Control_c, 2, 64, 0
1, 172814, Control_c, 2, 64, 0
1, 172814, Control_c, 2, 64, 0
1, 172814, Control_c, 2, 64, 0
1, 172814, Control_c, 2, 64, 0
1, 172814, Control_c, 2, 64, 0
1, 172814, Control_c, 2, 64, 0
1, 172814, Control_c, 2, 64, 0
1, 172814, Control_c, 2, 64, 0
1, 172814, Control_c, 2, 64, 0
1, 172814, Control_c, 2, 64, 0
1, 172814, Control_c, 2, 64, 0
1, 172814, Control_c, 2, 64, 0
1, 172814, Control_c, 2, 64, 0
1, 172814, Control_c, 2, 64, 0
1, 172818, Note_on_c, 9, 50, 0
1, 172818, Note_on_c, 9, 38, 0
1, 172896, Note_on_c, 7, 60, 80
1, 172896, Note_on_c, 7, 69, 80
1, 172896, Note_on_c, 9, 38, 107
1, 172896, Note_on_c, 9, 48, 127
1, 172897, Note_on_c, 7, 69, 0
1, 172897, Note_on_c, 7, 60, 0
1, 172914, Note_on_c, 9, 48, 0
1, 172914, Note_on_c, 9, 38, 0
1, 172958, Note_on_c, 5, 81, 0
1, 172961, Note_on_c, 5, 69, 0
1, 172992, Note_on_c, 4, 89, 107
1, 172992, Note_on_c, 7, 60, 92
1, 172992, Note_on_c, 7, 69, 92
1, 172992, Note_on_c, 9, 38, 100
1, 172992, Note_on_c, 9, 48, 120
1, 173010, Note_on_c, 9, 48, 0
1, 173010, Note_on_c, 9, 38, 0
1, 173025, Note_on_c, 4, 93, 0
1, 173034, Note_on_c, 7, 60, 0
1, 173034, Note_on_c, 7, 69, 0
1, 173088, Note_on_c, 7, 60, 64
1, 173088, Note_on_c, 7, 69, 64
1, 173088, Note_on_c, 9, 38, 107
1, 173088, Note_on_c, 9, 47, 127
1, 173106, Note_on_c, 9, 47, 0
1, 173106, Note_on_c, 9, 38, 0
1, 173126, Note_on_c, 7, 60, 0
1, 173126, Note_on_c, 7, 69, 0
1, 173168, Control_c, 2, 64, 127
1, 173168, Control_c, 2, 64, 127
1, 173168, Control_c, 2, 64, 127
1, 173168, Control_c, 2, 64, 127
1, 173168, Control_c, 2, 64, 127
1, 173168, Control_c, 2, 64, 127
1, 173168, Control_c, 2, 64, 127
1, 173168, Control_c, 2, 64, 127
1, 173168, Control_c, 2, 64, 127
1, 173168, Control_c, 2, 64, 127
1, 173168, Control_c, 2, 64, 127
1, 173168, Control_c, 2, 64, 127
1, 173168, Control_c, 2, 64, 127
1, 173168, Control_c, 2, 64, 127
1, 173168, Control_c, 2, 64, 127
1, 173182, Note_on_c, 4, 89, 0
1, 173184, Note_on_c, 4, 84, 107
1, 173184, Note_on_c, 5, 69, 78
1, 173184, Note_on_c, 5, 81, 78
1, 173184, Note_on_c, 7, 60, 71
1, 173184, Note_on_c, 7, 69, 71
1, 173184, Note_on_c, 9, 38, 100
1, 173184, Note_on_c, 9, 47, 120
1, 173185, Note_on_c, 7, 69, 0
1, 173185, Note_on_c, 7, 60, 0
1, 173202, Note_on_c, 9, 47, 0
1, 173202, Note_on_c, 9, 38, 0
1, 173280, Note_on_c, 7, 60, 80
1, 173280, Note_on_c, 7, 69, 80
1, 173280, Note_on_c, 9, 38, 107
1, 173280, Note_on_c, 9, 41, 127
1, 173281, Note_on_c, 7, 69, 0
1, 173281, Note_on_c, 7, 60, 0
1, 173298, Note_on_c, 9, 41, 0
1, 173298, Note_on_c, 9, 38, 0
1, 173342, Note_on_c, 5, 81, 0
1, 173345, Note_on_c, 5, 69, 0
1, 173374, Note_on_c, 4, 84, 0
1, 173376, Note_on_c, 4, 89, 107
1, 173376, Note_on_c, 7, 60, 92
1, 173376, Note_on_c, 7, 69, 92
1, 173376, Note_on_c, 9, 38, 100
1, 173376, Note_on_c, 9, 41, 120
1, 173394, Note_on_c, 9, 41, 0
1, 173394, Note_on_c, 9, 38, 0
1, 173418, Note_on_c, 7, 60, 0
1, 173418, Note_on_c, 7, 69, 0
1, 173472, Note_on_c, 7, 60, 64
1, 173472, Note_on_c, 7, 69, 64
1, 173472, Note_on_c, 9, 38, 107
1, 173472, Note_on_c, 9, 41, 127
1, 173490, Note_on_c, 9, 41, 0
1, 173490, Note_on_c, 9, 38, 0
1, 173510, Note_on_c, 7, 60, 0
1, 173510, Note_on_c, 7, 69, 0
1, 173526, Note_on_c, 2, 69, 0
1, 173526, Note_on_c, 2, 45, 0
1, 173526, Note_on_c, 2, 60, 0
1, 173526, Note_on_c, 2, 65, 0
1, 173528, Control_c, 2, 64, 0
1, 173528, Control_c, 2, 64, 0
1, 173528, Control_c, 2, 64, 0
1, 173528, Control_c, 2, 64, 0
1, 173528, Control_c, 2, 64, 0
1, 173528, Control_c, 2, 64, 0
1, 173528, Control_c, 2, 64, 0
1, 173528, Control_c, 2, 64, 0
1, 173528, Control_c, 2, 64, 0
1, 173528, Control_c, 2, 64, 0
1, 173528, Control_c, 2, 64, 0
1, 173528, Control_c, 2, 64, 0
1, 173528, Control_c, 2, 64, 0
1, 173528, Control_c, 2, 64, 0
1, 173528, Control_c, 2, 64, 0
1, 173551, Note_on_c, 4, 89, 0
1, 173568, Note_on_c, 1, 34, 112
1, 173568, Note_on_c, 2, 46, 61
1, 173568, Note_on_c, 2, 58, 61
1, 173568, Note_on_c, 2, 62, 61
1, 173568, Note_on_c, 2, 65, 61
1, 173568, Note_on_c, 4, 89, 107
1, 173568, Note_on_c, 5, 65, 98
1, 173568, Note_on_c, 5, 77, 98
1, 173568, Note_on_c, 7, 58, 71
1, 173568, Note_on_c, 7, 65, 71
1, 173568, Note_on_c, 9, 55, 70
1, 173568, Note_on_c, 9, 36, 120
1, 173568, Note_on_c, 9, 57, 82
1, 173568, Note_on_c, 11, 34, 112
1, 173570, Control_c, 11, 11, 110
1, 173586, Note_on_c, 9, 57, 0
1, 173586, Note_on_c, 9, 36, 0
1, 173586, Note_on_c, 9, 55, 0
1, 173602, Note_on_c, 7, 58, 0
1, 173606, Note_on_c, 7, 65, 0
1, 173654, Note_on_c, 11, 34, 0
1, 173654, Note_on_c, 1, 34, 0
1, 173664, Note_on_c, 7, 58, 86
1, 173664, Note_on_c, 7, 65, 86
1, 173698, Note_on_c, 7, 58, 0
1, 173702, Note_on_c, 7, 65, 0
1, 173726, Note_on_c, 5, 77, 0
1, 173729, Note_on_c, 5, 65, 0
1, 173760, Note_on_c, 1, 34, 78
1, 173760, Note_on_c, 4, 86, 107
1, 173760, Note_on_c, 6, 65, 120
1, 173760, Note_on_c, 7, 58, 92
1, 173760, Note_on_c, 7, 65, 92
1, 173760, Note_on_c, 11, 34, 78
1, 173792, Note_on_c, 4, 89, 0
1, 173802, Note_on_c, 7, 58, 0
1, 173802, Note_on_c, 7, 65, 0
1, 173845, Note_on_c, 1, 34, 0
1, 173845, Note_on_c, 11, 34, 0
1, 173856, Note_on_c, 7, 58, 53
1, 173856, Note_on_c, 7, 65, 53
1, 173890, Note_on_c, 7, 58, 0
1, 173894, Note_on_c, 7, 65, 0
1, 173896, Note_on_c, 6, 65, 0
1, 173950, Note_on_c, 4, 86, 0
1, 173952, Note_on_c, 1, 34, 106
1, 173952, Note_on_c, 4, 82, 107
1, 173952, Note_on_c, 5, 65, 85
1, 173952, Note_on_c, 5, 77, 85
1, 173952, Note_on_c, 7, 58, 71
1, 173952, Note_on_c, 7, 65, 71
1, 173952, Note_on_c, 11, 34, 106
1, 173986, Note_on_c, 7, 58, 0
1, 173990, Note_on_c, 7, 65, 0
1, 174034, Note_on_c, 1, 34, 0
1, 174034, Note_on_c, 11, 34, 0
1, 174048, Note_on_c, 7, 58, 83
1, 174048, Note_on_c, 7, 65, 83
1, 174082, Note_on_c, 7, 58, 0
1, 174086, Note_on_c, 7, 65, 0
1, 174110, Note_on_c, 5, 77, 0
1, 174113, Note_on_c, 5, 65, 0
1, 174144, Note_on_c, 1, 34, 75
1, 174144, Note_on_c, 4, 86, 107
1, 174144, Note_on_c, 6, 65, 102
1, 174144, Note_on_c, 7, 58, 92
1, 174144, Note_on_c, 7, 65, 92
1, 174144, Note_on_c, 11, 34, 75
1, 174175, Note_on_c, 4, 82, 0
1, 174186, Note_on_c, 7, 58, 0
1, 174186, Note_on_c, 7, 65, 0
1, 174222, Note_on_c, 1, 34, 0
1, 174222, Note_on_c, 11, 34, 0
1, 174240, Note_on_c, 7, 58, 64
1, 174240, Note_on_c, 7, 65, 64
1, 174274, Note_on_c, 7, 58, 0
1, 174278, Note_on_c, 7, 65, 0
1, 174299, Note_on_c, 6, 65, 0
1, 174311, Note_on_c, 4, 86, 0
1, 174336, Note_on_c, 1, 34, 96
1, 174336, Note_on_c, 4, 89, 107
1, 174336, Note_on_c, 5, 65, 72
1, 174336, Note_on_c, 5, 77, 72
1, 174336, Note_on_c, 7, 58, 71
1, 174336, Note_on_c, 7, 65, 71
1, 174336, Note_on_c, 11, 34, 96
1, 174337, Note_on_c, 7, 65, 0
1, 174337, Note_on_c, 7, 58, 0
1, 174407, Note_on_c, 1, 34, 0
1, 174407, Note_on_c, 11, 34, 0
1, 174432, Note_on_c, 7, 58, 80
1, 174432, Note_on_c, 7, 65, 80
1, 174433, Note_on_c, 7, 65, 0
1, 174433, Note_on_c, 7, 58, 0
1, 174494, Note_on_c, 5, 77, 0
1, 174497, Note_on_c, 5, 65, 0
1, 174528, Note_on_c, 1, 34, 75
1, 174528, Note_on_c, 4, 86, 107
1, 174528, Note_on_c, 6, 65, 90
1, 174528, Note_on_c, 7, 58, 92
1, 174528, Note_on_c, 7, 65, 92
1, 174528, Note_on_c, 11, 34, 75
1, 174552, Note_on_c, 4, 89, 0
1, 174570, Note_on_c, 7, 58, 0
1, 174570, Note_on_c, 7, 65, 0
1, 174606, Note_on_c, 1, 34, 0
1, 174606, Note_on_c, 11, 34, 0
1, 174624, Note_on_c, 7, 58, 64
1, 174624, Note_on_c, 7, 65, 64
1, 174658, Note_on_c, 7, 58, 0
1, 174662, Note_on_c, 7, 65, 0
1, 174673, Note_on_c, 6, 65, 0
1, 174690, Note_on_c, 4, 86, 0
1, 174720, Note_on_c, 1, 34, 104
1, 174720, Note_on_c, 4, 82, 107
1, 174720, Note_on_c, 5, 65, 58
1, 174720, Note_on_c, 5, 77, 58
1, 174720, Note_on_c, 7, 58, 71
1, 174720, Note_on_c, 7, 65, 71
1, 174720, Note_on_c, 11, 34, 104
1, 174721, Note_on_c, 7, 65, 0
1, 174721, Note_on_c, 7, 58, 0
1, 174802, Note_on_c, 1, 34, 0
1, 174802, Note_on_c, 11, 34, 0
1, 174816, Note_on_c, 7, 58, 80
1, 174816, Note_on_c, 7, 65, 80
1, 174817, Note_on_c, 7, 65, 0
1, 174817, Note_on_c, 7, 58, 0
1, 174878, Note_on_c, 5, 77, 0
1, 174881, Note_on_c, 5, 65, 0
1, 174912, Note_on_c, 1, 34, 69
1, 174912, Note_on_c, 4, 86, 107
1, 174912, Note_on_c, 6, 65, 78
1, 174912, Note_on_c, 7, 58, 92
1, 174912, Note_on_c, 7, 65, 92
1, 174912, Note_on_c, 11, 34, 69
1, 174933, Note_on_c, 4, 82, 0
1, 174954, Note_on_c, 7, 58, 0
1, 174954, Note_on_c, 7, 65, 0
1, 174992, Note_on_c, 1, 34, 0
1, 174992, Note_on_c, 11, 34, 0
1, 174999, Note_on_c, 6, 65, 0
1, 175008, Note_on_c, 7, 58, 64
1, 175008, Note_on_c, 7, 65, 64
1, 175042, Note_on_c, 7, 58, 0
1, 175046, Note_on_c, 7, 65, 0
1, 175065, Note_on_c, 4, 86, 0
1, 175098, Note_on_c, 2, 62, 0
1, 175098, Note_on_c, 2, 58, 0
1, 175098, Note_on_c, 2, 65, 0
1, 175098, Note_on_c, 2, 46, 0
1, 175104, Note_on_c, 1, 41, 112
1, 175104, Note_on_c, 2, 41, 61
1, 175104, Note_on_c, 2, 53, 61
1, 175104, Note_on_c, 2, 57, 61
1, 175104, Note_on_c, 2, 60, 61
1, 175104, Note_on_c, 4, 89, 107
1, 175104, Note_on_c, 5, 72, 98
1, 175104, Note_on_c, 5, 84, 98
1, 175104, Note_on_c, 7, 57, 71
1, 175104, Note_on_c, 7, 60, 71
1, 175104, Note_on_c, 11, 41, 112
1, 175138, Note_on_c, 7, 57, 0
1, 175142, Note_on_c, 7, 60, 0
1, 175190, Note_on_c, 1, 41, 0
1, 175190, Note_on_c, 11, 41, 0
1, 175200, Note_on_c, 7, 57, 86
1, 175200, Note_on_c, 7, 60, 86
1, 175234, Note_on_c, 7, 57, 0
1, 175238, Note_on_c, 7, 60, 0
1, 175262, Note_on_c, 5, 84, 0
1, 175265, Note_on_c, 5, 72, 0
1, 175296, Note_on_c, 1, 41, 72
1, 175296, Note_on_c, 4, 84, 107
1, 175296, Note_on_c, 6, 72, 120
1, 175296, Note_on_c, 7, 57, 92
1, 175296, Note_on_c, 7, 60, 92
1, 175296, Note_on_c, 11, 41, 72
1, 175338, Note_on_c, 7, 60, 0
1, 175338, Note_on_c, 7, 57, 0
1, 175353, Note_on_c, 4, 89, 0
1, 175381, Note_on_c, 1, 41, 0
1, 175381, Note_on_c, 11, 41, 0
1, 175392, Note_on_c, 7, 57, 53
1, 175392, Note_on_c, 7, 60, 53
1, 175426, Note_on_c, 7, 57, 0
1, 175430, Note_on_c, 7, 60, 0
1, 175432, Note_on_c, 6, 72, 0
1, 175452, Note_on_c, 4, 84, 0
1, 175488, Note_on_c, 1, 41, 106
1, 175488, Note_on_c, 4, 81, 107
1, 175488, Note_on_c, 5, 72, 85
1, 175488, Note_on_c, 5, 84, 85
1, 175488, Note_on_c, 7, 57, 71
1, 175488, Note_on_c, 7, 60, 71
1, 175488, Note_on_c, 11, 41, 106
1, 175522, Note_on_c, 7, 57, 0
1, 175526, Note_on_c, 7, 60, 0
1, 175570, Note_on_c, 1, 41, 0
1, 175570, Note_on_c, 11, 41, 0
1, 175584, Note_on_c, 7, 57, 83
1, 175584, Note_on_c, 7, 60, 83
1, 175618, Note_on_c, 7, 57, 0
1, 175622, Note_on_c, 7, 60, 0
1, 175646, Note_on_c, 5, 84, 0
1, 175649, Note_on_c, 5, 72, 0
1, 175676, Note_on_c, 4, 81, 0
1, 175680, Note_on_c, 1, 41, 72
1, 175680, Note_on_c, 4, 84, 107
1, 175680, Note_on_c, 6, 72, 102
1, 175680, Note_on_c, 7, 57, 92
1, 175680, Note_on_c, 7, 60, 92
1, 175680, Note_on_c, 11, 41, 72
1, 175722, Note_on_c, 7, 60, 0
1, 175722, Note_on_c, 7, 57, 0
1, 175758, Note_on_c, 1, 41, 0
1, 175758, Note_on_c, 11, 41, 0
1, 175776, Note_on_c, 7, 57, 64
1, 175776, Note_on_c, 7, 60, 64
1, 175810, Note_on_c, 7, 57, 0
1, 175814, Note_on_c, 7, 60, 0
1, 175835, Note_on_c, 6, 72, 0
1, 175853, Note_on_c, 4, 84, 0
1, 175872, Note_on_c, 1, 41, 96
1, 175872, Note_on_c, 4, 89, 107
1, 175872, Note_on_c, 5, 72, 72
1, 175872, Note_on_c, 5, 84, 72
1, 175872, Note_on_c, 7, 57, 71
1, 175872, Note_on_c, 7, 60, 71
1, 175872, Note_on_c, 11, 41, 96
1, 175873, Note_on_c, 7, 60, 0
1, 175873, Note_on_c, 7, 57, 0
1, 175943, Note_on_c, 1, 41, 0
1, 175943, Note_on_c, 11, 41, 0
1, 175968, Note_on_c, 7, 57, 80
1, 175968, Note_on_c, 7, 60, 80
1, 175969, Note_on_c, 7, 60, 0
1, 175969, Note_on_c, 7, 57, 0
1, 176030, Note_on_c, 5, 84, 0
1, 176033, Note_on_c, 5, 72, 0
1, 176064, Note_on_c, 1, 41, 72
1, 176064, Note_on_c, 4, 84, 107
1, 176064, Note_on_c, 6, 72, 90
1, 176064, Note_on_c, 7, 57, 92
1, 176064, Note_on_c, 7, 60, 92
1, 176064, Note_on_c, 9, 45, 107
1, 176064, Note_on_c, 9, 27, 127
1, 176064, Note_on_c, 9, 36, 127
1, 176064, Note_on_c, 9, 57, 117
1, 176064, Note_on_c, 11, 41, 72
1, 176082, Note_on_c, 9, 57, 0
1, 176082, Note_on_c, 9, 36, 0
1, 176082, Note_on_c, 9, 27, 0
1, 176082, Note_on_c, 9, 45, 0
1, 176106, Note_on_c, 7, 57, 0
1, 176106, Note_on_c, 7, 60, 0
1, 176111, Note_on_c, 4, 89, 0
1, 176142, Note_on_c, 11, 41, 0
1, 176142, Note_on_c, 1, 41, 0
1, 176160, Note_on_c, 7, 57, 64
1, 176160, Note_on_c, 7, 60, 64
1, 176194, Note_on_c, 7, 57, 0
1, 176198, Note_on_c, 7, 60, 0
1, 176209, Note_on_c, 6, 72, 0
1, 176218, Note_on_c, 4, 84, 0
1, 176256, Note_on_c, 1, 41, 104
1, 176256, Note_on_c, 4, 81, 107
1, 176256, Note_on_c, 5, 86, 93
1, 176256, Note_on_c, 5, 74, 93
1, 176256, Note_on_c, 7, 57, 71
1, 176256, Note_on_c, 7, 60, 71
1, 176256, Note_on_c, 9, 45, 107
1, 176256, Note_on_c, 9, 27, 127
1, 176256, Note_on_c, 9, 55, 97
1, 176256, Note_on_c, 9, 36, 127
1, 176256, Note_on_c, 11, 41, 104
1, 176257, Note_on_c, 7, 60, 0
1, 176257, Note_on_c, 7, 57, 0
1, 176274, Note_on_c, 9, 36, 0
1, 176274, Note_on_c, 9, 27, 0
1, 176274, Note_on_c, 9, 45, 0
1, 176274, Note_on_c, 9, 55, 0
1, 176338, Note_on_c, 11, 41, 0
1, 176338, Note_on_c, 1, 41, 0
1, 176352, Note_on_c, 7, 57, 80
1, 176352, Note_on_c, 7, 60, 80
1, 176353, Note_on_c, 7, 60, 0
1, 176353, Note_on_c, 7, 57, 0
1, 176414, Note_on_c, 5, 86, 0
1, 176417, Note_on_c, 5, 74, 0
1, 176448, Note_on_c, 1, 41, 72
1, 176448, Note_on_c, 4, 84, 107
1, 176448, Note_on_c, 6, 74, 120
1, 176448, Note_on_c, 7, 57, 92
1, 176448, Note_on_c, 7, 60, 92
1, 176448, Note_on_c, 9, 45, 100
1, 176448, Note_on_c, 9, 27, 127
1, 176448, Note_on_c, 9, 36, 127
1, 176448, Note_on_c, 9, 57, 102
1, 176448, Note_on_c, 11, 41, 72
1, 176466, Note_on_c, 9, 57, 0
1, 176466, Note_on_c, 9, 36, 0
1, 176466, Note_on_c, 9, 27, 0
1, 176466, Note_on_c, 9, 45, 0
1, 176467, Note_on_c, 4, 81, 0
1, 176490, Note_on_c, 7, 57, 0
1, 176490, Note_on_c, 7, 60, 0
1, 176528, Note_on_c, 11, 41, 0
1, 176528, Note_on_c, 1, 41, 0
1, 176544, Note_on_c, 7, 57, 64
1, 176544, Note_on_c, 7, 60, 64
1, 176578, Note_on_c, 7, 57, 0
1, 176582, Note_on_c, 7, 60, 0
1, 176584, Note_on_c, 6, 74, 0
1, 176608, Note_on_c, 4, 84, 0
1, 176634, Note_on_c, 2, 57, 0
1, 176634, Note_on_c, 2, 53, 0
1, 176634, Note_on_c, 2, 41, 0
1, 176634, Note_on_c, 2, 60, 0
1, 176640, Note_on_c, 1, 38, 112
1, 176640, Note_on_c, 2, 50, 61
1, 176640, Note_on_c, 2, 53, 61
1, 176640, Note_on_c, 2, 57, 61
1, 176640, Note_on_c, 4, 93, 107
1, 176640, Note_on_c, 5, 81, 93
1, 176640, Note_on_c, 5, 69, 93
1, 176640, Note_on_c, 7, 53, 71
1, 176640, Note_on_c, 7, 57, 71
1, 176640, Note_on_c, 9, 45, 107
1, 176640, Note_on_c, 9, 27, 127
1, 176640, Note_on_c, 9, 55, 100
1, 176640, Note_on_c, 9, 36, 127
1, 176640, Note_on_c, 11, 38, 112
1, 176641, Note_on_c, 7, 57, 0
1, 176641, Note_on_c, 7, 53, 0
1, 176648, Note_on_c, 2, 65, 61
1, 176658, Note_on_c, 9, 27, 0
1, 176658, Note_on_c, 9, 36, 0
1, 176658, Note_on_c, 9, 45, 0
1, 176658, Note_on_c, 9, 55, 0
1, 176726, Note_on_c, 11, 38, 0
1, 176726, Note_on_c, 1, 38, 0
1, 176736, Note_on_c, 7, 53, 80
1, 176736, Note_on_c, 7, 57, 80
1, 176737, Note_on_c, 7, 57, 0
1, 176737, Note_on_c, 7, 53, 0
1, 176798, Note_on_c, 5, 81, 0
1, 176801, Note_on_c, 5, 69, 0
1, 176832, Note_on_c, 1, 38, 72
1, 176832, Note_on_c, 4, 89, 107
1, 176832, Note_on_c, 6, 69, 102
1, 176832, Note_on_c, 7, 53, 92
1, 176832, Note_on_c, 7, 57, 92
1, 176832, Note_on_c, 11, 38, 72
1, 176870, Note_on_c, 4, 93, 0
1, 176874, Note_on_c, 7, 53, 0
1, 176874, Note_on_c, 7, 57, 0
1, 176917, Note_on_c, 1, 38, 0
1, 176917, Note_on_c, 11, 38, 0
1, 176928, Note_on_c, 7, 53, 64
1, 176928, Note_on_c, 7, 57, 64
1, 176962, Note_on_c, 7, 53, 0
1, 176966, Note_on_c, 7, 57, 0
1, 176987, Note_on_c, 6, 69, 0
1, 177006, Note_on_c, 4, 89, 0
1, 177024, Note_on_c, 1, 38, 106
1, 177024, Note_on_c, 4, 86, 107
1, 177024, Note_on_c, 5, 69, 85
1, 177024, Note_on_c, 5, 81, 85
1, 177024, Note_on_c, 7, 53, 71
1, 177024, Note_on_c, 7, 57, 71
1, 177024, Note_on_c, 11, 38, 106
1, 177025, Note_on_c, 7, 57, 0
1, 177025, Note_on_c, 7, 53, 0
1, 177106, Note_on_c, 1, 38, 0
1, 177106, Note_on_c, 11, 38, 0
1, 177120, Note_on_c, 7, 53, 80
1, 177120, Note_on_c, 7, 57, 80
1, 177121, Note_on_c, 7, 57, 0
1, 177121, Note_on_c, 7, 53, 0
1, 177182, Note_on_c, 5, 81, 0
1, 177185, Note_on_c, 5, 69, 0
1, 177216, Note_on_c, 1, 38, 72
1, 177216, Note_on_c, 4, 89, 107
1, 177216, Note_on_c, 6, 69, 102
1, 177216, Note_on_c, 7, 53, 92
1, 177216, Note_on_c, 7, 57, 92
1, 177216, Note_on_c, 11, 38, 72
1, 177230, Note_on_c, 4, 86, 0
1, 177258, Note_on_c, 7, 53, 0
1, 177258, Note_on_c, 7, 57, 0
1, 177294, Note_on_c, 1, 38, 0
1, 177294, Note_on_c, 11, 38, 0
1, 177312, Note_on_c, 7, 53, 64
1, 177312, Note_on_c, 7, 57, 64
1, 177346, Note_on_c, 7, 53, 0
1, 177350, Note_on_c, 7, 57, 0
1, 177371, Note_on_c, 6, 69, 0
1, 177406, Note_on_c, 4, 89, 0
1, 177408, Note_on_c, 1, 38, 96
1, 177408, Note_on_c, 4, 93, 107
1, 177408, Note_on_c, 5, 69, 72
1, 177408, Note_on_c, 5, 81, 72
1, 177408, Note_on_c, 7, 53, 71
1, 177408, Note_on_c, 7, 57, 71
1, 177408, Note_on_c, 11, 38, 96
1, 177409, Note_on_c, 7, 57, 0
1, 177409, Note_on_c, 7, 53, 0
1, 177479, Note_on_c, 1, 38, 0
1, 177479, Note_on_c, 11, 38, 0
1, 177504, Note_on_c, 7, 53, 80
1, 177504, Note_on_c, 7, 57, 80
1, 177505, Note_on_c, 7, 57, 0
1, 177505, Note_on_c, 7, 53, 0
1, 177566, Note_on_c, 5, 81, 0
1, 177569, Note_on_c, 5, 69, 0
1, 177600, Note_on_c, 1, 38, 72
1, 177600, Note_on_c, 4, 89, 107
1, 177600, Note_on_c, 6, 69, 90
1, 177600, Note_on_c, 7, 53, 92
1, 177600, Note_on_c, 7, 57, 92
1, 177600, Note_on_c, 11, 38, 72
1, 177628, Note_on_c, 4, 93, 0
1, 177642, Note_on_c, 7, 53, 0
1, 177642, Note_on_c, 7, 57, 0
1, 177678, Note_on_c, 1, 38, 0
1, 177678, Note_on_c, 11, 38, 0
1, 177696, Note_on_c, 7, 53, 64
1, 177696, Note_on_c, 7, 57, 64
1, 177730, Note_on_c, 7, 53, 0
1, 177734, Note_on_c, 7, 57, 0
1, 177743, Note_on_c, 4, 89, 0
1, 177745, Note_on_c, 6, 69, 0
1, 177792, Note_on_c, 1, 38, 104
1, 177792, Note_on_c, 4, 86, 107
1, 177792, Note_on_c, 5, 69, 58
1, 177792, Note_on_c, 5, 81, 58
1, 177792, Note_on_c, 7, 53, 71
1, 177792, Note_on_c, 7, 57, 71
1, 177792, Note_on_c, 11, 38, 104
1, 177793, Note_on_c, 7, 57, 0
1, 177793, Note_on_c, 7, 53, 0
1, 177874, Note_on_c, 1, 38, 0
1, 177874, Note_on_c, 11, 38, 0
1, 177888, Note_on_c, 7, 53, 80
1, 177888, Note_on_c, 7, 57, 80
1, 177889, Note_on_c, 7, 57, 0
1, 177889, Note_on_c, 7, 53, 0
1, 177950, Note_on_c, 5, 81, 0
1, 177953, Note_on_c, 5, 69, 0
1, 177984, Note_on_c, 1, 38, 72
1, 177984, Note_on_c, 4, 89, 107
1, 177984, Note_on_c, 6, 69, 90
1, 177984, Note_on_c, 7, 53, 92
1, 177984, Note_on_c, 7, 57, 92
1, 177984, Note_on_c, 11, 38, 72
1, 178026, Note_on_c, 7, 57, 0
1, 178026, Note_on_c, 7, 53, 0
1, 178027, Note_on_c, 4, 86, 0
1, 178064, Note_on_c, 1, 38, 0
1, 178064, Note_on_c, 11, 38, 0
1, 178080, Note_on_c, 7, 53, 64
1, 178080, Note_on_c, 7, 57, 64
1, 178114, Note_on_c, 7, 53, 0
1, 178118, Note_on_c, 7, 57, 0
1, 178129, Note_on_c, 6, 69, 0
1, 178147, Note_on_c, 4, 89, 0
1, 178170, Note_on_c, 2, 53, 0
1, 178170, Note_on_c, 2, 50, 0
1, 178176, Note_on_c, 1, 45, 112
1, 178176, Note_on_c, 2, 45, 61
1, 178176, Note_on_c, 2, 60, 61
1, 178176, Note_on_c, 2, 64, 61
1, 178176, Note_on_c, 4, 93, 107
1, 178176, Note_on_c, 5, 84, 93
1, 178176, Note_on_c, 5, 72, 93
1, 178176, Note_on_c, 7, 64, 71
1, 178176, Note_on_c, 7, 57, 71
1, 178176, Note_on_c, 9, 45, 107
1, 178176, Note_on_c, 9, 27, 127
1, 178176, Note_on_c, 9, 36, 127
1, 178176, Note_on_c, 9, 57, 117
1, 178176, Note_on_c, 11, 45, 112
1, 178177, Note_on_c, 7, 57, 0
1, 178177, Note_on_c, 7, 64, 0
1, 178178, Note_on_c, 2, 65, 0
1, 178194, Note_on_c, 9, 57, 0
1, 178194, Note_on_c, 9, 36, 0
1, 178194, Note_on_c, 9, 27, 0
1, 178194, Note_on_c, 9, 45, 0
1, 178262, Note_on_c, 1, 45, 0
1, 178262, Note_on_c, 11, 45, 0
1, 178272, Note_on_c, 7, 64, 80
1, 178272, Note_on_c, 7, 57, 80
1, 178273, Note_on_c, 7, 57, 0
1, 178273, Note_on_c, 7, 64, 0
1, 178334, Note_on_c, 5, 84, 0
1, 178337, Note_on_c, 5, 72, 0
1, 178368, Note_on_c, 1, 45, 72
1, 178368, Note_on_c, 4, 88, 107
1, 178368, Note_on_c, 6, 72, 102
1, 178368, Note_on_c, 7, 64, 92
1, 178368, Note_on_c, 7, 57, 92
1, 178368, Note_on_c, 11, 45, 72
1, 178410, Note_on_c, 7, 57, 0
1, 178410, Note_on_c, 7, 64, 0
1, 178453, Note_on_c, 1, 45, 0
1, 178453, Note_on_c, 11, 45, 0
1, 178464, Note_on_c, 7, 64, 64
1, 178464, Note_on_c, 7, 57, 64
1, 178476, Note_on_c, 4, 93, 0
1, 178498, Note_on_c, 7, 57, 0
1, 178502, Note_on_c, 7, 64, 0
1, 178518, Note_on_c, 4, 88, 0
1, 178523, Note_on_c, 6, 72, 0
1, 178560, Note_on_c, 1, 45, 106
1, 178560, Note_on_c, 4, 84, 107
1, 178560, Note_on_c, 5, 81, 93
1, 178560, Note_on_c, 5, 69, 93
1, 178560, Note_on_c, 7, 64, 71
1, 178560, Note_on_c, 7, 57, 71
1, 178560, Note_on_c, 9, 45, 107
1, 178560, Note_on_c, 9, 27, 127
1, 178560, Note_on_c, 9, 55, 97
1, 178560, Note_on_c, 9, 36, 127
1, 178560, Note_on_c, 11, 45, 106
1, 178561, Note_on_c, 7, 57, 0
1, 178561, Note_on_c, 7, 64, 0
1, 178578, Note_on_c, 9, 36, 0
1, 178578, Note_on_c, 9, 27, 0
1, 178578, Note_on_c, 9, 45, 0
1, 178578, Note_on_c, 9, 55, 0
1, 178642, Note_on_c, 11, 45, 0
1, 178642, Note_on_c, 1, 45, 0
1, 178656, Note_on_c, 7, 64, 80
1, 178656, Note_on_c, 7, 57, 80
1, 178657, Note_on_c, 7, 57, 0
1, 178657, Note_on_c, 7, 64, 0
1, 178718, Note_on_c, 5, 81, 0
1, 178721, Note_on_c, 5, 69, 0
1, 178752, Note_on_c, 1, 45, 72
1, 178752, Note_on_c, 4, 88, 107
1, 178752, Note_on_c, 6, 69, 102
1, 178752, Note_on_c, 7, 64, 92
1, 178752, Note_on_c, 7, 57, 92
1, 178752, Note_on_c, 11, 45, 72
1, 178794, Note_on_c, 7, 57, 0
1, 178794, Note_on_c, 7, 64, 0
1, 178811, Note_on_c, 4, 84, 0
1, 178830, Note_on_c, 1, 45, 0
1, 178830, Note_on_c, 11, 45, 0
1, 178848, Note_on_c, 7, 64, 64
1, 178848, Note_on_c, 7, 57, 64
1, 178882, Note_on_c, 7, 57, 0
1, 178886, Note_on_c, 7, 64, 0
1, 178895, Note_on_c, 4, 88, 0
1, 178907, Note_on_c, 6, 69, 0
1, 178944, Note_on_c, 1, 45, 96
1, 178944, Note_on_c, 4, 93, 107
1, 178944, Note_on_c, 5, 79, 93
1, 178944, Note_on_c, 5, 67, 93
1, 178944, Note_on_c, 7, 64, 71
1, 178944, Note_on_c, 7, 57, 71
1, 178944, Note_on_c, 9, 45, 107
1, 178944, Note_on_c, 9, 27, 127
1, 178944, Note_on_c, 9, 36, 127
1, 178944, Note_on_c, 9, 57, 102
1, 178944, Note_on_c, 11, 45, 96
1, 178945, Note_on_c, 7, 57, 0
1, 178945, Note_on_c, 7, 64, 0
1, 178962, Note_on_c, 9, 57, 0
1, 178962, Note_on_c, 9, 27, 0
1, 178962, Note_on_c, 9, 45, 0
1, 178962, Note_on_c, 9, 36, 0
1, 179015, Note_on_c, 11, 45, 0
1, 179015, Note_on_c, 1, 45, 0
1, 179040, Note_on_c, 7, 64, 80
1, 179040, Note_on_c, 7, 57, 80
1, 179041, Note_on_c, 7, 57, 0
1, 179041, Note_on_c, 7, 64, 0
1, 179102, Note_on_c, 5, 79, 0
1, 179105, Note_on_c, 5, 67, 0
1, 179136, Note_on_c, 1, 45, 72
1, 179136, Note_on_c, 4, 88, 107
1, 179136, Note_on_c, 6, 67, 102
1, 179136, Note_on_c, 7, 64, 92
1, 179136, Note_on_c, 7, 57, 92
1, 179136, Note_on_c, 11, 45, 72
1, 179159, Note_on_c, 4, 93, 0
1, 179178, Note_on_c, 7, 64, 0
1, 179178, Note_on_c, 7, 57, 0
1, 179214, Note_on_c, 1, 45, 0
1, 179214, Note_on_c, 11, 45, 0
1, 179232, Note_on_c, 7, 64, 64
1, 179232, Note_on_c, 7, 57, 64
1, 179266, Note_on_c, 7, 57, 0
1, 179270, Note_on_c, 7, 64, 0
1, 179278, Note_on_c, 4, 88, 0
1, 179291, Note_on_c, 6, 67, 0
1, 179328, Note_on_c, 1, 45, 104
1, 179328, Note_on_c, 4, 84, 107
1, 179328, Note_on_c, 5, 77, 93
1, 179328, Note_on_c, 5, 65, 93
1, 179328, Note_on_c, 7, 64, 71
1, 179328, Note_on_c, 7, 57, 71
1, 179328, Note_on_c, 9, 45, 107
1, 179328, Note_on_c, 9, 27, 127
1, 179328, Note_on_c, 9, 55, 100
1, 179328, Note_on_c, 9, 36, 127
1, 179328, Note_on_c, 11, 45, 104
1, 179329, Note_on_c, 7, 57, 0
1, 179329, Note_on_c, 7, 64, 0
1, 179346, Note_on_c, 9, 36, 0
1, 179346, Note_on_c, 9, 27, 0
1, 179346, Note_on_c, 9, 45, 0
1, 179346, Note_on_c, 9, 55, 0
1, 179410, Note_on_c, 11, 45, 0
1, 179410, Note_on_c, 1, 45, 0
1, 179424, Note_on_c, 7, 64, 80
1, 179424, Note_on_c, 7, 57, 80
1, 179425, Note_on_c, 7, 57, 0
1, 179425, Note_on_c, 7, 64, 0
1, 179486, Note_on_c, 5, 77, 0
1, 179489, Note_on_c, 5, 65, 0
1, 179520, Note_on_c, 1, 45, 72
1, 179520, Note_on_c, 4, 88, 107
1, 179520, Note_on_c, 6, 65, 102
1, 179520, Note_on_c, 7, 64, 92
1, 179520, Note_on_c, 7, 57, 92
1, 179520, Note_on_c, 11, 45, 72
1, 179537, Note_on_c, 4, 84, 0
1, 179562, Note_on_c, 7, 64, 0
1, 179562, Note_on_c, 7, 57, 0
1, 179600, Note_on_c, 1, 45, 0
1, 179600, Note_on_c, 11, 45, 0
1, 179616, Note_on_c, 7, 64, 64
1, 179616, Note_on_c, 7, 57, 64
1, 179641, Note_on_c, 4, 88, 0
1, 179650, Note_on_c, 7, 57, 0
1, 179654, Note_on_c, 7, 64, 0
1, 179675, Note_on_c, 6, 65, 0
1, 179706, Note_on_c, 2, 64, 0
1, 179706, Note_on_c, 2, 60, 0
1, 179706, Note_on_c, 2, 45, 0
1, 179712, Note_on_c, 1, 46, 112
1, 179712, Note_on_c, 2, 53, 61
1, 179712, Note_on_c, 2, 58, 61
1, 179712, Note_on_c, 4, 89, 107
1, 179712, Note_on_c, 5, 74, 93
1, 179712, Note_on_c, 5, 62, 93
1, 179712, Note_on_c, 7, 58, 71
1, 179712, Note_on_c, 7, 62, 71
1, 179712, Note_on_c, 9, 45, 107
1, 179712, Note_on_c, 9, 27, 127
1, 179712, Note_on_c, 9, 36, 127
1, 179712, Note_on_c, 9, 57, 102
1, 179712, Note_on_c, 11, 46, 112
1, 179713, Note_on_c, 7, 62, 0
1, 179713, Note_on_c, 7, 58, 0
1, 179714, Note_on_c, 2, 57, 0
1, 179720, Note_on_c, 2, 46, 61
1, 179720, Note_on_c, 2, 62, 61
1, 179730, Note_on_c, 9, 27, 0
1, 179730, Note_on_c, 9, 57, 0
1, 179730, Note_on_c, 9, 45, 0
1, 179730, Note_on_c, 9, 36, 0
1, 179798, Note_on_c, 11, 46, 0
1, 179798, Note_on_c, 1, 46, 0
1, 179808, Note_on_c, 7, 58, 80
1, 179808, Note_on_c, 7, 62, 80
1, 179809, Note_on_c, 7, 62, 0
1, 179809, Note_on_c, 7, 58, 0
1, 179870, Note_on_c, 5, 74, 0
1, 179873, Note_on_c, 5, 62, 0
1, 179904, Note_on_c, 1, 46, 72
1, 179904, Note_on_c, 4, 86, 107
1, 179904, Note_on_c, 6, 62, 102
1, 179904, Note_on_c, 7, 58, 92
1, 179904, Note_on_c, 7, 62, 92
1, 179904, Note_on_c, 11, 46, 72
1, 179946, Note_on_c, 7, 62, 0
1, 179946, Note_on_c, 7, 58, 0
1, 179961, Note_on_c, 4, 89, 0
1, 179989, Note_on_c, 1, 46, 0
1, 179989, Note_on_c, 11, 46, 0
1, 180000, Note_on_c, 7, 58, 64
1, 180000, Note_on_c, 7, 62, 64
1, 180034, Note_on_c, 7, 58, 0
1, 180038, Note_on_c, 7, 62, 0
1, 180059, Note_on_c, 6, 62, 0
1, 180081, Note_on_c, 4, 86, 0
1, 180096, Note_on_c, 1, 46, 106
1, 180096, Note_on_c, 4, 82, 107
1, 180096, Note_on_c, 5, 65, 93
1, 180096, Note_on_c, 5, 77, 93
1, 180096, Note_on_c, 7, 58, 71
1, 180096, Note_on_c, 7, 62, 71
1, 180096, Note_on_c, 9, 45, 107
1, 180096, Note_on_c, 9, 27, 127
1, 180096, Note_on_c, 9, 36, 127
1, 180096, Note_on_c, 9, 57, 102
1, 180096, Note_on_c, 11, 46, 106
1, 180097, Note_on_c, 7, 62, 0
1, 180097, Note_on_c, 7, 58, 0
1, 180114, Note_on_c, 9, 57, 0
1, 180114, Note_on_c, 9, 27, 0
1, 180114, Note_on_c, 9, 45, 0
1, 180114, Note_on_c, 9, 36, 0
1, 180178, Note_on_c, 11, 46, 0
1, 180178, Note_on_c, 1, 46, 0
1, 180192, Note_on_c, 7, 58, 80
1, 180192, Note_on_c, 7, 62, 80
1, 180193, Note_on_c, 7, 62, 0
1, 180193, Note_on_c, 7, 58, 0
1, 180254, Note_on_c, 5, 77, 0
1, 180257, Note_on_c, 5, 65, 0
1, 180288, Note_on_c, 1, 46, 72
1, 180288, Note_on_c, 4, 86, 107
1, 180288, Note_on_c, 6, 65, 102
1, 180288, Note_on_c, 7, 58, 92
1, 180288, Note_on_c, 7, 62, 92
1, 180288, Note_on_c, 11, 46, 72
1, 180325, Note_on_c, 4, 82, 0
1, 180330, Note_on_c, 7, 58, 0
1, 180330, Note_on_c, 7, 62, 0
1, 180366, Note_on_c, 1, 46, 0
1, 180366, Note_on_c, 11, 46, 0
1, 180384, Note_on_c, 7, 58, 64
1, 180384, Note_on_c, 7, 62, 64
1, 180418, Note_on_c, 7, 58, 0
1, 180422, Note_on_c, 7, 62, 0
1, 180443, Note_on_c, 6, 65, 0
1, 180454, Note_on_c, 4, 86, 0
1, 180480, Note_on_c, 1, 46, 96
1, 180480, Note_on_c, 4, 89, 107
1, 180480, Note_on_c, 5, 65, 77
1, 180480, Note_on_c, 5, 77, 77
1, 180480, Note_on_c, 7, 62, 71
1, 180480, Note_on_c, 7, 58, 71
1, 180480, Note_on_c, 11, 46, 96
1, 180481, Note_on_c, 7, 58, 0
1, 180481, Note_on_c, 7, 62, 0
1, 180551, Note_on_c, 1, 46, 0
1, 180551, Note_on_c, 11, 46, 0
1, 180576, Note_on_c, 7, 62, 80
1, 180576, Note_on_c, 7, 58, 80
1, 180577, Note_on_c, 7, 58, 0
1, 180577, Note_on_c, 7, 62, 0
1, 180638, Note_on_c, 5, 77, 0
1, 180641, Note_on_c, 5, 65, 0
1, 180672, Note_on_c, 1, 46, 72
1, 180672, Note_on_c, 4, 86, 107
1, 180672, Note_on_c, 6, 65, 87
1, 180672, Note_on_c, 7, 62, 92
1, 180672, Note_on_c, 7, 58, 92
1, 180672, Note_on_c, 11, 46, 72
1, 180714, Note_on_c, 7, 58, 0
1, 180714, Note_on_c, 7, 62, 0
1, 180722, Note_on_c, 4, 89, 0
1, 180750, Note_on_c, 1, 46, 0
1, 180750, Note_on_c, 11, 46, 0
1, 180768, Note_on_c, 7, 62, 64
1, 180768, Note_on_c, 7, 58, 64
1, 180802, Note_on_c, 7, 58, 0
1, 180806, Note_on_c, 7, 62, 0
1, 180827, Note_on_c, 6, 65, 0
1, 180864, Note_on_c, 1, 46, 104
1, 180864, Note_on_c, 4, 82, 107
1, 180864, Note_on_c, 5, 67, 87
1, 180864, Note_on_c, 5, 79, 87
1, 180864, Note_on_c, 7, 62, 71
1, 180864, Note_on_c, 7, 58, 71
1, 180864, Note_on_c, 11, 46, 104
1, 180865, Note_on_c, 7, 58, 0
1, 180865, Note_on_c, 7, 62, 0
1, 180899, Note_on_c, 4, 86, 0
1, 180946, Note_on_c, 1, 46, 0
1, 180946, Note_on_c, 11, 46, 0
1, 180960, Note_on_c, 7, 62, 80
1, 180960, Note_on_c, 7, 58, 80
1, 180961, Note_on_c, 7, 58, 0
1, 180961, Note_on_c, 7, 62, 0
1, 181022, Note_on_c, 5, 79, 0
1, 181025, Note_on_c, 5, 67, 0
1, 181056, Note_on_c, 1, 46, 72
1, 181056, Note_on_c, 4, 86, 107
1, 181056, Note_on_c, 6, 67, 102
1, 181056, Note_on_c, 7, 62, 92
1, 181056, Note_on_c, 7, 58, 92
1, 181056, Note_on_c, 11, 46, 72
1, 181078, Note_on_c, 4, 82, 0
1, 181098, Note_on_c, 7, 62, 0
1, 181098, Note_on_c, 7, 58, 0
1, 181136, Note_on_c, 1, 46, 0
1, 181136, Note_on_c, 11, 46, 0
1, 181152, Note_on_c, 7, 62, 64
1, 181152, Note_on_c, 7, 58, 64
1, 181154, Note_on_c, 2, 58, 0
1, 181154, Note_on_c, 2, 53, 0
1, 181186, Note_on_c, 7, 58, 0
1, 181190, Note_on_c, 7, 62, 0
1, 181211, Note_on_c, 6, 67, 0
1, 181227, Note_on_c, 4, 86, 0
1, 181248, Note_on_c, 1, 43, 112
1, 181248, Note_on_c, 4, 91, 107
1, 181248, Note_on_c, 5, 69, 95
1, 181248, Note_on_c, 5, 81, 95
1, 181248, Note_on_c, 7, 67, 71
1, 181248, Note_on_c, 7, 60, 71
1, 181248, Note_on_c, 11, 43, 112
1, 181249, Note_on_c, 7, 60, 0
1, 181249, Note_on_c, 7, 67, 0
1, 181250, Note_on_c, 2, 46, 0
1, 181250, Note_on_c, 2, 62, 0
1, 181256, Note_on_c, 2, 43, 61
1, 181256, Note_on_c, 2, 55, 61
1, 181256, Note_on_c, 2, 58, 61
1, 181264, Note_on_c, 2, 62, 61
1, 181334, Note_on_c, 1, 43, 0
1, 181334, Note_on_c, 11, 43, 0
1, 181344, Note_on_c, 7, 67, 80
1, 181344, Note_on_c, 7, 60, 80
1, 181345, Note_on_c, 7, 60, 0
1, 181345, Note_on_c, 7, 67, 0
1, 181406, Note_on_c, 5, 81, 0
1, 181409, Note_on_c, 5, 69, 0
1, 181440, Note_on_c, 1, 43, 72
1, 181440, Note_on_c, 4, 86, 107
1, 181440, Note_on_c, 6, 69, 102
1, 181440, Note_on_c, 7, 67, 92
1, 181440, Note_on_c, 7, 60, 92
1, 181440, Note_on_c, 11, 43, 72
1, 181482, Note_on_c, 7, 60, 0
1, 181482, Note_on_c, 7, 67, 0
1, 181488, Note_on_c, 4, 91, 0
1, 181525, Note_on_c, 1, 43, 0
1, 181525, Note_on_c, 11, 43, 0
1, 181536, Note_on_c, 7, 67, 64
1, 181536, Note_on_c, 7, 60, 64
1, 181570, Note_on_c, 7, 60, 0
1, 181574, Note_on_c, 7, 67, 0
1, 181595, Note_on_c, 6, 69, 0
1, 181599, Note_on_c, 4, 86, 0
1, 181632, Note_on_c, 1, 43, 106
1, 181632, Note_on_c, 4, 82, 107
1, 181632, Note_on_c, 5, 69, 83
1, 181632, Note_on_c, 5, 81, 83
1, 181632, Note_on_c, 7, 67, 71
1, 181632, Note_on_c, 7, 60, 71
1, 181632, Note_on_c, 11, 43, 106
1, 181633, Note_on_c, 7, 60, 0
1, 181633, Note_on_c, 7, 67, 0
1, 181714, Note_on_c, 1, 43, 0
1, 181714, Note_on_c, 11, 43, 0
1, 181728, Note_on_c, 7, 67, 80
1, 181728, Note_on_c, 7, 60, 80
1, 181729, Note_on_c, 7, 60, 0
1, 181729, Note_on_c, 7, 67, 0
1, 181790, Note_on_c, 5, 81, 0
1, 181793, Note_on_c, 5, 69, 0
1, 181824, Note_on_c, 1, 43, 72
1, 181824, Note_on_c, 4, 86, 107
1, 181824, Note_on_c, 6, 69, 81
1, 181824, Note_on_c, 7, 67, 92
1, 181824, Note_on_c, 7, 60, 92
1, 181824, Note_on_c, 11, 43, 72
1, 181856, Note_on_c, 4, 82, 0
1, 181866, Note_on_c, 7, 67, 0
1, 181866, Note_on_c, 7, 60, 0
1, 181902, Note_on_c, 1, 43, 0
1, 181902, Note_on_c, 11, 43, 0
1, 181920, Note_on_c, 7, 67, 64
1, 181920, Note_on_c, 7, 60, 64
1, 181954, Note_on_c, 7, 60, 0
1, 181958, Note_on_c, 7, 67, 0
1, 181979, Note_on_c, 6, 69, 0
1, 181980, Note_on_c, 4, 86, 0
1, 182016, Note_on_c, 1, 36, 96
1, 182016, Note_on_c, 4, 91, 107
1, 182016, Note_on_c, 5, 79, 93
1, 182016, Note_on_c, 5, 67, 93
1, 182016, Note_on_c, 7, 67, 71
1, 182016, Note_on_c, 7, 60, 71
1, 182016, Note_on_c, 11, 36, 96
1, 182017, Note_on_c, 7, 60, 0
1, 182017, Note_on_c, 7, 67, 0
1, 182018, Note_on_c, 2, 58, 0
1, 182018, Note_on_c, 2, 55, 0
1, 182018, Note_on_c, 2, 43, 0
1, 182024, Note_on_c, 2, 48, 61
1, 182024, Note_on_c, 2, 55, 61
1, 182024, Note_on_c, 2, 60, 61
1, 182024, Note_on_c, 2, 64, 61
1, 182026, Note_on_c, 2, 62, 0
1, 182087, Note_on_c, 11, 36, 0
1, 182087, Note_on_c, 1, 36, 0
1, 182112, Note_on_c, 7, 67, 80
1, 182112, Note_on_c, 7, 60, 80
1, 182113, Note_on_c, 7, 60, 0
1, 182113, Note_on_c, 7, 67, 0
1, 182174, Note_on_c, 5, 79, 0
1, 182177, Note_on_c, 5, 67, 0
1, 182208, Note_on_c, 1, 36, 72
1, 182208, Note_on_c, 4, 88, 107
1, 182208, Note_on_c, 6, 67, 102
1, 182208, Note_on_c, 7, 67, 92
1, 182208, Note_on_c, 7, 60, 92
1, 182208, Note_on_c, 9, 27, 127
1, 182208, Note_on_c, 9, 36, 127
1, 182208, Note_on_c, 9, 45, 107
1, 182208, Note_on_c, 9, 57, 117
1, 182208, Note_on_c, 11, 36, 72
1, 182226, Note_on_c, 9, 57, 0
1, 182226, Note_on_c, 9, 45, 0
1, 182226, Note_on_c, 9, 36, 0
1, 182226, Note_on_c, 9, 27, 0
1, 182250, Note_on_c, 7, 67, 0
1, 182250, Note_on_c, 7, 60, 0
1, 182268, Note_on_c, 4, 91, 0
1, 182286, Note_on_c, 11, 36, 0
1, 182286, Note_on_c, 1, 36, 0
1, 182304, Note_on_c, 7, 67, 64
1, 182304, Note_on_c, 7, 60, 64
1, 182338, Note_on_c, 7, 60, 0
1, 182342, Note_on_c, 7, 67, 0
1, 182363, Note_on_c, 6, 67, 0
1, 182384, Note_on_c, 4, 88, 0
1, 182400, Note_on_c, 1, 36, 104
1, 182400, Note_on_c, 4, 84, 107
1, 182400, Note_on_c, 5, 79, 78
1, 182400, Note_on_c, 5, 67, 78
1, 182400, Note_on_c, 7, 67, 71
1, 182400, Note_on_c, 7, 60, 71
1, 182400, Note_on_c, 9, 27, 127
1, 182400, Note_on_c, 9, 45, 107
1, 182400, Note_on_c, 9, 36, 127
1, 182400, Note_on_c, 9, 55, 97
1, 182400, Note_on_c, 11, 36, 104
1, 182401, Note_on_c, 7, 60, 0
1, 182401, Note_on_c, 7, 67, 0
1, 182418, Note_on_c, 9, 55, 0
1, 182418, Note_on_c, 9, 45, 0
1, 182418, Note_on_c, 9, 27, 0
1, 182418, Note_on_c, 9, 36, 0
1, 182482, Note_on_c, 11, 36, 0
1, 182482, Note_on_c, 1, 36, 0
1, 182496, Note_on_c, 7, 67, 80
1, 182496, Note_on_c, 7, 60, 80
1, 182497, Note_on_c, 7, 60, 0
1, 182497, Note_on_c, 7, 67, 0
1, 182558, Note_on_c, 5, 79, 0
1, 182561, Note_on_c, 5, 67, 0
1, 182592, Note_on_c, 1, 36, 72
1, 182592, Note_on_c, 4, 88, 107
1, 182592, Note_on_c, 6, 67, 81
1, 182592, Note_on_c, 7, 67, 92
1, 182592, Note_on_c, 7, 60, 92
1, 182592, Note_on_c, 9, 27, 127
1, 182592, Note_on_c, 9, 45, 100
1, 182592, Note_on_c, 9, 36, 127
1, 182592, Note_on_c, 9, 57, 102
1, 182592, Note_on_c, 11, 36, 72
1, 182610, Note_on_c, 9, 57, 0
1, 182610, Note_on_c, 9, 36, 0
1, 182610, Note_on_c, 9, 45, 0
1, 182610, Note_on_c, 9, 27, 0
1, 182619, Note_on_c, 4, 84, 0
1, 182634, Note_on_c, 7, 67, 0
1, 182634, Note_on_c, 7, 60, 0
1, 182672, Note_on_c, 11, 36, 0
1, 182672, Note_on_c, 1, 36, 0
1, 182688, Note_on_c, 7, 67, 64
1, 182688, Note_on_c, 7, 60, 64
1, 182719, Note_on_c, 4, 88, 0
1, 182722, Note_on_c, 7, 60, 0
1, 182726, Note_on_c, 7, 67, 0
1, 182747, Note_on_c, 6, 67, 0
1, 182784, Note_on_c, 1, 41, 112
1, 182784, Note_on_c, 2, 77, 41
1, 182784, Note_on_c, 4, 89, 107
1, 182784, Note_on_c, 5, 77, 93
1, 182784, Note_on_c, 5, 65, 93
1, 182784, Note_on_c, 7, 60, 71
1, 182784, Note_on_c, 7, 65, 71
1, 182784, Note_on_c, 9, 27, 127
1, 182784, Note_on_c, 9, 38, 97
1, 182784, Note_on_c, 9, 36, 127
1, 182784, Note_on_c, 9, 45, 107
1, 182784, Note_on_c, 9, 55, 100
1, 182784, Note_on_c, 11, 41, 112
1, 182785, Note_on_c, 7, 65, 0
1, 182785, Note_on_c, 7, 60, 0
1, 182786, Note_on_c, 2, 48, 0
1, 182786, Note_on_c, 2, 55, 0
1, 182786, Note_on_c, 2, 64, 0
1, 182786, Note_on_c, 2, 60, 0
1, 182792, Note_on_c, 2, 41, 61
1, 182792, Note_on_c, 2, 60, 61
1, 182792, Note_on_c, 2, 65, 61
1, 182792, Note_on_c, 2, 69, 61
1, 182802, Note_on_c, 9, 55, 0
1, 182802, Note_on_c, 9, 36, 0
1, 182802, Note_on_c, 9, 45, 0
1, 182802, Note_on_c, 9, 27, 0
1, 182802, Note_on_c, 9, 38, 0
1, 182870, Note_on_c, 1, 41, 0
1, 182870, Note_on_c, 11, 41, 0
1, 182880, Note_on_c, 7, 60, 80
1, 182880, Note_on_c, 7, 65, 80
1, 182880, Note_on_c, 9, 38, 97
1, 182881, Note_on_c, 7, 65, 0
1, 182881, Note_on_c, 7, 60, 0
1, 182898, Note_on_c, 9, 38, 0
1, 182942, Note_on_c, 5, 77, 0
1, 182945, Note_on_c, 5, 65, 0
1, 182976, Note_on_c, 1, 41, 72
1, 182976, Note_on_c, 6, 65, 102
1, 182976, Note_on_c, 7, 60, 92
1, 182976, Note_on_c, 7, 65, 92
1, 182976, Note_on_c, 9, 38, 97
1, 182976, Note_on_c, 11, 41, 72
1, 182994, Note_on_c, 9, 38, 0
1, 183018, Note_on_c, 7, 65, 0
1, 183018, Note_on_c, 7, 60, 0
1, 183061, Note_on_c, 1, 41, 0
1, 183061, Note_on_c, 11, 41, 0
1, 183072, Note_on_c, 7, 60, 64
1, 183072, Note_on_c, 7, 65, 64
1, 183072, Note_on_c, 9, 38, 97
1, 183090, Note_on_c, 9, 38, 0
1, 183106, Note_on_c, 7, 60, 0
1, 183110, Note_on_c, 7, 65, 0
1, 183131, Note_on_c, 6, 65, 0
1, 183168, Note_on_c, 1, 41, 106
1, 183168, Note_on_c, 5, 77, 78
1, 183168, Note_on_c, 5, 65, 78
1, 183168, Note_on_c, 7, 60, 71
1, 183168, Note_on_c, 7, 65, 71
1, 183168, Note_on_c, 9, 38, 97
1, 183168, Note_on_c, 11, 41, 106
1, 183169, Note_on_c, 7, 65, 0
1, 183169, Note_on_c, 7, 60, 0
1, 183186, Note_on_c, 9, 38, 0
1, 183250, Note_on_c, 1, 41, 0
1, 183250, Note_on_c, 11, 41, 0
1, 183264, Note_on_c, 7, 60, 80
1, 183264, Note_on_c, 7, 65, 80
1, 183264, Note_on_c, 9, 38, 97
1, 183265, Note_on_c, 7, 65, 0
1, 183265, Note_on_c, 7, 60, 0
1, 183282, Note_on_c, 9, 38, 0
1, 183326, Note_on_c, 5, 77, 0
1, 183329, Note_on_c, 5, 65, 0
1, 183360, Note_on_c, 1, 41, 72
1, 183360, Note_on_c, 6, 65, 88
1, 183360, Note_on_c, 7, 60, 92
1, 183360, Note_on_c, 7, 65, 92
1, 183360, Note_on_c, 9, 38, 97
1, 183360, Note_on_c, 11, 41, 72
1, 183378, Note_on_c, 9, 38, 0
1, 183402, Note_on_c, 7, 65, 0
1, 183402, Note_on_c, 7, 60, 0
1, 183438, Note_on_c, 1, 41, 0
1, 183438, Note_on_c, 11, 41, 0
1, 183456, Note_on_c, 7, 60, 64
1, 183456, Note_on_c, 7, 65, 64
1, 183456, Note_on_c, 9, 38, 97
1, 183474, Note_on_c, 9, 38, 0
1, 183486, Note_on_c, 4, 89, 0
1, 183490, Note_on_c, 7, 60, 0
1, 183494, Note_on_c, 7, 65, 0
1, 183515, Note_on_c, 6, 65, 0
1, 183552, Note_on_c, 1, 41, 96
1, 183552, Note_on_c, 5, 77, 64
1, 183552, Note_on_c, 5, 65, 64
1, 183552, Note_on_c, 7, 60, 71
1, 183552, Note_on_c, 7, 65, 71
1, 183552, Note_on_c, 9, 38, 97
1, 183552, Note_on_c, 11, 41, 96
1, 183553, Note_on_c, 7, 65, 0
1, 183553, Note_on_c, 7, 60, 0
1, 183570, Note_on_c, 9, 38, 0
1, 183623, Note_on_c, 1, 41, 0
1, 183623, Note_on_c, 11, 41, 0
1, 183648, Note_on_c, 7, 60, 80
1, 183648, Note_on_c, 7, 65, 80
1, 183648, Note_on_c, 9, 38, 97
1, 183649, Note_on_c, 7, 65, 0
1, 183649, Note_on_c, 7, 60, 0
1, 183666, Note_on_c, 9, 38, 0
1, 183710, Note_on_c, 5, 77, 0
1, 183713, Note_on_c, 5, 65, 0
1, 183744, Note_on_c, 1, 41, 72
1, 183744, Note_on_c, 6, 65, 75
1, 183744, Note_on_c, 7, 60, 92
1, 183744, Note_on_c, 7, 65, 92
1, 183744, Note_on_c, 9, 38, 97
1, 183744, Note_on_c, 11, 41, 72
1, 183762, Note_on_c, 9, 38, 0
1, 183786, Note_on_c, 7, 60, 0
1, 183786, Note_on_c, 7, 65, 0
1, 183822, Note_on_c, 1, 41, 0
1, 183822, Note_on_c, 11, 41, 0
1, 183840, Note_on_c, 7, 60, 64
1, 183840, Note_on_c, 7, 65, 64
1, 183840, Note_on_c, 9, 38, 97
1, 183858, Note_on_c, 9, 38, 0
1, 183874, Note_on_c, 7, 60, 0
1, 183878, Note_on_c, 7, 65, 0
1, 183899, Note_on_c, 6, 65, 0
1, 183936, Note_on_c, 1, 41, 104
1, 183936, Note_on_c, 5, 77, 50
1, 183936, Note_on_c, 5, 65, 50
1, 183936, Note_on_c, 7, 60, 71
1, 183936, Note_on_c, 7, 65, 71
1, 183936, Note_on_c, 9, 38, 97
1, 183936, Note_on_c, 11, 41, 104
1, 183937, Note_on_c, 7, 65, 0
1, 183937, Note_on_c, 7, 60, 0
1, 183954, Note_on_c, 9, 38, 0
1, 184018, Note_on_c, 1, 41, 0
1, 184018, Note_on_c, 11, 41, 0
1, 184032, Note_on_c, 7, 60, 80
1, 184032, Note_on_c, 7, 65, 80
1, 184032, Note_on_c, 9, 38, 97
1, 184033, Note_on_c, 7, 65, 0
1, 184033, Note_on_c, 7, 60, 0
1, 184050, Note_on_c, 9, 38, 0
1, 184094, Note_on_c, 5, 77, 0
1, 184097, Note_on_c, 5, 65, 0
1, 184128, Note_on_c, 1, 41, 72
1, 184128, Note_on_c, 6, 65, 61
1, 184128, Note_on_c, 7, 60, 92
1, 184128, Note_on_c, 7, 65, 92
1, 184128, Note_on_c, 9, 38, 97
1, 184128, Note_on_c, 11, 41, 72
1, 184146, Note_on_c, 9, 38, 0
1, 184166, Control_c, 3, 11, 127
1, 184170, Note_on_c, 7, 60, 0
1, 184170, Note_on_c, 7, 65, 0
1, 184208, Note_on_c, 1, 41, 0
1, 184208, Note_on_c, 11, 41, 0
1, 184224, Note_on_c, 7, 60, 64
1, 184224, Note_on_c, 7, 65, 64
1, 184224, Note_on_c, 9, 38, 97
1, 184226, Note_on_c, 2, 41, 0
1, 184242, Note_on_c, 9, 38, 0
1, 184258, Note_on_c, 7, 60, 0
1, 184262, Note_on_c, 7, 65, 0
1, 184283, Note_on_c, 6, 65, 0
1, 184320, Note_on_c, 1, 41, 112
1, 184320, Note_on_c, 3, 70, 95
1, 184320, Note_on_c, 7, 62, 71
1, 184320, Note_on_c, 7, 70, 71
1, 184320, Note_on_c, 9, 35, 127
1, 184320, Note_on_c, 9, 36, 127
1, 184320, Note_on_c, 9, 38, 97
1, 184320, Note_on_c, 9, 45, 107
1, 184320, Note_on_c, 9, 57, 117
1, 184320, Note_on_c, 11, 41, 112
1, 184321, Note_on_c, 7, 70, 0
1, 184321, Note_on_c, 7, 62, 0
1, 184338, Note_on_c, 9, 38, 0
1, 184338, Note_on_c, 9, 35, 0
1, 184338, Note_on_c, 9, 57, 0
1, 184338, Note_on_c, 9, 36, 0
1, 184338, Note_on_c, 9, 45, 0
1, 184368, Note_on_c, 9, 38, 71
1, 184368, Note_on_c, 9, 50, 71
1, 184386, Note_on_c, 9, 38, 0
1, 184386, Note_on_c, 9, 50, 0
1, 184406, Note_on_c, 11, 41, 0
1, 184406, Note_on_c, 1, 41, 0
1, 184416, Note_on_c, 7, 62, 80
1, 184416, Note_on_c, 7, 70, 80
1, 184416, Note_on_c, 9, 38, 97
1, 184416, Note_on_c, 9, 50, 127
1, 184417, Note_on_c, 7, 70, 0
1, 184417, Note_on_c, 7, 62, 0
1, 184434, Note_on_c, 9, 50, 0
1, 184434, Note_on_c, 9, 38, 0
1, 184464, Note_on_c, 9, 38, 86
1, 184464, Note_on_c, 9, 50, 86
1, 184482, Note_on_c, 9, 38, 0
1, 184482, Note_on_c, 9, 50, 0
1, 184512, Note_on_c, 1, 41, 72
1, 184512, Note_on_c, 7, 62, 92
1, 184512, Note_on_c, 7, 70, 92
1, 184512, Note_on_c, 9, 38, 97
1, 184512, Note_on_c, 9, 50, 127
1, 184512, Note_on_c, 11, 41, 72
1, 184530, Note_on_c, 9, 38, 0
1, 184530, Note_on_c, 9, 50, 0
1, 184554, Note_on_c, 7, 70, 0
1, 184554, Note_on_c, 7, 62, 0
1, 184560, Note_on_c, 9, 38, 89
1, 184560, Note_on_c, 9, 50, 89
1, 184578, Note_on_c, 9, 38, 0
1, 184578, Note_on_c, 9, 50, 0
1, 184597, Note_on_c, 1, 41, 0
1, 184597, Note_on_c, 11, 41, 0
1, 184608, Note_on_c, 7, 62, 64
1, 184608, Note_on_c, 7, 70, 64
1, 184608, Note_on_c, 9, 38, 97
1, 184608, Note_on_c, 9, 50, 127
1, 184626, Note_on_c, 9, 38, 0
1, 184626, Note_on_c, 9, 50, 0
1, 184646, Note_on_c, 7, 62, 0
1, 184646, Note_on_c, 7, 70, 0
1, 184656, Note_on_c, 9, 38, 77
1, 184656, Note_on_c, 9, 50, 77
1, 184674, Note_on_c, 9, 38, 0
1, 184674, Note_on_c, 9, 50, 0
1, 184704, Note_on_c, 1, 41, 106
1, 184704, Note_on_c, 7, 62, 71
1, 184704, Note_on_c, 7, 70, 71
1, 184704, Note_on_c, 9, 50, 127
1, 184704, Note_on_c, 9, 38, 97
1, 184704, Note_on_c, 11, 41, 106
1, 184705, Note_on_c, 7, 70, 0
1, 184705, Note_on_c, 7, 62, 0
1, 184722, Note_on_c, 9, 50, 0
1, 184722, Note_on_c, 9, 38, 0
1, 184752, Note_on_c, 9, 38, 77
1, 184752, Note_on_c, 9, 50, 77
1, 184770, Note_on_c, 9, 38, 0
1, 184770, Note_on_c, 9, 50, 0
1, 184786, Note_on_c, 1, 41, 0
1, 184786, Note_on_c, 11, 41, 0
1, 184800, Note_on_c, 7, 62, 80
1, 184800, Note_on_c, 7, 70, 80
1, 184800, Note_on_c, 9, 38, 97
1, 184800, Note_on_c, 9, 50, 127
1, 184801, Note_on_c, 7, 70, 0
1, 184801, Note_on_c, 7, 62, 0
1, 184818, Note_on_c, 9, 50, 0
1, 184818, Note_on_c, 9, 38, 0
1, 184848, Note_on_c, 9, 38, 92
1, 184848, Note_on_c, 9, 50, 92
1, 184866, Note_on_c, 9, 38, 0
1, 184866, Note_on_c, 9, 50, 0
1, 184896, Note_on_c, 1, 41, 72
1, 184896, Note_on_c, 7, 62, 92
1, 184896, Note_on_c, 7, 70, 92
1, 184896, Note_on_c, 9, 38, 97
1, 184896, Note_on_c, 9, 50, 127
1, 184896, Note_on_c, 11, 41, 72
1, 184904, Control_c, 2, 64, 127
1, 184904, Control_c, 2, 64, 127
1, 184906, Control_c, 2, 64, 127
1, 184907, Control_c, 2, 64, 127
1, 184908, Control_c, 2, 64, 127
1, 184908, Control_c, 2, 64, 127
1, 184908, Control_c, 2, 64, 127
1, 184908, Control_c, 2, 64, 127
1, 184908, Control_c, 2, 64, 127
1, 184908, Control_c, 2, 64, 127
1, 184908, Control_c, 2, 64, 127
1, 184908, Control_c, 2, 64, 127
1, 184908, Control_c, 2, 64, 127
1, 184908, Control_c, 2, 64, 127
1, 184908, Control_c, 2, 64, 127
1, 184914, Note_on_c, 9, 38, 0
1, 184914, Note_on_c, 9, 50, 0
1, 184938, Note_on_c, 7, 70, 0
1, 184938, Note_on_c, 7, 62, 0
1, 184944, Note_on_c, 9, 38, 95
1, 184944, Note_on_c, 9, 50, 95
1, 184962, Note_on_c, 9, 38, 0
1, 184962, Note_on_c, 9, 50, 0
1, 184974, Note_on_c, 1, 41, 0
1, 184974, Note_on_c, 11, 41, 0
1, 184992, Note_on_c, 7, 62, 64
1, 184992, Note_on_c, 7, 70, 64
1, 184992, Note_on_c, 9, 38, 97
1, 184992, Note_on_c, 9, 50, 127
1, 185010, Note_on_c, 9, 38, 0
1, 185010, Note_on_c, 9, 50, 0
1, 185024, Control_c, 2, 64, 0
1, 185024, Control_c, 2, 64, 0
1, 185024, Control_c, 2, 64, 0
1, 185024, Control_c, 2, 64, 0
1, 185024, Control_c, 2, 64, 0
1, 185024, Control_c, 2, 64, 0
1, 185024, Control_c, 2, 64, 0
1, 185024, Control_c, 2, 64, 0
1, 185024, Control_c, 2, 64, 0
1, 185024, Control_c, 2, 64, 0
1, 185024, Control_c, 2, 64, 0
1, 185024, Control_c, 2, 64, 0
1, 185024, Control_c, 2, 64, 0
1, 185024, Control_c, 2, 64, 0
1, 185024, Control_c, 2, 64, 0
1, 185030, Note_on_c, 7, 62, 0
1, 185030, Note_on_c, 7, 70, 0
1, 185040, Note_on_c, 9, 38, 77
1, 185058, Note_on_c, 9, 38, 0
1, 185088, Note_on_c, 1, 41, 96
1, 185088, Note_on_c, 3, 69, 82
1, 185088, Note_on_c, 7, 60, 71
1, 185088, Note_on_c, 7, 69, 71
1, 185088, Note_on_c, 9, 35, 127
1, 185088, Note_on_c, 9, 36, 127
1, 185088, Note_on_c, 9, 45, 107
1, 185088, Note_on_c, 9, 57, 117
1, 185088, Note_on_c, 11, 41, 96
1, 185089, Note_on_c, 7, 69, 0
1, 185089, Note_on_c, 7, 60, 0
1, 185106, Note_on_c, 9, 36, 0
1, 185106, Note_on_c, 9, 57, 0
1, 185106, Note_on_c, 9, 35, 0
1, 185106, Note_on_c, 9, 45, 0
1, 185117, Note_on_c, 3, 70, 0
1, 185136, Note_on_c, 9, 38, 71
1, 185136, Note_on_c, 9, 50, 71
1, 185154, Note_on_c, 9, 38, 0
1, 185154, Note_on_c, 9, 50, 0
1, 185159, Note_on_c, 1, 41, 0
1, 185159, Note_on_c, 11, 41, 0
1, 185184, Note_on_c, 7, 60, 80
1, 185184, Note_on_c, 7, 69, 80
1, 185184, Note_on_c, 9, 38, 97
1, 185184, Note_on_c, 9, 50, 127
1, 185185, Note_on_c, 7, 69, 0
1, 185185, Note_on_c, 7, 60, 0
1, 185202, Note_on_c, 9, 50, 0
1, 185202, Note_on_c, 9, 38, 0
1, 185232, Note_on_c, 9, 38, 95
1, 185232, Note_on_c, 9, 50, 95
1, 185250, Note_on_c, 9, 38, 0
1, 185250, Note_on_c, 9, 50, 0
1, 185280, Note_on_c, 1, 41, 72
1, 185280, Note_on_c, 7, 60, 92
1, 185280, Note_on_c, 7, 69, 92
1, 185280, Note_on_c, 9, 38, 97
1, 185280, Note_on_c, 9, 50, 127
1, 185280, Note_on_c, 11, 41, 72
1, 185298, Note_on_c, 9, 38, 0
1, 185298, Note_on_c, 9, 50, 0
1, 185322, Note_on_c, 7, 69, 0
1, 185322, Note_on_c, 7, 60, 0
1, 185328, Note_on_c, 9, 38, 107
1, 185328, Note_on_c, 9, 50, 107
1, 185346, Note_on_c, 9, 38, 0
1, 185346, Note_on_c, 9, 50, 0
1, 185358, Note_on_c, 1, 41, 0
1, 185358, Note_on_c, 11, 41, 0
1, 185376, Note_on_c, 7, 60, 64
1, 185376, Note_on_c, 7, 69, 64
1, 185376, Note_on_c, 9, 50, 80
1, 185376, Note_on_c, 9, 38, 97
1, 185394, Note_on_c, 9, 38, 0
1, 185394, Note_on_c, 9, 50, 0
1, 185414, Note_on_c, 7, 60, 0
1, 185414, Note_on_c, 7, 69, 0
1, 185424, Note_on_c, 9, 50, 127
1, 185424, Note_on_c, 9, 38, 98
1, 185442, Note_on_c, 9, 38, 0
1, 185442, Note_on_c, 9, 50, 0
1, 185472, Note_on_c, 1, 41, 104
1, 185472, Note_on_c, 7, 60, 71
1, 185472, Note_on_c, 7, 69, 71
1, 185472, Note_on_c, 9, 38, 97
1, 185472, Note_on_c, 9, 50, 127
1, 185472, Note_on_c, 11, 41, 104
1, 185473, Note_on_c, 7, 69, 0
1, 185473, Note_on_c, 7, 60, 0
1, 185490, Note_on_c, 9, 38, 0
1, 185490, Note_on_c, 9, 50, 0
1, 185520, Note_on_c, 9, 50, 80
1, 185520, Note_on_c, 9, 38, 80
1, 185538, Note_on_c, 9, 38, 0
1, 185538, Note_on_c, 9, 50, 0
1, 185554, Note_on_c, 1, 41, 0
1, 185554, Note_on_c, 11, 41, 0
1, 185568, Note_on_c, 7, 60, 80
1, 185568, Note_on_c, 7, 69, 80
1, 185568, Note_on_c, 9, 38, 97
1, 185568, Note_on_c, 9, 50, 127
1, 185569, Note_on_c, 7, 69, 0
1, 185569, Note_on_c, 7, 60, 0
1, 185586, Note_on_c, 9, 50, 0
1, 185586, Note_on_c, 9, 38, 0
1, 185616, Note_on_c, 9, 38, 89
1, 185616, Note_on_c, 9, 50, 89
1, 185634, Note_on_c, 9, 38, 0
1, 185634, Note_on_c, 9, 50, 0
1, 185664, Note_on_c, 1, 41, 72
1, 185664, Note_on_c, 7, 60, 92
1, 185664, Note_on_c, 7, 69, 92
1, 185664, Note_on_c, 9, 38, 97
1, 185664, Note_on_c, 9, 50, 127
1, 185664, Note_on_c, 11, 41, 72
1, 185682, Note_on_c, 9, 38, 0
1, 185682, Note_on_c, 9, 50, 0
1, 185706, Note_on_c, 7, 69, 0
1, 185706, Note_on_c, 7, 60, 0
1, 185712, Note_on_c, 9, 38, 98
1, 185712, Note_on_c, 9, 50, 98
1, 185730, Note_on_c, 9, 38, 0
1, 185730, Note_on_c, 9, 50, 0
1, 185744, Note_on_c, 1, 41, 0
1, 185744, Note_on_c, 11, 41, 0
1, 185760, Note_on_c, 7, 60, 64
1, 185760, Note_on_c, 7, 69, 64
1, 185760, Note_on_c, 9, 38, 97
1, 185760, Note_on_c, 9, 50, 127
1, 185778, Note_on_c, 9, 38, 0
1, 185778, Note_on_c, 9, 50, 0
1, 185794, Note_on_c, 2, 65, 0
1, 185798, Note_on_c, 7, 69, 0
1, 185798, Note_on_c, 7, 60, 0
1, 185800, Note_on_c, 2, 65, 61
1, 185808, Note_on_c, 2, 46, 61
1, 185808, Note_on_c, 2, 58, 61
1, 185808, Note_on_c, 2, 62, 61
1, 185808, Note_on_c, 9, 38, 83
1, 185826, Note_on_c, 9, 38, 0
1, 185842, Note_on_c, 2, 77, 0
1, 185850, Note_on_c, 3, 69, 0
1, 185850, Note_on_c, 2, 65, 0
1, 185850, Note_on_c, 2, 69, 0
1, 185850, Note_on_c, 2, 60, 0
1, 185856, Note_on_c, 1, 34, 60
1, 185856, Note_on_c, 3, 65, 76
1, 185856, Note_on_c, 5, 58, 64
1, 185856, Note_on_c, 9, 27, 127
1, 185856, Note_on_c, 9, 45, 107
1, 185856, Note_on_c, 9, 36, 127
1, 185856, Note_on_c, 9, 42, 66
1, 185856, Note_on_c, 9, 70, 92
1, 185856, Note_on_c, 9, 57, 117
1, 185856, Note_on_c, 12, 53, 80
1, 185858, Pitch_bend_c, 1, 8192
1, 185858, Control_c, 5, 10, 9
1, 185874, Note_on_c, 9, 57, 0
1, 185874, Note_on_c, 9, 45, 0
1, 185874, Note_on_c, 9, 27, 0
1, 185874, Note_on_c, 9, 70, 0
1, 185874, Note_on_c, 9, 36, 0
1, 185874, Note_on_c, 9, 42, 0
1, 185899, Note_on_c, 12, 53, 0
1, 185906, Control_c, 12, 10, 5
1, 185943, Note_on_c, 1, 34, 0
1, 185946, Note_on_c, 5, 58, 0
1, 185952, Note_on_c, 5, 65, 65
1, 185952, Note_on_c, 9, 42, 75
1, 185952, Note_on_c, 12, 53, 73
1, 185954, Control_c, 5, 10, 13
1, 185954, Control_c, 12, 10, 13
1, 185954, Control_c, 12, 6, 25
1, 185970, Note_on_c, 9, 42, 0
1, 185986, Note_on_c, 12, 53, 0
1, 186002, Control_c, 12, 10, 20
1, 186042, Note_on_c, 5, 65, 0
1, 186048, Note_on_c, 1, 46, 92
1, 186048, Note_on_c, 5, 70, 80
1, 186048, Note_on_c, 9, 46, 107
1, 186048, Note_on_c, 12, 53, 80
1, 186050, Control_c, 5, 10, 17
1, 186050, Control_c, 12, 10, 27
1, 186066, Note_on_c, 9, 46, 0
1, 186091, Note_on_c, 12, 53, 0
1, 186098, Control_c, 12, 10, 34
1, 186122, Control_c, 12, 6, 40
1, 186138, Note_on_c, 1, 46, 0
1, 186144, Note_on_c, 5, 74, 68
1, 186144, Note_on_c, 9, 70, 40
1, 186144, Note_on_c, 12, 53, 73
1, 186146, Control_c, 5, 10, 20
1, 186146, Control_c, 12, 10, 41
1, 186162, Note_on_c, 9, 70, 0
1, 186163, Note_on_c, 5, 70, 0
1, 186178, Note_on_c, 12, 53, 0
1, 186194, Control_c, 12, 10, 49
1, 186234, Note_on_c, 5, 74, 0
1, 186240, Note_on_c, 1, 34, 66
1, 186240, Note_on_c, 5, 77, 86
1, 186240, Note_on_c, 9, 27, 127
1, 186240, Note_on_c, 9, 39, 127
1, 186240, Note_on_c, 9, 38, 127
1, 186240, Note_on_c, 9, 36, 127
1, 186240, Note_on_c, 9, 45, 107
1, 186240, Note_on_c, 9, 42, 66
1, 186240, Note_on_c, 9, 70, 86
1, 186240, Note_on_c, 12, 53, 80
1, 186242, Control_c, 5, 10, 24
1, 186242, Control_c, 12, 10, 56
1, 186258, Note_on_c, 9, 70, 0
1, 186258, Note_on_c, 9, 39, 0
1, 186258, Note_on_c, 9, 36, 0
1, 186258, Note_on_c, 9, 27, 0
1, 186258, Note_on_c, 9, 42, 0
1, 186258, Note_on_c, 9, 38, 0
1, 186258, Note_on_c, 9, 45, 0
1, 186283, Note_on_c, 12, 53, 0
1, 186290, Control_c, 12, 10, 63
1, 186326, Control_c, 12, 6, 60
1, 186330, Note_on_c, 1, 34, 0
1, 186336, Note_on_c, 5, 74, 59
1, 186336, Note_on_c, 9, 42, 75
1, 186336, Note_on_c, 12, 53, 73
1, 186338, Control_c, 5, 10, 28
1, 186338, Control_c, 12, 10, 70
1, 186342, Note_on_c, 5, 77, 0
1, 186354, Note_on_c, 9, 42, 0
1, 186370, Note_on_c, 12, 53, 0
1, 186386, Control_c, 12, 10, 77
1, 186426, Note_on_c, 5, 74, 0
1, 186432, Note_on_c, 1, 46, 92
1, 186432, Note_on_c, 5, 70, 80
1, 186432, Note_on_c, 9, 46, 92
1, 186432, Note_on_c, 9, 70, 80
1, 186432, Note_on_c, 12, 53, 80
1, 186434, Control_c, 5, 10, 31
1, 186434, Control_c, 12, 10, 84
1, 186450, Note_on_c, 9, 70, 0
1, 186450, Note_on_c, 9, 46, 0
1, 186475, Note_on_c, 12, 53, 0
1, 186482, Control_c, 12, 10, 92
1, 186506, Control_c, 12, 6, 85
1, 186522, Note_on_c, 1, 46, 0
1, 186522, Note_on_c, 3, 65, 0
1, 186528, Note_on_c, 5, 65, 94
1, 186528, Note_on_c, 12, 53, 73
1, 186530, Control_c, 5, 10, 35
1, 186530, Control_c, 12, 10, 99
1, 186547, Note_on_c, 5, 70, 0
1, 186562, Note_on_c, 12, 53, 0
1, 186578, Control_c, 12, 10, 106
1, 186618, Note_on_c, 5, 65, 0
1, 186624, Note_on_c, 1, 34, 66
1, 186624, Note_on_c, 3, 65, 82
1, 186624, Note_on_c, 5, 58, 59
1, 186624, Note_on_c, 9, 27, 127
1, 186624, Note_on_c, 9, 36, 127
1, 186624, Note_on_c, 9, 45, 107
1, 186624, Note_on_c, 9, 42, 66
1, 186624, Note_on_c, 9, 70, 92
1, 186624, Note_on_c, 12, 53, 80
1, 186626, Control_c, 5, 10, 39
1, 186626, Control_c, 12, 10, 113
1, 186642, Note_on_c, 9, 70, 0
1, 186642, Note_on_c, 9, 36, 0
1, 186642, Note_on_c, 9, 27, 0
1, 186642, Note_on_c, 9, 42, 0
1, 186642, Note_on_c, 9, 45, 0
1, 186667, Note_on_c, 12, 53, 0
1, 186674, Control_c, 12, 10, 120
1, 186714, Note_on_c, 1, 34, 0
1, 186714, Note_on_c, 5, 58, 0
1, 186720, Note_on_c, 5, 65, 94
1, 186720, Note_on_c, 9, 42, 75
1, 186720, Note_on_c, 12, 53, 73
1, 186722, Control_c, 5, 10, 42
1, 186722, Control_c, 12, 6, 110
1, 186738, Note_on_c, 9, 42, 0
1, 186754, Note_on_c, 12, 53, 0
1, 186810, Note_on_c, 5, 65, 0
1, 186816, Note_on_c, 1, 46, 92
1, 186816, Note_on_c, 5, 70, 64
1, 186816, Note_on_c, 9, 46, 107
1, 186816, Note_on_c, 9, 70, 20
1, 186818, Control_c, 5, 10, 46
1, 186834, Note_on_c, 9, 70, 0
1, 186834, Note_on_c, 9, 46, 0
1, 186906, Note_on_c, 1, 46, 0
1, 186912, Note_on_c, 5, 74, 77
1, 186912, Note_on_c, 9, 70, 49
1, 186914, Control_c, 5, 10, 50
1, 186930, Note_on_c, 9, 70, 0
1, 186931, Note_on_c, 5, 70, 0
1, 187002, Note_on_c, 5, 74, 0
1, 187008, Note_on_c, 1, 34, 66
1, 187008, Note_on_c, 3, 69, 87
1, 187008, Note_on_c, 5, 77, 86
1, 187008, Note_on_c, 9, 27, 127
1, 187008, Note_on_c, 9, 39, 127
1, 187008, Note_on_c, 9, 38, 127
1, 187008, Note_on_c, 9, 45, 107
1, 187008, Note_on_c, 9, 36, 127
1, 187008, Note_on_c, 9, 42, 66
1, 187008, Note_on_c, 9, 70, 76
1, 187010, Control_c, 5, 10, 54
1, 187011, Note_on_c, 3, 65, 0
1, 187026, Note_on_c, 9, 70, 0
1, 187026, Note_on_c, 9, 45, 0
1, 187026, Note_on_c, 9, 39, 0
1, 187026, Note_on_c, 9, 27, 0
1, 187026, Note_on_c, 9, 42, 0
1, 187026, Note_on_c, 9, 38, 0
1, 187026, Note_on_c, 9, 36, 0
1, 187098, Note_on_c, 1, 34, 0
1, 187104, Note_on_c, 5, 74, 71
1, 187104, Note_on_c, 9, 42, 75
1, 187106, Control_c, 5, 10, 57
1, 187110, Note_on_c, 5, 77, 0
1, 187122, Note_on_c, 9, 42, 0
1, 187194, Note_on_c, 5, 74, 0
1, 187200, Note_on_c, 1, 46, 89
1, 187200, Note_on_c, 5, 70, 64
1, 187200, Note_on_c, 9, 46, 107
1, 187200, Note_on_c, 9, 70, 66
1, 187202, Control_c, 5, 10, 61
1, 187218, Note_on_c, 9, 70, 0
1, 187218, Note_on_c, 9, 46, 0
1, 187290, Note_on_c, 3, 69, 0
1, 187294, Note_on_c, 1, 46, 0
1, 187296, Note_on_c, 5, 65, 80
1, 187298, Control_c, 5, 10, 65
1, 187298, Control_c, 12, 6, 10
1, 187315, Note_on_c, 5, 70, 0
1, 187338, Note_on_c, 2, 58, 0
1, 187338, Note_on_c, 2, 46, 0
1, 187338, Note_on_c, 2, 62, 0
1, 187344, Note_on_c, 2, 41, 61
1, 187344, Note_on_c, 2, 57, 61
1, 187344, Note_on_c, 2, 60, 61
1, 187386, Note_on_c, 5, 65, 0
1, 187392, Note_on_c, 1, 29, 63
1, 187392, Note_on_c, 3, 69, 82
1, 187392, Note_on_c, 5, 57, 59
1, 187392, Note_on_c, 9, 27, 127
1, 187392, Note_on_c, 9, 45, 107
1, 187392, Note_on_c, 9, 36, 127
1, 187392, Note_on_c, 9, 42, 66
1, 187392, Note_on_c, 9, 70, 92
1, 187392, Note_on_c, 12, 53, 80
1, 187394, Control_c, 5, 10, 68
1, 187394, Control_c, 12, 10, 125
1, 187410, Note_on_c, 9, 70, 0
1, 187410, Note_on_c, 9, 45, 0
1, 187410, Note_on_c, 9, 27, 0
1, 187410, Note_on_c, 9, 42, 0
1, 187410, Note_on_c, 9, 36, 0
1, 187435, Note_on_c, 12, 53, 0
1, 187442, Control_c, 12, 10, 119
1, 187479, Note_on_c, 1, 29, 0
1, 187482, Note_on_c, 5, 57, 0
1, 187488, Note_on_c, 5, 65, 68
1, 187488, Note_on_c, 9, 42, 75
1, 187488, Note_on_c, 12, 53, 73
1, 187490, Control_c, 5, 10, 72
1, 187490, Control_c, 12, 10, 113
1, 187490, Control_c, 12, 6, 25
1, 187506, Note_on_c, 9, 42, 0
1, 187522, Note_on_c, 12, 53, 0
1, 187538, Control_c, 12, 10, 107
1, 187578, Note_on_c, 5, 65, 0
1, 187584, Note_on_c, 1, 41, 89
1, 187584, Note_on_c, 5, 69, 64
1, 187584, Note_on_c, 9, 46, 107
1, 187584, Note_on_c, 12, 53, 80
1, 187586, Control_c, 5, 10, 76
1, 187586, Control_c, 12, 10, 101
1, 187602, Note_on_c, 9, 46, 0
1, 187627, Note_on_c, 12, 53, 0
1, 187634, Control_c, 12, 10, 95
1, 187658, Control_c, 12, 6, 40
1, 187674, Note_on_c, 1, 41, 0
1, 187680, Note_on_c, 5, 72, 74
1, 187680, Note_on_c, 9, 70, 44
1, 187680, Note_on_c, 12, 53, 73
1, 187682, Control_c, 5, 10, 79
1, 187682, Control_c, 12, 10, 89
1, 187698, Note_on_c, 9, 70, 0
1, 187699, Note_on_c, 5, 69, 0
1, 187714, Note_on_c, 12, 53, 0
1, 187730, Control_c, 12, 10, 83
1, 187770, Note_on_c, 5, 72, 0
1, 187776, Note_on_c, 1, 29, 63
1, 187776, Note_on_c, 5, 77, 89
1, 187776, Note_on_c, 9, 27, 127
1, 187776, Note_on_c, 9, 39, 127
1, 187776, Note_on_c, 9, 38, 127
1, 187776, Note_on_c, 9, 45, 107
1, 187776, Note_on_c, 9, 36, 127
1, 187776, Note_on_c, 9, 42, 66
1, 187776, Note_on_c, 9, 70, 92
1, 187776, Note_on_c, 12, 53, 80
1, 187778, Control_c, 5, 10, 83
1, 187778, Control_c, 12, 10, 77
1, 187794, Note_on_c, 9, 70, 0
1, 187794, Note_on_c, 9, 39, 0
1, 187794, Note_on_c, 9, 45, 0
1, 187794, Note_on_c, 9, 27, 0
1, 187794, Note_on_c, 9, 42, 0
1, 187794, Note_on_c, 9, 38, 0
1, 187794, Note_on_c, 9, 36, 0
1, 187819, Note_on_c, 12, 53, 0
1, 187826, Control_c, 12, 10, 71
1, 187862, Control_c, 12, 6, 60
1, 187866, Note_on_c, 1, 29, 0
1, 187866, Note_on_c, 3, 69, 0
1, 187872, Note_on_c, 5, 72, 77
1, 187872, Note_on_c, 9, 42, 75
1, 187872, Note_on_c, 12, 53, 73
1, 187874, Control_c, 5, 10, 87
1, 187874, Control_c, 12, 10, 65
1, 187878, Note_on_c, 5, 77, 0
1, 187890, Note_on_c, 9, 42, 0
1, 187906, Note_on_c, 12, 53, 0
1, 187922, Control_c, 12, 10, 59
1, 187962, Note_on_c, 5, 72, 0
1, 187968, Note_on_c, 1, 41, 89
1, 187968, Note_on_c, 5, 69, 64
1, 187968, Note_on_c, 9, 46, 107
1, 187968, Note_on_c, 9, 70, 80
1, 187968, Note_on_c, 12, 53, 80
1, 187970, Control_c, 5, 10, 91
1, 187970, Control_c, 12, 10, 53
1, 187986, Note_on_c, 9, 70, 0
1, 187986, Note_on_c, 9, 46, 0
1, 188011, Note_on_c, 12, 53, 0
1, 188018, Control_c, 12, 10, 47
1, 188042, Control_c, 12, 6, 85
1, 188058, Note_on_c, 1, 41, 0
1, 188064, Note_on_c, 5, 65, 74
1, 188064, Note_on_c, 12, 53, 73
1, 188066, Control_c, 5, 10, 94
1, 188066, Control_c, 12, 10, 41
1, 188083, Note_on_c, 5, 69, 0
1, 188098, Note_on_c, 12, 53, 0
1, 188114, Control_c, 12, 10, 35
1, 188154, Note_on_c, 5, 65, 0
1, 188160, Note_on_c, 1, 29, 63
1, 188160, Note_on_c, 3, 69, 80
1, 188160, Note_on_c, 5, 57, 59
1, 188160, Note_on_c, 9, 27, 127
1, 188160, Note_on_c, 9, 45, 107
1, 188160, Note_on_c, 9, 36, 127
1, 188160, Note_on_c, 9, 42, 66
1, 188160, Note_on_c, 9, 70, 86
1, 188160, Note_on_c, 12, 53, 80
1, 188162, Control_c, 5, 10, 98
1, 188162, Control_c, 12, 10, 29
1, 188178, Note_on_c, 9, 70, 0
1, 188178, Note_on_c, 9, 45, 0
1, 188178, Note_on_c, 9, 27, 0
1, 188178, Note_on_c, 9, 42, 0
1, 188178, Note_on_c, 9, 36, 0
1, 188203, Note_on_c, 12, 53, 0
1, 188210, Control_c, 12, 10, 23
1, 188250, Note_on_c, 1, 29, 0
1, 188250, Note_on_c, 5, 57, 0
1, 188256, Note_on_c, 5, 65, 74
1, 188256, Note_on_c, 9, 42, 75
1, 188256, Note_on_c, 12, 53, 73
1, 188258, Control_c, 5, 10, 102
1, 188258, Control_c, 12, 10, 17
1, 188258, Control_c, 12, 6, 110
1, 188274, Note_on_c, 9, 42, 0
1, 188290, Note_on_c, 12, 53, 0
1, 188306, Control_c, 12, 10, 11
1, 188346, Note_on_c, 5, 65, 0
1, 188352, Note_on_c, 1, 41, 86
1, 188352, Note_on_c, 5, 69, 64
1, 188352, Note_on_c, 9, 46, 107
1, 188352, Note_on_c, 9, 70, 13
1, 188354, Control_c, 5, 10, 105
1, 188354, Control_c, 12, 10, 5
1, 188370, Note_on_c, 9, 70, 0
1, 188370, Note_on_c, 9, 46, 0
1, 188410, Note_on_c, 8, 69, 0
1, 188442, Note_on_c, 1, 41, 0
1, 188448, Note_on_c, 5, 72, 80
1, 188448, Note_on_c, 9, 70, 26
1, 188450, Control_c, 5, 10, 109
1, 188466, Note_on_c, 9, 70, 0
1, 188467, Note_on_c, 5, 69, 0
1, 188538, Note_on_c, 3, 69, 0
1, 188538, Note_on_c, 5, 72, 0
1, 188544, Note_on_c, 1, 29, 63
1, 188544, Note_on_c, 3, 72, 89
1, 188544, Note_on_c, 5, 77, 86
1, 188544, Note_on_c, 9, 27, 127
1, 188544, Note_on_c, 9, 39, 127
1, 188544, Note_on_c, 9, 38, 127
1, 188544, Note_on_c, 9, 45, 107
1, 188544, Note_on_c, 9, 36, 127
1, 188544, Note_on_c, 9, 42, 66
1, 188544, Note_on_c, 9, 70, 92
1, 188546, Control_c, 5, 10, 113
1, 188562, Note_on_c, 9, 70, 0
1, 188562, Note_on_c, 9, 38, 0
1, 188562, Note_on_c, 9, 39, 0
1, 188562, Note_on_c, 9, 27, 0
1, 188562, Note_on_c, 9, 42, 0
1, 188562, Note_on_c, 9, 45, 0
1, 188562, Note_on_c, 9, 36, 0
1, 188634, Note_on_c, 1, 29, 0
1, 188640, Note_on_c, 5, 72, 74
1, 188640, Note_on_c, 9, 42, 75
1, 188642, Control_c, 5, 10, 116
1, 188646, Note_on_c, 5, 77, 0
1, 188658, Note_on_c, 9, 42, 0
1, 188730, Note_on_c, 5, 72, 0
1, 188736, Note_on_c, 1, 41, 86
1, 188736, Note_on_c, 5, 69, 64
1, 188736, Note_on_c, 9, 46, 107
1, 188736, Note_on_c, 9, 70, 63
1, 188738, Control_c, 5, 10, 120
1, 188754, Note_on_c, 9, 70, 0
1, 188754, Note_on_c, 9, 46, 0
1, 188830, Note_on_c, 1, 41, 0
1, 188832, Note_on_c, 5, 65, 80
1, 188834, Control_c, 5, 10, 124
1, 188834, Control_c, 12, 6, 10
1, 188851, Note_on_c, 5, 69, 0
1, 188880, Note_on_c, 2, 38, 61
1, 188880, Note_on_c, 2, 50, 61
1, 188893, Note_on_c, 3, 72, 0
1, 188922, Note_on_c, 5, 65, 0
1, 188928, Note_on_c, 1, 26, 60
1, 188928, Note_on_c, 3, 74, 89
1, 188928, Note_on_c, 5, 62, 59
1, 188928, Note_on_c, 9, 27, 127
1, 188928, Note_on_c, 9, 45, 107
1, 188928, Note_on_c, 9, 36, 127
1, 188928, Note_on_c, 9, 42, 66
1, 188928, Note_on_c, 9, 70, 92
1, 188928, Note_on_c, 12, 53, 80
1, 188930, Control_c, 5, 10, 127
1, 188931, Pitch_bend_c, 8, 8192
1, 188946, Note_on_c, 9, 70, 0
1, 188946, Note_on_c, 9, 27, 0
1, 188946, Note_on_c, 9, 42, 0
1, 188946, Note_on_c, 9, 45, 0
1, 188946, Note_on_c, 9, 36, 0
1, 188971, Note_on_c, 12, 53, 0
1, 188978, Control_c, 12, 10, 5
1, 189015, Note_on_c, 1, 26, 0
1, 189018, Note_on_c, 5, 62, 0
1, 189024, Note_on_c, 5, 69, 74
1, 189024, Note_on_c, 9, 42, 75
1, 189024, Note_on_c, 12, 53, 73
1, 189026, Control_c, 5, 10, 124
1, 189026, Control_c, 12, 10, 13
1, 189026, Control_c, 12, 6, 25
1, 189042, Note_on_c, 9, 42, 0
1, 189058, Note_on_c, 12, 53, 0
1, 189074, Control_c, 12, 10, 20
1, 189083, Note_on_c, 2, 41, 0
1, 189114, Note_on_c, 5, 69, 0
1, 189120, Note_on_c, 1, 38, 92
1, 189120, Note_on_c, 5, 74, 64
1, 189120, Note_on_c, 9, 46, 107
1, 189120, Note_on_c, 12, 53, 80
1, 189122, Control_c, 5, 10, 120
1, 189122, Control_c, 12, 10, 27
1, 189138, Note_on_c, 9, 46, 0
1, 189163, Note_on_c, 12, 53, 0
1, 189170, Control_c, 12, 10, 34
1, 189194, Control_c, 12, 6, 40
1, 189210, Note_on_c, 1, 38, 0
1, 189210, Note_on_c, 3, 74, 0
1, 189216, Note_on_c, 9, 70, 40
1, 189216, Note_on_c, 12, 53, 73
1, 189218, Control_c, 5, 10, 116
1, 189218, Control_c, 12, 10, 41
1, 189234, Note_on_c, 9, 70, 0
1, 189235, Note_on_c, 5, 74, 0
1, 189250, Note_on_c, 12, 53, 0
1, 189266, Control_c, 12, 10, 49
1, 189312, Note_on_c, 1, 26, 66
1, 189312, Note_on_c, 3, 76, 95
1, 189312, Note_on_c, 5, 77, 80
1, 189312, Note_on_c, 5, 86, 71
1, 189312, Note_on_c, 9, 27, 127
1, 189312, Note_on_c, 9, 39, 127
1, 189312, Note_on_c, 9, 38, 127
1, 189312, Note_on_c, 9, 45, 107
1, 189312, Note_on_c, 9, 36, 127
1, 189312, Note_on_c, 9, 42, 66
1, 189312, Note_on_c, 9, 70, 86
1, 189312, Note_on_c, 12, 53, 80
1, 189314, Control_c, 5, 10, 112
1, 189314, Control_c, 12, 10, 56
1, 189330, Note_on_c, 9, 70, 0
1, 189330, Note_on_c, 9, 42, 0
1, 189330, Note_on_c, 9, 27, 0
1, 189330, Note_on_c, 9, 38, 0
1, 189330, Note_on_c, 9, 36, 0
1, 189330, Note_on_c, 9, 39, 0
1, 189330, Note_on_c, 9, 45, 0
1, 189355, Note_on_c, 12, 53, 0
1, 189362, Control_c, 12, 10, 63
1, 189398, Control_c, 12, 6, 60
1, 189402, Note_on_c, 1, 26, 0
1, 189402, Note_on_c, 5, 77, 0
1, 189408, Note_on_c, 5, 74, 74
1, 189408, Note_on_c, 9, 42, 75
1, 189408, Note_on_c, 12, 53, 73
1, 189410, Control_c, 5, 10, 108
1, 189410, Control_c, 12, 10, 70
1, 189414, Note_on_c, 5, 86, 0
1, 189426, Note_on_c, 9, 42, 0
1, 189442, Note_on_c, 12, 53, 0
1, 189458, Control_c, 12, 10, 77
1, 189498, Note_on_c, 5, 74, 0
1, 189504, Note_on_c, 1, 38, 92
1, 189504, Note_on_c, 5, 69, 64
1, 189504, Note_on_c, 9, 46, 92
1, 189504, Note_on_c, 9, 70, 80
1, 189504, Note_on_c, 12, 53, 80
1, 189506, Control_c, 5, 10, 104
1, 189506, Control_c, 12, 10, 84
1, 189522, Note_on_c, 9, 70, 0
1, 189522, Note_on_c, 9, 46, 0
1, 189547, Note_on_c, 12, 53, 0
1, 189554, Control_c, 12, 10, 92
1, 189578, Control_c, 12, 6, 85
1, 189594, Note_on_c, 1, 38, 0
1, 189600, Note_on_c, 5, 65, 80
1, 189600, Note_on_c, 12, 53, 73
1, 189602, Control_c, 5, 10, 100
1, 189602, Control_c, 12, 10, 99
1, 189619, Note_on_c, 5, 69, 0
1, 189634, Note_on_c, 12, 53, 0
1, 189650, Control_c, 12, 10, 106
1, 189690, Note_on_c, 5, 65, 0
1, 189696, Note_on_c, 1, 26, 66
1, 189696, Note_on_c, 3, 74, 107
1, 189696, Note_on_c, 5, 62, 59
1, 189696, Note_on_c, 9, 27, 127
1, 189696, Note_on_c, 9, 45, 107
1, 189696, Note_on_c, 9, 36, 127
1, 189696, Note_on_c, 9, 42, 66
1, 189696, Note_on_c, 9, 70, 92
1, 189696, Note_on_c, 12, 53, 80
1, 189698, Control_c, 5, 10, 96
1, 189698, Control_c, 12, 10, 113
1, 189714, Note_on_c, 9, 70, 0
1, 189714, Note_on_c, 9, 27, 0
1, 189714, Note_on_c, 9, 42, 0
1, 189714, Note_on_c, 9, 45, 0
1, 189714, Note_on_c, 9, 36, 0
1, 189730, Note_on_c, 3, 76, 0
1, 189739, Note_on_c, 12, 53, 0
1, 189746, Control_c, 12, 10, 120
1, 189786, Note_on_c, 5, 62, 0
1, 189786, Note_on_c, 1, 26, 0
1, 189792, Note_on_c, 5, 69, 74
1, 189792, Note_on_c, 9, 42, 75
1, 189792, Note_on_c, 12, 53, 73
1, 189794, Control_c, 5, 10, 92
1, 189794, Control_c, 12, 6, 110
1, 189810, Note_on_c, 9, 42, 0
1, 189826, Note_on_c, 12, 53, 0
1, 189882, Note_on_c, 5, 69, 0
1, 189888, Note_on_c, 1, 38, 92
1, 189888, Note_on_c, 5, 72, 64
1, 189888, Note_on_c, 9, 46, 107
1, 189888, Note_on_c, 9, 70, 20
1, 189890, Control_c, 5, 10, 88
1, 189906, Note_on_c, 9, 70, 0
1, 189906, Note_on_c, 9, 46, 0
1, 189978, Note_on_c, 1, 38, 0
1, 189984, Note_on_c, 5, 77, 80
1, 189984, Note_on_c, 9, 70, 49
1, 189986, Control_c, 5, 10, 84
1, 190002, Note_on_c, 9, 70, 0
1, 190003, Note_on_c, 5, 72, 0
1, 190074, Note_on_c, 5, 77, 0
1, 190080, Note_on_c, 1, 26, 66
1, 190080, Note_on_c, 3, 72, 87
1, 190080, Note_on_c, 5, 77, 74
1, 190080, Note_on_c, 5, 86, 74
1, 190080, Note_on_c, 9, 27, 127
1, 190080, Note_on_c, 9, 39, 127
1, 190080, Note_on_c, 9, 38, 127
1, 190080, Note_on_c, 9, 45, 107
1, 190080, Note_on_c, 9, 36, 127
1, 190080, Note_on_c, 9, 42, 66
1, 190080, Note_on_c, 9, 70, 76
1, 190082, Note_on_c, 3, 74, 0
1, 190082, Control_c, 5, 10, 80
1, 190098, Note_on_c, 9, 70, 0
1, 190098, Note_on_c, 9, 42, 0
1, 190098, Note_on_c, 9, 38, 0
1, 190098, Note_on_c, 9, 27, 0
1, 190098, Note_on_c, 9, 36, 0
1, 190098, Note_on_c, 9, 39, 0
1, 190098, Note_on_c, 9, 45, 0
1, 190170, Note_on_c, 5, 77, 0
1, 190170, Note_on_c, 1, 26, 0
1, 190176, Note_on_c, 9, 42, 75
1, 190178, Control_c, 5, 10, 76
1, 190182, Note_on_c, 5, 86, 0
1, 190194, Note_on_c, 9, 42, 0
1, 190272, Note_on_c, 1, 38, 89
1, 190272, Note_on_c, 5, 72, 64
1, 190272, Note_on_c, 9, 46, 107
1, 190272, Note_on_c, 9, 70, 66
1, 190274, Control_c, 5, 10, 72
1, 190290, Note_on_c, 9, 70, 0
1, 190290, Note_on_c, 9, 46, 0
1, 190366, Note_on_c, 1, 38, 0
1, 190368, Note_on_c, 5, 69, 80
1, 190370, Control_c, 5, 10, 68
1, 190370, Control_c, 12, 6, 10
1, 190374, Note_on_c, 2, 60, 0
1, 190374, Note_on_c, 2, 57, 0
1, 190387, Note_on_c, 5, 72, 0
1, 190416, Note_on_c, 2, 45, 61
1, 190416, Note_on_c, 2, 57, 61
1, 190416, Note_on_c, 2, 60, 61
1, 190416, Note_on_c, 2, 64, 61
1, 190419, Note_on_c, 2, 50, 0
1, 190438, Note_on_c, 2, 38, 0
1, 190458, Note_on_c, 5, 69, 0
1, 190464, Note_on_c, 1, 33, 63
1, 190464, Note_on_c, 3, 69, 82
1, 190464, Note_on_c, 5, 60, 59
1, 190464, Note_on_c, 9, 27, 127
1, 190464, Note_on_c, 9, 45, 107
1, 190464, Note_on_c, 9, 36, 127
1, 190464, Note_on_c, 9, 42, 66
1, 190464, Note_on_c, 9, 70, 92
1, 190464, Note_on_c, 12, 57, 80
1, 190466, Control_c, 5, 10, 64
1, 190466, Pitch_bend_c, 8, 8192
1, 190466, Control_c, 12, 10, 125
1, 190471, Note_on_c, 3, 72, 0
1, 190482, Note_on_c, 9, 45, 0
1, 190482, Note_on_c, 9, 27, 0
1, 190482, Note_on_c, 9, 70, 0
1, 190482, Note_on_c, 9, 36, 0
1, 190482, Note_on_c, 9, 42, 0
1, 190507, Note_on_c, 12, 57, 0
1, 190514, Control_c, 12, 10, 119
1, 190551, Note_on_c, 1, 33, 0
1, 190554, Note_on_c, 5, 60, 0
1, 190560, Note_on_c, 5, 69, 74
1, 190560, Note_on_c, 9, 42, 75
1, 190560, Note_on_c, 12, 57, 73
1, 190562, Control_c, 5, 10, 60
1, 190562, Control_c, 12, 10, 113
1, 190562, Control_c, 12, 6, 25
1, 190578, Note_on_c, 9, 42, 0
1, 190594, Note_on_c, 12, 57, 0
1, 190610, Control_c, 12, 10, 107
1, 190650, Note_on_c, 5, 69, 0
1, 190656, Note_on_c, 1, 45, 89
1, 190656, Note_on_c, 5, 72, 64
1, 190656, Note_on_c, 9, 46, 107
1, 190656, Note_on_c, 12, 57, 80
1, 190658, Control_c, 5, 10, 56
1, 190658, Control_c, 12, 10, 101
1, 190674, Note_on_c, 9, 46, 0
1, 190699, Note_on_c, 12, 57, 0
1, 190706, Control_c, 12, 10, 95
1, 190730, Control_c, 12, 6, 40
1, 190746, Note_on_c, 1, 45, 0
1, 190752, Note_on_c, 9, 70, 44
1, 190752, Note_on_c, 12, 57, 73
1, 190754, Control_c, 5, 10, 52
1, 190754, Control_c, 12, 10, 89
1, 190770, Note_on_c, 9, 70, 0
1, 190771, Note_on_c, 5, 72, 0
1, 190786, Note_on_c, 12, 57, 0
1, 190802, Control_c, 12, 10, 83
1, 190848, Note_on_c, 1, 33, 63
1, 190848, Note_on_c, 5, 76, 80
1, 190848, Note_on_c, 9, 27, 127
1, 190848, Note_on_c, 9, 39, 127
1, 190848, Note_on_c, 9, 38, 127
1, 190848, Note_on_c, 9, 45, 107
1, 190848, Note_on_c, 9, 36, 127
1, 190848, Note_on_c, 9, 42, 66
1, 190848, Note_on_c, 9, 70, 92
1, 190848, Note_on_c, 12, 57, 80
1, 190850, Control_c, 5, 10, 48
1, 190850, Control_c, 12, 10, 77
1, 190866, Note_on_c, 9, 70, 0
1, 190866, Note_on_c, 9, 39, 0
1, 190866, Note_on_c, 9, 45, 0
1, 190866, Note_on_c, 9, 27, 0
1, 190866, Note_on_c, 9, 42, 0
1, 190866, Note_on_c, 9, 38, 0
1, 190866, Note_on_c, 9, 36, 0
1, 190891, Note_on_c, 12, 57, 0
1, 190898, Control_c, 12, 10, 71
1, 190934, Control_c, 12, 6, 60
1, 190938, Note_on_c, 1, 33, 0
1, 190938, Note_on_c, 5, 76, 0
1, 190944, Note_on_c, 5, 72, 74
1, 190944, Note_on_c, 9, 42, 75
1, 190944, Note_on_c, 12, 57, 73
1, 190946, Control_c, 5, 10, 44
1, 190946, Control_c, 12, 10, 65
1, 190962, Note_on_c, 9, 42, 0
1, 190978, Note_on_c, 12, 57, 0
1, 190994, Control_c, 12, 10, 59
1, 191034, Note_on_c, 5, 72, 0
1, 191034, Note_on_c, 3, 69, 0
1, 191040, Note_on_c, 1, 45, 89
1, 191040, Note_on_c, 5, 69, 64
1, 191040, Note_on_c, 9, 46, 107
1, 191040, Note_on_c, 9, 70, 80
1, 191040, Note_on_c, 12, 57, 80
1, 191042, Control_c, 5, 10, 40
1, 191042, Control_c, 12, 10, 53
1, 191058, Note_on_c, 9, 70, 0
1, 191058, Note_on_c, 9, 46, 0
1, 191083, Note_on_c, 12, 57, 0
1, 191090, Control_c, 12, 10, 47
1, 191114, Control_c, 12, 6, 85
1, 191130, Note_on_c, 1, 45, 0
1, 191136, Note_on_c, 5, 64, 80
1, 191136, Note_on_c, 12, 57, 73
1, 191138, Control_c, 5, 10, 36
1, 191138, Control_c, 12, 10, 41
1, 191155, Note_on_c, 5, 69, 0
1, 191170, Note_on_c, 12, 57, 0
1, 191186, Control_c, 12, 10, 35
1, 191226, Note_on_c, 5, 64, 0
1, 191232, Note_on_c, 1, 33, 63
1, 191232, Note_on_c, 3, 67, 61
1, 191232, Note_on_c, 5, 60, 59
1, 191232, Note_on_c, 9, 27, 127
1, 191232, Note_on_c, 9, 45, 107
1, 191232, Note_on_c, 9, 36, 127
1, 191232, Note_on_c, 9, 42, 66
1, 191232, Note_on_c, 9, 70, 86
1, 191232, Note_on_c, 12, 57, 80
1, 191234, Control_c, 5, 10, 32
1, 191234, Control_c, 12, 10, 29
1, 191250, Note_on_c, 9, 70, 0
1, 191250, Note_on_c, 9, 45, 0
1, 191250, Note_on_c, 9, 27, 0
1, 191250, Note_on_c, 9, 42, 0
1, 191250, Note_on_c, 9, 36, 0
1, 191275, Note_on_c, 12, 57, 0
1, 191282, Control_c, 12, 10, 23
1, 191322, Note_on_c, 1, 33, 0
1, 191322, Note_on_c, 5, 60, 0
1, 191328, Note_on_c, 5, 69, 74
1, 191328, Note_on_c, 9, 42, 75
1, 191328, Note_on_c, 12, 57, 73
1, 191330, Control_c, 5, 10, 28
1, 191330, Control_c, 12, 10, 17
1, 191330, Control_c, 12, 6, 110
1, 191346, Note_on_c, 9, 42, 0
1, 191362, Note_on_c, 12, 57, 0
1, 191378, Control_c, 12, 10, 11
1, 191418, Note_on_c, 5, 69, 0
1, 191424, Note_on_c, 1, 45, 86
1, 191424, Note_on_c, 5, 72, 64
1, 191424, Note_on_c, 9, 46, 107
1, 191424, Note_on_c, 9, 70, 13
1, 191426, Control_c, 5, 10, 24
1, 191426, Control_c, 12, 10, 5
1, 191442, Note_on_c, 9, 70, 0
1, 191442, Note_on_c, 9, 46, 0
1, 191514, Note_on_c, 1, 45, 0
1, 191520, Note_on_c, 9, 70, 26
1, 191522, Control_c, 5, 10, 20
1, 191538, Note_on_c, 9, 70, 0
1, 191539, Note_on_c, 5, 72, 0
1, 191540, Note_on_c, 3, 67, 0
1, 191616, Note_on_c, 1, 33, 63
1, 191616, Note_on_c, 3, 69, 78
1, 191616, Note_on_c, 5, 76, 80
1, 191616, Note_on_c, 9, 27, 127
1, 191616, Note_on_c, 9, 39, 127
1, 191616, Note_on_c, 9, 38, 127
1, 191616, Note_on_c, 9, 45, 107
1, 191616, Note_on_c, 9, 36, 127
1, 191616, Note_on_c, 9, 42, 66
1, 191616, Note_on_c, 9, 70, 92
1, 191618, Control_c, 5, 10, 16
1, 191634, Note_on_c, 9, 70, 0
1, 191634, Note_on_c, 9, 45, 0
1, 191634, Note_on_c, 9, 39, 0
1, 191634, Note_on_c, 9, 27, 0
1, 191634, Note_on_c, 9, 42, 0
1, 191634, Note_on_c, 9, 38, 0
1, 191634, Note_on_c, 9, 36, 0
1, 191706, Note_on_c, 1, 33, 0
1, 191706, Note_on_c, 5, 76, 0
1, 191712, Note_on_c, 5, 72, 74
1, 191712, Note_on_c, 9, 42, 75
1, 191714, Control_c, 5, 10, 12
1, 191730, Note_on_c, 9, 42, 0
1, 191802, Note_on_c, 5, 72, 0
1, 191808, Note_on_c, 1, 45, 86
1, 191808, Note_on_c, 5, 69, 64
1, 191808, Note_on_c, 9, 46, 107
1, 191808, Note_on_c, 9, 70, 63
1, 191810, Control_c, 5, 10, 8
1, 191826, Note_on_c, 9, 70, 0
1, 191826, Note_on_c, 9, 46, 0
1, 191902, Note_on_c, 1, 45, 0
1, 191904, Note_on_c, 5, 64, 80
1, 191904, Note_on_c, 9, 27, 127
1, 191904, Note_on_c, 9, 45, 107
1, 191904, Note_on_c, 9, 36, 127
1, 191906, Control_c, 5, 10, 4
1, 191906, Control_c, 12, 6, 10
1, 191922, Note_on_c, 9, 36, 0
1, 191922, Note_on_c, 9, 45, 0
1, 191922, Note_on_c, 9, 27, 0
1, 191923, Note_on_c, 5, 69, 0
1, 191945, Note_on_c, 2, 57, 0
1, 191945, Note_on_c, 2, 45, 0
1, 191952, Note_on_c, 2, 43, 61
1, 191952, Note_on_c, 2, 55, 61
1, 191952, Note_on_c, 2, 58, 61
1, 191952, Note_on_c, 2, 62, 61
1, 191968, Note_on_c, 2, 64, 0
1, 191973, Note_on_c, 2, 60, 0
1, 191994, Note_on_c, 5, 64, 0
1, 191994, Note_on_c, 3, 69, 0
1, 192000, Note_on_c, 1, 31, 60
1, 192000, Note_on_c, 3, 67, 76
1, 192000, Note_on_c, 5, 58, 59
1, 192000, Note_on_c, 9, 36, 127
1, 192000, Note_on_c, 9, 45, 107
1, 192000, Note_on_c, 9, 42, 66
1, 192000, Note_on_c, 9, 70, 92
1, 192000, Note_on_c, 12, 55, 80
1, 192002, Control_c, 5, 10, 2
1, 192018, Note_on_c, 9, 70, 0
1, 192018, Note_on_c, 9, 45, 0
1, 192018, Note_on_c, 9, 36, 0
1, 192018, Note_on_c, 9, 42, 0
1, 192043, Note_on_c, 12, 55, 0
1, 192050, Control_c, 12, 10, 5
1, 192087, Note_on_c, 1, 31, 0
1, 192090, Note_on_c, 5, 58, 0
1, 192096, Note_on_c, 5, 62, 68
1, 192096, Note_on_c, 9, 42, 75
1, 192096, Note_on_c, 12, 55, 73
1, 192098, Control_c, 5, 10, 6
1, 192098, Control_c, 12, 10, 13
1, 192098, Control_c, 12, 6, 25
1, 192114, Note_on_c, 9, 42, 0
1, 192130, Note_on_c, 12, 55, 0
1, 192146, Control_c, 12, 10, 20
1, 192186, Note_on_c, 5, 62, 0
1, 192192, Note_on_c, 1, 43, 92
1, 192192, Note_on_c, 5, 65, 64
1, 192192, Note_on_c, 9, 46, 107
1, 192192, Note_on_c, 12, 55, 80
1, 192194, Control_c, 5, 10, 10
1, 192194, Control_c, 12, 10, 27
1, 192210, Note_on_c, 9, 46, 0
1, 192235, Note_on_c, 12, 55, 0
1, 192242, Control_c, 12, 10, 34
1, 192266, Control_c, 12, 6, 40
1, 192282, Note_on_c, 1, 43, 0
1, 192282, Note_on_c, 5, 65, 0
1, 192288, Note_on_c, 5, 70, 64
1, 192288, Note_on_c, 9, 70, 40
1, 192288, Note_on_c, 12, 55, 73
1, 192290, Control_c, 5, 10, 14
1, 192290, Control_c, 12, 10, 41
1, 192306, Note_on_c, 9, 70, 0
1, 192322, Note_on_c, 12, 55, 0
1, 192338, Control_c, 12, 10, 49
1, 192378, Note_on_c, 5, 70, 0
1, 192384, Note_on_c, 1, 31, 66
1, 192384, Note_on_c, 5, 74, 95
1, 192384, Note_on_c, 9, 36, 127
1, 192384, Note_on_c, 9, 38, 127
1, 192384, Note_on_c, 9, 39, 127
1, 192384, Note_on_c, 9, 45, 107
1, 192384, Note_on_c, 9, 42, 66
1, 192384, Note_on_c, 9, 70, 86
1, 192384, Note_on_c, 12, 55, 80
1, 192386, Control_c, 5, 10, 18
1, 192386, Control_c, 12, 10, 56
1, 192398, Control_c, 2, 64, 127
1, 192398, Control_c, 2, 64, 127
1, 192398, Control_c, 2, 64, 127
1, 192398, Control_c, 2, 64, 127
1, 192398, Control_c, 2, 64, 127
1, 192398, Control_c, 2, 64, 127
1, 192398, Control_c, 2, 64, 127
1, 192398, Control_c, 2, 64, 127
1, 192398, Control_c, 2, 64, 127
1, 192398, Control_c, 2, 64, 127
1, 192398, Control_c, 2, 64, 127
1, 192398, Control_c, 2, 64, 127
1, 192398, Control_c, 2, 64, 127
1, 192398, Control_c, 2, 64, 127
1, 192398, Control_c, 2, 64, 127
1, 192402, Note_on_c, 9, 70, 0
1, 192402, Note_on_c, 9, 38, 0
1, 192402, Note_on_c, 9, 36, 0
1, 192402, Note_on_c, 9, 42, 0
1, 192402, Note_on_c, 9, 39, 0
1, 192402, Note_on_c, 9, 45, 0
1, 192427, Note_on_c, 12, 55, 0
1, 192434, Control_c, 12, 10, 63
1, 192470, Control_c, 12, 6, 60
1, 192474, Note_on_c, 1, 31, 0
1, 192474, Note_on_c, 5, 74, 0
1, 192480, Note_on_c, 5, 65, 68
1, 192480, Note_on_c, 9, 42, 75
1, 192480, Note_on_c, 12, 55, 73
1, 192482, Control_c, 5, 10, 22
1, 192482, Control_c, 12, 10, 70
1, 192498, Note_on_c, 9, 42, 0
1, 192514, Note_on_c, 12, 55, 0
1, 192530, Control_c, 12, 10, 77
1, 192568, Note_on_c, 3, 67, 0
1, 192570, Note_on_c, 5, 65, 0
1, 192576, Note_on_c, 1, 43, 92
1, 192576, Note_on_c, 5, 62, 59
1, 192576, Note_on_c, 9, 46, 92
1, 192576, Note_on_c, 9, 70, 80
1, 192576, Note_on_c, 12, 55, 80
1, 192578, Control_c, 5, 10, 26
1, 192578, Control_c, 12, 10, 84
1, 192594, Note_on_c, 9, 70, 0
1, 192594, Note_on_c, 9, 46, 0
1, 192619, Note_on_c, 12, 55, 0
1, 192626, Control_c, 12, 10, 92
1, 192648, Note_on_c, 2, 58, 0
1, 192650, Control_c, 12, 6, 85
1, 192664, Note_on_c, 2, 43, 0
1, 192666, Note_on_c, 1, 43, 0
1, 192666, Note_on_c, 5, 62, 0
1, 192672, Note_on_c, 5, 65, 53
1, 192672, Note_on_c, 12, 55, 73
1, 192674, Control_c, 5, 10, 30
1, 192674, Control_c, 12, 10, 99
1, 192694, Control_c, 2, 64, 0
1, 192694, Control_c, 2, 64, 0
1, 192696, Control_c, 2, 64, 0
1, 192697, Control_c, 2, 64, 0
1, 192698, Control_c, 2, 64, 0
1, 192698, Control_c, 2, 64, 0
1, 192698, Control_c, 2, 64, 0
1, 192698, Control_c, 2, 64, 0
1, 192698, Control_c, 2, 64, 0
1, 192698, Control_c, 2, 64, 0
1, 192698, Control_c, 2, 64, 0
1, 192698, Control_c, 2, 64, 0
1, 192698, Control_c, 2, 64, 0
1, 192698, Control_c, 2, 64, 0
1, 192698, Control_c, 2, 64, 0
1, 192706, Note_on_c, 12, 55, 0
1, 192720, Note_on_c, 2, 45, 61
1, 192720, Note_on_c, 2, 57, 61
1, 192720, Note_on_c, 2, 60, 61
1, 192720, Note_on_c, 2, 64, 61
1, 192722, Control_c, 12, 10, 106
1, 192726, Note_on_c, 2, 62, 0
1, 192726, Note_on_c, 2, 55, 0
1, 192762, Note_on_c, 5, 65, 0
1, 192768, Note_on_c, 1, 31, 66
1, 192768, Note_on_c, 3, 67, 82
1, 192768, Note_on_c, 5, 58, 64
1, 192768, Note_on_c, 9, 36, 127
1, 192768, Note_on_c, 9, 45, 107
1, 192768, Note_on_c, 9, 42, 66
1, 192768, Note_on_c, 9, 70, 92
1, 192768, Note_on_c, 12, 55, 80
1, 192770, Control_c, 5, 10, 34
1, 192770, Control_c, 12, 10, 113
1, 192786, Note_on_c, 9, 70, 0
1, 192786, Note_on_c, 9, 45, 0
1, 192786, Note_on_c, 9, 36, 0
1, 192786, Note_on_c, 9, 42, 0
1, 192811, Note_on_c, 12, 55, 0
1, 192818, Control_c, 12, 10, 120
1, 192858, Note_on_c, 1, 31, 0
1, 192858, Note_on_c, 5, 58, 0
1, 192864, Note_on_c, 5, 65, 65
1, 192864, Note_on_c, 9, 42, 75
1, 192864, Note_on_c, 12, 55, 73
1, 192866, Control_c, 5, 10, 38
1, 192866, Control_c, 12, 6, 110
1, 192882, Note_on_c, 9, 42, 0
1, 192898, Note_on_c, 12, 55, 0
1, 192954, Note_on_c, 5, 65, 0
1, 192960, Note_on_c, 1, 43, 92
1, 192960, Note_on_c, 5, 70, 65
1, 192960, Note_on_c, 9, 46, 107
1, 192960, Note_on_c, 9, 70, 20
1, 192962, Control_c, 5, 10, 42
1, 192978, Note_on_c, 9, 70, 0
1, 192978, Note_on_c, 9, 46, 0
1, 193050, Note_on_c, 1, 43, 0
1, 193050, Note_on_c, 5, 70, 0
1, 193056, Note_on_c, 5, 65, 65
1, 193056, Note_on_c, 9, 70, 49
1, 193058, Control_c, 5, 10, 45
1, 193074, Note_on_c, 9, 70, 0
1, 193081, Note_on_c, 2, 45, 0
1, 193104, Note_on_c, 2, 46, 61
1, 193104, Note_on_c, 2, 58, 61
1, 193104, Note_on_c, 2, 62, 61
1, 193104, Note_on_c, 2, 65, 61
1, 193106, Note_on_c, 2, 64, 0
1, 193106, Note_on_c, 2, 57, 0
1, 193106, Note_on_c, 2, 60, 0
1, 193112, Note_on_c, 3, 67, 0
1, 193146, Note_on_c, 5, 65, 0
1, 193152, Note_on_c, 1, 31, 66
1, 193152, Note_on_c, 3, 69, 65
1, 193152, Note_on_c, 5, 74, 95
1, 193152, Note_on_c, 9, 45, 107
1, 193152, Note_on_c, 9, 38, 127
1, 193152, Note_on_c, 9, 39, 127
1, 193152, Note_on_c, 9, 36, 127
1, 193152, Note_on_c, 9, 42, 66
1, 193152, Note_on_c, 9, 70, 76
1, 193154, Control_c, 5, 10, 49
1, 193170, Note_on_c, 9, 70, 0
1, 193170, Note_on_c, 9, 38, 0
1, 193170, Note_on_c, 9, 45, 0
1, 193170, Note_on_c, 9, 42, 0
1, 193170, Note_on_c, 9, 39, 0
1, 193170, Note_on_c, 9, 36, 0
1, 193242, Note_on_c, 1, 31, 0
1, 193242, Note_on_c, 5, 74, 0
1, 193248, Note_on_c, 5, 65, 71
1, 193248, Note_on_c, 9, 42, 75
1, 193250, Control_c, 5, 10, 53
1, 193266, Note_on_c, 9, 42, 0
1, 193338, Note_on_c, 5, 65, 0
1, 193344, Note_on_c, 1, 43, 89
1, 193344, Note_on_c, 5, 58, 56
1, 193344, Note_on_c, 9, 46, 107
1, 193344, Note_on_c, 9, 70, 66
1, 193346, Control_c, 5, 10, 57
1, 193362, Note_on_c, 9, 70, 0
1, 193362, Note_on_c, 9, 46, 0
1, 193434, Note_on_c, 5, 58, 0
1, 193438, Note_on_c, 1, 43, 0
1, 193440, Note_on_c, 5, 62, 53
1, 193442, Control_c, 5, 10, 61
1, 193487, Control_c, 12, 6, 10
1, 193488, Note_on_c, 2, 48, 61
1, 193488, Note_on_c, 2, 60, 61
1, 193488, Note_on_c, 2, 64, 61
1, 193488, Note_on_c, 2, 67, 61
1, 193494, Note_on_c, 2, 62, 0
1, 193494, Note_on_c, 2, 65, 0
1, 193494, Note_on_c, 2, 58, 0
1, 193511, Note_on_c, 2, 46, 0
1, 193530, Note_on_c, 3, 69, 0
1, 193530, Note_on_c, 5, 62, 0
1, 193536, Note_on_c, 1, 36, 63
1, 193536, Note_on_c, 3, 67, 69
1, 193536, Note_on_c, 5, 55, 47
1, 193536, Note_on_c, 9, 45, 107
1, 193536, Note_on_c, 9, 36, 127
1, 193536, Note_on_c, 9, 42, 66
1, 193536, Note_on_c, 9, 70, 92
1, 193536, Note_on_c, 12, 48, 80
1, 193538, Control_c, 5, 10, 65
1, 193538, Control_c, 12, 10, 125
1, 193554, Note_on_c, 9, 70, 0
1, 193554, Note_on_c, 9, 36, 0
1, 193554, Note_on_c, 9, 45, 0
1, 193554, Note_on_c, 9, 42, 0
1, 193579, Note_on_c, 12, 48, 0
1, 193586, Control_c, 12, 10, 119
1, 193623, Note_on_c, 1, 36, 0
1, 193626, Note_on_c, 5, 55, 0
1, 193632, Note_on_c, 5, 58, 64
1, 193632, Note_on_c, 9, 42, 75
1, 193632, Note_on_c, 12, 48, 73
1, 193634, Control_c, 5, 10, 69
1, 193634, Control_c, 12, 10, 113
1, 193650, Note_on_c, 9, 42, 0
1, 193666, Note_on_c, 12, 48, 0
1, 193679, Control_c, 12, 6, 25
1, 193682, Control_c, 12, 10, 107
1, 193722, Note_on_c, 5, 58, 0
1, 193728, Note_on_c, 1, 48, 89
1, 193728, Note_on_c, 5, 60, 64
1, 193728, Note_on_c, 9, 46, 107
1, 193728, Note_on_c, 12, 48, 80
1, 193730, Control_c, 5, 10, 73
1, 193730, Control_c, 12, 10, 101
1, 193746, Note_on_c, 9, 46, 0
1, 193771, Note_on_c, 12, 48, 0
1, 193778, Control_c, 12, 10, 95
1, 193818, Note_on_c, 1, 48, 0
1, 193818, Note_on_c, 5, 60, 0
1, 193824, Note_on_c, 5, 62, 80
1, 193824, Note_on_c, 9, 70, 44
1, 193824, Note_on_c, 12, 48, 73
1, 193826, Control_c, 5, 10, 77
1, 193826, Control_c, 12, 10, 89
1, 193842, Note_on_c, 9, 70, 0
1, 193847, Control_c, 12, 6, 40
1, 193858, Note_on_c, 12, 48, 0
1, 193874, Control_c, 12, 10, 83
1, 193892, Note_on_c, 3, 67, 0
1, 193914, Note_on_c, 5, 62, 0
1, 193920, Note_on_c, 1, 36, 63
1, 193920, Note_on_c, 5, 67, 68
1, 193920, Note_on_c, 9, 45, 107
1, 193920, Note_on_c, 9, 38, 127
1, 193920, Note_on_c, 9, 39, 127
1, 193920, Note_on_c, 9, 36, 127
1, 193920, Note_on_c, 9, 42, 66
1, 193920, Note_on_c, 9, 70, 92
1, 193920, Note_on_c, 12, 48, 80
1, 193922, Control_c, 5, 10, 81
1, 193922, Control_c, 12, 10, 77
1, 193938, Note_on_c, 9, 70, 0
1, 193938, Note_on_c, 9, 39, 0
1, 193938, Note_on_c, 9, 38, 0
1, 193938, Note_on_c, 9, 45, 0
1, 193938, Note_on_c, 9, 42, 0
1, 193938, Note_on_c, 9, 36, 0
1, 193963, Note_on_c, 12, 48, 0
1, 193970, Control_c, 12, 10, 71
1, 194010, Note_on_c, 5, 67, 0
1, 194010, Note_on_c, 1, 36, 0
1, 194016, Note_on_c, 5, 70, 65
1, 194016, Note_on_c, 9, 42, 75
1, 194016, Note_on_c, 12, 48, 73
1, 194018, Control_c, 5, 10, 85
1, 194018, Control_c, 12, 10, 65
1, 194034, Note_on_c, 9, 42, 0
1, 194050, Note_on_c, 12, 48, 0
1, 194051, Control_c, 12, 6, 60
1, 194066, Control_c, 12, 10, 59
1, 194106, Note_on_c, 5, 70, 0
1, 194112, Note_on_c, 1, 48, 89
1, 194112, Note_on_c, 5, 74, 64
1, 194112, Note_on_c, 9, 46, 107
1, 194112, Note_on_c, 9, 70, 80
1, 194112, Note_on_c, 12, 48, 80
1, 194114, Control_c, 5, 10, 88
1, 194114, Control_c, 12, 10, 53
1, 194130, Note_on_c, 9, 70, 0
1, 194130, Note_on_c, 9, 46, 0
1, 194155, Note_on_c, 12, 48, 0
1, 194162, Control_c, 12, 10, 47
1, 194202, Note_on_c, 5, 74, 0
1, 194202, Note_on_c, 1, 48, 0
1, 194208, Note_on_c, 5, 77, 71
1, 194208, Note_on_c, 12, 48, 73
1, 194210, Control_c, 5, 10, 92
1, 194210, Control_c, 12, 10, 41
1, 194231, Control_c, 12, 6, 85
1, 194242, Note_on_c, 12, 48, 0
1, 194258, Control_c, 12, 10, 35
1, 194298, Note_on_c, 5, 77, 0
1, 194304, Note_on_c, 1, 36, 63
1, 194304, Note_on_c, 3, 65, 89
1, 194304, Note_on_c, 5, 79, 80
1, 194304, Note_on_c, 9, 45, 107
1, 194304, Note_on_c, 9, 36, 127
1, 194304, Note_on_c, 9, 42, 66
1, 194304, Note_on_c, 9, 70, 86
1, 194304, Note_on_c, 12, 48, 80
1, 194306, Control_c, 5, 10, 96
1, 194306, Control_c, 12, 10, 29
1, 194322, Note_on_c, 9, 70, 0
1, 194322, Note_on_c, 9, 36, 0
1, 194322, Note_on_c, 9, 45, 0
1, 194322, Note_on_c, 9, 42, 0
1, 194347, Note_on_c, 12, 48, 0
1, 194354, Control_c, 12, 10, 23
1, 194394, Note_on_c, 1, 36, 0
1, 194394, Note_on_c, 5, 79, 0
1, 194400, Note_on_c, 5, 74, 71
1, 194400, Note_on_c, 9, 42, 75
1, 194400, Note_on_c, 12, 48, 73
1, 194402, Control_c, 5, 10, 100
1, 194402, Control_c, 12, 10, 17
1, 194418, Note_on_c, 9, 42, 0
1, 194434, Note_on_c, 12, 48, 0
1, 194447, Control_c, 12, 6, 110
1, 194450, Control_c, 12, 10, 11
1, 194490, Note_on_c, 5, 74, 0
1, 194496, Note_on_c, 1, 48, 86
1, 194496, Note_on_c, 5, 72, 71
1, 194496, Note_on_c, 9, 46, 107
1, 194496, Note_on_c, 9, 70, 13
1, 194498, Control_c, 5, 10, 104
1, 194498, Control_c, 12, 10, 5
1, 194514, Note_on_c, 9, 70, 0
1, 194514, Note_on_c, 9, 46, 0
1, 194586, Note_on_c, 1, 48, 0
1, 194586, Note_on_c, 5, 72, 0
1, 194592, Note_on_c, 5, 70, 65
1, 194592, Note_on_c, 9, 70, 26
1, 194594, Control_c, 5, 10, 108
1, 194610, Note_on_c, 9, 70, 0
1, 194654, Note_on_c, 3, 65, 0
1, 194682, Note_on_c, 5, 70, 0
1, 194688, Note_on_c, 1, 36, 63
1, 194688, Note_on_c, 3, 69, 76
1, 194688, Note_on_c, 5, 67, 68
1, 194688, Note_on_c, 9, 45, 107
1, 194688, Note_on_c, 9, 38, 127
1, 194688, Note_on_c, 9, 39, 127
1, 194688, Note_on_c, 9, 36, 127
1, 194688, Note_on_c, 9, 42, 66
1, 194688, Note_on_c, 9, 70, 92
1, 194690, Control_c, 5, 10, 112
1, 194706, Note_on_c, 9, 70, 0
1, 194706, Note_on_c, 9, 38, 0
1, 194706, Note_on_c, 9, 45, 0
1, 194706, Note_on_c, 9, 42, 0
1, 194706, Note_on_c, 9, 39, 0
1, 194706, Note_on_c, 9, 36, 0
1, 194778, Note_on_c, 1, 36, 0
1, 194778, Note_on_c, 5, 67, 0
1, 194784, Note_on_c, 5, 62, 80
1, 194784, Note_on_c, 9, 42, 75
1, 194786, Control_c, 5, 10, 116
1, 194802, Note_on_c, 9, 42, 0
1, 194874, Note_on_c, 5, 62, 0
1, 194880, Note_on_c, 1, 48, 86
1, 194880, Note_on_c, 5, 67, 80
1, 194880, Note_on_c, 9, 46, 107
1, 194880, Note_on_c, 9, 70, 63
1, 194882, Control_c, 5, 10, 120
1, 194898, Note_on_c, 9, 70, 0
1, 194898, Note_on_c, 9, 46, 0
1, 194905, Note_on_c, 2, 67, 0
1, 194970, Note_on_c, 5, 67, 0
1, 194970, Note_on_c, 3, 69, 0
1, 194974, Note_on_c, 1, 48, 0
1, 194976, Note_on_c, 5, 62, 80
1, 194978, Control_c, 5, 10, 124
1, 194978, Control_c, 12, 6, 10
1, 195024, Note_on_c, 2, 50, 61
1, 195024, Note_on_c, 2, 57, 61
1, 195024, Note_on_c, 2, 62, 61
1, 195024, Note_on_c, 2, 67, 61
1, 195030, Note_on_c, 2, 48, 0
1, 195030, Note_on_c, 2, 60, 0
1, 195030, Note_on_c, 2, 64, 0
1, 195066, Note_on_c, 5, 62, 0
1, 195072, Note_on_c, 1, 38, 60
1, 195072, Note_on_c, 3, 69, 80
1, 195072, Note_on_c, 5, 55, 59
1, 195072, Note_on_c, 9, 45, 107
1, 195072, Note_on_c, 9, 36, 127
1, 195072, Note_on_c, 9, 42, 66
1, 195072, Note_on_c, 9, 70, 92
1, 195072, Note_on_c, 12, 50, 80
1, 195074, Control_c, 5, 10, 127
1, 195074, Control_c, 5, 11, 127
1, 195090, Note_on_c, 9, 70, 0
1, 195090, Note_on_c, 9, 36, 0
1, 195090, Note_on_c, 9, 45, 0
1, 195090, Note_on_c, 9, 42, 0
1, 195115, Note_on_c, 12, 50, 0
1, 195122, Control_c, 12, 10, 5
1, 195159, Note_on_c, 1, 38, 0
1, 195162, Note_on_c, 5, 55, 0
1, 195168, Note_on_c, 5, 62, 74
1, 195168, Note_on_c, 9, 42, 75
1, 195168, Note_on_c, 12, 50, 73
1, 195170, Control_c, 5, 10, 124
1, 195170, Control_c, 12, 10, 13
1, 195170, Control_c, 12, 6, 25
1, 195186, Note_on_c, 9, 42, 0
1, 195202, Note_on_c, 12, 50, 0
1, 195218, Control_c, 12, 10, 20
1, 195258, Note_on_c, 5, 62, 0
1, 195264, Note_on_c, 1, 50, 92
1, 195264, Note_on_c, 5, 67, 64
1, 195264, Note_on_c, 9, 46, 107
1, 195264, Note_on_c, 12, 50, 80
1, 195266, Control_c, 5, 10, 120
1, 195266, Control_c, 12, 10, 27
1, 195282, Note_on_c, 9, 46, 0
1, 195307, Note_on_c, 12, 50, 0
1, 195314, Control_c, 12, 10, 34
1, 195338, Control_c, 12, 6, 40
1, 195354, Note_on_c, 1, 50, 0
1, 195360, Note_on_c, 5, 69, 64
1, 195360, Note_on_c, 9, 70, 40
1, 195360, Note_on_c, 12, 50, 73
1, 195362, Control_c, 5, 10, 116
1, 195362, Control_c, 12, 10, 41
1, 195378, Note_on_c, 9, 70, 0
1, 195379, Note_on_c, 5, 67, 0
1, 195394, Note_on_c, 12, 50, 0
1, 195410, Control_c, 12, 10, 49
1, 195450, Note_on_c, 5, 69, 0
1, 195456, Note_on_c, 1, 38, 66
1, 195456, Note_on_c, 5, 79, 92
1, 195456, Note_on_c, 9, 45, 107
1, 195456, Note_on_c, 9, 36, 127
1, 195456, Note_on_c, 9, 38, 127
1, 195456, Note_on_c, 9, 39, 127
1, 195456, Note_on_c, 9, 42, 66
1, 195456, Note_on_c, 9, 70, 86
1, 195456, Note_on_c, 12, 50, 80
1, 195458, Control_c, 5, 10, 112
1, 195458, Control_c, 12, 10, 56
1, 195474, Note_on_c, 9, 70, 0
1, 195474, Note_on_c, 9, 36, 0
1, 195474, Note_on_c, 9, 45, 0
1, 195474, Note_on_c, 9, 42, 0
1, 195474, Note_on_c, 9, 38, 0
1, 195474, Note_on_c, 9, 39, 0
1, 195499, Note_on_c, 12, 50, 0
1, 195506, Control_c, 12, 10, 63
1, 195542, Control_c, 12, 6, 60
1, 195546, Note_on_c, 1, 38, 0
1, 195546, Note_on_c, 5, 79, 0
1, 195552, Note_on_c, 5, 69, 64
1, 195552, Note_on_c, 9, 42, 75
1, 195552, Note_on_c, 12, 50, 73
1, 195554, Control_c, 5, 10, 108
1, 195554, Control_c, 12, 10, 70
1, 195570, Note_on_c, 9, 42, 0
1, 195586, Note_on_c, 12, 50, 0
1, 195602, Control_c, 12, 10, 77
1, 195642, Note_on_c, 5, 69, 0
1, 195648, Note_on_c, 1, 50, 92
1, 195648, Note_on_c, 5, 65, 64
1, 195648, Note_on_c, 9, 46, 92
1, 195648, Note_on_c, 9, 70, 80
1, 195648, Note_on_c, 12, 50, 80
1, 195650, Control_c, 5, 10, 104
1, 195650, Control_c, 12, 10, 84
1, 195666, Note_on_c, 9, 70, 0
1, 195666, Note_on_c, 9, 46, 0
1, 195691, Note_on_c, 12, 50, 0
1, 195698, Control_c, 12, 10, 92
1, 195722, Control_c, 12, 6, 85
1, 195738, Note_on_c, 1, 50, 0
1, 195744, Note_on_c, 5, 62, 74
1, 195744, Note_on_c, 12, 50, 73
1, 195746, Control_c, 5, 10, 100
1, 195746, Control_c, 12, 10, 99
1, 195763, Note_on_c, 5, 65, 0
1, 195778, Note_on_c, 12, 50, 0
1, 195792, Note_on_c, 2, 66, 61
1, 195794, Control_c, 12, 10, 106
1, 195815, Note_on_c, 2, 67, 0
1, 195834, Note_on_c, 5, 62, 0
1, 195840, Note_on_c, 1, 38, 66
1, 195840, Note_on_c, 5, 54, 59
1, 195840, Note_on_c, 9, 45, 107
1, 195840, Note_on_c, 9, 36, 127
1, 195840, Note_on_c, 9, 42, 66
1, 195840, Note_on_c, 9, 70, 92
1, 195840, Note_on_c, 12, 50, 80
1, 195842, Control_c, 5, 10, 96
1, 195842, Control_c, 12, 10, 113
1, 195858, Note_on_c, 9, 70, 0
1, 195858, Note_on_c, 9, 36, 0
1, 195858, Note_on_c, 9, 45, 0
1, 195858, Note_on_c, 9, 42, 0
1, 195883, Note_on_c, 12, 50, 0
1, 195890, Control_c, 12, 10, 120
1, 195930, Note_on_c, 1, 38, 0
1, 195930, Note_on_c, 5, 54, 0
1, 195936, Note_on_c, 5, 62, 74
1, 195936, Note_on_c, 9, 42, 75
1, 195936, Note_on_c, 12, 50, 73
1, 195938, Control_c, 5, 10, 92
1, 195938, Control_c, 12, 6, 110
1, 195954, Note_on_c, 9, 42, 0
1, 195970, Note_on_c, 12, 50, 0
1, 196026, Note_on_c, 5, 62, 0
1, 196032, Note_on_c, 1, 50, 92
1, 196032, Note_on_c, 5, 67, 64
1, 196032, Note_on_c, 9, 46, 107
1, 196032, Note_on_c, 9, 70, 20
1, 196034, Control_c, 5, 10, 88
1, 196050, Note_on_c, 9, 70, 0
1, 196050, Note_on_c, 9, 46, 0
1, 196122, Note_on_c, 1, 50, 0
1, 196128, Note_on_c, 5, 69, 64
1, 196128, Note_on_c, 9, 70, 49
1, 196130, Control_c, 5, 10, 84
1, 196146, Note_on_c, 9, 70, 0
1, 196147, Note_on_c, 5, 67, 0
1, 196218, Note_on_c, 5, 69, 0
1, 196218, Note_on_c, 3, 69, 0
1, 196224, Note_on_c, 1, 38, 66
1, 196224, Note_on_c, 5, 78, 92
1, 196224, Note_on_c, 9, 45, 107
1, 196224, Note_on_c, 9, 38, 127
1, 196224, Note_on_c, 9, 39, 127
1, 196224, Note_on_c, 9, 36, 127
1, 196224, Note_on_c, 9, 42, 66
1, 196224, Note_on_c, 9, 70, 76
1, 196226, Control_c, 5, 10, 80
1, 196242, Note_on_c, 9, 70, 0
1, 196242, Note_on_c, 9, 39, 0
1, 196242, Note_on_c, 9, 38, 0
1, 196242, Note_on_c, 9, 45, 0
1, 196242, Note_on_c, 9, 42, 0
1, 196242, Note_on_c, 9, 36, 0
1, 196314, Note_on_c, 5, 78, 0
1, 196314, Note_on_c, 1, 38, 0
1, 196320, Note_on_c, 5, 74, 64
1, 196320, Note_on_c, 9, 42, 75
1, 196322, Control_c, 5, 10, 76
1, 196338, Note_on_c, 9, 42, 0
1, 196410, Note_on_c, 5, 74, 0
1, 196416, Note_on_c, 1, 50, 89
1, 196416, Note_on_c, 5, 69, 64
1, 196416, Note_on_c, 9, 46, 107
1, 196416, Note_on_c, 9, 70, 66
1, 196418, Control_c, 5, 10, 72
1, 196434, Note_on_c, 9, 70, 0
1, 196434, Note_on_c, 9, 46, 0
1, 196510, Note_on_c, 1, 50, 0
1, 196512, Note_on_c, 5, 62, 74
1, 196514, Control_c, 5, 10, 68
1, 196514, Control_c, 12, 6, 10
1, 196531, Note_on_c, 5, 69, 0
1, 196554, Note_on_c, 2, 62, 0
1, 196560, Note_on_c, 2, 43, 61
1, 196560, Note_on_c, 2, 62, 61
1, 196560, Note_on_c, 2, 67, 61
1, 196560, Note_on_c, 2, 70, 61
1, 196562, Note_on_c, 2, 66, 0
1, 196563, Note_on_c, 2, 50, 0
1, 196572, Note_on_c, 2, 57, 0
1, 196587, Note_on_c, 2, 62, 0
1, 196602, Note_on_c, 5, 62, 0
1, 196608, Note_on_c, 1, 31, 95
1, 196608, Note_on_c, 3, 70, 101
1, 196608, Note_on_c, 5, 55, 59
1, 196608, Note_on_c, 9, 27, 127
1, 196608, Note_on_c, 9, 38, 127
1, 196608, Note_on_c, 9, 50, 127
1, 196608, Note_on_c, 9, 42, 66
1, 196608, Note_on_c, 9, 70, 92
1, 196608, Note_on_c, 12, 55, 80
1, 196610, Control_c, 5, 10, 64
1, 196610, Control_c, 5, 11, 125
1, 196610, Control_c, 12, 10, 125
1, 196626, Note_on_c, 9, 70, 0
1, 196626, Note_on_c, 9, 38, 0
1, 196626, Note_on_c, 9, 50, 0
1, 196626, Note_on_c, 9, 27, 0
1, 196626, Note_on_c, 9, 42, 0
1, 196651, Note_on_c, 12, 55, 0
1, 196658, Control_c, 12, 10, 119
1, 196698, Note_on_c, 5, 55, 0
1, 196698, Note_on_c, 1, 31, 0
1, 196704, Note_on_c, 5, 62, 74
1, 196704, Note_on_c, 9, 42, 75
1, 196704, Note_on_c, 12, 55, 73
1, 196706, Control_c, 5, 10, 60
1, 196706, Control_c, 5, 11, 120
1, 196706, Control_c, 12, 10, 113
1, 196706, Control_c, 12, 6, 25
1, 196722, Note_on_c, 9, 42, 0
1, 196738, Note_on_c, 12, 55, 0
1, 196754, Control_c, 12, 10, 107
1, 196794, Note_on_c, 5, 62, 0
1, 196800, Note_on_c, 5, 67, 64
1, 196800, Note_on_c, 9, 46, 107
1, 196800, Note_on_c, 12, 55, 80
1, 196802, Control_c, 5, 10, 56
1, 196802, Control_c, 5, 11, 116
1, 196802, Control_c, 12, 10, 101
1, 196818, Note_on_c, 9, 46, 0
1, 196843, Note_on_c, 12, 55, 0
1, 196850, Control_c, 12, 10, 95
1, 196874, Control_c, 12, 6, 40
1, 196896, Note_on_c, 5, 70, 64
1, 196896, Note_on_c, 9, 70, 44
1, 196896, Note_on_c, 12, 55, 73
1, 196898, Control_c, 5, 10, 52
1, 196898, Control_c, 5, 11, 111
1, 196898, Control_c, 12, 10, 89
1, 196914, Note_on_c, 9, 70, 0
1, 196915, Note_on_c, 5, 67, 0
1, 196917, Control_c, 2, 64, 127
1, 196917, Control_c, 2, 64, 127
1, 196917, Control_c, 2, 64, 127
1, 196917, Control_c, 2, 64, 127
1, 196919, Control_c, 2, 64, 127
1, 196919, Control_c, 2, 64, 127
1, 196920, Control_c, 2, 64, 127
1, 196920, Control_c, 2, 64, 127
1, 196921, Control_c, 2, 64, 127
1, 196921, Control_c, 2, 64, 127
1, 196923, Control_c, 2, 64, 127
1, 196923, Control_c, 2, 64, 127
1, 196924, Control_c, 2, 64, 127
1, 196924, Control_c, 2, 64, 127
1, 196925, Control_c, 2, 64, 127
1, 196925, Control_c, 2, 64, 127
1, 196927, Control_c, 2, 64, 127
1, 196927, Control_c, 2, 64, 127
1, 196928, Control_c, 2, 64, 127
1, 196928, Control_c, 2, 64, 127
1, 196929, Control_c, 2, 64, 127
1, 196929, Control_c, 2, 64, 127
1, 196929, Control_c, 2, 64, 127
1, 196929, Control_c, 2, 64, 127
1, 196930, Note_on_c, 12, 55, 0
1, 196930, Control_c, 2, 64, 127
1, 196930, Control_c, 2, 64, 127
1, 196931, Control_c, 2, 64, 127
1, 196931, Control_c, 2, 64, 127
1, 196932, Control_c, 2, 64, 127
1, 196932, Control_c, 2, 64, 127
1, 196946, Control_c, 12, 10, 83
1, 196986, Note_on_c, 5, 70, 0
1, 196992, Note_on_c, 1, 31, 95
1, 196992, Note_on_c, 5, 74, 92
1, 196992, Note_on_c, 9, 27, 127
1, 196992, Note_on_c, 9, 38, 127
1, 196992, Note_on_c, 9, 50, 127
1, 196992, Note_on_c, 9, 42, 66
1, 196992, Note_on_c, 9, 70, 92
1, 196992, Note_on_c, 12, 55, 80
1, 196994, Control_c, 5, 10, 48
1, 196994, Control_c, 5, 11, 107
1, 196994, Control_c, 12, 10, 77
1, 197010, Note_on_c, 9, 70, 0
1, 197010, Note_on_c, 9, 38, 0
1, 197010, Note_on_c, 9, 50, 0
1, 197010, Note_on_c, 9, 27, 0
1, 197010, Note_on_c, 9, 42, 0
1, 197035, Note_on_c, 12, 55, 0
1, 197042, Control_c, 12, 10, 71
1, 197078, Control_c, 12, 6, 60
1, 197082, Note_on_c, 5, 74, 0
1, 197082, Note_on_c, 1, 31, 0
1, 197088, Note_on_c, 5, 70, 64
1, 197088, Note_on_c, 9, 42, 75
1, 197088, Note_on_c, 12, 55, 73
1, 197090, Control_c, 5, 10, 44
1, 197090, Control_c, 5, 11, 102
1, 197090, Control_c, 12, 10, 65
1, 197106, Note_on_c, 9, 42, 0
1, 197122, Note_on_c, 12, 55, 0
1, 197138, Control_c, 12, 10, 59
1, 197178, Note_on_c, 5, 70, 0
1, 197184, Note_on_c, 5, 67, 64
1, 197184, Note_on_c, 9, 46, 107
1, 197184, Note_on_c, 9, 70, 80
1, 197184, Note_on_c, 12, 55, 80
1, 197186, Control_c, 5, 10, 40
1, 197186, Control_c, 5, 11, 98
1, 197186, Control_c, 12, 10, 53
1, 197202, Note_on_c, 9, 70, 0
1, 197202, Note_on_c, 9, 46, 0
1, 197227, Note_on_c, 12, 55, 0
1, 197234, Control_c, 12, 10, 47
1, 197258, Control_c, 12, 6, 85
1, 197280, Note_on_c, 1, 31, 95
1, 197280, Note_on_c, 5, 62, 74
1, 197280, Note_on_c, 9, 27, 127
1, 197280, Note_on_c, 9, 38, 127
1, 197280, Note_on_c, 9, 50, 127
1, 197280, Note_on_c, 12, 55, 73
1, 197282, Control_c, 5, 10, 36
1, 197282, Control_c, 5, 11, 93
1, 197282, Control_c, 12, 10, 41
1, 197298, Note_on_c, 9, 38, 0
1, 197298, Note_on_c, 9, 27, 0
1, 197298, Note_on_c, 9, 50, 0
1, 197299, Note_on_c, 5, 67, 0
1, 197314, Note_on_c, 12, 55, 0
1, 197322, Note_on_c, 2, 43, 0
1, 197322, Note_on_c, 2, 70, 0
1, 197322, Note_on_c, 2, 67, 0
1, 197328, Note_on_c, 2, 45, 61
1, 197328, Note_on_c, 2, 60, 61
1, 197328, Note_on_c, 2, 65, 61
1, 197328, Note_on_c, 2, 69, 61
1, 197330, Control_c, 12, 10, 35
1, 197356, Note_on_c, 3, 70, 0
1, 197370, Note_on_c, 5, 62, 0
1, 197370, Note_on_c, 1, 31, 0
1, 197376, Note_on_c, 1, 33, 95
1, 197376, Note_on_c, 3, 69, 87
1, 197376, Note_on_c, 5, 53, 59
1, 197376, Note_on_c, 9, 27, 127
1, 197376, Note_on_c, 9, 38, 127
1, 197376, Note_on_c, 9, 50, 127
1, 197376, Note_on_c, 9, 42, 66
1, 197376, Note_on_c, 9, 70, 86
1, 197378, Control_c, 5, 10, 32
1, 197378, Control_c, 5, 11, 89
1, 197378, Control_c, 12, 10, 29
1, 197390, Control_c, 2, 64, 0
1, 197390, Control_c, 2, 64, 0
1, 197390, Control_c, 2, 64, 0
1, 197390, Control_c, 2, 64, 0
1, 197390, Control_c, 2, 64, 0
1, 197390, Control_c, 2, 64, 0
1, 197390, Control_c, 2, 64, 0
1, 197390, Control_c, 2, 64, 0
1, 197390, Control_c, 2, 64, 0
1, 197390, Control_c, 2, 64, 0
1, 197390, Control_c, 2, 64, 0
1, 197390, Control_c, 2, 64, 0
1, 197390, Control_c, 2, 64, 0
1, 197390, Control_c, 2, 64, 0
1, 197390, Control_c, 2, 64, 0
1, 197390, Control_c, 2, 64, 0
1, 197390, Control_c, 2, 64, 0
1, 197390, Control_c, 2, 64, 0
1, 197390, Control_c, 2, 64, 0
1, 197390, Control_c, 2, 64, 0
1, 197390, Control_c, 2, 64, 0
1, 197390, Control_c, 2, 64, 0
1, 197390, Control_c, 2, 64, 0
1, 197390, Control_c, 2, 64, 0
1, 197390, Control_c, 2, 64, 0
1, 197390, Control_c, 2, 64, 0
1, 197390, Control_c, 2, 64, 0
1, 197390, Control_c, 2, 64, 0
1, 197390, Control_c, 2, 64, 0
1, 197390, Control_c, 2, 64, 0
1, 197394, Note_on_c, 9, 70, 0
1, 197394, Note_on_c, 9, 27, 0
1, 197394, Note_on_c, 9, 50, 0
1, 197394, Note_on_c, 9, 42, 0
1, 197394, Note_on_c, 9, 38, 0
1, 197426, Control_c, 12, 10, 23
1, 197466, Note_on_c, 5, 53, 0
1, 197466, Note_on_c, 1, 33, 0
1, 197472, Note_on_c, 5, 60, 74
1, 197472, Note_on_c, 9, 42, 75
1, 197474, Control_c, 5, 10, 28
1, 197474, Control_c, 5, 11, 84
1, 197474, Control_c, 12, 10, 17
1, 197474, Control_c, 12, 6, 110
1, 197490, Note_on_c, 9, 42, 0
1, 197522, Control_c, 12, 10, 11
1, 197562, Note_on_c, 5, 60, 0
1, 197568, Note_on_c, 1, 33, 95
1, 197568, Note_on_c, 5, 65, 64
1, 197568, Note_on_c, 9, 27, 127
1, 197568, Note_on_c, 9, 38, 127
1, 197568, Note_on_c, 9, 50, 127
1, 197568, Note_on_c, 9, 46, 107
1, 197568, Note_on_c, 9, 70, 13
1, 197570, Control_c, 5, 10, 24
1, 197570, Control_c, 5, 11, 80
1, 197570, Control_c, 12, 10, 5
1, 197586, Note_on_c, 9, 70, 0
1, 197586, Note_on_c, 9, 27, 0
1, 197586, Note_on_c, 9, 50, 0
1, 197586, Note_on_c, 9, 46, 0
1, 197586, Note_on_c, 9, 38, 0
1, 197658, Note_on_c, 1, 33, 0
1, 197664, Note_on_c, 5, 72, 64
1, 197664, Note_on_c, 9, 70, 26
1, 197666, Control_c, 5, 10, 20
1, 197666, Control_c, 5, 11, 75
1, 197682, Note_on_c, 9, 70, 0
1, 197683, Note_on_c, 5, 65, 0
1, 197744, Control_c, 2, 64, 127
1, 197744, Control_c, 2, 64, 127
1, 197744, Control_c, 2, 64, 127
1, 197744, Control_c, 2, 64, 127
1, 197744, Control_c, 2, 64, 127
1, 197744, Control_c, 2, 64, 127
1, 197744, Control_c, 2, 64, 127
1, 197744, Control_c, 2, 64, 127
1, 197744, Control_c, 2, 64, 127
1, 197744, Control_c, 2, 64, 127
1, 197744, Control_c, 2, 64, 127
1, 197744, Control_c, 2, 64, 127
1, 197744, Control_c, 2, 64, 127
1, 197744, Control_c, 2, 64, 127
1, 197744, Control_c, 2, 64, 127
1, 197744, Control_c, 2, 64, 127
1, 197744, Control_c, 2, 64, 127
1, 197744, Control_c, 2, 64, 127
1, 197744, Control_c, 2, 64, 127
1, 197744, Control_c, 2, 64, 127
1, 197744, Control_c, 2, 64, 127
1, 197744, Control_c, 2, 64, 127
1, 197744, Control_c, 2, 64, 127
1, 197744, Control_c, 2, 64, 127
1, 197744, Control_c, 2, 64, 127
1, 197744, Control_c, 2, 64, 127
1, 197744, Control_c, 2, 64, 127
1, 197744, Control_c, 2, 64, 127
1, 197744, Control_c, 2, 64, 127
1, 197744, Control_c, 2, 64, 127
1, 197754, Note_on_c, 5, 72, 0
1, 197760, Note_on_c, 1, 33, 95
1, 197760, Note_on_c, 5, 77, 92
1, 197760, Note_on_c, 9, 27, 127
1, 197760, Note_on_c, 9, 38, 127
1, 197760, Note_on_c, 9, 50, 127
1, 197760, Note_on_c, 9, 42, 66
1, 197760, Note_on_c, 9, 70, 92
1, 197762, Control_c, 5, 10, 16
1, 197762, Control_c, 5, 11, 71
1, 197778, Note_on_c, 9, 70, 0
1, 197778, Note_on_c, 9, 27, 0
1, 197778, Note_on_c, 9, 50, 0
1, 197778, Note_on_c, 9, 42, 0
1, 197778, Note_on_c, 9, 38, 0
1, 197850, Note_on_c, 5, 77, 0
1, 197850, Note_on_c, 1, 33, 0
1, 197856, Note_on_c, 5, 72, 64
1, 197856, Note_on_c, 9, 42, 75
1, 197858, Control_c, 5, 10, 12
1, 197858, Control_c, 5, 11, 66
1, 197874, Note_on_c, 9, 42, 0
1, 197946, Note_on_c, 5, 72, 0
1, 197952, Note_on_c, 1, 33, 95
1, 197952, Note_on_c, 5, 65, 64
1, 197952, Note_on_c, 9, 27, 127
1, 197952, Note_on_c, 9, 38, 127
1, 197952, Note_on_c, 9, 50, 127
1, 197952, Note_on_c, 9, 46, 107
1, 197952, Note_on_c, 9, 70, 63
1, 197954, Control_c, 5, 10, 8
1, 197954, Control_c, 5, 11, 62
1, 197970, Note_on_c, 9, 70, 0
1, 197970, Note_on_c, 9, 27, 0
1, 197970, Note_on_c, 9, 50, 0
1, 197970, Note_on_c, 9, 46, 0
1, 197970, Note_on_c, 9, 38, 0
1, 198042, Note_on_c, 1, 33, 0
1, 198048, Note_on_c, 1, 33, 95
1, 198048, Note_on_c, 5, 60, 74
1, 198048, Note_on_c, 9, 27, 127
1, 198048, Note_on_c, 9, 38, 127
1, 198048, Note_on_c, 9, 50, 127
1, 198050, Control_c, 5, 10, 4
1, 198050, Control_c, 5, 11, 58
1, 198050, Control_c, 12, 6, 10
1, 198066, Note_on_c, 9, 38, 0
1, 198066, Note_on_c, 9, 27, 0
1, 198066, Note_on_c, 9, 50, 0
1, 198067, Note_on_c, 5, 65, 0
1, 198090, Note_on_c, 2, 65, 0
1, 198096, Note_on_c, 2, 46, 61
1, 198096, Note_on_c, 2, 58, 61
1, 198096, Note_on_c, 2, 62, 61
1, 198096, Note_on_c, 2, 65, 61
1, 198102, Note_on_c, 2, 65, 0
1, 198102, Note_on_c, 2, 45, 0
1, 198102, Note_on_c, 2, 69, 0
1, 198102, Note_on_c, 2, 60, 0
1, 198104, Control_c, 2, 64, 0
1, 198104, Control_c, 2, 64, 0
1, 198104, Control_c, 2, 64, 0
1, 198104, Control_c, 2, 64, 0
1, 198104, Control_c, 2, 64, 0
1, 198104, Control_c, 2, 64, 0
1, 198104, Control_c, 2, 64, 0
1, 198104, Control_c, 2, 64, 0
1, 198104, Control_c, 2, 64, 0
1, 198104, Control_c, 2, 64, 0
1, 198104, Control_c, 2, 64, 0
1, 198104, Control_c, 2, 64, 0
1, 198104, Control_c, 2, 64, 0
1, 198104, Control_c, 2, 64, 0
1, 198104, Control_c, 2, 64, 0
1, 198104, Control_c, 2, 64, 0
1, 198104, Control_c, 2, 64, 0
1, 198104, Control_c, 2, 64, 0
1, 198104, Control_c, 2, 64, 0
1, 198104, Control_c, 2, 64, 0
1, 198104, Control_c, 2, 64, 0
1, 198104, Control_c, 2, 64, 0
1, 198104, Control_c, 2, 64, 0
1, 198104, Control_c, 2, 64, 0
1, 198104, Control_c, 2, 64, 0
1, 198104, Control_c, 2, 64, 0
1, 198104, Control_c, 2, 64, 0
1, 198104, Control_c, 2, 64, 0
1, 198104, Control_c, 2, 64, 0
1, 198104, Control_c, 2, 64, 0
1, 198138, Note_on_c, 5, 60, 0
1, 198138, Note_on_c, 1, 33, 0
1, 198138, Note_on_c, 3, 69, 0
1, 198144, Note_on_c, 1, 34, 60
1, 198144, Note_on_c, 3, 65, 89
1, 198144, Note_on_c, 4, 89, 107
1, 198144, Note_on_c, 5, 58, 64
1, 198144, Note_on_c, 9, 27, 127
1, 198144, Note_on_c, 9, 45, 107
1, 198144, Note_on_c, 9, 36, 127
1, 198144, Note_on_c, 9, 42, 76
1, 198144, Note_on_c, 9, 70, 102
1, 198144, Note_on_c, 9, 57, 117
1, 198144, Note_on_c, 12, 53, 80
1, 198146, Control_c, 5, 11, 127
1, 198146, Control_c, 5, 10, 9
1, 198162, Note_on_c, 9, 57, 0
1, 198162, Note_on_c, 9, 45, 0
1, 198162, Note_on_c, 9, 27, 0
1, 198162, Note_on_c, 9, 70, 0
1, 198162, Note_on_c, 9, 36, 0
1, 198162, Note_on_c, 9, 42, 0
1, 198187, Note_on_c, 12, 53, 0
1, 198194, Control_c, 12, 10, 5
1, 198231, Note_on_c, 1, 34, 0
1, 198234, Note_on_c, 5, 58, 0
1, 198240, Note_on_c, 5, 65, 65
1, 198240, Note_on_c, 9, 42, 85
1, 198240, Note_on_c, 12, 53, 73
1, 198242, Control_c, 5, 10, 13
1, 198242, Control_c, 12, 10, 13
1, 198242, Control_c, 12, 6, 25
1, 198258, Note_on_c, 9, 42, 0
1, 198274, Note_on_c, 12, 53, 0
1, 198290, Control_c, 12, 10, 20
1, 198330, Note_on_c, 5, 65, 0
1, 198336, Note_on_c, 1, 46, 92
1, 198336, Note_on_c, 4, 86, 107
1, 198336, Note_on_c, 5, 70, 80
1, 198336, Note_on_c, 6, 65, 125
1, 198336, Note_on_c, 9, 46, 117
1, 198336, Note_on_c, 12, 53, 80
1, 198338, Control_c, 5, 10, 17
1, 198338, Control_c, 12, 10, 27
1, 198354, Note_on_c, 9, 46, 0
1, 198368, Note_on_c, 4, 89, 0
1, 198379, Note_on_c, 12, 53, 0
1, 198386, Control_c, 12, 10, 34
1, 198410, Control_c, 12, 6, 40
1, 198426, Note_on_c, 1, 46, 0
1, 198432, Note_on_c, 5, 74, 68
1, 198432, Note_on_c, 9, 70, 50
1, 198432, Note_on_c, 12, 53, 73
1, 198434, Control_c, 5, 10, 20
1, 198434, Control_c, 12, 10, 41
1, 198450, Note_on_c, 9, 70, 0
1, 198451, Note_on_c, 5, 70, 0
1, 198466, Note_on_c, 12, 53, 0
1, 198482, Control_c, 12, 10, 49
1, 198511, Note_on_c, 6, 65, 0
1, 198522, Note_on_c, 5, 74, 0
1, 198526, Note_on_c, 4, 86, 0
1, 198528, Note_on_c, 1, 34, 66
1, 198528, Note_on_c, 4, 82, 107
1, 198528, Note_on_c, 5, 77, 86
1, 198528, Note_on_c, 9, 27, 127
1, 198528, Note_on_c, 9, 38, 127
1, 198528, Note_on_c, 9, 36, 127
1, 198528, Note_on_c, 9, 45, 107
1, 198528, Note_on_c, 9, 42, 76
1, 198528, Note_on_c, 9, 70, 96
1, 198528, Note_on_c, 12, 53, 80
1, 198530, Control_c, 5, 10, 24
1, 198530, Control_c, 12, 10, 56
1, 198546, Note_on_c, 9, 70, 0
1, 198546, Note_on_c, 9, 38, 0
1, 198546, Note_on_c, 9, 27, 0
1, 198546, Note_on_c, 9, 42, 0
1, 198546, Note_on_c, 9, 36, 0
1, 198546, Note_on_c, 9, 45, 0
1, 198571, Note_on_c, 12, 53, 0
1, 198578, Control_c, 12, 10, 63
1, 198614, Control_c, 12, 6, 60
1, 198618, Note_on_c, 1, 34, 0
1, 198624, Note_on_c, 5, 74, 59
1, 198624, Note_on_c, 9, 42, 85
1, 198624, Note_on_c, 12, 53, 73
1, 198626, Control_c, 5, 10, 28
1, 198626, Control_c, 12, 10, 70
1, 198630, Note_on_c, 5, 77, 0
1, 198642, Note_on_c, 9, 42, 0
1, 198658, Note_on_c, 12, 53, 0
1, 198674, Control_c, 12, 10, 77
1, 198714, Note_on_c, 5, 74, 0
1, 198720, Note_on_c, 1, 46, 92
1, 198720, Note_on_c, 4, 86, 107
1, 198720, Note_on_c, 5, 70, 80
1, 198720, Note_on_c, 6, 65, 105
1, 198720, Note_on_c, 9, 46, 102
1, 198720, Note_on_c, 9, 70, 90
1, 198720, Note_on_c, 12, 53, 80
1, 198722, Note_on_c, 3, 65, 0
1, 198722, Control_c, 5, 10, 31
1, 198722, Control_c, 12, 10, 84
1, 198738, Note_on_c, 9, 46, 0
1, 198738, Note_on_c, 9, 70, 0
1, 198751, Note_on_c, 4, 82, 0
1, 198763, Note_on_c, 12, 53, 0
1, 198770, Control_c, 12, 10, 92
1, 198794, Control_c, 12, 6, 85
1, 198810, Note_on_c, 1, 46, 0
1, 198816, Note_on_c, 5, 65, 94
1, 198816, Note_on_c, 12, 53, 73
1, 198818, Control_c, 5, 10, 35
1, 198818, Control_c, 12, 10, 99
1, 198835, Note_on_c, 5, 70, 0
1, 198850, Note_on_c, 12, 53, 0
1, 198866, Control_c, 12, 10, 106
1, 198872, Note_on_c, 6, 65, 0
1, 198887, Note_on_c, 4, 86, 0
1, 198906, Note_on_c, 5, 65, 0
1, 198912, Note_on_c, 1, 34, 66
1, 198912, Note_on_c, 3, 65, 80
1, 198912, Note_on_c, 4, 89, 107
1, 198912, Note_on_c, 5, 58, 59
1, 198912, Note_on_c, 9, 27, 127
1, 198912, Note_on_c, 9, 36, 127
1, 198912, Note_on_c, 9, 45, 107
1, 198912, Note_on_c, 9, 42, 76
1, 198912, Note_on_c, 9, 70, 102
1, 198912, Note_on_c, 12, 53, 80
1, 198914, Control_c, 5, 10, 39
1, 198914, Control_c, 12, 10, 113
1, 198930, Note_on_c, 9, 70, 0
1, 198930, Note_on_c, 9, 36, 0
1, 198930, Note_on_c, 9, 27, 0
1, 198930, Note_on_c, 9, 42, 0
1, 198930, Note_on_c, 9, 45, 0
1, 198955, Note_on_c, 12, 53, 0
1, 198962, Control_c, 12, 10, 120
1, 199002, Note_on_c, 1, 34, 0
1, 199002, Note_on_c, 5, 58, 0
1, 199008, Note_on_c, 5, 65, 94
1, 199008, Note_on_c, 9, 42, 85
1, 199008, Note_on_c, 12, 53, 73
1, 199010, Control_c, 5, 10, 42
1, 199010, Control_c, 12, 6, 110
1, 199026, Note_on_c, 9, 42, 0
1, 199042, Note_on_c, 12, 53, 0
1, 199098, Note_on_c, 5, 65, 0
1, 199104, Note_on_c, 1, 46, 92
1, 199104, Note_on_c, 4, 86, 107
1, 199104, Note_on_c, 5, 70, 64
1, 199104, Note_on_c, 6, 65, 85
1, 199104, Note_on_c, 9, 46, 117
1, 199104, Note_on_c, 9, 70, 30
1, 199106, Control_c, 5, 10, 46
1, 199122, Note_on_c, 9, 70, 0
1, 199122, Note_on_c, 9, 46, 0
1, 199128, Note_on_c, 4, 89, 0
1, 199194, Note_on_c, 1, 46, 0
1, 199200, Note_on_c, 5, 74, 77
1, 199200, Note_on_c, 9, 70, 59
1, 199202, Control_c, 5, 10, 50
1, 199218, Note_on_c, 9, 70, 0
1, 199219, Note_on_c, 5, 70, 0
1, 199232, Note_on_c, 6, 65, 0
1, 199266, Note_on_c, 4, 86, 0
1, 199290, Note_on_c, 5, 74, 0
1, 199296, Note_on_c, 1, 34, 66
1, 199296, Note_on_c, 3, 69, 95
1, 199296, Note_on_c, 4, 82, 107
1, 199296, Note_on_c, 5, 77, 86
1, 199296, Note_on_c, 9, 27, 127
1, 199296, Note_on_c, 9, 38, 127
1, 199296, Note_on_c, 9, 45, 107
1, 199296, Note_on_c, 9, 36, 127
1, 199296, Note_on_c, 9, 42, 76
1, 199296, Note_on_c, 9, 70, 86
1, 199298, Control_c, 5, 10, 54
1, 199302, Note_on_c, 3, 65, 0
1, 199314, Note_on_c, 9, 36, 0
1, 199314, Note_on_c, 9, 38, 0
1, 199314, Note_on_c, 9, 27, 0
1, 199314, Note_on_c, 9, 70, 0
1, 199314, Note_on_c, 9, 45, 0
1, 199314, Note_on_c, 9, 42, 0
1, 199386, Note_on_c, 1, 34, 0
1, 199392, Note_on_c, 5, 74, 71
1, 199392, Note_on_c, 9, 42, 85
1, 199394, Control_c, 5, 10, 57
1, 199398, Note_on_c, 5, 77, 0
1, 199410, Note_on_c, 9, 42, 0
1, 199482, Note_on_c, 5, 74, 0
1, 199488, Note_on_c, 1, 46, 89
1, 199488, Note_on_c, 4, 86, 107
1, 199488, Note_on_c, 5, 70, 64
1, 199488, Note_on_c, 9, 46, 117
1, 199488, Note_on_c, 9, 70, 76
1, 199490, Control_c, 5, 10, 61
1, 199506, Note_on_c, 9, 70, 0
1, 199506, Note_on_c, 9, 46, 0
1, 199509, Note_on_c, 4, 82, 0
1, 199578, Note_on_c, 3, 69, 0
1, 199582, Note_on_c, 1, 46, 0
1, 199584, Note_on_c, 5, 65, 80
1, 199586, Control_c, 5, 10, 65
1, 199586, Control_c, 12, 6, 10
1, 199603, Note_on_c, 5, 70, 0
1, 199626, Note_on_c, 2, 62, 0
1, 199626, Note_on_c, 2, 46, 0
1, 199626, Note_on_c, 2, 58, 0
1, 199632, Note_on_c, 2, 41, 61
1, 199632, Note_on_c, 2, 53, 61
1, 199632, Note_on_c, 2, 57, 61
1, 199632, Note_on_c, 2, 60, 61
1, 199641, Note_on_c, 4, 86, 0
1, 199674, Note_on_c, 5, 65, 0
1, 199680, Note_on_c, 1, 29, 63
1, 199680, Note_on_c, 3, 69, 95
1, 199680, Note_on_c, 4, 89, 107
1, 199680, Note_on_c, 5, 57, 59
1, 199680, Note_on_c, 9, 27, 127
1, 199680, Note_on_c, 9, 45, 107
1, 199680, Note_on_c, 9, 36, 127
1, 199680, Note_on_c, 9, 42, 76
1, 199680, Note_on_c, 9, 70, 102
1, 199680, Note_on_c, 12, 53, 80
1, 199682, Control_c, 5, 10, 68
1, 199682, Control_c, 12, 10, 125
1, 199698, Note_on_c, 9, 70, 0
1, 199698, Note_on_c, 9, 27, 0
1, 199698, Note_on_c, 9, 42, 0
1, 199698, Note_on_c, 9, 45, 0
1, 199698, Note_on_c, 9, 36, 0
1, 199723, Note_on_c, 12, 53, 0
1, 199730, Control_c, 12, 10, 119
1, 199767, Note_on_c, 1, 29, 0
1, 199770, Note_on_c, 5, 57, 0
1, 199776, Note_on_c, 5, 65, 68
1, 199776, Note_on_c, 9, 42, 85
1, 199776, Note_on_c, 12, 53, 73
1, 199778, Control_c, 5, 10, 72
1, 199778, Control_c, 12, 10, 113
1, 199778, Control_c, 12, 6, 25
1, 199794, Note_on_c, 9, 42, 0
1, 199810, Note_on_c, 12, 53, 0
1, 199826, Control_c, 12, 10, 107
1, 199866, Note_on_c, 5, 65, 0
1, 199872, Note_on_c, 1, 41, 89
1, 199872, Note_on_c, 4, 84, 107
1, 199872, Note_on_c, 5, 69, 64
1, 199872, Note_on_c, 6, 72, 125
1, 199872, Note_on_c, 9, 46, 117
1, 199872, Note_on_c, 12, 53, 80
1, 199874, Control_c, 5, 10, 76
1, 199874, Control_c, 12, 10, 101
1, 199890, Note_on_c, 9, 46, 0
1, 199915, Note_on_c, 12, 53, 0
1, 199922, Control_c, 12, 10, 95
1, 199929, Note_on_c, 4, 89, 0
1, 199946, Control_c, 12, 6, 40
1, 199962, Note_on_c, 1, 41, 0
1, 199968, Note_on_c, 5, 72, 74
1, 199968, Note_on_c, 9, 70, 54
1, 199968, Note_on_c, 12, 53, 73
1, 199970, Control_c, 5, 10, 79
1, 199970, Control_c, 12, 10, 89
1, 199986, Note_on_c, 9, 70, 0
1, 199987, Note_on_c, 5, 69, 0
1, 200002, Note_on_c, 12, 53, 0
1, 200018, Control_c, 12, 10, 83
1, 200028, Note_on_c, 4, 84, 0
1, 200047, Note_on_c, 6, 72, 0
1, 200058, Note_on_c, 5, 72, 0
1, 200064, Note_on_c, 1, 29, 63
1, 200064, Note_on_c, 4, 81, 107
1, 200064, Note_on_c, 5, 77, 89
1, 200064, Note_on_c, 9, 27, 127
1, 200064, Note_on_c, 9, 38, 127
1, 200064, Note_on_c, 9, 45, 107
1, 200064, Note_on_c, 9, 36, 127
1, 200064, Note_on_c, 9, 42, 76
1, 200064, Note_on_c, 9, 70, 102
1, 200064, Note_on_c, 12, 53, 80
1, 200066, Control_c, 5, 10, 83
1, 200066, Control_c, 12, 10, 77
1, 200082, Note_on_c, 9, 70, 0
1, 200082, Note_on_c, 9, 27, 0
1, 200082, Note_on_c, 9, 45, 0
1, 200082, Note_on_c, 9, 42, 0
1, 200082, Note_on_c, 9, 38, 0
1, 200082, Note_on_c, 9, 36, 0
1, 200107, Note_on_c, 12, 53, 0
1, 200114, Control_c, 12, 10, 71
1, 200150, Control_c, 12, 6, 60
1, 200154, Note_on_c, 1, 29, 0
1, 200160, Note_on_c, 5, 72, 77
1, 200160, Note_on_c, 9, 42, 85
1, 200160, Note_on_c, 12, 53, 73
1, 200162, Control_c, 5, 10, 87
1, 200162, Control_c, 12, 10, 65
1, 200166, Note_on_c, 5, 77, 0
1, 200178, Note_on_c, 9, 42, 0
1, 200194, Note_on_c, 12, 53, 0
1, 200210, Control_c, 12, 10, 59
1, 200250, Note_on_c, 5, 72, 0
1, 200250, Note_on_c, 3, 69, 0
1, 200252, Note_on_c, 4, 81, 0
1, 200256, Note_on_c, 1, 41, 89
1, 200256, Note_on_c, 4, 84, 107
1, 200256, Note_on_c, 5, 69, 64
1, 200256, Note_on_c, 6, 72, 105
1, 200256, Note_on_c, 9, 46, 117
1, 200256, Note_on_c, 9, 70, 90
1, 200256, Note_on_c, 12, 53, 80
1, 200258, Control_c, 5, 10, 91
1, 200258, Control_c, 12, 10, 53
1, 200274, Note_on_c, 9, 70, 0
1, 200274, Note_on_c, 9, 46, 0
1, 200299, Note_on_c, 12, 53, 0
1, 200306, Control_c, 12, 10, 47
1, 200330, Control_c, 12, 6, 85
1, 200346, Note_on_c, 1, 41, 0
1, 200352, Note_on_c, 5, 65, 74
1, 200352, Note_on_c, 12, 53, 73
1, 200354, Control_c, 5, 10, 94
1, 200354, Control_c, 12, 10, 41
1, 200371, Note_on_c, 5, 69, 0
1, 200386, Note_on_c, 12, 53, 0
1, 200402, Control_c, 12, 10, 35
1, 200408, Note_on_c, 6, 72, 0
1, 200429, Note_on_c, 4, 84, 0
1, 200442, Note_on_c, 5, 65, 0
1, 200448, Note_on_c, 1, 29, 63
1, 200448, Note_on_c, 3, 69, 92
1, 200448, Note_on_c, 4, 89, 107
1, 200448, Note_on_c, 5, 57, 59
1, 200448, Note_on_c, 9, 27, 127
1, 200448, Note_on_c, 9, 45, 107
1, 200448, Note_on_c, 9, 36, 127
1, 200448, Note_on_c, 9, 42, 76
1, 200448, Note_on_c, 9, 70, 96
1, 200448, Note_on_c, 12, 53, 80
1, 200450, Control_c, 5, 10, 98
1, 200450, Control_c, 12, 10, 29
1, 200466, Note_on_c, 9, 70, 0
1, 200466, Note_on_c, 9, 27, 0
1, 200466, Note_on_c, 9, 42, 0
1, 200466, Note_on_c, 9, 45, 0
1, 200466, Note_on_c, 9, 36, 0
1, 200491, Note_on_c, 12, 53, 0
1, 200498, Control_c, 12, 10, 23
1, 200538, Note_on_c, 1, 29, 0
1, 200538, Note_on_c, 5, 57, 0
1, 200544, Note_on_c, 5, 65, 74
1, 200544, Note_on_c, 9, 42, 85
1, 200544, Note_on_c, 12, 53, 73
1, 200546, Control_c, 5, 10, 102
1, 200546, Control_c, 12, 10, 17
1, 200546, Control_c, 12, 6, 110
1, 200562, Note_on_c, 9, 42, 0
1, 200578, Note_on_c, 12, 53, 0
1, 200594, Control_c, 12, 10, 11
1, 200634, Note_on_c, 5, 65, 0
1, 200640, Note_on_c, 1, 41, 86
1, 200640, Note_on_c, 4, 84, 107
1, 200640, Note_on_c, 5, 69, 64
1, 200640, Note_on_c, 6, 72, 85
1, 200640, Note_on_c, 9, 46, 117
1, 200640, Note_on_c, 9, 70, 23
1, 200642, Control_c, 5, 10, 105
1, 200642, Control_c, 12, 10, 5
1, 200658, Note_on_c, 9, 70, 0
1, 200658, Note_on_c, 9, 46, 0
1, 200687, Note_on_c, 4, 89, 0
1, 200730, Note_on_c, 1, 41, 0
1, 200736, Note_on_c, 5, 72, 80
1, 200736, Note_on_c, 9, 70, 36
1, 200738, Control_c, 5, 10, 109
1, 200754, Note_on_c, 9, 70, 0
1, 200755, Note_on_c, 5, 69, 0
1, 200768, Note_on_c, 6, 72, 0
1, 200794, Note_on_c, 4, 84, 0
1, 200826, Note_on_c, 5, 72, 0
1, 200826, Note_on_c, 3, 69, 0
1, 200832, Note_on_c, 1, 29, 63
1, 200832, Note_on_c, 3, 72, 95
1, 200832, Note_on_c, 4, 81, 107
1, 200832, Note_on_c, 5, 77, 86
1, 200832, Note_on_c, 9, 27, 127
1, 200832, Note_on_c, 9, 38, 127
1, 200832, Note_on_c, 9, 45, 107
1, 200832, Note_on_c, 9, 36, 127
1, 200832, Note_on_c, 9, 42, 76
1, 200832, Note_on_c, 9, 70, 102
1, 200834, Control_c, 5, 10, 113
1, 200850, Note_on_c, 9, 70, 0
1, 200850, Note_on_c, 9, 45, 0
1, 200850, Note_on_c, 9, 27, 0
1, 200850, Note_on_c, 9, 42, 0
1, 200850, Note_on_c, 9, 38, 0
1, 200850, Note_on_c, 9, 36, 0
1, 200922, Note_on_c, 1, 29, 0
1, 200928, Note_on_c, 5, 72, 74
1, 200928, Note_on_c, 9, 42, 85
1, 200930, Control_c, 5, 10, 116
1, 200934, Note_on_c, 5, 77, 0
1, 200946, Note_on_c, 9, 42, 0
1, 201018, Note_on_c, 5, 72, 0
1, 201024, Note_on_c, 1, 41, 86
1, 201024, Note_on_c, 4, 84, 107
1, 201024, Note_on_c, 5, 69, 64
1, 201024, Note_on_c, 9, 46, 117
1, 201024, Note_on_c, 9, 70, 73
1, 201026, Control_c, 5, 10, 120
1, 201042, Note_on_c, 9, 70, 0
1, 201042, Note_on_c, 9, 46, 0
1, 201043, Note_on_c, 4, 81, 0
1, 201118, Note_on_c, 1, 41, 0
1, 201120, Note_on_c, 5, 65, 80
1, 201122, Control_c, 5, 10, 124
1, 201122, Control_c, 12, 6, 10
1, 201139, Note_on_c, 5, 69, 0
1, 201162, Note_on_c, 2, 53, 0
1, 201162, Note_on_c, 2, 41, 0
1, 201162, Note_on_c, 2, 57, 0
1, 201162, Note_on_c, 2, 60, 0
1, 201168, Note_on_c, 2, 38, 61
1, 201168, Note_on_c, 2, 50, 61
1, 201168, Note_on_c, 2, 53, 61
1, 201168, Note_on_c, 2, 57, 61
1, 201176, Note_on_c, 2, 65, 61
1, 201184, Note_on_c, 4, 84, 0
1, 201193, Note_on_c, 3, 72, 0
1, 201210, Note_on_c, 5, 65, 0
1, 201216, Note_on_c, 1, 26, 60
1, 201216, Note_on_c, 3, 74, 107
1, 201216, Note_on_c, 4, 93, 107
1, 201216, Note_on_c, 5, 62, 59
1, 201216, Note_on_c, 9, 27, 127
1, 201216, Note_on_c, 9, 45, 107
1, 201216, Note_on_c, 9, 36, 127
1, 201216, Note_on_c, 9, 42, 76
1, 201216, Note_on_c, 9, 70, 102
1, 201216, Note_on_c, 12, 53, 80
1, 201218, Control_c, 5, 10, 127
1, 201234, Note_on_c, 9, 70, 0
1, 201234, Note_on_c, 9, 42, 0
1, 201234, Note_on_c, 9, 45, 0
1, 201234, Note_on_c, 9, 27, 0
1, 201234, Note_on_c, 9, 36, 0
1, 201259, Note_on_c, 12, 53, 0
1, 201266, Control_c, 12, 10, 5
1, 201303, Note_on_c, 1, 26, 0
1, 201306, Note_on_c, 5, 62, 0
1, 201312, Note_on_c, 5, 69, 74
1, 201312, Note_on_c, 9, 42, 85
1, 201312, Note_on_c, 12, 53, 73
1, 201314, Control_c, 5, 10, 124
1, 201314, Control_c, 12, 10, 13
1, 201314, Control_c, 12, 6, 25
1, 201330, Note_on_c, 9, 42, 0
1, 201346, Note_on_c, 12, 53, 0
1, 201362, Control_c, 12, 10, 20
1, 201402, Note_on_c, 5, 69, 0
1, 201408, Note_on_c, 1, 38, 92
1, 201408, Note_on_c, 4, 89, 107
1, 201408, Note_on_c, 5, 74, 64
1, 201408, Note_on_c, 6, 69, 125
1, 201408, Note_on_c, 9, 46, 117
1, 201408, Note_on_c, 12, 53, 80
1, 201410, Control_c, 5, 10, 120
1, 201410, Control_c, 12, 10, 27
1, 201426, Note_on_c, 9, 46, 0
1, 201446, Note_on_c, 4, 93, 0
1, 201451, Note_on_c, 12, 53, 0
1, 201458, Control_c, 12, 10, 34
1, 201482, Control_c, 12, 6, 40
1, 201498, Note_on_c, 1, 38, 0
1, 201504, Note_on_c, 5, 77, 80
1, 201504, Note_on_c, 9, 70, 50
1, 201504, Note_on_c, 12, 53, 73
1, 201506, Control_c, 5, 10, 116
1, 201506, Control_c, 12, 10, 41
1, 201522, Note_on_c, 9, 70, 0
1, 201523, Note_on_c, 5, 74, 0
1, 201538, Note_on_c, 12, 53, 0
1, 201554, Control_c, 12, 10, 49
1, 201582, Note_on_c, 4, 89, 0
1, 201583, Note_on_c, 6, 69, 0
1, 201594, Note_on_c, 5, 77, 0
1, 201598, Note_on_c, 3, 74, 0
1, 201600, Note_on_c, 1, 26, 66
1, 201600, Note_on_c, 3, 76, 92
1, 201600, Note_on_c, 4, 86, 107
1, 201600, Note_on_c, 5, 86, 71
1, 201600, Note_on_c, 9, 27, 127
1, 201600, Note_on_c, 9, 38, 127
1, 201600, Note_on_c, 9, 45, 107
1, 201600, Note_on_c, 9, 36, 127
1, 201600, Note_on_c, 9, 42, 76
1, 201600, Note_on_c, 9, 70, 96
1, 201600, Note_on_c, 12, 53, 80
1, 201602, Control_c, 5, 10, 112
1, 201602, Control_c, 12, 10, 56
1, 201618, Note_on_c, 9, 70, 0
1, 201618, Note_on_c, 9, 42, 0
1, 201618, Note_on_c, 9, 36, 0
1, 201618, Note_on_c, 9, 38, 0
1, 201618, Note_on_c, 9, 27, 0
1, 201618, Note_on_c, 9, 45, 0
1, 201643, Note_on_c, 12, 53, 0
1, 201650, Control_c, 12, 10, 63
1, 201686, Control_c, 12, 6, 60
1, 201690, Note_on_c, 1, 26, 0
1, 201696, Note_on_c, 5, 74, 74
1, 201696, Note_on_c, 9, 42, 85
1, 201696, Note_on_c, 12, 53, 73
1, 201698, Control_c, 5, 10, 108
1, 201698, Control_c, 12, 10, 70
1, 201702, Note_on_c, 5, 86, 0
1, 201714, Note_on_c, 9, 42, 0
1, 201730, Note_on_c, 12, 53, 0
1, 201746, Control_c, 12, 10, 77
1, 201786, Note_on_c, 5, 74, 0
1, 201792, Note_on_c, 1, 38, 92
1, 201792, Note_on_c, 4, 89, 107
1, 201792, Note_on_c, 5, 69, 64
1, 201792, Note_on_c, 6, 69, 105
1, 201792, Note_on_c, 9, 46, 102
1, 201792, Note_on_c, 9, 70, 90
1, 201792, Note_on_c, 12, 53, 80
1, 201794, Control_c, 5, 10, 104
1, 201794, Control_c, 12, 10, 84
1, 201806, Note_on_c, 4, 86, 0
1, 201810, Note_on_c, 9, 70, 0
1, 201810, Note_on_c, 9, 46, 0
1, 201835, Note_on_c, 12, 53, 0
1, 201842, Control_c, 12, 10, 92
1, 201866, Control_c, 12, 6, 85
1, 201882, Note_on_c, 1, 38, 0
1, 201888, Note_on_c, 5, 65, 80
1, 201888, Note_on_c, 12, 53, 73
1, 201890, Control_c, 5, 10, 100
1, 201890, Control_c, 12, 10, 99
1, 201907, Note_on_c, 5, 69, 0
1, 201909, Note_on_c, 3, 76, 0
1, 201922, Note_on_c, 12, 53, 0
1, 201938, Control_c, 12, 10, 106
1, 201944, Note_on_c, 6, 69, 0
1, 201978, Note_on_c, 5, 65, 0
1, 201982, Note_on_c, 4, 89, 0
1, 201984, Note_on_c, 1, 26, 66
1, 201984, Note_on_c, 3, 74, 107
1, 201984, Note_on_c, 4, 93, 107
1, 201984, Note_on_c, 5, 62, 59
1, 201984, Note_on_c, 9, 27, 127
1, 201984, Note_on_c, 9, 45, 107
1, 201984, Note_on_c, 9, 36, 127
1, 201984, Note_on_c, 9, 42, 76
1, 201984, Note_on_c, 9, 70, 102
1, 201984, Note_on_c, 12, 53, 80
1, 201986, Control_c, 5, 10, 96
1, 201986, Control_c, 12, 10, 113
1, 202002, Note_on_c, 9, 70, 0
1, 202002, Note_on_c, 9, 42, 0
1, 202002, Note_on_c, 9, 45, 0
1, 202002, Note_on_c, 9, 27, 0
1, 202002, Note_on_c, 9, 36, 0
1, 202027, Note_on_c, 12, 53, 0
1, 202034, Control_c, 12, 10, 120
1, 202074, Note_on_c, 5, 62, 0
1, 202074, Note_on_c, 1, 26, 0
1, 202080, Note_on_c, 5, 69, 74
1, 202080, Note_on_c, 9, 42, 85
1, 202080, Note_on_c, 12, 53, 73
1, 202082, Control_c, 5, 10, 92
1, 202082, Control_c, 12, 6, 110
1, 202098, Note_on_c, 9, 42, 0
1, 202114, Note_on_c, 12, 53, 0
1, 202170, Note_on_c, 5, 69, 0
1, 202176, Note_on_c, 1, 38, 92
1, 202176, Note_on_c, 4, 89, 107
1, 202176, Note_on_c, 5, 72, 64
1, 202176, Note_on_c, 6, 69, 85
1, 202176, Note_on_c, 9, 46, 117
1, 202176, Note_on_c, 9, 70, 30
1, 202178, Control_c, 5, 10, 88
1, 202194, Note_on_c, 9, 70, 0
1, 202194, Note_on_c, 9, 46, 0
1, 202204, Note_on_c, 4, 93, 0
1, 202266, Note_on_c, 1, 38, 0
1, 202272, Note_on_c, 5, 77, 80
1, 202272, Note_on_c, 9, 70, 59
1, 202274, Control_c, 5, 10, 84
1, 202290, Note_on_c, 9, 70, 0
1, 202291, Note_on_c, 5, 72, 0
1, 202304, Note_on_c, 6, 69, 0
1, 202319, Note_on_c, 4, 89, 0
1, 202362, Note_on_c, 5, 77, 0
1, 202368, Note_on_c, 1, 26, 66
1, 202368, Note_on_c, 3, 72, 92
1, 202368, Note_on_c, 4, 86, 107
1, 202368, Note_on_c, 5, 86, 74
1, 202368, Note_on_c, 9, 27, 127
1, 202368, Note_on_c, 9, 38, 127
1, 202368, Note_on_c, 9, 45, 107
1, 202368, Note_on_c, 9, 36, 127
1, 202368, Note_on_c, 9, 42, 76
1, 202368, Note_on_c, 9, 70, 86
1, 202370, Control_c, 5, 10, 80
1, 202385, Note_on_c, 3, 74, 0
1, 202386, Note_on_c, 9, 70, 0
1, 202386, Note_on_c, 9, 42, 0
1, 202386, Note_on_c, 9, 38, 0
1, 202386, Note_on_c, 9, 36, 0
1, 202386, Note_on_c, 9, 27, 0
1, 202386, Note_on_c, 9, 45, 0
1, 202458, Note_on_c, 1, 26, 0
1, 202464, Note_on_c, 5, 77, 74
1, 202464, Note_on_c, 9, 42, 85
1, 202466, Control_c, 5, 10, 76
1, 202470, Note_on_c, 5, 86, 0
1, 202482, Note_on_c, 9, 42, 0
1, 202554, Note_on_c, 5, 77, 0
1, 202560, Note_on_c, 1, 38, 89
1, 202560, Note_on_c, 4, 89, 107
1, 202560, Note_on_c, 5, 72, 64
1, 202560, Note_on_c, 9, 46, 117
1, 202560, Note_on_c, 9, 70, 76
1, 202562, Control_c, 5, 10, 72
1, 202578, Note_on_c, 9, 70, 0
1, 202578, Note_on_c, 9, 46, 0
1, 202603, Note_on_c, 4, 86, 0
1, 202654, Note_on_c, 1, 38, 0
1, 202656, Note_on_c, 5, 69, 80
1, 202658, Control_c, 5, 10, 68
1, 202658, Control_c, 12, 6, 10
1, 202675, Note_on_c, 5, 72, 0
1, 202698, Note_on_c, 2, 38, 0
1, 202698, Note_on_c, 2, 50, 0
1, 202698, Note_on_c, 2, 53, 0
1, 202704, Note_on_c, 2, 62, 61
1, 202706, Note_on_c, 2, 65, 0
1, 202712, Note_on_c, 2, 50, 61
1, 202712, Note_on_c, 2, 54, 61
1, 202712, Note_on_c, 2, 66, 61
1, 202723, Note_on_c, 4, 89, 0
1, 202746, Note_on_c, 5, 69, 0
1, 202752, Note_on_c, 3, 72, 0
1, 202752, Note_on_c, 1, 26, 63
1, 202752, Note_on_c, 3, 69, 95
1, 202752, Note_on_c, 4, 93, 107
1, 202752, Note_on_c, 5, 62, 59
1, 202752, Note_on_c, 9, 27, 127
1, 202752, Note_on_c, 9, 45, 107
1, 202752, Note_on_c, 9, 36, 127
1, 202752, Note_on_c, 9, 42, 76
1, 202752, Note_on_c, 9, 70, 102
1, 202752, Note_on_c, 12, 54, 80
1, 202754, Control_c, 5, 10, 64
1, 202754, Control_c, 12, 10, 125
1, 202770, Note_on_c, 9, 70, 0
1, 202770, Note_on_c, 9, 42, 0
1, 202770, Note_on_c, 9, 45, 0
1, 202770, Note_on_c, 9, 27, 0
1, 202770, Note_on_c, 9, 36, 0
1, 202795, Note_on_c, 12, 54, 0
1, 202802, Control_c, 12, 10, 119
1, 202839, Note_on_c, 1, 26, 0
1, 202842, Note_on_c, 5, 62, 0
1, 202848, Note_on_c, 5, 69, 74
1, 202848, Note_on_c, 9, 42, 85
1, 202848, Note_on_c, 12, 54, 73
1, 202850, Control_c, 5, 10, 60
1, 202850, Control_c, 12, 10, 113
1, 202850, Control_c, 12, 6, 25
1, 202866, Note_on_c, 9, 42, 0
1, 202882, Note_on_c, 12, 54, 0
1, 202898, Control_c, 12, 10, 107
1, 202938, Note_on_c, 5, 69, 0
1, 202944, Note_on_c, 1, 38, 89
1, 202944, Note_on_c, 4, 90, 107
1, 202944, Note_on_c, 5, 74, 64
1, 202944, Note_on_c, 6, 69, 125
1, 202944, Note_on_c, 9, 46, 117
1, 202944, Note_on_c, 12, 54, 80
1, 202946, Control_c, 5, 10, 56
1, 202946, Control_c, 12, 10, 101
1, 202962, Note_on_c, 9, 46, 0
1, 202987, Note_on_c, 12, 54, 0
1, 202994, Control_c, 12, 10, 95
1, 203018, Control_c, 12, 6, 40
1, 203034, Note_on_c, 1, 38, 0
1, 203040, Note_on_c, 5, 69, 80
1, 203040, Note_on_c, 9, 70, 54
1, 203040, Note_on_c, 12, 54, 73
1, 203042, Control_c, 5, 10, 52
1, 203042, Control_c, 12, 10, 89
1, 203052, Note_on_c, 4, 93, 0
1, 203058, Note_on_c, 9, 70, 0
1, 203059, Note_on_c, 5, 74, 0
1, 203074, Note_on_c, 12, 54, 0
1, 203090, Control_c, 12, 10, 83
1, 203094, Note_on_c, 4, 90, 0
1, 203119, Note_on_c, 6, 69, 0
1, 203130, Note_on_c, 5, 69, 0
1, 203136, Note_on_c, 1, 26, 63
1, 203136, Note_on_c, 4, 86, 107
1, 203136, Note_on_c, 5, 66, 80
1, 203136, Note_on_c, 9, 27, 127
1, 203136, Note_on_c, 9, 38, 127
1, 203136, Note_on_c, 9, 45, 107
1, 203136, Note_on_c, 9, 36, 127
1, 203136, Note_on_c, 9, 42, 76
1, 203136, Note_on_c, 9, 70, 102
1, 203136, Note_on_c, 12, 54, 80
1, 203138, Control_c, 5, 10, 48
1, 203138, Control_c, 12, 10, 77
1, 203154, Note_on_c, 9, 70, 0
1, 203154, Note_on_c, 9, 42, 0
1, 203154, Note_on_c, 9, 36, 0
1, 203154, Note_on_c, 9, 38, 0
1, 203154, Note_on_c, 9, 27, 0
1, 203154, Note_on_c, 9, 45, 0
1, 203179, Note_on_c, 12, 54, 0
1, 203186, Control_c, 12, 10, 71
1, 203222, Control_c, 12, 6, 60
1, 203226, Note_on_c, 5, 66, 0
1, 203226, Note_on_c, 1, 26, 0
1, 203232, Note_on_c, 5, 62, 80
1, 203232, Note_on_c, 9, 42, 85
1, 203232, Note_on_c, 12, 54, 73
1, 203234, Control_c, 5, 10, 44
1, 203234, Control_c, 12, 10, 65
1, 203250, Note_on_c, 9, 42, 0
1, 203266, Note_on_c, 12, 54, 0
1, 203282, Control_c, 12, 10, 59
1, 203322, Note_on_c, 3, 69, 0
1, 203322, Note_on_c, 5, 62, 0
1, 203328, Note_on_c, 1, 38, 89
1, 203328, Note_on_c, 4, 90, 107
1, 203328, Note_on_c, 5, 69, 80
1, 203328, Note_on_c, 6, 69, 105
1, 203328, Note_on_c, 9, 46, 117
1, 203328, Note_on_c, 9, 70, 90
1, 203328, Note_on_c, 12, 54, 80
1, 203330, Control_c, 5, 10, 40
1, 203330, Control_c, 12, 10, 53
1, 203346, Note_on_c, 9, 70, 0
1, 203346, Note_on_c, 9, 46, 0
1, 203371, Note_on_c, 12, 54, 0
1, 203378, Control_c, 12, 10, 47
1, 203387, Note_on_c, 4, 86, 0
1, 203402, Control_c, 12, 6, 85
1, 203418, Note_on_c, 5, 69, 0
1, 203418, Note_on_c, 1, 38, 0
1, 203424, Note_on_c, 5, 74, 80
1, 203424, Note_on_c, 12, 54, 73
1, 203426, Control_c, 5, 10, 36
1, 203426, Control_c, 12, 10, 41
1, 203458, Note_on_c, 12, 54, 0
1, 203471, Note_on_c, 4, 90, 0
1, 203474, Control_c, 12, 10, 35
1, 203480, Note_on_c, 6, 69, 0
1, 203514, Note_on_c, 5, 74, 0
1, 203520, Note_on_c, 1, 26, 63
1, 203520, Note_on_c, 3, 70, 88
1, 203520, Note_on_c, 4, 93, 107
1, 203520, Note_on_c, 5, 69, 80
1, 203520, Note_on_c, 9, 27, 127
1, 203520, Note_on_c, 9, 45, 107
1, 203520, Note_on_c, 9, 36, 127
1, 203520, Note_on_c, 9, 42, 76
1, 203520, Note_on_c, 9, 70, 96
1, 203520, Note_on_c, 12, 54, 80
1, 203522, Control_c, 5, 10, 32
1, 203522, Control_c, 12, 10, 29
1, 203538, Note_on_c, 9, 70, 0
1, 203538, Note_on_c, 9, 42, 0
1, 203538, Note_on_c, 9, 45, 0
1, 203538, Note_on_c, 9, 27, 0
1, 203538, Note_on_c, 9, 36, 0
1, 203563, Note_on_c, 12, 54, 0
1, 203570, Control_c, 12, 10, 23
1, 203610, Note_on_c, 5, 69, 0
1, 203610, Note_on_c, 1, 26, 0
1, 203616, Note_on_c, 5, 66, 80
1, 203616, Note_on_c, 9, 42, 85
1, 203616, Note_on_c, 12, 54, 73
1, 203618, Control_c, 5, 10, 28
1, 203618, Control_c, 12, 10, 17
1, 203618, Control_c, 12, 6, 110
1, 203634, Note_on_c, 9, 42, 0
1, 203650, Note_on_c, 12, 54, 0
1, 203666, Control_c, 12, 10, 11
1, 203706, Note_on_c, 5, 66, 0
1, 203712, Note_on_c, 1, 38, 86
1, 203712, Note_on_c, 4, 90, 107
1, 203712, Note_on_c, 5, 69, 80
1, 203712, Note_on_c, 6, 69, 85
1, 203712, Note_on_c, 9, 46, 117
1, 203712, Note_on_c, 9, 70, 23
1, 203714, Control_c, 5, 10, 24
1, 203714, Control_c, 12, 10, 5
1, 203730, Note_on_c, 9, 70, 0
1, 203730, Note_on_c, 9, 46, 0
1, 203735, Note_on_c, 4, 93, 0
1, 203802, Note_on_c, 5, 69, 0
1, 203802, Note_on_c, 1, 38, 0
1, 203808, Note_on_c, 5, 62, 80
1, 203808, Note_on_c, 9, 70, 36
1, 203810, Control_c, 5, 10, 20
1, 203826, Note_on_c, 9, 70, 0
1, 203840, Note_on_c, 6, 69, 0
1, 203854, Note_on_c, 4, 90, 0
1, 203863, Note_on_c, 3, 70, 0
1, 203868, Control_c, 2, 64, 127
1, 203898, Note_on_c, 5, 62, 0
1, 203904, Note_on_c, 1, 26, 63
1, 203904, Note_on_c, 3, 69, 69
1, 203904, Note_on_c, 4, 86, 107
1, 203904, Note_on_c, 5, 66, 80
1, 203904, Note_on_c, 9, 27, 127
1, 203904, Note_on_c, 9, 38, 127
1, 203904, Note_on_c, 9, 45, 107
1, 203904, Note_on_c, 9, 36, 127
1, 203904, Note_on_c, 9, 42, 76
1, 203904, Note_on_c, 9, 70, 102
1, 203906, Control_c, 5, 10, 16
1, 203922, Note_on_c, 9, 70, 0
1, 203922, Note_on_c, 9, 42, 0
1, 203922, Note_on_c, 9, 38, 0
1, 203922, Note_on_c, 9, 36, 0
1, 203922, Note_on_c, 9, 27, 0
1, 203922, Note_on_c, 9, 45, 0
1, 203994, Note_on_c, 5, 66, 0
1, 203994, Note_on_c, 1, 26, 0
1, 204000, Note_on_c, 5, 62, 80
1, 204000, Note_on_c, 9, 42, 85
1, 204002, Control_c, 5, 10, 12
1, 204018, Note_on_c, 9, 42, 0
1, 204090, Note_on_c, 5, 62, 0
1, 204096, Note_on_c, 1, 38, 86
1, 204096, Note_on_c, 4, 90, 107
1, 204096, Note_on_c, 5, 57, 80
1, 204096, Note_on_c, 9, 46, 117
1, 204096, Note_on_c, 9, 70, 73
1, 204098, Control_c, 5, 10, 8
1, 204113, Note_on_c, 4, 86, 0
1, 204114, Note_on_c, 9, 70, 0
1, 204114, Note_on_c, 9, 46, 0
1, 204166, Control_c, 2, 64, 0
1, 204186, Note_on_c, 5, 57, 0
1, 204190, Note_on_c, 1, 38, 0
1, 204192, Note_on_c, 5, 62, 80
1, 204194, Control_c, 5, 10, 4
1, 204194, Control_c, 12, 6, 10
1, 204217, Note_on_c, 4, 90, 0
1, 204234, Note_on_c, 2, 62, 0
1, 204240, Note_on_c, 2, 53, 61
1, 204240, Note_on_c, 2, 58, 61
1, 204242, Note_on_c, 2, 57, 0
1, 204242, Note_on_c, 2, 66, 0
1, 204242, Note_on_c, 2, 54, 0
1, 204242, Note_on_c, 2, 50, 0
1, 204248, Note_on_c, 2, 46, 61
1, 204248, Note_on_c, 2, 62, 61
1, 204282, Note_on_c, 5, 62, 0
1, 204282, Note_on_c, 3, 69, 0
1, 204288, Note_on_c, 1, 34, 60
1, 204288, Note_on_c, 3, 65, 87
1, 204288, Note_on_c, 4, 89, 107
1, 204288, Note_on_c, 5, 58, 59
1, 204288, Note_on_c, 9, 27, 127
1, 204288, Note_on_c, 9, 45, 107
1, 204288, Note_on_c, 9, 36, 127
1, 204288, Note_on_c, 9, 42, 76
1, 204288, Note_on_c, 9, 70, 102
1, 204288, Note_on_c, 12, 53, 80
1, 204290, Control_c, 5, 10, 2
1, 204306, Note_on_c, 9, 70, 0
1, 204306, Note_on_c, 9, 27, 0
1, 204306, Note_on_c, 9, 42, 0
1, 204306, Note_on_c, 9, 45, 0
1, 204306, Note_on_c, 9, 36, 0
1, 204331, Note_on_c, 12, 53, 0
1, 204338, Control_c, 12, 10, 5
1, 204375, Note_on_c, 1, 34, 0
1, 204378, Note_on_c, 5, 58, 0
1, 204384, Note_on_c, 5, 62, 68
1, 204384, Note_on_c, 9, 42, 85
1, 204384, Note_on_c, 12, 53, 73
1, 204386, Control_c, 5, 10, 6
1, 204386, Control_c, 12, 10, 13
1, 204386, Control_c, 12, 6, 25
1, 204402, Note_on_c, 9, 42, 0
1, 204418, Note_on_c, 12, 53, 0
1, 204434, Control_c, 12, 10, 20
1, 204474, Note_on_c, 5, 62, 0
1, 204480, Note_on_c, 1, 46, 92
1, 204480, Note_on_c, 4, 86, 107
1, 204480, Note_on_c, 5, 65, 64
1, 204480, Note_on_c, 6, 65, 125
1, 204480, Note_on_c, 9, 46, 117
1, 204480, Note_on_c, 12, 53, 80
1, 204482, Control_c, 5, 10, 10
1, 204482, Control_c, 12, 10, 27
1, 204498, Note_on_c, 9, 46, 0
1, 204523, Note_on_c, 12, 53, 0
1, 204530, Control_c, 12, 10, 34
1, 204537, Note_on_c, 4, 89, 0
1, 204554, Control_c, 12, 6, 40
1, 204570, Note_on_c, 5, 65, 0
1, 204570, Note_on_c, 1, 46, 0
1, 204576, Note_on_c, 5, 70, 64
1, 204576, Note_on_c, 9, 70, 50
1, 204576, Note_on_c, 12, 53, 73
1, 204578, Control_c, 5, 10, 14
1, 204578, Control_c, 12, 10, 41
1, 204594, Note_on_c, 9, 70, 0
1, 204610, Note_on_c, 12, 53, 0
1, 204626, Control_c, 12, 10, 49
1, 204655, Note_on_c, 6, 65, 0
1, 204657, Note_on_c, 4, 86, 0
1, 204666, Note_on_c, 5, 70, 0
1, 204672, Note_on_c, 1, 34, 66
1, 204672, Note_on_c, 4, 82, 107
1, 204672, Note_on_c, 5, 74, 95
1, 204672, Note_on_c, 9, 27, 127
1, 204672, Note_on_c, 9, 38, 127
1, 204672, Note_on_c, 9, 36, 127
1, 204672, Note_on_c, 9, 45, 107
1, 204672, Note_on_c, 9, 42, 76
1, 204672, Note_on_c, 9, 70, 96
1, 204672, Note_on_c, 12, 53, 80
1, 204674, Control_c, 5, 10, 18
1, 204674, Control_c, 12, 10, 56
1, 204690, Note_on_c, 9, 70, 0
1, 204690, Note_on_c, 9, 27, 0
1, 204690, Note_on_c, 9, 36, 0
1, 204690, Note_on_c, 9, 42, 0
1, 204690, Note_on_c, 9, 38, 0
1, 204690, Note_on_c, 9, 45, 0
1, 204715, Note_on_c, 12, 53, 0
1, 204722, Control_c, 12, 10, 63
1, 204758, Control_c, 12, 6, 60
1, 204762, Note_on_c, 1, 34, 0
1, 204762, Note_on_c, 5, 74, 0
1, 204768, Note_on_c, 5, 65, 68
1, 204768, Note_on_c, 9, 42, 85
1, 204768, Note_on_c, 12, 53, 73
1, 204770, Control_c, 5, 10, 22
1, 204770, Control_c, 12, 10, 70
1, 204786, Note_on_c, 9, 42, 0
1, 204802, Note_on_c, 12, 53, 0
1, 204818, Control_c, 12, 10, 77
1, 204839, Note_on_c, 3, 65, 0
1, 204858, Note_on_c, 5, 65, 0
1, 204864, Note_on_c, 1, 46, 92
1, 204864, Note_on_c, 4, 86, 107
1, 204864, Note_on_c, 5, 62, 59
1, 204864, Note_on_c, 6, 65, 105
1, 204864, Note_on_c, 9, 46, 102
1, 204864, Note_on_c, 9, 70, 90
1, 204864, Note_on_c, 12, 53, 80
1, 204866, Control_c, 5, 10, 26
1, 204866, Control_c, 12, 10, 84
1, 204882, Note_on_c, 9, 70, 0
1, 204882, Note_on_c, 9, 46, 0
1, 204901, Note_on_c, 4, 82, 0
1, 204907, Note_on_c, 12, 53, 0
1, 204914, Control_c, 12, 10, 92
1, 204938, Control_c, 12, 6, 85
1, 204954, Note_on_c, 5, 62, 0
1, 204954, Note_on_c, 1, 46, 0
1, 204960, Note_on_c, 5, 65, 53
1, 204960, Note_on_c, 12, 53, 73
1, 204962, Control_c, 5, 10, 30
1, 204962, Control_c, 12, 10, 99
1, 204994, Note_on_c, 12, 53, 0
1, 205010, Control_c, 12, 10, 106
1, 205016, Note_on_c, 6, 65, 0
1, 205030, Note_on_c, 4, 86, 0
1, 205050, Note_on_c, 5, 65, 0
1, 205056, Note_on_c, 1, 34, 66
1, 205056, Note_on_c, 3, 65, 80
1, 205056, Note_on_c, 4, 89, 107
1, 205056, Note_on_c, 5, 58, 64
1, 205056, Note_on_c, 9, 27, 127
1, 205056, Note_on_c, 9, 36, 127
1, 205056, Note_on_c, 9, 45, 107
1, 205056, Note_on_c, 9, 42, 76
1, 205056, Note_on_c, 9, 70, 102
1, 205056, Note_on_c, 12, 53, 80
1, 205058, Control_c, 5, 10, 34
1, 205058, Control_c, 12, 10, 113
1, 205074, Note_on_c, 9, 70, 0
1, 205074, Note_on_c, 9, 27, 0
1, 205074, Note_on_c, 9, 42, 0
1, 205074, Note_on_c, 9, 36, 0
1, 205074, Note_on_c, 9, 45, 0
1, 205099, Note_on_c, 12, 53, 0
1, 205106, Control_c, 12, 10, 120
1, 205146, Note_on_c, 1, 34, 0
1, 205146, Note_on_c, 5, 58, 0
1, 205152, Note_on_c, 5, 65, 65
1, 205152, Note_on_c, 9, 42, 85
1, 205152, Note_on_c, 12, 53, 73
1, 205154, Control_c, 5, 10, 38
1, 205154, Control_c, 12, 6, 110
1, 205170, Note_on_c, 9, 42, 0
1, 205186, Note_on_c, 12, 53, 0
1, 205242, Note_on_c, 5, 65, 0
1, 205248, Note_on_c, 1, 46, 92
1, 205248, Note_on_c, 4, 86, 107
1, 205248, Note_on_c, 5, 70, 65
1, 205248, Note_on_c, 6, 67, 107
1, 205248, Note_on_c, 9, 46, 117
1, 205248, Note_on_c, 9, 70, 30
1, 205250, Control_c, 5, 10, 42
1, 205266, Note_on_c, 9, 70, 0
1, 205266, Note_on_c, 9, 46, 0
1, 205298, Note_on_c, 4, 89, 0
1, 205338, Note_on_c, 5, 70, 0
1, 205338, Note_on_c, 1, 46, 0
1, 205344, Note_on_c, 5, 65, 65
1, 205344, Note_on_c, 9, 70, 59
1, 205346, Control_c, 5, 10, 45
1, 205362, Note_on_c, 9, 70, 0
1, 205376, Note_on_c, 6, 67, 0
1, 205426, Note_on_c, 3, 65, 0
1, 205434, Note_on_c, 5, 65, 0
1, 205440, Note_on_c, 1, 34, 66
1, 205440, Note_on_c, 3, 62, 82
1, 205440, Note_on_c, 4, 82, 107
1, 205440, Note_on_c, 5, 74, 95
1, 205440, Note_on_c, 9, 27, 127
1, 205440, Note_on_c, 9, 38, 127
1, 205440, Note_on_c, 9, 45, 107
1, 205440, Note_on_c, 9, 36, 127
1, 205440, Note_on_c, 9, 42, 76
1, 205440, Note_on_c, 9, 70, 86
1, 205442, Control_c, 5, 10, 49
1, 205458, Note_on_c, 9, 70, 0
1, 205458, Note_on_c, 9, 42, 0
1, 205458, Note_on_c, 9, 38, 0
1, 205458, Note_on_c, 9, 36, 0
1, 205458, Note_on_c, 9, 27, 0
1, 205458, Note_on_c, 9, 45, 0
1, 205475, Note_on_c, 4, 86, 0
1, 205530, Note_on_c, 5, 74, 0
1, 205530, Note_on_c, 1, 34, 0
1, 205536, Note_on_c, 5, 65, 71
1, 205536, Note_on_c, 9, 42, 85
1, 205538, Control_c, 5, 10, 53
1, 205554, Note_on_c, 9, 42, 0
1, 205626, Note_on_c, 5, 65, 0
1, 205632, Note_on_c, 1, 46, 89
1, 205632, Note_on_c, 4, 86, 107
1, 205632, Note_on_c, 5, 58, 56
1, 205632, Note_on_c, 6, 69, 110
1, 205632, Note_on_c, 9, 46, 117
1, 205632, Note_on_c, 9, 70, 76
1, 205634, Control_c, 5, 10, 57
1, 205650, Note_on_c, 9, 70, 0
1, 205650, Note_on_c, 9, 46, 0
1, 205654, Note_on_c, 4, 82, 0
1, 205682, Note_on_c, 2, 53, 0
1, 205682, Note_on_c, 2, 58, 0
1, 205722, Note_on_c, 5, 58, 0
1, 205726, Note_on_c, 1, 46, 0
1, 205728, Note_on_c, 5, 62, 53
1, 205730, Control_c, 5, 10, 61
1, 205760, Note_on_c, 6, 69, 0
1, 205761, Control_c, 12, 6, 10
1, 205773, Note_on_c, 3, 62, 0
1, 205778, Note_on_c, 2, 46, 0
1, 205778, Note_on_c, 2, 62, 0
1, 205784, Note_on_c, 2, 43, 61
1, 205784, Note_on_c, 2, 55, 61
1, 205784, Note_on_c, 2, 58, 61
1, 205792, Note_on_c, 2, 62, 61
1, 205803, Note_on_c, 4, 86, 0
1, 205818, Note_on_c, 5, 62, 0
1, 205824, Note_on_c, 1, 31, 63
1, 205824, Note_on_c, 3, 65, 82
1, 205824, Note_on_c, 4, 91, 107
1, 205824, Note_on_c, 5, 55, 47
1, 205824, Note_on_c, 9, 27, 127
1, 205824, Note_on_c, 9, 45, 107
1, 205824, Note_on_c, 9, 36, 127
1, 205824, Note_on_c, 9, 42, 76
1, 205824, Note_on_c, 9, 70, 102
1, 205824, Note_on_c, 12, 55, 80
1, 205826, Control_c, 5, 10, 65
1, 205826, Control_c, 12, 10, 125
1, 205842, Note_on_c, 9, 70, 0
1, 205842, Note_on_c, 9, 27, 0
1, 205842, Note_on_c, 9, 42, 0
1, 205842, Note_on_c, 9, 45, 0
1, 205842, Note_on_c, 9, 36, 0
1, 205867, Note_on_c, 12, 55, 0
1, 205874, Control_c, 12, 10, 119
1, 205911, Note_on_c, 1, 31, 0
1, 205914, Note_on_c, 5, 55, 0
1, 205920, Note_on_c, 5, 58, 64
1, 205920, Note_on_c, 9, 42, 85
1, 205920, Note_on_c, 12, 55, 73
1, 205922, Control_c, 5, 10, 69
1, 205922, Control_c, 12, 10, 113
1, 205938, Note_on_c, 9, 42, 0
1, 205953, Control_c, 12, 6, 25
1, 205954, Note_on_c, 12, 55, 0
1, 205970, Control_c, 12, 10, 107
1, 206010, Note_on_c, 5, 58, 0
1, 206016, Note_on_c, 1, 43, 89
1, 206016, Note_on_c, 4, 86, 107
1, 206016, Note_on_c, 5, 60, 64
1, 206016, Note_on_c, 6, 72, 110
1, 206016, Note_on_c, 9, 46, 117
1, 206016, Note_on_c, 12, 55, 80
1, 206018, Control_c, 5, 10, 73
1, 206018, Control_c, 12, 10, 101
1, 206034, Note_on_c, 9, 46, 0
1, 206059, Note_on_c, 12, 55, 0
1, 206064, Note_on_c, 4, 91, 0
1, 206066, Control_c, 12, 10, 95
1, 206106, Note_on_c, 5, 60, 0
1, 206106, Note_on_c, 1, 43, 0
1, 206112, Note_on_c, 5, 62, 80
1, 206112, Note_on_c, 9, 70, 54
1, 206112, Note_on_c, 12, 55, 73
1, 206114, Control_c, 5, 10, 77
1, 206114, Control_c, 12, 10, 89
1, 206121, Control_c, 12, 6, 40
1, 206130, Note_on_c, 9, 70, 0
1, 206144, Note_on_c, 6, 72, 0
1, 206146, Note_on_c, 12, 55, 0
1, 206162, Control_c, 12, 10, 83
1, 206175, Note_on_c, 4, 86, 0
1, 206202, Note_on_c, 5, 62, 0
1, 206208, Note_on_c, 1, 31, 63
1, 206208, Note_on_c, 4, 82, 107
1, 206208, Note_on_c, 5, 67, 68
1, 206208, Note_on_c, 9, 27, 127
1, 206208, Note_on_c, 9, 38, 127
1, 206208, Note_on_c, 9, 45, 107
1, 206208, Note_on_c, 9, 36, 127
1, 206208, Note_on_c, 9, 42, 76
1, 206208, Note_on_c, 9, 70, 102
1, 206208, Note_on_c, 12, 55, 80
1, 206210, Control_c, 5, 10, 81
1, 206210, Control_c, 12, 10, 77
1, 206226, Note_on_c, 9, 70, 0
1, 206226, Note_on_c, 9, 27, 0
1, 206226, Note_on_c, 9, 45, 0
1, 206226, Note_on_c, 9, 42, 0
1, 206226, Note_on_c, 9, 38, 0
1, 206226, Note_on_c, 9, 36, 0
1, 206251, Note_on_c, 12, 55, 0
1, 206258, Control_c, 12, 10, 71
1, 206298, Note_on_c, 1, 31, 0
1, 206298, Note_on_c, 5, 67, 0
1, 206304, Note_on_c, 5, 70, 65
1, 206304, Note_on_c, 9, 42, 85
1, 206304, Note_on_c, 12, 55, 73
1, 206306, Control_c, 5, 10, 85
1, 206306, Control_c, 12, 10, 65
1, 206322, Note_on_c, 9, 42, 0
1, 206325, Control_c, 12, 6, 60
1, 206338, Note_on_c, 12, 55, 0
1, 206354, Control_c, 12, 10, 59
1, 206394, Note_on_c, 5, 70, 0
1, 206400, Note_on_c, 1, 43, 89
1, 206400, Note_on_c, 4, 86, 107
1, 206400, Note_on_c, 5, 74, 64
1, 206400, Note_on_c, 6, 69, 104
1, 206400, Note_on_c, 9, 46, 117
1, 206400, Note_on_c, 9, 70, 90
1, 206400, Note_on_c, 12, 55, 80
1, 206402, Control_c, 5, 10, 88
1, 206402, Control_c, 12, 10, 53
1, 206418, Note_on_c, 9, 70, 0
1, 206418, Note_on_c, 9, 46, 0
1, 206432, Note_on_c, 4, 82, 0
1, 206443, Note_on_c, 12, 55, 0
1, 206450, Control_c, 12, 10, 47
1, 206490, Note_on_c, 5, 74, 0
1, 206490, Note_on_c, 1, 43, 0
1, 206496, Note_on_c, 5, 77, 71
1, 206496, Note_on_c, 12, 55, 73
1, 206498, Control_c, 5, 10, 92
1, 206498, Control_c, 12, 10, 41
1, 206505, Control_c, 12, 6, 85
1, 206528, Note_on_c, 6, 69, 0
1, 206530, Note_on_c, 12, 55, 0
1, 206546, Note_on_c, 2, 43, 0
1, 206546, Note_on_c, 2, 55, 0
1, 206546, Note_on_c, 2, 58, 0
1, 206546, Control_c, 12, 10, 35
1, 206552, Note_on_c, 2, 48, 61
1, 206552, Note_on_c, 2, 55, 61
1, 206552, Note_on_c, 2, 60, 61
1, 206552, Note_on_c, 2, 64, 61
1, 206554, Note_on_c, 2, 62, 0
1, 206556, Note_on_c, 4, 86, 0
1, 206586, Note_on_c, 5, 77, 0
1, 206592, Note_on_c, 1, 36, 63
1, 206592, Note_on_c, 3, 67, 95
1, 206592, Note_on_c, 4, 91, 107
1, 206592, Note_on_c, 5, 79, 80
1, 206592, Note_on_c, 9, 27, 127
1, 206592, Note_on_c, 9, 45, 107
1, 206592, Note_on_c, 9, 36, 127
1, 206592, Note_on_c, 9, 42, 76
1, 206592, Note_on_c, 9, 70, 96
1, 206592, Note_on_c, 12, 55, 80
1, 206594, Control_c, 5, 10, 96
1, 206594, Control_c, 12, 10, 29
1, 206610, Note_on_c, 9, 70, 0
1, 206610, Note_on_c, 9, 42, 0
1, 206610, Note_on_c, 9, 45, 0
1, 206610, Note_on_c, 9, 27, 0
1, 206610, Note_on_c, 9, 36, 0
1, 206621, Note_on_c, 3, 65, 0
1, 206635, Note_on_c, 12, 55, 0
1, 206642, Control_c, 12, 10, 23
1, 206682, Note_on_c, 5, 79, 0
1, 206682, Note_on_c, 1, 36, 0
1, 206688, Note_on_c, 5, 74, 71
1, 206688, Note_on_c, 9, 42, 85
1, 206688, Note_on_c, 12, 55, 73
1, 206690, Control_c, 5, 10, 100
1, 206690, Control_c, 12, 10, 17
1, 206706, Note_on_c, 9, 42, 0
1, 206721, Control_c, 12, 6, 110
1, 206722, Note_on_c, 12, 55, 0
1, 206738, Control_c, 12, 10, 11
1, 206778, Note_on_c, 5, 74, 0
1, 206784, Note_on_c, 1, 48, 86
1, 206784, Note_on_c, 4, 88, 107
1, 206784, Note_on_c, 5, 72, 71
1, 206784, Note_on_c, 6, 67, 104
1, 206784, Note_on_c, 9, 46, 117
1, 206784, Note_on_c, 9, 70, 23
1, 206786, Control_c, 5, 10, 104
1, 206786, Control_c, 12, 10, 5
1, 206802, Note_on_c, 9, 70, 0
1, 206802, Note_on_c, 9, 46, 0
1, 206844, Note_on_c, 4, 91, 0
1, 206874, Note_on_c, 5, 72, 0
1, 206874, Note_on_c, 1, 48, 0
1, 206880, Note_on_c, 5, 70, 65
1, 206880, Note_on_c, 9, 70, 36
1, 206882, Control_c, 5, 10, 108
1, 206898, Note_on_c, 9, 70, 0
1, 206912, Note_on_c, 6, 67, 0
1, 206960, Note_on_c, 4, 88, 0
1, 206970, Note_on_c, 5, 70, 0
1, 206976, Note_on_c, 1, 36, 63
1, 206976, Note_on_c, 4, 84, 107
1, 206976, Note_on_c, 5, 67, 68
1, 206976, Note_on_c, 9, 27, 127
1, 206976, Note_on_c, 9, 38, 127
1, 206976, Note_on_c, 9, 45, 107
1, 206976, Note_on_c, 9, 36, 127
1, 206976, Note_on_c, 9, 42, 76
1, 206976, Note_on_c, 9, 70, 102
1, 206978, Control_c, 5, 10, 112
1, 206994, Note_on_c, 9, 70, 0
1, 206994, Note_on_c, 9, 45, 0
1, 206994, Note_on_c, 9, 27, 0
1, 206994, Note_on_c, 9, 42, 0
1, 206994, Note_on_c, 9, 38, 0
1, 206994, Note_on_c, 9, 36, 0
1, 207066, Note_on_c, 5, 67, 0
1, 207066, Note_on_c, 1, 36, 0
1, 207072, Note_on_c, 5, 62, 80
1, 207072, Note_on_c, 9, 42, 85
1, 207074, Control_c, 5, 10, 116
1, 207090, Note_on_c, 9, 42, 0
1, 207162, Note_on_c, 5, 62, 0
1, 207168, Note_on_c, 1, 48, 86
1, 207168, Note_on_c, 4, 88, 107
1, 207168, Note_on_c, 5, 67, 80
1, 207168, Note_on_c, 6, 65, 104
1, 207168, Note_on_c, 9, 46, 117
1, 207168, Note_on_c, 9, 70, 73
1, 207170, Control_c, 5, 10, 120
1, 207186, Note_on_c, 9, 70, 0
1, 207186, Note_on_c, 9, 46, 0
1, 207195, Note_on_c, 4, 84, 0
1, 207258, Note_on_c, 5, 67, 0
1, 207262, Note_on_c, 1, 48, 0
1, 207264, Note_on_c, 5, 62, 80
1, 207266, Control_c, 5, 10, 124
1, 207266, Control_c, 12, 6, 10
1, 207295, Note_on_c, 4, 88, 0
1, 207296, Note_on_c, 6, 65, 0
1, 207314, Note_on_c, 2, 60, 0
1, 207314, Note_on_c, 2, 64, 0
1, 207314, Note_on_c, 2, 48, 0
1, 207314, Note_on_c, 2, 55, 0
1, 207320, Note_on_c, 2, 41, 61
1, 207320, Note_on_c, 2, 60, 61
1, 207320, Note_on_c, 2, 65, 61
1, 207320, Note_on_c, 2, 69, 61
1, 207347, Note_on_c, 3, 67, 0
1, 207354, Note_on_c, 5, 62, 0
1, 207360, Note_on_c, 1, 29, 60
1, 207360, Note_on_c, 3, 65, 67
1, 207360, Note_on_c, 4, 89, 107
1, 207360, Note_on_c, 5, 53, 59
1, 207360, Note_on_c, 9, 27, 127
1, 207360, Note_on_c, 9, 45, 107
1, 207360, Note_on_c, 9, 36, 127
1, 207360, Note_on_c, 9, 42, 76
1, 207360, Note_on_c, 9, 70, 102
1, 207360, Note_on_c, 12, 53, 80
1, 207362, Control_c, 5, 10, 127
1, 207362, Control_c, 5, 11, 127
1, 207378, Note_on_c, 9, 70, 0
1, 207378, Note_on_c, 9, 27, 0
1, 207378, Note_on_c, 9, 42, 0
1, 207378, Note_on_c, 9, 45, 0
1, 207378, Note_on_c, 9, 36, 0
1, 207403, Note_on_c, 12, 53, 0
1, 207410, Control_c, 12, 10, 5
1, 207447, Note_on_c, 1, 29, 0
1, 207450, Note_on_c, 5, 53, 0
1, 207456, Note_on_c, 5, 60, 74
1, 207456, Note_on_c, 9, 42, 85
1, 207456, Note_on_c, 12, 53, 73
1, 207458, Control_c, 5, 10, 124
1, 207458, Control_c, 12, 10, 13
1, 207458, Control_c, 12, 6, 25
1, 207474, Note_on_c, 9, 42, 0
1, 207490, Note_on_c, 12, 53, 0
1, 207506, Control_c, 12, 10, 20
1, 207546, Note_on_c, 5, 60, 0
1, 207552, Note_on_c, 1, 41, 92
1, 207552, Note_on_c, 5, 65, 64
1, 207552, Note_on_c, 6, 65, 104
1, 207552, Note_on_c, 9, 46, 117
1, 207552, Note_on_c, 12, 53, 80
1, 207554, Control_c, 5, 10, 120
1, 207554, Control_c, 12, 10, 27
1, 207570, Note_on_c, 9, 46, 0
1, 207595, Note_on_c, 12, 53, 0
1, 207602, Control_c, 12, 10, 34
1, 207626, Control_c, 12, 6, 40
1, 207642, Note_on_c, 1, 41, 0
1, 207648, Note_on_c, 5, 72, 64
1, 207648, Note_on_c, 9, 70, 50
1, 207648, Note_on_c, 12, 53, 73
1, 207650, Control_c, 5, 10, 116
1, 207650, Control_c, 12, 10, 41
1, 207666, Note_on_c, 9, 70, 0
1, 207667, Note_on_c, 5, 65, 0
1, 207680, Note_on_c, 6, 65, 0
1, 207682, Note_on_c, 12, 53, 0
1, 207698, Control_c, 12, 10, 49
1, 207738, Note_on_c, 5, 72, 0
1, 207744, Note_on_c, 1, 29, 66
1, 207744, Note_on_c, 5, 77, 92
1, 207744, Note_on_c, 9, 27, 127
1, 207744, Note_on_c, 9, 38, 127
1, 207744, Note_on_c, 9, 45, 107
1, 207744, Note_on_c, 9, 36, 127
1, 207744, Note_on_c, 9, 42, 76
1, 207744, Note_on_c, 9, 70, 96
1, 207744, Note_on_c, 12, 53, 80
1, 207746, Control_c, 5, 10, 112
1, 207746, Control_c, 12, 10, 56
1, 207762, Note_on_c, 9, 70, 0
1, 207762, Note_on_c, 9, 27, 0
1, 207762, Note_on_c, 9, 45, 0
1, 207762, Note_on_c, 9, 42, 0
1, 207762, Note_on_c, 9, 38, 0
1, 207762, Note_on_c, 9, 36, 0
1, 207787, Note_on_c, 12, 53, 0
1, 207794, Control_c, 12, 10, 63
1, 207830, Control_c, 12, 6, 60
1, 207834, Note_on_c, 1, 29, 0
1, 207834, Note_on_c, 5, 77, 0
1, 207840, Note_on_c, 5, 72, 64
1, 207840, Note_on_c, 9, 42, 85
1, 207840, Note_on_c, 12, 53, 73
1, 207842, Control_c, 5, 10, 108
1, 207842, Control_c, 12, 10, 70
1, 207858, Note_on_c, 9, 42, 0
1, 207874, Note_on_c, 12, 53, 0
1, 207890, Control_c, 12, 10, 77
1, 207930, Note_on_c, 5, 72, 0
1, 207936, Note_on_c, 1, 41, 92
1, 207936, Note_on_c, 5, 65, 64
1, 207936, Note_on_c, 6, 65, 104
1, 207936, Note_on_c, 9, 46, 102
1, 207936, Note_on_c, 9, 70, 90
1, 207936, Note_on_c, 12, 53, 80
1, 207938, Control_c, 5, 10, 104
1, 207938, Control_c, 12, 10, 84
1, 207954, Note_on_c, 9, 70, 0
1, 207954, Note_on_c, 9, 46, 0
1, 207979, Note_on_c, 12, 53, 0
1, 207986, Control_c, 12, 10, 92
1, 208010, Control_c, 12, 6, 85
1, 208026, Note_on_c, 1, 41, 0
1, 208032, Note_on_c, 5, 60, 74
1, 208032, Note_on_c, 12, 53, 73
1, 208034, Control_c, 5, 10, 100
1, 208034, Control_c, 12, 10, 99
1, 208051, Note_on_c, 5, 65, 0
1, 208062, Note_on_c, 4, 89, 0
1, 208064, Note_on_c, 6, 65, 0
1, 208066, Note_on_c, 12, 53, 0
1, 208082, Control_c, 12, 10, 106
1, 208122, Note_on_c, 5, 60, 0
1, 208128, Note_on_c, 1, 29, 66
1, 208128, Note_on_c, 5, 53, 59
1, 208128, Note_on_c, 9, 27, 127
1, 208128, Note_on_c, 9, 45, 107
1, 208128, Note_on_c, 9, 36, 127
1, 208128, Note_on_c, 9, 42, 76
1, 208128, Note_on_c, 9, 70, 102
1, 208128, Note_on_c, 12, 53, 80
1, 208130, Control_c, 5, 10, 96
1, 208130, Control_c, 12, 10, 113
1, 208146, Note_on_c, 9, 70, 0
1, 208146, Note_on_c, 9, 45, 0
1, 208146, Note_on_c, 9, 27, 0
1, 208146, Note_on_c, 9, 42, 0
1, 208146, Note_on_c, 9, 36, 0
1, 208171, Note_on_c, 12, 53, 0
1, 208178, Control_c, 12, 10, 120
1, 208218, Note_on_c, 1, 29, 0
1, 208218, Note_on_c, 5, 53, 0
1, 208224, Note_on_c, 5, 60, 74
1, 208224, Note_on_c, 9, 42, 85
1, 208224, Note_on_c, 12, 53, 73
1, 208226, Control_c, 5, 10, 92
1, 208226, Control_c, 12, 6, 110
1, 208242, Note_on_c, 9, 42, 0
1, 208258, Note_on_c, 12, 53, 0
1, 208314, Note_on_c, 5, 60, 0
1, 208320, Note_on_c, 1, 41, 92
1, 208320, Note_on_c, 5, 65, 64
1, 208320, Note_on_c, 6, 65, 104
1, 208320, Note_on_c, 9, 46, 117
1, 208320, Note_on_c, 9, 70, 30
1, 208322, Control_c, 5, 10, 88
1, 208338, Note_on_c, 9, 70, 0
1, 208338, Note_on_c, 9, 46, 0
1, 208410, Note_on_c, 1, 41, 0
1, 208416, Note_on_c, 5, 72, 64
1, 208416, Note_on_c, 9, 70, 59
1, 208418, Control_c, 5, 10, 84
1, 208434, Note_on_c, 9, 70, 0
1, 208435, Note_on_c, 5, 65, 0
1, 208448, Note_on_c, 6, 65, 0
1, 208506, Note_on_c, 5, 72, 0
1, 208512, Note_on_c, 1, 29, 66
1, 208512, Note_on_c, 5, 77, 92
1, 208512, Note_on_c, 9, 27, 127
1, 208512, Note_on_c, 9, 38, 127
1, 208512, Note_on_c, 9, 45, 107
1, 208512, Note_on_c, 9, 36, 127
1, 208512, Note_on_c, 9, 42, 76
1, 208512, Note_on_c, 9, 70, 86
1, 208514, Control_c, 5, 10, 80
1, 208530, Note_on_c, 9, 70, 0
1, 208530, Note_on_c, 9, 38, 0
1, 208530, Note_on_c, 9, 27, 0
1, 208530, Note_on_c, 9, 42, 0
1, 208530, Note_on_c, 9, 45, 0
1, 208530, Note_on_c, 9, 36, 0
1, 208602, Note_on_c, 1, 29, 0
1, 208602, Note_on_c, 5, 77, 0
1, 208608, Note_on_c, 5, 72, 64
1, 208608, Note_on_c, 9, 42, 85
1, 208610, Control_c, 5, 10, 76
1, 208626, Note_on_c, 9, 42, 0
1, 208698, Note_on_c, 5, 72, 0
1, 208704, Note_on_c, 1, 41, 89
1, 208704, Note_on_c, 5, 65, 64
1, 208704, Note_on_c, 6, 65, 104
1, 208704, Note_on_c, 9, 46, 117
1, 208704, Note_on_c, 9, 70, 76
1, 208706, Control_c, 5, 10, 72
1, 208722, Note_on_c, 9, 70, 0
1, 208722, Note_on_c, 9, 46, 0
1, 208754, Note_on_c, 2, 41, 0
1, 208798, Note_on_c, 1, 41, 0
1, 208800, Note_on_c, 5, 60, 74
1, 208802, Control_c, 5, 10, 68
1, 208802, Control_c, 12, 6, 10
1, 208819, Note_on_c, 5, 65, 0
1, 208832, Note_on_c, 6, 65, 0
1, 208856, Note_on_c, 2, 77, 46
1, 208870, Control_c, 2, 11, 127
1, 208890, Note_on_c, 5, 60, 0
1, 208896, Note_on_c, 1, 29, 63
1, 208896, Note_on_c, 5, 53, 59
1, 208896, Note_on_c, 9, 27, 127
1, 208896, Note_on_c, 9, 45, 107
1, 208896, Note_on_c, 9, 36, 127
1, 208896, Note_on_c, 9, 42, 76
1, 208896, Note_on_c, 9, 70, 102
1, 208896, Note_on_c, 12, 53, 80
1, 208898, Control_c, 5, 10, 64
1, 208898, Control_c, 5, 11, 125
1, 208898, Control_c, 12, 10, 125
1, 208904, Note_on_c, 3, 65, 0
1, 208914, Note_on_c, 9, 36, 0
1, 208914, Note_on_c, 9, 45, 0
1, 208914, Note_on_c, 9, 27, 0
1, 208914, Note_on_c, 9, 70, 0
1, 208914, Note_on_c, 9, 42, 0
1, 208939, Note_on_c, 12, 53, 0
1, 208946, Control_c, 12, 10, 119
1, 208983, Note_on_c, 1, 29, 0
1, 208986, Note_on_c, 5, 53, 0
1, 208992, Note_on_c, 5, 60, 74
1, 208992, Note_on_c, 9, 42, 85
1, 208992, Note_on_c, 12, 53, 73
1, 208994, Control_c, 5, 10, 60
1, 208994, Control_c, 5, 11, 120
1, 208994, Control_c, 12, 10, 113
1, 208994, Control_c, 12, 6, 25
1, 209010, Note_on_c, 9, 42, 0
1, 209026, Note_on_c, 12, 53, 0
1, 209042, Control_c, 12, 10, 107
1, 209082, Note_on_c, 5, 60, 0
1, 209088, Note_on_c, 1, 41, 89
1, 209088, Note_on_c, 5, 65, 64
1, 209088, Note_on_c, 6, 65, 104
1, 209088, Note_on_c, 9, 46, 117
1, 209088, Note_on_c, 12, 53, 80
1, 209090, Control_c, 5, 10, 56
1, 209090, Control_c, 5, 11, 116
1, 209090, Control_c, 12, 10, 101
1, 209106, Note_on_c, 9, 46, 0
1, 209131, Note_on_c, 12, 53, 0
1, 209138, Control_c, 12, 10, 95
1, 209162, Control_c, 12, 6, 40
1, 209178, Note_on_c, 1, 41, 0
1, 209184, Note_on_c, 5, 72, 64
1, 209184, Note_on_c, 9, 70, 54
1, 209184, Note_on_c, 12, 53, 73
1, 209186, Control_c, 5, 10, 52
1, 209186, Control_c, 5, 11, 111
1, 209186, Control_c, 12, 10, 89
1, 209202, Note_on_c, 9, 70, 0
1, 209203, Note_on_c, 5, 65, 0
1, 209216, Note_on_c, 6, 65, 0
1, 209218, Note_on_c, 12, 53, 0
1, 209234, Control_c, 12, 10, 83
1, 209274, Note_on_c, 5, 72, 0
1, 209280, Note_on_c, 1, 29, 63
1, 209280, Note_on_c, 5, 77, 92
1, 209280, Note_on_c, 9, 27, 127
1, 209280, Note_on_c, 9, 38, 127
1, 209280, Note_on_c, 9, 45, 107
1, 209280, Note_on_c, 9, 36, 127
1, 209280, Note_on_c, 9, 42, 76
1, 209280, Note_on_c, 9, 70, 102
1, 209280, Note_on_c, 12, 53, 80
1, 209282, Control_c, 5, 10, 48
1, 209282, Control_c, 5, 11, 107
1, 209282, Control_c, 12, 10, 77
1, 209298, Note_on_c, 9, 70, 0
1, 209298, Note_on_c, 9, 45, 0
1, 209298, Note_on_c, 9, 38, 0
1, 209298, Note_on_c, 9, 27, 0
1, 209298, Note_on_c, 9, 42, 0
1, 209298, Note_on_c, 9, 36, 0
1, 209323, Note_on_c, 12, 53, 0
1, 209330, Control_c, 12, 10, 71
1, 209366, Control_c, 12, 6, 60
1, 209370, Note_on_c, 5, 77, 0
1, 209370, Note_on_c, 1, 29, 0
1, 209376, Note_on_c, 5, 72, 64
1, 209376, Note_on_c, 9, 42, 85
1, 209376, Note_on_c, 12, 53, 73
1, 209378, Control_c, 5, 10, 44
1, 209378, Control_c, 5, 11, 102
1, 209378, Control_c, 12, 10, 65
1, 209394, Note_on_c, 9, 42, 0
1, 209410, Note_on_c, 12, 53, 0
1, 209426, Control_c, 12, 10, 59
1, 209466, Note_on_c, 5, 72, 0
1, 209472, Note_on_c, 1, 41, 89
1, 209472, Note_on_c, 5, 65, 64
1, 209472, Note_on_c, 6, 65, 104
1, 209472, Note_on_c, 9, 46, 117
1, 209472, Note_on_c, 9, 70, 90
1, 209472, Note_on_c, 12, 53, 80
1, 209474, Control_c, 5, 10, 40
1, 209474, Control_c, 5, 11, 98
1, 209474, Control_c, 12, 10, 53
1, 209480, Control_c, 2, 64, 127
1, 209480, Control_c, 2, 64, 127
1, 209482, Control_c, 2, 64, 127
1, 209483, Control_c, 2, 64, 127
1, 209484, Control_c, 2, 64, 127
1, 209484, Control_c, 2, 64, 127
1, 209484, Control_c, 2, 64, 127
1, 209484, Control_c, 2, 64, 127
1, 209484, Control_c, 2, 64, 127
1, 209484, Control_c, 2, 64, 127
1, 209484, Control_c, 2, 64, 127
1, 209484, Control_c, 2, 64, 127
1, 209484, Control_c, 2, 64, 127
1, 209484, Control_c, 2, 64, 127
1, 209484, Control_c, 2, 64, 127
1, 209490, Note_on_c, 9, 70, 0
1, 209490, Note_on_c, 9, 46, 0
1, 209515, Note_on_c, 12, 53, 0
1, 209522, Control_c, 12, 10, 47
1, 209546, Control_c, 12, 6, 85
1, 209562, Note_on_c, 1, 41, 0
1, 209568, Note_on_c, 5, 60, 74
1, 209568, Note_on_c, 9, 27, 127
1, 209568, Note_on_c, 9, 45, 107
1, 209568, Note_on_c, 9, 36, 127
1, 209568, Note_on_c, 12, 53, 73
1, 209570, Control_c, 5, 10, 36
1, 209570, Control_c, 5, 11, 93
1, 209570, Control_c, 12, 10, 41
1, 209586, Note_on_c, 9, 36, 0
1, 209586, Note_on_c, 9, 45, 0
1, 209586, Note_on_c, 9, 27, 0
1, 209587, Note_on_c, 5, 65, 0
1, 209600, Note_on_c, 6, 65, 0
1, 209600, Control_c, 2, 64, 0
1, 209600, Control_c, 2, 64, 0
1, 209600, Control_c, 2, 64, 0
1, 209600, Control_c, 2, 64, 0
1, 209600, Control_c, 2, 64, 0
1, 209600, Control_c, 2, 64, 0
1, 209600, Control_c, 2, 64, 0
1, 209600, Control_c, 2, 64, 0
1, 209600, Control_c, 2, 64, 0
1, 209600, Control_c, 2, 64, 0
1, 209600, Control_c, 2, 64, 0
1, 209600, Control_c, 2, 64, 0
1, 209600, Control_c, 2, 64, 0
1, 209600, Control_c, 2, 64, 0
1, 209600, Control_c, 2, 64, 0
1, 209602, Note_on_c, 12, 53, 0
1, 209618, Control_c, 12, 10, 35
1, 209647, Note_on_c, 2, 69, 0
1, 209653, Note_on_c, 2, 69, 62
1, 209658, Note_on_c, 5, 60, 0
1, 209664, Note_on_c, 1, 29, 63
1, 209664, Note_on_c, 5, 53, 59
1, 209664, Note_on_c, 9, 27, 127
1, 209664, Note_on_c, 9, 45, 107
1, 209664, Note_on_c, 9, 36, 127
1, 209664, Note_on_c, 9, 42, 76
1, 209664, Note_on_c, 9, 70, 96
1, 209664, Note_on_c, 12, 53, 80
1, 209666, Control_c, 5, 10, 32
1, 209666, Control_c, 5, 11, 89
1, 209666, Control_c, 12, 10, 29
1, 209682, Note_on_c, 9, 70, 0
1, 209682, Note_on_c, 9, 36, 0
1, 209682, Note_on_c, 9, 45, 0
1, 209682, Note_on_c, 9, 27, 0
1, 209682, Note_on_c, 9, 42, 0
1, 209707, Note_on_c, 12, 53, 0
1, 209714, Control_c, 12, 10, 23
1, 209754, Note_on_c, 5, 53, 0
1, 209754, Note_on_c, 1, 29, 0
1, 209760, Note_on_c, 5, 60, 74
1, 209760, Note_on_c, 9, 42, 85
1, 209760, Note_on_c, 12, 53, 73
1, 209762, Control_c, 5, 10, 28
1, 209762, Control_c, 5, 11, 84
1, 209762, Control_c, 12, 10, 17
1, 209762, Control_c, 12, 6, 110
1, 209778, Note_on_c, 9, 42, 0
1, 209794, Note_on_c, 12, 53, 0
1, 209810, Control_c, 12, 10, 11
1, 209850, Note_on_c, 5, 60, 0
1, 209856, Note_on_c, 1, 41, 86
1, 209856, Note_on_c, 5, 65, 64
1, 209856, Note_on_c, 6, 65, 104
1, 209856, Note_on_c, 9, 27, 127
1, 209856, Note_on_c, 9, 45, 107
1, 209856, Note_on_c, 9, 36, 127
1, 209856, Note_on_c, 9, 46, 117
1, 209856, Note_on_c, 9, 70, 23
1, 209858, Control_c, 5, 10, 24
1, 209858, Control_c, 5, 11, 80
1, 209858, Control_c, 12, 10, 5
1, 209874, Note_on_c, 9, 70, 0
1, 209874, Note_on_c, 9, 45, 0
1, 209874, Note_on_c, 9, 27, 0
1, 209874, Note_on_c, 9, 46, 0
1, 209874, Note_on_c, 9, 36, 0
1, 209946, Note_on_c, 1, 41, 0
1, 209952, Note_on_c, 5, 72, 64
1, 209952, Note_on_c, 9, 70, 36
1, 209954, Control_c, 5, 10, 20
1, 209954, Control_c, 5, 11, 75
1, 209970, Note_on_c, 9, 70, 0
1, 209971, Note_on_c, 5, 65, 0
1, 209984, Note_on_c, 6, 65, 0
1, 210042, Note_on_c, 5, 72, 0
1, 210048, Note_on_c, 1, 29, 63
1, 210048, Note_on_c, 5, 77, 92
1, 210048, Note_on_c, 9, 27, 127
1, 210048, Note_on_c, 9, 38, 127
1, 210048, Note_on_c, 9, 45, 107
1, 210048, Note_on_c, 9, 36, 127
1, 210048, Note_on_c, 9, 42, 76
1, 210048, Note_on_c, 9, 70, 102
1, 210050, Control_c, 5, 10, 16
1, 210050, Control_c, 5, 11, 71
1, 210066, Note_on_c, 9, 70, 0
1, 210066, Note_on_c, 9, 45, 0
1, 210066, Note_on_c, 9, 38, 0
1, 210066, Note_on_c, 9, 27, 0
1, 210066, Note_on_c, 9, 42, 0
1, 210066, Note_on_c, 9, 36, 0
1, 210138, Note_on_c, 5, 77, 0
1, 210138, Note_on_c, 1, 29, 0
1, 210144, Note_on_c, 5, 72, 64
1, 210144, Note_on_c, 9, 42, 85
1, 210146, Control_c, 5, 10, 12
1, 210146, Control_c, 5, 11, 66
1, 210162, Note_on_c, 9, 42, 0
1, 210234, Note_on_c, 5, 72, 0
1, 210240, Note_on_c, 1, 41, 86
1, 210240, Note_on_c, 5, 65, 64
1, 210240, Note_on_c, 6, 65, 104
1, 210240, Note_on_c, 9, 27, 127
1, 210240, Note_on_c, 9, 45, 107
1, 210240, Note_on_c, 9, 36, 127
1, 210240, Note_on_c, 9, 46, 117
1, 210240, Note_on_c, 9, 70, 73
1, 210242, Control_c, 5, 10, 8
1, 210242, Control_c, 5, 11, 62
1, 210258, Note_on_c, 9, 70, 0
1, 210258, Note_on_c, 9, 45, 0
1, 210258, Note_on_c, 9, 27, 0
1, 210258, Note_on_c, 9, 46, 0
1, 210258, Note_on_c, 9, 36, 0
1, 210334, Note_on_c, 1, 41, 0
1, 210336, Note_on_c, 5, 60, 74
1, 210336, Note_on_c, 9, 27, 127
1, 210336, Note_on_c, 9, 45, 107
1, 210336, Note_on_c, 9, 36, 127
1, 210338, Control_c, 5, 10, 4
1, 210338, Control_c, 5, 11, 58
1, 210338, Control_c, 12, 6, 10
1, 210354, Note_on_c, 9, 36, 0
1, 210354, Note_on_c, 9, 45, 0
1, 210354, Note_on_c, 9, 27, 0
1, 210355, Note_on_c, 5, 65, 0
1, 210368, Note_on_c, 6, 65, 0
1, 210376, Note_on_c, 2, 65, 0
1, 210382, Note_on_c, 2, 65, 61
1, 210384, Note_on_c, 2, 46, 61
1, 210384, Note_on_c, 2, 58, 61
1, 210384, Note_on_c, 2, 62, 61
1, 210426, Note_on_c, 2, 65, 0
1, 210426, Note_on_c, 2, 60, 0
1, 210426, Note_on_c, 5, 60, 0
1, 210426, Note_on_c, 2, 69, 0
1, 210430, Control_c, 2, 11, 119
1, 210432, Note_on_c, 1, 34, 60
1, 210432, Note_on_c, 5, 65, 98
1, 210432, Note_on_c, 5, 77, 98
1, 210432, Note_on_c, 9, 27, 127
1, 210432, Note_on_c, 9, 45, 107
1, 210432, Note_on_c, 9, 36, 127
1, 210432, Note_on_c, 9, 42, 76
1, 210432, Note_on_c, 9, 70, 102
1, 210432, Note_on_c, 9, 57, 117
1, 210432, Note_on_c, 11, 34, 60
1, 210432, Note_on_c, 12, 53, 80
1, 210434, Control_c, 5, 11, 92
1, 210434, Control_c, 6, 11, 127
1, 210450, Note_on_c, 9, 57, 0
1, 210450, Note_on_c, 9, 45, 0
1, 210450, Note_on_c, 9, 27, 0
1, 210450, Note_on_c, 9, 70, 0
1, 210450, Note_on_c, 9, 36, 0
1, 210450, Note_on_c, 9, 42, 0
1, 210475, Note_on_c, 12, 53, 0
1, 210482, Control_c, 12, 10, 5
1, 210519, Note_on_c, 11, 34, 0
1, 210519, Note_on_c, 1, 34, 0
1, 210528, Note_on_c, 9, 42, 85
1, 210528, Note_on_c, 12, 53, 73
1, 210530, Control_c, 12, 10, 13
1, 210530, Control_c, 12, 6, 25
1, 210546, Note_on_c, 9, 42, 0
1, 210562, Note_on_c, 12, 53, 0
1, 210578, Control_c, 12, 10, 20
1, 210590, Note_on_c, 5, 77, 0
1, 210593, Note_on_c, 5, 65, 0
1, 210624, Note_on_c, 1, 46, 92
1, 210624, Note_on_c, 6, 65, 125
1, 210624, Note_on_c, 9, 46, 117
1, 210624, Note_on_c, 11, 46, 92
1, 210624, Note_on_c, 12, 53, 80
1, 210626, Control_c, 12, 10, 27
1, 210642, Note_on_c, 9, 46, 0
1, 210667, Note_on_c, 12, 53, 0
1, 210674, Control_c, 12, 10, 34
1, 210698, Control_c, 12, 6, 40
1, 210714, Note_on_c, 1, 46, 0
1, 210714, Note_on_c, 11, 46, 0
1, 210720, Note_on_c, 9, 70, 50
1, 210720, Note_on_c, 12, 53, 73
1, 210722, Control_c, 12, 10, 41
1, 210738, Note_on_c, 9, 70, 0
1, 210754, Note_on_c, 12, 53, 0
1, 210770, Control_c, 12, 10, 49
1, 210799, Note_on_c, 6, 65, 0
1, 210816, Note_on_c, 1, 34, 66
1, 210816, Note_on_c, 5, 65, 85
1, 210816, Note_on_c, 5, 77, 85
1, 210816, Note_on_c, 9, 27, 127
1, 210816, Note_on_c, 9, 38, 127
1, 210816, Note_on_c, 9, 36, 127
1, 210816, Note_on_c, 9, 45, 107
1, 210816, Note_on_c, 9, 42, 76
1, 210816, Note_on_c, 9, 70, 96
1, 210816, Note_on_c, 11, 34, 66
1, 210816, Note_on_c, 12, 53, 80
1, 210818, Control_c, 12, 10, 56
1, 210834, Note_on_c, 9, 70, 0
1, 210834, Note_on_c, 9, 38, 0
1, 210834, Note_on_c, 9, 27, 0
1, 210834, Note_on_c, 9, 42, 0
1, 210834, Note_on_c, 9, 36, 0
1, 210834, Note_on_c, 9, 45, 0
1, 210859, Note_on_c, 12, 53, 0
1, 210866, Control_c, 12, 10, 63
1, 210902, Control_c, 12, 6, 60
1, 210906, Note_on_c, 11, 34, 0
1, 210906, Note_on_c, 1, 34, 0
1, 210912, Note_on_c, 9, 42, 85
1, 210912, Note_on_c, 12, 53, 73
1, 210914, Control_c, 12, 10, 70
1, 210930, Note_on_c, 9, 42, 0
1, 210946, Note_on_c, 12, 53, 0
1, 210962, Control_c, 12, 10, 77
1, 210974, Note_on_c, 5, 77, 0
1, 210977, Note_on_c, 5, 65, 0
1, 211008, Note_on_c, 1, 46, 92
1, 211008, Note_on_c, 6, 65, 105
1, 211008, Note_on_c, 9, 46, 102
1, 211008, Note_on_c, 9, 70, 90
1, 211008, Note_on_c, 11, 46, 92
1, 211008, Note_on_c, 12, 53, 80
1, 211010, Control_c, 12, 10, 84
1, 211026, Note_on_c, 9, 70, 0
1, 211026, Note_on_c, 9, 46, 0
1, 211051, Note_on_c, 12, 53, 0
1, 211058, Control_c, 12, 10, 92
1, 211082, Control_c, 12, 6, 85
1, 211098, Note_on_c, 1, 46, 0
1, 211098, Note_on_c, 11, 46, 0
1, 211104, Note_on_c, 12, 53, 73
1, 211106, Control_c, 12, 10, 99
1, 211138, Note_on_c, 12, 53, 0
1, 211154, Control_c, 12, 10, 106
1, 211160, Note_on_c, 6, 65, 0
1, 211200, Note_on_c, 1, 34, 66
1, 211200, Note_on_c, 5, 65, 72
1, 211200, Note_on_c, 5, 77, 72
1, 211200, Note_on_c, 9, 27, 127
1, 211200, Note_on_c, 9, 36, 127
1, 211200, Note_on_c, 9, 45, 107
1, 211200, Note_on_c, 9, 42, 76
1, 211200, Note_on_c, 9, 70, 102
1, 211200, Note_on_c, 11, 34, 66
1, 211200, Note_on_c, 12, 53, 80
1, 211202, Control_c, 12, 10, 113
1, 211218, Note_on_c, 9, 70, 0
1, 211218, Note_on_c, 9, 36, 0
1, 211218, Note_on_c, 9, 27, 0
1, 211218, Note_on_c, 9, 42, 0
1, 211218, Note_on_c, 9, 45, 0
1, 211243, Note_on_c, 12, 53, 0
1, 211250, Control_c, 12, 10, 120
1, 211290, Note_on_c, 11, 34, 0
1, 211290, Note_on_c, 1, 34, 0
1, 211296, Note_on_c, 9, 42, 85
1, 211296, Note_on_c, 12, 53, 73
1, 211298, Control_c, 12, 6, 110
1, 211314, Note_on_c, 9, 42, 0
1, 211330, Note_on_c, 12, 53, 0
1, 211358, Note_on_c, 5, 77, 0
1, 211361, Note_on_c, 5, 65, 0
1, 211392, Note_on_c, 1, 46, 92
1, 211392, Note_on_c, 6, 65, 85
1, 211392, Note_on_c, 9, 46, 117
1, 211392, Note_on_c, 9, 70, 30
1, 211392, Note_on_c, 11, 46, 92
1, 211410, Note_on_c, 9, 70, 0
1, 211410, Note_on_c, 9, 46, 0
1, 211482, Note_on_c, 1, 46, 0
1, 211482, Note_on_c, 11, 46, 0
1, 211488, Note_on_c, 9, 70, 59
1, 211506, Note_on_c, 9, 70, 0
1, 211520, Note_on_c, 6, 65, 0
1, 211584, Note_on_c, 1, 34, 66
1, 211584, Note_on_c, 5, 65, 58
1, 211584, Note_on_c, 5, 77, 58
1, 211584, Note_on_c, 9, 27, 127
1, 211584, Note_on_c, 9, 38, 127
1, 211584, Note_on_c, 9, 45, 107
1, 211584, Note_on_c, 9, 36, 127
1, 211584, Note_on_c, 9, 42, 76
1, 211584, Note_on_c, 9, 70, 86
1, 211584, Note_on_c, 11, 34, 66
1, 211602, Note_on_c, 9, 70, 0
1, 211602, Note_on_c, 9, 38, 0
1, 211602, Note_on_c, 9, 27, 0
1, 211602, Note_on_c, 9, 42, 0
1, 211602, Note_on_c, 9, 45, 0
1, 211602, Note_on_c, 9, 36, 0
1, 211674, Note_on_c, 11, 34, 0
1, 211674, Note_on_c, 1, 34, 0
1, 211680, Note_on_c, 9, 42, 85
1, 211698, Note_on_c, 9, 42, 0
1, 211742, Note_on_c, 5, 77, 0
1, 211745, Note_on_c, 5, 65, 0
1, 211776, Note_on_c, 1, 46, 89
1, 211776, Note_on_c, 9, 46, 117
1, 211776, Note_on_c, 9, 70, 76
1, 211776, Note_on_c, 11, 46, 89
1, 211794, Note_on_c, 9, 70, 0
1, 211794, Note_on_c, 9, 46, 0
1, 211870, Note_on_c, 11, 46, 0
1, 211870, Note_on_c, 1, 46, 0
1, 211874, Control_c, 12, 6, 10
1, 211914, Note_on_c, 2, 58, 0
1, 211914, Note_on_c, 2, 62, 0
1, 211914, Note_on_c, 2, 46, 0
1, 211920, Note_on_c, 2, 41, 61
1, 211920, Note_on_c, 2, 57, 61
1, 211920, Note_on_c, 2, 60, 61
1, 211968, Note_on_c, 1, 29, 63
1, 211968, Note_on_c, 5, 72, 98
1, 211968, Note_on_c, 5, 84, 98
1, 211968, Note_on_c, 9, 27, 127
1, 211968, Note_on_c, 9, 45, 107
1, 211968, Note_on_c, 9, 36, 127
1, 211968, Note_on_c, 9, 42, 76
1, 211968, Note_on_c, 9, 70, 102
1, 211968, Note_on_c, 11, 29, 63
1, 211968, Note_on_c, 12, 53, 80
1, 211970, Control_c, 12, 10, 125
1, 211986, Note_on_c, 9, 70, 0
1, 211986, Note_on_c, 9, 45, 0
1, 211986, Note_on_c, 9, 27, 0
1, 211986, Note_on_c, 9, 42, 0
1, 211986, Note_on_c, 9, 36, 0
1, 212011, Note_on_c, 12, 53, 0
1, 212018, Control_c, 12, 10, 119
1, 212030, Note_on_c, 2, 77, 0
1, 212055, Note_on_c, 11, 29, 0
1, 212055, Note_on_c, 1, 29, 0
1, 212064, Note_on_c, 9, 42, 85
1, 212064, Note_on_c, 12, 53, 73
1, 212066, Control_c, 12, 10, 113
1, 212066, Control_c, 12, 6, 25
1, 212082, Note_on_c, 9, 42, 0
1, 212098, Note_on_c, 12, 53, 0
1, 212114, Control_c, 12, 10, 107
1, 212126, Note_on_c, 5, 84, 0
1, 212129, Note_on_c, 5, 72, 0
1, 212160, Note_on_c, 1, 41, 89
1, 212160, Note_on_c, 6, 72, 125
1, 212160, Note_on_c, 9, 46, 117
1, 212160, Note_on_c, 11, 41, 89
1, 212160, Note_on_c, 12, 53, 80
1, 212162, Control_c, 12, 10, 101
1, 212178, Note_on_c, 9, 46, 0
1, 212203, Note_on_c, 12, 53, 0
1, 212210, Control_c, 12, 10, 95
1, 212234, Control_c, 12, 6, 40
1, 212250, Note_on_c, 11, 41, 0
1, 212250, Note_on_c, 1, 41, 0
1, 212256, Note_on_c, 9, 70, 54
1, 212256, Note_on_c, 12, 53, 73
1, 212258, Control_c, 12, 10, 89
1, 212274, Note_on_c, 9, 70, 0
1, 212290, Note_on_c, 12, 53, 0
1, 212306, Control_c, 12, 10, 83
1, 212335, Note_on_c, 6, 72, 0
1, 212352, Note_on_c, 1, 29, 63
1, 212352, Note_on_c, 5, 72, 85
1, 212352, Note_on_c, 5, 84, 85
1, 212352, Note_on_c, 9, 27, 127
1, 212352, Note_on_c, 9, 38, 127
1, 212352, Note_on_c, 9, 45, 107
1, 212352, Note_on_c, 9, 36, 127
1, 212352, Note_on_c, 9, 42, 76
1, 212352, Note_on_c, 9, 70, 102
1, 212352, Note_on_c, 11, 29, 63
1, 212352, Note_on_c, 12, 53, 80
1, 212354, Control_c, 12, 10, 77
1, 212370, Note_on_c, 9, 70, 0
1, 212370, Note_on_c, 9, 45, 0
1, 212370, Note_on_c, 9, 38, 0
1, 212370, Note_on_c, 9, 27, 0
1, 212370, Note_on_c, 9, 42, 0
1, 212370, Note_on_c, 9, 36, 0
1, 212395, Note_on_c, 12, 53, 0
1, 212402, Control_c, 12, 10, 71
1, 212438, Control_c, 12, 6, 60
1, 212442, Note_on_c, 1, 29, 0
1, 212442, Note_on_c, 11, 29, 0
1, 212448, Note_on_c, 9, 42, 85
1, 212448, Note_on_c, 12, 53, 73
1, 212450, Control_c, 12, 10, 65
1, 212466, Note_on_c, 9, 42, 0
1, 212482, Note_on_c, 12, 53, 0
1, 212498, Control_c, 12, 10, 59
1, 212510, Note_on_c, 5, 84, 0
1, 212513, Note_on_c, 5, 72, 0
1, 212544, Note_on_c, 1, 41, 89
1, 212544, Note_on_c, 6, 72, 105
1, 212544, Note_on_c, 9, 46, 117
1, 212544, Note_on_c, 9, 70, 90
1, 212544, Note_on_c, 11, 41, 89
1, 212544, Note_on_c, 12, 53, 80
1, 212546, Control_c, 12, 10, 53
1, 212562, Note_on_c, 9, 70, 0
1, 212562, Note_on_c, 9, 46, 0
1, 212587, Note_on_c, 12, 53, 0
1, 212594, Control_c, 12, 10, 47
1, 212618, Control_c, 12, 6, 85
1, 212634, Note_on_c, 11, 41, 0
1, 212634, Note_on_c, 1, 41, 0
1, 212640, Note_on_c, 12, 53, 73
1, 212642, Control_c, 12, 10, 41
1, 212674, Note_on_c, 12, 53, 0
1, 212690, Control_c, 12, 10, 35
1, 212696, Note_on_c, 6, 72, 0
1, 212736, Note_on_c, 1, 29, 63
1, 212736, Note_on_c, 5, 72, 72
1, 212736, Note_on_c, 5, 84, 72
1, 212736, Note_on_c, 9, 27, 127
1, 212736, Note_on_c, 9, 45, 107
1, 212736, Note_on_c, 9, 36, 127
1, 212736, Note_on_c, 9, 42, 76
1, 212736, Note_on_c, 9, 70, 96
1, 212736, Note_on_c, 11, 29, 63
1, 212736, Note_on_c, 12, 53, 80
1, 212738, Control_c, 12, 10, 29
1, 212754, Note_on_c, 9, 70, 0
1, 212754, Note_on_c, 9, 36, 0
1, 212754, Note_on_c, 9, 45, 0
1, 212754, Note_on_c, 9, 27, 0
1, 212754, Note_on_c, 9, 42, 0
1, 212779, Note_on_c, 12, 53, 0
1, 212786, Control_c, 12, 10, 23
1, 212826, Note_on_c, 1, 29, 0
1, 212826, Note_on_c, 11, 29, 0
1, 212832, Note_on_c, 9, 42, 85
1, 212832, Note_on_c, 12, 53, 73
1, 212834, Control_c, 12, 10, 17
1, 212834, Control_c, 12, 6, 110
1, 212850, Note_on_c, 9, 42, 0
1, 212866, Note_on_c, 12, 53, 0
1, 212882, Control_c, 12, 10, 11
1, 212894, Note_on_c, 5, 84, 0
1, 212897, Note_on_c, 5, 72, 0
1, 212928, Note_on_c, 1, 41, 86
1, 212928, Note_on_c, 6, 72, 85
1, 212928, Note_on_c, 9, 46, 117
1, 212928, Note_on_c, 9, 70, 23
1, 212928, Note_on_c, 11, 41, 86
1, 212930, Control_c, 12, 10, 5
1, 212946, Note_on_c, 9, 70, 0
1, 212946, Note_on_c, 9, 46, 0
1, 213018, Note_on_c, 11, 41, 0
1, 213018, Note_on_c, 1, 41, 0
1, 213024, Note_on_c, 9, 70, 36
1, 213042, Note_on_c, 9, 70, 0
1, 213056, Note_on_c, 6, 72, 0
1, 213120, Note_on_c, 1, 29, 63
1, 213120, Note_on_c, 5, 86, 93
1, 213120, Note_on_c, 5, 74, 93
1, 213120, Note_on_c, 9, 27, 127
1, 213120, Note_on_c, 9, 38, 127
1, 213120, Note_on_c, 9, 45, 107
1, 213120, Note_on_c, 9, 36, 127
1, 213120, Note_on_c, 9, 42, 76
1, 213120, Note_on_c, 9, 70, 102
1, 213120, Note_on_c, 11, 29, 63
1, 213138, Note_on_c, 9, 70, 0
1, 213138, Note_on_c, 9, 45, 0
1, 213138, Note_on_c, 9, 38, 0
1, 213138, Note_on_c, 9, 27, 0
1, 213138, Note_on_c, 9, 42, 0
1, 213138, Note_on_c, 9, 36, 0
1, 213210, Note_on_c, 1, 29, 0
1, 213210, Note_on_c, 11, 29, 0
1, 213216, Note_on_c, 9, 42, 85
1, 213234, Note_on_c, 9, 42, 0
1, 213278, Note_on_c, 5, 86, 0
1, 213281, Note_on_c, 5, 74, 0
1, 213312, Note_on_c, 1, 41, 86
1, 213312, Note_on_c, 6, 74, 125
1, 213312, Note_on_c, 9, 46, 117
1, 213312, Note_on_c, 9, 70, 73
1, 213312, Note_on_c, 11, 41, 86
1, 213330, Note_on_c, 9, 70, 0
1, 213330, Note_on_c, 9, 46, 0
1, 213406, Note_on_c, 11, 41, 0
1, 213406, Note_on_c, 1, 41, 0
1, 213410, Control_c, 12, 6, 10
1, 213456, Note_on_c, 2, 38, 61
1, 213456, Note_on_c, 2, 50, 61
1, 213487, Note_on_c, 6, 74, 0
1, 213504, Note_on_c, 1, 26, 60
1, 213504, Note_on_c, 5, 81, 93
1, 213504, Note_on_c, 5, 69, 93
1, 213504, Note_on_c, 9, 27, 127
1, 213504, Note_on_c, 9, 45, 107
1, 213504, Note_on_c, 9, 36, 127
1, 213504, Note_on_c, 9, 42, 76
1, 213504, Note_on_c, 9, 70, 102
1, 213504, Note_on_c, 11, 26, 60
1, 213504, Note_on_c, 12, 53, 80
1, 213522, Note_on_c, 9, 70, 0
1, 213522, Note_on_c, 9, 27, 0
1, 213522, Note_on_c, 9, 42, 0
1, 213522, Note_on_c, 9, 45, 0
1, 213522, Note_on_c, 9, 36, 0
1, 213547, Note_on_c, 12, 53, 0
1, 213554, Control_c, 12, 10, 5
1, 213591, Note_on_c, 1, 26, 0
1, 213591, Note_on_c, 11, 26, 0
1, 213600, Note_on_c, 9, 42, 85
1, 213600, Note_on_c, 12, 53, 73
1, 213602, Control_c, 12, 10, 13
1, 213602, Control_c, 12, 6, 25
1, 213618, Note_on_c, 9, 42, 0
1, 213634, Note_on_c, 12, 53, 0
1, 213650, Control_c, 12, 10, 20
1, 213659, Note_on_c, 2, 41, 0
1, 213662, Note_on_c, 5, 81, 0
1, 213665, Note_on_c, 5, 69, 0
1, 213696, Note_on_c, 1, 38, 92
1, 213696, Note_on_c, 6, 69, 125
1, 213696, Note_on_c, 9, 46, 117
1, 213696, Note_on_c, 11, 38, 92
1, 213696, Note_on_c, 12, 53, 80
1, 213698, Control_c, 12, 10, 27
1, 213714, Note_on_c, 9, 46, 0
1, 213739, Note_on_c, 12, 53, 0
1, 213746, Control_c, 12, 10, 34
1, 213770, Control_c, 12, 6, 40
1, 213786, Note_on_c, 1, 38, 0
1, 213786, Note_on_c, 11, 38, 0
1, 213792, Note_on_c, 9, 70, 50
1, 213792, Note_on_c, 12, 53, 73
1, 213794, Control_c, 12, 10, 41
1, 213810, Note_on_c, 9, 70, 0
1, 213826, Note_on_c, 12, 53, 0
1, 213842, Control_c, 12, 10, 49
1, 213871, Note_on_c, 6, 69, 0
1, 213888, Note_on_c, 1, 26, 66
1, 213888, Note_on_c, 5, 69, 85
1, 213888, Note_on_c, 5, 81, 85
1, 213888, Note_on_c, 9, 27, 127
1, 213888, Note_on_c, 9, 38, 127
1, 213888, Note_on_c, 9, 45, 107
1, 213888, Note_on_c, 9, 36, 127
1, 213888, Note_on_c, 9, 42, 76
1, 213888, Note_on_c, 9, 70, 96
1, 213888, Note_on_c, 11, 26, 66
1, 213888, Note_on_c, 12, 53, 80
1, 213890, Control_c, 12, 10, 56
1, 213906, Note_on_c, 9, 70, 0
1, 213906, Note_on_c, 9, 38, 0
1, 213906, Note_on_c, 9, 27, 0
1, 213906, Note_on_c, 9, 42, 0
1, 213906, Note_on_c, 9, 45, 0
1, 213906, Note_on_c, 9, 36, 0
1, 213931, Note_on_c, 12, 53, 0
1, 213938, Control_c, 12, 10, 63
1, 213974, Control_c, 12, 6, 60
1, 213978, Note_on_c, 11, 26, 0
1, 213978, Note_on_c, 1, 26, 0
1, 213984, Note_on_c, 9, 42, 85
1, 213984, Note_on_c, 12, 53, 73
1, 213986, Control_c, 12, 10, 70
1, 214002, Note_on_c, 9, 42, 0
1, 214018, Note_on_c, 12, 53, 0
1, 214034, Control_c, 12, 10, 77
1, 214046, Note_on_c, 5, 81, 0
1, 214049, Note_on_c, 5, 69, 0
1, 214080, Note_on_c, 1, 38, 92
1, 214080, Note_on_c, 6, 69, 105
1, 214080, Note_on_c, 9, 46, 102
1, 214080, Note_on_c, 9, 70, 90
1, 214080, Note_on_c, 11, 38, 92
1, 214080, Note_on_c, 12, 53, 80
1, 214082, Control_c, 12, 10, 84
1, 214098, Note_on_c, 9, 70, 0
1, 214098, Note_on_c, 9, 46, 0
1, 214123, Note_on_c, 12, 53, 0
1, 214130, Control_c, 12, 10, 92
1, 214154, Control_c, 12, 6, 85
1, 214170, Note_on_c, 1, 38, 0
1, 214170, Note_on_c, 11, 38, 0
1, 214176, Note_on_c, 12, 53, 73
1, 214178, Control_c, 12, 10, 99
1, 214210, Note_on_c, 12, 53, 0
1, 214226, Control_c, 12, 10, 106
1, 214232, Note_on_c, 6, 69, 0
1, 214272, Note_on_c, 1, 26, 66
1, 214272, Note_on_c, 5, 69, 72
1, 214272, Note_on_c, 5, 81, 72
1, 214272, Note_on_c, 9, 27, 127
1, 214272, Note_on_c, 9, 45, 107
1, 214272, Note_on_c, 9, 36, 127
1, 214272, Note_on_c, 9, 42, 76
1, 214272, Note_on_c, 9, 70, 102
1, 214272, Note_on_c, 11, 26, 66
1, 214272, Note_on_c, 12, 53, 80
1, 214274, Control_c, 12, 10, 113
1, 214290, Note_on_c, 9, 70, 0
1, 214290, Note_on_c, 9, 45, 0
1, 214290, Note_on_c, 9, 27, 0
1, 214290, Note_on_c, 9, 42, 0
1, 214290, Note_on_c, 9, 36, 0
1, 214315, Note_on_c, 12, 53, 0
1, 214322, Control_c, 12, 10, 120
1, 214362, Note_on_c, 11, 26, 0
1, 214362, Note_on_c, 1, 26, 0
1, 214368, Note_on_c, 9, 42, 85
1, 214368, Note_on_c, 12, 53, 73
1, 214370, Control_c, 12, 6, 110
1, 214386, Note_on_c, 9, 42, 0
1, 214402, Note_on_c, 12, 53, 0
1, 214430, Note_on_c, 5, 81, 0
1, 214433, Note_on_c, 5, 69, 0
1, 214464, Note_on_c, 1, 38, 92
1, 214464, Note_on_c, 6, 69, 85
1, 214464, Note_on_c, 9, 46, 117
1, 214464, Note_on_c, 9, 70, 30
1, 214464, Note_on_c, 11, 38, 92
1, 214482, Note_on_c, 9, 70, 0
1, 214482, Note_on_c, 9, 46, 0
1, 214554, Note_on_c, 1, 38, 0
1, 214554, Note_on_c, 11, 38, 0
1, 214560, Note_on_c, 9, 70, 59
1, 214578, Note_on_c, 9, 70, 0
1, 214592, Note_on_c, 6, 69, 0
1, 214656, Note_on_c, 1, 26, 66
1, 214656, Note_on_c, 5, 69, 58
1, 214656, Note_on_c, 5, 81, 58
1, 214656, Note_on_c, 9, 27, 127
1, 214656, Note_on_c, 9, 38, 127
1, 214656, Note_on_c, 9, 45, 107
1, 214656, Note_on_c, 9, 36, 127
1, 214656, Note_on_c, 9, 42, 76
1, 214656, Note_on_c, 9, 70, 86
1, 214656, Note_on_c, 11, 26, 66
1, 214674, Note_on_c, 9, 70, 0
1, 214674, Note_on_c, 9, 38, 0
1, 214674, Note_on_c, 9, 27, 0
1, 214674, Note_on_c, 9, 42, 0
1, 214674, Note_on_c, 9, 45, 0
1, 214674, Note_on_c, 9, 36, 0
1, 214746, Note_on_c, 11, 26, 0
1, 214746, Note_on_c, 1, 26, 0
1, 214752, Note_on_c, 9, 42, 85
1, 214770, Note_on_c, 9, 42, 0
1, 214814, Note_on_c, 5, 81, 0
1, 214817, Note_on_c, 5, 69, 0
1, 214848, Note_on_c, 1, 38, 89
1, 214848, Note_on_c, 9, 46, 117
1, 214848, Note_on_c, 9, 70, 76
1, 214848, Note_on_c, 11, 38, 89
1, 214866, Note_on_c, 9, 70, 0
1, 214866, Note_on_c, 9, 46, 0
1, 214942, Note_on_c, 11, 38, 0
1, 214942, Note_on_c, 1, 38, 0
1, 214946, Control_c, 12, 6, 10
1, 214950, Note_on_c, 2, 60, 0
1, 214950, Note_on_c, 2, 57, 0
1, 214992, Note_on_c, 2, 45, 61
1, 214992, Note_on_c, 2, 57, 61
1, 214992, Note_on_c, 2, 60, 61
1, 214992, Note_on_c, 2, 64, 61
1, 214995, Note_on_c, 2, 50, 0
1, 215014, Note_on_c, 2, 38, 0
1, 215040, Note_on_c, 1, 33, 63
1, 215040, Note_on_c, 5, 84, 93
1, 215040, Note_on_c, 5, 72, 93
1, 215040, Note_on_c, 9, 27, 127
1, 215040, Note_on_c, 9, 45, 107
1, 215040, Note_on_c, 9, 36, 127
1, 215040, Note_on_c, 9, 42, 76
1, 215040, Note_on_c, 9, 70, 102
1, 215040, Note_on_c, 11, 33, 63
1, 215040, Note_on_c, 12, 52, 80
1, 215042, Control_c, 12, 10, 125
1, 215058, Note_on_c, 9, 70, 0
1, 215058, Note_on_c, 9, 45, 0
1, 215058, Note_on_c, 9, 27, 0
1, 215058, Note_on_c, 9, 42, 0
1, 215058, Note_on_c, 9, 36, 0
1, 215083, Note_on_c, 12, 52, 0
1, 215090, Control_c, 12, 10, 119
1, 215127, Note_on_c, 11, 33, 0
1, 215127, Note_on_c, 1, 33, 0
1, 215136, Note_on_c, 9, 42, 85
1, 215136, Note_on_c, 12, 52, 73
1, 215138, Control_c, 12, 10, 113
1, 215138, Control_c, 12, 6, 25
1, 215154, Note_on_c, 9, 42, 0
1, 215170, Note_on_c, 12, 52, 0
1, 215186, Control_c, 12, 10, 107
1, 215198, Note_on_c, 5, 84, 0
1, 215201, Note_on_c, 5, 72, 0
1, 215232, Note_on_c, 1, 45, 89
1, 215232, Note_on_c, 6, 69, 125
1, 215232, Note_on_c, 9, 46, 117
1, 215232, Note_on_c, 11, 45, 89
1, 215232, Note_on_c, 12, 52, 80
1, 215234, Control_c, 12, 10, 101
1, 215250, Note_on_c, 9, 46, 0
1, 215275, Note_on_c, 12, 52, 0
1, 215282, Control_c, 12, 10, 95
1, 215306, Control_c, 12, 6, 40
1, 215322, Note_on_c, 1, 45, 0
1, 215322, Note_on_c, 11, 45, 0
1, 215328, Note_on_c, 9, 70, 54
1, 215328, Note_on_c, 12, 52, 73
1, 215330, Control_c, 12, 10, 89
1, 215346, Note_on_c, 9, 70, 0
1, 215362, Note_on_c, 12, 52, 0
1, 215378, Control_c, 12, 10, 83
1, 215407, Note_on_c, 6, 69, 0
1, 215424, Note_on_c, 1, 33, 63
1, 215424, Note_on_c, 5, 81, 93
1, 215424, Note_on_c, 5, 69, 93
1, 215424, Note_on_c, 9, 27, 127
1, 215424, Note_on_c, 9, 38, 127
1, 215424, Note_on_c, 9, 45, 107
1, 215424, Note_on_c, 9, 36, 127
1, 215424, Note_on_c, 9, 42, 76
1, 215424, Note_on_c, 9, 70, 102
1, 215424, Note_on_c, 11, 33, 63
1, 215424, Note_on_c, 12, 52, 80
1, 215426, Control_c, 12, 10, 77
1, 215442, Note_on_c, 9, 70, 0
1, 215442, Note_on_c, 9, 38, 0
1, 215442, Note_on_c, 9, 27, 0
1, 215442, Note_on_c, 9, 42, 0
1, 215442, Note_on_c, 9, 45, 0
1, 215442, Note_on_c, 9, 36, 0
1, 215467, Note_on_c, 12, 52, 0
1, 215474, Control_c, 12, 10, 71
1, 215510, Control_c, 12, 6, 60
1, 215514, Note_on_c, 11, 33, 0
1, 215514, Note_on_c, 1, 33, 0
1, 215520, Note_on_c, 9, 42, 85
1, 215520, Note_on_c, 12, 52, 73
1, 215522, Control_c, 12, 10, 65
1, 215538, Note_on_c, 9, 42, 0
1, 215554, Note_on_c, 12, 52, 0
1, 215570, Control_c, 12, 10, 59
1, 215582, Note_on_c, 5, 81, 0
1, 215585, Note_on_c, 5, 69, 0
1, 215616, Note_on_c, 1, 45, 89
1, 215616, Note_on_c, 6, 67, 105
1, 215616, Note_on_c, 9, 46, 117
1, 215616, Note_on_c, 9, 70, 90
1, 215616, Note_on_c, 11, 45, 89
1, 215616, Note_on_c, 12, 52, 80
1, 215618, Control_c, 12, 10, 53
1, 215634, Note_on_c, 9, 70, 0
1, 215634, Note_on_c, 9, 46, 0
1, 215659, Note_on_c, 12, 52, 0
1, 215666, Control_c, 12, 10, 47
1, 215690, Control_c, 12, 6, 85
1, 215706, Note_on_c, 1, 45, 0
1, 215706, Note_on_c, 11, 45, 0
1, 215712, Note_on_c, 12, 52, 73
1, 215714, Control_c, 12, 10, 41
1, 215746, Note_on_c, 12, 52, 0
1, 215762, Control_c, 12, 10, 35
1, 215768, Note_on_c, 6, 67, 0
1, 215808, Note_on_c, 1, 33, 63
1, 215808, Note_on_c, 5, 79, 93
1, 215808, Note_on_c, 5, 67, 93
1, 215808, Note_on_c, 9, 27, 127
1, 215808, Note_on_c, 9, 45, 107
1, 215808, Note_on_c, 9, 36, 127
1, 215808, Note_on_c, 9, 42, 76
1, 215808, Note_on_c, 9, 70, 96
1, 215808, Note_on_c, 11, 33, 63
1, 215808, Note_on_c, 12, 52, 80
1, 215810, Control_c, 12, 10, 29
1, 215826, Note_on_c, 9, 70, 0
1, 215826, Note_on_c, 9, 45, 0
1, 215826, Note_on_c, 9, 27, 0
1, 215826, Note_on_c, 9, 42, 0
1, 215826, Note_on_c, 9, 36, 0
1, 215851, Note_on_c, 12, 52, 0
1, 215858, Control_c, 12, 10, 23
1, 215898, Note_on_c, 11, 33, 0
1, 215898, Note_on_c, 1, 33, 0
1, 215904, Note_on_c, 9, 42, 85
1, 215904, Note_on_c, 12, 52, 73
1, 215906, Control_c, 12, 10, 17
1, 215906, Control_c, 12, 6, 110
1, 215922, Note_on_c, 9, 42, 0
1, 215938, Note_on_c, 12, 52, 0
1, 215954, Control_c, 12, 10, 11
1, 215966, Note_on_c, 5, 79, 0
1, 215969, Note_on_c, 5, 67, 0
1, 216000, Note_on_c, 1, 45, 86
1, 216000, Note_on_c, 6, 65, 104
1, 216000, Note_on_c, 9, 46, 117
1, 216000, Note_on_c, 9, 70, 23
1, 216000, Note_on_c, 11, 45, 86
1, 216002, Control_c, 12, 10, 5
1, 216018, Note_on_c, 9, 70, 0
1, 216018, Note_on_c, 9, 46, 0
1, 216090, Note_on_c, 1, 45, 0
1, 216090, Note_on_c, 11, 45, 0
1, 216096, Note_on_c, 9, 70, 36
1, 216114, Note_on_c, 9, 70, 0
1, 216128, Note_on_c, 6, 65, 0
1, 216192, Note_on_c, 1, 33, 63
1, 216192, Note_on_c, 5, 77, 93
1, 216192, Note_on_c, 5, 65, 93
1, 216192, Note_on_c, 9, 27, 127
1, 216192, Note_on_c, 9, 38, 127
1, 216192, Note_on_c, 9, 45, 107
1, 216192, Note_on_c, 9, 36, 127
1, 216192, Note_on_c, 9, 42, 76
1, 216192, Note_on_c, 9, 70, 102
1, 216192, Note_on_c, 11, 33, 63
1, 216210, Note_on_c, 9, 70, 0
1, 216210, Note_on_c, 9, 38, 0
1, 216210, Note_on_c, 9, 27, 0
1, 216210, Note_on_c, 9, 42, 0
1, 216210, Note_on_c, 9, 45, 0
1, 216210, Note_on_c, 9, 36, 0
1, 216282, Note_on_c, 11, 33, 0
1, 216282, Note_on_c, 1, 33, 0
1, 216288, Note_on_c, 9, 42, 85
1, 216306, Note_on_c, 9, 42, 0
1, 216350, Note_on_c, 5, 77, 0
1, 216353, Note_on_c, 5, 65, 0
1, 216384, Note_on_c, 1, 45, 86
1, 216384, Note_on_c, 6, 62, 104
1, 216384, Note_on_c, 9, 46, 117
1, 216384, Note_on_c, 9, 70, 73
1, 216384, Note_on_c, 11, 45, 86
1, 216402, Note_on_c, 9, 70, 0
1, 216402, Note_on_c, 9, 46, 0
1, 216478, Note_on_c, 1, 45, 0
1, 216478, Note_on_c, 11, 45, 0
1, 216482, Control_c, 12, 6, 10
1, 216512, Note_on_c, 6, 62, 0
1, 216521, Note_on_c, 2, 57, 0
1, 216521, Note_on_c, 2, 45, 0
1, 216528, Note_on_c, 2, 43, 61
1, 216528, Note_on_c, 2, 55, 61
1, 216528, Note_on_c, 2, 58, 61
1, 216528, Note_on_c, 2, 62, 61
1, 216544, Note_on_c, 2, 64, 0
1, 216549, Note_on_c, 2, 60, 0
1, 216576, Note_on_c, 1, 31, 60
1, 216576, Note_on_c, 5, 74, 93
1, 216576, Note_on_c, 5, 62, 93
1, 216576, Note_on_c, 9, 27, 127
1, 216576, Note_on_c, 9, 45, 107
1, 216576, Note_on_c, 9, 36, 127
1, 216576, Note_on_c, 9, 42, 76
1, 216576, Note_on_c, 9, 70, 102
1, 216576, Note_on_c, 11, 31, 60
1, 216576, Note_on_c, 12, 53, 80
1, 216594, Note_on_c, 9, 70, 0
1, 216594, Note_on_c, 9, 45, 0
1, 216594, Note_on_c, 9, 27, 0
1, 216594, Note_on_c, 9, 42, 0
1, 216594, Note_on_c, 9, 36, 0
1, 216619, Note_on_c, 12, 53, 0
1, 216626, Control_c, 12, 10, 5
1, 216663, Note_on_c, 11, 31, 0
1, 216663, Note_on_c, 1, 31, 0
1, 216672, Note_on_c, 9, 42, 85
1, 216672, Note_on_c, 12, 53, 73
1, 216674, Control_c, 12, 10, 13
1, 216674, Control_c, 12, 6, 25
1, 216690, Note_on_c, 9, 42, 0
1, 216706, Note_on_c, 12, 53, 0
1, 216722, Control_c, 12, 10, 20
1, 216734, Note_on_c, 5, 74, 0
1, 216737, Note_on_c, 5, 62, 0
1, 216768, Note_on_c, 1, 43, 92
1, 216768, Note_on_c, 6, 67, 125
1, 216768, Note_on_c, 9, 46, 117
1, 216768, Note_on_c, 11, 43, 92
1, 216768, Note_on_c, 12, 53, 80
1, 216770, Control_c, 12, 10, 27
1, 216786, Note_on_c, 9, 46, 0
1, 216811, Note_on_c, 12, 53, 0
1, 216818, Control_c, 12, 10, 34
1, 216842, Control_c, 12, 6, 40
1, 216858, Note_on_c, 1, 43, 0
1, 216858, Note_on_c, 11, 43, 0
1, 216864, Note_on_c, 9, 70, 50
1, 216864, Note_on_c, 12, 53, 73
1, 216866, Control_c, 12, 10, 41
1, 216882, Note_on_c, 9, 70, 0
1, 216898, Note_on_c, 12, 53, 0
1, 216914, Control_c, 12, 10, 49
1, 216943, Note_on_c, 6, 67, 0
1, 216960, Note_on_c, 1, 31, 66
1, 216960, Note_on_c, 5, 79, 93
1, 216960, Note_on_c, 5, 67, 93
1, 216960, Note_on_c, 9, 27, 127
1, 216960, Note_on_c, 9, 38, 127
1, 216960, Note_on_c, 9, 36, 127
1, 216960, Note_on_c, 9, 45, 107
1, 216960, Note_on_c, 9, 42, 76
1, 216960, Note_on_c, 9, 70, 96
1, 216960, Note_on_c, 11, 31, 66
1, 216960, Note_on_c, 12, 53, 80
1, 216962, Control_c, 12, 10, 56
1, 216974, Control_c, 2, 64, 127
1, 216974, Control_c, 2, 64, 127
1, 216974, Control_c, 2, 64, 127
1, 216974, Control_c, 2, 64, 127
1, 216974, Control_c, 2, 64, 127
1, 216974, Control_c, 2, 64, 127
1, 216974, Control_c, 2, 64, 127
1, 216974, Control_c, 2, 64, 127
1, 216974, Control_c, 2, 64, 127
1, 216974, Control_c, 2, 64, 127
1, 216974, Control_c, 2, 64, 127
1, 216974, Control_c, 2, 64, 127
1, 216974, Control_c, 2, 64, 127
1, 216974, Control_c, 2, 64, 127
1, 216974, Control_c, 2, 64, 127
1, 216978, Note_on_c, 9, 70, 0
1, 216978, Note_on_c, 9, 38, 0
1, 216978, Note_on_c, 9, 27, 0
1, 216978, Note_on_c, 9, 42, 0
1, 216978, Note_on_c, 9, 36, 0
1, 216978, Note_on_c, 9, 45, 0
1, 217003, Note_on_c, 12, 53, 0
1, 217010, Control_c, 12, 10, 63
1, 217046, Control_c, 12, 6, 60
1, 217050, Note_on_c, 11, 31, 0
1, 217050, Note_on_c, 1, 31, 0
1, 217056, Note_on_c, 9, 42, 85
1, 217056, Note_on_c, 12, 53, 73
1, 217058, Control_c, 12, 10, 70
1, 217074, Note_on_c, 9, 42, 0
1, 217090, Note_on_c, 12, 53, 0
1, 217106, Control_c, 12, 10, 77
1, 217118, Note_on_c, 5, 79, 0
1, 217121, Note_on_c, 5, 67, 0
1, 217152, Note_on_c, 1, 43, 92
1, 217152, Note_on_c, 6, 67, 105
1, 217152, Note_on_c, 9, 46, 102
1, 217152, Note_on_c, 9, 70, 90
1, 217152, Note_on_c, 11, 43, 92
1, 217152, Note_on_c, 12, 53, 80
1, 217154, Control_c, 12, 10, 84
1, 217170, Note_on_c, 9, 70, 0
1, 217170, Note_on_c, 9, 46, 0
1, 217195, Note_on_c, 12, 53, 0
1, 217202, Control_c, 12, 10, 92
1, 217224, Note_on_c, 2, 58, 0
1, 217226, Control_c, 12, 6, 85
1, 217240, Note_on_c, 2, 43, 0
1, 217242, Note_on_c, 11, 43, 0
1, 217242, Note_on_c, 1, 43, 0
1, 217248, Note_on_c, 12, 53, 73
1, 217250, Control_c, 12, 10, 99
1, 217270, Control_c, 2, 64, 0
1, 217270, Control_c, 2, 64, 0
1, 217272, Control_c, 2, 64, 0
1, 217273, Control_c, 2, 64, 0
1, 217274, Control_c, 2, 64, 0
1, 217274, Control_c, 2, 64, 0
1, 217274, Control_c, 2, 64, 0
1, 217274, Control_c, 2, 64, 0
1, 217274, Control_c, 2, 64, 0
1, 217274, Control_c, 2, 64, 0
1, 217274, Control_c, 2, 64, 0
1, 217274, Control_c, 2, 64, 0
1, 217274, Control_c, 2, 64, 0
1, 217274, Control_c, 2, 64, 0
1, 217274, Control_c, 2, 64, 0
1, 217282, Note_on_c, 12, 53, 0
1, 217296, Note_on_c, 2, 45, 61
1, 217296, Note_on_c, 2, 57, 61
1, 217296, Note_on_c, 2, 60, 61
1, 217296, Note_on_c, 2, 64, 61
1, 217298, Control_c, 12, 10, 106
1, 217302, Note_on_c, 2, 55, 0
1, 217302, Note_on_c, 2, 62, 0
1, 217304, Note_on_c, 6, 67, 0
1, 217344, Note_on_c, 1, 33, 66
1, 217344, Note_on_c, 5, 79, 77
1, 217344, Note_on_c, 5, 67, 77
1, 217344, Note_on_c, 9, 27, 127
1, 217344, Note_on_c, 9, 36, 127
1, 217344, Note_on_c, 9, 45, 107
1, 217344, Note_on_c, 9, 42, 76
1, 217344, Note_on_c, 9, 70, 102
1, 217344, Note_on_c, 11, 33, 66
1, 217344, Note_on_c, 12, 53, 80
1, 217346, Control_c, 12, 10, 113
1, 217362, Note_on_c, 9, 70, 0
1, 217362, Note_on_c, 9, 36, 0
1, 217362, Note_on_c, 9, 27, 0
1, 217362, Note_on_c, 9, 42, 0
1, 217362, Note_on_c, 9, 45, 0
1, 217387, Note_on_c, 12, 53, 0
1, 217394, Control_c, 12, 10, 120
1, 217434, Note_on_c, 11, 33, 0
1, 217434, Note_on_c, 1, 33, 0
1, 217440, Note_on_c, 9, 42, 85
1, 217440, Note_on_c, 12, 53, 73
1, 217442, Control_c, 12, 6, 110
1, 217458, Note_on_c, 9, 42, 0
1, 217474, Note_on_c, 12, 53, 0
1, 217502, Note_on_c, 5, 79, 0
1, 217505, Note_on_c, 5, 67, 0
1, 217536, Note_on_c, 1, 45, 92
1, 217536, Note_on_c, 6, 67, 107
1, 217536, Note_on_c, 9, 46, 117
1, 217536, Note_on_c, 9, 70, 30
1, 217536, Note_on_c, 11, 45, 92
1, 217554, Note_on_c, 9, 70, 0
1, 217554, Note_on_c, 9, 46, 0
1, 217626, Note_on_c, 1, 45, 0
1, 217626, Note_on_c, 11, 45, 0
1, 217632, Note_on_c, 9, 70, 59
1, 217650, Note_on_c, 9, 70, 0
1, 217657, Note_on_c, 2, 45, 0
1, 217664, Note_on_c, 6, 67, 0
1, 217680, Note_on_c, 2, 46, 61
1, 217680, Note_on_c, 2, 58, 61
1, 217680, Note_on_c, 2, 62, 61
1, 217680, Note_on_c, 2, 65, 61
1, 217682, Note_on_c, 2, 57, 0
1, 217682, Note_on_c, 2, 64, 0
1, 217682, Note_on_c, 2, 60, 0
1, 217728, Note_on_c, 1, 34, 66
1, 217728, Note_on_c, 5, 81, 87
1, 217728, Note_on_c, 5, 69, 87
1, 217728, Note_on_c, 9, 27, 127
1, 217728, Note_on_c, 9, 38, 127
1, 217728, Note_on_c, 9, 45, 107
1, 217728, Note_on_c, 9, 36, 127
1, 217728, Note_on_c, 9, 42, 76
1, 217728, Note_on_c, 9, 70, 86
1, 217728, Note_on_c, 11, 34, 66
1, 217746, Note_on_c, 9, 70, 0
1, 217746, Note_on_c, 9, 38, 0
1, 217746, Note_on_c, 9, 27, 0
1, 217746, Note_on_c, 9, 42, 0
1, 217746, Note_on_c, 9, 45, 0
1, 217746, Note_on_c, 9, 36, 0
1, 217818, Note_on_c, 11, 34, 0
1, 217818, Note_on_c, 1, 34, 0
1, 217824, Note_on_c, 9, 42, 85
1, 217842, Note_on_c, 9, 42, 0
1, 217886, Note_on_c, 5, 81, 0
1, 217889, Note_on_c, 5, 69, 0
1, 217920, Note_on_c, 1, 46, 89
1, 217920, Note_on_c, 6, 69, 110
1, 217920, Note_on_c, 9, 46, 117
1, 217920, Note_on_c, 9, 70, 76
1, 217920, Note_on_c, 11, 46, 89
1, 217938, Note_on_c, 9, 70, 0
1, 217938, Note_on_c, 9, 46, 0
1, 218014, Note_on_c, 1, 46, 0
1, 218014, Note_on_c, 11, 46, 0
1, 218048, Note_on_c, 6, 69, 0
1, 218064, Note_on_c, 2, 48, 61
1, 218064, Note_on_c, 2, 60, 61
1, 218064, Note_on_c, 2, 64, 61
1, 218064, Note_on_c, 2, 67, 61
1, 218070, Note_on_c, 2, 58, 0
1, 218070, Note_on_c, 2, 65, 0
1, 218070, Note_on_c, 2, 62, 0
1, 218087, Note_on_c, 2, 46, 0
1, 218112, Note_on_c, 1, 36, 63
1, 218112, Note_on_c, 5, 79, 95
1, 218112, Note_on_c, 5, 67, 95
1, 218112, Note_on_c, 9, 27, 127
1, 218112, Note_on_c, 9, 45, 107
1, 218112, Note_on_c, 9, 36, 127
1, 218112, Note_on_c, 9, 42, 76
1, 218112, Note_on_c, 9, 70, 102
1, 218112, Note_on_c, 11, 36, 63
1, 218112, Note_on_c, 12, 55, 80
1, 218114, Control_c, 12, 10, 125
1, 218130, Note_on_c, 9, 70, 0
1, 218130, Note_on_c, 9, 45, 0
1, 218130, Note_on_c, 9, 27, 0
1, 218130, Note_on_c, 9, 42, 0
1, 218130, Note_on_c, 9, 36, 0
1, 218155, Note_on_c, 12, 55, 0
1, 218162, Control_c, 12, 10, 119
1, 218199, Note_on_c, 11, 36, 0
1, 218199, Note_on_c, 1, 36, 0
1, 218208, Note_on_c, 9, 42, 85
1, 218208, Note_on_c, 12, 55, 73
1, 218210, Control_c, 12, 10, 113
1, 218210, Control_c, 12, 6, 25
1, 218226, Note_on_c, 9, 42, 0
1, 218242, Note_on_c, 12, 55, 0
1, 218258, Control_c, 12, 10, 107
1, 218270, Note_on_c, 5, 79, 0
1, 218273, Note_on_c, 5, 67, 0
1, 218304, Note_on_c, 1, 48, 89
1, 218304, Note_on_c, 6, 67, 104
1, 218304, Note_on_c, 9, 46, 117
1, 218304, Note_on_c, 11, 48, 89
1, 218304, Note_on_c, 12, 55, 80
1, 218306, Control_c, 12, 10, 101
1, 218322, Note_on_c, 9, 46, 0
1, 218347, Note_on_c, 12, 55, 0
1, 218354, Control_c, 12, 10, 95
1, 218378, Control_c, 12, 6, 40
1, 218394, Note_on_c, 1, 48, 0
1, 218394, Note_on_c, 11, 48, 0
1, 218400, Note_on_c, 9, 70, 54
1, 218400, Note_on_c, 12, 55, 73
1, 218402, Control_c, 12, 10, 89
1, 218418, Note_on_c, 9, 70, 0
1, 218432, Note_on_c, 6, 67, 0
1, 218434, Note_on_c, 12, 55, 0
1, 218450, Control_c, 12, 10, 83
1, 218496, Note_on_c, 1, 36, 63
1, 218496, Note_on_c, 5, 79, 83
1, 218496, Note_on_c, 5, 67, 83
1, 218496, Note_on_c, 9, 27, 127
1, 218496, Note_on_c, 9, 38, 127
1, 218496, Note_on_c, 9, 45, 107
1, 218496, Note_on_c, 9, 36, 127
1, 218496, Note_on_c, 9, 42, 76
1, 218496, Note_on_c, 9, 70, 102
1, 218496, Note_on_c, 11, 36, 63
1, 218496, Note_on_c, 12, 55, 80
1, 218498, Control_c, 12, 10, 77
1, 218514, Note_on_c, 9, 70, 0
1, 218514, Note_on_c, 9, 38, 0
1, 218514, Note_on_c, 9, 27, 0
1, 218514, Note_on_c, 9, 42, 0
1, 218514, Note_on_c, 9, 45, 0
1, 218514, Note_on_c, 9, 36, 0
1, 218539, Note_on_c, 12, 55, 0
1, 218546, Control_c, 12, 10, 71
1, 218582, Control_c, 12, 6, 60
1, 218586, Note_on_c, 11, 36, 0
1, 218586, Note_on_c, 1, 36, 0
1, 218592, Note_on_c, 9, 42, 85
1, 218592, Note_on_c, 12, 55, 73
1, 218594, Control_c, 12, 10, 65
1, 218610, Note_on_c, 9, 42, 0
1, 218626, Note_on_c, 12, 55, 0
1, 218642, Control_c, 12, 10, 59
1, 218654, Note_on_c, 5, 79, 0
1, 218657, Note_on_c, 5, 67, 0
1, 218688, Note_on_c, 1, 48, 89
1, 218688, Note_on_c, 6, 67, 94
1, 218688, Note_on_c, 9, 46, 117
1, 218688, Note_on_c, 9, 70, 90
1, 218688, Note_on_c, 11, 48, 89
1, 218688, Note_on_c, 12, 55, 80
1, 218690, Control_c, 12, 10, 53
1, 218706, Note_on_c, 9, 70, 0
1, 218706, Note_on_c, 9, 46, 0
1, 218731, Note_on_c, 12, 55, 0
1, 218738, Control_c, 12, 10, 47
1, 218778, Note_on_c, 1, 48, 0
1, 218778, Note_on_c, 11, 48, 0
1, 218784, Note_on_c, 12, 55, 73
1, 218786, Control_c, 12, 10, 41
1, 218816, Note_on_c, 6, 67, 0
1, 218818, Note_on_c, 12, 55, 0
1, 218834, Control_c, 12, 10, 35
1, 218880, Note_on_c, 1, 36, 63
1, 218880, Note_on_c, 5, 79, 93
1, 218880, Note_on_c, 5, 67, 93
1, 218880, Note_on_c, 9, 27, 127
1, 218880, Note_on_c, 9, 45, 107
1, 218880, Note_on_c, 9, 36, 127
1, 218880, Note_on_c, 9, 42, 76
1, 218880, Note_on_c, 9, 70, 96
1, 218880, Note_on_c, 11, 36, 63
1, 218880, Note_on_c, 12, 55, 80
1, 218882, Control_c, 12, 10, 29
1, 218898, Note_on_c, 9, 70, 0
1, 218898, Note_on_c, 9, 45, 0
1, 218898, Note_on_c, 9, 27, 0
1, 218898, Note_on_c, 9, 42, 0
1, 218898, Note_on_c, 9, 36, 0
1, 218923, Note_on_c, 12, 55, 0
1, 218930, Control_c, 12, 10, 23
1, 218970, Note_on_c, 11, 36, 0
1, 218970, Note_on_c, 1, 36, 0
1, 218976, Note_on_c, 9, 42, 85
1, 218976, Note_on_c, 12, 55, 73
1, 218978, Control_c, 12, 10, 17
1, 218994, Note_on_c, 9, 42, 0
1, 219010, Note_on_c, 12, 55, 0
1, 219026, Control_c, 12, 10, 11
1, 219038, Note_on_c, 5, 79, 0
1, 219041, Note_on_c, 5, 67, 0
1, 219072, Note_on_c, 1, 48, 86
1, 219072, Note_on_c, 6, 67, 84
1, 219072, Note_on_c, 9, 46, 117
1, 219072, Note_on_c, 9, 70, 23
1, 219072, Note_on_c, 11, 48, 86
1, 219074, Control_c, 12, 10, 5
1, 219090, Note_on_c, 9, 70, 0
1, 219090, Note_on_c, 9, 46, 0
1, 219162, Note_on_c, 1, 48, 0
1, 219162, Note_on_c, 11, 48, 0
1, 219168, Note_on_c, 9, 70, 36
1, 219186, Note_on_c, 9, 70, 0
1, 219200, Note_on_c, 6, 67, 0
1, 219264, Note_on_c, 1, 36, 63
1, 219264, Note_on_c, 5, 65, 78
1, 219264, Note_on_c, 5, 77, 78
1, 219264, Note_on_c, 9, 27, 127
1, 219264, Note_on_c, 9, 38, 127
1, 219264, Note_on_c, 9, 45, 107
1, 219264, Note_on_c, 9, 36, 127
1, 219264, Note_on_c, 9, 42, 76
1, 219264, Note_on_c, 9, 70, 102
1, 219264, Note_on_c, 11, 36, 63
1, 219282, Note_on_c, 9, 70, 0
1, 219282, Note_on_c, 9, 38, 0
1, 219282, Note_on_c, 9, 27, 0
1, 219282, Note_on_c, 9, 42, 0
1, 219282, Note_on_c, 9, 45, 0
1, 219282, Note_on_c, 9, 36, 0
1, 219354, Note_on_c, 11, 36, 0
1, 219354, Note_on_c, 1, 36, 0
1, 219360, Note_on_c, 9, 42, 85
1, 219378, Note_on_c, 9, 42, 0
1, 219422, Note_on_c, 5, 77, 0
1, 219425, Note_on_c, 5, 65, 0
1, 219456, Note_on_c, 1, 48, 86
1, 219456, Note_on_c, 6, 65, 104
1, 219456, Note_on_c, 9, 46, 117
1, 219456, Note_on_c, 9, 70, 73
1, 219456, Note_on_c, 11, 48, 86
1, 219474, Note_on_c, 9, 70, 0
1, 219474, Note_on_c, 9, 46, 0
1, 219481, Note_on_c, 2, 67, 0
1, 219550, Note_on_c, 11, 48, 0
1, 219550, Note_on_c, 1, 48, 0
1, 219554, Control_c, 12, 6, 10
1, 219584, Note_on_c, 6, 65, 0
1, 219600, Note_on_c, 2, 50, 61
1, 219600, Note_on_c, 2, 57, 61
1, 219600, Note_on_c, 2, 62, 61
1, 219600, Note_on_c, 2, 67, 61
1, 219606, Note_on_c, 2, 60, 0
1, 219606, Note_on_c, 2, 64, 0
1, 219606, Note_on_c, 2, 48, 0
1, 219648, Note_on_c, 1, 38, 60
1, 219648, Note_on_c, 5, 69, 93
1, 219648, Note_on_c, 5, 81, 93
1, 219648, Note_on_c, 9, 27, 127
1, 219648, Note_on_c, 9, 45, 107
1, 219648, Note_on_c, 9, 36, 127
1, 219648, Note_on_c, 9, 42, 76
1, 219648, Note_on_c, 9, 70, 102
1, 219648, Note_on_c, 11, 38, 60
1, 219648, Note_on_c, 12, 50, 80
1, 219666, Note_on_c, 9, 70, 0
1, 219666, Note_on_c, 9, 45, 0
1, 219666, Note_on_c, 9, 27, 0
1, 219666, Note_on_c, 9, 42, 0
1, 219666, Note_on_c, 9, 36, 0
1, 219691, Note_on_c, 12, 50, 0
1, 219698, Control_c, 12, 10, 5
1, 219735, Note_on_c, 11, 38, 0
1, 219735, Note_on_c, 1, 38, 0
1, 219744, Note_on_c, 9, 42, 85
1, 219744, Note_on_c, 12, 50, 73
1, 219746, Control_c, 12, 10, 13
1, 219746, Control_c, 12, 6, 25
1, 219762, Note_on_c, 9, 42, 0
1, 219778, Note_on_c, 12, 50, 0
1, 219794, Control_c, 12, 10, 20
1, 219806, Note_on_c, 5, 81, 0
1, 219809, Note_on_c, 5, 69, 0
1, 219840, Note_on_c, 1, 50, 92
1, 219840, Note_on_c, 6, 69, 104
1, 219840, Note_on_c, 9, 46, 117
1, 219840, Note_on_c, 11, 50, 92
1, 219840, Note_on_c, 12, 50, 80
1, 219842, Control_c, 12, 10, 27
1, 219858, Note_on_c, 9, 46, 0
1, 219883, Note_on_c, 12, 50, 0
1, 219890, Control_c, 12, 10, 34
1, 219914, Control_c, 12, 6, 40
1, 219930, Note_on_c, 1, 50, 0
1, 219930, Note_on_c, 11, 50, 0
1, 219936, Note_on_c, 9, 70, 50
1, 219936, Note_on_c, 12, 50, 73
1, 219938, Control_c, 12, 10, 41
1, 219954, Note_on_c, 9, 70, 0
1, 219968, Note_on_c, 6, 69, 0
1, 219970, Note_on_c, 12, 50, 0
1, 219986, Control_c, 12, 10, 49
1, 220032, Note_on_c, 1, 38, 66
1, 220032, Note_on_c, 5, 69, 78
1, 220032, Note_on_c, 5, 81, 78
1, 220032, Note_on_c, 9, 27, 127
1, 220032, Note_on_c, 9, 38, 127
1, 220032, Note_on_c, 9, 45, 107
1, 220032, Note_on_c, 9, 36, 127
1, 220032, Note_on_c, 9, 42, 76
1, 220032, Note_on_c, 9, 70, 96
1, 220032, Note_on_c, 11, 38, 66
1, 220032, Note_on_c, 12, 50, 80
1, 220034, Control_c, 12, 10, 56
1, 220050, Note_on_c, 9, 70, 0
1, 220050, Note_on_c, 9, 38, 0
1, 220050, Note_on_c, 9, 27, 0
1, 220050, Note_on_c, 9, 42, 0
1, 220050, Note_on_c, 9, 45, 0
1, 220050, Note_on_c, 9, 36, 0
1, 220075, Note_on_c, 12, 50, 0
1, 220082, Control_c, 12, 10, 63
1, 220118, Control_c, 12, 6, 60
1, 220122, Note_on_c, 11, 38, 0
1, 220122, Note_on_c, 1, 38, 0
1, 220128, Note_on_c, 9, 42, 85
1, 220128, Note_on_c, 12, 50, 73
1, 220130, Control_c, 12, 10, 70
1, 220146, Note_on_c, 9, 42, 0
1, 220162, Note_on_c, 12, 50, 0
1, 220178, Control_c, 12, 10, 77
1, 220190, Note_on_c, 5, 81, 0
1, 220193, Note_on_c, 5, 69, 0
1, 220224, Note_on_c, 1, 50, 92
1, 220224, Note_on_c, 6, 69, 91
1, 220224, Note_on_c, 9, 46, 102
1, 220224, Note_on_c, 9, 70, 90
1, 220224, Note_on_c, 11, 50, 92
1, 220224, Note_on_c, 12, 50, 80
1, 220226, Control_c, 12, 10, 84
1, 220242, Note_on_c, 9, 70, 0
1, 220242, Note_on_c, 9, 46, 0
1, 220267, Note_on_c, 12, 50, 0
1, 220274, Control_c, 12, 10, 92
1, 220298, Control_c, 12, 6, 85
1, 220314, Note_on_c, 1, 50, 0
1, 220314, Note_on_c, 11, 50, 0
1, 220320, Note_on_c, 12, 50, 73
1, 220322, Control_c, 12, 10, 99
1, 220352, Note_on_c, 6, 69, 0
1, 220354, Note_on_c, 12, 50, 0
1, 220368, Note_on_c, 2, 66, 61
1, 220370, Control_c, 12, 10, 106
1, 220391, Note_on_c, 2, 67, 0
1, 220416, Note_on_c, 1, 38, 66
1, 220416, Note_on_c, 5, 69, 64
1, 220416, Note_on_c, 5, 81, 64
1, 220416, Note_on_c, 9, 27, 127
1, 220416, Note_on_c, 9, 45, 107
1, 220416, Note_on_c, 9, 36, 127
1, 220416, Note_on_c, 9, 42, 76
1, 220416, Note_on_c, 9, 70, 102
1, 220416, Note_on_c, 11, 38, 66
1, 220416, Note_on_c, 12, 50, 80
1, 220418, Control_c, 12, 10, 113
1, 220434, Note_on_c, 9, 70, 0
1, 220434, Note_on_c, 9, 45, 0
1, 220434, Note_on_c, 9, 27, 0
1, 220434, Note_on_c, 9, 42, 0
1, 220434, Note_on_c, 9, 36, 0
1, 220459, Note_on_c, 12, 50, 0
1, 220466, Control_c, 12, 10, 120
1, 220506, Note_on_c, 11, 38, 0
1, 220506, Note_on_c, 1, 38, 0
1, 220512, Note_on_c, 9, 42, 85
1, 220512, Note_on_c, 12, 50, 73
1, 220514, Control_c, 12, 6, 110
1, 220530, Note_on_c, 9, 42, 0
1, 220546, Note_on_c, 12, 50, 0
1, 220574, Note_on_c, 5, 81, 0
1, 220577, Note_on_c, 5, 69, 0
1, 220608, Note_on_c, 1, 50, 92
1, 220608, Note_on_c, 6, 69, 81
1, 220608, Note_on_c, 9, 46, 117
1, 220608, Note_on_c, 9, 70, 30
1, 220608, Note_on_c, 11, 50, 92
1, 220626, Note_on_c, 9, 70, 0
1, 220626, Note_on_c, 9, 46, 0
1, 220698, Note_on_c, 1, 50, 0
1, 220698, Note_on_c, 11, 50, 0
1, 220704, Note_on_c, 9, 70, 59
1, 220722, Note_on_c, 9, 70, 0
1, 220736, Note_on_c, 6, 69, 0
1, 220800, Note_on_c, 1, 38, 66
1, 220800, Note_on_c, 5, 69, 50
1, 220800, Note_on_c, 5, 81, 50
1, 220800, Note_on_c, 9, 27, 127
1, 220800, Note_on_c, 9, 38, 127
1, 220800, Note_on_c, 9, 45, 107
1, 220800, Note_on_c, 9, 36, 127
1, 220800, Note_on_c, 9, 42, 76
1, 220800, Note_on_c, 9, 70, 86
1, 220800, Note_on_c, 11, 38, 66
1, 220818, Note_on_c, 9, 70, 0
1, 220818, Note_on_c, 9, 38, 0
1, 220818, Note_on_c, 9, 27, 0
1, 220818, Note_on_c, 9, 42, 0
1, 220818, Note_on_c, 9, 45, 0
1, 220818, Note_on_c, 9, 36, 0
1, 220890, Note_on_c, 11, 38, 0
1, 220890, Note_on_c, 1, 38, 0
1, 220896, Note_on_c, 9, 42, 85
1, 220914, Note_on_c, 9, 42, 0
1, 220958, Note_on_c, 5, 81, 0
1, 220961, Note_on_c, 5, 69, 0
1, 220992, Note_on_c, 1, 50, 89
1, 220992, Note_on_c, 6, 69, 72
1, 220992, Note_on_c, 9, 46, 117
1, 220992, Note_on_c, 9, 70, 76
1, 220992, Note_on_c, 11, 50, 89
1, 221010, Note_on_c, 9, 70, 0
1, 221010, Note_on_c, 9, 46, 0
1, 221086, Note_on_c, 1, 50, 0
1, 221086, Note_on_c, 11, 50, 0
1, 221090, Control_c, 12, 6, 10
1, 221120, Note_on_c, 6, 69, 0
1, 221130, Note_on_c, 2, 62, 0
1, 221136, Note_on_c, 2, 43, 61
1, 221136, Note_on_c, 2, 62, 61
1, 221136, Note_on_c, 2, 67, 61
1, 221136, Note_on_c, 2, 70, 61
1, 221138, Note_on_c, 2, 66, 0
1, 221139, Note_on_c, 2, 50, 0
1, 221148, Note_on_c, 2, 57, 0
1, 221163, Note_on_c, 2, 62, 0
1, 221184, Note_on_c, 1, 31, 63
1, 221184, Note_on_c, 5, 70, 93
1, 221184, Note_on_c, 5, 82, 93
1, 221184, Note_on_c, 9, 27, 127
1, 221184, Note_on_c, 9, 45, 107
1, 221184, Note_on_c, 9, 36, 127
1, 221184, Note_on_c, 9, 42, 76
1, 221184, Note_on_c, 9, 70, 102
1, 221184, Note_on_c, 11, 31, 63
1, 221184, Note_on_c, 12, 53, 80
1, 221186, Control_c, 12, 10, 125
1, 221202, Note_on_c, 9, 70, 0
1, 221202, Note_on_c, 9, 36, 0
1, 221202, Note_on_c, 9, 45, 0
1, 221202, Note_on_c, 9, 27, 0
1, 221202, Note_on_c, 9, 42, 0
1, 221227, Note_on_c, 12, 53, 0
1, 221234, Control_c, 12, 10, 119
1, 221271, Note_on_c, 1, 31, 0
1, 221271, Note_on_c, 11, 31, 0
1, 221280, Note_on_c, 9, 42, 85
1, 221280, Note_on_c, 12, 53, 73
1, 221282, Control_c, 12, 10, 113
1, 221282, Control_c, 12, 6, 25
1, 221298, Note_on_c, 9, 42, 0
1, 221314, Note_on_c, 12, 53, 0
1, 221330, Control_c, 12, 10, 107
1, 221342, Note_on_c, 5, 82, 0
1, 221345, Note_on_c, 5, 70, 0
1, 221376, Note_on_c, 1, 43, 89
1, 221376, Note_on_c, 6, 70, 104
1, 221376, Note_on_c, 9, 46, 117
1, 221376, Note_on_c, 11, 43, 89
1, 221376, Note_on_c, 12, 53, 80
1, 221378, Control_c, 12, 10, 101
1, 221394, Note_on_c, 9, 46, 0
1, 221419, Note_on_c, 12, 53, 0
1, 221426, Control_c, 12, 10, 95
1, 221450, Control_c, 12, 6, 40
1, 221466, Note_on_c, 11, 43, 0
1, 221466, Note_on_c, 1, 43, 0
1, 221472, Note_on_c, 9, 70, 54
1, 221472, Note_on_c, 12, 53, 73
1, 221474, Control_c, 12, 10, 89
1, 221490, Note_on_c, 9, 70, 0
1, 221493, Control_c, 2, 64, 127
1, 221493, Control_c, 2, 64, 127
1, 221495, Control_c, 2, 64, 127
1, 221496, Control_c, 2, 64, 127
1, 221497, Control_c, 2, 64, 127
1, 221499, Control_c, 2, 64, 127
1, 221500, Control_c, 2, 64, 127
1, 221501, Control_c, 2, 64, 127
1, 221503, Control_c, 2, 64, 127
1, 221504, Note_on_c, 6, 70, 0
1, 221504, Control_c, 2, 64, 127
1, 221505, Control_c, 2, 64, 127
1, 221505, Control_c, 2, 64, 127
1, 221506, Note_on_c, 12, 53, 0
1, 221506, Control_c, 2, 64, 127
1, 221507, Control_c, 2, 64, 127
1, 221508, Control_c, 2, 64, 127
1, 221522, Control_c, 12, 10, 83
1, 221568, Note_on_c, 1, 31, 63
1, 221568, Note_on_c, 5, 70, 78
1, 221568, Note_on_c, 5, 82, 78
1, 221568, Note_on_c, 9, 27, 127
1, 221568, Note_on_c, 9, 38, 127
1, 221568, Note_on_c, 9, 45, 107
1, 221568, Note_on_c, 9, 36, 127
1, 221568, Note_on_c, 9, 42, 76
1, 221568, Note_on_c, 9, 70, 102
1, 221568, Note_on_c, 11, 31, 63
1, 221568, Note_on_c, 12, 53, 80
1, 221570, Control_c, 12, 10, 77
1, 221586, Note_on_c, 9, 70, 0
1, 221586, Note_on_c, 9, 45, 0
1, 221586, Note_on_c, 9, 38, 0
1, 221586, Note_on_c, 9, 27, 0
1, 221586, Note_on_c, 9, 42, 0
1, 221586, Note_on_c, 9, 36, 0
1, 221611, Note_on_c, 12, 53, 0
1, 221618, Control_c, 12, 10, 71
1, 221654, Control_c, 12, 6, 60
1, 221658, Note_on_c, 1, 31, 0
1, 221658, Note_on_c, 11, 31, 0
1, 221664, Note_on_c, 9, 42, 85
1, 221664, Note_on_c, 12, 53, 73
1, 221666, Control_c, 12, 10, 65
1, 221682, Note_on_c, 9, 42, 0
1, 221698, Note_on_c, 12, 53, 0
1, 221714, Control_c, 12, 10, 59
1, 221726, Note_on_c, 5, 82, 0
1, 221729, Note_on_c, 5, 70, 0
1, 221760, Note_on_c, 1, 43, 89
1, 221760, Note_on_c, 6, 70, 78
1, 221760, Note_on_c, 9, 46, 117
1, 221760, Note_on_c, 9, 70, 90
1, 221760, Note_on_c, 11, 43, 89
1, 221760, Note_on_c, 12, 53, 80
1, 221762, Control_c, 12, 10, 53
1, 221778, Note_on_c, 9, 70, 0
1, 221778, Note_on_c, 9, 46, 0
1, 221803, Note_on_c, 12, 53, 0
1, 221810, Control_c, 12, 10, 47
1, 221834, Control_c, 12, 6, 85
1, 221850, Note_on_c, 11, 43, 0
1, 221850, Note_on_c, 1, 43, 0
1, 221856, Note_on_c, 9, 27, 127
1, 221856, Note_on_c, 9, 45, 107
1, 221856, Note_on_c, 9, 36, 127
1, 221856, Note_on_c, 12, 53, 73
1, 221858, Control_c, 12, 10, 41
1, 221874, Note_on_c, 9, 36, 0
1, 221874, Note_on_c, 9, 45, 0
1, 221874, Note_on_c, 9, 27, 0
1, 221888, Note_on_c, 6, 70, 0
1, 221890, Note_on_c, 12, 53, 0
1, 221898, Note_on_c, 2, 43, 0
1, 221898, Note_on_c, 2, 67, 0
1, 221898, Note_on_c, 2, 70, 0
1, 221904, Note_on_c, 2, 45, 61
1, 221904, Note_on_c, 2, 60, 61
1, 221904, Note_on_c, 2, 65, 61
1, 221904, Note_on_c, 2, 69, 61
1, 221906, Control_c, 12, 10, 35
1, 221952, Note_on_c, 1, 33, 63
1, 221952, Note_on_c, 5, 69, 93
1, 221952, Note_on_c, 5, 81, 93
1, 221952, Note_on_c, 9, 27, 127
1, 221952, Note_on_c, 9, 45, 107
1, 221952, Note_on_c, 9, 36, 127
1, 221952, Note_on_c, 9, 42, 76
1, 221952, Note_on_c, 9, 70, 96
1, 221952, Note_on_c, 11, 33, 63
1, 221952, Note_on_c, 12, 53, 80
1, 221954, Control_c, 12, 10, 29
1, 221966, Control_c, 2, 64, 0
1, 221966, Control_c, 2, 64, 0
1, 221966, Control_c, 2, 64, 0
1, 221966, Control_c, 2, 64, 0
1, 221966, Control_c, 2, 64, 0
1, 221966, Control_c, 2, 64, 0
1, 221966, Control_c, 2, 64, 0
1, 221966, Control_c, 2, 64, 0
1, 221966, Control_c, 2, 64, 0
1, 221966, Control_c, 2, 64, 0
1, 221966, Control_c, 2, 64, 0
1, 221966, Control_c, 2, 64, 0
1, 221966, Control_c, 2, 64, 0
1, 221966, Control_c, 2, 64, 0
1, 221966, Control_c, 2, 64, 0
1, 221970, Note_on_c, 9, 70, 0
1, 221970, Note_on_c, 9, 45, 0
1, 221970, Note_on_c, 9, 27, 0
1, 221970, Note_on_c, 9, 42, 0
1, 221970, Note_on_c, 9, 36, 0
1, 221995, Note_on_c, 12, 53, 0
1, 222002, Control_c, 12, 10, 23
1, 222042, Note_on_c, 11, 33, 0
1, 222042, Note_on_c, 1, 33, 0
1, 222048, Note_on_c, 9, 42, 85
1, 222048, Note_on_c, 12, 53, 73
1, 222050, Control_c, 12, 10, 17
1, 222050, Control_c, 12, 6, 110
1, 222066, Note_on_c, 9, 42, 0
1, 222082, Note_on_c, 12, 53, 0
1, 222098, Control_c, 12, 10, 11
1, 222110, Note_on_c, 5, 81, 0
1, 222113, Note_on_c, 5, 69, 0
1, 222144, Note_on_c, 1, 45, 86
1, 222144, Note_on_c, 6, 69, 104
1, 222144, Note_on_c, 9, 27, 127
1, 222144, Note_on_c, 9, 45, 107
1, 222144, Note_on_c, 9, 36, 127
1, 222144, Note_on_c, 9, 46, 117
1, 222144, Note_on_c, 9, 70, 23
1, 222144, Note_on_c, 11, 45, 86
1, 222146, Control_c, 12, 10, 5
1, 222162, Note_on_c, 9, 70, 0
1, 222162, Note_on_c, 9, 36, 0
1, 222162, Note_on_c, 9, 45, 0
1, 222162, Note_on_c, 9, 27, 0
1, 222162, Note_on_c, 9, 46, 0
1, 222234, Note_on_c, 1, 45, 0
1, 222234, Note_on_c, 11, 45, 0
1, 222240, Note_on_c, 9, 70, 36
1, 222258, Note_on_c, 9, 70, 0
1, 222272, Note_on_c, 6, 69, 0
1, 222320, Control_c, 2, 64, 127
1, 222320, Control_c, 2, 64, 127
1, 222320, Control_c, 2, 64, 127
1, 222320, Control_c, 2, 64, 127
1, 222320, Control_c, 2, 64, 127
1, 222320, Control_c, 2, 64, 127
1, 222320, Control_c, 2, 64, 127
1, 222320, Control_c, 2, 64, 127
1, 222320, Control_c, 2, 64, 127
1, 222320, Control_c, 2, 64, 127
1, 222320, Control_c, 2, 64, 127
1, 222320, Control_c, 2, 64, 127
1, 222320, Control_c, 2, 64, 127
1, 222320, Control_c, 2, 64, 127
1, 222320, Control_c, 2, 64, 127
1, 222336, Note_on_c, 1, 33, 63
1, 222336, Note_on_c, 5, 69, 78
1, 222336, Note_on_c, 5, 81, 78
1, 222336, Note_on_c, 9, 27, 127
1, 222336, Note_on_c, 9, 38, 127
1, 222336, Note_on_c, 9, 45, 107
1, 222336, Note_on_c, 9, 36, 127
1, 222336, Note_on_c, 9, 42, 76
1, 222336, Note_on_c, 9, 70, 102
1, 222336, Note_on_c, 11, 33, 63
1, 222354, Note_on_c, 9, 70, 0
1, 222354, Note_on_c, 9, 38, 0
1, 222354, Note_on_c, 9, 27, 0
1, 222354, Note_on_c, 9, 42, 0
1, 222354, Note_on_c, 9, 45, 0
1, 222354, Note_on_c, 9, 36, 0
1, 222426, Note_on_c, 11, 33, 0
1, 222426, Note_on_c, 1, 33, 0
1, 222432, Note_on_c, 9, 42, 85
1, 222450, Note_on_c, 9, 42, 0
1, 222494, Note_on_c, 5, 81, 0
1, 222497, Note_on_c, 5, 69, 0
1, 222528, Note_on_c, 1, 45, 86
1, 222528, Note_on_c, 6, 69, 78
1, 222528, Note_on_c, 9, 27, 127
1, 222528, Note_on_c, 9, 45, 107
1, 222528, Note_on_c, 9, 36, 127
1, 222528, Note_on_c, 9, 46, 117
1, 222528, Note_on_c, 9, 70, 73
1, 222528, Note_on_c, 11, 45, 86
1, 222546, Note_on_c, 9, 70, 0
1, 222546, Note_on_c, 9, 36, 0
1, 222546, Note_on_c, 9, 45, 0
1, 222546, Note_on_c, 9, 27, 0
1, 222546, Note_on_c, 9, 46, 0
1, 222622, Note_on_c, 1, 45, 0
1, 222622, Note_on_c, 11, 45, 0
1, 222624, Note_on_c, 9, 27, 127
1, 222624, Note_on_c, 9, 45, 107
1, 222624, Note_on_c, 9, 36, 127
1, 222626, Control_c, 12, 6, 10
1, 222642, Note_on_c, 9, 36, 0
1, 222642, Note_on_c, 9, 45, 0
1, 222642, Note_on_c, 9, 27, 0
1, 222656, Note_on_c, 6, 69, 0
1, 222666, Note_on_c, 2, 65, 0
1, 222672, Note_on_c, 2, 46, 61
1, 222672, Note_on_c, 2, 58, 61
1, 222672, Note_on_c, 2, 62, 61
1, 222672, Note_on_c, 2, 65, 61
1, 222678, Note_on_c, 2, 65, 0
1, 222678, Note_on_c, 2, 45, 0
1, 222678, Note_on_c, 2, 60, 0
1, 222678, Note_on_c, 2, 69, 0
1, 222680, Control_c, 2, 64, 0
1, 222680, Control_c, 2, 64, 0
1, 222680, Control_c, 2, 64, 0
1, 222680, Control_c, 2, 64, 0
1, 222680, Control_c, 2, 64, 0
1, 222680, Control_c, 2, 64, 0
1, 222680, Control_c, 2, 64, 0
1, 222680, Control_c, 2, 64, 0
1, 222680, Control_c, 2, 64, 0
1, 222680, Control_c, 2, 64, 0
1, 222680, Control_c, 2, 64, 0
1, 222680, Control_c, 2, 64, 0
1, 222680, Control_c, 2, 64, 0
1, 222680, Control_c, 2, 64, 0
1, 222680, Control_c, 2, 64, 0
1, 222720, Note_on_c, 1, 34, 60
1, 222720, Note_on_c, 5, 65, 98
1, 222720, Note_on_c, 5, 77, 98
1, 222720, Note_on_c, 9, 27, 127
1, 222720, Note_on_c, 9, 45, 107
1, 222720, Note_on_c, 9, 36, 127
1, 222720, Note_on_c, 9, 42, 76
1, 222720, Note_on_c, 9, 70, 102
1, 222720, Note_on_c, 11, 34, 60
1, 222720, Note_on_c, 12, 53, 80
1, 222738, Note_on_c, 9, 70, 0
1, 222738, Note_on_c, 9, 36, 0
1, 222738, Note_on_c, 9, 45, 0
1, 222738, Note_on_c, 9, 27, 0
1, 222738, Note_on_c, 9, 42, 0
1, 222763, Note_on_c, 12, 53, 0
1, 222770, Control_c, 12, 10, 5
1, 222807, Note_on_c, 1, 34, 0
1, 222807, Note_on_c, 11, 34, 0
1, 222816, Note_on_c, 9, 42, 85
1, 222816, Note_on_c, 12, 53, 73
1, 222818, Control_c, 12, 10, 13
1, 222818, Control_c, 12, 6, 25
1, 222834, Note_on_c, 9, 42, 0
1, 222850, Note_on_c, 12, 53, 0
1, 222866, Control_c, 12, 10, 20
1, 222878, Note_on_c, 5, 77, 0
1, 222881, Note_on_c, 5, 65, 0
1, 222912, Note_on_c, 1, 46, 92
1, 222912, Note_on_c, 6, 65, 120
1, 222912, Note_on_c, 9, 46, 117
1, 222912, Note_on_c, 11, 46, 92
1, 222912, Note_on_c, 12, 53, 80
1, 222914, Control_c, 12, 10, 27
1, 222930, Note_on_c, 9, 46, 0
1, 222955, Note_on_c, 12, 53, 0
1, 222962, Control_c, 12, 10, 34
1, 222986, Control_c, 12, 6, 40
1, 223002, Note_on_c, 11, 46, 0
1, 223002, Note_on_c, 1, 46, 0
1, 223008, Note_on_c, 9, 70, 50
1, 223008, Note_on_c, 12, 53, 73
1, 223010, Control_c, 12, 10, 41
1, 223026, Note_on_c, 9, 70, 0
1, 223042, Note_on_c, 12, 53, 0
1, 223048, Note_on_c, 6, 65, 0
1, 223058, Control_c, 12, 10, 49
1, 223104, Note_on_c, 1, 34, 66
1, 223104, Note_on_c, 5, 65, 85
1, 223104, Note_on_c, 5, 77, 85
1, 223104, Note_on_c, 9, 27, 127
1, 223104, Note_on_c, 9, 38, 127
1, 223104, Note_on_c, 9, 36, 127
1, 223104, Note_on_c, 9, 45, 107
1, 223104, Note_on_c, 9, 42, 76
1, 223104, Note_on_c, 9, 70, 96
1, 223104, Note_on_c, 11, 34, 66
1, 223104, Note_on_c, 12, 53, 80
1, 223106, Control_c, 12, 10, 56
1, 223122, Note_on_c, 9, 70, 0
1, 223122, Note_on_c, 9, 36, 0
1, 223122, Note_on_c, 9, 38, 0
1, 223122, Note_on_c, 9, 27, 0
1, 223122, Note_on_c, 9, 42, 0
1, 223122, Note_on_c, 9, 45, 0
1, 223147, Note_on_c, 12, 53, 0
1, 223154, Control_c, 12, 10, 63
1, 223190, Control_c, 12, 6, 60
1, 223194, Note_on_c, 1, 34, 0
1, 223194, Note_on_c, 11, 34, 0
1, 223200, Note_on_c, 9, 42, 85
1, 223200, Note_on_c, 12, 53, 73
1, 223202, Control_c, 12, 10, 70
1, 223218, Note_on_c, 9, 42, 0
1, 223234, Note_on_c, 12, 53, 0
1, 223250, Control_c, 12, 10, 77
1, 223262, Note_on_c, 5, 77, 0
1, 223265, Note_on_c, 5, 65, 0
1, 223296, Note_on_c, 1, 46, 92
1, 223296, Note_on_c, 6, 65, 102
1, 223296, Note_on_c, 9, 46, 102
1, 223296, Note_on_c, 9, 70, 90
1, 223296, Note_on_c, 11, 46, 92
1, 223296, Note_on_c, 12, 53, 80
1, 223298, Control_c, 12, 10, 84
1, 223314, Note_on_c, 9, 70, 0
1, 223314, Note_on_c, 9, 46, 0
1, 223339, Note_on_c, 12, 53, 0
1, 223346, Control_c, 12, 10, 92
1, 223370, Control_c, 12, 6, 85
1, 223386, Note_on_c, 11, 46, 0
1, 223386, Note_on_c, 1, 46, 0
1, 223392, Note_on_c, 12, 53, 73
1, 223394, Control_c, 12, 10, 99
1, 223426, Note_on_c, 12, 53, 0
1, 223442, Control_c, 12, 10, 106
1, 223451, Note_on_c, 6, 65, 0
1, 223488, Note_on_c, 1, 34, 66
1, 223488, Note_on_c, 5, 65, 72
1, 223488, Note_on_c, 5, 77, 72
1, 223488, Note_on_c, 9, 27, 127
1, 223488, Note_on_c, 9, 36, 127
1, 223488, Note_on_c, 9, 45, 107
1, 223488, Note_on_c, 9, 42, 76
1, 223488, Note_on_c, 9, 70, 102
1, 223488, Note_on_c, 11, 34, 66
1, 223488, Note_on_c, 12, 53, 80
1, 223490, Control_c, 12, 10, 113
1, 223506, Note_on_c, 9, 70, 0
1, 223506, Note_on_c, 9, 45, 0
1, 223506, Note_on_c, 9, 36, 0
1, 223506, Note_on_c, 9, 27, 0
1, 223506, Note_on_c, 9, 42, 0
1, 223531, Note_on_c, 12, 53, 0
1, 223538, Control_c, 12, 10, 120
1, 223578, Note_on_c, 1, 34, 0
1, 223578, Note_on_c, 11, 34, 0
1, 223584, Note_on_c, 9, 42, 85
1, 223584, Note_on_c, 12, 53, 73
1, 223586, Control_c, 12, 6, 110
1, 223602, Note_on_c, 9, 42, 0
1, 223618, Note_on_c, 12, 53, 0
1, 223646, Note_on_c, 5, 77, 0
1, 223649, Note_on_c, 5, 65, 0
1, 223680, Note_on_c, 1, 46, 92
1, 223680, Note_on_c, 6, 65, 90
1, 223680, Note_on_c, 9, 46, 117
1, 223680, Note_on_c, 9, 70, 30
1, 223680, Note_on_c, 11, 46, 92
1, 223698, Note_on_c, 9, 70, 0
1, 223698, Note_on_c, 9, 46, 0
1, 223770, Note_on_c, 11, 46, 0
1, 223770, Note_on_c, 1, 46, 0
1, 223776, Note_on_c, 9, 70, 59
1, 223794, Note_on_c, 9, 70, 0
1, 223825, Note_on_c, 6, 65, 0
1, 223872, Note_on_c, 1, 34, 66
1, 223872, Note_on_c, 5, 65, 58
1, 223872, Note_on_c, 5, 77, 58
1, 223872, Note_on_c, 9, 27, 127
1, 223872, Note_on_c, 9, 38, 127
1, 223872, Note_on_c, 9, 45, 107
1, 223872, Note_on_c, 9, 36, 127
1, 223872, Note_on_c, 9, 42, 76
1, 223872, Note_on_c, 9, 70, 86
1, 223872, Note_on_c, 11, 34, 66
1, 223890, Note_on_c, 9, 70, 0
1, 223890, Note_on_c, 9, 45, 0
1, 223890, Note_on_c, 9, 38, 0
1, 223890, Note_on_c, 9, 27, 0
1, 223890, Note_on_c, 9, 42, 0
1, 223890, Note_on_c, 9, 36, 0
1, 223962, Note_on_c, 1, 34, 0
1, 223962, Note_on_c, 11, 34, 0
1, 223968, Note_on_c, 9, 42, 85
1, 223986, Note_on_c, 9, 42, 0
1, 224030, Note_on_c, 5, 77, 0
1, 224033, Note_on_c, 5, 65, 0
1, 224064, Note_on_c, 1, 46, 89
1, 224064, Note_on_c, 6, 65, 78
1, 224064, Note_on_c, 9, 46, 117
1, 224064, Note_on_c, 9, 70, 76
1, 224064, Note_on_c, 11, 46, 89
1, 224082, Note_on_c, 9, 70, 0
1, 224082, Note_on_c, 9, 46, 0
1, 224151, Note_on_c, 6, 65, 0
1, 224158, Note_on_c, 11, 46, 0
1, 224158, Note_on_c, 1, 46, 0
1, 224162, Control_c, 12, 6, 10
1, 224202, Note_on_c, 2, 46, 0
1, 224202, Note_on_c, 2, 62, 0
1, 224202, Note_on_c, 2, 58, 0
1, 224208, Note_on_c, 2, 41, 61
1, 224208, Note_on_c, 2, 53, 61
1, 224208, Note_on_c, 2, 57, 61
1, 224208, Note_on_c, 2, 60, 61
1, 224256, Note_on_c, 1, 29, 63
1, 224256, Note_on_c, 5, 72, 98
1, 224256, Note_on_c, 5, 84, 98
1, 224256, Note_on_c, 9, 27, 127
1, 224256, Note_on_c, 9, 45, 107
1, 224256, Note_on_c, 9, 36, 127
1, 224256, Note_on_c, 9, 42, 76
1, 224256, Note_on_c, 9, 70, 102
1, 224256, Note_on_c, 11, 29, 63
1, 224256, Note_on_c, 12, 53, 80
1, 224258, Control_c, 12, 10, 125
1, 224274, Note_on_c, 9, 70, 0
1, 224274, Note_on_c, 9, 45, 0
1, 224274, Note_on_c, 9, 27, 0
1, 224274, Note_on_c, 9, 42, 0
1, 224274, Note_on_c, 9, 36, 0
1, 224299, Note_on_c, 12, 53, 0
1, 224306, Control_c, 12, 10, 119
1, 224343, Note_on_c, 11, 29, 0
1, 224343, Note_on_c, 1, 29, 0
1, 224352, Note_on_c, 9, 42, 85
1, 224352, Note_on_c, 12, 53, 73
1, 224354, Control_c, 12, 10, 113
1, 224354, Control_c, 12, 6, 25
1, 224370, Note_on_c, 9, 42, 0
1, 224386, Note_on_c, 12, 53, 0
1, 224402, Control_c, 12, 10, 107
1, 224414, Note_on_c, 5, 84, 0
1, 224417, Note_on_c, 5, 72, 0
1, 224448, Note_on_c, 1, 41, 89
1, 224448, Note_on_c, 6, 72, 120
1, 224448, Note_on_c, 9, 46, 117
1, 224448, Note_on_c, 11, 41, 89
1, 224448, Note_on_c, 12, 53, 80
1, 224450, Control_c, 12, 10, 101
1, 224466, Note_on_c, 9, 46, 0
1, 224491, Note_on_c, 12, 53, 0
1, 224498, Control_c, 12, 10, 95
1, 224522, Control_c, 12, 6, 40
1, 224538, Note_on_c, 1, 41, 0
1, 224538, Note_on_c, 11, 41, 0
1, 224544, Note_on_c, 9, 70, 54
1, 224544, Note_on_c, 12, 53, 73
1, 224546, Control_c, 12, 10, 89
1, 224562, Note_on_c, 9, 70, 0
1, 224578, Note_on_c, 12, 53, 0
1, 224584, Note_on_c, 6, 72, 0
1, 224594, Control_c, 12, 10, 83
1, 224640, Note_on_c, 1, 29, 63
1, 224640, Note_on_c, 5, 72, 85
1, 224640, Note_on_c, 5, 84, 85
1, 224640, Note_on_c, 9, 27, 127
1, 224640, Note_on_c, 9, 38, 127
1, 224640, Note_on_c, 9, 45, 107
1, 224640, Note_on_c, 9, 36, 127
1, 224640, Note_on_c, 9, 42, 76
1, 224640, Note_on_c, 9, 70, 102
1, 224640, Note_on_c, 11, 29, 63
1, 224640, Note_on_c, 12, 53, 80
1, 224642, Control_c, 12, 10, 77
1, 224658, Note_on_c, 9, 70, 0
1, 224658, Note_on_c, 9, 38, 0
1, 224658, Note_on_c, 9, 27, 0
1, 224658, Note_on_c, 9, 42, 0
1, 224658, Note_on_c, 9, 45, 0
1, 224658, Note_on_c, 9, 36, 0
1, 224683, Note_on_c, 12, 53, 0
1, 224690, Control_c, 12, 10, 71
1, 224726, Control_c, 12, 6, 60
1, 224730, Note_on_c, 11, 29, 0
1, 224730, Note_on_c, 1, 29, 0
1, 224736, Note_on_c, 9, 42, 85
1, 224736, Note_on_c, 12, 53, 73
1, 224738, Control_c, 12, 10, 65
1, 224754, Note_on_c, 9, 42, 0
1, 224770, Note_on_c, 12, 53, 0
1, 224786, Control_c, 12, 10, 59
1, 224798, Note_on_c, 5, 84, 0
1, 224801, Note_on_c, 5, 72, 0
1, 224832, Note_on_c, 1, 41, 89
1, 224832, Note_on_c, 6, 72, 102
1, 224832, Note_on_c, 9, 46, 117
1, 224832, Note_on_c, 9, 70, 90
1, 224832, Note_on_c, 11, 41, 89
1, 224832, Note_on_c, 12, 53, 80
1, 224834, Control_c, 12, 10, 53
1, 224850, Note_on_c, 9, 70, 0
1, 224850, Note_on_c, 9, 46, 0
1, 224875, Note_on_c, 12, 53, 0
1, 224882, Control_c, 12, 10, 47
1, 224906, Control_c, 12, 6, 85
1, 224922, Note_on_c, 1, 41, 0
1, 224922, Note_on_c, 11, 41, 0
1, 224928, Note_on_c, 12, 53, 73
1, 224930, Control_c, 12, 10, 41
1, 224962, Note_on_c, 12, 53, 0
1, 224978, Control_c, 12, 10, 35
1, 224987, Note_on_c, 6, 72, 0
1, 225024, Note_on_c, 1, 29, 63
1, 225024, Note_on_c, 5, 72, 72
1, 225024, Note_on_c, 5, 84, 72
1, 225024, Note_on_c, 9, 27, 127
1, 225024, Note_on_c, 9, 45, 107
1, 225024, Note_on_c, 9, 36, 127
1, 225024, Note_on_c, 9, 42, 76
1, 225024, Note_on_c, 9, 70, 96
1, 225024, Note_on_c, 11, 29, 63
1, 225024, Note_on_c, 12, 53, 80
1, 225026, Control_c, 12, 10, 29
1, 225042, Note_on_c, 9, 70, 0
1, 225042, Note_on_c, 9, 45, 0
1, 225042, Note_on_c, 9, 27, 0
1, 225042, Note_on_c, 9, 42, 0
1, 225042, Note_on_c, 9, 36, 0
1, 225067, Note_on_c, 12, 53, 0
1, 225074, Control_c, 12, 10, 23
1, 225114, Note_on_c, 11, 29, 0
1, 225114, Note_on_c, 1, 29, 0
1, 225120, Note_on_c, 9, 42, 85
1, 225120, Note_on_c, 12, 53, 73
1, 225122, Control_c, 12, 10, 17
1, 225122, Control_c, 12, 6, 110
1, 225138, Note_on_c, 9, 42, 0
1, 225154, Note_on_c, 12, 53, 0
1, 225170, Control_c, 12, 10, 11
1, 225182, Note_on_c, 5, 84, 0
1, 225185, Note_on_c, 5, 72, 0
1, 225216, Note_on_c, 1, 41, 86
1, 225216, Note_on_c, 6, 72, 90
1, 225216, Note_on_c, 9, 46, 117
1, 225216, Note_on_c, 9, 70, 23
1, 225216, Note_on_c, 11, 41, 86
1, 225218, Control_c, 12, 10, 5
1, 225234, Note_on_c, 9, 70, 0
1, 225234, Note_on_c, 9, 46, 0
1, 225306, Note_on_c, 1, 41, 0
1, 225306, Note_on_c, 11, 41, 0
1, 225312, Note_on_c, 9, 70, 36
1, 225330, Note_on_c, 9, 70, 0
1, 225361, Note_on_c, 6, 72, 0
1, 225408, Note_on_c, 1, 29, 63
1, 225408, Note_on_c, 5, 86, 93
1, 225408, Note_on_c, 5, 74, 93
1, 225408, Note_on_c, 9, 27, 127
1, 225408, Note_on_c, 9, 38, 127
1, 225408, Note_on_c, 9, 45, 107
1, 225408, Note_on_c, 9, 36, 127
1, 225408, Note_on_c, 9, 42, 76
1, 225408, Note_on_c, 9, 70, 102
1, 225408, Note_on_c, 11, 29, 63
1, 225426, Note_on_c, 9, 70, 0
1, 225426, Note_on_c, 9, 38, 0
1, 225426, Note_on_c, 9, 27, 0
1, 225426, Note_on_c, 9, 42, 0
1, 225426, Note_on_c, 9, 45, 0
1, 225426, Note_on_c, 9, 36, 0
1, 225498, Note_on_c, 11, 29, 0
1, 225498, Note_on_c, 1, 29, 0
1, 225504, Note_on_c, 9, 42, 85
1, 225522, Note_on_c, 9, 42, 0
1, 225566, Note_on_c, 5, 86, 0
1, 225569, Note_on_c, 5, 74, 0
1, 225600, Note_on_c, 1, 41, 86
1, 225600, Note_on_c, 6, 74, 120
1, 225600, Note_on_c, 9, 46, 117
1, 225600, Note_on_c, 9, 70, 73
1, 225600, Note_on_c, 11, 41, 86
1, 225618, Note_on_c, 9, 70, 0
1, 225618, Note_on_c, 9, 46, 0
1, 225694, Note_on_c, 1, 41, 0
1, 225694, Note_on_c, 11, 41, 0
1, 225698, Control_c, 12, 6, 10
1, 225736, Note_on_c, 6, 74, 0
1, 225738, Note_on_c, 2, 60, 0
1, 225738, Note_on_c, 2, 53, 0
1, 225738, Note_on_c, 2, 57, 0
1, 225738, Note_on_c, 2, 41, 0
1, 225744, Note_on_c, 2, 38, 61
1, 225744, Note_on_c, 2, 50, 61
1, 225744, Note_on_c, 2, 53, 61
1, 225744, Note_on_c, 2, 57, 61
1, 225752, Note_on_c, 2, 65, 61
1, 225792, Note_on_c, 1, 26, 60
1, 225792, Note_on_c, 5, 81, 93
1, 225792, Note_on_c, 5, 69, 93
1, 225792, Note_on_c, 9, 27, 127
1, 225792, Note_on_c, 9, 45, 107
1, 225792, Note_on_c, 9, 36, 127
1, 225792, Note_on_c, 9, 42, 76
1, 225792, Note_on_c, 9, 70, 102
1, 225792, Note_on_c, 11, 26, 60
1, 225792, Note_on_c, 12, 53, 80
1, 225810, Note_on_c, 9, 70, 0
1, 225810, Note_on_c, 9, 27, 0
1, 225810, Note_on_c, 9, 42, 0
1, 225810, Note_on_c, 9, 45, 0
1, 225810, Note_on_c, 9, 36, 0
1, 225835, Note_on_c, 12, 53, 0
1, 225842, Control_c, 12, 10, 5
1, 225879, Note_on_c, 1, 26, 0
1, 225879, Note_on_c, 11, 26, 0
1, 225888, Note_on_c, 9, 42, 85
1, 225888, Note_on_c, 12, 53, 73
1, 225890, Control_c, 12, 10, 13
1, 225890, Control_c, 12, 6, 25
1, 225906, Note_on_c, 9, 42, 0
1, 225922, Note_on_c, 12, 53, 0
1, 225938, Control_c, 12, 10, 20
1, 225950, Note_on_c, 5, 81, 0
1, 225953, Note_on_c, 5, 69, 0
1, 225984, Note_on_c, 1, 38, 92
1, 225984, Note_on_c, 6, 69, 102
1, 225984, Note_on_c, 9, 46, 117
1, 225984, Note_on_c, 11, 38, 92
1, 225984, Note_on_c, 12, 53, 80
1, 225986, Control_c, 12, 10, 27
1, 226002, Note_on_c, 9, 46, 0
1, 226027, Note_on_c, 12, 53, 0
1, 226034, Control_c, 12, 10, 34
1, 226058, Control_c, 12, 6, 40
1, 226074, Note_on_c, 1, 38, 0
1, 226074, Note_on_c, 11, 38, 0
1, 226080, Note_on_c, 9, 70, 50
1, 226080, Note_on_c, 12, 53, 73
1, 226082, Control_c, 12, 10, 41
1, 226098, Note_on_c, 9, 70, 0
1, 226114, Note_on_c, 12, 53, 0
1, 226130, Control_c, 12, 10, 49
1, 226139, Note_on_c, 6, 69, 0
1, 226176, Note_on_c, 1, 26, 66
1, 226176, Note_on_c, 5, 69, 85
1, 226176, Note_on_c, 5, 81, 85
1, 226176, Note_on_c, 9, 27, 127
1, 226176, Note_on_c, 9, 38, 127
1, 226176, Note_on_c, 9, 45, 107
1, 226176, Note_on_c, 9, 36, 127
1, 226176, Note_on_c, 9, 42, 76
1, 226176, Note_on_c, 9, 70, 96
1, 226176, Note_on_c, 11, 26, 66
1, 226176, Note_on_c, 12, 53, 80
1, 226178, Control_c, 12, 10, 56
1, 226194, Note_on_c, 9, 70, 0
1, 226194, Note_on_c, 9, 27, 0
1, 226194, Note_on_c, 9, 42, 0
1, 226194, Note_on_c, 9, 45, 0
1, 226194, Note_on_c, 9, 38, 0
1, 226194, Note_on_c, 9, 36, 0
1, 226219, Note_on_c, 12, 53, 0
1, 226226, Control_c, 12, 10, 63
1, 226262, Control_c, 12, 6, 60
1, 226266, Note_on_c, 11, 26, 0
1, 226266, Note_on_c, 1, 26, 0
1, 226272, Note_on_c, 9, 42, 85
1, 226272, Note_on_c, 12, 53, 73
1, 226274, Control_c, 12, 10, 70
1, 226290, Note_on_c, 9, 42, 0
1, 226306, Note_on_c, 12, 53, 0
1, 226322, Control_c, 12, 10, 77
1, 226334, Note_on_c, 5, 81, 0
1, 226337, Note_on_c, 5, 69, 0
1, 226368, Note_on_c, 1, 38, 92
1, 226368, Note_on_c, 6, 69, 102
1, 226368, Note_on_c, 9, 46, 102
1, 226368, Note_on_c, 9, 70, 90
1, 226368, Note_on_c, 11, 38, 92
1, 226368, Note_on_c, 12, 53, 80
1, 226370, Control_c, 12, 10, 84
1, 226386, Note_on_c, 9, 70, 0
1, 226386, Note_on_c, 9, 46, 0
1, 226411, Note_on_c, 12, 53, 0
1, 226418, Control_c, 12, 10, 92
1, 226442, Control_c, 12, 6, 85
1, 226458, Note_on_c, 11, 38, 0
1, 226458, Note_on_c, 1, 38, 0
1, 226464, Note_on_c, 12, 53, 73
1, 226466, Control_c, 12, 10, 99
1, 226498, Note_on_c, 12, 53, 0
1, 226514, Control_c, 12, 10, 106
1, 226523, Note_on_c, 6, 69, 0
1, 226560, Note_on_c, 1, 26, 66
1, 226560, Note_on_c, 5, 69, 72
1, 226560, Note_on_c, 5, 81, 72
1, 226560, Note_on_c, 9, 27, 127
1, 226560, Note_on_c, 9, 45, 107
1, 226560, Note_on_c, 9, 36, 127
1, 226560, Note_on_c, 9, 42, 76
1, 226560, Note_on_c, 9, 70, 102
1, 226560, Note_on_c, 11, 26, 66
1, 226560, Note_on_c, 12, 53, 80
1, 226562, Control_c, 12, 10, 113
1, 226578, Note_on_c, 9, 70, 0
1, 226578, Note_on_c, 9, 27, 0
1, 226578, Note_on_c, 9, 42, 0
1, 226578, Note_on_c, 9, 45, 0
1, 226578, Note_on_c, 9, 36, 0
1, 226603, Note_on_c, 12, 53, 0
1, 226610, Control_c, 12, 10, 120
1, 226650, Note_on_c, 1, 26, 0
1, 226650, Note_on_c, 11, 26, 0
1, 226656, Note_on_c, 9, 42, 85
1, 226656, Note_on_c, 12, 53, 73
1, 226658, Control_c, 12, 6, 110
1, 226674, Note_on_c, 9, 42, 0
1, 226690, Note_on_c, 12, 53, 0
1, 226718, Note_on_c, 5, 81, 0
1, 226721, Note_on_c, 5, 69, 0
1, 226752, Note_on_c, 1, 38, 92
1, 226752, Note_on_c, 6, 69, 90
1, 226752, Note_on_c, 9, 46, 117
1, 226752, Note_on_c, 9, 70, 30
1, 226752, Note_on_c, 11, 38, 92
1, 226770, Note_on_c, 9, 70, 0
1, 226770, Note_on_c, 9, 46, 0
1, 226842, Note_on_c, 1, 38, 0
1, 226842, Note_on_c, 11, 38, 0
1, 226848, Note_on_c, 9, 70, 59
1, 226866, Note_on_c, 9, 70, 0
1, 226897, Note_on_c, 6, 69, 0
1, 226944, Note_on_c, 1, 26, 66
1, 226944, Note_on_c, 5, 69, 58
1, 226944, Note_on_c, 5, 81, 58
1, 226944, Note_on_c, 9, 27, 127
1, 226944, Note_on_c, 9, 38, 127
1, 226944, Note_on_c, 9, 45, 107
1, 226944, Note_on_c, 9, 36, 127
1, 226944, Note_on_c, 9, 42, 76
1, 226944, Note_on_c, 9, 70, 86
1, 226944, Note_on_c, 11, 26, 66
1, 226962, Note_on_c, 9, 70, 0
1, 226962, Note_on_c, 9, 27, 0
1, 226962, Note_on_c, 9, 45, 0
1, 226962, Note_on_c, 9, 42, 0
1, 226962, Note_on_c, 9, 38, 0
1, 226962, Note_on_c, 9, 36, 0
1, 227034, Note_on_c, 11, 26, 0
1, 227034, Note_on_c, 1, 26, 0
1, 227040, Note_on_c, 9, 42, 85
1, 227058, Note_on_c, 9, 42, 0
1, 227102, Note_on_c, 5, 81, 0
1, 227105, Note_on_c, 5, 69, 0
1, 227136, Note_on_c, 1, 38, 89
1, 227136, Note_on_c, 6, 69, 90
1, 227136, Note_on_c, 9, 46, 117
1, 227136, Note_on_c, 9, 70, 76
1, 227136, Note_on_c, 11, 38, 89
1, 227154, Note_on_c, 9, 70, 0
1, 227154, Note_on_c, 9, 46, 0
1, 227230, Note_on_c, 1, 38, 0
1, 227230, Note_on_c, 11, 38, 0
1, 227234, Control_c, 12, 6, 10
1, 227274, Note_on_c, 2, 50, 0
1, 227274, Note_on_c, 2, 38, 0
1, 227274, Note_on_c, 2, 53, 0
1, 227280, Note_on_c, 2, 60, 61
1, 227281, Note_on_c, 6, 69, 0
1, 227282, Note_on_c, 2, 65, 0
1, 227288, Note_on_c, 2, 45, 61
1, 227288, Note_on_c, 2, 52, 61
1, 227328, Note_on_c, 1, 33, 63
1, 227328, Note_on_c, 5, 84, 93
1, 227328, Note_on_c, 5, 72, 93
1, 227328, Note_on_c, 9, 27, 127
1, 227328, Note_on_c, 9, 45, 107
1, 227328, Note_on_c, 9, 36, 127
1, 227328, Note_on_c, 9, 42, 76
1, 227328, Note_on_c, 9, 70, 102
1, 227328, Note_on_c, 11, 33, 63
1, 227328, Note_on_c, 12, 52, 80
1, 227330, Control_c, 12, 10, 125
1, 227346, Note_on_c, 9, 70, 0
1, 227346, Note_on_c, 9, 45, 0
1, 227346, Note_on_c, 9, 27, 0
1, 227346, Note_on_c, 9, 42, 0
1, 227346, Note_on_c, 9, 36, 0
1, 227371, Note_on_c, 12, 52, 0
1, 227378, Control_c, 12, 10, 119
1, 227415, Note_on_c, 11, 33, 0
1, 227415, Note_on_c, 1, 33, 0
1, 227424, Note_on_c, 9, 42, 85
1, 227424, Note_on_c, 12, 52, 73
1, 227426, Control_c, 12, 10, 113
1, 227426, Control_c, 12, 6, 25
1, 227442, Note_on_c, 9, 42, 0
1, 227458, Note_on_c, 12, 52, 0
1, 227474, Control_c, 12, 10, 107
1, 227486, Note_on_c, 5, 84, 0
1, 227489, Note_on_c, 5, 72, 0
1, 227520, Note_on_c, 1, 45, 89
1, 227520, Note_on_c, 6, 72, 102
1, 227520, Note_on_c, 9, 46, 117
1, 227520, Note_on_c, 11, 45, 89
1, 227520, Note_on_c, 12, 52, 80
1, 227522, Control_c, 12, 10, 101
1, 227538, Note_on_c, 9, 46, 0
1, 227563, Note_on_c, 12, 52, 0
1, 227570, Control_c, 12, 10, 95
1, 227594, Control_c, 12, 6, 40
1, 227610, Note_on_c, 1, 45, 0
1, 227610, Note_on_c, 11, 45, 0
1, 227616, Note_on_c, 9, 70, 54
1, 227616, Note_on_c, 12, 52, 73
1, 227618, Control_c, 12, 10, 89
1, 227634, Note_on_c, 9, 70, 0
1, 227650, Note_on_c, 12, 52, 0
1, 227666, Control_c, 12, 10, 83
1, 227675, Note_on_c, 6, 72, 0
1, 227712, Note_on_c, 1, 33, 63
1, 227712, Note_on_c, 5, 81, 93
1, 227712, Note_on_c, 5, 69, 93
1, 227712, Note_on_c, 9, 27, 127
1, 227712, Note_on_c, 9, 38, 127
1, 227712, Note_on_c, 9, 45, 107
1, 227712, Note_on_c, 9, 36, 127
1, 227712, Note_on_c, 9, 42, 76
1, 227712, Note_on_c, 9, 70, 102
1, 227712, Note_on_c, 11, 33, 63
1, 227712, Note_on_c, 12, 52, 80
1, 227714, Control_c, 12, 10, 77
1, 227730, Note_on_c, 9, 70, 0
1, 227730, Note_on_c, 9, 38, 0
1, 227730, Note_on_c, 9, 27, 0
1, 227730, Note_on_c, 9, 42, 0
1, 227730, Note_on_c, 9, 45, 0
1, 227730, Note_on_c, 9, 36, 0
1, 227755, Note_on_c, 12, 52, 0
1, 227762, Control_c, 12, 10, 71
1, 227798, Control_c, 12, 6, 60
1, 227802, Note_on_c, 11, 33, 0
1, 227802, Note_on_c, 1, 33, 0
1, 227808, Note_on_c, 9, 42, 85
1, 227808, Note_on_c, 12, 52, 73
1, 227810, Control_c, 12, 10, 65
1, 227826, Note_on_c, 9, 42, 0
1, 227842, Note_on_c, 12, 52, 0
1, 227858, Control_c, 12, 10, 59
1, 227870, Note_on_c, 5, 81, 0
1, 227873, Note_on_c, 5, 69, 0
1, 227904, Note_on_c, 1, 45, 89
1, 227904, Note_on_c, 6, 69, 102
1, 227904, Note_on_c, 9, 46, 117
1, 227904, Note_on_c, 9, 70, 90
1, 227904, Note_on_c, 11, 45, 89
1, 227904, Note_on_c, 12, 52, 80
1, 227906, Control_c, 12, 10, 53
1, 227922, Note_on_c, 9, 70, 0
1, 227922, Note_on_c, 9, 46, 0
1, 227947, Note_on_c, 12, 52, 0
1, 227954, Control_c, 12, 10, 47
1, 227978, Control_c, 12, 6, 85
1, 227994, Note_on_c, 1, 45, 0
1, 227994, Note_on_c, 11, 45, 0
1, 228000, Note_on_c, 12, 52, 73
1, 228002, Control_c, 12, 10, 41
1, 228034, Note_on_c, 12, 52, 0
1, 228050, Control_c, 12, 10, 35
1, 228059, Note_on_c, 6, 69, 0
1, 228096, Note_on_c, 1, 33, 63
1, 228096, Note_on_c, 5, 79, 93
1, 228096, Note_on_c, 5, 67, 93
1, 228096, Note_on_c, 9, 27, 127
1, 228096, Note_on_c, 9, 45, 107
1, 228096, Note_on_c, 9, 36, 127
1, 228096, Note_on_c, 9, 42, 76
1, 228096, Note_on_c, 9, 70, 96
1, 228096, Note_on_c, 11, 33, 63
1, 228096, Note_on_c, 12, 52, 80
1, 228098, Control_c, 12, 10, 29
1, 228114, Note_on_c, 9, 70, 0
1, 228114, Note_on_c, 9, 45, 0
1, 228114, Note_on_c, 9, 27, 0
1, 228114, Note_on_c, 9, 42, 0
1, 228114, Note_on_c, 9, 36, 0
1, 228139, Note_on_c, 12, 52, 0
1, 228146, Control_c, 12, 10, 23
1, 228186, Note_on_c, 11, 33, 0
1, 228186, Note_on_c, 1, 33, 0
1, 228192, Note_on_c, 9, 42, 85
1, 228192, Note_on_c, 12, 52, 73
1, 228194, Control_c, 12, 10, 17
1, 228194, Control_c, 12, 6, 110
1, 228210, Note_on_c, 9, 42, 0
1, 228226, Note_on_c, 12, 52, 0
1, 228242, Control_c, 12, 10, 11
1, 228254, Note_on_c, 5, 79, 0
1, 228257, Note_on_c, 5, 67, 0
1, 228288, Note_on_c, 1, 45, 86
1, 228288, Note_on_c, 6, 67, 102
1, 228288, Note_on_c, 9, 46, 117
1, 228288, Note_on_c, 9, 70, 23
1, 228288, Note_on_c, 11, 45, 86
1, 228290, Control_c, 12, 10, 5
1, 228306, Note_on_c, 9, 70, 0
1, 228306, Note_on_c, 9, 46, 0
1, 228378, Note_on_c, 1, 45, 0
1, 228378, Note_on_c, 11, 45, 0
1, 228384, Note_on_c, 9, 70, 36
1, 228402, Note_on_c, 9, 70, 0
1, 228443, Note_on_c, 6, 67, 0
1, 228444, Control_c, 2, 64, 127
1, 228480, Note_on_c, 1, 33, 63
1, 228480, Note_on_c, 5, 77, 93
1, 228480, Note_on_c, 5, 65, 93
1, 228480, Note_on_c, 9, 27, 127
1, 228480, Note_on_c, 9, 38, 127
1, 228480, Note_on_c, 9, 45, 107
1, 228480, Note_on_c, 9, 36, 127
1, 228480, Note_on_c, 9, 42, 76
1, 228480, Note_on_c, 9, 70, 102
1, 228480, Note_on_c, 11, 33, 63
1, 228498, Note_on_c, 9, 70, 0
1, 228498, Note_on_c, 9, 38, 0
1, 228498, Note_on_c, 9, 27, 0
1, 228498, Note_on_c, 9, 42, 0
1, 228498, Note_on_c, 9, 45, 0
1, 228498, Note_on_c, 9, 36, 0
1, 228570, Note_on_c, 11, 33, 0
1, 228570, Note_on_c, 1, 33, 0
1, 228576, Note_on_c, 9, 42, 85
1, 228594, Note_on_c, 9, 42, 0
1, 228638, Note_on_c, 5, 77, 0
1, 228641, Note_on_c, 5, 65, 0
1, 228672, Note_on_c, 1, 45, 86
1, 228672, Note_on_c, 6, 65, 102
1, 228672, Note_on_c, 9, 46, 117
1, 228672, Note_on_c, 9, 70, 73
1, 228672, Note_on_c, 11, 45, 86
1, 228690, Note_on_c, 9, 70, 0
1, 228690, Note_on_c, 9, 46, 0
1, 228742, Control_c, 2, 64, 0
1, 228766, Note_on_c, 1, 45, 0
1, 228766, Note_on_c, 11, 45, 0
1, 228770, Control_c, 12, 6, 10
1, 228810, Note_on_c, 2, 60, 0
1, 228816, Note_on_c, 2, 53, 61
1, 228816, Note_on_c, 2, 58, 61
1, 228818, Note_on_c, 2, 52, 0
1, 228818, Note_on_c, 2, 45, 0
1, 228818, Note_on_c, 2, 57, 0
1, 228824, Note_on_c, 2, 46, 61
1, 228824, Note_on_c, 2, 62, 61
1, 228827, Note_on_c, 6, 65, 0
1, 228864, Note_on_c, 1, 34, 60
1, 228864, Note_on_c, 5, 74, 93
1, 228864, Note_on_c, 5, 62, 93
1, 228864, Note_on_c, 9, 27, 127
1, 228864, Note_on_c, 9, 45, 107
1, 228864, Note_on_c, 9, 36, 127
1, 228864, Note_on_c, 9, 42, 76
1, 228864, Note_on_c, 9, 70, 102
1, 228864, Note_on_c, 11, 34, 60
1, 228864, Note_on_c, 12, 53, 80
1, 228882, Note_on_c, 9, 70, 0
1, 228882, Note_on_c, 9, 45, 0
1, 228882, Note_on_c, 9, 27, 0
1, 228882, Note_on_c, 9, 42, 0
1, 228882, Note_on_c, 9, 36, 0
1, 228907, Note_on_c, 12, 53, 0
1, 228914, Control_c, 12, 10, 5
1, 228951, Note_on_c, 11, 34, 0
1, 228951, Note_on_c, 1, 34, 0
1, 228960, Note_on_c, 9, 42, 85
1, 228960, Note_on_c, 12, 53, 73
1, 228962, Control_c, 12, 10, 13
1, 228962, Control_c, 12, 6, 25
1, 228978, Note_on_c, 9, 42, 0
1, 228994, Note_on_c, 12, 53, 0
1, 229010, Control_c, 12, 10, 20
1, 229022, Note_on_c, 5, 74, 0
1, 229025, Note_on_c, 5, 62, 0
1, 229056, Note_on_c, 1, 46, 92
1, 229056, Note_on_c, 6, 62, 102
1, 229056, Note_on_c, 9, 46, 117
1, 229056, Note_on_c, 11, 46, 92
1, 229056, Note_on_c, 12, 53, 80
1, 229058, Control_c, 12, 10, 27
1, 229074, Note_on_c, 9, 46, 0
1, 229099, Note_on_c, 12, 53, 0
1, 229106, Control_c, 12, 10, 34
1, 229130, Control_c, 12, 6, 40
1, 229146, Note_on_c, 1, 46, 0
1, 229146, Note_on_c, 11, 46, 0
1, 229152, Note_on_c, 9, 70, 50
1, 229152, Note_on_c, 12, 53, 73
1, 229154, Control_c, 12, 10, 41
1, 229170, Note_on_c, 9, 70, 0
1, 229186, Note_on_c, 12, 53, 0
1, 229202, Control_c, 12, 10, 49
1, 229211, Note_on_c, 6, 62, 0
1, 229248, Note_on_c, 1, 34, 66
1, 229248, Note_on_c, 5, 65, 93
1, 229248, Note_on_c, 5, 77, 93
1, 229248, Note_on_c, 9, 27, 127
1, 229248, Note_on_c, 9, 38, 127
1, 229248, Note_on_c, 9, 36, 127
1, 229248, Note_on_c, 9, 45, 107
1, 229248, Note_on_c, 9, 42, 76
1, 229248, Note_on_c, 9, 70, 96
1, 229248, Note_on_c, 11, 34, 66
1, 229248, Note_on_c, 12, 53, 80
1, 229250, Control_c, 12, 10, 56
1, 229266, Note_on_c, 9, 70, 0
1, 229266, Note_on_c, 9, 38, 0
1, 229266, Note_on_c, 9, 27, 0
1, 229266, Note_on_c, 9, 42, 0
1, 229266, Note_on_c, 9, 36, 0
1, 229266, Note_on_c, 9, 45, 0
1, 229291, Note_on_c, 12, 53, 0
1, 229298, Control_c, 12, 10, 63
1, 229334, Control_c, 12, 6, 60
1, 229338, Note_on_c, 11, 34, 0
1, 229338, Note_on_c, 1, 34, 0
1, 229344, Note_on_c, 9, 42, 85
1, 229344, Note_on_c, 12, 53, 73
1, 229346, Control_c, 12, 10, 70
1, 229362, Note_on_c, 9, 42, 0
1, 229378, Note_on_c, 12, 53, 0
1, 229394, Control_c, 12, 10, 77
1, 229406, Note_on_c, 5, 77, 0
1, 229409, Note_on_c, 5, 65, 0
1, 229440, Note_on_c, 1, 46, 92
1, 229440, Note_on_c, 6, 65, 102
1, 229440, Note_on_c, 9, 46, 102
1, 229440, Note_on_c, 9, 70, 90
1, 229440, Note_on_c, 11, 46, 92
1, 229440, Note_on_c, 12, 53, 80
1, 229442, Control_c, 12, 10, 84
1, 229458, Note_on_c, 9, 70, 0
1, 229458, Note_on_c, 9, 46, 0
1, 229483, Note_on_c, 12, 53, 0
1, 229490, Control_c, 12, 10, 92
1, 229514, Control_c, 12, 6, 85
1, 229530, Note_on_c, 1, 46, 0
1, 229530, Note_on_c, 11, 46, 0
1, 229536, Note_on_c, 12, 53, 73
1, 229538, Control_c, 12, 10, 99
1, 229570, Note_on_c, 12, 53, 0
1, 229586, Control_c, 12, 10, 106
1, 229595, Note_on_c, 6, 65, 0
1, 229632, Note_on_c, 1, 34, 66
1, 229632, Note_on_c, 5, 65, 77
1, 229632, Note_on_c, 5, 77, 77
1, 229632, Note_on_c, 9, 27, 127
1, 229632, Note_on_c, 9, 36, 127
1, 229632, Note_on_c, 9, 45, 107
1, 229632, Note_on_c, 9, 42, 76
1, 229632, Note_on_c, 9, 70, 102
1, 229632, Note_on_c, 11, 34, 66
1, 229632, Note_on_c, 12, 53, 80
1, 229634, Control_c, 12, 10, 113
1, 229650, Note_on_c, 9, 70, 0
1, 229650, Note_on_c, 9, 36, 0
1, 229650, Note_on_c, 9, 27, 0
1, 229650, Note_on_c, 9, 42, 0
1, 229650, Note_on_c, 9, 45, 0
1, 229675, Note_on_c, 12, 53, 0
1, 229682, Control_c, 12, 10, 120
1, 229722, Note_on_c, 11, 34, 0
1, 229722, Note_on_c, 1, 34, 0
1, 229728, Note_on_c, 9, 42, 85
1, 229728, Note_on_c, 12, 53, 73
1, 229730, Control_c, 12, 6, 110
1, 229746, Note_on_c, 9, 42, 0
1, 229762, Note_on_c, 12, 53, 0
1, 229790, Note_on_c, 5, 77, 0
1, 229793, Note_on_c, 5, 65, 0
1, 229824, Note_on_c, 1, 46, 92
1, 229824, Note_on_c, 6, 65, 87
1, 229824, Note_on_c, 9, 46, 117
1, 229824, Note_on_c, 9, 70, 30
1, 229824, Note_on_c, 11, 46, 92
1, 229842, Note_on_c, 9, 70, 0
1, 229842, Note_on_c, 9, 46, 0
1, 229914, Note_on_c, 1, 46, 0
1, 229914, Note_on_c, 11, 46, 0
1, 229920, Note_on_c, 9, 70, 59
1, 229938, Note_on_c, 9, 70, 0
1, 229979, Note_on_c, 6, 65, 0
1, 230016, Note_on_c, 1, 35, 66
1, 230016, Note_on_c, 5, 67, 87
1, 230016, Note_on_c, 5, 79, 87
1, 230016, Note_on_c, 9, 27, 127
1, 230016, Note_on_c, 9, 38, 127
1, 230016, Note_on_c, 9, 45, 107
1, 230016, Note_on_c, 9, 36, 127
1, 230016, Note_on_c, 9, 42, 76
1, 230016, Note_on_c, 9, 70, 86
1, 230016, Note_on_c, 11, 35, 66
1, 230034, Note_on_c, 9, 70, 0
1, 230034, Note_on_c, 9, 38, 0
1, 230034, Note_on_c, 9, 27, 0
1, 230034, Note_on_c, 9, 42, 0
1, 230034, Note_on_c, 9, 45, 0
1, 230034, Note_on_c, 9, 36, 0
1, 230106, Note_on_c, 11, 35, 0
1, 230106, Note_on_c, 1, 35, 0
1, 230112, Note_on_c, 9, 42, 85
1, 230130, Note_on_c, 9, 42, 0
1, 230174, Note_on_c, 5, 79, 0
1, 230177, Note_on_c, 5, 67, 0
1, 230208, Note_on_c, 1, 46, 89
1, 230208, Note_on_c, 6, 67, 102
1, 230208, Note_on_c, 9, 46, 117
1, 230208, Note_on_c, 9, 70, 76
1, 230208, Note_on_c, 11, 46, 89
1, 230226, Note_on_c, 9, 70, 0
1, 230226, Note_on_c, 9, 46, 0
1, 230258, Note_on_c, 2, 58, 0
1, 230258, Note_on_c, 2, 53, 0
1, 230302, Note_on_c, 11, 46, 0
1, 230302, Note_on_c, 1, 46, 0
1, 230354, Note_on_c, 2, 46, 0
1, 230354, Note_on_c, 2, 62, 0
1, 230360, Note_on_c, 2, 43, 61
1, 230360, Note_on_c, 2, 55, 61
1, 230360, Note_on_c, 2, 58, 61
1, 230363, Note_on_c, 6, 67, 0
1, 230368, Note_on_c, 2, 62, 61
1, 230400, Note_on_c, 1, 31, 63
1, 230400, Note_on_c, 5, 69, 95
1, 230400, Note_on_c, 5, 81, 95
1, 230400, Note_on_c, 9, 27, 127
1, 230400, Note_on_c, 9, 45, 107
1, 230400, Note_on_c, 9, 36, 127
1, 230400, Note_on_c, 9, 42, 76
1, 230400, Note_on_c, 9, 70, 102
1, 230400, Note_on_c, 11, 31, 63
1, 230400, Note_on_c, 12, 55, 80
1, 230402, Control_c, 12, 10, 125
1, 230418, Note_on_c, 9, 70, 0
1, 230418, Note_on_c, 9, 45, 0
1, 230418, Note_on_c, 9, 27, 0
1, 230418, Note_on_c, 9, 42, 0
1, 230418, Note_on_c, 9, 36, 0
1, 230443, Note_on_c, 12, 55, 0
1, 230450, Control_c, 12, 10, 119
1, 230487, Note_on_c, 11, 31, 0
1, 230487, Note_on_c, 1, 31, 0
1, 230496, Note_on_c, 9, 42, 85
1, 230496, Note_on_c, 12, 55, 73
1, 230498, Control_c, 12, 10, 113
1, 230498, Control_c, 12, 6, 25
1, 230514, Note_on_c, 9, 42, 0
1, 230530, Note_on_c, 12, 55, 0
1, 230546, Control_c, 12, 10, 107
1, 230558, Note_on_c, 5, 81, 0
1, 230561, Note_on_c, 5, 69, 0
1, 230592, Note_on_c, 1, 43, 89
1, 230592, Note_on_c, 6, 69, 102
1, 230592, Note_on_c, 9, 46, 117
1, 230592, Note_on_c, 11, 43, 89
1, 230592, Note_on_c, 12, 55, 80
1, 230594, Control_c, 12, 10, 101
1, 230610, Note_on_c, 9, 46, 0
1, 230635, Note_on_c, 12, 55, 0
1, 230642, Control_c, 12, 10, 95
1, 230666, Control_c, 12, 6, 40
1, 230682, Note_on_c, 1, 43, 0
1, 230682, Note_on_c, 11, 43, 0
1, 230688, Note_on_c, 9, 70, 54
1, 230688, Note_on_c, 12, 55, 73
1, 230690, Control_c, 12, 10, 89
1, 230706, Note_on_c, 9, 70, 0
1, 230722, Note_on_c, 12, 55, 0
1, 230738, Control_c, 12, 10, 83
1, 230747, Note_on_c, 6, 69, 0
1, 230784, Note_on_c, 1, 31, 63
1, 230784, Note_on_c, 5, 69, 83
1, 230784, Note_on_c, 5, 81, 83
1, 230784, Note_on_c, 9, 27, 127
1, 230784, Note_on_c, 9, 38, 127
1, 230784, Note_on_c, 9, 45, 107
1, 230784, Note_on_c, 9, 36, 127
1, 230784, Note_on_c, 9, 42, 76
1, 230784, Note_on_c, 9, 70, 102
1, 230784, Note_on_c, 11, 31, 63
1, 230784, Note_on_c, 12, 55, 80
1, 230786, Control_c, 12, 10, 77
1, 230802, Note_on_c, 9, 70, 0
1, 230802, Note_on_c, 9, 38, 0
1, 230802, Note_on_c, 9, 27, 0
1, 230802, Note_on_c, 9, 42, 0
1, 230802, Note_on_c, 9, 45, 0
1, 230802, Note_on_c, 9, 36, 0
1, 230827, Note_on_c, 12, 55, 0
1, 230834, Control_c, 12, 10, 71
1, 230870, Control_c, 12, 6, 60
1, 230874, Note_on_c, 11, 31, 0
1, 230874, Note_on_c, 1, 31, 0
1, 230880, Note_on_c, 9, 42, 85
1, 230880, Note_on_c, 12, 55, 73
1, 230882, Control_c, 12, 10, 65
1, 230898, Note_on_c, 9, 42, 0
1, 230914, Note_on_c, 12, 55, 0
1, 230930, Control_c, 12, 10, 59
1, 230942, Note_on_c, 5, 81, 0
1, 230945, Note_on_c, 5, 69, 0
1, 230976, Note_on_c, 1, 43, 89
1, 230976, Note_on_c, 6, 69, 81
1, 230976, Note_on_c, 9, 46, 117
1, 230976, Note_on_c, 9, 70, 90
1, 230976, Note_on_c, 11, 43, 89
1, 230976, Note_on_c, 12, 55, 80
1, 230978, Control_c, 12, 10, 53
1, 230994, Note_on_c, 9, 70, 0
1, 230994, Note_on_c, 9, 46, 0
1, 231019, Note_on_c, 12, 55, 0
1, 231026, Control_c, 12, 10, 47
1, 231066, Note_on_c, 1, 43, 0
1, 231066, Note_on_c, 11, 43, 0
1, 231072, Note_on_c, 12, 55, 73
1, 231074, Control_c, 12, 10, 41
1, 231106, Note_on_c, 12, 55, 0
1, 231122, Note_on_c, 2, 55, 0
1, 231122, Note_on_c, 2, 43, 0
1, 231122, Note_on_c, 2, 58, 0
1, 231122, Control_c, 12, 10, 35
1, 231128, Note_on_c, 2, 48, 61
1, 231128, Note_on_c, 2, 55, 61
1, 231128, Note_on_c, 2, 60, 61
1, 231128, Note_on_c, 2, 64, 61
1, 231130, Note_on_c, 2, 62, 0
1, 231131, Note_on_c, 6, 69, 0
1, 231168, Note_on_c, 1, 36, 63
1, 231168, Note_on_c, 5, 79, 93
1, 231168, Note_on_c, 5, 67, 93
1, 231168, Note_on_c, 9, 27, 127
1, 231168, Note_on_c, 9, 45, 107
1, 231168, Note_on_c, 9, 36, 127
1, 231168, Note_on_c, 9, 42, 76
1, 231168, Note_on_c, 9, 70, 96
1, 231168, Note_on_c, 11, 36, 63
1, 231168, Note_on_c, 12, 55, 80
1, 231170, Control_c, 12, 10, 29
1, 231186, Note_on_c, 9, 70, 0
1, 231186, Note_on_c, 9, 45, 0
1, 231186, Note_on_c, 9, 27, 0
1, 231186, Note_on_c, 9, 42, 0
1, 231186, Note_on_c, 9, 36, 0
1, 231211, Note_on_c, 12, 55, 0
1, 231218, Control_c, 12, 10, 23
1, 231258, Note_on_c, 11, 36, 0
1, 231258, Note_on_c, 1, 36, 0
1, 231264, Note_on_c, 9, 42, 85
1, 231264, Note_on_c, 12, 55, 73
1, 231266, Control_c, 12, 10, 17
1, 231282, Note_on_c, 9, 42, 0
1, 231298, Note_on_c, 12, 55, 0
1, 231314, Control_c, 12, 10, 11
1, 231326, Note_on_c, 5, 79, 0
1, 231329, Note_on_c, 5, 67, 0
1, 231360, Note_on_c, 1, 48, 86
1, 231360, Note_on_c, 6, 67, 102
1, 231360, Note_on_c, 9, 46, 117
1, 231360, Note_on_c, 9, 70, 23
1, 231360, Note_on_c, 11, 48, 86
1, 231362, Control_c, 12, 10, 5
1, 231378, Note_on_c, 9, 70, 0
1, 231378, Note_on_c, 9, 46, 0
1, 231450, Note_on_c, 1, 48, 0
1, 231450, Note_on_c, 11, 48, 0
1, 231456, Note_on_c, 9, 70, 36
1, 231474, Note_on_c, 9, 70, 0
1, 231515, Note_on_c, 6, 67, 0
1, 231552, Note_on_c, 1, 36, 63
1, 231552, Note_on_c, 5, 79, 78
1, 231552, Note_on_c, 5, 67, 78
1, 231552, Note_on_c, 9, 27, 127
1, 231552, Note_on_c, 9, 38, 127
1, 231552, Note_on_c, 9, 45, 107
1, 231552, Note_on_c, 9, 36, 127
1, 231552, Note_on_c, 9, 42, 76
1, 231552, Note_on_c, 9, 70, 102
1, 231552, Note_on_c, 11, 36, 63
1, 231570, Note_on_c, 9, 70, 0
1, 231570, Note_on_c, 9, 38, 0
1, 231570, Note_on_c, 9, 27, 0
1, 231570, Note_on_c, 9, 42, 0
1, 231570, Note_on_c, 9, 45, 0
1, 231570, Note_on_c, 9, 36, 0
1, 231642, Note_on_c, 11, 36, 0
1, 231642, Note_on_c, 1, 36, 0
1, 231648, Note_on_c, 9, 42, 85
1, 231666, Note_on_c, 9, 42, 0
1, 231710, Note_on_c, 5, 79, 0
1, 231713, Note_on_c, 5, 67, 0
1, 231744, Note_on_c, 1, 48, 86
1, 231744, Note_on_c, 6, 67, 81
1, 231744, Note_on_c, 9, 46, 117
1, 231744, Note_on_c, 9, 70, 73
1, 231744, Note_on_c, 11, 48, 86
1, 231762, Note_on_c, 9, 70, 0
1, 231762, Note_on_c, 9, 46, 0
1, 231838, Note_on_c, 1, 48, 0
1, 231838, Note_on_c, 11, 48, 0
1, 231842, Control_c, 12, 6, 10
1, 231890, Note_on_c, 2, 55, 0
1, 231890, Note_on_c, 2, 60, 0
1, 231890, Note_on_c, 2, 48, 0
1, 231890, Note_on_c, 2, 64, 0
1, 231896, Note_on_c, 2, 41, 61
1, 231896, Note_on_c, 2, 60, 61
1, 231896, Note_on_c, 2, 65, 61
1, 231896, Note_on_c, 2, 69, 61
1, 231899, Note_on_c, 6, 67, 0
1, 231936, Note_on_c, 1, 29, 60
1, 231936, Note_on_c, 5, 77, 93
1, 231936, Note_on_c, 5, 65, 93
1, 231936, Note_on_c, 9, 38, 127
1, 231936, Note_on_c, 9, 50, 127
1, 231936, Note_on_c, 9, 42, 76
1, 231936, Note_on_c, 9, 70, 102
1, 231936, Note_on_c, 9, 57, 100
1, 231936, Note_on_c, 11, 29, 60
1, 231936, Note_on_c, 12, 53, 80
1, 231954, Note_on_c, 9, 57, 0
1, 231954, Note_on_c, 9, 38, 0
1, 231954, Note_on_c, 9, 50, 0
1, 231954, Note_on_c, 9, 70, 0
1, 231954, Note_on_c, 9, 42, 0
1, 231979, Note_on_c, 12, 53, 0
1, 231986, Control_c, 12, 10, 5
1, 232023, Note_on_c, 11, 29, 0
1, 232023, Note_on_c, 1, 29, 0
1, 232032, Note_on_c, 9, 42, 85
1, 232032, Note_on_c, 12, 53, 73
1, 232034, Control_c, 12, 10, 13
1, 232034, Control_c, 12, 6, 25
1, 232050, Note_on_c, 9, 42, 0
1, 232066, Note_on_c, 12, 53, 0
1, 232082, Control_c, 12, 10, 20
1, 232094, Note_on_c, 5, 77, 0
1, 232097, Note_on_c, 5, 65, 0
1, 232128, Note_on_c, 1, 41, 92
1, 232128, Note_on_c, 6, 65, 102
1, 232128, Note_on_c, 9, 46, 117
1, 232128, Note_on_c, 11, 41, 92
1, 232128, Note_on_c, 12, 53, 80
1, 232130, Control_c, 12, 10, 27
1, 232146, Note_on_c, 9, 46, 0
1, 232171, Note_on_c, 12, 53, 0
1, 232178, Control_c, 12, 10, 34
1, 232202, Control_c, 12, 6, 40
1, 232218, Note_on_c, 1, 41, 0
1, 232218, Note_on_c, 11, 41, 0
1, 232224, Note_on_c, 9, 70, 50
1, 232224, Note_on_c, 12, 53, 73
1, 232226, Control_c, 12, 10, 41
1, 232242, Note_on_c, 9, 70, 0
1, 232258, Note_on_c, 12, 53, 0
1, 232274, Control_c, 12, 10, 49
1, 232283, Note_on_c, 6, 65, 0
1, 232320, Note_on_c, 1, 29, 66
1, 232320, Note_on_c, 5, 77, 78
1, 232320, Note_on_c, 5, 65, 78
1, 232320, Note_on_c, 9, 39, 127
1, 232320, Note_on_c, 9, 50, 127
1, 232320, Note_on_c, 9, 38, 127
1, 232320, Note_on_c, 9, 42, 76
1, 232320, Note_on_c, 9, 70, 96
1, 232320, Note_on_c, 11, 29, 66
1, 232320, Note_on_c, 12, 53, 80
1, 232322, Control_c, 12, 10, 56
1, 232338, Note_on_c, 9, 70, 0
1, 232338, Note_on_c, 9, 39, 0
1, 232338, Note_on_c, 9, 50, 0
1, 232338, Note_on_c, 9, 42, 0
1, 232338, Note_on_c, 9, 38, 0
1, 232363, Note_on_c, 12, 53, 0
1, 232370, Control_c, 12, 10, 63
1, 232406, Control_c, 12, 6, 60
1, 232410, Note_on_c, 11, 29, 0
1, 232410, Note_on_c, 1, 29, 0
1, 232416, Note_on_c, 9, 42, 85
1, 232416, Note_on_c, 12, 53, 73
1, 232418, Control_c, 12, 10, 70
1, 232434, Note_on_c, 9, 42, 0
1, 232450, Note_on_c, 12, 53, 0
1, 232466, Control_c, 12, 10, 77
1, 232478, Note_on_c, 5, 77, 0
1, 232481, Note_on_c, 5, 65, 0
1, 232512, Note_on_c, 1, 41, 92
1, 232512, Note_on_c, 6, 65, 88
1, 232512, Note_on_c, 9, 46, 102
1, 232512, Note_on_c, 9, 70, 90
1, 232512, Note_on_c, 11, 41, 92
1, 232512, Note_on_c, 12, 53, 80
1, 232514, Control_c, 12, 10, 84
1, 232530, Note_on_c, 9, 70, 0
1, 232530, Note_on_c, 9, 46, 0
1, 232555, Note_on_c, 12, 53, 0
1, 232562, Control_c, 12, 10, 92
1, 232586, Control_c, 12, 6, 85
1, 232602, Note_on_c, 1, 41, 0
1, 232602, Note_on_c, 11, 41, 0
1, 232608, Note_on_c, 12, 53, 73
1, 232610, Control_c, 12, 10, 99
1, 232642, Note_on_c, 12, 53, 0
1, 232658, Control_c, 12, 10, 106
1, 232667, Note_on_c, 6, 65, 0
1, 232704, Note_on_c, 1, 29, 66
1, 232704, Note_on_c, 5, 77, 64
1, 232704, Note_on_c, 5, 65, 64
1, 232704, Note_on_c, 9, 38, 127
1, 232704, Note_on_c, 9, 50, 127
1, 232704, Note_on_c, 9, 42, 76
1, 232704, Note_on_c, 9, 70, 102
1, 232704, Note_on_c, 9, 55, 110
1, 232704, Note_on_c, 11, 29, 66
1, 232704, Note_on_c, 12, 53, 80
1, 232706, Control_c, 12, 10, 113
1, 232722, Note_on_c, 9, 55, 0
1, 232722, Note_on_c, 9, 38, 0
1, 232722, Note_on_c, 9, 50, 0
1, 232722, Note_on_c, 9, 70, 0
1, 232722, Note_on_c, 9, 42, 0
1, 232747, Note_on_c, 12, 53, 0
1, 232754, Control_c, 12, 10, 120
1, 232794, Note_on_c, 11, 29, 0
1, 232794, Note_on_c, 1, 29, 0
1, 232800, Note_on_c, 9, 42, 85
1, 232800, Note_on_c, 12, 53, 73
1, 232802, Control_c, 12, 6, 110
1, 232818, Note_on_c, 9, 42, 0
1, 232834, Note_on_c, 12, 53, 0
1, 232862, Note_on_c, 5, 77, 0
1, 232865, Note_on_c, 5, 65, 0
1, 232896, Note_on_c, 1, 41, 92
1, 232896, Note_on_c, 6, 65, 75
1, 232896, Note_on_c, 9, 46, 117
1, 232896, Note_on_c, 9, 70, 30
1, 232896, Note_on_c, 11, 41, 92
1, 232914, Note_on_c, 9, 70, 0
1, 232914, Note_on_c, 9, 46, 0
1, 232986, Note_on_c, 1, 41, 0
1, 232986, Note_on_c, 11, 41, 0
1, 232992, Note_on_c, 9, 70, 59
1, 233010, Note_on_c, 9, 70, 0
1, 233051, Note_on_c, 6, 65, 0
1, 233088, Note_on_c, 1, 29, 66
1, 233088, Note_on_c, 5, 77, 50
1, 233088, Note_on_c, 5, 65, 50
1, 233088, Note_on_c, 9, 39, 127
1, 233088, Note_on_c, 9, 50, 127
1, 233088, Note_on_c, 9, 38, 127
1, 233088, Note_on_c, 9, 42, 76
1, 233088, Note_on_c, 9, 70, 86
1, 233088, Note_on_c, 11, 29, 66
1, 233106, Note_on_c, 9, 70, 0
1, 233106, Note_on_c, 9, 39, 0
1, 233106, Note_on_c, 9, 50, 0
1, 233106, Note_on_c, 9, 42, 0
1, 233106, Note_on_c, 9, 38, 0
1, 233178, Note_on_c, 1, 29, 0
1, 233178, Note_on_c, 11, 29, 0
1, 233184, Note_on_c, 9, 42, 85
1, 233202, Note_on_c, 9, 42, 0
1, 233246, Note_on_c, 5, 77, 0
1, 233249, Note_on_c, 5, 65, 0
1, 233280, Note_on_c, 1, 41, 89
1, 233280, Note_on_c, 6, 65, 61
1, 233280, Note_on_c, 9, 46, 117
1, 233280, Note_on_c, 9, 70, 76
1, 233280, Note_on_c, 11, 41, 89
1, 233298, Note_on_c, 9, 70, 0
1, 233298, Note_on_c, 9, 46, 0
1, 233330, Note_on_c, 2, 41, 0
1, 233370, Note_on_c, 2, 69, 0
1, 233370, Note_on_c, 2, 65, 0
1, 233370, Note_on_c, 2, 60, 0
1, 233374, Note_on_c, 11, 41, 0
1, 233374, Note_on_c, 1, 41, 0
1, 233378, Control_c, 12, 6, 10
1, 233432, Note_on_c, 2, 77, 46
1, 233435, Note_on_c, 6, 65, 0
1, 233446, Control_c, 2, 11, 127
1, 233472, Note_on_c, 1, 29, 63
1, 233472, Note_on_c, 3, 70, 95
1, 233472, Note_on_c, 9, 38, 127
1, 233472, Note_on_c, 9, 50, 127
1, 233472, Note_on_c, 9, 42, 76
1, 233472, Note_on_c, 9, 70, 102
1, 233472, Note_on_c, 9, 55, 110
1, 233472, Note_on_c, 11, 29, 63
1, 233472, Note_on_c, 12, 53, 80
1, 233474, Control_c, 12, 10, 125
1, 233490, Note_on_c, 9, 55, 0
1, 233490, Note_on_c, 9, 70, 0
1, 233490, Note_on_c, 9, 42, 0
1, 233490, Note_on_c, 9, 50, 0
1, 233490, Note_on_c, 9, 38, 0
1, 233515, Note_on_c, 12, 53, 0
1, 233522, Control_c, 12, 10, 119
1, 233559, Note_on_c, 11, 29, 0
1, 233559, Note_on_c, 1, 29, 0
1, 233568, Note_on_c, 9, 42, 85
1, 233568, Note_on_c, 12, 53, 73
1, 233570, Control_c, 12, 10, 113
1, 233570, Control_c, 12, 6, 25
1, 233586, Note_on_c, 9, 42, 0
1, 233602, Note_on_c, 12, 53, 0
1, 233618, Control_c, 12, 10, 107
1, 233664, Note_on_c, 1, 41, 89
1, 233664, Note_on_c, 9, 46, 117
1, 233664, Note_on_c, 11, 41, 89
1, 233664, Note_on_c, 12, 53, 80
1, 233666, Control_c, 12, 10, 101
1, 233682, Note_on_c, 9, 46, 0
1, 233707, Note_on_c, 12, 53, 0
1, 233714, Control_c, 12, 10, 95
1, 233738, Control_c, 12, 6, 40
1, 233754, Note_on_c, 1, 41, 0
1, 233754, Note_on_c, 11, 41, 0
1, 233760, Note_on_c, 9, 70, 54
1, 233760, Note_on_c, 12, 53, 73
1, 233762, Control_c, 12, 10, 89
1, 233778, Note_on_c, 9, 70, 0
1, 233794, Note_on_c, 12, 53, 0
1, 233810, Control_c, 12, 10, 83
1, 233856, Note_on_c, 1, 29, 63
1, 233856, Note_on_c, 9, 38, 127
1, 233856, Note_on_c, 9, 50, 127
1, 233856, Note_on_c, 9, 42, 76
1, 233856, Note_on_c, 9, 70, 102
1, 233856, Note_on_c, 9, 57, 100
1, 233856, Note_on_c, 11, 29, 63
1, 233856, Note_on_c, 12, 53, 80
1, 233858, Control_c, 12, 10, 77
1, 233874, Note_on_c, 9, 57, 0
1, 233874, Note_on_c, 9, 70, 0
1, 233874, Note_on_c, 9, 42, 0
1, 233874, Note_on_c, 9, 50, 0
1, 233874, Note_on_c, 9, 38, 0
1, 233899, Note_on_c, 12, 53, 0
1, 233906, Control_c, 12, 10, 71
1, 233942, Control_c, 12, 6, 60
1, 233946, Note_on_c, 1, 29, 0
1, 233946, Note_on_c, 11, 29, 0
1, 233952, Note_on_c, 9, 42, 85
1, 233952, Note_on_c, 12, 53, 73
1, 233954, Control_c, 12, 10, 65
1, 233970, Note_on_c, 9, 42, 0
1, 233986, Note_on_c, 12, 53, 0
1, 234002, Control_c, 12, 10, 59
1, 234048, Note_on_c, 1, 41, 89
1, 234048, Note_on_c, 9, 46, 117
1, 234048, Note_on_c, 9, 70, 90
1, 234048, Note_on_c, 11, 41, 89
1, 234048, Note_on_c, 12, 53, 80
1, 234050, Control_c, 12, 10, 53
1, 234056, Control_c, 2, 64, 127
1, 234056, Control_c, 2, 64, 127
1, 234058, Control_c, 2, 64, 127
1, 234059, Control_c, 2, 64, 127
1, 234060, Control_c, 2, 64, 127
1, 234060, Control_c, 2, 64, 127
1, 234060, Control_c, 2, 64, 127
1, 234060, Control_c, 2, 64, 127
1, 234060, Control_c, 2, 64, 127
1, 234060, Control_c, 2, 64, 127
1, 234060, Control_c, 2, 64, 127
1, 234060, Control_c, 2, 64, 127
1, 234060, Control_c, 2, 64, 127
1, 234060, Control_c, 2, 64, 127
1, 234060, Control_c, 2, 64, 127
1, 234066, Note_on_c, 9, 70, 0
1, 234066, Note_on_c, 9, 46, 0
1, 234091, Note_on_c, 12, 53, 0
1, 234098, Control_c, 12, 10, 47
1, 234122, Control_c, 12, 6, 85
1, 234138, Note_on_c, 1, 41, 0
1, 234138, Note_on_c, 11, 41, 0
1, 234144, Note_on_c, 9, 38, 127
1, 234144, Note_on_c, 9, 50, 127
1, 234144, Note_on_c, 12, 53, 73
1, 234146, Control_c, 12, 10, 41
1, 234162, Note_on_c, 9, 38, 0
1, 234162, Note_on_c, 9, 50, 0
1, 234176, Control_c, 2, 64, 0
1, 234176, Control_c, 2, 64, 0
1, 234176, Control_c, 2, 64, 0
1, 234176, Control_c, 2, 64, 0
1, 234176, Control_c, 2, 64, 0
1, 234176, Control_c, 2, 64, 0
1, 234176, Control_c, 2, 64, 0
1, 234176, Control_c, 2, 64, 0
1, 234176, Control_c, 2, 64, 0
1, 234176, Control_c, 2, 64, 0
1, 234176, Control_c, 2, 64, 0
1, 234176, Control_c, 2, 64, 0
1, 234176, Control_c, 2, 64, 0
1, 234176, Control_c, 2, 64, 0
1, 234176, Control_c, 2, 64, 0
1, 234178, Note_on_c, 12, 53, 0
1, 234194, Control_c, 12, 10, 35
1, 234240, Note_on_c, 1, 29, 63
1, 234240, Note_on_c, 3, 69, 82
1, 234240, Note_on_c, 9, 38, 127
1, 234240, Note_on_c, 9, 50, 127
1, 234240, Note_on_c, 9, 42, 76
1, 234240, Note_on_c, 9, 70, 96
1, 234240, Note_on_c, 9, 55, 110
1, 234240, Note_on_c, 11, 29, 63
1, 234240, Note_on_c, 12, 53, 80
1, 234242, Control_c, 12, 10, 29
1, 234258, Note_on_c, 9, 55, 0
1, 234258, Note_on_c, 9, 70, 0
1, 234258, Note_on_c, 9, 38, 0
1, 234258, Note_on_c, 9, 42, 0
1, 234258, Note_on_c, 9, 50, 0
1, 234269, Note_on_c, 3, 70, 0
1, 234283, Note_on_c, 12, 53, 0
1, 234290, Control_c, 12, 10, 23
1, 234330, Note_on_c, 1, 29, 0
1, 234330, Note_on_c, 11, 29, 0
1, 234336, Note_on_c, 9, 42, 85
1, 234336, Note_on_c, 12, 53, 73
1, 234338, Control_c, 12, 10, 17
1, 234338, Control_c, 12, 6, 110
1, 234354, Note_on_c, 9, 42, 0
1, 234370, Note_on_c, 12, 53, 0
1, 234386, Control_c, 12, 10, 11
1, 234432, Note_on_c, 1, 41, 86
1, 234432, Note_on_c, 9, 38, 127
1, 234432, Note_on_c, 9, 50, 127
1, 234432, Note_on_c, 9, 46, 117
1, 234432, Note_on_c, 9, 70, 23
1, 234432, Note_on_c, 11, 41, 86
1, 234434, Control_c, 12, 10, 5
1, 234450, Note_on_c, 9, 70, 0
1, 234450, Note_on_c, 9, 46, 0
1, 234450, Note_on_c, 9, 50, 0
1, 234450, Note_on_c, 9, 38, 0
1, 234522, Note_on_c, 11, 41, 0
1, 234522, Note_on_c, 1, 41, 0
1, 234528, Note_on_c, 9, 70, 36
1, 234546, Note_on_c, 9, 70, 0
1, 234624, Note_on_c, 1, 29, 63
1, 234624, Note_on_c, 9, 38, 127
1, 234624, Note_on_c, 9, 50, 127
1, 234624, Note_on_c, 9, 42, 76
1, 234624, Note_on_c, 9, 70, 102
1, 234624, Note_on_c, 9, 57, 100
1, 234624, Note_on_c, 11, 29, 63
1, 234642, Note_on_c, 9, 57, 0
1, 234642, Note_on_c, 9, 70, 0
1, 234642, Note_on_c, 9, 42, 0
1, 234642, Note_on_c, 9, 50, 0
1, 234642, Note_on_c, 9, 38, 0
1, 234714, Note_on_c, 1, 29, 0
1, 234714, Note_on_c, 11, 29, 0
1, 234720, Note_on_c, 9, 42, 85
1, 234738, Note_on_c, 9, 42, 0
1, 234816, Note_on_c, 1, 41, 86
1, 234816, Note_on_c, 9, 38, 127
1, 234816, Note_on_c, 9, 50, 127
1, 234816, Note_on_c, 9, 46, 117
1, 234816, Note_on_c, 9, 70, 73
1, 234816, Note_on_c, 11, 41, 86
1, 234834, Note_on_c, 9, 70, 0
1, 234834, Note_on_c, 9, 46, 0
1, 234834, Note_on_c, 9, 50, 0
1, 234834, Note_on_c, 9, 38, 0
1, 234910, Note_on_c, 11, 41, 0
1, 234910, Note_on_c, 1, 41, 0
1, 234912, Note_on_c, 9, 38, 127
1, 234912, Note_on_c, 9, 50, 127
1, 234914, Control_c, 12, 6, 10
1, 234930, Note_on_c, 9, 38, 0
1, 234930, Note_on_c, 9, 50, 0
1, 234952, Note_on_c, 2, 65, 61
1, 234960, Note_on_c, 2, 46, 61
1, 234960, Note_on_c, 2, 58, 61
1, 234960, Note_on_c, 2, 62, 61
1, 235002, Note_on_c, 3, 69, 0
1, 235006, Control_c, 2, 11, 119
1, 235008, Note_on_c, 1, 34, 60
1, 235008, Note_on_c, 3, 65, 76
1, 235008, Note_on_c, 4, 89, 113
1, 235008, Note_on_c, 5, 58, 64
1, 235008, Note_on_c, 9, 27, 127
1, 235008, Note_on_c, 9, 45, 107
1, 235008, Note_on_c, 9, 36, 127
1, 235008, Note_on_c, 9, 42, 66
1, 235008, Note_on_c, 9, 70, 92
1, 235008, Note_on_c, 12, 53, 80
1, 235010, Pitch_bend_c, 1, 8192
1, 235010, Control_c, 5, 10, 9
1, 235026, Note_on_c, 9, 70, 0
1, 235026, Note_on_c, 9, 42, 0
1, 235026, Note_on_c, 9, 45, 0
1, 235026, Note_on_c, 9, 27, 0
1, 235026, Note_on_c, 9, 36, 0
1, 235051, Note_on_c, 12, 53, 0
1, 235058, Control_c, 12, 10, 5
1, 235095, Note_on_c, 1, 34, 0
1, 235098, Note_on_c, 5, 58, 0
1, 235104, Note_on_c, 5, 65, 65
1, 235104, Note_on_c, 9, 42, 75
1, 235104, Note_on_c, 12, 53, 73
1, 235106, Control_c, 5, 10, 13
1, 235106, Control_c, 12, 10, 13
1, 235106, Control_c, 12, 6, 25
1, 235122, Note_on_c, 9, 42, 0
1, 235122, Note_on_c, 4, 89, 0
1, 235138, Note_on_c, 12, 53, 0
1, 235154, Control_c, 12, 10, 20
1, 235194, Note_on_c, 5, 65, 0
1, 235200, Note_on_c, 1, 46, 92
1, 235200, Note_on_c, 4, 86, 113
1, 235200, Note_on_c, 5, 70, 80
1, 235200, Note_on_c, 9, 46, 107
1, 235200, Note_on_c, 12, 53, 80
1, 235202, Control_c, 5, 10, 17
1, 235202, Control_c, 12, 10, 27
1, 235218, Note_on_c, 9, 46, 0
1, 235243, Note_on_c, 12, 53, 0
1, 235250, Control_c, 12, 10, 34
1, 235274, Control_c, 12, 6, 40
1, 235290, Note_on_c, 1, 46, 0
1, 235296, Note_on_c, 5, 74, 68
1, 235296, Note_on_c, 9, 70, 40
1, 235296, Note_on_c, 12, 53, 73
1, 235298, Control_c, 5, 10, 20
1, 235298, Control_c, 12, 10, 41
1, 235314, Note_on_c, 9, 70, 0
1, 235315, Note_on_c, 5, 70, 0
1, 235330, Note_on_c, 12, 53, 0
1, 235346, Control_c, 12, 10, 49
1, 235359, Note_on_c, 4, 86, 0
1, 235386, Note_on_c, 5, 74, 0
1, 235392, Note_on_c, 1, 34, 66
1, 235392, Note_on_c, 4, 82, 113
1, 235392, Note_on_c, 5, 77, 86
1, 235392, Note_on_c, 9, 27, 127
1, 235392, Note_on_c, 9, 39, 127
1, 235392, Note_on_c, 9, 38, 127
1, 235392, Note_on_c, 9, 36, 127
1, 235392, Note_on_c, 9, 45, 107
1, 235392, Note_on_c, 9, 42, 66
1, 235392, Note_on_c, 9, 70, 86
1, 235392, Note_on_c, 12, 53, 80
1, 235394, Control_c, 5, 10, 24
1, 235394, Control_c, 12, 10, 56
1, 235410, Note_on_c, 9, 70, 0
1, 235410, Note_on_c, 9, 42, 0
1, 235410, Note_on_c, 9, 45, 0
1, 235410, Note_on_c, 9, 36, 0
1, 235410, Note_on_c, 9, 39, 0
1, 235410, Note_on_c, 9, 27, 0
1, 235410, Note_on_c, 9, 38, 0
1, 235435, Note_on_c, 12, 53, 0
1, 235442, Control_c, 12, 10, 63
1, 235478, Control_c, 12, 6, 60
1, 235482, Note_on_c, 1, 34, 0
1, 235488, Note_on_c, 5, 74, 59
1, 235488, Note_on_c, 9, 42, 75
1, 235488, Note_on_c, 12, 53, 73
1, 235490, Control_c, 5, 10, 28
1, 235490, Control_c, 12, 10, 70
1, 235494, Note_on_c, 5, 77, 0
1, 235506, Note_on_c, 9, 42, 0
1, 235522, Note_on_c, 12, 53, 0
1, 235538, Control_c, 12, 10, 77
1, 235578, Note_on_c, 5, 74, 0
1, 235578, Note_on_c, 4, 82, 0
1, 235584, Note_on_c, 1, 46, 92
1, 235584, Note_on_c, 4, 86, 113
1, 235584, Note_on_c, 5, 70, 80
1, 235584, Note_on_c, 9, 46, 92
1, 235584, Note_on_c, 9, 70, 80
1, 235584, Note_on_c, 12, 53, 80
1, 235586, Control_c, 5, 10, 31
1, 235586, Control_c, 12, 10, 84
1, 235602, Note_on_c, 9, 70, 0
1, 235602, Note_on_c, 9, 46, 0
1, 235627, Note_on_c, 12, 53, 0
1, 235634, Control_c, 12, 10, 92
1, 235658, Control_c, 12, 6, 85
1, 235674, Note_on_c, 1, 46, 0
1, 235674, Note_on_c, 3, 65, 0
1, 235680, Note_on_c, 5, 65, 94
1, 235680, Note_on_c, 12, 53, 73
1, 235682, Control_c, 5, 10, 35
1, 235682, Control_c, 12, 10, 99
1, 235699, Note_on_c, 5, 70, 0
1, 235714, Note_on_c, 12, 53, 0
1, 235730, Control_c, 12, 10, 106
1, 235770, Note_on_c, 5, 65, 0
1, 235776, Note_on_c, 1, 34, 66
1, 235776, Note_on_c, 3, 65, 82
1, 235776, Note_on_c, 4, 89, 113
1, 235776, Note_on_c, 5, 58, 59
1, 235776, Note_on_c, 9, 27, 127
1, 235776, Note_on_c, 9, 36, 127
1, 235776, Note_on_c, 9, 45, 107
1, 235776, Note_on_c, 9, 42, 66
1, 235776, Note_on_c, 9, 70, 92
1, 235776, Note_on_c, 12, 53, 80
1, 235778, Control_c, 5, 10, 39
1, 235778, Control_c, 12, 10, 113
1, 235783, Note_on_c, 4, 86, 0
1, 235794, Note_on_c, 9, 70, 0
1, 235794, Note_on_c, 9, 42, 0
1, 235794, Note_on_c, 9, 36, 0
1, 235794, Note_on_c, 9, 27, 0
1, 235794, Note_on_c, 9, 45, 0
1, 235819, Note_on_c, 12, 53, 0
1, 235826, Control_c, 12, 10, 120
1, 235866, Note_on_c, 5, 58, 0
1, 235866, Note_on_c, 1, 34, 0
1, 235872, Note_on_c, 5, 65, 94
1, 235872, Note_on_c, 9, 42, 75
1, 235872, Note_on_c, 12, 53, 73
1, 235874, Control_c, 5, 10, 42
1, 235874, Control_c, 12, 6, 110
1, 235890, Note_on_c, 9, 42, 0
1, 235906, Note_on_c, 12, 53, 0
1, 235962, Note_on_c, 4, 89, 0
1, 235962, Note_on_c, 5, 65, 0
1, 235968, Note_on_c, 1, 46, 92
1, 235968, Note_on_c, 4, 86, 114
1, 235968, Note_on_c, 5, 70, 64
1, 235968, Note_on_c, 9, 46, 107
1, 235968, Note_on_c, 9, 70, 20
1, 235970, Control_c, 5, 10, 46
1, 235986, Note_on_c, 9, 70, 0
1, 235986, Note_on_c, 9, 46, 0
1, 236058, Note_on_c, 1, 46, 0
1, 236064, Note_on_c, 5, 74, 77
1, 236064, Note_on_c, 9, 70, 49
1, 236066, Control_c, 5, 10, 50
1, 236082, Note_on_c, 9, 70, 0
1, 236083, Note_on_c, 5, 70, 0
1, 236112, Note_on_c, 4, 86, 0
1, 236154, Note_on_c, 5, 74, 0
1, 236160, Note_on_c, 1, 34, 66
1, 236160, Note_on_c, 3, 69, 87
1, 236160, Note_on_c, 4, 82, 114
1, 236160, Note_on_c, 5, 77, 86
1, 236160, Note_on_c, 9, 27, 127
1, 236160, Note_on_c, 9, 39, 127
1, 236160, Note_on_c, 9, 38, 127
1, 236160, Note_on_c, 9, 45, 107
1, 236160, Note_on_c, 9, 36, 127
1, 236160, Note_on_c, 9, 42, 66
1, 236160, Note_on_c, 9, 70, 76
1, 236162, Control_c, 5, 10, 54
1, 236163, Note_on_c, 3, 65, 0
1, 236178, Note_on_c, 9, 70, 0
1, 236178, Note_on_c, 9, 42, 0
1, 236178, Note_on_c, 9, 36, 0
1, 236178, Note_on_c, 9, 39, 0
1, 236178, Note_on_c, 9, 45, 0
1, 236178, Note_on_c, 9, 27, 0
1, 236178, Note_on_c, 9, 38, 0
1, 236250, Note_on_c, 1, 34, 0
1, 236256, Note_on_c, 5, 74, 71
1, 236256, Note_on_c, 9, 42, 75
1, 236258, Control_c, 5, 10, 57
1, 236262, Note_on_c, 5, 77, 0
1, 236274, Note_on_c, 9, 42, 0
1, 236346, Note_on_c, 4, 82, 0
1, 236346, Note_on_c, 5, 74, 0
1, 236352, Note_on_c, 1, 46, 89
1, 236352, Note_on_c, 4, 86, 114
1, 236352, Note_on_c, 5, 70, 64
1, 236352, Note_on_c, 9, 46, 107
1, 236352, Note_on_c, 9, 70, 66
1, 236354, Control_c, 5, 10, 61
1, 236370, Note_on_c, 9, 70, 0
1, 236370, Note_on_c, 9, 46, 0
1, 236442, Note_on_c, 3, 69, 0
1, 236446, Note_on_c, 1, 46, 0
1, 236448, Note_on_c, 5, 65, 80
1, 236450, Control_c, 5, 10, 65
1, 236450, Control_c, 12, 6, 10
1, 236467, Note_on_c, 5, 70, 0
1, 236490, Note_on_c, 2, 46, 0
1, 236490, Note_on_c, 2, 62, 0
1, 236490, Note_on_c, 2, 58, 0
1, 236496, Note_on_c, 2, 41, 61
1, 236496, Note_on_c, 2, 57, 61
1, 236496, Note_on_c, 2, 60, 61
1, 236509, Note_on_c, 4, 86, 0
1, 236538, Note_on_c, 5, 65, 0
1, 236544, Note_on_c, 1, 29, 63
1, 236544, Note_on_c, 3, 69, 82
1, 236544, Note_on_c, 4, 89, 114
1, 236544, Note_on_c, 5, 57, 59
1, 236544, Note_on_c, 9, 27, 127
1, 236544, Note_on_c, 9, 45, 107
1, 236544, Note_on_c, 9, 36, 127
1, 236544, Note_on_c, 9, 42, 66
1, 236544, Note_on_c, 9, 70, 92
1, 236544, Note_on_c, 12, 53, 80
1, 236546, Control_c, 5, 10, 68
1, 236546, Control_c, 12, 10, 125
1, 236562, Note_on_c, 9, 70, 0
1, 236562, Note_on_c, 9, 42, 0
1, 236562, Note_on_c, 9, 45, 0
1, 236562, Note_on_c, 9, 27, 0
1, 236562, Note_on_c, 9, 36, 0
1, 236587, Note_on_c, 12, 53, 0
1, 236594, Control_c, 12, 10, 119
1, 236606, Note_on_c, 2, 77, 0
1, 236631, Note_on_c, 1, 29, 0
1, 236634, Note_on_c, 5, 57, 0
1, 236640, Note_on_c, 5, 65, 68
1, 236640, Note_on_c, 9, 42, 75
1, 236640, Note_on_c, 12, 53, 73
1, 236642, Control_c, 5, 10, 72
1, 236642, Control_c, 12, 10, 113
1, 236642, Control_c, 12, 6, 25
1, 236658, Note_on_c, 9, 42, 0
1, 236674, Note_on_c, 12, 53, 0
1, 236690, Control_c, 12, 10, 107
1, 236706, Note_on_c, 4, 89, 0
1, 236730, Note_on_c, 5, 65, 0
1, 236736, Note_on_c, 1, 41, 89
1, 236736, Note_on_c, 4, 84, 114
1, 236736, Note_on_c, 5, 69, 64
1, 236736, Note_on_c, 9, 46, 107
1, 236736, Note_on_c, 12, 53, 80
1, 236738, Control_c, 5, 10, 76
1, 236738, Control_c, 12, 10, 101
1, 236754, Note_on_c, 9, 46, 0
1, 236779, Note_on_c, 12, 53, 0
1, 236786, Control_c, 12, 10, 95
1, 236810, Control_c, 12, 6, 40
1, 236826, Note_on_c, 1, 41, 0
1, 236832, Note_on_c, 5, 72, 74
1, 236832, Note_on_c, 9, 70, 44
1, 236832, Note_on_c, 12, 53, 73
1, 236834, Control_c, 5, 10, 79
1, 236834, Control_c, 12, 10, 89
1, 236850, Note_on_c, 9, 70, 0
1, 236851, Note_on_c, 5, 69, 0
1, 236866, Note_on_c, 12, 53, 0
1, 236882, Control_c, 12, 10, 83
1, 236914, Note_on_c, 4, 84, 0
1, 236922, Note_on_c, 5, 72, 0
1, 236928, Note_on_c, 1, 29, 63
1, 236928, Note_on_c, 4, 81, 115
1, 236928, Note_on_c, 5, 77, 89
1, 236928, Note_on_c, 9, 27, 127
1, 236928, Note_on_c, 9, 39, 127
1, 236928, Note_on_c, 9, 38, 127
1, 236928, Note_on_c, 9, 45, 107
1, 236928, Note_on_c, 9, 36, 127
1, 236928, Note_on_c, 9, 42, 66
1, 236928, Note_on_c, 9, 70, 92
1, 236928, Note_on_c, 12, 53, 80
1, 236930, Control_c, 5, 10, 83
1, 236930, Control_c, 12, 10, 77
1, 236946, Note_on_c, 9, 70, 0
1, 236946, Note_on_c, 9, 42, 0
1, 236946, Note_on_c, 9, 27, 0
1, 236946, Note_on_c, 9, 38, 0
1, 236946, Note_on_c, 9, 36, 0
1, 236946, Note_on_c, 9, 39, 0
1, 236946, Note_on_c, 9, 45, 0
1, 236971, Note_on_c, 12, 53, 0
1, 236978, Control_c, 12, 10, 71
1, 237014, Control_c, 12, 6, 60
1, 237018, Note_on_c, 1, 29, 0
1, 237018, Note_on_c, 3, 69, 0
1, 237024, Note_on_c, 5, 72, 77
1, 237024, Note_on_c, 9, 42, 75
1, 237024, Note_on_c, 12, 53, 73
1, 237026, Control_c, 5, 10, 87
1, 237026, Control_c, 12, 10, 65
1, 237030, Note_on_c, 5, 77, 0
1, 237042, Note_on_c, 9, 42, 0
1, 237042, Note_on_c, 4, 81, 0
1, 237058, Note_on_c, 12, 53, 0
1, 237074, Control_c, 12, 10, 59
1, 237114, Note_on_c, 5, 72, 0
1, 237120, Note_on_c, 1, 41, 89
1, 237120, Note_on_c, 4, 84, 115
1, 237120, Note_on_c, 5, 69, 64
1, 237120, Note_on_c, 9, 46, 107
1, 237120, Note_on_c, 9, 70, 80
1, 237120, Note_on_c, 12, 53, 80
1, 237122, Control_c, 5, 10, 91
1, 237122, Control_c, 12, 10, 53
1, 237138, Note_on_c, 9, 70, 0
1, 237138, Note_on_c, 9, 46, 0
1, 237163, Note_on_c, 12, 53, 0
1, 237170, Control_c, 12, 10, 47
1, 237194, Control_c, 12, 6, 85
1, 237210, Note_on_c, 1, 41, 0
1, 237216, Note_on_c, 5, 65, 74
1, 237216, Note_on_c, 12, 53, 73
1, 237218, Control_c, 5, 10, 94
1, 237218, Control_c, 12, 10, 41
1, 237235, Note_on_c, 5, 69, 0
1, 237250, Note_on_c, 12, 53, 0
1, 237266, Control_c, 12, 10, 35
1, 237290, Note_on_c, 4, 84, 0
1, 237306, Note_on_c, 5, 65, 0
1, 237312, Note_on_c, 1, 29, 63
1, 237312, Note_on_c, 3, 69, 80
1, 237312, Note_on_c, 4, 89, 115
1, 237312, Note_on_c, 5, 57, 59
1, 237312, Note_on_c, 9, 27, 127
1, 237312, Note_on_c, 9, 45, 107
1, 237312, Note_on_c, 9, 36, 127
1, 237312, Note_on_c, 9, 42, 66
1, 237312, Note_on_c, 9, 70, 86
1, 237312, Note_on_c, 12, 53, 80
1, 237314, Control_c, 5, 10, 98
1, 237314, Control_c, 12, 10, 29
1, 237330, Note_on_c, 9, 70, 0
1, 237330, Note_on_c, 9, 27, 0
1, 237330, Note_on_c, 9, 42, 0
1, 237330, Note_on_c, 9, 45, 0
1, 237330, Note_on_c, 9, 36, 0
1, 237355, Note_on_c, 12, 53, 0
1, 237362, Control_c, 12, 10, 23
1, 237402, Note_on_c, 1, 29, 0
1, 237402, Note_on_c, 5, 57, 0
1, 237408, Note_on_c, 5, 65, 74
1, 237408, Note_on_c, 9, 42, 75
1, 237408, Note_on_c, 12, 53, 73
1, 237410, Control_c, 5, 10, 102
1, 237410, Control_c, 12, 10, 17
1, 237410, Control_c, 12, 6, 110
1, 237426, Note_on_c, 9, 42, 0
1, 237442, Note_on_c, 12, 53, 0
1, 237458, Control_c, 12, 10, 11
1, 237486, Note_on_c, 4, 89, 0
1, 237498, Note_on_c, 5, 65, 0
1, 237504, Note_on_c, 1, 41, 86
1, 237504, Note_on_c, 4, 84, 115
1, 237504, Note_on_c, 5, 69, 64
1, 237504, Note_on_c, 9, 46, 107
1, 237504, Note_on_c, 9, 70, 13
1, 237506, Control_c, 5, 10, 105
1, 237506, Control_c, 12, 10, 5
1, 237522, Note_on_c, 9, 70, 0
1, 237522, Note_on_c, 9, 46, 0
1, 237594, Note_on_c, 1, 41, 0
1, 237600, Note_on_c, 5, 72, 80
1, 237600, Note_on_c, 9, 70, 26
1, 237602, Control_c, 5, 10, 109
1, 237618, Note_on_c, 9, 70, 0
1, 237619, Note_on_c, 5, 69, 0
1, 237674, Note_on_c, 4, 84, 0
1, 237690, Note_on_c, 5, 72, 0
1, 237690, Note_on_c, 3, 69, 0
1, 237696, Note_on_c, 1, 29, 63
1, 237696, Note_on_c, 3, 72, 89
1, 237696, Note_on_c, 4, 91, 115
1, 237696, Note_on_c, 5, 77, 86
1, 237696, Note_on_c, 9, 27, 127
1, 237696, Note_on_c, 9, 39, 127
1, 237696, Note_on_c, 9, 38, 127
1, 237696, Note_on_c, 9, 45, 107
1, 237696, Note_on_c, 9, 36, 127
1, 237696, Note_on_c, 9, 42, 66
1, 237696, Note_on_c, 9, 70, 92
1, 237698, Control_c, 5, 10, 113
1, 237714, Note_on_c, 9, 70, 0
1, 237714, Note_on_c, 9, 42, 0
1, 237714, Note_on_c, 9, 38, 0
1, 237714, Note_on_c, 9, 27, 0
1, 237714, Note_on_c, 9, 36, 0
1, 237714, Note_on_c, 9, 39, 0
1, 237714, Note_on_c, 9, 45, 0
1, 237786, Note_on_c, 1, 29, 0
1, 237792, Note_on_c, 5, 72, 74
1, 237792, Note_on_c, 9, 42, 75
1, 237794, Control_c, 5, 10, 116
1, 237798, Note_on_c, 5, 77, 0
1, 237810, Note_on_c, 9, 42, 0
1, 237845, Note_on_c, 4, 91, 0
1, 237882, Note_on_c, 5, 72, 0
1, 237888, Note_on_c, 1, 41, 86
1, 237888, Note_on_c, 4, 84, 115
1, 237888, Note_on_c, 5, 69, 64
1, 237888, Note_on_c, 9, 46, 107
1, 237888, Note_on_c, 9, 70, 63
1, 237890, Control_c, 5, 10, 120
1, 237906, Note_on_c, 9, 70, 0
1, 237906, Note_on_c, 9, 46, 0
1, 237982, Note_on_c, 1, 41, 0
1, 237984, Note_on_c, 5, 65, 80
1, 237986, Control_c, 5, 10, 124
1, 237986, Control_c, 12, 6, 10
1, 238003, Note_on_c, 5, 69, 0
1, 238020, Note_on_c, 4, 84, 0
1, 238032, Note_on_c, 2, 38, 61
1, 238032, Note_on_c, 2, 50, 61
1, 238045, Note_on_c, 3, 72, 0
1, 238074, Note_on_c, 5, 65, 0
1, 238080, Note_on_c, 1, 26, 60
1, 238080, Note_on_c, 3, 74, 89
1, 238080, Note_on_c, 4, 93, 110
1, 238080, Note_on_c, 5, 62, 59
1, 238080, Note_on_c, 9, 27, 127
1, 238080, Note_on_c, 9, 45, 107
1, 238080, Note_on_c, 9, 36, 127
1, 238080, Note_on_c, 9, 42, 66
1, 238080, Note_on_c, 9, 70, 92
1, 238080, Note_on_c, 12, 53, 80
1, 238082, Control_c, 5, 10, 127
1, 238098, Note_on_c, 9, 70, 0
1, 238098, Note_on_c, 9, 42, 0
1, 238098, Note_on_c, 9, 36, 0
1, 238098, Note_on_c, 9, 45, 0
1, 238098, Note_on_c, 9, 27, 0
1, 238123, Note_on_c, 12, 53, 0
1, 238130, Control_c, 12, 10, 5
1, 238167, Note_on_c, 1, 26, 0
1, 238170, Note_on_c, 5, 62, 0
1, 238170, Note_on_c, 4, 93, 0
1, 238176, Note_on_c, 5, 69, 74
1, 238176, Note_on_c, 9, 42, 75
1, 238176, Note_on_c, 12, 53, 73
1, 238178, Control_c, 5, 10, 124
1, 238178, Control_c, 12, 10, 13
1, 238178, Control_c, 12, 6, 25
1, 238194, Note_on_c, 9, 42, 0
1, 238210, Note_on_c, 12, 53, 0
1, 238226, Control_c, 12, 10, 20
1, 238235, Note_on_c, 2, 41, 0
1, 238266, Note_on_c, 5, 69, 0
1, 238272, Note_on_c, 1, 38, 92
1, 238272, Note_on_c, 4, 89, 110
1, 238272, Note_on_c, 5, 74, 64
1, 238272, Note_on_c, 9, 46, 107
1, 238272, Note_on_c, 12, 53, 80
1, 238274, Control_c, 5, 10, 120
1, 238274, Control_c, 12, 10, 27
1, 238290, Note_on_c, 9, 46, 0
1, 238315, Note_on_c, 12, 53, 0
1, 238322, Control_c, 12, 10, 34
1, 238346, Control_c, 12, 6, 40
1, 238362, Note_on_c, 1, 38, 0
1, 238362, Note_on_c, 3, 74, 0
1, 238368, Note_on_c, 9, 70, 40
1, 238368, Note_on_c, 12, 53, 73
1, 238370, Control_c, 5, 10, 116
1, 238370, Control_c, 12, 10, 41
1, 238386, Note_on_c, 9, 70, 0
1, 238387, Note_on_c, 5, 74, 0
1, 238402, Note_on_c, 12, 53, 0
1, 238418, Control_c, 12, 10, 49
1, 238449, Note_on_c, 4, 89, 0
1, 238464, Note_on_c, 1, 26, 66
1, 238464, Note_on_c, 3, 76, 95
1, 238464, Note_on_c, 4, 96, 110
1, 238464, Note_on_c, 5, 77, 80
1, 238464, Note_on_c, 5, 86, 71
1, 238464, Note_on_c, 9, 27, 127
1, 238464, Note_on_c, 9, 39, 127
1, 238464, Note_on_c, 9, 38, 127
1, 238464, Note_on_c, 9, 45, 107
1, 238464, Note_on_c, 9, 36, 127
1, 238464, Note_on_c, 9, 42, 66
1, 238464, Note_on_c, 9, 70, 86
1, 238464, Note_on_c, 12, 53, 80
1, 238466, Control_c, 5, 10, 112
1, 238466, Control_c, 12, 10, 56
1, 238482, Note_on_c, 9, 70, 0
1, 238482, Note_on_c, 9, 42, 0
1, 238482, Note_on_c, 9, 36, 0
1, 238482, Note_on_c, 9, 45, 0
1, 238482, Note_on_c, 9, 38, 0
1, 238482, Note_on_c, 9, 39, 0
1, 238482, Note_on_c, 9, 27, 0
1, 238507, Note_on_c, 12, 53, 0
1, 238514, Control_c, 12, 10, 63
1, 238550, Control_c, 12, 6, 60
1, 238554, Note_on_c, 4, 96, 0
1, 238554, Note_on_c, 1, 26, 0
1, 238554, Note_on_c, 5, 77, 0
1, 238560, Note_on_c, 5, 74, 74
1, 238560, Note_on_c, 9, 42, 75
1, 238560, Note_on_c, 12, 53, 73
1, 238562, Control_c, 5, 10, 108
1, 238562, Control_c, 12, 10, 70
1, 238566, Note_on_c, 5, 86, 0
1, 238578, Note_on_c, 9, 42, 0
1, 238594, Note_on_c, 12, 53, 0
1, 238610, Control_c, 12, 10, 77
1, 238650, Note_on_c, 5, 74, 0
1, 238656, Note_on_c, 1, 38, 92
1, 238656, Note_on_c, 4, 89, 110
1, 238656, Note_on_c, 5, 69, 64
1, 238656, Note_on_c, 9, 46, 92
1, 238656, Note_on_c, 9, 70, 80
1, 238656, Note_on_c, 12, 53, 80
1, 238658, Control_c, 5, 10, 104
1, 238658, Control_c, 12, 10, 84
1, 238674, Note_on_c, 9, 70, 0
1, 238674, Note_on_c, 9, 46, 0
1, 238699, Note_on_c, 12, 53, 0
1, 238706, Control_c, 12, 10, 92
1, 238730, Control_c, 12, 6, 85
1, 238746, Note_on_c, 1, 38, 0
1, 238752, Note_on_c, 5, 65, 80
1, 238752, Note_on_c, 12, 53, 73
1, 238754, Control_c, 5, 10, 100
1, 238754, Control_c, 12, 10, 99
1, 238771, Note_on_c, 5, 69, 0
1, 238786, Note_on_c, 12, 53, 0
1, 238802, Control_c, 12, 10, 106
1, 238841, Note_on_c, 4, 89, 0
1, 238842, Note_on_c, 5, 65, 0
1, 238848, Note_on_c, 1, 26, 66
1, 238848, Note_on_c, 3, 74, 107
1, 238848, Note_on_c, 4, 93, 110
1, 238848, Note_on_c, 5, 62, 59
1, 238848, Note_on_c, 9, 27, 127
1, 238848, Note_on_c, 9, 45, 107
1, 238848, Note_on_c, 9, 36, 127
1, 238848, Note_on_c, 9, 42, 66
1, 238848, Note_on_c, 9, 70, 92
1, 238848, Note_on_c, 12, 53, 80
1, 238850, Control_c, 5, 10, 96
1, 238850, Control_c, 12, 10, 113
1, 238866, Note_on_c, 9, 70, 0
1, 238866, Note_on_c, 9, 42, 0
1, 238866, Note_on_c, 9, 36, 0
1, 238866, Note_on_c, 9, 45, 0
1, 238866, Note_on_c, 9, 27, 0
1, 238882, Note_on_c, 3, 76, 0
1, 238891, Note_on_c, 12, 53, 0
1, 238898, Control_c, 12, 10, 120
1, 238938, Note_on_c, 1, 26, 0
1, 238938, Note_on_c, 5, 62, 0
1, 238938, Note_on_c, 4, 93, 0
1, 238944, Note_on_c, 5, 69, 74
1, 238944, Note_on_c, 9, 42, 75
1, 238944, Note_on_c, 12, 53, 73
1, 238946, Control_c, 5, 10, 92
1, 238946, Control_c, 12, 6, 110
1, 238962, Note_on_c, 9, 42, 0
1, 238978, Note_on_c, 12, 53, 0
1, 239034, Note_on_c, 5, 69, 0
1, 239040, Note_on_c, 1, 38, 92
1, 239040, Note_on_c, 4, 84, 110
1, 239040, Note_on_c, 5, 72, 64
1, 239040, Note_on_c, 9, 46, 107
1, 239040, Note_on_c, 9, 70, 20
1, 239042, Control_c, 5, 10, 88
1, 239058, Note_on_c, 9, 70, 0
1, 239058, Note_on_c, 9, 46, 0
1, 239130, Note_on_c, 1, 38, 0
1, 239136, Note_on_c, 5, 77, 80
1, 239136, Note_on_c, 9, 70, 49
1, 239138, Control_c, 5, 10, 84
1, 239154, Note_on_c, 9, 70, 0
1, 239155, Note_on_c, 5, 72, 0
1, 239226, Note_on_c, 5, 77, 0
1, 239232, Note_on_c, 4, 84, 0
1, 239232, Note_on_c, 1, 26, 66
1, 239232, Note_on_c, 3, 72, 87
1, 239232, Note_on_c, 4, 91, 110
1, 239232, Note_on_c, 5, 77, 74
1, 239232, Note_on_c, 5, 86, 74
1, 239232, Note_on_c, 9, 27, 127
1, 239232, Note_on_c, 9, 39, 127
1, 239232, Note_on_c, 9, 38, 127
1, 239232, Note_on_c, 9, 45, 107
1, 239232, Note_on_c, 9, 36, 127
1, 239232, Note_on_c, 9, 42, 66
1, 239232, Note_on_c, 9, 70, 76
1, 239234, Note_on_c, 3, 74, 0
1, 239234, Control_c, 5, 10, 80
1, 239250, Note_on_c, 9, 45, 0
1, 239250, Note_on_c, 9, 70, 0
1, 239250, Note_on_c, 9, 42, 0
1, 239250, Note_on_c, 9, 36, 0
1, 239250, Note_on_c, 9, 27, 0
1, 239250, Note_on_c, 9, 38, 0
1, 239250, Note_on_c, 9, 39, 0
1, 239322, Note_on_c, 5, 77, 0
1, 239322, Note_on_c, 4, 91, 0
1, 239322, Note_on_c, 1, 26, 0
1, 239328, Note_on_c, 9, 42, 75
1, 239330, Control_c, 5, 10, 76
1, 239334, Note_on_c, 5, 86, 0
1, 239346, Note_on_c, 9, 42, 0
1, 239424, Note_on_c, 1, 38, 89
1, 239424, Note_on_c, 4, 84, 112
1, 239424, Note_on_c, 5, 72, 64
1, 239424, Note_on_c, 9, 46, 107
1, 239424, Note_on_c, 9, 70, 66
1, 239426, Control_c, 5, 10, 72
1, 239442, Note_on_c, 9, 70, 0
1, 239442, Note_on_c, 9, 46, 0
1, 239514, Note_on_c, 2, 65, 0
1, 239518, Note_on_c, 1, 38, 0
1, 239520, Note_on_c, 5, 69, 80
1, 239522, Control_c, 5, 10, 68
1, 239522, Control_c, 12, 6, 10
1, 239526, Note_on_c, 2, 57, 0
1, 239526, Note_on_c, 2, 60, 0
1, 239539, Note_on_c, 5, 72, 0
1, 239568, Note_on_c, 2, 45, 61
1, 239568, Note_on_c, 2, 57, 61
1, 239568, Note_on_c, 2, 60, 61
1, 239568, Note_on_c, 2, 64, 61
1, 239571, Note_on_c, 2, 50, 0
1, 239590, Note_on_c, 2, 38, 0
1, 239610, Note_on_c, 4, 84, 0
1, 239610, Note_on_c, 5, 69, 0
1, 239616, Note_on_c, 1, 33, 63
1, 239616, Note_on_c, 3, 69, 82
1, 239616, Note_on_c, 4, 88, 107
1, 239616, Note_on_c, 5, 60, 59
1, 239616, Note_on_c, 9, 27, 127
1, 239616, Note_on_c, 9, 45, 107
1, 239616, Note_on_c, 9, 36, 127
1, 239616, Note_on_c, 9, 42, 66
1, 239616, Note_on_c, 9, 70, 92
1, 239616, Note_on_c, 12, 57, 80
1, 239618, Control_c, 5, 10, 64
1, 239618, Control_c, 12, 10, 125
1, 239623, Note_on_c, 3, 72, 0
1, 239634, Note_on_c, 9, 27, 0
1, 239634, Note_on_c, 9, 36, 0
1, 239634, Note_on_c, 9, 70, 0
1, 239634, Note_on_c, 9, 45, 0
1, 239634, Note_on_c, 9, 42, 0
1, 239659, Note_on_c, 12, 57, 0
1, 239666, Control_c, 12, 10, 119
1, 239703, Note_on_c, 1, 33, 0
1, 239706, Note_on_c, 5, 60, 0
1, 239712, Note_on_c, 5, 69, 74
1, 239712, Note_on_c, 9, 42, 75
1, 239712, Note_on_c, 12, 57, 73
1, 239714, Control_c, 5, 10, 60
1, 239714, Control_c, 12, 10, 113
1, 239714, Control_c, 12, 6, 25
1, 239730, Note_on_c, 9, 42, 0
1, 239746, Note_on_c, 12, 57, 0
1, 239762, Control_c, 12, 10, 107
1, 239802, Note_on_c, 5, 69, 0
1, 239808, Note_on_c, 1, 45, 89
1, 239808, Note_on_c, 4, 81, 107
1, 239808, Note_on_c, 5, 72, 64
1, 239808, Note_on_c, 9, 46, 107
1, 239808, Note_on_c, 12, 57, 80
1, 239810, Control_c, 5, 10, 56
1, 239810, Control_c, 12, 10, 101
1, 239826, Note_on_c, 9, 46, 0
1, 239830, Note_on_c, 4, 88, 0
1, 239851, Note_on_c, 12, 57, 0
1, 239858, Control_c, 12, 10, 95
1, 239882, Control_c, 12, 6, 40
1, 239898, Note_on_c, 1, 45, 0
1, 239904, Note_on_c, 9, 70, 44
1, 239904, Note_on_c, 12, 57, 73
1, 239906, Control_c, 5, 10, 52
1, 239906, Control_c, 12, 10, 89
1, 239922, Note_on_c, 9, 70, 0
1, 239923, Note_on_c, 5, 72, 0
1, 239938, Note_on_c, 12, 57, 0
1, 239954, Control_c, 12, 10, 83
1, 239993, Note_on_c, 4, 81, 0
1, 240000, Note_on_c, 1, 33, 63
1, 240000, Note_on_c, 4, 84, 107
1, 240000, Note_on_c, 5, 76, 80
1, 240000, Note_on_c, 9, 27, 127
1, 240000, Note_on_c, 9, 39, 127
1, 240000, Note_on_c, 9, 38, 127
1, 240000, Note_on_c, 9, 45, 107
1, 240000, Note_on_c, 9, 36, 127
1, 240000, Note_on_c, 9, 42, 66
1, 240000, Note_on_c, 9, 70, 92
1, 240000, Note_on_c, 12, 57, 80
1, 240002, Control_c, 5, 10, 48
1, 240002, Control_c, 12, 10, 77
1, 240018, Note_on_c, 9, 70, 0
1, 240018, Note_on_c, 9, 42, 0
1, 240018, Note_on_c, 9, 27, 0
1, 240018, Note_on_c, 9, 38, 0
1, 240018, Note_on_c, 9, 36, 0
1, 240018, Note_on_c, 9, 39, 0
1, 240018, Note_on_c, 9, 45, 0
1, 240043, Note_on_c, 12, 57, 0
1, 240050, Control_c, 12, 10, 71
1, 240086, Control_c, 12, 6, 60
1, 240090, Note_on_c, 1, 33, 0
1, 240090, Note_on_c, 5, 76, 0
1, 240090, Note_on_c, 3, 69, 0
1, 240096, Note_on_c, 5, 72, 74
1, 240096, Note_on_c, 9, 42, 75
1, 240096, Note_on_c, 12, 57, 73
1, 240098, Control_c, 5, 10, 44
1, 240098, Control_c, 12, 10, 65
1, 240114, Note_on_c, 9, 42, 0
1, 240130, Note_on_c, 12, 57, 0
1, 240146, Control_c, 12, 10, 59
1, 240186, Note_on_c, 5, 72, 0
1, 240192, Note_on_c, 4, 84, 0
1, 240192, Note_on_c, 1, 45, 89
1, 240192, Note_on_c, 4, 81, 107
1, 240192, Note_on_c, 5, 69, 64
1, 240192, Note_on_c, 9, 46, 107
1, 240192, Note_on_c, 9, 70, 80
1, 240192, Note_on_c, 12, 57, 80
1, 240194, Control_c, 5, 10, 40
1, 240194, Control_c, 12, 10, 53
1, 240210, Note_on_c, 9, 70, 0
1, 240210, Note_on_c, 9, 46, 0
1, 240235, Note_on_c, 12, 57, 0
1, 240242, Control_c, 12, 10, 47
1, 240266, Control_c, 12, 6, 85
1, 240282, Note_on_c, 1, 45, 0
1, 240288, Note_on_c, 5, 64, 80
1, 240288, Note_on_c, 12, 57, 73
1, 240290, Control_c, 5, 10, 36
1, 240290, Control_c, 12, 10, 41
1, 240307, Note_on_c, 5, 69, 0
1, 240322, Note_on_c, 12, 57, 0
1, 240338, Control_c, 12, 10, 35
1, 240359, Note_on_c, 4, 81, 0
1, 240378, Note_on_c, 5, 64, 0
1, 240384, Note_on_c, 1, 33, 63
1, 240384, Note_on_c, 3, 67, 61
1, 240384, Note_on_c, 4, 88, 107
1, 240384, Note_on_c, 5, 60, 59
1, 240384, Note_on_c, 9, 27, 127
1, 240384, Note_on_c, 9, 45, 107
1, 240384, Note_on_c, 9, 36, 127
1, 240384, Note_on_c, 9, 42, 66
1, 240384, Note_on_c, 9, 70, 86
1, 240384, Note_on_c, 12, 57, 80
1, 240386, Control_c, 5, 10, 32
1, 240386, Control_c, 12, 10, 29
1, 240402, Note_on_c, 9, 70, 0
1, 240402, Note_on_c, 9, 27, 0
1, 240402, Note_on_c, 9, 42, 0
1, 240402, Note_on_c, 9, 45, 0
1, 240402, Note_on_c, 9, 36, 0
1, 240427, Note_on_c, 12, 57, 0
1, 240434, Control_c, 12, 10, 23
1, 240474, Note_on_c, 1, 33, 0
1, 240474, Note_on_c, 5, 60, 0
1, 240480, Note_on_c, 5, 69, 74
1, 240480, Note_on_c, 9, 42, 75
1, 240480, Note_on_c, 12, 57, 73
1, 240482, Control_c, 5, 10, 28
1, 240482, Control_c, 12, 10, 17
1, 240482, Control_c, 12, 6, 110
1, 240498, Note_on_c, 9, 42, 0
1, 240514, Note_on_c, 12, 57, 0
1, 240530, Control_c, 12, 10, 11
1, 240570, Note_on_c, 5, 69, 0
1, 240576, Note_on_c, 1, 45, 86
1, 240576, Note_on_c, 4, 81, 107
1, 240576, Note_on_c, 5, 72, 64
1, 240576, Note_on_c, 9, 46, 107
1, 240576, Note_on_c, 9, 70, 13
1, 240578, Control_c, 5, 10, 24
1, 240578, Control_c, 12, 10, 5
1, 240594, Note_on_c, 9, 70, 0
1, 240594, Note_on_c, 9, 46, 0
1, 240598, Note_on_c, 4, 88, 0
1, 240666, Note_on_c, 1, 45, 0
1, 240672, Note_on_c, 9, 70, 26
1, 240674, Control_c, 5, 10, 20
1, 240690, Note_on_c, 9, 70, 0
1, 240691, Note_on_c, 5, 72, 0
1, 240692, Note_on_c, 3, 67, 0
1, 240761, Note_on_c, 4, 81, 0
1, 240768, Note_on_c, 1, 33, 63
1, 240768, Note_on_c, 3, 69, 78
1, 240768, Note_on_c, 4, 84, 107
1, 240768, Note_on_c, 5, 76, 80
1, 240768, Note_on_c, 9, 27, 127
1, 240768, Note_on_c, 9, 39, 127
1, 240768, Note_on_c, 9, 38, 127
1, 240768, Note_on_c, 9, 45, 107
1, 240768, Note_on_c, 9, 36, 127
1, 240768, Note_on_c, 9, 42, 66
1, 240768, Note_on_c, 9, 70, 92
1, 240770, Control_c, 5, 10, 16
1, 240786, Note_on_c, 9, 70, 0
1, 240786, Note_on_c, 9, 42, 0
1, 240786, Note_on_c, 9, 38, 0
1, 240786, Note_on_c, 9, 27, 0
1, 240786, Note_on_c, 9, 36, 0
1, 240786, Note_on_c, 9, 39, 0
1, 240786, Note_on_c, 9, 45, 0
1, 240858, Note_on_c, 5, 76, 0
1, 240858, Note_on_c, 1, 33, 0
1, 240864, Note_on_c, 5, 72, 74
1, 240864, Note_on_c, 9, 42, 75
1, 240866, Control_c, 5, 10, 12
1, 240882, Note_on_c, 9, 42, 0
1, 240954, Note_on_c, 5, 72, 0
1, 240960, Note_on_c, 4, 84, 0
1, 240960, Note_on_c, 1, 45, 86
1, 240960, Note_on_c, 4, 81, 107
1, 240960, Note_on_c, 5, 69, 64
1, 240960, Note_on_c, 9, 46, 107
1, 240960, Note_on_c, 9, 70, 63
1, 240962, Control_c, 5, 10, 8
1, 240978, Note_on_c, 9, 70, 0
1, 240978, Note_on_c, 9, 46, 0
1, 241054, Note_on_c, 1, 45, 0
1, 241056, Note_on_c, 5, 64, 80
1, 241056, Note_on_c, 9, 27, 127
1, 241056, Note_on_c, 9, 45, 107
1, 241056, Note_on_c, 9, 36, 127
1, 241058, Control_c, 5, 10, 4
1, 241058, Control_c, 12, 6, 10
1, 241074, Note_on_c, 9, 36, 0
1, 241074, Note_on_c, 9, 27, 0
1, 241074, Note_on_c, 9, 45, 0
1, 241075, Note_on_c, 5, 69, 0
1, 241097, Note_on_c, 2, 45, 0
1, 241097, Note_on_c, 2, 57, 0
1, 241104, Note_on_c, 2, 43, 61
1, 241104, Note_on_c, 2, 55, 61
1, 241104, Note_on_c, 2, 58, 61
1, 241104, Note_on_c, 2, 62, 61
1, 241120, Note_on_c, 2, 64, 0
1, 241125, Note_on_c, 2, 60, 0
1, 241127, Note_on_c, 4, 81, 0
1, 241146, Note_on_c, 5, 64, 0
1, 241146, Note_on_c, 3, 69, 0
1, 241152, Note_on_c, 1, 31, 60
1, 241152, Note_on_c, 3, 67, 76
1, 241152, Note_on_c, 4, 86, 107
1, 241152, Note_on_c, 5, 58, 59
1, 241152, Note_on_c, 9, 36, 127
1, 241152, Note_on_c, 9, 45, 107
1, 241152, Note_on_c, 9, 42, 66
1, 241152, Note_on_c, 9, 70, 92
1, 241152, Note_on_c, 12, 55, 80
1, 241154, Control_c, 5, 10, 2
1, 241170, Note_on_c, 9, 70, 0
1, 241170, Note_on_c, 9, 36, 0
1, 241170, Note_on_c, 9, 42, 0
1, 241170, Note_on_c, 9, 45, 0
1, 241195, Note_on_c, 12, 55, 0
1, 241202, Control_c, 12, 10, 5
1, 241239, Note_on_c, 1, 31, 0
1, 241242, Note_on_c, 5, 58, 0
1, 241248, Note_on_c, 5, 62, 68
1, 241248, Note_on_c, 9, 42, 75
1, 241248, Note_on_c, 12, 55, 73
1, 241250, Control_c, 5, 10, 6
1, 241250, Control_c, 12, 10, 13
1, 241250, Control_c, 12, 6, 25
1, 241266, Note_on_c, 9, 42, 0
1, 241282, Note_on_c, 12, 55, 0
1, 241298, Control_c, 12, 10, 20
1, 241313, Note_on_c, 4, 86, 0
1, 241338, Note_on_c, 5, 62, 0
1, 241344, Note_on_c, 1, 43, 92
1, 241344, Note_on_c, 4, 79, 107
1, 241344, Note_on_c, 5, 65, 64
1, 241344, Note_on_c, 9, 46, 107
1, 241344, Note_on_c, 12, 55, 80
1, 241346, Control_c, 5, 10, 10
1, 241346, Control_c, 12, 10, 27
1, 241362, Note_on_c, 9, 46, 0
1, 241387, Note_on_c, 12, 55, 0
1, 241394, Control_c, 12, 10, 34
1, 241418, Control_c, 12, 6, 40
1, 241434, Note_on_c, 1, 43, 0
1, 241434, Note_on_c, 5, 65, 0
1, 241440, Note_on_c, 5, 70, 64
1, 241440, Note_on_c, 9, 70, 40
1, 241440, Note_on_c, 12, 55, 73
1, 241442, Control_c, 5, 10, 14
1, 241442, Control_c, 12, 10, 41
1, 241458, Note_on_c, 9, 70, 0
1, 241474, Note_on_c, 12, 55, 0
1, 241490, Control_c, 12, 10, 49
1, 241527, Note_on_c, 4, 79, 0
1, 241530, Note_on_c, 5, 70, 0
1, 241536, Note_on_c, 1, 31, 66
1, 241536, Note_on_c, 4, 82, 107
1, 241536, Note_on_c, 5, 74, 95
1, 241536, Note_on_c, 9, 36, 127
1, 241536, Note_on_c, 9, 38, 127
1, 241536, Note_on_c, 9, 39, 127
1, 241536, Note_on_c, 9, 45, 107
1, 241536, Note_on_c, 9, 42, 66
1, 241536, Note_on_c, 9, 70, 86
1, 241536, Note_on_c, 12, 55, 80
1, 241538, Control_c, 5, 10, 18
1, 241538, Control_c, 12, 10, 56
1, 241550, Control_c, 2, 64, 127
1, 241550, Control_c, 2, 64, 127
1, 241550, Control_c, 2, 64, 127
1, 241550, Control_c, 2, 64, 127
1, 241550, Control_c, 2, 64, 127
1, 241550, Control_c, 2, 64, 127
1, 241550, Control_c, 2, 64, 127
1, 241550, Control_c, 2, 64, 127
1, 241550, Control_c, 2, 64, 127
1, 241550, Control_c, 2, 64, 127
1, 241550, Control_c, 2, 64, 127
1, 241550, Control_c, 2, 64, 127
1, 241550, Control_c, 2, 64, 127
1, 241550, Control_c, 2, 64, 127
1, 241550, Control_c, 2, 64, 127
1, 241554, Note_on_c, 9, 70, 0
1, 241554, Note_on_c, 9, 36, 0
1, 241554, Note_on_c, 9, 39, 0
1, 241554, Note_on_c, 9, 42, 0
1, 241554, Note_on_c, 9, 38, 0
1, 241554, Note_on_c, 9, 45, 0
1, 241579, Note_on_c, 12, 55, 0
1, 241586, Control_c, 12, 10, 63
1, 241622, Control_c, 12, 6, 60
1, 241626, Note_on_c, 1, 31, 0
1, 241626, Note_on_c, 5, 74, 0
1, 241632, Note_on_c, 5, 65, 68
1, 241632, Note_on_c, 9, 42, 75
1, 241632, Note_on_c, 12, 55, 73
1, 241634, Control_c, 5, 10, 22
1, 241634, Control_c, 12, 10, 70
1, 241650, Note_on_c, 9, 42, 0
1, 241666, Note_on_c, 12, 55, 0
1, 241682, Note_on_c, 4, 82, 0
1, 241682, Control_c, 12, 10, 77
1, 241720, Note_on_c, 3, 67, 0
1, 241722, Note_on_c, 5, 65, 0
1, 241728, Note_on_c, 1, 43, 92
1, 241728, Note_on_c, 4, 79, 107
1, 241728, Note_on_c, 5, 62, 59
1, 241728, Note_on_c, 9, 46, 92
1, 241728, Note_on_c, 9, 70, 80
1, 241728, Note_on_c, 12, 55, 80
1, 241730, Control_c, 5, 10, 26
1, 241730, Control_c, 12, 10, 84
1, 241746, Note_on_c, 9, 70, 0
1, 241746, Note_on_c, 9, 46, 0
1, 241771, Note_on_c, 12, 55, 0
1, 241778, Control_c, 12, 10, 92
1, 241800, Note_on_c, 2, 58, 0
1, 241802, Control_c, 12, 6, 85
1, 241816, Note_on_c, 2, 43, 0
1, 241818, Note_on_c, 5, 62, 0
1, 241818, Note_on_c, 1, 43, 0
1, 241824, Note_on_c, 5, 65, 53
1, 241824, Note_on_c, 12, 55, 73
1, 241826, Control_c, 5, 10, 30
1, 241826, Control_c, 12, 10, 99
1, 241846, Control_c, 2, 64, 0
1, 241846, Control_c, 2, 64, 0
1, 241848, Control_c, 2, 64, 0
1, 241849, Control_c, 2, 64, 0
1, 241850, Control_c, 2, 64, 0
1, 241850, Control_c, 2, 64, 0
1, 241850, Control_c, 2, 64, 0
1, 241850, Control_c, 2, 64, 0
1, 241850, Control_c, 2, 64, 0
1, 241850, Control_c, 2, 64, 0
1, 241850, Control_c, 2, 64, 0
1, 241850, Control_c, 2, 64, 0
1, 241850, Control_c, 2, 64, 0
1, 241850, Control_c, 2, 64, 0
1, 241850, Control_c, 2, 64, 0
1, 241858, Note_on_c, 12, 55, 0
1, 241872, Note_on_c, 2, 45, 61
1, 241872, Note_on_c, 2, 57, 61
1, 241872, Note_on_c, 2, 60, 61
1, 241872, Note_on_c, 2, 64, 61
1, 241874, Control_c, 12, 10, 106
1, 241878, Note_on_c, 2, 55, 0
1, 241878, Note_on_c, 2, 62, 0
1, 241895, Note_on_c, 4, 79, 0
1, 241914, Note_on_c, 5, 65, 0
1, 241920, Note_on_c, 1, 31, 66
1, 241920, Note_on_c, 3, 67, 82
1, 241920, Note_on_c, 4, 84, 107
1, 241920, Note_on_c, 5, 58, 64
1, 241920, Note_on_c, 9, 36, 127
1, 241920, Note_on_c, 9, 45, 107
1, 241920, Note_on_c, 9, 42, 66
1, 241920, Note_on_c, 9, 70, 92
1, 241920, Note_on_c, 12, 55, 80
1, 241922, Control_c, 5, 10, 34
1, 241922, Control_c, 12, 10, 113
1, 241938, Note_on_c, 9, 70, 0
1, 241938, Note_on_c, 9, 36, 0
1, 241938, Note_on_c, 9, 42, 0
1, 241938, Note_on_c, 9, 45, 0
1, 241963, Note_on_c, 12, 55, 0
1, 241970, Control_c, 12, 10, 120
1, 242010, Note_on_c, 5, 58, 0
1, 242010, Note_on_c, 1, 31, 0
1, 242016, Note_on_c, 5, 65, 65
1, 242016, Note_on_c, 9, 42, 75
1, 242016, Note_on_c, 12, 55, 73
1, 242018, Control_c, 5, 10, 38
1, 242018, Control_c, 12, 6, 110
1, 242034, Note_on_c, 9, 42, 0
1, 242050, Note_on_c, 12, 55, 0
1, 242072, Note_on_c, 4, 84, 0
1, 242106, Note_on_c, 5, 65, 0
1, 242112, Note_on_c, 1, 43, 92
1, 242112, Note_on_c, 4, 79, 107
1, 242112, Note_on_c, 5, 70, 65
1, 242112, Note_on_c, 9, 46, 107
1, 242112, Note_on_c, 9, 70, 20
1, 242114, Control_c, 5, 10, 42
1, 242130, Note_on_c, 9, 70, 0
1, 242130, Note_on_c, 9, 46, 0
1, 242202, Note_on_c, 1, 43, 0
1, 242202, Note_on_c, 5, 70, 0
1, 242208, Note_on_c, 5, 65, 65
1, 242208, Note_on_c, 9, 70, 49
1, 242210, Control_c, 5, 10, 45
1, 242226, Note_on_c, 9, 70, 0
1, 242233, Note_on_c, 2, 45, 0
1, 242256, Note_on_c, 2, 46, 61
1, 242256, Note_on_c, 2, 58, 61
1, 242256, Note_on_c, 2, 62, 61
1, 242256, Note_on_c, 2, 65, 61
1, 242258, Note_on_c, 2, 57, 0
1, 242258, Note_on_c, 2, 64, 0
1, 242258, Note_on_c, 2, 60, 0
1, 242264, Note_on_c, 3, 67, 0
1, 242298, Note_on_c, 5, 65, 0
1, 242304, Note_on_c, 1, 31, 66
1, 242304, Note_on_c, 3, 69, 65
1, 242304, Note_on_c, 4, 86, 107
1, 242304, Note_on_c, 5, 74, 95
1, 242304, Note_on_c, 9, 45, 107
1, 242304, Note_on_c, 9, 38, 127
1, 242304, Note_on_c, 9, 39, 127
1, 242304, Note_on_c, 9, 36, 127
1, 242304, Note_on_c, 9, 42, 66
1, 242304, Note_on_c, 9, 70, 76
1, 242306, Control_c, 5, 10, 49
1, 242321, Note_on_c, 4, 79, 0
1, 242322, Note_on_c, 9, 70, 0
1, 242322, Note_on_c, 9, 39, 0
1, 242322, Note_on_c, 9, 45, 0
1, 242322, Note_on_c, 9, 42, 0
1, 242322, Note_on_c, 9, 38, 0
1, 242322, Note_on_c, 9, 36, 0
1, 242394, Note_on_c, 5, 74, 0
1, 242394, Note_on_c, 1, 31, 0
1, 242400, Note_on_c, 5, 65, 71
1, 242400, Note_on_c, 9, 42, 75
1, 242402, Control_c, 5, 10, 53
1, 242418, Note_on_c, 9, 42, 0
1, 242462, Note_on_c, 4, 86, 0
1, 242490, Note_on_c, 5, 65, 0
1, 242496, Note_on_c, 1, 43, 89
1, 242496, Note_on_c, 4, 79, 107
1, 242496, Note_on_c, 5, 58, 56
1, 242496, Note_on_c, 9, 46, 107
1, 242496, Note_on_c, 9, 70, 66
1, 242498, Control_c, 5, 10, 57
1, 242514, Note_on_c, 9, 70, 0
1, 242514, Note_on_c, 9, 46, 0
1, 242586, Note_on_c, 5, 58, 0
1, 242590, Note_on_c, 1, 43, 0
1, 242592, Note_on_c, 5, 62, 53
1, 242594, Control_c, 5, 10, 61
1, 242604, Note_on_c, 4, 79, 0
1, 242640, Note_on_c, 2, 48, 61
1, 242640, Note_on_c, 2, 60, 61
1, 242640, Note_on_c, 2, 64, 61
1, 242640, Note_on_c, 2, 67, 61
1, 242646, Note_on_c, 2, 65, 0
1, 242646, Note_on_c, 2, 62, 0
1, 242646, Note_on_c, 2, 58, 0
1, 242663, Note_on_c, 2, 46, 0
1, 242682, Note_on_c, 3, 69, 0
1, 242682, Note_on_c, 5, 62, 0
1, 242688, Note_on_c, 1, 36, 63
1, 242688, Note_on_c, 3, 67, 69
1, 242688, Note_on_c, 4, 91, 107
1, 242688, Note_on_c, 5, 55, 47
1, 242688, Note_on_c, 9, 45, 107
1, 242688, Note_on_c, 9, 36, 127
1, 242688, Note_on_c, 9, 42, 66
1, 242688, Note_on_c, 9, 70, 92
1, 242688, Note_on_c, 12, 48, 80
1, 242690, Control_c, 5, 10, 65
1, 242690, Control_c, 12, 10, 125
1, 242706, Note_on_c, 9, 70, 0
1, 242706, Note_on_c, 9, 45, 0
1, 242706, Note_on_c, 9, 42, 0
1, 242706, Note_on_c, 9, 36, 0
1, 242731, Note_on_c, 12, 48, 0
1, 242738, Control_c, 12, 10, 119
1, 242775, Note_on_c, 1, 36, 0
1, 242778, Note_on_c, 5, 55, 0
1, 242784, Note_on_c, 5, 58, 64
1, 242784, Note_on_c, 9, 42, 75
1, 242784, Note_on_c, 12, 48, 73
1, 242786, Control_c, 5, 10, 69
1, 242786, Control_c, 12, 10, 113
1, 242786, Control_c, 12, 6, 25
1, 242802, Note_on_c, 9, 42, 0
1, 242818, Note_on_c, 12, 48, 0
1, 242834, Control_c, 12, 10, 107
1, 242874, Note_on_c, 5, 58, 0
1, 242880, Note_on_c, 1, 48, 89
1, 242880, Note_on_c, 4, 88, 107
1, 242880, Note_on_c, 5, 60, 64
1, 242880, Note_on_c, 9, 46, 107
1, 242880, Note_on_c, 12, 48, 80
1, 242882, Control_c, 5, 10, 73
1, 242882, Control_c, 12, 10, 101
1, 242887, Note_on_c, 4, 91, 0
1, 242898, Note_on_c, 9, 46, 0
1, 242923, Note_on_c, 12, 48, 0
1, 242930, Control_c, 12, 10, 95
1, 242954, Control_c, 12, 6, 40
1, 242970, Note_on_c, 5, 60, 0
1, 242970, Note_on_c, 1, 48, 0
1, 242976, Note_on_c, 5, 62, 80
1, 242976, Note_on_c, 9, 70, 44
1, 242976, Note_on_c, 12, 48, 73
1, 242978, Control_c, 5, 10, 77
1, 242978, Control_c, 12, 10, 89
1, 242994, Note_on_c, 9, 70, 0
1, 243010, Note_on_c, 12, 48, 0
1, 243026, Control_c, 12, 10, 83
1, 243044, Note_on_c, 3, 67, 0
1, 243066, Note_on_c, 5, 62, 0
1, 243072, Note_on_c, 1, 36, 63
1, 243072, Note_on_c, 4, 84, 107
1, 243072, Note_on_c, 5, 67, 68
1, 243072, Note_on_c, 9, 45, 107
1, 243072, Note_on_c, 9, 38, 127
1, 243072, Note_on_c, 9, 39, 127
1, 243072, Note_on_c, 9, 36, 127
1, 243072, Note_on_c, 9, 42, 66
1, 243072, Note_on_c, 9, 70, 92
1, 243072, Note_on_c, 12, 48, 80
1, 243074, Control_c, 5, 10, 81
1, 243074, Control_c, 12, 10, 77
1, 243085, Note_on_c, 4, 88, 0
1, 243090, Note_on_c, 9, 38, 0
1, 243090, Note_on_c, 9, 36, 0
1, 243090, Note_on_c, 9, 45, 0
1, 243090, Note_on_c, 9, 70, 0
1, 243090, Note_on_c, 9, 39, 0
1, 243090, Note_on_c, 9, 42, 0
1, 243115, Note_on_c, 12, 48, 0
1, 243122, Control_c, 12, 10, 71
1, 243158, Control_c, 12, 6, 60
1, 243162, Note_on_c, 5, 67, 0
1, 243162, Note_on_c, 1, 36, 0
1, 243168, Note_on_c, 5, 70, 65
1, 243168, Note_on_c, 9, 42, 75
1, 243168, Note_on_c, 12, 48, 73
1, 243170, Control_c, 5, 10, 85
1, 243170, Control_c, 12, 10, 65
1, 243186, Note_on_c, 9, 42, 0
1, 243202, Note_on_c, 12, 48, 0
1, 243218, Control_c, 12, 10, 59
1, 243258, Note_on_c, 5, 70, 0
1, 243264, Note_on_c, 1, 48, 89
1, 243264, Note_on_c, 4, 88, 107
1, 243264, Note_on_c, 5, 74, 64
1, 243264, Note_on_c, 9, 46, 107
1, 243264, Note_on_c, 9, 70, 80
1, 243264, Note_on_c, 12, 48, 80
1, 243266, Control_c, 5, 10, 88
1, 243266, Control_c, 12, 10, 53
1, 243282, Note_on_c, 9, 70, 0
1, 243282, Note_on_c, 9, 46, 0
1, 243307, Note_on_c, 12, 48, 0
1, 243312, Note_on_c, 4, 84, 0
1, 243314, Control_c, 12, 10, 47
1, 243354, Note_on_c, 5, 74, 0
1, 243354, Note_on_c, 1, 48, 0
1, 243360, Note_on_c, 5, 77, 71
1, 243360, Note_on_c, 12, 48, 73
1, 243362, Control_c, 5, 10, 92
1, 243362, Control_c, 12, 10, 41
1, 243394, Note_on_c, 12, 48, 0
1, 243410, Control_c, 12, 10, 35
1, 243432, Note_on_c, 4, 88, 0
1, 243450, Note_on_c, 5, 77, 0
1, 243456, Note_on_c, 1, 36, 63
1, 243456, Note_on_c, 3, 65, 89
1, 243456, Note_on_c, 4, 91, 107
1, 243456, Note_on_c, 5, 79, 80
1, 243456, Note_on_c, 9, 45, 107
1, 243456, Note_on_c, 9, 36, 127
1, 243456, Note_on_c, 9, 42, 66
1, 243456, Note_on_c, 9, 70, 86
1, 243456, Note_on_c, 12, 48, 80
1, 243458, Control_c, 5, 10, 96
1, 243458, Control_c, 12, 10, 29
1, 243474, Note_on_c, 9, 70, 0
1, 243474, Note_on_c, 9, 45, 0
1, 243474, Note_on_c, 9, 42, 0
1, 243474, Note_on_c, 9, 36, 0
1, 243499, Note_on_c, 12, 48, 0
1, 243506, Control_c, 12, 10, 23
1, 243546, Note_on_c, 5, 79, 0
1, 243546, Note_on_c, 1, 36, 0
1, 243552, Note_on_c, 5, 74, 71
1, 243552, Note_on_c, 9, 42, 75
1, 243552, Note_on_c, 12, 48, 73
1, 243554, Control_c, 5, 10, 100
1, 243554, Control_c, 12, 10, 17
1, 243570, Note_on_c, 9, 42, 0
1, 243586, Note_on_c, 12, 48, 0
1, 243602, Control_c, 12, 10, 11
1, 243642, Note_on_c, 5, 74, 0
1, 243648, Note_on_c, 1, 48, 86
1, 243648, Note_on_c, 4, 88, 107
1, 243648, Note_on_c, 5, 72, 71
1, 243648, Note_on_c, 9, 46, 107
1, 243648, Note_on_c, 9, 70, 13
1, 243650, Control_c, 5, 10, 104
1, 243650, Control_c, 12, 10, 5
1, 243666, Note_on_c, 9, 70, 0
1, 243666, Note_on_c, 9, 46, 0
1, 243679, Note_on_c, 4, 91, 0
1, 243738, Note_on_c, 1, 48, 0
1, 243738, Note_on_c, 5, 72, 0
1, 243744, Note_on_c, 5, 70, 65
1, 243744, Note_on_c, 9, 70, 26
1, 243746, Control_c, 5, 10, 108
1, 243762, Note_on_c, 9, 70, 0
1, 243806, Note_on_c, 3, 65, 0
1, 243809, Note_on_c, 4, 88, 0
1, 243834, Note_on_c, 5, 70, 0
1, 243840, Note_on_c, 1, 36, 63
1, 243840, Note_on_c, 3, 69, 76
1, 243840, Note_on_c, 4, 84, 107
1, 243840, Note_on_c, 5, 67, 68
1, 243840, Note_on_c, 9, 45, 107
1, 243840, Note_on_c, 9, 38, 127
1, 243840, Note_on_c, 9, 39, 127
1, 243840, Note_on_c, 9, 36, 127
1, 243840, Note_on_c, 9, 42, 66
1, 243840, Note_on_c, 9, 70, 92
1, 243842, Control_c, 5, 10, 112
1, 243858, Note_on_c, 9, 70, 0
1, 243858, Note_on_c, 9, 39, 0
1, 243858, Note_on_c, 9, 45, 0
1, 243858, Note_on_c, 9, 42, 0
1, 243858, Note_on_c, 9, 38, 0
1, 243858, Note_on_c, 9, 36, 0
1, 243930, Note_on_c, 5, 67, 0
1, 243930, Note_on_c, 1, 36, 0
1, 243936, Note_on_c, 5, 62, 80
1, 243936, Note_on_c, 9, 42, 75
1, 243938, Control_c, 5, 10, 116
1, 243954, Note_on_c, 9, 42, 0
1, 244026, Note_on_c, 5, 62, 0
1, 244032, Note_on_c, 1, 48, 86
1, 244032, Note_on_c, 4, 88, 107
1, 244032, Note_on_c, 5, 67, 80
1, 244032, Note_on_c, 9, 46, 107
1, 244032, Note_on_c, 9, 70, 63
1, 244034, Control_c, 5, 10, 120
1, 244050, Note_on_c, 9, 70, 0
1, 244050, Note_on_c, 9, 46, 0
1, 244057, Note_on_c, 2, 67, 0
1, 244079, Note_on_c, 4, 84, 0
1, 244122, Note_on_c, 5, 67, 0
1, 244122, Note_on_c, 3, 69, 0
1, 244126, Note_on_c, 1, 48, 0
1, 244128, Note_on_c, 5, 62, 80
1, 244130, Control_c, 5, 10, 124
1, 244130, Control_c, 12, 6, 10
1, 244176, Note_on_c, 2, 50, 61
1, 244176, Note_on_c, 2, 57, 61
1, 244176, Note_on_c, 2, 62, 61
1, 244176, Note_on_c, 2, 67, 61
1, 244182, Note_on_c, 2, 48, 0
1, 244182, Note_on_c, 2, 64, 0
1, 244182, Note_on_c, 2, 60, 0
1, 244218, Note_on_c, 5, 62, 0
1, 244222, Note_on_c, 4, 88, 0
1, 244224, Note_on_c, 1, 38, 60
1, 244224, Note_on_c, 3, 69, 80
1, 244224, Note_on_c, 4, 93, 107
1, 244224, Note_on_c, 5, 55, 59
1, 244224, Note_on_c, 9, 45, 107
1, 244224, Note_on_c, 9, 36, 127
1, 244224, Note_on_c, 9, 42, 66
1, 244224, Note_on_c, 9, 70, 92
1, 244224, Note_on_c, 12, 50, 80
1, 244226, Control_c, 5, 10, 127
1, 244226, Control_c, 5, 11, 127
1, 244242, Note_on_c, 9, 70, 0
1, 244242, Note_on_c, 9, 45, 0
1, 244242, Note_on_c, 9, 42, 0
1, 244242, Note_on_c, 9, 36, 0
1, 244267, Note_on_c, 12, 50, 0
1, 244274, Control_c, 12, 10, 5
1, 244311, Note_on_c, 1, 38, 0
1, 244314, Note_on_c, 5, 55, 0
1, 244320, Note_on_c, 5, 62, 74
1, 244320, Note_on_c, 9, 42, 75
1, 244320, Note_on_c, 12, 50, 73
1, 244322, Control_c, 5, 10, 124
1, 244322, Control_c, 12, 10, 13
1, 244322, Control_c, 12, 6, 25
1, 244338, Note_on_c, 9, 42, 0
1, 244354, Note_on_c, 12, 50, 0
1, 244370, Control_c, 12, 10, 20
1, 244410, Note_on_c, 5, 62, 0
1, 244416, Note_on_c, 1, 50, 92
1, 244416, Note_on_c, 4, 91, 107
1, 244416, Note_on_c, 5, 67, 64
1, 244416, Note_on_c, 9, 46, 107
1, 244416, Note_on_c, 12, 50, 80
1, 244418, Control_c, 5, 10, 120
1, 244418, Control_c, 12, 10, 27
1, 244434, Note_on_c, 9, 46, 0
1, 244459, Note_on_c, 12, 50, 0
1, 244466, Control_c, 12, 10, 34
1, 244472, Note_on_c, 4, 93, 0
1, 244490, Control_c, 12, 6, 40
1, 244506, Note_on_c, 1, 50, 0
1, 244512, Note_on_c, 5, 69, 64
1, 244512, Note_on_c, 9, 70, 40
1, 244512, Note_on_c, 12, 50, 73
1, 244514, Control_c, 5, 10, 116
1, 244514, Control_c, 12, 10, 41
1, 244530, Note_on_c, 9, 70, 0
1, 244531, Note_on_c, 5, 67, 0
1, 244546, Note_on_c, 12, 50, 0
1, 244562, Control_c, 12, 10, 49
1, 244602, Note_on_c, 5, 69, 0
1, 244608, Note_on_c, 1, 38, 66
1, 244608, Note_on_c, 4, 86, 107
1, 244608, Note_on_c, 5, 79, 92
1, 244608, Note_on_c, 9, 45, 107
1, 244608, Note_on_c, 9, 36, 127
1, 244608, Note_on_c, 9, 38, 127
1, 244608, Note_on_c, 9, 39, 127
1, 244608, Note_on_c, 9, 42, 66
1, 244608, Note_on_c, 9, 70, 86
1, 244608, Note_on_c, 12, 50, 80
1, 244610, Control_c, 5, 10, 112
1, 244610, Control_c, 12, 10, 56
1, 244611, Note_on_c, 4, 91, 0
1, 244626, Note_on_c, 9, 70, 0
1, 244626, Note_on_c, 9, 45, 0
1, 244626, Note_on_c, 9, 38, 0
1, 244626, Note_on_c, 9, 42, 0
1, 244626, Note_on_c, 9, 36, 0
1, 244626, Note_on_c, 9, 39, 0
1, 244651, Note_on_c, 12, 50, 0
1, 244658, Control_c, 12, 10, 63
1, 244694, Control_c, 12, 6, 60
1, 244698, Note_on_c, 1, 38, 0
1, 244698, Note_on_c, 5, 79, 0
1, 244704, Note_on_c, 5, 69, 64
1, 244704, Note_on_c, 9, 42, 75
1, 244704, Note_on_c, 12, 50, 73
1, 244706, Control_c, 5, 10, 108
1, 244706, Control_c, 12, 10, 70
1, 244722, Note_on_c, 9, 42, 0
1, 244738, Note_on_c, 12, 50, 0
1, 244754, Control_c, 12, 10, 77
1, 244794, Note_on_c, 5, 69, 0
1, 244800, Note_on_c, 1, 50, 92
1, 244800, Note_on_c, 4, 91, 107
1, 244800, Note_on_c, 5, 65, 64
1, 244800, Note_on_c, 9, 46, 92
1, 244800, Note_on_c, 9, 70, 80
1, 244800, Note_on_c, 12, 50, 80
1, 244802, Control_c, 5, 10, 104
1, 244802, Control_c, 12, 10, 84
1, 244818, Note_on_c, 9, 70, 0
1, 244818, Note_on_c, 9, 46, 0
1, 244835, Note_on_c, 4, 86, 0
1, 244843, Note_on_c, 12, 50, 0
1, 244850, Control_c, 12, 10, 92
1, 244874, Control_c, 12, 6, 85
1, 244890, Note_on_c, 1, 50, 0
1, 244896, Note_on_c, 5, 62, 74
1, 244896, Note_on_c, 12, 50, 73
1, 244898, Control_c, 5, 10, 100
1, 244898, Control_c, 12, 10, 99
1, 244915, Note_on_c, 5, 65, 0
1, 244930, Note_on_c, 12, 50, 0
1, 244944, Note_on_c, 2, 66, 61
1, 244946, Control_c, 12, 10, 106
1, 244967, Note_on_c, 2, 67, 0
1, 244981, Note_on_c, 4, 91, 0
1, 244986, Note_on_c, 5, 62, 0
1, 244992, Note_on_c, 1, 38, 66
1, 244992, Note_on_c, 4, 93, 107
1, 244992, Note_on_c, 5, 54, 59
1, 244992, Note_on_c, 9, 45, 107
1, 244992, Note_on_c, 9, 36, 127
1, 244992, Note_on_c, 9, 42, 66
1, 244992, Note_on_c, 9, 70, 92
1, 244992, Note_on_c, 12, 50, 80
1, 244994, Control_c, 5, 10, 96
1, 244994, Control_c, 12, 10, 113
1, 245010, Note_on_c, 9, 70, 0
1, 245010, Note_on_c, 9, 45, 0
1, 245010, Note_on_c, 9, 42, 0
1, 245010, Note_on_c, 9, 36, 0
1, 245035, Note_on_c, 12, 50, 0
1, 245042, Control_c, 12, 10, 120
1, 245082, Note_on_c, 5, 54, 0
1, 245082, Note_on_c, 1, 38, 0
1, 245088, Note_on_c, 5, 62, 74
1, 245088, Note_on_c, 9, 42, 75
1, 245088, Note_on_c, 12, 50, 73
1, 245090, Control_c, 5, 10, 92
1, 245090, Control_c, 12, 6, 110
1, 245106, Note_on_c, 9, 42, 0
1, 245122, Note_on_c, 12, 50, 0
1, 245178, Note_on_c, 5, 62, 0
1, 245184, Note_on_c, 1, 50, 92
1, 245184, Note_on_c, 4, 90, 107
1, 245184, Note_on_c, 5, 67, 64
1, 245184, Note_on_c, 9, 46, 107
1, 245184, Note_on_c, 9, 70, 20
1, 245186, Control_c, 5, 10, 88
1, 245202, Note_on_c, 9, 70, 0
1, 245202, Note_on_c, 9, 46, 0
1, 245265, Note_on_c, 4, 93, 0
1, 245274, Note_on_c, 1, 50, 0
1, 245280, Note_on_c, 5, 69, 64
1, 245280, Note_on_c, 9, 70, 49
1, 245282, Control_c, 5, 10, 84
1, 245298, Note_on_c, 9, 70, 0
1, 245299, Note_on_c, 5, 67, 0
1, 245365, Note_on_c, 4, 90, 0
1, 245370, Note_on_c, 5, 69, 0
1, 245376, Note_on_c, 1, 38, 66
1, 245376, Note_on_c, 4, 86, 107
1, 245376, Note_on_c, 5, 78, 92
1, 245376, Note_on_c, 9, 45, 107
1, 245376, Note_on_c, 9, 38, 127
1, 245376, Note_on_c, 9, 39, 127
1, 245376, Note_on_c, 9, 36, 127
1, 245376, Note_on_c, 9, 42, 66
1, 245376, Note_on_c, 9, 70, 76
1, 245378, Control_c, 5, 10, 80
1, 245394, Note_on_c, 9, 70, 0
1, 245394, Note_on_c, 9, 39, 0
1, 245394, Note_on_c, 9, 45, 0
1, 245394, Note_on_c, 9, 42, 0
1, 245394, Note_on_c, 9, 38, 0
1, 245394, Note_on_c, 9, 36, 0
1, 245466, Note_on_c, 5, 78, 0
1, 245466, Note_on_c, 1, 38, 0
1, 245466, Note_on_c, 3, 69, 0
1, 245472, Note_on_c, 5, 74, 64
1, 245472, Note_on_c, 9, 42, 75
1, 245474, Control_c, 5, 10, 76
1, 245490, Note_on_c, 9, 42, 0
1, 245562, Note_on_c, 5, 74, 0
1, 245568, Note_on_c, 1, 50, 89
1, 245568, Note_on_c, 4, 90, 107
1, 245568, Note_on_c, 5, 69, 64
1, 245568, Note_on_c, 9, 46, 107
1, 245568, Note_on_c, 9, 70, 66
1, 245570, Control_c, 5, 10, 72
1, 245586, Note_on_c, 9, 70, 0
1, 245586, Note_on_c, 9, 46, 0
1, 245615, Note_on_c, 4, 86, 0
1, 245662, Note_on_c, 1, 50, 0
1, 245664, Note_on_c, 5, 62, 74
1, 245666, Control_c, 5, 10, 68
1, 245666, Control_c, 12, 6, 10
1, 245683, Note_on_c, 5, 69, 0
1, 245693, Note_on_c, 4, 90, 0
1, 245706, Note_on_c, 2, 62, 0
1, 245712, Note_on_c, 2, 43, 61
1, 245712, Note_on_c, 2, 62, 61
1, 245712, Note_on_c, 2, 67, 61
1, 245712, Note_on_c, 2, 70, 61
1, 245714, Note_on_c, 2, 66, 0
1, 245715, Note_on_c, 2, 50, 0
1, 245724, Note_on_c, 2, 57, 0
1, 245739, Note_on_c, 2, 62, 0
1, 245754, Note_on_c, 5, 62, 0
1, 245760, Note_on_c, 1, 31, 95
1, 245760, Note_on_c, 3, 70, 101
1, 245760, Note_on_c, 5, 55, 59
1, 245760, Note_on_c, 9, 38, 127
1, 245760, Note_on_c, 9, 50, 127
1, 245760, Note_on_c, 9, 42, 66
1, 245760, Note_on_c, 9, 70, 92
1, 245760, Note_on_c, 12, 55, 80
1, 245762, Control_c, 5, 10, 64
1, 245762, Control_c, 5, 11, 125
1, 245762, Control_c, 12, 10, 125
1, 245778, Note_on_c, 9, 70, 0
1, 245778, Note_on_c, 9, 42, 0
1, 245778, Note_on_c, 9, 38, 0
1, 245778, Note_on_c, 9, 50, 0
1, 245803, Note_on_c, 12, 55, 0
1, 245810, Control_c, 12, 10, 119
1, 245850, Note_on_c, 1, 31, 0
1, 245850, Note_on_c, 5, 55, 0
1, 245856, Note_on_c, 5, 62, 74
1, 245856, Note_on_c, 9, 42, 75
1, 245856, Note_on_c, 12, 55, 73
1, 245858, Control_c, 5, 10, 60
1, 245858, Control_c, 5, 11, 120
1, 245858, Control_c, 12, 10, 113
1, 245858, Control_c, 12, 6, 25
1, 245874, Note_on_c, 9, 42, 0
1, 245890, Note_on_c, 12, 55, 0
1, 245906, Control_c, 12, 10, 107
1, 245946, Note_on_c, 5, 62, 0
1, 245952, Note_on_c, 5, 67, 64
1, 245952, Note_on_c, 9, 46, 107
1, 245952, Note_on_c, 12, 55, 80
1, 245954, Control_c, 5, 10, 56
1, 245954, Control_c, 5, 11, 116
1, 245954, Control_c, 12, 10, 101
1, 245970, Note_on_c, 9, 46, 0
1, 245995, Note_on_c, 12, 55, 0
1, 246002, Control_c, 12, 10, 95
1, 246026, Control_c, 12, 6, 40
1, 246048, Note_on_c, 5, 70, 64
1, 246048, Note_on_c, 9, 70, 44
1, 246048, Note_on_c, 12, 55, 73
1, 246050, Control_c, 5, 10, 52
1, 246050, Control_c, 5, 11, 111
1, 246050, Control_c, 12, 10, 89
1, 246066, Note_on_c, 9, 70, 0
1, 246067, Note_on_c, 5, 67, 0
1, 246069, Control_c, 2, 64, 127
1, 246069, Control_c, 2, 64, 127
1, 246069, Control_c, 2, 64, 127
1, 246069, Control_c, 2, 64, 127
1, 246071, Control_c, 2, 64, 127
1, 246071, Control_c, 2, 64, 127
1, 246072, Control_c, 2, 64, 127
1, 246072, Control_c, 2, 64, 127
1, 246073, Control_c, 2, 64, 127
1, 246073, Control_c, 2, 64, 127
1, 246075, Control_c, 2, 64, 127
1, 246075, Control_c, 2, 64, 127
1, 246076, Control_c, 2, 64, 127
1, 246076, Control_c, 2, 64, 127
1, 246077, Control_c, 2, 64, 127
1, 246077, Control_c, 2, 64, 127
1, 246079, Control_c, 2, 64, 127
1, 246079, Control_c, 2, 64, 127
1, 246080, Control_c, 2, 64, 127
1, 246080, Control_c, 2, 64, 127
1, 246081, Control_c, 2, 64, 127
1, 246081, Control_c, 2, 64, 127
1, 246081, Control_c, 2, 64, 127
1, 246081, Control_c, 2, 64, 127
1, 246082, Note_on_c, 12, 55, 0
1, 246082, Control_c, 2, 64, 127
1, 246082, Control_c, 2, 64, 127
1, 246083, Control_c, 2, 64, 127
1, 246083, Control_c, 2, 64, 127
1, 246084, Control_c, 2, 64, 127
1, 246084, Control_c, 2, 64, 127
1, 246098, Control_c, 12, 10, 83
1, 246138, Note_on_c, 5, 70, 0
1, 246144, Note_on_c, 1, 31, 95
1, 246144, Note_on_c, 5, 74, 92
1, 246144, Note_on_c, 9, 38, 127
1, 246144, Note_on_c, 9, 50, 127
1, 246144, Note_on_c, 9, 42, 66
1, 246144, Note_on_c, 9, 70, 92
1, 246144, Note_on_c, 12, 55, 80
1, 246146, Control_c, 5, 10, 48
1, 246146, Control_c, 5, 11, 107
1, 246146, Control_c, 12, 10, 77
1, 246162, Note_on_c, 9, 70, 0
1, 246162, Note_on_c, 9, 42, 0
1, 246162, Note_on_c, 9, 38, 0
1, 246162, Note_on_c, 9, 50, 0
1, 246187, Note_on_c, 12, 55, 0
1, 246194, Control_c, 12, 10, 71
1, 246230, Control_c, 12, 6, 60
1, 246234, Note_on_c, 5, 74, 0
1, 246234, Note_on_c, 1, 31, 0
1, 246240, Note_on_c, 5, 70, 64
1, 246240, Note_on_c, 9, 42, 75
1, 246240, Note_on_c, 12, 55, 73
1, 246242, Control_c, 5, 10, 44
1, 246242, Control_c, 5, 11, 102
1, 246242, Control_c, 12, 10, 65
1, 246258, Note_on_c, 9, 42, 0
1, 246274, Note_on_c, 12, 55, 0
1, 246290, Control_c, 12, 10, 59
1, 246330, Note_on_c, 5, 70, 0
1, 246336, Note_on_c, 5, 67, 64
1, 246336, Note_on_c, 9, 46, 107
1, 246336, Note_on_c, 9, 70, 80
1, 246336, Note_on_c, 12, 55, 80
1, 246338, Control_c, 5, 10, 40
1, 246338, Control_c, 5, 11, 98
1, 246338, Control_c, 12, 10, 53
1, 246354, Note_on_c, 9, 70, 0
1, 246354, Note_on_c, 9, 46, 0
1, 246379, Note_on_c, 12, 55, 0
1, 246386, Control_c, 12, 10, 47
1, 246410, Control_c, 12, 6, 85
1, 246432, Note_on_c, 1, 31, 95
1, 246432, Note_on_c, 5, 62, 74
1, 246432, Note_on_c, 9, 38, 127
1, 246432, Note_on_c, 9, 50, 127
1, 246432, Note_on_c, 12, 55, 73
1, 246434, Control_c, 5, 10, 36
1, 246434, Control_c, 5, 11, 93
1, 246434, Control_c, 12, 10, 41
1, 246450, Note_on_c, 9, 38, 0
1, 246450, Note_on_c, 9, 50, 0
1, 246451, Note_on_c, 5, 67, 0
1, 246466, Note_on_c, 12, 55, 0
1, 246474, Note_on_c, 2, 43, 0
1, 246474, Note_on_c, 2, 67, 0
1, 246474, Note_on_c, 2, 70, 0
1, 246480, Note_on_c, 2, 45, 61
1, 246480, Note_on_c, 2, 60, 61
1, 246480, Note_on_c, 2, 65, 61
1, 246480, Note_on_c, 2, 69, 61
1, 246482, Control_c, 12, 10, 35
1, 246508, Note_on_c, 3, 70, 0
1, 246522, Note_on_c, 5, 62, 0
1, 246522, Note_on_c, 1, 31, 0
1, 246528, Note_on_c, 1, 33, 95
1, 246528, Note_on_c, 3, 69, 87
1, 246528, Note_on_c, 5, 53, 59
1, 246528, Note_on_c, 9, 38, 127
1, 246528, Note_on_c, 9, 50, 127
1, 246528, Note_on_c, 9, 42, 66
1, 246528, Note_on_c, 9, 70, 86
1, 246530, Control_c, 5, 10, 32
1, 246530, Control_c, 5, 11, 89
1, 246530, Control_c, 12, 10, 29
1, 246542, Control_c, 2, 64, 0
1, 246542, Control_c, 2, 64, 0
1, 246542, Control_c, 2, 64, 0
1, 246542, Control_c, 2, 64, 0
1, 246542, Control_c, 2, 64, 0
1, 246542, Control_c, 2, 64, 0
1, 246542, Control_c, 2, 64, 0
1, 246542, Control_c, 2, 64, 0
1, 246542, Control_c, 2, 64, 0
1, 246542, Control_c, 2, 64, 0
1, 246542, Control_c, 2, 64, 0
1, 246542, Control_c, 2, 64, 0
1, 246542, Control_c, 2, 64, 0
1, 246542, Control_c, 2, 64, 0
1, 246542, Control_c, 2, 64, 0
1, 246542, Control_c, 2, 64, 0
1, 246542, Control_c, 2, 64, 0
1, 246542, Control_c, 2, 64, 0
1, 246542, Control_c, 2, 64, 0
1, 246542, Control_c, 2, 64, 0
1, 246542, Control_c, 2, 64, 0
1, 246542, Control_c, 2, 64, 0
1, 246542, Control_c, 2, 64, 0
1, 246542, Control_c, 2, 64, 0
1, 246542, Control_c, 2, 64, 0
1, 246542, Control_c, 2, 64, 0
1, 246542, Control_c, 2, 64, 0
1, 246542, Control_c, 2, 64, 0
1, 246542, Control_c, 2, 64, 0
1, 246542, Control_c, 2, 64, 0
1, 246546, Note_on_c, 9, 70, 0
1, 246546, Note_on_c, 9, 38, 0
1, 246546, Note_on_c, 9, 50, 0
1, 246546, Note_on_c, 9, 42, 0
1, 246578, Control_c, 12, 10, 23
1, 246618, Note_on_c, 5, 53, 0
1, 246618, Note_on_c, 1, 33, 0
1, 246624, Note_on_c, 5, 60, 74
1, 246624, Note_on_c, 9, 42, 75
1, 246626, Control_c, 5, 10, 28
1, 246626, Control_c, 5, 11, 84
1, 246626, Control_c, 12, 10, 17
1, 246626, Control_c, 12, 6, 110
1, 246642, Note_on_c, 9, 42, 0
1, 246674, Control_c, 12, 10, 11
1, 246714, Note_on_c, 5, 60, 0
1, 246720, Note_on_c, 1, 33, 95
1, 246720, Note_on_c, 5, 65, 64
1, 246720, Note_on_c, 9, 38, 127
1, 246720, Note_on_c, 9, 50, 127
1, 246720, Note_on_c, 9, 46, 107
1, 246720, Note_on_c, 9, 70, 13
1, 246722, Control_c, 5, 10, 24
1, 246722, Control_c, 5, 11, 80
1, 246722, Control_c, 12, 10, 5
1, 246738, Note_on_c, 9, 70, 0
1, 246738, Note_on_c, 9, 38, 0
1, 246738, Note_on_c, 9, 50, 0
1, 246738, Note_on_c, 9, 46, 0
1, 246810, Note_on_c, 1, 33, 0
1, 246816, Note_on_c, 5, 72, 64
1, 246816, Note_on_c, 9, 70, 26
1, 246818, Control_c, 5, 10, 20
1, 246818, Control_c, 5, 11, 75
1, 246834, Note_on_c, 9, 70, 0
1, 246835, Note_on_c, 5, 65, 0
1, 246896, Control_c, 2, 64, 127
1, 246896, Control_c, 2, 64, 127
1, 246896, Control_c, 2, 64, 127
1, 246896, Control_c, 2, 64, 127
1, 246896, Control_c, 2, 64, 127
1, 246896, Control_c, 2, 64, 127
1, 246896, Control_c, 2, 64, 127
1, 246896, Control_c, 2, 64, 127
1, 246896, Control_c, 2, 64, 127
1, 246896, Control_c, 2, 64, 127
1, 246896, Control_c, 2, 64, 127
1, 246896, Control_c, 2, 64, 127
1, 246896, Control_c, 2, 64, 127
1, 246896, Control_c, 2, 64, 127
1, 246896, Control_c, 2, 64, 127
1, 246896, Control_c, 2, 64, 127
1, 246896, Control_c, 2, 64, 127
1, 246896, Control_c, 2, 64, 127
1, 246896, Control_c, 2, 64, 127
1, 246896, Control_c, 2, 64, 127
1, 246896, Control_c, 2, 64, 127
1, 246896, Control_c, 2, 64, 127
1, 246896, Control_c, 2, 64, 127
1, 246896, Control_c, 2, 64, 127
1, 246896, Control_c, 2, 64, 127
1, 246896, Control_c, 2, 64, 127
1, 246896, Control_c, 2, 64, 127
1, 246896, Control_c, 2, 64, 127
1, 246896, Control_c, 2, 64, 127
1, 246896, Control_c, 2, 64, 127
1, 246906, Note_on_c, 5, 72, 0
1, 246912, Note_on_c, 1, 33, 95
1, 246912, Note_on_c, 5, 77, 92
1, 246912, Note_on_c, 9, 38, 127
1, 246912, Note_on_c, 9, 50, 127
1, 246912, Note_on_c, 9, 42, 66
1, 246912, Note_on_c, 9, 70, 92
1, 246914, Control_c, 5, 10, 16
1, 246914, Control_c, 5, 11, 71
1, 246930, Note_on_c, 9, 70, 0
1, 246930, Note_on_c, 9, 38, 0
1, 246930, Note_on_c, 9, 50, 0
1, 246930, Note_on_c, 9, 42, 0
1, 247002, Note_on_c, 5, 77, 0
1, 247002, Note_on_c, 1, 33, 0
1, 247008, Note_on_c, 5, 72, 64
1, 247008, Note_on_c, 9, 42, 75
1, 247010, Control_c, 5, 10, 12
1, 247010, Control_c, 5, 11, 66
1, 247026, Note_on_c, 9, 42, 0
1, 247098, Note_on_c, 5, 72, 0
1, 247104, Note_on_c, 1, 33, 95
1, 247104, Note_on_c, 5, 65, 64
1, 247104, Note_on_c, 9, 38, 127
1, 247104, Note_on_c, 9, 50, 127
1, 247104, Note_on_c, 9, 46, 107
1, 247104, Note_on_c, 9, 70, 63
1, 247106, Control_c, 5, 10, 8
1, 247106, Control_c, 5, 11, 62
1, 247122, Note_on_c, 9, 70, 0
1, 247122, Note_on_c, 9, 38, 0
1, 247122, Note_on_c, 9, 50, 0
1, 247122, Note_on_c, 9, 46, 0
1, 247194, Note_on_c, 1, 33, 0
1, 247200, Note_on_c, 1, 33, 95
1, 247200, Note_on_c, 5, 60, 74
1, 247200, Note_on_c, 9, 38, 127
1, 247200, Note_on_c, 9, 50, 127
1, 247202, Control_c, 5, 10, 4
1, 247202, Control_c, 5, 11, 58
1, 247202, Control_c, 12, 6, 10
1, 247218, Note_on_c, 9, 38, 0
1, 247218, Note_on_c, 9, 50, 0
1, 247219, Note_on_c, 5, 65, 0
1, 247242, Note_on_c, 2, 65, 0
1, 247248, Note_on_c, 2, 46, 61
1, 247248, Note_on_c, 2, 58, 61
1, 247248, Note_on_c, 2, 62, 61
1, 247248, Note_on_c, 2, 65, 61
1, 247254, Note_on_c, 2, 65, 0
1, 247254, Note_on_c, 2, 45, 0
1, 247254, Note_on_c, 2, 60, 0
1, 247254, Note_on_c, 2, 69, 0
1, 247256, Control_c, 2, 64, 0
1, 247256, Control_c, 2, 64, 0
1, 247256, Control_c, 2, 64, 0
1, 247256, Control_c, 2, 64, 0
1, 247256, Control_c, 2, 64, 0
1, 247256, Control_c, 2, 64, 0
1, 247256, Control_c, 2, 64, 0
1, 247256, Control_c, 2, 64, 0
1, 247256, Control_c, 2, 64, 0
1, 247256, Control_c, 2, 64, 0
1, 247256, Control_c, 2, 64, 0
1, 247256, Control_c, 2, 64, 0
1, 247256, Control_c, 2, 64, 0
1, 247256, Control_c, 2, 64, 0
1, 247256, Control_c, 2, 64, 0
1, 247256, Control_c, 2, 64, 0
1, 247256, Control_c, 2, 64, 0
1, 247256, Control_c, 2, 64, 0
1, 247256, Control_c, 2, 64, 0
1, 247256, Control_c, 2, 64, 0
1, 247256, Control_c, 2, 64, 0
1, 247256, Control_c, 2, 64, 0
1, 247256, Control_c, 2, 64, 0
1, 247256, Control_c, 2, 64, 0
1, 247256, Control_c, 2, 64, 0
1, 247256, Control_c, 2, 64, 0
1, 247256, Control_c, 2, 64, 0
1, 247256, Control_c, 2, 64, 0
1, 247256, Control_c, 2, 64, 0
1, 247256, Control_c, 2, 64, 0
1, 247290, Note_on_c, 1, 33, 0
1, 247290, Note_on_c, 5, 60, 0
1, 247290, Note_on_c, 3, 69, 0
1, 247296, Note_on_c, 1, 46, 60
1, 247296, Note_on_c, 3, 65, 89
1, 247296, Note_on_c, 4, 89, 107
1, 247296, Note_on_c, 5, 58, 64
1, 247296, Note_on_c, 9, 42, 76
1, 247296, Note_on_c, 9, 70, 102
1, 247296, Note_on_c, 9, 57, 117
1, 247296, Note_on_c, 11, 46, 60
1, 247296, Note_on_c, 12, 53, 80
1, 247298, Control_c, 5, 11, 127
1, 247298, Control_c, 5, 10, 9
1, 247314, Note_on_c, 9, 57, 0
1, 247314, Note_on_c, 9, 70, 0
1, 247314, Note_on_c, 9, 42, 0
1, 247339, Note_on_c, 12, 53, 0
1, 247346, Control_c, 12, 10, 5
1, 247383, Note_on_c, 1, 46, 0
1, 247383, Note_on_c, 11, 46, 0
1, 247386, Note_on_c, 5, 58, 0
1, 247392, Note_on_c, 5, 65, 65
1, 247392, Note_on_c, 9, 42, 85
1, 247392, Note_on_c, 12, 53, 73
1, 247394, Control_c, 5, 10, 13
1, 247394, Control_c, 12, 10, 13
1, 247394, Control_c, 12, 6, 25
1, 247410, Note_on_c, 9, 42, 0
1, 247426, Note_on_c, 12, 53, 0
1, 247442, Control_c, 12, 10, 20
1, 247482, Note_on_c, 5, 65, 0
1, 247488, Note_on_c, 1, 46, 92
1, 247488, Note_on_c, 4, 86, 107
1, 247488, Note_on_c, 5, 70, 80
1, 247488, Note_on_c, 6, 65, 125
1, 247488, Note_on_c, 9, 46, 117
1, 247488, Note_on_c, 11, 46, 92
1, 247488, Note_on_c, 12, 53, 80
1, 247490, Control_c, 5, 10, 17
1, 247490, Control_c, 12, 10, 27
1, 247506, Note_on_c, 9, 46, 0
1, 247520, Note_on_c, 4, 89, 0
1, 247531, Note_on_c, 12, 53, 0
1, 247538, Control_c, 12, 10, 34
1, 247562, Control_c, 12, 6, 40
1, 247578, Note_on_c, 1, 46, 0
1, 247578, Note_on_c, 11, 46, 0
1, 247584, Note_on_c, 5, 74, 68
1, 247584, Note_on_c, 9, 70, 50
1, 247584, Note_on_c, 12, 53, 73
1, 247586, Control_c, 5, 10, 20
1, 247586, Control_c, 12, 10, 41
1, 247602, Note_on_c, 9, 70, 0
1, 247603, Note_on_c, 5, 70, 0
1, 247618, Note_on_c, 12, 53, 0
1, 247634, Control_c, 12, 10, 49
1, 247663, Note_on_c, 6, 65, 0
1, 247674, Note_on_c, 5, 74, 0
1, 247678, Note_on_c, 4, 86, 0
1, 247680, Note_on_c, 1, 46, 66
1, 247680, Note_on_c, 4, 82, 107
1, 247680, Note_on_c, 5, 77, 86
1, 247680, Note_on_c, 9, 42, 76
1, 247680, Note_on_c, 9, 70, 96
1, 247680, Note_on_c, 11, 46, 66
1, 247680, Note_on_c, 12, 53, 80
1, 247682, Control_c, 5, 10, 24
1, 247682, Control_c, 12, 10, 56
1, 247698, Note_on_c, 9, 70, 0
1, 247698, Note_on_c, 9, 42, 0
1, 247723, Note_on_c, 12, 53, 0
1, 247730, Control_c, 12, 10, 63
1, 247766, Control_c, 12, 6, 60
1, 247770, Note_on_c, 11, 46, 0
1, 247770, Note_on_c, 1, 46, 0
1, 247776, Note_on_c, 5, 74, 59
1, 247776, Note_on_c, 9, 42, 85
1, 247776, Note_on_c, 12, 53, 73
1, 247778, Control_c, 5, 10, 28
1, 247778, Control_c, 12, 10, 70
1, 247782, Note_on_c, 5, 77, 0
1, 247794, Note_on_c, 9, 42, 0
1, 247810, Note_on_c, 12, 53, 0
1, 247826, Control_c, 12, 10, 77
1, 247866, Note_on_c, 5, 74, 0
1, 247872, Note_on_c, 1, 46, 92
1, 247872, Note_on_c, 4, 86, 107
1, 247872, Note_on_c, 5, 70, 80
1, 247872, Note_on_c, 6, 65, 105
1, 247872, Note_on_c, 9, 46, 102
1, 247872, Note_on_c, 9, 70, 90
1, 247872, Note_on_c, 11, 46, 92
1, 247872, Note_on_c, 12, 53, 80
1, 247874, Note_on_c, 3, 65, 0
1, 247874, Control_c, 5, 10, 31
1, 247874, Control_c, 12, 10, 84
1, 247890, Note_on_c, 9, 46, 0
1, 247890, Note_on_c, 9, 70, 0
1, 247903, Note_on_c, 4, 82, 0
1, 247915, Note_on_c, 12, 53, 0
1, 247922, Control_c, 12, 10, 92
1, 247946, Control_c, 12, 6, 85
1, 247962, Note_on_c, 1, 46, 0
1, 247962, Note_on_c, 11, 46, 0
1, 247968, Note_on_c, 5, 65, 94
1, 247968, Note_on_c, 12, 53, 73
1, 247970, Control_c, 5, 10, 35
1, 247970, Control_c, 12, 10, 99
1, 247987, Note_on_c, 5, 70, 0
1, 248002, Note_on_c, 12, 53, 0
1, 248018, Control_c, 12, 10, 106
1, 248024, Note_on_c, 6, 65, 0
1, 248039, Note_on_c, 4, 86, 0
1, 248058, Note_on_c, 5, 65, 0
1, 248064, Note_on_c, 1, 46, 66
1, 248064, Note_on_c, 3, 65, 80
1, 248064, Note_on_c, 4, 89, 107
1, 248064, Note_on_c, 5, 58, 59
1, 248064, Note_on_c, 9, 42, 76
1, 248064, Note_on_c, 9, 70, 102
1, 248064, Note_on_c, 11, 46, 66
1, 248064, Note_on_c, 12, 53, 80
1, 248066, Control_c, 5, 10, 39
1, 248066, Control_c, 12, 10, 113
1, 248082, Note_on_c, 9, 70, 0
1, 248082, Note_on_c, 9, 42, 0
1, 248107, Note_on_c, 12, 53, 0
1, 248114, Control_c, 12, 10, 120
1, 248154, Note_on_c, 1, 46, 0
1, 248154, Note_on_c, 11, 46, 0
1, 248154, Note_on_c, 5, 58, 0
1, 248160, Note_on_c, 5, 65, 94
1, 248160, Note_on_c, 9, 42, 85
1, 248160, Note_on_c, 12, 53, 73
1, 248162, Control_c, 5, 10, 42
1, 248162, Control_c, 12, 6, 110
1, 248178, Note_on_c, 9, 42, 0
1, 248194, Note_on_c, 12, 53, 0
1, 248250, Note_on_c, 5, 65, 0
1, 248256, Note_on_c, 1, 46, 92
1, 248256, Note_on_c, 4, 86, 107
1, 248256, Note_on_c, 5, 70, 64
1, 248256, Note_on_c, 6, 65, 85
1, 248256, Note_on_c, 9, 46, 117
1, 248256, Note_on_c, 9, 70, 30
1, 248256, Note_on_c, 11, 46, 92
1, 248258, Control_c, 5, 10, 46
1, 248274, Note_on_c, 9, 70, 0
1, 248274, Note_on_c, 9, 46, 0
1, 248280, Note_on_c, 4, 89, 0
1, 248346, Note_on_c, 1, 46, 0
1, 248346, Note_on_c, 11, 46, 0
1, 248352, Note_on_c, 5, 74, 77
1, 248352, Note_on_c, 9, 70, 59
1, 248354, Control_c, 5, 10, 50
1, 248370, Note_on_c, 9, 70, 0
1, 248371, Note_on_c, 5, 70, 0
1, 248384, Note_on_c, 6, 65, 0
1, 248418, Note_on_c, 4, 86, 0
1, 248442, Note_on_c, 5, 74, 0
1, 248448, Note_on_c, 1, 46, 66
1, 248448, Note_on_c, 3, 69, 95
1, 248448, Note_on_c, 4, 82, 107
1, 248448, Note_on_c, 5, 77, 86
1, 248448, Note_on_c, 9, 42, 76
1, 248448, Note_on_c, 9, 70, 86
1, 248448, Note_on_c, 11, 46, 66
1, 248450, Control_c, 5, 10, 54
1, 248454, Note_on_c, 3, 65, 0
1, 248466, Note_on_c, 9, 70, 0
1, 248466, Note_on_c, 9, 42, 0
1, 248538, Note_on_c, 11, 46, 0
1, 248538, Note_on_c, 1, 46, 0
1, 248544, Note_on_c, 5, 74, 71
1, 248544, Note_on_c, 9, 42, 85
1, 248546, Control_c, 5, 10, 57
1, 248550, Note_on_c, 5, 77, 0
1, 248562, Note_on_c, 9, 42, 0
1, 248634, Note_on_c, 5, 74, 0
1, 248640, Note_on_c, 1, 46, 89
1, 248640, Note_on_c, 4, 86, 107
1, 248640, Note_on_c, 5, 70, 64
1, 248640, Note_on_c, 9, 46, 117
1, 248640, Note_on_c, 9, 70, 76
1, 248640, Note_on_c, 11, 46, 89
1, 248642, Control_c, 5, 10, 61
1, 248658, Note_on_c, 9, 70, 0
1, 248658, Note_on_c, 9, 46, 0
1, 248661, Note_on_c, 4, 82, 0
1, 248730, Note_on_c, 3, 69, 0
1, 248734, Note_on_c, 11, 46, 0
1, 248734, Note_on_c, 1, 46, 0
1, 248736, Note_on_c, 5, 65, 80
1, 248738, Control_c, 5, 10, 65
1, 248738, Control_c, 12, 6, 10
1, 248755, Note_on_c, 5, 70, 0
1, 248778, Note_on_c, 2, 58, 0
1, 248778, Note_on_c, 2, 62, 0
1, 248778, Note_on_c, 2, 46, 0
1, 248784, Note_on_c, 2, 41, 61
1, 248784, Note_on_c, 2, 53, 61
1, 248784, Note_on_c, 2, 57, 61
1, 248784, Note_on_c, 2, 60, 61
1, 248793, Note_on_c, 4, 86, 0
1, 248826, Note_on_c, 5, 65, 0
1, 248832, Note_on_c, 1, 53, 63
1, 248832, Note_on_c, 3, 69, 95
1, 248832, Note_on_c, 4, 89, 107
1, 248832, Note_on_c, 5, 57, 59
1, 248832, Note_on_c, 7, 84, 94
1, 248832, Note_on_c, 9, 42, 76
1, 248832, Note_on_c, 9, 70, 102
1, 248832, Note_on_c, 11, 53, 63
1, 248832, Note_on_c, 12, 53, 80
1, 248834, Control_c, 5, 10, 68
1, 248834, Control_c, 12, 10, 125
1, 248850, Note_on_c, 9, 70, 0
1, 248850, Note_on_c, 9, 42, 0
1, 248875, Note_on_c, 12, 53, 0
1, 248882, Control_c, 12, 10, 119
1, 248919, Note_on_c, 1, 53, 0
1, 248919, Note_on_c, 11, 53, 0
1, 248922, Note_on_c, 5, 57, 0
1, 248928, Note_on_c, 5, 65, 68
1, 248928, Note_on_c, 9, 42, 85
1, 248928, Note_on_c, 12, 53, 73
1, 248930, Control_c, 5, 10, 72
1, 248930, Control_c, 12, 10, 113
1, 248930, Control_c, 12, 6, 25
1, 248946, Note_on_c, 9, 42, 0
1, 248951, Note_on_c, 7, 84, 0
1, 248962, Note_on_c, 12, 53, 0
1, 248978, Control_c, 12, 10, 107
1, 249018, Note_on_c, 5, 65, 0
1, 249024, Note_on_c, 1, 53, 89
1, 249024, Note_on_c, 4, 84, 107
1, 249024, Note_on_c, 5, 69, 64
1, 249024, Note_on_c, 6, 72, 125
1, 249024, Note_on_c, 9, 46, 117
1, 249024, Note_on_c, 11, 53, 89
1, 249024, Note_on_c, 12, 53, 80
1, 249026, Control_c, 5, 10, 76
1, 249026, Control_c, 12, 10, 101
1, 249042, Note_on_c, 9, 46, 0
1, 249067, Note_on_c, 12, 53, 0
1, 249074, Control_c, 12, 10, 95
1, 249081, Note_on_c, 4, 89, 0
1, 249098, Control_c, 12, 6, 40
1, 249114, Note_on_c, 1, 53, 0
1, 249114, Note_on_c, 11, 53, 0
1, 249120, Note_on_c, 5, 72, 74
1, 249120, Note_on_c, 9, 70, 54
1, 249120, Note_on_c, 12, 53, 73
1, 249122, Control_c, 5, 10, 79
1, 249122, Control_c, 12, 10, 89
1, 249138, Note_on_c, 9, 70, 0
1, 249139, Note_on_c, 5, 69, 0
1, 249154, Note_on_c, 12, 53, 0
1, 249170, Control_c, 12, 10, 83
1, 249180, Note_on_c, 4, 84, 0
1, 249199, Note_on_c, 6, 72, 0
1, 249210, Note_on_c, 5, 72, 0
1, 249216, Note_on_c, 1, 53, 63
1, 249216, Note_on_c, 4, 81, 107
1, 249216, Note_on_c, 5, 77, 89
1, 249216, Note_on_c, 7, 84, 81
1, 249216, Note_on_c, 9, 42, 76
1, 249216, Note_on_c, 9, 70, 102
1, 249216, Note_on_c, 11, 53, 63
1, 249216, Note_on_c, 12, 53, 80
1, 249218, Control_c, 5, 10, 83
1, 249218, Control_c, 12, 10, 77
1, 249234, Note_on_c, 9, 70, 0
1, 249234, Note_on_c, 9, 42, 0
1, 249259, Note_on_c, 12, 53, 0
1, 249266, Control_c, 12, 10, 71
1, 249302, Control_c, 12, 6, 60
1, 249306, Note_on_c, 1, 53, 0
1, 249306, Note_on_c, 11, 53, 0
1, 249312, Note_on_c, 5, 72, 77
1, 249312, Note_on_c, 9, 42, 85
1, 249312, Note_on_c, 12, 53, 73
1, 249314, Control_c, 5, 10, 87
1, 249314, Control_c, 12, 10, 65
1, 249318, Note_on_c, 5, 77, 0
1, 249330, Note_on_c, 9, 42, 0
1, 249345, Note_on_c, 7, 84, 0
1, 249346, Note_on_c, 12, 53, 0
1, 249362, Control_c, 12, 10, 59
1, 249402, Note_on_c, 5, 72, 0
1, 249402, Note_on_c, 3, 69, 0
1, 249404, Note_on_c, 4, 81, 0
1, 249408, Note_on_c, 1, 53, 89
1, 249408, Note_on_c, 4, 84, 107
1, 249408, Note_on_c, 5, 69, 64
1, 249408, Note_on_c, 6, 72, 105
1, 249408, Note_on_c, 9, 46, 117
1, 249408, Note_on_c, 9, 70, 90
1, 249408, Note_on_c, 11, 53, 89
1, 249408, Note_on_c, 12, 53, 80
1, 249410, Control_c, 5, 10, 91
1, 249410, Control_c, 12, 10, 53
1, 249426, Note_on_c, 9, 70, 0
1, 249426, Note_on_c, 9, 46, 0
1, 249451, Note_on_c, 12, 53, 0
1, 249458, Control_c, 12, 10, 47
1, 249482, Control_c, 12, 6, 85
1, 249498, Note_on_c, 1, 53, 0
1, 249498, Note_on_c, 11, 53, 0
1, 249504, Note_on_c, 5, 65, 74
1, 249504, Note_on_c, 12, 53, 73
1, 249506, Control_c, 5, 10, 94
1, 249506, Control_c, 12, 10, 41
1, 249523, Note_on_c, 5, 69, 0
1, 249538, Note_on_c, 12, 53, 0
1, 249554, Control_c, 12, 10, 35
1, 249560, Note_on_c, 6, 72, 0
1, 249581, Note_on_c, 4, 84, 0
1, 249594, Note_on_c, 5, 65, 0
1, 249600, Note_on_c, 1, 53, 63
1, 249600, Note_on_c, 3, 69, 92
1, 249600, Note_on_c, 4, 89, 107
1, 249600, Note_on_c, 5, 57, 59
1, 249600, Note_on_c, 7, 84, 76
1, 249600, Note_on_c, 9, 42, 76
1, 249600, Note_on_c, 9, 70, 96
1, 249600, Note_on_c, 11, 53, 63
1, 249600, Note_on_c, 12, 53, 80
1, 249602, Control_c, 5, 10, 98
1, 249602, Control_c, 12, 10, 29
1, 249618, Note_on_c, 9, 70, 0
1, 249618, Note_on_c, 9, 42, 0
1, 249643, Note_on_c, 12, 53, 0
1, 249650, Control_c, 12, 10, 23
1, 249690, Note_on_c, 5, 57, 0
1, 249690, Note_on_c, 1, 53, 0
1, 249690, Note_on_c, 11, 53, 0
1, 249696, Note_on_c, 5, 65, 74
1, 249696, Note_on_c, 9, 42, 85
1, 249696, Note_on_c, 12, 53, 73
1, 249698, Control_c, 5, 10, 102
1, 249698, Control_c, 12, 10, 17
1, 249698, Control_c, 12, 6, 110
1, 249714, Note_on_c, 9, 42, 0
1, 249730, Note_on_c, 12, 53, 0
1, 249746, Control_c, 12, 10, 11
1, 249772, Note_on_c, 7, 84, 0
1, 249786, Note_on_c, 5, 65, 0
1, 249792, Note_on_c, 1, 53, 86
1, 249792, Note_on_c, 4, 84, 107
1, 249792, Note_on_c, 5, 69, 64
1, 249792, Note_on_c, 6, 72, 85
1, 249792, Note_on_c, 9, 46, 117
1, 249792, Note_on_c, 9, 70, 23
1, 249792, Note_on_c, 11, 53, 86
1, 249794, Control_c, 5, 10, 105
1, 249794, Control_c, 12, 10, 5
1, 249810, Note_on_c, 9, 70, 0
1, 249810, Note_on_c, 9, 46, 0
1, 249839, Note_on_c, 4, 89, 0
1, 249882, Note_on_c, 1, 53, 0
1, 249882, Note_on_c, 11, 53, 0
1, 249888, Note_on_c, 5, 72, 80
1, 249888, Note_on_c, 9, 70, 36
1, 249890, Control_c, 5, 10, 109
1, 249906, Note_on_c, 9, 70, 0
1, 249907, Note_on_c, 5, 69, 0
1, 249920, Note_on_c, 6, 72, 0
1, 249946, Note_on_c, 4, 84, 0
1, 249978, Note_on_c, 5, 72, 0
1, 249978, Note_on_c, 3, 69, 0
1, 249984, Note_on_c, 1, 53, 63
1, 249984, Note_on_c, 3, 72, 95
1, 249984, Note_on_c, 4, 81, 107
1, 249984, Note_on_c, 5, 77, 86
1, 249984, Note_on_c, 7, 84, 74
1, 249984, Note_on_c, 9, 42, 76
1, 249984, Note_on_c, 9, 70, 102
1, 249984, Note_on_c, 11, 53, 63
1, 249986, Control_c, 5, 10, 113
1, 250002, Note_on_c, 9, 70, 0
1, 250002, Note_on_c, 9, 42, 0
1, 250074, Note_on_c, 1, 53, 0
1, 250074, Note_on_c, 11, 53, 0
1, 250080, Note_on_c, 5, 72, 74
1, 250080, Note_on_c, 9, 42, 85
1, 250082, Control_c, 5, 10, 116
1, 250086, Note_on_c, 5, 77, 0
1, 250098, Note_on_c, 9, 42, 0
1, 250110, Note_on_c, 7, 84, 0
1, 250170, Note_on_c, 5, 72, 0
1, 250176, Note_on_c, 1, 53, 86
1, 250176, Note_on_c, 4, 84, 107
1, 250176, Note_on_c, 5, 69, 64
1, 250176, Note_on_c, 9, 46, 117
1, 250176, Note_on_c, 9, 70, 73
1, 250176, Note_on_c, 11, 53, 86
1, 250178, Control_c, 5, 10, 120
1, 250194, Note_on_c, 9, 70, 0
1, 250194, Note_on_c, 9, 46, 0
1, 250195, Note_on_c, 4, 81, 0
1, 250270, Note_on_c, 1, 53, 0
1, 250270, Note_on_c, 11, 53, 0
1, 250272, Note_on_c, 5, 65, 80
1, 250274, Control_c, 5, 10, 124
1, 250274, Control_c, 12, 6, 10
1, 250291, Note_on_c, 5, 69, 0
1, 250314, Note_on_c, 2, 60, 0
1, 250314, Note_on_c, 2, 41, 0
1, 250314, Note_on_c, 2, 57, 0
1, 250314, Note_on_c, 2, 53, 0
1, 250320, Note_on_c, 2, 38, 61
1, 250320, Note_on_c, 2, 50, 61
1, 250320, Note_on_c, 2, 53, 61
1, 250320, Note_on_c, 2, 57, 61
1, 250328, Note_on_c, 2, 65, 61
1, 250336, Note_on_c, 4, 84, 0
1, 250345, Note_on_c, 3, 72, 0
1, 250362, Note_on_c, 5, 65, 0
1, 250368, Note_on_c, 1, 50, 60
1, 250368, Note_on_c, 3, 74, 107
1, 250368, Note_on_c, 4, 93, 107
1, 250368, Note_on_c, 5, 62, 59
1, 250368, Note_on_c, 7, 81, 94
1, 250368, Note_on_c, 9, 42, 76
1, 250368, Note_on_c, 9, 70, 102
1, 250368, Note_on_c, 11, 50, 60
1, 250368, Note_on_c, 12, 53, 80
1, 250370, Control_c, 5, 10, 127
1, 250386, Note_on_c, 9, 70, 0
1, 250386, Note_on_c, 9, 42, 0
1, 250411, Note_on_c, 12, 53, 0
1, 250418, Control_c, 12, 10, 5
1, 250455, Note_on_c, 1, 50, 0
1, 250455, Note_on_c, 11, 50, 0
1, 250458, Note_on_c, 5, 62, 0
1, 250464, Note_on_c, 5, 69, 74
1, 250464, Note_on_c, 9, 42, 85
1, 250464, Note_on_c, 12, 53, 73
1, 250466, Control_c, 5, 10, 124
1, 250466, Control_c, 12, 10, 13
1, 250466, Control_c, 12, 6, 25
1, 250482, Note_on_c, 9, 42, 0
1, 250487, Note_on_c, 7, 81, 0
1, 250498, Note_on_c, 12, 53, 0
1, 250514, Control_c, 12, 10, 20
1, 250554, Note_on_c, 5, 69, 0
1, 250560, Note_on_c, 1, 50, 92
1, 250560, Note_on_c, 4, 89, 107
1, 250560, Note_on_c, 5, 74, 64
1, 250560, Note_on_c, 6, 69, 125
1, 250560, Note_on_c, 9, 46, 117
1, 250560, Note_on_c, 11, 50, 92
1, 250560, Note_on_c, 12, 53, 80
1, 250562, Control_c, 5, 10, 120
1, 250562, Control_c, 12, 10, 27
1, 250578, Note_on_c, 9, 46, 0
1, 250598, Note_on_c, 4, 93, 0
1, 250603, Note_on_c, 12, 53, 0
1, 250610, Control_c, 12, 10, 34
1, 250634, Control_c, 12, 6, 40
1, 250650, Note_on_c, 1, 50, 0
1, 250650, Note_on_c, 11, 50, 0
1, 250656, Note_on_c, 5, 77, 80
1, 250656, Note_on_c, 9, 70, 50
1, 250656, Note_on_c, 12, 53, 73
1, 250658, Control_c, 5, 10, 116
1, 250658, Control_c, 12, 10, 41
1, 250674, Note_on_c, 9, 70, 0
1, 250675, Note_on_c, 5, 74, 0
1, 250690, Note_on_c, 12, 53, 0
1, 250706, Control_c, 12, 10, 49
1, 250734, Note_on_c, 4, 89, 0
1, 250735, Note_on_c, 6, 69, 0
1, 250746, Note_on_c, 5, 77, 0
1, 250750, Note_on_c, 3, 74, 0
1, 250752, Note_on_c, 1, 50, 66
1, 250752, Note_on_c, 3, 76, 92
1, 250752, Note_on_c, 4, 86, 107
1, 250752, Note_on_c, 5, 86, 71
1, 250752, Note_on_c, 7, 81, 81
1, 250752, Note_on_c, 9, 42, 76
1, 250752, Note_on_c, 9, 70, 96
1, 250752, Note_on_c, 11, 50, 66
1, 250752, Note_on_c, 12, 53, 80
1, 250754, Control_c, 5, 10, 112
1, 250754, Control_c, 12, 10, 56
1, 250770, Note_on_c, 9, 70, 0
1, 250770, Note_on_c, 9, 42, 0
1, 250795, Note_on_c, 12, 53, 0
1, 250802, Control_c, 12, 10, 63
1, 250838, Control_c, 12, 6, 60
1, 250842, Note_on_c, 1, 50, 0
1, 250842, Note_on_c, 11, 50, 0
1, 250848, Note_on_c, 5, 74, 74
1, 250848, Note_on_c, 9, 42, 85
1, 250848, Note_on_c, 12, 53, 73
1, 250850, Control_c, 5, 10, 108
1, 250850, Control_c, 12, 10, 70
1, 250854, Note_on_c, 5, 86, 0
1, 250866, Note_on_c, 9, 42, 0
1, 250881, Note_on_c, 7, 81, 0
1, 250882, Note_on_c, 12, 53, 0
1, 250898, Control_c, 12, 10, 77
1, 250938, Note_on_c, 5, 74, 0
1, 250944, Note_on_c, 1, 50, 92
1, 250944, Note_on_c, 4, 89, 107
1, 250944, Note_on_c, 5, 69, 64
1, 250944, Note_on_c, 6, 69, 105
1, 250944, Note_on_c, 9, 46, 102
1, 250944, Note_on_c, 9, 70, 90
1, 250944, Note_on_c, 11, 50, 92
1, 250944, Note_on_c, 12, 53, 80
1, 250946, Control_c, 5, 10, 104
1, 250946, Control_c, 12, 10, 84
1, 250958, Note_on_c, 4, 86, 0
1, 250962, Note_on_c, 9, 70, 0
1, 250962, Note_on_c, 9, 46, 0
1, 250987, Note_on_c, 12, 53, 0
1, 250994, Control_c, 12, 10, 92
1, 251018, Control_c, 12, 6, 85
1, 251034, Note_on_c, 1, 50, 0
1, 251034, Note_on_c, 11, 50, 0
1, 251040, Note_on_c, 5, 65, 80
1, 251040, Note_on_c, 12, 53, 73
1, 251042, Control_c, 5, 10, 100
1, 251042, Control_c, 12, 10, 99
1, 251059, Note_on_c, 5, 69, 0
1, 251061, Note_on_c, 3, 76, 0
1, 251074, Note_on_c, 12, 53, 0
1, 251090, Control_c, 12, 10, 106
1, 251096, Note_on_c, 6, 69, 0
1, 251130, Note_on_c, 5, 65, 0
1, 251134, Note_on_c, 4, 89, 0
1, 251136, Note_on_c, 1, 50, 66
1, 251136, Note_on_c, 3, 74, 107
1, 251136, Note_on_c, 4, 93, 107
1, 251136, Note_on_c, 5, 62, 59
1, 251136, Note_on_c, 7, 81, 76
1, 251136, Note_on_c, 9, 42, 76
1, 251136, Note_on_c, 9, 70, 102
1, 251136, Note_on_c, 11, 50, 66
1, 251136, Note_on_c, 12, 53, 80
1, 251138, Control_c, 5, 10, 96
1, 251138, Control_c, 12, 10, 113
1, 251154, Note_on_c, 9, 70, 0
1, 251154, Note_on_c, 9, 42, 0
1, 251179, Note_on_c, 12, 53, 0
1, 251186, Control_c, 12, 10, 120
1, 251226, Note_on_c, 1, 50, 0
1, 251226, Note_on_c, 5, 62, 0
1, 251226, Note_on_c, 11, 50, 0
1, 251232, Note_on_c, 5, 69, 74
1, 251232, Note_on_c, 9, 42, 85
1, 251232, Note_on_c, 12, 53, 73
1, 251234, Control_c, 5, 10, 92
1, 251234, Control_c, 12, 6, 110
1, 251250, Note_on_c, 9, 42, 0
1, 251266, Note_on_c, 12, 53, 0
1, 251308, Note_on_c, 7, 81, 0
1, 251322, Note_on_c, 5, 69, 0
1, 251328, Note_on_c, 1, 50, 92
1, 251328, Note_on_c, 4, 89, 107
1, 251328, Note_on_c, 5, 72, 64
1, 251328, Note_on_c, 6, 69, 85
1, 251328, Note_on_c, 9, 46, 117
1, 251328, Note_on_c, 9, 70, 30
1, 251328, Note_on_c, 11, 50, 92
1, 251330, Control_c, 5, 10, 88
1, 251346, Note_on_c, 9, 70, 0
1, 251346, Note_on_c, 9, 46, 0
1, 251356, Note_on_c, 4, 93, 0
1, 251418, Note_on_c, 1, 50, 0
1, 251418, Note_on_c, 11, 50, 0
1, 251424, Note_on_c, 5, 77, 80
1, 251424, Note_on_c, 9, 70, 59
1, 251426, Control_c, 5, 10, 84
1, 251442, Note_on_c, 9, 70, 0
1, 251443, Note_on_c, 5, 72, 0
1, 251456, Note_on_c, 6, 69, 0
1, 251471, Note_on_c, 4, 89, 0
1, 251514, Note_on_c, 5, 77, 0
1, 251520, Note_on_c, 1, 50, 66
1, 251520, Note_on_c, 3, 72, 92
1, 251520, Note_on_c, 4, 86, 107
1, 251520, Note_on_c, 5, 86, 74
1, 251520, Note_on_c, 7, 81, 74
1, 251520, Note_on_c, 9, 42, 76
1, 251520, Note_on_c, 9, 70, 86
1, 251520, Note_on_c, 11, 50, 66
1, 251522, Control_c, 5, 10, 80
1, 251537, Note_on_c, 3, 74, 0
1, 251538, Note_on_c, 9, 70, 0
1, 251538, Note_on_c, 9, 42, 0
1, 251610, Note_on_c, 1, 50, 0
1, 251610, Note_on_c, 11, 50, 0
1, 251616, Note_on_c, 5, 77, 74
1, 251616, Note_on_c, 9, 42, 85
1, 251618, Control_c, 5, 10, 76
1, 251622, Note_on_c, 5, 86, 0
1, 251634, Note_on_c, 9, 42, 0
1, 251646, Note_on_c, 7, 81, 0
1, 251706, Note_on_c, 5, 77, 0
1, 251712, Note_on_c, 1, 50, 89
1, 251712, Note_on_c, 4, 89, 107
1, 251712, Note_on_c, 5, 72, 64
1, 251712, Note_on_c, 9, 46, 117
1, 251712, Note_on_c, 9, 70, 76
1, 251712, Note_on_c, 11, 50, 89
1, 251714, Control_c, 5, 10, 72
1, 251730, Note_on_c, 9, 70, 0
1, 251730, Note_on_c, 9, 46, 0
1, 251755, Note_on_c, 4, 86, 0
1, 251806, Note_on_c, 1, 50, 0
1, 251806, Note_on_c, 11, 50, 0
1, 251808, Note_on_c, 5, 69, 80
1, 251810, Control_c, 5, 10, 68
1, 251810, Control_c, 12, 6, 10
1, 251827, Note_on_c, 5, 72, 0
1, 251850, Note_on_c, 2, 50, 0
1, 251850, Note_on_c, 2, 53, 0
1, 251850, Note_on_c, 2, 38, 0
1, 251856, Note_on_c, 2, 62, 61
1, 251858, Note_on_c, 2, 65, 0
1, 251864, Note_on_c, 2, 50, 61
1, 251864, Note_on_c, 2, 54, 61
1, 251864, Note_on_c, 2, 66, 61
1, 251875, Note_on_c, 4, 89, 0
1, 251898, Note_on_c, 5, 69, 0
1, 251904, Note_on_c, 3, 72, 0
1, 251904, Note_on_c, 1, 50, 63
1, 251904, Note_on_c, 3, 69, 95
1, 251904, Note_on_c, 4, 93, 107
1, 251904, Note_on_c, 5, 62, 59
1, 251904, Note_on_c, 7, 84, 94
1, 251904, Note_on_c, 9, 42, 76
1, 251904, Note_on_c, 9, 70, 102
1, 251904, Note_on_c, 11, 50, 63
1, 251904, Note_on_c, 12, 54, 80
1, 251906, Control_c, 5, 10, 64
1, 251906, Control_c, 12, 10, 125
1, 251922, Note_on_c, 9, 70, 0
1, 251922, Note_on_c, 9, 42, 0
1, 251947, Note_on_c, 12, 54, 0
1, 251954, Control_c, 12, 10, 119
1, 251991, Note_on_c, 1, 50, 0
1, 251991, Note_on_c, 11, 50, 0
1, 251994, Note_on_c, 5, 62, 0
1, 252000, Note_on_c, 5, 69, 74
1, 252000, Note_on_c, 9, 42, 85
1, 252000, Note_on_c, 12, 54, 73
1, 252002, Control_c, 5, 10, 60
1, 252002, Control_c, 12, 10, 113
1, 252002, Control_c, 12, 6, 25
1, 252018, Note_on_c, 9, 42, 0
1, 252023, Note_on_c, 7, 84, 0
1, 252034, Note_on_c, 12, 54, 0
1, 252050, Control_c, 12, 10, 107
1, 252090, Note_on_c, 5, 69, 0
1, 252096, Note_on_c, 1, 50, 89
1, 252096, Note_on_c, 4, 90, 107
1, 252096, Note_on_c, 5, 74, 64
1, 252096, Note_on_c, 6, 69, 125
1, 252096, Note_on_c, 9, 46, 117
1, 252096, Note_on_c, 11, 50, 89
1, 252096, Note_on_c, 12, 54, 80
1, 252098, Control_c, 5, 10, 56
1, 252098, Control_c, 12, 10, 101
1, 252114, Note_on_c, 9, 46, 0
1, 252139, Note_on_c, 12, 54, 0
1, 252146, Control_c, 12, 10, 95
1, 252170, Control_c, 12, 6, 40
1, 252186, Note_on_c, 1, 50, 0
1, 252186, Note_on_c, 11, 50, 0
1, 252192, Note_on_c, 5, 69, 80
1, 252192, Note_on_c, 9, 70, 54
1, 252192, Note_on_c, 12, 54, 73
1, 252194, Control_c, 5, 10, 52
1, 252194, Control_c, 12, 10, 89
1, 252204, Note_on_c, 4, 93, 0
1, 252210, Note_on_c, 9, 70, 0
1, 252211, Note_on_c, 5, 74, 0
1, 252226, Note_on_c, 12, 54, 0
1, 252242, Control_c, 12, 10, 83
1, 252246, Note_on_c, 4, 90, 0
1, 252271, Note_on_c, 6, 69, 0
1, 252282, Note_on_c, 5, 69, 0
1, 252288, Note_on_c, 1, 50, 63
1, 252288, Note_on_c, 4, 86, 107
1, 252288, Note_on_c, 5, 66, 80
1, 252288, Note_on_c, 7, 81, 94
1, 252288, Note_on_c, 9, 42, 76
1, 252288, Note_on_c, 9, 70, 102
1, 252288, Note_on_c, 11, 50, 63
1, 252288, Note_on_c, 12, 54, 80
1, 252290, Control_c, 5, 10, 48
1, 252290, Control_c, 12, 10, 77
1, 252306, Note_on_c, 9, 70, 0
1, 252306, Note_on_c, 9, 42, 0
1, 252331, Note_on_c, 12, 54, 0
1, 252338, Control_c, 12, 10, 71
1, 252374, Control_c, 12, 6, 60
1, 252378, Note_on_c, 1, 50, 0
1, 252378, Note_on_c, 5, 66, 0
1, 252378, Note_on_c, 11, 50, 0
1, 252384, Note_on_c, 5, 62, 80
1, 252384, Note_on_c, 9, 42, 85
1, 252384, Note_on_c, 12, 54, 73
1, 252386, Control_c, 5, 10, 44
1, 252386, Control_c, 12, 10, 65
1, 252402, Note_on_c, 9, 42, 0
1, 252407, Note_on_c, 7, 81, 0
1, 252418, Note_on_c, 12, 54, 0
1, 252434, Control_c, 12, 10, 59
1, 252474, Note_on_c, 5, 62, 0
1, 252474, Note_on_c, 3, 69, 0
1, 252480, Note_on_c, 1, 50, 89
1, 252480, Note_on_c, 4, 90, 107
1, 252480, Note_on_c, 5, 69, 80
1, 252480, Note_on_c, 6, 69, 105
1, 252480, Note_on_c, 9, 46, 117
1, 252480, Note_on_c, 9, 70, 90
1, 252480, Note_on_c, 11, 50, 89
1, 252480, Note_on_c, 12, 54, 80
1, 252482, Control_c, 5, 10, 40
1, 252482, Control_c, 12, 10, 53
1, 252498, Note_on_c, 9, 70, 0
1, 252498, Note_on_c, 9, 46, 0
1, 252523, Note_on_c, 12, 54, 0
1, 252530, Control_c, 12, 10, 47
1, 252539, Note_on_c, 4, 86, 0
1, 252554, Control_c, 12, 6, 85
1, 252570, Note_on_c, 5, 69, 0
1, 252570, Note_on_c, 1, 50, 0
1, 252570, Note_on_c, 11, 50, 0
1, 252576, Note_on_c, 5, 74, 80
1, 252576, Note_on_c, 12, 54, 73
1, 252578, Control_c, 5, 10, 36
1, 252578, Control_c, 12, 10, 41
1, 252610, Note_on_c, 12, 54, 0
1, 252623, Note_on_c, 4, 90, 0
1, 252626, Control_c, 12, 10, 35
1, 252632, Note_on_c, 6, 69, 0
1, 252666, Note_on_c, 5, 74, 0
1, 252672, Note_on_c, 1, 50, 63
1, 252672, Note_on_c, 3, 67, 88
1, 252672, Note_on_c, 4, 93, 107
1, 252672, Note_on_c, 5, 69, 80
1, 252672, Note_on_c, 7, 79, 94
1, 252672, Note_on_c, 9, 42, 76
1, 252672, Note_on_c, 9, 70, 96
1, 252672, Note_on_c, 11, 50, 63
1, 252672, Note_on_c, 12, 54, 80
1, 252674, Control_c, 5, 10, 32
1, 252674, Control_c, 12, 10, 29
1, 252690, Note_on_c, 9, 70, 0
1, 252690, Note_on_c, 9, 42, 0
1, 252715, Note_on_c, 12, 54, 0
1, 252722, Control_c, 12, 10, 23
1, 252762, Note_on_c, 1, 50, 0
1, 252762, Note_on_c, 5, 69, 0
1, 252762, Note_on_c, 11, 50, 0
1, 252768, Note_on_c, 5, 66, 80
1, 252768, Note_on_c, 9, 42, 85
1, 252768, Note_on_c, 12, 54, 73
1, 252770, Control_c, 5, 10, 28
1, 252770, Control_c, 12, 10, 17
1, 252770, Control_c, 12, 6, 110
1, 252786, Note_on_c, 9, 42, 0
1, 252791, Note_on_c, 7, 79, 0
1, 252802, Note_on_c, 12, 54, 0
1, 252818, Control_c, 12, 10, 11
1, 252858, Note_on_c, 5, 66, 0
1, 252864, Note_on_c, 1, 50, 86
1, 252864, Note_on_c, 4, 90, 107
1, 252864, Note_on_c, 5, 69, 80
1, 252864, Note_on_c, 6, 69, 85
1, 252864, Note_on_c, 9, 46, 117
1, 252864, Note_on_c, 9, 70, 23
1, 252864, Note_on_c, 11, 50, 86
1, 252866, Control_c, 5, 10, 24
1, 252866, Control_c, 12, 10, 5
1, 252882, Note_on_c, 9, 70, 0
1, 252882, Note_on_c, 9, 46, 0
1, 252887, Note_on_c, 4, 93, 0
1, 252954, Note_on_c, 5, 69, 0
1, 252954, Note_on_c, 1, 50, 0
1, 252954, Note_on_c, 11, 50, 0
1, 252960, Note_on_c, 5, 62, 80
1, 252960, Note_on_c, 9, 70, 36
1, 252962, Control_c, 5, 10, 20
1, 252978, Note_on_c, 9, 70, 0
1, 252992, Note_on_c, 6, 69, 0
1, 253006, Note_on_c, 4, 90, 0
1, 253015, Note_on_c, 3, 67, 0
1, 253020, Control_c, 2, 64, 127
1, 253050, Note_on_c, 5, 62, 0
1, 253056, Note_on_c, 1, 50, 63
1, 253056, Note_on_c, 3, 69, 93
1, 253056, Note_on_c, 4, 86, 107
1, 253056, Note_on_c, 5, 66, 80
1, 253056, Note_on_c, 7, 77, 94
1, 253056, Note_on_c, 9, 42, 76
1, 253056, Note_on_c, 9, 70, 102
1, 253056, Note_on_c, 11, 50, 63
1, 253058, Control_c, 5, 10, 16
1, 253074, Note_on_c, 9, 70, 0
1, 253074, Note_on_c, 9, 42, 0
1, 253146, Note_on_c, 1, 50, 0
1, 253146, Note_on_c, 5, 66, 0
1, 253146, Note_on_c, 11, 50, 0
1, 253152, Note_on_c, 5, 62, 80
1, 253152, Note_on_c, 9, 42, 85
1, 253154, Control_c, 5, 10, 12
1, 253170, Note_on_c, 9, 42, 0
1, 253175, Note_on_c, 7, 77, 0
1, 253242, Note_on_c, 5, 62, 0
1, 253248, Note_on_c, 1, 50, 86
1, 253248, Note_on_c, 4, 90, 107
1, 253248, Note_on_c, 5, 57, 80
1, 253248, Note_on_c, 9, 46, 117
1, 253248, Note_on_c, 9, 70, 73
1, 253248, Note_on_c, 11, 50, 86
1, 253250, Control_c, 5, 10, 8
1, 253265, Note_on_c, 4, 86, 0
1, 253266, Note_on_c, 9, 70, 0
1, 253266, Note_on_c, 9, 46, 0
1, 253318, Control_c, 2, 64, 0
1, 253338, Note_on_c, 5, 57, 0
1, 253342, Note_on_c, 1, 50, 0
1, 253342, Note_on_c, 11, 50, 0
1, 253344, Note_on_c, 5, 62, 80
1, 253346, Control_c, 5, 10, 4
1, 253346, Control_c, 12, 6, 10
1, 253369, Note_on_c, 4, 90, 0
1, 253386, Note_on_c, 2, 62, 0
1, 253392, Note_on_c, 2, 53, 61
1, 253392, Note_on_c, 2, 58, 61
1, 253394, Note_on_c, 2, 54, 0
1, 253394, Note_on_c, 2, 50, 0
1, 253394, Note_on_c, 2, 66, 0
1, 253394, Note_on_c, 2, 57, 0
1, 253400, Note_on_c, 2, 46, 61
1, 253400, Note_on_c, 2, 62, 61
1, 253434, Note_on_c, 5, 62, 0
1, 253434, Note_on_c, 3, 69, 0
1, 253440, Note_on_c, 3, 67, 87
1, 253440, Note_on_c, 4, 89, 107
1, 253440, Note_on_c, 5, 58, 59
1, 253440, Note_on_c, 7, 74, 94
1, 253440, Note_on_c, 9, 42, 76
1, 253440, Note_on_c, 9, 70, 102
1, 253442, Control_c, 5, 10, 2
1, 253443, Pitch_bend_c, 1, 8192
1, 253458, Note_on_c, 9, 70, 0
1, 253458, Note_on_c, 9, 42, 0
1, 253530, Note_on_c, 5, 58, 0
1, 253536, Note_on_c, 5, 62, 68
1, 253536, Note_on_c, 9, 42, 85
1, 253538, Control_c, 5, 10, 6
1, 253554, Note_on_c, 9, 42, 0
1, 253559, Note_on_c, 7, 74, 0
1, 253626, Note_on_c, 5, 62, 0
1, 253632, Note_on_c, 4, 86, 107
1, 253632, Note_on_c, 5, 65, 64
1, 253632, Note_on_c, 6, 65, 125
1, 253632, Note_on_c, 9, 46, 117
1, 253634, Control_c, 5, 10, 10
1, 253650, Note_on_c, 9, 46, 0
1, 253689, Note_on_c, 4, 89, 0
1, 253722, Note_on_c, 5, 65, 0
1, 253728, Note_on_c, 5, 70, 64
1, 253728, Note_on_c, 9, 70, 50
1, 253730, Control_c, 5, 10, 14
1, 253746, Note_on_c, 9, 70, 0
1, 253807, Note_on_c, 6, 65, 0
1, 253809, Note_on_c, 4, 86, 0
1, 253818, Note_on_c, 5, 70, 0
1, 253824, Note_on_c, 4, 82, 107
1, 253824, Note_on_c, 5, 74, 95
1, 253824, Note_on_c, 7, 77, 94
1, 253824, Note_on_c, 9, 42, 76
1, 253824, Note_on_c, 9, 70, 96
1, 253826, Control_c, 5, 10, 18
1, 253842, Note_on_c, 9, 70, 0
1, 253842, Note_on_c, 9, 42, 0
1, 253914, Note_on_c, 5, 74, 0
1, 253920, Note_on_c, 5, 65, 68
1, 253920, Note_on_c, 9, 42, 85
1, 253922, Control_c, 5, 10, 22
1, 253938, Note_on_c, 9, 42, 0
1, 253943, Note_on_c, 7, 77, 0
1, 253991, Note_on_c, 3, 67, 0
1, 254010, Note_on_c, 5, 65, 0
1, 254016, Note_on_c, 4, 86, 107
1, 254016, Note_on_c, 5, 62, 59
1, 254016, Note_on_c, 6, 65, 105
1, 254016, Note_on_c, 9, 46, 102
1, 254016, Note_on_c, 9, 70, 90
1, 254018, Control_c, 5, 10, 26
1, 254034, Note_on_c, 9, 70, 0
1, 254034, Note_on_c, 9, 46, 0
1, 254053, Note_on_c, 4, 82, 0
1, 254106, Note_on_c, 5, 62, 0
1, 254112, Note_on_c, 5, 65, 53
1, 254114, Control_c, 5, 10, 30
1, 254168, Note_on_c, 6, 65, 0
1, 254182, Note_on_c, 4, 86, 0
1, 254202, Note_on_c, 5, 65, 0
1, 254208, Note_on_c, 3, 67, 80
1, 254208, Note_on_c, 4, 89, 107
1, 254208, Note_on_c, 5, 58, 64
1, 254208, Note_on_c, 7, 77, 64
1, 254208, Note_on_c, 9, 42, 76
1, 254208, Note_on_c, 9, 70, 102
1, 254210, Control_c, 5, 10, 34
1, 254226, Note_on_c, 9, 70, 0
1, 254226, Note_on_c, 9, 42, 0
1, 254298, Note_on_c, 5, 58, 0
1, 254304, Note_on_c, 5, 65, 65
1, 254304, Note_on_c, 9, 42, 85
1, 254306, Control_c, 5, 10, 38
1, 254322, Note_on_c, 9, 42, 0
1, 254327, Note_on_c, 7, 77, 0
1, 254394, Note_on_c, 5, 65, 0
1, 254400, Note_on_c, 4, 86, 107
1, 254400, Note_on_c, 5, 70, 65
1, 254400, Note_on_c, 6, 67, 107
1, 254400, Note_on_c, 9, 46, 117
1, 254400, Note_on_c, 9, 70, 30
1, 254402, Control_c, 5, 10, 42
1, 254418, Note_on_c, 9, 70, 0
1, 254418, Note_on_c, 9, 46, 0
1, 254450, Note_on_c, 4, 89, 0
1, 254490, Note_on_c, 5, 70, 0
1, 254496, Note_on_c, 5, 65, 65
1, 254496, Note_on_c, 9, 70, 59
1, 254498, Control_c, 5, 10, 45
1, 254514, Note_on_c, 9, 70, 0
1, 254528, Note_on_c, 6, 67, 0
1, 254578, Note_on_c, 3, 67, 0
1, 254586, Note_on_c, 5, 65, 0
1, 254592, Note_on_c, 3, 65, 82
1, 254592, Note_on_c, 4, 82, 107
1, 254592, Note_on_c, 5, 74, 95
1, 254592, Note_on_c, 7, 79, 94
1, 254592, Note_on_c, 9, 42, 76
1, 254592, Note_on_c, 9, 70, 86
1, 254594, Control_c, 5, 10, 49
1, 254610, Note_on_c, 9, 70, 0
1, 254610, Note_on_c, 9, 42, 0
1, 254627, Note_on_c, 4, 86, 0
1, 254682, Note_on_c, 5, 74, 0
1, 254688, Note_on_c, 5, 65, 71
1, 254688, Note_on_c, 9, 42, 85
1, 254690, Control_c, 5, 10, 53
1, 254706, Note_on_c, 9, 42, 0
1, 254711, Note_on_c, 7, 79, 0
1, 254778, Note_on_c, 5, 65, 0
1, 254784, Note_on_c, 4, 86, 107
1, 254784, Note_on_c, 5, 58, 56
1, 254784, Note_on_c, 6, 69, 110
1, 254784, Note_on_c, 9, 46, 117
1, 254784, Note_on_c, 9, 70, 76
1, 254786, Control_c, 5, 10, 57
1, 254802, Note_on_c, 9, 70, 0
1, 254802, Note_on_c, 9, 46, 0
1, 254806, Note_on_c, 4, 82, 0
1, 254834, Note_on_c, 2, 58, 0
1, 254834, Note_on_c, 2, 53, 0
1, 254874, Note_on_c, 5, 58, 0
1, 254880, Note_on_c, 5, 62, 53
1, 254882, Control_c, 5, 10, 61
1, 254912, Note_on_c, 6, 69, 0
1, 254925, Note_on_c, 3, 65, 0
1, 254930, Note_on_c, 2, 62, 0
1, 254930, Note_on_c, 2, 46, 0
1, 254936, Note_on_c, 2, 43, 61
1, 254936, Note_on_c, 2, 55, 61
1, 254936, Note_on_c, 2, 58, 61
1, 254944, Note_on_c, 2, 62, 61
1, 254955, Note_on_c, 4, 86, 0
1, 254970, Note_on_c, 5, 62, 0
1, 254976, Note_on_c, 3, 67, 82
1, 254976, Note_on_c, 4, 91, 107
1, 254976, Note_on_c, 5, 55, 47
1, 254976, Note_on_c, 7, 81, 94
1, 254976, Note_on_c, 9, 42, 76
1, 254976, Note_on_c, 9, 70, 102
1, 254978, Pitch_bend_c, 1, 8192
1, 254978, Control_c, 5, 10, 65
1, 254994, Note_on_c, 9, 70, 0
1, 254994, Note_on_c, 9, 42, 0
1, 255066, Note_on_c, 5, 55, 0
1, 255072, Note_on_c, 5, 58, 64
1, 255072, Note_on_c, 9, 42, 85
1, 255074, Control_c, 5, 10, 69
1, 255090, Note_on_c, 9, 42, 0
1, 255095, Note_on_c, 7, 81, 0
1, 255162, Note_on_c, 5, 58, 0
1, 255168, Note_on_c, 4, 86, 107
1, 255168, Note_on_c, 5, 60, 64
1, 255168, Note_on_c, 6, 72, 110
1, 255168, Note_on_c, 9, 46, 117
1, 255170, Control_c, 5, 10, 73
1, 255186, Note_on_c, 9, 46, 0
1, 255216, Note_on_c, 4, 91, 0
1, 255258, Note_on_c, 5, 60, 0
1, 255264, Note_on_c, 5, 62, 80
1, 255264, Note_on_c, 9, 70, 54
1, 255266, Control_c, 5, 10, 77
1, 255282, Note_on_c, 9, 70, 0
1, 255296, Note_on_c, 6, 72, 0
1, 255327, Note_on_c, 4, 86, 0
1, 255354, Note_on_c, 5, 62, 0
1, 255360, Note_on_c, 4, 82, 107
1, 255360, Note_on_c, 5, 67, 68
1, 255360, Note_on_c, 7, 81, 80
1, 255360, Note_on_c, 9, 42, 76
1, 255360, Note_on_c, 9, 70, 102
1, 255362, Control_c, 5, 10, 81
1, 255378, Note_on_c, 9, 70, 0
1, 255378, Note_on_c, 9, 42, 0
1, 255450, Note_on_c, 5, 67, 0
1, 255456, Note_on_c, 5, 70, 65
1, 255456, Note_on_c, 9, 42, 85
1, 255458, Control_c, 5, 10, 85
1, 255474, Note_on_c, 9, 42, 0
1, 255479, Note_on_c, 7, 81, 0
1, 255546, Note_on_c, 5, 70, 0
1, 255552, Note_on_c, 4, 86, 107
1, 255552, Note_on_c, 5, 74, 64
1, 255552, Note_on_c, 6, 69, 104
1, 255552, Note_on_c, 9, 46, 117
1, 255552, Note_on_c, 9, 70, 90
1, 255554, Control_c, 5, 10, 88
1, 255570, Note_on_c, 9, 70, 0
1, 255570, Note_on_c, 9, 46, 0
1, 255584, Note_on_c, 4, 82, 0
1, 255642, Note_on_c, 5, 74, 0
1, 255648, Note_on_c, 5, 77, 71
1, 255650, Control_c, 5, 10, 92
1, 255680, Note_on_c, 6, 69, 0
1, 255698, Note_on_c, 2, 43, 0
1, 255698, Note_on_c, 2, 58, 0
1, 255698, Note_on_c, 2, 55, 0
1, 255704, Note_on_c, 2, 48, 61
1, 255704, Note_on_c, 2, 55, 61
1, 255704, Note_on_c, 2, 60, 61
1, 255704, Note_on_c, 2, 64, 61
1, 255706, Note_on_c, 2, 62, 0
1, 255708, Note_on_c, 4, 86, 0
1, 255738, Note_on_c, 5, 77, 0
1, 255738, Note_on_c, 3, 67, 0
1, 255744, Note_on_c, 3, 69, 95
1, 255744, Note_on_c, 4, 91, 107
1, 255744, Note_on_c, 5, 79, 80
1, 255744, Note_on_c, 7, 81, 94
1, 255744, Note_on_c, 9, 42, 76
1, 255744, Note_on_c, 9, 70, 96
1, 255746, Control_c, 5, 10, 96
1, 255762, Note_on_c, 9, 70, 0
1, 255762, Note_on_c, 9, 42, 0
1, 255834, Note_on_c, 5, 79, 0
1, 255840, Note_on_c, 5, 74, 71
1, 255840, Note_on_c, 9, 42, 85
1, 255842, Control_c, 5, 10, 100
1, 255858, Note_on_c, 9, 42, 0
1, 255863, Note_on_c, 7, 81, 0
1, 255930, Note_on_c, 5, 74, 0
1, 255936, Note_on_c, 4, 88, 107
1, 255936, Note_on_c, 5, 72, 71
1, 255936, Note_on_c, 6, 67, 104
1, 255936, Note_on_c, 9, 46, 117
1, 255936, Note_on_c, 9, 70, 23
1, 255938, Control_c, 5, 10, 104
1, 255954, Note_on_c, 9, 70, 0
1, 255954, Note_on_c, 9, 46, 0
1, 255996, Note_on_c, 4, 91, 0
1, 256026, Note_on_c, 5, 72, 0
1, 256032, Note_on_c, 5, 70, 65
1, 256032, Note_on_c, 9, 70, 36
1, 256034, Control_c, 5, 10, 108
1, 256050, Note_on_c, 9, 70, 0
1, 256064, Note_on_c, 6, 67, 0
1, 256112, Note_on_c, 4, 88, 0
1, 256122, Note_on_c, 5, 70, 0
1, 256128, Note_on_c, 4, 84, 107
1, 256128, Note_on_c, 5, 67, 68
1, 256128, Note_on_c, 7, 81, 74
1, 256128, Note_on_c, 9, 42, 76
1, 256128, Note_on_c, 9, 70, 102
1, 256130, Control_c, 5, 10, 112
1, 256146, Note_on_c, 9, 70, 0
1, 256146, Note_on_c, 9, 42, 0
1, 256218, Note_on_c, 5, 67, 0
1, 256224, Note_on_c, 5, 62, 80
1, 256224, Note_on_c, 9, 42, 85
1, 256226, Control_c, 5, 10, 116
1, 256242, Note_on_c, 9, 42, 0
1, 256247, Note_on_c, 7, 81, 0
1, 256314, Note_on_c, 5, 62, 0
1, 256320, Note_on_c, 4, 88, 107
1, 256320, Note_on_c, 5, 67, 80
1, 256320, Note_on_c, 6, 65, 104
1, 256320, Note_on_c, 9, 46, 117
1, 256320, Note_on_c, 9, 70, 73
1, 256322, Control_c, 5, 10, 120
1, 256338, Note_on_c, 9, 70, 0
1, 256338, Note_on_c, 9, 46, 0
1, 256347, Note_on_c, 4, 84, 0
1, 256410, Note_on_c, 5, 67, 0
1, 256416, Note_on_c, 5, 62, 80
1, 256418, Control_c, 5, 10, 124
1, 256447, Note_on_c, 4, 88, 0
1, 256448, Note_on_c, 6, 65, 0
1, 256456, Note_on_c, 2, 84, 46
1, 256466, Note_on_c, 2, 60, 0
1, 256466, Note_on_c, 2, 64, 0
1, 256466, Note_on_c, 2, 48, 0
1, 256466, Note_on_c, 2, 55, 0
1, 256466, Note_on_c, 2, 77, 46
1, 256472, Note_on_c, 2, 41, 61
1, 256472, Note_on_c, 2, 60, 61
1, 256472, Note_on_c, 2, 65, 61
1, 256472, Note_on_c, 2, 69, 61
1, 256506, Note_on_c, 5, 62, 0
1, 256506, Note_on_c, 3, 69, 0
1, 256512, Note_on_c, 3, 65, 67
1, 257906, Note_on_c, 2, 41, 0
1, 258022, Control_c, 2, 11, 127
1, 258056, Note_on_c, 3, 65, 0
1, 259582, Control_c, 2, 11, 119
1, 259586, Control_c, 2, 11, 125
1, 259682, Control_c, 2, 11, 119
1, 259778, Control_c, 2, 11, 114
1, 259874, Control_c, 2, 11, 109
1, 259970, Control_c, 2, 11, 104
1, 260066, Control_c, 2, 11, 99
1, 260162, Control_c, 2, 11, 94
1, 260258, Control_c, 2, 11, 89
1, 260354, Control_c, 2, 11, 84
1, 260450, Control_c, 2, 11, 79
1, 260546, Control_c, 2, 11, 74
1, 260642, Control_c, 2, 11, 69
1, 260738, Control_c, 2, 11, 64
1, 260834, Control_c, 2, 11, 59
1, 260930, Control_c, 2, 11, 54
1, 261026, Control_c, 2, 11, 49
1, 261114, Note_on_c, 2, 60, 0
1, 261114, Note_on_c, 2, 65, 0
1, 261114, Note_on_c, 2, 84, 0
1, 261114, Note_on_c, 2, 69, 0
1, 261114, Note_on_c, 2, 77, 0
1, 261122, Control_c, 1, 120, 0
1, 261122, Control_c, 2, 120, 0
1, 261146, Control_c, 11, 120, 0
1, 261182, Control_c, 12, 120, 0
1, 261194, Control_c, 10, 120, 0
1, 261314, Control_c, 1, 123, 0
1, 261314, Control_c, 2, 123, 0
1, 261338, Control_c, 11, 123, 0
1, 261350, Control_c, 7, 120, 0
1, 261350, Control_c, 9, 120, 0
1, 261374, Control_c, 12, 123, 0
1, 261386, Control_c, 8, 120, 0
1, 261386, Control_c, 10, 123, 0
1, 261422, Control_c, 5, 120, 0
1, 261422, Control_c, 6, 120, 0
1, 261470, Control_c, 3, 120, 0
1, 261542, Control_c, 7, 123, 0
1, 261542, Control_c, 9, 123, 0
1, 261554, Control_c, 4, 120, 0
1, 261578, Control_c, 8, 123, 0
1, 261614, Control_c, 5, 123, 0
1, 261614, Control_c, 6, 123, 0
1, 261662, Control_c, 3, 123, 0
1, 261746, Control_c, 4, 123, 0
1, 297786, Note_on_c, 9, 50, 0
1, 297786, End_track
0, 0, End_of_file
