0, 0, Header, 1, 4, 192
1, 0, Start_track
1, 0, Title_t, "Piano Template"
1, 0, Text_t, "By <Name>"
1, 0, Copyright_t, "Copyright © <Year> by <Name>"
1, 0, Copyright_t, "All Rights Reserved"
1, 0, Text_t, "Generated by NoteWorthy Composer"
1, 0, Tempo, 300000
1, 0, Key_signature, -1, "major"
1, 0, Time_signature, 6, 3, 24, 8
1, 0, End_track
2, 0, Start_track
2, 0, MIDI_port, 0
2, 0, Title_t, "Right Hand"
2, 0, Program_c, 0, 0
2, 0, Control_c, 0, 7, 127
2, 0, Control_c, 0, 10, 64
2, 0, Control_c, 0, 64, 127
2, 0, Note_on_c, 0, 62, 108
2, 192, Note_on_c, 0, 62, 0
2, 192, Note_on_c, 0, 62, 108
2, 288, Note_on_c, 0, 62, 0
2, 288, Note_on_c, 0, 62, 108
2, 480, Note_on_c, 0, 62, 0
2, 480, Note_on_c, 0, 62, 108
2, 576, Note_on_c, 0, 62, 0
2, 576, Note_on_c, 0, 62, 108
2, 768, Note_on_c, 0, 62, 0
2, 768, Note_on_c, 0, 62, 108
2, 864, Note_on_c, 0, 62, 0
2, 864, Note_on_c, 0, 62, 108
2, 960, Note_on_c, 0, 62, 0
2, 960, Note_on_c, 0, 62, 108
2, 1056, Note_on_c, 0, 62, 0
2, 1056, Note_on_c, 0, 62, 108
2, 1152, Note_on_c, 0, 62, 0
2, 1152, Note_on_c, 0, 62, 108
2, 1344, Note_on_c, 0, 62, 0
2, 1344, Note_on_c, 0, 62, 108
2, 1440, Note_on_c, 0, 62, 0
2, 1440, Note_on_c, 0, 62, 108
2, 1632, Note_on_c, 0, 62, 0
2, 1632, Note_on_c, 0, 62, 108
2, 1728, Note_on_c, 0, 62, 0
2, 1728, Note_on_c, 0, 62, 108
2, 1920, Note_on_c, 0, 62, 0
2, 1920, Note_on_c, 0, 62, 108
2, 2016, Note_on_c, 0, 62, 0
2, 2016, Note_on_c, 0, 62, 108
2, 2112, Note_on_c, 0, 62, 0
2, 2112, Note_on_c, 0, 62, 108
2, 2208, Note_on_c, 0, 62, 0
2, 2208, Note_on_c, 0, 62, 108
2, 2304, Note_on_c, 0, 62, 0
2, 2304, Note_on_c, 0, 62, 108
2, 2496, Note_on_c, 0, 62, 0
2, 2496, Note_on_c, 0, 62, 108
2, 2592, Note_on_c, 0, 62, 0
2, 2592, Note_on_c, 0, 62, 108
2, 2784, Note_on_c, 0, 62, 0
2, 2784, Note_on_c, 0, 62, 108
2, 2880, Note_on_c, 0, 62, 0
2, 2880, Control_c, 0, 64, 0
2, 2880, Note_on_c, 0, 62, 108
2, 3072, Note_on_c, 0, 62, 0
2, 3072, Note_on_c, 0, 62, 108
2, 3168, Note_on_c, 0, 62, 0
2, 3168, Note_on_c, 0, 62, 108
2, 3264, Note_on_c, 0, 62, 0
2, 3264, Note_on_c, 0, 57, 108
2, 3360, Note_on_c, 0, 57, 0
2, 3360, Note_on_c, 0, 60, 108
2, 3456, Note_on_c, 0, 60, 0
2, 3456, Note_on_c, 0, 53, 108
2, 3456, Note_on_c, 0, 57, 108
2, 3456, Note_on_c, 0, 62, 108
2, 3648, Note_on_c, 0, 53, 0
2, 3648, Note_on_c, 0, 57, 0
2, 3648, Note_on_c, 0, 62, 0
2, 3648, Note_on_c, 0, 53, 108
2, 3648, Note_on_c, 0, 57, 108
2, 3648, Note_on_c, 0, 62, 108
2, 3840, Note_on_c, 0, 53, 0
2, 3840, Note_on_c, 0, 57, 0
2, 3840, Note_on_c, 0, 62, 0
2, 3840, Note_on_c, 0, 53, 108
2, 3840, Note_on_c, 0, 57, 108
2, 3840, Note_on_c, 0, 62, 108
2, 3936, Note_on_c, 0, 53, 0
2, 3936, Note_on_c, 0, 57, 0
2, 3936, Note_on_c, 0, 62, 0
2, 3936, Note_on_c, 0, 57, 108
2, 3936, Note_on_c, 0, 60, 108
2, 3936, Note_on_c, 0, 64, 108
2, 4032, Note_on_c, 0, 57, 0
2, 4032, Note_on_c, 0, 60, 0
2, 4032, Note_on_c, 0, 64, 0
2, 4032, Note_on_c, 0, 58, 108
2, 4032, Note_on_c, 0, 62, 108
2, 4032, Note_on_c, 0, 65, 108
2, 4224, Note_on_c, 0, 58, 0
2, 4224, Note_on_c, 0, 62, 0
2, 4224, Note_on_c, 0, 65, 0
2, 4224, Note_on_c, 0, 58, 108
2, 4224, Note_on_c, 0, 62, 108
2, 4224, Note_on_c, 0, 65, 108
2, 4416, Note_on_c, 0, 58, 0
2, 4416, Note_on_c, 0, 62, 0
2, 4416, Note_on_c, 0, 65, 0
2, 4416, Note_on_c, 0, 58, 108
2, 4416, Note_on_c, 0, 62, 108
2, 4416, Note_on_c, 0, 65, 108
2, 4512, Note_on_c, 0, 58, 0
2, 4512, Note_on_c, 0, 62, 0
2, 4512, Note_on_c, 0, 65, 0
2, 4512, Note_on_c, 0, 62, 108
2, 4512, Note_on_c, 0, 67, 108
2, 4608, Note_on_c, 0, 62, 0
2, 4608, Note_on_c, 0, 67, 0
2, 4608, Note_on_c, 0, 57, 108
2, 4608, Note_on_c, 0, 60, 108
2, 4608, Note_on_c, 0, 64, 108
2, 4800, Note_on_c, 0, 57, 0
2, 4800, Note_on_c, 0, 60, 0
2, 4800, Note_on_c, 0, 64, 0
2, 4800, Note_on_c, 0, 57, 108
2, 4800, Note_on_c, 0, 60, 108
2, 4800, Note_on_c, 0, 64, 108
2, 4992, Note_on_c, 0, 57, 0
2, 4992, Note_on_c, 0, 60, 0
2, 4992, Note_on_c, 0, 64, 0
2, 4992, Note_on_c, 0, 57, 108
2, 4992, Note_on_c, 0, 62, 108
2, 5088, Note_on_c, 0, 57, 0
2, 5088, Note_on_c, 0, 62, 0
2, 5088, Note_on_c, 0, 55, 108
2, 5088, Note_on_c, 0, 60, 108
2, 5184, Note_on_c, 0, 55, 0
2, 5184, Note_on_c, 0, 60, 0
2, 5184, Note_on_c, 0, 57, 108
2, 5184, Note_on_c, 0, 60, 108
2, 5280, Note_on_c, 0, 57, 0
2, 5280, Note_on_c, 0, 60, 0
2, 5280, Note_on_c, 0, 57, 108
2, 5280, Note_on_c, 0, 62, 108
2, 5472, Note_on_c, 0, 57, 0
2, 5472, Note_on_c, 0, 62, 0
2, 5568, Note_on_c, 0, 57, 108
2, 5664, Note_on_c, 0, 57, 0
2, 5664, Note_on_c, 0, 60, 108
2, 5760, Note_on_c, 0, 60, 0
2, 5760, Note_on_c, 0, 53, 108
2, 5760, Note_on_c, 0, 58, 108
2, 5760, Note_on_c, 0, 62, 108
2, 5952, Note_on_c, 0, 53, 0
2, 5952, Note_on_c, 0, 58, 0
2, 5952, Note_on_c, 0, 62, 0
2, 5952, Note_on_c, 0, 53, 108
2, 5952, Note_on_c, 0, 58, 108
2, 5952, Note_on_c, 0, 62, 108
2, 6144, Note_on_c, 0, 53, 0
2, 6144, Note_on_c, 0, 58, 0
2, 6144, Note_on_c, 0, 62, 0
2, 6144, Note_on_c, 0, 58, 108
2, 6144, Note_on_c, 0, 62, 108
2, 6240, Note_on_c, 0, 58, 0
2, 6240, Note_on_c, 0, 62, 0
2, 6240, Note_on_c, 0, 58, 108
2, 6240, Note_on_c, 0, 64, 108
2, 6336, Note_on_c, 0, 58, 0
2, 6336, Note_on_c, 0, 64, 0
2, 6336, Note_on_c, 0, 57, 108
2, 6336, Note_on_c, 0, 60, 108
2, 6336, Note_on_c, 0, 65, 108
2, 6528, Note_on_c, 0, 57, 0
2, 6528, Note_on_c, 0, 60, 0
2, 6528, Note_on_c, 0, 65, 0
2, 6528, Note_on_c, 0, 57, 108
2, 6528, Note_on_c, 0, 60, 108
2, 6528, Note_on_c, 0, 65, 108
2, 6720, Note_on_c, 0, 57, 0
2, 6720, Note_on_c, 0, 60, 0
2, 6720, Note_on_c, 0, 65, 0
2, 6720, Note_on_c, 0, 60, 108
2, 6720, Note_on_c, 0, 65, 108
2, 6816, Note_on_c, 0, 60, 0
2, 6816, Note_on_c, 0, 65, 0
2, 6816, Note_on_c, 0, 60, 108
2, 6816, Note_on_c, 0, 67, 108
2, 6912, Note_on_c, 0, 60, 0
2, 6912, Note_on_c, 0, 67, 0
2, 6912, Note_on_c, 0, 57, 108
2, 6912, Note_on_c, 0, 60, 108
2, 6912, Note_on_c, 0, 64, 108
2, 7104, Note_on_c, 0, 57, 0
2, 7104, Note_on_c, 0, 60, 0
2, 7104, Note_on_c, 0, 64, 0
2, 7104, Note_on_c, 0, 57, 108
2, 7104, Note_on_c, 0, 60, 108
2, 7104, Note_on_c, 0, 64, 108
2, 7296, Note_on_c, 0, 57, 0
2, 7296, Note_on_c, 0, 60, 0
2, 7296, Note_on_c, 0, 64, 0
2, 7296, Note_on_c, 0, 57, 108
2, 7296, Note_on_c, 0, 62, 108
2, 7392, Note_on_c, 0, 57, 0
2, 7392, Note_on_c, 0, 62, 0
2, 7392, Note_on_c, 0, 55, 108
2, 7392, Note_on_c, 0, 60, 108
2, 7488, Note_on_c, 0, 55, 0
2, 7488, Note_on_c, 0, 60, 0
2, 7488, Note_on_c, 0, 53, 108
2, 7488, Note_on_c, 0, 57, 108
2, 7488, Note_on_c, 0, 62, 108
2, 7680, Note_on_c, 0, 53, 0
2, 7680, Note_on_c, 0, 57, 0
2, 7680, Note_on_c, 0, 62, 0
2, 7872, Note_on_c, 0, 57, 108
2, 7968, Note_on_c, 0, 57, 0
2, 7968, Note_on_c, 0, 60, 108
2, 8064, Note_on_c, 0, 60, 0
2, 8064, Note_on_c, 0, 53, 108
2, 8064, Note_on_c, 0, 57, 108
2, 8064, Note_on_c, 0, 62, 108
2, 8256, Note_on_c, 0, 53, 0
2, 8256, Note_on_c, 0, 57, 0
2, 8256, Note_on_c, 0, 62, 0
2, 8256, Note_on_c, 0, 53, 108
2, 8256, Note_on_c, 0, 57, 108
2, 8256, Note_on_c, 0, 62, 108
2, 8448, Note_on_c, 0, 53, 0
2, 8448, Note_on_c, 0, 57, 0
2, 8448, Note_on_c, 0, 62, 0
2, 8448, Note_on_c, 0, 57, 108
2, 8448, Note_on_c, 0, 62, 108
2, 8544, Note_on_c, 0, 57, 0
2, 8544, Note_on_c, 0, 62, 0
2, 8544, Note_on_c, 0, 57, 108
2, 8544, Note_on_c, 0, 65, 108
2, 8640, Note_on_c, 0, 57, 0
2, 8640, Note_on_c, 0, 65, 0
2, 8640, Note_on_c, 0, 58, 108
2, 8640, Note_on_c, 0, 62, 108
2, 8640, Note_on_c, 0, 67, 108
2, 8832, Note_on_c, 0, 58, 0
2, 8832, Note_on_c, 0, 62, 0
2, 8832, Note_on_c, 0, 67, 0
2, 8832, Note_on_c, 0, 58, 108
2, 8832, Note_on_c, 0, 62, 108
2, 8832, Note_on_c, 0, 67, 108
2, 9024, Note_on_c, 0, 58, 0
2, 9024, Note_on_c, 0, 62, 0
2, 9024, Note_on_c, 0, 67, 0
2, 9024, Note_on_c, 0, 62, 108
2, 9024, Note_on_c, 0, 67, 108
2, 9120, Note_on_c, 0, 62, 0
2, 9120, Note_on_c, 0, 67, 0
2, 9120, Note_on_c, 0, 62, 108
2, 9120, Note_on_c, 0, 69, 108
2, 9216, Note_on_c, 0, 62, 0
2, 9216, Note_on_c, 0, 69, 0
2, 9216, Note_on_c, 0, 62, 108
2, 9216, Note_on_c, 0, 67, 108
2, 9216, Note_on_c, 0, 70, 108
2, 9408, Note_on_c, 0, 62, 0
2, 9408, Note_on_c, 0, 67, 0
2, 9408, Note_on_c, 0, 70, 0
2, 9408, Note_on_c, 0, 62, 108
2, 9408, Note_on_c, 0, 67, 108
2, 9408, Note_on_c, 0, 70, 108
2, 9600, Note_on_c, 0, 62, 0
2, 9600, Note_on_c, 0, 67, 0
2, 9600, Note_on_c, 0, 70, 0
2, 9600, Note_on_c, 0, 65, 108
2, 9600, Note_on_c, 0, 69, 108
2, 9696, Note_on_c, 0, 65, 0
2, 9696, Note_on_c, 0, 69, 0
2, 9696, Note_on_c, 0, 64, 108
2, 9696, Note_on_c, 0, 67, 108
2, 9792, Note_on_c, 0, 64, 0
2, 9792, Note_on_c, 0, 67, 0
2, 9792, Note_on_c, 0, 65, 108
2, 9792, Note_on_c, 0, 69, 108
2, 9886, Note_on_c, 0, 65, 0
2, 9886, Note_on_c, 0, 69, 0
2, 9888, Note_on_c, 0, 62, 108
2, 10080, Note_on_c, 0, 62, 0
2, 10176, Note_on_c, 0, 62, 108
2, 10272, Note_on_c, 0, 62, 0
2, 10272, Note_on_c, 0, 64, 108
2, 10368, Note_on_c, 0, 64, 0
2, 10368, Note_on_c, 0, 58, 108
2, 10368, Note_on_c, 0, 62, 108
2, 10368, Note_on_c, 0, 65, 108
2, 10560, Note_on_c, 0, 58, 0
2, 10560, Note_on_c, 0, 62, 0
2, 10560, Note_on_c, 0, 65, 0
2, 10560, Note_on_c, 0, 58, 108
2, 10560, Note_on_c, 0, 62, 108
2, 10560, Note_on_c, 0, 65, 108
2, 10752, Note_on_c, 0, 58, 0
2, 10752, Note_on_c, 0, 62, 0
2, 10752, Note_on_c, 0, 65, 0
2, 10752, Note_on_c, 0, 58, 108
2, 10752, Note_on_c, 0, 62, 108
2, 10752, Note_on_c, 0, 67, 108
2, 10944, Note_on_c, 0, 58, 0
2, 10944, Note_on_c, 0, 62, 0
2, 10944, Note_on_c, 0, 67, 0
2, 10944, Note_on_c, 0, 65, 108
2, 10944, Note_on_c, 0, 69, 108
2, 11040, Note_on_c, 0, 65, 0
2, 11040, Note_on_c, 0, 69, 0
2, 11040, Note_on_c, 0, 62, 108
2, 11232, Note_on_c, 0, 62, 0
2, 11328, Note_on_c, 0, 62, 108
2, 11424, Note_on_c, 0, 62, 0
2, 11424, Note_on_c, 0, 65, 108
2, 11520, Note_on_c, 0, 65, 0
2, 11520, Note_on_c, 0, 57, 108
2, 11520, Note_on_c, 0, 61, 108
2, 11520, Note_on_c, 0, 64, 108
2, 11712, Note_on_c, 0, 57, 0
2, 11712, Note_on_c, 0, 61, 0
2, 11712, Note_on_c, 0, 64, 0
2, 11712, Note_on_c, 0, 57, 108
2, 11712, Note_on_c, 0, 61, 108
2, 11712, Note_on_c, 0, 64, 108
2, 11904, Note_on_c, 0, 57, 0
2, 11904, Note_on_c, 0, 61, 0
2, 11904, Note_on_c, 0, 64, 0
2, 11904, Note_on_c, 0, 62, 108
2, 11904, Note_on_c, 0, 65, 108
2, 12000, Note_on_c, 0, 62, 0
2, 12000, Note_on_c, 0, 65, 0
2, 12000, Note_on_c, 0, 59, 108
2, 12000, Note_on_c, 0, 62, 108
2, 12096, Note_on_c, 0, 59, 0
2, 12096, Note_on_c, 0, 62, 0
2, 12096, Note_on_c, 0, 57, 108
2, 12096, Note_on_c, 0, 61, 108
2, 12096, Note_on_c, 0, 64, 108
2, 12384, Note_on_c, 0, 57, 0
2, 12384, Note_on_c, 0, 61, 0
2, 12384, Note_on_c, 0, 64, 0
2, 12480, Note_on_c, 0, 69, 108
2, 12576, Note_on_c, 0, 69, 0
2, 12576, Note_on_c, 0, 72, 108
2, 12672, Note_on_c, 0, 72, 0
2, 12672, Note_on_c, 0, 65, 108
2, 12672, Note_on_c, 0, 69, 108
2, 12672, Note_on_c, 0, 74, 108
2, 12864, Note_on_c, 0, 65, 0
2, 12864, Note_on_c, 0, 69, 0
2, 12864, Note_on_c, 0, 74, 0
2, 12864, Note_on_c, 0, 65, 108
2, 12864, Note_on_c, 0, 69, 108
2, 12864, Note_on_c, 0, 74, 108
2, 13056, Note_on_c, 0, 65, 0
2, 13056, Note_on_c, 0, 69, 0
2, 13056, Note_on_c, 0, 74, 0
2, 13056, Note_on_c, 0, 65, 108
2, 13056, Note_on_c, 0, 69, 108
2, 13056, Note_on_c, 0, 74, 108
2, 13152, Note_on_c, 0, 65, 0
2, 13152, Note_on_c, 0, 69, 0
2, 13152, Note_on_c, 0, 74, 0
2, 13152, Note_on_c, 0, 69, 108
2, 13152, Note_on_c, 0, 72, 108
2, 13152, Note_on_c, 0, 76, 108
2, 13248, Note_on_c, 0, 69, 0
2, 13248, Note_on_c, 0, 72, 0
2, 13248, Note_on_c, 0, 76, 0
2, 13248, Note_on_c, 0, 70, 108
2, 13248, Note_on_c, 0, 74, 108
2, 13248, Note_on_c, 0, 77, 108
2, 13440, Note_on_c, 0, 70, 0
2, 13440, Note_on_c, 0, 74, 0
2, 13440, Note_on_c, 0, 77, 0
2, 13440, Note_on_c, 0, 70, 108
2, 13440, Note_on_c, 0, 74, 108
2, 13440, Note_on_c, 0, 77, 108
2, 13632, Note_on_c, 0, 70, 0
2, 13632, Note_on_c, 0, 74, 0
2, 13632, Note_on_c, 0, 77, 0
2, 13632, Note_on_c, 0, 70, 108
2, 13632, Note_on_c, 0, 74, 108
2, 13632, Note_on_c, 0, 77, 108
2, 13728, Note_on_c, 0, 70, 0
2, 13728, Note_on_c, 0, 74, 0
2, 13728, Note_on_c, 0, 77, 0
2, 13728, Note_on_c, 0, 74, 108
2, 13728, Note_on_c, 0, 79, 108
2, 13824, Note_on_c, 0, 74, 0
2, 13824, Note_on_c, 0, 79, 0
2, 13824, Note_on_c, 0, 69, 108
2, 13824, Note_on_c, 0, 72, 108
2, 13824, Note_on_c, 0, 76, 108
2, 14016, Note_on_c, 0, 69, 0
2, 14016, Note_on_c, 0, 72, 0
2, 14016, Note_on_c, 0, 76, 0
2, 14016, Note_on_c, 0, 69, 108
2, 14016, Note_on_c, 0, 72, 108
2, 14016, Note_on_c, 0, 76, 108
2, 14208, Note_on_c, 0, 69, 0
2, 14208, Note_on_c, 0, 72, 0
2, 14208, Note_on_c, 0, 76, 0
2, 14208, Note_on_c, 0, 69, 108
2, 14208, Note_on_c, 0, 74, 108
2, 14304, Note_on_c, 0, 69, 0
2, 14304, Note_on_c, 0, 74, 0
2, 14304, Note_on_c, 0, 67, 108
2, 14304, Note_on_c, 0, 72, 108
2, 14400, Note_on_c, 0, 67, 0
2, 14400, Note_on_c, 0, 72, 0
2, 14400, Note_on_c, 0, 69, 108
2, 14400, Note_on_c, 0, 72, 108
2, 14494, Note_on_c, 0, 69, 0
2, 14494, Note_on_c, 0, 72, 0
2, 14496, Note_on_c, 0, 69, 108
2, 14496, Note_on_c, 0, 74, 108
2, 14656, Note_on_c, 0, 69, 0
2, 14656, Note_on_c, 0, 74, 0
2, 14784, Note_on_c, 0, 69, 108
2, 14880, Note_on_c, 0, 69, 0
2, 14880, Note_on_c, 0, 72, 108
2, 14976, Note_on_c, 0, 72, 0
2, 14976, Note_on_c, 0, 65, 108
2, 14976, Note_on_c, 0, 70, 108
2, 14976, Note_on_c, 0, 74, 108
2, 15168, Note_on_c, 0, 65, 0
2, 15168, Note_on_c, 0, 70, 0
2, 15168, Note_on_c, 0, 74, 0
2, 15168, Note_on_c, 0, 65, 108
2, 15168, Note_on_c, 0, 70, 108
2, 15168, Note_on_c, 0, 74, 108
2, 15360, Note_on_c, 0, 65, 0
2, 15360, Note_on_c, 0, 70, 0
2, 15360, Note_on_c, 0, 74, 0
2, 15360, Note_on_c, 0, 70, 108
2, 15360, Note_on_c, 0, 74, 108
2, 15456, Note_on_c, 0, 70, 0
2, 15456, Note_on_c, 0, 74, 0
2, 15456, Note_on_c, 0, 70, 108
2, 15456, Note_on_c, 0, 76, 108
2, 15552, Note_on_c, 0, 70, 0
2, 15552, Note_on_c, 0, 76, 0
2, 15552, Note_on_c, 0, 69, 108
2, 15552, Note_on_c, 0, 72, 108
2, 15552, Note_on_c, 0, 77, 108
2, 15744, Note_on_c, 0, 69, 0
2, 15744, Note_on_c, 0, 72, 0
2, 15744, Note_on_c, 0, 77, 0
2, 15744, Note_on_c, 0, 69, 108
2, 15744, Note_on_c, 0, 72, 108
2, 15744, Note_on_c, 0, 77, 108
2, 15936, Note_on_c, 0, 69, 0
2, 15936, Note_on_c, 0, 72, 0
2, 15936, Note_on_c, 0, 77, 0
2, 15936, Note_on_c, 0, 72, 108
2, 15936, Note_on_c, 0, 77, 108
2, 16032, Note_on_c, 0, 72, 0
2, 16032, Note_on_c, 0, 77, 0
2, 16032, Note_on_c, 0, 72, 108
2, 16032, Note_on_c, 0, 79, 108
2, 16128, Note_on_c, 0, 72, 0
2, 16128, Note_on_c, 0, 79, 0
2, 16128, Note_on_c, 0, 72, 108
2, 16128, Note_on_c, 0, 76, 108
2, 16320, Note_on_c, 0, 72, 0
2, 16320, Note_on_c, 0, 76, 0
2, 16320, Note_on_c, 0, 72, 108
2, 16320, Note_on_c, 0, 76, 108
2, 16512, Note_on_c, 0, 72, 0
2, 16512, Note_on_c, 0, 76, 0
2, 16512, Note_on_c, 0, 69, 108
2, 16512, Note_on_c, 0, 74, 108
2, 16608, Note_on_c, 0, 69, 0
2, 16608, Note_on_c, 0, 74, 0
2, 16608, Note_on_c, 0, 72, 108
2, 16704, Note_on_c, 0, 72, 0
2, 16704, Note_on_c, 0, 65, 108
2, 16704, Note_on_c, 0, 69, 108
2, 16704, Note_on_c, 0, 74, 108
2, 16896, Note_on_c, 0, 65, 0
2, 16896, Note_on_c, 0, 69, 0
2, 16896, Note_on_c, 0, 74, 0
2, 17088, Note_on_c, 0, 69, 108
2, 17184, Note_on_c, 0, 69, 0
2, 17184, Note_on_c, 0, 72, 108
2, 17280, Note_on_c, 0, 72, 0
2, 17280, Note_on_c, 0, 65, 108
2, 17280, Note_on_c, 0, 69, 108
2, 17280, Note_on_c, 0, 74, 108
2, 17472, Note_on_c, 0, 65, 0
2, 17472, Note_on_c, 0, 69, 0
2, 17472, Note_on_c, 0, 74, 0
2, 17472, Note_on_c, 0, 65, 108
2, 17472, Note_on_c, 0, 69, 108
2, 17472, Note_on_c, 0, 74, 108
2, 17664, Note_on_c, 0, 65, 0
2, 17664, Note_on_c, 0, 69, 0
2, 17664, Note_on_c, 0, 74, 0
2, 17664, Note_on_c, 0, 69, 108
2, 17664, Note_on_c, 0, 74, 108
2, 17760, Note_on_c, 0, 69, 0
2, 17760, Note_on_c, 0, 74, 0
2, 17760, Note_on_c, 0, 69, 108
2, 17760, Note_on_c, 0, 77, 108
2, 17856, Note_on_c, 0, 69, 0
2, 17856, Note_on_c, 0, 77, 0
2, 17856, Note_on_c, 0, 70, 108
2, 17856, Note_on_c, 0, 74, 108
2, 17856, Note_on_c, 0, 79, 108
2, 18048, Note_on_c, 0, 70, 0
2, 18048, Note_on_c, 0, 74, 0
2, 18048, Note_on_c, 0, 79, 0
2, 18048, Note_on_c, 0, 70, 108
2, 18048, Note_on_c, 0, 74, 108
2, 18048, Note_on_c, 0, 79, 108
2, 18240, Note_on_c, 0, 70, 0
2, 18240, Note_on_c, 0, 74, 0
2, 18240, Note_on_c, 0, 79, 0
2, 18240, Note_on_c, 0, 74, 108
2, 18240, Note_on_c, 0, 79, 108
2, 18336, Note_on_c, 0, 74, 0
2, 18336, Note_on_c, 0, 79, 0
2, 18336, Note_on_c, 0, 74, 108
2, 18336, Note_on_c, 0, 81, 108
2, 18432, Note_on_c, 0, 74, 0
2, 18432, Note_on_c, 0, 81, 0
2, 18432, Note_on_c, 0, 74, 108
2, 18432, Note_on_c, 0, 79, 108
2, 18432, Note_on_c, 0, 82, 108
2, 18624, Note_on_c, 0, 74, 0
2, 18624, Note_on_c, 0, 79, 0
2, 18624, Note_on_c, 0, 82, 0
2, 18624, Note_on_c, 0, 74, 108
2, 18624, Note_on_c, 0, 79, 108
2, 18624, Note_on_c, 0, 82, 108
2, 18816, Note_on_c, 0, 74, 0
2, 18816, Note_on_c, 0, 79, 0
2, 18816, Note_on_c, 0, 82, 0
2, 18816, Note_on_c, 0, 77, 108
2, 18816, Note_on_c, 0, 81, 108
2, 18912, Note_on_c, 0, 77, 0
2, 18912, Note_on_c, 0, 81, 0
2, 18912, Note_on_c, 0, 76, 108
2, 18912, Note_on_c, 0, 79, 108
2, 19008, Note_on_c, 0, 76, 0
2, 19008, Note_on_c, 0, 79, 0
2, 19008, Note_on_c, 0, 77, 108
2, 19008, Note_on_c, 0, 81, 108
2, 19104, Note_on_c, 0, 77, 0
2, 19104, Note_on_c, 0, 81, 0
2, 19104, Note_on_c, 0, 74, 108
2, 19296, Note_on_c, 0, 74, 0
2, 19392, Note_on_c, 0, 74, 108
2, 19488, Note_on_c, 0, 74, 0
2, 19488, Note_on_c, 0, 76, 108
2, 19584, Note_on_c, 0, 76, 0
2, 19584, Note_on_c, 0, 70, 108
2, 19584, Note_on_c, 0, 74, 108
2, 19584, Note_on_c, 0, 77, 108
2, 19776, Note_on_c, 0, 70, 0
2, 19776, Note_on_c, 0, 74, 0
2, 19776, Note_on_c, 0, 77, 0
2, 19776, Note_on_c, 0, 70, 108
2, 19776, Note_on_c, 0, 74, 108
2, 19776, Note_on_c, 0, 77, 108
2, 19968, Note_on_c, 0, 70, 0
2, 19968, Note_on_c, 0, 74, 0
2, 19968, Note_on_c, 0, 77, 0
2, 19968, Note_on_c, 0, 70, 108
2, 19968, Note_on_c, 0, 74, 108
2, 19968, Note_on_c, 0, 79, 108
2, 20160, Note_on_c, 0, 70, 0
2, 20160, Note_on_c, 0, 74, 0
2, 20160, Note_on_c, 0, 79, 0
2, 20160, Note_on_c, 0, 77, 108
2, 20160, Note_on_c, 0, 81, 108
2, 20256, Note_on_c, 0, 77, 0
2, 20256, Note_on_c, 0, 81, 0
2, 20256, Note_on_c, 0, 74, 108
2, 20448, Note_on_c, 0, 74, 0
2, 20544, Note_on_c, 0, 74, 108
2, 20640, Note_on_c, 0, 74, 0
2, 20640, Note_on_c, 0, 77, 108
2, 20736, Note_on_c, 0, 77, 0
2, 20736, Note_on_c, 0, 69, 108
2, 20736, Note_on_c, 0, 73, 108
2, 20736, Note_on_c, 0, 76, 108
2, 20928, Note_on_c, 0, 69, 0
2, 20928, Note_on_c, 0, 73, 0
2, 20928, Note_on_c, 0, 76, 0
2, 20928, Note_on_c, 0, 69, 108
2, 20928, Note_on_c, 0, 73, 108
2, 20928, Note_on_c, 0, 76, 108
2, 21120, Note_on_c, 0, 69, 0
2, 21120, Note_on_c, 0, 73, 0
2, 21120, Note_on_c, 0, 76, 0
2, 21120, Note_on_c, 0, 74, 108
2, 21216, Note_on_c, 0, 74, 0
2, 21216, Note_on_c, 0, 73, 108
2, 21312, Note_on_c, 0, 73, 0
2, 21312, Note_on_c, 0, 69, 108
2, 21312, Note_on_c, 0, 74, 108
2, 21504, Note_on_c, 0, 69, 0
2, 21504, Note_on_c, 0, 74, 0
2, 21504, Note_on_c, 0, 69, 108
2, 21504, Note_on_c, 0, 74, 108
2, 21696, Note_on_c, 0, 69, 0
2, 21696, Note_on_c, 0, 74, 0
2, 21696, Note_on_c, 0, 69, 108
2, 21696, Note_on_c, 0, 72, 108
2, 21696, Note_on_c, 0, 76, 108
2, 21888, Note_on_c, 0, 69, 0
2, 21888, Note_on_c, 0, 72, 0
2, 21888, Note_on_c, 0, 76, 0
2, 21888, Note_on_c, 0, 72, 108
2, 21888, Note_on_c, 0, 74, 108
2, 21888, Note_on_c, 0, 77, 108
2, 22080, Note_on_c, 0, 72, 0
2, 22080, Note_on_c, 0, 74, 0
2, 22080, Note_on_c, 0, 77, 0
2, 22080, Note_on_c, 0, 77, 108
2, 22176, Note_on_c, 0, 77, 0
2, 22176, Note_on_c, 0, 77, 108
2, 22272, Note_on_c, 0, 77, 0
2, 22272, Note_on_c, 0, 70, 108
2, 22272, Note_on_c, 0, 74, 108
2, 22272, Note_on_c, 0, 79, 108
2, 22464, Note_on_c, 0, 70, 0
2, 22464, Note_on_c, 0, 74, 0
2, 22464, Note_on_c, 0, 79, 0
2, 22464, Control_c, 0, 64, 127
2, 22464, Note_on_c, 0, 74, 108
2, 22464, Note_on_c, 0, 81, 108
2, 22560, Note_on_c, 0, 74, 0
2, 22560, Note_on_c, 0, 81, 0
2, 22560, Note_on_c, 0, 77, 108
2, 22656, Note_on_c, 0, 77, 0
2, 22848, Note_on_c, 0, 69, 108
2, 22848, Note_on_c, 0, 77, 108
2, 22944, Note_on_c, 0, 69, 0
2, 22944, Note_on_c, 0, 77, 0
2, 22944, Note_on_c, 0, 69, 108
2, 22944, Note_on_c, 0, 74, 108
2, 23040, Note_on_c, 0, 69, 0
2, 23040, Note_on_c, 0, 74, 0
2, 23040, Note_on_c, 0, 69, 108
2, 23136, Note_on_c, 0, 69, 0
2, 23616, Note_on_c, 0, 74, 108
2, 23616, Note_on_c, 0, 79, 108
2, 23616, Note_on_c, 0, 82, 108
2, 23712, Note_on_c, 0, 74, 0
2, 23712, Note_on_c, 0, 79, 0
2, 23712, Note_on_c, 0, 82, 0
2, 24000, Note_on_c, 0, 70, 108
2, 24000, Note_on_c, 0, 79, 108
2, 24096, Note_on_c, 0, 70, 0
2, 24096, Note_on_c, 0, 79, 0
2, 24096, Note_on_c, 0, 70, 108
2, 24096, Note_on_c, 0, 74, 108
2, 24192, Note_on_c, 0, 70, 0
2, 24192, Note_on_c, 0, 74, 0
2, 24192, Note_on_c, 0, 70, 108
2, 24288, Note_on_c, 0, 70, 0
2, 24768, Note_on_c, 0, 61, 108
2, 24768, Note_on_c, 0, 64, 108
2, 24862, Note_on_c, 0, 61, 0
2, 24862, Note_on_c, 0, 64, 0
2, 24864, Note_on_c, 0, 61, 108
2, 24864, Note_on_c, 0, 64, 108
2, 25024, Note_on_c, 0, 61, 0
2, 25024, Note_on_c, 0, 64, 0
2, 25056, Note_on_c, 0, 55, 108
2, 25056, Note_on_c, 0, 62, 108
2, 25312, Note_on_c, 0, 55, 0
2, 25312, Note_on_c, 0, 62, 0
2, 25344, Note_on_c, 0, 57, 108
2, 25344, Note_on_c, 0, 61, 108
2, 25344, Note_on_c, 0, 65, 108
2, 25600, Note_on_c, 0, 57, 0
2, 25600, Note_on_c, 0, 61, 0
2, 25600, Note_on_c, 0, 65, 0
2, 25728, Note_on_c, 0, 65, 108
2, 25822, Note_on_c, 0, 65, 0
2, 25824, Note_on_c, 0, 67, 108
2, 25918, Note_on_c, 0, 67, 0
2, 25920, Note_on_c, 0, 62, 108
2, 25920, Note_on_c, 0, 65, 108
2, 25920, Note_on_c, 0, 69, 108
2, 26080, Note_on_c, 0, 62, 0
2, 26080, Note_on_c, 0, 65, 0
2, 26080, Note_on_c, 0, 69, 0
2, 26112, Note_on_c, 0, 62, 108
2, 26112, Note_on_c, 0, 65, 108
2, 26112, Note_on_c, 0, 69, 108
2, 26272, Note_on_c, 0, 62, 0
2, 26272, Note_on_c, 0, 65, 0
2, 26272, Note_on_c, 0, 69, 0
2, 26304, Note_on_c, 0, 62, 108
2, 26304, Note_on_c, 0, 65, 108
2, 26304, Note_on_c, 0, 69, 108
2, 26464, Note_on_c, 0, 62, 0
2, 26464, Note_on_c, 0, 65, 0
2, 26464, Note_on_c, 0, 69, 0
2, 26496, Note_on_c, 0, 62, 108
2, 26496, Note_on_c, 0, 65, 108
2, 26496, Note_on_c, 0, 70, 108
2, 26590, Note_on_c, 0, 62, 0
2, 26590, Note_on_c, 0, 65, 0
2, 26590, Note_on_c, 0, 70, 0
2, 26592, Note_on_c, 0, 62, 108
2, 26592, Note_on_c, 0, 65, 108
2, 26592, Note_on_c, 0, 69, 108
2, 26686, Note_on_c, 0, 62, 0
2, 26686, Note_on_c, 0, 65, 0
2, 26686, Note_on_c, 0, 69, 0
2, 27072, Note_on_c, 0, 60, 108
2, 27072, Note_on_c, 0, 64, 108
2, 27072, Note_on_c, 0, 67, 108
2, 27232, Note_on_c, 0, 60, 0
2, 27232, Note_on_c, 0, 64, 0
2, 27232, Note_on_c, 0, 67, 0
2, 27264, Note_on_c, 0, 60, 108
2, 27264, Note_on_c, 0, 64, 108
2, 27264, Note_on_c, 0, 67, 108
2, 27424, Note_on_c, 0, 60, 0
2, 27424, Note_on_c, 0, 64, 0
2, 27424, Note_on_c, 0, 67, 0
2, 27456, Note_on_c, 0, 60, 108
2, 27456, Note_on_c, 0, 64, 108
2, 27456, Note_on_c, 0, 67, 108
2, 27616, Note_on_c, 0, 60, 0
2, 27616, Note_on_c, 0, 64, 0
2, 27616, Note_on_c, 0, 67, 0
2, 27648, Note_on_c, 0, 60, 108
2, 27648, Note_on_c, 0, 64, 108
2, 27648, Note_on_c, 0, 67, 108
2, 27742, Note_on_c, 0, 60, 0
2, 27742, Note_on_c, 0, 64, 0
2, 27742, Note_on_c, 0, 67, 0
2, 27744, Note_on_c, 0, 60, 108
2, 27744, Note_on_c, 0, 65, 108
2, 27744, Note_on_c, 0, 69, 108
2, 27838, Note_on_c, 0, 60, 0
2, 27838, Note_on_c, 0, 65, 0
2, 27838, Note_on_c, 0, 69, 0
2, 28224, Note_on_c, 0, 62, 108
2, 28224, Note_on_c, 0, 65, 108
2, 28224, Note_on_c, 0, 69, 108
2, 28384, Note_on_c, 0, 62, 0
2, 28384, Note_on_c, 0, 65, 0
2, 28384, Note_on_c, 0, 69, 0
2, 28416, Note_on_c, 0, 62, 108
2, 28416, Note_on_c, 0, 65, 108
2, 28416, Note_on_c, 0, 69, 108
2, 28576, Note_on_c, 0, 62, 0
2, 28576, Note_on_c, 0, 65, 0
2, 28576, Note_on_c, 0, 69, 0
2, 28608, Note_on_c, 0, 62, 108
2, 28608, Note_on_c, 0, 65, 108
2, 28608, Note_on_c, 0, 69, 108
2, 28768, Note_on_c, 0, 62, 0
2, 28768, Note_on_c, 0, 65, 0
2, 28768, Note_on_c, 0, 69, 0
2, 28800, Note_on_c, 0, 62, 108
2, 28800, Note_on_c, 0, 65, 108
2, 28800, Note_on_c, 0, 70, 108
2, 28894, Note_on_c, 0, 62, 0
2, 28894, Note_on_c, 0, 65, 0
2, 28894, Note_on_c, 0, 70, 0
2, 28896, Note_on_c, 0, 62, 108
2, 28896, Note_on_c, 0, 65, 108
2, 28896, Note_on_c, 0, 69, 108
2, 28990, Note_on_c, 0, 62, 0
2, 28990, Note_on_c, 0, 65, 0
2, 28990, Note_on_c, 0, 69, 0
2, 29376, Note_on_c, 0, 61, 108
2, 29376, Note_on_c, 0, 64, 108
2, 29376, Note_on_c, 0, 67, 108
2, 29536, Note_on_c, 0, 61, 0
2, 29536, Note_on_c, 0, 64, 0
2, 29536, Note_on_c, 0, 67, 0
2, 29568, Note_on_c, 0, 61, 108
2, 29568, Note_on_c, 0, 65, 108
2, 29728, Note_on_c, 0, 61, 0
2, 29728, Note_on_c, 0, 65, 0
2, 29760, Note_on_c, 0, 57, 108
2, 29760, Note_on_c, 0, 64, 108
2, 29920, Note_on_c, 0, 57, 0
2, 29920, Note_on_c, 0, 64, 0
2, 29952, Note_on_c, 0, 53, 108
2, 29952, Note_on_c, 0, 57, 108
2, 29952, Note_on_c, 0, 62, 108
2, 30112, Note_on_c, 0, 53, 0
2, 30112, Note_on_c, 0, 57, 0
2, 30112, Note_on_c, 0, 62, 0
2, 30336, Note_on_c, 0, 62, 108
2, 30430, Note_on_c, 0, 62, 0
2, 30432, Note_on_c, 0, 64, 108
2, 30526, Note_on_c, 0, 64, 0
2, 30528, Note_on_c, 0, 57, 108
2, 30528, Note_on_c, 0, 62, 108
2, 30528, Note_on_c, 0, 65, 108
2, 30864, Note_on_c, 0, 57, 0
2, 30864, Note_on_c, 0, 62, 0
2, 30864, Note_on_c, 0, 65, 0
2, 30912, Note_on_c, 0, 67, 108
2, 31006, Note_on_c, 0, 67, 0
2, 31008, Note_on_c, 0, 69, 108
2, 31102, Note_on_c, 0, 69, 0
2, 31104, Note_on_c, 0, 60, 108
2, 31104, Note_on_c, 0, 67, 108
2, 31264, Note_on_c, 0, 60, 0
2, 31264, Note_on_c, 0, 67, 0
2, 31296, Note_on_c, 0, 60, 108
2, 31296, Note_on_c, 0, 65, 108
2, 31456, Note_on_c, 0, 60, 0
2, 31456, Note_on_c, 0, 65, 0
2, 31488, Note_on_c, 0, 60, 108
2, 31488, Note_on_c, 0, 64, 108
2, 31648, Note_on_c, 0, 60, 0
2, 31648, Note_on_c, 0, 64, 0
2, 31680, Note_on_c, 0, 57, 108
2, 31680, Note_on_c, 0, 60, 108
2, 31680, Note_on_c, 0, 65, 108
2, 31840, Note_on_c, 0, 57, 0
2, 31840, Note_on_c, 0, 60, 0
2, 31840, Note_on_c, 0, 65, 0
2, 31872, Note_on_c, 0, 57, 108
2, 31872, Note_on_c, 0, 60, 108
2, 31872, Note_on_c, 0, 67, 108
2, 32032, Note_on_c, 0, 57, 0
2, 32032, Note_on_c, 0, 60, 0
2, 32032, Note_on_c, 0, 67, 0
2, 32064, Note_on_c, 0, 57, 108
2, 32064, Note_on_c, 0, 60, 108
2, 32064, Note_on_c, 0, 69, 108
2, 32224, Note_on_c, 0, 57, 0
2, 32224, Note_on_c, 0, 60, 0
2, 32224, Note_on_c, 0, 69, 0
2, 32256, Note_on_c, 0, 60, 108
2, 32256, Note_on_c, 0, 64, 108
2, 32256, Note_on_c, 0, 67, 108
2, 32416, Note_on_c, 0, 60, 0
2, 32416, Note_on_c, 0, 64, 0
2, 32416, Note_on_c, 0, 67, 0
2, 32640, Note_on_c, 0, 65, 108
2, 32734, Note_on_c, 0, 65, 0
2, 32736, Note_on_c, 0, 67, 108
2, 32830, Note_on_c, 0, 67, 0
2, 32832, Note_on_c, 0, 60, 108
2, 32832, Note_on_c, 0, 65, 108
2, 32832, Note_on_c, 0, 69, 108
2, 32992, Note_on_c, 0, 60, 0
2, 32992, Note_on_c, 0, 65, 0
2, 32992, Note_on_c, 0, 69, 0
2, 33216, Note_on_c, 0, 67, 108
2, 33310, Note_on_c, 0, 67, 0
2, 33312, Note_on_c, 0, 65, 108
2, 33406, Note_on_c, 0, 65, 0
2, 33408, Note_on_c, 0, 61, 108
2, 33408, Note_on_c, 0, 64, 108
2, 33568, Note_on_c, 0, 61, 0
2, 33568, Note_on_c, 0, 64, 0
2, 33600, Note_on_c, 0, 61, 108
2, 33600, Note_on_c, 0, 65, 108
2, 33760, Note_on_c, 0, 61, 0
2, 33760, Note_on_c, 0, 65, 0
2, 33792, Note_on_c, 0, 61, 108
2, 33792, Note_on_c, 0, 64, 108
2, 33952, Note_on_c, 0, 61, 0
2, 33952, Note_on_c, 0, 64, 0
2, 33984, Note_on_c, 0, 53, 108
2, 33984, Note_on_c, 0, 57, 108
2, 33984, Note_on_c, 0, 62, 108
2, 34144, Note_on_c, 0, 53, 0
2, 34144, Note_on_c, 0, 57, 0
2, 34144, Note_on_c, 0, 62, 0
2, 34368, Note_on_c, 0, 64, 108
2, 34462, Note_on_c, 0, 64, 0
2, 34464, Note_on_c, 0, 60, 108
2, 34558, Note_on_c, 0, 60, 0
2, 34560, Note_on_c, 0, 53, 108
2, 34560, Note_on_c, 0, 57, 108
2, 34560, Note_on_c, 0, 62, 108
2, 34654, Note_on_c, 0, 53, 0
2, 34654, Note_on_c, 0, 57, 0
2, 34654, Note_on_c, 0, 62, 0
2, 34944, Note_on_c, 0, 74, 108
2, 35038, Note_on_c, 0, 74, 0
2, 35040, Note_on_c, 0, 76, 108
2, 35134, Note_on_c, 0, 76, 0
2, 35136, Note_on_c, 0, 69, 108
2, 35136, Note_on_c, 0, 74, 108
2, 35136, Note_on_c, 0, 77, 108
2, 35296, Note_on_c, 0, 69, 0
2, 35296, Note_on_c, 0, 74, 0
2, 35296, Note_on_c, 0, 77, 0
2, 35520, Note_on_c, 0, 76, 108
2, 35614, Note_on_c, 0, 76, 0
2, 35616, Note_on_c, 0, 77, 108
2, 35710, Note_on_c, 0, 77, 0
2, 35712, Note_on_c, 0, 72, 108
2, 35712, Note_on_c, 0, 79, 108
2, 35872, Note_on_c, 0, 72, 0
2, 35872, Note_on_c, 0, 79, 0
2, 35904, Note_on_c, 0, 72, 108
2, 35904, Note_on_c, 0, 77, 108
2, 36064, Note_on_c, 0, 72, 0
2, 36064, Note_on_c, 0, 77, 0
2, 36096, Note_on_c, 0, 72, 108
2, 36096, Note_on_c, 0, 79, 108
2, 36256, Note_on_c, 0, 72, 0
2, 36256, Note_on_c, 0, 79, 0
2, 36288, Note_on_c, 0, 77, 108
2, 36288, Note_on_c, 0, 81, 108
2, 36448, Note_on_c, 0, 77, 0
2, 36448, Note_on_c, 0, 81, 0
2, 36480, Note_on_c, 0, 72, 108
2, 36480, Note_on_c, 0, 79, 108
2, 36640, Note_on_c, 0, 72, 0
2, 36640, Note_on_c, 0, 79, 0
2, 36672, Note_on_c, 0, 72, 108
2, 36672, Note_on_c, 0, 77, 108
2, 36832, Note_on_c, 0, 72, 0
2, 36832, Note_on_c, 0, 77, 0
2, 36864, Note_on_c, 0, 65, 108
2, 36864, Note_on_c, 0, 70, 108
2, 36864, Note_on_c, 0, 74, 108
2, 37024, Note_on_c, 0, 65, 0
2, 37024, Note_on_c, 0, 70, 0
2, 37024, Note_on_c, 0, 74, 0
2, 37248, Note_on_c, 0, 74, 108
2, 37342, Note_on_c, 0, 74, 0
2, 37344, Note_on_c, 0, 76, 108
2, 37438, Note_on_c, 0, 76, 0
2, 37440, Note_on_c, 0, 69, 108
2, 37440, Note_on_c, 0, 74, 108
2, 37440, Note_on_c, 0, 77, 108
2, 37600, Note_on_c, 0, 69, 0
2, 37600, Note_on_c, 0, 74, 0
2, 37600, Note_on_c, 0, 77, 0
2, 37632, Note_on_c, 0, 69, 108
2, 37632, Note_on_c, 0, 74, 108
2, 37632, Note_on_c, 0, 79, 108
2, 37792, Note_on_c, 0, 69, 0
2, 37792, Note_on_c, 0, 74, 0
2, 37792, Note_on_c, 0, 79, 0
2, 37824, Note_on_c, 0, 74, 108
2, 37824, Note_on_c, 0, 81, 108
2, 37984, Note_on_c, 0, 74, 0
2, 37984, Note_on_c, 0, 81, 0
2, 38016, Note_on_c, 0, 70, 108
2, 38016, Note_on_c, 0, 74, 108
2, 38016, Note_on_c, 0, 82, 108
2, 38176, Note_on_c, 0, 70, 0
2, 38176, Note_on_c, 0, 74, 0
2, 38176, Note_on_c, 0, 82, 0
2, 38208, Note_on_c, 0, 70, 108
2, 38208, Note_on_c, 0, 74, 108
2, 38368, Note_on_c, 0, 70, 0
2, 38368, Note_on_c, 0, 74, 0
2, 38400, Note_on_c, 0, 70, 108
2, 38400, Note_on_c, 0, 79, 108
2, 38560, Note_on_c, 0, 70, 0
2, 38560, Note_on_c, 0, 79, 0
2, 38592, Note_on_c, 0, 69, 108
2, 38592, Note_on_c, 0, 77, 108
2, 38752, Note_on_c, 0, 69, 0
2, 38752, Note_on_c, 0, 77, 0
2, 38976, Note_on_c, 0, 79, 108
2, 39070, Note_on_c, 0, 79, 0
2, 39072, Note_on_c, 0, 76, 108
2, 39166, Note_on_c, 0, 76, 0
2, 39168, Note_on_c, 0, 69, 108
2, 39168, Note_on_c, 0, 74, 108
2, 39328, Note_on_c, 0, 69, 0
2, 39328, Note_on_c, 0, 74, 0
2, 39552, Note_on_c, 0, 76, 108
2, 39646, Note_on_c, 0, 76, 0
2, 39648, Note_on_c, 0, 73, 108
2, 39742, Note_on_c, 0, 73, 0
2, 39744, Note_on_c, 0, 74, 108
2, 39744, Note_on_c, 0, 77, 108
2, 39744, Note_on_c, 0, 81, 108
2, 39904, Note_on_c, 0, 74, 0
2, 39904, Note_on_c, 0, 77, 0
2, 39904, Note_on_c, 0, 81, 0
2, 40320, Note_on_c, 0, 74, 108
2, 40320, Note_on_c, 0, 79, 108
2, 40320, Note_on_c, 0, 82, 108
2, 40480, Note_on_c, 0, 74, 0
2, 40480, Note_on_c, 0, 79, 0
2, 40480, Note_on_c, 0, 82, 0
2, 40896, Note_on_c, 0, 72, 108
2, 40896, Note_on_c, 0, 77, 108
2, 40896, Note_on_c, 0, 81, 108
2, 41056, Note_on_c, 0, 72, 0
2, 41056, Note_on_c, 0, 77, 0
2, 41056, Note_on_c, 0, 81, 0
2, 41088, Note_on_c, 0, 72, 108
2, 41088, Note_on_c, 0, 77, 108
2, 41088, Note_on_c, 0, 81, 108
2, 41248, Note_on_c, 0, 72, 0
2, 41248, Note_on_c, 0, 77, 0
2, 41248, Note_on_c, 0, 81, 0
2, 41280, Note_on_c, 0, 72, 108
2, 41280, Note_on_c, 0, 77, 108
2, 41280, Note_on_c, 0, 81, 108
2, 41440, Note_on_c, 0, 72, 0
2, 41440, Note_on_c, 0, 77, 0
2, 41440, Note_on_c, 0, 81, 0
2, 41472, Note_on_c, 0, 72, 108
2, 41472, Note_on_c, 0, 76, 108
2, 41472, Note_on_c, 0, 81, 108
2, 41566, Note_on_c, 0, 72, 0
2, 41566, Note_on_c, 0, 76, 0
2, 41566, Note_on_c, 0, 81, 0
2, 41568, Note_on_c, 0, 79, 108
2, 41662, Note_on_c, 0, 79, 0
2, 42048, Note_on_c, 0, 70, 108
2, 42048, Note_on_c, 0, 74, 108
2, 42048, Note_on_c, 0, 79, 108
2, 42208, Note_on_c, 0, 70, 0
2, 42208, Note_on_c, 0, 74, 0
2, 42208, Note_on_c, 0, 79, 0
2, 42624, Note_on_c, 0, 69, 108
2, 42624, Note_on_c, 0, 74, 108
2, 42624, Note_on_c, 0, 77, 108
2, 42784, Note_on_c, 0, 69, 0
2, 42784, Note_on_c, 0, 74, 0
2, 42784, Note_on_c, 0, 77, 0
2, 43200, Note_on_c, 0, 69, 108
2, 43200, Note_on_c, 0, 77, 108
2, 43360, Note_on_c, 0, 69, 0
2, 43360, Note_on_c, 0, 77, 0
2, 43392, Note_on_c, 0, 69, 108
2, 43392, Note_on_c, 0, 79, 108
2, 43552, Note_on_c, 0, 69, 0
2, 43552, Note_on_c, 0, 79, 0
2, 43584, Note_on_c, 0, 69, 108
2, 43584, Note_on_c, 0, 76, 108
2, 43744, Note_on_c, 0, 69, 0
2, 43744, Note_on_c, 0, 76, 0
2, 43776, Note_on_c, 0, 65, 108
2, 43776, Note_on_c, 0, 69, 108
2, 43776, Note_on_c, 0, 74, 108
2, 44032, Note_on_c, 0, 65, 0
2, 44032, Note_on_c, 0, 69, 0
2, 44032, Note_on_c, 0, 74, 0
2, 44064, Note_on_c, 0, 74, 108
2, 44158, Note_on_c, 0, 74, 0
2, 44160, Note_on_c, 0, 76, 108
2, 44254, Note_on_c, 0, 76, 0
2, 44256, Note_on_c, 0, 77, 108
2, 44350, Note_on_c, 0, 77, 0
2, 44352, Note_on_c, 0, 74, 108
2, 44352, Note_on_c, 0, 77, 108
2, 44352, Note_on_c, 0, 81, 108
2, 44608, Note_on_c, 0, 74, 0
2, 44608, Note_on_c, 0, 77, 0
2, 44608, Note_on_c, 0, 81, 0
2, 44640, Note_on_c, 0, 74, 108
2, 44734, Note_on_c, 0, 74, 0
2, 44736, Note_on_c, 0, 76, 108
2, 44830, Note_on_c, 0, 76, 0
2, 44832, Note_on_c, 0, 77, 108
2, 44926, Note_on_c, 0, 77, 0
2, 44928, Note_on_c, 0, 74, 108
2, 44928, Note_on_c, 0, 77, 108
2, 44928, Note_on_c, 0, 82, 108
2, 45184, Note_on_c, 0, 74, 0
2, 45184, Note_on_c, 0, 77, 0
2, 45184, Note_on_c, 0, 82, 0
2, 45216, Note_on_c, 0, 74, 108
2, 45310, Note_on_c, 0, 74, 0
2, 45312, Note_on_c, 0, 76, 108
2, 45406, Note_on_c, 0, 76, 0
2, 45408, Note_on_c, 0, 77, 108
2, 45502, Note_on_c, 0, 77, 0
2, 45504, Note_on_c, 0, 72, 108
2, 45504, Note_on_c, 0, 77, 108
2, 45504, Note_on_c, 0, 81, 108
2, 45664, Note_on_c, 0, 72, 0
2, 45664, Note_on_c, 0, 77, 0
2, 45664, Note_on_c, 0, 81, 0
2, 45696, Note_on_c, 0, 72, 108
2, 45696, Note_on_c, 0, 77, 108
2, 45696, Note_on_c, 0, 81, 108
2, 45856, Note_on_c, 0, 72, 0
2, 45856, Note_on_c, 0, 77, 0
2, 45856, Note_on_c, 0, 81, 0
2, 45888, Note_on_c, 0, 77, 108
2, 45888, Note_on_c, 0, 84, 108
2, 46048, Note_on_c, 0, 77, 0
2, 46048, Note_on_c, 0, 84, 0
2, 46080, Note_on_c, 0, 72, 108
2, 46080, Note_on_c, 0, 76, 108
2, 46080, Note_on_c, 0, 81, 108
2, 46174, Note_on_c, 0, 72, 0
2, 46174, Note_on_c, 0, 76, 0
2, 46174, Note_on_c, 0, 81, 0
2, 46176, Note_on_c, 0, 79, 108
2, 46270, Note_on_c, 0, 79, 0
2, 46656, Note_on_c, 0, 70, 108
2, 46656, Note_on_c, 0, 74, 108
2, 46656, Note_on_c, 0, 79, 108
2, 46816, Note_on_c, 0, 70, 0
2, 46816, Note_on_c, 0, 74, 0
2, 46816, Note_on_c, 0, 79, 0
2, 47232, Note_on_c, 0, 69, 108
2, 47232, Note_on_c, 0, 74, 108
2, 47232, Note_on_c, 0, 77, 108
2, 47392, Note_on_c, 0, 69, 0
2, 47392, Note_on_c, 0, 74, 0
2, 47392, Note_on_c, 0, 77, 0
2, 47808, Note_on_c, 0, 69, 108
2, 47808, Note_on_c, 0, 77, 108
2, 47968, Note_on_c, 0, 69, 0
2, 47968, Note_on_c, 0, 77, 0
2, 48000, Note_on_c, 0, 69, 108
2, 48000, Note_on_c, 0, 79, 108
2, 48160, Note_on_c, 0, 69, 0
2, 48160, Note_on_c, 0, 79, 0
2, 48192, Note_on_c, 0, 69, 108
2, 48192, Note_on_c, 0, 76, 108
2, 48352, Note_on_c, 0, 69, 0
2, 48352, Note_on_c, 0, 76, 0
2, 48384, Note_on_c, 0, 65, 108
2, 48384, Note_on_c, 0, 69, 108
2, 48384, Note_on_c, 0, 74, 108
2, 48640, Note_on_c, 0, 65, 0
2, 48640, Note_on_c, 0, 69, 0
2, 48640, Note_on_c, 0, 74, 0
2, 48960, Note_on_c, 0, 62, 108
2, 49680, Note_on_c, 0, 62, 0
2, 49680, End_track
3, 0, Start_track
3, 0, MIDI_port, 0
3, 0, Title_t, "Left Hand"
3, 0, Program_c, 1, 0
3, 0, Control_c, 1, 7, 127
3, 0, Control_c, 1, 10, 64
3, 2304, Note_on_c, 1, 26, 110
3, 2304, Note_on_c, 1, 38, 110
3, 2832, Note_on_c, 1, 26, 0
3, 2832, Note_on_c, 1, 38, 0
3, 2880, Note_on_c, 1, 26, 110
3, 2880, Note_on_c, 1, 38, 110
3, 3136, Note_on_c, 1, 26, 0
3, 3136, Note_on_c, 1, 38, 0
3, 3168, Note_on_c, 1, 26, 110
3, 3168, Note_on_c, 1, 38, 110
3, 3424, Note_on_c, 1, 26, 0
3, 3424, Note_on_c, 1, 38, 0
3, 3456, Note_on_c, 1, 38, 110
3, 3456, Note_on_c, 1, 50, 110
3, 3616, Note_on_c, 1, 38, 0
3, 3616, Note_on_c, 1, 50, 0
3, 3648, Note_on_c, 1, 38, 110
3, 3648, Note_on_c, 1, 50, 110
3, 3742, Note_on_c, 1, 38, 0
3, 3742, Note_on_c, 1, 50, 0
3, 3744, Note_on_c, 1, 38, 110
3, 3744, Note_on_c, 1, 50, 110
3, 3904, Note_on_c, 1, 38, 0
3, 3904, Note_on_c, 1, 50, 0
3, 3936, Note_on_c, 1, 36, 110
3, 3936, Note_on_c, 1, 48, 110
3, 4030, Note_on_c, 1, 36, 0
3, 4030, Note_on_c, 1, 48, 0
3, 4032, Note_on_c, 1, 34, 110
3, 4032, Note_on_c, 1, 46, 110
3, 4192, Note_on_c, 1, 34, 0
3, 4192, Note_on_c, 1, 46, 0
3, 4224, Note_on_c, 1, 34, 110
3, 4224, Note_on_c, 1, 46, 110
3, 4318, Note_on_c, 1, 34, 0
3, 4318, Note_on_c, 1, 46, 0
3, 4320, Note_on_c, 1, 34, 110
3, 4320, Note_on_c, 1, 46, 110
3, 4480, Note_on_c, 1, 34, 0
3, 4480, Note_on_c, 1, 46, 0
3, 4512, Note_on_c, 1, 34, 110
3, 4512, Note_on_c, 1, 46, 110
3, 4606, Note_on_c, 1, 34, 0
3, 4606, Note_on_c, 1, 46, 0
3, 4608, Note_on_c, 1, 33, 110
3, 4608, Note_on_c, 1, 45, 110
3, 4768, Note_on_c, 1, 33, 0
3, 4768, Note_on_c, 1, 45, 0
3, 4800, Note_on_c, 1, 33, 110
3, 4800, Note_on_c, 1, 45, 110
3, 4894, Note_on_c, 1, 33, 0
3, 4894, Note_on_c, 1, 45, 0
3, 4896, Note_on_c, 1, 33, 110
3, 4896, Note_on_c, 1, 45, 110
3, 5056, Note_on_c, 1, 33, 0
3, 5056, Note_on_c, 1, 45, 0
3, 5088, Note_on_c, 1, 33, 110
3, 5088, Note_on_c, 1, 45, 110
3, 5182, Note_on_c, 1, 33, 0
3, 5182, Note_on_c, 1, 45, 0
3, 5184, Note_on_c, 1, 38, 110
3, 5184, Note_on_c, 1, 50, 110
3, 5344, Note_on_c, 1, 38, 0
3, 5344, Note_on_c, 1, 50, 0
3, 5376, Note_on_c, 1, 38, 110
3, 5376, Note_on_c, 1, 50, 110
3, 5470, Note_on_c, 1, 38, 0
3, 5470, Note_on_c, 1, 50, 0
3, 5472, Note_on_c, 1, 38, 110
3, 5472, Note_on_c, 1, 50, 110
3, 5632, Note_on_c, 1, 38, 0
3, 5632, Note_on_c, 1, 50, 0
3, 5664, Note_on_c, 1, 38, 110
3, 5664, Note_on_c, 1, 50, 110
3, 5758, Note_on_c, 1, 38, 0
3, 5758, Note_on_c, 1, 50, 0
3, 5760, Note_on_c, 1, 34, 110
3, 5760, Note_on_c, 1, 46, 110
3, 5920, Note_on_c, 1, 34, 0
3, 5920, Note_on_c, 1, 46, 0
3, 5952, Note_on_c, 1, 34, 110
3, 5952, Note_on_c, 1, 46, 110
3, 6046, Note_on_c, 1, 34, 0
3, 6046, Note_on_c, 1, 46, 0
3, 6048, Note_on_c, 1, 34, 110
3, 6048, Note_on_c, 1, 46, 110
3, 6208, Note_on_c, 1, 34, 0
3, 6208, Note_on_c, 1, 46, 0
3, 6240, Note_on_c, 1, 34, 110
3, 6240, Note_on_c, 1, 46, 110
3, 6334, Note_on_c, 1, 34, 0
3, 6334, Note_on_c, 1, 46, 0
3, 6336, Note_on_c, 1, 34, 110
3, 6336, Note_on_c, 1, 46, 110
3, 6496, Note_on_c, 1, 34, 0
3, 6496, Note_on_c, 1, 46, 0
3, 6528, Note_on_c, 1, 34, 110
3, 6528, Note_on_c, 1, 46, 110
3, 6622, Note_on_c, 1, 34, 0
3, 6622, Note_on_c, 1, 46, 0
3, 6624, Note_on_c, 1, 34, 110
3, 6624, Note_on_c, 1, 46, 110
3, 6784, Note_on_c, 1, 34, 0
3, 6784, Note_on_c, 1, 46, 0
3, 6816, Note_on_c, 1, 34, 110
3, 6816, Note_on_c, 1, 46, 110
3, 6910, Note_on_c, 1, 34, 0
3, 6910, Note_on_c, 1, 46, 0
3, 6912, Note_on_c, 1, 33, 110
3, 6912, Note_on_c, 1, 45, 110
3, 7072, Note_on_c, 1, 33, 0
3, 7072, Note_on_c, 1, 45, 0
3, 7104, Note_on_c, 1, 33, 110
3, 7104, Note_on_c, 1, 45, 110
3, 7198, Note_on_c, 1, 33, 0
3, 7198, Note_on_c, 1, 45, 0
3, 7200, Note_on_c, 1, 33, 110
3, 7200, Note_on_c, 1, 45, 110
3, 7360, Note_on_c, 1, 33, 0
3, 7360, Note_on_c, 1, 45, 0
3, 7392, Note_on_c, 1, 33, 110
3, 7392, Note_on_c, 1, 45, 110
3, 7486, Note_on_c, 1, 33, 0
3, 7486, Note_on_c, 1, 45, 0
3, 7488, Note_on_c, 1, 38, 110
3, 7488, Note_on_c, 1, 50, 110
3, 7648, Note_on_c, 1, 38, 0
3, 7648, Note_on_c, 1, 50, 0
3, 7680, Note_on_c, 1, 38, 110
3, 7680, Note_on_c, 1, 50, 110
3, 7774, Note_on_c, 1, 38, 0
3, 7774, Note_on_c, 1, 50, 0
3, 7776, Note_on_c, 1, 38, 110
3, 7776, Note_on_c, 1, 50, 110
3, 7936, Note_on_c, 1, 38, 0
3, 7936, Note_on_c, 1, 50, 0
3, 7968, Note_on_c, 1, 38, 110
3, 7968, Note_on_c, 1, 50, 110
3, 8062, Note_on_c, 1, 38, 0
3, 8062, Note_on_c, 1, 50, 0
3, 8064, Note_on_c, 1, 38, 110
3, 8064, Note_on_c, 1, 50, 110
3, 8224, Note_on_c, 1, 38, 0
3, 8224, Note_on_c, 1, 50, 0
3, 8256, Note_on_c, 1, 38, 110
3, 8256, Note_on_c, 1, 50, 110
3, 8350, Note_on_c, 1, 38, 0
3, 8350, Note_on_c, 1, 50, 0
3, 8352, Note_on_c, 1, 38, 110
3, 8352, Note_on_c, 1, 50, 110
3, 8512, Note_on_c, 1, 38, 0
3, 8512, Note_on_c, 1, 50, 0
3, 8544, Note_on_c, 1, 38, 110
3, 8544, Note_on_c, 1, 50, 110
3, 8638, Note_on_c, 1, 38, 0
3, 8638, Note_on_c, 1, 50, 0
3, 8640, Note_on_c, 1, 34, 110
3, 8640, Note_on_c, 1, 46, 110
3, 8800, Note_on_c, 1, 34, 0
3, 8800, Note_on_c, 1, 46, 0
3, 8832, Note_on_c, 1, 34, 110
3, 8832, Note_on_c, 1, 46, 110
3, 8926, Note_on_c, 1, 34, 0
3, 8926, Note_on_c, 1, 46, 0
3, 8928, Note_on_c, 1, 34, 110
3, 8928, Note_on_c, 1, 46, 110
3, 9088, Note_on_c, 1, 34, 0
3, 9088, Note_on_c, 1, 46, 0
3, 9120, Note_on_c, 1, 34, 110
3, 9120, Note_on_c, 1, 46, 110
3, 9214, Note_on_c, 1, 34, 0
3, 9214, Note_on_c, 1, 46, 0
3, 9216, Note_on_c, 1, 31, 110
3, 9216, Note_on_c, 1, 43, 110
3, 9376, Note_on_c, 1, 31, 0
3, 9376, Note_on_c, 1, 43, 0
3, 9408, Note_on_c, 1, 31, 110
3, 9408, Note_on_c, 1, 43, 110
3, 9502, Note_on_c, 1, 31, 0
3, 9502, Note_on_c, 1, 43, 0
3, 9504, Note_on_c, 1, 31, 110
3, 9504, Note_on_c, 1, 43, 110
3, 9664, Note_on_c, 1, 31, 0
3, 9664, Note_on_c, 1, 43, 0
3, 9696, Note_on_c, 1, 31, 110
3, 9696, Note_on_c, 1, 43, 110
3, 9790, Note_on_c, 1, 31, 0
3, 9790, Note_on_c, 1, 43, 0
3, 9792, Note_on_c, 1, 38, 110
3, 9792, Note_on_c, 1, 50, 110
3, 9952, Note_on_c, 1, 38, 0
3, 9952, Note_on_c, 1, 50, 0
3, 9984, Note_on_c, 1, 38, 110
3, 9984, Note_on_c, 1, 50, 110
3, 10078, Note_on_c, 1, 38, 0
3, 10078, Note_on_c, 1, 50, 0
3, 10080, Note_on_c, 1, 38, 110
3, 10080, Note_on_c, 1, 50, 110
3, 10240, Note_on_c, 1, 38, 0
3, 10240, Note_on_c, 1, 50, 0
3, 10272, Note_on_c, 1, 38, 110
3, 10272, Note_on_c, 1, 50, 110
3, 10366, Note_on_c, 1, 38, 0
3, 10366, Note_on_c, 1, 50, 0
3, 10368, Note_on_c, 1, 34, 110
3, 10368, Note_on_c, 1, 46, 110
3, 10528, Note_on_c, 1, 34, 0
3, 10528, Note_on_c, 1, 46, 0
3, 10560, Note_on_c, 1, 34, 110
3, 10560, Note_on_c, 1, 46, 110
3, 10654, Note_on_c, 1, 34, 0
3, 10654, Note_on_c, 1, 46, 0
3, 10656, Note_on_c, 1, 34, 110
3, 10656, Note_on_c, 1, 46, 110
3, 10816, Note_on_c, 1, 34, 0
3, 10816, Note_on_c, 1, 46, 0
3, 10848, Note_on_c, 1, 34, 110
3, 10848, Note_on_c, 1, 46, 110
3, 10942, Note_on_c, 1, 34, 0
3, 10942, Note_on_c, 1, 46, 0
3, 10944, Note_on_c, 1, 38, 110
3, 10944, Note_on_c, 1, 50, 110
3, 11104, Note_on_c, 1, 38, 0
3, 11104, Note_on_c, 1, 50, 0
3, 11136, Note_on_c, 1, 38, 110
3, 11136, Note_on_c, 1, 50, 110
3, 11230, Note_on_c, 1, 38, 0
3, 11230, Note_on_c, 1, 50, 0
3, 11232, Note_on_c, 1, 38, 110
3, 11232, Note_on_c, 1, 50, 110
3, 11392, Note_on_c, 1, 38, 0
3, 11392, Note_on_c, 1, 50, 0
3, 11424, Note_on_c, 1, 38, 110
3, 11424, Note_on_c, 1, 50, 110
3, 11518, Note_on_c, 1, 38, 0
3, 11518, Note_on_c, 1, 50, 0
3, 11520, Note_on_c, 1, 33, 110
3, 11520, Note_on_c, 1, 45, 110
3, 11680, Note_on_c, 1, 33, 0
3, 11680, Note_on_c, 1, 45, 0
3, 11712, Note_on_c, 1, 33, 110
3, 11712, Note_on_c, 1, 45, 110
3, 11806, Note_on_c, 1, 33, 0
3, 11806, Note_on_c, 1, 45, 0
3, 11808, Note_on_c, 1, 33, 110
3, 11808, Note_on_c, 1, 45, 110
3, 11968, Note_on_c, 1, 33, 0
3, 11968, Note_on_c, 1, 45, 0
3, 12000, Note_on_c, 1, 33, 110
3, 12000, Note_on_c, 1, 45, 110
3, 12094, Note_on_c, 1, 33, 0
3, 12094, Note_on_c, 1, 45, 0
3, 12096, Note_on_c, 1, 33, 110
3, 12096, Note_on_c, 1, 45, 110
3, 12256, Note_on_c, 1, 33, 0
3, 12256, Note_on_c, 1, 45, 0
3, 12288, Note_on_c, 1, 33, 110
3, 12288, Note_on_c, 1, 45, 110
3, 12382, Note_on_c, 1, 33, 0
3, 12382, Note_on_c, 1, 45, 0
3, 12384, Note_on_c, 1, 33, 110
3, 12384, Note_on_c, 1, 45, 110
3, 12544, Note_on_c, 1, 33, 0
3, 12544, Note_on_c, 1, 45, 0
3, 12576, Note_on_c, 1, 33, 110
3, 12576, Note_on_c, 1, 45, 110
3, 12670, Note_on_c, 1, 33, 0
3, 12670, Note_on_c, 1, 45, 0
3, 12672, Note_on_c, 1, 38, 110
3, 12672, Note_on_c, 1, 50, 110
3, 12832, Note_on_c, 1, 38, 0
3, 12832, Note_on_c, 1, 50, 0
3, 12864, Note_on_c, 1, 38, 110
3, 12864, Note_on_c, 1, 50, 110
3, 12958, Note_on_c, 1, 38, 0
3, 12958, Note_on_c, 1, 50, 0
3, 12960, Note_on_c, 1, 38, 110
3, 12960, Note_on_c, 1, 50, 110
3, 13120, Note_on_c, 1, 38, 0
3, 13120, Note_on_c, 1, 50, 0
3, 13152, Note_on_c, 1, 36, 110
3, 13152, Note_on_c, 1, 48, 110
3, 13246, Note_on_c, 1, 36, 0
3, 13246, Note_on_c, 1, 48, 0
3, 13248, Note_on_c, 1, 34, 110
3, 13248, Note_on_c, 1, 46, 110
3, 13408, Note_on_c, 1, 34, 0
3, 13408, Note_on_c, 1, 46, 0
3, 13440, Note_on_c, 1, 34, 110
3, 13440, Note_on_c, 1, 46, 110
3, 13534, Note_on_c, 1, 34, 0
3, 13534, Note_on_c, 1, 46, 0
3, 13536, Note_on_c, 1, 34, 110
3, 13536, Note_on_c, 1, 46, 110
3, 13696, Note_on_c, 1, 34, 0
3, 13696, Note_on_c, 1, 46, 0
3, 13728, Note_on_c, 1, 34, 110
3, 13728, Note_on_c, 1, 46, 110
3, 13822, Note_on_c, 1, 34, 0
3, 13822, Note_on_c, 1, 46, 0
3, 13824, Note_on_c, 1, 33, 110
3, 13824, Note_on_c, 1, 45, 110
3, 13984, Note_on_c, 1, 33, 0
3, 13984, Note_on_c, 1, 45, 0
3, 14016, Note_on_c, 1, 33, 110
3, 14016, Note_on_c, 1, 45, 110
3, 14110, Note_on_c, 1, 33, 0
3, 14110, Note_on_c, 1, 45, 0
3, 14112, Note_on_c, 1, 33, 110
3, 14112, Note_on_c, 1, 45, 110
3, 14272, Note_on_c, 1, 33, 0
3, 14272, Note_on_c, 1, 45, 0
3, 14304, Note_on_c, 1, 33, 110
3, 14304, Note_on_c, 1, 45, 110
3, 14398, Note_on_c, 1, 33, 0
3, 14398, Note_on_c, 1, 45, 0
3, 14400, Note_on_c, 1, 38, 110
3, 14400, Note_on_c, 1, 50, 110
3, 14560, Note_on_c, 1, 38, 0
3, 14560, Note_on_c, 1, 50, 0
3, 14592, Note_on_c, 1, 38, 110
3, 14592, Note_on_c, 1, 50, 110
3, 14686, Note_on_c, 1, 38, 0
3, 14686, Note_on_c, 1, 50, 0
3, 14688, Note_on_c, 1, 38, 110
3, 14688, Note_on_c, 1, 50, 110
3, 14848, Note_on_c, 1, 38, 0
3, 14848, Note_on_c, 1, 50, 0
3, 14880, Note_on_c, 1, 38, 110
3, 14880, Note_on_c, 1, 50, 110
3, 14974, Note_on_c, 1, 38, 0
3, 14974, Note_on_c, 1, 50, 0
3, 14976, Note_on_c, 1, 34, 110
3, 14976, Note_on_c, 1, 46, 110
3, 15136, Note_on_c, 1, 34, 0
3, 15136, Note_on_c, 1, 46, 0
3, 15168, Note_on_c, 1, 34, 110
3, 15168, Note_on_c, 1, 46, 110
3, 15262, Note_on_c, 1, 34, 0
3, 15262, Note_on_c, 1, 46, 0
3, 15264, Note_on_c, 1, 34, 110
3, 15264, Note_on_c, 1, 46, 110
3, 15424, Note_on_c, 1, 34, 0
3, 15424, Note_on_c, 1, 46, 0
3, 15456, Note_on_c, 1, 34, 110
3, 15456, Note_on_c, 1, 46, 110
3, 15550, Note_on_c, 1, 34, 0
3, 15550, Note_on_c, 1, 46, 0
3, 15552, Note_on_c, 1, 29, 110
3, 15552, Note_on_c, 1, 41, 110
3, 15712, Note_on_c, 1, 29, 0
3, 15712, Note_on_c, 1, 41, 0
3, 15744, Note_on_c, 1, 29, 110
3, 15744, Note_on_c, 1, 41, 110
3, 15838, Note_on_c, 1, 29, 0
3, 15838, Note_on_c, 1, 41, 0
3, 15840, Note_on_c, 1, 29, 110
3, 15840, Note_on_c, 1, 41, 110
3, 16000, Note_on_c, 1, 29, 0
3, 16000, Note_on_c, 1, 41, 0
3, 16032, Note_on_c, 1, 29, 110
3, 16032, Note_on_c, 1, 41, 110
3, 16126, Note_on_c, 1, 29, 0
3, 16126, Note_on_c, 1, 41, 0
3, 16128, Note_on_c, 1, 36, 110
3, 16128, Note_on_c, 1, 48, 110
3, 16288, Note_on_c, 1, 36, 0
3, 16288, Note_on_c, 1, 48, 0
3, 16320, Note_on_c, 1, 36, 110
3, 16320, Note_on_c, 1, 48, 110
3, 16414, Note_on_c, 1, 36, 0
3, 16414, Note_on_c, 1, 48, 0
3, 16416, Note_on_c, 1, 33, 110
3, 16416, Note_on_c, 1, 45, 110
3, 16576, Note_on_c, 1, 33, 0
3, 16576, Note_on_c, 1, 45, 0
3, 16608, Note_on_c, 1, 33, 110
3, 16608, Note_on_c, 1, 45, 110
3, 16702, Note_on_c, 1, 33, 0
3, 16702, Note_on_c, 1, 45, 0
3, 16704, Note_on_c, 1, 38, 110
3, 16704, Note_on_c, 1, 50, 110
3, 16864, Note_on_c, 1, 38, 0
3, 16864, Note_on_c, 1, 50, 0
3, 16896, Note_on_c, 1, 38, 110
3, 16896, Note_on_c, 1, 50, 110
3, 16990, Note_on_c, 1, 38, 0
3, 16990, Note_on_c, 1, 50, 0
3, 16992, Note_on_c, 1, 38, 110
3, 16992, Note_on_c, 1, 50, 110
3, 17152, Note_on_c, 1, 38, 0
3, 17152, Note_on_c, 1, 50, 0
3, 17184, Note_on_c, 1, 38, 110
3, 17184, Note_on_c, 1, 50, 110
3, 17278, Note_on_c, 1, 38, 0
3, 17278, Note_on_c, 1, 50, 0
3, 17280, Note_on_c, 1, 38, 110
3, 17280, Note_on_c, 1, 50, 110
3, 17440, Note_on_c, 1, 38, 0
3, 17440, Note_on_c, 1, 50, 0
3, 17472, Note_on_c, 1, 38, 110
3, 17472, Note_on_c, 1, 50, 110
3, 17566, Note_on_c, 1, 38, 0
3, 17566, Note_on_c, 1, 50, 0
3, 17568, Note_on_c, 1, 38, 110
3, 17568, Note_on_c, 1, 50, 110
3, 17728, Note_on_c, 1, 38, 0
3, 17728, Note_on_c, 1, 50, 0
3, 17760, Note_on_c, 1, 38, 110
3, 17760, Note_on_c, 1, 50, 110
3, 17854, Note_on_c, 1, 38, 0
3, 17854, Note_on_c, 1, 50, 0
3, 17856, Note_on_c, 1, 34, 110
3, 17856, Note_on_c, 1, 46, 110
3, 18016, Note_on_c, 1, 34, 0
3, 18016, Note_on_c, 1, 46, 0
3, 18048, Note_on_c, 1, 34, 110
3, 18048, Note_on_c, 1, 46, 110
3, 18142, Note_on_c, 1, 34, 0
3, 18142, Note_on_c, 1, 46, 0
3, 18144, Note_on_c, 1, 34, 110
3, 18144, Note_on_c, 1, 46, 110
3, 18304, Note_on_c, 1, 34, 0
3, 18304, Note_on_c, 1, 46, 0
3, 18336, Note_on_c, 1, 34, 110
3, 18336, Note_on_c, 1, 46, 110
3, 18430, Note_on_c, 1, 34, 0
3, 18430, Note_on_c, 1, 46, 0
3, 18432, Note_on_c, 1, 31, 110
3, 18432, Note_on_c, 1, 43, 110
3, 18592, Note_on_c, 1, 31, 0
3, 18592, Note_on_c, 1, 43, 0
3, 18624, Note_on_c, 1, 31, 110
3, 18624, Note_on_c, 1, 43, 110
3, 18718, Note_on_c, 1, 31, 0
3, 18718, Note_on_c, 1, 43, 0
3, 18720, Note_on_c, 1, 31, 110
3, 18720, Note_on_c, 1, 43, 110
3, 18880, Note_on_c, 1, 31, 0
3, 18880, Note_on_c, 1, 43, 0
3, 18912, Note_on_c, 1, 31, 110
3, 18912, Note_on_c, 1, 43, 110
3, 19006, Note_on_c, 1, 31, 0
3, 19006, Note_on_c, 1, 43, 0
3, 19008, Note_on_c, 1, 38, 110
3, 19008, Note_on_c, 1, 50, 110
3, 19168, Note_on_c, 1, 38, 0
3, 19168, Note_on_c, 1, 50, 0
3, 19200, Note_on_c, 1, 38, 110
3, 19200, Note_on_c, 1, 50, 110
3, 19294, Note_on_c, 1, 38, 0
3, 19294, Note_on_c, 1, 50, 0
3, 19296, Note_on_c, 1, 38, 110
3, 19296, Note_on_c, 1, 50, 110
3, 19456, Note_on_c, 1, 38, 0
3, 19456, Note_on_c, 1, 50, 0
3, 19488, Note_on_c, 1, 38, 110
3, 19488, Note_on_c, 1, 50, 110
3, 19582, Note_on_c, 1, 38, 0
3, 19582, Note_on_c, 1, 50, 0
3, 19584, Note_on_c, 1, 34, 110
3, 19584, Note_on_c, 1, 46, 110
3, 19744, Note_on_c, 1, 34, 0
3, 19744, Note_on_c, 1, 46, 0
3, 19776, Note_on_c, 1, 34, 110
3, 19776, Note_on_c, 1, 46, 110
3, 19870, Note_on_c, 1, 34, 0
3, 19870, Note_on_c, 1, 46, 0
3, 19872, Note_on_c, 1, 34, 110
3, 19872, Note_on_c, 1, 46, 110
3, 20032, Note_on_c, 1, 34, 0
3, 20032, Note_on_c, 1, 46, 0
3, 20064, Note_on_c, 1, 34, 110
3, 20064, Note_on_c, 1, 46, 110
3, 20158, Note_on_c, 1, 34, 0
3, 20158, Note_on_c, 1, 46, 0
3, 20160, Note_on_c, 1, 38, 110
3, 20160, Note_on_c, 1, 50, 110
3, 20320, Note_on_c, 1, 38, 0
3, 20320, Note_on_c, 1, 50, 0
3, 20352, Note_on_c, 1, 38, 110
3, 20352, Note_on_c, 1, 50, 110
3, 20446, Note_on_c, 1, 38, 0
3, 20446, Note_on_c, 1, 50, 0
3, 20448, Note_on_c, 1, 38, 110
3, 20448, Note_on_c, 1, 50, 110
3, 20608, Note_on_c, 1, 38, 0
3, 20608, Note_on_c, 1, 50, 0
3, 20640, Note_on_c, 1, 38, 110
3, 20640, Note_on_c, 1, 50, 110
3, 20734, Note_on_c, 1, 38, 0
3, 20734, Note_on_c, 1, 50, 0
3, 20736, Note_on_c, 1, 33, 110
3, 20736, Note_on_c, 1, 45, 110
3, 20896, Note_on_c, 1, 33, 0
3, 20896, Note_on_c, 1, 45, 0
3, 20928, Note_on_c, 1, 33, 110
3, 20928, Note_on_c, 1, 45, 110
3, 21022, Note_on_c, 1, 33, 0
3, 21022, Note_on_c, 1, 45, 0
3, 21024, Note_on_c, 1, 33, 110
3, 21024, Note_on_c, 1, 45, 110
3, 21184, Note_on_c, 1, 33, 0
3, 21184, Note_on_c, 1, 45, 0
3, 21216, Note_on_c, 1, 33, 110
3, 21216, Note_on_c, 1, 45, 110
3, 21310, Note_on_c, 1, 33, 0
3, 21310, Note_on_c, 1, 45, 0
3, 21312, Note_on_c, 1, 38, 110
3, 21312, Note_on_c, 1, 50, 110
3, 21472, Note_on_c, 1, 38, 0
3, 21472, Note_on_c, 1, 50, 0
3, 21504, Note_on_c, 1, 38, 110
3, 21504, Note_on_c, 1, 50, 110
3, 21664, Note_on_c, 1, 38, 0
3, 21664, Note_on_c, 1, 50, 0
3, 21696, Note_on_c, 1, 36, 110
3, 21696, Note_on_c, 1, 48, 110
3, 21856, Note_on_c, 1, 36, 0
3, 21856, Note_on_c, 1, 48, 0
3, 21888, Note_on_c, 1, 36, 110
3, 21888, Note_on_c, 1, 48, 110
3, 22048, Note_on_c, 1, 36, 0
3, 22048, Note_on_c, 1, 48, 0
3, 22080, Note_on_c, 1, 36, 110
3, 22080, Note_on_c, 1, 48, 110
3, 22240, Note_on_c, 1, 36, 0
3, 22240, Note_on_c, 1, 48, 0
3, 22272, Note_on_c, 1, 34, 110
3, 22272, Note_on_c, 1, 46, 110
3, 22432, Note_on_c, 1, 34, 0
3, 22432, Note_on_c, 1, 46, 0
3, 22464, Note_on_c, 1, 33, 110
3, 22464, Note_on_c, 1, 45, 110
3, 22624, Note_on_c, 1, 33, 0
3, 22624, Note_on_c, 1, 45, 0
3, 22656, Note_on_c, 1, 33, 110
3, 22656, Note_on_c, 1, 45, 110
3, 22750, Note_on_c, 1, 33, 0
3, 22750, Note_on_c, 1, 45, 0
3, 22752, Note_on_c, 1, 33, 110
3, 22752, Note_on_c, 1, 45, 110
3, 22912, Note_on_c, 1, 33, 0
3, 22912, Note_on_c, 1, 45, 0
3, 22944, Note_on_c, 1, 33, 110
3, 22944, Note_on_c, 1, 45, 110
3, 23038, Note_on_c, 1, 33, 0
3, 23038, Note_on_c, 1, 45, 0
3, 23040, Note_on_c, 1, 33, 110
3, 23040, Note_on_c, 1, 45, 110
3, 23200, Note_on_c, 1, 33, 0
3, 23200, Note_on_c, 1, 45, 0
3, 23232, Note_on_c, 1, 33, 110
3, 23232, Note_on_c, 1, 45, 110
3, 23326, Note_on_c, 1, 33, 0
3, 23326, Note_on_c, 1, 45, 0
3, 23328, Note_on_c, 1, 33, 110
3, 23328, Note_on_c, 1, 45, 110
3, 23488, Note_on_c, 1, 33, 0
3, 23488, Note_on_c, 1, 45, 0
3, 23520, Note_on_c, 1, 33, 110
3, 23520, Note_on_c, 1, 45, 110
3, 23614, Note_on_c, 1, 33, 0
3, 23614, Note_on_c, 1, 45, 0
3, 23616, Note_on_c, 1, 31, 110
3, 23616, Note_on_c, 1, 43, 110
3, 23776, Note_on_c, 1, 31, 0
3, 23776, Note_on_c, 1, 43, 0
3, 23808, Note_on_c, 1, 31, 110
3, 23808, Note_on_c, 1, 43, 110
3, 23902, Note_on_c, 1, 31, 0
3, 23902, Note_on_c, 1, 43, 0
3, 23904, Note_on_c, 1, 31, 110
3, 23904, Note_on_c, 1, 43, 110
3, 24064, Note_on_c, 1, 31, 0
3, 24064, Note_on_c, 1, 43, 0
3, 24096, Note_on_c, 1, 31, 110
3, 24096, Note_on_c, 1, 43, 110
3, 24190, Note_on_c, 1, 31, 0
3, 24190, Note_on_c, 1, 43, 0
3, 24192, Note_on_c, 1, 31, 110
3, 24192, Note_on_c, 1, 43, 110
3, 24352, Note_on_c, 1, 31, 0
3, 24352, Note_on_c, 1, 43, 0
3, 24384, Note_on_c, 1, 31, 110
3, 24384, Note_on_c, 1, 43, 110
3, 24478, Note_on_c, 1, 31, 0
3, 24478, Note_on_c, 1, 43, 0
3, 24480, Note_on_c, 1, 31, 110
3, 24480, Note_on_c, 1, 43, 110
3, 24640, Note_on_c, 1, 31, 0
3, 24640, Note_on_c, 1, 43, 0
3, 24672, Note_on_c, 1, 31, 110
3, 24672, Note_on_c, 1, 43, 110
3, 24766, Note_on_c, 1, 31, 0
3, 24766, Note_on_c, 1, 43, 0
3, 24768, Note_on_c, 1, 33, 110
3, 24768, Note_on_c, 1, 45, 110
3, 24928, Note_on_c, 1, 33, 0
3, 24928, Note_on_c, 1, 45, 0
3, 24960, Note_on_c, 1, 33, 110
3, 24960, Note_on_c, 1, 45, 110
3, 25054, Note_on_c, 1, 33, 0
3, 25054, Note_on_c, 1, 45, 0
3, 25056, Note_on_c, 1, 33, 110
3, 25056, Note_on_c, 1, 45, 110
3, 25216, Note_on_c, 1, 33, 0
3, 25216, Note_on_c, 1, 45, 0
3, 25248, Note_on_c, 1, 33, 110
3, 25248, Note_on_c, 1, 45, 110
3, 25342, Note_on_c, 1, 33, 0
3, 25342, Note_on_c, 1, 45, 0
3, 25344, Note_on_c, 1, 33, 110
3, 25344, Note_on_c, 1, 45, 110
3, 25504, Note_on_c, 1, 33, 0
3, 25504, Note_on_c, 1, 45, 0
3, 25536, Note_on_c, 1, 33, 110
3, 25536, Note_on_c, 1, 45, 110
3, 25630, Note_on_c, 1, 33, 0
3, 25630, Note_on_c, 1, 45, 0
3, 25632, Note_on_c, 1, 33, 110
3, 25632, Note_on_c, 1, 45, 110
3, 25792, Note_on_c, 1, 33, 0
3, 25792, Note_on_c, 1, 45, 0
3, 25824, Note_on_c, 1, 33, 110
3, 25824, Note_on_c, 1, 45, 110
3, 25918, Note_on_c, 1, 33, 0
3, 25918, Note_on_c, 1, 45, 0
3, 25920, Note_on_c, 1, 38, 110
3, 25920, Note_on_c, 1, 50, 110
3, 26080, Note_on_c, 1, 38, 0
3, 26080, Note_on_c, 1, 50, 0
3, 26112, Note_on_c, 1, 38, 110
3, 26112, Note_on_c, 1, 50, 110
3, 26206, Note_on_c, 1, 38, 0
3, 26206, Note_on_c, 1, 50, 0
3, 26208, Note_on_c, 1, 38, 110
3, 26208, Note_on_c, 1, 50, 110
3, 26368, Note_on_c, 1, 38, 0
3, 26368, Note_on_c, 1, 50, 0
3, 26400, Note_on_c, 1, 38, 110
3, 26400, Note_on_c, 1, 50, 110
3, 26494, Note_on_c, 1, 38, 0
3, 26494, Note_on_c, 1, 50, 0
3, 26496, Note_on_c, 1, 38, 110
3, 26496, Note_on_c, 1, 50, 110
3, 26656, Note_on_c, 1, 38, 0
3, 26656, Note_on_c, 1, 50, 0
3, 26688, Note_on_c, 1, 38, 110
3, 26688, Note_on_c, 1, 50, 110
3, 26782, Note_on_c, 1, 38, 0
3, 26782, Note_on_c, 1, 50, 0
3, 26784, Note_on_c, 1, 38, 110
3, 26784, Note_on_c, 1, 50, 110
3, 26878, Note_on_c, 1, 38, 0
3, 26878, Note_on_c, 1, 50, 0
3, 26880, Note_on_c, 1, 38, 110
3, 26880, Note_on_c, 1, 50, 110
3, 26974, Note_on_c, 1, 38, 0
3, 26974, Note_on_c, 1, 50, 0
3, 26976, Note_on_c, 1, 38, 110
3, 26976, Note_on_c, 1, 50, 110
3, 27070, Note_on_c, 1, 38, 0
3, 27070, Note_on_c, 1, 50, 0
3, 27072, Note_on_c, 1, 36, 110
3, 27072, Note_on_c, 1, 48, 110
3, 27232, Note_on_c, 1, 36, 0
3, 27232, Note_on_c, 1, 48, 0
3, 27264, Note_on_c, 1, 36, 110
3, 27264, Note_on_c, 1, 48, 110
3, 27358, Note_on_c, 1, 36, 0
3, 27358, Note_on_c, 1, 48, 0
3, 27360, Note_on_c, 1, 36, 110
3, 27360, Note_on_c, 1, 48, 110
3, 27520, Note_on_c, 1, 36, 0
3, 27520, Note_on_c, 1, 48, 0
3, 27552, Note_on_c, 1, 36, 110
3, 27552, Note_on_c, 1, 48, 110
3, 27646, Note_on_c, 1, 36, 0
3, 27646, Note_on_c, 1, 48, 0
3, 27648, Note_on_c, 1, 41, 110
3, 27648, Note_on_c, 1, 53, 110
3, 27808, Note_on_c, 1, 41, 0
3, 27808, Note_on_c, 1, 53, 0
3, 27840, Note_on_c, 1, 41, 110
3, 27840, Note_on_c, 1, 53, 110
3, 27934, Note_on_c, 1, 41, 0
3, 27934, Note_on_c, 1, 53, 0
3, 27936, Note_on_c, 1, 41, 110
3, 27936, Note_on_c, 1, 53, 110
3, 28030, Note_on_c, 1, 41, 0
3, 28030, Note_on_c, 1, 53, 0
3, 28032, Note_on_c, 1, 41, 110
3, 28032, Note_on_c, 1, 53, 110
3, 28126, Note_on_c, 1, 41, 0
3, 28126, Note_on_c, 1, 53, 0
3, 28128, Note_on_c, 1, 41, 110
3, 28128, Note_on_c, 1, 53, 110
3, 28222, Note_on_c, 1, 41, 0
3, 28222, Note_on_c, 1, 53, 0
3, 28224, Note_on_c, 1, 38, 110
3, 28224, Note_on_c, 1, 50, 110
3, 28384, Note_on_c, 1, 38, 0
3, 28384, Note_on_c, 1, 50, 0
3, 28416, Note_on_c, 1, 38, 110
3, 28416, Note_on_c, 1, 50, 110
3, 28510, Note_on_c, 1, 38, 0
3, 28510, Note_on_c, 1, 50, 0
3, 28512, Note_on_c, 1, 38, 110
3, 28512, Note_on_c, 1, 50, 110
3, 28672, Note_on_c, 1, 38, 0
3, 28672, Note_on_c, 1, 50, 0
3, 28704, Note_on_c, 1, 38, 110
3, 28704, Note_on_c, 1, 50, 110
3, 28798, Note_on_c, 1, 38, 0
3, 28798, Note_on_c, 1, 50, 0
3, 28800, Note_on_c, 1, 38, 110
3, 28800, Note_on_c, 1, 50, 110
3, 28960, Note_on_c, 1, 38, 0
3, 28960, Note_on_c, 1, 50, 0
3, 28992, Note_on_c, 1, 38, 110
3, 28992, Note_on_c, 1, 50, 110
3, 29086, Note_on_c, 1, 38, 0
3, 29086, Note_on_c, 1, 50, 0
3, 29088, Note_on_c, 1, 38, 110
3, 29088, Note_on_c, 1, 50, 110
3, 29182, Note_on_c, 1, 38, 0
3, 29182, Note_on_c, 1, 50, 0
3, 29184, Note_on_c, 1, 38, 110
3, 29184, Note_on_c, 1, 50, 110
3, 29278, Note_on_c, 1, 38, 0
3, 29278, Note_on_c, 1, 50, 0
3, 29280, Note_on_c, 1, 38, 110
3, 29280, Note_on_c, 1, 50, 110
3, 29374, Note_on_c, 1, 38, 0
3, 29374, Note_on_c, 1, 50, 0
3, 29376, Note_on_c, 1, 33, 110
3, 29376, Note_on_c, 1, 45, 110
3, 29536, Note_on_c, 1, 33, 0
3, 29536, Note_on_c, 1, 45, 0
3, 29568, Note_on_c, 1, 33, 110
3, 29568, Note_on_c, 1, 45, 110
3, 29662, Note_on_c, 1, 33, 0
3, 29662, Note_on_c, 1, 45, 0
3, 29664, Note_on_c, 1, 33, 110
3, 29664, Note_on_c, 1, 45, 110
3, 29824, Note_on_c, 1, 33, 0
3, 29824, Note_on_c, 1, 45, 0
3, 29856, Note_on_c, 1, 33, 110
3, 29856, Note_on_c, 1, 45, 110
3, 29950, Note_on_c, 1, 33, 0
3, 29950, Note_on_c, 1, 45, 0
3, 29952, Note_on_c, 1, 38, 110
3, 29952, Note_on_c, 1, 50, 110
3, 30112, Note_on_c, 1, 38, 0
3, 30112, Note_on_c, 1, 50, 0
3, 30144, Note_on_c, 1, 38, 110
3, 30144, Note_on_c, 1, 50, 110
3, 30238, Note_on_c, 1, 38, 0
3, 30238, Note_on_c, 1, 50, 0
3, 30240, Note_on_c, 1, 38, 110
3, 30240, Note_on_c, 1, 50, 110
3, 30400, Note_on_c, 1, 38, 0
3, 30400, Note_on_c, 1, 50, 0
3, 30432, Note_on_c, 1, 38, 110
3, 30432, Note_on_c, 1, 50, 110
3, 30526, Note_on_c, 1, 38, 0
3, 30526, Note_on_c, 1, 50, 0
3, 30528, Note_on_c, 1, 38, 110
3, 30528, Note_on_c, 1, 50, 110
3, 30688, Note_on_c, 1, 38, 0
3, 30688, Note_on_c, 1, 50, 0
3, 30720, Note_on_c, 1, 38, 110
3, 30720, Note_on_c, 1, 50, 110
3, 30814, Note_on_c, 1, 38, 0
3, 30814, Note_on_c, 1, 50, 0
3, 30816, Note_on_c, 1, 38, 110
3, 30816, Note_on_c, 1, 50, 110
3, 30976, Note_on_c, 1, 38, 0
3, 30976, Note_on_c, 1, 50, 0
3, 31008, Note_on_c, 1, 38, 110
3, 31008, Note_on_c, 1, 50, 110
3, 31102, Note_on_c, 1, 38, 0
3, 31102, Note_on_c, 1, 50, 0
3, 31104, Note_on_c, 1, 36, 110
3, 31104, Note_on_c, 1, 48, 110
3, 31264, Note_on_c, 1, 36, 0
3, 31264, Note_on_c, 1, 48, 0
3, 31296, Note_on_c, 1, 36, 110
3, 31296, Note_on_c, 1, 48, 110
3, 31390, Note_on_c, 1, 36, 0
3, 31390, Note_on_c, 1, 48, 0
3, 31392, Note_on_c, 1, 36, 110
3, 31392, Note_on_c, 1, 48, 110
3, 31486, Note_on_c, 1, 36, 0
3, 31486, Note_on_c, 1, 48, 0
3, 31488, Note_on_c, 1, 36, 110
3, 31488, Note_on_c, 1, 48, 110
3, 31582, Note_on_c, 1, 36, 0
3, 31582, Note_on_c, 1, 48, 0
3, 31584, Note_on_c, 1, 36, 110
3, 31584, Note_on_c, 1, 48, 110
3, 31678, Note_on_c, 1, 36, 0
3, 31678, Note_on_c, 1, 48, 0
3, 31680, Note_on_c, 1, 41, 110
3, 31680, Note_on_c, 1, 53, 110
3, 31840, Note_on_c, 1, 41, 0
3, 31840, Note_on_c, 1, 53, 0
3, 31872, Note_on_c, 1, 41, 110
3, 31872, Note_on_c, 1, 53, 110
3, 31966, Note_on_c, 1, 41, 0
3, 31966, Note_on_c, 1, 53, 0
3, 31968, Note_on_c, 1, 41, 110
3, 31968, Note_on_c, 1, 53, 110
3, 32062, Note_on_c, 1, 41, 0
3, 32062, Note_on_c, 1, 53, 0
3, 32064, Note_on_c, 1, 41, 110
3, 32064, Note_on_c, 1, 53, 110
3, 32158, Note_on_c, 1, 41, 0
3, 32158, Note_on_c, 1, 53, 0
3, 32160, Note_on_c, 1, 41, 110
3, 32160, Note_on_c, 1, 53, 110
3, 32254, Note_on_c, 1, 41, 0
3, 32254, Note_on_c, 1, 53, 0
3, 32256, Note_on_c, 1, 36, 110
3, 32256, Note_on_c, 1, 48, 110
3, 32416, Note_on_c, 1, 36, 0
3, 32416, Note_on_c, 1, 48, 0
3, 32448, Note_on_c, 1, 36, 110
3, 32448, Note_on_c, 1, 48, 110
3, 32542, Note_on_c, 1, 36, 0
3, 32542, Note_on_c, 1, 48, 0
3, 32544, Note_on_c, 1, 36, 110
3, 32544, Note_on_c, 1, 48, 110
3, 32638, Note_on_c, 1, 36, 0
3, 32638, Note_on_c, 1, 48, 0
3, 32640, Note_on_c, 1, 36, 110
3, 32640, Note_on_c, 1, 48, 110
3, 32734, Note_on_c, 1, 36, 0
3, 32734, Note_on_c, 1, 48, 0
3, 32736, Note_on_c, 1, 36, 110
3, 32736, Note_on_c, 1, 48, 110
3, 32830, Note_on_c, 1, 36, 0
3, 32830, Note_on_c, 1, 48, 0
3, 32832, Note_on_c, 1, 41, 110
3, 32832, Note_on_c, 1, 53, 110
3, 32992, Note_on_c, 1, 41, 0
3, 32992, Note_on_c, 1, 53, 0
3, 33024, Note_on_c, 1, 41, 110
3, 33024, Note_on_c, 1, 53, 110
3, 33118, Note_on_c, 1, 41, 0
3, 33118, Note_on_c, 1, 53, 0
3, 33120, Note_on_c, 1, 41, 110
3, 33120, Note_on_c, 1, 53, 110
3, 33214, Note_on_c, 1, 41, 0
3, 33214, Note_on_c, 1, 53, 0
3, 33216, Note_on_c, 1, 41, 110
3, 33216, Note_on_c, 1, 53, 110
3, 33310, Note_on_c, 1, 41, 0
3, 33310, Note_on_c, 1, 53, 0
3, 33312, Note_on_c, 1, 41, 110
3, 33312, Note_on_c, 1, 53, 110
3, 33406, Note_on_c, 1, 41, 0
3, 33406, Note_on_c, 1, 53, 0
3, 33408, Note_on_c, 1, 33, 110
3, 33408, Note_on_c, 1, 45, 110
3, 33568, Note_on_c, 1, 33, 0
3, 33568, Note_on_c, 1, 45, 0
3, 33600, Note_on_c, 1, 33, 110
3, 33600, Note_on_c, 1, 45, 110
3, 33694, Note_on_c, 1, 33, 0
3, 33694, Note_on_c, 1, 45, 0
3, 33696, Note_on_c, 1, 33, 110
3, 33696, Note_on_c, 1, 45, 110
3, 33790, Note_on_c, 1, 33, 0
3, 33790, Note_on_c, 1, 45, 0
3, 33792, Note_on_c, 1, 33, 110
3, 33792, Note_on_c, 1, 45, 110
3, 33886, Note_on_c, 1, 33, 0
3, 33886, Note_on_c, 1, 45, 0
3, 33888, Note_on_c, 1, 33, 110
3, 33888, Note_on_c, 1, 45, 110
3, 33982, Note_on_c, 1, 33, 0
3, 33982, Note_on_c, 1, 45, 0
3, 33984, Note_on_c, 1, 38, 110
3, 33984, Note_on_c, 1, 50, 110
3, 34144, Note_on_c, 1, 38, 0
3, 34144, Note_on_c, 1, 50, 0
3, 34176, Note_on_c, 1, 38, 110
3, 34176, Note_on_c, 1, 50, 110
3, 34270, Note_on_c, 1, 38, 0
3, 34270, Note_on_c, 1, 50, 0
3, 34272, Note_on_c, 1, 38, 110
3, 34272, Note_on_c, 1, 50, 110
3, 34432, Note_on_c, 1, 38, 0
3, 34432, Note_on_c, 1, 50, 0
3, 34464, Note_on_c, 1, 38, 110
3, 34464, Note_on_c, 1, 50, 110
3, 34558, Note_on_c, 1, 38, 0
3, 34558, Note_on_c, 1, 50, 0
3, 34560, Note_on_c, 1, 38, 110
3, 34560, Note_on_c, 1, 50, 110
3, 34720, Note_on_c, 1, 38, 0
3, 34720, Note_on_c, 1, 50, 0
3, 34752, Note_on_c, 1, 38, 110
3, 34752, Note_on_c, 1, 50, 110
3, 34846, Note_on_c, 1, 38, 0
3, 34846, Note_on_c, 1, 50, 0
3, 34848, Note_on_c, 1, 38, 110
3, 34848, Note_on_c, 1, 50, 110
3, 34942, Note_on_c, 1, 38, 0
3, 34942, Note_on_c, 1, 50, 0
3, 34944, Note_on_c, 1, 38, 110
3, 34944, Note_on_c, 1, 50, 110
3, 35038, Note_on_c, 1, 38, 0
3, 35038, Note_on_c, 1, 50, 0
3, 35040, Note_on_c, 1, 38, 110
3, 35040, Note_on_c, 1, 50, 110
3, 35134, Note_on_c, 1, 38, 0
3, 35134, Note_on_c, 1, 50, 0
3, 35136, Note_on_c, 1, 38, 110
3, 35136, Note_on_c, 1, 50, 110
3, 35296, Note_on_c, 1, 38, 0
3, 35296, Note_on_c, 1, 50, 0
3, 35328, Note_on_c, 1, 38, 110
3, 35328, Note_on_c, 1, 50, 110
3, 35422, Note_on_c, 1, 38, 0
3, 35422, Note_on_c, 1, 50, 0
3, 35424, Note_on_c, 1, 38, 110
3, 35424, Note_on_c, 1, 50, 110
3, 35518, Note_on_c, 1, 38, 0
3, 35518, Note_on_c, 1, 50, 0
3, 35520, Note_on_c, 1, 38, 110
3, 35520, Note_on_c, 1, 50, 110
3, 35614, Note_on_c, 1, 38, 0
3, 35614, Note_on_c, 1, 50, 0
3, 35616, Note_on_c, 1, 38, 110
3, 35616, Note_on_c, 1, 50, 110
3, 35710, Note_on_c, 1, 38, 0
3, 35710, Note_on_c, 1, 50, 0
3, 35712, Note_on_c, 1, 36, 110
3, 35712, Note_on_c, 1, 48, 110
3, 35872, Note_on_c, 1, 36, 0
3, 35872, Note_on_c, 1, 48, 0
3, 35904, Note_on_c, 1, 36, 110
3, 35904, Note_on_c, 1, 48, 110
3, 35998, Note_on_c, 1, 36, 0
3, 35998, Note_on_c, 1, 48, 0
3, 36000, Note_on_c, 1, 36, 110
3, 36000, Note_on_c, 1, 48, 110
3, 36094, Note_on_c, 1, 36, 0
3, 36094, Note_on_c, 1, 48, 0
3, 36096, Note_on_c, 1, 36, 110
3, 36096, Note_on_c, 1, 48, 110
3, 36190, Note_on_c, 1, 36, 0
3, 36190, Note_on_c, 1, 48, 0
3, 36192, Note_on_c, 1, 36, 110
3, 36192, Note_on_c, 1, 48, 110
3, 36286, Note_on_c, 1, 36, 0
3, 36286, Note_on_c, 1, 48, 0
3, 36288, Note_on_c, 1, 41, 110
3, 36288, Note_on_c, 1, 53, 110
3, 36448, Note_on_c, 1, 41, 0
3, 36448, Note_on_c, 1, 53, 0
3, 36480, Note_on_c, 1, 41, 110
3, 36480, Note_on_c, 1, 53, 110
3, 36574, Note_on_c, 1, 41, 0
3, 36574, Note_on_c, 1, 53, 0
3, 36576, Note_on_c, 1, 41, 110
3, 36576, Note_on_c, 1, 53, 110
3, 36670, Note_on_c, 1, 41, 0
3, 36670, Note_on_c, 1, 53, 0
3, 36672, Note_on_c, 1, 41, 110
3, 36672, Note_on_c, 1, 53, 110
3, 36766, Note_on_c, 1, 41, 0
3, 36766, Note_on_c, 1, 53, 0
3, 36768, Note_on_c, 1, 41, 110
3, 36768, Note_on_c, 1, 53, 110
3, 36862, Note_on_c, 1, 41, 0
3, 36862, Note_on_c, 1, 53, 0
3, 36864, Note_on_c, 1, 34, 110
3, 36864, Note_on_c, 1, 46, 110
3, 37024, Note_on_c, 1, 34, 0
3, 37024, Note_on_c, 1, 46, 0
3, 37056, Note_on_c, 1, 34, 110
3, 37056, Note_on_c, 1, 46, 110
3, 37150, Note_on_c, 1, 34, 0
3, 37150, Note_on_c, 1, 46, 0
3, 37152, Note_on_c, 1, 34, 110
3, 37152, Note_on_c, 1, 46, 110
3, 37246, Note_on_c, 1, 34, 0
3, 37246, Note_on_c, 1, 46, 0
3, 37248, Note_on_c, 1, 34, 110
3, 37248, Note_on_c, 1, 46, 110
3, 37342, Note_on_c, 1, 34, 0
3, 37342, Note_on_c, 1, 46, 0
3, 37344, Note_on_c, 1, 34, 110
3, 37344, Note_on_c, 1, 46, 110
3, 37438, Note_on_c, 1, 34, 0
3, 37438, Note_on_c, 1, 46, 0
3, 37440, Note_on_c, 1, 38, 110
3, 37440, Note_on_c, 1, 50, 110
3, 37600, Note_on_c, 1, 38, 0
3, 37600, Note_on_c, 1, 50, 0
3, 37632, Note_on_c, 1, 38, 110
3, 37632, Note_on_c, 1, 50, 110
3, 37726, Note_on_c, 1, 38, 0
3, 37726, Note_on_c, 1, 50, 0
3, 37728, Note_on_c, 1, 38, 110
3, 37728, Note_on_c, 1, 50, 110
3, 37822, Note_on_c, 1, 38, 0
3, 37822, Note_on_c, 1, 50, 0
3, 37824, Note_on_c, 1, 38, 110
3, 37824, Note_on_c, 1, 50, 110
3, 37918, Note_on_c, 1, 38, 0
3, 37918, Note_on_c, 1, 50, 0
3, 37920, Note_on_c, 1, 38, 110
3, 37920, Note_on_c, 1, 50, 110
3, 38014, Note_on_c, 1, 38, 0
3, 38014, Note_on_c, 1, 50, 0
3, 38016, Note_on_c, 1, 31, 110
3, 38016, Note_on_c, 1, 43, 110
3, 38176, Note_on_c, 1, 31, 0
3, 38176, Note_on_c, 1, 43, 0
3, 38208, Note_on_c, 1, 31, 110
3, 38208, Note_on_c, 1, 43, 110
3, 38302, Note_on_c, 1, 31, 0
3, 38302, Note_on_c, 1, 43, 0
3, 38304, Note_on_c, 1, 31, 110
3, 38304, Note_on_c, 1, 43, 110
3, 38398, Note_on_c, 1, 31, 0
3, 38398, Note_on_c, 1, 43, 0
3, 38400, Note_on_c, 1, 31, 110
3, 38400, Note_on_c, 1, 43, 110
3, 38494, Note_on_c, 1, 31, 0
3, 38494, Note_on_c, 1, 43, 0
3, 38496, Note_on_c, 1, 31, 110
3, 38496, Note_on_c, 1, 43, 110
3, 38590, Note_on_c, 1, 31, 0
3, 38590, Note_on_c, 1, 43, 0
3, 38592, Note_on_c, 1, 33, 110
3, 38592, Note_on_c, 1, 45, 110
3, 38752, Note_on_c, 1, 33, 0
3, 38752, Note_on_c, 1, 45, 0
3, 38784, Note_on_c, 1, 33, 110
3, 38784, Note_on_c, 1, 45, 110
3, 38878, Note_on_c, 1, 33, 0
3, 38878, Note_on_c, 1, 45, 0
3, 38880, Note_on_c, 1, 33, 110
3, 38880, Note_on_c, 1, 45, 110
3, 38974, Note_on_c, 1, 33, 0
3, 38974, Note_on_c, 1, 45, 0
3, 38976, Note_on_c, 1, 33, 110
3, 38976, Note_on_c, 1, 45, 110
3, 39070, Note_on_c, 1, 33, 0
3, 39070, Note_on_c, 1, 45, 0
3, 39072, Note_on_c, 1, 33, 110
3, 39072, Note_on_c, 1, 45, 110
3, 39166, Note_on_c, 1, 33, 0
3, 39166, Note_on_c, 1, 45, 0
3, 39168, Note_on_c, 1, 33, 110
3, 39168, Note_on_c, 1, 45, 110
3, 39328, Note_on_c, 1, 33, 0
3, 39328, Note_on_c, 1, 45, 0
3, 39360, Note_on_c, 1, 33, 110
3, 39360, Note_on_c, 1, 45, 110
3, 39454, Note_on_c, 1, 33, 0
3, 39454, Note_on_c, 1, 45, 0
3, 39456, Note_on_c, 1, 33, 110
3, 39456, Note_on_c, 1, 45, 110
3, 39550, Note_on_c, 1, 33, 0
3, 39550, Note_on_c, 1, 45, 0
3, 39552, Note_on_c, 1, 33, 110
3, 39552, Note_on_c, 1, 45, 110
3, 39646, Note_on_c, 1, 33, 0
3, 39646, Note_on_c, 1, 45, 0
3, 39648, Note_on_c, 1, 33, 110
3, 39648, Note_on_c, 1, 45, 110
3, 39742, Note_on_c, 1, 33, 0
3, 39742, Note_on_c, 1, 45, 0
3, 39744, Note_on_c, 1, 38, 110
3, 39744, Note_on_c, 1, 50, 110
3, 39904, Note_on_c, 1, 38, 0
3, 39904, Note_on_c, 1, 50, 0
3, 39936, Note_on_c, 1, 38, 110
3, 39936, Note_on_c, 1, 50, 110
3, 40030, Note_on_c, 1, 38, 0
3, 40030, Note_on_c, 1, 50, 0
3, 40032, Note_on_c, 1, 38, 110
3, 40032, Note_on_c, 1, 50, 110
3, 40126, Note_on_c, 1, 38, 0
3, 40126, Note_on_c, 1, 50, 0
3, 40128, Note_on_c, 1, 38, 110
3, 40128, Note_on_c, 1, 50, 110
3, 40222, Note_on_c, 1, 38, 0
3, 40222, Note_on_c, 1, 50, 0
3, 40224, Note_on_c, 1, 38, 110
3, 40224, Note_on_c, 1, 50, 110
3, 40318, Note_on_c, 1, 38, 0
3, 40318, Note_on_c, 1, 50, 0
3, 40320, Note_on_c, 1, 31, 110
3, 40320, Note_on_c, 1, 43, 110
3, 40480, Note_on_c, 1, 31, 0
3, 40480, Note_on_c, 1, 43, 0
3, 40512, Note_on_c, 1, 31, 110
3, 40512, Note_on_c, 1, 43, 110
3, 40606, Note_on_c, 1, 31, 0
3, 40606, Note_on_c, 1, 43, 0
3, 40608, Note_on_c, 1, 31, 110
3, 40608, Note_on_c, 1, 43, 110
3, 40702, Note_on_c, 1, 31, 0
3, 40702, Note_on_c, 1, 43, 0
3, 40704, Note_on_c, 1, 31, 110
3, 40704, Note_on_c, 1, 43, 110
3, 40798, Note_on_c, 1, 31, 0
3, 40798, Note_on_c, 1, 43, 0
3, 40800, Note_on_c, 1, 31, 110
3, 40800, Note_on_c, 1, 43, 110
3, 40894, Note_on_c, 1, 31, 0
3, 40894, Note_on_c, 1, 43, 0
3, 40896, Note_on_c, 1, 41, 110
3, 40896, Note_on_c, 1, 53, 110
3, 41056, Note_on_c, 1, 41, 0
3, 41056, Note_on_c, 1, 53, 0
3, 41088, Note_on_c, 1, 41, 110
3, 41088, Note_on_c, 1, 53, 110
3, 41182, Note_on_c, 1, 41, 0
3, 41182, Note_on_c, 1, 53, 0
3, 41184, Note_on_c, 1, 41, 110
3, 41184, Note_on_c, 1, 53, 110
3, 41344, Note_on_c, 1, 41, 0
3, 41344, Note_on_c, 1, 53, 0
3, 41376, Note_on_c, 1, 41, 110
3, 41376, Note_on_c, 1, 53, 110
3, 41470, Note_on_c, 1, 41, 0
3, 41470, Note_on_c, 1, 53, 0
3, 41472, Note_on_c, 1, 36, 110
3, 41472, Note_on_c, 1, 48, 110
3, 41632, Note_on_c, 1, 36, 0
3, 41632, Note_on_c, 1, 48, 0
3, 41664, Note_on_c, 1, 36, 110
3, 41664, Note_on_c, 1, 48, 110
3, 41758, Note_on_c, 1, 36, 0
3, 41758, Note_on_c, 1, 48, 0
3, 41760, Note_on_c, 1, 36, 110
3, 41760, Note_on_c, 1, 48, 110
3, 41854, Note_on_c, 1, 36, 0
3, 41854, Note_on_c, 1, 48, 0
3, 41856, Note_on_c, 1, 36, 110
3, 41856, Note_on_c, 1, 48, 110
3, 41950, Note_on_c, 1, 36, 0
3, 41950, Note_on_c, 1, 48, 0
3, 41952, Note_on_c, 1, 36, 110
3, 41952, Note_on_c, 1, 48, 110
3, 42046, Note_on_c, 1, 36, 0
3, 42046, Note_on_c, 1, 48, 0
3, 42048, Note_on_c, 1, 31, 110
3, 42048, Note_on_c, 1, 43, 110
3, 42208, Note_on_c, 1, 31, 0
3, 42208, Note_on_c, 1, 43, 0
3, 42240, Note_on_c, 1, 31, 110
3, 42240, Note_on_c, 1, 43, 110
3, 42334, Note_on_c, 1, 31, 0
3, 42334, Note_on_c, 1, 43, 0
3, 42336, Note_on_c, 1, 31, 110
3, 42336, Note_on_c, 1, 43, 110
3, 42430, Note_on_c, 1, 31, 0
3, 42430, Note_on_c, 1, 43, 0
3, 42432, Note_on_c, 1, 31, 110
3, 42432, Note_on_c, 1, 43, 110
3, 42526, Note_on_c, 1, 31, 0
3, 42526, Note_on_c, 1, 43, 0
3, 42528, Note_on_c, 1, 31, 110
3, 42528, Note_on_c, 1, 43, 110
3, 42622, Note_on_c, 1, 31, 0
3, 42622, Note_on_c, 1, 43, 0
3, 42624, Note_on_c, 1, 33, 110
3, 42624, Note_on_c, 1, 45, 110
3, 42784, Note_on_c, 1, 33, 0
3, 42784, Note_on_c, 1, 45, 0
3, 42816, Note_on_c, 1, 33, 110
3, 42816, Note_on_c, 1, 45, 110
3, 42910, Note_on_c, 1, 33, 0
3, 42910, Note_on_c, 1, 45, 0
3, 42912, Note_on_c, 1, 33, 110
3, 42912, Note_on_c, 1, 45, 110
3, 43006, Note_on_c, 1, 33, 0
3, 43006, Note_on_c, 1, 45, 0
3, 43008, Note_on_c, 1, 33, 110
3, 43008, Note_on_c, 1, 45, 110
3, 43102, Note_on_c, 1, 33, 0
3, 43102, Note_on_c, 1, 45, 0
3, 43104, Note_on_c, 1, 33, 110
3, 43104, Note_on_c, 1, 45, 110
3, 43198, Note_on_c, 1, 33, 0
3, 43198, Note_on_c, 1, 45, 0
3, 43200, Note_on_c, 1, 33, 110
3, 43200, Note_on_c, 1, 45, 110
3, 43360, Note_on_c, 1, 33, 0
3, 43360, Note_on_c, 1, 45, 0
3, 43392, Note_on_c, 1, 33, 110
3, 43392, Note_on_c, 1, 45, 110
3, 43486, Note_on_c, 1, 33, 0
3, 43486, Note_on_c, 1, 45, 0
3, 43488, Note_on_c, 1, 33, 110
3, 43488, Note_on_c, 1, 45, 110
3, 43582, Note_on_c, 1, 33, 0
3, 43582, Note_on_c, 1, 45, 0
3, 43584, Note_on_c, 1, 33, 110
3, 43584, Note_on_c, 1, 45, 110
3, 43678, Note_on_c, 1, 33, 0
3, 43678, Note_on_c, 1, 45, 0
3, 43680, Note_on_c, 1, 33, 110
3, 43680, Note_on_c, 1, 45, 110
3, 43774, Note_on_c, 1, 33, 0
3, 43774, Note_on_c, 1, 45, 0
3, 43776, Note_on_c, 1, 38, 110
3, 43776, Note_on_c, 1, 50, 110
3, 43936, Note_on_c, 1, 38, 0
3, 43936, Note_on_c, 1, 50, 0
3, 43968, Note_on_c, 1, 38, 110
3, 43968, Note_on_c, 1, 50, 110
3, 44062, Note_on_c, 1, 38, 0
3, 44062, Note_on_c, 1, 50, 0
3, 44064, Note_on_c, 1, 38, 110
3, 44064, Note_on_c, 1, 50, 110
3, 44158, Note_on_c, 1, 38, 0
3, 44158, Note_on_c, 1, 50, 0
3, 44160, Note_on_c, 1, 38, 110
3, 44160, Note_on_c, 1, 50, 110
3, 44254, Note_on_c, 1, 38, 0
3, 44254, Note_on_c, 1, 50, 0
3, 44256, Note_on_c, 1, 38, 110
3, 44256, Note_on_c, 1, 50, 110
3, 44350, Note_on_c, 1, 38, 0
3, 44350, Note_on_c, 1, 50, 0
3, 44352, Note_on_c, 1, 38, 110
3, 44352, Note_on_c, 1, 50, 110
3, 44512, Note_on_c, 1, 38, 0
3, 44512, Note_on_c, 1, 50, 0
3, 44544, Note_on_c, 1, 38, 110
3, 44544, Note_on_c, 1, 50, 110
3, 44638, Note_on_c, 1, 38, 0
3, 44638, Note_on_c, 1, 50, 0
3, 44640, Note_on_c, 1, 38, 110
3, 44640, Note_on_c, 1, 50, 110
3, 44734, Note_on_c, 1, 38, 0
3, 44734, Note_on_c, 1, 50, 0
3, 44736, Note_on_c, 1, 38, 110
3, 44736, Note_on_c, 1, 50, 110
3, 44830, Note_on_c, 1, 38, 0
3, 44830, Note_on_c, 1, 50, 0
3, 44832, Note_on_c, 1, 38, 110
3, 44832, Note_on_c, 1, 50, 110
3, 44926, Note_on_c, 1, 38, 0
3, 44926, Note_on_c, 1, 50, 0
3, 44928, Note_on_c, 1, 34, 110
3, 44928, Note_on_c, 1, 46, 110
3, 45088, Note_on_c, 1, 34, 0
3, 45088, Note_on_c, 1, 46, 0
3, 45120, Note_on_c, 1, 34, 110
3, 45120, Note_on_c, 1, 46, 110
3, 45214, Note_on_c, 1, 34, 0
3, 45214, Note_on_c, 1, 46, 0
3, 45216, Note_on_c, 1, 34, 110
3, 45216, Note_on_c, 1, 46, 110
3, 45310, Note_on_c, 1, 34, 0
3, 45310, Note_on_c, 1, 46, 0
3, 45312, Note_on_c, 1, 34, 110
3, 45312, Note_on_c, 1, 46, 110
3, 45406, Note_on_c, 1, 34, 0
3, 45406, Note_on_c, 1, 46, 0
3, 45408, Note_on_c, 1, 34, 110
3, 45408, Note_on_c, 1, 46, 110
3, 45502, Note_on_c, 1, 34, 0
3, 45502, Note_on_c, 1, 46, 0
3, 45504, Note_on_c, 1, 41, 110
3, 45504, Note_on_c, 1, 53, 110
3, 45664, Note_on_c, 1, 41, 0
3, 45664, Note_on_c, 1, 53, 0
3, 45696, Note_on_c, 1, 41, 110
3, 45696, Note_on_c, 1, 53, 110
3, 45790, Note_on_c, 1, 41, 0
3, 45790, Note_on_c, 1, 53, 0
3, 45792, Note_on_c, 1, 41, 110
3, 45792, Note_on_c, 1, 53, 110
3, 45886, Note_on_c, 1, 41, 0
3, 45886, Note_on_c, 1, 53, 0
3, 45888, Note_on_c, 1, 41, 110
3, 45888, Note_on_c, 1, 53, 110
3, 45982, Note_on_c, 1, 41, 0
3, 45982, Note_on_c, 1, 53, 0
3, 45984, Note_on_c, 1, 41, 110
3, 45984, Note_on_c, 1, 53, 110
3, 46078, Note_on_c, 1, 41, 0
3, 46078, Note_on_c, 1, 53, 0
3, 46080, Note_on_c, 1, 36, 110
3, 46080, Note_on_c, 1, 48, 110
3, 46240, Note_on_c, 1, 36, 0
3, 46240, Note_on_c, 1, 48, 0
3, 46272, Note_on_c, 1, 36, 110
3, 46272, Note_on_c, 1, 48, 110
3, 46366, Note_on_c, 1, 36, 0
3, 46366, Note_on_c, 1, 48, 0
3, 46368, Note_on_c, 1, 36, 110
3, 46368, Note_on_c, 1, 48, 110
3, 46462, Note_on_c, 1, 36, 0
3, 46462, Note_on_c, 1, 48, 0
3, 46464, Note_on_c, 1, 36, 110
3, 46464, Note_on_c, 1, 48, 110
3, 46558, Note_on_c, 1, 36, 0
3, 46558, Note_on_c, 1, 48, 0
3, 46560, Note_on_c, 1, 36, 110
3, 46560, Note_on_c, 1, 48, 110
3, 46654, Note_on_c, 1, 36, 0
3, 46654, Note_on_c, 1, 48, 0
3, 46656, Note_on_c, 1, 31, 110
3, 46656, Note_on_c, 1, 43, 110
3, 46816, Note_on_c, 1, 31, 0
3, 46816, Note_on_c, 1, 43, 0
3, 46848, Note_on_c, 1, 31, 110
3, 46848, Note_on_c, 1, 43, 110
3, 46942, Note_on_c, 1, 31, 0
3, 46942, Note_on_c, 1, 43, 0
3, 46944, Note_on_c, 1, 31, 110
3, 46944, Note_on_c, 1, 43, 110
3, 47038, Note_on_c, 1, 31, 0
3, 47038, Note_on_c, 1, 43, 0
3, 47040, Note_on_c, 1, 31, 110
3, 47040, Note_on_c, 1, 43, 110
3, 47134, Note_on_c, 1, 31, 0
3, 47134, Note_on_c, 1, 43, 0
3, 47136, Note_on_c, 1, 31, 110
3, 47136, Note_on_c, 1, 43, 110
3, 47230, Note_on_c, 1, 31, 0
3, 47230, Note_on_c, 1, 43, 0
3, 47232, Note_on_c, 1, 33, 110
3, 47232, Note_on_c, 1, 45, 110
3, 47392, Note_on_c, 1, 33, 0
3, 47392, Note_on_c, 1, 45, 0
3, 47424, Note_on_c, 1, 33, 110
3, 47424, Note_on_c, 1, 45, 110
3, 47518, Note_on_c, 1, 33, 0
3, 47518, Note_on_c, 1, 45, 0
3, 47520, Note_on_c, 1, 33, 110
3, 47520, Note_on_c, 1, 45, 110
3, 47614, Note_on_c, 1, 33, 0
3, 47614, Note_on_c, 1, 45, 0
3, 47616, Note_on_c, 1, 33, 110
3, 47616, Note_on_c, 1, 45, 110
3, 47710, Note_on_c, 1, 33, 0
3, 47710, Note_on_c, 1, 45, 0
3, 47712, Note_on_c, 1, 33, 110
3, 47712, Note_on_c, 1, 45, 110
3, 47806, Note_on_c, 1, 33, 0
3, 47806, Note_on_c, 1, 45, 0
3, 47808, Note_on_c, 1, 33, 110
3, 47808, Note_on_c, 1, 45, 110
3, 47968, Note_on_c, 1, 33, 0
3, 47968, Note_on_c, 1, 45, 0
3, 48000, Note_on_c, 1, 33, 110
3, 48000, Note_on_c, 1, 45, 110
3, 48094, Note_on_c, 1, 33, 0
3, 48094, Note_on_c, 1, 45, 0
3, 48096, Note_on_c, 1, 33, 110
3, 48096, Note_on_c, 1, 45, 110
3, 48190, Note_on_c, 1, 33, 0
3, 48190, Note_on_c, 1, 45, 0
3, 48192, Note_on_c, 1, 33, 110
3, 48192, Note_on_c, 1, 45, 110
3, 48286, Note_on_c, 1, 33, 0
3, 48286, Note_on_c, 1, 45, 0
3, 48288, Note_on_c, 1, 33, 110
3, 48288, Note_on_c, 1, 45, 110
3, 48382, Note_on_c, 1, 33, 0
3, 48382, Note_on_c, 1, 45, 0
3, 48384, Note_on_c, 1, 38, 110
3, 48384, Note_on_c, 1, 50, 110
3, 48640, Note_on_c, 1, 38, 0
3, 48640, Note_on_c, 1, 50, 0
3, 48672, Note_on_c, 1, 38, 110
3, 48672, Note_on_c, 1, 50, 110
3, 48766, Note_on_c, 1, 38, 0
3, 48766, Note_on_c, 1, 50, 0
3, 48768, Note_on_c, 1, 38, 110
3, 48768, Note_on_c, 1, 50, 110
3, 48862, Note_on_c, 1, 38, 0
3, 48862, Note_on_c, 1, 50, 0
3, 48864, Note_on_c, 1, 38, 110
3, 48864, Note_on_c, 1, 50, 110
3, 48958, Note_on_c, 1, 38, 0
3, 48958, Note_on_c, 1, 50, 0
3, 48960, Note_on_c, 1, 26, 110
3, 48960, Note_on_c, 1, 38, 110
3, 49680, Note_on_c, 1, 26, 0
3, 49680, Note_on_c, 1, 38, 0
3, 49680, End_track
4, 0, Start_track
4, 0, MIDI_port, 0
4, 0, Title_t, "Staff-1"
4, 0, Control_c, 2, 7, 127
4, 0, Control_c, 2, 10, 64
4, 0, Program_c, 2, 48
4, 1728, Note_on_c, 2, 62, 75
4, 2256, Note_on_c, 2, 62, 0
4, 2304, Note_on_c, 2, 62, 75
4, 2832, Note_on_c, 2, 62, 0
4, 2880, Note_on_c, 2, 70, 75
4, 3136, Note_on_c, 2, 70, 0
4, 3168, Note_on_c, 2, 69, 75
4, 3310, Note_on_c, 2, 69, 0
4, 3312, Note_on_c, 2, 69, 75
4, 3454, Note_on_c, 2, 69, 0
4, 3456, Note_on_c, 2, 62, 75
4, 3792, Note_on_c, 2, 62, 0
4, 3840, Note_on_c, 2, 62, 75
4, 3934, Note_on_c, 2, 62, 0
4, 3936, Note_on_c, 2, 64, 75
4, 4030, Note_on_c, 2, 64, 0
4, 4032, Note_on_c, 2, 65, 75
4, 4368, Note_on_c, 2, 65, 0
4, 4416, Note_on_c, 2, 65, 75
4, 4510, Note_on_c, 2, 65, 0
4, 4512, Note_on_c, 2, 67, 75
4, 4606, Note_on_c, 2, 67, 0
4, 4608, Note_on_c, 2, 64, 75
4, 4944, Note_on_c, 2, 64, 0
4, 4992, Note_on_c, 2, 62, 75
4, 5086, Note_on_c, 2, 62, 0
4, 5088, Note_on_c, 2, 60, 75
4, 5182, Note_on_c, 2, 60, 0
4, 5184, Note_on_c, 2, 60, 75
4, 5278, Note_on_c, 2, 60, 0
4, 5280, Note_on_c, 2, 62, 75
4, 5374, Note_on_c, 2, 62, 0
4, 5568, Note_on_c, 2, 57, 75
4, 5662, Note_on_c, 2, 57, 0
4, 5664, Note_on_c, 2, 60, 75
4, 5758, Note_on_c, 2, 60, 0
4, 5760, Note_on_c, 2, 62, 75
4, 6096, Note_on_c, 2, 62, 0
4, 6144, Note_on_c, 2, 62, 75
4, 6238, Note_on_c, 2, 62, 0
4, 6240, Note_on_c, 2, 64, 75
4, 6334, Note_on_c, 2, 64, 0
4, 6336, Note_on_c, 2, 65, 75
4, 6672, Note_on_c, 2, 65, 0
4, 6720, Note_on_c, 2, 65, 75
4, 6814, Note_on_c, 2, 65, 0
4, 6816, Note_on_c, 2, 67, 75
4, 6910, Note_on_c, 2, 67, 0
4, 6912, Note_on_c, 2, 64, 75
4, 7248, Note_on_c, 2, 64, 0
4, 7296, Note_on_c, 2, 62, 75
4, 7390, Note_on_c, 2, 62, 0
4, 7392, Note_on_c, 2, 60, 75
4, 7486, Note_on_c, 2, 60, 0
4, 7488, Note_on_c, 2, 62, 75
4, 7648, Note_on_c, 2, 62, 0
4, 7872, Note_on_c, 2, 57, 75
4, 7966, Note_on_c, 2, 57, 0
4, 7968, Note_on_c, 2, 60, 75
4, 8062, Note_on_c, 2, 60, 0
4, 8064, Note_on_c, 2, 62, 75
4, 8400, Note_on_c, 2, 62, 0
4, 8448, Note_on_c, 2, 62, 75
4, 8542, Note_on_c, 2, 62, 0
4, 8544, Note_on_c, 2, 65, 75
4, 8638, Note_on_c, 2, 65, 0
4, 8640, Note_on_c, 2, 67, 75
4, 8976, Note_on_c, 2, 67, 0
4, 9024, Note_on_c, 2, 67, 75
4, 9118, Note_on_c, 2, 67, 0
4, 9120, Note_on_c, 2, 69, 75
4, 9214, Note_on_c, 2, 69, 0
4, 9216, Note_on_c, 2, 70, 75
4, 9552, Note_on_c, 2, 70, 0
4, 9600, Note_on_c, 2, 69, 75
4, 9694, Note_on_c, 2, 69, 0
4, 9696, Note_on_c, 2, 67, 75
4, 9790, Note_on_c, 2, 67, 0
4, 9792, Note_on_c, 2, 69, 75
4, 9886, Note_on_c, 2, 69, 0
4, 9888, Note_on_c, 2, 62, 75
4, 10048, Note_on_c, 2, 62, 0
4, 10176, Note_on_c, 2, 62, 75
4, 10270, Note_on_c, 2, 62, 0
4, 10272, Note_on_c, 2, 64, 75
4, 10366, Note_on_c, 2, 64, 0
4, 10368, Note_on_c, 2, 65, 75
4, 10704, Note_on_c, 2, 65, 0
4, 10752, Note_on_c, 2, 67, 75
4, 10912, Note_on_c, 2, 67, 0
4, 10944, Note_on_c, 2, 69, 75
4, 11038, Note_on_c, 2, 69, 0
4, 11040, Note_on_c, 2, 62, 75
4, 11200, Note_on_c, 2, 62, 0
4, 11328, Note_on_c, 2, 62, 75
4, 11422, Note_on_c, 2, 62, 0
4, 11424, Note_on_c, 2, 65, 75
4, 11518, Note_on_c, 2, 65, 0
4, 11520, Note_on_c, 2, 64, 75
4, 11856, Note_on_c, 2, 64, 0
4, 11904, Note_on_c, 2, 65, 75
4, 11998, Note_on_c, 2, 65, 0
4, 12000, Note_on_c, 2, 62, 75
4, 12094, Note_on_c, 2, 62, 0
4, 12096, Note_on_c, 2, 64, 75
4, 12352, Note_on_c, 2, 64, 0
4, 12480, Note_on_c, 2, 69, 75
4, 12574, Note_on_c, 2, 69, 0
4, 12576, Note_on_c, 2, 72, 75
4, 12670, Note_on_c, 2, 72, 0
4, 12672, Note_on_c, 2, 74, 75
4, 13008, Note_on_c, 2, 74, 0
4, 13056, Note_on_c, 2, 74, 75
4, 13150, Note_on_c, 2, 74, 0
4, 13152, Note_on_c, 2, 76, 75
4, 13246, Note_on_c, 2, 76, 0
4, 13248, Note_on_c, 2, 77, 75
4, 13584, Note_on_c, 2, 77, 0
4, 13632, Note_on_c, 2, 77, 75
4, 13726, Note_on_c, 2, 77, 0
4, 13728, Note_on_c, 2, 79, 75
4, 13822, Note_on_c, 2, 79, 0
4, 13824, Note_on_c, 2, 76, 75
4, 14160, Note_on_c, 2, 76, 0
4, 14208, Note_on_c, 2, 74, 75
4, 14302, Note_on_c, 2, 74, 0
4, 14304, Note_on_c, 2, 72, 75
4, 14398, Note_on_c, 2, 72, 0
4, 14400, Note_on_c, 2, 72, 75
4, 14494, Note_on_c, 2, 72, 0
4, 14496, Note_on_c, 2, 74, 75
4, 14752, Note_on_c, 2, 74, 0
4, 14784, Note_on_c, 2, 69, 75
4, 14878, Note_on_c, 2, 69, 0
4, 14880, Note_on_c, 2, 72, 75
4, 14974, Note_on_c, 2, 72, 0
4, 14976, Note_on_c, 2, 74, 75
4, 15312, Note_on_c, 2, 74, 0
4, 15360, Note_on_c, 2, 74, 75
4, 15454, Note_on_c, 2, 74, 0
4, 15456, Note_on_c, 2, 76, 75
4, 15550, Note_on_c, 2, 76, 0
4, 15552, Note_on_c, 2, 77, 75
4, 15888, Note_on_c, 2, 77, 0
4, 15936, Note_on_c, 2, 77, 75
4, 16030, Note_on_c, 2, 77, 0
4, 16032, Note_on_c, 2, 79, 75
4, 16126, Note_on_c, 2, 79, 0
4, 16128, Note_on_c, 2, 76, 75
4, 16464, Note_on_c, 2, 76, 0
4, 16512, Note_on_c, 2, 74, 75
4, 16606, Note_on_c, 2, 74, 0
4, 16608, Note_on_c, 2, 72, 75
4, 16702, Note_on_c, 2, 72, 0
4, 16704, Note_on_c, 2, 74, 75
4, 16864, Note_on_c, 2, 74, 0
4, 17088, Note_on_c, 2, 69, 75
4, 17182, Note_on_c, 2, 69, 0
4, 17184, Note_on_c, 2, 72, 75
4, 17278, Note_on_c, 2, 72, 0
4, 17280, Note_on_c, 2, 74, 75
4, 17616, Note_on_c, 2, 74, 0
4, 17664, Note_on_c, 2, 74, 75
4, 17758, Note_on_c, 2, 74, 0
4, 17760, Note_on_c, 2, 77, 75
4, 17854, Note_on_c, 2, 77, 0
4, 17856, Note_on_c, 2, 79, 75
4, 18192, Note_on_c, 2, 79, 0
4, 18240, Note_on_c, 2, 79, 75
4, 18334, Note_on_c, 2, 79, 0
4, 18336, Note_on_c, 2, 81, 75
4, 18430, Note_on_c, 2, 81, 0
4, 18432, Note_on_c, 2, 82, 75
4, 18768, Note_on_c, 2, 82, 0
4, 18816, Note_on_c, 2, 81, 75
4, 18910, Note_on_c, 2, 81, 0
4, 18912, Note_on_c, 2, 79, 75
4, 19006, Note_on_c, 2, 79, 0
4, 19008, Note_on_c, 2, 81, 75
4, 19102, Note_on_c, 2, 81, 0
4, 19104, Note_on_c, 2, 74, 75
4, 19264, Note_on_c, 2, 74, 0
4, 19392, Note_on_c, 2, 74, 75
4, 19486, Note_on_c, 2, 74, 0
4, 19488, Note_on_c, 2, 76, 75
4, 19582, Note_on_c, 2, 76, 0
4, 19584, Note_on_c, 2, 77, 75
4, 19920, Note_on_c, 2, 77, 0
4, 19968, Note_on_c, 2, 79, 75
4, 20128, Note_on_c, 2, 79, 0
4, 20160, Note_on_c, 2, 81, 75
4, 20254, Note_on_c, 2, 81, 0
4, 20256, Note_on_c, 2, 74, 75
4, 20416, Note_on_c, 2, 74, 0
4, 20544, Note_on_c, 2, 74, 75
4, 20638, Note_on_c, 2, 74, 0
4, 20640, Note_on_c, 2, 77, 75
4, 20734, Note_on_c, 2, 77, 0
4, 20736, Note_on_c, 2, 76, 75
4, 21072, Note_on_c, 2, 76, 0
4, 21120, Note_on_c, 2, 74, 75
4, 21214, Note_on_c, 2, 74, 0
4, 21216, Note_on_c, 2, 72, 75
4, 21310, Note_on_c, 2, 72, 0
4, 21312, Note_on_c, 2, 74, 75
4, 21648, Note_on_c, 2, 74, 0
4, 21696, Note_on_c, 2, 76, 75
4, 21856, Note_on_c, 2, 76, 0
4, 21888, Note_on_c, 2, 72, 75
4, 21888, Note_on_c, 2, 77, 75
4, 22048, Note_on_c, 2, 72, 0
4, 22048, Note_on_c, 2, 77, 0
4, 22080, Note_on_c, 2, 77, 75
4, 22240, Note_on_c, 2, 77, 0
4, 22272, Note_on_c, 2, 79, 75
4, 22432, Note_on_c, 2, 79, 0
4, 22464, Note_on_c, 2, 81, 75
4, 22800, Note_on_c, 2, 81, 0
4, 22848, Note_on_c, 2, 77, 75
4, 23008, Note_on_c, 2, 77, 0
4, 23616, Note_on_c, 2, 82, 75
4, 24144, Note_on_c, 2, 82, 0
4, 24768, Note_on_c, 2, 60, 75
4, 24768, Note_on_c, 2, 64, 75
4, 25024, Note_on_c, 2, 60, 0
4, 25024, Note_on_c, 2, 64, 0
4, 25056, Note_on_c, 2, 62, 75
4, 25312, Note_on_c, 2, 62, 0
4, 25344, Note_on_c, 2, 65, 75
4, 25872, Note_on_c, 2, 65, 0
4, 25920, Note_on_c, 2, 69, 75
4, 26448, Note_on_c, 2, 69, 0
4, 26496, Note_on_c, 2, 70, 75
4, 26590, Note_on_c, 2, 70, 0
4, 27072, Note_on_c, 2, 67, 75
4, 27600, Note_on_c, 2, 67, 0
4, 27648, Note_on_c, 2, 69, 75
4, 27742, Note_on_c, 2, 69, 0
4, 28224, Note_on_c, 2, 69, 75
4, 28752, Note_on_c, 2, 69, 0
4, 28800, Note_on_c, 2, 70, 75
4, 28894, Note_on_c, 2, 70, 0
4, 29376, Note_on_c, 2, 67, 75
4, 29536, Note_on_c, 2, 67, 0
4, 29568, Note_on_c, 2, 65, 75
4, 29728, Note_on_c, 2, 65, 0
4, 29760, Note_on_c, 2, 64, 75
4, 29920, Note_on_c, 2, 64, 0
4, 29952, Note_on_c, 2, 62, 75
4, 30112, Note_on_c, 2, 62, 0
4, 30336, Note_on_c, 2, 62, 75
4, 30430, Note_on_c, 2, 62, 0
4, 30432, Note_on_c, 2, 64, 75
4, 30526, Note_on_c, 2, 64, 0
4, 30528, Note_on_c, 2, 57, 75
4, 30528, Note_on_c, 2, 65, 75
4, 31056, Note_on_c, 2, 57, 0
4, 31056, Note_on_c, 2, 65, 0
4, 31104, Note_on_c, 2, 67, 75
4, 31440, Note_on_c, 2, 67, 0
4, 31488, Note_on_c, 2, 64, 75
4, 31648, Note_on_c, 2, 64, 0
4, 31680, Note_on_c, 2, 65, 75
4, 31840, Note_on_c, 2, 65, 0
4, 31872, Note_on_c, 2, 67, 75
4, 32032, Note_on_c, 2, 67, 0
4, 32064, Note_on_c, 2, 69, 75
4, 32224, Note_on_c, 2, 69, 0
4, 32256, Note_on_c, 2, 60, 75
4, 32256, Note_on_c, 2, 67, 75
4, 32784, Note_on_c, 2, 60, 0
4, 32784, Note_on_c, 2, 67, 0
4, 32832, Note_on_c, 2, 69, 75
4, 33168, Note_on_c, 2, 69, 0
4, 33216, Note_on_c, 2, 67, 75
4, 33310, Note_on_c, 2, 67, 0
4, 33312, Note_on_c, 2, 65, 75
4, 33406, Note_on_c, 2, 65, 0
4, 33408, Note_on_c, 2, 64, 75
4, 33568, Note_on_c, 2, 64, 0
4, 33600, Note_on_c, 2, 65, 75
4, 33760, Note_on_c, 2, 65, 0
4, 33792, Note_on_c, 2, 64, 75
4, 33952, Note_on_c, 2, 64, 0
4, 33984, Note_on_c, 2, 62, 75
4, 34320, Note_on_c, 2, 62, 0
4, 34368, Note_on_c, 2, 64, 75
4, 34462, Note_on_c, 2, 64, 0
4, 34464, Note_on_c, 2, 60, 75
4, 34558, Note_on_c, 2, 60, 0
4, 34560, Note_on_c, 2, 62, 75
4, 34896, Note_on_c, 2, 62, 0
4, 34944, Note_on_c, 2, 74, 75
4, 35038, Note_on_c, 2, 74, 0
4, 35040, Note_on_c, 2, 76, 75
4, 35134, Note_on_c, 2, 76, 0
4, 35136, Note_on_c, 2, 69, 75
4, 35136, Note_on_c, 2, 77, 75
4, 35664, Note_on_c, 2, 69, 0
4, 35664, Note_on_c, 2, 77, 0
4, 35712, Note_on_c, 2, 79, 75
4, 35872, Note_on_c, 2, 79, 0
4, 35904, Note_on_c, 2, 77, 75
4, 36064, Note_on_c, 2, 77, 0
4, 36096, Note_on_c, 2, 79, 75
4, 36256, Note_on_c, 2, 79, 0
4, 36288, Note_on_c, 2, 81, 75
4, 36448, Note_on_c, 2, 81, 0
4, 36480, Note_on_c, 2, 79, 75
4, 36640, Note_on_c, 2, 79, 0
4, 36672, Note_on_c, 2, 77, 75
4, 36832, Note_on_c, 2, 77, 0
4, 36864, Note_on_c, 2, 65, 75
4, 36864, Note_on_c, 2, 74, 75
4, 37200, Note_on_c, 2, 65, 0
4, 37200, Note_on_c, 2, 74, 0
4, 37248, Note_on_c, 2, 76, 75
4, 37408, Note_on_c, 2, 76, 0
4, 37440, Note_on_c, 2, 77, 75
4, 37600, Note_on_c, 2, 77, 0
4, 37632, Note_on_c, 2, 79, 75
4, 37792, Note_on_c, 2, 79, 0
4, 37824, Note_on_c, 2, 81, 75
4, 37984, Note_on_c, 2, 81, 0
4, 38016, Note_on_c, 2, 82, 75
4, 38176, Note_on_c, 2, 82, 0
4, 38208, Note_on_c, 2, 74, 75
4, 38368, Note_on_c, 2, 74, 0
4, 38400, Note_on_c, 2, 79, 75
4, 38560, Note_on_c, 2, 79, 0
4, 38592, Note_on_c, 2, 77, 75
4, 38928, Note_on_c, 2, 77, 0
4, 38976, Note_on_c, 2, 79, 75
4, 39070, Note_on_c, 2, 79, 0
4, 39072, Note_on_c, 2, 76, 75
4, 39166, Note_on_c, 2, 76, 0
4, 39168, Note_on_c, 2, 74, 75
4, 39696, Note_on_c, 2, 74, 0
4, 39744, Note_on_c, 2, 81, 75
4, 40272, Note_on_c, 2, 81, 0
4, 40320, Note_on_c, 2, 82, 75
4, 40848, Note_on_c, 2, 82, 0
4, 40896, Note_on_c, 2, 81, 75
4, 41056, Note_on_c, 2, 81, 0
4, 41088, Note_on_c, 2, 81, 75
4, 41248, Note_on_c, 2, 81, 0
4, 41280, Note_on_c, 2, 81, 75
4, 41440, Note_on_c, 2, 81, 0
4, 41472, Note_on_c, 2, 81, 75
4, 41566, Note_on_c, 2, 81, 0
4, 41568, Note_on_c, 2, 79, 75
4, 41824, Note_on_c, 2, 79, 0
4, 42048, Note_on_c, 2, 79, 75
4, 42576, Note_on_c, 2, 79, 0
4, 42624, Note_on_c, 2, 77, 75
4, 43152, Note_on_c, 2, 77, 0
4, 43200, Note_on_c, 2, 77, 75
4, 43360, Note_on_c, 2, 77, 0
4, 43392, Note_on_c, 2, 79, 75
4, 43552, Note_on_c, 2, 79, 0
4, 43584, Note_on_c, 2, 76, 75
4, 43744, Note_on_c, 2, 76, 0
4, 43776, Note_on_c, 2, 74, 75
4, 44304, Note_on_c, 2, 74, 0
4, 44352, Note_on_c, 2, 81, 75
4, 44880, Note_on_c, 2, 81, 0
4, 44928, Note_on_c, 2, 82, 75
4, 45456, Note_on_c, 2, 82, 0
4, 45504, Note_on_c, 2, 81, 75
4, 45664, Note_on_c, 2, 81, 0
4, 45696, Note_on_c, 2, 81, 75
4, 45856, Note_on_c, 2, 81, 0
4, 45888, Note_on_c, 2, 84, 75
4, 46048, Note_on_c, 2, 84, 0
4, 46080, Note_on_c, 2, 81, 75
4, 46174, Note_on_c, 2, 81, 0
4, 46176, Note_on_c, 2, 79, 75
4, 46432, Note_on_c, 2, 79, 0
4, 46656, Note_on_c, 2, 79, 75
4, 47184, Note_on_c, 2, 79, 0
4, 47232, Note_on_c, 2, 77, 75
4, 47760, Note_on_c, 2, 77, 0
4, 47808, Note_on_c, 2, 77, 75
4, 47968, Note_on_c, 2, 77, 0
4, 48000, Note_on_c, 2, 79, 75
4, 48160, Note_on_c, 2, 79, 0
4, 48192, Note_on_c, 2, 76, 75
4, 48352, Note_on_c, 2, 76, 0
4, 48384, Note_on_c, 2, 74, 75
4, 48912, Note_on_c, 2, 74, 0
4, 48912, End_track
0, 0, End_of_file
