0, 0, Header, 1, 12, 120
1, 0, Start_track
1, 0, Title_t, "Aim To Be A Pokemon Master"
1, 0, Title_t, "The English - American Pokemon TV series theme"
1, 0, Copyright_t, "Copyright © 1998 Summit Media - 4 Kidts Entertainment"
1, 0, Text_t, "This is the familiar Pokemon themesong used at the beginning and end of each show.  \012"
1, 0, Text_t, "Even though this IS a MIDI file, please do not copy it andor distribute it for profit, due to copyrights.  I just made it because I like the show Pokemon..\012"
1, 0, Text_t, "Sequenced by:  Ash_Ketchum_Of_Pallet\012"
1, 0, Text_t, "Using Cakewalk Home Studio -Ver. 7\012"
1, 0, Time_signature, 4, 3, 12, 8
1, 0, Key_signature, 0, "major"
1, 0, Tempo, 422535
1, 0, End_track
2, 0, Start_track
2, 0, MIDI_port, 0
2, 0, Title_t, "Keyboard"
2, 0, Program_c, 0, 0
2, 0, Control_c, 0, 7, 80
2, 240, Note_on_c, 0, 67, 100
2, 240, Note_on_c, 0, 74, 100
2, 240, Note_on_c, 0, 70, 100
2, 300, Note_on_c, 0, 70, 0
2, 300, Note_on_c, 0, 74, 0
2, 300, Note_on_c, 0, 67, 0
2, 300, Note_on_c, 0, 67, 100
2, 300, Note_on_c, 0, 70, 100
2, 300, Note_on_c, 0, 74, 100
2, 360, Note_on_c, 0, 74, 0
2, 360, Note_on_c, 0, 70, 0
2, 360, Note_on_c, 0, 67, 0
2, 360, Note_on_c, 0, 70, 100
2, 360, Note_on_c, 0, 67, 100
2, 360, Note_on_c, 0, 74, 100
2, 420, Note_on_c, 0, 74, 0
2, 420, Note_on_c, 0, 67, 0
2, 420, Note_on_c, 0, 70, 0
2, 420, Note_on_c, 0, 67, 100
2, 420, Note_on_c, 0, 70, 100
2, 420, Note_on_c, 0, 74, 100
2, 480, Note_on_c, 0, 74, 0
2, 480, Note_on_c, 0, 70, 0
2, 480, Note_on_c, 0, 67, 0
2, 480, Note_on_c, 0, 67, 100
2, 480, Note_on_c, 0, 70, 100
2, 480, Note_on_c, 0, 74, 100
2, 540, Note_on_c, 0, 74, 0
2, 540, Note_on_c, 0, 70, 0
2, 540, Note_on_c, 0, 67, 0
2, 540, Note_on_c, 0, 67, 100
2, 540, Note_on_c, 0, 70, 100
2, 540, Note_on_c, 0, 74, 100
2, 600, Note_on_c, 0, 74, 0
2, 600, Note_on_c, 0, 70, 0
2, 600, Note_on_c, 0, 67, 0
2, 600, Note_on_c, 0, 67, 100
2, 600, Note_on_c, 0, 70, 100
2, 600, Note_on_c, 0, 74, 100
2, 660, Note_on_c, 0, 74, 0
2, 660, Note_on_c, 0, 70, 0
2, 660, Note_on_c, 0, 67, 0
2, 660, Note_on_c, 0, 67, 100
2, 660, Note_on_c, 0, 70, 100
2, 660, Note_on_c, 0, 74, 100
2, 720, Note_on_c, 0, 74, 0
2, 720, Note_on_c, 0, 70, 0
2, 720, Note_on_c, 0, 67, 0
2, 720, Note_on_c, 0, 65, 100
2, 720, Note_on_c, 0, 69, 100
2, 720, Note_on_c, 0, 74, 100
2, 780, Note_on_c, 0, 74, 0
2, 780, Note_on_c, 0, 69, 0
2, 780, Note_on_c, 0, 65, 0
2, 780, Note_on_c, 0, 65, 100
2, 780, Note_on_c, 0, 69, 100
2, 780, Note_on_c, 0, 74, 100
2, 840, Note_on_c, 0, 74, 0
2, 840, Note_on_c, 0, 69, 0
2, 840, Note_on_c, 0, 65, 0
2, 840, Note_on_c, 0, 65, 100
2, 840, Note_on_c, 0, 69, 100
2, 840, Note_on_c, 0, 74, 100
2, 900, Note_on_c, 0, 74, 0
2, 900, Note_on_c, 0, 69, 0
2, 900, Note_on_c, 0, 65, 0
2, 900, Note_on_c, 0, 65, 100
2, 900, Note_on_c, 0, 69, 100
2, 900, Note_on_c, 0, 74, 100
2, 960, Note_on_c, 0, 74, 0
2, 960, Note_on_c, 0, 69, 0
2, 960, Note_on_c, 0, 65, 0
2, 960, Note_on_c, 0, 65, 100
2, 960, Note_on_c, 0, 69, 100
2, 960, Note_on_c, 0, 74, 100
2, 1020, Note_on_c, 0, 74, 0
2, 1020, Note_on_c, 0, 69, 0
2, 1020, Note_on_c, 0, 65, 0
2, 1020, Note_on_c, 0, 65, 100
2, 1020, Note_on_c, 0, 69, 100
2, 1020, Note_on_c, 0, 74, 100
2, 1080, Note_on_c, 0, 74, 0
2, 1080, Note_on_c, 0, 69, 0
2, 1080, Note_on_c, 0, 65, 0
2, 1080, Note_on_c, 0, 65, 100
2, 1080, Note_on_c, 0, 69, 100
2, 1080, Note_on_c, 0, 74, 100
2, 1140, Note_on_c, 0, 74, 0
2, 1140, Note_on_c, 0, 69, 0
2, 1140, Note_on_c, 0, 65, 0
2, 1140, Note_on_c, 0, 65, 100
2, 1140, Note_on_c, 0, 69, 100
2, 1140, Note_on_c, 0, 74, 100
2, 1200, Note_on_c, 0, 74, 0
2, 1200, Note_on_c, 0, 69, 0
2, 1200, Note_on_c, 0, 65, 0
2, 1200, Note_on_c, 0, 67, 100
2, 1200, Note_on_c, 0, 74, 100
2, 1200, Note_on_c, 0, 70, 100
2, 1260, Note_on_c, 0, 70, 0
2, 1260, Note_on_c, 0, 74, 0
2, 1260, Note_on_c, 0, 67, 0
2, 1260, Note_on_c, 0, 67, 100
2, 1260, Note_on_c, 0, 70, 100
2, 1260, Note_on_c, 0, 74, 100
2, 1320, Note_on_c, 0, 74, 0
2, 1320, Note_on_c, 0, 70, 0
2, 1320, Note_on_c, 0, 67, 0
2, 1320, Note_on_c, 0, 70, 100
2, 1320, Note_on_c, 0, 67, 100
2, 1320, Note_on_c, 0, 74, 100
2, 1380, Note_on_c, 0, 74, 0
2, 1380, Note_on_c, 0, 67, 0
2, 1380, Note_on_c, 0, 70, 0
2, 1380, Note_on_c, 0, 67, 100
2, 1380, Note_on_c, 0, 70, 100
2, 1380, Note_on_c, 0, 74, 100
2, 1440, Note_on_c, 0, 74, 0
2, 1440, Note_on_c, 0, 70, 0
2, 1440, Note_on_c, 0, 67, 0
2, 1440, Note_on_c, 0, 67, 100
2, 1440, Note_on_c, 0, 70, 100
2, 1440, Note_on_c, 0, 74, 100
2, 1500, Note_on_c, 0, 74, 0
2, 1500, Note_on_c, 0, 70, 0
2, 1500, Note_on_c, 0, 67, 0
2, 1500, Note_on_c, 0, 67, 100
2, 1500, Note_on_c, 0, 70, 100
2, 1500, Note_on_c, 0, 74, 100
2, 1560, Note_on_c, 0, 74, 0
2, 1560, Note_on_c, 0, 70, 0
2, 1560, Note_on_c, 0, 67, 0
2, 1560, Note_on_c, 0, 67, 100
2, 1560, Note_on_c, 0, 70, 100
2, 1560, Note_on_c, 0, 74, 100
2, 1620, Note_on_c, 0, 74, 0
2, 1620, Note_on_c, 0, 70, 0
2, 1620, Note_on_c, 0, 67, 0
2, 1620, Note_on_c, 0, 67, 100
2, 1620, Note_on_c, 0, 70, 100
2, 1620, Note_on_c, 0, 74, 100
2, 1680, Note_on_c, 0, 74, 0
2, 1680, Note_on_c, 0, 70, 0
2, 1680, Note_on_c, 0, 67, 0
2, 1680, Note_on_c, 0, 65, 100
2, 1680, Note_on_c, 0, 69, 100
2, 1680, Note_on_c, 0, 74, 100
2, 1740, Note_on_c, 0, 74, 0
2, 1740, Note_on_c, 0, 69, 0
2, 1740, Note_on_c, 0, 65, 0
2, 1740, Note_on_c, 0, 65, 100
2, 1740, Note_on_c, 0, 69, 100
2, 1740, Note_on_c, 0, 74, 100
2, 1800, Note_on_c, 0, 74, 0
2, 1800, Note_on_c, 0, 69, 0
2, 1800, Note_on_c, 0, 65, 0
2, 1800, Note_on_c, 0, 65, 100
2, 1800, Note_on_c, 0, 69, 100
2, 1800, Note_on_c, 0, 74, 100
2, 1860, Note_on_c, 0, 74, 0
2, 1860, Note_on_c, 0, 69, 0
2, 1860, Note_on_c, 0, 65, 0
2, 1860, Note_on_c, 0, 65, 100
2, 1860, Note_on_c, 0, 69, 100
2, 1860, Note_on_c, 0, 74, 100
2, 1920, Note_on_c, 0, 74, 0
2, 1920, Note_on_c, 0, 69, 0
2, 1920, Note_on_c, 0, 65, 0
2, 1920, Note_on_c, 0, 65, 100
2, 1920, Note_on_c, 0, 69, 100
2, 1920, Note_on_c, 0, 74, 100
2, 1980, Note_on_c, 0, 74, 0
2, 1980, Note_on_c, 0, 69, 0
2, 1980, Note_on_c, 0, 65, 0
2, 1980, Note_on_c, 0, 65, 100
2, 1980, Note_on_c, 0, 69, 100
2, 1980, Note_on_c, 0, 74, 100
2, 2040, Note_on_c, 0, 74, 0
2, 2040, Note_on_c, 0, 69, 0
2, 2040, Note_on_c, 0, 65, 0
2, 2040, Note_on_c, 0, 65, 100
2, 2040, Note_on_c, 0, 69, 100
2, 2040, Note_on_c, 0, 74, 100
2, 2100, Note_on_c, 0, 74, 0
2, 2100, Note_on_c, 0, 69, 0
2, 2100, Note_on_c, 0, 65, 0
2, 2100, Note_on_c, 0, 65, 100
2, 2100, Note_on_c, 0, 69, 100
2, 2100, Note_on_c, 0, 74, 100
2, 2160, Note_on_c, 0, 74, 0
2, 2160, Note_on_c, 0, 69, 0
2, 2160, Note_on_c, 0, 65, 0
2, 2160, Note_on_c, 0, 67, 100
2, 2160, Note_on_c, 0, 74, 100
2, 2160, Note_on_c, 0, 70, 100
2, 2220, Note_on_c, 0, 70, 0
2, 2220, Note_on_c, 0, 74, 0
2, 2220, Note_on_c, 0, 67, 0
2, 2220, Note_on_c, 0, 67, 100
2, 2220, Note_on_c, 0, 70, 100
2, 2220, Note_on_c, 0, 74, 100
2, 2280, Note_on_c, 0, 74, 0
2, 2280, Note_on_c, 0, 70, 0
2, 2280, Note_on_c, 0, 67, 0
2, 2280, Note_on_c, 0, 70, 100
2, 2280, Note_on_c, 0, 67, 100
2, 2280, Note_on_c, 0, 74, 100
2, 2340, Note_on_c, 0, 74, 0
2, 2340, Note_on_c, 0, 67, 0
2, 2340, Note_on_c, 0, 70, 0
2, 2340, Note_on_c, 0, 67, 100
2, 2340, Note_on_c, 0, 70, 100
2, 2340, Note_on_c, 0, 74, 100
2, 2400, Note_on_c, 0, 74, 0
2, 2400, Note_on_c, 0, 70, 0
2, 2400, Note_on_c, 0, 67, 0
2, 2400, Note_on_c, 0, 67, 100
2, 2400, Note_on_c, 0, 70, 100
2, 2400, Note_on_c, 0, 74, 100
2, 2460, Note_on_c, 0, 74, 0
2, 2460, Note_on_c, 0, 70, 0
2, 2460, Note_on_c, 0, 67, 0
2, 2460, Note_on_c, 0, 67, 100
2, 2460, Note_on_c, 0, 70, 100
2, 2460, Note_on_c, 0, 74, 100
2, 2520, Note_on_c, 0, 74, 0
2, 2520, Note_on_c, 0, 70, 0
2, 2520, Note_on_c, 0, 67, 0
2, 2520, Note_on_c, 0, 67, 100
2, 2520, Note_on_c, 0, 70, 100
2, 2520, Note_on_c, 0, 74, 100
2, 2580, Note_on_c, 0, 74, 0
2, 2580, Note_on_c, 0, 70, 0
2, 2580, Note_on_c, 0, 67, 0
2, 2580, Note_on_c, 0, 67, 100
2, 2580, Note_on_c, 0, 70, 100
2, 2580, Note_on_c, 0, 74, 100
2, 2640, Note_on_c, 0, 74, 0
2, 2640, Note_on_c, 0, 70, 0
2, 2640, Note_on_c, 0, 67, 0
2, 2640, Note_on_c, 0, 65, 100
2, 2640, Note_on_c, 0, 69, 100
2, 2640, Note_on_c, 0, 74, 100
2, 2700, Note_on_c, 0, 74, 0
2, 2700, Note_on_c, 0, 69, 0
2, 2700, Note_on_c, 0, 65, 0
2, 2700, Note_on_c, 0, 65, 100
2, 2700, Note_on_c, 0, 69, 100
2, 2700, Note_on_c, 0, 74, 100
2, 2760, Note_on_c, 0, 74, 0
2, 2760, Note_on_c, 0, 69, 0
2, 2760, Note_on_c, 0, 65, 0
2, 2760, Note_on_c, 0, 65, 100
2, 2760, Note_on_c, 0, 69, 100
2, 2760, Note_on_c, 0, 74, 100
2, 2820, Note_on_c, 0, 74, 0
2, 2820, Note_on_c, 0, 69, 0
2, 2820, Note_on_c, 0, 65, 0
2, 2820, Note_on_c, 0, 65, 100
2, 2820, Note_on_c, 0, 69, 100
2, 2820, Note_on_c, 0, 74, 100
2, 2880, Note_on_c, 0, 74, 0
2, 2880, Note_on_c, 0, 69, 0
2, 2880, Note_on_c, 0, 65, 0
2, 2880, Note_on_c, 0, 65, 100
2, 2880, Note_on_c, 0, 69, 100
2, 2880, Note_on_c, 0, 74, 100
2, 2940, Note_on_c, 0, 74, 0
2, 2940, Note_on_c, 0, 69, 0
2, 2940, Note_on_c, 0, 65, 0
2, 2940, Note_on_c, 0, 65, 100
2, 2940, Note_on_c, 0, 69, 100
2, 2940, Note_on_c, 0, 74, 100
2, 3000, Note_on_c, 0, 74, 0
2, 3000, Note_on_c, 0, 69, 0
2, 3000, Note_on_c, 0, 65, 0
2, 3000, Note_on_c, 0, 65, 100
2, 3000, Note_on_c, 0, 69, 100
2, 3000, Note_on_c, 0, 74, 100
2, 3060, Note_on_c, 0, 74, 0
2, 3060, Note_on_c, 0, 69, 0
2, 3060, Note_on_c, 0, 65, 0
2, 3060, Note_on_c, 0, 65, 100
2, 3060, Note_on_c, 0, 69, 100
2, 3060, Note_on_c, 0, 74, 100
2, 3120, Note_on_c, 0, 74, 0
2, 3120, Note_on_c, 0, 69, 0
2, 3120, Note_on_c, 0, 65, 0
2, 3120, Note_on_c, 0, 67, 100
2, 3120, Note_on_c, 0, 75, 100
2, 3120, Note_on_c, 0, 70, 100
2, 3180, Note_on_c, 0, 70, 0
2, 3180, Note_on_c, 0, 75, 0
2, 3180, Note_on_c, 0, 67, 0
2, 3180, Note_on_c, 0, 67, 100
2, 3180, Note_on_c, 0, 70, 100
2, 3180, Note_on_c, 0, 75, 100
2, 3240, Note_on_c, 0, 75, 0
2, 3240, Note_on_c, 0, 70, 0
2, 3240, Note_on_c, 0, 67, 0
2, 3240, Note_on_c, 0, 70, 100
2, 3240, Note_on_c, 0, 67, 100
2, 3240, Note_on_c, 0, 75, 100
2, 3300, Note_on_c, 0, 75, 0
2, 3300, Note_on_c, 0, 67, 0
2, 3300, Note_on_c, 0, 70, 0
2, 3300, Note_on_c, 0, 67, 100
2, 3300, Note_on_c, 0, 70, 100
2, 3300, Note_on_c, 0, 75, 100
2, 3360, Note_on_c, 0, 75, 0
2, 3360, Note_on_c, 0, 70, 0
2, 3360, Note_on_c, 0, 67, 0
2, 3360, Note_on_c, 0, 67, 100
2, 3360, Note_on_c, 0, 70, 100
2, 3360, Note_on_c, 0, 75, 100
2, 3420, Note_on_c, 0, 75, 0
2, 3420, Note_on_c, 0, 70, 0
2, 3420, Note_on_c, 0, 67, 0
2, 3420, Note_on_c, 0, 67, 100
2, 3420, Note_on_c, 0, 70, 100
2, 3420, Note_on_c, 0, 75, 100
2, 3480, Note_on_c, 0, 75, 0
2, 3480, Note_on_c, 0, 70, 0
2, 3480, Note_on_c, 0, 67, 0
2, 3480, Note_on_c, 0, 67, 100
2, 3480, Note_on_c, 0, 70, 100
2, 3480, Note_on_c, 0, 75, 100
2, 3540, Note_on_c, 0, 75, 0
2, 3540, Note_on_c, 0, 70, 0
2, 3540, Note_on_c, 0, 67, 0
2, 3540, Note_on_c, 0, 67, 100
2, 3540, Note_on_c, 0, 70, 100
2, 3540, Note_on_c, 0, 75, 100
2, 3600, Note_on_c, 0, 75, 0
2, 3600, Note_on_c, 0, 70, 0
2, 3600, Note_on_c, 0, 67, 0
2, 3600, Note_on_c, 0, 65, 100
2, 3600, Note_on_c, 0, 70, 100
2, 3600, Note_on_c, 0, 74, 100
2, 3660, Note_on_c, 0, 74, 0
2, 3660, Note_on_c, 0, 70, 0
2, 3660, Note_on_c, 0, 65, 0
2, 3660, Note_on_c, 0, 65, 100
2, 3660, Note_on_c, 0, 70, 100
2, 3660, Note_on_c, 0, 74, 100
2, 3720, Note_on_c, 0, 74, 0
2, 3720, Note_on_c, 0, 70, 0
2, 3720, Note_on_c, 0, 65, 0
2, 3720, Note_on_c, 0, 65, 100
2, 3720, Note_on_c, 0, 70, 100
2, 3720, Note_on_c, 0, 74, 100
2, 3780, Note_on_c, 0, 74, 0
2, 3780, Note_on_c, 0, 70, 0
2, 3780, Note_on_c, 0, 65, 0
2, 3780, Note_on_c, 0, 65, 100
2, 3780, Note_on_c, 0, 70, 100
2, 3780, Note_on_c, 0, 74, 100
2, 3840, Note_on_c, 0, 74, 0
2, 3840, Note_on_c, 0, 70, 0
2, 3840, Note_on_c, 0, 65, 0
2, 3840, Note_on_c, 0, 65, 100
2, 3840, Note_on_c, 0, 70, 100
2, 3840, Note_on_c, 0, 74, 100
2, 3900, Note_on_c, 0, 74, 0
2, 3900, Note_on_c, 0, 70, 0
2, 3900, Note_on_c, 0, 65, 0
2, 3900, Note_on_c, 0, 65, 100
2, 3900, Note_on_c, 0, 70, 100
2, 3900, Note_on_c, 0, 74, 100
2, 3960, Note_on_c, 0, 74, 0
2, 3960, Note_on_c, 0, 70, 0
2, 3960, Note_on_c, 0, 65, 0
2, 3960, Note_on_c, 0, 65, 100
2, 3960, Note_on_c, 0, 70, 100
2, 3960, Note_on_c, 0, 74, 100
2, 4020, Note_on_c, 0, 74, 0
2, 4020, Note_on_c, 0, 70, 0
2, 4020, Note_on_c, 0, 65, 0
2, 4020, Note_on_c, 0, 65, 100
2, 4020, Note_on_c, 0, 70, 100
2, 4020, Note_on_c, 0, 74, 100
2, 4080, Note_on_c, 0, 74, 0
2, 4080, Note_on_c, 0, 70, 0
2, 4080, Note_on_c, 0, 65, 0
2, 4080, Note_on_c, 0, 65, 100
2, 4080, Note_on_c, 0, 70, 100
2, 4080, Note_on_c, 0, 74, 100
2, 4140, Note_on_c, 0, 74, 0
2, 4140, Note_on_c, 0, 70, 0
2, 4140, Note_on_c, 0, 65, 0
2, 4140, Note_on_c, 0, 65, 100
2, 4140, Note_on_c, 0, 70, 100
2, 4140, Note_on_c, 0, 74, 100
2, 4200, Note_on_c, 0, 74, 0
2, 4200, Note_on_c, 0, 70, 0
2, 4200, Note_on_c, 0, 65, 0
2, 4200, Note_on_c, 0, 65, 100
2, 4200, Note_on_c, 0, 70, 100
2, 4200, Note_on_c, 0, 74, 100
2, 4260, Note_on_c, 0, 74, 0
2, 4260, Note_on_c, 0, 70, 0
2, 4260, Note_on_c, 0, 65, 0
2, 4260, Note_on_c, 0, 67, 100
2, 4260, Note_on_c, 0, 72, 100
2, 4260, Note_on_c, 0, 74, 100
2, 4320, Note_on_c, 0, 74, 0
2, 4320, Note_on_c, 0, 72, 0
2, 4320, Note_on_c, 0, 67, 0
2, 4320, Note_on_c, 0, 67, 100
2, 4320, Note_on_c, 0, 72, 100
2, 4320, Note_on_c, 0, 74, 100
2, 4380, Note_on_c, 0, 74, 0
2, 4380, Note_on_c, 0, 72, 0
2, 4380, Note_on_c, 0, 67, 0
2, 4380, Note_on_c, 0, 67, 100
2, 4380, Note_on_c, 0, 72, 100
2, 4380, Note_on_c, 0, 74, 100
2, 4440, Note_on_c, 0, 74, 0
2, 4440, Note_on_c, 0, 72, 0
2, 4440, Note_on_c, 0, 67, 0
2, 4440, Note_on_c, 0, 74, 100
2, 4440, Note_on_c, 0, 65, 100
2, 4440, Note_on_c, 0, 69, 100
2, 4500, Note_on_c, 0, 69, 0
2, 4500, Note_on_c, 0, 65, 0
2, 4500, Note_on_c, 0, 74, 0
2, 4500, Note_on_c, 0, 69, 100
2, 4500, Note_on_c, 0, 74, 100
2, 4500, Note_on_c, 0, 65, 100
2, 4560, Note_on_c, 0, 65, 0
2, 4560, Note_on_c, 0, 74, 0
2, 4560, Note_on_c, 0, 69, 0
2, 4560, Note_on_c, 0, 65, 100
2, 4560, Note_on_c, 0, 69, 100
2, 4560, Note_on_c, 0, 74, 100
2, 4620, Note_on_c, 0, 74, 0
2, 4620, Note_on_c, 0, 69, 0
2, 4620, Note_on_c, 0, 65, 0
2, 4620, Note_on_c, 0, 65, 100
2, 4620, Note_on_c, 0, 69, 100
2, 4620, Note_on_c, 0, 74, 100
2, 4680, Note_on_c, 0, 74, 0
2, 4680, Note_on_c, 0, 69, 0
2, 4680, Note_on_c, 0, 65, 0
2, 4680, Note_on_c, 0, 65, 100
2, 4680, Note_on_c, 0, 69, 100
2, 4680, Note_on_c, 0, 74, 100
2, 4740, Note_on_c, 0, 74, 0
2, 4740, Note_on_c, 0, 69, 0
2, 4740, Note_on_c, 0, 65, 0
2, 4740, Note_on_c, 0, 65, 100
2, 4740, Note_on_c, 0, 69, 100
2, 4740, Note_on_c, 0, 74, 100
2, 4800, Note_on_c, 0, 74, 0
2, 4800, Note_on_c, 0, 69, 0
2, 4800, Note_on_c, 0, 65, 0
2, 4800, Note_on_c, 0, 65, 100
2, 4800, Note_on_c, 0, 69, 100
2, 4800, Note_on_c, 0, 74, 100
2, 4860, Note_on_c, 0, 74, 0
2, 4860, Note_on_c, 0, 69, 0
2, 4860, Note_on_c, 0, 65, 0
2, 4860, Note_on_c, 0, 65, 100
2, 4860, Note_on_c, 0, 69, 100
2, 4860, Note_on_c, 0, 74, 100
2, 4920, Note_on_c, 0, 74, 0
2, 4920, Note_on_c, 0, 69, 0
2, 4920, Note_on_c, 0, 65, 0
2, 4920, Note_on_c, 0, 65, 100
2, 4920, Note_on_c, 0, 69, 100
2, 4920, Note_on_c, 0, 74, 100
2, 4980, Note_on_c, 0, 74, 0
2, 4980, Note_on_c, 0, 69, 0
2, 4980, Note_on_c, 0, 65, 0
2, 4980, Note_on_c, 0, 65, 100
2, 4980, Note_on_c, 0, 69, 100
2, 4980, Note_on_c, 0, 74, 100
2, 5040, Note_on_c, 0, 74, 0
2, 5040, Note_on_c, 0, 69, 0
2, 5040, Note_on_c, 0, 65, 0
2, 5040, Note_on_c, 0, 67, 100
2, 5040, Note_on_c, 0, 74, 100
2, 5040, Note_on_c, 0, 70, 100
2, 5100, Note_on_c, 0, 70, 0
2, 5100, Note_on_c, 0, 74, 0
2, 5100, Note_on_c, 0, 67, 0
2, 5100, Note_on_c, 0, 67, 100
2, 5100, Note_on_c, 0, 70, 100
2, 5100, Note_on_c, 0, 74, 100
2, 5160, Note_on_c, 0, 74, 0
2, 5160, Note_on_c, 0, 70, 0
2, 5160, Note_on_c, 0, 67, 0
2, 5160, Note_on_c, 0, 70, 100
2, 5160, Note_on_c, 0, 67, 100
2, 5160, Note_on_c, 0, 74, 100
2, 5220, Note_on_c, 0, 74, 0
2, 5220, Note_on_c, 0, 67, 0
2, 5220, Note_on_c, 0, 70, 0
2, 5220, Note_on_c, 0, 67, 100
2, 5220, Note_on_c, 0, 70, 100
2, 5220, Note_on_c, 0, 74, 100
2, 5280, Note_on_c, 0, 74, 0
2, 5280, Note_on_c, 0, 70, 0
2, 5280, Note_on_c, 0, 67, 0
2, 5280, Note_on_c, 0, 67, 100
2, 5280, Note_on_c, 0, 70, 100
2, 5280, Note_on_c, 0, 74, 100
2, 5340, Note_on_c, 0, 74, 0
2, 5340, Note_on_c, 0, 70, 0
2, 5340, Note_on_c, 0, 67, 0
2, 5340, Note_on_c, 0, 67, 100
2, 5340, Note_on_c, 0, 70, 100
2, 5340, Note_on_c, 0, 74, 100
2, 5400, Note_on_c, 0, 74, 0
2, 5400, Note_on_c, 0, 70, 0
2, 5400, Note_on_c, 0, 67, 0
2, 5400, Note_on_c, 0, 67, 100
2, 5400, Note_on_c, 0, 70, 100
2, 5400, Note_on_c, 0, 74, 100
2, 5460, Note_on_c, 0, 74, 0
2, 5460, Note_on_c, 0, 70, 0
2, 5460, Note_on_c, 0, 67, 0
2, 5460, Note_on_c, 0, 67, 100
2, 5460, Note_on_c, 0, 70, 100
2, 5460, Note_on_c, 0, 74, 100
2, 5520, Note_on_c, 0, 74, 0
2, 5520, Note_on_c, 0, 70, 0
2, 5520, Note_on_c, 0, 67, 0
2, 5520, Note_on_c, 0, 65, 100
2, 5520, Note_on_c, 0, 69, 100
2, 5520, Note_on_c, 0, 74, 100
2, 5580, Note_on_c, 0, 74, 0
2, 5580, Note_on_c, 0, 69, 0
2, 5580, Note_on_c, 0, 65, 0
2, 5580, Note_on_c, 0, 65, 100
2, 5580, Note_on_c, 0, 69, 100
2, 5580, Note_on_c, 0, 74, 100
2, 5640, Note_on_c, 0, 74, 0
2, 5640, Note_on_c, 0, 69, 0
2, 5640, Note_on_c, 0, 65, 0
2, 5640, Note_on_c, 0, 65, 100
2, 5640, Note_on_c, 0, 69, 100
2, 5640, Note_on_c, 0, 74, 100
2, 5700, Note_on_c, 0, 74, 0
2, 5700, Note_on_c, 0, 69, 0
2, 5700, Note_on_c, 0, 65, 0
2, 5700, Note_on_c, 0, 65, 100
2, 5700, Note_on_c, 0, 69, 100
2, 5700, Note_on_c, 0, 74, 100
2, 5760, Note_on_c, 0, 74, 0
2, 5760, Note_on_c, 0, 69, 0
2, 5760, Note_on_c, 0, 65, 0
2, 5760, Note_on_c, 0, 65, 100
2, 5760, Note_on_c, 0, 69, 100
2, 5760, Note_on_c, 0, 74, 100
2, 5820, Note_on_c, 0, 74, 0
2, 5820, Note_on_c, 0, 69, 0
2, 5820, Note_on_c, 0, 65, 0
2, 5820, Note_on_c, 0, 65, 100
2, 5820, Note_on_c, 0, 69, 100
2, 5820, Note_on_c, 0, 74, 100
2, 5880, Note_on_c, 0, 74, 0
2, 5880, Note_on_c, 0, 69, 0
2, 5880, Note_on_c, 0, 65, 0
2, 5880, Note_on_c, 0, 65, 100
2, 5880, Note_on_c, 0, 69, 100
2, 5880, Note_on_c, 0, 74, 100
2, 5940, Note_on_c, 0, 74, 0
2, 5940, Note_on_c, 0, 69, 0
2, 5940, Note_on_c, 0, 65, 0
2, 5940, Note_on_c, 0, 65, 100
2, 5940, Note_on_c, 0, 69, 100
2, 5940, Note_on_c, 0, 74, 100
2, 6000, Note_on_c, 0, 74, 0
2, 6000, Note_on_c, 0, 69, 0
2, 6000, Note_on_c, 0, 65, 0
2, 6000, Note_on_c, 0, 67, 100
2, 6000, Note_on_c, 0, 74, 100
2, 6000, Note_on_c, 0, 70, 100
2, 6060, Note_on_c, 0, 70, 0
2, 6060, Note_on_c, 0, 74, 0
2, 6060, Note_on_c, 0, 67, 0
2, 6060, Note_on_c, 0, 67, 100
2, 6060, Note_on_c, 0, 70, 100
2, 6060, Note_on_c, 0, 74, 100
2, 6120, Note_on_c, 0, 74, 0
2, 6120, Note_on_c, 0, 70, 0
2, 6120, Note_on_c, 0, 67, 0
2, 6120, Note_on_c, 0, 70, 100
2, 6120, Note_on_c, 0, 67, 100
2, 6120, Note_on_c, 0, 74, 100
2, 6180, Note_on_c, 0, 74, 0
2, 6180, Note_on_c, 0, 67, 0
2, 6180, Note_on_c, 0, 70, 0
2, 6180, Note_on_c, 0, 67, 100
2, 6180, Note_on_c, 0, 70, 100
2, 6180, Note_on_c, 0, 74, 100
2, 6240, Note_on_c, 0, 74, 0
2, 6240, Note_on_c, 0, 70, 0
2, 6240, Note_on_c, 0, 67, 0
2, 6240, Note_on_c, 0, 67, 100
2, 6240, Note_on_c, 0, 70, 100
2, 6240, Note_on_c, 0, 74, 100
2, 6300, Note_on_c, 0, 74, 0
2, 6300, Note_on_c, 0, 70, 0
2, 6300, Note_on_c, 0, 67, 0
2, 6300, Note_on_c, 0, 67, 100
2, 6300, Note_on_c, 0, 70, 100
2, 6300, Note_on_c, 0, 74, 100
2, 6360, Note_on_c, 0, 74, 0
2, 6360, Note_on_c, 0, 70, 0
2, 6360, Note_on_c, 0, 67, 0
2, 6360, Note_on_c, 0, 67, 100
2, 6360, Note_on_c, 0, 70, 100
2, 6360, Note_on_c, 0, 74, 100
2, 6420, Note_on_c, 0, 74, 0
2, 6420, Note_on_c, 0, 70, 0
2, 6420, Note_on_c, 0, 67, 0
2, 6420, Note_on_c, 0, 67, 100
2, 6420, Note_on_c, 0, 70, 100
2, 6420, Note_on_c, 0, 74, 100
2, 6480, Note_on_c, 0, 74, 0
2, 6480, Note_on_c, 0, 70, 0
2, 6480, Note_on_c, 0, 67, 0
2, 6480, Note_on_c, 0, 65, 100
2, 6480, Note_on_c, 0, 69, 100
2, 6480, Note_on_c, 0, 74, 100
2, 6540, Note_on_c, 0, 74, 0
2, 6540, Note_on_c, 0, 69, 0
2, 6540, Note_on_c, 0, 65, 0
2, 6540, Note_on_c, 0, 65, 100
2, 6540, Note_on_c, 0, 69, 100
2, 6540, Note_on_c, 0, 74, 100
2, 6600, Note_on_c, 0, 74, 0
2, 6600, Note_on_c, 0, 69, 0
2, 6600, Note_on_c, 0, 65, 0
2, 6600, Note_on_c, 0, 65, 100
2, 6600, Note_on_c, 0, 69, 100
2, 6600, Note_on_c, 0, 74, 100
2, 6660, Note_on_c, 0, 74, 0
2, 6660, Note_on_c, 0, 69, 0
2, 6660, Note_on_c, 0, 65, 0
2, 6660, Note_on_c, 0, 65, 100
2, 6660, Note_on_c, 0, 69, 100
2, 6660, Note_on_c, 0, 74, 100
2, 6720, Note_on_c, 0, 74, 0
2, 6720, Note_on_c, 0, 69, 0
2, 6720, Note_on_c, 0, 65, 0
2, 6720, Note_on_c, 0, 65, 100
2, 6720, Note_on_c, 0, 69, 100
2, 6720, Note_on_c, 0, 74, 100
2, 6780, Note_on_c, 0, 74, 0
2, 6780, Note_on_c, 0, 69, 0
2, 6780, Note_on_c, 0, 65, 0
2, 6780, Note_on_c, 0, 65, 100
2, 6780, Note_on_c, 0, 69, 100
2, 6780, Note_on_c, 0, 74, 100
2, 6840, Note_on_c, 0, 74, 0
2, 6840, Note_on_c, 0, 69, 0
2, 6840, Note_on_c, 0, 65, 0
2, 6840, Note_on_c, 0, 65, 100
2, 6840, Note_on_c, 0, 69, 100
2, 6840, Note_on_c, 0, 74, 100
2, 6900, Note_on_c, 0, 74, 0
2, 6900, Note_on_c, 0, 69, 0
2, 6900, Note_on_c, 0, 65, 0
2, 6900, Note_on_c, 0, 65, 100
2, 6900, Note_on_c, 0, 69, 100
2, 6900, Note_on_c, 0, 74, 100
2, 6960, Note_on_c, 0, 74, 0
2, 6960, Note_on_c, 0, 69, 0
2, 6960, Note_on_c, 0, 65, 0
2, 6960, Note_on_c, 0, 67, 100
2, 6960, Note_on_c, 0, 75, 100
2, 6960, Note_on_c, 0, 70, 100
2, 7020, Note_on_c, 0, 70, 0
2, 7020, Note_on_c, 0, 75, 0
2, 7020, Note_on_c, 0, 67, 0
2, 7020, Note_on_c, 0, 67, 100
2, 7020, Note_on_c, 0, 70, 100
2, 7020, Note_on_c, 0, 75, 100
2, 7080, Note_on_c, 0, 75, 0
2, 7080, Note_on_c, 0, 70, 0
2, 7080, Note_on_c, 0, 67, 0
2, 7080, Note_on_c, 0, 70, 100
2, 7080, Note_on_c, 0, 67, 100
2, 7080, Note_on_c, 0, 75, 100
2, 7140, Note_on_c, 0, 75, 0
2, 7140, Note_on_c, 0, 67, 0
2, 7140, Note_on_c, 0, 70, 0
2, 7140, Note_on_c, 0, 67, 100
2, 7140, Note_on_c, 0, 70, 100
2, 7140, Note_on_c, 0, 75, 100
2, 7200, Note_on_c, 0, 75, 0
2, 7200, Note_on_c, 0, 70, 0
2, 7200, Note_on_c, 0, 67, 0
2, 7200, Note_on_c, 0, 67, 100
2, 7200, Note_on_c, 0, 70, 100
2, 7200, Note_on_c, 0, 75, 100
2, 7260, Note_on_c, 0, 75, 0
2, 7260, Note_on_c, 0, 70, 0
2, 7260, Note_on_c, 0, 67, 0
2, 7260, Note_on_c, 0, 67, 100
2, 7260, Note_on_c, 0, 70, 100
2, 7260, Note_on_c, 0, 75, 100
2, 7320, Note_on_c, 0, 75, 0
2, 7320, Note_on_c, 0, 70, 0
2, 7320, Note_on_c, 0, 67, 0
2, 7320, Note_on_c, 0, 67, 100
2, 7320, Note_on_c, 0, 70, 100
2, 7320, Note_on_c, 0, 75, 100
2, 7380, Note_on_c, 0, 75, 0
2, 7380, Note_on_c, 0, 70, 0
2, 7380, Note_on_c, 0, 67, 0
2, 7380, Note_on_c, 0, 67, 100
2, 7380, Note_on_c, 0, 70, 100
2, 7380, Note_on_c, 0, 75, 100
2, 7440, Note_on_c, 0, 75, 0
2, 7440, Note_on_c, 0, 70, 0
2, 7440, Note_on_c, 0, 67, 0
2, 7440, Note_on_c, 0, 65, 100
2, 7440, Note_on_c, 0, 70, 100
2, 7440, Note_on_c, 0, 74, 100
2, 7500, Note_on_c, 0, 74, 0
2, 7500, Note_on_c, 0, 70, 0
2, 7500, Note_on_c, 0, 65, 0
2, 7500, Note_on_c, 0, 65, 100
2, 7500, Note_on_c, 0, 70, 100
2, 7500, Note_on_c, 0, 74, 100
2, 7560, Note_on_c, 0, 74, 0
2, 7560, Note_on_c, 0, 70, 0
2, 7560, Note_on_c, 0, 65, 0
2, 7560, Note_on_c, 0, 65, 100
2, 7560, Note_on_c, 0, 70, 100
2, 7560, Note_on_c, 0, 74, 100
2, 7620, Note_on_c, 0, 74, 0
2, 7620, Note_on_c, 0, 70, 0
2, 7620, Note_on_c, 0, 65, 0
2, 7620, Note_on_c, 0, 65, 100
2, 7620, Note_on_c, 0, 70, 100
2, 7620, Note_on_c, 0, 74, 100
2, 7680, Note_on_c, 0, 74, 0
2, 7680, Note_on_c, 0, 70, 0
2, 7680, Note_on_c, 0, 65, 0
2, 7680, Note_on_c, 0, 65, 100
2, 7680, Note_on_c, 0, 70, 100
2, 7680, Note_on_c, 0, 74, 100
2, 7740, Note_on_c, 0, 74, 0
2, 7740, Note_on_c, 0, 70, 0
2, 7740, Note_on_c, 0, 65, 0
2, 7740, Note_on_c, 0, 65, 100
2, 7740, Note_on_c, 0, 70, 100
2, 7740, Note_on_c, 0, 74, 100
2, 7800, Note_on_c, 0, 74, 0
2, 7800, Note_on_c, 0, 70, 0
2, 7800, Note_on_c, 0, 65, 0
2, 7800, Note_on_c, 0, 65, 100
2, 7800, Note_on_c, 0, 70, 100
2, 7800, Note_on_c, 0, 74, 100
2, 7860, Note_on_c, 0, 74, 0
2, 7860, Note_on_c, 0, 70, 0
2, 7860, Note_on_c, 0, 65, 0
2, 7860, Note_on_c, 0, 65, 100
2, 7860, Note_on_c, 0, 70, 100
2, 7860, Note_on_c, 0, 74, 100
2, 7920, Note_on_c, 0, 74, 0
2, 7920, Note_on_c, 0, 70, 0
2, 7920, Note_on_c, 0, 65, 0
2, 7920, Note_on_c, 0, 65, 100
2, 7920, Note_on_c, 0, 70, 100
2, 7920, Note_on_c, 0, 74, 100
2, 7980, Note_on_c, 0, 74, 0
2, 7980, Note_on_c, 0, 70, 0
2, 7980, Note_on_c, 0, 65, 0
2, 7980, Note_on_c, 0, 65, 100
2, 7980, Note_on_c, 0, 70, 100
2, 7980, Note_on_c, 0, 74, 100
2, 8040, Note_on_c, 0, 74, 0
2, 8040, Note_on_c, 0, 70, 0
2, 8040, Note_on_c, 0, 65, 0
2, 8040, Note_on_c, 0, 65, 100
2, 8040, Note_on_c, 0, 70, 100
2, 8040, Note_on_c, 0, 74, 100
2, 8100, Note_on_c, 0, 74, 0
2, 8100, Note_on_c, 0, 70, 0
2, 8100, Note_on_c, 0, 65, 0
2, 8100, Note_on_c, 0, 67, 100
2, 8100, Note_on_c, 0, 72, 100
2, 8100, Note_on_c, 0, 74, 100
2, 8160, Note_on_c, 0, 74, 0
2, 8160, Note_on_c, 0, 72, 0
2, 8160, Note_on_c, 0, 67, 0
2, 8160, Note_on_c, 0, 67, 100
2, 8160, Note_on_c, 0, 72, 100
2, 8160, Note_on_c, 0, 74, 100
2, 8220, Note_on_c, 0, 74, 0
2, 8220, Note_on_c, 0, 72, 0
2, 8220, Note_on_c, 0, 67, 0
2, 8220, Note_on_c, 0, 67, 100
2, 8220, Note_on_c, 0, 72, 100
2, 8220, Note_on_c, 0, 74, 100
2, 8280, Note_on_c, 0, 74, 0
2, 8280, Note_on_c, 0, 72, 0
2, 8280, Note_on_c, 0, 67, 0
2, 8280, Note_on_c, 0, 74, 100
2, 8280, Note_on_c, 0, 65, 100
2, 8280, Note_on_c, 0, 69, 100
2, 8340, Note_on_c, 0, 69, 0
2, 8340, Note_on_c, 0, 65, 0
2, 8340, Note_on_c, 0, 74, 0
2, 8340, Note_on_c, 0, 69, 100
2, 8340, Note_on_c, 0, 74, 100
2, 8340, Note_on_c, 0, 65, 100
2, 8400, Note_on_c, 0, 65, 0
2, 8400, Note_on_c, 0, 74, 0
2, 8400, Note_on_c, 0, 69, 0
2, 8400, Note_on_c, 0, 65, 100
2, 8400, Note_on_c, 0, 69, 100
2, 8400, Note_on_c, 0, 74, 100
2, 8460, Note_on_c, 0, 74, 0
2, 8460, Note_on_c, 0, 69, 0
2, 8460, Note_on_c, 0, 65, 0
2, 8460, Note_on_c, 0, 65, 100
2, 8460, Note_on_c, 0, 69, 100
2, 8460, Note_on_c, 0, 74, 100
2, 8520, Note_on_c, 0, 74, 0
2, 8520, Note_on_c, 0, 69, 0
2, 8520, Note_on_c, 0, 65, 0
2, 8520, Note_on_c, 0, 65, 100
2, 8520, Note_on_c, 0, 69, 100
2, 8520, Note_on_c, 0, 74, 100
2, 8580, Note_on_c, 0, 74, 0
2, 8580, Note_on_c, 0, 69, 0
2, 8580, Note_on_c, 0, 65, 0
2, 8580, Note_on_c, 0, 65, 100
2, 8580, Note_on_c, 0, 69, 100
2, 8580, Note_on_c, 0, 74, 100
2, 8640, Note_on_c, 0, 74, 0
2, 8640, Note_on_c, 0, 69, 0
2, 8640, Note_on_c, 0, 65, 0
2, 8640, Note_on_c, 0, 65, 100
2, 8640, Note_on_c, 0, 69, 100
2, 8640, Note_on_c, 0, 74, 100
2, 8700, Note_on_c, 0, 74, 0
2, 8700, Note_on_c, 0, 69, 0
2, 8700, Note_on_c, 0, 65, 0
2, 8700, Note_on_c, 0, 65, 100
2, 8700, Note_on_c, 0, 69, 100
2, 8700, Note_on_c, 0, 74, 100
2, 8760, Note_on_c, 0, 74, 0
2, 8760, Note_on_c, 0, 69, 0
2, 8760, Note_on_c, 0, 65, 0
2, 8760, Note_on_c, 0, 65, 100
2, 8760, Note_on_c, 0, 69, 100
2, 8760, Note_on_c, 0, 74, 100
2, 8820, Note_on_c, 0, 74, 0
2, 8820, Note_on_c, 0, 69, 0
2, 8820, Note_on_c, 0, 65, 0
2, 8820, Note_on_c, 0, 65, 100
2, 8820, Note_on_c, 0, 69, 100
2, 8820, Note_on_c, 0, 74, 100
2, 8880, Note_on_c, 0, 74, 0
2, 8880, Note_on_c, 0, 69, 0
2, 8880, Note_on_c, 0, 65, 0
2, 8880, Note_on_c, 0, 58, 100
2, 8880, Note_on_c, 0, 63, 100
2, 9000, Note_on_c, 0, 63, 0
2, 9000, Note_on_c, 0, 58, 0
2, 9000, Note_on_c, 0, 58, 100
2, 9060, Note_on_c, 0, 58, 0
2, 9060, Note_on_c, 0, 58, 100
2, 9060, Note_on_c, 0, 63, 100
2, 9180, Note_on_c, 0, 63, 0
2, 9180, Note_on_c, 0, 58, 0
2, 9180, Note_on_c, 0, 58, 100
2, 9180, Note_on_c, 0, 63, 100
2, 9240, Note_on_c, 0, 58, 0
2, 9240, Note_on_c, 0, 58, 100
2, 9300, Note_on_c, 0, 63, 0
2, 9360, Note_on_c, 0, 58, 0
2, 9360, Note_on_c, 0, 58, 100
2, 9360, Note_on_c, 0, 62, 100
2, 9480, Note_on_c, 0, 62, 0
2, 9480, Note_on_c, 0, 58, 0
2, 9480, Note_on_c, 0, 58, 100
2, 9540, Note_on_c, 0, 58, 0
2, 9540, Note_on_c, 0, 58, 100
2, 9540, Note_on_c, 0, 62, 100
2, 9660, Note_on_c, 0, 62, 0
2, 9660, Note_on_c, 0, 58, 0
2, 9660, Note_on_c, 0, 58, 100
2, 9660, Note_on_c, 0, 62, 100
2, 9720, Note_on_c, 0, 58, 0
2, 9720, Note_on_c, 0, 58, 100
2, 9780, Note_on_c, 0, 62, 0
2, 9840, Note_on_c, 0, 58, 0
2, 9840, Note_on_c, 0, 58, 100
2, 9840, Note_on_c, 0, 63, 100
2, 9960, Note_on_c, 0, 63, 0
2, 9960, Note_on_c, 0, 58, 0
2, 9960, Note_on_c, 0, 58, 100
2, 10020, Note_on_c, 0, 58, 0
2, 10020, Note_on_c, 0, 58, 100
2, 10020, Note_on_c, 0, 63, 100
2, 10140, Note_on_c, 0, 63, 0
2, 10140, Note_on_c, 0, 58, 0
2, 10140, Note_on_c, 0, 58, 100
2, 10140, Note_on_c, 0, 63, 100
2, 10200, Note_on_c, 0, 58, 0
2, 10200, Note_on_c, 0, 58, 100
2, 10260, Note_on_c, 0, 63, 0
2, 10320, Note_on_c, 0, 58, 0
2, 10320, Note_on_c, 0, 65, 100
2, 10320, Note_on_c, 0, 60, 100
2, 10440, Note_on_c, 0, 60, 0
2, 10440, Note_on_c, 0, 65, 0
2, 10440, Note_on_c, 0, 60, 100
2, 10500, Note_on_c, 0, 60, 0
2, 10500, Note_on_c, 0, 65, 100
2, 10500, Note_on_c, 0, 60, 100
2, 10620, Note_on_c, 0, 60, 0
2, 10620, Note_on_c, 0, 65, 0
2, 10620, Note_on_c, 0, 60, 100
2, 10620, Note_on_c, 0, 65, 100
2, 10680, Note_on_c, 0, 60, 0
2, 10680, Note_on_c, 0, 60, 100
2, 10740, Note_on_c, 0, 65, 0
2, 10800, Note_on_c, 0, 60, 0
2, 10800, Note_on_c, 0, 63, 100
2, 10800, Note_on_c, 0, 58, 100
2, 10920, Note_on_c, 0, 58, 0
2, 10920, Note_on_c, 0, 63, 0
2, 10920, Note_on_c, 0, 58, 100
2, 10980, Note_on_c, 0, 58, 0
2, 10980, Note_on_c, 0, 58, 100
2, 10980, Note_on_c, 0, 63, 100
2, 11100, Note_on_c, 0, 63, 0
2, 11100, Note_on_c, 0, 58, 0
2, 11100, Note_on_c, 0, 58, 100
2, 11100, Note_on_c, 0, 63, 100
2, 11160, Note_on_c, 0, 58, 0
2, 11160, Note_on_c, 0, 58, 100
2, 11220, Note_on_c, 0, 63, 0
2, 11280, Note_on_c, 0, 58, 0
2, 11280, Note_on_c, 0, 60, 100
2, 11280, Note_on_c, 0, 57, 100
2, 11400, Note_on_c, 0, 57, 0
2, 11400, Note_on_c, 0, 60, 0
2, 11400, Note_on_c, 0, 57, 100
2, 11460, Note_on_c, 0, 57, 0
2, 11460, Note_on_c, 0, 57, 100
2, 11460, Note_on_c, 0, 60, 100
2, 11580, Note_on_c, 0, 60, 0
2, 11580, Note_on_c, 0, 57, 0
2, 11580, Note_on_c, 0, 57, 100
2, 11580, Note_on_c, 0, 60, 100
2, 11640, Note_on_c, 0, 57, 0
2, 11640, Note_on_c, 0, 57, 100
2, 11700, Note_on_c, 0, 60, 0
2, 11760, Note_on_c, 0, 57, 0
2, 11760, Note_on_c, 0, 58, 100
2, 11760, Note_on_c, 0, 62, 100
2, 11880, Note_on_c, 0, 62, 0
2, 11880, Note_on_c, 0, 58, 0
2, 11880, Note_on_c, 0, 58, 100
2, 11940, Note_on_c, 0, 58, 0
2, 11940, Note_on_c, 0, 57, 100
2, 11940, Note_on_c, 0, 60, 100
2, 12060, Note_on_c, 0, 60, 0
2, 12060, Note_on_c, 0, 57, 0
2, 12060, Note_on_c, 0, 60, 100
2, 12120, Note_on_c, 0, 60, 0
2, 12120, Note_on_c, 0, 57, 100
2, 12120, Note_on_c, 0, 62, 100
2, 12540, Note_on_c, 0, 62, 0
2, 12540, Note_on_c, 0, 57, 0
2, 12540, Note_on_c, 0, 58, 100
2, 12600, Note_on_c, 0, 58, 0
2, 12600, Note_on_c, 0, 62, 100
2, 12660, Note_on_c, 0, 62, 0
2, 12660, Note_on_c, 0, 63, 100
2, 12720, Note_on_c, 0, 63, 0
2, 12720, Note_on_c, 0, 58, 100
2, 12720, Note_on_c, 0, 63, 100
2, 12840, Note_on_c, 0, 63, 0
2, 12840, Note_on_c, 0, 58, 0
2, 12840, Note_on_c, 0, 58, 100
2, 12900, Note_on_c, 0, 58, 0
2, 12900, Note_on_c, 0, 58, 100
2, 12900, Note_on_c, 0, 63, 100
2, 13020, Note_on_c, 0, 63, 0
2, 13020, Note_on_c, 0, 58, 0
2, 13020, Note_on_c, 0, 63, 100
2, 13020, Note_on_c, 0, 58, 100
2, 13080, Note_on_c, 0, 63, 0
2, 13080, Note_on_c, 0, 63, 100
2, 13140, Note_on_c, 0, 58, 0
2, 13200, Note_on_c, 0, 63, 0
2, 13200, Note_on_c, 0, 57, 100
2, 13200, Note_on_c, 0, 60, 100
2, 13320, Note_on_c, 0, 60, 0
2, 13320, Note_on_c, 0, 57, 0
2, 13320, Note_on_c, 0, 57, 100
2, 13380, Note_on_c, 0, 57, 0
2, 13380, Note_on_c, 0, 57, 100
2, 13380, Note_on_c, 0, 60, 100
2, 13500, Note_on_c, 0, 60, 0
2, 13500, Note_on_c, 0, 57, 0
2, 13500, Note_on_c, 0, 60, 100
2, 13500, Note_on_c, 0, 57, 100
2, 13560, Note_on_c, 0, 60, 0
2, 13560, Note_on_c, 0, 60, 100
2, 13620, Note_on_c, 0, 57, 0
2, 13680, Note_on_c, 0, 60, 0
2, 13680, Note_on_c, 0, 58, 100
2, 13680, Note_on_c, 0, 63, 100
2, 13800, Note_on_c, 0, 63, 0
2, 13800, Note_on_c, 0, 58, 0
2, 13800, Note_on_c, 0, 58, 100
2, 13860, Note_on_c, 0, 58, 0
2, 13860, Note_on_c, 0, 63, 100
2, 13860, Note_on_c, 0, 58, 100
2, 13980, Note_on_c, 0, 58, 0
2, 13980, Note_on_c, 0, 63, 0
2, 13980, Note_on_c, 0, 63, 100
2, 13980, Note_on_c, 0, 58, 100
2, 14040, Note_on_c, 0, 63, 0
2, 14040, Note_on_c, 0, 63, 100
2, 14100, Note_on_c, 0, 58, 0
2, 14160, Note_on_c, 0, 63, 0
2, 14160, Note_on_c, 0, 60, 100
2, 14160, Note_on_c, 0, 57, 100
2, 14280, Note_on_c, 0, 57, 0
2, 14280, Note_on_c, 0, 60, 0
2, 14280, Note_on_c, 0, 60, 100
2, 14340, Note_on_c, 0, 60, 0
2, 14340, Note_on_c, 0, 60, 100
2, 14340, Note_on_c, 0, 57, 100
2, 14460, Note_on_c, 0, 57, 0
2, 14460, Note_on_c, 0, 60, 0
2, 14460, Note_on_c, 0, 60, 100
2, 14460, Note_on_c, 0, 57, 100
2, 14520, Note_on_c, 0, 60, 0
2, 14520, Note_on_c, 0, 60, 100
2, 14580, Note_on_c, 0, 57, 0
2, 14640, Note_on_c, 0, 60, 0
2, 14640, Note_on_c, 0, 63, 100
2, 14640, Note_on_c, 0, 58, 100
2, 14760, Note_on_c, 0, 58, 0
2, 14760, Note_on_c, 0, 63, 0
2, 14760, Note_on_c, 0, 63, 100
2, 14820, Note_on_c, 0, 63, 0
2, 14820, Note_on_c, 0, 58, 100
2, 14820, Note_on_c, 0, 63, 100
2, 14940, Note_on_c, 0, 63, 0
2, 14940, Note_on_c, 0, 58, 0
2, 14940, Note_on_c, 0, 63, 100
2, 14940, Note_on_c, 0, 58, 100
2, 15000, Note_on_c, 0, 63, 0
2, 15000, Note_on_c, 0, 63, 100
2, 15060, Note_on_c, 0, 58, 0
2, 15120, Note_on_c, 0, 63, 0
2, 15120, Note_on_c, 0, 57, 100
2, 15120, Note_on_c, 0, 62, 100
2, 15240, Note_on_c, 0, 62, 0
2, 15240, Note_on_c, 0, 57, 0
2, 15240, Note_on_c, 0, 62, 100
2, 15300, Note_on_c, 0, 62, 0
2, 15300, Note_on_c, 0, 62, 100
2, 15300, Note_on_c, 0, 57, 100
2, 15420, Note_on_c, 0, 57, 0
2, 15420, Note_on_c, 0, 62, 0
2, 15420, Note_on_c, 0, 62, 100
2, 15420, Note_on_c, 0, 57, 100
2, 15480, Note_on_c, 0, 62, 0
2, 15480, Note_on_c, 0, 62, 100
2, 15540, Note_on_c, 0, 57, 0
2, 15600, Note_on_c, 0, 62, 0
2, 15600, Note_on_c, 0, 58, 100
2, 15600, Note_on_c, 0, 62, 100
2, 15720, Note_on_c, 0, 62, 0
2, 15720, Note_on_c, 0, 58, 0
2, 15720, Note_on_c, 0, 58, 100
2, 15780, Note_on_c, 0, 58, 0
2, 15780, Note_on_c, 0, 57, 100
2, 15780, Note_on_c, 0, 60, 100
2, 15900, Note_on_c, 0, 60, 0
2, 15900, Note_on_c, 0, 57, 0
2, 15900, Note_on_c, 0, 60, 100
2, 15960, Note_on_c, 0, 60, 0
2, 15960, Note_on_c, 0, 62, 100
2, 15960, Note_on_c, 0, 57, 100
2, 16140, Note_on_c, 0, 62, 0
2, 16200, Note_on_c, 0, 50, 100
2, 16200, Note_on_c, 0, 62, 100
2, 16260, Note_on_c, 0, 62, 0
2, 16260, Note_on_c, 0, 50, 0
2, 16260, Note_on_c, 0, 62, 100
2, 16260, Note_on_c, 0, 50, 100
2, 16320, Note_on_c, 0, 50, 0
2, 16320, Note_on_c, 0, 62, 0
2, 16320, Note_on_c, 0, 57, 0
2, 16320, Note_on_c, 0, 65, 100
2, 16320, Note_on_c, 0, 53, 100
2, 16380, Note_on_c, 0, 53, 0
2, 16380, Note_on_c, 0, 65, 0
2, 16380, Note_on_c, 0, 67, 100
2, 16380, Note_on_c, 0, 55, 100
2, 16380, Note_on_c, 0, 58, 100
2, 16440, Note_on_c, 0, 58, 0
2, 16440, Note_on_c, 0, 55, 0
2, 16440, Note_on_c, 0, 67, 0
2, 16440, Note_on_c, 0, 62, 100
2, 16500, Note_on_c, 0, 62, 0
2, 16500, Note_on_c, 0, 67, 100
2, 16500, Note_on_c, 0, 55, 100
2, 16500, Note_on_c, 0, 63, 100
2, 16560, Note_on_c, 0, 63, 0
2, 16680, Note_on_c, 0, 55, 0
2, 16680, Note_on_c, 0, 67, 0
2, 16680, Note_on_c, 0, 62, 100
2, 16680, Note_on_c, 0, 50, 100
2, 16740, Note_on_c, 0, 50, 0
2, 16740, Note_on_c, 0, 62, 0
2, 16740, Note_on_c, 0, 62, 100
2, 16740, Note_on_c, 0, 50, 100
2, 16800, Note_on_c, 0, 50, 0
2, 16800, Note_on_c, 0, 62, 0
2, 16800, Note_on_c, 0, 65, 100
2, 16800, Note_on_c, 0, 53, 100
2, 16860, Note_on_c, 0, 53, 0
2, 16860, Note_on_c, 0, 65, 0
2, 16860, Note_on_c, 0, 67, 100
2, 16860, Note_on_c, 0, 55, 100
2, 16920, Note_on_c, 0, 55, 0
2, 16920, Note_on_c, 0, 67, 0
2, 16980, Note_on_c, 0, 58, 100
2, 16980, Note_on_c, 0, 70, 100
2, 17040, Note_on_c, 0, 70, 0
2, 17040, Note_on_c, 0, 58, 0
2, 17040, Note_on_c, 0, 55, 100
2, 17040, Note_on_c, 0, 67, 100
2, 17100, Note_on_c, 0, 67, 0
2, 17100, Note_on_c, 0, 55, 0
2, 17160, Note_on_c, 0, 50, 100
2, 17160, Note_on_c, 0, 62, 100
2, 17220, Note_on_c, 0, 62, 0
2, 17220, Note_on_c, 0, 50, 0
2, 17220, Note_on_c, 0, 53, 100
2, 17220, Note_on_c, 0, 65, 100
2, 17280, Note_on_c, 0, 65, 0
2, 17280, Note_on_c, 0, 53, 0
2, 17280, Note_on_c, 0, 55, 100
2, 17280, Note_on_c, 0, 67, 100
2, 17520, Note_on_c, 0, 67, 0
2, 17520, Note_on_c, 0, 55, 0
2, 17520, End_track
3, 0, Start_track
3, 0, MIDI_port, 0
3, 0, Title_t, "Bass"
3, 0, Program_c, 1, 34
3, 0, Control_c, 1, 7, 98
3, 240, Pitch_bend_c, 1, 256
3, 240, Note_on_c, 1, 55, 100
3, 270, Pitch_bend_c, 1, 8192
3, 720, Note_on_c, 1, 55, 0
3, 900, Pitch_bend_c, 1, 8192
3, 900, Note_on_c, 1, 46, 100
3, 1020, Note_on_c, 1, 46, 0
3, 1020, Note_on_c, 1, 38, 100
3, 1080, Note_on_c, 1, 38, 0
3, 1080, Note_on_c, 1, 41, 100
3, 1140, Note_on_c, 1, 41, 0
3, 1140, Note_on_c, 1, 43, 100
3, 1260, Note_on_c, 1, 43, 0
3, 1980, Note_on_c, 1, 41, 100
3, 2040, Note_on_c, 1, 41, 0
3, 2040, Note_on_c, 1, 38, 100
3, 2100, Note_on_c, 1, 38, 0
3, 2100, Note_on_c, 1, 31, 100
3, 2220, Note_on_c, 1, 31, 0
3, 2820, Note_on_c, 1, 41, 100
3, 2940, Note_on_c, 1, 41, 0
3, 2940, Note_on_c, 1, 36, 100
3, 3060, Note_on_c, 1, 36, 0
3, 3060, Pitch_bend_c, 1, 8320
3, 3060, Note_on_c, 1, 39, 100
3, 3120, Note_on_c, 1, 39, 0
3, 3120, Note_on_c, 1, 39, 100
3, 3240, Note_on_c, 1, 39, 0
3, 3600, Note_on_c, 1, 34, 100
3, 3840, Note_on_c, 1, 34, 0
3, 4080, Note_on_c, 1, 34, 100
3, 4260, Note_on_c, 1, 34, 0
3, 4260, Note_on_c, 1, 36, 100
3, 4440, Note_on_c, 1, 36, 0
3, 4440, Note_on_c, 1, 38, 100
3, 4620, Note_on_c, 1, 38, 0
3, 4860, Note_on_c, 1, 38, 100
3, 4920, Note_on_c, 1, 38, 0
3, 4920, Note_on_c, 1, 41, 100
3, 4980, Note_on_c, 1, 41, 0
3, 4980, Note_on_c, 1, 43, 100
3, 5100, Note_on_c, 1, 43, 0
3, 5820, Note_on_c, 1, 41, 100
3, 5880, Note_on_c, 1, 41, 0
3, 5880, Note_on_c, 1, 38, 100
3, 5940, Note_on_c, 1, 38, 0
3, 5940, Note_on_c, 1, 31, 100
3, 6060, Note_on_c, 1, 31, 0
3, 6660, Note_on_c, 1, 41, 100
3, 6780, Note_on_c, 1, 41, 0
3, 6780, Note_on_c, 1, 36, 100
3, 6900, Note_on_c, 1, 36, 0
3, 6900, Pitch_bend_c, 1, 8320
3, 6900, Note_on_c, 1, 39, 100
3, 6960, Note_on_c, 1, 39, 0
3, 6960, Note_on_c, 1, 39, 100
3, 7080, Note_on_c, 1, 39, 0
3, 7440, Note_on_c, 1, 34, 100
3, 7680, Note_on_c, 1, 34, 0
3, 7920, Note_on_c, 1, 34, 100
3, 8100, Note_on_c, 1, 34, 0
3, 8100, Note_on_c, 1, 36, 100
3, 8280, Note_on_c, 1, 36, 0
3, 8280, Note_on_c, 1, 38, 100
3, 8460, Note_on_c, 1, 38, 0
3, 8700, Note_on_c, 1, 38, 100
3, 8760, Note_on_c, 1, 38, 0
3, 8760, Note_on_c, 1, 41, 100
3, 8820, Note_on_c, 1, 41, 0
3, 8820, Note_on_c, 1, 34, 100
3, 8880, Note_on_c, 1, 34, 0
3, 8880, Note_on_c, 1, 39, 100
3, 9090, Note_on_c, 1, 39, 0
3, 9090, Note_on_c, 1, 34, 100
3, 9120, Note_on_c, 1, 34, 0
3, 9120, Note_on_c, 1, 39, 100
3, 9150, Note_on_c, 1, 39, 0
3, 9180, Note_on_c, 1, 39, 100
3, 9360, Note_on_c, 1, 39, 0
3, 9360, Note_on_c, 1, 34, 100
3, 9570, Note_on_c, 1, 34, 0
3, 9570, Note_on_c, 1, 29, 100
3, 9600, Note_on_c, 1, 29, 0
3, 9600, Note_on_c, 1, 34, 100
3, 9630, Note_on_c, 1, 34, 0
3, 9660, Note_on_c, 1, 34, 100
3, 9840, Note_on_c, 1, 34, 0
3, 9840, Note_on_c, 1, 39, 100
3, 10050, Note_on_c, 1, 39, 0
3, 10050, Note_on_c, 1, 34, 100
3, 10080, Note_on_c, 1, 34, 0
3, 10080, Note_on_c, 1, 39, 100
3, 10110, Note_on_c, 1, 39, 0
3, 10140, Note_on_c, 1, 39, 100
3, 10320, Note_on_c, 1, 39, 0
3, 10320, Note_on_c, 1, 41, 100
3, 10530, Note_on_c, 1, 41, 0
3, 10530, Note_on_c, 1, 36, 100
3, 10560, Note_on_c, 1, 36, 0
3, 10560, Note_on_c, 1, 41, 100
3, 10590, Note_on_c, 1, 41, 0
3, 10620, Note_on_c, 1, 41, 100
3, 10800, Note_on_c, 1, 41, 0
3, 10800, Note_on_c, 1, 31, 100
3, 11010, Note_on_c, 1, 31, 0
3, 11010, Note_on_c, 1, 26, 100
3, 11040, Note_on_c, 1, 26, 0
3, 11040, Note_on_c, 1, 31, 100
3, 11070, Note_on_c, 1, 31, 0
3, 11100, Note_on_c, 1, 31, 100
3, 11280, Note_on_c, 1, 31, 0
3, 11280, Note_on_c, 1, 33, 100
3, 11490, Note_on_c, 1, 33, 0
3, 11520, Note_on_c, 1, 33, 100
3, 11550, Note_on_c, 1, 33, 0
3, 11580, Note_on_c, 1, 33, 100
3, 11760, Note_on_c, 1, 33, 0
3, 11760, Note_on_c, 1, 34, 100
3, 11940, Note_on_c, 1, 34, 0
3, 11940, Note_on_c, 1, 36, 100
3, 12120, Note_on_c, 1, 36, 0
3, 12120, Note_on_c, 1, 38, 100
3, 12300, Note_on_c, 1, 38, 0
3, 12540, Note_on_c, 1, 36, 100
3, 12600, Note_on_c, 1, 36, 0
3, 12600, Note_on_c, 1, 34, 100
3, 12660, Note_on_c, 1, 34, 0
3, 12660, Note_on_c, 1, 39, 100
3, 12720, Note_on_c, 1, 39, 0
3, 12720, Note_on_c, 1, 39, 100
3, 12930, Note_on_c, 1, 39, 0
3, 12930, Note_on_c, 1, 34, 100
3, 12960, Note_on_c, 1, 34, 0
3, 12960, Note_on_c, 1, 39, 100
3, 12990, Note_on_c, 1, 39, 0
3, 13020, Note_on_c, 1, 39, 100
3, 13200, Note_on_c, 1, 39, 0
3, 13200, Note_on_c, 1, 41, 100
3, 13410, Note_on_c, 1, 41, 0
3, 13410, Note_on_c, 1, 36, 100
3, 13440, Note_on_c, 1, 36, 0
3, 13440, Note_on_c, 1, 41, 100
3, 13470, Note_on_c, 1, 41, 0
3, 13500, Note_on_c, 1, 41, 100
3, 13680, Note_on_c, 1, 41, 0
3, 13680, Note_on_c, 1, 31, 100
3, 13890, Note_on_c, 1, 31, 0
3, 13890, Note_on_c, 1, 26, 100
3, 13920, Note_on_c, 1, 26, 0
3, 13920, Note_on_c, 1, 31, 100
3, 13950, Note_on_c, 1, 31, 0
3, 13980, Note_on_c, 1, 31, 100
3, 14160, Note_on_c, 1, 31, 0
3, 14160, Note_on_c, 1, 33, 100
3, 14370, Note_on_c, 1, 33, 0
3, 14370, Note_on_c, 1, 29, 100
3, 14400, Note_on_c, 1, 29, 0
3, 14400, Note_on_c, 1, 33, 100
3, 14430, Note_on_c, 1, 33, 0
3, 14460, Note_on_c, 1, 33, 100
3, 14640, Note_on_c, 1, 33, 0
3, 14640, Note_on_c, 1, 36, 100
3, 14850, Note_on_c, 1, 36, 0
3, 14850, Note_on_c, 1, 31, 100
3, 14880, Note_on_c, 1, 31, 0
3, 14880, Note_on_c, 1, 36, 100
3, 14910, Note_on_c, 1, 36, 0
3, 14940, Note_on_c, 1, 36, 100
3, 15120, Note_on_c, 1, 36, 0
3, 15120, Note_on_c, 1, 38, 100
3, 15330, Note_on_c, 1, 38, 0
3, 15330, Note_on_c, 1, 33, 100
3, 15360, Note_on_c, 1, 33, 0
3, 15360, Note_on_c, 1, 38, 100
3, 15390, Note_on_c, 1, 38, 0
3, 15420, Note_on_c, 1, 38, 100
3, 15600, Note_on_c, 1, 38, 0
3, 15600, Note_on_c, 1, 34, 100
3, 15780, Note_on_c, 1, 34, 0
3, 15780, Note_on_c, 1, 36, 100
3, 15960, Note_on_c, 1, 36, 0
3, 15960, Note_on_c, 1, 38, 100
3, 16140, Note_on_c, 1, 38, 0
3, 16380, Note_on_c, 1, 36, 100
3, 16440, Note_on_c, 1, 36, 0
3, 16440, Note_on_c, 1, 34, 100
3, 16500, Note_on_c, 1, 34, 0
3, 16500, Note_on_c, 1, 39, 100
3, 16560, Note_on_c, 1, 39, 0
3, 16560, Note_on_c, 1, 39, 100
3, 16740, Note_on_c, 1, 39, 0
3, 16740, Note_on_c, 1, 41, 100
3, 16920, Note_on_c, 1, 41, 0
3, 16920, Note_on_c, 1, 43, 100
3, 17100, Note_on_c, 1, 43, 0
3, 17160, Note_on_c, 1, 31, 100
3, 17220, Note_on_c, 1, 31, 0
3, 17220, Note_on_c, 1, 31, 100
3, 17280, Note_on_c, 1, 31, 0
3, 17280, Note_on_c, 1, 31, 100
3, 17580, Note_on_c, 1, 31, 0
3, 17580, End_track
4, 0, Start_track
4, 0, MIDI_port, 0
4, 0, Title_t, "Drums"
4, 0, Control_c, 9, 7, 127
4, 240, Note_on_c, 9, 53, 100
4, 240, Note_on_c, 9, 46, 100
4, 240, Note_on_c, 9, 49, 100
4, 240, Note_on_c, 9, 57, 100
4, 360, Note_on_c, 9, 57, 0
4, 360, Note_on_c, 9, 53, 0
4, 360, Note_on_c, 9, 46, 0
4, 360, Note_on_c, 9, 49, 0
4, 420, Note_on_c, 9, 38, 100
4, 420, Control_c, 9, 11, 31
4, 420, Note_on_c, 9, 40, 100
4, 450, Note_on_c, 9, 40, 0
4, 450, Note_on_c, 9, 38, 0
4, 450, Note_on_c, 9, 38, 100
4, 450, Note_on_c, 9, 40, 100
4, 480, Note_on_c, 9, 40, 0
4, 480, Note_on_c, 9, 38, 0
4, 480, Control_c, 9, 11, 64
4, 480, Note_on_c, 9, 38, 100
4, 480, Note_on_c, 9, 40, 100
4, 510, Note_on_c, 9, 40, 0
4, 510, Note_on_c, 9, 38, 0
4, 510, Note_on_c, 9, 38, 100
4, 510, Note_on_c, 9, 40, 100
4, 540, Note_on_c, 9, 40, 0
4, 540, Note_on_c, 9, 38, 0
4, 540, Note_on_c, 9, 38, 100
4, 540, Note_on_c, 9, 40, 100
4, 540, Control_c, 9, 11, 95
4, 570, Note_on_c, 9, 40, 0
4, 570, Note_on_c, 9, 38, 0
4, 570, Note_on_c, 9, 38, 100
4, 570, Note_on_c, 9, 40, 100
4, 600, Note_on_c, 9, 40, 0
4, 600, Note_on_c, 9, 38, 0
4, 600, Note_on_c, 9, 38, 100
4, 600, Note_on_c, 9, 40, 100
4, 600, Control_c, 9, 11, 127
4, 630, Note_on_c, 9, 40, 0
4, 630, Note_on_c, 9, 38, 0
4, 630, Note_on_c, 9, 38, 100
4, 630, Note_on_c, 9, 40, 100
4, 660, Note_on_c, 9, 40, 0
4, 660, Note_on_c, 9, 38, 0
4, 660, Note_on_c, 9, 38, 100
4, 660, Note_on_c, 9, 40, 100
4, 690, Note_on_c, 9, 40, 0
4, 690, Note_on_c, 9, 38, 0
4, 690, Note_on_c, 9, 38, 100
4, 690, Note_on_c, 9, 40, 100
4, 720, Note_on_c, 9, 40, 0
4, 720, Note_on_c, 9, 38, 0
4, 720, Note_on_c, 9, 47, 100
4, 750, Note_on_c, 9, 47, 0
4, 780, Note_on_c, 9, 45, 100
4, 810, Note_on_c, 9, 45, 0
4, 840, Note_on_c, 9, 43, 100
4, 870, Note_on_c, 9, 43, 0
4, 900, Note_on_c, 9, 35, 100
4, 900, Note_on_c, 9, 41, 100
4, 930, Note_on_c, 9, 41, 0
4, 960, Note_on_c, 9, 35, 0
4, 960, Note_on_c, 9, 40, 100
4, 990, Note_on_c, 9, 40, 0
4, 1020, Note_on_c, 9, 35, 100
4, 1050, Note_on_c, 9, 38, 100
4, 1050, Note_on_c, 9, 40, 100
4, 1080, Note_on_c, 9, 40, 0
4, 1080, Note_on_c, 9, 38, 0
4, 1080, Note_on_c, 9, 35, 0
4, 1080, Note_on_c, 9, 40, 100
4, 1080, Note_on_c, 9, 38, 100
4, 1110, Note_on_c, 9, 38, 0
4, 1110, Note_on_c, 9, 40, 0
4, 1140, Note_on_c, 9, 46, 100
4, 1140, Note_on_c, 9, 35, 100
4, 1200, Note_on_c, 9, 35, 0
4, 1200, Note_on_c, 9, 46, 0
4, 1200, Note_on_c, 9, 42, 100
4, 1260, Note_on_c, 9, 42, 0
4, 1320, Note_on_c, 9, 42, 100
4, 1380, Note_on_c, 9, 42, 0
4, 1440, Note_on_c, 9, 42, 100
4, 1500, Note_on_c, 9, 42, 0
4, 1560, Note_on_c, 9, 42, 100
4, 1620, Note_on_c, 9, 42, 0
4, 1680, Note_on_c, 9, 42, 100
4, 1740, Note_on_c, 9, 42, 0
4, 1800, Note_on_c, 9, 42, 100
4, 1860, Note_on_c, 9, 42, 0
4, 1920, Note_on_c, 9, 42, 100
4, 1980, Note_on_c, 9, 42, 0
4, 1980, Note_on_c, 9, 57, 100
4, 1980, Note_on_c, 9, 49, 100
4, 1980, Note_on_c, 9, 35, 100
4, 2040, Note_on_c, 9, 35, 0
4, 2040, Note_on_c, 9, 49, 0
4, 2040, Note_on_c, 9, 57, 0
4, 2040, Note_on_c, 9, 42, 100
4, 2100, Note_on_c, 9, 42, 0
4, 2100, Note_on_c, 9, 57, 100
4, 2100, Note_on_c, 9, 49, 100
4, 2100, Note_on_c, 9, 35, 100
4, 2160, Note_on_c, 9, 35, 0
4, 2160, Note_on_c, 9, 49, 0
4, 2160, Note_on_c, 9, 57, 0
4, 2160, Note_on_c, 9, 42, 100
4, 2220, Note_on_c, 9, 42, 0
4, 2280, Note_on_c, 9, 42, 100
4, 2340, Note_on_c, 9, 42, 0
4, 2400, Note_on_c, 9, 42, 100
4, 2460, Note_on_c, 9, 42, 0
4, 2520, Note_on_c, 9, 42, 100
4, 2580, Note_on_c, 9, 42, 0
4, 2640, Note_on_c, 9, 42, 100
4, 2700, Note_on_c, 9, 42, 0
4, 2760, Note_on_c, 9, 42, 100
4, 2820, Note_on_c, 9, 42, 0
4, 2820, Note_on_c, 9, 49, 100
4, 2820, Note_on_c, 9, 35, 100
4, 2880, Note_on_c, 9, 49, 0
4, 2880, Note_on_c, 9, 42, 100
4, 2940, Note_on_c, 9, 42, 0
4, 2940, Note_on_c, 9, 35, 0
4, 2940, Note_on_c, 9, 49, 100
4, 2940, Note_on_c, 9, 35, 100
4, 3000, Note_on_c, 9, 49, 0
4, 3000, Note_on_c, 9, 42, 100
4, 3060, Note_on_c, 9, 42, 0
4, 3060, Note_on_c, 9, 35, 0
4, 3060, Note_on_c, 9, 35, 100
4, 3060, Note_on_c, 9, 49, 100
4, 3120, Note_on_c, 9, 49, 0
4, 3120, Note_on_c, 9, 35, 0
4, 3120, Note_on_c, 9, 42, 100
4, 3120, Note_on_c, 9, 35, 100
4, 3120, Note_on_c, 9, 49, 100
4, 3180, Note_on_c, 9, 49, 0
4, 3180, Note_on_c, 9, 35, 0
4, 3180, Note_on_c, 9, 42, 0
4, 3240, Note_on_c, 9, 42, 100
4, 3300, Note_on_c, 9, 42, 0
4, 3360, Note_on_c, 9, 42, 100
4, 3420, Note_on_c, 9, 42, 0
4, 3480, Note_on_c, 9, 42, 100
4, 3540, Note_on_c, 9, 42, 0
4, 3600, Note_on_c, 9, 42, 100
4, 3600, Note_on_c, 9, 49, 100
4, 3600, Note_on_c, 9, 35, 100
4, 3660, Note_on_c, 9, 42, 0
4, 3720, Note_on_c, 9, 35, 0
4, 3720, Note_on_c, 9, 49, 0
4, 3720, Note_on_c, 9, 42, 100
4, 3780, Note_on_c, 9, 42, 0
4, 3840, Note_on_c, 9, 42, 100
4, 3900, Note_on_c, 9, 42, 0
4, 3960, Note_on_c, 9, 42, 100
4, 4020, Note_on_c, 9, 42, 0
4, 4080, Note_on_c, 9, 35, 100
4, 4080, Note_on_c, 9, 49, 100
4, 4080, Note_on_c, 9, 42, 100
4, 4140, Note_on_c, 9, 42, 0
4, 4200, Note_on_c, 9, 49, 0
4, 4200, Note_on_c, 9, 35, 0
4, 4200, Note_on_c, 9, 42, 100
4, 4260, Note_on_c, 9, 42, 0
4, 4260, Note_on_c, 9, 49, 100
4, 4260, Note_on_c, 9, 35, 100
4, 4320, Note_on_c, 9, 42, 100
4, 4380, Note_on_c, 9, 42, 0
4, 4380, Note_on_c, 9, 35, 0
4, 4380, Note_on_c, 9, 49, 0
4, 4440, Note_on_c, 9, 42, 100
4, 4440, Note_on_c, 9, 49, 100
4, 4440, Note_on_c, 9, 35, 100
4, 4500, Note_on_c, 9, 42, 0
4, 4560, Note_on_c, 9, 35, 0
4, 4560, Note_on_c, 9, 49, 0
4, 4800, Note_on_c, 9, 40, 100
4, 4830, Note_on_c, 9, 40, 0
4, 4860, Note_on_c, 9, 35, 100
4, 4890, Note_on_c, 9, 38, 100
4, 4890, Note_on_c, 9, 40, 100
4, 4920, Note_on_c, 9, 40, 0
4, 4920, Note_on_c, 9, 38, 0
4, 4920, Note_on_c, 9, 35, 0
4, 4920, Note_on_c, 9, 40, 100
4, 4920, Note_on_c, 9, 38, 100
4, 4950, Note_on_c, 9, 38, 0
4, 4950, Note_on_c, 9, 40, 0
4, 4980, Note_on_c, 9, 46, 100
4, 4980, Note_on_c, 9, 35, 100
4, 5040, Note_on_c, 9, 35, 0
4, 5040, Note_on_c, 9, 46, 0
4, 5040, Note_on_c, 9, 35, 100
4, 5040, Note_on_c, 9, 42, 100
4, 5100, Note_on_c, 9, 42, 0
4, 5100, Note_on_c, 9, 35, 0
4, 5160, Note_on_c, 9, 40, 100
4, 5160, Note_on_c, 9, 42, 100
4, 5220, Note_on_c, 9, 42, 0
4, 5220, Note_on_c, 9, 40, 0
4, 5280, Note_on_c, 9, 42, 100
4, 5340, Note_on_c, 9, 42, 0
4, 5340, Note_on_c, 9, 40, 100
4, 5340, Note_on_c, 9, 35, 100
4, 5400, Note_on_c, 9, 35, 0
4, 5400, Note_on_c, 9, 40, 0
4, 5400, Note_on_c, 9, 45, 100
4, 5400, Note_on_c, 9, 40, 100
4, 5400, Note_on_c, 9, 42, 100
4, 5460, Note_on_c, 9, 42, 0
4, 5460, Note_on_c, 9, 40, 0
4, 5460, Note_on_c, 9, 45, 0
4, 5460, Note_on_c, 9, 43, 100
4, 5460, Note_on_c, 9, 35, 100
4, 5520, Note_on_c, 9, 35, 0
4, 5520, Note_on_c, 9, 43, 0
4, 5520, Note_on_c, 9, 42, 100
4, 5580, Note_on_c, 9, 42, 0
4, 5640, Note_on_c, 9, 40, 100
4, 5640, Note_on_c, 9, 42, 100
4, 5700, Note_on_c, 9, 42, 0
4, 5700, Note_on_c, 9, 40, 0
4, 5760, Note_on_c, 9, 42, 100
4, 5820, Note_on_c, 9, 42, 0
4, 5820, Note_on_c, 9, 40, 100
4, 5820, Note_on_c, 9, 57, 100
4, 5820, Note_on_c, 9, 49, 100
4, 5820, Note_on_c, 9, 35, 100
4, 5880, Note_on_c, 9, 35, 0
4, 5880, Note_on_c, 9, 40, 0
4, 5880, Note_on_c, 9, 57, 0
4, 5880, Note_on_c, 9, 49, 0
4, 5880, Note_on_c, 9, 40, 100
4, 5880, Note_on_c, 9, 42, 100
4, 5940, Note_on_c, 9, 42, 0
4, 5940, Note_on_c, 9, 40, 0
4, 5940, Note_on_c, 9, 43, 100
4, 5940, Note_on_c, 9, 57, 100
4, 5940, Note_on_c, 9, 49, 100
4, 5940, Note_on_c, 9, 35, 100
4, 6000, Note_on_c, 9, 35, 0
4, 6000, Note_on_c, 9, 43, 0
4, 6000, Note_on_c, 9, 57, 0
4, 6000, Note_on_c, 9, 49, 0
4, 6000, Note_on_c, 9, 42, 100
4, 6060, Note_on_c, 9, 42, 0
4, 6120, Note_on_c, 9, 40, 100
4, 6120, Note_on_c, 9, 42, 100
4, 6180, Note_on_c, 9, 42, 0
4, 6180, Note_on_c, 9, 40, 0
4, 6240, Note_on_c, 9, 42, 100
4, 6300, Note_on_c, 9, 42, 0
4, 6300, Note_on_c, 9, 40, 100
4, 6300, Note_on_c, 9, 35, 100
4, 6360, Note_on_c, 9, 35, 0
4, 6360, Note_on_c, 9, 40, 0
4, 6360, Note_on_c, 9, 45, 100
4, 6360, Note_on_c, 9, 40, 100
4, 6360, Note_on_c, 9, 42, 100
4, 6420, Note_on_c, 9, 42, 0
4, 6420, Note_on_c, 9, 40, 0
4, 6420, Note_on_c, 9, 45, 0
4, 6420, Note_on_c, 9, 43, 100
4, 6420, Note_on_c, 9, 35, 100
4, 6480, Note_on_c, 9, 35, 0
4, 6480, Note_on_c, 9, 43, 0
4, 6480, Note_on_c, 9, 35, 100
4, 6480, Note_on_c, 9, 42, 100
4, 6540, Note_on_c, 9, 42, 0
4, 6540, Note_on_c, 9, 35, 0
4, 6600, Note_on_c, 9, 40, 100
4, 6600, Note_on_c, 9, 42, 100
4, 6660, Note_on_c, 9, 42, 0
4, 6660, Note_on_c, 9, 40, 0
4, 6660, Note_on_c, 9, 57, 100
4, 6660, Note_on_c, 9, 49, 100
4, 6660, Note_on_c, 9, 35, 100
4, 6720, Note_on_c, 9, 35, 0
4, 6720, Note_on_c, 9, 49, 0
4, 6720, Note_on_c, 9, 57, 0
4, 6720, Note_on_c, 9, 42, 100
4, 6780, Note_on_c, 9, 42, 0
4, 6780, Note_on_c, 9, 57, 100
4, 6780, Note_on_c, 9, 49, 100
4, 6780, Note_on_c, 9, 35, 100
4, 6840, Note_on_c, 9, 35, 0
4, 6840, Note_on_c, 9, 49, 0
4, 6840, Note_on_c, 9, 57, 0
4, 6840, Note_on_c, 9, 42, 100
4, 6900, Note_on_c, 9, 42, 0
4, 6900, Note_on_c, 9, 57, 100
4, 6900, Note_on_c, 9, 49, 100
4, 6900, Note_on_c, 9, 35, 100
4, 6960, Note_on_c, 9, 35, 0
4, 6960, Note_on_c, 9, 49, 0
4, 6960, Note_on_c, 9, 57, 0
4, 6960, Note_on_c, 9, 42, 100
4, 6960, Note_on_c, 9, 35, 100
4, 6960, Note_on_c, 9, 49, 100
4, 7020, Note_on_c, 9, 49, 0
4, 7020, Note_on_c, 9, 35, 0
4, 7020, Note_on_c, 9, 42, 0
4, 7080, Note_on_c, 9, 40, 100
4, 7080, Note_on_c, 9, 42, 100
4, 7140, Note_on_c, 9, 42, 0
4, 7140, Note_on_c, 9, 40, 0
4, 7200, Note_on_c, 9, 42, 100
4, 7260, Note_on_c, 9, 42, 0
4, 7320, Note_on_c, 9, 42, 100
4, 7320, Note_on_c, 9, 40, 100
4, 7380, Note_on_c, 9, 40, 0
4, 7380, Note_on_c, 9, 42, 0
4, 7380, Note_on_c, 9, 49, 100
4, 7380, Note_on_c, 9, 35, 100
4, 7440, Note_on_c, 9, 35, 0
4, 7440, Note_on_c, 9, 49, 0
4, 7440, Note_on_c, 9, 42, 100
4, 7440, Note_on_c, 9, 49, 100
4, 7440, Note_on_c, 9, 35, 100
4, 7500, Note_on_c, 9, 42, 0
4, 7560, Note_on_c, 9, 35, 0
4, 7560, Note_on_c, 9, 49, 0
4, 7560, Note_on_c, 9, 42, 100
4, 7620, Note_on_c, 9, 42, 0
4, 7620, Note_on_c, 9, 40, 100
4, 7680, Note_on_c, 9, 40, 0
4, 7680, Note_on_c, 9, 42, 100
4, 7680, Note_on_c, 9, 40, 100
4, 7710, Note_on_c, 9, 40, 0
4, 7710, Note_on_c, 9, 40, 100
4, 7740, Note_on_c, 9, 40, 0
4, 7740, Note_on_c, 9, 42, 0
4, 7740, Note_on_c, 9, 47, 100
4, 7770, Note_on_c, 9, 47, 0
4, 7770, Note_on_c, 9, 47, 100
4, 7800, Note_on_c, 9, 47, 0
4, 7800, Note_on_c, 9, 42, 100
4, 7800, Note_on_c, 9, 45, 100
4, 7830, Note_on_c, 9, 45, 0
4, 7830, Note_on_c, 9, 45, 100
4, 7860, Note_on_c, 9, 45, 0
4, 7860, Note_on_c, 9, 42, 0
4, 7860, Note_on_c, 9, 43, 100
4, 7890, Note_on_c, 9, 43, 0
4, 7890, Note_on_c, 9, 43, 100
4, 7920, Note_on_c, 9, 43, 0
4, 7920, Note_on_c, 9, 46, 100
4, 7920, Note_on_c, 9, 35, 100
4, 7920, Note_on_c, 9, 42, 100
4, 7920, Note_on_c, 9, 53, 100
4, 7980, Note_on_c, 9, 42, 0
4, 7980, Note_on_c, 9, 38, 100
4, 7980, Note_on_c, 9, 40, 100
4, 8040, Note_on_c, 9, 40, 0
4, 8040, Note_on_c, 9, 46, 0
4, 8040, Note_on_c, 9, 53, 0
4, 8040, Note_on_c, 9, 35, 0
4, 8040, Note_on_c, 9, 38, 0
4, 8040, Note_on_c, 9, 38, 100
4, 8040, Note_on_c, 9, 40, 100
4, 8040, Note_on_c, 9, 42, 100
4, 8100, Note_on_c, 9, 42, 0
4, 8100, Note_on_c, 9, 40, 0
4, 8100, Note_on_c, 9, 38, 0
4, 8100, Note_on_c, 9, 46, 100
4, 8100, Note_on_c, 9, 53, 100
4, 8100, Note_on_c, 9, 35, 100
4, 8160, Note_on_c, 9, 38, 100
4, 8160, Note_on_c, 9, 40, 100
4, 8160, Note_on_c, 9, 42, 100
4, 8220, Note_on_c, 9, 42, 0
4, 8220, Note_on_c, 9, 53, 0
4, 8220, Note_on_c, 9, 35, 0
4, 8220, Note_on_c, 9, 46, 0
4, 8220, Note_on_c, 9, 40, 0
4, 8220, Note_on_c, 9, 38, 0
4, 8220, Note_on_c, 9, 38, 100
4, 8220, Note_on_c, 9, 40, 100
4, 8280, Note_on_c, 9, 40, 0
4, 8280, Note_on_c, 9, 38, 0
4, 8280, Note_on_c, 9, 46, 100
4, 8280, Note_on_c, 9, 53, 100
4, 8280, Note_on_c, 9, 42, 100
4, 8280, Note_on_c, 9, 35, 100
4, 8280, Note_on_c, 9, 40, 100
4, 8280, Note_on_c, 9, 38, 100
4, 8340, Note_on_c, 9, 38, 0
4, 8340, Note_on_c, 9, 42, 0
4, 8340, Note_on_c, 9, 40, 0
4, 8400, Note_on_c, 9, 46, 0
4, 8400, Note_on_c, 9, 35, 0
4, 8400, Note_on_c, 9, 53, 0
4, 8400, Note_on_c, 9, 42, 100
4, 8460, Note_on_c, 9, 42, 0
4, 8460, Note_on_c, 9, 42, 100
4, 8460, Note_on_c, 9, 47, 100
4, 8520, Note_on_c, 9, 47, 0
4, 8520, Note_on_c, 9, 42, 0
4, 8520, Note_on_c, 9, 42, 100
4, 8520, Note_on_c, 9, 48, 100
4, 8580, Note_on_c, 9, 48, 0
4, 8580, Note_on_c, 9, 42, 0
4, 8580, Note_on_c, 9, 42, 100
4, 8580, Note_on_c, 9, 47, 100
4, 8640, Note_on_c, 9, 47, 0
4, 8640, Note_on_c, 9, 42, 0
4, 8640, Note_on_c, 9, 42, 100
4, 8640, Note_on_c, 9, 45, 100
4, 8700, Note_on_c, 9, 45, 0
4, 8700, Note_on_c, 9, 42, 0
4, 8700, Note_on_c, 9, 43, 100
4, 8700, Note_on_c, 9, 35, 100
4, 8700, Note_on_c, 9, 42, 100
4, 8760, Note_on_c, 9, 42, 0
4, 8760, Note_on_c, 9, 35, 0
4, 8760, Note_on_c, 9, 43, 0
4, 8760, Note_on_c, 9, 42, 100
4, 8760, Note_on_c, 9, 35, 100
4, 8820, Note_on_c, 9, 35, 0
4, 8820, Note_on_c, 9, 42, 0
4, 8820, Note_on_c, 9, 42, 100
4, 8820, Note_on_c, 9, 35, 100
4, 8820, Note_on_c, 9, 46, 100
4, 8880, Note_on_c, 9, 35, 0
4, 8880, Note_on_c, 9, 42, 0
4, 8880, Note_on_c, 9, 35, 100
4, 8940, Note_on_c, 9, 35, 0
4, 8940, Note_on_c, 9, 42, 100
4, 9000, Note_on_c, 9, 42, 0
4, 9000, Note_on_c, 9, 38, 100
4, 9060, Note_on_c, 9, 38, 0
4, 9060, Note_on_c, 9, 46, 0
4, 9060, Note_on_c, 9, 42, 100
4, 9120, Note_on_c, 9, 42, 0
4, 9120, Note_on_c, 9, 35, 100
4, 9180, Note_on_c, 9, 35, 0
4, 9180, Note_on_c, 9, 42, 100
4, 9180, Note_on_c, 9, 35, 100
4, 9240, Note_on_c, 9, 35, 0
4, 9240, Note_on_c, 9, 42, 0
4, 9240, Note_on_c, 9, 38, 100
4, 9300, Note_on_c, 9, 38, 0
4, 9300, Note_on_c, 9, 42, 100
4, 9360, Note_on_c, 9, 42, 0
4, 9360, Note_on_c, 9, 35, 100
4, 9420, Note_on_c, 9, 35, 0
4, 9420, Note_on_c, 9, 42, 100
4, 9480, Note_on_c, 9, 42, 0
4, 9480, Note_on_c, 9, 38, 100
4, 9540, Note_on_c, 9, 38, 0
4, 9540, Note_on_c, 9, 42, 100
4, 9600, Note_on_c, 9, 42, 0
4, 9600, Note_on_c, 9, 35, 100
4, 9660, Note_on_c, 9, 35, 0
4, 9660, Note_on_c, 9, 42, 100
4, 9660, Note_on_c, 9, 35, 100
4, 9720, Note_on_c, 9, 35, 0
4, 9720, Note_on_c, 9, 42, 0
4, 9720, Note_on_c, 9, 38, 100
4, 9780, Note_on_c, 9, 38, 0
4, 9780, Note_on_c, 9, 42, 100
4, 9840, Note_on_c, 9, 42, 0
4, 9840, Note_on_c, 9, 35, 100
4, 9900, Note_on_c, 9, 35, 0
4, 9900, Note_on_c, 9, 42, 100
4, 9960, Note_on_c, 9, 42, 0
4, 9960, Note_on_c, 9, 38, 100
4, 10020, Note_on_c, 9, 38, 0
4, 10020, Note_on_c, 9, 42, 100
4, 10080, Note_on_c, 9, 42, 0
4, 10080, Note_on_c, 9, 35, 100
4, 10140, Note_on_c, 9, 35, 0
4, 10140, Note_on_c, 9, 42, 100
4, 10140, Note_on_c, 9, 35, 100
4, 10200, Note_on_c, 9, 35, 0
4, 10200, Note_on_c, 9, 42, 0
4, 10200, Note_on_c, 9, 38, 100
4, 10260, Note_on_c, 9, 38, 0
4, 10260, Note_on_c, 9, 42, 100
4, 10320, Note_on_c, 9, 42, 0
4, 10320, Note_on_c, 9, 35, 100
4, 10380, Note_on_c, 9, 35, 0
4, 10380, Note_on_c, 9, 42, 100
4, 10440, Note_on_c, 9, 42, 0
4, 10440, Note_on_c, 9, 38, 100
4, 10500, Note_on_c, 9, 38, 0
4, 10500, Note_on_c, 9, 42, 100
4, 10560, Note_on_c, 9, 42, 0
4, 10560, Note_on_c, 9, 35, 100
4, 10620, Note_on_c, 9, 35, 0
4, 10620, Note_on_c, 9, 35, 100
4, 10620, Note_on_c, 9, 42, 100
4, 10680, Note_on_c, 9, 42, 0
4, 10680, Note_on_c, 9, 35, 0
4, 10680, Note_on_c, 9, 38, 100
4, 10740, Note_on_c, 9, 38, 0
4, 10740, Note_on_c, 9, 38, 100
4, 10740, Note_on_c, 9, 42, 100
4, 10770, Note_on_c, 9, 38, 0
4, 10770, Note_on_c, 9, 38, 100
4, 10800, Note_on_c, 9, 38, 0
4, 10800, Note_on_c, 9, 42, 0
4, 10800, Note_on_c, 9, 53, 100
4, 10800, Note_on_c, 9, 46, 100
4, 10800, Note_on_c, 9, 35, 100
4, 10860, Note_on_c, 9, 35, 0
4, 10860, Note_on_c, 9, 42, 100
4, 10920, Note_on_c, 9, 42, 0
4, 10920, Note_on_c, 9, 38, 100
4, 10980, Note_on_c, 9, 38, 0
4, 10980, Note_on_c, 9, 42, 100
4, 11040, Note_on_c, 9, 42, 0
4, 11040, Note_on_c, 9, 46, 0
4, 11040, Note_on_c, 9, 53, 0
4, 11040, Note_on_c, 9, 35, 100
4, 11100, Note_on_c, 9, 35, 0
4, 11100, Note_on_c, 9, 42, 100
4, 11100, Note_on_c, 9, 35, 100
4, 11160, Note_on_c, 9, 35, 0
4, 11160, Note_on_c, 9, 42, 0
4, 11160, Note_on_c, 9, 38, 100
4, 11220, Note_on_c, 9, 38, 0
4, 11220, Note_on_c, 9, 42, 100
4, 11280, Note_on_c, 9, 42, 0
4, 11280, Note_on_c, 9, 35, 100
4, 11340, Note_on_c, 9, 35, 0
4, 11340, Note_on_c, 9, 42, 100
4, 11400, Note_on_c, 9, 42, 0
4, 11400, Note_on_c, 9, 38, 100
4, 11460, Note_on_c, 9, 38, 0
4, 11460, Note_on_c, 9, 42, 100
4, 11520, Note_on_c, 9, 42, 0
4, 11520, Note_on_c, 9, 35, 100
4, 11580, Note_on_c, 9, 35, 0
4, 11580, Note_on_c, 9, 42, 100
4, 11580, Note_on_c, 9, 35, 100
4, 11640, Note_on_c, 9, 35, 0
4, 11640, Note_on_c, 9, 42, 0
4, 11640, Note_on_c, 9, 38, 100
4, 11700, Note_on_c, 9, 38, 0
4, 11700, Note_on_c, 9, 42, 100
4, 11760, Note_on_c, 9, 42, 0
4, 11760, Note_on_c, 9, 42, 100
4, 11760, Note_on_c, 9, 35, 100
4, 11820, Note_on_c, 9, 35, 0
4, 11820, Note_on_c, 9, 42, 0
4, 11820, Note_on_c, 9, 42, 100
4, 11880, Note_on_c, 9, 42, 0
4, 11880, Note_on_c, 9, 38, 100
4, 11880, Note_on_c, 9, 42, 100
4, 11940, Note_on_c, 9, 42, 0
4, 11940, Note_on_c, 9, 38, 0
4, 11940, Note_on_c, 9, 42, 100
4, 11940, Note_on_c, 9, 35, 100
4, 12000, Note_on_c, 9, 35, 0
4, 12000, Note_on_c, 9, 42, 0
4, 12000, Note_on_c, 9, 42, 100
4, 12060, Note_on_c, 9, 42, 0
4, 12060, Note_on_c, 9, 35, 100
4, 12060, Note_on_c, 9, 42, 100
4, 12120, Note_on_c, 9, 42, 0
4, 12120, Note_on_c, 9, 35, 0
4, 12120, Note_on_c, 9, 38, 100
4, 12120, Note_on_c, 9, 46, 100
4, 12120, Note_on_c, 9, 53, 100
4, 12120, Note_on_c, 9, 35, 100
4, 12180, Note_on_c, 9, 35, 0
4, 12240, Note_on_c, 9, 38, 0
4, 12240, Note_on_c, 9, 46, 0
4, 12240, Note_on_c, 9, 53, 0
4, 12300, Note_on_c, 9, 42, 100
4, 12300, Note_on_c, 9, 48, 100
4, 12360, Note_on_c, 9, 48, 0
4, 12360, Note_on_c, 9, 42, 0
4, 12360, Note_on_c, 9, 42, 100
4, 12360, Note_on_c, 9, 48, 100
4, 12420, Note_on_c, 9, 48, 0
4, 12420, Note_on_c, 9, 42, 0
4, 12420, Note_on_c, 9, 42, 100
4, 12420, Note_on_c, 9, 47, 100
4, 12480, Note_on_c, 9, 47, 0
4, 12480, Note_on_c, 9, 42, 0
4, 12480, Note_on_c, 9, 42, 100
4, 12480, Note_on_c, 9, 47, 100
4, 12540, Note_on_c, 9, 47, 0
4, 12540, Note_on_c, 9, 42, 0
4, 12540, Note_on_c, 9, 35, 100
4, 12540, Note_on_c, 9, 42, 100
4, 12540, Note_on_c, 9, 45, 100
4, 12600, Note_on_c, 9, 45, 0
4, 12600, Note_on_c, 9, 42, 0
4, 12600, Note_on_c, 9, 35, 0
4, 12600, Note_on_c, 9, 42, 100
4, 12600, Note_on_c, 9, 43, 100
4, 12660, Note_on_c, 9, 43, 0
4, 12660, Note_on_c, 9, 42, 0
4, 12660, Note_on_c, 9, 35, 100
4, 12660, Note_on_c, 9, 42, 100
4, 12660, Note_on_c, 9, 41, 100
4, 12720, Note_on_c, 9, 41, 0
4, 12720, Note_on_c, 9, 42, 0
4, 12720, Note_on_c, 9, 35, 0
4, 12720, Note_on_c, 9, 46, 100
4, 12720, Note_on_c, 9, 35, 100
4, 12780, Note_on_c, 9, 35, 0
4, 12780, Note_on_c, 9, 42, 100
4, 12840, Note_on_c, 9, 42, 0
4, 12840, Note_on_c, 9, 38, 100
4, 12900, Note_on_c, 9, 38, 0
4, 12900, Note_on_c, 9, 42, 100
4, 12960, Note_on_c, 9, 42, 0
4, 12960, Note_on_c, 9, 46, 0
4, 12960, Note_on_c, 9, 35, 100
4, 13020, Note_on_c, 9, 35, 0
4, 13020, Note_on_c, 9, 35, 100
4, 13020, Note_on_c, 9, 42, 100
4, 13080, Note_on_c, 9, 42, 0
4, 13080, Note_on_c, 9, 35, 0
4, 13080, Note_on_c, 9, 38, 100
4, 13140, Note_on_c, 9, 38, 0
4, 13140, Note_on_c, 9, 42, 100
4, 13200, Note_on_c, 9, 42, 0
4, 13200, Note_on_c, 9, 35, 100
4, 13260, Note_on_c, 9, 35, 0
4, 13260, Note_on_c, 9, 42, 100
4, 13320, Note_on_c, 9, 42, 0
4, 13320, Note_on_c, 9, 38, 100
4, 13380, Note_on_c, 9, 38, 0
4, 13380, Note_on_c, 9, 42, 100
4, 13440, Note_on_c, 9, 42, 0
4, 13440, Note_on_c, 9, 35, 100
4, 13500, Note_on_c, 9, 35, 0
4, 13500, Note_on_c, 9, 42, 100
4, 13500, Note_on_c, 9, 35, 100
4, 13560, Note_on_c, 9, 35, 0
4, 13560, Note_on_c, 9, 42, 0
4, 13560, Note_on_c, 9, 38, 100
4, 13620, Note_on_c, 9, 38, 0
4, 13620, Note_on_c, 9, 42, 100
4, 13680, Note_on_c, 9, 42, 0
4, 13680, Note_on_c, 9, 35, 100
4, 13740, Note_on_c, 9, 35, 0
4, 13740, Note_on_c, 9, 42, 100
4, 13800, Note_on_c, 9, 42, 0
4, 13800, Note_on_c, 9, 38, 100
4, 13860, Note_on_c, 9, 38, 0
4, 13860, Note_on_c, 9, 42, 100
4, 13920, Note_on_c, 9, 42, 0
4, 13920, Note_on_c, 9, 35, 100
4, 13980, Note_on_c, 9, 35, 0
4, 13980, Note_on_c, 9, 42, 100
4, 13980, Note_on_c, 9, 35, 100
4, 14040, Note_on_c, 9, 35, 0
4, 14040, Note_on_c, 9, 42, 0
4, 14040, Note_on_c, 9, 38, 100
4, 14100, Note_on_c, 9, 38, 0
4, 14100, Note_on_c, 9, 42, 100
4, 14160, Note_on_c, 9, 42, 0
4, 14160, Note_on_c, 9, 35, 100
4, 14220, Note_on_c, 9, 35, 0
4, 14220, Note_on_c, 9, 42, 100
4, 14280, Note_on_c, 9, 42, 0
4, 14280, Note_on_c, 9, 38, 100
4, 14340, Note_on_c, 9, 38, 0
4, 14340, Note_on_c, 9, 42, 100
4, 14400, Note_on_c, 9, 42, 0
4, 14400, Note_on_c, 9, 35, 100
4, 14460, Note_on_c, 9, 35, 0
4, 14460, Note_on_c, 9, 42, 100
4, 14460, Note_on_c, 9, 35, 100
4, 14520, Note_on_c, 9, 35, 0
4, 14520, Note_on_c, 9, 42, 0
4, 14520, Note_on_c, 9, 38, 100
4, 14580, Note_on_c, 9, 38, 0
4, 14580, Note_on_c, 9, 42, 100
4, 14580, Note_on_c, 9, 38, 100
4, 14610, Note_on_c, 9, 38, 0
4, 14610, Note_on_c, 9, 38, 100
4, 14640, Note_on_c, 9, 38, 0
4, 14640, Note_on_c, 9, 42, 0
4, 14640, Note_on_c, 9, 35, 100
4, 14700, Note_on_c, 9, 35, 0
4, 14700, Note_on_c, 9, 42, 100
4, 14760, Note_on_c, 9, 42, 0
4, 14760, Note_on_c, 9, 38, 100
4, 14820, Note_on_c, 9, 38, 0
4, 14820, Note_on_c, 9, 42, 100
4, 14880, Note_on_c, 9, 42, 0
4, 14880, Note_on_c, 9, 35, 100
4, 14940, Note_on_c, 9, 35, 0
4, 14940, Note_on_c, 9, 35, 100
4, 14940, Note_on_c, 9, 42, 100
4, 15000, Note_on_c, 9, 42, 0
4, 15000, Note_on_c, 9, 35, 0
4, 15000, Note_on_c, 9, 38, 100
4, 15060, Note_on_c, 9, 38, 0
4, 15060, Note_on_c, 9, 42, 100
4, 15120, Note_on_c, 9, 42, 0
4, 15120, Note_on_c, 9, 35, 100
4, 15180, Note_on_c, 9, 35, 0
4, 15180, Note_on_c, 9, 42, 100
4, 15240, Note_on_c, 9, 42, 0
4, 15240, Note_on_c, 9, 38, 100
4, 15300, Note_on_c, 9, 38, 0
4, 15300, Note_on_c, 9, 42, 100
4, 15360, Note_on_c, 9, 42, 0
4, 15360, Note_on_c, 9, 35, 100
4, 15420, Note_on_c, 9, 35, 0
4, 15420, Note_on_c, 9, 42, 100
4, 15420, Note_on_c, 9, 35, 100
4, 15480, Note_on_c, 9, 35, 0
4, 15480, Note_on_c, 9, 42, 0
4, 15480, Note_on_c, 9, 38, 100
4, 15540, Note_on_c, 9, 38, 0
4, 15540, Note_on_c, 9, 42, 100
4, 15600, Note_on_c, 9, 42, 0
4, 15600, Note_on_c, 9, 42, 100
4, 15600, Note_on_c, 9, 35, 100
4, 15660, Note_on_c, 9, 35, 0
4, 15660, Note_on_c, 9, 42, 0
4, 15660, Note_on_c, 9, 38, 100
4, 15660, Note_on_c, 9, 42, 100
4, 15720, Note_on_c, 9, 42, 0
4, 15720, Note_on_c, 9, 38, 0
4, 15720, Note_on_c, 9, 38, 100
4, 15720, Note_on_c, 9, 42, 100
4, 15780, Note_on_c, 9, 42, 0
4, 15780, Note_on_c, 9, 38, 0
4, 15780, Note_on_c, 9, 42, 100
4, 15780, Note_on_c, 9, 35, 100
4, 15840, Note_on_c, 9, 35, 0
4, 15840, Note_on_c, 9, 42, 0
4, 15840, Note_on_c, 9, 38, 100
4, 15840, Note_on_c, 9, 42, 100
4, 15900, Note_on_c, 9, 42, 0
4, 15900, Note_on_c, 9, 38, 0
4, 15900, Note_on_c, 9, 35, 100
4, 15900, Note_on_c, 9, 42, 100
4, 15960, Note_on_c, 9, 42, 0
4, 15960, Note_on_c, 9, 35, 0
4, 15960, Note_on_c, 9, 38, 100
4, 15960, Note_on_c, 9, 46, 100
4, 15960, Note_on_c, 9, 53, 100
4, 15960, Note_on_c, 9, 35, 100
4, 16080, Note_on_c, 9, 35, 0
4, 16080, Note_on_c, 9, 38, 0
4, 16080, Note_on_c, 9, 46, 0
4, 16080, Note_on_c, 9, 53, 0
4, 16140, Note_on_c, 9, 42, 100
4, 16140, Note_on_c, 9, 48, 100
4, 16200, Note_on_c, 9, 48, 0
4, 16200, Note_on_c, 9, 42, 0
4, 16200, Note_on_c, 9, 42, 100
4, 16200, Note_on_c, 9, 48, 100
4, 16260, Note_on_c, 9, 48, 0
4, 16260, Note_on_c, 9, 42, 0
4, 16260, Note_on_c, 9, 42, 100
4, 16260, Note_on_c, 9, 47, 100
4, 16320, Note_on_c, 9, 47, 0
4, 16320, Note_on_c, 9, 42, 0
4, 16320, Note_on_c, 9, 42, 100
4, 16320, Note_on_c, 9, 47, 100
4, 16380, Note_on_c, 9, 47, 0
4, 16380, Note_on_c, 9, 42, 0
4, 16380, Note_on_c, 9, 35, 100
4, 16380, Note_on_c, 9, 42, 100
4, 16380, Note_on_c, 9, 45, 100
4, 16440, Note_on_c, 9, 45, 0
4, 16440, Note_on_c, 9, 42, 0
4, 16440, Note_on_c, 9, 35, 0
4, 16440, Note_on_c, 9, 42, 100
4, 16440, Note_on_c, 9, 43, 100
4, 16500, Note_on_c, 9, 43, 0
4, 16500, Note_on_c, 9, 42, 0
4, 16500, Note_on_c, 9, 35, 100
4, 16500, Note_on_c, 9, 42, 100
4, 16560, Note_on_c, 9, 42, 0
4, 16560, Note_on_c, 9, 35, 0
4, 16560, Note_on_c, 9, 53, 100
4, 16560, Note_on_c, 9, 46, 100
4, 16560, Note_on_c, 9, 35, 100
4, 16620, Note_on_c, 9, 35, 0
4, 16620, Note_on_c, 9, 38, 100
4, 16680, Note_on_c, 9, 38, 0
4, 16680, Note_on_c, 9, 38, 100
4, 16740, Note_on_c, 9, 38, 0
4, 16740, Note_on_c, 9, 46, 0
4, 16740, Note_on_c, 9, 53, 0
4, 16740, Note_on_c, 9, 53, 100
4, 16740, Note_on_c, 9, 46, 100
4, 16740, Note_on_c, 9, 35, 100
4, 16800, Note_on_c, 9, 35, 0
4, 16800, Note_on_c, 9, 38, 100
4, 16860, Note_on_c, 9, 38, 0
4, 16860, Note_on_c, 9, 35, 100
4, 16920, Note_on_c, 9, 35, 0
4, 16920, Note_on_c, 9, 46, 0
4, 16920, Note_on_c, 9, 53, 0
4, 16920, Note_on_c, 9, 53, 100
4, 16920, Note_on_c, 9, 46, 100
4, 16920, Note_on_c, 9, 48, 100
4, 16920, Note_on_c, 9, 35, 100
4, 16950, Note_on_c, 9, 48, 0
4, 16950, Note_on_c, 9, 48, 100
4, 16980, Note_on_c, 9, 48, 0
4, 16980, Note_on_c, 9, 35, 0
4, 16980, Note_on_c, 9, 45, 100
4, 16980, Note_on_c, 9, 35, 100
4, 17010, Note_on_c, 9, 45, 0
4, 17010, Note_on_c, 9, 45, 100
4, 17040, Note_on_c, 9, 45, 0
4, 17040, Note_on_c, 9, 35, 0
4, 17040, Note_on_c, 9, 43, 100
4, 17040, Note_on_c, 9, 35, 100
4, 17100, Note_on_c, 9, 35, 0
4, 17100, Note_on_c, 9, 53, 0
4, 17100, Note_on_c, 9, 46, 0
4, 17100, Note_on_c, 9, 43, 0
4, 17160, Note_on_c, 9, 53, 100
4, 17160, Note_on_c, 9, 36, 100
4, 17160, Note_on_c, 9, 46, 100
4, 17160, Note_on_c, 9, 35, 100
4, 17220, Note_on_c, 9, 35, 0
4, 17220, Note_on_c, 9, 53, 0
4, 17220, Note_on_c, 9, 36, 0
4, 17220, Note_on_c, 9, 46, 0
4, 17220, Note_on_c, 9, 53, 100
4, 17220, Note_on_c, 9, 36, 100
4, 17220, Note_on_c, 9, 46, 100
4, 17220, Note_on_c, 9, 35, 100
4, 17280, Note_on_c, 9, 35, 0
4, 17280, Note_on_c, 9, 53, 0
4, 17280, Note_on_c, 9, 36, 0
4, 17280, Note_on_c, 9, 46, 0
4, 17280, Note_on_c, 9, 53, 100
4, 17280, Note_on_c, 9, 36, 100
4, 17280, Note_on_c, 9, 46, 100
4, 17280, Note_on_c, 9, 35, 100
4, 17340, Note_on_c, 9, 35, 0
4, 17340, Note_on_c, 9, 36, 0
4, 17520, Note_on_c, 9, 46, 0
4, 17520, Note_on_c, 9, 53, 0
4, 17520, End_track
5, 0, Start_track
5, 0, MIDI_port, 0
5, 0, Title_t, "Rythmn Guitar"
5, 0, Program_c, 2, 25
5, 0, Control_c, 2, 7, 100
5, 0, Control_c, 2, 10, 127
5, 5040, Note_on_c, 2, 67, 100
5, 5040, Note_on_c, 2, 70, 100
5, 5070, Note_on_c, 2, 70, 0
5, 5070, Note_on_c, 2, 70, 100
5, 5100, Note_on_c, 2, 70, 0
5, 5100, Note_on_c, 2, 70, 100
5, 5130, Note_on_c, 2, 70, 0
5, 5130, Note_on_c, 2, 67, 0
5, 5160, Note_on_c, 2, 67, 100
5, 5160, Note_on_c, 2, 70, 100
5, 5190, Note_on_c, 2, 70, 0
5, 5190, Note_on_c, 2, 70, 100
5, 5220, Note_on_c, 2, 70, 0
5, 5220, Note_on_c, 2, 70, 100
5, 5250, Note_on_c, 2, 70, 0
5, 5250, Note_on_c, 2, 67, 0
5, 5280, Note_on_c, 2, 67, 100
5, 5280, Note_on_c, 2, 70, 100
5, 5310, Note_on_c, 2, 70, 0
5, 5310, Note_on_c, 2, 70, 100
5, 5340, Note_on_c, 2, 70, 0
5, 5340, Note_on_c, 2, 70, 100
5, 5370, Note_on_c, 2, 70, 0
5, 5370, Note_on_c, 2, 67, 0
5, 5400, Note_on_c, 2, 67, 100
5, 5400, Note_on_c, 2, 70, 100
5, 5430, Note_on_c, 2, 70, 0
5, 5430, Note_on_c, 2, 70, 100
5, 5460, Note_on_c, 2, 70, 0
5, 5460, Note_on_c, 2, 70, 100
5, 5490, Note_on_c, 2, 70, 0
5, 5490, Note_on_c, 2, 67, 0
5, 5520, Note_on_c, 2, 65, 100
5, 5520, Note_on_c, 2, 69, 100
5, 5550, Note_on_c, 2, 69, 0
5, 5550, Note_on_c, 2, 69, 100
5, 5580, Note_on_c, 2, 69, 0
5, 5580, Note_on_c, 2, 69, 100
5, 5610, Note_on_c, 2, 69, 0
5, 5610, Note_on_c, 2, 65, 0
5, 5640, Note_on_c, 2, 65, 100
5, 5640, Note_on_c, 2, 69, 100
5, 5670, Note_on_c, 2, 69, 0
5, 5670, Note_on_c, 2, 69, 100
5, 5700, Note_on_c, 2, 69, 0
5, 5700, Note_on_c, 2, 69, 100
5, 5730, Note_on_c, 2, 69, 0
5, 5730, Note_on_c, 2, 65, 0
5, 5760, Note_on_c, 2, 65, 100
5, 5760, Note_on_c, 2, 69, 100
5, 5790, Note_on_c, 2, 69, 0
5, 5790, Note_on_c, 2, 69, 100
5, 5820, Note_on_c, 2, 69, 0
5, 5820, Note_on_c, 2, 69, 100
5, 5850, Note_on_c, 2, 69, 0
5, 5850, Note_on_c, 2, 65, 0
5, 5880, Note_on_c, 2, 65, 100
5, 5880, Note_on_c, 2, 69, 100
5, 5910, Note_on_c, 2, 69, 0
5, 5910, Note_on_c, 2, 69, 100
5, 5940, Note_on_c, 2, 69, 0
5, 5940, Note_on_c, 2, 69, 100
5, 5970, Note_on_c, 2, 69, 0
5, 5970, Note_on_c, 2, 65, 0
5, 6000, Note_on_c, 2, 67, 100
5, 6000, Note_on_c, 2, 70, 100
5, 6030, Note_on_c, 2, 70, 0
5, 6030, Note_on_c, 2, 70, 100
5, 6060, Note_on_c, 2, 70, 0
5, 6060, Note_on_c, 2, 70, 100
5, 6090, Note_on_c, 2, 70, 0
5, 6090, Note_on_c, 2, 67, 0
5, 6120, Note_on_c, 2, 67, 100
5, 6120, Note_on_c, 2, 70, 100
5, 6150, Note_on_c, 2, 70, 0
5, 6150, Note_on_c, 2, 70, 100
5, 6180, Note_on_c, 2, 70, 0
5, 6180, Note_on_c, 2, 70, 100
5, 6210, Note_on_c, 2, 70, 0
5, 6210, Note_on_c, 2, 67, 0
5, 6240, Note_on_c, 2, 67, 100
5, 6240, Note_on_c, 2, 70, 100
5, 6270, Note_on_c, 2, 70, 0
5, 6270, Note_on_c, 2, 70, 100
5, 6300, Note_on_c, 2, 70, 0
5, 6300, Note_on_c, 2, 70, 100
5, 6330, Note_on_c, 2, 70, 0
5, 6330, Note_on_c, 2, 67, 0
5, 6360, Note_on_c, 2, 67, 100
5, 6360, Note_on_c, 2, 70, 100
5, 6390, Note_on_c, 2, 70, 0
5, 6390, Note_on_c, 2, 70, 100
5, 6420, Note_on_c, 2, 70, 0
5, 6420, Note_on_c, 2, 70, 100
5, 6450, Note_on_c, 2, 70, 0
5, 6450, Note_on_c, 2, 67, 0
5, 6480, Note_on_c, 2, 65, 100
5, 6480, Note_on_c, 2, 69, 100
5, 6510, Note_on_c, 2, 69, 0
5, 6510, Note_on_c, 2, 69, 100
5, 6540, Note_on_c, 2, 69, 0
5, 6540, Note_on_c, 2, 69, 100
5, 6570, Note_on_c, 2, 69, 0
5, 6570, Note_on_c, 2, 65, 0
5, 6600, Note_on_c, 2, 65, 100
5, 6600, Note_on_c, 2, 69, 100
5, 6630, Note_on_c, 2, 69, 0
5, 6630, Note_on_c, 2, 69, 100
5, 6660, Note_on_c, 2, 69, 0
5, 6660, Note_on_c, 2, 69, 100
5, 6690, Note_on_c, 2, 69, 0
5, 6690, Note_on_c, 2, 65, 0
5, 6720, Note_on_c, 2, 65, 100
5, 6720, Note_on_c, 2, 69, 100
5, 6750, Note_on_c, 2, 69, 0
5, 6750, Note_on_c, 2, 69, 100
5, 6780, Note_on_c, 2, 69, 0
5, 6780, Note_on_c, 2, 69, 100
5, 6810, Note_on_c, 2, 69, 0
5, 6810, Note_on_c, 2, 65, 0
5, 6840, Note_on_c, 2, 65, 100
5, 6840, Note_on_c, 2, 69, 100
5, 6870, Note_on_c, 2, 69, 0
5, 6870, Note_on_c, 2, 69, 100
5, 6900, Note_on_c, 2, 69, 0
5, 6900, Note_on_c, 2, 69, 100
5, 6930, Note_on_c, 2, 69, 0
5, 6930, Note_on_c, 2, 65, 0
5, 6960, Note_on_c, 2, 67, 100
5, 6960, Note_on_c, 2, 70, 100
5, 6990, Note_on_c, 2, 70, 0
5, 6990, Note_on_c, 2, 70, 100
5, 7020, Note_on_c, 2, 70, 0
5, 7020, Note_on_c, 2, 70, 100
5, 7050, Note_on_c, 2, 70, 0
5, 7050, Note_on_c, 2, 67, 0
5, 7080, Note_on_c, 2, 67, 100
5, 7080, Note_on_c, 2, 70, 100
5, 7110, Note_on_c, 2, 70, 0
5, 7110, Note_on_c, 2, 70, 100
5, 7140, Note_on_c, 2, 70, 0
5, 7140, Note_on_c, 2, 70, 100
5, 7170, Note_on_c, 2, 70, 0
5, 7170, Note_on_c, 2, 67, 0
5, 7200, Note_on_c, 2, 67, 100
5, 7200, Note_on_c, 2, 70, 100
5, 7230, Note_on_c, 2, 70, 0
5, 7230, Note_on_c, 2, 70, 100
5, 7260, Note_on_c, 2, 70, 0
5, 7260, Note_on_c, 2, 70, 100
5, 7290, Note_on_c, 2, 70, 0
5, 7290, Note_on_c, 2, 67, 0
5, 7320, Note_on_c, 2, 67, 100
5, 7320, Note_on_c, 2, 70, 100
5, 7350, Note_on_c, 2, 70, 0
5, 7350, Note_on_c, 2, 70, 100
5, 7380, Note_on_c, 2, 70, 0
5, 7380, Note_on_c, 2, 70, 100
5, 7410, Note_on_c, 2, 70, 0
5, 7410, Note_on_c, 2, 67, 0
5, 7440, Note_on_c, 2, 65, 100
5, 7440, Note_on_c, 2, 70, 100
5, 7470, Note_on_c, 2, 70, 0
5, 7470, Note_on_c, 2, 70, 100
5, 7500, Note_on_c, 2, 70, 0
5, 7500, Note_on_c, 2, 70, 100
5, 7530, Note_on_c, 2, 70, 0
5, 7530, Note_on_c, 2, 65, 0
5, 7560, Note_on_c, 2, 65, 100
5, 7560, Note_on_c, 2, 70, 100
5, 7560, Note_on_c, 2, 74, 100
5, 7590, Note_on_c, 2, 74, 0
5, 7590, Note_on_c, 2, 74, 100
5, 7620, Note_on_c, 2, 74, 0
5, 7620, Note_on_c, 2, 74, 100
5, 7650, Note_on_c, 2, 74, 0
5, 7650, Note_on_c, 2, 70, 0
5, 7650, Note_on_c, 2, 65, 0
5, 7680, Note_on_c, 2, 65, 100
5, 7680, Note_on_c, 2, 74, 100
5, 7680, Note_on_c, 2, 70, 100
5, 7710, Note_on_c, 2, 74, 0
5, 7710, Note_on_c, 2, 74, 100
5, 7740, Note_on_c, 2, 74, 0
5, 7740, Note_on_c, 2, 74, 100
5, 7770, Note_on_c, 2, 74, 0
5, 7770, Note_on_c, 2, 70, 0
5, 7770, Note_on_c, 2, 65, 0
5, 7800, Note_on_c, 2, 65, 100
5, 7800, Note_on_c, 2, 74, 100
5, 7800, Note_on_c, 2, 70, 100
5, 7830, Note_on_c, 2, 74, 0
5, 7830, Note_on_c, 2, 74, 100
5, 7860, Note_on_c, 2, 74, 0
5, 7860, Note_on_c, 2, 74, 100
5, 7890, Note_on_c, 2, 74, 0
5, 7890, Note_on_c, 2, 70, 0
5, 7890, Note_on_c, 2, 65, 0
5, 7920, Note_on_c, 2, 65, 100
5, 7920, Note_on_c, 2, 70, 100
5, 7920, Note_on_c, 2, 74, 100
5, 7980, Note_on_c, 2, 74, 0
5, 7980, Note_on_c, 2, 70, 0
5, 7980, Note_on_c, 2, 65, 0
5, 7980, Note_on_c, 2, 74, 100
5, 7980, Note_on_c, 2, 70, 100
5, 7980, Note_on_c, 2, 65, 100
5, 8040, Note_on_c, 2, 65, 0
5, 8040, Note_on_c, 2, 70, 0
5, 8040, Note_on_c, 2, 74, 0
5, 8040, Note_on_c, 2, 74, 100
5, 8040, Note_on_c, 2, 70, 100
5, 8040, Note_on_c, 2, 65, 100
5, 8100, Note_on_c, 2, 65, 0
5, 8100, Note_on_c, 2, 70, 0
5, 8100, Note_on_c, 2, 74, 0
5, 8100, Note_on_c, 2, 64, 100
5, 8100, Note_on_c, 2, 67, 100
5, 8100, Note_on_c, 2, 72, 100
5, 8160, Note_on_c, 2, 72, 0
5, 8160, Note_on_c, 2, 67, 0
5, 8160, Note_on_c, 2, 64, 0
5, 8160, Note_on_c, 2, 64, 100
5, 8160, Note_on_c, 2, 67, 100
5, 8160, Note_on_c, 2, 72, 100
5, 8220, Note_on_c, 2, 72, 0
5, 8220, Note_on_c, 2, 67, 0
5, 8220, Note_on_c, 2, 64, 0
5, 8220, Note_on_c, 2, 64, 100
5, 8220, Note_on_c, 2, 67, 100
5, 8220, Note_on_c, 2, 72, 100
5, 8280, Note_on_c, 2, 72, 0
5, 8280, Note_on_c, 2, 67, 0
5, 8280, Note_on_c, 2, 64, 0
5, 8280, Note_on_c, 2, 74, 100
5, 8280, Note_on_c, 2, 69, 100
5, 8280, Note_on_c, 2, 65, 100
5, 8340, Note_on_c, 2, 65, 0
5, 8340, Note_on_c, 2, 69, 0
5, 8340, Note_on_c, 2, 74, 0
5, 8340, Note_on_c, 2, 74, 100
5, 8340, Note_on_c, 2, 69, 100
5, 8340, Note_on_c, 2, 65, 100
5, 8400, Note_on_c, 2, 65, 0
5, 8400, Note_on_c, 2, 69, 0
5, 8400, Note_on_c, 2, 74, 0
5, 8400, Note_on_c, 2, 74, 100
5, 8400, Note_on_c, 2, 69, 100
5, 8400, Note_on_c, 2, 65, 100
5, 8460, Note_on_c, 2, 65, 0
5, 8460, Note_on_c, 2, 69, 0
5, 8460, Note_on_c, 2, 74, 0
5, 8460, Note_on_c, 2, 65, 100
5, 8460, Note_on_c, 2, 69, 100
5, 8460, Note_on_c, 2, 74, 100
5, 8520, Note_on_c, 2, 74, 0
5, 8520, Note_on_c, 2, 69, 0
5, 8520, Note_on_c, 2, 65, 0
5, 8520, Note_on_c, 2, 65, 100
5, 8520, Note_on_c, 2, 74, 100
5, 8520, Note_on_c, 2, 69, 100
5, 8580, Note_on_c, 2, 69, 0
5, 8580, Note_on_c, 2, 74, 0
5, 8580, Note_on_c, 2, 65, 0
5, 8580, Note_on_c, 2, 69, 100
5, 8580, Note_on_c, 2, 74, 100
5, 8580, Note_on_c, 2, 65, 100
5, 8640, Note_on_c, 2, 65, 0
5, 8640, Note_on_c, 2, 74, 0
5, 8640, Note_on_c, 2, 69, 0
5, 8640, Note_on_c, 2, 65, 100
5, 8640, Note_on_c, 2, 69, 100
5, 8640, Note_on_c, 2, 74, 100
5, 8700, Note_on_c, 2, 74, 0
5, 8700, Note_on_c, 2, 69, 0
5, 8700, Note_on_c, 2, 65, 0
5, 8700, Note_on_c, 2, 62, 100
5, 8700, Note_on_c, 2, 69, 100
5, 8700, Note_on_c, 2, 74, 100
5, 8760, Note_on_c, 2, 74, 0
5, 8760, Note_on_c, 2, 69, 0
5, 8760, Note_on_c, 2, 62, 0
5, 8760, Note_on_c, 2, 65, 100
5, 8760, Note_on_c, 2, 69, 100
5, 8760, Note_on_c, 2, 74, 100
5, 8820, Note_on_c, 2, 74, 0
5, 8820, Note_on_c, 2, 69, 0
5, 8820, Note_on_c, 2, 65, 0
5, 8820, Note_on_c, 2, 67, 100
5, 8820, Note_on_c, 2, 70, 100
5, 8820, Note_on_c, 2, 75, 100
5, 8880, Note_on_c, 2, 75, 0
5, 8880, Note_on_c, 2, 70, 0
5, 8880, Note_on_c, 2, 67, 0
5, 8880, Note_on_c, 2, 77, 100
5, 8880, Note_on_c, 2, 65, 100
5, 8940, Note_on_c, 2, 65, 0
5, 8940, Note_on_c, 2, 77, 0
5, 8940, Note_on_c, 2, 70, 100
5, 8940, Note_on_c, 2, 58, 100
5, 9000, Note_on_c, 2, 58, 0
5, 9000, Note_on_c, 2, 70, 0
5, 9000, Note_on_c, 2, 75, 100
5, 9000, Note_on_c, 2, 63, 100
5, 9060, Note_on_c, 2, 63, 0
5, 9060, Note_on_c, 2, 75, 0
5, 9060, Note_on_c, 2, 77, 100
5, 9060, Note_on_c, 2, 65, 100
5, 9120, Note_on_c, 2, 65, 0
5, 9120, Note_on_c, 2, 77, 0
5, 9120, Note_on_c, 2, 70, 100
5, 9120, Note_on_c, 2, 58, 100
5, 9180, Note_on_c, 2, 58, 0
5, 9180, Note_on_c, 2, 70, 0
5, 9180, Note_on_c, 2, 63, 100
5, 9180, Note_on_c, 2, 75, 100
5, 9240, Note_on_c, 2, 75, 0
5, 9240, Note_on_c, 2, 63, 0
5, 9240, Note_on_c, 2, 77, 100
5, 9240, Note_on_c, 2, 65, 100
5, 9300, Note_on_c, 2, 65, 0
5, 9300, Note_on_c, 2, 77, 0
5, 9300, Note_on_c, 2, 70, 100
5, 9300, Note_on_c, 2, 58, 100
5, 9360, Note_on_c, 2, 58, 0
5, 9360, Note_on_c, 2, 70, 0
5, 9360, Note_on_c, 2, 77, 100
5, 9360, Note_on_c, 2, 65, 100
5, 9420, Note_on_c, 2, 65, 0
5, 9420, Note_on_c, 2, 77, 0
5, 9420, Note_on_c, 2, 58, 100
5, 9420, Note_on_c, 2, 70, 100
5, 9480, Note_on_c, 2, 70, 0
5, 9480, Note_on_c, 2, 58, 0
5, 9480, Note_on_c, 2, 74, 100
5, 9480, Note_on_c, 2, 62, 100
5, 9540, Note_on_c, 2, 62, 0
5, 9540, Note_on_c, 2, 74, 0
5, 9540, Note_on_c, 2, 77, 100
5, 9540, Note_on_c, 2, 65, 100
5, 9600, Note_on_c, 2, 65, 0
5, 9600, Note_on_c, 2, 77, 0
5, 9600, Note_on_c, 2, 70, 100
5, 9600, Note_on_c, 2, 58, 100
5, 9660, Note_on_c, 2, 58, 0
5, 9660, Note_on_c, 2, 70, 0
5, 9660, Note_on_c, 2, 74, 100
5, 9660, Note_on_c, 2, 62, 100
5, 9720, Note_on_c, 2, 62, 0
5, 9720, Note_on_c, 2, 74, 0
5, 9720, Note_on_c, 2, 77, 100
5, 9720, Note_on_c, 2, 65, 100
5, 9780, Note_on_c, 2, 65, 0
5, 9780, Note_on_c, 2, 77, 0
5, 9780, Note_on_c, 2, 70, 100
5, 9780, Note_on_c, 2, 58, 100
5, 9840, Note_on_c, 2, 58, 0
5, 9840, Note_on_c, 2, 70, 0
5, 9840, Note_on_c, 2, 77, 100
5, 9840, Note_on_c, 2, 65, 100
5, 9900, Note_on_c, 2, 65, 0
5, 9900, Note_on_c, 2, 77, 0
5, 9900, Note_on_c, 2, 70, 100
5, 9900, Note_on_c, 2, 58, 100
5, 9960, Note_on_c, 2, 58, 0
5, 9960, Note_on_c, 2, 70, 0
5, 9960, Note_on_c, 2, 75, 100
5, 9960, Note_on_c, 2, 63, 100
5, 10020, Note_on_c, 2, 63, 0
5, 10020, Note_on_c, 2, 75, 0
5, 10020, Note_on_c, 2, 77, 100
5, 10020, Note_on_c, 2, 65, 100
5, 10080, Note_on_c, 2, 65, 0
5, 10080, Note_on_c, 2, 77, 0
5, 10080, Note_on_c, 2, 70, 100
5, 10080, Note_on_c, 2, 58, 100
5, 10140, Note_on_c, 2, 58, 0
5, 10140, Note_on_c, 2, 70, 0
5, 10140, Note_on_c, 2, 75, 100
5, 10140, Note_on_c, 2, 63, 100
5, 10200, Note_on_c, 2, 63, 0
5, 10200, Note_on_c, 2, 75, 0
5, 10200, Note_on_c, 2, 77, 100
5, 10200, Note_on_c, 2, 65, 100
5, 10260, Note_on_c, 2, 65, 0
5, 10260, Note_on_c, 2, 77, 0
5, 10260, Note_on_c, 2, 72, 100
5, 10260, Note_on_c, 2, 60, 100
5, 10320, Note_on_c, 2, 60, 0
5, 10320, Note_on_c, 2, 72, 0
5, 10320, Note_on_c, 2, 81, 100
5, 10320, Note_on_c, 2, 69, 100
5, 10380, Note_on_c, 2, 69, 0
5, 10380, Note_on_c, 2, 81, 0
5, 10380, Note_on_c, 2, 72, 100
5, 10380, Note_on_c, 2, 60, 100
5, 10440, Note_on_c, 2, 60, 0
5, 10440, Note_on_c, 2, 72, 0
5, 10440, Note_on_c, 2, 77, 100
5, 10440, Note_on_c, 2, 65, 100
5, 10500, Note_on_c, 2, 65, 0
5, 10500, Note_on_c, 2, 77, 0
5, 10500, Note_on_c, 2, 81, 100
5, 10500, Note_on_c, 2, 69, 100
5, 10560, Note_on_c, 2, 69, 0
5, 10560, Note_on_c, 2, 81, 0
5, 10560, Note_on_c, 2, 72, 100
5, 10560, Note_on_c, 2, 60, 100
5, 10620, Note_on_c, 2, 60, 0
5, 10620, Note_on_c, 2, 72, 0
5, 10620, Note_on_c, 2, 77, 100
5, 10620, Note_on_c, 2, 65, 100
5, 10680, Note_on_c, 2, 65, 0
5, 10680, Note_on_c, 2, 77, 0
5, 10680, Note_on_c, 2, 81, 100
5, 10680, Note_on_c, 2, 69, 100
5, 10740, Note_on_c, 2, 69, 0
5, 10740, Note_on_c, 2, 81, 0
5, 10740, Note_on_c, 2, 72, 100
5, 10740, Note_on_c, 2, 60, 100
5, 10800, Note_on_c, 2, 60, 0
5, 10800, Note_on_c, 2, 72, 0
5, 10800, Note_on_c, 2, 82, 100
5, 10800, Note_on_c, 2, 70, 100
5, 10860, Note_on_c, 2, 70, 0
5, 10860, Note_on_c, 2, 82, 0
5, 10860, Note_on_c, 2, 74, 100
5, 10860, Note_on_c, 2, 62, 100
5, 10920, Note_on_c, 2, 62, 0
5, 10920, Note_on_c, 2, 74, 0
5, 10920, Note_on_c, 2, 79, 100
5, 10920, Note_on_c, 2, 67, 100
5, 10980, Note_on_c, 2, 67, 0
5, 10980, Note_on_c, 2, 79, 0
5, 10980, Note_on_c, 2, 82, 100
5, 10980, Note_on_c, 2, 70, 100
5, 11040, Note_on_c, 2, 70, 0
5, 11040, Note_on_c, 2, 82, 0
5, 11040, Note_on_c, 2, 74, 100
5, 11040, Note_on_c, 2, 62, 100
5, 11100, Note_on_c, 2, 62, 0
5, 11100, Note_on_c, 2, 74, 0
5, 11100, Note_on_c, 2, 79, 100
5, 11100, Note_on_c, 2, 67, 100
5, 11160, Note_on_c, 2, 67, 0
5, 11160, Note_on_c, 2, 79, 0
5, 11160, Note_on_c, 2, 82, 100
5, 11160, Note_on_c, 2, 70, 100
5, 11220, Note_on_c, 2, 70, 0
5, 11220, Note_on_c, 2, 82, 0
5, 11220, Note_on_c, 2, 74, 100
5, 11220, Note_on_c, 2, 62, 100
5, 11280, Note_on_c, 2, 62, 0
5, 11280, Note_on_c, 2, 74, 0
5, 11280, Note_on_c, 2, 81, 100
5, 11280, Note_on_c, 2, 69, 100
5, 11340, Note_on_c, 2, 69, 0
5, 11340, Note_on_c, 2, 81, 0
5, 11340, Note_on_c, 2, 72, 100
5, 11340, Note_on_c, 2, 60, 100
5, 11400, Note_on_c, 2, 60, 0
5, 11400, Note_on_c, 2, 72, 0
5, 11400, Note_on_c, 2, 77, 100
5, 11400, Note_on_c, 2, 65, 100
5, 11460, Note_on_c, 2, 65, 0
5, 11460, Note_on_c, 2, 77, 0
5, 11460, Note_on_c, 2, 81, 100
5, 11460, Note_on_c, 2, 69, 100
5, 11520, Note_on_c, 2, 69, 0
5, 11520, Note_on_c, 2, 81, 0
5, 11520, Note_on_c, 2, 72, 100
5, 11520, Note_on_c, 2, 60, 100
5, 11580, Note_on_c, 2, 60, 0
5, 11580, Note_on_c, 2, 72, 0
5, 11580, Note_on_c, 2, 77, 100
5, 11580, Note_on_c, 2, 65, 100
5, 11640, Note_on_c, 2, 65, 0
5, 11640, Note_on_c, 2, 77, 0
5, 11640, Note_on_c, 2, 81, 100
5, 11640, Note_on_c, 2, 69, 100
5, 11700, Note_on_c, 2, 69, 0
5, 11700, Note_on_c, 2, 81, 0
5, 11700, Note_on_c, 2, 72, 100
5, 11700, Note_on_c, 2, 60, 100
5, 11760, Note_on_c, 2, 60, 0
5, 11760, Note_on_c, 2, 72, 0
5, 11760, Note_on_c, 2, 62, 100
5, 11760, Note_on_c, 2, 65, 100
5, 11760, Note_on_c, 2, 70, 100
5, 11820, Note_on_c, 2, 70, 0
5, 11820, Note_on_c, 2, 65, 0
5, 11820, Note_on_c, 2, 62, 0
5, 11820, Note_on_c, 2, 62, 100
5, 11820, Note_on_c, 2, 65, 100
5, 11880, Note_on_c, 2, 65, 0
5, 11880, Note_on_c, 2, 62, 0
5, 11880, Note_on_c, 2, 62, 100
5, 11940, Note_on_c, 2, 62, 0
5, 11940, Note_on_c, 2, 60, 100
5, 11940, Note_on_c, 2, 63, 100
5, 11940, Note_on_c, 2, 67, 100
5, 12000, Note_on_c, 2, 67, 0
5, 12000, Note_on_c, 2, 63, 0
5, 12000, Note_on_c, 2, 60, 0
5, 12000, Note_on_c, 2, 60, 100
5, 12000, Note_on_c, 2, 63, 100
5, 12060, Note_on_c, 2, 63, 0
5, 12060, Note_on_c, 2, 60, 0
5, 12060, Note_on_c, 2, 60, 100
5, 12120, Note_on_c, 2, 60, 0
5, 12120, Note_on_c, 2, 69, 100
5, 12120, Note_on_c, 2, 66, 100
5, 12120, Note_on_c, 2, 62, 100
5, 12180, Note_on_c, 2, 62, 0
5, 12180, Note_on_c, 2, 66, 0
5, 12180, Note_on_c, 2, 69, 0
5, 12180, Note_on_c, 2, 62, 100
5, 12180, Note_on_c, 2, 66, 100
5, 12240, Note_on_c, 2, 66, 0
5, 12240, Note_on_c, 2, 62, 0
5, 12240, Note_on_c, 2, 62, 100
5, 12300, Note_on_c, 2, 62, 0
5, 12300, Note_on_c, 2, 62, 100
5, 12360, Note_on_c, 2, 62, 0
5, 12360, Note_on_c, 2, 62, 100
5, 12360, Note_on_c, 2, 66, 100
5, 12420, Note_on_c, 2, 66, 0
5, 12420, Note_on_c, 2, 62, 0
5, 12420, Note_on_c, 2, 66, 100
5, 12420, Note_on_c, 2, 62, 100
5, 12420, Note_on_c, 2, 69, 100
5, 12480, Note_on_c, 2, 69, 0
5, 12480, Note_on_c, 2, 62, 0
5, 12480, Note_on_c, 2, 66, 0
5, 12480, Note_on_c, 2, 65, 100
5, 12480, Note_on_c, 2, 69, 100
5, 12480, Note_on_c, 2, 74, 100
5, 12540, Note_on_c, 2, 74, 0
5, 12540, Note_on_c, 2, 69, 0
5, 12540, Note_on_c, 2, 65, 0
5, 12540, Note_on_c, 2, 62, 100
5, 12540, Note_on_c, 2, 62, 100
5, 12540, Note_on_c, 2, 69, 100
5, 12540, Note_on_c, 2, 74, 100
5, 12600, Note_on_c, 2, 74, 0
5, 12600, Note_on_c, 2, 62, 0
5, 12600, Note_on_c, 2, 62, 0
5, 12600, Note_on_c, 2, 69, 0
5, 12600, Note_on_c, 2, 65, 100
5, 12600, Note_on_c, 2, 69, 100
5, 12600, Note_on_c, 2, 74, 100
5, 12660, Note_on_c, 2, 74, 0
5, 12660, Note_on_c, 2, 69, 0
5, 12660, Note_on_c, 2, 65, 0
5, 12660, Note_on_c, 2, 67, 100
5, 12660, Note_on_c, 2, 70, 100
5, 12660, Note_on_c, 2, 67, 100
5, 12660, Note_on_c, 2, 70, 100
5, 12660, Note_on_c, 2, 75, 100
5, 12720, Note_on_c, 2, 75, 0
5, 12720, Note_on_c, 2, 67, 0
5, 12720, Note_on_c, 2, 67, 0
5, 12720, Note_on_c, 2, 70, 0
5, 12720, Note_on_c, 2, 70, 0
5, 12720, Note_on_c, 2, 77, 100
5, 12720, Note_on_c, 2, 65, 100
5, 12780, Note_on_c, 2, 65, 0
5, 12780, Note_on_c, 2, 77, 0
5, 12780, Note_on_c, 2, 70, 100
5, 12780, Note_on_c, 2, 58, 100
5, 12840, Note_on_c, 2, 58, 0
5, 12840, Note_on_c, 2, 70, 0
5, 12840, Note_on_c, 2, 75, 100
5, 12840, Note_on_c, 2, 63, 100
5, 12900, Note_on_c, 2, 63, 0
5, 12900, Note_on_c, 2, 75, 0
5, 12900, Note_on_c, 2, 77, 100
5, 12900, Note_on_c, 2, 65, 100
5, 12960, Note_on_c, 2, 65, 0
5, 12960, Note_on_c, 2, 77, 0
5, 12960, Note_on_c, 2, 70, 100
5, 12960, Note_on_c, 2, 58, 100
5, 13020, Note_on_c, 2, 58, 0
5, 13020, Note_on_c, 2, 70, 0
5, 13020, Note_on_c, 2, 63, 100
5, 13020, Note_on_c, 2, 75, 100
5, 13080, Note_on_c, 2, 75, 0
5, 13080, Note_on_c, 2, 63, 0
5, 13080, Note_on_c, 2, 77, 100
5, 13080, Note_on_c, 2, 65, 100
5, 13140, Note_on_c, 2, 65, 0
5, 13140, Note_on_c, 2, 77, 0
5, 13140, Note_on_c, 2, 70, 100
5, 13140, Note_on_c, 2, 58, 100
5, 13200, Note_on_c, 2, 58, 0
5, 13200, Note_on_c, 2, 70, 0
5, 13200, Note_on_c, 2, 81, 100
5, 13200, Note_on_c, 2, 69, 100
5, 13260, Note_on_c, 2, 69, 0
5, 13260, Note_on_c, 2, 81, 0
5, 13260, Note_on_c, 2, 72, 100
5, 13260, Note_on_c, 2, 60, 100
5, 13320, Note_on_c, 2, 60, 0
5, 13320, Note_on_c, 2, 72, 0
5, 13320, Note_on_c, 2, 77, 100
5, 13320, Note_on_c, 2, 65, 100
5, 13380, Note_on_c, 2, 65, 0
5, 13380, Note_on_c, 2, 77, 0
5, 13380, Note_on_c, 2, 81, 100
5, 13380, Note_on_c, 2, 69, 100
5, 13440, Note_on_c, 2, 69, 0
5, 13440, Note_on_c, 2, 81, 0
5, 13440, Note_on_c, 2, 72, 100
5, 13440, Note_on_c, 2, 60, 100
5, 13500, Note_on_c, 2, 60, 0
5, 13500, Note_on_c, 2, 72, 0
5, 13500, Note_on_c, 2, 77, 100
5, 13500, Note_on_c, 2, 65, 100
5, 13560, Note_on_c, 2, 65, 0
5, 13560, Note_on_c, 2, 77, 0
5, 13560, Note_on_c, 2, 81, 100
5, 13560, Note_on_c, 2, 69, 100
5, 13620, Note_on_c, 2, 69, 0
5, 13620, Note_on_c, 2, 81, 0
5, 13620, Note_on_c, 2, 72, 100
5, 13620, Note_on_c, 2, 60, 100
5, 13680, Note_on_c, 2, 60, 0
5, 13680, Note_on_c, 2, 72, 0
5, 13680, Note_on_c, 2, 82, 100
5, 13680, Note_on_c, 2, 70, 100
5, 13740, Note_on_c, 2, 70, 0
5, 13740, Note_on_c, 2, 82, 0
5, 13740, Note_on_c, 2, 74, 100
5, 13740, Note_on_c, 2, 62, 100
5, 13800, Note_on_c, 2, 62, 0
5, 13800, Note_on_c, 2, 74, 0
5, 13800, Note_on_c, 2, 79, 100
5, 13800, Note_on_c, 2, 67, 100
5, 13860, Note_on_c, 2, 67, 0
5, 13860, Note_on_c, 2, 79, 0
5, 13860, Note_on_c, 2, 82, 100
5, 13860, Note_on_c, 2, 70, 100
5, 13920, Note_on_c, 2, 70, 0
5, 13920, Note_on_c, 2, 82, 0
5, 13920, Note_on_c, 2, 74, 100
5, 13920, Note_on_c, 2, 62, 100
5, 13980, Note_on_c, 2, 62, 0
5, 13980, Note_on_c, 2, 74, 0
5, 13980, Note_on_c, 2, 79, 100
5, 13980, Note_on_c, 2, 67, 100
5, 14040, Note_on_c, 2, 67, 0
5, 14040, Note_on_c, 2, 79, 0
5, 14040, Note_on_c, 2, 82, 100
5, 14040, Note_on_c, 2, 70, 100
5, 14100, Note_on_c, 2, 70, 0
5, 14100, Note_on_c, 2, 82, 0
5, 14100, Note_on_c, 2, 74, 100
5, 14100, Note_on_c, 2, 62, 100
5, 14160, Note_on_c, 2, 62, 0
5, 14160, Note_on_c, 2, 74, 0
5, 14160, Note_on_c, 2, 84, 100
5, 14160, Note_on_c, 2, 72, 100
5, 14220, Note_on_c, 2, 72, 0
5, 14220, Note_on_c, 2, 84, 0
5, 14220, Note_on_c, 2, 77, 100
5, 14220, Note_on_c, 2, 65, 100
5, 14280, Note_on_c, 2, 65, 0
5, 14280, Note_on_c, 2, 77, 0
5, 14280, Note_on_c, 2, 81, 100
5, 14280, Note_on_c, 2, 69, 100
5, 14340, Note_on_c, 2, 69, 0
5, 14340, Note_on_c, 2, 81, 0
5, 14340, Note_on_c, 2, 84, 100
5, 14340, Note_on_c, 2, 72, 100
5, 14400, Note_on_c, 2, 72, 0
5, 14400, Note_on_c, 2, 84, 0
5, 14400, Note_on_c, 2, 77, 100
5, 14400, Note_on_c, 2, 65, 100
5, 14460, Note_on_c, 2, 65, 0
5, 14460, Note_on_c, 2, 77, 0
5, 14460, Note_on_c, 2, 81, 100
5, 14460, Note_on_c, 2, 69, 100
5, 14520, Note_on_c, 2, 69, 0
5, 14520, Note_on_c, 2, 81, 0
5, 14520, Note_on_c, 2, 84, 100
5, 14520, Note_on_c, 2, 72, 100
5, 14580, Note_on_c, 2, 72, 0
5, 14580, Note_on_c, 2, 84, 0
5, 14580, Note_on_c, 2, 77, 100
5, 14580, Note_on_c, 2, 65, 100
5, 14640, Note_on_c, 2, 65, 0
5, 14640, Note_on_c, 2, 77, 0
5, 14640, Note_on_c, 2, 79, 100
5, 14640, Note_on_c, 2, 67, 100
5, 14700, Note_on_c, 2, 67, 0
5, 14700, Note_on_c, 2, 79, 0
5, 14700, Note_on_c, 2, 70, 100
5, 14700, Note_on_c, 2, 58, 100
5, 14760, Note_on_c, 2, 58, 0
5, 14760, Note_on_c, 2, 70, 0
5, 14760, Note_on_c, 2, 75, 100
5, 14760, Note_on_c, 2, 63, 100
5, 14820, Note_on_c, 2, 63, 0
5, 14820, Note_on_c, 2, 75, 0
5, 14820, Note_on_c, 2, 79, 100
5, 14820, Note_on_c, 2, 67, 100
5, 14880, Note_on_c, 2, 67, 0
5, 14880, Note_on_c, 2, 79, 0
5, 14880, Note_on_c, 2, 70, 100
5, 14880, Note_on_c, 2, 58, 100
5, 14940, Note_on_c, 2, 58, 0
5, 14940, Note_on_c, 2, 70, 0
5, 14940, Note_on_c, 2, 75, 100
5, 14940, Note_on_c, 2, 63, 100
5, 15000, Note_on_c, 2, 63, 0
5, 15000, Note_on_c, 2, 75, 0
5, 15000, Note_on_c, 2, 79, 100
5, 15000, Note_on_c, 2, 67, 100
5, 15060, Note_on_c, 2, 67, 0
5, 15060, Note_on_c, 2, 79, 0
5, 15060, Note_on_c, 2, 70, 100
5, 15060, Note_on_c, 2, 58, 100
5, 15120, Note_on_c, 2, 58, 0
5, 15120, Note_on_c, 2, 70, 0
5, 15120, Note_on_c, 2, 77, 100
5, 15120, Note_on_c, 2, 65, 100
5, 15180, Note_on_c, 2, 65, 0
5, 15180, Note_on_c, 2, 77, 0
5, 15180, Note_on_c, 2, 74, 100
5, 15180, Note_on_c, 2, 62, 100
5, 15240, Note_on_c, 2, 62, 0
5, 15240, Note_on_c, 2, 74, 0
5, 15240, Note_on_c, 2, 70, 100
5, 15240, Note_on_c, 2, 58, 100
5, 15300, Note_on_c, 2, 58, 0
5, 15300, Note_on_c, 2, 70, 0
5, 15300, Note_on_c, 2, 77, 100
5, 15300, Note_on_c, 2, 65, 100
5, 15360, Note_on_c, 2, 65, 0
5, 15360, Note_on_c, 2, 77, 0
5, 15360, Note_on_c, 2, 62, 100
5, 15360, Note_on_c, 2, 74, 100
5, 15420, Note_on_c, 2, 74, 0
5, 15420, Note_on_c, 2, 62, 0
5, 15420, Note_on_c, 2, 70, 100
5, 15420, Note_on_c, 2, 58, 100
5, 15480, Note_on_c, 2, 58, 0
5, 15480, Note_on_c, 2, 70, 0
5, 15480, Note_on_c, 2, 77, 100
5, 15480, Note_on_c, 2, 65, 100
5, 15540, Note_on_c, 2, 65, 0
5, 15540, Note_on_c, 2, 77, 0
5, 15540, Note_on_c, 2, 74, 100
5, 15540, Note_on_c, 2, 62, 100
5, 15600, Note_on_c, 2, 62, 0
5, 15600, Note_on_c, 2, 74, 0
5, 15600, Note_on_c, 2, 62, 100
5, 15600, Note_on_c, 2, 65, 100
5, 15600, Note_on_c, 2, 70, 100
5, 15660, Note_on_c, 2, 70, 0
5, 15660, Note_on_c, 2, 65, 0
5, 15660, Note_on_c, 2, 62, 0
5, 15660, Note_on_c, 2, 62, 100
5, 15660, Note_on_c, 2, 65, 100
5, 15720, Note_on_c, 2, 65, 0
5, 15720, Note_on_c, 2, 62, 0
5, 15720, Note_on_c, 2, 62, 100
5, 15780, Note_on_c, 2, 62, 0
5, 15780, Note_on_c, 2, 60, 100
5, 15780, Note_on_c, 2, 63, 100
5, 15780, Note_on_c, 2, 67, 100
5, 15840, Note_on_c, 2, 67, 0
5, 15840, Note_on_c, 2, 63, 0
5, 15840, Note_on_c, 2, 60, 0
5, 15840, Note_on_c, 2, 60, 100
5, 15840, Note_on_c, 2, 63, 100
5, 15900, Note_on_c, 2, 63, 0
5, 15900, Note_on_c, 2, 60, 0
5, 15900, Note_on_c, 2, 60, 100
5, 15960, Note_on_c, 2, 60, 0
5, 15960, Note_on_c, 2, 69, 100
5, 15960, Note_on_c, 2, 66, 100
5, 15960, Note_on_c, 2, 62, 100
5, 16020, Note_on_c, 2, 62, 0
5, 16020, Note_on_c, 2, 66, 0
5, 16020, Note_on_c, 2, 69, 0
5, 16020, Note_on_c, 2, 62, 100
5, 16020, Note_on_c, 2, 66, 100
5, 16080, Note_on_c, 2, 66, 0
5, 16080, Note_on_c, 2, 62, 0
5, 16080, Note_on_c, 2, 62, 100
5, 16140, Note_on_c, 2, 62, 0
5, 16140, Note_on_c, 2, 62, 100
5, 16200, Note_on_c, 2, 62, 0
5, 16200, Note_on_c, 2, 62, 100
5, 16200, Note_on_c, 2, 66, 100
5, 16260, Note_on_c, 2, 66, 0
5, 16260, Note_on_c, 2, 62, 0
5, 16260, Note_on_c, 2, 66, 100
5, 16260, Note_on_c, 2, 62, 100
5, 16260, Note_on_c, 2, 69, 100
5, 16320, Note_on_c, 2, 69, 0
5, 16320, Note_on_c, 2, 62, 0
5, 16320, Note_on_c, 2, 66, 0
5, 16320, Note_on_c, 2, 62, 100
5, 16320, Note_on_c, 2, 66, 100
5, 16380, Note_on_c, 2, 66, 0
5, 16380, Note_on_c, 2, 62, 0
5, 16380, Note_on_c, 2, 62, 100
5, 16440, Note_on_c, 2, 62, 0
5, 16440, Note_on_c, 2, 62, 100
5, 16440, Note_on_c, 2, 66, 100
5, 16500, Note_on_c, 2, 66, 0
5, 16500, Note_on_c, 2, 62, 0
5, 16500, Note_on_c, 2, 67, 100
5, 16500, Note_on_c, 2, 63, 100
5, 16500, Note_on_c, 2, 70, 100
5, 16560, Note_on_c, 2, 70, 0
5, 16560, Note_on_c, 2, 63, 0
5, 16560, Note_on_c, 2, 67, 0
5, 16560, Note_on_c, 2, 63, 100
5, 16560, Note_on_c, 2, 67, 100
5, 16560, Note_on_c, 2, 70, 100
5, 16740, Note_on_c, 2, 70, 0
5, 16740, Note_on_c, 2, 67, 0
5, 16740, Note_on_c, 2, 63, 0
5, 16740, Note_on_c, 2, 60, 100
5, 16740, Note_on_c, 2, 65, 100
5, 16740, Note_on_c, 2, 69, 100
5, 16920, Note_on_c, 2, 69, 0
5, 16920, Note_on_c, 2, 65, 0
5, 16920, Note_on_c, 2, 60, 0
5, 16920, Note_on_c, 2, 55, 100
5, 16920, Note_on_c, 2, 62, 100
5, 16920, Note_on_c, 2, 67, 100
5, 17100, Note_on_c, 2, 67, 0
5, 17100, Note_on_c, 2, 62, 0
5, 17100, Note_on_c, 2, 55, 0
5, 17160, Note_on_c, 2, 62, 100
5, 17220, Note_on_c, 2, 62, 0
5, 17220, Note_on_c, 2, 62, 100
5, 17220, Note_on_c, 2, 65, 100
5, 17280, Note_on_c, 2, 65, 0
5, 17280, Note_on_c, 2, 67, 100
5, 17280, Note_on_c, 2, 65, 100
5, 17760, Note_on_c, 2, 65, 0
5, 17760, Note_on_c, 2, 67, 0
5, 17760, Note_on_c, 2, 62, 0
5, 17760, End_track
6, 0, Start_track
6, 0, MIDI_port, 0
6, 0, Title_t, "Elec Guitar"
6, 0, Program_c, 3, 29
6, 0, Control_c, 3, 7, 100
6, 0, Control_c, 3, 10, 1
6, 240, Note_on_c, 3, 43, 100
6, 720, Note_on_c, 3, 43, 0
6, 1020, Note_on_c, 3, 38, 100
6, 1080, Note_on_c, 3, 38, 0
6, 1080, Note_on_c, 3, 41, 100
6, 1140, Note_on_c, 3, 41, 0
6, 1140, Note_on_c, 3, 43, 100
6, 1410, Note_on_c, 3, 43, 0
6, 1980, Note_on_c, 3, 41, 100
6, 2040, Note_on_c, 3, 41, 0
6, 2040, Note_on_c, 3, 38, 100
6, 2100, Note_on_c, 3, 38, 0
6, 2100, Note_on_c, 3, 31, 100
6, 2310, Note_on_c, 3, 31, 0
6, 2820, Note_on_c, 3, 41, 100
6, 2940, Note_on_c, 3, 41, 0
6, 2940, Note_on_c, 3, 36, 100
6, 3060, Note_on_c, 3, 36, 0
6, 3060, Note_on_c, 3, 39, 100
6, 3120, Note_on_c, 3, 39, 0
6, 3120, Note_on_c, 3, 39, 100
6, 3300, Note_on_c, 3, 39, 0
6, 3600, Note_on_c, 3, 34, 100
6, 3780, Note_on_c, 3, 34, 0
6, 4080, Note_on_c, 3, 34, 100
6, 4260, Note_on_c, 3, 34, 0
6, 4260, Note_on_c, 3, 36, 100
6, 4440, Note_on_c, 3, 36, 0
6, 4440, Note_on_c, 3, 38, 100
6, 4620, Note_on_c, 3, 38, 0
6, 4860, Note_on_c, 3, 38, 100
6, 4920, Note_on_c, 3, 38, 0
6, 4920, Note_on_c, 3, 41, 100
6, 4980, Note_on_c, 3, 41, 0
6, 4980, Note_on_c, 3, 43, 100
6, 5040, Note_on_c, 3, 67, 100
6, 5040, Note_on_c, 3, 62, 100
6, 5160, Note_on_c, 3, 62, 0
6, 5160, Note_on_c, 3, 67, 0
6, 5160, Note_on_c, 3, 67, 100
6, 5160, Note_on_c, 3, 62, 100
6, 5220, Note_on_c, 3, 43, 0
6, 5280, Note_on_c, 3, 62, 0
6, 5280, Note_on_c, 3, 67, 0
6, 5280, Note_on_c, 3, 62, 100
6, 5280, Note_on_c, 3, 67, 100
6, 5400, Note_on_c, 3, 67, 0
6, 5400, Note_on_c, 3, 62, 0
6, 5400, Note_on_c, 3, 62, 100
6, 5400, Note_on_c, 3, 67, 100
6, 5520, Note_on_c, 3, 67, 0
6, 5520, Note_on_c, 3, 62, 0
6, 5520, Note_on_c, 3, 65, 100
6, 5520, Note_on_c, 3, 62, 100
6, 5640, Note_on_c, 3, 62, 0
6, 5640, Note_on_c, 3, 65, 0
6, 5640, Note_on_c, 3, 62, 100
6, 5640, Note_on_c, 3, 65, 100
6, 5760, Note_on_c, 3, 65, 0
6, 5760, Note_on_c, 3, 62, 0
6, 5760, Note_on_c, 3, 65, 100
6, 5760, Note_on_c, 3, 62, 100
6, 5880, Note_on_c, 3, 62, 0
6, 5880, Note_on_c, 3, 65, 0
6, 5880, Note_on_c, 3, 65, 100
6, 5880, Note_on_c, 3, 62, 100
6, 6000, Note_on_c, 3, 62, 0
6, 6000, Note_on_c, 3, 65, 0
6, 6000, Note_on_c, 3, 62, 100
6, 6000, Note_on_c, 3, 67, 100
6, 6120, Note_on_c, 3, 67, 0
6, 6120, Note_on_c, 3, 62, 0
6, 6120, Note_on_c, 3, 62, 100
6, 6120, Note_on_c, 3, 67, 100
6, 6240, Note_on_c, 3, 67, 0
6, 6240, Note_on_c, 3, 62, 0
6, 6240, Note_on_c, 3, 62, 100
6, 6240, Note_on_c, 3, 67, 100
6, 6360, Note_on_c, 3, 67, 0
6, 6360, Note_on_c, 3, 62, 0
6, 6360, Note_on_c, 3, 62, 100
6, 6360, Note_on_c, 3, 67, 100
6, 6480, Note_on_c, 3, 67, 0
6, 6480, Note_on_c, 3, 62, 0
6, 6480, Note_on_c, 3, 62, 100
6, 6480, Note_on_c, 3, 65, 100
6, 6600, Note_on_c, 3, 65, 0
6, 6600, Note_on_c, 3, 62, 0
6, 6600, Note_on_c, 3, 65, 100
6, 6600, Note_on_c, 3, 62, 100
6, 6720, Note_on_c, 3, 62, 0
6, 6720, Note_on_c, 3, 65, 0
6, 6720, Note_on_c, 3, 62, 100
6, 6720, Note_on_c, 3, 65, 100
6, 6840, Note_on_c, 3, 65, 0
6, 6840, Note_on_c, 3, 62, 0
6, 6840, Note_on_c, 3, 62, 100
6, 6840, Note_on_c, 3, 65, 100
6, 6960, Note_on_c, 3, 65, 0
6, 6960, Note_on_c, 3, 62, 0
6, 6960, Note_on_c, 3, 58, 100
6, 6960, Note_on_c, 3, 63, 100
6, 7080, Note_on_c, 3, 63, 0
6, 7080, Note_on_c, 3, 58, 0
6, 7080, Note_on_c, 3, 58, 100
6, 7080, Note_on_c, 3, 63, 100
6, 7200, Note_on_c, 3, 63, 0
6, 7200, Note_on_c, 3, 58, 0
6, 7200, Note_on_c, 3, 58, 100
6, 7200, Note_on_c, 3, 63, 100
6, 7320, Note_on_c, 3, 63, 0
6, 7320, Note_on_c, 3, 58, 0
6, 7320, Note_on_c, 3, 58, 100
6, 7320, Note_on_c, 3, 63, 100
6, 7440, Note_on_c, 3, 63, 0
6, 7440, Note_on_c, 3, 58, 0
6, 7440, Note_on_c, 3, 58, 100
6, 7440, Note_on_c, 3, 62, 100
6, 7560, Note_on_c, 3, 62, 0
6, 7560, Note_on_c, 3, 58, 0
6, 7560, Note_on_c, 3, 62, 100
6, 7560, Note_on_c, 3, 58, 100
6, 7680, Note_on_c, 3, 58, 0
6, 7680, Note_on_c, 3, 62, 0
6, 7680, Note_on_c, 3, 62, 100
6, 7680, Note_on_c, 3, 58, 100
6, 7800, Note_on_c, 3, 58, 0
6, 7800, Note_on_c, 3, 62, 0
6, 7800, Note_on_c, 3, 58, 100
6, 7800, Note_on_c, 3, 62, 100
6, 7920, Note_on_c, 3, 62, 0
6, 7920, Note_on_c, 3, 58, 0
6, 7920, Note_on_c, 3, 58, 100
6, 7980, Note_on_c, 3, 58, 0
6, 7980, Note_on_c, 3, 62, 100
6, 8040, Note_on_c, 3, 62, 0
6, 8040, Note_on_c, 3, 65, 100
6, 8100, Note_on_c, 3, 65, 0
6, 8100, Note_on_c, 3, 60, 100
6, 8160, Note_on_c, 3, 60, 0
6, 8160, Note_on_c, 3, 64, 100
6, 8220, Note_on_c, 3, 64, 0
6, 8220, Note_on_c, 3, 67, 100
6, 8280, Note_on_c, 3, 67, 0
6, 8280, Note_on_c, 3, 57, 100
6, 8280, Note_on_c, 3, 65, 100
6, 8280, Note_on_c, 3, 62, 100
6, 8460, Note_on_c, 3, 62, 0
6, 8460, Note_on_c, 3, 65, 0
6, 8460, Note_on_c, 3, 57, 0
6, 8730, Note_on_c, 3, 62, 100
6, 8790, Note_on_c, 3, 62, 0
6, 8790, Note_on_c, 3, 65, 100
6, 8850, Note_on_c, 3, 65, 0
6, 8850, Note_on_c, 3, 67, 100
6, 8880, Note_on_c, 3, 58, 100
6, 8880, Note_on_c, 3, 55, 100
6, 8910, Note_on_c, 3, 67, 0
6, 9000, Note_on_c, 3, 55, 0
6, 9000, Note_on_c, 3, 58, 0
6, 9000, Note_on_c, 3, 58, 100
6, 9000, Note_on_c, 3, 55, 100
6, 9030, Note_on_c, 3, 62, 100
6, 9090, Note_on_c, 3, 62, 0
6, 9090, Note_on_c, 3, 62, 100
6, 9120, Note_on_c, 3, 55, 0
6, 9120, Note_on_c, 3, 58, 0
6, 9120, Note_on_c, 3, 55, 100
6, 9120, Note_on_c, 3, 58, 100
6, 9150, Note_on_c, 3, 62, 0
6, 9150, Note_on_c, 3, 65, 100
6, 9210, Note_on_c, 3, 65, 0
6, 9210, Note_on_c, 3, 67, 100
6, 9240, Note_on_c, 3, 58, 0
6, 9240, Note_on_c, 3, 55, 0
6, 9240, Note_on_c, 3, 55, 100
6, 9240, Note_on_c, 3, 58, 100
6, 9270, Note_on_c, 3, 67, 0
6, 9330, Note_on_c, 3, 67, 100
6, 9360, Note_on_c, 3, 58, 0
6, 9360, Note_on_c, 3, 55, 0
6, 9360, Note_on_c, 3, 53, 100
6, 9360, Note_on_c, 3, 58, 100
6, 9390, Note_on_c, 3, 67, 0
6, 9390, Note_on_c, 3, 65, 100
6, 9450, Note_on_c, 3, 65, 0
6, 9480, Note_on_c, 3, 58, 0
6, 9480, Note_on_c, 3, 53, 0
6, 9480, Note_on_c, 3, 53, 100
6, 9480, Note_on_c, 3, 58, 100
6, 9600, Note_on_c, 3, 58, 0
6, 9600, Note_on_c, 3, 53, 0
6, 9600, Note_on_c, 3, 53, 100
6, 9600, Note_on_c, 3, 58, 100
6, 9720, Note_on_c, 3, 58, 0
6, 9720, Note_on_c, 3, 53, 0
6, 9720, Note_on_c, 3, 53, 100
6, 9720, Note_on_c, 3, 58, 100
6, 9840, Note_on_c, 3, 58, 0
6, 9840, Note_on_c, 3, 53, 0
6, 9840, Note_on_c, 3, 55, 100
6, 9840, Note_on_c, 3, 58, 100
6, 9960, Note_on_c, 3, 58, 0
6, 9960, Note_on_c, 3, 55, 0
6, 9960, Note_on_c, 3, 55, 100
6, 9960, Note_on_c, 3, 58, 100
6, 10080, Note_on_c, 3, 58, 0
6, 10080, Note_on_c, 3, 55, 0
6, 10080, Note_on_c, 3, 55, 100
6, 10080, Note_on_c, 3, 58, 100
6, 10200, Note_on_c, 3, 58, 0
6, 10200, Note_on_c, 3, 55, 0
6, 10200, Note_on_c, 3, 55, 100
6, 10200, Note_on_c, 3, 58, 100
6, 10320, Note_on_c, 3, 58, 0
6, 10320, Note_on_c, 3, 55, 0
6, 10320, Note_on_c, 3, 57, 100
6, 10320, Note_on_c, 3, 60, 100
6, 10440, Note_on_c, 3, 60, 0
6, 10440, Note_on_c, 3, 57, 0
6, 10440, Note_on_c, 3, 60, 100
6, 10440, Note_on_c, 3, 57, 100
6, 10560, Note_on_c, 3, 57, 0
6, 10560, Note_on_c, 3, 60, 0
6, 10560, Note_on_c, 3, 60, 100
6, 10560, Note_on_c, 3, 57, 100
6, 10620, Note_on_c, 3, 62, 100
6, 10680, Note_on_c, 3, 62, 0
6, 10680, Note_on_c, 3, 57, 0
6, 10680, Note_on_c, 3, 60, 0
6, 10680, Note_on_c, 3, 65, 100
6, 10680, Note_on_c, 3, 60, 100
6, 10680, Note_on_c, 3, 57, 100
6, 10740, Note_on_c, 3, 65, 0
6, 10740, Note_on_c, 3, 67, 100
6, 10800, Note_on_c, 3, 67, 0
6, 10800, Note_on_c, 3, 57, 0
6, 10800, Note_on_c, 3, 60, 0
6, 10800, Note_on_c, 3, 58, 100
6, 10800, Note_on_c, 3, 62, 100
6, 10920, Note_on_c, 3, 62, 0
6, 10920, Note_on_c, 3, 58, 0
6, 10920, Note_on_c, 3, 62, 100
6, 10920, Note_on_c, 3, 58, 100
6, 11040, Note_on_c, 3, 58, 0
6, 11040, Note_on_c, 3, 62, 0
6, 11040, Note_on_c, 3, 67, 100
6, 11040, Note_on_c, 3, 58, 100
6, 11040, Note_on_c, 3, 62, 100
6, 11100, Note_on_c, 3, 67, 0
6, 11160, Note_on_c, 3, 62, 0
6, 11160, Note_on_c, 3, 58, 0
6, 11160, Note_on_c, 3, 67, 100
6, 11160, Note_on_c, 3, 58, 100
6, 11160, Note_on_c, 3, 63, 100
6, 11220, Note_on_c, 3, 67, 0
6, 11220, Note_on_c, 3, 65, 100
6, 11280, Note_on_c, 3, 63, 0
6, 11280, Note_on_c, 3, 58, 0
6, 11280, Note_on_c, 3, 57, 100
6, 11280, Note_on_c, 3, 60, 100
6, 11340, Note_on_c, 3, 65, 0
6, 11400, Note_on_c, 3, 60, 0
6, 11400, Note_on_c, 3, 57, 0
6, 11400, Note_on_c, 3, 57, 100
6, 11400, Note_on_c, 3, 60, 100
6, 11520, Note_on_c, 3, 60, 0
6, 11520, Note_on_c, 3, 57, 0
6, 11520, Note_on_c, 3, 57, 100
6, 11520, Note_on_c, 3, 60, 100
6, 11640, Note_on_c, 3, 60, 0
6, 11640, Note_on_c, 3, 57, 0
6, 11640, Note_on_c, 3, 57, 100
6, 11640, Note_on_c, 3, 60, 100
6, 11760, Note_on_c, 3, 60, 0
6, 11760, Note_on_c, 3, 57, 0
6, 11760, Note_on_c, 3, 58, 100
6, 11760, Note_on_c, 3, 62, 100
6, 11940, Note_on_c, 3, 62, 0
6, 11940, Note_on_c, 3, 58, 0
6, 11940, Note_on_c, 3, 60, 100
6, 11940, Note_on_c, 3, 63, 100
6, 12120, Note_on_c, 3, 63, 0
6, 12120, Note_on_c, 3, 60, 0
6, 12120, Note_on_c, 3, 62, 100
6, 12120, Note_on_c, 3, 66, 100
6, 12480, Note_on_c, 3, 66, 0
6, 12480, Note_on_c, 3, 62, 0
6, 12570, Note_on_c, 3, 62, 100
6, 12630, Note_on_c, 3, 62, 0
6, 12630, Note_on_c, 3, 65, 100
6, 12690, Note_on_c, 3, 65, 0
6, 12690, Note_on_c, 3, 67, 100
6, 12720, Note_on_c, 3, 58, 100
6, 12720, Note_on_c, 3, 55, 100
6, 12750, Note_on_c, 3, 67, 0
6, 12840, Note_on_c, 3, 55, 0
6, 12840, Note_on_c, 3, 58, 0
6, 12840, Note_on_c, 3, 58, 100
6, 12840, Note_on_c, 3, 55, 100
6, 12870, Note_on_c, 3, 62, 100
6, 12930, Note_on_c, 3, 62, 0
6, 12930, Note_on_c, 3, 62, 100
6, 12960, Note_on_c, 3, 55, 0
6, 12960, Note_on_c, 3, 58, 0
6, 12960, Note_on_c, 3, 55, 100
6, 12960, Note_on_c, 3, 58, 100
6, 12990, Note_on_c, 3, 62, 0
6, 12990, Note_on_c, 3, 65, 100
6, 13050, Note_on_c, 3, 65, 0
6, 13050, Note_on_c, 3, 67, 100
6, 13080, Note_on_c, 3, 58, 0
6, 13080, Note_on_c, 3, 55, 0
6, 13080, Note_on_c, 3, 55, 100
6, 13080, Note_on_c, 3, 58, 100
6, 13110, Note_on_c, 3, 67, 0
6, 13170, Note_on_c, 3, 67, 100
6, 13200, Note_on_c, 3, 58, 0
6, 13200, Note_on_c, 3, 55, 0
6, 13200, Note_on_c, 3, 53, 100
6, 13200, Note_on_c, 3, 57, 100
6, 13230, Note_on_c, 3, 67, 0
6, 13230, Note_on_c, 3, 65, 100
6, 13290, Note_on_c, 3, 65, 0
6, 13320, Note_on_c, 3, 57, 0
6, 13320, Note_on_c, 3, 53, 0
6, 13320, Note_on_c, 3, 53, 100
6, 13320, Note_on_c, 3, 57, 100
6, 13440, Note_on_c, 3, 57, 0
6, 13440, Note_on_c, 3, 53, 0
6, 13440, Note_on_c, 3, 53, 100
6, 13440, Note_on_c, 3, 57, 100
6, 13560, Note_on_c, 3, 57, 0
6, 13560, Note_on_c, 3, 53, 0
6, 13560, Note_on_c, 3, 53, 100
6, 13560, Note_on_c, 3, 57, 100
6, 13680, Note_on_c, 3, 57, 0
6, 13680, Note_on_c, 3, 53, 0
6, 13680, Note_on_c, 3, 55, 100
6, 13680, Note_on_c, 3, 58, 100
6, 13800, Note_on_c, 3, 58, 0
6, 13800, Note_on_c, 3, 55, 0
6, 13800, Note_on_c, 3, 55, 100
6, 13800, Note_on_c, 3, 58, 100
6, 13920, Note_on_c, 3, 58, 0
6, 13920, Note_on_c, 3, 55, 0
6, 13920, Note_on_c, 3, 55, 100
6, 13920, Note_on_c, 3, 58, 100
6, 14040, Note_on_c, 3, 58, 0
6, 14040, Note_on_c, 3, 55, 0
6, 14040, Note_on_c, 3, 55, 100
6, 14040, Note_on_c, 3, 58, 100
6, 14160, Note_on_c, 3, 58, 0
6, 14160, Note_on_c, 3, 55, 0
6, 14160, Note_on_c, 3, 57, 100
6, 14160, Note_on_c, 3, 60, 100
6, 14280, Note_on_c, 3, 60, 0
6, 14280, Note_on_c, 3, 57, 0
6, 14280, Note_on_c, 3, 60, 100
6, 14280, Note_on_c, 3, 57, 100
6, 14400, Note_on_c, 3, 57, 0
6, 14400, Note_on_c, 3, 60, 0
6, 14400, Note_on_c, 3, 60, 100
6, 14400, Note_on_c, 3, 57, 100
6, 14520, Note_on_c, 3, 57, 0
6, 14520, Note_on_c, 3, 60, 0
6, 14520, Note_on_c, 3, 60, 100
6, 14520, Note_on_c, 3, 57, 100
6, 14640, Note_on_c, 3, 57, 0
6, 14640, Note_on_c, 3, 60, 0
6, 14640, Note_on_c, 3, 60, 100
6, 14640, Note_on_c, 3, 63, 100
6, 14760, Note_on_c, 3, 63, 0
6, 14760, Note_on_c, 3, 60, 0
6, 14760, Note_on_c, 3, 63, 100
6, 14760, Note_on_c, 3, 60, 100
6, 14880, Note_on_c, 3, 60, 0
6, 14880, Note_on_c, 3, 63, 0
6, 14880, Note_on_c, 3, 60, 100
6, 14880, Note_on_c, 3, 63, 100
6, 15000, Note_on_c, 3, 63, 0
6, 15000, Note_on_c, 3, 60, 0
6, 15000, Note_on_c, 3, 60, 100
6, 15000, Note_on_c, 3, 63, 100
6, 15120, Note_on_c, 3, 63, 0
6, 15120, Note_on_c, 3, 60, 0
6, 15120, Note_on_c, 3, 65, 100
6, 15120, Note_on_c, 3, 62, 100
6, 15240, Note_on_c, 3, 62, 0
6, 15240, Note_on_c, 3, 65, 0
6, 15240, Note_on_c, 3, 65, 100
6, 15240, Note_on_c, 3, 62, 100
6, 15360, Note_on_c, 3, 62, 0
6, 15360, Note_on_c, 3, 65, 0
6, 15360, Note_on_c, 3, 65, 100
6, 15360, Note_on_c, 3, 62, 100
6, 15480, Note_on_c, 3, 62, 0
6, 15480, Note_on_c, 3, 65, 0
6, 15480, Note_on_c, 3, 62, 100
6, 15480, Note_on_c, 3, 65, 100
6, 15600, Note_on_c, 3, 65, 0
6, 15600, Note_on_c, 3, 62, 0
6, 15600, Note_on_c, 3, 58, 100
6, 15600, Note_on_c, 3, 62, 100
6, 15780, Note_on_c, 3, 62, 0
6, 15780, Note_on_c, 3, 58, 0
6, 15780, Note_on_c, 3, 60, 100
6, 15780, Note_on_c, 3, 63, 100
6, 15960, Note_on_c, 3, 63, 0
6, 15960, Note_on_c, 3, 60, 0
6, 15960, Note_on_c, 3, 62, 100
6, 15960, Note_on_c, 3, 66, 100
6, 16140, Note_on_c, 3, 66, 0
6, 16140, Note_on_c, 3, 62, 0
6, 16200, Note_on_c, 3, 62, 100
6, 16260, Note_on_c, 3, 62, 0
6, 16260, Note_on_c, 3, 62, 100
6, 16320, Note_on_c, 3, 62, 0
6, 16320, Note_on_c, 3, 65, 100
6, 16380, Note_on_c, 3, 65, 0
6, 16380, Note_on_c, 3, 67, 100
6, 16500, Note_on_c, 3, 67, 0
6, 16500, Note_on_c, 3, 67, 100
6, 16560, Note_on_c, 3, 67, 0
6, 16560, Note_on_c, 3, 55, 100
6, 16560, Note_on_c, 3, 51, 100
6, 16560, Note_on_c, 3, 63, 100
6, 16740, Note_on_c, 3, 63, 0
6, 16740, Note_on_c, 3, 51, 0
6, 16740, Note_on_c, 3, 55, 0
6, 16740, Note_on_c, 3, 53, 100
6, 16740, Note_on_c, 3, 57, 100
6, 16740, Note_on_c, 3, 65, 100
6, 16920, Note_on_c, 3, 65, 0
6, 16920, Note_on_c, 3, 57, 0
6, 16920, Note_on_c, 3, 53, 0
6, 16920, Note_on_c, 3, 50, 100
6, 16920, Note_on_c, 3, 55, 100
6, 16920, Note_on_c, 3, 67, 100
6, 17100, Note_on_c, 3, 67, 0
6, 17100, Note_on_c, 3, 55, 0
6, 17100, Note_on_c, 3, 50, 0
6, 17160, Note_on_c, 3, 50, 100
6, 17160, Note_on_c, 3, 62, 100
6, 17160, Note_on_c, 3, 43, 100
6, 17220, Note_on_c, 3, 43, 0
6, 17220, Note_on_c, 3, 62, 0
6, 17220, Note_on_c, 3, 50, 0
6, 17220, Note_on_c, 3, 53, 100
6, 17220, Note_on_c, 3, 65, 100
6, 17220, Note_on_c, 3, 43, 100
6, 17280, Note_on_c, 3, 43, 0
6, 17280, Note_on_c, 3, 65, 0
6, 17280, Note_on_c, 3, 53, 0
6, 17280, Note_on_c, 3, 55, 100
6, 17280, Note_on_c, 3, 67, 100
6, 17280, Note_on_c, 3, 43, 100
6, 17700, Note_on_c, 3, 43, 0
6, 17700, Note_on_c, 3, 67, 0
6, 17700, Note_on_c, 3, 55, 0
6, 17700, End_track
7, 0, Start_track
7, 0, MIDI_port, 0
7, 0, Title_t, "Vocals"
7, 0, Program_c, 5, 73
7, 0, Control_c, 5, 7, 110
7, 1260, Note_on_c, 5, 74, 100
7, 1320, Note_on_c, 5, 74, 0
7, 1320, Note_on_c, 5, 74, 100
7, 1380, Note_on_c, 5, 74, 0
7, 1380, Note_on_c, 5, 74, 100
7, 1440, Note_on_c, 5, 74, 0
7, 1440, Note_on_c, 5, 74, 100
7, 1560, Note_on_c, 5, 74, 0
7, 1620, Note_on_c, 5, 74, 100
7, 1680, Note_on_c, 5, 74, 0
7, 1680, Note_on_c, 5, 72, 100
7, 1800, Note_on_c, 5, 72, 0
7, 1800, Note_on_c, 5, 70, 100
7, 1860, Note_on_c, 5, 70, 0
7, 1860, Note_on_c, 5, 65, 100
7, 1980, Note_on_c, 5, 65, 0
7, 2100, Note_on_c, 5, 70, 100
7, 2160, Note_on_c, 5, 70, 0
7, 2160, Note_on_c, 5, 74, 100
7, 2280, Note_on_c, 5, 74, 0
7, 2280, Note_on_c, 5, 74, 100
7, 2400, Note_on_c, 5, 74, 0
7, 2400, Note_on_c, 5, 72, 100
7, 2460, Note_on_c, 5, 72, 0
7, 2460, Note_on_c, 5, 70, 100
7, 2520, Note_on_c, 5, 70, 0
7, 2520, Note_on_c, 5, 72, 100
7, 2700, Note_on_c, 5, 72, 0
7, 3180, Note_on_c, 5, 70, 100
7, 3240, Note_on_c, 5, 70, 0
7, 3240, Note_on_c, 5, 75, 100
7, 3300, Note_on_c, 5, 75, 0
7, 3300, Note_on_c, 5, 75, 100
7, 3360, Note_on_c, 5, 75, 0
7, 3360, Note_on_c, 5, 75, 100
7, 3480, Note_on_c, 5, 75, 0
7, 3480, Note_on_c, 5, 77, 100
7, 3540, Note_on_c, 5, 77, 0
7, 3540, Note_on_c, 5, 74, 100
7, 3660, Note_on_c, 5, 74, 0
7, 3660, Note_on_c, 5, 72, 100
7, 3780, Note_on_c, 5, 72, 0
7, 3780, Note_on_c, 5, 70, 100
7, 3900, Note_on_c, 5, 70, 0
7, 4020, Note_on_c, 5, 70, 100
7, 4080, Note_on_c, 5, 70, 0
7, 4080, Note_on_c, 5, 74, 100
7, 4200, Note_on_c, 5, 74, 0
7, 4200, Note_on_c, 5, 74, 100
7, 4260, Note_on_c, 5, 74, 0
7, 4260, Note_on_c, 5, 72, 100
7, 4380, Note_on_c, 5, 72, 0
7, 4380, Note_on_c, 5, 70, 100
7, 4440, Note_on_c, 5, 70, 0
7, 4440, Note_on_c, 5, 74, 100
7, 4740, Note_on_c, 5, 74, 0
7, 5160, Note_on_c, 5, 74, 100
7, 5160, Note_on_c, 5, 67, 100
7, 5220, Note_on_c, 5, 67, 0
7, 5220, Note_on_c, 5, 74, 0
7, 5220, Note_on_c, 5, 67, 100
7, 5220, Note_on_c, 5, 74, 100
7, 5280, Note_on_c, 5, 74, 0
7, 5280, Note_on_c, 5, 67, 0
7, 5280, Note_on_c, 5, 67, 100
7, 5280, Note_on_c, 5, 74, 100
7, 5340, Note_on_c, 5, 74, 0
7, 5340, Note_on_c, 5, 67, 0
7, 5340, Note_on_c, 5, 67, 100
7, 5340, Note_on_c, 5, 74, 100
7, 5460, Note_on_c, 5, 74, 0
7, 5460, Note_on_c, 5, 74, 100
7, 5520, Note_on_c, 5, 74, 0
7, 5520, Note_on_c, 5, 67, 0
7, 5520, Note_on_c, 5, 65, 100
7, 5520, Note_on_c, 5, 72, 100
7, 5640, Note_on_c, 5, 72, 0
7, 5640, Note_on_c, 5, 65, 0
7, 5640, Note_on_c, 5, 70, 100
7, 5640, Note_on_c, 5, 62, 100
7, 5700, Note_on_c, 5, 62, 0
7, 5700, Note_on_c, 5, 70, 0
7, 5700, Note_on_c, 5, 65, 100
7, 5700, Note_on_c, 5, 62, 100
7, 5880, Note_on_c, 5, 62, 0
7, 5880, Note_on_c, 5, 65, 0
7, 6000, Note_on_c, 5, 67, 100
7, 6000, Note_on_c, 5, 74, 100
7, 6060, Note_on_c, 5, 74, 0
7, 6060, Note_on_c, 5, 67, 0
7, 6060, Note_on_c, 5, 67, 100
7, 6060, Note_on_c, 5, 74, 100
7, 6240, Note_on_c, 5, 74, 0
7, 6240, Note_on_c, 5, 67, 0
7, 6240, Note_on_c, 5, 65, 100
7, 6240, Note_on_c, 5, 72, 100
7, 6360, Note_on_c, 5, 72, 0
7, 6360, Note_on_c, 5, 65, 0
7, 6360, Note_on_c, 5, 63, 100
7, 6360, Note_on_c, 5, 70, 100
7, 6420, Note_on_c, 5, 70, 0
7, 6420, Note_on_c, 5, 63, 0
7, 6420, Note_on_c, 5, 65, 100
7, 6420, Note_on_c, 5, 72, 100
7, 6660, Note_on_c, 5, 72, 0
7, 6660, Note_on_c, 5, 65, 0
7, 7020, Note_on_c, 5, 67, 100
7, 7020, Note_on_c, 5, 70, 100
7, 7080, Note_on_c, 5, 70, 0
7, 7080, Note_on_c, 5, 67, 0
7, 7080, Note_on_c, 5, 67, 100
7, 7080, Note_on_c, 5, 75, 100
7, 7140, Note_on_c, 5, 75, 0
7, 7140, Note_on_c, 5, 67, 0
7, 7140, Note_on_c, 5, 67, 100
7, 7140, Note_on_c, 5, 75, 100
7, 7200, Note_on_c, 5, 75, 0
7, 7200, Note_on_c, 5, 67, 0
7, 7200, Note_on_c, 5, 67, 100
7, 7200, Note_on_c, 5, 75, 100
7, 7320, Note_on_c, 5, 75, 0
7, 7320, Note_on_c, 5, 67, 0
7, 7320, Note_on_c, 5, 70, 100
7, 7320, Note_on_c, 5, 77, 100
7, 7380, Note_on_c, 5, 77, 0
7, 7380, Note_on_c, 5, 70, 0
7, 7380, Note_on_c, 5, 65, 100
7, 7380, Note_on_c, 5, 74, 100
7, 7500, Note_on_c, 5, 74, 0
7, 7500, Note_on_c, 5, 65, 0
7, 7500, Note_on_c, 5, 65, 100
7, 7500, Note_on_c, 5, 72, 100
7, 7620, Note_on_c, 5, 72, 0
7, 7620, Note_on_c, 5, 65, 0
7, 7620, Note_on_c, 5, 65, 100
7, 7620, Note_on_c, 5, 70, 100
7, 7740, Note_on_c, 5, 70, 0
7, 7740, Note_on_c, 5, 65, 0
7, 7860, Note_on_c, 5, 70, 100
7, 7920, Note_on_c, 5, 70, 0
7, 7920, Note_on_c, 5, 74, 100
7, 7980, Note_on_c, 5, 74, 0
7, 7980, Note_on_c, 5, 74, 100
7, 8100, Note_on_c, 5, 74, 0
7, 8100, Note_on_c, 5, 72, 100
7, 8220, Note_on_c, 5, 72, 0
7, 8220, Note_on_c, 5, 70, 100
7, 8280, Note_on_c, 5, 70, 0
7, 8280, Note_on_c, 5, 74, 100
7, 8640, Note_on_c, 5, 74, 0
7, 8700, Note_on_c, 5, 62, 100
7, 8700, Note_on_c, 5, 74, 100
7, 8760, Note_on_c, 5, 74, 0
7, 8760, Note_on_c, 5, 62, 0
7, 8760, Note_on_c, 5, 65, 100
7, 8760, Note_on_c, 5, 77, 100
7, 8820, Note_on_c, 5, 77, 0
7, 8820, Note_on_c, 5, 65, 0
7, 8820, Note_on_c, 5, 67, 100
7, 8820, Note_on_c, 5, 79, 100
7, 8940, Note_on_c, 5, 79, 0
7, 9000, Note_on_c, 5, 67, 0
7, 9000, Note_on_c, 5, 79, 100
7, 9000, Note_on_c, 5, 62, 100
7, 9060, Note_on_c, 5, 62, 0
7, 9060, Note_on_c, 5, 62, 100
7, 9120, Note_on_c, 5, 62, 0
7, 9120, Note_on_c, 5, 65, 100
7, 9180, Note_on_c, 5, 65, 0
7, 9180, Note_on_c, 5, 67, 100
7, 9240, Note_on_c, 5, 67, 0
7, 9240, Note_on_c, 5, 65, 100
7, 9300, Note_on_c, 5, 65, 0
7, 9300, Note_on_c, 5, 79, 0
7, 9300, Note_on_c, 5, 79, 100
7, 9300, Note_on_c, 5, 67, 100
7, 9360, Note_on_c, 5, 67, 0
7, 9360, Note_on_c, 5, 79, 0
7, 9360, Note_on_c, 5, 77, 100
7, 9360, Note_on_c, 5, 65, 100
7, 9420, Note_on_c, 5, 77, 0
7, 9420, Note_on_c, 5, 74, 100
7, 9480, Note_on_c, 5, 74, 0
7, 9480, Note_on_c, 5, 65, 0
7, 9480, Note_on_c, 5, 72, 100
7, 9480, Note_on_c, 5, 62, 100
7, 9540, Note_on_c, 5, 62, 0
7, 9540, Note_on_c, 5, 72, 0
7, 9540, Note_on_c, 5, 74, 100
7, 9540, Note_on_c, 5, 60, 100
7, 9600, Note_on_c, 5, 60, 0
7, 9600, Note_on_c, 5, 74, 0
7, 9600, Note_on_c, 5, 72, 100
7, 9600, Note_on_c, 5, 58, 100
7, 9660, Note_on_c, 5, 58, 0
7, 9660, Note_on_c, 5, 72, 0
7, 9660, Note_on_c, 5, 70, 100
7, 9840, Note_on_c, 5, 70, 0
7, 10020, Note_on_c, 5, 74, 100
7, 10020, Note_on_c, 5, 67, 100
7, 10080, Note_on_c, 5, 67, 0
7, 10080, Note_on_c, 5, 74, 0
7, 10080, Note_on_c, 5, 79, 100
7, 10080, Note_on_c, 5, 70, 100
7, 10140, Note_on_c, 5, 70, 0
7, 10140, Note_on_c, 5, 79, 0
7, 10140, Note_on_c, 5, 81, 100
7, 10140, Note_on_c, 5, 72, 100
7, 10200, Note_on_c, 5, 72, 0
7, 10200, Note_on_c, 5, 81, 0
7, 10200, Note_on_c, 5, 82, 100
7, 10200, Note_on_c, 5, 74, 100
7, 10260, Note_on_c, 5, 74, 0
7, 10260, Note_on_c, 5, 82, 0
7, 10260, Note_on_c, 5, 81, 100
7, 10260, Note_on_c, 5, 72, 100
7, 10380, Note_on_c, 5, 72, 0
7, 10380, Note_on_c, 5, 81, 0
7, 10380, Note_on_c, 5, 81, 100
7, 10380, Note_on_c, 5, 70, 100
7, 10440, Note_on_c, 5, 81, 0
7, 10440, Note_on_c, 5, 79, 100
7, 10500, Note_on_c, 5, 79, 0
7, 10500, Note_on_c, 5, 70, 0
7, 10500, Note_on_c, 5, 81, 100
7, 10500, Note_on_c, 5, 69, 100
7, 10560, Note_on_c, 5, 81, 0
7, 10560, Note_on_c, 5, 79, 100
7, 10620, Note_on_c, 5, 79, 0
7, 10620, Note_on_c, 5, 69, 0
7, 10620, Note_on_c, 5, 77, 100
7, 10620, Note_on_c, 5, 74, 100
7, 10620, Note_on_c, 5, 62, 100
7, 10680, Note_on_c, 5, 62, 0
7, 10680, Note_on_c, 5, 74, 0
7, 10680, Note_on_c, 5, 77, 0
7, 10680, Note_on_c, 5, 77, 100
7, 10680, Note_on_c, 5, 65, 100
7, 10740, Note_on_c, 5, 65, 0
7, 10740, Note_on_c, 5, 77, 0
7, 10740, Note_on_c, 5, 79, 100
7, 10740, Note_on_c, 5, 67, 100
7, 10920, Note_on_c, 5, 67, 0
7, 10920, Note_on_c, 5, 79, 0
7, 10920, Note_on_c, 5, 79, 100
7, 11220, Note_on_c, 5, 79, 0
7, 11220, Note_on_c, 5, 79, 100
7, 11280, Note_on_c, 5, 79, 0
7, 11280, Note_on_c, 5, 77, 100
7, 11340, Note_on_c, 5, 77, 0
7, 11340, Note_on_c, 5, 74, 100
7, 11460, Note_on_c, 5, 74, 0
7, 11460, Note_on_c, 5, 72, 100
7, 11640, Note_on_c, 5, 72, 0
7, 11640, Note_on_c, 5, 70, 100
7, 11640, Note_on_c, 5, 58, 100
7, 11700, Note_on_c, 5, 58, 0
7, 11700, Note_on_c, 5, 70, 0
7, 11700, Note_on_c, 5, 72, 100
7, 11700, Note_on_c, 5, 60, 100
7, 11760, Note_on_c, 5, 60, 0
7, 11760, Note_on_c, 5, 72, 0
7, 11760, Note_on_c, 5, 74, 100
7, 11760, Note_on_c, 5, 62, 100
7, 11880, Note_on_c, 5, 62, 0
7, 11880, Note_on_c, 5, 74, 0
7, 11880, Note_on_c, 5, 74, 100
7, 11880, Note_on_c, 5, 62, 100
7, 11940, Note_on_c, 5, 62, 0
7, 11940, Note_on_c, 5, 74, 0
7, 11940, Note_on_c, 5, 72, 100
7, 11940, Note_on_c, 5, 60, 100
7, 12060, Note_on_c, 5, 60, 0
7, 12060, Note_on_c, 5, 72, 0
7, 12060, Note_on_c, 5, 58, 100
7, 12060, Note_on_c, 5, 70, 100
7, 12120, Note_on_c, 5, 70, 0
7, 12120, Note_on_c, 5, 58, 0
7, 12120, Note_on_c, 5, 62, 100
7, 12120, Note_on_c, 5, 72, 100
7, 12150, Note_on_c, 5, 72, 0
7, 12150, Note_on_c, 5, 74, 100
7, 12360, Note_on_c, 5, 62, 0
7, 12480, Note_on_c, 5, 74, 0
7, 12540, Note_on_c, 5, 74, 100
7, 12540, Note_on_c, 5, 62, 100
7, 12600, Note_on_c, 5, 62, 0
7, 12600, Note_on_c, 5, 74, 0
7, 12600, Note_on_c, 5, 77, 100
7, 12600, Note_on_c, 5, 65, 100
7, 12660, Note_on_c, 5, 65, 0
7, 12660, Note_on_c, 5, 77, 0
7, 12660, Note_on_c, 5, 79, 100
7, 12660, Note_on_c, 5, 67, 100
7, 12840, Note_on_c, 5, 67, 0
7, 12840, Note_on_c, 5, 79, 0
7, 12840, Note_on_c, 5, 74, 100
7, 12840, Note_on_c, 5, 62, 100
7, 12900, Note_on_c, 5, 62, 0
7, 12900, Note_on_c, 5, 74, 0
7, 12900, Note_on_c, 5, 74, 100
7, 12900, Note_on_c, 5, 62, 100
7, 12960, Note_on_c, 5, 62, 0
7, 12960, Note_on_c, 5, 74, 0
7, 12960, Note_on_c, 5, 77, 100
7, 12960, Note_on_c, 5, 65, 100
7, 13020, Note_on_c, 5, 65, 0
7, 13020, Note_on_c, 5, 77, 0
7, 13020, Note_on_c, 5, 79, 100
7, 13020, Note_on_c, 5, 67, 100
7, 13080, Note_on_c, 5, 79, 0
7, 13140, Note_on_c, 5, 67, 0
7, 13140, Note_on_c, 5, 79, 100
7, 13140, Note_on_c, 5, 67, 100
7, 13200, Note_on_c, 5, 67, 0
7, 13200, Note_on_c, 5, 79, 0
7, 13200, Note_on_c, 5, 77, 100
7, 13200, Note_on_c, 5, 65, 100
7, 13260, Note_on_c, 5, 65, 0
7, 13260, Note_on_c, 5, 77, 0
7, 13260, Note_on_c, 5, 74, 100
7, 13260, Note_on_c, 5, 62, 100
7, 13320, Note_on_c, 5, 62, 0
7, 13320, Note_on_c, 5, 74, 0
7, 13320, Note_on_c, 5, 72, 100
7, 13320, Note_on_c, 5, 60, 100
7, 13380, Note_on_c, 5, 60, 0
7, 13380, Note_on_c, 5, 72, 0
7, 13380, Note_on_c, 5, 74, 100
7, 13380, Note_on_c, 5, 58, 100
7, 13410, Note_on_c, 5, 74, 0
7, 13410, Note_on_c, 5, 72, 100
7, 13440, Note_on_c, 5, 72, 0
7, 13440, Note_on_c, 5, 58, 0
7, 13440, Note_on_c, 5, 70, 100
7, 13680, Note_on_c, 5, 70, 0
7, 13860, Note_on_c, 5, 75, 100
7, 13860, Note_on_c, 5, 67, 100
7, 13920, Note_on_c, 5, 67, 0
7, 13920, Note_on_c, 5, 75, 0
7, 13920, Note_on_c, 5, 79, 100
7, 13920, Note_on_c, 5, 70, 100
7, 13980, Note_on_c, 5, 70, 0
7, 13980, Note_on_c, 5, 79, 0
7, 13980, Note_on_c, 5, 81, 100
7, 13980, Note_on_c, 5, 72, 100
7, 14040, Note_on_c, 5, 72, 0
7, 14040, Note_on_c, 5, 81, 0
7, 14040, Note_on_c, 5, 82, 100
7, 14040, Note_on_c, 5, 74, 100
7, 14100, Note_on_c, 5, 74, 0
7, 14100, Note_on_c, 5, 82, 0
7, 14100, Note_on_c, 5, 81, 100
7, 14100, Note_on_c, 5, 72, 100
7, 14220, Note_on_c, 5, 72, 0
7, 14220, Note_on_c, 5, 81, 0
7, 14220, Note_on_c, 5, 79, 100
7, 14220, Note_on_c, 5, 70, 100
7, 14340, Note_on_c, 5, 70, 0
7, 14340, Note_on_c, 5, 79, 0
7, 14340, Note_on_c, 5, 77, 100
7, 14340, Note_on_c, 5, 69, 100
7, 14580, Note_on_c, 5, 69, 0
7, 14580, Note_on_c, 5, 77, 0
7, 14640, Note_on_c, 5, 63, 100
7, 14640, Note_on_c, 5, 75, 100
7, 14700, Note_on_c, 5, 75, 0
7, 14700, Note_on_c, 5, 82, 100
7, 14820, Note_on_c, 5, 82, 0
7, 14820, Note_on_c, 5, 82, 100
7, 14940, Note_on_c, 5, 82, 0
7, 14940, Note_on_c, 5, 75, 100
7, 15060, Note_on_c, 5, 75, 0
7, 15060, Note_on_c, 5, 77, 100
7, 15120, Note_on_c, 5, 63, 0
7, 15120, Note_on_c, 5, 65, 100
7, 15180, Note_on_c, 5, 77, 0
7, 15180, Note_on_c, 5, 82, 100
7, 15300, Note_on_c, 5, 82, 0
7, 15300, Note_on_c, 5, 82, 100
7, 15540, Note_on_c, 5, 82, 0
7, 15600, Note_on_c, 5, 65, 0
7, 15600, Note_on_c, 5, 70, 100
7, 15600, Note_on_c, 5, 74, 100
7, 15600, Note_on_c, 5, 82, 100
7, 15780, Note_on_c, 5, 82, 0
7, 15780, Note_on_c, 5, 74, 0
7, 15780, Note_on_c, 5, 70, 0
7, 15780, Note_on_c, 5, 70, 100
7, 15780, Note_on_c, 5, 74, 100
7, 15780, Note_on_c, 5, 82, 100
7, 15960, Note_on_c, 5, 82, 0
7, 15960, Note_on_c, 5, 74, 0
7, 15960, Note_on_c, 5, 70, 0
7, 15960, Note_on_c, 5, 69, 100
7, 15960, Note_on_c, 5, 82, 100
7, 15960, Note_on_c, 5, 75, 100
7, 15990, Note_on_c, 5, 75, 0
7, 15990, Note_on_c, 5, 82, 0
7, 15990, Note_on_c, 5, 74, 100
7, 15990, Note_on_c, 5, 81, 100
7, 16200, Note_on_c, 5, 81, 0
7, 16200, Note_on_c, 5, 74, 0
7, 16200, Note_on_c, 5, 69, 0
7, 16200, Note_on_c, 5, 62, 100
7, 16200, Note_on_c, 5, 74, 100
7, 16260, Note_on_c, 5, 74, 0
7, 16260, Note_on_c, 5, 62, 0
7, 16260, Note_on_c, 5, 62, 100
7, 16260, Note_on_c, 5, 74, 100
7, 16320, Note_on_c, 5, 74, 0
7, 16320, Note_on_c, 5, 62, 0
7, 16320, Note_on_c, 5, 65, 100
7, 16320, Note_on_c, 5, 77, 100
7, 16380, Note_on_c, 5, 77, 0
7, 16380, Note_on_c, 5, 65, 0
7, 16380, Note_on_c, 5, 67, 100
7, 16380, Note_on_c, 5, 79, 100
7, 16500, Note_on_c, 5, 79, 0
7, 16500, Note_on_c, 5, 67, 0
7, 16500, Note_on_c, 5, 79, 100
7, 16500, Note_on_c, 5, 70, 100
7, 16560, Note_on_c, 5, 70, 0
7, 16560, Note_on_c, 5, 67, 100
7, 16650, Note_on_c, 5, 67, 0
7, 16650, Note_on_c, 5, 79, 0
7, 16680, Note_on_c, 5, 62, 100
7, 16680, Note_on_c, 5, 74, 100
7, 16740, Note_on_c, 5, 74, 0
7, 16740, Note_on_c, 5, 62, 0
7, 16740, Note_on_c, 5, 62, 100
7, 16740, Note_on_c, 5, 74, 100
7, 16800, Note_on_c, 5, 74, 0
7, 16800, Note_on_c, 5, 62, 0
7, 16800, Note_on_c, 5, 65, 100
7, 16800, Note_on_c, 5, 77, 100
7, 16860, Note_on_c, 5, 77, 0
7, 16860, Note_on_c, 5, 65, 0
7, 16860, Note_on_c, 5, 67, 100
7, 16860, Note_on_c, 5, 79, 100
7, 16980, Note_on_c, 5, 79, 0
7, 16980, Note_on_c, 5, 67, 0
7, 16980, Note_on_c, 5, 82, 100
7, 16980, Note_on_c, 5, 65, 100
7, 17040, Note_on_c, 5, 65, 0
7, 17040, Note_on_c, 5, 82, 0
7, 17040, Note_on_c, 5, 67, 100
7, 17040, Note_on_c, 5, 79, 100
7, 17130, Note_on_c, 5, 79, 0
7, 17130, Note_on_c, 5, 67, 0
7, 17160, Note_on_c, 5, 62, 100
7, 17160, Note_on_c, 5, 74, 100
7, 17220, Note_on_c, 5, 74, 0
7, 17220, Note_on_c, 5, 62, 0
7, 17220, Note_on_c, 5, 65, 100
7, 17220, Note_on_c, 5, 77, 100
7, 17280, Note_on_c, 5, 77, 0
7, 17280, Note_on_c, 5, 65, 0
7, 17280, Note_on_c, 5, 67, 100
7, 17280, Note_on_c, 5, 79, 100
7, 17460, Note_on_c, 5, 79, 0
7, 17580, Note_on_c, 5, 67, 0
7, 17580, End_track
8, 0, Start_track
8, 0, MIDI_port, 0
8, 0, Title_t, "-----------------------------------"
8, 0, End_track
9, 0, Start_track
9, 0, MIDI_port, 0
9, 0, Title_t, "Aim To Be A Pokemon Master"
9, 0, End_track
10, 0, Start_track
10, 0, MIDI_port, 0
10, 0, Title_t, "English Pokemon TV Series Theme"
10, 0, End_track
11, 0, Start_track
11, 0, MIDI_port, 0
11, 0, Title_t, "Sequenced by Ash Ketchum"
11, 0, End_track
12, 0, Start_track
12, 0, MIDI_port, 0
12, 0, Title_t, "Using Cakewalk Home Studio 7"
12, 0, End_track
0, 0, End_of_file
