0, 0, Header, 1, 18, 120
1, 0, Start_track
1, 0, Time_signature, 4, 2, 24, 8
1, 0, Key_signature, 0, "major"
1, 0, Tempo, 480000
1, 0, Marker_t, "WinJammer Demo"
1, 0, Marker_t, "        "
1, 0, End_track
2, 0, Start_track
2, 0, MIDI_port, 0
2, 0, Title_t, "WinJammer Demo"
2, 0, Program_c, 0, 38
2, 0, Control_c, 0, 7, 127
2, 0, Control_c, 0, 0, 0
2, 0, Control_c, 0, 99, 1
2, 0, Control_c, 0, 98, 32
2, 0, Control_c, 0, 6, 60
2, 0, Control_c, 0, 99, 1
2, 0, Control_c, 0, 98, 33
2, 0, Control_c, 0, 6, 71
2, 0, Control_c, 0, 99, 1
2, 0, Control_c, 0, 98, 99
2, 0, Control_c, 0, 6, 61
2, 0, Control_c, 0, 99, 1
2, 0, Control_c, 0, 98, 102
2, 0, Control_c, 0, 6, 74
2, 0, Control_c, 0, 91, 10
2, 8190, Note_on_c, 0, 34, 127
2, 8210, Note_on_c, 0, 34, 0
2, 8310, Note_on_c, 0, 34, 127
2, 8330, Note_on_c, 0, 34, 0
2, 8400, Note_on_c, 0, 30, 127
2, 8420, Note_on_c, 0, 30, 0
2, 8490, Note_on_c, 0, 30, 127
2, 8510, Note_on_c, 0, 30, 0
2, 8610, Note_on_c, 0, 30, 127
2, 8630, Note_on_c, 0, 30, 0
2, 8670, Note_on_c, 0, 32, 127
2, 8690, Note_on_c, 0, 32, 0
2, 8790, Note_on_c, 0, 32, 127
2, 8810, Note_on_c, 0, 32, 0
2, 8880, Note_on_c, 0, 34, 127
2, 8900, Note_on_c, 0, 34, 0
2, 8970, Note_on_c, 0, 34, 127
2, 8990, Note_on_c, 0, 34, 0
2, 9090, Note_on_c, 0, 34, 127
2, 9110, Note_on_c, 0, 34, 0
2, 9150, Note_on_c, 0, 34, 127
2, 9170, Note_on_c, 0, 34, 0
2, 9270, Note_on_c, 0, 34, 127
2, 9290, Note_on_c, 0, 34, 0
2, 9360, Note_on_c, 0, 30, 127
2, 9380, Note_on_c, 0, 30, 0
2, 9450, Note_on_c, 0, 30, 127
2, 9470, Note_on_c, 0, 30, 0
2, 9570, Note_on_c, 0, 30, 127
2, 9590, Note_on_c, 0, 30, 0
2, 9630, Note_on_c, 0, 32, 127
2, 9650, Note_on_c, 0, 32, 0
2, 9750, Note_on_c, 0, 32, 127
2, 9770, Note_on_c, 0, 32, 0
2, 9840, Note_on_c, 0, 34, 127
2, 9860, Note_on_c, 0, 34, 0
2, 9930, Note_on_c, 0, 34, 127
2, 9950, Note_on_c, 0, 34, 0
2, 10050, Note_on_c, 0, 34, 127
2, 10070, Note_on_c, 0, 34, 0
2, 10110, Note_on_c, 0, 34, 127
2, 10130, Note_on_c, 0, 34, 0
2, 10230, Note_on_c, 0, 34, 127
2, 10250, Note_on_c, 0, 34, 0
2, 10320, Note_on_c, 0, 30, 127
2, 10340, Note_on_c, 0, 30, 0
2, 10410, Note_on_c, 0, 30, 127
2, 10430, Note_on_c, 0, 30, 0
2, 10530, Note_on_c, 0, 30, 127
2, 10550, Note_on_c, 0, 30, 0
2, 10590, Note_on_c, 0, 32, 127
2, 10610, Note_on_c, 0, 32, 0
2, 10710, Note_on_c, 0, 32, 127
2, 10730, Note_on_c, 0, 32, 0
2, 10800, Note_on_c, 0, 34, 127
2, 10820, Note_on_c, 0, 34, 0
2, 10890, Note_on_c, 0, 34, 127
2, 10910, Note_on_c, 0, 34, 0
2, 11010, Note_on_c, 0, 34, 127
2, 11030, Note_on_c, 0, 34, 0
2, 11070, Note_on_c, 0, 34, 127
2, 11090, Note_on_c, 0, 34, 0
2, 11190, Note_on_c, 0, 34, 127
2, 11210, Note_on_c, 0, 34, 0
2, 11280, Note_on_c, 0, 30, 127
2, 11300, Note_on_c, 0, 30, 0
2, 11370, Note_on_c, 0, 30, 127
2, 11390, Note_on_c, 0, 30, 0
2, 11490, Note_on_c, 0, 30, 127
2, 11510, Note_on_c, 0, 30, 0
2, 11550, Note_on_c, 0, 32, 127
2, 11570, Note_on_c, 0, 32, 0
2, 11670, Note_on_c, 0, 32, 127
2, 11690, Note_on_c, 0, 32, 0
2, 11760, Note_on_c, 0, 34, 127
2, 11780, Note_on_c, 0, 34, 0
2, 11850, Note_on_c, 0, 34, 127
2, 11870, Note_on_c, 0, 34, 0
2, 11970, Note_on_c, 0, 34, 127
2, 11990, Note_on_c, 0, 34, 0
2, 12030, Note_on_c, 0, 34, 127
2, 12050, Note_on_c, 0, 34, 0
2, 12150, Note_on_c, 0, 34, 127
2, 12170, Note_on_c, 0, 34, 0
2, 12240, Note_on_c, 0, 30, 127
2, 12260, Note_on_c, 0, 30, 0
2, 12330, Note_on_c, 0, 30, 127
2, 12350, Note_on_c, 0, 30, 0
2, 12450, Note_on_c, 0, 30, 127
2, 12470, Note_on_c, 0, 30, 0
2, 12510, Note_on_c, 0, 32, 127
2, 12530, Note_on_c, 0, 32, 0
2, 12630, Note_on_c, 0, 32, 127
2, 12650, Note_on_c, 0, 32, 0
2, 12720, Note_on_c, 0, 34, 127
2, 12740, Note_on_c, 0, 34, 0
2, 12810, Note_on_c, 0, 34, 127
2, 12830, Note_on_c, 0, 34, 0
2, 12930, Note_on_c, 0, 34, 127
2, 12950, Note_on_c, 0, 34, 0
2, 12990, Note_on_c, 0, 34, 127
2, 13010, Note_on_c, 0, 34, 0
2, 13110, Note_on_c, 0, 34, 127
2, 13130, Note_on_c, 0, 34, 0
2, 13200, Note_on_c, 0, 30, 127
2, 13220, Note_on_c, 0, 30, 0
2, 13290, Note_on_c, 0, 30, 127
2, 13310, Note_on_c, 0, 30, 0
2, 13410, Note_on_c, 0, 30, 127
2, 13430, Note_on_c, 0, 30, 0
2, 13470, Note_on_c, 0, 32, 127
2, 13490, Note_on_c, 0, 32, 0
2, 13590, Note_on_c, 0, 32, 127
2, 13610, Note_on_c, 0, 32, 0
2, 13680, Note_on_c, 0, 34, 127
2, 13700, Note_on_c, 0, 34, 0
2, 13770, Note_on_c, 0, 34, 127
2, 13790, Note_on_c, 0, 34, 0
2, 13890, Note_on_c, 0, 34, 127
2, 13910, Note_on_c, 0, 34, 0
2, 13950, Note_on_c, 0, 34, 127
2, 13970, Note_on_c, 0, 34, 0
2, 14070, Note_on_c, 0, 34, 127
2, 14090, Note_on_c, 0, 34, 0
2, 14160, Note_on_c, 0, 30, 127
2, 14180, Note_on_c, 0, 30, 0
2, 14250, Note_on_c, 0, 30, 127
2, 14270, Note_on_c, 0, 30, 0
2, 14370, Note_on_c, 0, 30, 127
2, 14390, Note_on_c, 0, 30, 0
2, 14430, Note_on_c, 0, 32, 127
2, 14450, Note_on_c, 0, 32, 0
2, 14550, Note_on_c, 0, 32, 127
2, 14570, Note_on_c, 0, 32, 0
2, 14640, Note_on_c, 0, 34, 127
2, 14660, Note_on_c, 0, 34, 0
2, 14730, Note_on_c, 0, 34, 127
2, 14750, Note_on_c, 0, 34, 0
2, 14850, Note_on_c, 0, 34, 127
2, 14870, Note_on_c, 0, 34, 0
2, 14910, Note_on_c, 0, 34, 127
2, 14930, Note_on_c, 0, 34, 0
2, 15030, Note_on_c, 0, 34, 127
2, 15050, Note_on_c, 0, 34, 0
2, 15120, Note_on_c, 0, 30, 127
2, 15140, Note_on_c, 0, 30, 0
2, 15210, Note_on_c, 0, 30, 127
2, 15230, Note_on_c, 0, 30, 0
2, 15330, Note_on_c, 0, 30, 127
2, 15350, Note_on_c, 0, 30, 0
2, 15390, Note_on_c, 0, 32, 127
2, 15410, Note_on_c, 0, 32, 0
2, 15510, Note_on_c, 0, 32, 127
2, 15530, Note_on_c, 0, 32, 0
2, 15600, Note_on_c, 0, 34, 127
2, 15620, Note_on_c, 0, 34, 0
2, 15690, Note_on_c, 0, 34, 127
2, 15710, Note_on_c, 0, 34, 0
2, 15810, Note_on_c, 0, 34, 127
2, 15830, Note_on_c, 0, 34, 0
2, 15870, Note_on_c, 0, 34, 127
2, 15890, Note_on_c, 0, 34, 0
2, 15990, Note_on_c, 0, 34, 127
2, 16010, Note_on_c, 0, 34, 0
2, 16080, Note_on_c, 0, 30, 127
2, 16100, Note_on_c, 0, 30, 0
2, 16170, Note_on_c, 0, 30, 127
2, 16190, Note_on_c, 0, 30, 0
2, 16290, Note_on_c, 0, 30, 127
2, 16310, Note_on_c, 0, 30, 0
2, 16350, Note_on_c, 0, 32, 127
2, 16370, Note_on_c, 0, 32, 0
2, 16470, Note_on_c, 0, 32, 127
2, 16490, Note_on_c, 0, 32, 0
2, 16560, Note_on_c, 0, 34, 127
2, 16580, Note_on_c, 0, 34, 0
2, 16650, Note_on_c, 0, 34, 127
2, 16670, Note_on_c, 0, 34, 0
2, 16770, Note_on_c, 0, 34, 127
2, 16790, Note_on_c, 0, 34, 0
2, 16830, Note_on_c, 0, 34, 127
2, 16850, Note_on_c, 0, 34, 0
2, 16950, Note_on_c, 0, 34, 127
2, 16970, Note_on_c, 0, 34, 0
2, 17040, Note_on_c, 0, 30, 127
2, 17060, Note_on_c, 0, 30, 0
2, 17130, Note_on_c, 0, 30, 127
2, 17150, Note_on_c, 0, 30, 0
2, 17250, Note_on_c, 0, 30, 127
2, 17270, Note_on_c, 0, 30, 0
2, 17310, Note_on_c, 0, 32, 127
2, 17330, Note_on_c, 0, 32, 0
2, 17430, Note_on_c, 0, 32, 127
2, 17450, Note_on_c, 0, 32, 0
2, 17520, Note_on_c, 0, 34, 127
2, 17540, Note_on_c, 0, 34, 0
2, 17610, Note_on_c, 0, 34, 127
2, 17630, Note_on_c, 0, 34, 0
2, 17730, Note_on_c, 0, 34, 127
2, 17750, Note_on_c, 0, 34, 0
2, 17790, Note_on_c, 0, 34, 127
2, 17810, Note_on_c, 0, 34, 0
2, 17910, Note_on_c, 0, 34, 127
2, 17930, Note_on_c, 0, 34, 0
2, 18000, Note_on_c, 0, 30, 127
2, 18020, Note_on_c, 0, 30, 0
2, 18090, Note_on_c, 0, 30, 127
2, 18110, Note_on_c, 0, 30, 0
2, 18210, Note_on_c, 0, 30, 127
2, 18230, Note_on_c, 0, 30, 0
2, 18270, Note_on_c, 0, 32, 127
2, 18290, Note_on_c, 0, 32, 0
2, 18390, Note_on_c, 0, 32, 127
2, 18410, Note_on_c, 0, 32, 0
2, 18480, Note_on_c, 0, 34, 127
2, 18500, Note_on_c, 0, 34, 0
2, 18570, Note_on_c, 0, 34, 127
2, 18590, Note_on_c, 0, 34, 0
2, 18690, Note_on_c, 0, 34, 127
2, 18710, Note_on_c, 0, 34, 0
2, 18750, Note_on_c, 0, 34, 127
2, 18770, Note_on_c, 0, 34, 0
2, 18870, Note_on_c, 0, 34, 127
2, 18890, Note_on_c, 0, 34, 0
2, 18960, Note_on_c, 0, 30, 127
2, 18980, Note_on_c, 0, 30, 0
2, 19050, Note_on_c, 0, 30, 127
2, 19070, Note_on_c, 0, 30, 0
2, 19170, Note_on_c, 0, 30, 127
2, 19190, Note_on_c, 0, 30, 0
2, 19230, Note_on_c, 0, 32, 127
2, 19250, Note_on_c, 0, 32, 0
2, 19350, Note_on_c, 0, 32, 127
2, 19370, Note_on_c, 0, 32, 0
2, 19440, Note_on_c, 0, 34, 127
2, 19460, Note_on_c, 0, 34, 0
2, 19530, Note_on_c, 0, 34, 127
2, 19550, Note_on_c, 0, 34, 0
2, 19650, Note_on_c, 0, 34, 127
2, 19670, Note_on_c, 0, 34, 0
2, 19710, Note_on_c, 0, 34, 127
2, 19730, Note_on_c, 0, 34, 0
2, 19830, Note_on_c, 0, 34, 127
2, 19850, Note_on_c, 0, 34, 0
2, 19920, Note_on_c, 0, 30, 127
2, 19940, Note_on_c, 0, 30, 0
2, 20010, Note_on_c, 0, 30, 127
2, 20030, Note_on_c, 0, 30, 0
2, 20130, Note_on_c, 0, 30, 127
2, 20150, Note_on_c, 0, 30, 0
2, 20190, Note_on_c, 0, 32, 127
2, 20210, Note_on_c, 0, 32, 0
2, 20310, Note_on_c, 0, 32, 127
2, 20330, Note_on_c, 0, 32, 0
2, 20400, Note_on_c, 0, 34, 127
2, 20420, Note_on_c, 0, 34, 0
2, 20490, Note_on_c, 0, 34, 127
2, 20510, Note_on_c, 0, 34, 0
2, 20610, Note_on_c, 0, 34, 127
2, 20630, Note_on_c, 0, 34, 0
2, 20670, Note_on_c, 0, 34, 127
2, 20690, Note_on_c, 0, 34, 0
2, 20790, Note_on_c, 0, 34, 127
2, 20810, Note_on_c, 0, 34, 0
2, 20880, Note_on_c, 0, 30, 127
2, 20900, Note_on_c, 0, 30, 0
2, 20970, Note_on_c, 0, 30, 127
2, 20990, Note_on_c, 0, 30, 0
2, 21090, Note_on_c, 0, 30, 127
2, 21110, Note_on_c, 0, 30, 0
2, 21150, Note_on_c, 0, 32, 127
2, 21170, Note_on_c, 0, 32, 0
2, 21270, Note_on_c, 0, 32, 127
2, 21290, Note_on_c, 0, 32, 0
2, 21360, Note_on_c, 0, 34, 127
2, 21380, Note_on_c, 0, 34, 0
2, 21450, Note_on_c, 0, 34, 127
2, 21470, Note_on_c, 0, 34, 0
2, 21570, Note_on_c, 0, 34, 127
2, 21590, Note_on_c, 0, 34, 0
2, 21630, Note_on_c, 0, 34, 127
2, 21650, Note_on_c, 0, 34, 0
2, 21750, Note_on_c, 0, 34, 127
2, 21770, Note_on_c, 0, 34, 0
2, 21840, Note_on_c, 0, 30, 127
2, 21860, Note_on_c, 0, 30, 0
2, 21930, Note_on_c, 0, 30, 127
2, 21950, Note_on_c, 0, 30, 0
2, 22050, Note_on_c, 0, 30, 127
2, 22070, Note_on_c, 0, 30, 0
2, 22110, Note_on_c, 0, 32, 127
2, 22130, Note_on_c, 0, 32, 0
2, 22230, Note_on_c, 0, 32, 127
2, 22250, Note_on_c, 0, 32, 0
2, 22320, Note_on_c, 0, 34, 127
2, 22340, Note_on_c, 0, 34, 0
2, 22410, Note_on_c, 0, 34, 127
2, 22430, Note_on_c, 0, 34, 0
2, 22530, Note_on_c, 0, 34, 127
2, 22550, Note_on_c, 0, 34, 0
2, 22590, Note_on_c, 0, 34, 127
2, 22610, Note_on_c, 0, 34, 0
2, 22710, Note_on_c, 0, 34, 127
2, 22730, Note_on_c, 0, 34, 0
2, 22800, Note_on_c, 0, 30, 127
2, 22820, Note_on_c, 0, 30, 0
2, 22890, Note_on_c, 0, 30, 127
2, 22910, Note_on_c, 0, 30, 0
2, 23010, Note_on_c, 0, 30, 127
2, 23030, Note_on_c, 0, 30, 0
2, 23070, Note_on_c, 0, 32, 127
2, 23090, Note_on_c, 0, 32, 0
2, 23190, Note_on_c, 0, 32, 127
2, 23210, Note_on_c, 0, 32, 0
2, 23280, Note_on_c, 0, 34, 127
2, 23300, Note_on_c, 0, 34, 0
2, 23370, Note_on_c, 0, 34, 127
2, 23390, Note_on_c, 0, 34, 0
2, 23490, Note_on_c, 0, 34, 127
2, 23510, Note_on_c, 0, 34, 0
2, 27390, Note_on_c, 0, 34, 127
2, 27415, Note_on_c, 0, 34, 0
2, 27510, Note_on_c, 0, 34, 127
2, 27535, Note_on_c, 0, 34, 0
2, 27600, Note_on_c, 0, 34, 127
2, 27625, Note_on_c, 0, 34, 0
2, 27690, Note_on_c, 0, 34, 127
2, 27715, Note_on_c, 0, 34, 0
2, 27810, Note_on_c, 0, 32, 127
2, 27835, Note_on_c, 0, 32, 0
2, 27870, Note_on_c, 0, 34, 127
2, 27895, Note_on_c, 0, 34, 0
2, 27990, Note_on_c, 0, 34, 127
2, 28015, Note_on_c, 0, 34, 0
2, 28080, Note_on_c, 0, 34, 127
2, 28105, Note_on_c, 0, 34, 0
2, 28170, Note_on_c, 0, 34, 127
2, 28195, Note_on_c, 0, 34, 0
2, 28290, Note_on_c, 0, 32, 127
2, 28315, Note_on_c, 0, 32, 0
2, 28350, Note_on_c, 0, 34, 127
2, 28375, Note_on_c, 0, 34, 0
2, 28470, Note_on_c, 0, 34, 127
2, 28495, Note_on_c, 0, 34, 0
2, 28560, Note_on_c, 0, 34, 127
2, 28585, Note_on_c, 0, 34, 0
2, 28650, Note_on_c, 0, 34, 127
2, 28675, Note_on_c, 0, 34, 0
2, 28770, Note_on_c, 0, 32, 127
2, 28795, Note_on_c, 0, 32, 0
2, 28830, Note_on_c, 0, 34, 127
2, 28855, Note_on_c, 0, 34, 0
2, 28950, Note_on_c, 0, 34, 127
2, 28975, Note_on_c, 0, 34, 0
2, 29040, Note_on_c, 0, 34, 127
2, 29065, Note_on_c, 0, 34, 0
2, 29130, Note_on_c, 0, 34, 127
2, 29155, Note_on_c, 0, 34, 0
2, 29250, Note_on_c, 0, 32, 127
2, 29275, Note_on_c, 0, 32, 0
2, 29310, Note_on_c, 0, 34, 127
2, 29335, Note_on_c, 0, 34, 0
2, 29430, Note_on_c, 0, 34, 127
2, 29455, Note_on_c, 0, 34, 0
2, 29520, Note_on_c, 0, 34, 127
2, 29545, Note_on_c, 0, 34, 0
2, 29610, Note_on_c, 0, 34, 127
2, 29635, Note_on_c, 0, 34, 0
2, 29730, Note_on_c, 0, 32, 127
2, 29755, Note_on_c, 0, 32, 0
2, 29790, Note_on_c, 0, 34, 127
2, 29815, Note_on_c, 0, 34, 0
2, 29910, Note_on_c, 0, 34, 127
2, 29935, Note_on_c, 0, 34, 0
2, 30000, Note_on_c, 0, 34, 127
2, 30025, Note_on_c, 0, 34, 0
2, 30090, Note_on_c, 0, 34, 127
2, 30115, Note_on_c, 0, 34, 0
2, 30210, Note_on_c, 0, 32, 127
2, 30235, Note_on_c, 0, 32, 0
2, 30270, Note_on_c, 0, 34, 127
2, 30295, Note_on_c, 0, 34, 0
2, 30390, Note_on_c, 0, 34, 127
2, 30415, Note_on_c, 0, 34, 0
2, 30480, Note_on_c, 0, 34, 127
2, 30505, Note_on_c, 0, 34, 0
2, 30570, Note_on_c, 0, 34, 127
2, 30595, Note_on_c, 0, 34, 0
2, 30690, Note_on_c, 0, 32, 127
2, 30715, Note_on_c, 0, 32, 0
2, 30750, Note_on_c, 0, 34, 127
2, 30775, Note_on_c, 0, 34, 0
2, 30870, Note_on_c, 0, 34, 127
2, 30895, Note_on_c, 0, 34, 0
2, 30960, Note_on_c, 0, 34, 127
2, 30985, Note_on_c, 0, 34, 0
2, 31050, Note_on_c, 0, 34, 127
2, 31075, Note_on_c, 0, 34, 0
2, 31170, Note_on_c, 0, 32, 127
2, 31195, Note_on_c, 0, 32, 0
2, 31230, Note_on_c, 0, 34, 127
2, 31255, Note_on_c, 0, 34, 0
2, 31350, Note_on_c, 0, 34, 127
2, 31375, Note_on_c, 0, 34, 0
2, 31440, Note_on_c, 0, 34, 127
2, 31465, Note_on_c, 0, 34, 0
2, 31530, Note_on_c, 0, 34, 127
2, 31555, Note_on_c, 0, 34, 0
2, 31650, Note_on_c, 0, 32, 127
2, 31675, Note_on_c, 0, 32, 0
2, 31710, Note_on_c, 0, 34, 127
2, 31735, Note_on_c, 0, 34, 0
2, 31830, Note_on_c, 0, 34, 127
2, 31855, Note_on_c, 0, 34, 0
2, 31920, Note_on_c, 0, 34, 127
2, 31945, Note_on_c, 0, 34, 0
2, 32010, Note_on_c, 0, 34, 127
2, 32035, Note_on_c, 0, 34, 0
2, 32130, Note_on_c, 0, 32, 127
2, 32155, Note_on_c, 0, 32, 0
2, 32190, Note_on_c, 0, 34, 127
2, 32215, Note_on_c, 0, 34, 0
2, 32310, Note_on_c, 0, 34, 127
2, 32335, Note_on_c, 0, 34, 0
2, 32400, Note_on_c, 0, 34, 127
2, 32425, Note_on_c, 0, 34, 0
2, 32490, Note_on_c, 0, 34, 127
2, 32515, Note_on_c, 0, 34, 0
2, 32610, Note_on_c, 0, 32, 127
2, 32635, Note_on_c, 0, 32, 0
2, 32670, Note_on_c, 0, 34, 127
2, 32695, Note_on_c, 0, 34, 0
2, 32790, Note_on_c, 0, 34, 127
2, 32815, Note_on_c, 0, 34, 0
2, 32880, Note_on_c, 0, 34, 127
2, 32905, Note_on_c, 0, 34, 0
2, 32970, Note_on_c, 0, 34, 127
2, 32995, Note_on_c, 0, 34, 0
2, 33090, Note_on_c, 0, 32, 127
2, 33115, Note_on_c, 0, 32, 0
2, 33150, Note_on_c, 0, 34, 127
2, 33175, Note_on_c, 0, 34, 0
2, 33270, Note_on_c, 0, 34, 127
2, 33295, Note_on_c, 0, 34, 0
2, 33360, Note_on_c, 0, 34, 127
2, 33385, Note_on_c, 0, 34, 0
2, 33450, Note_on_c, 0, 34, 127
2, 33475, Note_on_c, 0, 34, 0
2, 33570, Note_on_c, 0, 32, 127
2, 33595, Note_on_c, 0, 32, 0
2, 33630, Note_on_c, 0, 34, 127
2, 33655, Note_on_c, 0, 34, 0
2, 33750, Note_on_c, 0, 34, 127
2, 33775, Note_on_c, 0, 34, 0
2, 33840, Note_on_c, 0, 34, 127
2, 33865, Note_on_c, 0, 34, 0
2, 33930, Note_on_c, 0, 34, 127
2, 33955, Note_on_c, 0, 34, 0
2, 34050, Note_on_c, 0, 32, 127
2, 34075, Note_on_c, 0, 32, 0
2, 34110, Note_on_c, 0, 34, 127
2, 34135, Note_on_c, 0, 34, 0
2, 34230, Note_on_c, 0, 34, 127
2, 34255, Note_on_c, 0, 34, 0
2, 34320, Note_on_c, 0, 34, 127
2, 34345, Note_on_c, 0, 34, 0
2, 34410, Note_on_c, 0, 34, 127
2, 34435, Note_on_c, 0, 34, 0
2, 34530, Note_on_c, 0, 32, 127
2, 34555, Note_on_c, 0, 32, 0
2, 34590, Note_on_c, 0, 34, 127
2, 34615, Note_on_c, 0, 34, 0
2, 34710, Note_on_c, 0, 34, 127
2, 34735, Note_on_c, 0, 34, 0
2, 34800, Note_on_c, 0, 34, 127
2, 34825, Note_on_c, 0, 34, 0
2, 34890, Note_on_c, 0, 34, 127
2, 34915, Note_on_c, 0, 34, 0
2, 35010, Note_on_c, 0, 32, 127
2, 35035, Note_on_c, 0, 32, 0
2, 35070, Note_on_c, 0, 34, 127
2, 35095, Note_on_c, 0, 34, 0
2, 35190, Note_on_c, 0, 34, 127
2, 35215, Note_on_c, 0, 34, 0
2, 35280, Note_on_c, 0, 34, 127
2, 35305, Note_on_c, 0, 34, 0
2, 35370, Note_on_c, 0, 34, 127
2, 35395, Note_on_c, 0, 34, 0
2, 35490, Note_on_c, 0, 32, 127
2, 35515, Note_on_c, 0, 32, 0
2, 35550, Note_on_c, 0, 34, 127
2, 35575, Note_on_c, 0, 34, 0
2, 35670, Note_on_c, 0, 34, 127
2, 35695, Note_on_c, 0, 34, 0
2, 35760, Note_on_c, 0, 34, 127
2, 35785, Note_on_c, 0, 34, 0
2, 35850, Note_on_c, 0, 34, 127
2, 35875, Note_on_c, 0, 34, 0
2, 35970, Note_on_c, 0, 32, 127
2, 35995, Note_on_c, 0, 32, 0
2, 36030, Note_on_c, 0, 34, 127
2, 36055, Note_on_c, 0, 34, 0
2, 36150, Note_on_c, 0, 34, 127
2, 36175, Note_on_c, 0, 34, 0
2, 36240, Note_on_c, 0, 34, 127
2, 36265, Note_on_c, 0, 34, 0
2, 36330, Note_on_c, 0, 34, 127
2, 36355, Note_on_c, 0, 34, 0
2, 36450, Note_on_c, 0, 32, 127
2, 36475, Note_on_c, 0, 32, 0
2, 36510, Note_on_c, 0, 34, 127
2, 36535, Note_on_c, 0, 34, 0
2, 36630, Note_on_c, 0, 34, 127
2, 36655, Note_on_c, 0, 34, 0
2, 36720, Note_on_c, 0, 34, 127
2, 36745, Note_on_c, 0, 34, 0
2, 36810, Note_on_c, 0, 34, 127
2, 36835, Note_on_c, 0, 34, 0
2, 36930, Note_on_c, 0, 32, 127
2, 36955, Note_on_c, 0, 32, 0
2, 36990, Note_on_c, 0, 34, 127
2, 37015, Note_on_c, 0, 34, 0
2, 37110, Note_on_c, 0, 34, 127
2, 37135, Note_on_c, 0, 34, 0
2, 37200, Note_on_c, 0, 34, 127
2, 37225, Note_on_c, 0, 34, 0
2, 37290, Note_on_c, 0, 34, 127
2, 37315, Note_on_c, 0, 34, 0
2, 37410, Note_on_c, 0, 32, 127
2, 37435, Note_on_c, 0, 32, 0
2, 37470, Note_on_c, 0, 34, 127
2, 37495, Note_on_c, 0, 34, 0
2, 37590, Note_on_c, 0, 34, 127
2, 37615, Note_on_c, 0, 34, 0
2, 37680, Note_on_c, 0, 34, 127
2, 37705, Note_on_c, 0, 34, 0
2, 37770, Note_on_c, 0, 34, 127
2, 37795, Note_on_c, 0, 34, 0
2, 37890, Note_on_c, 0, 32, 127
2, 37915, Note_on_c, 0, 32, 0
2, 37950, Note_on_c, 0, 34, 127
2, 37975, Note_on_c, 0, 34, 0
2, 38070, Note_on_c, 0, 34, 127
2, 38095, Note_on_c, 0, 34, 0
2, 38160, Note_on_c, 0, 34, 127
2, 38185, Note_on_c, 0, 34, 0
2, 38250, Note_on_c, 0, 34, 127
2, 38275, Note_on_c, 0, 34, 0
2, 38370, Note_on_c, 0, 32, 127
2, 38395, Note_on_c, 0, 32, 0
2, 38430, Note_on_c, 0, 34, 127
2, 38455, Note_on_c, 0, 34, 0
2, 38550, Note_on_c, 0, 34, 127
2, 38575, Note_on_c, 0, 34, 0
2, 38640, Note_on_c, 0, 34, 127
2, 38665, Note_on_c, 0, 34, 0
2, 38730, Note_on_c, 0, 34, 127
2, 38755, Note_on_c, 0, 34, 0
2, 38850, Note_on_c, 0, 32, 127
2, 38875, Note_on_c, 0, 32, 0
2, 38910, Note_on_c, 0, 34, 127
2, 38930, Note_on_c, 0, 34, 0
2, 39030, Note_on_c, 0, 34, 127
2, 39050, Note_on_c, 0, 34, 0
2, 39120, Note_on_c, 0, 30, 127
2, 39140, Note_on_c, 0, 30, 0
2, 39210, Note_on_c, 0, 30, 127
2, 39230, Note_on_c, 0, 30, 0
2, 39330, Note_on_c, 0, 30, 127
2, 39350, Note_on_c, 0, 30, 0
2, 39390, Note_on_c, 0, 32, 127
2, 39410, Note_on_c, 0, 32, 0
2, 39510, Note_on_c, 0, 32, 127
2, 39530, Note_on_c, 0, 32, 0
2, 39600, Note_on_c, 0, 34, 127
2, 39620, Note_on_c, 0, 34, 0
2, 39690, Note_on_c, 0, 34, 127
2, 39710, Note_on_c, 0, 34, 0
2, 39810, Note_on_c, 0, 34, 127
2, 39830, Note_on_c, 0, 34, 0
2, 39870, Note_on_c, 0, 34, 127
2, 39890, Note_on_c, 0, 34, 0
2, 39990, Note_on_c, 0, 34, 127
2, 40010, Note_on_c, 0, 34, 0
2, 40080, Note_on_c, 0, 30, 127
2, 40100, Note_on_c, 0, 30, 0
2, 40170, Note_on_c, 0, 30, 127
2, 40190, Note_on_c, 0, 30, 0
2, 40290, Note_on_c, 0, 30, 127
2, 40310, Note_on_c, 0, 30, 0
2, 40350, Note_on_c, 0, 32, 127
2, 40370, Note_on_c, 0, 32, 0
2, 40470, Note_on_c, 0, 32, 127
2, 40490, Note_on_c, 0, 32, 0
2, 40560, Note_on_c, 0, 34, 127
2, 40580, Note_on_c, 0, 34, 0
2, 40650, Note_on_c, 0, 34, 127
2, 40670, Note_on_c, 0, 34, 0
2, 40770, Note_on_c, 0, 34, 127
2, 40790, Note_on_c, 0, 34, 0
2, 40830, Note_on_c, 0, 34, 127
2, 40850, Note_on_c, 0, 34, 0
2, 40950, Note_on_c, 0, 34, 127
2, 40970, Note_on_c, 0, 34, 0
2, 41040, Note_on_c, 0, 30, 127
2, 41060, Note_on_c, 0, 30, 0
2, 41130, Note_on_c, 0, 30, 127
2, 41150, Note_on_c, 0, 30, 0
2, 41250, Note_on_c, 0, 30, 127
2, 41270, Note_on_c, 0, 30, 0
2, 41310, Note_on_c, 0, 32, 127
2, 41330, Note_on_c, 0, 32, 0
2, 41430, Note_on_c, 0, 32, 127
2, 41450, Note_on_c, 0, 32, 0
2, 41520, Note_on_c, 0, 34, 127
2, 41540, Note_on_c, 0, 34, 0
2, 41610, Note_on_c, 0, 34, 127
2, 41630, Note_on_c, 0, 34, 0
2, 41730, Note_on_c, 0, 34, 127
2, 41750, Note_on_c, 0, 34, 0
2, 41790, Note_on_c, 0, 34, 127
2, 41810, Note_on_c, 0, 34, 0
2, 41910, Note_on_c, 0, 34, 127
2, 41930, Note_on_c, 0, 34, 0
2, 42000, Note_on_c, 0, 30, 127
2, 42020, Note_on_c, 0, 30, 0
2, 42090, Note_on_c, 0, 30, 127
2, 42110, Note_on_c, 0, 30, 0
2, 42210, Note_on_c, 0, 30, 127
2, 42230, Note_on_c, 0, 30, 0
2, 42270, Note_on_c, 0, 32, 127
2, 42290, Note_on_c, 0, 32, 0
2, 42390, Note_on_c, 0, 32, 127
2, 42410, Note_on_c, 0, 32, 0
2, 42480, Note_on_c, 0, 34, 127
2, 42500, Note_on_c, 0, 34, 0
2, 42570, Note_on_c, 0, 34, 127
2, 42590, Note_on_c, 0, 34, 0
2, 42690, Note_on_c, 0, 34, 127
2, 42710, Note_on_c, 0, 34, 0
2, 42750, Note_on_c, 0, 34, 127
2, 42770, Note_on_c, 0, 34, 0
2, 42870, Note_on_c, 0, 34, 127
2, 42890, Note_on_c, 0, 34, 0
2, 42960, Note_on_c, 0, 30, 127
2, 42980, Note_on_c, 0, 30, 0
2, 43050, Note_on_c, 0, 30, 127
2, 43070, Note_on_c, 0, 30, 0
2, 43170, Note_on_c, 0, 30, 127
2, 43190, Note_on_c, 0, 30, 0
2, 43230, Note_on_c, 0, 32, 127
2, 43250, Note_on_c, 0, 32, 0
2, 43350, Note_on_c, 0, 32, 127
2, 43370, Note_on_c, 0, 32, 0
2, 43440, Note_on_c, 0, 34, 127
2, 43460, Note_on_c, 0, 34, 0
2, 43530, Note_on_c, 0, 34, 127
2, 43550, Note_on_c, 0, 34, 0
2, 43650, Note_on_c, 0, 34, 127
2, 43670, Note_on_c, 0, 34, 0
2, 43710, Note_on_c, 0, 34, 127
2, 43730, Note_on_c, 0, 34, 0
2, 43830, Note_on_c, 0, 34, 127
2, 43850, Note_on_c, 0, 34, 0
2, 43920, Note_on_c, 0, 30, 127
2, 43940, Note_on_c, 0, 30, 0
2, 44010, Note_on_c, 0, 30, 127
2, 44030, Note_on_c, 0, 30, 0
2, 44130, Note_on_c, 0, 30, 127
2, 44150, Note_on_c, 0, 30, 0
2, 44190, Note_on_c, 0, 32, 127
2, 44210, Note_on_c, 0, 32, 0
2, 44310, Note_on_c, 0, 32, 127
2, 44330, Note_on_c, 0, 32, 0
2, 44400, Note_on_c, 0, 34, 127
2, 44420, Note_on_c, 0, 34, 0
2, 44490, Note_on_c, 0, 34, 127
2, 44510, Note_on_c, 0, 34, 0
2, 44610, Note_on_c, 0, 34, 127
2, 44630, Note_on_c, 0, 34, 0
2, 44670, Note_on_c, 0, 34, 127
2, 44690, Note_on_c, 0, 34, 0
2, 44790, Note_on_c, 0, 34, 127
2, 44810, Note_on_c, 0, 34, 0
2, 44880, Note_on_c, 0, 30, 127
2, 44900, Note_on_c, 0, 30, 0
2, 44970, Note_on_c, 0, 30, 127
2, 44990, Note_on_c, 0, 30, 0
2, 45090, Note_on_c, 0, 30, 127
2, 45110, Note_on_c, 0, 30, 0
2, 45150, Note_on_c, 0, 32, 127
2, 45170, Note_on_c, 0, 32, 0
2, 45270, Note_on_c, 0, 32, 127
2, 45290, Note_on_c, 0, 32, 0
2, 45360, Note_on_c, 0, 34, 127
2, 45380, Note_on_c, 0, 34, 0
2, 45450, Note_on_c, 0, 34, 127
2, 45470, Note_on_c, 0, 34, 0
2, 45570, Note_on_c, 0, 34, 127
2, 45590, Note_on_c, 0, 34, 0
2, 45630, Note_on_c, 0, 34, 127
2, 45650, Note_on_c, 0, 34, 0
2, 45750, Note_on_c, 0, 34, 127
2, 45770, Note_on_c, 0, 34, 0
2, 45840, Note_on_c, 0, 30, 127
2, 45860, Note_on_c, 0, 30, 0
2, 45930, Note_on_c, 0, 30, 127
2, 45950, Note_on_c, 0, 30, 0
2, 46050, Note_on_c, 0, 30, 127
2, 46070, Note_on_c, 0, 30, 0
2, 46110, Note_on_c, 0, 32, 127
2, 46130, Note_on_c, 0, 32, 0
2, 46230, Note_on_c, 0, 32, 127
2, 46250, Note_on_c, 0, 32, 0
2, 46320, Note_on_c, 0, 34, 127
2, 46340, Note_on_c, 0, 34, 0
2, 46410, Note_on_c, 0, 34, 127
2, 46430, Note_on_c, 0, 34, 0
2, 46530, Note_on_c, 0, 34, 127
2, 46550, Note_on_c, 0, 34, 0
2, 46590, Note_on_c, 0, 34, 127
2, 46610, Note_on_c, 0, 34, 0
2, 46710, Note_on_c, 0, 34, 127
2, 46730, Note_on_c, 0, 34, 0
2, 46800, Note_on_c, 0, 30, 127
2, 46820, Note_on_c, 0, 30, 0
2, 46890, Note_on_c, 0, 30, 127
2, 46910, Note_on_c, 0, 30, 0
2, 47010, Note_on_c, 0, 30, 127
2, 47030, Note_on_c, 0, 30, 0
2, 47070, Note_on_c, 0, 32, 127
2, 47090, Note_on_c, 0, 32, 0
2, 47190, Note_on_c, 0, 32, 127
2, 47210, Note_on_c, 0, 32, 0
2, 47280, Note_on_c, 0, 34, 127
2, 47300, Note_on_c, 0, 34, 0
2, 47370, Note_on_c, 0, 34, 127
2, 47390, Note_on_c, 0, 34, 0
2, 47490, Note_on_c, 0, 34, 127
2, 47510, Note_on_c, 0, 34, 0
2, 47550, Note_on_c, 0, 34, 127
2, 47570, Note_on_c, 0, 34, 0
2, 47670, Note_on_c, 0, 34, 127
2, 47690, Note_on_c, 0, 34, 0
2, 47760, Note_on_c, 0, 30, 127
2, 47780, Note_on_c, 0, 30, 0
2, 47850, Note_on_c, 0, 30, 127
2, 47870, Note_on_c, 0, 30, 0
2, 47970, Note_on_c, 0, 30, 127
2, 47990, Note_on_c, 0, 30, 0
2, 48030, Note_on_c, 0, 32, 127
2, 48050, Note_on_c, 0, 32, 0
2, 48150, Note_on_c, 0, 32, 127
2, 48170, Note_on_c, 0, 32, 0
2, 48240, Note_on_c, 0, 34, 127
2, 48260, Note_on_c, 0, 34, 0
2, 48330, Note_on_c, 0, 34, 127
2, 48350, Note_on_c, 0, 34, 0
2, 48450, Note_on_c, 0, 34, 127
2, 48470, Note_on_c, 0, 34, 0
2, 48510, Note_on_c, 0, 34, 127
2, 48530, Note_on_c, 0, 34, 0
2, 48630, Note_on_c, 0, 34, 127
2, 48650, Note_on_c, 0, 34, 0
2, 48720, Note_on_c, 0, 30, 127
2, 48740, Note_on_c, 0, 30, 0
2, 48810, Note_on_c, 0, 30, 127
2, 48830, Note_on_c, 0, 30, 0
2, 48930, Note_on_c, 0, 30, 127
2, 48950, Note_on_c, 0, 30, 0
2, 48990, Note_on_c, 0, 32, 127
2, 49010, Note_on_c, 0, 32, 0
2, 49110, Note_on_c, 0, 32, 127
2, 49130, Note_on_c, 0, 32, 0
2, 49200, Note_on_c, 0, 34, 127
2, 49220, Note_on_c, 0, 34, 0
2, 49290, Note_on_c, 0, 34, 127
2, 49310, Note_on_c, 0, 34, 0
2, 49410, Note_on_c, 0, 34, 127
2, 49430, Note_on_c, 0, 34, 0
2, 49470, Note_on_c, 0, 34, 127
2, 49490, Note_on_c, 0, 34, 0
2, 49590, Note_on_c, 0, 34, 127
2, 49610, Note_on_c, 0, 34, 0
2, 49680, Note_on_c, 0, 30, 127
2, 49700, Note_on_c, 0, 30, 0
2, 49770, Note_on_c, 0, 30, 127
2, 49790, Note_on_c, 0, 30, 0
2, 49890, Note_on_c, 0, 30, 127
2, 49910, Note_on_c, 0, 30, 0
2, 49950, Note_on_c, 0, 32, 127
2, 49970, Note_on_c, 0, 32, 0
2, 50070, Note_on_c, 0, 32, 127
2, 50090, Note_on_c, 0, 32, 0
2, 50160, Note_on_c, 0, 34, 127
2, 50180, Note_on_c, 0, 34, 0
2, 50250, Note_on_c, 0, 34, 127
2, 50270, Note_on_c, 0, 34, 0
2, 50370, Note_on_c, 0, 34, 127
2, 50390, Note_on_c, 0, 34, 0
2, 54795, Control_c, 0, 99, 1
2, 54795, Control_c, 0, 98, 32
2, 54795, Control_c, 0, 6, 64
2, 54795, Control_c, 0, 99, 1
2, 54795, Control_c, 0, 98, 33
2, 54795, Control_c, 0, 6, 64
2, 54795, Control_c, 0, 99, 1
2, 54795, Control_c, 0, 98, 99
2, 54795, Control_c, 0, 6, 64
2, 54795, Control_c, 0, 99, 1
2, 54795, Control_c, 0, 98, 102
2, 54795, Control_c, 0, 6, 64
2, 54810, Control_c, 0, 0, 0
2, 54810, Program_c, 0, 0
2, 54810, Control_c, 0, 7, 127
2, 54810, Control_c, 0, 91, 80
2, 54810, Control_c, 0, 93, 0
2, 54810, Control_c, 0, 119, 0
2, 54810, Control_c, 0, 121, 0
2, 54810, End_track
3, 0, Start_track
3, 0, MIDI_port, 0
3, 0, Title_t, "WinJammer Demo"
3, 5, Control_c, 1, 0, 0
3, 5, Program_c, 1, 81
3, 5, Control_c, 1, 91, 100
3, 5, Control_c, 1, 7, 50
3, 510, Note_on_c, 1, 46, 96
3, 535, Note_on_c, 1, 46, 0
3, 540, Note_on_c, 1, 34, 91
3, 565, Note_on_c, 1, 34, 0
3, 570, Note_on_c, 1, 46, 96
3, 595, Note_on_c, 1, 46, 0
3, 600, Note_on_c, 1, 34, 91
3, 625, Note_on_c, 1, 34, 0
3, 630, Note_on_c, 1, 46, 96
3, 655, Note_on_c, 1, 46, 0
3, 660, Note_on_c, 1, 34, 91
3, 685, Note_on_c, 1, 34, 0
3, 690, Note_on_c, 1, 46, 96
3, 715, Note_on_c, 1, 46, 0
3, 720, Note_on_c, 1, 34, 91
3, 745, Note_on_c, 1, 34, 0
3, 750, Note_on_c, 1, 42, 96
3, 775, Note_on_c, 1, 42, 0
3, 780, Note_on_c, 1, 30, 91
3, 805, Note_on_c, 1, 30, 0
3, 810, Note_on_c, 1, 42, 96
3, 835, Note_on_c, 1, 42, 0
3, 840, Note_on_c, 1, 30, 91
3, 865, Note_on_c, 1, 30, 0
3, 870, Note_on_c, 1, 42, 96
3, 895, Note_on_c, 1, 42, 0
3, 900, Note_on_c, 1, 30, 91
3, 925, Note_on_c, 1, 30, 0
3, 930, Note_on_c, 1, 42, 96
3, 955, Note_on_c, 1, 42, 0
3, 960, Note_on_c, 1, 30, 91
3, 985, Note_on_c, 1, 30, 0
3, 990, Note_on_c, 1, 44, 96
3, 1015, Note_on_c, 1, 44, 0
3, 1020, Note_on_c, 1, 32, 91
3, 1045, Note_on_c, 1, 32, 0
3, 1050, Note_on_c, 1, 44, 96
3, 1075, Note_on_c, 1, 44, 0
3, 1080, Note_on_c, 1, 32, 91
3, 1105, Note_on_c, 1, 32, 0
3, 1110, Note_on_c, 1, 44, 96
3, 1135, Note_on_c, 1, 44, 0
3, 1140, Note_on_c, 1, 32, 91
3, 1165, Note_on_c, 1, 32, 0
3, 1170, Note_on_c, 1, 44, 96
3, 1195, Note_on_c, 1, 44, 0
3, 1200, Note_on_c, 1, 32, 91
3, 1225, Note_on_c, 1, 32, 0
3, 1230, Note_on_c, 1, 46, 96
3, 1255, Note_on_c, 1, 46, 0
3, 1260, Note_on_c, 1, 34, 91
3, 1285, Note_on_c, 1, 34, 0
3, 1290, Note_on_c, 1, 46, 96
3, 1315, Note_on_c, 1, 46, 0
3, 1320, Note_on_c, 1, 34, 91
3, 1345, Note_on_c, 1, 34, 0
3, 1350, Note_on_c, 1, 46, 96
3, 1375, Note_on_c, 1, 46, 0
3, 1380, Note_on_c, 1, 34, 91
3, 1405, Note_on_c, 1, 34, 0
3, 1410, Note_on_c, 1, 46, 96
3, 1435, Note_on_c, 1, 46, 0
3, 1440, Note_on_c, 1, 34, 91
3, 1465, Note_on_c, 1, 34, 0
3, 1470, Note_on_c, 1, 46, 96
3, 1495, Note_on_c, 1, 46, 0
3, 1500, Note_on_c, 1, 34, 91
3, 1525, Note_on_c, 1, 34, 0
3, 1530, Note_on_c, 1, 46, 96
3, 1555, Note_on_c, 1, 46, 0
3, 1560, Note_on_c, 1, 34, 91
3, 1585, Note_on_c, 1, 34, 0
3, 1590, Note_on_c, 1, 46, 96
3, 1615, Note_on_c, 1, 46, 0
3, 1620, Note_on_c, 1, 34, 91
3, 1645, Note_on_c, 1, 34, 0
3, 1650, Note_on_c, 1, 46, 96
3, 1675, Note_on_c, 1, 46, 0
3, 1680, Note_on_c, 1, 34, 91
3, 1705, Note_on_c, 1, 34, 0
3, 1710, Note_on_c, 1, 49, 96
3, 1735, Note_on_c, 1, 49, 0
3, 1740, Note_on_c, 1, 37, 91
3, 1765, Note_on_c, 1, 37, 0
3, 1770, Note_on_c, 1, 49, 96
3, 1795, Note_on_c, 1, 49, 0
3, 1800, Note_on_c, 1, 37, 91
3, 1825, Note_on_c, 1, 37, 0
3, 1830, Note_on_c, 1, 49, 96
3, 1855, Note_on_c, 1, 49, 0
3, 1860, Note_on_c, 1, 37, 91
3, 1885, Note_on_c, 1, 37, 0
3, 1890, Note_on_c, 1, 49, 96
3, 1915, Note_on_c, 1, 49, 0
3, 1920, Note_on_c, 1, 37, 91
3, 1945, Note_on_c, 1, 37, 0
3, 1950, Note_on_c, 1, 48, 96
3, 1975, Note_on_c, 1, 48, 0
3, 1980, Note_on_c, 1, 36, 91
3, 2005, Note_on_c, 1, 36, 0
3, 2010, Note_on_c, 1, 48, 96
3, 2035, Note_on_c, 1, 48, 0
3, 2040, Note_on_c, 1, 36, 91
3, 2065, Note_on_c, 1, 36, 0
3, 2070, Note_on_c, 1, 48, 96
3, 2095, Note_on_c, 1, 48, 0
3, 2100, Note_on_c, 1, 36, 91
3, 2125, Note_on_c, 1, 36, 0
3, 2130, Note_on_c, 1, 48, 96
3, 2155, Note_on_c, 1, 48, 0
3, 2160, Note_on_c, 1, 36, 91
3, 2185, Note_on_c, 1, 36, 0
3, 2190, Note_on_c, 1, 46, 96
3, 2215, Note_on_c, 1, 46, 0
3, 2220, Note_on_c, 1, 34, 91
3, 2245, Note_on_c, 1, 34, 0
3, 2250, Note_on_c, 1, 46, 96
3, 2275, Note_on_c, 1, 46, 0
3, 2280, Note_on_c, 1, 34, 91
3, 2305, Note_on_c, 1, 34, 0
3, 2310, Note_on_c, 1, 46, 96
3, 2335, Note_on_c, 1, 46, 0
3, 2340, Note_on_c, 1, 34, 91
3, 2365, Note_on_c, 1, 34, 0
3, 2370, Note_on_c, 1, 46, 96
3, 2395, Note_on_c, 1, 46, 0
3, 2400, Note_on_c, 1, 34, 91
3, 2425, Note_on_c, 1, 34, 0
3, 2430, Note_on_c, 1, 46, 96
3, 2455, Note_on_c, 1, 46, 0
3, 2460, Note_on_c, 1, 34, 91
3, 2485, Note_on_c, 1, 34, 0
3, 2490, Note_on_c, 1, 46, 96
3, 2515, Note_on_c, 1, 46, 0
3, 2520, Note_on_c, 1, 34, 91
3, 2545, Note_on_c, 1, 34, 0
3, 2550, Note_on_c, 1, 46, 96
3, 2575, Note_on_c, 1, 46, 0
3, 2580, Note_on_c, 1, 34, 91
3, 2605, Note_on_c, 1, 34, 0
3, 2610, Note_on_c, 1, 46, 96
3, 2635, Note_on_c, 1, 46, 0
3, 2640, Note_on_c, 1, 34, 91
3, 2665, Note_on_c, 1, 34, 0
3, 2670, Note_on_c, 1, 42, 96
3, 2695, Note_on_c, 1, 42, 0
3, 2700, Note_on_c, 1, 30, 91
3, 2725, Note_on_c, 1, 30, 0
3, 2730, Note_on_c, 1, 42, 96
3, 2755, Note_on_c, 1, 42, 0
3, 2760, Note_on_c, 1, 30, 91
3, 2785, Note_on_c, 1, 30, 0
3, 2790, Note_on_c, 1, 42, 96
3, 2815, Note_on_c, 1, 42, 0
3, 2820, Note_on_c, 1, 30, 91
3, 2845, Note_on_c, 1, 30, 0
3, 2850, Note_on_c, 1, 42, 96
3, 2875, Note_on_c, 1, 42, 0
3, 2880, Note_on_c, 1, 30, 91
3, 2905, Note_on_c, 1, 30, 0
3, 2910, Note_on_c, 1, 44, 96
3, 2935, Note_on_c, 1, 44, 0
3, 2940, Note_on_c, 1, 32, 91
3, 2965, Note_on_c, 1, 32, 0
3, 2970, Note_on_c, 1, 44, 96
3, 2995, Note_on_c, 1, 44, 0
3, 3000, Note_on_c, 1, 32, 91
3, 3025, Note_on_c, 1, 32, 0
3, 3030, Note_on_c, 1, 44, 96
3, 3055, Note_on_c, 1, 44, 0
3, 3060, Note_on_c, 1, 32, 91
3, 3085, Note_on_c, 1, 32, 0
3, 3090, Note_on_c, 1, 44, 96
3, 3115, Note_on_c, 1, 44, 0
3, 3120, Note_on_c, 1, 32, 91
3, 3145, Note_on_c, 1, 32, 0
3, 3150, Note_on_c, 1, 46, 96
3, 3175, Note_on_c, 1, 46, 0
3, 3180, Note_on_c, 1, 34, 91
3, 3205, Note_on_c, 1, 34, 0
3, 3210, Note_on_c, 1, 46, 96
3, 3235, Note_on_c, 1, 46, 0
3, 3240, Note_on_c, 1, 34, 91
3, 3265, Note_on_c, 1, 34, 0
3, 3270, Note_on_c, 1, 46, 96
3, 3295, Note_on_c, 1, 46, 0
3, 3300, Note_on_c, 1, 34, 91
3, 3325, Note_on_c, 1, 34, 0
3, 3330, Note_on_c, 1, 46, 96
3, 3355, Note_on_c, 1, 46, 0
3, 3360, Note_on_c, 1, 34, 91
3, 3385, Note_on_c, 1, 34, 0
3, 3390, Note_on_c, 1, 46, 96
3, 3415, Note_on_c, 1, 46, 0
3, 3420, Note_on_c, 1, 34, 91
3, 3445, Note_on_c, 1, 34, 0
3, 3450, Note_on_c, 1, 46, 96
3, 3475, Note_on_c, 1, 46, 0
3, 3480, Note_on_c, 1, 34, 91
3, 3505, Note_on_c, 1, 34, 0
3, 3510, Note_on_c, 1, 46, 96
3, 3535, Note_on_c, 1, 46, 0
3, 3540, Note_on_c, 1, 34, 91
3, 3565, Note_on_c, 1, 34, 0
3, 3570, Note_on_c, 1, 46, 96
3, 3595, Note_on_c, 1, 46, 0
3, 3600, Note_on_c, 1, 34, 91
3, 3625, Note_on_c, 1, 34, 0
3, 3630, Note_on_c, 1, 49, 96
3, 3655, Note_on_c, 1, 49, 0
3, 3660, Note_on_c, 1, 37, 91
3, 3685, Note_on_c, 1, 37, 0
3, 3690, Note_on_c, 1, 49, 96
3, 3715, Note_on_c, 1, 49, 0
3, 3720, Note_on_c, 1, 37, 91
3, 3745, Note_on_c, 1, 37, 0
3, 3750, Note_on_c, 1, 49, 96
3, 3775, Note_on_c, 1, 49, 0
3, 3780, Note_on_c, 1, 37, 91
3, 3805, Note_on_c, 1, 37, 0
3, 3810, Note_on_c, 1, 49, 96
3, 3835, Note_on_c, 1, 49, 0
3, 3840, Note_on_c, 1, 37, 91
3, 3865, Note_on_c, 1, 37, 0
3, 3870, Note_on_c, 1, 48, 96
3, 3895, Note_on_c, 1, 48, 0
3, 3900, Note_on_c, 1, 36, 91
3, 3925, Note_on_c, 1, 36, 0
3, 3930, Note_on_c, 1, 48, 96
3, 3955, Note_on_c, 1, 48, 0
3, 3960, Note_on_c, 1, 36, 91
3, 3985, Note_on_c, 1, 36, 0
3, 3990, Note_on_c, 1, 48, 96
3, 4015, Note_on_c, 1, 48, 0
3, 4020, Note_on_c, 1, 36, 91
3, 4045, Note_on_c, 1, 36, 0
3, 4050, Note_on_c, 1, 48, 96
3, 4075, Note_on_c, 1, 48, 0
3, 4080, Note_on_c, 1, 36, 91
3, 4105, Note_on_c, 1, 36, 0
3, 4110, Note_on_c, 1, 46, 96
3, 4135, Note_on_c, 1, 46, 0
3, 4140, Note_on_c, 1, 34, 91
3, 4165, Note_on_c, 1, 34, 0
3, 4170, Note_on_c, 1, 46, 96
3, 4195, Note_on_c, 1, 46, 0
3, 4200, Note_on_c, 1, 34, 91
3, 4225, Note_on_c, 1, 34, 0
3, 4230, Note_on_c, 1, 46, 96
3, 4255, Note_on_c, 1, 46, 0
3, 4260, Note_on_c, 1, 34, 91
3, 4285, Note_on_c, 1, 34, 0
3, 4290, Note_on_c, 1, 46, 96
3, 4315, Note_on_c, 1, 46, 0
3, 4320, Note_on_c, 1, 34, 91
3, 4345, Note_on_c, 1, 34, 0
3, 4350, Note_on_c, 1, 46, 96
3, 4375, Note_on_c, 1, 46, 0
3, 4380, Note_on_c, 1, 34, 91
3, 4405, Note_on_c, 1, 34, 0
3, 4410, Note_on_c, 1, 46, 96
3, 4435, Note_on_c, 1, 46, 0
3, 4440, Note_on_c, 1, 34, 91
3, 4465, Note_on_c, 1, 34, 0
3, 4470, Note_on_c, 1, 46, 96
3, 4495, Note_on_c, 1, 46, 0
3, 4500, Note_on_c, 1, 34, 91
3, 4525, Note_on_c, 1, 34, 0
3, 4530, Note_on_c, 1, 46, 96
3, 4555, Note_on_c, 1, 46, 0
3, 4560, Note_on_c, 1, 34, 91
3, 4585, Note_on_c, 1, 34, 0
3, 4590, Note_on_c, 1, 42, 96
3, 4615, Note_on_c, 1, 42, 0
3, 4620, Note_on_c, 1, 30, 91
3, 4645, Note_on_c, 1, 30, 0
3, 4650, Note_on_c, 1, 42, 96
3, 4675, Note_on_c, 1, 42, 0
3, 4680, Note_on_c, 1, 30, 91
3, 4705, Note_on_c, 1, 30, 0
3, 4710, Note_on_c, 1, 42, 96
3, 4735, Note_on_c, 1, 42, 0
3, 4740, Note_on_c, 1, 30, 91
3, 4765, Note_on_c, 1, 30, 0
3, 4770, Note_on_c, 1, 42, 96
3, 4795, Note_on_c, 1, 42, 0
3, 4800, Note_on_c, 1, 30, 91
3, 4825, Note_on_c, 1, 30, 0
3, 4830, Note_on_c, 1, 44, 96
3, 4855, Note_on_c, 1, 44, 0
3, 4860, Note_on_c, 1, 32, 91
3, 4885, Note_on_c, 1, 32, 0
3, 4890, Note_on_c, 1, 44, 96
3, 4915, Note_on_c, 1, 44, 0
3, 4920, Note_on_c, 1, 32, 91
3, 4945, Note_on_c, 1, 32, 0
3, 4950, Note_on_c, 1, 44, 96
3, 4975, Note_on_c, 1, 44, 0
3, 4980, Note_on_c, 1, 32, 91
3, 5005, Note_on_c, 1, 32, 0
3, 5010, Note_on_c, 1, 44, 96
3, 5035, Note_on_c, 1, 44, 0
3, 5040, Note_on_c, 1, 32, 91
3, 5065, Note_on_c, 1, 32, 0
3, 5070, Note_on_c, 1, 46, 96
3, 5095, Note_on_c, 1, 46, 0
3, 5100, Note_on_c, 1, 34, 91
3, 5125, Note_on_c, 1, 34, 0
3, 5130, Note_on_c, 1, 46, 96
3, 5155, Note_on_c, 1, 46, 0
3, 5160, Note_on_c, 1, 34, 91
3, 5185, Note_on_c, 1, 34, 0
3, 5190, Note_on_c, 1, 46, 96
3, 5215, Note_on_c, 1, 46, 0
3, 5220, Note_on_c, 1, 34, 91
3, 5245, Note_on_c, 1, 34, 0
3, 5250, Note_on_c, 1, 46, 96
3, 5275, Note_on_c, 1, 46, 0
3, 5280, Note_on_c, 1, 34, 91
3, 5305, Note_on_c, 1, 34, 0
3, 5310, Note_on_c, 1, 46, 96
3, 5335, Note_on_c, 1, 46, 0
3, 5340, Note_on_c, 1, 34, 91
3, 5365, Note_on_c, 1, 34, 0
3, 5370, Note_on_c, 1, 46, 96
3, 5395, Note_on_c, 1, 46, 0
3, 5400, Note_on_c, 1, 34, 91
3, 5425, Note_on_c, 1, 34, 0
3, 5430, Note_on_c, 1, 46, 96
3, 5455, Note_on_c, 1, 46, 0
3, 5460, Note_on_c, 1, 34, 91
3, 5485, Note_on_c, 1, 34, 0
3, 5490, Note_on_c, 1, 46, 96
3, 5515, Note_on_c, 1, 46, 0
3, 5520, Note_on_c, 1, 34, 91
3, 5545, Note_on_c, 1, 34, 0
3, 5550, Note_on_c, 1, 49, 96
3, 5575, Note_on_c, 1, 49, 0
3, 5580, Note_on_c, 1, 37, 91
3, 5605, Note_on_c, 1, 37, 0
3, 5610, Note_on_c, 1, 49, 96
3, 5635, Note_on_c, 1, 49, 0
3, 5640, Note_on_c, 1, 37, 91
3, 5665, Note_on_c, 1, 37, 0
3, 5670, Note_on_c, 1, 49, 96
3, 5695, Note_on_c, 1, 49, 0
3, 5700, Note_on_c, 1, 37, 91
3, 5725, Note_on_c, 1, 37, 0
3, 5730, Note_on_c, 1, 49, 96
3, 5755, Note_on_c, 1, 49, 0
3, 5760, Note_on_c, 1, 37, 91
3, 5785, Note_on_c, 1, 37, 0
3, 5790, Note_on_c, 1, 48, 96
3, 5815, Note_on_c, 1, 48, 0
3, 5820, Note_on_c, 1, 36, 91
3, 5845, Note_on_c, 1, 36, 0
3, 5850, Note_on_c, 1, 48, 96
3, 5875, Note_on_c, 1, 48, 0
3, 5880, Note_on_c, 1, 36, 91
3, 5905, Note_on_c, 1, 36, 0
3, 5910, Note_on_c, 1, 48, 96
3, 5935, Note_on_c, 1, 48, 0
3, 5940, Note_on_c, 1, 36, 91
3, 5965, Note_on_c, 1, 36, 0
3, 5970, Note_on_c, 1, 48, 96
3, 5995, Note_on_c, 1, 48, 0
3, 6000, Note_on_c, 1, 36, 91
3, 6025, Note_on_c, 1, 36, 0
3, 6030, Note_on_c, 1, 46, 96
3, 6055, Note_on_c, 1, 46, 0
3, 6060, Note_on_c, 1, 34, 91
3, 6085, Note_on_c, 1, 34, 0
3, 6090, Note_on_c, 1, 46, 96
3, 6115, Note_on_c, 1, 46, 0
3, 6120, Note_on_c, 1, 34, 91
3, 6145, Note_on_c, 1, 34, 0
3, 6150, Note_on_c, 1, 46, 96
3, 6175, Note_on_c, 1, 46, 0
3, 6180, Note_on_c, 1, 34, 91
3, 6205, Note_on_c, 1, 34, 0
3, 6210, Note_on_c, 1, 46, 96
3, 6235, Note_on_c, 1, 46, 0
3, 6240, Note_on_c, 1, 34, 91
3, 6265, Note_on_c, 1, 34, 0
3, 6270, Note_on_c, 1, 46, 96
3, 6295, Note_on_c, 1, 46, 0
3, 6300, Note_on_c, 1, 34, 91
3, 6325, Note_on_c, 1, 34, 0
3, 6330, Note_on_c, 1, 46, 96
3, 6355, Note_on_c, 1, 46, 0
3, 6360, Note_on_c, 1, 34, 91
3, 6385, Note_on_c, 1, 34, 0
3, 6390, Note_on_c, 1, 46, 96
3, 6415, Note_on_c, 1, 46, 0
3, 6420, Note_on_c, 1, 34, 91
3, 6445, Note_on_c, 1, 34, 0
3, 6450, Note_on_c, 1, 46, 96
3, 6475, Note_on_c, 1, 46, 0
3, 6480, Note_on_c, 1, 34, 91
3, 6505, Note_on_c, 1, 34, 0
3, 6510, Note_on_c, 1, 42, 96
3, 6535, Note_on_c, 1, 42, 0
3, 6540, Note_on_c, 1, 30, 91
3, 6565, Note_on_c, 1, 30, 0
3, 6570, Note_on_c, 1, 42, 96
3, 6595, Note_on_c, 1, 42, 0
3, 6600, Note_on_c, 1, 30, 91
3, 6625, Note_on_c, 1, 30, 0
3, 6630, Note_on_c, 1, 42, 96
3, 6655, Note_on_c, 1, 42, 0
3, 6660, Note_on_c, 1, 30, 91
3, 6685, Note_on_c, 1, 30, 0
3, 6690, Note_on_c, 1, 42, 96
3, 6715, Note_on_c, 1, 42, 0
3, 6720, Note_on_c, 1, 30, 91
3, 6745, Note_on_c, 1, 30, 0
3, 6750, Note_on_c, 1, 44, 96
3, 6775, Note_on_c, 1, 44, 0
3, 6780, Note_on_c, 1, 32, 91
3, 6805, Note_on_c, 1, 32, 0
3, 6810, Note_on_c, 1, 44, 96
3, 6835, Note_on_c, 1, 44, 0
3, 6840, Note_on_c, 1, 32, 91
3, 6865, Note_on_c, 1, 32, 0
3, 6870, Note_on_c, 1, 44, 96
3, 6895, Note_on_c, 1, 44, 0
3, 6900, Note_on_c, 1, 32, 91
3, 6925, Note_on_c, 1, 32, 0
3, 6930, Note_on_c, 1, 44, 96
3, 6955, Note_on_c, 1, 44, 0
3, 6960, Note_on_c, 1, 32, 91
3, 6985, Note_on_c, 1, 32, 0
3, 6990, Note_on_c, 1, 46, 96
3, 7015, Note_on_c, 1, 46, 0
3, 7020, Note_on_c, 1, 34, 91
3, 7045, Note_on_c, 1, 34, 0
3, 7050, Note_on_c, 1, 46, 96
3, 7075, Note_on_c, 1, 46, 0
3, 7080, Note_on_c, 1, 34, 91
3, 7105, Note_on_c, 1, 34, 0
3, 7110, Note_on_c, 1, 46, 96
3, 7135, Note_on_c, 1, 46, 0
3, 7140, Note_on_c, 1, 34, 91
3, 7165, Note_on_c, 1, 34, 0
3, 7170, Note_on_c, 1, 46, 96
3, 7195, Note_on_c, 1, 46, 0
3, 7200, Note_on_c, 1, 34, 91
3, 7225, Note_on_c, 1, 34, 0
3, 7230, Note_on_c, 1, 46, 96
3, 7255, Note_on_c, 1, 46, 0
3, 7260, Note_on_c, 1, 34, 91
3, 7285, Note_on_c, 1, 34, 0
3, 7290, Note_on_c, 1, 46, 96
3, 7315, Note_on_c, 1, 46, 0
3, 7320, Note_on_c, 1, 34, 91
3, 7345, Note_on_c, 1, 34, 0
3, 7350, Note_on_c, 1, 46, 96
3, 7375, Note_on_c, 1, 46, 0
3, 7380, Note_on_c, 1, 34, 91
3, 7405, Note_on_c, 1, 34, 0
3, 7410, Note_on_c, 1, 46, 96
3, 7435, Note_on_c, 1, 46, 0
3, 7440, Note_on_c, 1, 34, 91
3, 7465, Note_on_c, 1, 34, 0
3, 7470, Note_on_c, 1, 49, 96
3, 7495, Note_on_c, 1, 49, 0
3, 7500, Note_on_c, 1, 37, 91
3, 7525, Note_on_c, 1, 37, 0
3, 7530, Note_on_c, 1, 49, 96
3, 7555, Note_on_c, 1, 49, 0
3, 7560, Note_on_c, 1, 37, 91
3, 7585, Note_on_c, 1, 37, 0
3, 7590, Note_on_c, 1, 49, 96
3, 7615, Note_on_c, 1, 49, 0
3, 7620, Note_on_c, 1, 37, 91
3, 7645, Note_on_c, 1, 37, 0
3, 7650, Note_on_c, 1, 49, 96
3, 7675, Note_on_c, 1, 49, 0
3, 7680, Note_on_c, 1, 37, 91
3, 7705, Note_on_c, 1, 37, 0
3, 7710, Note_on_c, 1, 48, 96
3, 7735, Note_on_c, 1, 48, 0
3, 7740, Note_on_c, 1, 36, 91
3, 7765, Note_on_c, 1, 36, 0
3, 7770, Note_on_c, 1, 48, 96
3, 7795, Note_on_c, 1, 48, 0
3, 7800, Note_on_c, 1, 36, 91
3, 7825, Note_on_c, 1, 36, 0
3, 7830, Note_on_c, 1, 48, 96
3, 7855, Note_on_c, 1, 48, 0
3, 7860, Note_on_c, 1, 36, 91
3, 7885, Note_on_c, 1, 36, 0
3, 7890, Note_on_c, 1, 48, 96
3, 7915, Note_on_c, 1, 48, 0
3, 7920, Note_on_c, 1, 36, 91
3, 7945, Note_on_c, 1, 36, 0
3, 7950, Note_on_c, 1, 46, 96
3, 7975, Note_on_c, 1, 46, 0
3, 7980, Note_on_c, 1, 34, 91
3, 8005, Note_on_c, 1, 34, 0
3, 8010, Note_on_c, 1, 46, 96
3, 8035, Note_on_c, 1, 46, 0
3, 8040, Note_on_c, 1, 34, 91
3, 8065, Note_on_c, 1, 34, 0
3, 8070, Note_on_c, 1, 46, 96
3, 8095, Note_on_c, 1, 46, 0
3, 8100, Note_on_c, 1, 34, 91
3, 8125, Note_on_c, 1, 34, 0
3, 8130, Note_on_c, 1, 46, 96
3, 8155, Note_on_c, 1, 46, 0
3, 8160, Note_on_c, 1, 34, 91
3, 8185, Note_on_c, 1, 34, 0
3, 8190, Note_on_c, 1, 46, 96
3, 8215, Note_on_c, 1, 46, 0
3, 8220, Note_on_c, 1, 34, 91
3, 8245, Note_on_c, 1, 34, 0
3, 8250, Note_on_c, 1, 46, 96
3, 8275, Note_on_c, 1, 46, 0
3, 8280, Note_on_c, 1, 34, 91
3, 8305, Note_on_c, 1, 34, 0
3, 8310, Note_on_c, 1, 46, 96
3, 8335, Note_on_c, 1, 46, 0
3, 8340, Note_on_c, 1, 34, 91
3, 8365, Note_on_c, 1, 34, 0
3, 8370, Note_on_c, 1, 46, 96
3, 8395, Note_on_c, 1, 46, 0
3, 8400, Note_on_c, 1, 34, 91
3, 8425, Note_on_c, 1, 34, 0
3, 8430, Note_on_c, 1, 42, 96
3, 8455, Note_on_c, 1, 42, 0
3, 8460, Note_on_c, 1, 30, 91
3, 8485, Note_on_c, 1, 30, 0
3, 8490, Note_on_c, 1, 42, 96
3, 8515, Note_on_c, 1, 42, 0
3, 8520, Note_on_c, 1, 30, 91
3, 8545, Note_on_c, 1, 30, 0
3, 8550, Note_on_c, 1, 42, 96
3, 8575, Note_on_c, 1, 42, 0
3, 8580, Note_on_c, 1, 30, 91
3, 8605, Note_on_c, 1, 30, 0
3, 8610, Note_on_c, 1, 42, 96
3, 8635, Note_on_c, 1, 42, 0
3, 8640, Note_on_c, 1, 30, 91
3, 8665, Note_on_c, 1, 30, 0
3, 8670, Note_on_c, 1, 44, 96
3, 8695, Note_on_c, 1, 44, 0
3, 8700, Note_on_c, 1, 32, 91
3, 8725, Note_on_c, 1, 32, 0
3, 8730, Note_on_c, 1, 44, 96
3, 8755, Note_on_c, 1, 44, 0
3, 8760, Note_on_c, 1, 32, 91
3, 8785, Note_on_c, 1, 32, 0
3, 8790, Note_on_c, 1, 44, 96
3, 8815, Note_on_c, 1, 44, 0
3, 8820, Note_on_c, 1, 32, 91
3, 8845, Note_on_c, 1, 32, 0
3, 8850, Note_on_c, 1, 44, 96
3, 8875, Note_on_c, 1, 44, 0
3, 8880, Note_on_c, 1, 32, 91
3, 8905, Note_on_c, 1, 32, 0
3, 8910, Note_on_c, 1, 46, 96
3, 8935, Note_on_c, 1, 46, 0
3, 8940, Note_on_c, 1, 34, 91
3, 8965, Note_on_c, 1, 34, 0
3, 8970, Note_on_c, 1, 46, 96
3, 8995, Note_on_c, 1, 46, 0
3, 9000, Note_on_c, 1, 34, 91
3, 9025, Note_on_c, 1, 34, 0
3, 9030, Note_on_c, 1, 46, 96
3, 9055, Note_on_c, 1, 46, 0
3, 9060, Note_on_c, 1, 34, 91
3, 9085, Note_on_c, 1, 34, 0
3, 9090, Note_on_c, 1, 46, 96
3, 9115, Note_on_c, 1, 46, 0
3, 9120, Note_on_c, 1, 34, 91
3, 9145, Note_on_c, 1, 34, 0
3, 9150, Note_on_c, 1, 46, 96
3, 9175, Note_on_c, 1, 46, 0
3, 9180, Note_on_c, 1, 34, 91
3, 9205, Note_on_c, 1, 34, 0
3, 9210, Note_on_c, 1, 46, 96
3, 9235, Note_on_c, 1, 46, 0
3, 9240, Note_on_c, 1, 34, 91
3, 9265, Note_on_c, 1, 34, 0
3, 9270, Note_on_c, 1, 46, 96
3, 9295, Note_on_c, 1, 46, 0
3, 9300, Note_on_c, 1, 34, 91
3, 9325, Note_on_c, 1, 34, 0
3, 9330, Note_on_c, 1, 46, 96
3, 9355, Note_on_c, 1, 46, 0
3, 9360, Note_on_c, 1, 34, 91
3, 9385, Note_on_c, 1, 34, 0
3, 9390, Note_on_c, 1, 49, 96
3, 9415, Note_on_c, 1, 49, 0
3, 9420, Note_on_c, 1, 37, 91
3, 9445, Note_on_c, 1, 37, 0
3, 9450, Note_on_c, 1, 49, 96
3, 9475, Note_on_c, 1, 49, 0
3, 9480, Note_on_c, 1, 37, 91
3, 9505, Note_on_c, 1, 37, 0
3, 9510, Note_on_c, 1, 49, 96
3, 9535, Note_on_c, 1, 49, 0
3, 9540, Note_on_c, 1, 37, 91
3, 9565, Note_on_c, 1, 37, 0
3, 9570, Note_on_c, 1, 49, 96
3, 9595, Note_on_c, 1, 49, 0
3, 9600, Note_on_c, 1, 37, 91
3, 9625, Note_on_c, 1, 37, 0
3, 9630, Note_on_c, 1, 48, 96
3, 9655, Note_on_c, 1, 48, 0
3, 9660, Note_on_c, 1, 36, 91
3, 9685, Note_on_c, 1, 36, 0
3, 9690, Note_on_c, 1, 48, 96
3, 9715, Note_on_c, 1, 48, 0
3, 9720, Note_on_c, 1, 36, 91
3, 9745, Note_on_c, 1, 36, 0
3, 9750, Note_on_c, 1, 48, 96
3, 9775, Note_on_c, 1, 48, 0
3, 9780, Note_on_c, 1, 36, 91
3, 9805, Note_on_c, 1, 36, 0
3, 9810, Note_on_c, 1, 48, 96
3, 9835, Note_on_c, 1, 48, 0
3, 9840, Note_on_c, 1, 36, 91
3, 9865, Note_on_c, 1, 36, 0
3, 9870, Note_on_c, 1, 46, 96
3, 9895, Note_on_c, 1, 46, 0
3, 9900, Note_on_c, 1, 34, 91
3, 9925, Note_on_c, 1, 34, 0
3, 9930, Note_on_c, 1, 46, 96
3, 9955, Note_on_c, 1, 46, 0
3, 9960, Note_on_c, 1, 34, 91
3, 9985, Note_on_c, 1, 34, 0
3, 9990, Note_on_c, 1, 46, 96
3, 10015, Note_on_c, 1, 46, 0
3, 10020, Note_on_c, 1, 34, 91
3, 10045, Note_on_c, 1, 34, 0
3, 10050, Note_on_c, 1, 46, 96
3, 10075, Note_on_c, 1, 46, 0
3, 10080, Note_on_c, 1, 34, 91
3, 10105, Note_on_c, 1, 34, 0
3, 10110, Note_on_c, 1, 46, 96
3, 10135, Note_on_c, 1, 46, 0
3, 10140, Note_on_c, 1, 34, 91
3, 10165, Note_on_c, 1, 34, 0
3, 10170, Note_on_c, 1, 46, 96
3, 10195, Note_on_c, 1, 46, 0
3, 10200, Note_on_c, 1, 34, 91
3, 10225, Note_on_c, 1, 34, 0
3, 10230, Note_on_c, 1, 46, 96
3, 10255, Note_on_c, 1, 46, 0
3, 10260, Note_on_c, 1, 34, 91
3, 10285, Note_on_c, 1, 34, 0
3, 10290, Note_on_c, 1, 46, 96
3, 10315, Note_on_c, 1, 46, 0
3, 10320, Note_on_c, 1, 34, 91
3, 10345, Note_on_c, 1, 34, 0
3, 10350, Note_on_c, 1, 42, 96
3, 10375, Note_on_c, 1, 42, 0
3, 10380, Note_on_c, 1, 30, 91
3, 10405, Note_on_c, 1, 30, 0
3, 10410, Note_on_c, 1, 42, 96
3, 10435, Note_on_c, 1, 42, 0
3, 10440, Note_on_c, 1, 30, 91
3, 10465, Note_on_c, 1, 30, 0
3, 10470, Note_on_c, 1, 42, 96
3, 10495, Note_on_c, 1, 42, 0
3, 10500, Note_on_c, 1, 30, 91
3, 10525, Note_on_c, 1, 30, 0
3, 10530, Note_on_c, 1, 42, 96
3, 10555, Note_on_c, 1, 42, 0
3, 10560, Note_on_c, 1, 30, 91
3, 10585, Note_on_c, 1, 30, 0
3, 10590, Note_on_c, 1, 44, 96
3, 10615, Note_on_c, 1, 44, 0
3, 10620, Note_on_c, 1, 32, 91
3, 10645, Note_on_c, 1, 32, 0
3, 10650, Note_on_c, 1, 44, 96
3, 10675, Note_on_c, 1, 44, 0
3, 10680, Note_on_c, 1, 32, 91
3, 10705, Note_on_c, 1, 32, 0
3, 10710, Note_on_c, 1, 44, 96
3, 10735, Note_on_c, 1, 44, 0
3, 10740, Note_on_c, 1, 32, 91
3, 10765, Note_on_c, 1, 32, 0
3, 10770, Note_on_c, 1, 44, 96
3, 10795, Note_on_c, 1, 44, 0
3, 10800, Note_on_c, 1, 32, 91
3, 10825, Note_on_c, 1, 32, 0
3, 10830, Note_on_c, 1, 46, 96
3, 10855, Note_on_c, 1, 46, 0
3, 10860, Note_on_c, 1, 34, 91
3, 10885, Note_on_c, 1, 34, 0
3, 10890, Note_on_c, 1, 46, 96
3, 10915, Note_on_c, 1, 46, 0
3, 10920, Note_on_c, 1, 34, 91
3, 10945, Note_on_c, 1, 34, 0
3, 10950, Note_on_c, 1, 46, 96
3, 10975, Note_on_c, 1, 46, 0
3, 10980, Note_on_c, 1, 34, 91
3, 11005, Note_on_c, 1, 34, 0
3, 11010, Note_on_c, 1, 46, 96
3, 11035, Note_on_c, 1, 46, 0
3, 11040, Note_on_c, 1, 34, 91
3, 11065, Note_on_c, 1, 34, 0
3, 11070, Note_on_c, 1, 46, 96
3, 11095, Note_on_c, 1, 46, 0
3, 11100, Note_on_c, 1, 34, 91
3, 11125, Note_on_c, 1, 34, 0
3, 11130, Note_on_c, 1, 46, 96
3, 11155, Note_on_c, 1, 46, 0
3, 11160, Note_on_c, 1, 34, 91
3, 11185, Note_on_c, 1, 34, 0
3, 11190, Note_on_c, 1, 46, 96
3, 11215, Note_on_c, 1, 46, 0
3, 11220, Note_on_c, 1, 34, 91
3, 11245, Note_on_c, 1, 34, 0
3, 11250, Note_on_c, 1, 46, 96
3, 11275, Note_on_c, 1, 46, 0
3, 11280, Note_on_c, 1, 34, 91
3, 11305, Note_on_c, 1, 34, 0
3, 11310, Note_on_c, 1, 49, 96
3, 11335, Note_on_c, 1, 49, 0
3, 11340, Note_on_c, 1, 37, 91
3, 11365, Note_on_c, 1, 37, 0
3, 11370, Note_on_c, 1, 49, 96
3, 11395, Note_on_c, 1, 49, 0
3, 11400, Note_on_c, 1, 37, 91
3, 11425, Note_on_c, 1, 37, 0
3, 11430, Note_on_c, 1, 49, 96
3, 11455, Note_on_c, 1, 49, 0
3, 11460, Note_on_c, 1, 37, 91
3, 11485, Note_on_c, 1, 37, 0
3, 11490, Note_on_c, 1, 49, 96
3, 11515, Note_on_c, 1, 49, 0
3, 11520, Note_on_c, 1, 37, 91
3, 11545, Note_on_c, 1, 37, 0
3, 11550, Note_on_c, 1, 48, 96
3, 11575, Note_on_c, 1, 48, 0
3, 11580, Note_on_c, 1, 36, 91
3, 11605, Note_on_c, 1, 36, 0
3, 11610, Note_on_c, 1, 48, 96
3, 11635, Note_on_c, 1, 48, 0
3, 11640, Note_on_c, 1, 36, 91
3, 11665, Note_on_c, 1, 36, 0
3, 11670, Note_on_c, 1, 48, 96
3, 11695, Note_on_c, 1, 48, 0
3, 11700, Note_on_c, 1, 36, 91
3, 11725, Note_on_c, 1, 36, 0
3, 11730, Note_on_c, 1, 48, 96
3, 11755, Note_on_c, 1, 48, 0
3, 11760, Note_on_c, 1, 36, 91
3, 11785, Note_on_c, 1, 36, 0
3, 11790, Note_on_c, 1, 46, 96
3, 11815, Note_on_c, 1, 46, 0
3, 11820, Note_on_c, 1, 34, 91
3, 11845, Note_on_c, 1, 34, 0
3, 11850, Note_on_c, 1, 46, 96
3, 11875, Note_on_c, 1, 46, 0
3, 11880, Note_on_c, 1, 34, 91
3, 11905, Note_on_c, 1, 34, 0
3, 11910, Note_on_c, 1, 46, 96
3, 11935, Note_on_c, 1, 46, 0
3, 11940, Note_on_c, 1, 34, 91
3, 11965, Note_on_c, 1, 34, 0
3, 11970, Note_on_c, 1, 46, 96
3, 11995, Note_on_c, 1, 46, 0
3, 12000, Note_on_c, 1, 34, 91
3, 12025, Note_on_c, 1, 34, 0
3, 12030, Note_on_c, 1, 46, 96
3, 12055, Note_on_c, 1, 46, 0
3, 12060, Note_on_c, 1, 34, 91
3, 12085, Note_on_c, 1, 34, 0
3, 12090, Note_on_c, 1, 46, 96
3, 12115, Note_on_c, 1, 46, 0
3, 12120, Note_on_c, 1, 34, 91
3, 12145, Note_on_c, 1, 34, 0
3, 12150, Note_on_c, 1, 46, 96
3, 12175, Note_on_c, 1, 46, 0
3, 12180, Note_on_c, 1, 34, 91
3, 12205, Note_on_c, 1, 34, 0
3, 12210, Note_on_c, 1, 46, 96
3, 12235, Note_on_c, 1, 46, 0
3, 12240, Note_on_c, 1, 34, 91
3, 12265, Note_on_c, 1, 34, 0
3, 12270, Note_on_c, 1, 42, 96
3, 12295, Note_on_c, 1, 42, 0
3, 12300, Note_on_c, 1, 30, 91
3, 12325, Note_on_c, 1, 30, 0
3, 12330, Note_on_c, 1, 42, 96
3, 12355, Note_on_c, 1, 42, 0
3, 12360, Note_on_c, 1, 30, 91
3, 12385, Note_on_c, 1, 30, 0
3, 12390, Note_on_c, 1, 42, 96
3, 12415, Note_on_c, 1, 42, 0
3, 12420, Note_on_c, 1, 30, 91
3, 12445, Note_on_c, 1, 30, 0
3, 12450, Note_on_c, 1, 42, 96
3, 12475, Note_on_c, 1, 42, 0
3, 12480, Note_on_c, 1, 30, 91
3, 12505, Note_on_c, 1, 30, 0
3, 12510, Note_on_c, 1, 44, 96
3, 12535, Note_on_c, 1, 44, 0
3, 12540, Note_on_c, 1, 32, 91
3, 12565, Note_on_c, 1, 32, 0
3, 12570, Note_on_c, 1, 44, 96
3, 12595, Note_on_c, 1, 44, 0
3, 12600, Note_on_c, 1, 32, 91
3, 12625, Note_on_c, 1, 32, 0
3, 12630, Note_on_c, 1, 44, 96
3, 12655, Note_on_c, 1, 44, 0
3, 12660, Note_on_c, 1, 32, 91
3, 12685, Note_on_c, 1, 32, 0
3, 12690, Note_on_c, 1, 44, 96
3, 12715, Note_on_c, 1, 44, 0
3, 12720, Note_on_c, 1, 32, 91
3, 12745, Note_on_c, 1, 32, 0
3, 12750, Note_on_c, 1, 46, 96
3, 12775, Note_on_c, 1, 46, 0
3, 12780, Note_on_c, 1, 34, 91
3, 12805, Note_on_c, 1, 34, 0
3, 12810, Note_on_c, 1, 46, 96
3, 12835, Note_on_c, 1, 46, 0
3, 12840, Note_on_c, 1, 34, 91
3, 12865, Note_on_c, 1, 34, 0
3, 12870, Note_on_c, 1, 46, 96
3, 12895, Note_on_c, 1, 46, 0
3, 12900, Note_on_c, 1, 34, 91
3, 12925, Note_on_c, 1, 34, 0
3, 12930, Note_on_c, 1, 46, 96
3, 12955, Note_on_c, 1, 46, 0
3, 12960, Note_on_c, 1, 34, 91
3, 12985, Note_on_c, 1, 34, 0
3, 12990, Note_on_c, 1, 46, 96
3, 13015, Note_on_c, 1, 46, 0
3, 13020, Note_on_c, 1, 34, 91
3, 13045, Note_on_c, 1, 34, 0
3, 13050, Note_on_c, 1, 46, 96
3, 13075, Note_on_c, 1, 46, 0
3, 13080, Note_on_c, 1, 34, 91
3, 13105, Note_on_c, 1, 34, 0
3, 13110, Note_on_c, 1, 46, 96
3, 13135, Note_on_c, 1, 46, 0
3, 13140, Note_on_c, 1, 34, 91
3, 13165, Note_on_c, 1, 34, 0
3, 13170, Note_on_c, 1, 46, 96
3, 13195, Note_on_c, 1, 46, 0
3, 13200, Note_on_c, 1, 34, 91
3, 13225, Note_on_c, 1, 34, 0
3, 13230, Note_on_c, 1, 49, 96
3, 13255, Note_on_c, 1, 49, 0
3, 13260, Note_on_c, 1, 37, 91
3, 13285, Note_on_c, 1, 37, 0
3, 13290, Note_on_c, 1, 49, 96
3, 13315, Note_on_c, 1, 49, 0
3, 13320, Note_on_c, 1, 37, 91
3, 13345, Note_on_c, 1, 37, 0
3, 13350, Note_on_c, 1, 49, 96
3, 13375, Note_on_c, 1, 49, 0
3, 13380, Note_on_c, 1, 37, 91
3, 13405, Note_on_c, 1, 37, 0
3, 13410, Note_on_c, 1, 49, 96
3, 13435, Note_on_c, 1, 49, 0
3, 13440, Note_on_c, 1, 37, 91
3, 13465, Note_on_c, 1, 37, 0
3, 13470, Note_on_c, 1, 48, 96
3, 13495, Note_on_c, 1, 48, 0
3, 13500, Note_on_c, 1, 36, 91
3, 13525, Note_on_c, 1, 36, 0
3, 13530, Note_on_c, 1, 48, 96
3, 13555, Note_on_c, 1, 48, 0
3, 13560, Note_on_c, 1, 36, 91
3, 13585, Note_on_c, 1, 36, 0
3, 13590, Note_on_c, 1, 48, 96
3, 13615, Note_on_c, 1, 48, 0
3, 13620, Note_on_c, 1, 36, 91
3, 13645, Note_on_c, 1, 36, 0
3, 13650, Note_on_c, 1, 48, 96
3, 13675, Note_on_c, 1, 48, 0
3, 13680, Note_on_c, 1, 36, 91
3, 13705, Note_on_c, 1, 36, 0
3, 13710, Note_on_c, 1, 46, 96
3, 13735, Note_on_c, 1, 46, 0
3, 13740, Note_on_c, 1, 34, 91
3, 13765, Note_on_c, 1, 34, 0
3, 13770, Note_on_c, 1, 46, 96
3, 13795, Note_on_c, 1, 46, 0
3, 13800, Note_on_c, 1, 34, 91
3, 13825, Note_on_c, 1, 34, 0
3, 13830, Note_on_c, 1, 46, 96
3, 13855, Note_on_c, 1, 46, 0
3, 13860, Note_on_c, 1, 34, 91
3, 13885, Note_on_c, 1, 34, 0
3, 13890, Note_on_c, 1, 46, 96
3, 13915, Note_on_c, 1, 46, 0
3, 13920, Note_on_c, 1, 34, 91
3, 13945, Note_on_c, 1, 34, 0
3, 13950, Note_on_c, 1, 46, 96
3, 13975, Note_on_c, 1, 46, 0
3, 13980, Note_on_c, 1, 34, 91
3, 14005, Note_on_c, 1, 34, 0
3, 14010, Note_on_c, 1, 46, 96
3, 14035, Note_on_c, 1, 46, 0
3, 14040, Note_on_c, 1, 34, 91
3, 14065, Note_on_c, 1, 34, 0
3, 14070, Note_on_c, 1, 46, 96
3, 14095, Note_on_c, 1, 46, 0
3, 14100, Note_on_c, 1, 34, 91
3, 14125, Note_on_c, 1, 34, 0
3, 14130, Note_on_c, 1, 46, 96
3, 14155, Note_on_c, 1, 46, 0
3, 14160, Note_on_c, 1, 34, 91
3, 14185, Note_on_c, 1, 34, 0
3, 14190, Note_on_c, 1, 42, 96
3, 14215, Note_on_c, 1, 42, 0
3, 14220, Note_on_c, 1, 30, 91
3, 14245, Note_on_c, 1, 30, 0
3, 14250, Note_on_c, 1, 42, 96
3, 14275, Note_on_c, 1, 42, 0
3, 14280, Note_on_c, 1, 30, 91
3, 14305, Note_on_c, 1, 30, 0
3, 14310, Note_on_c, 1, 42, 96
3, 14335, Note_on_c, 1, 42, 0
3, 14340, Note_on_c, 1, 30, 91
3, 14365, Note_on_c, 1, 30, 0
3, 14370, Note_on_c, 1, 42, 96
3, 14395, Note_on_c, 1, 42, 0
3, 14400, Note_on_c, 1, 30, 91
3, 14425, Note_on_c, 1, 30, 0
3, 14430, Note_on_c, 1, 44, 96
3, 14455, Note_on_c, 1, 44, 0
3, 14460, Note_on_c, 1, 32, 91
3, 14485, Note_on_c, 1, 32, 0
3, 14490, Note_on_c, 1, 44, 96
3, 14515, Note_on_c, 1, 44, 0
3, 14520, Note_on_c, 1, 32, 91
3, 14545, Note_on_c, 1, 32, 0
3, 14550, Note_on_c, 1, 44, 96
3, 14575, Note_on_c, 1, 44, 0
3, 14580, Note_on_c, 1, 32, 91
3, 14605, Note_on_c, 1, 32, 0
3, 14610, Note_on_c, 1, 44, 96
3, 14635, Note_on_c, 1, 44, 0
3, 14640, Note_on_c, 1, 32, 91
3, 14665, Note_on_c, 1, 32, 0
3, 14670, Note_on_c, 1, 46, 96
3, 14695, Note_on_c, 1, 46, 0
3, 14700, Note_on_c, 1, 34, 91
3, 14725, Note_on_c, 1, 34, 0
3, 14730, Note_on_c, 1, 46, 96
3, 14755, Note_on_c, 1, 46, 0
3, 14760, Note_on_c, 1, 34, 91
3, 14785, Note_on_c, 1, 34, 0
3, 14790, Note_on_c, 1, 46, 96
3, 14815, Note_on_c, 1, 46, 0
3, 14820, Note_on_c, 1, 34, 91
3, 14845, Note_on_c, 1, 34, 0
3, 14850, Note_on_c, 1, 46, 96
3, 14875, Note_on_c, 1, 46, 0
3, 14880, Note_on_c, 1, 34, 91
3, 14905, Note_on_c, 1, 34, 0
3, 14910, Note_on_c, 1, 46, 96
3, 14935, Note_on_c, 1, 46, 0
3, 14940, Note_on_c, 1, 34, 91
3, 14965, Note_on_c, 1, 34, 0
3, 14970, Note_on_c, 1, 46, 96
3, 14995, Note_on_c, 1, 46, 0
3, 15000, Note_on_c, 1, 34, 91
3, 15025, Note_on_c, 1, 34, 0
3, 15030, Note_on_c, 1, 46, 96
3, 15055, Note_on_c, 1, 46, 0
3, 15060, Note_on_c, 1, 34, 91
3, 15085, Note_on_c, 1, 34, 0
3, 15090, Note_on_c, 1, 46, 96
3, 15115, Note_on_c, 1, 46, 0
3, 15120, Note_on_c, 1, 34, 91
3, 15145, Note_on_c, 1, 34, 0
3, 15150, Note_on_c, 1, 49, 96
3, 15175, Note_on_c, 1, 49, 0
3, 15180, Note_on_c, 1, 37, 91
3, 15205, Note_on_c, 1, 37, 0
3, 15210, Note_on_c, 1, 49, 96
3, 15235, Note_on_c, 1, 49, 0
3, 15240, Note_on_c, 1, 37, 91
3, 15265, Note_on_c, 1, 37, 0
3, 15270, Note_on_c, 1, 49, 96
3, 15295, Note_on_c, 1, 49, 0
3, 15300, Note_on_c, 1, 37, 91
3, 15325, Note_on_c, 1, 37, 0
3, 15330, Note_on_c, 1, 49, 96
3, 15355, Note_on_c, 1, 49, 0
3, 15360, Note_on_c, 1, 37, 91
3, 15385, Note_on_c, 1, 37, 0
3, 15390, Note_on_c, 1, 48, 96
3, 15415, Note_on_c, 1, 48, 0
3, 15420, Note_on_c, 1, 36, 91
3, 15445, Note_on_c, 1, 36, 0
3, 15450, Note_on_c, 1, 48, 96
3, 15475, Note_on_c, 1, 48, 0
3, 15480, Note_on_c, 1, 36, 91
3, 15505, Note_on_c, 1, 36, 0
3, 15510, Note_on_c, 1, 48, 96
3, 15535, Note_on_c, 1, 48, 0
3, 15540, Note_on_c, 1, 36, 91
3, 15565, Note_on_c, 1, 36, 0
3, 15570, Note_on_c, 1, 48, 96
3, 15595, Note_on_c, 1, 48, 0
3, 15600, Note_on_c, 1, 36, 91
3, 15625, Note_on_c, 1, 36, 0
3, 15630, Note_on_c, 1, 46, 96
3, 15655, Note_on_c, 1, 46, 0
3, 15660, Note_on_c, 1, 34, 91
3, 15685, Note_on_c, 1, 34, 0
3, 15690, Note_on_c, 1, 46, 96
3, 15715, Note_on_c, 1, 46, 0
3, 15720, Note_on_c, 1, 34, 91
3, 15745, Note_on_c, 1, 34, 0
3, 15750, Note_on_c, 1, 46, 96
3, 15775, Note_on_c, 1, 46, 0
3, 15780, Note_on_c, 1, 34, 91
3, 15805, Note_on_c, 1, 34, 0
3, 15810, Note_on_c, 1, 46, 96
3, 15835, Note_on_c, 1, 46, 0
3, 15840, Note_on_c, 1, 34, 91
3, 15865, Note_on_c, 1, 34, 0
3, 15870, Note_on_c, 1, 46, 105
3, 15895, Note_on_c, 1, 46, 0
3, 15900, Note_on_c, 1, 34, 100
3, 15925, Note_on_c, 1, 34, 0
3, 15930, Note_on_c, 1, 46, 105
3, 15955, Note_on_c, 1, 46, 0
3, 15960, Note_on_c, 1, 34, 100
3, 15985, Note_on_c, 1, 34, 0
3, 15990, Note_on_c, 1, 46, 105
3, 16015, Note_on_c, 1, 46, 0
3, 16020, Note_on_c, 1, 34, 100
3, 16045, Note_on_c, 1, 34, 0
3, 16050, Note_on_c, 1, 46, 105
3, 16075, Note_on_c, 1, 46, 0
3, 16080, Note_on_c, 1, 34, 100
3, 16105, Note_on_c, 1, 34, 0
3, 16110, Note_on_c, 1, 42, 105
3, 16135, Note_on_c, 1, 42, 0
3, 16140, Note_on_c, 1, 30, 100
3, 16165, Note_on_c, 1, 30, 0
3, 16170, Note_on_c, 1, 42, 105
3, 16195, Note_on_c, 1, 42, 0
3, 16200, Note_on_c, 1, 30, 100
3, 16225, Note_on_c, 1, 30, 0
3, 16230, Note_on_c, 1, 42, 105
3, 16255, Note_on_c, 1, 42, 0
3, 16260, Note_on_c, 1, 30, 100
3, 16285, Note_on_c, 1, 30, 0
3, 16290, Note_on_c, 1, 42, 105
3, 16315, Note_on_c, 1, 42, 0
3, 16320, Note_on_c, 1, 30, 100
3, 16345, Note_on_c, 1, 30, 0
3, 16350, Note_on_c, 1, 44, 105
3, 16375, Note_on_c, 1, 44, 0
3, 16380, Note_on_c, 1, 32, 100
3, 16405, Note_on_c, 1, 32, 0
3, 16410, Note_on_c, 1, 44, 105
3, 16435, Note_on_c, 1, 44, 0
3, 16440, Note_on_c, 1, 32, 100
3, 16465, Note_on_c, 1, 32, 0
3, 16470, Note_on_c, 1, 44, 105
3, 16495, Note_on_c, 1, 44, 0
3, 16500, Note_on_c, 1, 32, 100
3, 16525, Note_on_c, 1, 32, 0
3, 16530, Note_on_c, 1, 44, 105
3, 16555, Note_on_c, 1, 44, 0
3, 16560, Note_on_c, 1, 32, 100
3, 16585, Note_on_c, 1, 32, 0
3, 16590, Note_on_c, 1, 46, 105
3, 16615, Note_on_c, 1, 46, 0
3, 16620, Note_on_c, 1, 34, 100
3, 16645, Note_on_c, 1, 34, 0
3, 16650, Note_on_c, 1, 46, 105
3, 16675, Note_on_c, 1, 46, 0
3, 16680, Note_on_c, 1, 34, 100
3, 16705, Note_on_c, 1, 34, 0
3, 16710, Note_on_c, 1, 46, 105
3, 16735, Note_on_c, 1, 46, 0
3, 16740, Note_on_c, 1, 34, 100
3, 16765, Note_on_c, 1, 34, 0
3, 16770, Note_on_c, 1, 46, 105
3, 16795, Note_on_c, 1, 46, 0
3, 16800, Note_on_c, 1, 34, 100
3, 16825, Note_on_c, 1, 34, 0
3, 16830, Note_on_c, 1, 46, 105
3, 16855, Note_on_c, 1, 46, 0
3, 16860, Note_on_c, 1, 34, 100
3, 16885, Note_on_c, 1, 34, 0
3, 16890, Note_on_c, 1, 46, 105
3, 16915, Note_on_c, 1, 46, 0
3, 16920, Note_on_c, 1, 34, 100
3, 16945, Note_on_c, 1, 34, 0
3, 16950, Note_on_c, 1, 46, 105
3, 16975, Note_on_c, 1, 46, 0
3, 16980, Note_on_c, 1, 34, 100
3, 17005, Note_on_c, 1, 34, 0
3, 17010, Note_on_c, 1, 46, 105
3, 17035, Note_on_c, 1, 46, 0
3, 17040, Note_on_c, 1, 34, 100
3, 17065, Note_on_c, 1, 34, 0
3, 17070, Note_on_c, 1, 49, 105
3, 17095, Note_on_c, 1, 49, 0
3, 17100, Note_on_c, 1, 37, 100
3, 17125, Note_on_c, 1, 37, 0
3, 17130, Note_on_c, 1, 49, 105
3, 17155, Note_on_c, 1, 49, 0
3, 17160, Note_on_c, 1, 37, 100
3, 17185, Note_on_c, 1, 37, 0
3, 17190, Note_on_c, 1, 49, 105
3, 17215, Note_on_c, 1, 49, 0
3, 17220, Note_on_c, 1, 37, 100
3, 17245, Note_on_c, 1, 37, 0
3, 17250, Note_on_c, 1, 49, 105
3, 17275, Note_on_c, 1, 49, 0
3, 17280, Note_on_c, 1, 37, 100
3, 17305, Note_on_c, 1, 37, 0
3, 17310, Note_on_c, 1, 48, 105
3, 17335, Note_on_c, 1, 48, 0
3, 17340, Note_on_c, 1, 36, 100
3, 17365, Note_on_c, 1, 36, 0
3, 17370, Note_on_c, 1, 48, 105
3, 17395, Note_on_c, 1, 48, 0
3, 17400, Note_on_c, 1, 36, 100
3, 17425, Note_on_c, 1, 36, 0
3, 17430, Note_on_c, 1, 48, 105
3, 17455, Note_on_c, 1, 48, 0
3, 17460, Note_on_c, 1, 36, 100
3, 17485, Note_on_c, 1, 36, 0
3, 17490, Note_on_c, 1, 48, 105
3, 17515, Note_on_c, 1, 48, 0
3, 17520, Note_on_c, 1, 36, 100
3, 17545, Note_on_c, 1, 36, 0
3, 17550, Note_on_c, 1, 46, 105
3, 17575, Note_on_c, 1, 46, 0
3, 17580, Note_on_c, 1, 34, 100
3, 17605, Note_on_c, 1, 34, 0
3, 17610, Note_on_c, 1, 46, 105
3, 17635, Note_on_c, 1, 46, 0
3, 17640, Note_on_c, 1, 34, 100
3, 17665, Note_on_c, 1, 34, 0
3, 17670, Note_on_c, 1, 46, 105
3, 17695, Note_on_c, 1, 46, 0
3, 17700, Note_on_c, 1, 34, 100
3, 17725, Note_on_c, 1, 34, 0
3, 17730, Note_on_c, 1, 46, 105
3, 17755, Note_on_c, 1, 46, 0
3, 17760, Note_on_c, 1, 34, 100
3, 17785, Note_on_c, 1, 34, 0
3, 17790, Note_on_c, 1, 46, 105
3, 17815, Note_on_c, 1, 46, 0
3, 17820, Note_on_c, 1, 34, 100
3, 17845, Note_on_c, 1, 34, 0
3, 17850, Note_on_c, 1, 46, 105
3, 17875, Note_on_c, 1, 46, 0
3, 17880, Note_on_c, 1, 34, 100
3, 17905, Note_on_c, 1, 34, 0
3, 17910, Note_on_c, 1, 46, 105
3, 17935, Note_on_c, 1, 46, 0
3, 17940, Note_on_c, 1, 34, 100
3, 17965, Note_on_c, 1, 34, 0
3, 17970, Note_on_c, 1, 46, 105
3, 17995, Note_on_c, 1, 46, 0
3, 18000, Note_on_c, 1, 34, 100
3, 18025, Note_on_c, 1, 34, 0
3, 18030, Note_on_c, 1, 42, 105
3, 18055, Note_on_c, 1, 42, 0
3, 18060, Note_on_c, 1, 30, 100
3, 18085, Note_on_c, 1, 30, 0
3, 18090, Note_on_c, 1, 42, 105
3, 18115, Note_on_c, 1, 42, 0
3, 18120, Note_on_c, 1, 30, 100
3, 18145, Note_on_c, 1, 30, 0
3, 18150, Note_on_c, 1, 42, 105
3, 18175, Note_on_c, 1, 42, 0
3, 18180, Note_on_c, 1, 30, 100
3, 18205, Note_on_c, 1, 30, 0
3, 18210, Note_on_c, 1, 42, 105
3, 18235, Note_on_c, 1, 42, 0
3, 18240, Note_on_c, 1, 30, 100
3, 18265, Note_on_c, 1, 30, 0
3, 18270, Note_on_c, 1, 44, 105
3, 18295, Note_on_c, 1, 44, 0
3, 18300, Note_on_c, 1, 32, 100
3, 18325, Note_on_c, 1, 32, 0
3, 18330, Note_on_c, 1, 44, 105
3, 18355, Note_on_c, 1, 44, 0
3, 18360, Note_on_c, 1, 32, 100
3, 18385, Note_on_c, 1, 32, 0
3, 18390, Note_on_c, 1, 44, 105
3, 18415, Note_on_c, 1, 44, 0
3, 18420, Note_on_c, 1, 32, 100
3, 18445, Note_on_c, 1, 32, 0
3, 18450, Note_on_c, 1, 44, 105
3, 18475, Note_on_c, 1, 44, 0
3, 18480, Note_on_c, 1, 32, 100
3, 18505, Note_on_c, 1, 32, 0
3, 18510, Note_on_c, 1, 46, 105
3, 18535, Note_on_c, 1, 46, 0
3, 18540, Note_on_c, 1, 34, 100
3, 18565, Note_on_c, 1, 34, 0
3, 18570, Note_on_c, 1, 46, 105
3, 18595, Note_on_c, 1, 46, 0
3, 18600, Note_on_c, 1, 34, 100
3, 18625, Note_on_c, 1, 34, 0
3, 18630, Note_on_c, 1, 46, 105
3, 18655, Note_on_c, 1, 46, 0
3, 18660, Note_on_c, 1, 34, 100
3, 18685, Note_on_c, 1, 34, 0
3, 18690, Note_on_c, 1, 46, 105
3, 18715, Note_on_c, 1, 46, 0
3, 18720, Note_on_c, 1, 34, 100
3, 18745, Note_on_c, 1, 34, 0
3, 18750, Note_on_c, 1, 46, 105
3, 18775, Note_on_c, 1, 46, 0
3, 18780, Note_on_c, 1, 34, 100
3, 18805, Note_on_c, 1, 34, 0
3, 18810, Note_on_c, 1, 46, 105
3, 18835, Note_on_c, 1, 46, 0
3, 18840, Note_on_c, 1, 34, 100
3, 18865, Note_on_c, 1, 34, 0
3, 18870, Note_on_c, 1, 46, 105
3, 18895, Note_on_c, 1, 46, 0
3, 18900, Note_on_c, 1, 34, 100
3, 18925, Note_on_c, 1, 34, 0
3, 18930, Note_on_c, 1, 46, 105
3, 18955, Note_on_c, 1, 46, 0
3, 18960, Note_on_c, 1, 34, 100
3, 18985, Note_on_c, 1, 34, 0
3, 18990, Note_on_c, 1, 49, 105
3, 19015, Note_on_c, 1, 49, 0
3, 19020, Note_on_c, 1, 37, 100
3, 19045, Note_on_c, 1, 37, 0
3, 19050, Note_on_c, 1, 49, 105
3, 19075, Note_on_c, 1, 49, 0
3, 19080, Note_on_c, 1, 37, 100
3, 19105, Note_on_c, 1, 37, 0
3, 19110, Note_on_c, 1, 49, 105
3, 19135, Note_on_c, 1, 49, 0
3, 19140, Note_on_c, 1, 37, 100
3, 19165, Note_on_c, 1, 37, 0
3, 19170, Note_on_c, 1, 49, 105
3, 19195, Note_on_c, 1, 49, 0
3, 19200, Note_on_c, 1, 37, 100
3, 19225, Note_on_c, 1, 37, 0
3, 19230, Note_on_c, 1, 48, 105
3, 19255, Note_on_c, 1, 48, 0
3, 19260, Note_on_c, 1, 36, 100
3, 19285, Note_on_c, 1, 36, 0
3, 19290, Note_on_c, 1, 48, 105
3, 19315, Note_on_c, 1, 48, 0
3, 19320, Note_on_c, 1, 36, 100
3, 19345, Note_on_c, 1, 36, 0
3, 19350, Note_on_c, 1, 48, 105
3, 19375, Note_on_c, 1, 48, 0
3, 19380, Note_on_c, 1, 36, 100
3, 19405, Note_on_c, 1, 36, 0
3, 19410, Note_on_c, 1, 48, 105
3, 19435, Note_on_c, 1, 48, 0
3, 19440, Note_on_c, 1, 36, 100
3, 19465, Note_on_c, 1, 36, 0
3, 19470, Note_on_c, 1, 46, 105
3, 19495, Note_on_c, 1, 46, 0
3, 19500, Note_on_c, 1, 34, 100
3, 19525, Note_on_c, 1, 34, 0
3, 19530, Note_on_c, 1, 46, 105
3, 19555, Note_on_c, 1, 46, 0
3, 19560, Note_on_c, 1, 34, 100
3, 19585, Note_on_c, 1, 34, 0
3, 19590, Note_on_c, 1, 46, 105
3, 19615, Note_on_c, 1, 46, 0
3, 19620, Note_on_c, 1, 34, 100
3, 19645, Note_on_c, 1, 34, 0
3, 19650, Note_on_c, 1, 46, 105
3, 19675, Note_on_c, 1, 46, 0
3, 19680, Note_on_c, 1, 34, 100
3, 19705, Note_on_c, 1, 34, 0
3, 19710, Note_on_c, 1, 46, 105
3, 19735, Note_on_c, 1, 46, 0
3, 19740, Note_on_c, 1, 34, 100
3, 19765, Note_on_c, 1, 34, 0
3, 19770, Note_on_c, 1, 46, 105
3, 19795, Note_on_c, 1, 46, 0
3, 19800, Note_on_c, 1, 34, 100
3, 19825, Note_on_c, 1, 34, 0
3, 19830, Note_on_c, 1, 46, 105
3, 19855, Note_on_c, 1, 46, 0
3, 19860, Note_on_c, 1, 34, 100
3, 19885, Note_on_c, 1, 34, 0
3, 19890, Note_on_c, 1, 46, 105
3, 19915, Note_on_c, 1, 46, 0
3, 19920, Note_on_c, 1, 34, 100
3, 19945, Note_on_c, 1, 34, 0
3, 19950, Note_on_c, 1, 42, 105
3, 19975, Note_on_c, 1, 42, 0
3, 19980, Note_on_c, 1, 30, 100
3, 20005, Note_on_c, 1, 30, 0
3, 20010, Note_on_c, 1, 42, 105
3, 20035, Note_on_c, 1, 42, 0
3, 20040, Note_on_c, 1, 30, 100
3, 20065, Note_on_c, 1, 30, 0
3, 20070, Note_on_c, 1, 42, 105
3, 20095, Note_on_c, 1, 42, 0
3, 20100, Note_on_c, 1, 30, 100
3, 20125, Note_on_c, 1, 30, 0
3, 20130, Note_on_c, 1, 42, 105
3, 20155, Note_on_c, 1, 42, 0
3, 20160, Note_on_c, 1, 30, 100
3, 20185, Note_on_c, 1, 30, 0
3, 20190, Note_on_c, 1, 44, 105
3, 20215, Note_on_c, 1, 44, 0
3, 20220, Note_on_c, 1, 32, 100
3, 20245, Note_on_c, 1, 32, 0
3, 20250, Note_on_c, 1, 44, 105
3, 20275, Note_on_c, 1, 44, 0
3, 20280, Note_on_c, 1, 32, 100
3, 20305, Note_on_c, 1, 32, 0
3, 20310, Note_on_c, 1, 44, 105
3, 20335, Note_on_c, 1, 44, 0
3, 20340, Note_on_c, 1, 32, 100
3, 20365, Note_on_c, 1, 32, 0
3, 20370, Note_on_c, 1, 44, 105
3, 20395, Note_on_c, 1, 44, 0
3, 20400, Note_on_c, 1, 32, 100
3, 20425, Note_on_c, 1, 32, 0
3, 20430, Note_on_c, 1, 46, 105
3, 20455, Note_on_c, 1, 46, 0
3, 20460, Note_on_c, 1, 34, 100
3, 20485, Note_on_c, 1, 34, 0
3, 20490, Note_on_c, 1, 46, 105
3, 20515, Note_on_c, 1, 46, 0
3, 20520, Note_on_c, 1, 34, 100
3, 20545, Note_on_c, 1, 34, 0
3, 20550, Note_on_c, 1, 46, 105
3, 20575, Note_on_c, 1, 46, 0
3, 20580, Note_on_c, 1, 34, 100
3, 20605, Note_on_c, 1, 34, 0
3, 20610, Note_on_c, 1, 46, 105
3, 20635, Note_on_c, 1, 46, 0
3, 20640, Note_on_c, 1, 34, 100
3, 20665, Note_on_c, 1, 34, 0
3, 20670, Note_on_c, 1, 46, 105
3, 20695, Note_on_c, 1, 46, 0
3, 20700, Note_on_c, 1, 34, 100
3, 20725, Note_on_c, 1, 34, 0
3, 20730, Note_on_c, 1, 46, 105
3, 20755, Note_on_c, 1, 46, 0
3, 20760, Note_on_c, 1, 34, 100
3, 20785, Note_on_c, 1, 34, 0
3, 20790, Note_on_c, 1, 46, 105
3, 20815, Note_on_c, 1, 46, 0
3, 20820, Note_on_c, 1, 34, 100
3, 20845, Note_on_c, 1, 34, 0
3, 20850, Note_on_c, 1, 46, 105
3, 20875, Note_on_c, 1, 46, 0
3, 20880, Note_on_c, 1, 34, 100
3, 20905, Note_on_c, 1, 34, 0
3, 20910, Note_on_c, 1, 49, 105
3, 20935, Note_on_c, 1, 49, 0
3, 20940, Note_on_c, 1, 37, 100
3, 20965, Note_on_c, 1, 37, 0
3, 20970, Note_on_c, 1, 49, 105
3, 20995, Note_on_c, 1, 49, 0
3, 21000, Note_on_c, 1, 37, 100
3, 21025, Note_on_c, 1, 37, 0
3, 21030, Note_on_c, 1, 49, 105
3, 21055, Note_on_c, 1, 49, 0
3, 21060, Note_on_c, 1, 37, 100
3, 21085, Note_on_c, 1, 37, 0
3, 21090, Note_on_c, 1, 49, 105
3, 21115, Note_on_c, 1, 49, 0
3, 21120, Note_on_c, 1, 37, 100
3, 21145, Note_on_c, 1, 37, 0
3, 21150, Note_on_c, 1, 48, 105
3, 21175, Note_on_c, 1, 48, 0
3, 21180, Note_on_c, 1, 36, 100
3, 21205, Note_on_c, 1, 36, 0
3, 21210, Note_on_c, 1, 48, 105
3, 21235, Note_on_c, 1, 48, 0
3, 21240, Note_on_c, 1, 36, 100
3, 21265, Note_on_c, 1, 36, 0
3, 21270, Note_on_c, 1, 48, 105
3, 21295, Note_on_c, 1, 48, 0
3, 21300, Note_on_c, 1, 36, 100
3, 21325, Note_on_c, 1, 36, 0
3, 21330, Note_on_c, 1, 48, 105
3, 21355, Note_on_c, 1, 48, 0
3, 21360, Note_on_c, 1, 36, 100
3, 21385, Note_on_c, 1, 36, 0
3, 21390, Note_on_c, 1, 46, 105
3, 21415, Note_on_c, 1, 46, 0
3, 21420, Note_on_c, 1, 34, 100
3, 21445, Note_on_c, 1, 34, 0
3, 21450, Note_on_c, 1, 46, 105
3, 21475, Note_on_c, 1, 46, 0
3, 21480, Note_on_c, 1, 34, 100
3, 21505, Note_on_c, 1, 34, 0
3, 21510, Note_on_c, 1, 46, 105
3, 21535, Note_on_c, 1, 46, 0
3, 21540, Note_on_c, 1, 34, 100
3, 21565, Note_on_c, 1, 34, 0
3, 21570, Note_on_c, 1, 46, 105
3, 21595, Note_on_c, 1, 46, 0
3, 21600, Note_on_c, 1, 34, 100
3, 21625, Note_on_c, 1, 34, 0
3, 21630, Note_on_c, 1, 46, 105
3, 21655, Note_on_c, 1, 46, 0
3, 21660, Note_on_c, 1, 34, 100
3, 21685, Note_on_c, 1, 34, 0
3, 21690, Note_on_c, 1, 46, 105
3, 21715, Note_on_c, 1, 46, 0
3, 21720, Note_on_c, 1, 34, 100
3, 21745, Note_on_c, 1, 34, 0
3, 21750, Note_on_c, 1, 46, 105
3, 21775, Note_on_c, 1, 46, 0
3, 21780, Note_on_c, 1, 34, 100
3, 21805, Note_on_c, 1, 34, 0
3, 21810, Note_on_c, 1, 46, 105
3, 21835, Note_on_c, 1, 46, 0
3, 21840, Note_on_c, 1, 34, 100
3, 21865, Note_on_c, 1, 34, 0
3, 21870, Note_on_c, 1, 42, 105
3, 21895, Note_on_c, 1, 42, 0
3, 21900, Note_on_c, 1, 30, 100
3, 21925, Note_on_c, 1, 30, 0
3, 21930, Note_on_c, 1, 42, 105
3, 21955, Note_on_c, 1, 42, 0
3, 21960, Note_on_c, 1, 30, 100
3, 21985, Note_on_c, 1, 30, 0
3, 21990, Note_on_c, 1, 42, 105
3, 22015, Note_on_c, 1, 42, 0
3, 22020, Note_on_c, 1, 30, 100
3, 22045, Note_on_c, 1, 30, 0
3, 22050, Note_on_c, 1, 42, 105
3, 22075, Note_on_c, 1, 42, 0
3, 22080, Note_on_c, 1, 30, 100
3, 22105, Note_on_c, 1, 30, 0
3, 22110, Note_on_c, 1, 44, 105
3, 22135, Note_on_c, 1, 44, 0
3, 22140, Note_on_c, 1, 32, 100
3, 22165, Note_on_c, 1, 32, 0
3, 22170, Note_on_c, 1, 44, 105
3, 22195, Note_on_c, 1, 44, 0
3, 22200, Note_on_c, 1, 32, 100
3, 22225, Note_on_c, 1, 32, 0
3, 22230, Note_on_c, 1, 44, 105
3, 22255, Note_on_c, 1, 44, 0
3, 22260, Note_on_c, 1, 32, 100
3, 22285, Note_on_c, 1, 32, 0
3, 22290, Note_on_c, 1, 44, 105
3, 22315, Note_on_c, 1, 44, 0
3, 22320, Note_on_c, 1, 32, 100
3, 22345, Note_on_c, 1, 32, 0
3, 22350, Note_on_c, 1, 46, 105
3, 22375, Note_on_c, 1, 46, 0
3, 22380, Note_on_c, 1, 34, 100
3, 22405, Note_on_c, 1, 34, 0
3, 22410, Note_on_c, 1, 46, 105
3, 22435, Note_on_c, 1, 46, 0
3, 22440, Note_on_c, 1, 34, 100
3, 22465, Note_on_c, 1, 34, 0
3, 22470, Note_on_c, 1, 46, 105
3, 22495, Note_on_c, 1, 46, 0
3, 22500, Note_on_c, 1, 34, 100
3, 22525, Note_on_c, 1, 34, 0
3, 22530, Note_on_c, 1, 46, 105
3, 22555, Note_on_c, 1, 46, 0
3, 22560, Note_on_c, 1, 34, 100
3, 22585, Note_on_c, 1, 34, 0
3, 22590, Note_on_c, 1, 46, 105
3, 22615, Note_on_c, 1, 46, 0
3, 22620, Note_on_c, 1, 34, 100
3, 22645, Note_on_c, 1, 34, 0
3, 22650, Note_on_c, 1, 46, 105
3, 22675, Note_on_c, 1, 46, 0
3, 22680, Note_on_c, 1, 34, 100
3, 22705, Note_on_c, 1, 34, 0
3, 22710, Note_on_c, 1, 46, 105
3, 22735, Note_on_c, 1, 46, 0
3, 22740, Note_on_c, 1, 34, 100
3, 22765, Note_on_c, 1, 34, 0
3, 22770, Note_on_c, 1, 46, 105
3, 22795, Note_on_c, 1, 46, 0
3, 22800, Note_on_c, 1, 34, 100
3, 22825, Note_on_c, 1, 34, 0
3, 22830, Note_on_c, 1, 49, 105
3, 22855, Note_on_c, 1, 49, 0
3, 22860, Note_on_c, 1, 37, 100
3, 22885, Note_on_c, 1, 37, 0
3, 22890, Note_on_c, 1, 49, 105
3, 22915, Note_on_c, 1, 49, 0
3, 22920, Note_on_c, 1, 37, 100
3, 22945, Note_on_c, 1, 37, 0
3, 22950, Note_on_c, 1, 49, 105
3, 22975, Note_on_c, 1, 49, 0
3, 22980, Note_on_c, 1, 37, 100
3, 23005, Note_on_c, 1, 37, 0
3, 23010, Note_on_c, 1, 49, 105
3, 23035, Note_on_c, 1, 49, 0
3, 23040, Note_on_c, 1, 37, 100
3, 23065, Note_on_c, 1, 37, 0
3, 23070, Note_on_c, 1, 48, 105
3, 23095, Note_on_c, 1, 48, 0
3, 23100, Note_on_c, 1, 36, 100
3, 23125, Note_on_c, 1, 36, 0
3, 23130, Note_on_c, 1, 48, 105
3, 23155, Note_on_c, 1, 48, 0
3, 23160, Note_on_c, 1, 36, 100
3, 23185, Note_on_c, 1, 36, 0
3, 23190, Note_on_c, 1, 48, 105
3, 23215, Note_on_c, 1, 48, 0
3, 23220, Note_on_c, 1, 36, 100
3, 23245, Note_on_c, 1, 36, 0
3, 23250, Note_on_c, 1, 48, 105
3, 23275, Note_on_c, 1, 48, 0
3, 23280, Note_on_c, 1, 36, 100
3, 23305, Note_on_c, 1, 36, 0
3, 23310, Note_on_c, 1, 46, 105
3, 23335, Note_on_c, 1, 46, 0
3, 23340, Note_on_c, 1, 34, 100
3, 23365, Note_on_c, 1, 34, 0
3, 23370, Note_on_c, 1, 46, 105
3, 23395, Note_on_c, 1, 46, 0
3, 23400, Note_on_c, 1, 34, 100
3, 23425, Note_on_c, 1, 34, 0
3, 23430, Note_on_c, 1, 46, 105
3, 23455, Note_on_c, 1, 46, 0
3, 23460, Note_on_c, 1, 34, 100
3, 23485, Note_on_c, 1, 34, 0
3, 23490, Note_on_c, 1, 46, 105
3, 23515, Note_on_c, 1, 46, 0
3, 23520, Note_on_c, 1, 34, 100
3, 23545, Note_on_c, 1, 34, 0
3, 23550, Note_on_c, 1, 46, 96
3, 23575, Note_on_c, 1, 46, 0
3, 23580, Note_on_c, 1, 34, 91
3, 23605, Note_on_c, 1, 34, 0
3, 23610, Note_on_c, 1, 46, 96
3, 23635, Note_on_c, 1, 46, 0
3, 23640, Note_on_c, 1, 34, 91
3, 23665, Note_on_c, 1, 34, 0
3, 23670, Note_on_c, 1, 46, 96
3, 23695, Note_on_c, 1, 46, 0
3, 23700, Note_on_c, 1, 34, 91
3, 23725, Note_on_c, 1, 34, 0
3, 23730, Note_on_c, 1, 46, 96
3, 23755, Note_on_c, 1, 46, 0
3, 23760, Note_on_c, 1, 34, 91
3, 23785, Note_on_c, 1, 34, 0
3, 23790, Note_on_c, 1, 42, 96
3, 23815, Note_on_c, 1, 42, 0
3, 23820, Note_on_c, 1, 30, 91
3, 23845, Note_on_c, 1, 30, 0
3, 23850, Note_on_c, 1, 42, 96
3, 23875, Note_on_c, 1, 42, 0
3, 23880, Note_on_c, 1, 30, 91
3, 23905, Note_on_c, 1, 30, 0
3, 23910, Note_on_c, 1, 42, 96
3, 23935, Note_on_c, 1, 42, 0
3, 23940, Note_on_c, 1, 30, 91
3, 23965, Note_on_c, 1, 30, 0
3, 23970, Note_on_c, 1, 42, 96
3, 23995, Note_on_c, 1, 42, 0
3, 24000, Note_on_c, 1, 30, 91
3, 24025, Note_on_c, 1, 30, 0
3, 24030, Note_on_c, 1, 44, 96
3, 24055, Note_on_c, 1, 44, 0
3, 24060, Note_on_c, 1, 32, 91
3, 24085, Note_on_c, 1, 32, 0
3, 24090, Note_on_c, 1, 44, 96
3, 24115, Note_on_c, 1, 44, 0
3, 24120, Note_on_c, 1, 32, 91
3, 24145, Note_on_c, 1, 32, 0
3, 24150, Note_on_c, 1, 44, 96
3, 24175, Note_on_c, 1, 44, 0
3, 24180, Note_on_c, 1, 32, 91
3, 24205, Note_on_c, 1, 32, 0
3, 24210, Note_on_c, 1, 44, 96
3, 24235, Note_on_c, 1, 44, 0
3, 24240, Note_on_c, 1, 32, 91
3, 24265, Note_on_c, 1, 32, 0
3, 24270, Note_on_c, 1, 46, 96
3, 24295, Note_on_c, 1, 46, 0
3, 24300, Note_on_c, 1, 34, 91
3, 24325, Note_on_c, 1, 34, 0
3, 24330, Note_on_c, 1, 46, 96
3, 24355, Note_on_c, 1, 46, 0
3, 24360, Note_on_c, 1, 34, 91
3, 24385, Note_on_c, 1, 34, 0
3, 24390, Note_on_c, 1, 46, 96
3, 24415, Note_on_c, 1, 46, 0
3, 24420, Note_on_c, 1, 34, 91
3, 24445, Note_on_c, 1, 34, 0
3, 24450, Note_on_c, 1, 46, 96
3, 24475, Note_on_c, 1, 46, 0
3, 24480, Note_on_c, 1, 34, 91
3, 24505, Note_on_c, 1, 34, 0
3, 24510, Note_on_c, 1, 46, 96
3, 24535, Note_on_c, 1, 46, 0
3, 24540, Note_on_c, 1, 34, 91
3, 24565, Note_on_c, 1, 34, 0
3, 24570, Note_on_c, 1, 46, 96
3, 24595, Note_on_c, 1, 46, 0
3, 24600, Note_on_c, 1, 34, 91
3, 24625, Note_on_c, 1, 34, 0
3, 24630, Note_on_c, 1, 46, 96
3, 24655, Note_on_c, 1, 46, 0
3, 24660, Note_on_c, 1, 34, 91
3, 24685, Note_on_c, 1, 34, 0
3, 24690, Note_on_c, 1, 46, 96
3, 24715, Note_on_c, 1, 46, 0
3, 24720, Note_on_c, 1, 34, 91
3, 24745, Note_on_c, 1, 34, 0
3, 24750, Note_on_c, 1, 49, 96
3, 24775, Note_on_c, 1, 49, 0
3, 24780, Note_on_c, 1, 37, 91
3, 24805, Note_on_c, 1, 37, 0
3, 24810, Note_on_c, 1, 49, 96
3, 24835, Note_on_c, 1, 49, 0
3, 24840, Note_on_c, 1, 37, 91
3, 24865, Note_on_c, 1, 37, 0
3, 24870, Note_on_c, 1, 49, 96
3, 24895, Note_on_c, 1, 49, 0
3, 24900, Note_on_c, 1, 37, 91
3, 24925, Note_on_c, 1, 37, 0
3, 24930, Note_on_c, 1, 49, 96
3, 24955, Note_on_c, 1, 49, 0
3, 24960, Note_on_c, 1, 37, 91
3, 24985, Note_on_c, 1, 37, 0
3, 24990, Note_on_c, 1, 48, 96
3, 25015, Note_on_c, 1, 48, 0
3, 25020, Note_on_c, 1, 36, 91
3, 25045, Note_on_c, 1, 36, 0
3, 25050, Note_on_c, 1, 48, 96
3, 25075, Note_on_c, 1, 48, 0
3, 25080, Note_on_c, 1, 36, 91
3, 25105, Note_on_c, 1, 36, 0
3, 25110, Note_on_c, 1, 48, 96
3, 25135, Note_on_c, 1, 48, 0
3, 25140, Note_on_c, 1, 36, 91
3, 25165, Note_on_c, 1, 36, 0
3, 25170, Note_on_c, 1, 48, 96
3, 25195, Note_on_c, 1, 48, 0
3, 25200, Note_on_c, 1, 36, 91
3, 25225, Note_on_c, 1, 36, 0
3, 25230, Note_on_c, 1, 46, 96
3, 25255, Note_on_c, 1, 46, 0
3, 25260, Note_on_c, 1, 34, 91
3, 25285, Note_on_c, 1, 34, 0
3, 25290, Note_on_c, 1, 46, 96
3, 25315, Note_on_c, 1, 46, 0
3, 25320, Note_on_c, 1, 34, 91
3, 25345, Note_on_c, 1, 34, 0
3, 25350, Note_on_c, 1, 46, 96
3, 25375, Note_on_c, 1, 46, 0
3, 25380, Note_on_c, 1, 34, 91
3, 25405, Note_on_c, 1, 34, 0
3, 25410, Note_on_c, 1, 46, 96
3, 25435, Note_on_c, 1, 46, 0
3, 25440, Note_on_c, 1, 34, 91
3, 25465, Note_on_c, 1, 34, 0
3, 25470, Note_on_c, 1, 46, 96
3, 25495, Note_on_c, 1, 46, 0
3, 25500, Note_on_c, 1, 34, 91
3, 25525, Note_on_c, 1, 34, 0
3, 25530, Note_on_c, 1, 46, 96
3, 25555, Note_on_c, 1, 46, 0
3, 25560, Note_on_c, 1, 34, 91
3, 25585, Note_on_c, 1, 34, 0
3, 25590, Note_on_c, 1, 46, 96
3, 25615, Note_on_c, 1, 46, 0
3, 25620, Note_on_c, 1, 34, 91
3, 25645, Note_on_c, 1, 34, 0
3, 25650, Note_on_c, 1, 46, 96
3, 25675, Note_on_c, 1, 46, 0
3, 25680, Note_on_c, 1, 34, 91
3, 25705, Note_on_c, 1, 34, 0
3, 25710, Note_on_c, 1, 42, 96
3, 25735, Note_on_c, 1, 42, 0
3, 25740, Note_on_c, 1, 30, 91
3, 25765, Note_on_c, 1, 30, 0
3, 25770, Note_on_c, 1, 42, 96
3, 25795, Note_on_c, 1, 42, 0
3, 25800, Note_on_c, 1, 30, 91
3, 25825, Note_on_c, 1, 30, 0
3, 25830, Note_on_c, 1, 42, 96
3, 25855, Note_on_c, 1, 42, 0
3, 25860, Note_on_c, 1, 30, 91
3, 25885, Note_on_c, 1, 30, 0
3, 25890, Note_on_c, 1, 42, 96
3, 25915, Note_on_c, 1, 42, 0
3, 25920, Note_on_c, 1, 30, 91
3, 25945, Note_on_c, 1, 30, 0
3, 25950, Note_on_c, 1, 44, 96
3, 25975, Note_on_c, 1, 44, 0
3, 25980, Note_on_c, 1, 32, 91
3, 26005, Note_on_c, 1, 32, 0
3, 26010, Note_on_c, 1, 44, 96
3, 26035, Note_on_c, 1, 44, 0
3, 26040, Note_on_c, 1, 32, 91
3, 26065, Note_on_c, 1, 32, 0
3, 26070, Note_on_c, 1, 44, 96
3, 26095, Note_on_c, 1, 44, 0
3, 26100, Note_on_c, 1, 32, 91
3, 26125, Note_on_c, 1, 32, 0
3, 26130, Note_on_c, 1, 44, 96
3, 26155, Note_on_c, 1, 44, 0
3, 26160, Note_on_c, 1, 32, 91
3, 26185, Note_on_c, 1, 32, 0
3, 26190, Note_on_c, 1, 46, 96
3, 26215, Note_on_c, 1, 46, 0
3, 26220, Note_on_c, 1, 34, 91
3, 26245, Note_on_c, 1, 34, 0
3, 26250, Note_on_c, 1, 46, 96
3, 26275, Note_on_c, 1, 46, 0
3, 26280, Note_on_c, 1, 34, 91
3, 26305, Note_on_c, 1, 34, 0
3, 26310, Note_on_c, 1, 46, 96
3, 26335, Note_on_c, 1, 46, 0
3, 26340, Note_on_c, 1, 34, 91
3, 26365, Note_on_c, 1, 34, 0
3, 26370, Note_on_c, 1, 46, 96
3, 26395, Note_on_c, 1, 46, 0
3, 26400, Note_on_c, 1, 34, 91
3, 26425, Note_on_c, 1, 34, 0
3, 26430, Note_on_c, 1, 46, 96
3, 26455, Note_on_c, 1, 46, 0
3, 26460, Note_on_c, 1, 34, 91
3, 26485, Note_on_c, 1, 34, 0
3, 26490, Note_on_c, 1, 46, 96
3, 26515, Note_on_c, 1, 46, 0
3, 26520, Note_on_c, 1, 34, 91
3, 26545, Note_on_c, 1, 34, 0
3, 26550, Note_on_c, 1, 46, 96
3, 26575, Note_on_c, 1, 46, 0
3, 26580, Note_on_c, 1, 34, 91
3, 26605, Note_on_c, 1, 34, 0
3, 26610, Note_on_c, 1, 46, 96
3, 26635, Note_on_c, 1, 46, 0
3, 26640, Note_on_c, 1, 34, 91
3, 26665, Note_on_c, 1, 34, 0
3, 26670, Note_on_c, 1, 49, 96
3, 26695, Note_on_c, 1, 49, 0
3, 26700, Note_on_c, 1, 37, 91
3, 26725, Note_on_c, 1, 37, 0
3, 26730, Note_on_c, 1, 49, 96
3, 26755, Note_on_c, 1, 49, 0
3, 26760, Note_on_c, 1, 37, 91
3, 26785, Note_on_c, 1, 37, 0
3, 26790, Note_on_c, 1, 49, 96
3, 26815, Note_on_c, 1, 49, 0
3, 26820, Note_on_c, 1, 37, 91
3, 26845, Note_on_c, 1, 37, 0
3, 26850, Note_on_c, 1, 49, 96
3, 26875, Note_on_c, 1, 49, 0
3, 26880, Note_on_c, 1, 37, 91
3, 26905, Note_on_c, 1, 37, 0
3, 26910, Note_on_c, 1, 48, 96
3, 26935, Note_on_c, 1, 48, 0
3, 26940, Note_on_c, 1, 36, 91
3, 26965, Note_on_c, 1, 36, 0
3, 26970, Note_on_c, 1, 48, 96
3, 26995, Note_on_c, 1, 48, 0
3, 27000, Note_on_c, 1, 36, 91
3, 27025, Note_on_c, 1, 36, 0
3, 27030, Note_on_c, 1, 48, 96
3, 27055, Note_on_c, 1, 48, 0
3, 27060, Note_on_c, 1, 36, 91
3, 27085, Note_on_c, 1, 36, 0
3, 27090, Note_on_c, 1, 48, 96
3, 27115, Note_on_c, 1, 48, 0
3, 27120, Note_on_c, 1, 36, 91
3, 27145, Note_on_c, 1, 36, 0
3, 27150, Note_on_c, 1, 46, 96
3, 27175, Note_on_c, 1, 46, 0
3, 27180, Note_on_c, 1, 34, 91
3, 27205, Note_on_c, 1, 34, 0
3, 27210, Note_on_c, 1, 46, 96
3, 27235, Note_on_c, 1, 46, 0
3, 27240, Note_on_c, 1, 34, 91
3, 27265, Note_on_c, 1, 34, 0
3, 27270, Note_on_c, 1, 46, 96
3, 27295, Note_on_c, 1, 46, 0
3, 27300, Note_on_c, 1, 34, 91
3, 27325, Note_on_c, 1, 34, 0
3, 27330, Note_on_c, 1, 46, 96
3, 27355, Note_on_c, 1, 46, 0
3, 27360, Note_on_c, 1, 34, 91
3, 27385, Note_on_c, 1, 34, 0
3, 27390, Note_on_c, 1, 34, 88
3, 27415, Note_on_c, 1, 34, 0
3, 27420, Note_on_c, 1, 34, 88
3, 27445, Note_on_c, 1, 34, 0
3, 27450, Note_on_c, 1, 46, 88
3, 27475, Note_on_c, 1, 46, 0
3, 27480, Note_on_c, 1, 46, 88
3, 27505, Note_on_c, 1, 46, 0
3, 27510, Note_on_c, 1, 34, 88
3, 27535, Note_on_c, 1, 34, 0
3, 27540, Note_on_c, 1, 34, 88
3, 27565, Note_on_c, 1, 34, 0
3, 27570, Note_on_c, 1, 46, 88
3, 27595, Note_on_c, 1, 46, 0
3, 27600, Note_on_c, 1, 46, 88
3, 27625, Note_on_c, 1, 46, 0
3, 27630, Note_on_c, 1, 34, 88
3, 27655, Note_on_c, 1, 34, 0
3, 27660, Note_on_c, 1, 34, 88
3, 27685, Note_on_c, 1, 34, 0
3, 27690, Note_on_c, 1, 46, 88
3, 27715, Note_on_c, 1, 46, 0
3, 27720, Note_on_c, 1, 46, 88
3, 27745, Note_on_c, 1, 46, 0
3, 27750, Note_on_c, 1, 34, 88
3, 27775, Note_on_c, 1, 34, 0
3, 27780, Note_on_c, 1, 34, 88
3, 27805, Note_on_c, 1, 34, 0
3, 27810, Note_on_c, 1, 46, 88
3, 27835, Note_on_c, 1, 46, 0
3, 27840, Note_on_c, 1, 46, 88
3, 27865, Note_on_c, 1, 46, 0
3, 27870, Note_on_c, 1, 34, 88
3, 27895, Note_on_c, 1, 34, 0
3, 27900, Note_on_c, 1, 34, 88
3, 27925, Note_on_c, 1, 34, 0
3, 27930, Note_on_c, 1, 46, 88
3, 27955, Note_on_c, 1, 46, 0
3, 27960, Note_on_c, 1, 46, 88
3, 27985, Note_on_c, 1, 46, 0
3, 27990, Note_on_c, 1, 34, 88
3, 28015, Note_on_c, 1, 34, 0
3, 28020, Note_on_c, 1, 34, 88
3, 28045, Note_on_c, 1, 34, 0
3, 28050, Note_on_c, 1, 46, 88
3, 28075, Note_on_c, 1, 46, 0
3, 28080, Note_on_c, 1, 46, 88
3, 28105, Note_on_c, 1, 46, 0
3, 28110, Note_on_c, 1, 34, 88
3, 28135, Note_on_c, 1, 34, 0
3, 28140, Note_on_c, 1, 34, 88
3, 28165, Note_on_c, 1, 34, 0
3, 28170, Note_on_c, 1, 46, 88
3, 28195, Note_on_c, 1, 46, 0
3, 28200, Note_on_c, 1, 46, 88
3, 28225, Note_on_c, 1, 46, 0
3, 28230, Note_on_c, 1, 32, 88
3, 28255, Note_on_c, 1, 32, 0
3, 28260, Note_on_c, 1, 32, 88
3, 28285, Note_on_c, 1, 32, 0
3, 28290, Note_on_c, 1, 44, 88
3, 28315, Note_on_c, 1, 44, 0
3, 28320, Note_on_c, 1, 44, 88
3, 28345, Note_on_c, 1, 44, 0
3, 28350, Note_on_c, 1, 34, 88
3, 28375, Note_on_c, 1, 34, 0
3, 28380, Note_on_c, 1, 34, 88
3, 28405, Note_on_c, 1, 34, 0
3, 28410, Note_on_c, 1, 46, 88
3, 28435, Note_on_c, 1, 46, 0
3, 28440, Note_on_c, 1, 46, 88
3, 28465, Note_on_c, 1, 46, 0
3, 28470, Note_on_c, 1, 34, 88
3, 28495, Note_on_c, 1, 34, 0
3, 28500, Note_on_c, 1, 34, 88
3, 28525, Note_on_c, 1, 34, 0
3, 28530, Note_on_c, 1, 46, 88
3, 28555, Note_on_c, 1, 46, 0
3, 28560, Note_on_c, 1, 46, 88
3, 28585, Note_on_c, 1, 46, 0
3, 28590, Note_on_c, 1, 34, 88
3, 28615, Note_on_c, 1, 34, 0
3, 28620, Note_on_c, 1, 34, 88
3, 28645, Note_on_c, 1, 34, 0
3, 28650, Note_on_c, 1, 46, 88
3, 28675, Note_on_c, 1, 46, 0
3, 28680, Note_on_c, 1, 46, 88
3, 28705, Note_on_c, 1, 46, 0
3, 28710, Note_on_c, 1, 34, 88
3, 28735, Note_on_c, 1, 34, 0
3, 28740, Note_on_c, 1, 34, 88
3, 28765, Note_on_c, 1, 34, 0
3, 28770, Note_on_c, 1, 46, 88
3, 28795, Note_on_c, 1, 46, 0
3, 28800, Note_on_c, 1, 46, 88
3, 28825, Note_on_c, 1, 46, 0
3, 28830, Note_on_c, 1, 34, 88
3, 28855, Note_on_c, 1, 34, 0
3, 28860, Note_on_c, 1, 34, 88
3, 28885, Note_on_c, 1, 34, 0
3, 28890, Note_on_c, 1, 46, 88
3, 28915, Note_on_c, 1, 46, 0
3, 28920, Note_on_c, 1, 46, 88
3, 28945, Note_on_c, 1, 46, 0
3, 28950, Note_on_c, 1, 34, 88
3, 28975, Note_on_c, 1, 34, 0
3, 28980, Note_on_c, 1, 34, 88
3, 29005, Note_on_c, 1, 34, 0
3, 29010, Note_on_c, 1, 46, 88
3, 29035, Note_on_c, 1, 46, 0
3, 29040, Note_on_c, 1, 46, 88
3, 29065, Note_on_c, 1, 46, 0
3, 29070, Note_on_c, 1, 34, 88
3, 29095, Note_on_c, 1, 34, 0
3, 29100, Note_on_c, 1, 34, 88
3, 29125, Note_on_c, 1, 34, 0
3, 29130, Note_on_c, 1, 46, 88
3, 29155, Note_on_c, 1, 46, 0
3, 29160, Note_on_c, 1, 46, 88
3, 29185, Note_on_c, 1, 46, 0
3, 29190, Note_on_c, 1, 32, 88
3, 29215, Note_on_c, 1, 32, 0
3, 29220, Note_on_c, 1, 32, 88
3, 29245, Note_on_c, 1, 32, 0
3, 29250, Note_on_c, 1, 44, 88
3, 29275, Note_on_c, 1, 44, 0
3, 29280, Note_on_c, 1, 44, 88
3, 29305, Note_on_c, 1, 44, 0
3, 29310, Note_on_c, 1, 34, 88
3, 29335, Note_on_c, 1, 34, 0
3, 29340, Note_on_c, 1, 34, 88
3, 29365, Note_on_c, 1, 34, 0
3, 29370, Note_on_c, 1, 46, 88
3, 29395, Note_on_c, 1, 46, 0
3, 29400, Note_on_c, 1, 46, 88
3, 29425, Note_on_c, 1, 46, 0
3, 29430, Note_on_c, 1, 34, 88
3, 29455, Note_on_c, 1, 34, 0
3, 29460, Note_on_c, 1, 34, 88
3, 29485, Note_on_c, 1, 34, 0
3, 29490, Note_on_c, 1, 46, 88
3, 29515, Note_on_c, 1, 46, 0
3, 29520, Note_on_c, 1, 46, 88
3, 29545, Note_on_c, 1, 46, 0
3, 29550, Note_on_c, 1, 34, 88
3, 29575, Note_on_c, 1, 34, 0
3, 29580, Note_on_c, 1, 34, 88
3, 29605, Note_on_c, 1, 34, 0
3, 29610, Note_on_c, 1, 46, 88
3, 29635, Note_on_c, 1, 46, 0
3, 29640, Note_on_c, 1, 46, 88
3, 29665, Note_on_c, 1, 46, 0
3, 29670, Note_on_c, 1, 34, 88
3, 29695, Note_on_c, 1, 34, 0
3, 29700, Note_on_c, 1, 34, 88
3, 29725, Note_on_c, 1, 34, 0
3, 29730, Note_on_c, 1, 46, 88
3, 29755, Note_on_c, 1, 46, 0
3, 29760, Note_on_c, 1, 46, 88
3, 29785, Note_on_c, 1, 46, 0
3, 29790, Note_on_c, 1, 34, 88
3, 29815, Note_on_c, 1, 34, 0
3, 29820, Note_on_c, 1, 34, 88
3, 29845, Note_on_c, 1, 34, 0
3, 29850, Note_on_c, 1, 46, 88
3, 29875, Note_on_c, 1, 46, 0
3, 29880, Note_on_c, 1, 46, 88
3, 29905, Note_on_c, 1, 46, 0
3, 29910, Note_on_c, 1, 34, 88
3, 29935, Note_on_c, 1, 34, 0
3, 29940, Note_on_c, 1, 34, 88
3, 29965, Note_on_c, 1, 34, 0
3, 29970, Note_on_c, 1, 46, 88
3, 29995, Note_on_c, 1, 46, 0
3, 30000, Note_on_c, 1, 46, 88
3, 30025, Note_on_c, 1, 46, 0
3, 30030, Note_on_c, 1, 34, 88
3, 30055, Note_on_c, 1, 34, 0
3, 30060, Note_on_c, 1, 34, 88
3, 30085, Note_on_c, 1, 34, 0
3, 30090, Note_on_c, 1, 46, 88
3, 30115, Note_on_c, 1, 46, 0
3, 30120, Note_on_c, 1, 46, 88
3, 30145, Note_on_c, 1, 46, 0
3, 30150, Note_on_c, 1, 32, 88
3, 30175, Note_on_c, 1, 32, 0
3, 30180, Note_on_c, 1, 32, 88
3, 30205, Note_on_c, 1, 32, 0
3, 30210, Note_on_c, 1, 44, 88
3, 30235, Note_on_c, 1, 44, 0
3, 30240, Note_on_c, 1, 44, 88
3, 30265, Note_on_c, 1, 44, 0
3, 30270, Note_on_c, 1, 34, 88
3, 30295, Note_on_c, 1, 34, 0
3, 30300, Note_on_c, 1, 34, 88
3, 30325, Note_on_c, 1, 34, 0
3, 30330, Note_on_c, 1, 46, 88
3, 30355, Note_on_c, 1, 46, 0
3, 30360, Note_on_c, 1, 46, 88
3, 30385, Note_on_c, 1, 46, 0
3, 30390, Note_on_c, 1, 34, 88
3, 30415, Note_on_c, 1, 34, 0
3, 30420, Note_on_c, 1, 34, 88
3, 30445, Note_on_c, 1, 34, 0
3, 30450, Note_on_c, 1, 46, 88
3, 30475, Note_on_c, 1, 46, 0
3, 30480, Note_on_c, 1, 46, 88
3, 30505, Note_on_c, 1, 46, 0
3, 30510, Note_on_c, 1, 34, 88
3, 30535, Note_on_c, 1, 34, 0
3, 30540, Note_on_c, 1, 34, 88
3, 30565, Note_on_c, 1, 34, 0
3, 30570, Note_on_c, 1, 46, 88
3, 30595, Note_on_c, 1, 46, 0
3, 30600, Note_on_c, 1, 46, 88
3, 30625, Note_on_c, 1, 46, 0
3, 30630, Note_on_c, 1, 34, 88
3, 30655, Note_on_c, 1, 34, 0
3, 30660, Note_on_c, 1, 34, 88
3, 30685, Note_on_c, 1, 34, 0
3, 30690, Note_on_c, 1, 46, 88
3, 30715, Note_on_c, 1, 46, 0
3, 30720, Note_on_c, 1, 46, 88
3, 30745, Note_on_c, 1, 46, 0
3, 30750, Note_on_c, 1, 34, 88
3, 30775, Note_on_c, 1, 34, 0
3, 30780, Note_on_c, 1, 34, 88
3, 30805, Note_on_c, 1, 34, 0
3, 30810, Note_on_c, 1, 46, 88
3, 30835, Note_on_c, 1, 46, 0
3, 30840, Note_on_c, 1, 46, 88
3, 30865, Note_on_c, 1, 46, 0
3, 30870, Note_on_c, 1, 34, 88
3, 30895, Note_on_c, 1, 34, 0
3, 30900, Note_on_c, 1, 34, 88
3, 30925, Note_on_c, 1, 34, 0
3, 30930, Note_on_c, 1, 46, 88
3, 30955, Note_on_c, 1, 46, 0
3, 30960, Note_on_c, 1, 46, 88
3, 30985, Note_on_c, 1, 46, 0
3, 30990, Note_on_c, 1, 34, 88
3, 31015, Note_on_c, 1, 34, 0
3, 31020, Note_on_c, 1, 34, 88
3, 31045, Note_on_c, 1, 34, 0
3, 31050, Note_on_c, 1, 46, 88
3, 31075, Note_on_c, 1, 46, 0
3, 31080, Note_on_c, 1, 46, 88
3, 31105, Note_on_c, 1, 46, 0
3, 31110, Note_on_c, 1, 32, 88
3, 31135, Note_on_c, 1, 32, 0
3, 31140, Note_on_c, 1, 32, 88
3, 31165, Note_on_c, 1, 32, 0
3, 31170, Note_on_c, 1, 44, 88
3, 31195, Note_on_c, 1, 44, 0
3, 31200, Note_on_c, 1, 44, 88
3, 31225, Note_on_c, 1, 44, 0
3, 31230, Note_on_c, 1, 46, 88
3, 31230, Note_on_c, 1, 65, 72
3, 31230, Note_on_c, 1, 53, 80
3, 31255, Note_on_c, 1, 46, 0
3, 31260, Note_on_c, 1, 46, 88
3, 31285, Note_on_c, 1, 46, 0
3, 31290, Note_on_c, 1, 58, 88
3, 31315, Note_on_c, 1, 58, 0
3, 31320, Note_on_c, 1, 58, 88
3, 31345, Note_on_c, 1, 58, 0
3, 31350, Note_on_c, 1, 46, 88
3, 31375, Note_on_c, 1, 46, 0
3, 31380, Note_on_c, 1, 46, 88
3, 31405, Note_on_c, 1, 46, 0
3, 31410, Note_on_c, 1, 58, 88
3, 31435, Note_on_c, 1, 58, 0
3, 31440, Note_on_c, 1, 58, 88
3, 31465, Note_on_c, 1, 58, 0
3, 31470, Note_on_c, 1, 46, 88
3, 31495, Note_on_c, 1, 46, 0
3, 31500, Note_on_c, 1, 46, 88
3, 31525, Note_on_c, 1, 46, 0
3, 31530, Note_on_c, 1, 58, 88
3, 31555, Note_on_c, 1, 58, 0
3, 31560, Note_on_c, 1, 58, 88
3, 31585, Note_on_c, 1, 58, 0
3, 31590, Note_on_c, 1, 46, 88
3, 31615, Note_on_c, 1, 46, 0
3, 31620, Note_on_c, 1, 46, 88
3, 31645, Note_on_c, 1, 46, 0
3, 31645, Note_on_c, 1, 53, 0
3, 31645, Note_on_c, 1, 65, 0
3, 31650, Note_on_c, 1, 58, 88
3, 31650, Note_on_c, 1, 66, 72
3, 31650, Note_on_c, 1, 54, 80
3, 31675, Note_on_c, 1, 58, 0
3, 31680, Note_on_c, 1, 58, 88
3, 31705, Note_on_c, 1, 58, 0
3, 31705, Note_on_c, 1, 54, 0
3, 31705, Note_on_c, 1, 66, 0
3, 31710, Note_on_c, 1, 46, 88
3, 31710, Note_on_c, 1, 65, 72
3, 31710, Note_on_c, 1, 53, 80
3, 31735, Note_on_c, 1, 46, 0
3, 31740, Note_on_c, 1, 46, 88
3, 31765, Note_on_c, 1, 46, 0
3, 31770, Note_on_c, 1, 58, 88
3, 31795, Note_on_c, 1, 58, 0
3, 31800, Note_on_c, 1, 58, 88
3, 31825, Note_on_c, 1, 58, 0
3, 31830, Note_on_c, 1, 46, 88
3, 31855, Note_on_c, 1, 46, 0
3, 31860, Note_on_c, 1, 46, 88
3, 31885, Note_on_c, 1, 46, 0
3, 31890, Note_on_c, 1, 58, 88
3, 31915, Note_on_c, 1, 58, 0
3, 31920, Note_on_c, 1, 58, 88
3, 31945, Note_on_c, 1, 58, 0
3, 31950, Note_on_c, 1, 46, 88
3, 31975, Note_on_c, 1, 46, 0
3, 31980, Note_on_c, 1, 46, 88
3, 32005, Note_on_c, 1, 46, 0
3, 32010, Note_on_c, 1, 58, 88
3, 32035, Note_on_c, 1, 58, 0
3, 32040, Note_on_c, 1, 58, 88
3, 32065, Note_on_c, 1, 58, 0
3, 32070, Note_on_c, 1, 44, 88
3, 32095, Note_on_c, 1, 44, 0
3, 32100, Note_on_c, 1, 44, 88
3, 32125, Note_on_c, 1, 44, 0
3, 32125, Note_on_c, 1, 53, 0
3, 32125, Note_on_c, 1, 65, 0
3, 32130, Note_on_c, 1, 56, 88
3, 32130, Note_on_c, 1, 66, 72
3, 32130, Note_on_c, 1, 54, 80
3, 32155, Note_on_c, 1, 56, 0
3, 32160, Note_on_c, 1, 56, 88
3, 32185, Note_on_c, 1, 56, 0
3, 32185, Note_on_c, 1, 54, 0
3, 32185, Note_on_c, 1, 66, 0
3, 32190, Note_on_c, 1, 46, 88
3, 32190, Note_on_c, 1, 68, 72
3, 32190, Note_on_c, 1, 56, 80
3, 32215, Note_on_c, 1, 46, 0
3, 32220, Note_on_c, 1, 46, 88
3, 32245, Note_on_c, 1, 46, 0
3, 32250, Note_on_c, 1, 58, 88
3, 32275, Note_on_c, 1, 58, 0
3, 32280, Note_on_c, 1, 58, 88
3, 32305, Note_on_c, 1, 58, 0
3, 32310, Note_on_c, 1, 46, 88
3, 32335, Note_on_c, 1, 46, 0
3, 32340, Note_on_c, 1, 46, 88
3, 32365, Note_on_c, 1, 46, 0
3, 32370, Note_on_c, 1, 58, 88
3, 32395, Note_on_c, 1, 58, 0
3, 32400, Note_on_c, 1, 58, 88
3, 32425, Note_on_c, 1, 58, 0
3, 32430, Note_on_c, 1, 46, 88
3, 32455, Note_on_c, 1, 46, 0
3, 32460, Note_on_c, 1, 46, 88
3, 32485, Note_on_c, 1, 46, 0
3, 32490, Note_on_c, 1, 58, 88
3, 32515, Note_on_c, 1, 58, 0
3, 32520, Note_on_c, 1, 58, 88
3, 32545, Note_on_c, 1, 58, 0
3, 32550, Note_on_c, 1, 46, 88
3, 32575, Note_on_c, 1, 46, 0
3, 32580, Note_on_c, 1, 46, 88
3, 32605, Note_on_c, 1, 46, 0
3, 32605, Note_on_c, 1, 56, 0
3, 32605, Note_on_c, 1, 68, 0
3, 32610, Note_on_c, 1, 58, 88
3, 32610, Note_on_c, 1, 66, 72
3, 32610, Note_on_c, 1, 54, 80
3, 32635, Note_on_c, 1, 58, 0
3, 32640, Note_on_c, 1, 58, 88
3, 32665, Note_on_c, 1, 58, 0
3, 32665, Note_on_c, 1, 54, 0
3, 32665, Note_on_c, 1, 66, 0
3, 32670, Note_on_c, 1, 46, 88
3, 32670, Note_on_c, 1, 65, 72
3, 32670, Note_on_c, 1, 53, 80
3, 32695, Note_on_c, 1, 46, 0
3, 32700, Note_on_c, 1, 46, 88
3, 32725, Note_on_c, 1, 46, 0
3, 32730, Note_on_c, 1, 58, 88
3, 32755, Note_on_c, 1, 58, 0
3, 32760, Note_on_c, 1, 58, 88
3, 32785, Note_on_c, 1, 58, 0
3, 32790, Note_on_c, 1, 46, 88
3, 32815, Note_on_c, 1, 46, 0
3, 32820, Note_on_c, 1, 46, 88
3, 32845, Note_on_c, 1, 46, 0
3, 32850, Note_on_c, 1, 58, 88
3, 32875, Note_on_c, 1, 58, 0
3, 32880, Note_on_c, 1, 58, 88
3, 32905, Note_on_c, 1, 58, 0
3, 32910, Note_on_c, 1, 46, 88
3, 32935, Note_on_c, 1, 46, 0
3, 32940, Note_on_c, 1, 46, 88
3, 32965, Note_on_c, 1, 46, 0
3, 32970, Note_on_c, 1, 58, 88
3, 32995, Note_on_c, 1, 58, 0
3, 33000, Note_on_c, 1, 58, 88
3, 33025, Note_on_c, 1, 58, 0
3, 33030, Note_on_c, 1, 44, 88
3, 33055, Note_on_c, 1, 44, 0
3, 33060, Note_on_c, 1, 44, 88
3, 33085, Note_on_c, 1, 44, 0
3, 33090, Note_on_c, 1, 56, 88
3, 33100, Note_on_c, 1, 53, 0
3, 33100, Note_on_c, 1, 65, 0
3, 33115, Note_on_c, 1, 56, 0
3, 33120, Note_on_c, 1, 56, 88
3, 33145, Note_on_c, 1, 56, 0
3, 33150, Note_on_c, 1, 46, 88
3, 33150, Note_on_c, 1, 65, 72
3, 33150, Note_on_c, 1, 53, 80
3, 33175, Note_on_c, 1, 46, 0
3, 33180, Note_on_c, 1, 46, 88
3, 33205, Note_on_c, 1, 46, 0
3, 33210, Note_on_c, 1, 58, 88
3, 33235, Note_on_c, 1, 58, 0
3, 33240, Note_on_c, 1, 58, 88
3, 33265, Note_on_c, 1, 58, 0
3, 33270, Note_on_c, 1, 46, 88
3, 33295, Note_on_c, 1, 46, 0
3, 33300, Note_on_c, 1, 46, 88
3, 33325, Note_on_c, 1, 46, 0
3, 33330, Note_on_c, 1, 58, 88
3, 33355, Note_on_c, 1, 58, 0
3, 33360, Note_on_c, 1, 58, 88
3, 33385, Note_on_c, 1, 58, 0
3, 33390, Note_on_c, 1, 46, 88
3, 33415, Note_on_c, 1, 46, 0
3, 33420, Note_on_c, 1, 46, 88
3, 33445, Note_on_c, 1, 46, 0
3, 33450, Note_on_c, 1, 58, 88
3, 33475, Note_on_c, 1, 58, 0
3, 33480, Note_on_c, 1, 58, 88
3, 33505, Note_on_c, 1, 58, 0
3, 33510, Note_on_c, 1, 46, 88
3, 33535, Note_on_c, 1, 46, 0
3, 33540, Note_on_c, 1, 46, 88
3, 33565, Note_on_c, 1, 46, 0
3, 33565, Note_on_c, 1, 53, 0
3, 33565, Note_on_c, 1, 65, 0
3, 33570, Note_on_c, 1, 58, 88
3, 33570, Note_on_c, 1, 66, 72
3, 33570, Note_on_c, 1, 54, 80
3, 33595, Note_on_c, 1, 58, 0
3, 33600, Note_on_c, 1, 58, 88
3, 33625, Note_on_c, 1, 58, 0
3, 33625, Note_on_c, 1, 54, 0
3, 33625, Note_on_c, 1, 66, 0
3, 33630, Note_on_c, 1, 46, 88
3, 33630, Note_on_c, 1, 65, 72
3, 33630, Note_on_c, 1, 53, 80
3, 33655, Note_on_c, 1, 46, 0
3, 33660, Note_on_c, 1, 46, 88
3, 33685, Note_on_c, 1, 46, 0
3, 33690, Note_on_c, 1, 58, 88
3, 33715, Note_on_c, 1, 58, 0
3, 33720, Note_on_c, 1, 58, 88
3, 33745, Note_on_c, 1, 58, 0
3, 33750, Note_on_c, 1, 46, 88
3, 33775, Note_on_c, 1, 46, 0
3, 33780, Note_on_c, 1, 46, 88
3, 33805, Note_on_c, 1, 46, 0
3, 33810, Note_on_c, 1, 58, 88
3, 33835, Note_on_c, 1, 58, 0
3, 33840, Note_on_c, 1, 58, 88
3, 33865, Note_on_c, 1, 58, 0
3, 33870, Note_on_c, 1, 46, 88
3, 33895, Note_on_c, 1, 46, 0
3, 33900, Note_on_c, 1, 46, 88
3, 33925, Note_on_c, 1, 46, 0
3, 33930, Note_on_c, 1, 58, 88
3, 33955, Note_on_c, 1, 58, 0
3, 33960, Note_on_c, 1, 58, 88
3, 33985, Note_on_c, 1, 58, 0
3, 33990, Note_on_c, 1, 44, 88
3, 34015, Note_on_c, 1, 44, 0
3, 34020, Note_on_c, 1, 44, 88
3, 34045, Note_on_c, 1, 44, 0
3, 34045, Note_on_c, 1, 53, 0
3, 34045, Note_on_c, 1, 65, 0
3, 34050, Note_on_c, 1, 56, 88
3, 34050, Note_on_c, 1, 61, 72
3, 34050, Note_on_c, 1, 49, 80
3, 34075, Note_on_c, 1, 56, 0
3, 34080, Note_on_c, 1, 56, 88
3, 34105, Note_on_c, 1, 56, 0
3, 34105, Note_on_c, 1, 49, 0
3, 34105, Note_on_c, 1, 61, 0
3, 34110, Note_on_c, 1, 46, 88
3, 34110, Note_on_c, 1, 58, 72
3, 34110, Note_on_c, 1, 58, 80
3, 34135, Note_on_c, 1, 46, 0
3, 34140, Note_on_c, 1, 46, 88
3, 34165, Note_on_c, 1, 46, 0
3, 34170, Note_on_c, 1, 58, 88
3, 34195, Note_on_c, 1, 58, 0
3, 34200, Note_on_c, 1, 58, 88
3, 34225, Note_on_c, 1, 58, 0
3, 34230, Note_on_c, 1, 46, 88
3, 34255, Note_on_c, 1, 46, 0
3, 34260, Note_on_c, 1, 46, 88
3, 34285, Note_on_c, 1, 46, 0
3, 34290, Note_on_c, 1, 58, 88
3, 34315, Note_on_c, 1, 58, 0
3, 34320, Note_on_c, 1, 58, 88
3, 34345, Note_on_c, 1, 58, 0
3, 34350, Note_on_c, 1, 46, 88
3, 34375, Note_on_c, 1, 46, 0
3, 34380, Note_on_c, 1, 46, 88
3, 34405, Note_on_c, 1, 46, 0
3, 34410, Note_on_c, 1, 58, 88
3, 34435, Note_on_c, 1, 58, 0
3, 34440, Note_on_c, 1, 58, 88
3, 34465, Note_on_c, 1, 58, 0
3, 34470, Note_on_c, 1, 46, 88
3, 34495, Note_on_c, 1, 46, 0
3, 34500, Note_on_c, 1, 46, 88
3, 34525, Note_on_c, 1, 46, 0
3, 34530, Note_on_c, 1, 58, 88
3, 34555, Note_on_c, 1, 58, 0
3, 34560, Note_on_c, 1, 58, 88
3, 34585, Note_on_c, 1, 58, 0
3, 34590, Note_on_c, 1, 46, 88
3, 34615, Note_on_c, 1, 46, 0
3, 34620, Note_on_c, 1, 46, 88
3, 34645, Note_on_c, 1, 46, 0
3, 34650, Note_on_c, 1, 58, 88
3, 34675, Note_on_c, 1, 58, 0
3, 34680, Note_on_c, 1, 58, 88
3, 34705, Note_on_c, 1, 58, 0
3, 34710, Note_on_c, 1, 46, 88
3, 34735, Note_on_c, 1, 46, 0
3, 34740, Note_on_c, 1, 46, 88
3, 34765, Note_on_c, 1, 46, 0
3, 34770, Note_on_c, 1, 58, 88
3, 34795, Note_on_c, 1, 58, 0
3, 34800, Note_on_c, 1, 58, 88
3, 34825, Note_on_c, 1, 58, 0
3, 34830, Note_on_c, 1, 46, 88
3, 34855, Note_on_c, 1, 46, 0
3, 34860, Note_on_c, 1, 46, 88
3, 34885, Note_on_c, 1, 46, 0
3, 34890, Note_on_c, 1, 58, 88
3, 34915, Note_on_c, 1, 58, 0
3, 34920, Note_on_c, 1, 58, 88
3, 34945, Note_on_c, 1, 58, 0
3, 34950, Note_on_c, 1, 44, 88
3, 34970, Note_on_c, 1, 44, 0
3, 34970, Note_on_c, 1, 58, 0
3, 34970, Note_on_c, 1, 58, 0
3, 34980, Note_on_c, 1, 44, 88
3, 35005, Note_on_c, 1, 44, 0
3, 35010, Note_on_c, 1, 56, 88
3, 35035, Note_on_c, 1, 56, 0
3, 35040, Note_on_c, 1, 56, 88
3, 35065, Note_on_c, 1, 56, 0
3, 35070, Note_on_c, 1, 46, 88
3, 35070, Note_on_c, 1, 65, 72
3, 35070, Note_on_c, 1, 53, 80
3, 35095, Note_on_c, 1, 46, 0
3, 35100, Note_on_c, 1, 46, 88
3, 35125, Note_on_c, 1, 46, 0
3, 35130, Note_on_c, 1, 58, 88
3, 35155, Note_on_c, 1, 58, 0
3, 35160, Note_on_c, 1, 58, 88
3, 35185, Note_on_c, 1, 58, 0
3, 35190, Note_on_c, 1, 46, 88
3, 35215, Note_on_c, 1, 46, 0
3, 35220, Note_on_c, 1, 46, 88
3, 35245, Note_on_c, 1, 46, 0
3, 35250, Note_on_c, 1, 58, 88
3, 35275, Note_on_c, 1, 58, 0
3, 35280, Note_on_c, 1, 58, 88
3, 35305, Note_on_c, 1, 58, 0
3, 35310, Note_on_c, 1, 46, 88
3, 35335, Note_on_c, 1, 46, 0
3, 35340, Note_on_c, 1, 46, 88
3, 35365, Note_on_c, 1, 46, 0
3, 35370, Note_on_c, 1, 58, 88
3, 35395, Note_on_c, 1, 58, 0
3, 35400, Note_on_c, 1, 58, 88
3, 35425, Note_on_c, 1, 58, 0
3, 35430, Note_on_c, 1, 46, 88
3, 35455, Note_on_c, 1, 46, 0
3, 35460, Note_on_c, 1, 46, 88
3, 35485, Note_on_c, 1, 46, 0
3, 35485, Note_on_c, 1, 53, 0
3, 35485, Note_on_c, 1, 65, 0
3, 35490, Note_on_c, 1, 58, 88
3, 35490, Note_on_c, 1, 66, 72
3, 35490, Note_on_c, 1, 54, 80
3, 35515, Note_on_c, 1, 58, 0
3, 35520, Note_on_c, 1, 58, 88
3, 35545, Note_on_c, 1, 58, 0
3, 35545, Note_on_c, 1, 54, 0
3, 35545, Note_on_c, 1, 66, 0
3, 35550, Note_on_c, 1, 46, 88
3, 35550, Note_on_c, 1, 65, 72
3, 35550, Note_on_c, 1, 53, 80
3, 35575, Note_on_c, 1, 46, 0
3, 35580, Note_on_c, 1, 46, 88
3, 35605, Note_on_c, 1, 46, 0
3, 35610, Note_on_c, 1, 58, 88
3, 35635, Note_on_c, 1, 58, 0
3, 35640, Note_on_c, 1, 58, 88
3, 35665, Note_on_c, 1, 58, 0
3, 35670, Note_on_c, 1, 46, 88
3, 35695, Note_on_c, 1, 46, 0
3, 35700, Note_on_c, 1, 46, 88
3, 35725, Note_on_c, 1, 46, 0
3, 35730, Note_on_c, 1, 58, 88
3, 35755, Note_on_c, 1, 58, 0
3, 35760, Note_on_c, 1, 58, 88
3, 35785, Note_on_c, 1, 58, 0
3, 35790, Note_on_c, 1, 46, 88
3, 35815, Note_on_c, 1, 46, 0
3, 35820, Note_on_c, 1, 46, 88
3, 35845, Note_on_c, 1, 46, 0
3, 35850, Note_on_c, 1, 58, 88
3, 35875, Note_on_c, 1, 58, 0
3, 35880, Note_on_c, 1, 58, 88
3, 35905, Note_on_c, 1, 58, 0
3, 35910, Note_on_c, 1, 44, 88
3, 35935, Note_on_c, 1, 44, 0
3, 35940, Note_on_c, 1, 44, 88
3, 35965, Note_on_c, 1, 44, 0
3, 35965, Note_on_c, 1, 53, 0
3, 35965, Note_on_c, 1, 65, 0
3, 35970, Note_on_c, 1, 56, 88
3, 35970, Note_on_c, 1, 66, 72
3, 35970, Note_on_c, 1, 54, 80
3, 35995, Note_on_c, 1, 56, 0
3, 36000, Note_on_c, 1, 56, 88
3, 36025, Note_on_c, 1, 56, 0
3, 36025, Note_on_c, 1, 54, 0
3, 36025, Note_on_c, 1, 66, 0
3, 36030, Note_on_c, 1, 46, 88
3, 36030, Note_on_c, 1, 68, 72
3, 36030, Note_on_c, 1, 56, 80
3, 36055, Note_on_c, 1, 46, 0
3, 36060, Note_on_c, 1, 46, 88
3, 36085, Note_on_c, 1, 46, 0
3, 36090, Note_on_c, 1, 58, 88
3, 36115, Note_on_c, 1, 58, 0
3, 36120, Note_on_c, 1, 58, 88
3, 36145, Note_on_c, 1, 58, 0
3, 36150, Note_on_c, 1, 46, 88
3, 36175, Note_on_c, 1, 46, 0
3, 36180, Note_on_c, 1, 46, 88
3, 36205, Note_on_c, 1, 46, 0
3, 36210, Note_on_c, 1, 58, 88
3, 36235, Note_on_c, 1, 58, 0
3, 36240, Note_on_c, 1, 58, 88
3, 36265, Note_on_c, 1, 58, 0
3, 36270, Note_on_c, 1, 46, 88
3, 36295, Note_on_c, 1, 46, 0
3, 36300, Note_on_c, 1, 46, 88
3, 36325, Note_on_c, 1, 46, 0
3, 36330, Note_on_c, 1, 58, 88
3, 36355, Note_on_c, 1, 58, 0
3, 36360, Note_on_c, 1, 58, 88
3, 36385, Note_on_c, 1, 58, 0
3, 36390, Note_on_c, 1, 46, 88
3, 36415, Note_on_c, 1, 46, 0
3, 36420, Note_on_c, 1, 46, 88
3, 36445, Note_on_c, 1, 46, 0
3, 36445, Note_on_c, 1, 56, 0
3, 36445, Note_on_c, 1, 68, 0
3, 36450, Note_on_c, 1, 58, 88
3, 36450, Note_on_c, 1, 66, 72
3, 36450, Note_on_c, 1, 54, 80
3, 36475, Note_on_c, 1, 58, 0
3, 36480, Note_on_c, 1, 58, 88
3, 36505, Note_on_c, 1, 58, 0
3, 36505, Note_on_c, 1, 54, 0
3, 36505, Note_on_c, 1, 66, 0
3, 36510, Note_on_c, 1, 46, 88
3, 36510, Note_on_c, 1, 65, 72
3, 36510, Note_on_c, 1, 53, 80
3, 36535, Note_on_c, 1, 46, 0
3, 36540, Note_on_c, 1, 46, 88
3, 36565, Note_on_c, 1, 46, 0
3, 36570, Note_on_c, 1, 58, 88
3, 36595, Note_on_c, 1, 58, 0
3, 36600, Note_on_c, 1, 58, 88
3, 36625, Note_on_c, 1, 58, 0
3, 36630, Note_on_c, 1, 46, 88
3, 36655, Note_on_c, 1, 46, 0
3, 36660, Note_on_c, 1, 46, 88
3, 36685, Note_on_c, 1, 46, 0
3, 36690, Note_on_c, 1, 58, 88
3, 36715, Note_on_c, 1, 58, 0
3, 36720, Note_on_c, 1, 58, 88
3, 36745, Note_on_c, 1, 58, 0
3, 36750, Note_on_c, 1, 46, 88
3, 36775, Note_on_c, 1, 46, 0
3, 36780, Note_on_c, 1, 46, 88
3, 36805, Note_on_c, 1, 46, 0
3, 36810, Note_on_c, 1, 58, 88
3, 36835, Note_on_c, 1, 58, 0
3, 36840, Note_on_c, 1, 58, 88
3, 36865, Note_on_c, 1, 58, 0
3, 36870, Note_on_c, 1, 44, 88
3, 36895, Note_on_c, 1, 44, 0
3, 36900, Note_on_c, 1, 44, 88
3, 36925, Note_on_c, 1, 44, 0
3, 36930, Note_on_c, 1, 56, 88
3, 36940, Note_on_c, 1, 53, 0
3, 36940, Note_on_c, 1, 65, 0
3, 36955, Note_on_c, 1, 56, 0
3, 36960, Note_on_c, 1, 56, 88
3, 36985, Note_on_c, 1, 56, 0
3, 36990, Note_on_c, 1, 46, 88
3, 36990, Note_on_c, 1, 65, 72
3, 36990, Note_on_c, 1, 53, 80
3, 37015, Note_on_c, 1, 46, 0
3, 37020, Note_on_c, 1, 46, 88
3, 37045, Note_on_c, 1, 46, 0
3, 37050, Note_on_c, 1, 58, 88
3, 37075, Note_on_c, 1, 58, 0
3, 37080, Note_on_c, 1, 58, 88
3, 37105, Note_on_c, 1, 58, 0
3, 37110, Note_on_c, 1, 46, 88
3, 37135, Note_on_c, 1, 46, 0
3, 37140, Note_on_c, 1, 46, 88
3, 37165, Note_on_c, 1, 46, 0
3, 37170, Note_on_c, 1, 58, 88
3, 37195, Note_on_c, 1, 58, 0
3, 37200, Note_on_c, 1, 58, 88
3, 37225, Note_on_c, 1, 58, 0
3, 37230, Note_on_c, 1, 46, 88
3, 37255, Note_on_c, 1, 46, 0
3, 37260, Note_on_c, 1, 46, 88
3, 37285, Note_on_c, 1, 46, 0
3, 37290, Note_on_c, 1, 58, 88
3, 37315, Note_on_c, 1, 58, 0
3, 37320, Note_on_c, 1, 58, 88
3, 37345, Note_on_c, 1, 58, 0
3, 37350, Note_on_c, 1, 46, 88
3, 37375, Note_on_c, 1, 46, 0
3, 37380, Note_on_c, 1, 46, 88
3, 37405, Note_on_c, 1, 46, 0
3, 37405, Note_on_c, 1, 53, 0
3, 37405, Note_on_c, 1, 65, 0
3, 37410, Note_on_c, 1, 58, 88
3, 37410, Note_on_c, 1, 66, 72
3, 37410, Note_on_c, 1, 54, 80
3, 37435, Note_on_c, 1, 58, 0
3, 37440, Note_on_c, 1, 58, 88
3, 37465, Note_on_c, 1, 58, 0
3, 37465, Note_on_c, 1, 54, 0
3, 37465, Note_on_c, 1, 66, 0
3, 37470, Note_on_c, 1, 46, 88
3, 37470, Note_on_c, 1, 65, 72
3, 37470, Note_on_c, 1, 53, 80
3, 37495, Note_on_c, 1, 46, 0
3, 37500, Note_on_c, 1, 46, 88
3, 37525, Note_on_c, 1, 46, 0
3, 37530, Note_on_c, 1, 58, 88
3, 37555, Note_on_c, 1, 58, 0
3, 37560, Note_on_c, 1, 58, 88
3, 37585, Note_on_c, 1, 58, 0
3, 37590, Note_on_c, 1, 46, 88
3, 37615, Note_on_c, 1, 46, 0
3, 37620, Note_on_c, 1, 46, 88
3, 37645, Note_on_c, 1, 46, 0
3, 37650, Note_on_c, 1, 58, 88
3, 37675, Note_on_c, 1, 58, 0
3, 37680, Note_on_c, 1, 58, 88
3, 37705, Note_on_c, 1, 58, 0
3, 37710, Note_on_c, 1, 46, 88
3, 37735, Note_on_c, 1, 46, 0
3, 37740, Note_on_c, 1, 46, 88
3, 37765, Note_on_c, 1, 46, 0
3, 37770, Note_on_c, 1, 58, 88
3, 37795, Note_on_c, 1, 58, 0
3, 37800, Note_on_c, 1, 58, 88
3, 37825, Note_on_c, 1, 58, 0
3, 37830, Note_on_c, 1, 44, 88
3, 37855, Note_on_c, 1, 44, 0
3, 37860, Note_on_c, 1, 44, 88
3, 37885, Note_on_c, 1, 44, 0
3, 37885, Note_on_c, 1, 53, 0
3, 37885, Note_on_c, 1, 65, 0
3, 37890, Note_on_c, 1, 56, 88
3, 37890, Note_on_c, 1, 61, 72
3, 37890, Note_on_c, 1, 49, 80
3, 37915, Note_on_c, 1, 56, 0
3, 37920, Note_on_c, 1, 56, 88
3, 37945, Note_on_c, 1, 56, 0
3, 37945, Note_on_c, 1, 49, 0
3, 37945, Note_on_c, 1, 61, 0
3, 37950, Note_on_c, 1, 46, 88
3, 37950, Note_on_c, 1, 58, 72
3, 37950, Note_on_c, 1, 58, 80
3, 37975, Note_on_c, 1, 46, 0
3, 37980, Note_on_c, 1, 46, 88
3, 38005, Note_on_c, 1, 46, 0
3, 38010, Note_on_c, 1, 58, 88
3, 38035, Note_on_c, 1, 58, 0
3, 38040, Note_on_c, 1, 58, 88
3, 38065, Note_on_c, 1, 58, 0
3, 38070, Note_on_c, 1, 46, 88
3, 38095, Note_on_c, 1, 46, 0
3, 38100, Note_on_c, 1, 46, 88
3, 38125, Note_on_c, 1, 46, 0
3, 38130, Note_on_c, 1, 58, 88
3, 38155, Note_on_c, 1, 58, 0
3, 38160, Note_on_c, 1, 58, 88
3, 38185, Note_on_c, 1, 58, 0
3, 38190, Note_on_c, 1, 46, 88
3, 38215, Note_on_c, 1, 46, 0
3, 38220, Note_on_c, 1, 46, 88
3, 38245, Note_on_c, 1, 46, 0
3, 38250, Note_on_c, 1, 58, 88
3, 38275, Note_on_c, 1, 58, 0
3, 38280, Note_on_c, 1, 58, 88
3, 38305, Note_on_c, 1, 58, 0
3, 38310, Note_on_c, 1, 46, 88
3, 38335, Note_on_c, 1, 46, 0
3, 38340, Note_on_c, 1, 46, 88
3, 38365, Note_on_c, 1, 46, 0
3, 38370, Note_on_c, 1, 58, 88
3, 38395, Note_on_c, 1, 58, 0
3, 38400, Note_on_c, 1, 58, 88
3, 38425, Note_on_c, 1, 58, 0
3, 38430, Note_on_c, 1, 46, 88
3, 38455, Note_on_c, 1, 46, 0
3, 38460, Note_on_c, 1, 46, 88
3, 38485, Note_on_c, 1, 46, 0
3, 38490, Note_on_c, 1, 58, 88
3, 38515, Note_on_c, 1, 58, 0
3, 38520, Note_on_c, 1, 58, 88
3, 38545, Note_on_c, 1, 58, 0
3, 38550, Note_on_c, 1, 46, 88
3, 38575, Note_on_c, 1, 46, 0
3, 38580, Note_on_c, 1, 46, 88
3, 38605, Note_on_c, 1, 46, 0
3, 38610, Note_on_c, 1, 58, 88
3, 38635, Note_on_c, 1, 58, 0
3, 38640, Note_on_c, 1, 58, 88
3, 38665, Note_on_c, 1, 58, 0
3, 38670, Note_on_c, 1, 46, 88
3, 38695, Note_on_c, 1, 46, 0
3, 38700, Note_on_c, 1, 46, 88
3, 38725, Note_on_c, 1, 46, 0
3, 38730, Note_on_c, 1, 58, 88
3, 38755, Note_on_c, 1, 58, 0
3, 38760, Note_on_c, 1, 58, 88
3, 38785, Note_on_c, 1, 58, 0
3, 38790, Note_on_c, 1, 44, 88
3, 38810, Note_on_c, 1, 44, 0
3, 38810, Note_on_c, 1, 58, 0
3, 38810, Note_on_c, 1, 58, 0
3, 38820, Note_on_c, 1, 44, 88
3, 38845, Note_on_c, 1, 44, 0
3, 38850, Note_on_c, 1, 56, 88
3, 38875, Note_on_c, 1, 56, 0
3, 38880, Note_on_c, 1, 56, 88
3, 38905, Note_on_c, 1, 56, 0
3, 38910, Note_on_c, 1, 46, 105
3, 38935, Note_on_c, 1, 46, 0
3, 38940, Note_on_c, 1, 34, 100
3, 38965, Note_on_c, 1, 34, 0
3, 38970, Note_on_c, 1, 46, 105
3, 38995, Note_on_c, 1, 46, 0
3, 39000, Note_on_c, 1, 34, 100
3, 39025, Note_on_c, 1, 34, 0
3, 39030, Note_on_c, 1, 46, 105
3, 39055, Note_on_c, 1, 46, 0
3, 39060, Note_on_c, 1, 34, 100
3, 39085, Note_on_c, 1, 34, 0
3, 39090, Note_on_c, 1, 46, 105
3, 39115, Note_on_c, 1, 46, 0
3, 39120, Note_on_c, 1, 34, 100
3, 39145, Note_on_c, 1, 34, 0
3, 39150, Note_on_c, 1, 42, 105
3, 39175, Note_on_c, 1, 42, 0
3, 39180, Note_on_c, 1, 30, 100
3, 39205, Note_on_c, 1, 30, 0
3, 39210, Note_on_c, 1, 42, 105
3, 39235, Note_on_c, 1, 42, 0
3, 39240, Note_on_c, 1, 30, 100
3, 39265, Note_on_c, 1, 30, 0
3, 39270, Note_on_c, 1, 42, 105
3, 39295, Note_on_c, 1, 42, 0
3, 39300, Note_on_c, 1, 30, 100
3, 39325, Note_on_c, 1, 30, 0
3, 39330, Note_on_c, 1, 42, 105
3, 39355, Note_on_c, 1, 42, 0
3, 39360, Note_on_c, 1, 30, 100
3, 39385, Note_on_c, 1, 30, 0
3, 39390, Note_on_c, 1, 44, 105
3, 39415, Note_on_c, 1, 44, 0
3, 39420, Note_on_c, 1, 32, 100
3, 39445, Note_on_c, 1, 32, 0
3, 39450, Note_on_c, 1, 44, 105
3, 39475, Note_on_c, 1, 44, 0
3, 39480, Note_on_c, 1, 32, 100
3, 39505, Note_on_c, 1, 32, 0
3, 39510, Note_on_c, 1, 44, 105
3, 39535, Note_on_c, 1, 44, 0
3, 39540, Note_on_c, 1, 32, 100
3, 39565, Note_on_c, 1, 32, 0
3, 39570, Note_on_c, 1, 44, 105
3, 39595, Note_on_c, 1, 44, 0
3, 39600, Note_on_c, 1, 32, 100
3, 39625, Note_on_c, 1, 32, 0
3, 39630, Note_on_c, 1, 46, 105
3, 39655, Note_on_c, 1, 46, 0
3, 39660, Note_on_c, 1, 34, 100
3, 39685, Note_on_c, 1, 34, 0
3, 39690, Note_on_c, 1, 46, 105
3, 39715, Note_on_c, 1, 46, 0
3, 39720, Note_on_c, 1, 34, 100
3, 39745, Note_on_c, 1, 34, 0
3, 39750, Note_on_c, 1, 46, 105
3, 39775, Note_on_c, 1, 46, 0
3, 39780, Note_on_c, 1, 34, 100
3, 39805, Note_on_c, 1, 34, 0
3, 39810, Note_on_c, 1, 46, 105
3, 39835, Note_on_c, 1, 46, 0
3, 39840, Note_on_c, 1, 34, 100
3, 39865, Note_on_c, 1, 34, 0
3, 39870, Note_on_c, 1, 46, 105
3, 39895, Note_on_c, 1, 46, 0
3, 39900, Note_on_c, 1, 34, 100
3, 39925, Note_on_c, 1, 34, 0
3, 39930, Note_on_c, 1, 46, 105
3, 39955, Note_on_c, 1, 46, 0
3, 39960, Note_on_c, 1, 34, 100
3, 39985, Note_on_c, 1, 34, 0
3, 39990, Note_on_c, 1, 46, 105
3, 40015, Note_on_c, 1, 46, 0
3, 40020, Note_on_c, 1, 34, 100
3, 40045, Note_on_c, 1, 34, 0
3, 40050, Note_on_c, 1, 46, 105
3, 40075, Note_on_c, 1, 46, 0
3, 40080, Note_on_c, 1, 34, 100
3, 40105, Note_on_c, 1, 34, 0
3, 40110, Note_on_c, 1, 49, 105
3, 40135, Note_on_c, 1, 49, 0
3, 40140, Note_on_c, 1, 37, 100
3, 40165, Note_on_c, 1, 37, 0
3, 40170, Note_on_c, 1, 49, 105
3, 40195, Note_on_c, 1, 49, 0
3, 40200, Note_on_c, 1, 37, 100
3, 40225, Note_on_c, 1, 37, 0
3, 40230, Note_on_c, 1, 49, 105
3, 40255, Note_on_c, 1, 49, 0
3, 40260, Note_on_c, 1, 37, 100
3, 40285, Note_on_c, 1, 37, 0
3, 40290, Note_on_c, 1, 49, 105
3, 40315, Note_on_c, 1, 49, 0
3, 40320, Note_on_c, 1, 37, 100
3, 40345, Note_on_c, 1, 37, 0
3, 40350, Note_on_c, 1, 48, 105
3, 40375, Note_on_c, 1, 48, 0
3, 40380, Note_on_c, 1, 36, 100
3, 40405, Note_on_c, 1, 36, 0
3, 40410, Note_on_c, 1, 48, 105
3, 40435, Note_on_c, 1, 48, 0
3, 40440, Note_on_c, 1, 36, 100
3, 40465, Note_on_c, 1, 36, 0
3, 40470, Note_on_c, 1, 48, 105
3, 40495, Note_on_c, 1, 48, 0
3, 40500, Note_on_c, 1, 36, 100
3, 40525, Note_on_c, 1, 36, 0
3, 40530, Note_on_c, 1, 48, 105
3, 40555, Note_on_c, 1, 48, 0
3, 40560, Note_on_c, 1, 36, 100
3, 40585, Note_on_c, 1, 36, 0
3, 40590, Note_on_c, 1, 46, 105
3, 40615, Note_on_c, 1, 46, 0
3, 40620, Note_on_c, 1, 34, 100
3, 40645, Note_on_c, 1, 34, 0
3, 40650, Note_on_c, 1, 46, 105
3, 40675, Note_on_c, 1, 46, 0
3, 40680, Note_on_c, 1, 34, 100
3, 40705, Note_on_c, 1, 34, 0
3, 40710, Note_on_c, 1, 46, 105
3, 40735, Note_on_c, 1, 46, 0
3, 40740, Note_on_c, 1, 34, 100
3, 40765, Note_on_c, 1, 34, 0
3, 40770, Note_on_c, 1, 46, 105
3, 40795, Note_on_c, 1, 46, 0
3, 40800, Note_on_c, 1, 34, 100
3, 40825, Note_on_c, 1, 34, 0
3, 40830, Note_on_c, 1, 46, 105
3, 40855, Note_on_c, 1, 46, 0
3, 40860, Note_on_c, 1, 34, 100
3, 40885, Note_on_c, 1, 34, 0
3, 40890, Note_on_c, 1, 46, 105
3, 40915, Note_on_c, 1, 46, 0
3, 40920, Note_on_c, 1, 34, 100
3, 40945, Note_on_c, 1, 34, 0
3, 40950, Note_on_c, 1, 46, 105
3, 40975, Note_on_c, 1, 46, 0
3, 40980, Note_on_c, 1, 34, 100
3, 41005, Note_on_c, 1, 34, 0
3, 41010, Note_on_c, 1, 46, 105
3, 41035, Note_on_c, 1, 46, 0
3, 41040, Note_on_c, 1, 34, 100
3, 41065, Note_on_c, 1, 34, 0
3, 41070, Note_on_c, 1, 42, 105
3, 41095, Note_on_c, 1, 42, 0
3, 41100, Note_on_c, 1, 30, 100
3, 41125, Note_on_c, 1, 30, 0
3, 41130, Note_on_c, 1, 42, 105
3, 41155, Note_on_c, 1, 42, 0
3, 41160, Note_on_c, 1, 30, 100
3, 41185, Note_on_c, 1, 30, 0
3, 41190, Note_on_c, 1, 42, 105
3, 41215, Note_on_c, 1, 42, 0
3, 41220, Note_on_c, 1, 30, 100
3, 41245, Note_on_c, 1, 30, 0
3, 41250, Note_on_c, 1, 42, 105
3, 41275, Note_on_c, 1, 42, 0
3, 41280, Note_on_c, 1, 30, 100
3, 41305, Note_on_c, 1, 30, 0
3, 41310, Note_on_c, 1, 44, 105
3, 41335, Note_on_c, 1, 44, 0
3, 41340, Note_on_c, 1, 32, 100
3, 41365, Note_on_c, 1, 32, 0
3, 41370, Note_on_c, 1, 44, 105
3, 41395, Note_on_c, 1, 44, 0
3, 41400, Note_on_c, 1, 32, 100
3, 41425, Note_on_c, 1, 32, 0
3, 41430, Note_on_c, 1, 44, 105
3, 41455, Note_on_c, 1, 44, 0
3, 41460, Note_on_c, 1, 32, 100
3, 41485, Note_on_c, 1, 32, 0
3, 41490, Note_on_c, 1, 44, 105
3, 41515, Note_on_c, 1, 44, 0
3, 41520, Note_on_c, 1, 32, 100
3, 41545, Note_on_c, 1, 32, 0
3, 41550, Note_on_c, 1, 46, 105
3, 41575, Note_on_c, 1, 46, 0
3, 41580, Note_on_c, 1, 34, 100
3, 41605, Note_on_c, 1, 34, 0
3, 41610, Note_on_c, 1, 46, 105
3, 41635, Note_on_c, 1, 46, 0
3, 41640, Note_on_c, 1, 34, 100
3, 41665, Note_on_c, 1, 34, 0
3, 41670, Note_on_c, 1, 46, 105
3, 41695, Note_on_c, 1, 46, 0
3, 41700, Note_on_c, 1, 34, 100
3, 41725, Note_on_c, 1, 34, 0
3, 41730, Note_on_c, 1, 46, 105
3, 41755, Note_on_c, 1, 46, 0
3, 41760, Note_on_c, 1, 34, 100
3, 41785, Note_on_c, 1, 34, 0
3, 41790, Note_on_c, 1, 46, 105
3, 41815, Note_on_c, 1, 46, 0
3, 41820, Note_on_c, 1, 34, 100
3, 41845, Note_on_c, 1, 34, 0
3, 41850, Note_on_c, 1, 46, 105
3, 41875, Note_on_c, 1, 46, 0
3, 41880, Note_on_c, 1, 34, 100
3, 41905, Note_on_c, 1, 34, 0
3, 41910, Note_on_c, 1, 46, 105
3, 41935, Note_on_c, 1, 46, 0
3, 41940, Note_on_c, 1, 34, 100
3, 41965, Note_on_c, 1, 34, 0
3, 41970, Note_on_c, 1, 46, 105
3, 41995, Note_on_c, 1, 46, 0
3, 42000, Note_on_c, 1, 34, 100
3, 42025, Note_on_c, 1, 34, 0
3, 42030, Note_on_c, 1, 49, 105
3, 42055, Note_on_c, 1, 49, 0
3, 42060, Note_on_c, 1, 37, 100
3, 42085, Note_on_c, 1, 37, 0
3, 42090, Note_on_c, 1, 49, 105
3, 42115, Note_on_c, 1, 49, 0
3, 42120, Note_on_c, 1, 37, 100
3, 42145, Note_on_c, 1, 37, 0
3, 42150, Note_on_c, 1, 49, 105
3, 42175, Note_on_c, 1, 49, 0
3, 42180, Note_on_c, 1, 37, 100
3, 42205, Note_on_c, 1, 37, 0
3, 42210, Note_on_c, 1, 49, 105
3, 42235, Note_on_c, 1, 49, 0
3, 42240, Note_on_c, 1, 37, 100
3, 42265, Note_on_c, 1, 37, 0
3, 42270, Note_on_c, 1, 48, 105
3, 42295, Note_on_c, 1, 48, 0
3, 42300, Note_on_c, 1, 36, 100
3, 42325, Note_on_c, 1, 36, 0
3, 42330, Note_on_c, 1, 48, 105
3, 42355, Note_on_c, 1, 48, 0
3, 42360, Note_on_c, 1, 36, 100
3, 42385, Note_on_c, 1, 36, 0
3, 42390, Note_on_c, 1, 48, 105
3, 42415, Note_on_c, 1, 48, 0
3, 42420, Note_on_c, 1, 36, 100
3, 42445, Note_on_c, 1, 36, 0
3, 42450, Note_on_c, 1, 48, 105
3, 42475, Note_on_c, 1, 48, 0
3, 42480, Note_on_c, 1, 36, 100
3, 42505, Note_on_c, 1, 36, 0
3, 42510, Note_on_c, 1, 46, 105
3, 42535, Note_on_c, 1, 46, 0
3, 42540, Note_on_c, 1, 34, 100
3, 42565, Note_on_c, 1, 34, 0
3, 42570, Note_on_c, 1, 46, 105
3, 42595, Note_on_c, 1, 46, 0
3, 42600, Note_on_c, 1, 34, 100
3, 42625, Note_on_c, 1, 34, 0
3, 42630, Note_on_c, 1, 46, 105
3, 42655, Note_on_c, 1, 46, 0
3, 42660, Note_on_c, 1, 34, 100
3, 42685, Note_on_c, 1, 34, 0
3, 42690, Note_on_c, 1, 46, 105
3, 42715, Note_on_c, 1, 46, 0
3, 42720, Note_on_c, 1, 34, 100
3, 42745, Note_on_c, 1, 34, 0
3, 42750, Note_on_c, 1, 46, 105
3, 42775, Note_on_c, 1, 46, 0
3, 42780, Note_on_c, 1, 34, 100
3, 42805, Note_on_c, 1, 34, 0
3, 42810, Note_on_c, 1, 46, 105
3, 42835, Note_on_c, 1, 46, 0
3, 42840, Note_on_c, 1, 34, 100
3, 42865, Note_on_c, 1, 34, 0
3, 42870, Note_on_c, 1, 46, 105
3, 42895, Note_on_c, 1, 46, 0
3, 42900, Note_on_c, 1, 34, 100
3, 42925, Note_on_c, 1, 34, 0
3, 42930, Note_on_c, 1, 46, 105
3, 42955, Note_on_c, 1, 46, 0
3, 42960, Note_on_c, 1, 34, 100
3, 42985, Note_on_c, 1, 34, 0
3, 42990, Note_on_c, 1, 42, 105
3, 43015, Note_on_c, 1, 42, 0
3, 43020, Note_on_c, 1, 30, 100
3, 43045, Note_on_c, 1, 30, 0
3, 43050, Note_on_c, 1, 42, 105
3, 43075, Note_on_c, 1, 42, 0
3, 43080, Note_on_c, 1, 30, 100
3, 43105, Note_on_c, 1, 30, 0
3, 43110, Note_on_c, 1, 42, 105
3, 43135, Note_on_c, 1, 42, 0
3, 43140, Note_on_c, 1, 30, 100
3, 43165, Note_on_c, 1, 30, 0
3, 43170, Note_on_c, 1, 42, 105
3, 43195, Note_on_c, 1, 42, 0
3, 43200, Note_on_c, 1, 30, 100
3, 43225, Note_on_c, 1, 30, 0
3, 43230, Note_on_c, 1, 44, 105
3, 43255, Note_on_c, 1, 44, 0
3, 43260, Note_on_c, 1, 32, 100
3, 43285, Note_on_c, 1, 32, 0
3, 43290, Note_on_c, 1, 44, 105
3, 43315, Note_on_c, 1, 44, 0
3, 43320, Note_on_c, 1, 32, 100
3, 43345, Note_on_c, 1, 32, 0
3, 43350, Note_on_c, 1, 44, 105
3, 43375, Note_on_c, 1, 44, 0
3, 43380, Note_on_c, 1, 32, 100
3, 43405, Note_on_c, 1, 32, 0
3, 43410, Note_on_c, 1, 44, 105
3, 43435, Note_on_c, 1, 44, 0
3, 43440, Note_on_c, 1, 32, 100
3, 43465, Note_on_c, 1, 32, 0
3, 43470, Note_on_c, 1, 46, 105
3, 43495, Note_on_c, 1, 46, 0
3, 43500, Note_on_c, 1, 34, 100
3, 43525, Note_on_c, 1, 34, 0
3, 43530, Note_on_c, 1, 46, 105
3, 43555, Note_on_c, 1, 46, 0
3, 43560, Note_on_c, 1, 34, 100
3, 43585, Note_on_c, 1, 34, 0
3, 43590, Note_on_c, 1, 46, 105
3, 43615, Note_on_c, 1, 46, 0
3, 43620, Note_on_c, 1, 34, 100
3, 43645, Note_on_c, 1, 34, 0
3, 43650, Note_on_c, 1, 46, 105
3, 43675, Note_on_c, 1, 46, 0
3, 43680, Note_on_c, 1, 34, 100
3, 43705, Note_on_c, 1, 34, 0
3, 43710, Note_on_c, 1, 46, 105
3, 43735, Note_on_c, 1, 46, 0
3, 43740, Note_on_c, 1, 34, 100
3, 43765, Note_on_c, 1, 34, 0
3, 43770, Note_on_c, 1, 46, 105
3, 43795, Note_on_c, 1, 46, 0
3, 43800, Note_on_c, 1, 34, 100
3, 43825, Note_on_c, 1, 34, 0
3, 43830, Note_on_c, 1, 46, 105
3, 43855, Note_on_c, 1, 46, 0
3, 43860, Note_on_c, 1, 34, 100
3, 43885, Note_on_c, 1, 34, 0
3, 43890, Note_on_c, 1, 46, 105
3, 43915, Note_on_c, 1, 46, 0
3, 43920, Note_on_c, 1, 34, 100
3, 43945, Note_on_c, 1, 34, 0
3, 43950, Note_on_c, 1, 49, 105
3, 43975, Note_on_c, 1, 49, 0
3, 43980, Note_on_c, 1, 37, 100
3, 44005, Note_on_c, 1, 37, 0
3, 44010, Note_on_c, 1, 49, 105
3, 44035, Note_on_c, 1, 49, 0
3, 44040, Note_on_c, 1, 37, 100
3, 44065, Note_on_c, 1, 37, 0
3, 44070, Note_on_c, 1, 49, 105
3, 44095, Note_on_c, 1, 49, 0
3, 44100, Note_on_c, 1, 37, 100
3, 44125, Note_on_c, 1, 37, 0
3, 44130, Note_on_c, 1, 49, 105
3, 44155, Note_on_c, 1, 49, 0
3, 44160, Note_on_c, 1, 37, 100
3, 44185, Note_on_c, 1, 37, 0
3, 44190, Note_on_c, 1, 48, 105
3, 44215, Note_on_c, 1, 48, 0
3, 44220, Note_on_c, 1, 36, 100
3, 44245, Note_on_c, 1, 36, 0
3, 44250, Note_on_c, 1, 48, 105
3, 44275, Note_on_c, 1, 48, 0
3, 44280, Note_on_c, 1, 36, 100
3, 44305, Note_on_c, 1, 36, 0
3, 44310, Note_on_c, 1, 48, 105
3, 44335, Note_on_c, 1, 48, 0
3, 44340, Note_on_c, 1, 36, 100
3, 44365, Note_on_c, 1, 36, 0
3, 44370, Note_on_c, 1, 48, 105
3, 44395, Note_on_c, 1, 48, 0
3, 44400, Note_on_c, 1, 36, 100
3, 44425, Note_on_c, 1, 36, 0
3, 44430, Note_on_c, 1, 46, 105
3, 44455, Note_on_c, 1, 46, 0
3, 44460, Note_on_c, 1, 34, 100
3, 44485, Note_on_c, 1, 34, 0
3, 44490, Note_on_c, 1, 46, 105
3, 44515, Note_on_c, 1, 46, 0
3, 44520, Note_on_c, 1, 34, 100
3, 44545, Note_on_c, 1, 34, 0
3, 44550, Note_on_c, 1, 46, 105
3, 44575, Note_on_c, 1, 46, 0
3, 44580, Note_on_c, 1, 34, 100
3, 44605, Note_on_c, 1, 34, 0
3, 44610, Note_on_c, 1, 46, 105
3, 44635, Note_on_c, 1, 46, 0
3, 44640, Note_on_c, 1, 34, 100
3, 44665, Note_on_c, 1, 34, 0
3, 44670, Note_on_c, 1, 46, 105
3, 44695, Note_on_c, 1, 46, 0
3, 44700, Note_on_c, 1, 34, 100
3, 44725, Note_on_c, 1, 34, 0
3, 44730, Note_on_c, 1, 46, 105
3, 44755, Note_on_c, 1, 46, 0
3, 44760, Note_on_c, 1, 34, 100
3, 44785, Note_on_c, 1, 34, 0
3, 44790, Note_on_c, 1, 46, 105
3, 44815, Note_on_c, 1, 46, 0
3, 44820, Note_on_c, 1, 34, 100
3, 44845, Note_on_c, 1, 34, 0
3, 44850, Note_on_c, 1, 46, 105
3, 44875, Note_on_c, 1, 46, 0
3, 44880, Note_on_c, 1, 34, 100
3, 44905, Note_on_c, 1, 34, 0
3, 44910, Note_on_c, 1, 42, 105
3, 44935, Note_on_c, 1, 42, 0
3, 44940, Note_on_c, 1, 30, 100
3, 44965, Note_on_c, 1, 30, 0
3, 44970, Note_on_c, 1, 42, 105
3, 44995, Note_on_c, 1, 42, 0
3, 45000, Note_on_c, 1, 30, 100
3, 45025, Note_on_c, 1, 30, 0
3, 45030, Note_on_c, 1, 42, 105
3, 45055, Note_on_c, 1, 42, 0
3, 45060, Note_on_c, 1, 30, 100
3, 45085, Note_on_c, 1, 30, 0
3, 45090, Note_on_c, 1, 42, 105
3, 45115, Note_on_c, 1, 42, 0
3, 45120, Note_on_c, 1, 30, 100
3, 45145, Note_on_c, 1, 30, 0
3, 45150, Note_on_c, 1, 44, 105
3, 45175, Note_on_c, 1, 44, 0
3, 45180, Note_on_c, 1, 32, 100
3, 45205, Note_on_c, 1, 32, 0
3, 45210, Note_on_c, 1, 44, 105
3, 45235, Note_on_c, 1, 44, 0
3, 45240, Note_on_c, 1, 32, 100
3, 45265, Note_on_c, 1, 32, 0
3, 45270, Note_on_c, 1, 44, 105
3, 45295, Note_on_c, 1, 44, 0
3, 45300, Note_on_c, 1, 32, 100
3, 45325, Note_on_c, 1, 32, 0
3, 45330, Note_on_c, 1, 44, 105
3, 45355, Note_on_c, 1, 44, 0
3, 45360, Note_on_c, 1, 32, 100
3, 45385, Note_on_c, 1, 32, 0
3, 45390, Note_on_c, 1, 46, 105
3, 45415, Note_on_c, 1, 46, 0
3, 45420, Note_on_c, 1, 34, 100
3, 45445, Note_on_c, 1, 34, 0
3, 45450, Note_on_c, 1, 46, 105
3, 45475, Note_on_c, 1, 46, 0
3, 45480, Note_on_c, 1, 34, 100
3, 45505, Note_on_c, 1, 34, 0
3, 45510, Note_on_c, 1, 46, 105
3, 45535, Note_on_c, 1, 46, 0
3, 45540, Note_on_c, 1, 34, 100
3, 45565, Note_on_c, 1, 34, 0
3, 45570, Note_on_c, 1, 46, 105
3, 45595, Note_on_c, 1, 46, 0
3, 45600, Note_on_c, 1, 34, 100
3, 45625, Note_on_c, 1, 34, 0
3, 45630, Note_on_c, 1, 46, 105
3, 45655, Note_on_c, 1, 46, 0
3, 45660, Note_on_c, 1, 34, 100
3, 45685, Note_on_c, 1, 34, 0
3, 45690, Note_on_c, 1, 46, 105
3, 45715, Note_on_c, 1, 46, 0
3, 45720, Note_on_c, 1, 34, 100
3, 45745, Note_on_c, 1, 34, 0
3, 45750, Note_on_c, 1, 46, 105
3, 45775, Note_on_c, 1, 46, 0
3, 45780, Note_on_c, 1, 34, 100
3, 45805, Note_on_c, 1, 34, 0
3, 45810, Note_on_c, 1, 46, 105
3, 45835, Note_on_c, 1, 46, 0
3, 45840, Note_on_c, 1, 34, 100
3, 45865, Note_on_c, 1, 34, 0
3, 45870, Note_on_c, 1, 49, 105
3, 45895, Note_on_c, 1, 49, 0
3, 45900, Note_on_c, 1, 37, 100
3, 45925, Note_on_c, 1, 37, 0
3, 45930, Note_on_c, 1, 49, 105
3, 45955, Note_on_c, 1, 49, 0
3, 45960, Note_on_c, 1, 37, 100
3, 45985, Note_on_c, 1, 37, 0
3, 45990, Note_on_c, 1, 49, 105
3, 46015, Note_on_c, 1, 49, 0
3, 46020, Note_on_c, 1, 37, 100
3, 46045, Note_on_c, 1, 37, 0
3, 46050, Note_on_c, 1, 49, 105
3, 46075, Note_on_c, 1, 49, 0
3, 46080, Note_on_c, 1, 37, 100
3, 46105, Note_on_c, 1, 37, 0
3, 46110, Note_on_c, 1, 48, 105
3, 46135, Note_on_c, 1, 48, 0
3, 46140, Note_on_c, 1, 36, 100
3, 46165, Note_on_c, 1, 36, 0
3, 46170, Note_on_c, 1, 48, 105
3, 46195, Note_on_c, 1, 48, 0
3, 46200, Note_on_c, 1, 36, 100
3, 46225, Note_on_c, 1, 36, 0
3, 46230, Note_on_c, 1, 48, 105
3, 46255, Note_on_c, 1, 48, 0
3, 46260, Note_on_c, 1, 36, 100
3, 46285, Note_on_c, 1, 36, 0
3, 46290, Note_on_c, 1, 48, 105
3, 46315, Note_on_c, 1, 48, 0
3, 46320, Note_on_c, 1, 36, 100
3, 46345, Note_on_c, 1, 36, 0
3, 46350, Note_on_c, 1, 46, 105
3, 46375, Note_on_c, 1, 46, 0
3, 46380, Note_on_c, 1, 34, 100
3, 46405, Note_on_c, 1, 34, 0
3, 46410, Note_on_c, 1, 46, 105
3, 46435, Note_on_c, 1, 46, 0
3, 46440, Note_on_c, 1, 34, 100
3, 46465, Note_on_c, 1, 34, 0
3, 46470, Note_on_c, 1, 46, 105
3, 46495, Note_on_c, 1, 46, 0
3, 46500, Note_on_c, 1, 34, 100
3, 46525, Note_on_c, 1, 34, 0
3, 46530, Note_on_c, 1, 46, 105
3, 46555, Note_on_c, 1, 46, 0
3, 46560, Note_on_c, 1, 34, 100
3, 46585, Note_on_c, 1, 34, 0
3, 50430, Note_on_c, 1, 46, 96
3, 50455, Note_on_c, 1, 46, 0
3, 50460, Note_on_c, 1, 34, 91
3, 50485, Note_on_c, 1, 34, 0
3, 50490, Note_on_c, 1, 46, 96
3, 50515, Note_on_c, 1, 46, 0
3, 50520, Note_on_c, 1, 34, 91
3, 50545, Note_on_c, 1, 34, 0
3, 50550, Note_on_c, 1, 46, 96
3, 50575, Note_on_c, 1, 46, 0
3, 50580, Note_on_c, 1, 34, 91
3, 50605, Note_on_c, 1, 34, 0
3, 50610, Note_on_c, 1, 46, 96
3, 50635, Note_on_c, 1, 46, 0
3, 50640, Note_on_c, 1, 34, 91
3, 50665, Note_on_c, 1, 34, 0
3, 50670, Note_on_c, 1, 42, 96
3, 50695, Note_on_c, 1, 42, 0
3, 50700, Note_on_c, 1, 30, 91
3, 50725, Note_on_c, 1, 30, 0
3, 50730, Note_on_c, 1, 42, 96
3, 50755, Note_on_c, 1, 42, 0
3, 50760, Note_on_c, 1, 30, 91
3, 50785, Note_on_c, 1, 30, 0
3, 50790, Note_on_c, 1, 42, 96
3, 50815, Note_on_c, 1, 42, 0
3, 50820, Note_on_c, 1, 30, 91
3, 50845, Note_on_c, 1, 30, 0
3, 50850, Note_on_c, 1, 42, 96
3, 50875, Note_on_c, 1, 42, 0
3, 50880, Note_on_c, 1, 30, 91
3, 50905, Note_on_c, 1, 30, 0
3, 50910, Note_on_c, 1, 44, 96
3, 50935, Note_on_c, 1, 44, 0
3, 50940, Note_on_c, 1, 32, 91
3, 50965, Note_on_c, 1, 32, 0
3, 50970, Note_on_c, 1, 44, 96
3, 50995, Note_on_c, 1, 44, 0
3, 51000, Note_on_c, 1, 32, 91
3, 51025, Note_on_c, 1, 32, 0
3, 51030, Note_on_c, 1, 44, 96
3, 51055, Note_on_c, 1, 44, 0
3, 51060, Note_on_c, 1, 32, 91
3, 51085, Note_on_c, 1, 32, 0
3, 51090, Note_on_c, 1, 44, 96
3, 51115, Note_on_c, 1, 44, 0
3, 51120, Note_on_c, 1, 32, 91
3, 51145, Note_on_c, 1, 32, 0
3, 51150, Note_on_c, 1, 46, 96
3, 51175, Note_on_c, 1, 46, 0
3, 51180, Note_on_c, 1, 34, 91
3, 51205, Note_on_c, 1, 34, 0
3, 51210, Note_on_c, 1, 46, 96
3, 51235, Note_on_c, 1, 46, 0
3, 51240, Note_on_c, 1, 34, 91
3, 51265, Note_on_c, 1, 34, 0
3, 51270, Note_on_c, 1, 46, 96
3, 51295, Note_on_c, 1, 46, 0
3, 51300, Note_on_c, 1, 34, 91
3, 51325, Note_on_c, 1, 34, 0
3, 51330, Note_on_c, 1, 46, 96
3, 51355, Note_on_c, 1, 46, 0
3, 51360, Note_on_c, 1, 34, 91
3, 51385, Note_on_c, 1, 34, 0
3, 51390, Note_on_c, 1, 46, 96
3, 51415, Note_on_c, 1, 46, 0
3, 51420, Note_on_c, 1, 34, 91
3, 51445, Note_on_c, 1, 34, 0
3, 51450, Note_on_c, 1, 46, 96
3, 51475, Note_on_c, 1, 46, 0
3, 51480, Note_on_c, 1, 34, 91
3, 51505, Note_on_c, 1, 34, 0
3, 51510, Note_on_c, 1, 46, 96
3, 51535, Note_on_c, 1, 46, 0
3, 51540, Note_on_c, 1, 34, 91
3, 51565, Note_on_c, 1, 34, 0
3, 51570, Note_on_c, 1, 46, 96
3, 51595, Note_on_c, 1, 46, 0
3, 51600, Note_on_c, 1, 34, 91
3, 51625, Note_on_c, 1, 34, 0
3, 51630, Note_on_c, 1, 49, 96
3, 51655, Note_on_c, 1, 49, 0
3, 51660, Note_on_c, 1, 37, 91
3, 51685, Note_on_c, 1, 37, 0
3, 51690, Note_on_c, 1, 49, 96
3, 51715, Note_on_c, 1, 49, 0
3, 51720, Note_on_c, 1, 37, 91
3, 51745, Note_on_c, 1, 37, 0
3, 51750, Note_on_c, 1, 49, 96
3, 51775, Note_on_c, 1, 49, 0
3, 51780, Note_on_c, 1, 37, 91
3, 51805, Note_on_c, 1, 37, 0
3, 51810, Note_on_c, 1, 49, 96
3, 51835, Note_on_c, 1, 49, 0
3, 51840, Note_on_c, 1, 37, 91
3, 51865, Note_on_c, 1, 37, 0
3, 51870, Note_on_c, 1, 48, 96
3, 51895, Note_on_c, 1, 48, 0
3, 51900, Note_on_c, 1, 36, 91
3, 51925, Note_on_c, 1, 36, 0
3, 51930, Note_on_c, 1, 48, 96
3, 51955, Note_on_c, 1, 48, 0
3, 51960, Note_on_c, 1, 36, 91
3, 51985, Note_on_c, 1, 36, 0
3, 51990, Note_on_c, 1, 48, 96
3, 52015, Note_on_c, 1, 48, 0
3, 52020, Note_on_c, 1, 36, 91
3, 52045, Note_on_c, 1, 36, 0
3, 52050, Note_on_c, 1, 48, 96
3, 52075, Note_on_c, 1, 48, 0
3, 52080, Note_on_c, 1, 36, 91
3, 52105, Note_on_c, 1, 36, 0
3, 52110, Note_on_c, 1, 46, 96
3, 52135, Note_on_c, 1, 46, 0
3, 52140, Note_on_c, 1, 34, 91
3, 52165, Note_on_c, 1, 34, 0
3, 52170, Note_on_c, 1, 46, 96
3, 52195, Note_on_c, 1, 46, 0
3, 52200, Note_on_c, 1, 34, 91
3, 52225, Note_on_c, 1, 34, 0
3, 52230, Note_on_c, 1, 46, 96
3, 52255, Note_on_c, 1, 46, 0
3, 52260, Note_on_c, 1, 34, 91
3, 52285, Note_on_c, 1, 34, 0
3, 52290, Note_on_c, 1, 46, 96
3, 52315, Note_on_c, 1, 46, 0
3, 52320, Note_on_c, 1, 34, 91
3, 52345, Note_on_c, 1, 34, 0
3, 52350, Note_on_c, 1, 46, 96
3, 52375, Note_on_c, 1, 46, 0
3, 52380, Note_on_c, 1, 34, 91
3, 52405, Note_on_c, 1, 34, 0
3, 52410, Note_on_c, 1, 46, 96
3, 52435, Note_on_c, 1, 46, 0
3, 52440, Note_on_c, 1, 34, 91
3, 52465, Note_on_c, 1, 34, 0
3, 52470, Note_on_c, 1, 46, 96
3, 52495, Note_on_c, 1, 46, 0
3, 52500, Note_on_c, 1, 34, 91
3, 52525, Note_on_c, 1, 34, 0
3, 52530, Note_on_c, 1, 46, 96
3, 52555, Note_on_c, 1, 46, 0
3, 52560, Note_on_c, 1, 34, 91
3, 52585, Note_on_c, 1, 34, 0
3, 52590, Note_on_c, 1, 42, 96
3, 52615, Note_on_c, 1, 42, 0
3, 52620, Note_on_c, 1, 30, 91
3, 52645, Note_on_c, 1, 30, 0
3, 52650, Note_on_c, 1, 42, 96
3, 52675, Note_on_c, 1, 42, 0
3, 52680, Note_on_c, 1, 30, 91
3, 52705, Note_on_c, 1, 30, 0
3, 52710, Note_on_c, 1, 42, 96
3, 52735, Note_on_c, 1, 42, 0
3, 52740, Note_on_c, 1, 30, 91
3, 52765, Note_on_c, 1, 30, 0
3, 52770, Note_on_c, 1, 42, 96
3, 52795, Note_on_c, 1, 42, 0
3, 52800, Note_on_c, 1, 30, 91
3, 52825, Note_on_c, 1, 30, 0
3, 52830, Note_on_c, 1, 44, 96
3, 52855, Note_on_c, 1, 44, 0
3, 52860, Note_on_c, 1, 32, 91
3, 52885, Note_on_c, 1, 32, 0
3, 52890, Note_on_c, 1, 44, 96
3, 52915, Note_on_c, 1, 44, 0
3, 52920, Note_on_c, 1, 32, 91
3, 52945, Note_on_c, 1, 32, 0
3, 52950, Note_on_c, 1, 44, 96
3, 52975, Note_on_c, 1, 44, 0
3, 52980, Note_on_c, 1, 32, 91
3, 53005, Note_on_c, 1, 32, 0
3, 53010, Note_on_c, 1, 44, 96
3, 53035, Note_on_c, 1, 44, 0
3, 53040, Note_on_c, 1, 32, 91
3, 53065, Note_on_c, 1, 32, 0
3, 53070, Note_on_c, 1, 46, 96
3, 53095, Note_on_c, 1, 46, 0
3, 53100, Note_on_c, 1, 34, 91
3, 53125, Note_on_c, 1, 34, 0
3, 53130, Note_on_c, 1, 46, 96
3, 53155, Note_on_c, 1, 46, 0
3, 53160, Note_on_c, 1, 34, 91
3, 53185, Note_on_c, 1, 34, 0
3, 53190, Note_on_c, 1, 46, 96
3, 53215, Note_on_c, 1, 46, 0
3, 53220, Note_on_c, 1, 34, 91
3, 53245, Note_on_c, 1, 34, 0
3, 53250, Note_on_c, 1, 46, 96
3, 53275, Note_on_c, 1, 46, 0
3, 53280, Note_on_c, 1, 34, 91
3, 53305, Note_on_c, 1, 34, 0
3, 53310, Note_on_c, 1, 46, 96
3, 53335, Note_on_c, 1, 46, 0
3, 53340, Note_on_c, 1, 34, 91
3, 53365, Note_on_c, 1, 34, 0
3, 53370, Note_on_c, 1, 46, 96
3, 53395, Note_on_c, 1, 46, 0
3, 53400, Note_on_c, 1, 34, 91
3, 53425, Note_on_c, 1, 34, 0
3, 53430, Note_on_c, 1, 46, 96
3, 53455, Note_on_c, 1, 46, 0
3, 53460, Note_on_c, 1, 34, 91
3, 53485, Note_on_c, 1, 34, 0
3, 53490, Note_on_c, 1, 46, 96
3, 53515, Note_on_c, 1, 46, 0
3, 53520, Note_on_c, 1, 34, 91
3, 53545, Note_on_c, 1, 34, 0
3, 53550, Note_on_c, 1, 49, 96
3, 53575, Note_on_c, 1, 49, 0
3, 53580, Note_on_c, 1, 37, 91
3, 53605, Note_on_c, 1, 37, 0
3, 53610, Note_on_c, 1, 49, 96
3, 53635, Note_on_c, 1, 49, 0
3, 53640, Note_on_c, 1, 37, 91
3, 53665, Note_on_c, 1, 37, 0
3, 53670, Note_on_c, 1, 49, 96
3, 53695, Note_on_c, 1, 49, 0
3, 53700, Note_on_c, 1, 37, 91
3, 53725, Note_on_c, 1, 37, 0
3, 53730, Note_on_c, 1, 49, 96
3, 53755, Note_on_c, 1, 49, 0
3, 53760, Note_on_c, 1, 37, 91
3, 53785, Note_on_c, 1, 37, 0
3, 53790, Note_on_c, 1, 48, 96
3, 53815, Note_on_c, 1, 48, 0
3, 53820, Note_on_c, 1, 36, 91
3, 53845, Note_on_c, 1, 36, 0
3, 53850, Note_on_c, 1, 48, 96
3, 53875, Note_on_c, 1, 48, 0
3, 53880, Note_on_c, 1, 36, 91
3, 53905, Note_on_c, 1, 36, 0
3, 53910, Note_on_c, 1, 48, 96
3, 53935, Note_on_c, 1, 48, 0
3, 53940, Note_on_c, 1, 36, 91
3, 53965, Note_on_c, 1, 36, 0
3, 53970, Note_on_c, 1, 48, 96
3, 53995, Note_on_c, 1, 48, 0
3, 54000, Note_on_c, 1, 36, 91
3, 54025, Note_on_c, 1, 36, 0
3, 54030, Note_on_c, 1, 46, 96
3, 54055, Note_on_c, 1, 46, 0
3, 54060, Note_on_c, 1, 34, 91
3, 54085, Note_on_c, 1, 34, 0
3, 54090, Note_on_c, 1, 46, 96
3, 54115, Note_on_c, 1, 46, 0
3, 54120, Note_on_c, 1, 34, 91
3, 54145, Note_on_c, 1, 34, 0
3, 54150, Note_on_c, 1, 46, 96
3, 54175, Note_on_c, 1, 46, 0
3, 54180, Note_on_c, 1, 34, 91
3, 54205, Note_on_c, 1, 34, 0
3, 54210, Note_on_c, 1, 46, 96
3, 54235, Note_on_c, 1, 46, 0
3, 54240, Note_on_c, 1, 34, 91
3, 54265, Note_on_c, 1, 34, 0
3, 54810, Control_c, 1, 0, 0
3, 54810, Program_c, 1, 0
3, 54810, Control_c, 1, 7, 127
3, 54810, Control_c, 1, 91, 80
3, 54810, Control_c, 1, 93, 0
3, 54810, Control_c, 1, 119, 0
3, 54810, Control_c, 1, 121, 0
3, 54810, End_track
4, 0, Start_track
4, 0, MIDI_port, 0
4, 0, Title_t, "WinJammer Demo"
4, 10, Control_c, 2, 0, 0
4, 10, Program_c, 2, 49
4, 10, Control_c, 2, 91, 127
4, 10, Control_c, 2, 93, 40
4, 10, Control_c, 2, 7, 60
4, 2430, Note_on_c, 2, 70, 120
4, 2430, Note_on_c, 2, 58, 96
4, 2905, Note_on_c, 2, 58, 0
4, 2905, Note_on_c, 2, 70, 0
4, 2910, Note_on_c, 2, 68, 120
4, 2910, Note_on_c, 2, 60, 96
4, 3085, Note_on_c, 2, 60, 0
4, 3085, Note_on_c, 2, 68, 0
4, 3090, Note_on_c, 2, 65, 120
4, 3090, Note_on_c, 2, 61, 66
4, 3385, Note_on_c, 2, 61, 0
4, 3390, Note_on_c, 2, 70, 120
4, 3390, Note_on_c, 2, 61, 96
4, 3450, Note_on_c, 2, 65, 0
4, 3865, Note_on_c, 2, 61, 0
4, 3865, Note_on_c, 2, 70, 0
4, 3870, Note_on_c, 2, 75, 120
4, 3870, Note_on_c, 2, 60, 96
4, 4045, Note_on_c, 2, 60, 0
4, 4045, Note_on_c, 2, 75, 0
4, 4050, Note_on_c, 2, 77, 120
4, 4050, Note_on_c, 2, 58, 96
4, 4345, Note_on_c, 2, 58, 0
4, 4350, Note_on_c, 2, 70, 120
4, 4350, Note_on_c, 2, 58, 96
4, 4410, Note_on_c, 2, 77, 0
4, 4825, Note_on_c, 2, 58, 0
4, 4825, Note_on_c, 2, 70, 0
4, 4830, Note_on_c, 2, 68, 120
4, 4830, Note_on_c, 2, 60, 96
4, 5005, Note_on_c, 2, 60, 0
4, 5005, Note_on_c, 2, 68, 0
4, 5010, Note_on_c, 2, 65, 120
4, 5010, Note_on_c, 2, 61, 66
4, 5305, Note_on_c, 2, 61, 0
4, 5310, Note_on_c, 2, 70, 120
4, 5310, Note_on_c, 2, 61, 96
4, 5370, Note_on_c, 2, 65, 0
4, 5785, Note_on_c, 2, 61, 0
4, 5785, Note_on_c, 2, 70, 0
4, 5790, Note_on_c, 2, 75, 120
4, 5790, Note_on_c, 2, 60, 96
4, 5965, Note_on_c, 2, 60, 0
4, 5965, Note_on_c, 2, 75, 0
4, 5970, Note_on_c, 2, 77, 120
4, 5970, Note_on_c, 2, 58, 96
4, 6265, Note_on_c, 2, 58, 0
4, 6270, Note_on_c, 2, 70, 120
4, 6270, Note_on_c, 2, 58, 96
4, 6330, Note_on_c, 2, 77, 0
4, 6745, Note_on_c, 2, 58, 0
4, 6745, Note_on_c, 2, 70, 0
4, 6750, Note_on_c, 2, 68, 120
4, 6750, Note_on_c, 2, 60, 96
4, 6925, Note_on_c, 2, 60, 0
4, 6925, Note_on_c, 2, 68, 0
4, 6930, Note_on_c, 2, 65, 120
4, 6930, Note_on_c, 2, 61, 66
4, 7225, Note_on_c, 2, 61, 0
4, 7230, Note_on_c, 2, 70, 120
4, 7230, Note_on_c, 2, 61, 96
4, 7290, Note_on_c, 2, 65, 0
4, 7705, Note_on_c, 2, 61, 0
4, 7705, Note_on_c, 2, 70, 0
4, 7710, Note_on_c, 2, 75, 120
4, 7710, Note_on_c, 2, 60, 96
4, 7885, Note_on_c, 2, 60, 0
4, 7885, Note_on_c, 2, 75, 0
4, 7890, Note_on_c, 2, 77, 120
4, 7890, Note_on_c, 2, 58, 96
4, 8185, Note_on_c, 2, 58, 0
4, 8190, Note_on_c, 2, 70, 120
4, 8190, Note_on_c, 2, 58, 96
4, 8250, Note_on_c, 2, 77, 0
4, 8665, Note_on_c, 2, 58, 0
4, 8665, Note_on_c, 2, 70, 0
4, 8670, Note_on_c, 2, 68, 120
4, 8670, Note_on_c, 2, 60, 96
4, 8845, Note_on_c, 2, 60, 0
4, 8845, Note_on_c, 2, 68, 0
4, 8850, Note_on_c, 2, 65, 120
4, 8850, Note_on_c, 2, 61, 66
4, 9145, Note_on_c, 2, 61, 0
4, 9150, Note_on_c, 2, 70, 120
4, 9150, Note_on_c, 2, 61, 96
4, 9210, Note_on_c, 2, 65, 0
4, 9625, Note_on_c, 2, 61, 0
4, 9625, Note_on_c, 2, 70, 0
4, 9630, Note_on_c, 2, 75, 120
4, 9630, Note_on_c, 2, 60, 96
4, 9805, Note_on_c, 2, 60, 0
4, 9805, Note_on_c, 2, 75, 0
4, 9810, Note_on_c, 2, 77, 120
4, 9810, Note_on_c, 2, 58, 96
4, 10105, Note_on_c, 2, 58, 0
4, 10110, Note_on_c, 2, 70, 120
4, 10110, Note_on_c, 2, 58, 96
4, 10170, Note_on_c, 2, 77, 0
4, 10585, Note_on_c, 2, 58, 0
4, 10585, Note_on_c, 2, 70, 0
4, 10590, Note_on_c, 2, 68, 120
4, 10590, Note_on_c, 2, 60, 96
4, 10765, Note_on_c, 2, 60, 0
4, 10765, Note_on_c, 2, 68, 0
4, 10770, Note_on_c, 2, 65, 120
4, 10770, Note_on_c, 2, 61, 66
4, 11065, Note_on_c, 2, 61, 0
4, 11070, Note_on_c, 2, 70, 120
4, 11070, Note_on_c, 2, 61, 96
4, 11130, Note_on_c, 2, 65, 0
4, 11545, Note_on_c, 2, 61, 0
4, 11545, Note_on_c, 2, 70, 0
4, 11550, Note_on_c, 2, 75, 120
4, 11550, Note_on_c, 2, 60, 96
4, 11725, Note_on_c, 2, 60, 0
4, 11725, Note_on_c, 2, 75, 0
4, 11730, Note_on_c, 2, 77, 120
4, 11730, Note_on_c, 2, 58, 96
4, 12025, Note_on_c, 2, 58, 0
4, 12030, Note_on_c, 2, 70, 120
4, 12030, Note_on_c, 2, 58, 96
4, 12090, Note_on_c, 2, 77, 0
4, 12505, Note_on_c, 2, 58, 0
4, 12505, Note_on_c, 2, 70, 0
4, 12510, Note_on_c, 2, 68, 120
4, 12510, Note_on_c, 2, 60, 96
4, 12685, Note_on_c, 2, 60, 0
4, 12685, Note_on_c, 2, 68, 0
4, 12690, Note_on_c, 2, 65, 120
4, 12690, Note_on_c, 2, 61, 66
4, 12985, Note_on_c, 2, 61, 0
4, 12990, Note_on_c, 2, 70, 120
4, 12990, Note_on_c, 2, 61, 96
4, 13050, Note_on_c, 2, 65, 0
4, 13465, Note_on_c, 2, 61, 0
4, 13465, Note_on_c, 2, 70, 0
4, 13470, Note_on_c, 2, 75, 120
4, 13470, Note_on_c, 2, 60, 96
4, 13645, Note_on_c, 2, 60, 0
4, 13645, Note_on_c, 2, 75, 0
4, 13650, Note_on_c, 2, 77, 120
4, 13650, Note_on_c, 2, 58, 96
4, 13945, Note_on_c, 2, 58, 0
4, 13950, Note_on_c, 2, 70, 120
4, 13950, Note_on_c, 2, 58, 96
4, 14010, Note_on_c, 2, 77, 0
4, 14425, Note_on_c, 2, 58, 0
4, 14425, Note_on_c, 2, 70, 0
4, 14430, Note_on_c, 2, 68, 120
4, 14430, Note_on_c, 2, 60, 96
4, 14605, Note_on_c, 2, 60, 0
4, 14605, Note_on_c, 2, 68, 0
4, 14610, Note_on_c, 2, 65, 120
4, 14610, Note_on_c, 2, 61, 66
4, 14905, Note_on_c, 2, 61, 0
4, 14910, Note_on_c, 2, 70, 120
4, 14910, Note_on_c, 2, 61, 96
4, 14970, Note_on_c, 2, 65, 0
4, 15385, Note_on_c, 2, 61, 0
4, 15385, Note_on_c, 2, 70, 0
4, 15390, Note_on_c, 2, 75, 120
4, 15390, Note_on_c, 2, 60, 96
4, 15565, Note_on_c, 2, 60, 0
4, 15565, Note_on_c, 2, 75, 0
4, 15570, Note_on_c, 2, 77, 120
4, 15570, Note_on_c, 2, 58, 96
4, 15865, Note_on_c, 2, 58, 0
4, 15870, Note_on_c, 2, 70, 96
4, 15870, Note_on_c, 2, 73, 90
4, 15930, Note_on_c, 2, 77, 0
4, 16105, Note_on_c, 2, 73, 0
4, 16105, Note_on_c, 2, 70, 0
4, 16110, Note_on_c, 2, 78, 96
4, 16110, Note_on_c, 2, 72, 90
4, 16225, Note_on_c, 2, 72, 0
4, 16230, Note_on_c, 2, 70, 90
4, 16345, Note_on_c, 2, 70, 0
4, 16345, Note_on_c, 2, 78, 0
4, 16350, Note_on_c, 2, 80, 96
4, 16350, Note_on_c, 2, 72, 90
4, 16585, Note_on_c, 2, 72, 0
4, 16585, Note_on_c, 2, 80, 0
4, 16590, Note_on_c, 2, 77, 96
4, 16590, Note_on_c, 2, 70, 90
4, 16825, Note_on_c, 2, 70, 0
4, 16825, Note_on_c, 2, 77, 0
4, 16830, Note_on_c, 2, 70, 96
4, 16830, Note_on_c, 2, 77, 90
4, 16885, Note_on_c, 2, 77, 0
4, 17065, Note_on_c, 2, 70, 0
4, 17070, Note_on_c, 2, 78, 96
4, 17070, Note_on_c, 2, 75, 90
4, 17185, Note_on_c, 2, 75, 0
4, 17190, Note_on_c, 2, 73, 90
4, 17305, Note_on_c, 2, 73, 0
4, 17305, Note_on_c, 2, 78, 0
4, 17310, Note_on_c, 2, 75, 96
4, 17310, Note_on_c, 2, 75, 90
4, 17545, Note_on_c, 2, 75, 0
4, 17545, Note_on_c, 2, 75, 0
4, 17550, Note_on_c, 2, 77, 96
4, 17550, Note_on_c, 2, 73, 90
4, 17785, Note_on_c, 2, 73, 0
4, 17785, Note_on_c, 2, 77, 0
4, 17790, Note_on_c, 2, 70, 96
4, 17790, Note_on_c, 2, 73, 90
4, 18025, Note_on_c, 2, 73, 0
4, 18025, Note_on_c, 2, 70, 0
4, 18030, Note_on_c, 2, 78, 96
4, 18030, Note_on_c, 2, 72, 90
4, 18145, Note_on_c, 2, 72, 0
4, 18150, Note_on_c, 2, 70, 90
4, 18265, Note_on_c, 2, 70, 0
4, 18265, Note_on_c, 2, 78, 0
4, 18270, Note_on_c, 2, 80, 96
4, 18270, Note_on_c, 2, 72, 90
4, 18505, Note_on_c, 2, 72, 0
4, 18505, Note_on_c, 2, 80, 0
4, 18510, Note_on_c, 2, 77, 96
4, 18510, Note_on_c, 2, 70, 90
4, 18745, Note_on_c, 2, 70, 0
4, 18745, Note_on_c, 2, 77, 0
4, 18750, Note_on_c, 2, 70, 96
4, 18750, Note_on_c, 2, 77, 90
4, 18805, Note_on_c, 2, 77, 0
4, 18985, Note_on_c, 2, 70, 0
4, 18990, Note_on_c, 2, 78, 96
4, 18990, Note_on_c, 2, 75, 90
4, 19105, Note_on_c, 2, 75, 0
4, 19110, Note_on_c, 2, 73, 90
4, 19225, Note_on_c, 2, 73, 0
4, 19225, Note_on_c, 2, 78, 0
4, 19230, Note_on_c, 2, 75, 96
4, 19230, Note_on_c, 2, 75, 90
4, 19465, Note_on_c, 2, 75, 0
4, 19465, Note_on_c, 2, 75, 0
4, 19470, Note_on_c, 2, 77, 96
4, 19470, Note_on_c, 2, 73, 90
4, 19705, Note_on_c, 2, 73, 0
4, 19705, Note_on_c, 2, 77, 0
4, 19710, Note_on_c, 2, 70, 96
4, 19710, Note_on_c, 2, 73, 90
4, 19945, Note_on_c, 2, 73, 0
4, 19945, Note_on_c, 2, 70, 0
4, 19950, Note_on_c, 2, 78, 96
4, 19950, Note_on_c, 2, 72, 90
4, 20065, Note_on_c, 2, 72, 0
4, 20070, Note_on_c, 2, 70, 90
4, 20185, Note_on_c, 2, 70, 0
4, 20185, Note_on_c, 2, 78, 0
4, 20190, Note_on_c, 2, 80, 96
4, 20190, Note_on_c, 2, 72, 90
4, 20425, Note_on_c, 2, 72, 0
4, 20425, Note_on_c, 2, 80, 0
4, 20430, Note_on_c, 2, 77, 96
4, 20430, Note_on_c, 2, 70, 90
4, 20665, Note_on_c, 2, 70, 0
4, 20665, Note_on_c, 2, 77, 0
4, 20670, Note_on_c, 2, 70, 96
4, 20670, Note_on_c, 2, 77, 90
4, 20725, Note_on_c, 2, 77, 0
4, 20905, Note_on_c, 2, 70, 0
4, 20910, Note_on_c, 2, 78, 96
4, 20910, Note_on_c, 2, 75, 90
4, 21025, Note_on_c, 2, 75, 0
4, 21030, Note_on_c, 2, 73, 90
4, 21145, Note_on_c, 2, 73, 0
4, 21145, Note_on_c, 2, 78, 0
4, 21150, Note_on_c, 2, 75, 96
4, 21150, Note_on_c, 2, 75, 90
4, 21385, Note_on_c, 2, 75, 0
4, 21385, Note_on_c, 2, 75, 0
4, 21390, Note_on_c, 2, 77, 96
4, 21390, Note_on_c, 2, 73, 90
4, 21625, Note_on_c, 2, 73, 0
4, 21625, Note_on_c, 2, 77, 0
4, 21630, Note_on_c, 2, 70, 96
4, 21630, Note_on_c, 2, 73, 90
4, 21865, Note_on_c, 2, 73, 0
4, 21865, Note_on_c, 2, 70, 0
4, 21870, Note_on_c, 2, 78, 96
4, 21870, Note_on_c, 2, 72, 90
4, 21985, Note_on_c, 2, 72, 0
4, 21990, Note_on_c, 2, 70, 90
4, 22105, Note_on_c, 2, 70, 0
4, 22105, Note_on_c, 2, 78, 0
4, 22110, Note_on_c, 2, 80, 96
4, 22110, Note_on_c, 2, 72, 90
4, 22345, Note_on_c, 2, 72, 0
4, 22345, Note_on_c, 2, 80, 0
4, 22350, Note_on_c, 2, 77, 96
4, 22350, Note_on_c, 2, 70, 90
4, 22585, Note_on_c, 2, 70, 0
4, 22585, Note_on_c, 2, 77, 0
4, 22590, Note_on_c, 2, 70, 96
4, 22590, Note_on_c, 2, 77, 90
4, 22645, Note_on_c, 2, 77, 0
4, 22825, Note_on_c, 2, 70, 0
4, 22830, Note_on_c, 2, 78, 96
4, 22830, Note_on_c, 2, 75, 90
4, 22945, Note_on_c, 2, 75, 0
4, 22950, Note_on_c, 2, 73, 90
4, 23065, Note_on_c, 2, 73, 0
4, 23065, Note_on_c, 2, 78, 0
4, 23070, Note_on_c, 2, 75, 96
4, 23070, Note_on_c, 2, 75, 90
4, 23305, Note_on_c, 2, 75, 0
4, 23305, Note_on_c, 2, 75, 0
4, 23310, Note_on_c, 2, 77, 96
4, 23310, Note_on_c, 2, 73, 90
4, 23545, Note_on_c, 2, 73, 0
4, 23545, Note_on_c, 2, 77, 0
4, 23550, Note_on_c, 2, 70, 120
4, 23550, Note_on_c, 2, 58, 96
4, 24025, Note_on_c, 2, 58, 0
4, 24025, Note_on_c, 2, 70, 0
4, 24030, Note_on_c, 2, 68, 120
4, 24030, Note_on_c, 2, 60, 96
4, 24205, Note_on_c, 2, 60, 0
4, 24205, Note_on_c, 2, 68, 0
4, 24210, Note_on_c, 2, 65, 120
4, 24210, Note_on_c, 2, 61, 66
4, 24505, Note_on_c, 2, 61, 0
4, 24510, Note_on_c, 2, 70, 120
4, 24510, Note_on_c, 2, 61, 96
4, 24570, Note_on_c, 2, 65, 0
4, 24985, Note_on_c, 2, 61, 0
4, 24985, Note_on_c, 2, 70, 0
4, 24990, Note_on_c, 2, 75, 120
4, 24990, Note_on_c, 2, 60, 96
4, 25165, Note_on_c, 2, 60, 0
4, 25165, Note_on_c, 2, 75, 0
4, 25170, Note_on_c, 2, 77, 120
4, 25170, Note_on_c, 2, 58, 96
4, 25465, Note_on_c, 2, 58, 0
4, 25470, Note_on_c, 2, 70, 120
4, 25470, Note_on_c, 2, 58, 96
4, 25530, Note_on_c, 2, 77, 0
4, 25945, Note_on_c, 2, 58, 0
4, 25945, Note_on_c, 2, 70, 0
4, 25950, Note_on_c, 2, 68, 120
4, 25950, Note_on_c, 2, 60, 96
4, 26125, Note_on_c, 2, 60, 0
4, 26125, Note_on_c, 2, 68, 0
4, 26130, Note_on_c, 2, 65, 120
4, 26130, Note_on_c, 2, 61, 66
4, 26425, Note_on_c, 2, 61, 0
4, 26430, Note_on_c, 2, 70, 120
4, 26430, Note_on_c, 2, 61, 96
4, 26490, Note_on_c, 2, 65, 0
4, 26905, Note_on_c, 2, 61, 0
4, 26905, Note_on_c, 2, 70, 0
4, 26910, Note_on_c, 2, 75, 120
4, 26910, Note_on_c, 2, 60, 96
4, 27085, Note_on_c, 2, 60, 0
4, 27085, Note_on_c, 2, 75, 0
4, 27090, Note_on_c, 2, 77, 120
4, 27090, Note_on_c, 2, 58, 96
4, 27385, Note_on_c, 2, 58, 0
4, 27450, Note_on_c, 2, 77, 0
4, 38910, Note_on_c, 2, 70, 96
4, 38910, Note_on_c, 2, 73, 90
4, 39145, Note_on_c, 2, 73, 0
4, 39145, Note_on_c, 2, 70, 0
4, 39150, Note_on_c, 2, 78, 96
4, 39150, Note_on_c, 2, 72, 90
4, 39265, Note_on_c, 2, 72, 0
4, 39270, Note_on_c, 2, 70, 90
4, 39385, Note_on_c, 2, 70, 0
4, 39385, Note_on_c, 2, 78, 0
4, 39390, Note_on_c, 2, 80, 96
4, 39390, Note_on_c, 2, 72, 90
4, 39625, Note_on_c, 2, 72, 0
4, 39625, Note_on_c, 2, 80, 0
4, 39630, Note_on_c, 2, 77, 96
4, 39630, Note_on_c, 2, 70, 90
4, 39865, Note_on_c, 2, 70, 0
4, 39865, Note_on_c, 2, 77, 0
4, 39870, Note_on_c, 2, 70, 96
4, 39870, Note_on_c, 2, 77, 90
4, 39925, Note_on_c, 2, 77, 0
4, 40105, Note_on_c, 2, 70, 0
4, 40110, Note_on_c, 2, 78, 96
4, 40110, Note_on_c, 2, 75, 90
4, 40225, Note_on_c, 2, 75, 0
4, 40230, Note_on_c, 2, 73, 90
4, 40345, Note_on_c, 2, 73, 0
4, 40345, Note_on_c, 2, 78, 0
4, 40350, Note_on_c, 2, 75, 96
4, 40350, Note_on_c, 2, 75, 90
4, 40585, Note_on_c, 2, 75, 0
4, 40585, Note_on_c, 2, 75, 0
4, 40590, Note_on_c, 2, 77, 96
4, 40590, Note_on_c, 2, 73, 90
4, 40825, Note_on_c, 2, 73, 0
4, 40825, Note_on_c, 2, 77, 0
4, 40830, Note_on_c, 2, 70, 96
4, 40830, Note_on_c, 2, 73, 90
4, 41065, Note_on_c, 2, 73, 0
4, 41065, Note_on_c, 2, 70, 0
4, 41070, Note_on_c, 2, 78, 96
4, 41070, Note_on_c, 2, 72, 90
4, 41185, Note_on_c, 2, 72, 0
4, 41190, Note_on_c, 2, 70, 90
4, 41305, Note_on_c, 2, 70, 0
4, 41305, Note_on_c, 2, 78, 0
4, 41310, Note_on_c, 2, 80, 96
4, 41310, Note_on_c, 2, 72, 90
4, 41545, Note_on_c, 2, 72, 0
4, 41545, Note_on_c, 2, 80, 0
4, 41550, Note_on_c, 2, 77, 96
4, 41550, Note_on_c, 2, 70, 90
4, 41785, Note_on_c, 2, 70, 0
4, 41785, Note_on_c, 2, 77, 0
4, 41790, Note_on_c, 2, 70, 96
4, 41790, Note_on_c, 2, 77, 90
4, 41845, Note_on_c, 2, 77, 0
4, 42025, Note_on_c, 2, 70, 0
4, 42030, Note_on_c, 2, 78, 96
4, 42030, Note_on_c, 2, 75, 90
4, 42145, Note_on_c, 2, 75, 0
4, 42150, Note_on_c, 2, 73, 90
4, 42265, Note_on_c, 2, 73, 0
4, 42265, Note_on_c, 2, 78, 0
4, 42270, Note_on_c, 2, 75, 96
4, 42270, Note_on_c, 2, 75, 90
4, 42505, Note_on_c, 2, 75, 0
4, 42505, Note_on_c, 2, 75, 0
4, 42510, Note_on_c, 2, 77, 96
4, 42510, Note_on_c, 2, 73, 90
4, 42745, Note_on_c, 2, 73, 0
4, 42745, Note_on_c, 2, 77, 0
4, 42750, Note_on_c, 2, 70, 96
4, 42750, Note_on_c, 2, 73, 90
4, 42985, Note_on_c, 2, 73, 0
4, 42985, Note_on_c, 2, 70, 0
4, 42990, Note_on_c, 2, 78, 96
4, 42990, Note_on_c, 2, 72, 90
4, 43105, Note_on_c, 2, 72, 0
4, 43110, Note_on_c, 2, 70, 90
4, 43225, Note_on_c, 2, 70, 0
4, 43225, Note_on_c, 2, 78, 0
4, 43230, Note_on_c, 2, 80, 96
4, 43230, Note_on_c, 2, 72, 90
4, 43465, Note_on_c, 2, 72, 0
4, 43465, Note_on_c, 2, 80, 0
4, 43470, Note_on_c, 2, 77, 96
4, 43470, Note_on_c, 2, 70, 90
4, 43705, Note_on_c, 2, 70, 0
4, 43705, Note_on_c, 2, 77, 0
4, 43710, Note_on_c, 2, 70, 96
4, 43710, Note_on_c, 2, 77, 90
4, 43765, Note_on_c, 2, 77, 0
4, 43945, Note_on_c, 2, 70, 0
4, 43950, Note_on_c, 2, 78, 96
4, 43950, Note_on_c, 2, 75, 90
4, 44065, Note_on_c, 2, 75, 0
4, 44070, Note_on_c, 2, 73, 90
4, 44185, Note_on_c, 2, 73, 0
4, 44185, Note_on_c, 2, 78, 0
4, 44190, Note_on_c, 2, 75, 96
4, 44190, Note_on_c, 2, 75, 90
4, 44425, Note_on_c, 2, 75, 0
4, 44425, Note_on_c, 2, 75, 0
4, 44430, Note_on_c, 2, 77, 96
4, 44430, Note_on_c, 2, 73, 90
4, 44665, Note_on_c, 2, 73, 0
4, 44665, Note_on_c, 2, 77, 0
4, 44670, Note_on_c, 2, 70, 96
4, 44670, Note_on_c, 2, 73, 90
4, 44905, Note_on_c, 2, 73, 0
4, 44905, Note_on_c, 2, 70, 0
4, 44910, Note_on_c, 2, 78, 96
4, 44910, Note_on_c, 2, 72, 90
4, 45025, Note_on_c, 2, 72, 0
4, 45030, Note_on_c, 2, 70, 90
4, 45145, Note_on_c, 2, 70, 0
4, 45145, Note_on_c, 2, 78, 0
4, 45150, Note_on_c, 2, 80, 96
4, 45150, Note_on_c, 2, 72, 90
4, 45385, Note_on_c, 2, 72, 0
4, 45385, Note_on_c, 2, 80, 0
4, 45390, Note_on_c, 2, 77, 96
4, 45390, Note_on_c, 2, 70, 90
4, 45625, Note_on_c, 2, 70, 0
4, 45625, Note_on_c, 2, 77, 0
4, 45630, Note_on_c, 2, 70, 96
4, 45630, Note_on_c, 2, 77, 90
4, 45685, Note_on_c, 2, 77, 0
4, 45865, Note_on_c, 2, 70, 0
4, 45870, Note_on_c, 2, 78, 96
4, 45870, Note_on_c, 2, 75, 90
4, 45985, Note_on_c, 2, 75, 0
4, 45990, Note_on_c, 2, 73, 90
4, 46105, Note_on_c, 2, 73, 0
4, 46105, Note_on_c, 2, 78, 0
4, 46110, Note_on_c, 2, 75, 96
4, 46110, Note_on_c, 2, 75, 90
4, 46345, Note_on_c, 2, 75, 0
4, 46345, Note_on_c, 2, 75, 0
4, 46350, Note_on_c, 2, 77, 96
4, 46350, Note_on_c, 2, 73, 90
4, 46585, Note_on_c, 2, 73, 0
4, 46585, Note_on_c, 2, 77, 0
4, 46590, Note_on_c, 2, 73, 84
4, 46590, Note_on_c, 2, 70, 84
4, 46590, Note_on_c, 2, 65, 84
4, 46825, Note_on_c, 2, 65, 0
4, 46830, Note_on_c, 2, 66, 84
4, 47065, Note_on_c, 2, 66, 0
4, 47065, Note_on_c, 2, 70, 0
4, 47065, Note_on_c, 2, 73, 0
4, 47070, Note_on_c, 2, 68, 84
4, 47070, Note_on_c, 2, 63, 84
4, 47070, Note_on_c, 2, 72, 84
4, 47305, Note_on_c, 2, 72, 0
4, 47305, Note_on_c, 2, 63, 0
4, 47305, Note_on_c, 2, 68, 0
4, 47310, Note_on_c, 2, 73, 84
4, 47310, Note_on_c, 2, 70, 84
4, 47310, Note_on_c, 2, 65, 84
4, 47545, Note_on_c, 2, 65, 0
4, 47545, Note_on_c, 2, 70, 0
4, 47545, Note_on_c, 2, 73, 0
4, 47550, Note_on_c, 2, 70, 84
4, 47550, Note_on_c, 2, 77, 84
4, 47550, Note_on_c, 2, 73, 84
4, 47785, Note_on_c, 2, 77, 0
4, 47790, Note_on_c, 2, 78, 84
4, 48025, Note_on_c, 2, 78, 0
4, 48025, Note_on_c, 2, 73, 0
4, 48025, Note_on_c, 2, 70, 0
4, 48030, Note_on_c, 2, 80, 84
4, 48030, Note_on_c, 2, 75, 84
4, 48030, Note_on_c, 2, 72, 84
4, 48265, Note_on_c, 2, 72, 0
4, 48265, Note_on_c, 2, 75, 0
4, 48265, Note_on_c, 2, 80, 0
4, 48270, Note_on_c, 2, 82, 84
4, 48270, Note_on_c, 2, 73, 84
4, 48270, Note_on_c, 2, 77, 84
4, 48505, Note_on_c, 2, 77, 0
4, 48505, Note_on_c, 2, 73, 0
4, 48505, Note_on_c, 2, 82, 0
4, 48510, Note_on_c, 2, 73, 84
4, 48510, Note_on_c, 2, 70, 84
4, 48510, Note_on_c, 2, 65, 84
4, 48745, Note_on_c, 2, 65, 0
4, 48750, Note_on_c, 2, 66, 84
4, 48985, Note_on_c, 2, 66, 0
4, 48985, Note_on_c, 2, 70, 0
4, 48985, Note_on_c, 2, 73, 0
4, 48990, Note_on_c, 2, 68, 84
4, 48990, Note_on_c, 2, 63, 84
4, 48990, Note_on_c, 2, 72, 84
4, 49225, Note_on_c, 2, 72, 0
4, 49225, Note_on_c, 2, 63, 0
4, 49225, Note_on_c, 2, 68, 0
4, 49230, Note_on_c, 2, 73, 84
4, 49230, Note_on_c, 2, 70, 84
4, 49230, Note_on_c, 2, 65, 84
4, 49465, Note_on_c, 2, 65, 0
4, 49465, Note_on_c, 2, 70, 0
4, 49465, Note_on_c, 2, 73, 0
4, 49470, Note_on_c, 2, 70, 84
4, 49470, Note_on_c, 2, 77, 84
4, 49470, Note_on_c, 2, 73, 84
4, 49705, Note_on_c, 2, 77, 0
4, 49710, Note_on_c, 2, 78, 84
4, 49945, Note_on_c, 2, 78, 0
4, 49945, Note_on_c, 2, 73, 0
4, 49945, Note_on_c, 2, 70, 0
4, 49950, Note_on_c, 2, 80, 84
4, 49950, Note_on_c, 2, 75, 84
4, 49950, Note_on_c, 2, 72, 84
4, 50185, Note_on_c, 2, 72, 0
4, 50185, Note_on_c, 2, 75, 0
4, 50185, Note_on_c, 2, 80, 0
4, 50190, Note_on_c, 2, 82, 84
4, 50190, Note_on_c, 2, 73, 84
4, 50190, Note_on_c, 2, 77, 84
4, 50425, Note_on_c, 2, 77, 0
4, 50425, Note_on_c, 2, 73, 0
4, 50425, Note_on_c, 2, 82, 0
4, 50430, Note_on_c, 2, 70, 120
4, 50430, Note_on_c, 2, 58, 96
4, 50905, Note_on_c, 2, 58, 0
4, 50905, Note_on_c, 2, 70, 0
4, 50910, Note_on_c, 2, 68, 120
4, 50910, Note_on_c, 2, 60, 96
4, 51085, Note_on_c, 2, 60, 0
4, 51085, Note_on_c, 2, 68, 0
4, 51090, Note_on_c, 2, 65, 120
4, 51090, Note_on_c, 2, 61, 66
4, 51385, Note_on_c, 2, 61, 0
4, 51390, Note_on_c, 2, 70, 120
4, 51390, Note_on_c, 2, 61, 96
4, 51450, Note_on_c, 2, 65, 0
4, 51865, Note_on_c, 2, 61, 0
4, 51865, Note_on_c, 2, 70, 0
4, 51870, Note_on_c, 2, 75, 120
4, 51870, Note_on_c, 2, 60, 96
4, 52045, Note_on_c, 2, 60, 0
4, 52045, Note_on_c, 2, 75, 0
4, 52050, Note_on_c, 2, 77, 120
4, 52050, Note_on_c, 2, 58, 96
4, 52345, Note_on_c, 2, 58, 0
4, 52350, Note_on_c, 2, 70, 120
4, 52350, Note_on_c, 2, 58, 96
4, 52410, Note_on_c, 2, 77, 0
4, 52825, Note_on_c, 2, 58, 0
4, 52825, Note_on_c, 2, 70, 0
4, 52830, Note_on_c, 2, 68, 120
4, 52830, Note_on_c, 2, 60, 96
4, 53005, Note_on_c, 2, 60, 0
4, 53005, Note_on_c, 2, 68, 0
4, 53010, Note_on_c, 2, 65, 120
4, 53010, Note_on_c, 2, 61, 66
4, 53305, Note_on_c, 2, 61, 0
4, 53310, Note_on_c, 2, 70, 120
4, 53310, Note_on_c, 2, 61, 96
4, 53370, Note_on_c, 2, 65, 0
4, 53785, Note_on_c, 2, 61, 0
4, 53785, Note_on_c, 2, 70, 0
4, 53790, Note_on_c, 2, 75, 120
4, 53790, Note_on_c, 2, 60, 96
4, 53965, Note_on_c, 2, 60, 0
4, 53965, Note_on_c, 2, 75, 0
4, 53970, Note_on_c, 2, 77, 120
4, 53970, Note_on_c, 2, 58, 96
4, 54265, Note_on_c, 2, 58, 0
4, 54330, Note_on_c, 2, 77, 0
4, 54810, Control_c, 2, 0, 0
4, 54810, Program_c, 2, 0
4, 54810, Control_c, 2, 7, 127
4, 54810, Control_c, 2, 91, 80
4, 54810, Control_c, 2, 93, 0
4, 54810, Control_c, 2, 119, 0
4, 54810, Control_c, 2, 121, 0
4, 54810, End_track
5, 0, Start_track
5, 0, MIDI_port, 0
5, 0, Title_t, "WinJammer Demo"
5, 15, Control_c, 3, 0, 127
5, 15, Program_c, 3, 50
5, 15, Control_c, 3, 99, 1
5, 15, Control_c, 3, 98, 99
5, 15, Control_c, 3, 6, 68
5, 15, Control_c, 3, 99, 1
5, 15, Control_c, 3, 98, 102
5, 15, Control_c, 3, 6, 48
5, 15, Control_c, 3, 93, 60
5, 15, Control_c, 3, 7, 127
5, 510, Note_on_c, 3, 77, 127
5, 535, Note_on_c, 3, 77, 0
5, 540, Note_on_c, 3, 70, 127
5, 565, Note_on_c, 3, 70, 0
5, 570, Note_on_c, 3, 73, 127
5, 595, Note_on_c, 3, 73, 0
5, 600, Note_on_c, 3, 70, 127
5, 625, Note_on_c, 3, 70, 0
5, 630, Note_on_c, 3, 75, 127
5, 655, Note_on_c, 3, 75, 0
5, 660, Note_on_c, 3, 70, 127
5, 685, Note_on_c, 3, 70, 0
5, 690, Note_on_c, 3, 73, 127
5, 715, Note_on_c, 3, 73, 0
5, 720, Note_on_c, 3, 70, 127
5, 745, Note_on_c, 3, 70, 0
5, 750, Note_on_c, 3, 66, 127
5, 775, Note_on_c, 3, 66, 0
5, 780, Note_on_c, 3, 61, 127
5, 805, Note_on_c, 3, 61, 0
5, 810, Note_on_c, 3, 66, 127
5, 835, Note_on_c, 3, 66, 0
5, 840, Note_on_c, 3, 61, 127
5, 865, Note_on_c, 3, 61, 0
5, 870, Note_on_c, 3, 70, 127
5, 895, Note_on_c, 3, 70, 0
5, 900, Note_on_c, 3, 61, 127
5, 925, Note_on_c, 3, 61, 0
5, 930, Note_on_c, 3, 66, 127
5, 955, Note_on_c, 3, 66, 0
5, 960, Note_on_c, 3, 61, 127
5, 985, Note_on_c, 3, 61, 0
5, 990, Note_on_c, 3, 68, 127
5, 1015, Note_on_c, 3, 68, 0
5, 1020, Note_on_c, 3, 63, 127
5, 1045, Note_on_c, 3, 63, 0
5, 1050, Note_on_c, 3, 68, 127
5, 1075, Note_on_c, 3, 68, 0
5, 1080, Note_on_c, 3, 63, 127
5, 1105, Note_on_c, 3, 63, 0
5, 1110, Note_on_c, 3, 72, 127
5, 1135, Note_on_c, 3, 72, 0
5, 1140, Note_on_c, 3, 63, 127
5, 1165, Note_on_c, 3, 63, 0
5, 1170, Note_on_c, 3, 68, 127
5, 1195, Note_on_c, 3, 68, 0
5, 1200, Note_on_c, 3, 63, 127
5, 1225, Note_on_c, 3, 63, 0
5, 1230, Note_on_c, 3, 70, 127
5, 1255, Note_on_c, 3, 70, 0
5, 1260, Note_on_c, 3, 65, 127
5, 1285, Note_on_c, 3, 65, 0
5, 1290, Note_on_c, 3, 70, 127
5, 1315, Note_on_c, 3, 70, 0
5, 1320, Note_on_c, 3, 65, 127
5, 1345, Note_on_c, 3, 65, 0
5, 1350, Note_on_c, 3, 73, 127
5, 1375, Note_on_c, 3, 73, 0
5, 1380, Note_on_c, 3, 65, 127
5, 1405, Note_on_c, 3, 65, 0
5, 1410, Note_on_c, 3, 70, 127
5, 1435, Note_on_c, 3, 70, 0
5, 1440, Note_on_c, 3, 65, 127
5, 1465, Note_on_c, 3, 65, 0
5, 1470, Note_on_c, 3, 77, 127
5, 1495, Note_on_c, 3, 77, 0
5, 1500, Note_on_c, 3, 70, 127
5, 1525, Note_on_c, 3, 70, 0
5, 1530, Note_on_c, 3, 73, 127
5, 1555, Note_on_c, 3, 73, 0
5, 1560, Note_on_c, 3, 70, 127
5, 1585, Note_on_c, 3, 70, 0
5, 1590, Note_on_c, 3, 75, 127
5, 1615, Note_on_c, 3, 75, 0
5, 1620, Note_on_c, 3, 70, 127
5, 1645, Note_on_c, 3, 70, 0
5, 1650, Note_on_c, 3, 73, 127
5, 1675, Note_on_c, 3, 73, 0
5, 1680, Note_on_c, 3, 70, 127
5, 1705, Note_on_c, 3, 70, 0
5, 1710, Note_on_c, 3, 66, 127
5, 1735, Note_on_c, 3, 66, 0
5, 1740, Note_on_c, 3, 61, 127
5, 1765, Note_on_c, 3, 61, 0
5, 1770, Note_on_c, 3, 66, 127
5, 1795, Note_on_c, 3, 66, 0
5, 1800, Note_on_c, 3, 61, 127
5, 1825, Note_on_c, 3, 61, 0
5, 1830, Note_on_c, 3, 70, 127
5, 1855, Note_on_c, 3, 70, 0
5, 1860, Note_on_c, 3, 61, 127
5, 1885, Note_on_c, 3, 61, 0
5, 1890, Note_on_c, 3, 66, 127
5, 1915, Note_on_c, 3, 66, 0
5, 1920, Note_on_c, 3, 61, 127
5, 1945, Note_on_c, 3, 61, 0
5, 1950, Note_on_c, 3, 68, 127
5, 1975, Note_on_c, 3, 68, 0
5, 1980, Note_on_c, 3, 63, 127
5, 2005, Note_on_c, 3, 63, 0
5, 2010, Note_on_c, 3, 68, 127
5, 2035, Note_on_c, 3, 68, 0
5, 2040, Note_on_c, 3, 63, 127
5, 2065, Note_on_c, 3, 63, 0
5, 2070, Note_on_c, 3, 72, 127
5, 2095, Note_on_c, 3, 72, 0
5, 2100, Note_on_c, 3, 63, 127
5, 2125, Note_on_c, 3, 63, 0
5, 2130, Note_on_c, 3, 68, 127
5, 2155, Note_on_c, 3, 68, 0
5, 2160, Note_on_c, 3, 63, 127
5, 2185, Note_on_c, 3, 63, 0
5, 2190, Note_on_c, 3, 70, 127
5, 2215, Note_on_c, 3, 70, 0
5, 2220, Note_on_c, 3, 65, 127
5, 2245, Note_on_c, 3, 65, 0
5, 2250, Note_on_c, 3, 70, 127
5, 2275, Note_on_c, 3, 70, 0
5, 2280, Note_on_c, 3, 65, 127
5, 2305, Note_on_c, 3, 65, 0
5, 2310, Note_on_c, 3, 73, 127
5, 2335, Note_on_c, 3, 73, 0
5, 2340, Note_on_c, 3, 65, 127
5, 2365, Note_on_c, 3, 65, 0
5, 2370, Note_on_c, 3, 70, 127
5, 2395, Note_on_c, 3, 70, 0
5, 2400, Note_on_c, 3, 65, 127
5, 2425, Note_on_c, 3, 65, 0
5, 2430, Note_on_c, 3, 77, 127
5, 2455, Note_on_c, 3, 77, 0
5, 2460, Note_on_c, 3, 70, 127
5, 2485, Note_on_c, 3, 70, 0
5, 2490, Note_on_c, 3, 73, 127
5, 2515, Note_on_c, 3, 73, 0
5, 2520, Note_on_c, 3, 70, 127
5, 2545, Note_on_c, 3, 70, 0
5, 2550, Note_on_c, 3, 75, 127
5, 2575, Note_on_c, 3, 75, 0
5, 2580, Note_on_c, 3, 70, 127
5, 2605, Note_on_c, 3, 70, 0
5, 2610, Note_on_c, 3, 73, 127
5, 2635, Note_on_c, 3, 73, 0
5, 2640, Note_on_c, 3, 70, 127
5, 2665, Note_on_c, 3, 70, 0
5, 2670, Note_on_c, 3, 66, 127
5, 2695, Note_on_c, 3, 66, 0
5, 2700, Note_on_c, 3, 61, 127
5, 2725, Note_on_c, 3, 61, 0
5, 2730, Note_on_c, 3, 66, 127
5, 2755, Note_on_c, 3, 66, 0
5, 2760, Note_on_c, 3, 61, 127
5, 2785, Note_on_c, 3, 61, 0
5, 2790, Note_on_c, 3, 70, 127
5, 2815, Note_on_c, 3, 70, 0
5, 2820, Note_on_c, 3, 61, 127
5, 2845, Note_on_c, 3, 61, 0
5, 2850, Note_on_c, 3, 66, 127
5, 2875, Note_on_c, 3, 66, 0
5, 2880, Note_on_c, 3, 61, 127
5, 2905, Note_on_c, 3, 61, 0
5, 2910, Note_on_c, 3, 68, 127
5, 2935, Note_on_c, 3, 68, 0
5, 2940, Note_on_c, 3, 63, 127
5, 2965, Note_on_c, 3, 63, 0
5, 2970, Note_on_c, 3, 68, 127
5, 2995, Note_on_c, 3, 68, 0
5, 3000, Note_on_c, 3, 63, 127
5, 3025, Note_on_c, 3, 63, 0
5, 3030, Note_on_c, 3, 72, 127
5, 3055, Note_on_c, 3, 72, 0
5, 3060, Note_on_c, 3, 63, 127
5, 3085, Note_on_c, 3, 63, 0
5, 3090, Note_on_c, 3, 68, 127
5, 3115, Note_on_c, 3, 68, 0
5, 3120, Note_on_c, 3, 63, 127
5, 3145, Note_on_c, 3, 63, 0
5, 3150, Note_on_c, 3, 70, 127
5, 3175, Note_on_c, 3, 70, 0
5, 3180, Note_on_c, 3, 65, 127
5, 3205, Note_on_c, 3, 65, 0
5, 3210, Note_on_c, 3, 70, 127
5, 3235, Note_on_c, 3, 70, 0
5, 3240, Note_on_c, 3, 65, 127
5, 3265, Note_on_c, 3, 65, 0
5, 3270, Note_on_c, 3, 73, 127
5, 3295, Note_on_c, 3, 73, 0
5, 3300, Note_on_c, 3, 65, 127
5, 3325, Note_on_c, 3, 65, 0
5, 3330, Note_on_c, 3, 70, 127
5, 3355, Note_on_c, 3, 70, 0
5, 3360, Note_on_c, 3, 65, 127
5, 3385, Note_on_c, 3, 65, 0
5, 3390, Note_on_c, 3, 77, 127
5, 3415, Note_on_c, 3, 77, 0
5, 3420, Note_on_c, 3, 70, 127
5, 3445, Note_on_c, 3, 70, 0
5, 3450, Note_on_c, 3, 73, 127
5, 3475, Note_on_c, 3, 73, 0
5, 3480, Note_on_c, 3, 70, 127
5, 3505, Note_on_c, 3, 70, 0
5, 3510, Note_on_c, 3, 75, 127
5, 3535, Note_on_c, 3, 75, 0
5, 3540, Note_on_c, 3, 70, 127
5, 3565, Note_on_c, 3, 70, 0
5, 3570, Note_on_c, 3, 73, 127
5, 3595, Note_on_c, 3, 73, 0
5, 3600, Note_on_c, 3, 70, 127
5, 3625, Note_on_c, 3, 70, 0
5, 3630, Note_on_c, 3, 66, 127
5, 3655, Note_on_c, 3, 66, 0
5, 3660, Note_on_c, 3, 61, 127
5, 3685, Note_on_c, 3, 61, 0
5, 3690, Note_on_c, 3, 66, 127
5, 3715, Note_on_c, 3, 66, 0
5, 3720, Note_on_c, 3, 61, 127
5, 3745, Note_on_c, 3, 61, 0
5, 3750, Note_on_c, 3, 70, 127
5, 3775, Note_on_c, 3, 70, 0
5, 3780, Note_on_c, 3, 61, 127
5, 3805, Note_on_c, 3, 61, 0
5, 3810, Note_on_c, 3, 66, 127
5, 3835, Note_on_c, 3, 66, 0
5, 3840, Note_on_c, 3, 61, 127
5, 3865, Note_on_c, 3, 61, 0
5, 3870, Note_on_c, 3, 68, 127
5, 3895, Note_on_c, 3, 68, 0
5, 3900, Note_on_c, 3, 63, 127
5, 3925, Note_on_c, 3, 63, 0
5, 3930, Note_on_c, 3, 68, 127
5, 3955, Note_on_c, 3, 68, 0
5, 3960, Note_on_c, 3, 63, 127
5, 3985, Note_on_c, 3, 63, 0
5, 3990, Note_on_c, 3, 72, 127
5, 4015, Note_on_c, 3, 72, 0
5, 4020, Note_on_c, 3, 63, 127
5, 4045, Note_on_c, 3, 63, 0
5, 4050, Note_on_c, 3, 68, 127
5, 4075, Note_on_c, 3, 68, 0
5, 4080, Note_on_c, 3, 63, 127
5, 4105, Note_on_c, 3, 63, 0
5, 4110, Note_on_c, 3, 70, 127
5, 4135, Note_on_c, 3, 70, 0
5, 4140, Note_on_c, 3, 65, 127
5, 4165, Note_on_c, 3, 65, 0
5, 4170, Note_on_c, 3, 70, 127
5, 4195, Note_on_c, 3, 70, 0
5, 4200, Note_on_c, 3, 65, 127
5, 4225, Note_on_c, 3, 65, 0
5, 4230, Note_on_c, 3, 73, 127
5, 4255, Note_on_c, 3, 73, 0
5, 4260, Note_on_c, 3, 65, 127
5, 4285, Note_on_c, 3, 65, 0
5, 4290, Note_on_c, 3, 70, 127
5, 4315, Note_on_c, 3, 70, 0
5, 4320, Note_on_c, 3, 65, 127
5, 4345, Note_on_c, 3, 65, 0
5, 4350, Note_on_c, 3, 77, 127
5, 4375, Note_on_c, 3, 77, 0
5, 4380, Note_on_c, 3, 70, 127
5, 4405, Note_on_c, 3, 70, 0
5, 4410, Note_on_c, 3, 73, 127
5, 4435, Note_on_c, 3, 73, 0
5, 4440, Note_on_c, 3, 70, 127
5, 4465, Note_on_c, 3, 70, 0
5, 4470, Note_on_c, 3, 75, 127
5, 4495, Note_on_c, 3, 75, 0
5, 4500, Note_on_c, 3, 70, 127
5, 4525, Note_on_c, 3, 70, 0
5, 4530, Note_on_c, 3, 73, 127
5, 4555, Note_on_c, 3, 73, 0
5, 4560, Note_on_c, 3, 70, 127
5, 4585, Note_on_c, 3, 70, 0
5, 4590, Note_on_c, 3, 66, 127
5, 4615, Note_on_c, 3, 66, 0
5, 4620, Note_on_c, 3, 61, 127
5, 4645, Note_on_c, 3, 61, 0
5, 4650, Note_on_c, 3, 66, 127
5, 4675, Note_on_c, 3, 66, 0
5, 4680, Note_on_c, 3, 61, 127
5, 4705, Note_on_c, 3, 61, 0
5, 4710, Note_on_c, 3, 70, 127
5, 4735, Note_on_c, 3, 70, 0
5, 4740, Note_on_c, 3, 61, 127
5, 4765, Note_on_c, 3, 61, 0
5, 4770, Note_on_c, 3, 66, 127
5, 4795, Note_on_c, 3, 66, 0
5, 4800, Note_on_c, 3, 61, 127
5, 4825, Note_on_c, 3, 61, 0
5, 4830, Note_on_c, 3, 68, 127
5, 4855, Note_on_c, 3, 68, 0
5, 4860, Note_on_c, 3, 63, 127
5, 4885, Note_on_c, 3, 63, 0
5, 4890, Note_on_c, 3, 68, 127
5, 4915, Note_on_c, 3, 68, 0
5, 4920, Note_on_c, 3, 63, 127
5, 4945, Note_on_c, 3, 63, 0
5, 4950, Note_on_c, 3, 72, 127
5, 4975, Note_on_c, 3, 72, 0
5, 4980, Note_on_c, 3, 63, 127
5, 5005, Note_on_c, 3, 63, 0
5, 5010, Note_on_c, 3, 68, 127
5, 5035, Note_on_c, 3, 68, 0
5, 5040, Note_on_c, 3, 63, 127
5, 5065, Note_on_c, 3, 63, 0
5, 5070, Note_on_c, 3, 70, 127
5, 5095, Note_on_c, 3, 70, 0
5, 5100, Note_on_c, 3, 65, 127
5, 5125, Note_on_c, 3, 65, 0
5, 5130, Note_on_c, 3, 70, 127
5, 5155, Note_on_c, 3, 70, 0
5, 5160, Note_on_c, 3, 65, 127
5, 5185, Note_on_c, 3, 65, 0
5, 5190, Note_on_c, 3, 73, 127
5, 5215, Note_on_c, 3, 73, 0
5, 5220, Note_on_c, 3, 65, 127
5, 5245, Note_on_c, 3, 65, 0
5, 5250, Note_on_c, 3, 70, 127
5, 5275, Note_on_c, 3, 70, 0
5, 5280, Note_on_c, 3, 65, 127
5, 5305, Note_on_c, 3, 65, 0
5, 5310, Note_on_c, 3, 77, 127
5, 5335, Note_on_c, 3, 77, 0
5, 5340, Note_on_c, 3, 70, 127
5, 5365, Note_on_c, 3, 70, 0
5, 5370, Note_on_c, 3, 73, 127
5, 5395, Note_on_c, 3, 73, 0
5, 5400, Note_on_c, 3, 70, 127
5, 5425, Note_on_c, 3, 70, 0
5, 5430, Note_on_c, 3, 75, 127
5, 5455, Note_on_c, 3, 75, 0
5, 5460, Note_on_c, 3, 70, 127
5, 5485, Note_on_c, 3, 70, 0
5, 5490, Note_on_c, 3, 73, 127
5, 5515, Note_on_c, 3, 73, 0
5, 5520, Note_on_c, 3, 70, 127
5, 5545, Note_on_c, 3, 70, 0
5, 5550, Note_on_c, 3, 66, 127
5, 5575, Note_on_c, 3, 66, 0
5, 5580, Note_on_c, 3, 61, 127
5, 5605, Note_on_c, 3, 61, 0
5, 5610, Note_on_c, 3, 66, 127
5, 5635, Note_on_c, 3, 66, 0
5, 5640, Note_on_c, 3, 61, 127
5, 5665, Note_on_c, 3, 61, 0
5, 5670, Note_on_c, 3, 70, 127
5, 5695, Note_on_c, 3, 70, 0
5, 5700, Note_on_c, 3, 61, 127
5, 5725, Note_on_c, 3, 61, 0
5, 5730, Note_on_c, 3, 66, 127
5, 5755, Note_on_c, 3, 66, 0
5, 5760, Note_on_c, 3, 61, 127
5, 5785, Note_on_c, 3, 61, 0
5, 5790, Note_on_c, 3, 68, 127
5, 5815, Note_on_c, 3, 68, 0
5, 5820, Note_on_c, 3, 63, 127
5, 5845, Note_on_c, 3, 63, 0
5, 5850, Note_on_c, 3, 68, 127
5, 5875, Note_on_c, 3, 68, 0
5, 5880, Note_on_c, 3, 63, 127
5, 5905, Note_on_c, 3, 63, 0
5, 5910, Note_on_c, 3, 72, 127
5, 5935, Note_on_c, 3, 72, 0
5, 5940, Note_on_c, 3, 63, 127
5, 5965, Note_on_c, 3, 63, 0
5, 5970, Note_on_c, 3, 68, 127
5, 5995, Note_on_c, 3, 68, 0
5, 6000, Note_on_c, 3, 63, 127
5, 6025, Note_on_c, 3, 63, 0
5, 6030, Note_on_c, 3, 70, 127
5, 6055, Note_on_c, 3, 70, 0
5, 6060, Note_on_c, 3, 65, 127
5, 6085, Note_on_c, 3, 65, 0
5, 6090, Note_on_c, 3, 70, 127
5, 6115, Note_on_c, 3, 70, 0
5, 6120, Note_on_c, 3, 65, 127
5, 6145, Note_on_c, 3, 65, 0
5, 6150, Note_on_c, 3, 73, 127
5, 6175, Note_on_c, 3, 73, 0
5, 6180, Note_on_c, 3, 65, 127
5, 6205, Note_on_c, 3, 65, 0
5, 6210, Note_on_c, 3, 70, 127
5, 6235, Note_on_c, 3, 70, 0
5, 6240, Note_on_c, 3, 65, 127
5, 6265, Note_on_c, 3, 65, 0
5, 6270, Note_on_c, 3, 77, 127
5, 6295, Note_on_c, 3, 77, 0
5, 6300, Note_on_c, 3, 70, 127
5, 6325, Note_on_c, 3, 70, 0
5, 6330, Note_on_c, 3, 73, 127
5, 6355, Note_on_c, 3, 73, 0
5, 6360, Note_on_c, 3, 70, 127
5, 6385, Note_on_c, 3, 70, 0
5, 6390, Note_on_c, 3, 75, 127
5, 6415, Note_on_c, 3, 75, 0
5, 6420, Note_on_c, 3, 70, 127
5, 6445, Note_on_c, 3, 70, 0
5, 6450, Note_on_c, 3, 73, 127
5, 6475, Note_on_c, 3, 73, 0
5, 6480, Note_on_c, 3, 70, 127
5, 6505, Note_on_c, 3, 70, 0
5, 6510, Note_on_c, 3, 66, 127
5, 6535, Note_on_c, 3, 66, 0
5, 6540, Note_on_c, 3, 61, 127
5, 6565, Note_on_c, 3, 61, 0
5, 6570, Note_on_c, 3, 66, 127
5, 6595, Note_on_c, 3, 66, 0
5, 6600, Note_on_c, 3, 61, 127
5, 6625, Note_on_c, 3, 61, 0
5, 6630, Note_on_c, 3, 70, 127
5, 6655, Note_on_c, 3, 70, 0
5, 6660, Note_on_c, 3, 61, 127
5, 6685, Note_on_c, 3, 61, 0
5, 6690, Note_on_c, 3, 66, 127
5, 6715, Note_on_c, 3, 66, 0
5, 6720, Note_on_c, 3, 61, 127
5, 6745, Note_on_c, 3, 61, 0
5, 6750, Note_on_c, 3, 68, 127
5, 6775, Note_on_c, 3, 68, 0
5, 6780, Note_on_c, 3, 63, 127
5, 6805, Note_on_c, 3, 63, 0
5, 6810, Note_on_c, 3, 68, 127
5, 6835, Note_on_c, 3, 68, 0
5, 6840, Note_on_c, 3, 63, 127
5, 6865, Note_on_c, 3, 63, 0
5, 6870, Note_on_c, 3, 72, 127
5, 6895, Note_on_c, 3, 72, 0
5, 6900, Note_on_c, 3, 63, 127
5, 6925, Note_on_c, 3, 63, 0
5, 6930, Note_on_c, 3, 68, 127
5, 6955, Note_on_c, 3, 68, 0
5, 6960, Note_on_c, 3, 63, 127
5, 6985, Note_on_c, 3, 63, 0
5, 6990, Note_on_c, 3, 70, 127
5, 7015, Note_on_c, 3, 70, 0
5, 7020, Note_on_c, 3, 65, 127
5, 7045, Note_on_c, 3, 65, 0
5, 7050, Note_on_c, 3, 70, 127
5, 7075, Note_on_c, 3, 70, 0
5, 7080, Note_on_c, 3, 65, 127
5, 7105, Note_on_c, 3, 65, 0
5, 7110, Note_on_c, 3, 73, 127
5, 7135, Note_on_c, 3, 73, 0
5, 7140, Note_on_c, 3, 65, 127
5, 7165, Note_on_c, 3, 65, 0
5, 7170, Note_on_c, 3, 70, 127
5, 7195, Note_on_c, 3, 70, 0
5, 7200, Note_on_c, 3, 65, 127
5, 7225, Note_on_c, 3, 65, 0
5, 7230, Note_on_c, 3, 77, 127
5, 7255, Note_on_c, 3, 77, 0
5, 7260, Note_on_c, 3, 70, 127
5, 7285, Note_on_c, 3, 70, 0
5, 7290, Note_on_c, 3, 73, 127
5, 7315, Note_on_c, 3, 73, 0
5, 7320, Note_on_c, 3, 70, 127
5, 7345, Note_on_c, 3, 70, 0
5, 7350, Note_on_c, 3, 75, 127
5, 7375, Note_on_c, 3, 75, 0
5, 7380, Note_on_c, 3, 70, 127
5, 7405, Note_on_c, 3, 70, 0
5, 7410, Note_on_c, 3, 73, 127
5, 7435, Note_on_c, 3, 73, 0
5, 7440, Note_on_c, 3, 70, 127
5, 7465, Note_on_c, 3, 70, 0
5, 7470, Note_on_c, 3, 66, 127
5, 7495, Note_on_c, 3, 66, 0
5, 7500, Note_on_c, 3, 61, 127
5, 7525, Note_on_c, 3, 61, 0
5, 7530, Note_on_c, 3, 66, 127
5, 7555, Note_on_c, 3, 66, 0
5, 7560, Note_on_c, 3, 61, 127
5, 7585, Note_on_c, 3, 61, 0
5, 7590, Note_on_c, 3, 70, 127
5, 7615, Note_on_c, 3, 70, 0
5, 7620, Note_on_c, 3, 61, 127
5, 7645, Note_on_c, 3, 61, 0
5, 7650, Note_on_c, 3, 66, 127
5, 7675, Note_on_c, 3, 66, 0
5, 7680, Note_on_c, 3, 61, 127
5, 7705, Note_on_c, 3, 61, 0
5, 7710, Note_on_c, 3, 68, 127
5, 7735, Note_on_c, 3, 68, 0
5, 7740, Note_on_c, 3, 63, 127
5, 7765, Note_on_c, 3, 63, 0
5, 7770, Note_on_c, 3, 68, 127
5, 7795, Note_on_c, 3, 68, 0
5, 7800, Note_on_c, 3, 63, 127
5, 7825, Note_on_c, 3, 63, 0
5, 7830, Note_on_c, 3, 72, 127
5, 7855, Note_on_c, 3, 72, 0
5, 7860, Note_on_c, 3, 63, 127
5, 7885, Note_on_c, 3, 63, 0
5, 7890, Note_on_c, 3, 68, 127
5, 7915, Note_on_c, 3, 68, 0
5, 7920, Note_on_c, 3, 63, 127
5, 7945, Note_on_c, 3, 63, 0
5, 7950, Note_on_c, 3, 70, 127
5, 7975, Note_on_c, 3, 70, 0
5, 7980, Note_on_c, 3, 65, 127
5, 8005, Note_on_c, 3, 65, 0
5, 8010, Note_on_c, 3, 70, 127
5, 8035, Note_on_c, 3, 70, 0
5, 8040, Note_on_c, 3, 65, 127
5, 8065, Note_on_c, 3, 65, 0
5, 8070, Note_on_c, 3, 73, 127
5, 8095, Note_on_c, 3, 73, 0
5, 8100, Note_on_c, 3, 65, 127
5, 8125, Note_on_c, 3, 65, 0
5, 8130, Note_on_c, 3, 70, 127
5, 8155, Note_on_c, 3, 70, 0
5, 8160, Note_on_c, 3, 65, 127
5, 8185, Note_on_c, 3, 65, 0
5, 8190, Note_on_c, 3, 77, 127
5, 8215, Note_on_c, 3, 77, 0
5, 8220, Note_on_c, 3, 70, 127
5, 8245, Note_on_c, 3, 70, 0
5, 8250, Note_on_c, 3, 73, 127
5, 8275, Note_on_c, 3, 73, 0
5, 8280, Note_on_c, 3, 70, 127
5, 8305, Note_on_c, 3, 70, 0
5, 8310, Note_on_c, 3, 75, 127
5, 8335, Note_on_c, 3, 75, 0
5, 8340, Note_on_c, 3, 70, 127
5, 8365, Note_on_c, 3, 70, 0
5, 8370, Note_on_c, 3, 73, 127
5, 8395, Note_on_c, 3, 73, 0
5, 8400, Note_on_c, 3, 70, 127
5, 8425, Note_on_c, 3, 70, 0
5, 8430, Note_on_c, 3, 66, 127
5, 8455, Note_on_c, 3, 66, 0
5, 8460, Note_on_c, 3, 61, 127
5, 8485, Note_on_c, 3, 61, 0
5, 8490, Note_on_c, 3, 66, 127
5, 8515, Note_on_c, 3, 66, 0
5, 8520, Note_on_c, 3, 61, 127
5, 8545, Note_on_c, 3, 61, 0
5, 8550, Note_on_c, 3, 70, 127
5, 8575, Note_on_c, 3, 70, 0
5, 8580, Note_on_c, 3, 61, 127
5, 8605, Note_on_c, 3, 61, 0
5, 8610, Note_on_c, 3, 66, 127
5, 8635, Note_on_c, 3, 66, 0
5, 8640, Note_on_c, 3, 61, 127
5, 8665, Note_on_c, 3, 61, 0
5, 8670, Note_on_c, 3, 68, 127
5, 8695, Note_on_c, 3, 68, 0
5, 8700, Note_on_c, 3, 63, 127
5, 8725, Note_on_c, 3, 63, 0
5, 8730, Note_on_c, 3, 68, 127
5, 8755, Note_on_c, 3, 68, 0
5, 8760, Note_on_c, 3, 63, 127
5, 8785, Note_on_c, 3, 63, 0
5, 8790, Note_on_c, 3, 72, 127
5, 8815, Note_on_c, 3, 72, 0
5, 8820, Note_on_c, 3, 63, 127
5, 8845, Note_on_c, 3, 63, 0
5, 8850, Note_on_c, 3, 68, 127
5, 8875, Note_on_c, 3, 68, 0
5, 8880, Note_on_c, 3, 63, 127
5, 8905, Note_on_c, 3, 63, 0
5, 8910, Note_on_c, 3, 70, 127
5, 8935, Note_on_c, 3, 70, 0
5, 8940, Note_on_c, 3, 65, 127
5, 8965, Note_on_c, 3, 65, 0
5, 8970, Note_on_c, 3, 70, 127
5, 8995, Note_on_c, 3, 70, 0
5, 9000, Note_on_c, 3, 65, 127
5, 9025, Note_on_c, 3, 65, 0
5, 9030, Note_on_c, 3, 73, 127
5, 9055, Note_on_c, 3, 73, 0
5, 9060, Note_on_c, 3, 65, 127
5, 9085, Note_on_c, 3, 65, 0
5, 9090, Note_on_c, 3, 70, 127
5, 9115, Note_on_c, 3, 70, 0
5, 9120, Note_on_c, 3, 65, 127
5, 9145, Note_on_c, 3, 65, 0
5, 9150, Note_on_c, 3, 77, 127
5, 9175, Note_on_c, 3, 77, 0
5, 9180, Note_on_c, 3, 70, 127
5, 9205, Note_on_c, 3, 70, 0
5, 9210, Note_on_c, 3, 73, 127
5, 9235, Note_on_c, 3, 73, 0
5, 9240, Note_on_c, 3, 70, 127
5, 9265, Note_on_c, 3, 70, 0
5, 9270, Note_on_c, 3, 75, 127
5, 9295, Note_on_c, 3, 75, 0
5, 9300, Note_on_c, 3, 70, 127
5, 9325, Note_on_c, 3, 70, 0
5, 9330, Note_on_c, 3, 73, 127
5, 9355, Note_on_c, 3, 73, 0
5, 9360, Note_on_c, 3, 70, 127
5, 9385, Note_on_c, 3, 70, 0
5, 9390, Note_on_c, 3, 66, 127
5, 9415, Note_on_c, 3, 66, 0
5, 9420, Note_on_c, 3, 61, 127
5, 9445, Note_on_c, 3, 61, 0
5, 9450, Note_on_c, 3, 66, 127
5, 9475, Note_on_c, 3, 66, 0
5, 9480, Note_on_c, 3, 61, 127
5, 9505, Note_on_c, 3, 61, 0
5, 9510, Note_on_c, 3, 70, 127
5, 9535, Note_on_c, 3, 70, 0
5, 9540, Note_on_c, 3, 61, 127
5, 9565, Note_on_c, 3, 61, 0
5, 9570, Note_on_c, 3, 66, 127
5, 9595, Note_on_c, 3, 66, 0
5, 9600, Note_on_c, 3, 61, 127
5, 9625, Note_on_c, 3, 61, 0
5, 9630, Note_on_c, 3, 68, 127
5, 9655, Note_on_c, 3, 68, 0
5, 9660, Note_on_c, 3, 63, 127
5, 9685, Note_on_c, 3, 63, 0
5, 9690, Note_on_c, 3, 68, 127
5, 9715, Note_on_c, 3, 68, 0
5, 9720, Note_on_c, 3, 63, 127
5, 9745, Note_on_c, 3, 63, 0
5, 9750, Note_on_c, 3, 72, 127
5, 9775, Note_on_c, 3, 72, 0
5, 9780, Note_on_c, 3, 63, 127
5, 9805, Note_on_c, 3, 63, 0
5, 9810, Note_on_c, 3, 68, 127
5, 9835, Note_on_c, 3, 68, 0
5, 9840, Note_on_c, 3, 63, 127
5, 9865, Note_on_c, 3, 63, 0
5, 9870, Note_on_c, 3, 70, 127
5, 9895, Note_on_c, 3, 70, 0
5, 9900, Note_on_c, 3, 65, 127
5, 9925, Note_on_c, 3, 65, 0
5, 9930, Note_on_c, 3, 70, 127
5, 9955, Note_on_c, 3, 70, 0
5, 9960, Note_on_c, 3, 65, 127
5, 9985, Note_on_c, 3, 65, 0
5, 9990, Note_on_c, 3, 73, 127
5, 10015, Note_on_c, 3, 73, 0
5, 10020, Note_on_c, 3, 65, 127
5, 10045, Note_on_c, 3, 65, 0
5, 10050, Note_on_c, 3, 70, 127
5, 10075, Note_on_c, 3, 70, 0
5, 10080, Note_on_c, 3, 65, 127
5, 10105, Note_on_c, 3, 65, 0
5, 10110, Note_on_c, 3, 77, 127
5, 10135, Note_on_c, 3, 77, 0
5, 10140, Note_on_c, 3, 70, 127
5, 10165, Note_on_c, 3, 70, 0
5, 10170, Note_on_c, 3, 73, 127
5, 10195, Note_on_c, 3, 73, 0
5, 10200, Note_on_c, 3, 70, 127
5, 10225, Note_on_c, 3, 70, 0
5, 10230, Note_on_c, 3, 75, 127
5, 10255, Note_on_c, 3, 75, 0
5, 10260, Note_on_c, 3, 70, 127
5, 10285, Note_on_c, 3, 70, 0
5, 10290, Note_on_c, 3, 73, 127
5, 10315, Note_on_c, 3, 73, 0
5, 10320, Note_on_c, 3, 70, 127
5, 10345, Note_on_c, 3, 70, 0
5, 10350, Note_on_c, 3, 66, 127
5, 10375, Note_on_c, 3, 66, 0
5, 10380, Note_on_c, 3, 61, 127
5, 10405, Note_on_c, 3, 61, 0
5, 10410, Note_on_c, 3, 66, 127
5, 10435, Note_on_c, 3, 66, 0
5, 10440, Note_on_c, 3, 61, 127
5, 10465, Note_on_c, 3, 61, 0
5, 10470, Note_on_c, 3, 70, 127
5, 10495, Note_on_c, 3, 70, 0
5, 10500, Note_on_c, 3, 61, 127
5, 10525, Note_on_c, 3, 61, 0
5, 10530, Note_on_c, 3, 66, 127
5, 10555, Note_on_c, 3, 66, 0
5, 10560, Note_on_c, 3, 61, 127
5, 10585, Note_on_c, 3, 61, 0
5, 10590, Note_on_c, 3, 68, 127
5, 10615, Note_on_c, 3, 68, 0
5, 10620, Note_on_c, 3, 63, 127
5, 10645, Note_on_c, 3, 63, 0
5, 10650, Note_on_c, 3, 68, 127
5, 10675, Note_on_c, 3, 68, 0
5, 10680, Note_on_c, 3, 63, 127
5, 10705, Note_on_c, 3, 63, 0
5, 10710, Note_on_c, 3, 72, 127
5, 10735, Note_on_c, 3, 72, 0
5, 10740, Note_on_c, 3, 63, 127
5, 10765, Note_on_c, 3, 63, 0
5, 10770, Note_on_c, 3, 68, 127
5, 10795, Note_on_c, 3, 68, 0
5, 10800, Note_on_c, 3, 63, 127
5, 10825, Note_on_c, 3, 63, 0
5, 10830, Note_on_c, 3, 70, 127
5, 10855, Note_on_c, 3, 70, 0
5, 10860, Note_on_c, 3, 65, 127
5, 10885, Note_on_c, 3, 65, 0
5, 10890, Note_on_c, 3, 70, 127
5, 10915, Note_on_c, 3, 70, 0
5, 10920, Note_on_c, 3, 65, 127
5, 10945, Note_on_c, 3, 65, 0
5, 10950, Note_on_c, 3, 73, 127
5, 10975, Note_on_c, 3, 73, 0
5, 10980, Note_on_c, 3, 65, 127
5, 11005, Note_on_c, 3, 65, 0
5, 11010, Note_on_c, 3, 70, 127
5, 11035, Note_on_c, 3, 70, 0
5, 11040, Note_on_c, 3, 65, 127
5, 11065, Note_on_c, 3, 65, 0
5, 11070, Note_on_c, 3, 77, 127
5, 11095, Note_on_c, 3, 77, 0
5, 11100, Note_on_c, 3, 70, 127
5, 11125, Note_on_c, 3, 70, 0
5, 11130, Note_on_c, 3, 73, 127
5, 11155, Note_on_c, 3, 73, 0
5, 11160, Note_on_c, 3, 70, 127
5, 11185, Note_on_c, 3, 70, 0
5, 11190, Note_on_c, 3, 75, 127
5, 11215, Note_on_c, 3, 75, 0
5, 11220, Note_on_c, 3, 70, 127
5, 11245, Note_on_c, 3, 70, 0
5, 11250, Note_on_c, 3, 73, 127
5, 11275, Note_on_c, 3, 73, 0
5, 11280, Note_on_c, 3, 70, 127
5, 11305, Note_on_c, 3, 70, 0
5, 11310, Note_on_c, 3, 66, 127
5, 11335, Note_on_c, 3, 66, 0
5, 11340, Note_on_c, 3, 61, 127
5, 11365, Note_on_c, 3, 61, 0
5, 11370, Note_on_c, 3, 66, 127
5, 11395, Note_on_c, 3, 66, 0
5, 11400, Note_on_c, 3, 61, 127
5, 11425, Note_on_c, 3, 61, 0
5, 11430, Note_on_c, 3, 70, 127
5, 11455, Note_on_c, 3, 70, 0
5, 11460, Note_on_c, 3, 61, 127
5, 11485, Note_on_c, 3, 61, 0
5, 11490, Note_on_c, 3, 66, 127
5, 11515, Note_on_c, 3, 66, 0
5, 11520, Note_on_c, 3, 61, 127
5, 11545, Note_on_c, 3, 61, 0
5, 11550, Note_on_c, 3, 68, 127
5, 11575, Note_on_c, 3, 68, 0
5, 11580, Note_on_c, 3, 63, 127
5, 11605, Note_on_c, 3, 63, 0
5, 11610, Note_on_c, 3, 68, 127
5, 11635, Note_on_c, 3, 68, 0
5, 11640, Note_on_c, 3, 63, 127
5, 11665, Note_on_c, 3, 63, 0
5, 11670, Note_on_c, 3, 72, 127
5, 11695, Note_on_c, 3, 72, 0
5, 11700, Note_on_c, 3, 63, 127
5, 11725, Note_on_c, 3, 63, 0
5, 11730, Note_on_c, 3, 68, 127
5, 11755, Note_on_c, 3, 68, 0
5, 11760, Note_on_c, 3, 63, 127
5, 11785, Note_on_c, 3, 63, 0
5, 11790, Note_on_c, 3, 70, 127
5, 11815, Note_on_c, 3, 70, 0
5, 11820, Note_on_c, 3, 65, 127
5, 11845, Note_on_c, 3, 65, 0
5, 11850, Note_on_c, 3, 70, 127
5, 11875, Note_on_c, 3, 70, 0
5, 11880, Note_on_c, 3, 65, 127
5, 11905, Note_on_c, 3, 65, 0
5, 11910, Note_on_c, 3, 73, 127
5, 11935, Note_on_c, 3, 73, 0
5, 11940, Note_on_c, 3, 65, 127
5, 11965, Note_on_c, 3, 65, 0
5, 11970, Note_on_c, 3, 70, 127
5, 11995, Note_on_c, 3, 70, 0
5, 12000, Note_on_c, 3, 65, 127
5, 12025, Note_on_c, 3, 65, 0
5, 12030, Note_on_c, 3, 77, 127
5, 12055, Note_on_c, 3, 77, 0
5, 12060, Note_on_c, 3, 70, 127
5, 12085, Note_on_c, 3, 70, 0
5, 12090, Note_on_c, 3, 73, 127
5, 12115, Note_on_c, 3, 73, 0
5, 12120, Note_on_c, 3, 70, 127
5, 12145, Note_on_c, 3, 70, 0
5, 12150, Note_on_c, 3, 75, 127
5, 12175, Note_on_c, 3, 75, 0
5, 12180, Note_on_c, 3, 70, 127
5, 12205, Note_on_c, 3, 70, 0
5, 12210, Note_on_c, 3, 73, 127
5, 12235, Note_on_c, 3, 73, 0
5, 12240, Note_on_c, 3, 70, 127
5, 12265, Note_on_c, 3, 70, 0
5, 12270, Note_on_c, 3, 66, 127
5, 12295, Note_on_c, 3, 66, 0
5, 12300, Note_on_c, 3, 61, 127
5, 12325, Note_on_c, 3, 61, 0
5, 12330, Note_on_c, 3, 66, 127
5, 12355, Note_on_c, 3, 66, 0
5, 12360, Note_on_c, 3, 61, 127
5, 12385, Note_on_c, 3, 61, 0
5, 12390, Note_on_c, 3, 70, 127
5, 12415, Note_on_c, 3, 70, 0
5, 12420, Note_on_c, 3, 61, 127
5, 12445, Note_on_c, 3, 61, 0
5, 12450, Note_on_c, 3, 66, 127
5, 12475, Note_on_c, 3, 66, 0
5, 12480, Note_on_c, 3, 61, 127
5, 12505, Note_on_c, 3, 61, 0
5, 12510, Note_on_c, 3, 68, 127
5, 12535, Note_on_c, 3, 68, 0
5, 12540, Note_on_c, 3, 63, 127
5, 12565, Note_on_c, 3, 63, 0
5, 12570, Note_on_c, 3, 68, 127
5, 12595, Note_on_c, 3, 68, 0
5, 12600, Note_on_c, 3, 63, 127
5, 12625, Note_on_c, 3, 63, 0
5, 12630, Note_on_c, 3, 72, 127
5, 12655, Note_on_c, 3, 72, 0
5, 12660, Note_on_c, 3, 63, 127
5, 12685, Note_on_c, 3, 63, 0
5, 12690, Note_on_c, 3, 68, 127
5, 12715, Note_on_c, 3, 68, 0
5, 12720, Note_on_c, 3, 63, 127
5, 12745, Note_on_c, 3, 63, 0
5, 12750, Note_on_c, 3, 70, 127
5, 12775, Note_on_c, 3, 70, 0
5, 12780, Note_on_c, 3, 65, 127
5, 12805, Note_on_c, 3, 65, 0
5, 12810, Note_on_c, 3, 70, 127
5, 12835, Note_on_c, 3, 70, 0
5, 12840, Note_on_c, 3, 65, 127
5, 12865, Note_on_c, 3, 65, 0
5, 12870, Note_on_c, 3, 73, 127
5, 12895, Note_on_c, 3, 73, 0
5, 12900, Note_on_c, 3, 65, 127
5, 12925, Note_on_c, 3, 65, 0
5, 12930, Note_on_c, 3, 70, 127
5, 12955, Note_on_c, 3, 70, 0
5, 12960, Note_on_c, 3, 65, 127
5, 12985, Note_on_c, 3, 65, 0
5, 12990, Note_on_c, 3, 77, 127
5, 13015, Note_on_c, 3, 77, 0
5, 13020, Note_on_c, 3, 70, 127
5, 13045, Note_on_c, 3, 70, 0
5, 13050, Note_on_c, 3, 73, 127
5, 13075, Note_on_c, 3, 73, 0
5, 13080, Note_on_c, 3, 70, 127
5, 13105, Note_on_c, 3, 70, 0
5, 13110, Note_on_c, 3, 75, 127
5, 13135, Note_on_c, 3, 75, 0
5, 13140, Note_on_c, 3, 70, 127
5, 13165, Note_on_c, 3, 70, 0
5, 13170, Note_on_c, 3, 73, 127
5, 13195, Note_on_c, 3, 73, 0
5, 13200, Note_on_c, 3, 70, 127
5, 13225, Note_on_c, 3, 70, 0
5, 13230, Note_on_c, 3, 66, 127
5, 13255, Note_on_c, 3, 66, 0
5, 13260, Note_on_c, 3, 61, 127
5, 13285, Note_on_c, 3, 61, 0
5, 13290, Note_on_c, 3, 66, 127
5, 13315, Note_on_c, 3, 66, 0
5, 13320, Note_on_c, 3, 61, 127
5, 13345, Note_on_c, 3, 61, 0
5, 13350, Note_on_c, 3, 70, 127
5, 13375, Note_on_c, 3, 70, 0
5, 13380, Note_on_c, 3, 61, 127
5, 13405, Note_on_c, 3, 61, 0
5, 13410, Note_on_c, 3, 66, 127
5, 13435, Note_on_c, 3, 66, 0
5, 13440, Note_on_c, 3, 61, 127
5, 13465, Note_on_c, 3, 61, 0
5, 13470, Note_on_c, 3, 68, 127
5, 13495, Note_on_c, 3, 68, 0
5, 13500, Note_on_c, 3, 63, 127
5, 13525, Note_on_c, 3, 63, 0
5, 13530, Note_on_c, 3, 68, 127
5, 13555, Note_on_c, 3, 68, 0
5, 13560, Note_on_c, 3, 63, 127
5, 13585, Note_on_c, 3, 63, 0
5, 13590, Note_on_c, 3, 72, 127
5, 13615, Note_on_c, 3, 72, 0
5, 13620, Note_on_c, 3, 63, 127
5, 13645, Note_on_c, 3, 63, 0
5, 13650, Note_on_c, 3, 68, 127
5, 13675, Note_on_c, 3, 68, 0
5, 13680, Note_on_c, 3, 63, 127
5, 13705, Note_on_c, 3, 63, 0
5, 13710, Note_on_c, 3, 70, 127
5, 13735, Note_on_c, 3, 70, 0
5, 13740, Note_on_c, 3, 65, 127
5, 13765, Note_on_c, 3, 65, 0
5, 13770, Note_on_c, 3, 70, 127
5, 13795, Note_on_c, 3, 70, 0
5, 13800, Note_on_c, 3, 65, 127
5, 13825, Note_on_c, 3, 65, 0
5, 13830, Note_on_c, 3, 73, 127
5, 13855, Note_on_c, 3, 73, 0
5, 13860, Note_on_c, 3, 65, 127
5, 13885, Note_on_c, 3, 65, 0
5, 13890, Note_on_c, 3, 70, 127
5, 13915, Note_on_c, 3, 70, 0
5, 13920, Note_on_c, 3, 65, 127
5, 13945, Note_on_c, 3, 65, 0
5, 13950, Note_on_c, 3, 77, 127
5, 13975, Note_on_c, 3, 77, 0
5, 13980, Note_on_c, 3, 70, 127
5, 14005, Note_on_c, 3, 70, 0
5, 14010, Note_on_c, 3, 73, 127
5, 14035, Note_on_c, 3, 73, 0
5, 14040, Note_on_c, 3, 70, 127
5, 14065, Note_on_c, 3, 70, 0
5, 14070, Note_on_c, 3, 75, 127
5, 14095, Note_on_c, 3, 75, 0
5, 14100, Note_on_c, 3, 70, 127
5, 14125, Note_on_c, 3, 70, 0
5, 14130, Note_on_c, 3, 73, 127
5, 14155, Note_on_c, 3, 73, 0
5, 14160, Note_on_c, 3, 70, 127
5, 14185, Note_on_c, 3, 70, 0
5, 14190, Note_on_c, 3, 66, 127
5, 14215, Note_on_c, 3, 66, 0
5, 14220, Note_on_c, 3, 61, 127
5, 14245, Note_on_c, 3, 61, 0
5, 14250, Note_on_c, 3, 66, 127
5, 14275, Note_on_c, 3, 66, 0
5, 14280, Note_on_c, 3, 61, 127
5, 14305, Note_on_c, 3, 61, 0
5, 14310, Note_on_c, 3, 70, 127
5, 14335, Note_on_c, 3, 70, 0
5, 14340, Note_on_c, 3, 61, 127
5, 14365, Note_on_c, 3, 61, 0
5, 14370, Note_on_c, 3, 66, 127
5, 14395, Note_on_c, 3, 66, 0
5, 14400, Note_on_c, 3, 61, 127
5, 14425, Note_on_c, 3, 61, 0
5, 14430, Note_on_c, 3, 68, 127
5, 14455, Note_on_c, 3, 68, 0
5, 14460, Note_on_c, 3, 63, 127
5, 14485, Note_on_c, 3, 63, 0
5, 14490, Note_on_c, 3, 68, 127
5, 14515, Note_on_c, 3, 68, 0
5, 14520, Note_on_c, 3, 63, 127
5, 14545, Note_on_c, 3, 63, 0
5, 14550, Note_on_c, 3, 72, 127
5, 14575, Note_on_c, 3, 72, 0
5, 14580, Note_on_c, 3, 63, 127
5, 14605, Note_on_c, 3, 63, 0
5, 14610, Note_on_c, 3, 68, 127
5, 14635, Note_on_c, 3, 68, 0
5, 14640, Note_on_c, 3, 63, 127
5, 14665, Note_on_c, 3, 63, 0
5, 14670, Note_on_c, 3, 70, 127
5, 14695, Note_on_c, 3, 70, 0
5, 14700, Note_on_c, 3, 65, 127
5, 14725, Note_on_c, 3, 65, 0
5, 14730, Note_on_c, 3, 70, 127
5, 14755, Note_on_c, 3, 70, 0
5, 14760, Note_on_c, 3, 65, 127
5, 14785, Note_on_c, 3, 65, 0
5, 14790, Note_on_c, 3, 73, 127
5, 14815, Note_on_c, 3, 73, 0
5, 14820, Note_on_c, 3, 65, 127
5, 14845, Note_on_c, 3, 65, 0
5, 14850, Note_on_c, 3, 70, 127
5, 14875, Note_on_c, 3, 70, 0
5, 14880, Note_on_c, 3, 65, 127
5, 14905, Note_on_c, 3, 65, 0
5, 14910, Note_on_c, 3, 77, 127
5, 14935, Note_on_c, 3, 77, 0
5, 14940, Note_on_c, 3, 70, 127
5, 14965, Note_on_c, 3, 70, 0
5, 14970, Note_on_c, 3, 73, 127
5, 14995, Note_on_c, 3, 73, 0
5, 15000, Note_on_c, 3, 70, 127
5, 15025, Note_on_c, 3, 70, 0
5, 15030, Note_on_c, 3, 75, 127
5, 15055, Note_on_c, 3, 75, 0
5, 15060, Note_on_c, 3, 70, 127
5, 15085, Note_on_c, 3, 70, 0
5, 15090, Note_on_c, 3, 73, 127
5, 15115, Note_on_c, 3, 73, 0
5, 15120, Note_on_c, 3, 70, 127
5, 15145, Note_on_c, 3, 70, 0
5, 15150, Note_on_c, 3, 66, 127
5, 15175, Note_on_c, 3, 66, 0
5, 15180, Note_on_c, 3, 61, 127
5, 15205, Note_on_c, 3, 61, 0
5, 15210, Note_on_c, 3, 66, 127
5, 15235, Note_on_c, 3, 66, 0
5, 15240, Note_on_c, 3, 61, 127
5, 15265, Note_on_c, 3, 61, 0
5, 15270, Note_on_c, 3, 70, 127
5, 15295, Note_on_c, 3, 70, 0
5, 15300, Note_on_c, 3, 61, 127
5, 15325, Note_on_c, 3, 61, 0
5, 15330, Note_on_c, 3, 66, 127
5, 15355, Note_on_c, 3, 66, 0
5, 15360, Note_on_c, 3, 61, 127
5, 15385, Note_on_c, 3, 61, 0
5, 15390, Note_on_c, 3, 68, 127
5, 15415, Note_on_c, 3, 68, 0
5, 15420, Note_on_c, 3, 63, 127
5, 15445, Note_on_c, 3, 63, 0
5, 15450, Note_on_c, 3, 68, 127
5, 15475, Note_on_c, 3, 68, 0
5, 15480, Note_on_c, 3, 63, 127
5, 15505, Note_on_c, 3, 63, 0
5, 15510, Note_on_c, 3, 72, 127
5, 15535, Note_on_c, 3, 72, 0
5, 15540, Note_on_c, 3, 63, 127
5, 15565, Note_on_c, 3, 63, 0
5, 15570, Note_on_c, 3, 68, 127
5, 15595, Note_on_c, 3, 68, 0
5, 15600, Note_on_c, 3, 63, 127
5, 15625, Note_on_c, 3, 63, 0
5, 15630, Note_on_c, 3, 70, 127
5, 15655, Note_on_c, 3, 70, 0
5, 15660, Note_on_c, 3, 65, 127
5, 15685, Note_on_c, 3, 65, 0
5, 15690, Note_on_c, 3, 70, 127
5, 15715, Note_on_c, 3, 70, 0
5, 15720, Note_on_c, 3, 65, 127
5, 15745, Note_on_c, 3, 65, 0
5, 15750, Note_on_c, 3, 73, 127
5, 15775, Note_on_c, 3, 73, 0
5, 15780, Note_on_c, 3, 65, 127
5, 15805, Note_on_c, 3, 65, 0
5, 15810, Note_on_c, 3, 70, 127
5, 15835, Note_on_c, 3, 70, 0
5, 15840, Note_on_c, 3, 65, 127
5, 15865, Note_on_c, 3, 65, 0
5, 15870, Note_on_c, 3, 77, 127
5, 15895, Note_on_c, 3, 77, 0
5, 15900, Note_on_c, 3, 70, 127
5, 15925, Note_on_c, 3, 70, 0
5, 15930, Note_on_c, 3, 73, 127
5, 15955, Note_on_c, 3, 73, 0
5, 15960, Note_on_c, 3, 70, 127
5, 15985, Note_on_c, 3, 70, 0
5, 15990, Note_on_c, 3, 75, 127
5, 16015, Note_on_c, 3, 75, 0
5, 16020, Note_on_c, 3, 70, 127
5, 16045, Note_on_c, 3, 70, 0
5, 16050, Note_on_c, 3, 73, 127
5, 16075, Note_on_c, 3, 73, 0
5, 16080, Note_on_c, 3, 70, 127
5, 16105, Note_on_c, 3, 70, 0
5, 16110, Note_on_c, 3, 66, 127
5, 16135, Note_on_c, 3, 66, 0
5, 16140, Note_on_c, 3, 61, 127
5, 16165, Note_on_c, 3, 61, 0
5, 16170, Note_on_c, 3, 66, 127
5, 16195, Note_on_c, 3, 66, 0
5, 16200, Note_on_c, 3, 61, 127
5, 16225, Note_on_c, 3, 61, 0
5, 16230, Note_on_c, 3, 70, 127
5, 16255, Note_on_c, 3, 70, 0
5, 16260, Note_on_c, 3, 61, 127
5, 16285, Note_on_c, 3, 61, 0
5, 16290, Note_on_c, 3, 66, 127
5, 16315, Note_on_c, 3, 66, 0
5, 16320, Note_on_c, 3, 61, 127
5, 16345, Note_on_c, 3, 61, 0
5, 16350, Note_on_c, 3, 68, 127
5, 16375, Note_on_c, 3, 68, 0
5, 16380, Note_on_c, 3, 63, 127
5, 16405, Note_on_c, 3, 63, 0
5, 16410, Note_on_c, 3, 68, 127
5, 16435, Note_on_c, 3, 68, 0
5, 16440, Note_on_c, 3, 63, 127
5, 16465, Note_on_c, 3, 63, 0
5, 16470, Note_on_c, 3, 72, 127
5, 16495, Note_on_c, 3, 72, 0
5, 16500, Note_on_c, 3, 63, 127
5, 16525, Note_on_c, 3, 63, 0
5, 16530, Note_on_c, 3, 68, 127
5, 16555, Note_on_c, 3, 68, 0
5, 16560, Note_on_c, 3, 63, 127
5, 16585, Note_on_c, 3, 63, 0
5, 16590, Note_on_c, 3, 70, 127
5, 16615, Note_on_c, 3, 70, 0
5, 16620, Note_on_c, 3, 65, 127
5, 16645, Note_on_c, 3, 65, 0
5, 16650, Note_on_c, 3, 70, 127
5, 16675, Note_on_c, 3, 70, 0
5, 16680, Note_on_c, 3, 65, 127
5, 16705, Note_on_c, 3, 65, 0
5, 16710, Note_on_c, 3, 73, 127
5, 16735, Note_on_c, 3, 73, 0
5, 16740, Note_on_c, 3, 65, 127
5, 16765, Note_on_c, 3, 65, 0
5, 16770, Note_on_c, 3, 70, 127
5, 16795, Note_on_c, 3, 70, 0
5, 16800, Note_on_c, 3, 65, 127
5, 16825, Note_on_c, 3, 65, 0
5, 16830, Note_on_c, 3, 77, 127
5, 16855, Note_on_c, 3, 77, 0
5, 16860, Note_on_c, 3, 70, 127
5, 16885, Note_on_c, 3, 70, 0
5, 16890, Note_on_c, 3, 73, 127
5, 16915, Note_on_c, 3, 73, 0
5, 16920, Note_on_c, 3, 70, 127
5, 16945, Note_on_c, 3, 70, 0
5, 16950, Note_on_c, 3, 75, 127
5, 16975, Note_on_c, 3, 75, 0
5, 16980, Note_on_c, 3, 70, 127
5, 17005, Note_on_c, 3, 70, 0
5, 17010, Note_on_c, 3, 73, 127
5, 17035, Note_on_c, 3, 73, 0
5, 17040, Note_on_c, 3, 70, 127
5, 17065, Note_on_c, 3, 70, 0
5, 17070, Note_on_c, 3, 66, 127
5, 17095, Note_on_c, 3, 66, 0
5, 17100, Note_on_c, 3, 61, 127
5, 17125, Note_on_c, 3, 61, 0
5, 17130, Note_on_c, 3, 66, 127
5, 17155, Note_on_c, 3, 66, 0
5, 17160, Note_on_c, 3, 61, 127
5, 17185, Note_on_c, 3, 61, 0
5, 17190, Note_on_c, 3, 70, 127
5, 17215, Note_on_c, 3, 70, 0
5, 17220, Note_on_c, 3, 61, 127
5, 17245, Note_on_c, 3, 61, 0
5, 17250, Note_on_c, 3, 66, 127
5, 17275, Note_on_c, 3, 66, 0
5, 17280, Note_on_c, 3, 61, 127
5, 17305, Note_on_c, 3, 61, 0
5, 17310, Note_on_c, 3, 68, 127
5, 17335, Note_on_c, 3, 68, 0
5, 17340, Note_on_c, 3, 63, 127
5, 17365, Note_on_c, 3, 63, 0
5, 17370, Note_on_c, 3, 68, 127
5, 17395, Note_on_c, 3, 68, 0
5, 17400, Note_on_c, 3, 63, 127
5, 17425, Note_on_c, 3, 63, 0
5, 17430, Note_on_c, 3, 72, 127
5, 17455, Note_on_c, 3, 72, 0
5, 17460, Note_on_c, 3, 63, 127
5, 17485, Note_on_c, 3, 63, 0
5, 17490, Note_on_c, 3, 68, 127
5, 17515, Note_on_c, 3, 68, 0
5, 17520, Note_on_c, 3, 63, 127
5, 17545, Note_on_c, 3, 63, 0
5, 17550, Note_on_c, 3, 70, 127
5, 17575, Note_on_c, 3, 70, 0
5, 17580, Note_on_c, 3, 65, 127
5, 17605, Note_on_c, 3, 65, 0
5, 17610, Note_on_c, 3, 70, 127
5, 17635, Note_on_c, 3, 70, 0
5, 17640, Note_on_c, 3, 65, 127
5, 17665, Note_on_c, 3, 65, 0
5, 17670, Note_on_c, 3, 73, 127
5, 17695, Note_on_c, 3, 73, 0
5, 17700, Note_on_c, 3, 65, 127
5, 17725, Note_on_c, 3, 65, 0
5, 17730, Note_on_c, 3, 70, 127
5, 17755, Note_on_c, 3, 70, 0
5, 17760, Note_on_c, 3, 65, 127
5, 17785, Note_on_c, 3, 65, 0
5, 17790, Note_on_c, 3, 77, 127
5, 17815, Note_on_c, 3, 77, 0
5, 17820, Note_on_c, 3, 70, 127
5, 17845, Note_on_c, 3, 70, 0
5, 17850, Note_on_c, 3, 73, 127
5, 17875, Note_on_c, 3, 73, 0
5, 17880, Note_on_c, 3, 70, 127
5, 17905, Note_on_c, 3, 70, 0
5, 17910, Note_on_c, 3, 75, 127
5, 17935, Note_on_c, 3, 75, 0
5, 17940, Note_on_c, 3, 70, 127
5, 17965, Note_on_c, 3, 70, 0
5, 17970, Note_on_c, 3, 73, 127
5, 17995, Note_on_c, 3, 73, 0
5, 18000, Note_on_c, 3, 70, 127
5, 18025, Note_on_c, 3, 70, 0
5, 18030, Note_on_c, 3, 66, 127
5, 18055, Note_on_c, 3, 66, 0
5, 18060, Note_on_c, 3, 61, 127
5, 18085, Note_on_c, 3, 61, 0
5, 18090, Note_on_c, 3, 66, 127
5, 18115, Note_on_c, 3, 66, 0
5, 18120, Note_on_c, 3, 61, 127
5, 18145, Note_on_c, 3, 61, 0
5, 18150, Note_on_c, 3, 70, 127
5, 18175, Note_on_c, 3, 70, 0
5, 18180, Note_on_c, 3, 61, 127
5, 18205, Note_on_c, 3, 61, 0
5, 18210, Note_on_c, 3, 66, 127
5, 18235, Note_on_c, 3, 66, 0
5, 18240, Note_on_c, 3, 61, 127
5, 18265, Note_on_c, 3, 61, 0
5, 18270, Note_on_c, 3, 68, 127
5, 18295, Note_on_c, 3, 68, 0
5, 18300, Note_on_c, 3, 63, 127
5, 18325, Note_on_c, 3, 63, 0
5, 18330, Note_on_c, 3, 68, 127
5, 18355, Note_on_c, 3, 68, 0
5, 18360, Note_on_c, 3, 63, 127
5, 18385, Note_on_c, 3, 63, 0
5, 18390, Note_on_c, 3, 72, 127
5, 18415, Note_on_c, 3, 72, 0
5, 18420, Note_on_c, 3, 63, 127
5, 18445, Note_on_c, 3, 63, 0
5, 18450, Note_on_c, 3, 68, 127
5, 18475, Note_on_c, 3, 68, 0
5, 18480, Note_on_c, 3, 63, 127
5, 18505, Note_on_c, 3, 63, 0
5, 18510, Note_on_c, 3, 70, 127
5, 18535, Note_on_c, 3, 70, 0
5, 18540, Note_on_c, 3, 65, 127
5, 18565, Note_on_c, 3, 65, 0
5, 18570, Note_on_c, 3, 70, 127
5, 18595, Note_on_c, 3, 70, 0
5, 18600, Note_on_c, 3, 65, 127
5, 18625, Note_on_c, 3, 65, 0
5, 18630, Note_on_c, 3, 73, 127
5, 18655, Note_on_c, 3, 73, 0
5, 18660, Note_on_c, 3, 65, 127
5, 18685, Note_on_c, 3, 65, 0
5, 18690, Note_on_c, 3, 70, 127
5, 18715, Note_on_c, 3, 70, 0
5, 18720, Note_on_c, 3, 65, 127
5, 18745, Note_on_c, 3, 65, 0
5, 18750, Note_on_c, 3, 77, 127
5, 18775, Note_on_c, 3, 77, 0
5, 18780, Note_on_c, 3, 70, 127
5, 18805, Note_on_c, 3, 70, 0
5, 18810, Note_on_c, 3, 73, 127
5, 18835, Note_on_c, 3, 73, 0
5, 18840, Note_on_c, 3, 70, 127
5, 18865, Note_on_c, 3, 70, 0
5, 18870, Note_on_c, 3, 75, 127
5, 18895, Note_on_c, 3, 75, 0
5, 18900, Note_on_c, 3, 70, 127
5, 18925, Note_on_c, 3, 70, 0
5, 18930, Note_on_c, 3, 73, 127
5, 18955, Note_on_c, 3, 73, 0
5, 18960, Note_on_c, 3, 70, 127
5, 18985, Note_on_c, 3, 70, 0
5, 18990, Note_on_c, 3, 66, 127
5, 19015, Note_on_c, 3, 66, 0
5, 19020, Note_on_c, 3, 61, 127
5, 19045, Note_on_c, 3, 61, 0
5, 19050, Note_on_c, 3, 66, 127
5, 19075, Note_on_c, 3, 66, 0
5, 19080, Note_on_c, 3, 61, 127
5, 19105, Note_on_c, 3, 61, 0
5, 19110, Note_on_c, 3, 70, 127
5, 19135, Note_on_c, 3, 70, 0
5, 19140, Note_on_c, 3, 61, 127
5, 19165, Note_on_c, 3, 61, 0
5, 19170, Note_on_c, 3, 66, 127
5, 19195, Note_on_c, 3, 66, 0
5, 19200, Note_on_c, 3, 61, 127
5, 19225, Note_on_c, 3, 61, 0
5, 19230, Note_on_c, 3, 68, 127
5, 19255, Note_on_c, 3, 68, 0
5, 19260, Note_on_c, 3, 63, 127
5, 19285, Note_on_c, 3, 63, 0
5, 19290, Note_on_c, 3, 68, 127
5, 19315, Note_on_c, 3, 68, 0
5, 19320, Note_on_c, 3, 63, 127
5, 19345, Note_on_c, 3, 63, 0
5, 19350, Note_on_c, 3, 72, 127
5, 19375, Note_on_c, 3, 72, 0
5, 19380, Note_on_c, 3, 63, 127
5, 19405, Note_on_c, 3, 63, 0
5, 19410, Note_on_c, 3, 68, 127
5, 19435, Note_on_c, 3, 68, 0
5, 19440, Note_on_c, 3, 63, 127
5, 19465, Note_on_c, 3, 63, 0
5, 19470, Note_on_c, 3, 70, 127
5, 19495, Note_on_c, 3, 70, 0
5, 19500, Note_on_c, 3, 65, 127
5, 19525, Note_on_c, 3, 65, 0
5, 19530, Note_on_c, 3, 70, 127
5, 19555, Note_on_c, 3, 70, 0
5, 19560, Note_on_c, 3, 65, 127
5, 19585, Note_on_c, 3, 65, 0
5, 19590, Note_on_c, 3, 73, 127
5, 19615, Note_on_c, 3, 73, 0
5, 19620, Note_on_c, 3, 65, 127
5, 19645, Note_on_c, 3, 65, 0
5, 19650, Note_on_c, 3, 70, 127
5, 19675, Note_on_c, 3, 70, 0
5, 19680, Note_on_c, 3, 65, 127
5, 19705, Note_on_c, 3, 65, 0
5, 19710, Note_on_c, 3, 77, 127
5, 19735, Note_on_c, 3, 77, 0
5, 19740, Note_on_c, 3, 70, 127
5, 19765, Note_on_c, 3, 70, 0
5, 19770, Note_on_c, 3, 73, 127
5, 19795, Note_on_c, 3, 73, 0
5, 19800, Note_on_c, 3, 70, 127
5, 19825, Note_on_c, 3, 70, 0
5, 19830, Note_on_c, 3, 75, 127
5, 19855, Note_on_c, 3, 75, 0
5, 19860, Note_on_c, 3, 70, 127
5, 19885, Note_on_c, 3, 70, 0
5, 19890, Note_on_c, 3, 73, 127
5, 19915, Note_on_c, 3, 73, 0
5, 19920, Note_on_c, 3, 70, 127
5, 19945, Note_on_c, 3, 70, 0
5, 19950, Note_on_c, 3, 66, 127
5, 19975, Note_on_c, 3, 66, 0
5, 19980, Note_on_c, 3, 61, 127
5, 20005, Note_on_c, 3, 61, 0
5, 20010, Note_on_c, 3, 66, 127
5, 20035, Note_on_c, 3, 66, 0
5, 20040, Note_on_c, 3, 61, 127
5, 20065, Note_on_c, 3, 61, 0
5, 20070, Note_on_c, 3, 70, 127
5, 20095, Note_on_c, 3, 70, 0
5, 20100, Note_on_c, 3, 61, 127
5, 20125, Note_on_c, 3, 61, 0
5, 20130, Note_on_c, 3, 66, 127
5, 20155, Note_on_c, 3, 66, 0
5, 20160, Note_on_c, 3, 61, 127
5, 20185, Note_on_c, 3, 61, 0
5, 20190, Note_on_c, 3, 68, 127
5, 20215, Note_on_c, 3, 68, 0
5, 20220, Note_on_c, 3, 63, 127
5, 20245, Note_on_c, 3, 63, 0
5, 20250, Note_on_c, 3, 68, 127
5, 20275, Note_on_c, 3, 68, 0
5, 20280, Note_on_c, 3, 63, 127
5, 20305, Note_on_c, 3, 63, 0
5, 20310, Note_on_c, 3, 72, 127
5, 20335, Note_on_c, 3, 72, 0
5, 20340, Note_on_c, 3, 63, 127
5, 20365, Note_on_c, 3, 63, 0
5, 20370, Note_on_c, 3, 68, 127
5, 20395, Note_on_c, 3, 68, 0
5, 20400, Note_on_c, 3, 63, 127
5, 20425, Note_on_c, 3, 63, 0
5, 20430, Note_on_c, 3, 70, 127
5, 20455, Note_on_c, 3, 70, 0
5, 20460, Note_on_c, 3, 65, 127
5, 20485, Note_on_c, 3, 65, 0
5, 20490, Note_on_c, 3, 70, 127
5, 20515, Note_on_c, 3, 70, 0
5, 20520, Note_on_c, 3, 65, 127
5, 20545, Note_on_c, 3, 65, 0
5, 20550, Note_on_c, 3, 73, 127
5, 20575, Note_on_c, 3, 73, 0
5, 20580, Note_on_c, 3, 65, 127
5, 20605, Note_on_c, 3, 65, 0
5, 20610, Note_on_c, 3, 70, 127
5, 20635, Note_on_c, 3, 70, 0
5, 20640, Note_on_c, 3, 65, 127
5, 20665, Note_on_c, 3, 65, 0
5, 20670, Note_on_c, 3, 77, 127
5, 20695, Note_on_c, 3, 77, 0
5, 20700, Note_on_c, 3, 70, 127
5, 20725, Note_on_c, 3, 70, 0
5, 20730, Note_on_c, 3, 73, 127
5, 20755, Note_on_c, 3, 73, 0
5, 20760, Note_on_c, 3, 70, 127
5, 20785, Note_on_c, 3, 70, 0
5, 20790, Note_on_c, 3, 75, 127
5, 20815, Note_on_c, 3, 75, 0
5, 20820, Note_on_c, 3, 70, 127
5, 20845, Note_on_c, 3, 70, 0
5, 20850, Note_on_c, 3, 73, 127
5, 20875, Note_on_c, 3, 73, 0
5, 20880, Note_on_c, 3, 70, 127
5, 20905, Note_on_c, 3, 70, 0
5, 20910, Note_on_c, 3, 66, 127
5, 20935, Note_on_c, 3, 66, 0
5, 20940, Note_on_c, 3, 61, 127
5, 20965, Note_on_c, 3, 61, 0
5, 20970, Note_on_c, 3, 66, 127
5, 20995, Note_on_c, 3, 66, 0
5, 21000, Note_on_c, 3, 61, 127
5, 21025, Note_on_c, 3, 61, 0
5, 21030, Note_on_c, 3, 70, 127
5, 21055, Note_on_c, 3, 70, 0
5, 21060, Note_on_c, 3, 61, 127
5, 21085, Note_on_c, 3, 61, 0
5, 21090, Note_on_c, 3, 66, 127
5, 21115, Note_on_c, 3, 66, 0
5, 21120, Note_on_c, 3, 61, 127
5, 21145, Note_on_c, 3, 61, 0
5, 21150, Note_on_c, 3, 68, 127
5, 21175, Note_on_c, 3, 68, 0
5, 21180, Note_on_c, 3, 63, 127
5, 21205, Note_on_c, 3, 63, 0
5, 21210, Note_on_c, 3, 68, 127
5, 21235, Note_on_c, 3, 68, 0
5, 21240, Note_on_c, 3, 63, 127
5, 21265, Note_on_c, 3, 63, 0
5, 21270, Note_on_c, 3, 72, 127
5, 21295, Note_on_c, 3, 72, 0
5, 21300, Note_on_c, 3, 63, 127
5, 21325, Note_on_c, 3, 63, 0
5, 21330, Note_on_c, 3, 68, 127
5, 21355, Note_on_c, 3, 68, 0
5, 21360, Note_on_c, 3, 63, 127
5, 21385, Note_on_c, 3, 63, 0
5, 21390, Note_on_c, 3, 70, 127
5, 21415, Note_on_c, 3, 70, 0
5, 21420, Note_on_c, 3, 65, 127
5, 21445, Note_on_c, 3, 65, 0
5, 21450, Note_on_c, 3, 70, 127
5, 21475, Note_on_c, 3, 70, 0
5, 21480, Note_on_c, 3, 65, 127
5, 21505, Note_on_c, 3, 65, 0
5, 21510, Note_on_c, 3, 73, 127
5, 21535, Note_on_c, 3, 73, 0
5, 21540, Note_on_c, 3, 65, 127
5, 21565, Note_on_c, 3, 65, 0
5, 21570, Note_on_c, 3, 70, 127
5, 21595, Note_on_c, 3, 70, 0
5, 21600, Note_on_c, 3, 65, 127
5, 21625, Note_on_c, 3, 65, 0
5, 21630, Note_on_c, 3, 77, 127
5, 21655, Note_on_c, 3, 77, 0
5, 21660, Note_on_c, 3, 70, 127
5, 21685, Note_on_c, 3, 70, 0
5, 21690, Note_on_c, 3, 73, 127
5, 21715, Note_on_c, 3, 73, 0
5, 21720, Note_on_c, 3, 70, 127
5, 21745, Note_on_c, 3, 70, 0
5, 21750, Note_on_c, 3, 75, 127
5, 21775, Note_on_c, 3, 75, 0
5, 21780, Note_on_c, 3, 70, 127
5, 21805, Note_on_c, 3, 70, 0
5, 21810, Note_on_c, 3, 73, 127
5, 21835, Note_on_c, 3, 73, 0
5, 21840, Note_on_c, 3, 70, 127
5, 21865, Note_on_c, 3, 70, 0
5, 21870, Note_on_c, 3, 66, 127
5, 21895, Note_on_c, 3, 66, 0
5, 21900, Note_on_c, 3, 61, 127
5, 21925, Note_on_c, 3, 61, 0
5, 21930, Note_on_c, 3, 66, 127
5, 21955, Note_on_c, 3, 66, 0
5, 21960, Note_on_c, 3, 61, 127
5, 21985, Note_on_c, 3, 61, 0
5, 21990, Note_on_c, 3, 70, 127
5, 22015, Note_on_c, 3, 70, 0
5, 22020, Note_on_c, 3, 61, 127
5, 22045, Note_on_c, 3, 61, 0
5, 22050, Note_on_c, 3, 66, 127
5, 22075, Note_on_c, 3, 66, 0
5, 22080, Note_on_c, 3, 61, 127
5, 22105, Note_on_c, 3, 61, 0
5, 22110, Note_on_c, 3, 68, 127
5, 22135, Note_on_c, 3, 68, 0
5, 22140, Note_on_c, 3, 63, 127
5, 22165, Note_on_c, 3, 63, 0
5, 22170, Note_on_c, 3, 68, 127
5, 22195, Note_on_c, 3, 68, 0
5, 22200, Note_on_c, 3, 63, 127
5, 22225, Note_on_c, 3, 63, 0
5, 22230, Note_on_c, 3, 72, 127
5, 22255, Note_on_c, 3, 72, 0
5, 22260, Note_on_c, 3, 63, 127
5, 22285, Note_on_c, 3, 63, 0
5, 22290, Note_on_c, 3, 68, 127
5, 22315, Note_on_c, 3, 68, 0
5, 22320, Note_on_c, 3, 63, 127
5, 22345, Note_on_c, 3, 63, 0
5, 22350, Note_on_c, 3, 70, 127
5, 22375, Note_on_c, 3, 70, 0
5, 22380, Note_on_c, 3, 65, 127
5, 22405, Note_on_c, 3, 65, 0
5, 22410, Note_on_c, 3, 70, 127
5, 22435, Note_on_c, 3, 70, 0
5, 22440, Note_on_c, 3, 65, 127
5, 22465, Note_on_c, 3, 65, 0
5, 22470, Note_on_c, 3, 73, 127
5, 22495, Note_on_c, 3, 73, 0
5, 22500, Note_on_c, 3, 65, 127
5, 22525, Note_on_c, 3, 65, 0
5, 22530, Note_on_c, 3, 70, 127
5, 22555, Note_on_c, 3, 70, 0
5, 22560, Note_on_c, 3, 65, 127
5, 22585, Note_on_c, 3, 65, 0
5, 22590, Note_on_c, 3, 77, 127
5, 22615, Note_on_c, 3, 77, 0
5, 22620, Note_on_c, 3, 70, 127
5, 22645, Note_on_c, 3, 70, 0
5, 22650, Note_on_c, 3, 73, 127
5, 22675, Note_on_c, 3, 73, 0
5, 22680, Note_on_c, 3, 70, 127
5, 22705, Note_on_c, 3, 70, 0
5, 22710, Note_on_c, 3, 75, 127
5, 22735, Note_on_c, 3, 75, 0
5, 22740, Note_on_c, 3, 70, 127
5, 22765, Note_on_c, 3, 70, 0
5, 22770, Note_on_c, 3, 73, 127
5, 22795, Note_on_c, 3, 73, 0
5, 22800, Note_on_c, 3, 70, 127
5, 22825, Note_on_c, 3, 70, 0
5, 22830, Note_on_c, 3, 66, 127
5, 22855, Note_on_c, 3, 66, 0
5, 22860, Note_on_c, 3, 61, 127
5, 22885, Note_on_c, 3, 61, 0
5, 22890, Note_on_c, 3, 66, 127
5, 22915, Note_on_c, 3, 66, 0
5, 22920, Note_on_c, 3, 61, 127
5, 22945, Note_on_c, 3, 61, 0
5, 22950, Note_on_c, 3, 70, 127
5, 22975, Note_on_c, 3, 70, 0
5, 22980, Note_on_c, 3, 61, 127
5, 23005, Note_on_c, 3, 61, 0
5, 23010, Note_on_c, 3, 66, 127
5, 23035, Note_on_c, 3, 66, 0
5, 23040, Note_on_c, 3, 61, 127
5, 23065, Note_on_c, 3, 61, 0
5, 23070, Note_on_c, 3, 68, 127
5, 23095, Note_on_c, 3, 68, 0
5, 23100, Note_on_c, 3, 63, 127
5, 23125, Note_on_c, 3, 63, 0
5, 23130, Note_on_c, 3, 68, 127
5, 23155, Note_on_c, 3, 68, 0
5, 23160, Note_on_c, 3, 63, 127
5, 23185, Note_on_c, 3, 63, 0
5, 23190, Note_on_c, 3, 72, 127
5, 23215, Note_on_c, 3, 72, 0
5, 23220, Note_on_c, 3, 63, 127
5, 23245, Note_on_c, 3, 63, 0
5, 23250, Note_on_c, 3, 68, 127
5, 23275, Note_on_c, 3, 68, 0
5, 23280, Note_on_c, 3, 63, 127
5, 23305, Note_on_c, 3, 63, 0
5, 23310, Note_on_c, 3, 70, 127
5, 23335, Note_on_c, 3, 70, 0
5, 23340, Note_on_c, 3, 65, 127
5, 23365, Note_on_c, 3, 65, 0
5, 23370, Note_on_c, 3, 70, 127
5, 23395, Note_on_c, 3, 70, 0
5, 23400, Note_on_c, 3, 65, 127
5, 23425, Note_on_c, 3, 65, 0
5, 23430, Note_on_c, 3, 73, 127
5, 23455, Note_on_c, 3, 73, 0
5, 23460, Note_on_c, 3, 65, 127
5, 23485, Note_on_c, 3, 65, 0
5, 23490, Note_on_c, 3, 70, 127
5, 23515, Note_on_c, 3, 70, 0
5, 23520, Note_on_c, 3, 65, 127
5, 23545, Note_on_c, 3, 65, 0
5, 23550, Note_on_c, 3, 77, 127
5, 23575, Note_on_c, 3, 77, 0
5, 23580, Note_on_c, 3, 70, 127
5, 23605, Note_on_c, 3, 70, 0
5, 23610, Note_on_c, 3, 73, 127
5, 23635, Note_on_c, 3, 73, 0
5, 23640, Note_on_c, 3, 70, 127
5, 23665, Note_on_c, 3, 70, 0
5, 23670, Note_on_c, 3, 75, 127
5, 23695, Note_on_c, 3, 75, 0
5, 23700, Note_on_c, 3, 70, 127
5, 23725, Note_on_c, 3, 70, 0
5, 23730, Note_on_c, 3, 73, 127
5, 23755, Note_on_c, 3, 73, 0
5, 23760, Note_on_c, 3, 70, 127
5, 23785, Note_on_c, 3, 70, 0
5, 23790, Note_on_c, 3, 66, 127
5, 23815, Note_on_c, 3, 66, 0
5, 23820, Note_on_c, 3, 61, 127
5, 23845, Note_on_c, 3, 61, 0
5, 23850, Note_on_c, 3, 66, 127
5, 23875, Note_on_c, 3, 66, 0
5, 23880, Note_on_c, 3, 61, 127
5, 23905, Note_on_c, 3, 61, 0
5, 23910, Note_on_c, 3, 70, 127
5, 23935, Note_on_c, 3, 70, 0
5, 23940, Note_on_c, 3, 61, 127
5, 23965, Note_on_c, 3, 61, 0
5, 23970, Note_on_c, 3, 66, 127
5, 23995, Note_on_c, 3, 66, 0
5, 24000, Note_on_c, 3, 61, 127
5, 24025, Note_on_c, 3, 61, 0
5, 24030, Note_on_c, 3, 68, 127
5, 24055, Note_on_c, 3, 68, 0
5, 24060, Note_on_c, 3, 63, 127
5, 24085, Note_on_c, 3, 63, 0
5, 24090, Note_on_c, 3, 68, 127
5, 24115, Note_on_c, 3, 68, 0
5, 24120, Note_on_c, 3, 63, 127
5, 24145, Note_on_c, 3, 63, 0
5, 24150, Note_on_c, 3, 72, 127
5, 24175, Note_on_c, 3, 72, 0
5, 24180, Note_on_c, 3, 63, 127
5, 24205, Note_on_c, 3, 63, 0
5, 24210, Note_on_c, 3, 68, 127
5, 24235, Note_on_c, 3, 68, 0
5, 24240, Note_on_c, 3, 63, 127
5, 24265, Note_on_c, 3, 63, 0
5, 24270, Note_on_c, 3, 70, 127
5, 24295, Note_on_c, 3, 70, 0
5, 24300, Note_on_c, 3, 65, 127
5, 24325, Note_on_c, 3, 65, 0
5, 24330, Note_on_c, 3, 70, 127
5, 24355, Note_on_c, 3, 70, 0
5, 24360, Note_on_c, 3, 65, 127
5, 24385, Note_on_c, 3, 65, 0
5, 24390, Note_on_c, 3, 73, 127
5, 24415, Note_on_c, 3, 73, 0
5, 24420, Note_on_c, 3, 65, 127
5, 24445, Note_on_c, 3, 65, 0
5, 24450, Note_on_c, 3, 70, 127
5, 24475, Note_on_c, 3, 70, 0
5, 24480, Note_on_c, 3, 65, 127
5, 24505, Note_on_c, 3, 65, 0
5, 24510, Note_on_c, 3, 77, 127
5, 24535, Note_on_c, 3, 77, 0
5, 24540, Note_on_c, 3, 70, 127
5, 24565, Note_on_c, 3, 70, 0
5, 24570, Note_on_c, 3, 73, 127
5, 24595, Note_on_c, 3, 73, 0
5, 24600, Note_on_c, 3, 70, 127
5, 24625, Note_on_c, 3, 70, 0
5, 24630, Note_on_c, 3, 75, 127
5, 24655, Note_on_c, 3, 75, 0
5, 24660, Note_on_c, 3, 70, 127
5, 24685, Note_on_c, 3, 70, 0
5, 24690, Note_on_c, 3, 73, 127
5, 24715, Note_on_c, 3, 73, 0
5, 24720, Note_on_c, 3, 70, 127
5, 24745, Note_on_c, 3, 70, 0
5, 24750, Note_on_c, 3, 66, 127
5, 24775, Note_on_c, 3, 66, 0
5, 24780, Note_on_c, 3, 61, 127
5, 24805, Note_on_c, 3, 61, 0
5, 24810, Note_on_c, 3, 66, 127
5, 24835, Note_on_c, 3, 66, 0
5, 24840, Note_on_c, 3, 61, 127
5, 24865, Note_on_c, 3, 61, 0
5, 24870, Note_on_c, 3, 70, 127
5, 24895, Note_on_c, 3, 70, 0
5, 24900, Note_on_c, 3, 61, 127
5, 24925, Note_on_c, 3, 61, 0
5, 24930, Note_on_c, 3, 66, 127
5, 24955, Note_on_c, 3, 66, 0
5, 24960, Note_on_c, 3, 61, 127
5, 24985, Note_on_c, 3, 61, 0
5, 24990, Note_on_c, 3, 68, 127
5, 25015, Note_on_c, 3, 68, 0
5, 25020, Note_on_c, 3, 63, 127
5, 25045, Note_on_c, 3, 63, 0
5, 25050, Note_on_c, 3, 68, 127
5, 25075, Note_on_c, 3, 68, 0
5, 25080, Note_on_c, 3, 63, 127
5, 25105, Note_on_c, 3, 63, 0
5, 25110, Note_on_c, 3, 72, 127
5, 25135, Note_on_c, 3, 72, 0
5, 25140, Note_on_c, 3, 63, 127
5, 25165, Note_on_c, 3, 63, 0
5, 25170, Note_on_c, 3, 68, 127
5, 25195, Note_on_c, 3, 68, 0
5, 25200, Note_on_c, 3, 63, 127
5, 25225, Note_on_c, 3, 63, 0
5, 25230, Note_on_c, 3, 70, 127
5, 25255, Note_on_c, 3, 70, 0
5, 25260, Note_on_c, 3, 65, 127
5, 25285, Note_on_c, 3, 65, 0
5, 25290, Note_on_c, 3, 70, 127
5, 25315, Note_on_c, 3, 70, 0
5, 25320, Note_on_c, 3, 65, 127
5, 25345, Note_on_c, 3, 65, 0
5, 25350, Note_on_c, 3, 73, 127
5, 25375, Note_on_c, 3, 73, 0
5, 25380, Note_on_c, 3, 65, 127
5, 25405, Note_on_c, 3, 65, 0
5, 25410, Note_on_c, 3, 70, 127
5, 25435, Note_on_c, 3, 70, 0
5, 25440, Note_on_c, 3, 65, 127
5, 25465, Note_on_c, 3, 65, 0
5, 25470, Note_on_c, 3, 77, 127
5, 25495, Note_on_c, 3, 77, 0
5, 25500, Note_on_c, 3, 70, 127
5, 25525, Note_on_c, 3, 70, 0
5, 25530, Note_on_c, 3, 73, 127
5, 25555, Note_on_c, 3, 73, 0
5, 25560, Note_on_c, 3, 70, 127
5, 25585, Note_on_c, 3, 70, 0
5, 25590, Note_on_c, 3, 75, 127
5, 25615, Note_on_c, 3, 75, 0
5, 25620, Note_on_c, 3, 70, 127
5, 25645, Note_on_c, 3, 70, 0
5, 25650, Note_on_c, 3, 73, 127
5, 25675, Note_on_c, 3, 73, 0
5, 25680, Note_on_c, 3, 70, 127
5, 25705, Note_on_c, 3, 70, 0
5, 25710, Note_on_c, 3, 66, 127
5, 25735, Note_on_c, 3, 66, 0
5, 25740, Note_on_c, 3, 61, 127
5, 25765, Note_on_c, 3, 61, 0
5, 25770, Note_on_c, 3, 66, 127
5, 25795, Note_on_c, 3, 66, 0
5, 25800, Note_on_c, 3, 61, 127
5, 25825, Note_on_c, 3, 61, 0
5, 25830, Note_on_c, 3, 70, 127
5, 25855, Note_on_c, 3, 70, 0
5, 25860, Note_on_c, 3, 61, 127
5, 25885, Note_on_c, 3, 61, 0
5, 25890, Note_on_c, 3, 66, 127
5, 25915, Note_on_c, 3, 66, 0
5, 25920, Note_on_c, 3, 61, 127
5, 25945, Note_on_c, 3, 61, 0
5, 25950, Note_on_c, 3, 68, 127
5, 25975, Note_on_c, 3, 68, 0
5, 25980, Note_on_c, 3, 63, 127
5, 26005, Note_on_c, 3, 63, 0
5, 26010, Note_on_c, 3, 68, 127
5, 26035, Note_on_c, 3, 68, 0
5, 26040, Note_on_c, 3, 63, 127
5, 26065, Note_on_c, 3, 63, 0
5, 26070, Note_on_c, 3, 72, 127
5, 26095, Note_on_c, 3, 72, 0
5, 26100, Note_on_c, 3, 63, 127
5, 26125, Note_on_c, 3, 63, 0
5, 26130, Note_on_c, 3, 68, 127
5, 26155, Note_on_c, 3, 68, 0
5, 26160, Note_on_c, 3, 63, 127
5, 26185, Note_on_c, 3, 63, 0
5, 26190, Note_on_c, 3, 70, 127
5, 26215, Note_on_c, 3, 70, 0
5, 26220, Note_on_c, 3, 65, 127
5, 26245, Note_on_c, 3, 65, 0
5, 26250, Note_on_c, 3, 70, 127
5, 26275, Note_on_c, 3, 70, 0
5, 26280, Note_on_c, 3, 65, 127
5, 26305, Note_on_c, 3, 65, 0
5, 26310, Note_on_c, 3, 73, 127
5, 26335, Note_on_c, 3, 73, 0
5, 26340, Note_on_c, 3, 65, 127
5, 26365, Note_on_c, 3, 65, 0
5, 26370, Note_on_c, 3, 70, 127
5, 26395, Note_on_c, 3, 70, 0
5, 26400, Note_on_c, 3, 65, 127
5, 26425, Note_on_c, 3, 65, 0
5, 26430, Note_on_c, 3, 77, 127
5, 26455, Note_on_c, 3, 77, 0
5, 26460, Note_on_c, 3, 70, 127
5, 26485, Note_on_c, 3, 70, 0
5, 26490, Note_on_c, 3, 73, 127
5, 26515, Note_on_c, 3, 73, 0
5, 26520, Note_on_c, 3, 70, 127
5, 26545, Note_on_c, 3, 70, 0
5, 26550, Note_on_c, 3, 75, 127
5, 26575, Note_on_c, 3, 75, 0
5, 26580, Note_on_c, 3, 70, 127
5, 26605, Note_on_c, 3, 70, 0
5, 26610, Note_on_c, 3, 73, 127
5, 26635, Note_on_c, 3, 73, 0
5, 26640, Note_on_c, 3, 70, 127
5, 26665, Note_on_c, 3, 70, 0
5, 26670, Note_on_c, 3, 66, 127
5, 26695, Note_on_c, 3, 66, 0
5, 26700, Note_on_c, 3, 61, 127
5, 26725, Note_on_c, 3, 61, 0
5, 26730, Note_on_c, 3, 66, 127
5, 26755, Note_on_c, 3, 66, 0
5, 26760, Note_on_c, 3, 61, 127
5, 26785, Note_on_c, 3, 61, 0
5, 26790, Note_on_c, 3, 70, 127
5, 26815, Note_on_c, 3, 70, 0
5, 26820, Note_on_c, 3, 61, 127
5, 26845, Note_on_c, 3, 61, 0
5, 26850, Note_on_c, 3, 66, 127
5, 26875, Note_on_c, 3, 66, 0
5, 26880, Note_on_c, 3, 61, 127
5, 26905, Note_on_c, 3, 61, 0
5, 26910, Note_on_c, 3, 68, 127
5, 26935, Note_on_c, 3, 68, 0
5, 26940, Note_on_c, 3, 63, 127
5, 26965, Note_on_c, 3, 63, 0
5, 26970, Note_on_c, 3, 68, 127
5, 26995, Note_on_c, 3, 68, 0
5, 27000, Note_on_c, 3, 63, 127
5, 27025, Note_on_c, 3, 63, 0
5, 27030, Note_on_c, 3, 72, 127
5, 27055, Note_on_c, 3, 72, 0
5, 27060, Note_on_c, 3, 63, 127
5, 27085, Note_on_c, 3, 63, 0
5, 27090, Note_on_c, 3, 68, 127
5, 27115, Note_on_c, 3, 68, 0
5, 27120, Note_on_c, 3, 63, 127
5, 27145, Note_on_c, 3, 63, 0
5, 27150, Note_on_c, 3, 70, 127
5, 27175, Note_on_c, 3, 70, 0
5, 27180, Note_on_c, 3, 65, 127
5, 27205, Note_on_c, 3, 65, 0
5, 27210, Note_on_c, 3, 70, 127
5, 27235, Note_on_c, 3, 70, 0
5, 27240, Note_on_c, 3, 65, 127
5, 27265, Note_on_c, 3, 65, 0
5, 27270, Note_on_c, 3, 73, 127
5, 27295, Note_on_c, 3, 73, 0
5, 27300, Note_on_c, 3, 65, 127
5, 27325, Note_on_c, 3, 65, 0
5, 27330, Note_on_c, 3, 70, 127
5, 27355, Note_on_c, 3, 70, 0
5, 27360, Note_on_c, 3, 65, 127
5, 27385, Note_on_c, 3, 65, 0
5, 38910, Note_on_c, 3, 77, 127
5, 38935, Note_on_c, 3, 77, 0
5, 38940, Note_on_c, 3, 70, 127
5, 38965, Note_on_c, 3, 70, 0
5, 38970, Note_on_c, 3, 73, 127
5, 38995, Note_on_c, 3, 73, 0
5, 39000, Note_on_c, 3, 70, 127
5, 39025, Note_on_c, 3, 70, 0
5, 39030, Note_on_c, 3, 75, 127
5, 39055, Note_on_c, 3, 75, 0
5, 39060, Note_on_c, 3, 70, 127
5, 39085, Note_on_c, 3, 70, 0
5, 39090, Note_on_c, 3, 73, 127
5, 39115, Note_on_c, 3, 73, 0
5, 39120, Note_on_c, 3, 70, 127
5, 39145, Note_on_c, 3, 70, 0
5, 39150, Note_on_c, 3, 66, 127
5, 39175, Note_on_c, 3, 66, 0
5, 39180, Note_on_c, 3, 61, 127
5, 39205, Note_on_c, 3, 61, 0
5, 39210, Note_on_c, 3, 66, 127
5, 39235, Note_on_c, 3, 66, 0
5, 39240, Note_on_c, 3, 61, 127
5, 39265, Note_on_c, 3, 61, 0
5, 39270, Note_on_c, 3, 70, 127
5, 39295, Note_on_c, 3, 70, 0
5, 39300, Note_on_c, 3, 61, 127
5, 39325, Note_on_c, 3, 61, 0
5, 39330, Note_on_c, 3, 66, 127
5, 39355, Note_on_c, 3, 66, 0
5, 39360, Note_on_c, 3, 61, 127
5, 39385, Note_on_c, 3, 61, 0
5, 39390, Note_on_c, 3, 68, 127
5, 39415, Note_on_c, 3, 68, 0
5, 39420, Note_on_c, 3, 63, 127
5, 39445, Note_on_c, 3, 63, 0
5, 39450, Note_on_c, 3, 68, 127
5, 39475, Note_on_c, 3, 68, 0
5, 39480, Note_on_c, 3, 63, 127
5, 39505, Note_on_c, 3, 63, 0
5, 39510, Note_on_c, 3, 72, 127
5, 39535, Note_on_c, 3, 72, 0
5, 39540, Note_on_c, 3, 63, 127
5, 39565, Note_on_c, 3, 63, 0
5, 39570, Note_on_c, 3, 68, 127
5, 39595, Note_on_c, 3, 68, 0
5, 39600, Note_on_c, 3, 63, 127
5, 39625, Note_on_c, 3, 63, 0
5, 39630, Note_on_c, 3, 70, 127
5, 39655, Note_on_c, 3, 70, 0
5, 39660, Note_on_c, 3, 65, 127
5, 39685, Note_on_c, 3, 65, 0
5, 39690, Note_on_c, 3, 70, 127
5, 39715, Note_on_c, 3, 70, 0
5, 39720, Note_on_c, 3, 65, 127
5, 39745, Note_on_c, 3, 65, 0
5, 39750, Note_on_c, 3, 73, 127
5, 39775, Note_on_c, 3, 73, 0
5, 39780, Note_on_c, 3, 65, 127
5, 39805, Note_on_c, 3, 65, 0
5, 39810, Note_on_c, 3, 70, 127
5, 39835, Note_on_c, 3, 70, 0
5, 39840, Note_on_c, 3, 65, 127
5, 39865, Note_on_c, 3, 65, 0
5, 39870, Note_on_c, 3, 77, 127
5, 39895, Note_on_c, 3, 77, 0
5, 39900, Note_on_c, 3, 70, 127
5, 39925, Note_on_c, 3, 70, 0
5, 39930, Note_on_c, 3, 73, 127
5, 39955, Note_on_c, 3, 73, 0
5, 39960, Note_on_c, 3, 70, 127
5, 39985, Note_on_c, 3, 70, 0
5, 39990, Note_on_c, 3, 75, 127
5, 40015, Note_on_c, 3, 75, 0
5, 40020, Note_on_c, 3, 70, 127
5, 40045, Note_on_c, 3, 70, 0
5, 40050, Note_on_c, 3, 73, 127
5, 40075, Note_on_c, 3, 73, 0
5, 40080, Note_on_c, 3, 70, 127
5, 40105, Note_on_c, 3, 70, 0
5, 40110, Note_on_c, 3, 66, 127
5, 40135, Note_on_c, 3, 66, 0
5, 40140, Note_on_c, 3, 61, 127
5, 40165, Note_on_c, 3, 61, 0
5, 40170, Note_on_c, 3, 66, 127
5, 40195, Note_on_c, 3, 66, 0
5, 40200, Note_on_c, 3, 61, 127
5, 40225, Note_on_c, 3, 61, 0
5, 40230, Note_on_c, 3, 70, 127
5, 40255, Note_on_c, 3, 70, 0
5, 40260, Note_on_c, 3, 61, 127
5, 40285, Note_on_c, 3, 61, 0
5, 40290, Note_on_c, 3, 66, 127
5, 40315, Note_on_c, 3, 66, 0
5, 40320, Note_on_c, 3, 61, 127
5, 40345, Note_on_c, 3, 61, 0
5, 40350, Note_on_c, 3, 68, 127
5, 40375, Note_on_c, 3, 68, 0
5, 40380, Note_on_c, 3, 63, 127
5, 40405, Note_on_c, 3, 63, 0
5, 40410, Note_on_c, 3, 68, 127
5, 40435, Note_on_c, 3, 68, 0
5, 40440, Note_on_c, 3, 63, 127
5, 40465, Note_on_c, 3, 63, 0
5, 40470, Note_on_c, 3, 72, 127
5, 40495, Note_on_c, 3, 72, 0
5, 40500, Note_on_c, 3, 63, 127
5, 40525, Note_on_c, 3, 63, 0
5, 40530, Note_on_c, 3, 68, 127
5, 40555, Note_on_c, 3, 68, 0
5, 40560, Note_on_c, 3, 63, 127
5, 40585, Note_on_c, 3, 63, 0
5, 40590, Note_on_c, 3, 70, 127
5, 40615, Note_on_c, 3, 70, 0
5, 40620, Note_on_c, 3, 65, 127
5, 40645, Note_on_c, 3, 65, 0
5, 40650, Note_on_c, 3, 70, 127
5, 40675, Note_on_c, 3, 70, 0
5, 40680, Note_on_c, 3, 65, 127
5, 40705, Note_on_c, 3, 65, 0
5, 40710, Note_on_c, 3, 73, 127
5, 40735, Note_on_c, 3, 73, 0
5, 40740, Note_on_c, 3, 65, 127
5, 40765, Note_on_c, 3, 65, 0
5, 40770, Note_on_c, 3, 70, 127
5, 40795, Note_on_c, 3, 70, 0
5, 40800, Note_on_c, 3, 65, 127
5, 40825, Note_on_c, 3, 65, 0
5, 40830, Note_on_c, 3, 77, 127
5, 40855, Note_on_c, 3, 77, 0
5, 40860, Note_on_c, 3, 70, 127
5, 40885, Note_on_c, 3, 70, 0
5, 40890, Note_on_c, 3, 73, 127
5, 40915, Note_on_c, 3, 73, 0
5, 40920, Note_on_c, 3, 70, 127
5, 40945, Note_on_c, 3, 70, 0
5, 40950, Note_on_c, 3, 75, 127
5, 40975, Note_on_c, 3, 75, 0
5, 40980, Note_on_c, 3, 70, 127
5, 41005, Note_on_c, 3, 70, 0
5, 41010, Note_on_c, 3, 73, 127
5, 41035, Note_on_c, 3, 73, 0
5, 41040, Note_on_c, 3, 70, 127
5, 41065, Note_on_c, 3, 70, 0
5, 41070, Note_on_c, 3, 66, 127
5, 41095, Note_on_c, 3, 66, 0
5, 41100, Note_on_c, 3, 61, 127
5, 41125, Note_on_c, 3, 61, 0
5, 41130, Note_on_c, 3, 66, 127
5, 41155, Note_on_c, 3, 66, 0
5, 41160, Note_on_c, 3, 61, 127
5, 41185, Note_on_c, 3, 61, 0
5, 41190, Note_on_c, 3, 70, 127
5, 41215, Note_on_c, 3, 70, 0
5, 41220, Note_on_c, 3, 61, 127
5, 41245, Note_on_c, 3, 61, 0
5, 41250, Note_on_c, 3, 66, 127
5, 41275, Note_on_c, 3, 66, 0
5, 41280, Note_on_c, 3, 61, 127
5, 41305, Note_on_c, 3, 61, 0
5, 41310, Note_on_c, 3, 68, 127
5, 41335, Note_on_c, 3, 68, 0
5, 41340, Note_on_c, 3, 63, 127
5, 41365, Note_on_c, 3, 63, 0
5, 41370, Note_on_c, 3, 68, 127
5, 41395, Note_on_c, 3, 68, 0
5, 41400, Note_on_c, 3, 63, 127
5, 41425, Note_on_c, 3, 63, 0
5, 41430, Note_on_c, 3, 72, 127
5, 41455, Note_on_c, 3, 72, 0
5, 41460, Note_on_c, 3, 63, 127
5, 41485, Note_on_c, 3, 63, 0
5, 41490, Note_on_c, 3, 68, 127
5, 41515, Note_on_c, 3, 68, 0
5, 41520, Note_on_c, 3, 63, 127
5, 41545, Note_on_c, 3, 63, 0
5, 41550, Note_on_c, 3, 70, 127
5, 41575, Note_on_c, 3, 70, 0
5, 41580, Note_on_c, 3, 65, 127
5, 41605, Note_on_c, 3, 65, 0
5, 41610, Note_on_c, 3, 70, 127
5, 41635, Note_on_c, 3, 70, 0
5, 41640, Note_on_c, 3, 65, 127
5, 41665, Note_on_c, 3, 65, 0
5, 41670, Note_on_c, 3, 73, 127
5, 41695, Note_on_c, 3, 73, 0
5, 41700, Note_on_c, 3, 65, 127
5, 41725, Note_on_c, 3, 65, 0
5, 41730, Note_on_c, 3, 70, 127
5, 41755, Note_on_c, 3, 70, 0
5, 41760, Note_on_c, 3, 65, 127
5, 41785, Note_on_c, 3, 65, 0
5, 41790, Note_on_c, 3, 77, 127
5, 41815, Note_on_c, 3, 77, 0
5, 41820, Note_on_c, 3, 70, 127
5, 41845, Note_on_c, 3, 70, 0
5, 41850, Note_on_c, 3, 73, 127
5, 41875, Note_on_c, 3, 73, 0
5, 41880, Note_on_c, 3, 70, 127
5, 41905, Note_on_c, 3, 70, 0
5, 41910, Note_on_c, 3, 75, 127
5, 41935, Note_on_c, 3, 75, 0
5, 41940, Note_on_c, 3, 70, 127
5, 41965, Note_on_c, 3, 70, 0
5, 41970, Note_on_c, 3, 73, 127
5, 41995, Note_on_c, 3, 73, 0
5, 42000, Note_on_c, 3, 70, 127
5, 42025, Note_on_c, 3, 70, 0
5, 42030, Note_on_c, 3, 66, 127
5, 42055, Note_on_c, 3, 66, 0
5, 42060, Note_on_c, 3, 61, 127
5, 42085, Note_on_c, 3, 61, 0
5, 42090, Note_on_c, 3, 66, 127
5, 42115, Note_on_c, 3, 66, 0
5, 42120, Note_on_c, 3, 61, 127
5, 42145, Note_on_c, 3, 61, 0
5, 42150, Note_on_c, 3, 70, 127
5, 42175, Note_on_c, 3, 70, 0
5, 42180, Note_on_c, 3, 61, 127
5, 42205, Note_on_c, 3, 61, 0
5, 42210, Note_on_c, 3, 66, 127
5, 42235, Note_on_c, 3, 66, 0
5, 42240, Note_on_c, 3, 61, 127
5, 42265, Note_on_c, 3, 61, 0
5, 42270, Note_on_c, 3, 68, 127
5, 42295, Note_on_c, 3, 68, 0
5, 42300, Note_on_c, 3, 63, 127
5, 42325, Note_on_c, 3, 63, 0
5, 42330, Note_on_c, 3, 68, 127
5, 42355, Note_on_c, 3, 68, 0
5, 42360, Note_on_c, 3, 63, 127
5, 42385, Note_on_c, 3, 63, 0
5, 42390, Note_on_c, 3, 72, 127
5, 42415, Note_on_c, 3, 72, 0
5, 42420, Note_on_c, 3, 63, 127
5, 42445, Note_on_c, 3, 63, 0
5, 42450, Note_on_c, 3, 68, 127
5, 42475, Note_on_c, 3, 68, 0
5, 42480, Note_on_c, 3, 63, 127
5, 42505, Note_on_c, 3, 63, 0
5, 42510, Note_on_c, 3, 70, 127
5, 42535, Note_on_c, 3, 70, 0
5, 42540, Note_on_c, 3, 65, 127
5, 42565, Note_on_c, 3, 65, 0
5, 42570, Note_on_c, 3, 70, 127
5, 42595, Note_on_c, 3, 70, 0
5, 42600, Note_on_c, 3, 65, 127
5, 42625, Note_on_c, 3, 65, 0
5, 42630, Note_on_c, 3, 73, 127
5, 42655, Note_on_c, 3, 73, 0
5, 42660, Note_on_c, 3, 65, 127
5, 42685, Note_on_c, 3, 65, 0
5, 42690, Note_on_c, 3, 70, 127
5, 42715, Note_on_c, 3, 70, 0
5, 42720, Note_on_c, 3, 65, 127
5, 42745, Note_on_c, 3, 65, 0
5, 42750, Note_on_c, 3, 77, 127
5, 42775, Note_on_c, 3, 77, 0
5, 42780, Note_on_c, 3, 70, 127
5, 42805, Note_on_c, 3, 70, 0
5, 42810, Note_on_c, 3, 73, 127
5, 42835, Note_on_c, 3, 73, 0
5, 42840, Note_on_c, 3, 70, 127
5, 42865, Note_on_c, 3, 70, 0
5, 42870, Note_on_c, 3, 75, 127
5, 42895, Note_on_c, 3, 75, 0
5, 42900, Note_on_c, 3, 70, 127
5, 42925, Note_on_c, 3, 70, 0
5, 42930, Note_on_c, 3, 73, 127
5, 42955, Note_on_c, 3, 73, 0
5, 42960, Note_on_c, 3, 70, 127
5, 42985, Note_on_c, 3, 70, 0
5, 42990, Note_on_c, 3, 66, 127
5, 43015, Note_on_c, 3, 66, 0
5, 43020, Note_on_c, 3, 61, 127
5, 43045, Note_on_c, 3, 61, 0
5, 43050, Note_on_c, 3, 66, 127
5, 43075, Note_on_c, 3, 66, 0
5, 43080, Note_on_c, 3, 61, 127
5, 43105, Note_on_c, 3, 61, 0
5, 43110, Note_on_c, 3, 70, 127
5, 43135, Note_on_c, 3, 70, 0
5, 43140, Note_on_c, 3, 61, 127
5, 43165, Note_on_c, 3, 61, 0
5, 43170, Note_on_c, 3, 66, 127
5, 43195, Note_on_c, 3, 66, 0
5, 43200, Note_on_c, 3, 61, 127
5, 43225, Note_on_c, 3, 61, 0
5, 43230, Note_on_c, 3, 68, 127
5, 43255, Note_on_c, 3, 68, 0
5, 43260, Note_on_c, 3, 63, 127
5, 43285, Note_on_c, 3, 63, 0
5, 43290, Note_on_c, 3, 68, 127
5, 43315, Note_on_c, 3, 68, 0
5, 43320, Note_on_c, 3, 63, 127
5, 43345, Note_on_c, 3, 63, 0
5, 43350, Note_on_c, 3, 72, 127
5, 43375, Note_on_c, 3, 72, 0
5, 43380, Note_on_c, 3, 63, 127
5, 43405, Note_on_c, 3, 63, 0
5, 43410, Note_on_c, 3, 68, 127
5, 43435, Note_on_c, 3, 68, 0
5, 43440, Note_on_c, 3, 63, 127
5, 43465, Note_on_c, 3, 63, 0
5, 43470, Note_on_c, 3, 70, 127
5, 43495, Note_on_c, 3, 70, 0
5, 43500, Note_on_c, 3, 65, 127
5, 43525, Note_on_c, 3, 65, 0
5, 43530, Note_on_c, 3, 70, 127
5, 43555, Note_on_c, 3, 70, 0
5, 43560, Note_on_c, 3, 65, 127
5, 43585, Note_on_c, 3, 65, 0
5, 43590, Note_on_c, 3, 73, 127
5, 43615, Note_on_c, 3, 73, 0
5, 43620, Note_on_c, 3, 65, 127
5, 43645, Note_on_c, 3, 65, 0
5, 43650, Note_on_c, 3, 70, 127
5, 43675, Note_on_c, 3, 70, 0
5, 43680, Note_on_c, 3, 65, 127
5, 43705, Note_on_c, 3, 65, 0
5, 43710, Note_on_c, 3, 77, 127
5, 43735, Note_on_c, 3, 77, 0
5, 43740, Note_on_c, 3, 70, 127
5, 43765, Note_on_c, 3, 70, 0
5, 43770, Note_on_c, 3, 73, 127
5, 43795, Note_on_c, 3, 73, 0
5, 43800, Note_on_c, 3, 70, 127
5, 43825, Note_on_c, 3, 70, 0
5, 43830, Note_on_c, 3, 75, 127
5, 43855, Note_on_c, 3, 75, 0
5, 43860, Note_on_c, 3, 70, 127
5, 43885, Note_on_c, 3, 70, 0
5, 43890, Note_on_c, 3, 73, 127
5, 43915, Note_on_c, 3, 73, 0
5, 43920, Note_on_c, 3, 70, 127
5, 43945, Note_on_c, 3, 70, 0
5, 43950, Note_on_c, 3, 66, 127
5, 43975, Note_on_c, 3, 66, 0
5, 43980, Note_on_c, 3, 61, 127
5, 44005, Note_on_c, 3, 61, 0
5, 44010, Note_on_c, 3, 66, 127
5, 44035, Note_on_c, 3, 66, 0
5, 44040, Note_on_c, 3, 61, 127
5, 44065, Note_on_c, 3, 61, 0
5, 44070, Note_on_c, 3, 70, 127
5, 44095, Note_on_c, 3, 70, 0
5, 44100, Note_on_c, 3, 61, 127
5, 44125, Note_on_c, 3, 61, 0
5, 44130, Note_on_c, 3, 66, 127
5, 44155, Note_on_c, 3, 66, 0
5, 44160, Note_on_c, 3, 61, 127
5, 44185, Note_on_c, 3, 61, 0
5, 44190, Note_on_c, 3, 68, 127
5, 44215, Note_on_c, 3, 68, 0
5, 44220, Note_on_c, 3, 63, 127
5, 44245, Note_on_c, 3, 63, 0
5, 44250, Note_on_c, 3, 68, 127
5, 44275, Note_on_c, 3, 68, 0
5, 44280, Note_on_c, 3, 63, 127
5, 44305, Note_on_c, 3, 63, 0
5, 44310, Note_on_c, 3, 72, 127
5, 44335, Note_on_c, 3, 72, 0
5, 44340, Note_on_c, 3, 63, 127
5, 44365, Note_on_c, 3, 63, 0
5, 44370, Note_on_c, 3, 68, 127
5, 44395, Note_on_c, 3, 68, 0
5, 44400, Note_on_c, 3, 63, 127
5, 44425, Note_on_c, 3, 63, 0
5, 44430, Note_on_c, 3, 70, 127
5, 44455, Note_on_c, 3, 70, 0
5, 44460, Note_on_c, 3, 65, 127
5, 44485, Note_on_c, 3, 65, 0
5, 44490, Note_on_c, 3, 70, 127
5, 44515, Note_on_c, 3, 70, 0
5, 44520, Note_on_c, 3, 65, 127
5, 44545, Note_on_c, 3, 65, 0
5, 44550, Note_on_c, 3, 73, 127
5, 44575, Note_on_c, 3, 73, 0
5, 44580, Note_on_c, 3, 65, 127
5, 44605, Note_on_c, 3, 65, 0
5, 44610, Note_on_c, 3, 70, 127
5, 44635, Note_on_c, 3, 70, 0
5, 44640, Note_on_c, 3, 65, 127
5, 44665, Note_on_c, 3, 65, 0
5, 44670, Note_on_c, 3, 77, 127
5, 44695, Note_on_c, 3, 77, 0
5, 44700, Note_on_c, 3, 70, 127
5, 44725, Note_on_c, 3, 70, 0
5, 44730, Note_on_c, 3, 73, 127
5, 44755, Note_on_c, 3, 73, 0
5, 44760, Note_on_c, 3, 70, 127
5, 44785, Note_on_c, 3, 70, 0
5, 44790, Note_on_c, 3, 75, 127
5, 44815, Note_on_c, 3, 75, 0
5, 44820, Note_on_c, 3, 70, 127
5, 44845, Note_on_c, 3, 70, 0
5, 44850, Note_on_c, 3, 73, 127
5, 44875, Note_on_c, 3, 73, 0
5, 44880, Note_on_c, 3, 70, 127
5, 44905, Note_on_c, 3, 70, 0
5, 44910, Note_on_c, 3, 66, 127
5, 44935, Note_on_c, 3, 66, 0
5, 44940, Note_on_c, 3, 61, 127
5, 44965, Note_on_c, 3, 61, 0
5, 44970, Note_on_c, 3, 66, 127
5, 44995, Note_on_c, 3, 66, 0
5, 45000, Note_on_c, 3, 61, 127
5, 45025, Note_on_c, 3, 61, 0
5, 45030, Note_on_c, 3, 70, 127
5, 45055, Note_on_c, 3, 70, 0
5, 45060, Note_on_c, 3, 61, 127
5, 45085, Note_on_c, 3, 61, 0
5, 45090, Note_on_c, 3, 66, 127
5, 45115, Note_on_c, 3, 66, 0
5, 45120, Note_on_c, 3, 61, 127
5, 45145, Note_on_c, 3, 61, 0
5, 45150, Note_on_c, 3, 68, 127
5, 45175, Note_on_c, 3, 68, 0
5, 45180, Note_on_c, 3, 63, 127
5, 45205, Note_on_c, 3, 63, 0
5, 45210, Note_on_c, 3, 68, 127
5, 45235, Note_on_c, 3, 68, 0
5, 45240, Note_on_c, 3, 63, 127
5, 45265, Note_on_c, 3, 63, 0
5, 45270, Note_on_c, 3, 72, 127
5, 45295, Note_on_c, 3, 72, 0
5, 45300, Note_on_c, 3, 63, 127
5, 45325, Note_on_c, 3, 63, 0
5, 45330, Note_on_c, 3, 68, 127
5, 45355, Note_on_c, 3, 68, 0
5, 45360, Note_on_c, 3, 63, 127
5, 45385, Note_on_c, 3, 63, 0
5, 45390, Note_on_c, 3, 70, 127
5, 45415, Note_on_c, 3, 70, 0
5, 45420, Note_on_c, 3, 65, 127
5, 45445, Note_on_c, 3, 65, 0
5, 45450, Note_on_c, 3, 70, 127
5, 45475, Note_on_c, 3, 70, 0
5, 45480, Note_on_c, 3, 65, 127
5, 45505, Note_on_c, 3, 65, 0
5, 45510, Note_on_c, 3, 73, 127
5, 45535, Note_on_c, 3, 73, 0
5, 45540, Note_on_c, 3, 65, 127
5, 45565, Note_on_c, 3, 65, 0
5, 45570, Note_on_c, 3, 70, 127
5, 45595, Note_on_c, 3, 70, 0
5, 45600, Note_on_c, 3, 65, 127
5, 45625, Note_on_c, 3, 65, 0
5, 45630, Note_on_c, 3, 77, 127
5, 45655, Note_on_c, 3, 77, 0
5, 45660, Note_on_c, 3, 70, 127
5, 45685, Note_on_c, 3, 70, 0
5, 45690, Note_on_c, 3, 73, 127
5, 45715, Note_on_c, 3, 73, 0
5, 45720, Note_on_c, 3, 70, 127
5, 45745, Note_on_c, 3, 70, 0
5, 45750, Note_on_c, 3, 75, 127
5, 45775, Note_on_c, 3, 75, 0
5, 45780, Note_on_c, 3, 70, 127
5, 45805, Note_on_c, 3, 70, 0
5, 45810, Note_on_c, 3, 73, 127
5, 45835, Note_on_c, 3, 73, 0
5, 45840, Note_on_c, 3, 70, 127
5, 45865, Note_on_c, 3, 70, 0
5, 45870, Note_on_c, 3, 66, 127
5, 45895, Note_on_c, 3, 66, 0
5, 45900, Note_on_c, 3, 61, 127
5, 45925, Note_on_c, 3, 61, 0
5, 45930, Note_on_c, 3, 66, 127
5, 45955, Note_on_c, 3, 66, 0
5, 45960, Note_on_c, 3, 61, 127
5, 45985, Note_on_c, 3, 61, 0
5, 45990, Note_on_c, 3, 70, 127
5, 46015, Note_on_c, 3, 70, 0
5, 46020, Note_on_c, 3, 61, 127
5, 46045, Note_on_c, 3, 61, 0
5, 46050, Note_on_c, 3, 66, 127
5, 46075, Note_on_c, 3, 66, 0
5, 46080, Note_on_c, 3, 61, 127
5, 46105, Note_on_c, 3, 61, 0
5, 46110, Note_on_c, 3, 68, 127
5, 46135, Note_on_c, 3, 68, 0
5, 46140, Note_on_c, 3, 63, 127
5, 46165, Note_on_c, 3, 63, 0
5, 46170, Note_on_c, 3, 68, 127
5, 46195, Note_on_c, 3, 68, 0
5, 46200, Note_on_c, 3, 63, 127
5, 46225, Note_on_c, 3, 63, 0
5, 46230, Note_on_c, 3, 72, 127
5, 46255, Note_on_c, 3, 72, 0
5, 46260, Note_on_c, 3, 63, 127
5, 46285, Note_on_c, 3, 63, 0
5, 46290, Note_on_c, 3, 68, 127
5, 46315, Note_on_c, 3, 68, 0
5, 46320, Note_on_c, 3, 63, 127
5, 46345, Note_on_c, 3, 63, 0
5, 46350, Note_on_c, 3, 70, 127
5, 46375, Note_on_c, 3, 70, 0
5, 46380, Note_on_c, 3, 65, 127
5, 46405, Note_on_c, 3, 65, 0
5, 46410, Note_on_c, 3, 70, 127
5, 46435, Note_on_c, 3, 70, 0
5, 46440, Note_on_c, 3, 65, 127
5, 46465, Note_on_c, 3, 65, 0
5, 46470, Note_on_c, 3, 73, 127
5, 46495, Note_on_c, 3, 73, 0
5, 46500, Note_on_c, 3, 65, 127
5, 46525, Note_on_c, 3, 65, 0
5, 46530, Note_on_c, 3, 70, 127
5, 46555, Note_on_c, 3, 70, 0
5, 46560, Note_on_c, 3, 65, 127
5, 46585, Note_on_c, 3, 65, 0
5, 46590, Note_on_c, 3, 77, 127
5, 46615, Note_on_c, 3, 77, 0
5, 46620, Note_on_c, 3, 70, 127
5, 46645, Note_on_c, 3, 70, 0
5, 46650, Note_on_c, 3, 73, 127
5, 46675, Note_on_c, 3, 73, 0
5, 46680, Note_on_c, 3, 70, 127
5, 46705, Note_on_c, 3, 70, 0
5, 46710, Note_on_c, 3, 75, 127
5, 46735, Note_on_c, 3, 75, 0
5, 46740, Note_on_c, 3, 70, 127
5, 46765, Note_on_c, 3, 70, 0
5, 46770, Note_on_c, 3, 73, 127
5, 46795, Note_on_c, 3, 73, 0
5, 46800, Note_on_c, 3, 70, 127
5, 46825, Note_on_c, 3, 70, 0
5, 46830, Note_on_c, 3, 66, 127
5, 46855, Note_on_c, 3, 66, 0
5, 46860, Note_on_c, 3, 61, 127
5, 46885, Note_on_c, 3, 61, 0
5, 46890, Note_on_c, 3, 66, 127
5, 46915, Note_on_c, 3, 66, 0
5, 46920, Note_on_c, 3, 61, 127
5, 46945, Note_on_c, 3, 61, 0
5, 46950, Note_on_c, 3, 70, 127
5, 46975, Note_on_c, 3, 70, 0
5, 46980, Note_on_c, 3, 61, 127
5, 47005, Note_on_c, 3, 61, 0
5, 47010, Note_on_c, 3, 66, 127
5, 47035, Note_on_c, 3, 66, 0
5, 47040, Note_on_c, 3, 61, 127
5, 47065, Note_on_c, 3, 61, 0
5, 47070, Note_on_c, 3, 68, 127
5, 47095, Note_on_c, 3, 68, 0
5, 47100, Note_on_c, 3, 63, 127
5, 47125, Note_on_c, 3, 63, 0
5, 47130, Note_on_c, 3, 68, 127
5, 47155, Note_on_c, 3, 68, 0
5, 47160, Note_on_c, 3, 63, 127
5, 47185, Note_on_c, 3, 63, 0
5, 47190, Note_on_c, 3, 72, 127
5, 47215, Note_on_c, 3, 72, 0
5, 47220, Note_on_c, 3, 63, 127
5, 47245, Note_on_c, 3, 63, 0
5, 47250, Note_on_c, 3, 68, 127
5, 47275, Note_on_c, 3, 68, 0
5, 47280, Note_on_c, 3, 63, 127
5, 47305, Note_on_c, 3, 63, 0
5, 47310, Note_on_c, 3, 70, 127
5, 47335, Note_on_c, 3, 70, 0
5, 47340, Note_on_c, 3, 65, 127
5, 47365, Note_on_c, 3, 65, 0
5, 47370, Note_on_c, 3, 70, 127
5, 47395, Note_on_c, 3, 70, 0
5, 47400, Note_on_c, 3, 65, 127
5, 47425, Note_on_c, 3, 65, 0
5, 47430, Note_on_c, 3, 73, 127
5, 47455, Note_on_c, 3, 73, 0
5, 47460, Note_on_c, 3, 65, 127
5, 47485, Note_on_c, 3, 65, 0
5, 47490, Note_on_c, 3, 70, 127
5, 47515, Note_on_c, 3, 70, 0
5, 47520, Note_on_c, 3, 65, 127
5, 47545, Note_on_c, 3, 65, 0
5, 47550, Note_on_c, 3, 77, 127
5, 47575, Note_on_c, 3, 77, 0
5, 47580, Note_on_c, 3, 70, 127
5, 47605, Note_on_c, 3, 70, 0
5, 47610, Note_on_c, 3, 73, 127
5, 47635, Note_on_c, 3, 73, 0
5, 47640, Note_on_c, 3, 70, 127
5, 47665, Note_on_c, 3, 70, 0
5, 47670, Note_on_c, 3, 75, 127
5, 47695, Note_on_c, 3, 75, 0
5, 47700, Note_on_c, 3, 70, 127
5, 47725, Note_on_c, 3, 70, 0
5, 47730, Note_on_c, 3, 73, 127
5, 47755, Note_on_c, 3, 73, 0
5, 47760, Note_on_c, 3, 70, 127
5, 47785, Note_on_c, 3, 70, 0
5, 47790, Note_on_c, 3, 66, 127
5, 47815, Note_on_c, 3, 66, 0
5, 47820, Note_on_c, 3, 61, 127
5, 47845, Note_on_c, 3, 61, 0
5, 47850, Note_on_c, 3, 66, 127
5, 47875, Note_on_c, 3, 66, 0
5, 47880, Note_on_c, 3, 61, 127
5, 47905, Note_on_c, 3, 61, 0
5, 47910, Note_on_c, 3, 70, 127
5, 47935, Note_on_c, 3, 70, 0
5, 47940, Note_on_c, 3, 61, 127
5, 47965, Note_on_c, 3, 61, 0
5, 47970, Note_on_c, 3, 66, 127
5, 47995, Note_on_c, 3, 66, 0
5, 48000, Note_on_c, 3, 61, 127
5, 48025, Note_on_c, 3, 61, 0
5, 48030, Note_on_c, 3, 68, 127
5, 48055, Note_on_c, 3, 68, 0
5, 48060, Note_on_c, 3, 63, 127
5, 48085, Note_on_c, 3, 63, 0
5, 48090, Note_on_c, 3, 68, 127
5, 48115, Note_on_c, 3, 68, 0
5, 48120, Note_on_c, 3, 63, 127
5, 48145, Note_on_c, 3, 63, 0
5, 48150, Note_on_c, 3, 72, 127
5, 48175, Note_on_c, 3, 72, 0
5, 48180, Note_on_c, 3, 63, 127
5, 48205, Note_on_c, 3, 63, 0
5, 48210, Note_on_c, 3, 68, 127
5, 48235, Note_on_c, 3, 68, 0
5, 48240, Note_on_c, 3, 63, 127
5, 48265, Note_on_c, 3, 63, 0
5, 48270, Note_on_c, 3, 70, 127
5, 48295, Note_on_c, 3, 70, 0
5, 48300, Note_on_c, 3, 65, 127
5, 48325, Note_on_c, 3, 65, 0
5, 48330, Note_on_c, 3, 70, 127
5, 48355, Note_on_c, 3, 70, 0
5, 48360, Note_on_c, 3, 65, 127
5, 48385, Note_on_c, 3, 65, 0
5, 48390, Note_on_c, 3, 73, 127
5, 48415, Note_on_c, 3, 73, 0
5, 48420, Note_on_c, 3, 65, 127
5, 48445, Note_on_c, 3, 65, 0
5, 48450, Note_on_c, 3, 70, 127
5, 48475, Note_on_c, 3, 70, 0
5, 48480, Note_on_c, 3, 65, 127
5, 48505, Note_on_c, 3, 65, 0
5, 48510, Note_on_c, 3, 77, 127
5, 48535, Note_on_c, 3, 77, 0
5, 48540, Note_on_c, 3, 70, 127
5, 48565, Note_on_c, 3, 70, 0
5, 48570, Note_on_c, 3, 73, 127
5, 48595, Note_on_c, 3, 73, 0
5, 48600, Note_on_c, 3, 70, 127
5, 48625, Note_on_c, 3, 70, 0
5, 48630, Note_on_c, 3, 75, 127
5, 48655, Note_on_c, 3, 75, 0
5, 48660, Note_on_c, 3, 70, 127
5, 48685, Note_on_c, 3, 70, 0
5, 48690, Note_on_c, 3, 73, 127
5, 48715, Note_on_c, 3, 73, 0
5, 48720, Note_on_c, 3, 70, 127
5, 48745, Note_on_c, 3, 70, 0
5, 48750, Note_on_c, 3, 66, 127
5, 48775, Note_on_c, 3, 66, 0
5, 48780, Note_on_c, 3, 61, 127
5, 48805, Note_on_c, 3, 61, 0
5, 48810, Note_on_c, 3, 66, 127
5, 48835, Note_on_c, 3, 66, 0
5, 48840, Note_on_c, 3, 61, 127
5, 48865, Note_on_c, 3, 61, 0
5, 48870, Note_on_c, 3, 70, 127
5, 48895, Note_on_c, 3, 70, 0
5, 48900, Note_on_c, 3, 61, 127
5, 48925, Note_on_c, 3, 61, 0
5, 48930, Note_on_c, 3, 66, 127
5, 48955, Note_on_c, 3, 66, 0
5, 48960, Note_on_c, 3, 61, 127
5, 48985, Note_on_c, 3, 61, 0
5, 48990, Note_on_c, 3, 68, 127
5, 49015, Note_on_c, 3, 68, 0
5, 49020, Note_on_c, 3, 63, 127
5, 49045, Note_on_c, 3, 63, 0
5, 49050, Note_on_c, 3, 68, 127
5, 49075, Note_on_c, 3, 68, 0
5, 49080, Note_on_c, 3, 63, 127
5, 49105, Note_on_c, 3, 63, 0
5, 49110, Note_on_c, 3, 72, 127
5, 49135, Note_on_c, 3, 72, 0
5, 49140, Note_on_c, 3, 63, 127
5, 49165, Note_on_c, 3, 63, 0
5, 49170, Note_on_c, 3, 68, 127
5, 49195, Note_on_c, 3, 68, 0
5, 49200, Note_on_c, 3, 63, 127
5, 49225, Note_on_c, 3, 63, 0
5, 49230, Note_on_c, 3, 70, 127
5, 49255, Note_on_c, 3, 70, 0
5, 49260, Note_on_c, 3, 65, 127
5, 49285, Note_on_c, 3, 65, 0
5, 49290, Note_on_c, 3, 70, 127
5, 49315, Note_on_c, 3, 70, 0
5, 49320, Note_on_c, 3, 65, 127
5, 49345, Note_on_c, 3, 65, 0
5, 49350, Note_on_c, 3, 73, 127
5, 49375, Note_on_c, 3, 73, 0
5, 49380, Note_on_c, 3, 65, 127
5, 49405, Note_on_c, 3, 65, 0
5, 49410, Note_on_c, 3, 70, 127
5, 49435, Note_on_c, 3, 70, 0
5, 49440, Note_on_c, 3, 65, 127
5, 49465, Note_on_c, 3, 65, 0
5, 49470, Note_on_c, 3, 77, 127
5, 49495, Note_on_c, 3, 77, 0
5, 49500, Note_on_c, 3, 70, 127
5, 49525, Note_on_c, 3, 70, 0
5, 49530, Note_on_c, 3, 73, 127
5, 49555, Note_on_c, 3, 73, 0
5, 49560, Note_on_c, 3, 70, 127
5, 49585, Note_on_c, 3, 70, 0
5, 49590, Note_on_c, 3, 75, 127
5, 49615, Note_on_c, 3, 75, 0
5, 49620, Note_on_c, 3, 70, 127
5, 49645, Note_on_c, 3, 70, 0
5, 49650, Note_on_c, 3, 73, 127
5, 49675, Note_on_c, 3, 73, 0
5, 49680, Note_on_c, 3, 70, 127
5, 49705, Note_on_c, 3, 70, 0
5, 49710, Note_on_c, 3, 66, 127
5, 49735, Note_on_c, 3, 66, 0
5, 49740, Note_on_c, 3, 61, 127
5, 49765, Note_on_c, 3, 61, 0
5, 49770, Note_on_c, 3, 66, 127
5, 49795, Note_on_c, 3, 66, 0
5, 49800, Note_on_c, 3, 61, 127
5, 49825, Note_on_c, 3, 61, 0
5, 49830, Note_on_c, 3, 70, 127
5, 49855, Note_on_c, 3, 70, 0
5, 49860, Note_on_c, 3, 61, 127
5, 49885, Note_on_c, 3, 61, 0
5, 49890, Note_on_c, 3, 66, 127
5, 49915, Note_on_c, 3, 66, 0
5, 49920, Note_on_c, 3, 61, 127
5, 49945, Note_on_c, 3, 61, 0
5, 49950, Note_on_c, 3, 68, 127
5, 49975, Note_on_c, 3, 68, 0
5, 49980, Note_on_c, 3, 63, 127
5, 50005, Note_on_c, 3, 63, 0
5, 50010, Note_on_c, 3, 68, 127
5, 50035, Note_on_c, 3, 68, 0
5, 50040, Note_on_c, 3, 63, 127
5, 50065, Note_on_c, 3, 63, 0
5, 50070, Note_on_c, 3, 72, 127
5, 50095, Note_on_c, 3, 72, 0
5, 50100, Note_on_c, 3, 63, 127
5, 50125, Note_on_c, 3, 63, 0
5, 50130, Note_on_c, 3, 68, 127
5, 50155, Note_on_c, 3, 68, 0
5, 50160, Note_on_c, 3, 63, 127
5, 50185, Note_on_c, 3, 63, 0
5, 50190, Note_on_c, 3, 70, 127
5, 50215, Note_on_c, 3, 70, 0
5, 50220, Note_on_c, 3, 65, 127
5, 50245, Note_on_c, 3, 65, 0
5, 50250, Note_on_c, 3, 70, 127
5, 50275, Note_on_c, 3, 70, 0
5, 50280, Note_on_c, 3, 65, 127
5, 50305, Note_on_c, 3, 65, 0
5, 50310, Note_on_c, 3, 73, 127
5, 50335, Note_on_c, 3, 73, 0
5, 50340, Note_on_c, 3, 65, 127
5, 50365, Note_on_c, 3, 65, 0
5, 50370, Note_on_c, 3, 70, 127
5, 50395, Note_on_c, 3, 70, 0
5, 50400, Note_on_c, 3, 65, 127
5, 50425, Note_on_c, 3, 65, 0
5, 50430, Note_on_c, 3, 77, 127
5, 50455, Note_on_c, 3, 77, 0
5, 50460, Note_on_c, 3, 70, 127
5, 50485, Note_on_c, 3, 70, 0
5, 50490, Note_on_c, 3, 73, 127
5, 50515, Note_on_c, 3, 73, 0
5, 50520, Note_on_c, 3, 70, 127
5, 50545, Note_on_c, 3, 70, 0
5, 50550, Note_on_c, 3, 75, 127
5, 50575, Note_on_c, 3, 75, 0
5, 50580, Note_on_c, 3, 70, 127
5, 50605, Note_on_c, 3, 70, 0
5, 50610, Note_on_c, 3, 73, 127
5, 50635, Note_on_c, 3, 73, 0
5, 50640, Note_on_c, 3, 70, 127
5, 50665, Note_on_c, 3, 70, 0
5, 50670, Note_on_c, 3, 66, 127
5, 50695, Note_on_c, 3, 66, 0
5, 50700, Note_on_c, 3, 61, 127
5, 50725, Note_on_c, 3, 61, 0
5, 50730, Note_on_c, 3, 66, 127
5, 50755, Note_on_c, 3, 66, 0
5, 50760, Note_on_c, 3, 61, 127
5, 50785, Note_on_c, 3, 61, 0
5, 50790, Note_on_c, 3, 70, 127
5, 50815, Note_on_c, 3, 70, 0
5, 50820, Note_on_c, 3, 61, 127
5, 50845, Note_on_c, 3, 61, 0
5, 50850, Note_on_c, 3, 66, 127
5, 50875, Note_on_c, 3, 66, 0
5, 50880, Note_on_c, 3, 61, 127
5, 50905, Note_on_c, 3, 61, 0
5, 50910, Note_on_c, 3, 68, 127
5, 50935, Note_on_c, 3, 68, 0
5, 50940, Note_on_c, 3, 63, 127
5, 50965, Note_on_c, 3, 63, 0
5, 50970, Note_on_c, 3, 68, 127
5, 50995, Note_on_c, 3, 68, 0
5, 51000, Note_on_c, 3, 63, 127
5, 51025, Note_on_c, 3, 63, 0
5, 51030, Note_on_c, 3, 72, 127
5, 51055, Note_on_c, 3, 72, 0
5, 51060, Note_on_c, 3, 63, 127
5, 51085, Note_on_c, 3, 63, 0
5, 51090, Note_on_c, 3, 68, 127
5, 51115, Note_on_c, 3, 68, 0
5, 51120, Note_on_c, 3, 63, 127
5, 51145, Note_on_c, 3, 63, 0
5, 51150, Note_on_c, 3, 70, 127
5, 51175, Note_on_c, 3, 70, 0
5, 51180, Note_on_c, 3, 65, 127
5, 51205, Note_on_c, 3, 65, 0
5, 51210, Note_on_c, 3, 70, 127
5, 51235, Note_on_c, 3, 70, 0
5, 51240, Note_on_c, 3, 65, 127
5, 51265, Note_on_c, 3, 65, 0
5, 51270, Note_on_c, 3, 73, 127
5, 51295, Note_on_c, 3, 73, 0
5, 51300, Note_on_c, 3, 65, 127
5, 51325, Note_on_c, 3, 65, 0
5, 51330, Note_on_c, 3, 70, 127
5, 51355, Note_on_c, 3, 70, 0
5, 51360, Note_on_c, 3, 65, 127
5, 51385, Note_on_c, 3, 65, 0
5, 51390, Note_on_c, 3, 77, 127
5, 51415, Note_on_c, 3, 77, 0
5, 51420, Note_on_c, 3, 70, 127
5, 51445, Note_on_c, 3, 70, 0
5, 51450, Note_on_c, 3, 73, 127
5, 51475, Note_on_c, 3, 73, 0
5, 51480, Note_on_c, 3, 70, 127
5, 51505, Note_on_c, 3, 70, 0
5, 51510, Note_on_c, 3, 75, 127
5, 51535, Note_on_c, 3, 75, 0
5, 51540, Note_on_c, 3, 70, 127
5, 51565, Note_on_c, 3, 70, 0
5, 51570, Note_on_c, 3, 73, 127
5, 51595, Note_on_c, 3, 73, 0
5, 51600, Note_on_c, 3, 70, 127
5, 51625, Note_on_c, 3, 70, 0
5, 51630, Note_on_c, 3, 66, 127
5, 51655, Note_on_c, 3, 66, 0
5, 51660, Note_on_c, 3, 61, 127
5, 51685, Note_on_c, 3, 61, 0
5, 51690, Note_on_c, 3, 66, 127
5, 51715, Note_on_c, 3, 66, 0
5, 51720, Note_on_c, 3, 61, 127
5, 51745, Note_on_c, 3, 61, 0
5, 51750, Note_on_c, 3, 70, 127
5, 51775, Note_on_c, 3, 70, 0
5, 51780, Note_on_c, 3, 61, 127
5, 51805, Note_on_c, 3, 61, 0
5, 51810, Note_on_c, 3, 66, 127
5, 51835, Note_on_c, 3, 66, 0
5, 51840, Note_on_c, 3, 61, 127
5, 51865, Note_on_c, 3, 61, 0
5, 51870, Note_on_c, 3, 68, 127
5, 51895, Note_on_c, 3, 68, 0
5, 51900, Note_on_c, 3, 63, 127
5, 51925, Note_on_c, 3, 63, 0
5, 51930, Note_on_c, 3, 68, 127
5, 51955, Note_on_c, 3, 68, 0
5, 51960, Note_on_c, 3, 63, 127
5, 51985, Note_on_c, 3, 63, 0
5, 51990, Note_on_c, 3, 72, 127
5, 52015, Note_on_c, 3, 72, 0
5, 52020, Note_on_c, 3, 63, 127
5, 52045, Note_on_c, 3, 63, 0
5, 52050, Note_on_c, 3, 68, 127
5, 52075, Note_on_c, 3, 68, 0
5, 52080, Note_on_c, 3, 63, 127
5, 52105, Note_on_c, 3, 63, 0
5, 52110, Note_on_c, 3, 70, 127
5, 52135, Note_on_c, 3, 70, 0
5, 52140, Note_on_c, 3, 65, 127
5, 52165, Note_on_c, 3, 65, 0
5, 52170, Note_on_c, 3, 70, 127
5, 52195, Note_on_c, 3, 70, 0
5, 52200, Note_on_c, 3, 65, 127
5, 52225, Note_on_c, 3, 65, 0
5, 52230, Note_on_c, 3, 73, 127
5, 52255, Note_on_c, 3, 73, 0
5, 52260, Note_on_c, 3, 65, 127
5, 52285, Note_on_c, 3, 65, 0
5, 52290, Note_on_c, 3, 70, 127
5, 52315, Note_on_c, 3, 70, 0
5, 52320, Note_on_c, 3, 65, 127
5, 52345, Note_on_c, 3, 65, 0
5, 52350, Note_on_c, 3, 77, 127
5, 52375, Note_on_c, 3, 77, 0
5, 52380, Note_on_c, 3, 70, 127
5, 52405, Note_on_c, 3, 70, 0
5, 52410, Note_on_c, 3, 73, 127
5, 52435, Note_on_c, 3, 73, 0
5, 52440, Note_on_c, 3, 70, 127
5, 52465, Note_on_c, 3, 70, 0
5, 52470, Note_on_c, 3, 75, 127
5, 52495, Note_on_c, 3, 75, 0
5, 52500, Note_on_c, 3, 70, 127
5, 52525, Note_on_c, 3, 70, 0
5, 52530, Note_on_c, 3, 73, 127
5, 52555, Note_on_c, 3, 73, 0
5, 52560, Note_on_c, 3, 70, 127
5, 52585, Note_on_c, 3, 70, 0
5, 52590, Note_on_c, 3, 66, 127
5, 52615, Note_on_c, 3, 66, 0
5, 52620, Note_on_c, 3, 61, 127
5, 52645, Note_on_c, 3, 61, 0
5, 52650, Note_on_c, 3, 66, 127
5, 52675, Note_on_c, 3, 66, 0
5, 52680, Note_on_c, 3, 61, 127
5, 52705, Note_on_c, 3, 61, 0
5, 52710, Note_on_c, 3, 70, 127
5, 52735, Note_on_c, 3, 70, 0
5, 52740, Note_on_c, 3, 61, 127
5, 52765, Note_on_c, 3, 61, 0
5, 52770, Note_on_c, 3, 66, 127
5, 52795, Note_on_c, 3, 66, 0
5, 52800, Note_on_c, 3, 61, 127
5, 52825, Note_on_c, 3, 61, 0
5, 52830, Note_on_c, 3, 68, 127
5, 52855, Note_on_c, 3, 68, 0
5, 52860, Note_on_c, 3, 63, 127
5, 52885, Note_on_c, 3, 63, 0
5, 52890, Note_on_c, 3, 68, 127
5, 52915, Note_on_c, 3, 68, 0
5, 52920, Note_on_c, 3, 63, 127
5, 52945, Note_on_c, 3, 63, 0
5, 52950, Note_on_c, 3, 72, 127
5, 52975, Note_on_c, 3, 72, 0
5, 52980, Note_on_c, 3, 63, 127
5, 53005, Note_on_c, 3, 63, 0
5, 53010, Note_on_c, 3, 68, 127
5, 53035, Note_on_c, 3, 68, 0
5, 53040, Note_on_c, 3, 63, 127
5, 53065, Note_on_c, 3, 63, 0
5, 53070, Note_on_c, 3, 70, 127
5, 53095, Note_on_c, 3, 70, 0
5, 53100, Note_on_c, 3, 65, 127
5, 53125, Note_on_c, 3, 65, 0
5, 53130, Note_on_c, 3, 70, 127
5, 53155, Note_on_c, 3, 70, 0
5, 53160, Note_on_c, 3, 65, 127
5, 53185, Note_on_c, 3, 65, 0
5, 53190, Note_on_c, 3, 73, 127
5, 53215, Note_on_c, 3, 73, 0
5, 53220, Note_on_c, 3, 65, 127
5, 53245, Note_on_c, 3, 65, 0
5, 53250, Note_on_c, 3, 70, 127
5, 53275, Note_on_c, 3, 70, 0
5, 53280, Note_on_c, 3, 65, 127
5, 53305, Note_on_c, 3, 65, 0
5, 53310, Note_on_c, 3, 77, 127
5, 53335, Note_on_c, 3, 77, 0
5, 53340, Note_on_c, 3, 70, 127
5, 53365, Note_on_c, 3, 70, 0
5, 53370, Note_on_c, 3, 73, 127
5, 53395, Note_on_c, 3, 73, 0
5, 53400, Note_on_c, 3, 70, 127
5, 53425, Note_on_c, 3, 70, 0
5, 53430, Note_on_c, 3, 75, 127
5, 53455, Note_on_c, 3, 75, 0
5, 53460, Note_on_c, 3, 70, 127
5, 53485, Note_on_c, 3, 70, 0
5, 53490, Note_on_c, 3, 73, 127
5, 53515, Note_on_c, 3, 73, 0
5, 53520, Note_on_c, 3, 70, 127
5, 53545, Note_on_c, 3, 70, 0
5, 53550, Note_on_c, 3, 66, 127
5, 53575, Note_on_c, 3, 66, 0
5, 53580, Note_on_c, 3, 61, 127
5, 53605, Note_on_c, 3, 61, 0
5, 53610, Note_on_c, 3, 66, 127
5, 53635, Note_on_c, 3, 66, 0
5, 53640, Note_on_c, 3, 61, 127
5, 53665, Note_on_c, 3, 61, 0
5, 53670, Note_on_c, 3, 70, 127
5, 53695, Note_on_c, 3, 70, 0
5, 53700, Note_on_c, 3, 61, 127
5, 53725, Note_on_c, 3, 61, 0
5, 53730, Note_on_c, 3, 66, 127
5, 53755, Note_on_c, 3, 66, 0
5, 53760, Note_on_c, 3, 61, 127
5, 53785, Note_on_c, 3, 61, 0
5, 53790, Note_on_c, 3, 68, 127
5, 53815, Note_on_c, 3, 68, 0
5, 53820, Note_on_c, 3, 63, 127
5, 53845, Note_on_c, 3, 63, 0
5, 53850, Note_on_c, 3, 68, 127
5, 53875, Note_on_c, 3, 68, 0
5, 53880, Note_on_c, 3, 63, 127
5, 53905, Note_on_c, 3, 63, 0
5, 53910, Note_on_c, 3, 72, 127
5, 53935, Note_on_c, 3, 72, 0
5, 53940, Note_on_c, 3, 63, 127
5, 53965, Note_on_c, 3, 63, 0
5, 53970, Note_on_c, 3, 68, 127
5, 53995, Note_on_c, 3, 68, 0
5, 54000, Note_on_c, 3, 63, 127
5, 54025, Note_on_c, 3, 63, 0
5, 54030, Note_on_c, 3, 70, 127
5, 54055, Note_on_c, 3, 70, 0
5, 54060, Note_on_c, 3, 65, 127
5, 54085, Note_on_c, 3, 65, 0
5, 54090, Note_on_c, 3, 70, 127
5, 54115, Note_on_c, 3, 70, 0
5, 54120, Note_on_c, 3, 65, 127
5, 54145, Note_on_c, 3, 65, 0
5, 54150, Note_on_c, 3, 73, 127
5, 54175, Note_on_c, 3, 73, 0
5, 54180, Note_on_c, 3, 65, 127
5, 54205, Note_on_c, 3, 65, 0
5, 54210, Note_on_c, 3, 70, 127
5, 54235, Note_on_c, 3, 70, 0
5, 54240, Note_on_c, 3, 65, 127
5, 54265, Note_on_c, 3, 65, 0
5, 54800, Control_c, 3, 99, 1
5, 54800, Control_c, 3, 98, 99
5, 54800, Control_c, 3, 6, 64
5, 54800, Control_c, 3, 99, 1
5, 54800, Control_c, 3, 98, 102
5, 54800, Control_c, 3, 6, 64
5, 54810, Control_c, 3, 0, 0
5, 54810, Program_c, 3, 0
5, 54810, Control_c, 3, 7, 127
5, 54810, Control_c, 3, 91, 80
5, 54810, Control_c, 3, 93, 0
5, 54810, Control_c, 3, 119, 0
5, 54810, Control_c, 3, 121, 0
5, 54810, End_track
6, 0, Start_track
6, 0, MIDI_port, 0
6, 0, Title_t, "WinJammer Demo"
6, 0, Program_c, 4, 119
6, 20, Control_c, 4, 0, 127
6, 20, Control_c, 4, 91, 127
6, 20, Control_c, 4, 93, 127
6, 20, Control_c, 4, 99, 1
6, 20, Control_c, 4, 98, 102
6, 20, Control_c, 4, 6, 114
6, 20, Control_c, 4, 7, 127
6, 1470, Note_on_c, 4, 60, 127
6, 1470, Note_on_c, 4, 48, 127
6, 1475, Note_on_c, 4, 48, 0
6, 1475, Note_on_c, 4, 60, 0
6, 1590, Note_on_c, 4, 60, 98
6, 1590, Note_on_c, 4, 48, 98
6, 1595, Note_on_c, 4, 48, 0
6, 1595, Note_on_c, 4, 60, 0
6, 1680, Note_on_c, 4, 60, 76
6, 1680, Note_on_c, 4, 48, 76
6, 1685, Note_on_c, 4, 48, 0
6, 1685, Note_on_c, 4, 60, 0
6, 1770, Note_on_c, 4, 60, 54
6, 1770, Note_on_c, 4, 48, 54
6, 1775, Note_on_c, 4, 48, 0
6, 1775, Note_on_c, 4, 60, 0
6, 1890, Note_on_c, 4, 60, 15
6, 1890, Note_on_c, 4, 48, 15
6, 1895, Note_on_c, 4, 48, 0
6, 1895, Note_on_c, 4, 60, 0
6, 3390, Note_on_c, 4, 60, 127
6, 3390, Note_on_c, 4, 48, 127
6, 3395, Note_on_c, 4, 48, 0
6, 3395, Note_on_c, 4, 60, 0
6, 3510, Note_on_c, 4, 60, 98
6, 3510, Note_on_c, 4, 48, 98
6, 3515, Note_on_c, 4, 48, 0
6, 3515, Note_on_c, 4, 60, 0
6, 3600, Note_on_c, 4, 60, 76
6, 3600, Note_on_c, 4, 48, 76
6, 3605, Note_on_c, 4, 48, 0
6, 3605, Note_on_c, 4, 60, 0
6, 3690, Note_on_c, 4, 60, 54
6, 3690, Note_on_c, 4, 48, 54
6, 3695, Note_on_c, 4, 48, 0
6, 3695, Note_on_c, 4, 60, 0
6, 3810, Note_on_c, 4, 60, 15
6, 3810, Note_on_c, 4, 48, 15
6, 3815, Note_on_c, 4, 48, 0
6, 3815, Note_on_c, 4, 60, 0
6, 5310, Note_on_c, 4, 60, 127
6, 5310, Note_on_c, 4, 48, 127
6, 5315, Note_on_c, 4, 48, 0
6, 5315, Note_on_c, 4, 60, 0
6, 5430, Note_on_c, 4, 60, 98
6, 5430, Note_on_c, 4, 48, 98
6, 5435, Note_on_c, 4, 48, 0
6, 5435, Note_on_c, 4, 60, 0
6, 5520, Note_on_c, 4, 60, 76
6, 5520, Note_on_c, 4, 48, 76
6, 5525, Note_on_c, 4, 48, 0
6, 5525, Note_on_c, 4, 60, 0
6, 5610, Note_on_c, 4, 60, 54
6, 5610, Note_on_c, 4, 48, 54
6, 5615, Note_on_c, 4, 48, 0
6, 5615, Note_on_c, 4, 60, 0
6, 5730, Note_on_c, 4, 60, 15
6, 5730, Note_on_c, 4, 48, 15
6, 5735, Note_on_c, 4, 48, 0
6, 5735, Note_on_c, 4, 60, 0
6, 7230, Note_on_c, 4, 60, 127
6, 7230, Note_on_c, 4, 48, 127
6, 7235, Note_on_c, 4, 48, 0
6, 7235, Note_on_c, 4, 60, 0
6, 7350, Note_on_c, 4, 60, 98
6, 7350, Note_on_c, 4, 48, 98
6, 7355, Note_on_c, 4, 48, 0
6, 7355, Note_on_c, 4, 60, 0
6, 7440, Note_on_c, 4, 60, 76
6, 7440, Note_on_c, 4, 48, 76
6, 7445, Note_on_c, 4, 48, 0
6, 7445, Note_on_c, 4, 60, 0
6, 7530, Note_on_c, 4, 60, 54
6, 7530, Note_on_c, 4, 48, 54
6, 7535, Note_on_c, 4, 48, 0
6, 7535, Note_on_c, 4, 60, 0
6, 7650, Note_on_c, 4, 60, 15
6, 7650, Note_on_c, 4, 48, 15
6, 7655, Note_on_c, 4, 48, 0
6, 7655, Note_on_c, 4, 60, 0
6, 24510, Note_on_c, 4, 60, 127
6, 24510, Note_on_c, 4, 48, 127
6, 24515, Note_on_c, 4, 48, 0
6, 24515, Note_on_c, 4, 60, 0
6, 24630, Note_on_c, 4, 60, 98
6, 24630, Note_on_c, 4, 48, 98
6, 24635, Note_on_c, 4, 48, 0
6, 24635, Note_on_c, 4, 60, 0
6, 24720, Note_on_c, 4, 60, 76
6, 24720, Note_on_c, 4, 48, 76
6, 24725, Note_on_c, 4, 48, 0
6, 24725, Note_on_c, 4, 60, 0
6, 24810, Note_on_c, 4, 60, 54
6, 24810, Note_on_c, 4, 48, 54
6, 24815, Note_on_c, 4, 48, 0
6, 24815, Note_on_c, 4, 60, 0
6, 24930, Note_on_c, 4, 60, 15
6, 24930, Note_on_c, 4, 48, 15
6, 24935, Note_on_c, 4, 48, 0
6, 24935, Note_on_c, 4, 60, 0
6, 26430, Note_on_c, 4, 60, 127
6, 26430, Note_on_c, 4, 48, 127
6, 26435, Note_on_c, 4, 48, 0
6, 26435, Note_on_c, 4, 60, 0
6, 26550, Note_on_c, 4, 60, 98
6, 26550, Note_on_c, 4, 48, 98
6, 26555, Note_on_c, 4, 48, 0
6, 26555, Note_on_c, 4, 60, 0
6, 26640, Note_on_c, 4, 60, 76
6, 26640, Note_on_c, 4, 48, 76
6, 26645, Note_on_c, 4, 48, 0
6, 26645, Note_on_c, 4, 60, 0
6, 26730, Note_on_c, 4, 60, 54
6, 26730, Note_on_c, 4, 48, 54
6, 26735, Note_on_c, 4, 48, 0
6, 26735, Note_on_c, 4, 60, 0
6, 26850, Note_on_c, 4, 60, 15
6, 26850, Note_on_c, 4, 48, 15
6, 26855, Note_on_c, 4, 48, 0
6, 26855, Note_on_c, 4, 60, 0
6, 51390, Note_on_c, 4, 60, 127
6, 51390, Note_on_c, 4, 48, 127
6, 51395, Note_on_c, 4, 48, 0
6, 51395, Note_on_c, 4, 60, 0
6, 51510, Note_on_c, 4, 60, 98
6, 51510, Note_on_c, 4, 48, 98
6, 51515, Note_on_c, 4, 48, 0
6, 51515, Note_on_c, 4, 60, 0
6, 51600, Note_on_c, 4, 60, 76
6, 51600, Note_on_c, 4, 48, 76
6, 51605, Note_on_c, 4, 48, 0
6, 51605, Note_on_c, 4, 60, 0
6, 51690, Note_on_c, 4, 60, 54
6, 51690, Note_on_c, 4, 48, 54
6, 51695, Note_on_c, 4, 48, 0
6, 51695, Note_on_c, 4, 60, 0
6, 51810, Note_on_c, 4, 60, 15
6, 51810, Note_on_c, 4, 48, 15
6, 51815, Note_on_c, 4, 48, 0
6, 51815, Note_on_c, 4, 60, 0
6, 53310, Note_on_c, 4, 60, 127
6, 53310, Note_on_c, 4, 48, 127
6, 53315, Note_on_c, 4, 48, 0
6, 53315, Note_on_c, 4, 60, 0
6, 53430, Note_on_c, 4, 60, 98
6, 53430, Note_on_c, 4, 48, 98
6, 53435, Note_on_c, 4, 48, 0
6, 53435, Note_on_c, 4, 60, 0
6, 53520, Note_on_c, 4, 60, 76
6, 53520, Note_on_c, 4, 48, 76
6, 53525, Note_on_c, 4, 48, 0
6, 53525, Note_on_c, 4, 60, 0
6, 53610, Note_on_c, 4, 60, 54
6, 53610, Note_on_c, 4, 48, 54
6, 53615, Note_on_c, 4, 48, 0
6, 53615, Note_on_c, 4, 60, 0
6, 53730, Note_on_c, 4, 60, 15
6, 53730, Note_on_c, 4, 48, 15
6, 53735, Note_on_c, 4, 48, 0
6, 53735, Note_on_c, 4, 60, 0
6, 54270, Note_on_c, 4, 48, 127
6, 54270, Note_on_c, 4, 36, 127
6, 54275, Note_on_c, 4, 36, 0
6, 54275, Note_on_c, 4, 48, 0
6, 54390, Note_on_c, 4, 48, 98
6, 54390, Note_on_c, 4, 36, 94
6, 54395, Note_on_c, 4, 36, 0
6, 54395, Note_on_c, 4, 48, 0
6, 54480, Note_on_c, 4, 48, 76
6, 54480, Note_on_c, 4, 36, 69
6, 54485, Note_on_c, 4, 36, 0
6, 54485, Note_on_c, 4, 48, 0
6, 54570, Note_on_c, 4, 48, 54
6, 54570, Note_on_c, 4, 36, 44
6, 54575, Note_on_c, 4, 36, 0
6, 54575, Note_on_c, 4, 48, 0
6, 54690, Note_on_c, 4, 48, 25
6, 54690, Note_on_c, 4, 36, 10
6, 54695, Note_on_c, 4, 36, 0
6, 54695, Note_on_c, 4, 48, 0
6, 54805, Control_c, 4, 99, 1
6, 54805, Control_c, 4, 98, 102
6, 54805, Control_c, 4, 6, 64
6, 54810, Control_c, 4, 0, 0
6, 54810, Program_c, 4, 0
6, 54810, Control_c, 4, 7, 127
6, 54810, Control_c, 4, 91, 80
6, 54810, Control_c, 4, 93, 0
6, 54810, Control_c, 4, 119, 0
6, 54810, Control_c, 4, 121, 0
6, 54810, End_track
7, 0, Start_track
7, 0, MIDI_port, 0
7, 0, Title_t, "WinJammer Demo"
7, 0, Program_c, 5, 0
7, 20, Control_c, 5, 0, 0
7, 20, Program_c, 5, 2
7, 20, Control_c, 5, 7, 90
7, 27390, Note_on_c, 5, 70, 120
7, 27505, Note_on_c, 5, 70, 0
7, 27510, Note_on_c, 5, 75, 120
7, 27565, Note_on_c, 5, 75, 0
7, 27570, Note_on_c, 5, 82, 120
7, 27625, Note_on_c, 5, 82, 0
7, 27630, Note_on_c, 5, 77, 120
7, 27745, Note_on_c, 5, 77, 0
7, 27750, Note_on_c, 5, 78, 120
7, 27805, Note_on_c, 5, 78, 0
7, 27810, Note_on_c, 5, 77, 120
7, 27985, Note_on_c, 5, 77, 0
7, 27990, Note_on_c, 5, 78, 120
7, 28045, Note_on_c, 5, 78, 0
7, 28050, Note_on_c, 5, 77, 120
7, 28300, Note_on_c, 5, 77, 0
7, 28350, Note_on_c, 5, 77, 120
7, 28585, Note_on_c, 5, 77, 0
7, 28590, Note_on_c, 5, 75, 120
7, 28765, Note_on_c, 5, 75, 0
7, 28770, Note_on_c, 5, 77, 120
7, 28885, Note_on_c, 5, 77, 0
7, 28890, Note_on_c, 5, 73, 120
7, 28945, Note_on_c, 5, 73, 0
7, 28950, Note_on_c, 5, 75, 120
7, 29005, Note_on_c, 5, 75, 0
7, 29010, Note_on_c, 5, 72, 120
7, 29065, Note_on_c, 5, 72, 0
7, 29070, Note_on_c, 5, 73, 120
7, 29185, Note_on_c, 5, 73, 0
7, 29190, Note_on_c, 5, 70, 120
7, 29245, Note_on_c, 5, 70, 0
7, 29250, Note_on_c, 5, 68, 120
7, 29305, Note_on_c, 5, 68, 0
7, 29310, Note_on_c, 5, 70, 120
7, 29425, Note_on_c, 5, 70, 0
7, 29430, Note_on_c, 5, 75, 120
7, 29485, Note_on_c, 5, 75, 0
7, 29490, Note_on_c, 5, 82, 120
7, 29545, Note_on_c, 5, 82, 0
7, 29550, Note_on_c, 5, 77, 120
7, 29665, Note_on_c, 5, 77, 0
7, 29670, Note_on_c, 5, 78, 120
7, 29725, Note_on_c, 5, 78, 0
7, 29730, Note_on_c, 5, 77, 120
7, 29905, Note_on_c, 5, 77, 0
7, 29910, Note_on_c, 5, 78, 120
7, 29965, Note_on_c, 5, 78, 0
7, 29970, Note_on_c, 5, 77, 120
7, 30220, Note_on_c, 5, 77, 0
7, 30270, Note_on_c, 5, 77, 120
7, 30505, Note_on_c, 5, 77, 0
7, 30510, Note_on_c, 5, 75, 120
7, 30685, Note_on_c, 5, 75, 0
7, 30690, Note_on_c, 5, 77, 120
7, 30805, Note_on_c, 5, 77, 0
7, 30810, Note_on_c, 5, 73, 120
7, 30865, Note_on_c, 5, 73, 0
7, 30870, Note_on_c, 5, 75, 120
7, 30925, Note_on_c, 5, 75, 0
7, 30930, Note_on_c, 5, 72, 120
7, 30985, Note_on_c, 5, 72, 0
7, 30990, Note_on_c, 5, 73, 120
7, 31105, Note_on_c, 5, 73, 0
7, 31110, Note_on_c, 5, 70, 120
7, 31165, Note_on_c, 5, 70, 0
7, 31170, Note_on_c, 5, 68, 120
7, 31225, Note_on_c, 5, 68, 0
7, 54810, Control_c, 5, 0, 0
7, 54810, Program_c, 5, 0
7, 54810, Control_c, 5, 7, 127
7, 54810, Control_c, 5, 91, 80
7, 54810, Control_c, 5, 93, 0
7, 54810, Control_c, 5, 119, 0
7, 54810, Control_c, 5, 121, 0
7, 54810, End_track
8, 0, Start_track
8, 0, MIDI_port, 0
8, 0, Title_t, "WinJammer Demo"
8, 0, Program_c, 9, 3
8, 20, Program_c, 9, 16
8, 20, Control_c, 9, 7, 127
8, 30, Note_on_c, 9, 31, 90
8, 35, Note_on_c, 9, 31, 0
8, 150, Note_on_c, 9, 31, 90
8, 155, Note_on_c, 9, 31, 0
8, 270, Note_on_c, 9, 31, 90
8, 275, Note_on_c, 9, 31, 0
8, 390, Note_on_c, 9, 31, 90
8, 395, Note_on_c, 9, 31, 0
8, 12030, Note_on_c, 9, 36, 127
8, 12035, Note_on_c, 9, 36, 0
8, 12090, Note_on_c, 9, 46, 110
8, 12095, Note_on_c, 9, 46, 0
8, 12150, Note_on_c, 9, 36, 127
8, 12155, Note_on_c, 9, 36, 0
8, 12210, Note_on_c, 9, 46, 110
8, 12215, Note_on_c, 9, 46, 0
8, 12270, Note_on_c, 9, 36, 127
8, 12275, Note_on_c, 9, 36, 0
8, 12330, Note_on_c, 9, 46, 110
8, 12335, Note_on_c, 9, 46, 0
8, 12390, Note_on_c, 9, 36, 127
8, 12395, Note_on_c, 9, 36, 0
8, 12450, Note_on_c, 9, 46, 110
8, 12455, Note_on_c, 9, 46, 0
8, 12510, Note_on_c, 9, 36, 127
8, 12515, Note_on_c, 9, 36, 0
8, 12570, Note_on_c, 9, 46, 110
8, 12575, Note_on_c, 9, 46, 0
8, 12630, Note_on_c, 9, 36, 127
8, 12635, Note_on_c, 9, 36, 0
8, 12690, Note_on_c, 9, 46, 110
8, 12695, Note_on_c, 9, 46, 0
8, 12750, Note_on_c, 9, 36, 127
8, 12755, Note_on_c, 9, 36, 0
8, 12810, Note_on_c, 9, 46, 110
8, 12815, Note_on_c, 9, 46, 0
8, 12870, Note_on_c, 9, 36, 127
8, 12875, Note_on_c, 9, 36, 0
8, 12930, Note_on_c, 9, 46, 110
8, 12935, Note_on_c, 9, 46, 0
8, 12990, Note_on_c, 9, 36, 127
8, 12995, Note_on_c, 9, 36, 0
8, 13050, Note_on_c, 9, 46, 110
8, 13055, Note_on_c, 9, 46, 0
8, 13110, Note_on_c, 9, 36, 127
8, 13115, Note_on_c, 9, 36, 0
8, 13170, Note_on_c, 9, 46, 110
8, 13175, Note_on_c, 9, 46, 0
8, 13230, Note_on_c, 9, 36, 127
8, 13235, Note_on_c, 9, 36, 0
8, 13290, Note_on_c, 9, 46, 110
8, 13295, Note_on_c, 9, 46, 0
8, 13350, Note_on_c, 9, 36, 127
8, 13355, Note_on_c, 9, 36, 0
8, 13410, Note_on_c, 9, 46, 110
8, 13415, Note_on_c, 9, 46, 0
8, 13470, Note_on_c, 9, 36, 127
8, 13475, Note_on_c, 9, 36, 0
8, 13530, Note_on_c, 9, 46, 110
8, 13535, Note_on_c, 9, 46, 0
8, 13590, Note_on_c, 9, 36, 127
8, 13595, Note_on_c, 9, 36, 0
8, 13650, Note_on_c, 9, 46, 110
8, 13655, Note_on_c, 9, 46, 0
8, 13710, Note_on_c, 9, 36, 127
8, 13715, Note_on_c, 9, 36, 0
8, 13770, Note_on_c, 9, 46, 110
8, 13775, Note_on_c, 9, 46, 0
8, 13830, Note_on_c, 9, 36, 127
8, 13835, Note_on_c, 9, 36, 0
8, 13890, Note_on_c, 9, 46, 110
8, 13895, Note_on_c, 9, 46, 0
8, 13950, Note_on_c, 9, 36, 127
8, 13955, Note_on_c, 9, 36, 0
8, 14010, Note_on_c, 9, 46, 110
8, 14015, Note_on_c, 9, 46, 0
8, 14070, Note_on_c, 9, 36, 127
8, 14075, Note_on_c, 9, 36, 0
8, 14130, Note_on_c, 9, 46, 110
8, 14135, Note_on_c, 9, 46, 0
8, 14190, Note_on_c, 9, 36, 127
8, 14195, Note_on_c, 9, 36, 0
8, 14250, Note_on_c, 9, 46, 110
8, 14255, Note_on_c, 9, 46, 0
8, 14310, Note_on_c, 9, 36, 127
8, 14315, Note_on_c, 9, 36, 0
8, 14370, Note_on_c, 9, 46, 110
8, 14375, Note_on_c, 9, 46, 0
8, 14430, Note_on_c, 9, 36, 127
8, 14435, Note_on_c, 9, 36, 0
8, 14490, Note_on_c, 9, 46, 110
8, 14495, Note_on_c, 9, 46, 0
8, 14550, Note_on_c, 9, 36, 127
8, 14555, Note_on_c, 9, 36, 0
8, 14610, Note_on_c, 9, 46, 110
8, 14615, Note_on_c, 9, 46, 0
8, 14670, Note_on_c, 9, 36, 127
8, 14675, Note_on_c, 9, 36, 0
8, 14730, Note_on_c, 9, 46, 110
8, 14735, Note_on_c, 9, 46, 0
8, 14790, Note_on_c, 9, 36, 127
8, 14795, Note_on_c, 9, 36, 0
8, 14850, Note_on_c, 9, 46, 110
8, 14855, Note_on_c, 9, 46, 0
8, 14910, Note_on_c, 9, 36, 127
8, 14915, Note_on_c, 9, 36, 0
8, 14970, Note_on_c, 9, 46, 110
8, 14975, Note_on_c, 9, 46, 0
8, 15030, Note_on_c, 9, 36, 127
8, 15035, Note_on_c, 9, 36, 0
8, 15090, Note_on_c, 9, 46, 110
8, 15095, Note_on_c, 9, 46, 0
8, 15150, Note_on_c, 9, 36, 127
8, 15155, Note_on_c, 9, 36, 0
8, 15210, Note_on_c, 9, 46, 110
8, 15215, Note_on_c, 9, 46, 0
8, 15270, Note_on_c, 9, 36, 127
8, 15275, Note_on_c, 9, 36, 0
8, 15330, Note_on_c, 9, 46, 110
8, 15335, Note_on_c, 9, 46, 0
8, 15390, Note_on_c, 9, 36, 127
8, 15395, Note_on_c, 9, 36, 0
8, 15450, Note_on_c, 9, 46, 110
8, 15455, Note_on_c, 9, 46, 0
8, 15510, Note_on_c, 9, 36, 127
8, 15515, Note_on_c, 9, 36, 0
8, 15570, Note_on_c, 9, 46, 110
8, 15575, Note_on_c, 9, 46, 0
8, 15630, Note_on_c, 9, 36, 127
8, 15635, Note_on_c, 9, 36, 0
8, 15690, Note_on_c, 9, 46, 110
8, 15695, Note_on_c, 9, 46, 0
8, 15750, Note_on_c, 9, 36, 127
8, 15755, Note_on_c, 9, 36, 0
8, 15810, Note_on_c, 9, 46, 110
8, 15815, Note_on_c, 9, 46, 0
8, 15870, Note_on_c, 9, 36, 127
8, 15870, Note_on_c, 9, 42, 110
8, 15875, Note_on_c, 9, 42, 0
8, 15875, Note_on_c, 9, 36, 0
8, 15900, Note_on_c, 9, 42, 110
8, 15905, Note_on_c, 9, 42, 0
8, 15930, Note_on_c, 9, 46, 110
8, 15935, Note_on_c, 9, 46, 0
8, 15960, Note_on_c, 9, 46, 110
8, 15965, Note_on_c, 9, 46, 0
8, 15990, Note_on_c, 9, 36, 127
8, 15990, Note_on_c, 9, 42, 110
8, 15995, Note_on_c, 9, 42, 0
8, 15995, Note_on_c, 9, 36, 0
8, 16020, Note_on_c, 9, 42, 110
8, 16025, Note_on_c, 9, 42, 0
8, 16050, Note_on_c, 9, 46, 110
8, 16055, Note_on_c, 9, 46, 0
8, 16080, Note_on_c, 9, 46, 110
8, 16085, Note_on_c, 9, 46, 0
8, 16110, Note_on_c, 9, 36, 127
8, 16110, Note_on_c, 9, 42, 110
8, 16115, Note_on_c, 9, 42, 0
8, 16115, Note_on_c, 9, 36, 0
8, 16140, Note_on_c, 9, 42, 110
8, 16145, Note_on_c, 9, 42, 0
8, 16170, Note_on_c, 9, 46, 110
8, 16175, Note_on_c, 9, 46, 0
8, 16200, Note_on_c, 9, 46, 110
8, 16205, Note_on_c, 9, 46, 0
8, 16230, Note_on_c, 9, 36, 127
8, 16230, Note_on_c, 9, 42, 110
8, 16235, Note_on_c, 9, 42, 0
8, 16235, Note_on_c, 9, 36, 0
8, 16260, Note_on_c, 9, 42, 110
8, 16265, Note_on_c, 9, 42, 0
8, 16290, Note_on_c, 9, 46, 110
8, 16295, Note_on_c, 9, 46, 0
8, 16320, Note_on_c, 9, 46, 110
8, 16325, Note_on_c, 9, 46, 0
8, 16350, Note_on_c, 9, 36, 127
8, 16350, Note_on_c, 9, 42, 110
8, 16355, Note_on_c, 9, 42, 0
8, 16355, Note_on_c, 9, 36, 0
8, 16380, Note_on_c, 9, 42, 110
8, 16385, Note_on_c, 9, 42, 0
8, 16410, Note_on_c, 9, 46, 110
8, 16415, Note_on_c, 9, 46, 0
8, 16440, Note_on_c, 9, 46, 110
8, 16445, Note_on_c, 9, 46, 0
8, 16470, Note_on_c, 9, 36, 127
8, 16470, Note_on_c, 9, 42, 110
8, 16475, Note_on_c, 9, 42, 0
8, 16475, Note_on_c, 9, 36, 0
8, 16500, Note_on_c, 9, 42, 110
8, 16505, Note_on_c, 9, 42, 0
8, 16530, Note_on_c, 9, 46, 110
8, 16535, Note_on_c, 9, 46, 0
8, 16560, Note_on_c, 9, 46, 110
8, 16565, Note_on_c, 9, 46, 0
8, 16590, Note_on_c, 9, 36, 127
8, 16590, Note_on_c, 9, 42, 110
8, 16595, Note_on_c, 9, 42, 0
8, 16595, Note_on_c, 9, 36, 0
8, 16620, Note_on_c, 9, 42, 110
8, 16625, Note_on_c, 9, 42, 0
8, 16650, Note_on_c, 9, 46, 110
8, 16655, Note_on_c, 9, 46, 0
8, 16680, Note_on_c, 9, 46, 110
8, 16685, Note_on_c, 9, 46, 0
8, 16710, Note_on_c, 9, 36, 127
8, 16710, Note_on_c, 9, 42, 110
8, 16715, Note_on_c, 9, 42, 0
8, 16715, Note_on_c, 9, 36, 0
8, 16740, Note_on_c, 9, 42, 110
8, 16745, Note_on_c, 9, 42, 0
8, 16770, Note_on_c, 9, 46, 110
8, 16775, Note_on_c, 9, 46, 0
8, 16800, Note_on_c, 9, 46, 110
8, 16805, Note_on_c, 9, 46, 0
8, 16830, Note_on_c, 9, 36, 127
8, 16830, Note_on_c, 9, 42, 110
8, 16835, Note_on_c, 9, 42, 0
8, 16835, Note_on_c, 9, 36, 0
8, 16860, Note_on_c, 9, 42, 110
8, 16865, Note_on_c, 9, 42, 0
8, 16890, Note_on_c, 9, 46, 110
8, 16895, Note_on_c, 9, 46, 0
8, 16920, Note_on_c, 9, 46, 110
8, 16925, Note_on_c, 9, 46, 0
8, 16950, Note_on_c, 9, 36, 127
8, 16950, Note_on_c, 9, 42, 110
8, 16955, Note_on_c, 9, 42, 0
8, 16955, Note_on_c, 9, 36, 0
8, 16980, Note_on_c, 9, 42, 110
8, 16985, Note_on_c, 9, 42, 0
8, 17010, Note_on_c, 9, 46, 110
8, 17015, Note_on_c, 9, 46, 0
8, 17040, Note_on_c, 9, 46, 110
8, 17045, Note_on_c, 9, 46, 0
8, 17070, Note_on_c, 9, 36, 127
8, 17070, Note_on_c, 9, 42, 110
8, 17075, Note_on_c, 9, 42, 0
8, 17075, Note_on_c, 9, 36, 0
8, 17100, Note_on_c, 9, 42, 110
8, 17105, Note_on_c, 9, 42, 0
8, 17130, Note_on_c, 9, 46, 110
8, 17135, Note_on_c, 9, 46, 0
8, 17160, Note_on_c, 9, 46, 110
8, 17165, Note_on_c, 9, 46, 0
8, 17190, Note_on_c, 9, 36, 127
8, 17190, Note_on_c, 9, 42, 110
8, 17195, Note_on_c, 9, 42, 0
8, 17195, Note_on_c, 9, 36, 0
8, 17220, Note_on_c, 9, 42, 110
8, 17225, Note_on_c, 9, 42, 0
8, 17250, Note_on_c, 9, 46, 110
8, 17255, Note_on_c, 9, 46, 0
8, 17280, Note_on_c, 9, 46, 110
8, 17285, Note_on_c, 9, 46, 0
8, 17310, Note_on_c, 9, 36, 127
8, 17310, Note_on_c, 9, 42, 110
8, 17315, Note_on_c, 9, 42, 0
8, 17315, Note_on_c, 9, 36, 0
8, 17340, Note_on_c, 9, 42, 110
8, 17345, Note_on_c, 9, 42, 0
8, 17370, Note_on_c, 9, 46, 110
8, 17375, Note_on_c, 9, 46, 0
8, 17400, Note_on_c, 9, 46, 110
8, 17405, Note_on_c, 9, 46, 0
8, 17430, Note_on_c, 9, 36, 127
8, 17430, Note_on_c, 9, 42, 110
8, 17435, Note_on_c, 9, 42, 0
8, 17435, Note_on_c, 9, 36, 0
8, 17460, Note_on_c, 9, 42, 110
8, 17465, Note_on_c, 9, 42, 0
8, 17490, Note_on_c, 9, 46, 110
8, 17495, Note_on_c, 9, 46, 0
8, 17520, Note_on_c, 9, 46, 110
8, 17525, Note_on_c, 9, 46, 0
8, 17550, Note_on_c, 9, 36, 127
8, 17550, Note_on_c, 9, 42, 110
8, 17555, Note_on_c, 9, 42, 0
8, 17555, Note_on_c, 9, 36, 0
8, 17580, Note_on_c, 9, 42, 110
8, 17585, Note_on_c, 9, 42, 0
8, 17610, Note_on_c, 9, 46, 110
8, 17615, Note_on_c, 9, 46, 0
8, 17640, Note_on_c, 9, 46, 110
8, 17645, Note_on_c, 9, 46, 0
8, 17670, Note_on_c, 9, 36, 127
8, 17670, Note_on_c, 9, 42, 110
8, 17675, Note_on_c, 9, 42, 0
8, 17675, Note_on_c, 9, 36, 0
8, 17700, Note_on_c, 9, 42, 110
8, 17705, Note_on_c, 9, 42, 0
8, 17730, Note_on_c, 9, 46, 110
8, 17735, Note_on_c, 9, 46, 0
8, 17760, Note_on_c, 9, 46, 110
8, 17765, Note_on_c, 9, 46, 0
8, 17790, Note_on_c, 9, 36, 127
8, 17790, Note_on_c, 9, 42, 110
8, 17795, Note_on_c, 9, 42, 0
8, 17795, Note_on_c, 9, 36, 0
8, 17820, Note_on_c, 9, 42, 110
8, 17825, Note_on_c, 9, 42, 0
8, 17850, Note_on_c, 9, 46, 110
8, 17855, Note_on_c, 9, 46, 0
8, 17880, Note_on_c, 9, 46, 110
8, 17885, Note_on_c, 9, 46, 0
8, 17910, Note_on_c, 9, 36, 127
8, 17910, Note_on_c, 9, 42, 110
8, 17915, Note_on_c, 9, 42, 0
8, 17915, Note_on_c, 9, 36, 0
8, 17940, Note_on_c, 9, 42, 110
8, 17945, Note_on_c, 9, 42, 0
8, 17970, Note_on_c, 9, 46, 110
8, 17975, Note_on_c, 9, 46, 0
8, 18000, Note_on_c, 9, 46, 110
8, 18005, Note_on_c, 9, 46, 0
8, 18030, Note_on_c, 9, 36, 127
8, 18030, Note_on_c, 9, 42, 110
8, 18035, Note_on_c, 9, 42, 0
8, 18035, Note_on_c, 9, 36, 0
8, 18060, Note_on_c, 9, 42, 110
8, 18065, Note_on_c, 9, 42, 0
8, 18090, Note_on_c, 9, 46, 110
8, 18095, Note_on_c, 9, 46, 0
8, 18120, Note_on_c, 9, 46, 110
8, 18125, Note_on_c, 9, 46, 0
8, 18150, Note_on_c, 9, 36, 127
8, 18150, Note_on_c, 9, 42, 110
8, 18155, Note_on_c, 9, 42, 0
8, 18155, Note_on_c, 9, 36, 0
8, 18180, Note_on_c, 9, 42, 110
8, 18185, Note_on_c, 9, 42, 0
8, 18210, Note_on_c, 9, 46, 110
8, 18215, Note_on_c, 9, 46, 0
8, 18240, Note_on_c, 9, 46, 110
8, 18245, Note_on_c, 9, 46, 0
8, 18270, Note_on_c, 9, 36, 127
8, 18270, Note_on_c, 9, 42, 110
8, 18275, Note_on_c, 9, 42, 0
8, 18275, Note_on_c, 9, 36, 0
8, 18300, Note_on_c, 9, 42, 110
8, 18305, Note_on_c, 9, 42, 0
8, 18330, Note_on_c, 9, 46, 110
8, 18335, Note_on_c, 9, 46, 0
8, 18360, Note_on_c, 9, 46, 110
8, 18365, Note_on_c, 9, 46, 0
8, 18390, Note_on_c, 9, 36, 127
8, 18390, Note_on_c, 9, 42, 110
8, 18395, Note_on_c, 9, 42, 0
8, 18395, Note_on_c, 9, 36, 0
8, 18420, Note_on_c, 9, 42, 110
8, 18425, Note_on_c, 9, 42, 0
8, 18450, Note_on_c, 9, 46, 110
8, 18455, Note_on_c, 9, 46, 0
8, 18480, Note_on_c, 9, 46, 110
8, 18485, Note_on_c, 9, 46, 0
8, 18510, Note_on_c, 9, 36, 127
8, 18510, Note_on_c, 9, 42, 110
8, 18515, Note_on_c, 9, 42, 0
8, 18515, Note_on_c, 9, 36, 0
8, 18540, Note_on_c, 9, 42, 110
8, 18545, Note_on_c, 9, 42, 0
8, 18570, Note_on_c, 9, 46, 110
8, 18575, Note_on_c, 9, 46, 0
8, 18600, Note_on_c, 9, 46, 110
8, 18605, Note_on_c, 9, 46, 0
8, 18630, Note_on_c, 9, 36, 127
8, 18630, Note_on_c, 9, 42, 110
8, 18635, Note_on_c, 9, 42, 0
8, 18635, Note_on_c, 9, 36, 0
8, 18660, Note_on_c, 9, 42, 110
8, 18665, Note_on_c, 9, 42, 0
8, 18690, Note_on_c, 9, 46, 110
8, 18695, Note_on_c, 9, 46, 0
8, 18720, Note_on_c, 9, 46, 110
8, 18725, Note_on_c, 9, 46, 0
8, 18750, Note_on_c, 9, 36, 127
8, 18750, Note_on_c, 9, 42, 110
8, 18755, Note_on_c, 9, 42, 0
8, 18755, Note_on_c, 9, 36, 0
8, 18780, Note_on_c, 9, 42, 110
8, 18785, Note_on_c, 9, 42, 0
8, 18810, Note_on_c, 9, 46, 110
8, 18815, Note_on_c, 9, 46, 0
8, 18840, Note_on_c, 9, 46, 110
8, 18845, Note_on_c, 9, 46, 0
8, 18870, Note_on_c, 9, 36, 127
8, 18870, Note_on_c, 9, 42, 110
8, 18875, Note_on_c, 9, 42, 0
8, 18875, Note_on_c, 9, 36, 0
8, 18900, Note_on_c, 9, 42, 110
8, 18905, Note_on_c, 9, 42, 0
8, 18930, Note_on_c, 9, 46, 110
8, 18935, Note_on_c, 9, 46, 0
8, 18960, Note_on_c, 9, 46, 110
8, 18965, Note_on_c, 9, 46, 0
8, 18990, Note_on_c, 9, 36, 127
8, 18990, Note_on_c, 9, 42, 110
8, 18995, Note_on_c, 9, 42, 0
8, 18995, Note_on_c, 9, 36, 0
8, 19020, Note_on_c, 9, 42, 110
8, 19025, Note_on_c, 9, 42, 0
8, 19050, Note_on_c, 9, 46, 110
8, 19055, Note_on_c, 9, 46, 0
8, 19080, Note_on_c, 9, 46, 110
8, 19085, Note_on_c, 9, 46, 0
8, 19110, Note_on_c, 9, 36, 127
8, 19110, Note_on_c, 9, 42, 110
8, 19115, Note_on_c, 9, 42, 0
8, 19115, Note_on_c, 9, 36, 0
8, 19140, Note_on_c, 9, 42, 110
8, 19145, Note_on_c, 9, 42, 0
8, 19170, Note_on_c, 9, 46, 110
8, 19175, Note_on_c, 9, 46, 0
8, 19200, Note_on_c, 9, 46, 110
8, 19205, Note_on_c, 9, 46, 0
8, 19230, Note_on_c, 9, 36, 127
8, 19230, Note_on_c, 9, 42, 110
8, 19235, Note_on_c, 9, 42, 0
8, 19235, Note_on_c, 9, 36, 0
8, 19260, Note_on_c, 9, 42, 110
8, 19265, Note_on_c, 9, 42, 0
8, 19290, Note_on_c, 9, 46, 110
8, 19295, Note_on_c, 9, 46, 0
8, 19320, Note_on_c, 9, 46, 110
8, 19325, Note_on_c, 9, 46, 0
8, 19350, Note_on_c, 9, 36, 127
8, 19350, Note_on_c, 9, 42, 110
8, 19355, Note_on_c, 9, 42, 0
8, 19355, Note_on_c, 9, 36, 0
8, 19380, Note_on_c, 9, 42, 110
8, 19385, Note_on_c, 9, 42, 0
8, 19410, Note_on_c, 9, 46, 110
8, 19415, Note_on_c, 9, 46, 0
8, 19440, Note_on_c, 9, 46, 110
8, 19445, Note_on_c, 9, 46, 0
8, 19470, Note_on_c, 9, 36, 127
8, 19470, Note_on_c, 9, 42, 110
8, 19475, Note_on_c, 9, 42, 0
8, 19475, Note_on_c, 9, 36, 0
8, 19500, Note_on_c, 9, 42, 110
8, 19505, Note_on_c, 9, 42, 0
8, 19530, Note_on_c, 9, 46, 110
8, 19535, Note_on_c, 9, 46, 0
8, 19560, Note_on_c, 9, 46, 110
8, 19565, Note_on_c, 9, 46, 0
8, 19590, Note_on_c, 9, 36, 127
8, 19590, Note_on_c, 9, 42, 110
8, 19595, Note_on_c, 9, 42, 0
8, 19595, Note_on_c, 9, 36, 0
8, 19620, Note_on_c, 9, 42, 110
8, 19625, Note_on_c, 9, 42, 0
8, 19650, Note_on_c, 9, 46, 110
8, 19655, Note_on_c, 9, 46, 0
8, 19680, Note_on_c, 9, 46, 110
8, 19685, Note_on_c, 9, 46, 0
8, 19710, Note_on_c, 9, 36, 127
8, 19710, Note_on_c, 9, 42, 110
8, 19715, Note_on_c, 9, 42, 0
8, 19715, Note_on_c, 9, 36, 0
8, 19740, Note_on_c, 9, 42, 110
8, 19745, Note_on_c, 9, 42, 0
8, 19770, Note_on_c, 9, 46, 110
8, 19775, Note_on_c, 9, 46, 0
8, 19800, Note_on_c, 9, 46, 110
8, 19805, Note_on_c, 9, 46, 0
8, 19830, Note_on_c, 9, 36, 127
8, 19830, Note_on_c, 9, 42, 110
8, 19835, Note_on_c, 9, 42, 0
8, 19835, Note_on_c, 9, 36, 0
8, 19860, Note_on_c, 9, 42, 110
8, 19865, Note_on_c, 9, 42, 0
8, 19890, Note_on_c, 9, 46, 110
8, 19895, Note_on_c, 9, 46, 0
8, 19920, Note_on_c, 9, 46, 110
8, 19925, Note_on_c, 9, 46, 0
8, 19950, Note_on_c, 9, 36, 127
8, 19950, Note_on_c, 9, 42, 110
8, 19955, Note_on_c, 9, 42, 0
8, 19955, Note_on_c, 9, 36, 0
8, 19980, Note_on_c, 9, 42, 110
8, 19985, Note_on_c, 9, 42, 0
8, 20010, Note_on_c, 9, 46, 110
8, 20015, Note_on_c, 9, 46, 0
8, 20040, Note_on_c, 9, 46, 110
8, 20045, Note_on_c, 9, 46, 0
8, 20070, Note_on_c, 9, 36, 127
8, 20070, Note_on_c, 9, 42, 110
8, 20075, Note_on_c, 9, 42, 0
8, 20075, Note_on_c, 9, 36, 0
8, 20100, Note_on_c, 9, 42, 110
8, 20105, Note_on_c, 9, 42, 0
8, 20130, Note_on_c, 9, 46, 110
8, 20135, Note_on_c, 9, 46, 0
8, 20160, Note_on_c, 9, 46, 110
8, 20165, Note_on_c, 9, 46, 0
8, 20190, Note_on_c, 9, 36, 127
8, 20190, Note_on_c, 9, 42, 110
8, 20195, Note_on_c, 9, 42, 0
8, 20195, Note_on_c, 9, 36, 0
8, 20220, Note_on_c, 9, 42, 110
8, 20225, Note_on_c, 9, 42, 0
8, 20250, Note_on_c, 9, 46, 110
8, 20255, Note_on_c, 9, 46, 0
8, 20280, Note_on_c, 9, 46, 110
8, 20285, Note_on_c, 9, 46, 0
8, 20310, Note_on_c, 9, 36, 127
8, 20310, Note_on_c, 9, 42, 110
8, 20315, Note_on_c, 9, 42, 0
8, 20315, Note_on_c, 9, 36, 0
8, 20340, Note_on_c, 9, 42, 110
8, 20345, Note_on_c, 9, 42, 0
8, 20370, Note_on_c, 9, 46, 110
8, 20375, Note_on_c, 9, 46, 0
8, 20400, Note_on_c, 9, 46, 110
8, 20405, Note_on_c, 9, 46, 0
8, 20430, Note_on_c, 9, 36, 127
8, 20430, Note_on_c, 9, 42, 110
8, 20435, Note_on_c, 9, 42, 0
8, 20435, Note_on_c, 9, 36, 0
8, 20460, Note_on_c, 9, 42, 110
8, 20465, Note_on_c, 9, 42, 0
8, 20490, Note_on_c, 9, 46, 110
8, 20495, Note_on_c, 9, 46, 0
8, 20520, Note_on_c, 9, 46, 110
8, 20525, Note_on_c, 9, 46, 0
8, 20550, Note_on_c, 9, 36, 127
8, 20550, Note_on_c, 9, 42, 110
8, 20555, Note_on_c, 9, 42, 0
8, 20555, Note_on_c, 9, 36, 0
8, 20580, Note_on_c, 9, 42, 110
8, 20585, Note_on_c, 9, 42, 0
8, 20610, Note_on_c, 9, 46, 110
8, 20615, Note_on_c, 9, 46, 0
8, 20640, Note_on_c, 9, 46, 110
8, 20645, Note_on_c, 9, 46, 0
8, 20670, Note_on_c, 9, 36, 127
8, 20670, Note_on_c, 9, 42, 110
8, 20675, Note_on_c, 9, 42, 0
8, 20675, Note_on_c, 9, 36, 0
8, 20700, Note_on_c, 9, 42, 110
8, 20705, Note_on_c, 9, 42, 0
8, 20730, Note_on_c, 9, 46, 110
8, 20735, Note_on_c, 9, 46, 0
8, 20760, Note_on_c, 9, 46, 110
8, 20765, Note_on_c, 9, 46, 0
8, 20790, Note_on_c, 9, 36, 127
8, 20790, Note_on_c, 9, 42, 110
8, 20795, Note_on_c, 9, 42, 0
8, 20795, Note_on_c, 9, 36, 0
8, 20820, Note_on_c, 9, 42, 110
8, 20825, Note_on_c, 9, 42, 0
8, 20850, Note_on_c, 9, 46, 110
8, 20855, Note_on_c, 9, 46, 0
8, 20880, Note_on_c, 9, 46, 110
8, 20885, Note_on_c, 9, 46, 0
8, 20910, Note_on_c, 9, 36, 127
8, 20910, Note_on_c, 9, 42, 110
8, 20915, Note_on_c, 9, 42, 0
8, 20915, Note_on_c, 9, 36, 0
8, 20940, Note_on_c, 9, 42, 110
8, 20945, Note_on_c, 9, 42, 0
8, 20970, Note_on_c, 9, 46, 110
8, 20975, Note_on_c, 9, 46, 0
8, 21000, Note_on_c, 9, 46, 110
8, 21005, Note_on_c, 9, 46, 0
8, 21030, Note_on_c, 9, 36, 127
8, 21030, Note_on_c, 9, 42, 110
8, 21035, Note_on_c, 9, 42, 0
8, 21035, Note_on_c, 9, 36, 0
8, 21060, Note_on_c, 9, 42, 110
8, 21065, Note_on_c, 9, 42, 0
8, 21090, Note_on_c, 9, 46, 110
8, 21095, Note_on_c, 9, 46, 0
8, 21120, Note_on_c, 9, 46, 110
8, 21125, Note_on_c, 9, 46, 0
8, 21150, Note_on_c, 9, 36, 127
8, 21150, Note_on_c, 9, 42, 110
8, 21155, Note_on_c, 9, 42, 0
8, 21155, Note_on_c, 9, 36, 0
8, 21180, Note_on_c, 9, 42, 110
8, 21185, Note_on_c, 9, 42, 0
8, 21210, Note_on_c, 9, 46, 110
8, 21215, Note_on_c, 9, 46, 0
8, 21240, Note_on_c, 9, 46, 110
8, 21245, Note_on_c, 9, 46, 0
8, 21270, Note_on_c, 9, 36, 127
8, 21270, Note_on_c, 9, 42, 110
8, 21275, Note_on_c, 9, 42, 0
8, 21275, Note_on_c, 9, 36, 0
8, 21300, Note_on_c, 9, 42, 110
8, 21305, Note_on_c, 9, 42, 0
8, 21330, Note_on_c, 9, 46, 110
8, 21335, Note_on_c, 9, 46, 0
8, 21360, Note_on_c, 9, 46, 110
8, 21365, Note_on_c, 9, 46, 0
8, 21390, Note_on_c, 9, 36, 127
8, 21390, Note_on_c, 9, 42, 110
8, 21395, Note_on_c, 9, 42, 0
8, 21395, Note_on_c, 9, 36, 0
8, 21420, Note_on_c, 9, 42, 110
8, 21425, Note_on_c, 9, 42, 0
8, 21450, Note_on_c, 9, 46, 110
8, 21455, Note_on_c, 9, 46, 0
8, 21480, Note_on_c, 9, 46, 110
8, 21485, Note_on_c, 9, 46, 0
8, 21510, Note_on_c, 9, 36, 127
8, 21510, Note_on_c, 9, 42, 110
8, 21515, Note_on_c, 9, 42, 0
8, 21515, Note_on_c, 9, 36, 0
8, 21540, Note_on_c, 9, 42, 110
8, 21545, Note_on_c, 9, 42, 0
8, 21570, Note_on_c, 9, 46, 110
8, 21575, Note_on_c, 9, 46, 0
8, 21600, Note_on_c, 9, 46, 110
8, 21605, Note_on_c, 9, 46, 0
8, 21630, Note_on_c, 9, 36, 127
8, 21630, Note_on_c, 9, 42, 110
8, 21635, Note_on_c, 9, 42, 0
8, 21635, Note_on_c, 9, 36, 0
8, 21660, Note_on_c, 9, 42, 110
8, 21665, Note_on_c, 9, 42, 0
8, 21690, Note_on_c, 9, 46, 110
8, 21695, Note_on_c, 9, 46, 0
8, 21720, Note_on_c, 9, 46, 110
8, 21725, Note_on_c, 9, 46, 0
8, 21750, Note_on_c, 9, 36, 127
8, 21750, Note_on_c, 9, 42, 110
8, 21755, Note_on_c, 9, 42, 0
8, 21755, Note_on_c, 9, 36, 0
8, 21780, Note_on_c, 9, 42, 110
8, 21785, Note_on_c, 9, 42, 0
8, 21810, Note_on_c, 9, 46, 110
8, 21815, Note_on_c, 9, 46, 0
8, 21840, Note_on_c, 9, 46, 110
8, 21845, Note_on_c, 9, 46, 0
8, 21870, Note_on_c, 9, 36, 127
8, 21870, Note_on_c, 9, 42, 110
8, 21875, Note_on_c, 9, 42, 0
8, 21875, Note_on_c, 9, 36, 0
8, 21900, Note_on_c, 9, 42, 110
8, 21905, Note_on_c, 9, 42, 0
8, 21930, Note_on_c, 9, 46, 110
8, 21935, Note_on_c, 9, 46, 0
8, 21960, Note_on_c, 9, 46, 110
8, 21965, Note_on_c, 9, 46, 0
8, 21990, Note_on_c, 9, 36, 127
8, 21990, Note_on_c, 9, 42, 110
8, 21995, Note_on_c, 9, 42, 0
8, 21995, Note_on_c, 9, 36, 0
8, 22020, Note_on_c, 9, 42, 110
8, 22025, Note_on_c, 9, 42, 0
8, 22050, Note_on_c, 9, 46, 110
8, 22055, Note_on_c, 9, 46, 0
8, 22080, Note_on_c, 9, 46, 110
8, 22085, Note_on_c, 9, 46, 0
8, 22110, Note_on_c, 9, 36, 127
8, 22110, Note_on_c, 9, 42, 110
8, 22115, Note_on_c, 9, 42, 0
8, 22115, Note_on_c, 9, 36, 0
8, 22140, Note_on_c, 9, 42, 110
8, 22145, Note_on_c, 9, 42, 0
8, 22170, Note_on_c, 9, 46, 110
8, 22175, Note_on_c, 9, 46, 0
8, 22200, Note_on_c, 9, 46, 110
8, 22205, Note_on_c, 9, 46, 0
8, 22230, Note_on_c, 9, 36, 127
8, 22230, Note_on_c, 9, 42, 110
8, 22235, Note_on_c, 9, 42, 0
8, 22235, Note_on_c, 9, 36, 0
8, 22260, Note_on_c, 9, 42, 110
8, 22265, Note_on_c, 9, 42, 0
8, 22290, Note_on_c, 9, 46, 110
8, 22295, Note_on_c, 9, 46, 0
8, 22320, Note_on_c, 9, 46, 110
8, 22325, Note_on_c, 9, 46, 0
8, 22350, Note_on_c, 9, 36, 127
8, 22350, Note_on_c, 9, 42, 110
8, 22355, Note_on_c, 9, 42, 0
8, 22355, Note_on_c, 9, 36, 0
8, 22380, Note_on_c, 9, 42, 110
8, 22385, Note_on_c, 9, 42, 0
8, 22410, Note_on_c, 9, 46, 110
8, 22415, Note_on_c, 9, 46, 0
8, 22440, Note_on_c, 9, 46, 110
8, 22445, Note_on_c, 9, 46, 0
8, 22470, Note_on_c, 9, 36, 127
8, 22470, Note_on_c, 9, 42, 110
8, 22475, Note_on_c, 9, 42, 0
8, 22475, Note_on_c, 9, 36, 0
8, 22500, Note_on_c, 9, 42, 110
8, 22505, Note_on_c, 9, 42, 0
8, 22530, Note_on_c, 9, 46, 110
8, 22535, Note_on_c, 9, 46, 0
8, 22560, Note_on_c, 9, 46, 110
8, 22565, Note_on_c, 9, 46, 0
8, 22590, Note_on_c, 9, 36, 127
8, 22590, Note_on_c, 9, 42, 110
8, 22595, Note_on_c, 9, 42, 0
8, 22595, Note_on_c, 9, 36, 0
8, 22620, Note_on_c, 9, 42, 110
8, 22625, Note_on_c, 9, 42, 0
8, 22650, Note_on_c, 9, 46, 110
8, 22655, Note_on_c, 9, 46, 0
8, 22680, Note_on_c, 9, 46, 110
8, 22685, Note_on_c, 9, 46, 0
8, 22710, Note_on_c, 9, 36, 127
8, 22710, Note_on_c, 9, 42, 110
8, 22715, Note_on_c, 9, 42, 0
8, 22715, Note_on_c, 9, 36, 0
8, 22740, Note_on_c, 9, 42, 110
8, 22745, Note_on_c, 9, 42, 0
8, 22770, Note_on_c, 9, 46, 110
8, 22775, Note_on_c, 9, 46, 0
8, 22800, Note_on_c, 9, 46, 110
8, 22805, Note_on_c, 9, 46, 0
8, 22830, Note_on_c, 9, 36, 127
8, 22830, Note_on_c, 9, 42, 110
8, 22835, Note_on_c, 9, 42, 0
8, 22835, Note_on_c, 9, 36, 0
8, 22860, Note_on_c, 9, 42, 110
8, 22865, Note_on_c, 9, 42, 0
8, 22890, Note_on_c, 9, 46, 110
8, 22895, Note_on_c, 9, 46, 0
8, 22920, Note_on_c, 9, 46, 110
8, 22925, Note_on_c, 9, 46, 0
8, 22950, Note_on_c, 9, 36, 127
8, 22950, Note_on_c, 9, 42, 110
8, 22955, Note_on_c, 9, 42, 0
8, 22955, Note_on_c, 9, 36, 0
8, 22980, Note_on_c, 9, 42, 110
8, 22985, Note_on_c, 9, 42, 0
8, 23010, Note_on_c, 9, 46, 110
8, 23015, Note_on_c, 9, 46, 0
8, 23040, Note_on_c, 9, 46, 110
8, 23045, Note_on_c, 9, 46, 0
8, 23070, Note_on_c, 9, 36, 127
8, 23070, Note_on_c, 9, 42, 110
8, 23075, Note_on_c, 9, 42, 0
8, 23075, Note_on_c, 9, 36, 0
8, 23100, Note_on_c, 9, 42, 110
8, 23105, Note_on_c, 9, 42, 0
8, 23130, Note_on_c, 9, 46, 110
8, 23135, Note_on_c, 9, 46, 0
8, 23160, Note_on_c, 9, 46, 110
8, 23165, Note_on_c, 9, 46, 0
8, 23190, Note_on_c, 9, 36, 127
8, 23190, Note_on_c, 9, 42, 110
8, 23195, Note_on_c, 9, 42, 0
8, 23195, Note_on_c, 9, 36, 0
8, 23220, Note_on_c, 9, 42, 110
8, 23225, Note_on_c, 9, 42, 0
8, 23250, Note_on_c, 9, 46, 110
8, 23255, Note_on_c, 9, 46, 0
8, 23280, Note_on_c, 9, 46, 110
8, 23285, Note_on_c, 9, 46, 0
8, 23310, Note_on_c, 9, 36, 127
8, 23310, Note_on_c, 9, 42, 110
8, 23315, Note_on_c, 9, 42, 0
8, 23315, Note_on_c, 9, 36, 0
8, 23340, Note_on_c, 9, 42, 110
8, 23345, Note_on_c, 9, 42, 0
8, 23370, Note_on_c, 9, 46, 110
8, 23375, Note_on_c, 9, 46, 0
8, 23400, Note_on_c, 9, 46, 110
8, 23405, Note_on_c, 9, 46, 0
8, 23430, Note_on_c, 9, 36, 127
8, 23430, Note_on_c, 9, 42, 110
8, 23435, Note_on_c, 9, 42, 0
8, 23435, Note_on_c, 9, 36, 0
8, 23460, Note_on_c, 9, 42, 110
8, 23465, Note_on_c, 9, 42, 0
8, 23490, Note_on_c, 9, 46, 110
8, 23495, Note_on_c, 9, 46, 0
8, 23520, Note_on_c, 9, 46, 110
8, 23525, Note_on_c, 9, 46, 0
8, 27390, Note_on_c, 9, 36, 127
8, 27390, Note_on_c, 9, 42, 110
8, 27395, Note_on_c, 9, 42, 0
8, 27395, Note_on_c, 9, 36, 0
8, 27420, Note_on_c, 9, 42, 110
8, 27425, Note_on_c, 9, 42, 0
8, 27450, Note_on_c, 9, 46, 110
8, 27455, Note_on_c, 9, 46, 0
8, 27480, Note_on_c, 9, 46, 110
8, 27485, Note_on_c, 9, 46, 0
8, 27510, Note_on_c, 9, 36, 127
8, 27510, Note_on_c, 9, 42, 110
8, 27515, Note_on_c, 9, 42, 0
8, 27515, Note_on_c, 9, 36, 0
8, 27540, Note_on_c, 9, 42, 110
8, 27545, Note_on_c, 9, 42, 0
8, 27570, Note_on_c, 9, 46, 110
8, 27575, Note_on_c, 9, 46, 0
8, 27600, Note_on_c, 9, 46, 110
8, 27605, Note_on_c, 9, 46, 0
8, 27630, Note_on_c, 9, 36, 127
8, 27630, Note_on_c, 9, 42, 110
8, 27635, Note_on_c, 9, 42, 0
8, 27635, Note_on_c, 9, 36, 0
8, 27660, Note_on_c, 9, 42, 110
8, 27665, Note_on_c, 9, 42, 0
8, 27690, Note_on_c, 9, 46, 110
8, 27695, Note_on_c, 9, 46, 0
8, 27720, Note_on_c, 9, 46, 110
8, 27725, Note_on_c, 9, 46, 0
8, 27750, Note_on_c, 9, 36, 127
8, 27750, Note_on_c, 9, 42, 110
8, 27755, Note_on_c, 9, 42, 0
8, 27755, Note_on_c, 9, 36, 0
8, 27780, Note_on_c, 9, 42, 110
8, 27785, Note_on_c, 9, 42, 0
8, 27810, Note_on_c, 9, 46, 110
8, 27815, Note_on_c, 9, 46, 0
8, 27840, Note_on_c, 9, 46, 110
8, 27845, Note_on_c, 9, 46, 0
8, 27870, Note_on_c, 9, 36, 127
8, 27870, Note_on_c, 9, 42, 110
8, 27875, Note_on_c, 9, 42, 0
8, 27875, Note_on_c, 9, 36, 0
8, 27900, Note_on_c, 9, 42, 110
8, 27905, Note_on_c, 9, 42, 0
8, 27930, Note_on_c, 9, 46, 110
8, 27935, Note_on_c, 9, 46, 0
8, 27960, Note_on_c, 9, 46, 110
8, 27965, Note_on_c, 9, 46, 0
8, 27990, Note_on_c, 9, 36, 127
8, 27990, Note_on_c, 9, 42, 110
8, 27995, Note_on_c, 9, 42, 0
8, 27995, Note_on_c, 9, 36, 0
8, 28020, Note_on_c, 9, 42, 110
8, 28025, Note_on_c, 9, 42, 0
8, 28050, Note_on_c, 9, 46, 110
8, 28055, Note_on_c, 9, 46, 0
8, 28080, Note_on_c, 9, 46, 110
8, 28085, Note_on_c, 9, 46, 0
8, 28110, Note_on_c, 9, 36, 127
8, 28110, Note_on_c, 9, 42, 110
8, 28115, Note_on_c, 9, 42, 0
8, 28115, Note_on_c, 9, 36, 0
8, 28140, Note_on_c, 9, 42, 110
8, 28145, Note_on_c, 9, 42, 0
8, 28170, Note_on_c, 9, 46, 110
8, 28175, Note_on_c, 9, 46, 0
8, 28200, Note_on_c, 9, 46, 110
8, 28205, Note_on_c, 9, 46, 0
8, 28230, Note_on_c, 9, 36, 127
8, 28230, Note_on_c, 9, 42, 110
8, 28235, Note_on_c, 9, 42, 0
8, 28235, Note_on_c, 9, 36, 0
8, 28260, Note_on_c, 9, 42, 110
8, 28265, Note_on_c, 9, 42, 0
8, 28290, Note_on_c, 9, 46, 110
8, 28295, Note_on_c, 9, 46, 0
8, 28320, Note_on_c, 9, 46, 110
8, 28325, Note_on_c, 9, 46, 0
8, 28350, Note_on_c, 9, 36, 127
8, 28350, Note_on_c, 9, 42, 110
8, 28355, Note_on_c, 9, 42, 0
8, 28355, Note_on_c, 9, 36, 0
8, 28380, Note_on_c, 9, 42, 110
8, 28385, Note_on_c, 9, 42, 0
8, 28410, Note_on_c, 9, 46, 110
8, 28415, Note_on_c, 9, 46, 0
8, 28440, Note_on_c, 9, 46, 110
8, 28445, Note_on_c, 9, 46, 0
8, 28470, Note_on_c, 9, 36, 127
8, 28470, Note_on_c, 9, 42, 110
8, 28475, Note_on_c, 9, 42, 0
8, 28475, Note_on_c, 9, 36, 0
8, 28500, Note_on_c, 9, 42, 110
8, 28505, Note_on_c, 9, 42, 0
8, 28530, Note_on_c, 9, 46, 110
8, 28535, Note_on_c, 9, 46, 0
8, 28560, Note_on_c, 9, 46, 110
8, 28565, Note_on_c, 9, 46, 0
8, 28590, Note_on_c, 9, 36, 127
8, 28590, Note_on_c, 9, 42, 110
8, 28595, Note_on_c, 9, 42, 0
8, 28595, Note_on_c, 9, 36, 0
8, 28620, Note_on_c, 9, 42, 110
8, 28625, Note_on_c, 9, 42, 0
8, 28650, Note_on_c, 9, 46, 110
8, 28655, Note_on_c, 9, 46, 0
8, 28680, Note_on_c, 9, 46, 110
8, 28685, Note_on_c, 9, 46, 0
8, 28710, Note_on_c, 9, 36, 127
8, 28710, Note_on_c, 9, 42, 110
8, 28715, Note_on_c, 9, 42, 0
8, 28715, Note_on_c, 9, 36, 0
8, 28740, Note_on_c, 9, 42, 110
8, 28745, Note_on_c, 9, 42, 0
8, 28770, Note_on_c, 9, 46, 110
8, 28775, Note_on_c, 9, 46, 0
8, 28800, Note_on_c, 9, 46, 110
8, 28805, Note_on_c, 9, 46, 0
8, 28830, Note_on_c, 9, 36, 127
8, 28830, Note_on_c, 9, 42, 110
8, 28835, Note_on_c, 9, 42, 0
8, 28835, Note_on_c, 9, 36, 0
8, 28860, Note_on_c, 9, 42, 110
8, 28865, Note_on_c, 9, 42, 0
8, 28890, Note_on_c, 9, 46, 110
8, 28895, Note_on_c, 9, 46, 0
8, 28920, Note_on_c, 9, 46, 110
8, 28925, Note_on_c, 9, 46, 0
8, 28950, Note_on_c, 9, 36, 127
8, 28950, Note_on_c, 9, 42, 110
8, 28955, Note_on_c, 9, 42, 0
8, 28955, Note_on_c, 9, 36, 0
8, 28980, Note_on_c, 9, 42, 110
8, 28985, Note_on_c, 9, 42, 0
8, 29010, Note_on_c, 9, 46, 110
8, 29015, Note_on_c, 9, 46, 0
8, 29040, Note_on_c, 9, 46, 110
8, 29045, Note_on_c, 9, 46, 0
8, 29070, Note_on_c, 9, 36, 127
8, 29070, Note_on_c, 9, 42, 110
8, 29075, Note_on_c, 9, 42, 0
8, 29075, Note_on_c, 9, 36, 0
8, 29100, Note_on_c, 9, 42, 110
8, 29105, Note_on_c, 9, 42, 0
8, 29130, Note_on_c, 9, 46, 110
8, 29135, Note_on_c, 9, 46, 0
8, 29160, Note_on_c, 9, 46, 110
8, 29165, Note_on_c, 9, 46, 0
8, 29190, Note_on_c, 9, 36, 127
8, 29190, Note_on_c, 9, 42, 110
8, 29195, Note_on_c, 9, 42, 0
8, 29195, Note_on_c, 9, 36, 0
8, 29220, Note_on_c, 9, 42, 110
8, 29225, Note_on_c, 9, 42, 0
8, 29250, Note_on_c, 9, 46, 110
8, 29255, Note_on_c, 9, 46, 0
8, 29280, Note_on_c, 9, 46, 110
8, 29285, Note_on_c, 9, 46, 0
8, 29310, Note_on_c, 9, 36, 127
8, 29310, Note_on_c, 9, 42, 110
8, 29315, Note_on_c, 9, 42, 0
8, 29315, Note_on_c, 9, 36, 0
8, 29340, Note_on_c, 9, 42, 110
8, 29345, Note_on_c, 9, 42, 0
8, 29370, Note_on_c, 9, 46, 110
8, 29375, Note_on_c, 9, 46, 0
8, 29400, Note_on_c, 9, 46, 110
8, 29405, Note_on_c, 9, 46, 0
8, 29430, Note_on_c, 9, 36, 127
8, 29430, Note_on_c, 9, 42, 110
8, 29435, Note_on_c, 9, 42, 0
8, 29435, Note_on_c, 9, 36, 0
8, 29460, Note_on_c, 9, 42, 110
8, 29465, Note_on_c, 9, 42, 0
8, 29490, Note_on_c, 9, 46, 110
8, 29495, Note_on_c, 9, 46, 0
8, 29520, Note_on_c, 9, 46, 110
8, 29525, Note_on_c, 9, 46, 0
8, 29550, Note_on_c, 9, 36, 127
8, 29550, Note_on_c, 9, 42, 110
8, 29555, Note_on_c, 9, 42, 0
8, 29555, Note_on_c, 9, 36, 0
8, 29580, Note_on_c, 9, 42, 110
8, 29585, Note_on_c, 9, 42, 0
8, 29610, Note_on_c, 9, 46, 110
8, 29615, Note_on_c, 9, 46, 0
8, 29640, Note_on_c, 9, 46, 110
8, 29645, Note_on_c, 9, 46, 0
8, 29670, Note_on_c, 9, 36, 127
8, 29670, Note_on_c, 9, 42, 110
8, 29675, Note_on_c, 9, 42, 0
8, 29675, Note_on_c, 9, 36, 0
8, 29700, Note_on_c, 9, 42, 110
8, 29705, Note_on_c, 9, 42, 0
8, 29730, Note_on_c, 9, 46, 110
8, 29735, Note_on_c, 9, 46, 0
8, 29760, Note_on_c, 9, 46, 110
8, 29765, Note_on_c, 9, 46, 0
8, 29790, Note_on_c, 9, 36, 127
8, 29790, Note_on_c, 9, 42, 110
8, 29795, Note_on_c, 9, 42, 0
8, 29795, Note_on_c, 9, 36, 0
8, 29820, Note_on_c, 9, 42, 110
8, 29825, Note_on_c, 9, 42, 0
8, 29850, Note_on_c, 9, 46, 110
8, 29855, Note_on_c, 9, 46, 0
8, 29880, Note_on_c, 9, 46, 110
8, 29885, Note_on_c, 9, 46, 0
8, 29910, Note_on_c, 9, 36, 127
8, 29910, Note_on_c, 9, 42, 110
8, 29915, Note_on_c, 9, 42, 0
8, 29915, Note_on_c, 9, 36, 0
8, 29940, Note_on_c, 9, 42, 110
8, 29945, Note_on_c, 9, 42, 0
8, 29970, Note_on_c, 9, 46, 110
8, 29975, Note_on_c, 9, 46, 0
8, 30000, Note_on_c, 9, 46, 110
8, 30005, Note_on_c, 9, 46, 0
8, 30030, Note_on_c, 9, 36, 127
8, 30030, Note_on_c, 9, 42, 110
8, 30035, Note_on_c, 9, 42, 0
8, 30035, Note_on_c, 9, 36, 0
8, 30060, Note_on_c, 9, 42, 110
8, 30065, Note_on_c, 9, 42, 0
8, 30090, Note_on_c, 9, 46, 110
8, 30095, Note_on_c, 9, 46, 0
8, 30120, Note_on_c, 9, 46, 110
8, 30125, Note_on_c, 9, 46, 0
8, 30150, Note_on_c, 9, 36, 127
8, 30150, Note_on_c, 9, 42, 110
8, 30155, Note_on_c, 9, 42, 0
8, 30155, Note_on_c, 9, 36, 0
8, 30180, Note_on_c, 9, 42, 110
8, 30185, Note_on_c, 9, 42, 0
8, 30210, Note_on_c, 9, 46, 110
8, 30215, Note_on_c, 9, 46, 0
8, 30240, Note_on_c, 9, 46, 110
8, 30245, Note_on_c, 9, 46, 0
8, 30270, Note_on_c, 9, 36, 127
8, 30270, Note_on_c, 9, 42, 110
8, 30275, Note_on_c, 9, 42, 0
8, 30275, Note_on_c, 9, 36, 0
8, 30300, Note_on_c, 9, 42, 110
8, 30305, Note_on_c, 9, 42, 0
8, 30330, Note_on_c, 9, 46, 110
8, 30335, Note_on_c, 9, 46, 0
8, 30360, Note_on_c, 9, 46, 110
8, 30365, Note_on_c, 9, 46, 0
8, 30390, Note_on_c, 9, 36, 127
8, 30390, Note_on_c, 9, 42, 110
8, 30395, Note_on_c, 9, 42, 0
8, 30395, Note_on_c, 9, 36, 0
8, 30420, Note_on_c, 9, 42, 110
8, 30425, Note_on_c, 9, 42, 0
8, 30450, Note_on_c, 9, 46, 110
8, 30455, Note_on_c, 9, 46, 0
8, 30480, Note_on_c, 9, 46, 110
8, 30485, Note_on_c, 9, 46, 0
8, 30510, Note_on_c, 9, 36, 127
8, 30510, Note_on_c, 9, 42, 110
8, 30515, Note_on_c, 9, 42, 0
8, 30515, Note_on_c, 9, 36, 0
8, 30540, Note_on_c, 9, 42, 110
8, 30545, Note_on_c, 9, 42, 0
8, 30570, Note_on_c, 9, 46, 110
8, 30575, Note_on_c, 9, 46, 0
8, 30600, Note_on_c, 9, 46, 110
8, 30605, Note_on_c, 9, 46, 0
8, 30630, Note_on_c, 9, 36, 127
8, 30630, Note_on_c, 9, 42, 110
8, 30635, Note_on_c, 9, 42, 0
8, 30635, Note_on_c, 9, 36, 0
8, 30660, Note_on_c, 9, 42, 110
8, 30665, Note_on_c, 9, 42, 0
8, 30690, Note_on_c, 9, 46, 110
8, 30695, Note_on_c, 9, 46, 0
8, 30720, Note_on_c, 9, 46, 110
8, 30725, Note_on_c, 9, 46, 0
8, 30750, Note_on_c, 9, 36, 127
8, 30750, Note_on_c, 9, 42, 110
8, 30755, Note_on_c, 9, 42, 0
8, 30755, Note_on_c, 9, 36, 0
8, 30780, Note_on_c, 9, 42, 110
8, 30785, Note_on_c, 9, 42, 0
8, 30810, Note_on_c, 9, 46, 110
8, 30815, Note_on_c, 9, 46, 0
8, 30840, Note_on_c, 9, 46, 110
8, 30845, Note_on_c, 9, 46, 0
8, 30870, Note_on_c, 9, 36, 127
8, 30870, Note_on_c, 9, 42, 110
8, 30875, Note_on_c, 9, 42, 0
8, 30875, Note_on_c, 9, 36, 0
8, 30900, Note_on_c, 9, 42, 110
8, 30905, Note_on_c, 9, 42, 0
8, 30930, Note_on_c, 9, 46, 110
8, 30935, Note_on_c, 9, 46, 0
8, 30960, Note_on_c, 9, 46, 110
8, 30965, Note_on_c, 9, 46, 0
8, 30990, Note_on_c, 9, 36, 127
8, 30990, Note_on_c, 9, 42, 110
8, 30995, Note_on_c, 9, 42, 0
8, 30995, Note_on_c, 9, 36, 0
8, 31020, Note_on_c, 9, 42, 110
8, 31025, Note_on_c, 9, 42, 0
8, 31050, Note_on_c, 9, 46, 110
8, 31055, Note_on_c, 9, 46, 0
8, 31080, Note_on_c, 9, 46, 110
8, 31085, Note_on_c, 9, 46, 0
8, 31110, Note_on_c, 9, 36, 127
8, 31110, Note_on_c, 9, 42, 110
8, 31115, Note_on_c, 9, 42, 0
8, 31115, Note_on_c, 9, 36, 0
8, 31140, Note_on_c, 9, 42, 110
8, 31145, Note_on_c, 9, 42, 0
8, 31170, Note_on_c, 9, 46, 110
8, 31175, Note_on_c, 9, 46, 0
8, 31200, Note_on_c, 9, 46, 110
8, 31205, Note_on_c, 9, 46, 0
8, 31230, Note_on_c, 9, 36, 127
8, 31230, Note_on_c, 9, 42, 110
8, 31235, Note_on_c, 9, 42, 0
8, 31235, Note_on_c, 9, 36, 0
8, 31260, Note_on_c, 9, 42, 110
8, 31265, Note_on_c, 9, 42, 0
8, 31290, Note_on_c, 9, 46, 110
8, 31295, Note_on_c, 9, 46, 0
8, 31320, Note_on_c, 9, 46, 110
8, 31325, Note_on_c, 9, 46, 0
8, 31350, Note_on_c, 9, 36, 127
8, 31350, Note_on_c, 9, 42, 110
8, 31355, Note_on_c, 9, 42, 0
8, 31355, Note_on_c, 9, 36, 0
8, 31380, Note_on_c, 9, 42, 110
8, 31385, Note_on_c, 9, 42, 0
8, 31410, Note_on_c, 9, 46, 110
8, 31415, Note_on_c, 9, 46, 0
8, 31440, Note_on_c, 9, 46, 110
8, 31445, Note_on_c, 9, 46, 0
8, 31470, Note_on_c, 9, 36, 127
8, 31470, Note_on_c, 9, 42, 110
8, 31475, Note_on_c, 9, 42, 0
8, 31475, Note_on_c, 9, 36, 0
8, 31500, Note_on_c, 9, 42, 110
8, 31505, Note_on_c, 9, 42, 0
8, 31530, Note_on_c, 9, 46, 110
8, 31535, Note_on_c, 9, 46, 0
8, 31560, Note_on_c, 9, 46, 110
8, 31565, Note_on_c, 9, 46, 0
8, 31590, Note_on_c, 9, 36, 127
8, 31590, Note_on_c, 9, 42, 110
8, 31595, Note_on_c, 9, 42, 0
8, 31595, Note_on_c, 9, 36, 0
8, 31620, Note_on_c, 9, 42, 110
8, 31625, Note_on_c, 9, 42, 0
8, 31650, Note_on_c, 9, 46, 110
8, 31655, Note_on_c, 9, 46, 0
8, 31680, Note_on_c, 9, 46, 110
8, 31685, Note_on_c, 9, 46, 0
8, 31710, Note_on_c, 9, 36, 127
8, 31710, Note_on_c, 9, 42, 110
8, 31715, Note_on_c, 9, 42, 0
8, 31715, Note_on_c, 9, 36, 0
8, 31740, Note_on_c, 9, 42, 110
8, 31745, Note_on_c, 9, 42, 0
8, 31770, Note_on_c, 9, 46, 110
8, 31775, Note_on_c, 9, 46, 0
8, 31800, Note_on_c, 9, 46, 110
8, 31805, Note_on_c, 9, 46, 0
8, 31830, Note_on_c, 9, 36, 127
8, 31830, Note_on_c, 9, 42, 110
8, 31835, Note_on_c, 9, 42, 0
8, 31835, Note_on_c, 9, 36, 0
8, 31860, Note_on_c, 9, 42, 110
8, 31865, Note_on_c, 9, 42, 0
8, 31890, Note_on_c, 9, 46, 110
8, 31895, Note_on_c, 9, 46, 0
8, 31920, Note_on_c, 9, 46, 110
8, 31925, Note_on_c, 9, 46, 0
8, 31950, Note_on_c, 9, 36, 127
8, 31950, Note_on_c, 9, 42, 110
8, 31955, Note_on_c, 9, 42, 0
8, 31955, Note_on_c, 9, 36, 0
8, 31980, Note_on_c, 9, 42, 110
8, 31985, Note_on_c, 9, 42, 0
8, 32010, Note_on_c, 9, 46, 110
8, 32015, Note_on_c, 9, 46, 0
8, 32040, Note_on_c, 9, 46, 110
8, 32045, Note_on_c, 9, 46, 0
8, 32070, Note_on_c, 9, 36, 127
8, 32070, Note_on_c, 9, 42, 110
8, 32075, Note_on_c, 9, 42, 0
8, 32075, Note_on_c, 9, 36, 0
8, 32100, Note_on_c, 9, 42, 110
8, 32105, Note_on_c, 9, 42, 0
8, 32130, Note_on_c, 9, 46, 110
8, 32135, Note_on_c, 9, 46, 0
8, 32160, Note_on_c, 9, 46, 110
8, 32165, Note_on_c, 9, 46, 0
8, 32190, Note_on_c, 9, 36, 127
8, 32190, Note_on_c, 9, 42, 110
8, 32195, Note_on_c, 9, 42, 0
8, 32195, Note_on_c, 9, 36, 0
8, 32220, Note_on_c, 9, 42, 110
8, 32225, Note_on_c, 9, 42, 0
8, 32250, Note_on_c, 9, 46, 110
8, 32255, Note_on_c, 9, 46, 0
8, 32280, Note_on_c, 9, 46, 110
8, 32285, Note_on_c, 9, 46, 0
8, 32310, Note_on_c, 9, 36, 127
8, 32310, Note_on_c, 9, 42, 110
8, 32315, Note_on_c, 9, 42, 0
8, 32315, Note_on_c, 9, 36, 0
8, 32340, Note_on_c, 9, 42, 110
8, 32345, Note_on_c, 9, 42, 0
8, 32370, Note_on_c, 9, 46, 110
8, 32375, Note_on_c, 9, 46, 0
8, 32400, Note_on_c, 9, 46, 110
8, 32405, Note_on_c, 9, 46, 0
8, 32430, Note_on_c, 9, 36, 127
8, 32430, Note_on_c, 9, 42, 110
8, 32435, Note_on_c, 9, 42, 0
8, 32435, Note_on_c, 9, 36, 0
8, 32460, Note_on_c, 9, 42, 110
8, 32465, Note_on_c, 9, 42, 0
8, 32490, Note_on_c, 9, 46, 110
8, 32495, Note_on_c, 9, 46, 0
8, 32520, Note_on_c, 9, 46, 110
8, 32525, Note_on_c, 9, 46, 0
8, 32550, Note_on_c, 9, 36, 127
8, 32550, Note_on_c, 9, 42, 110
8, 32555, Note_on_c, 9, 42, 0
8, 32555, Note_on_c, 9, 36, 0
8, 32580, Note_on_c, 9, 42, 110
8, 32585, Note_on_c, 9, 42, 0
8, 32610, Note_on_c, 9, 46, 110
8, 32615, Note_on_c, 9, 46, 0
8, 32640, Note_on_c, 9, 46, 110
8, 32645, Note_on_c, 9, 46, 0
8, 32670, Note_on_c, 9, 36, 127
8, 32670, Note_on_c, 9, 42, 110
8, 32675, Note_on_c, 9, 42, 0
8, 32675, Note_on_c, 9, 36, 0
8, 32700, Note_on_c, 9, 42, 110
8, 32705, Note_on_c, 9, 42, 0
8, 32730, Note_on_c, 9, 46, 110
8, 32735, Note_on_c, 9, 46, 0
8, 32760, Note_on_c, 9, 46, 110
8, 32765, Note_on_c, 9, 46, 0
8, 32790, Note_on_c, 9, 36, 127
8, 32790, Note_on_c, 9, 42, 110
8, 32795, Note_on_c, 9, 42, 0
8, 32795, Note_on_c, 9, 36, 0
8, 32820, Note_on_c, 9, 42, 110
8, 32825, Note_on_c, 9, 42, 0
8, 32850, Note_on_c, 9, 46, 110
8, 32855, Note_on_c, 9, 46, 0
8, 32880, Note_on_c, 9, 46, 110
8, 32885, Note_on_c, 9, 46, 0
8, 32910, Note_on_c, 9, 36, 127
8, 32910, Note_on_c, 9, 42, 110
8, 32915, Note_on_c, 9, 42, 0
8, 32915, Note_on_c, 9, 36, 0
8, 32940, Note_on_c, 9, 42, 110
8, 32945, Note_on_c, 9, 42, 0
8, 32970, Note_on_c, 9, 46, 110
8, 32975, Note_on_c, 9, 46, 0
8, 33000, Note_on_c, 9, 46, 110
8, 33005, Note_on_c, 9, 46, 0
8, 33030, Note_on_c, 9, 36, 127
8, 33030, Note_on_c, 9, 42, 110
8, 33035, Note_on_c, 9, 42, 0
8, 33035, Note_on_c, 9, 36, 0
8, 33060, Note_on_c, 9, 42, 110
8, 33065, Note_on_c, 9, 42, 0
8, 33090, Note_on_c, 9, 46, 110
8, 33095, Note_on_c, 9, 46, 0
8, 33120, Note_on_c, 9, 46, 110
8, 33125, Note_on_c, 9, 46, 0
8, 33150, Note_on_c, 9, 36, 127
8, 33150, Note_on_c, 9, 42, 110
8, 33155, Note_on_c, 9, 42, 0
8, 33155, Note_on_c, 9, 36, 0
8, 33180, Note_on_c, 9, 42, 110
8, 33185, Note_on_c, 9, 42, 0
8, 33210, Note_on_c, 9, 46, 110
8, 33215, Note_on_c, 9, 46, 0
8, 33240, Note_on_c, 9, 46, 110
8, 33245, Note_on_c, 9, 46, 0
8, 33270, Note_on_c, 9, 36, 127
8, 33270, Note_on_c, 9, 42, 110
8, 33275, Note_on_c, 9, 42, 0
8, 33275, Note_on_c, 9, 36, 0
8, 33300, Note_on_c, 9, 42, 110
8, 33305, Note_on_c, 9, 42, 0
8, 33330, Note_on_c, 9, 46, 110
8, 33335, Note_on_c, 9, 46, 0
8, 33360, Note_on_c, 9, 46, 110
8, 33365, Note_on_c, 9, 46, 0
8, 33390, Note_on_c, 9, 36, 127
8, 33390, Note_on_c, 9, 42, 110
8, 33395, Note_on_c, 9, 42, 0
8, 33395, Note_on_c, 9, 36, 0
8, 33420, Note_on_c, 9, 42, 110
8, 33425, Note_on_c, 9, 42, 0
8, 33450, Note_on_c, 9, 46, 110
8, 33455, Note_on_c, 9, 46, 0
8, 33480, Note_on_c, 9, 46, 110
8, 33485, Note_on_c, 9, 46, 0
8, 33510, Note_on_c, 9, 36, 127
8, 33510, Note_on_c, 9, 42, 110
8, 33515, Note_on_c, 9, 42, 0
8, 33515, Note_on_c, 9, 36, 0
8, 33540, Note_on_c, 9, 42, 110
8, 33545, Note_on_c, 9, 42, 0
8, 33570, Note_on_c, 9, 46, 110
8, 33575, Note_on_c, 9, 46, 0
8, 33600, Note_on_c, 9, 46, 110
8, 33605, Note_on_c, 9, 46, 0
8, 33630, Note_on_c, 9, 36, 127
8, 33630, Note_on_c, 9, 42, 110
8, 33635, Note_on_c, 9, 42, 0
8, 33635, Note_on_c, 9, 36, 0
8, 33660, Note_on_c, 9, 42, 110
8, 33665, Note_on_c, 9, 42, 0
8, 33690, Note_on_c, 9, 46, 110
8, 33695, Note_on_c, 9, 46, 0
8, 33720, Note_on_c, 9, 46, 110
8, 33725, Note_on_c, 9, 46, 0
8, 33750, Note_on_c, 9, 36, 127
8, 33750, Note_on_c, 9, 42, 110
8, 33755, Note_on_c, 9, 42, 0
8, 33755, Note_on_c, 9, 36, 0
8, 33780, Note_on_c, 9, 42, 110
8, 33785, Note_on_c, 9, 42, 0
8, 33810, Note_on_c, 9, 46, 110
8, 33815, Note_on_c, 9, 46, 0
8, 33840, Note_on_c, 9, 46, 110
8, 33845, Note_on_c, 9, 46, 0
8, 33870, Note_on_c, 9, 36, 127
8, 33870, Note_on_c, 9, 42, 110
8, 33875, Note_on_c, 9, 42, 0
8, 33875, Note_on_c, 9, 36, 0
8, 33900, Note_on_c, 9, 42, 110
8, 33905, Note_on_c, 9, 42, 0
8, 33930, Note_on_c, 9, 46, 110
8, 33935, Note_on_c, 9, 46, 0
8, 33960, Note_on_c, 9, 46, 110
8, 33965, Note_on_c, 9, 46, 0
8, 33990, Note_on_c, 9, 36, 127
8, 33990, Note_on_c, 9, 42, 110
8, 33995, Note_on_c, 9, 42, 0
8, 33995, Note_on_c, 9, 36, 0
8, 34020, Note_on_c, 9, 42, 110
8, 34025, Note_on_c, 9, 42, 0
8, 34050, Note_on_c, 9, 46, 110
8, 34055, Note_on_c, 9, 46, 0
8, 34080, Note_on_c, 9, 46, 110
8, 34085, Note_on_c, 9, 46, 0
8, 34110, Note_on_c, 9, 36, 127
8, 34110, Note_on_c, 9, 42, 110
8, 34115, Note_on_c, 9, 42, 0
8, 34115, Note_on_c, 9, 36, 0
8, 34140, Note_on_c, 9, 42, 110
8, 34145, Note_on_c, 9, 42, 0
8, 34170, Note_on_c, 9, 46, 110
8, 34175, Note_on_c, 9, 46, 0
8, 34200, Note_on_c, 9, 46, 110
8, 34205, Note_on_c, 9, 46, 0
8, 34230, Note_on_c, 9, 36, 127
8, 34230, Note_on_c, 9, 42, 110
8, 34235, Note_on_c, 9, 42, 0
8, 34235, Note_on_c, 9, 36, 0
8, 34260, Note_on_c, 9, 42, 110
8, 34265, Note_on_c, 9, 42, 0
8, 34290, Note_on_c, 9, 46, 110
8, 34295, Note_on_c, 9, 46, 0
8, 34320, Note_on_c, 9, 46, 110
8, 34325, Note_on_c, 9, 46, 0
8, 34350, Note_on_c, 9, 36, 127
8, 34350, Note_on_c, 9, 42, 110
8, 34355, Note_on_c, 9, 42, 0
8, 34355, Note_on_c, 9, 36, 0
8, 34380, Note_on_c, 9, 42, 110
8, 34385, Note_on_c, 9, 42, 0
8, 34410, Note_on_c, 9, 46, 110
8, 34415, Note_on_c, 9, 46, 0
8, 34440, Note_on_c, 9, 46, 110
8, 34445, Note_on_c, 9, 46, 0
8, 34470, Note_on_c, 9, 36, 127
8, 34470, Note_on_c, 9, 42, 110
8, 34475, Note_on_c, 9, 42, 0
8, 34475, Note_on_c, 9, 36, 0
8, 34500, Note_on_c, 9, 42, 110
8, 34505, Note_on_c, 9, 42, 0
8, 34530, Note_on_c, 9, 46, 110
8, 34535, Note_on_c, 9, 46, 0
8, 34560, Note_on_c, 9, 46, 110
8, 34565, Note_on_c, 9, 46, 0
8, 34590, Note_on_c, 9, 36, 127
8, 34590, Note_on_c, 9, 42, 110
8, 34595, Note_on_c, 9, 42, 0
8, 34595, Note_on_c, 9, 36, 0
8, 34620, Note_on_c, 9, 42, 110
8, 34625, Note_on_c, 9, 42, 0
8, 34650, Note_on_c, 9, 46, 110
8, 34655, Note_on_c, 9, 46, 0
8, 34680, Note_on_c, 9, 46, 110
8, 34685, Note_on_c, 9, 46, 0
8, 34710, Note_on_c, 9, 36, 127
8, 34710, Note_on_c, 9, 42, 110
8, 34715, Note_on_c, 9, 42, 0
8, 34715, Note_on_c, 9, 36, 0
8, 34740, Note_on_c, 9, 42, 110
8, 34745, Note_on_c, 9, 42, 0
8, 34770, Note_on_c, 9, 46, 110
8, 34775, Note_on_c, 9, 46, 0
8, 34800, Note_on_c, 9, 46, 110
8, 34805, Note_on_c, 9, 46, 0
8, 34830, Note_on_c, 9, 36, 127
8, 34830, Note_on_c, 9, 42, 110
8, 34835, Note_on_c, 9, 42, 0
8, 34835, Note_on_c, 9, 36, 0
8, 34860, Note_on_c, 9, 42, 110
8, 34865, Note_on_c, 9, 42, 0
8, 34890, Note_on_c, 9, 46, 110
8, 34895, Note_on_c, 9, 46, 0
8, 34920, Note_on_c, 9, 46, 110
8, 34925, Note_on_c, 9, 46, 0
8, 34950, Note_on_c, 9, 36, 127
8, 34950, Note_on_c, 9, 42, 110
8, 34955, Note_on_c, 9, 42, 0
8, 34955, Note_on_c, 9, 36, 0
8, 34980, Note_on_c, 9, 42, 110
8, 34985, Note_on_c, 9, 42, 0
8, 35010, Note_on_c, 9, 46, 110
8, 35015, Note_on_c, 9, 46, 0
8, 35040, Note_on_c, 9, 46, 110
8, 35045, Note_on_c, 9, 46, 0
8, 35070, Note_on_c, 9, 36, 127
8, 35070, Note_on_c, 9, 42, 110
8, 35075, Note_on_c, 9, 42, 0
8, 35075, Note_on_c, 9, 36, 0
8, 35100, Note_on_c, 9, 42, 110
8, 35105, Note_on_c, 9, 42, 0
8, 35130, Note_on_c, 9, 46, 110
8, 35135, Note_on_c, 9, 46, 0
8, 35160, Note_on_c, 9, 46, 110
8, 35165, Note_on_c, 9, 46, 0
8, 35190, Note_on_c, 9, 36, 127
8, 35190, Note_on_c, 9, 42, 110
8, 35195, Note_on_c, 9, 42, 0
8, 35195, Note_on_c, 9, 36, 0
8, 35220, Note_on_c, 9, 42, 110
8, 35225, Note_on_c, 9, 42, 0
8, 35250, Note_on_c, 9, 46, 110
8, 35255, Note_on_c, 9, 46, 0
8, 35280, Note_on_c, 9, 46, 110
8, 35285, Note_on_c, 9, 46, 0
8, 35310, Note_on_c, 9, 36, 127
8, 35310, Note_on_c, 9, 42, 110
8, 35315, Note_on_c, 9, 42, 0
8, 35315, Note_on_c, 9, 36, 0
8, 35340, Note_on_c, 9, 42, 110
8, 35345, Note_on_c, 9, 42, 0
8, 35370, Note_on_c, 9, 46, 110
8, 35375, Note_on_c, 9, 46, 0
8, 35400, Note_on_c, 9, 46, 110
8, 35405, Note_on_c, 9, 46, 0
8, 35430, Note_on_c, 9, 36, 127
8, 35430, Note_on_c, 9, 42, 110
8, 35435, Note_on_c, 9, 42, 0
8, 35435, Note_on_c, 9, 36, 0
8, 35460, Note_on_c, 9, 42, 110
8, 35465, Note_on_c, 9, 42, 0
8, 35490, Note_on_c, 9, 46, 110
8, 35495, Note_on_c, 9, 46, 0
8, 35520, Note_on_c, 9, 46, 110
8, 35525, Note_on_c, 9, 46, 0
8, 35550, Note_on_c, 9, 36, 127
8, 35550, Note_on_c, 9, 42, 110
8, 35555, Note_on_c, 9, 42, 0
8, 35555, Note_on_c, 9, 36, 0
8, 35580, Note_on_c, 9, 42, 110
8, 35585, Note_on_c, 9, 42, 0
8, 35610, Note_on_c, 9, 46, 110
8, 35615, Note_on_c, 9, 46, 0
8, 35640, Note_on_c, 9, 46, 110
8, 35645, Note_on_c, 9, 46, 0
8, 35670, Note_on_c, 9, 36, 127
8, 35670, Note_on_c, 9, 42, 110
8, 35675, Note_on_c, 9, 42, 0
8, 35675, Note_on_c, 9, 36, 0
8, 35700, Note_on_c, 9, 42, 110
8, 35705, Note_on_c, 9, 42, 0
8, 35730, Note_on_c, 9, 46, 110
8, 35735, Note_on_c, 9, 46, 0
8, 35760, Note_on_c, 9, 46, 110
8, 35765, Note_on_c, 9, 46, 0
8, 35790, Note_on_c, 9, 36, 127
8, 35790, Note_on_c, 9, 42, 110
8, 35795, Note_on_c, 9, 42, 0
8, 35795, Note_on_c, 9, 36, 0
8, 35820, Note_on_c, 9, 42, 110
8, 35825, Note_on_c, 9, 42, 0
8, 35850, Note_on_c, 9, 46, 110
8, 35855, Note_on_c, 9, 46, 0
8, 35880, Note_on_c, 9, 46, 110
8, 35885, Note_on_c, 9, 46, 0
8, 35910, Note_on_c, 9, 36, 127
8, 35910, Note_on_c, 9, 42, 110
8, 35915, Note_on_c, 9, 42, 0
8, 35915, Note_on_c, 9, 36, 0
8, 35940, Note_on_c, 9, 42, 110
8, 35945, Note_on_c, 9, 42, 0
8, 35970, Note_on_c, 9, 46, 110
8, 35975, Note_on_c, 9, 46, 0
8, 36000, Note_on_c, 9, 46, 110
8, 36005, Note_on_c, 9, 46, 0
8, 36030, Note_on_c, 9, 36, 127
8, 36030, Note_on_c, 9, 42, 110
8, 36035, Note_on_c, 9, 42, 0
8, 36035, Note_on_c, 9, 36, 0
8, 36060, Note_on_c, 9, 42, 110
8, 36065, Note_on_c, 9, 42, 0
8, 36090, Note_on_c, 9, 46, 110
8, 36095, Note_on_c, 9, 46, 0
8, 36120, Note_on_c, 9, 46, 110
8, 36125, Note_on_c, 9, 46, 0
8, 36150, Note_on_c, 9, 36, 127
8, 36150, Note_on_c, 9, 42, 110
8, 36155, Note_on_c, 9, 42, 0
8, 36155, Note_on_c, 9, 36, 0
8, 36180, Note_on_c, 9, 42, 110
8, 36185, Note_on_c, 9, 42, 0
8, 36210, Note_on_c, 9, 46, 110
8, 36215, Note_on_c, 9, 46, 0
8, 36240, Note_on_c, 9, 46, 110
8, 36245, Note_on_c, 9, 46, 0
8, 36270, Note_on_c, 9, 36, 127
8, 36270, Note_on_c, 9, 42, 110
8, 36275, Note_on_c, 9, 42, 0
8, 36275, Note_on_c, 9, 36, 0
8, 36300, Note_on_c, 9, 42, 110
8, 36305, Note_on_c, 9, 42, 0
8, 36330, Note_on_c, 9, 46, 110
8, 36335, Note_on_c, 9, 46, 0
8, 36360, Note_on_c, 9, 46, 110
8, 36365, Note_on_c, 9, 46, 0
8, 36390, Note_on_c, 9, 36, 127
8, 36390, Note_on_c, 9, 42, 110
8, 36395, Note_on_c, 9, 42, 0
8, 36395, Note_on_c, 9, 36, 0
8, 36420, Note_on_c, 9, 42, 110
8, 36425, Note_on_c, 9, 42, 0
8, 36450, Note_on_c, 9, 46, 110
8, 36455, Note_on_c, 9, 46, 0
8, 36480, Note_on_c, 9, 46, 110
8, 36485, Note_on_c, 9, 46, 0
8, 36510, Note_on_c, 9, 36, 127
8, 36510, Note_on_c, 9, 42, 110
8, 36515, Note_on_c, 9, 42, 0
8, 36515, Note_on_c, 9, 36, 0
8, 36540, Note_on_c, 9, 42, 110
8, 36545, Note_on_c, 9, 42, 0
8, 36570, Note_on_c, 9, 46, 110
8, 36575, Note_on_c, 9, 46, 0
8, 36600, Note_on_c, 9, 46, 110
8, 36605, Note_on_c, 9, 46, 0
8, 36630, Note_on_c, 9, 36, 127
8, 36630, Note_on_c, 9, 42, 110
8, 36635, Note_on_c, 9, 42, 0
8, 36635, Note_on_c, 9, 36, 0
8, 36660, Note_on_c, 9, 42, 110
8, 36665, Note_on_c, 9, 42, 0
8, 36690, Note_on_c, 9, 46, 110
8, 36695, Note_on_c, 9, 46, 0
8, 36720, Note_on_c, 9, 46, 110
8, 36725, Note_on_c, 9, 46, 0
8, 36750, Note_on_c, 9, 36, 127
8, 36750, Note_on_c, 9, 42, 110
8, 36755, Note_on_c, 9, 42, 0
8, 36755, Note_on_c, 9, 36, 0
8, 36780, Note_on_c, 9, 42, 110
8, 36785, Note_on_c, 9, 42, 0
8, 36810, Note_on_c, 9, 46, 110
8, 36815, Note_on_c, 9, 46, 0
8, 36840, Note_on_c, 9, 46, 110
8, 36845, Note_on_c, 9, 46, 0
8, 36870, Note_on_c, 9, 36, 127
8, 36870, Note_on_c, 9, 42, 110
8, 36875, Note_on_c, 9, 42, 0
8, 36875, Note_on_c, 9, 36, 0
8, 36900, Note_on_c, 9, 42, 110
8, 36905, Note_on_c, 9, 42, 0
8, 36930, Note_on_c, 9, 46, 110
8, 36935, Note_on_c, 9, 46, 0
8, 36960, Note_on_c, 9, 46, 110
8, 36965, Note_on_c, 9, 46, 0
8, 36990, Note_on_c, 9, 36, 127
8, 36990, Note_on_c, 9, 42, 110
8, 36995, Note_on_c, 9, 42, 0
8, 36995, Note_on_c, 9, 36, 0
8, 37020, Note_on_c, 9, 42, 110
8, 37025, Note_on_c, 9, 42, 0
8, 37050, Note_on_c, 9, 46, 110
8, 37055, Note_on_c, 9, 46, 0
8, 37080, Note_on_c, 9, 46, 110
8, 37085, Note_on_c, 9, 46, 0
8, 37110, Note_on_c, 9, 36, 127
8, 37110, Note_on_c, 9, 42, 110
8, 37115, Note_on_c, 9, 42, 0
8, 37115, Note_on_c, 9, 36, 0
8, 37140, Note_on_c, 9, 42, 110
8, 37145, Note_on_c, 9, 42, 0
8, 37170, Note_on_c, 9, 46, 110
8, 37175, Note_on_c, 9, 46, 0
8, 37200, Note_on_c, 9, 46, 110
8, 37205, Note_on_c, 9, 46, 0
8, 37230, Note_on_c, 9, 36, 127
8, 37230, Note_on_c, 9, 42, 110
8, 37235, Note_on_c, 9, 42, 0
8, 37235, Note_on_c, 9, 36, 0
8, 37260, Note_on_c, 9, 42, 110
8, 37265, Note_on_c, 9, 42, 0
8, 37290, Note_on_c, 9, 46, 110
8, 37295, Note_on_c, 9, 46, 0
8, 37320, Note_on_c, 9, 46, 110
8, 37325, Note_on_c, 9, 46, 0
8, 37350, Note_on_c, 9, 36, 127
8, 37350, Note_on_c, 9, 42, 110
8, 37355, Note_on_c, 9, 42, 0
8, 37355, Note_on_c, 9, 36, 0
8, 37380, Note_on_c, 9, 42, 110
8, 37385, Note_on_c, 9, 42, 0
8, 37410, Note_on_c, 9, 46, 110
8, 37415, Note_on_c, 9, 46, 0
8, 37440, Note_on_c, 9, 46, 110
8, 37445, Note_on_c, 9, 46, 0
8, 37470, Note_on_c, 9, 36, 127
8, 37470, Note_on_c, 9, 42, 110
8, 37475, Note_on_c, 9, 42, 0
8, 37475, Note_on_c, 9, 36, 0
8, 37500, Note_on_c, 9, 42, 110
8, 37505, Note_on_c, 9, 42, 0
8, 37530, Note_on_c, 9, 46, 110
8, 37535, Note_on_c, 9, 46, 0
8, 37560, Note_on_c, 9, 46, 110
8, 37565, Note_on_c, 9, 46, 0
8, 37590, Note_on_c, 9, 36, 127
8, 37590, Note_on_c, 9, 42, 110
8, 37595, Note_on_c, 9, 42, 0
8, 37595, Note_on_c, 9, 36, 0
8, 37620, Note_on_c, 9, 42, 110
8, 37625, Note_on_c, 9, 42, 0
8, 37650, Note_on_c, 9, 46, 110
8, 37655, Note_on_c, 9, 46, 0
8, 37680, Note_on_c, 9, 46, 110
8, 37685, Note_on_c, 9, 46, 0
8, 37710, Note_on_c, 9, 36, 127
8, 37710, Note_on_c, 9, 42, 110
8, 37715, Note_on_c, 9, 42, 0
8, 37715, Note_on_c, 9, 36, 0
8, 37740, Note_on_c, 9, 42, 110
8, 37745, Note_on_c, 9, 42, 0
8, 37770, Note_on_c, 9, 46, 110
8, 37775, Note_on_c, 9, 46, 0
8, 37800, Note_on_c, 9, 46, 110
8, 37805, Note_on_c, 9, 46, 0
8, 37830, Note_on_c, 9, 36, 127
8, 37830, Note_on_c, 9, 42, 110
8, 37835, Note_on_c, 9, 42, 0
8, 37835, Note_on_c, 9, 36, 0
8, 37860, Note_on_c, 9, 42, 110
8, 37865, Note_on_c, 9, 42, 0
8, 37890, Note_on_c, 9, 46, 110
8, 37895, Note_on_c, 9, 46, 0
8, 37920, Note_on_c, 9, 46, 110
8, 37925, Note_on_c, 9, 46, 0
8, 37950, Note_on_c, 9, 36, 127
8, 37950, Note_on_c, 9, 42, 110
8, 37955, Note_on_c, 9, 42, 0
8, 37955, Note_on_c, 9, 36, 0
8, 37980, Note_on_c, 9, 42, 110
8, 37985, Note_on_c, 9, 42, 0
8, 38010, Note_on_c, 9, 46, 110
8, 38015, Note_on_c, 9, 46, 0
8, 38040, Note_on_c, 9, 46, 110
8, 38045, Note_on_c, 9, 46, 0
8, 38070, Note_on_c, 9, 36, 127
8, 38070, Note_on_c, 9, 42, 110
8, 38075, Note_on_c, 9, 42, 0
8, 38075, Note_on_c, 9, 36, 0
8, 38100, Note_on_c, 9, 42, 110
8, 38105, Note_on_c, 9, 42, 0
8, 38130, Note_on_c, 9, 46, 110
8, 38135, Note_on_c, 9, 46, 0
8, 38160, Note_on_c, 9, 46, 110
8, 38165, Note_on_c, 9, 46, 0
8, 38190, Note_on_c, 9, 36, 127
8, 38190, Note_on_c, 9, 42, 110
8, 38195, Note_on_c, 9, 42, 0
8, 38195, Note_on_c, 9, 36, 0
8, 38220, Note_on_c, 9, 42, 110
8, 38225, Note_on_c, 9, 42, 0
8, 38250, Note_on_c, 9, 46, 110
8, 38255, Note_on_c, 9, 46, 0
8, 38280, Note_on_c, 9, 46, 110
8, 38285, Note_on_c, 9, 46, 0
8, 38310, Note_on_c, 9, 36, 127
8, 38310, Note_on_c, 9, 42, 110
8, 38315, Note_on_c, 9, 42, 0
8, 38315, Note_on_c, 9, 36, 0
8, 38340, Note_on_c, 9, 42, 110
8, 38345, Note_on_c, 9, 42, 0
8, 38370, Note_on_c, 9, 46, 110
8, 38375, Note_on_c, 9, 46, 0
8, 38400, Note_on_c, 9, 46, 110
8, 38405, Note_on_c, 9, 46, 0
8, 38430, Note_on_c, 9, 36, 127
8, 38430, Note_on_c, 9, 42, 110
8, 38435, Note_on_c, 9, 42, 0
8, 38435, Note_on_c, 9, 36, 0
8, 38460, Note_on_c, 9, 42, 110
8, 38465, Note_on_c, 9, 42, 0
8, 38490, Note_on_c, 9, 46, 110
8, 38495, Note_on_c, 9, 46, 0
8, 38520, Note_on_c, 9, 46, 110
8, 38525, Note_on_c, 9, 46, 0
8, 38550, Note_on_c, 9, 36, 127
8, 38550, Note_on_c, 9, 42, 110
8, 38555, Note_on_c, 9, 42, 0
8, 38555, Note_on_c, 9, 36, 0
8, 38580, Note_on_c, 9, 42, 110
8, 38585, Note_on_c, 9, 42, 0
8, 38610, Note_on_c, 9, 46, 110
8, 38615, Note_on_c, 9, 46, 0
8, 38640, Note_on_c, 9, 46, 110
8, 38645, Note_on_c, 9, 46, 0
8, 38670, Note_on_c, 9, 36, 127
8, 38670, Note_on_c, 9, 42, 110
8, 38675, Note_on_c, 9, 42, 0
8, 38675, Note_on_c, 9, 36, 0
8, 38700, Note_on_c, 9, 42, 110
8, 38705, Note_on_c, 9, 42, 0
8, 38730, Note_on_c, 9, 46, 110
8, 38735, Note_on_c, 9, 46, 0
8, 38760, Note_on_c, 9, 46, 110
8, 38765, Note_on_c, 9, 46, 0
8, 38790, Note_on_c, 9, 36, 127
8, 38790, Note_on_c, 9, 42, 110
8, 38795, Note_on_c, 9, 42, 0
8, 38795, Note_on_c, 9, 36, 0
8, 38820, Note_on_c, 9, 42, 110
8, 38825, Note_on_c, 9, 42, 0
8, 38850, Note_on_c, 9, 46, 110
8, 38855, Note_on_c, 9, 46, 0
8, 38880, Note_on_c, 9, 46, 110
8, 38885, Note_on_c, 9, 46, 0
8, 38910, Note_on_c, 9, 36, 127
8, 38910, Note_on_c, 9, 42, 110
8, 38915, Note_on_c, 9, 42, 0
8, 38915, Note_on_c, 9, 36, 0
8, 38940, Note_on_c, 9, 42, 110
8, 38945, Note_on_c, 9, 42, 0
8, 38970, Note_on_c, 9, 46, 110
8, 38975, Note_on_c, 9, 46, 0
8, 39000, Note_on_c, 9, 46, 110
8, 39005, Note_on_c, 9, 46, 0
8, 39030, Note_on_c, 9, 36, 127
8, 39030, Note_on_c, 9, 42, 110
8, 39035, Note_on_c, 9, 42, 0
8, 39035, Note_on_c, 9, 36, 0
8, 39060, Note_on_c, 9, 42, 110
8, 39065, Note_on_c, 9, 42, 0
8, 39090, Note_on_c, 9, 46, 110
8, 39095, Note_on_c, 9, 46, 0
8, 39120, Note_on_c, 9, 46, 110
8, 39125, Note_on_c, 9, 46, 0
8, 39150, Note_on_c, 9, 36, 127
8, 39150, Note_on_c, 9, 42, 110
8, 39155, Note_on_c, 9, 42, 0
8, 39155, Note_on_c, 9, 36, 0
8, 39180, Note_on_c, 9, 42, 110
8, 39185, Note_on_c, 9, 42, 0
8, 39210, Note_on_c, 9, 46, 110
8, 39215, Note_on_c, 9, 46, 0
8, 39240, Note_on_c, 9, 46, 110
8, 39245, Note_on_c, 9, 46, 0
8, 39270, Note_on_c, 9, 36, 127
8, 39270, Note_on_c, 9, 42, 110
8, 39275, Note_on_c, 9, 42, 0
8, 39275, Note_on_c, 9, 36, 0
8, 39300, Note_on_c, 9, 42, 110
8, 39305, Note_on_c, 9, 42, 0
8, 39330, Note_on_c, 9, 46, 110
8, 39335, Note_on_c, 9, 46, 0
8, 39360, Note_on_c, 9, 46, 110
8, 39365, Note_on_c, 9, 46, 0
8, 39390, Note_on_c, 9, 36, 127
8, 39390, Note_on_c, 9, 42, 110
8, 39395, Note_on_c, 9, 42, 0
8, 39395, Note_on_c, 9, 36, 0
8, 39420, Note_on_c, 9, 42, 110
8, 39425, Note_on_c, 9, 42, 0
8, 39450, Note_on_c, 9, 46, 110
8, 39455, Note_on_c, 9, 46, 0
8, 39480, Note_on_c, 9, 46, 110
8, 39485, Note_on_c, 9, 46, 0
8, 39510, Note_on_c, 9, 36, 127
8, 39510, Note_on_c, 9, 42, 110
8, 39515, Note_on_c, 9, 42, 0
8, 39515, Note_on_c, 9, 36, 0
8, 39540, Note_on_c, 9, 42, 110
8, 39545, Note_on_c, 9, 42, 0
8, 39570, Note_on_c, 9, 46, 110
8, 39575, Note_on_c, 9, 46, 0
8, 39600, Note_on_c, 9, 46, 110
8, 39605, Note_on_c, 9, 46, 0
8, 39630, Note_on_c, 9, 36, 127
8, 39630, Note_on_c, 9, 42, 110
8, 39635, Note_on_c, 9, 42, 0
8, 39635, Note_on_c, 9, 36, 0
8, 39660, Note_on_c, 9, 42, 110
8, 39665, Note_on_c, 9, 42, 0
8, 39690, Note_on_c, 9, 46, 110
8, 39695, Note_on_c, 9, 46, 0
8, 39720, Note_on_c, 9, 46, 110
8, 39725, Note_on_c, 9, 46, 0
8, 39750, Note_on_c, 9, 36, 127
8, 39750, Note_on_c, 9, 42, 110
8, 39755, Note_on_c, 9, 42, 0
8, 39755, Note_on_c, 9, 36, 0
8, 39780, Note_on_c, 9, 42, 110
8, 39785, Note_on_c, 9, 42, 0
8, 39810, Note_on_c, 9, 46, 110
8, 39815, Note_on_c, 9, 46, 0
8, 39840, Note_on_c, 9, 46, 110
8, 39845, Note_on_c, 9, 46, 0
8, 39870, Note_on_c, 9, 36, 127
8, 39870, Note_on_c, 9, 42, 110
8, 39875, Note_on_c, 9, 42, 0
8, 39875, Note_on_c, 9, 36, 0
8, 39900, Note_on_c, 9, 42, 110
8, 39905, Note_on_c, 9, 42, 0
8, 39930, Note_on_c, 9, 46, 110
8, 39935, Note_on_c, 9, 46, 0
8, 39960, Note_on_c, 9, 46, 110
8, 39965, Note_on_c, 9, 46, 0
8, 39990, Note_on_c, 9, 36, 127
8, 39990, Note_on_c, 9, 42, 110
8, 39995, Note_on_c, 9, 42, 0
8, 39995, Note_on_c, 9, 36, 0
8, 40020, Note_on_c, 9, 42, 110
8, 40025, Note_on_c, 9, 42, 0
8, 40050, Note_on_c, 9, 46, 110
8, 40055, Note_on_c, 9, 46, 0
8, 40080, Note_on_c, 9, 46, 110
8, 40085, Note_on_c, 9, 46, 0
8, 40110, Note_on_c, 9, 36, 127
8, 40110, Note_on_c, 9, 42, 110
8, 40115, Note_on_c, 9, 42, 0
8, 40115, Note_on_c, 9, 36, 0
8, 40140, Note_on_c, 9, 42, 110
8, 40145, Note_on_c, 9, 42, 0
8, 40170, Note_on_c, 9, 46, 110
8, 40175, Note_on_c, 9, 46, 0
8, 40200, Note_on_c, 9, 46, 110
8, 40205, Note_on_c, 9, 46, 0
8, 40230, Note_on_c, 9, 36, 127
8, 40230, Note_on_c, 9, 42, 110
8, 40235, Note_on_c, 9, 42, 0
8, 40235, Note_on_c, 9, 36, 0
8, 40260, Note_on_c, 9, 42, 110
8, 40265, Note_on_c, 9, 42, 0
8, 40290, Note_on_c, 9, 46, 110
8, 40295, Note_on_c, 9, 46, 0
8, 40320, Note_on_c, 9, 46, 110
8, 40325, Note_on_c, 9, 46, 0
8, 40350, Note_on_c, 9, 36, 127
8, 40350, Note_on_c, 9, 42, 110
8, 40355, Note_on_c, 9, 42, 0
8, 40355, Note_on_c, 9, 36, 0
8, 40380, Note_on_c, 9, 42, 110
8, 40385, Note_on_c, 9, 42, 0
8, 40410, Note_on_c, 9, 46, 110
8, 40415, Note_on_c, 9, 46, 0
8, 40440, Note_on_c, 9, 46, 110
8, 40445, Note_on_c, 9, 46, 0
8, 40470, Note_on_c, 9, 36, 127
8, 40470, Note_on_c, 9, 42, 110
8, 40475, Note_on_c, 9, 42, 0
8, 40475, Note_on_c, 9, 36, 0
8, 40500, Note_on_c, 9, 42, 110
8, 40505, Note_on_c, 9, 42, 0
8, 40530, Note_on_c, 9, 46, 110
8, 40535, Note_on_c, 9, 46, 0
8, 40560, Note_on_c, 9, 46, 110
8, 40565, Note_on_c, 9, 46, 0
8, 40590, Note_on_c, 9, 36, 127
8, 40590, Note_on_c, 9, 42, 110
8, 40595, Note_on_c, 9, 42, 0
8, 40595, Note_on_c, 9, 36, 0
8, 40620, Note_on_c, 9, 42, 110
8, 40625, Note_on_c, 9, 42, 0
8, 40650, Note_on_c, 9, 46, 110
8, 40655, Note_on_c, 9, 46, 0
8, 40680, Note_on_c, 9, 46, 110
8, 40685, Note_on_c, 9, 46, 0
8, 40710, Note_on_c, 9, 36, 127
8, 40710, Note_on_c, 9, 42, 110
8, 40715, Note_on_c, 9, 42, 0
8, 40715, Note_on_c, 9, 36, 0
8, 40740, Note_on_c, 9, 42, 110
8, 40745, Note_on_c, 9, 42, 0
8, 40770, Note_on_c, 9, 46, 110
8, 40775, Note_on_c, 9, 46, 0
8, 40800, Note_on_c, 9, 46, 110
8, 40805, Note_on_c, 9, 46, 0
8, 40830, Note_on_c, 9, 36, 127
8, 40830, Note_on_c, 9, 42, 110
8, 40835, Note_on_c, 9, 42, 0
8, 40835, Note_on_c, 9, 36, 0
8, 40860, Note_on_c, 9, 42, 110
8, 40865, Note_on_c, 9, 42, 0
8, 40890, Note_on_c, 9, 46, 110
8, 40895, Note_on_c, 9, 46, 0
8, 40920, Note_on_c, 9, 46, 110
8, 40925, Note_on_c, 9, 46, 0
8, 40950, Note_on_c, 9, 36, 127
8, 40950, Note_on_c, 9, 42, 110
8, 40955, Note_on_c, 9, 42, 0
8, 40955, Note_on_c, 9, 36, 0
8, 40980, Note_on_c, 9, 42, 110
8, 40985, Note_on_c, 9, 42, 0
8, 41010, Note_on_c, 9, 46, 110
8, 41015, Note_on_c, 9, 46, 0
8, 41040, Note_on_c, 9, 46, 110
8, 41045, Note_on_c, 9, 46, 0
8, 41070, Note_on_c, 9, 36, 127
8, 41070, Note_on_c, 9, 42, 110
8, 41075, Note_on_c, 9, 42, 0
8, 41075, Note_on_c, 9, 36, 0
8, 41100, Note_on_c, 9, 42, 110
8, 41105, Note_on_c, 9, 42, 0
8, 41130, Note_on_c, 9, 46, 110
8, 41135, Note_on_c, 9, 46, 0
8, 41160, Note_on_c, 9, 46, 110
8, 41165, Note_on_c, 9, 46, 0
8, 41190, Note_on_c, 9, 36, 127
8, 41190, Note_on_c, 9, 42, 110
8, 41195, Note_on_c, 9, 42, 0
8, 41195, Note_on_c, 9, 36, 0
8, 41220, Note_on_c, 9, 42, 110
8, 41225, Note_on_c, 9, 42, 0
8, 41250, Note_on_c, 9, 46, 110
8, 41255, Note_on_c, 9, 46, 0
8, 41280, Note_on_c, 9, 46, 110
8, 41285, Note_on_c, 9, 46, 0
8, 41310, Note_on_c, 9, 36, 127
8, 41310, Note_on_c, 9, 42, 110
8, 41315, Note_on_c, 9, 42, 0
8, 41315, Note_on_c, 9, 36, 0
8, 41340, Note_on_c, 9, 42, 110
8, 41345, Note_on_c, 9, 42, 0
8, 41370, Note_on_c, 9, 46, 110
8, 41375, Note_on_c, 9, 46, 0
8, 41400, Note_on_c, 9, 46, 110
8, 41405, Note_on_c, 9, 46, 0
8, 41430, Note_on_c, 9, 36, 127
8, 41430, Note_on_c, 9, 42, 110
8, 41435, Note_on_c, 9, 42, 0
8, 41435, Note_on_c, 9, 36, 0
8, 41460, Note_on_c, 9, 42, 110
8, 41465, Note_on_c, 9, 42, 0
8, 41490, Note_on_c, 9, 46, 110
8, 41495, Note_on_c, 9, 46, 0
8, 41520, Note_on_c, 9, 46, 110
8, 41525, Note_on_c, 9, 46, 0
8, 41550, Note_on_c, 9, 36, 127
8, 41550, Note_on_c, 9, 42, 110
8, 41555, Note_on_c, 9, 42, 0
8, 41555, Note_on_c, 9, 36, 0
8, 41580, Note_on_c, 9, 42, 110
8, 41585, Note_on_c, 9, 42, 0
8, 41610, Note_on_c, 9, 46, 110
8, 41615, Note_on_c, 9, 46, 0
8, 41640, Note_on_c, 9, 46, 110
8, 41645, Note_on_c, 9, 46, 0
8, 41670, Note_on_c, 9, 36, 127
8, 41670, Note_on_c, 9, 42, 110
8, 41675, Note_on_c, 9, 42, 0
8, 41675, Note_on_c, 9, 36, 0
8, 41700, Note_on_c, 9, 42, 110
8, 41705, Note_on_c, 9, 42, 0
8, 41730, Note_on_c, 9, 46, 110
8, 41735, Note_on_c, 9, 46, 0
8, 41760, Note_on_c, 9, 46, 110
8, 41765, Note_on_c, 9, 46, 0
8, 41790, Note_on_c, 9, 36, 127
8, 41790, Note_on_c, 9, 42, 110
8, 41795, Note_on_c, 9, 42, 0
8, 41795, Note_on_c, 9, 36, 0
8, 41820, Note_on_c, 9, 42, 110
8, 41825, Note_on_c, 9, 42, 0
8, 41850, Note_on_c, 9, 46, 110
8, 41855, Note_on_c, 9, 46, 0
8, 41880, Note_on_c, 9, 46, 110
8, 41885, Note_on_c, 9, 46, 0
8, 41910, Note_on_c, 9, 36, 127
8, 41910, Note_on_c, 9, 42, 110
8, 41915, Note_on_c, 9, 42, 0
8, 41915, Note_on_c, 9, 36, 0
8, 41940, Note_on_c, 9, 42, 110
8, 41945, Note_on_c, 9, 42, 0
8, 41970, Note_on_c, 9, 46, 110
8, 41975, Note_on_c, 9, 46, 0
8, 42000, Note_on_c, 9, 46, 110
8, 42005, Note_on_c, 9, 46, 0
8, 42030, Note_on_c, 9, 36, 127
8, 42030, Note_on_c, 9, 42, 110
8, 42035, Note_on_c, 9, 42, 0
8, 42035, Note_on_c, 9, 36, 0
8, 42060, Note_on_c, 9, 42, 110
8, 42065, Note_on_c, 9, 42, 0
8, 42090, Note_on_c, 9, 46, 110
8, 42095, Note_on_c, 9, 46, 0
8, 42120, Note_on_c, 9, 46, 110
8, 42125, Note_on_c, 9, 46, 0
8, 42150, Note_on_c, 9, 36, 127
8, 42150, Note_on_c, 9, 42, 110
8, 42155, Note_on_c, 9, 42, 0
8, 42155, Note_on_c, 9, 36, 0
8, 42180, Note_on_c, 9, 42, 110
8, 42185, Note_on_c, 9, 42, 0
8, 42210, Note_on_c, 9, 46, 110
8, 42215, Note_on_c, 9, 46, 0
8, 42240, Note_on_c, 9, 46, 110
8, 42245, Note_on_c, 9, 46, 0
8, 42270, Note_on_c, 9, 36, 127
8, 42270, Note_on_c, 9, 42, 110
8, 42275, Note_on_c, 9, 42, 0
8, 42275, Note_on_c, 9, 36, 0
8, 42300, Note_on_c, 9, 42, 110
8, 42305, Note_on_c, 9, 42, 0
8, 42330, Note_on_c, 9, 46, 110
8, 42335, Note_on_c, 9, 46, 0
8, 42360, Note_on_c, 9, 46, 110
8, 42365, Note_on_c, 9, 46, 0
8, 42390, Note_on_c, 9, 36, 127
8, 42390, Note_on_c, 9, 42, 110
8, 42395, Note_on_c, 9, 42, 0
8, 42395, Note_on_c, 9, 36, 0
8, 42420, Note_on_c, 9, 42, 110
8, 42425, Note_on_c, 9, 42, 0
8, 42450, Note_on_c, 9, 46, 110
8, 42455, Note_on_c, 9, 46, 0
8, 42480, Note_on_c, 9, 46, 110
8, 42485, Note_on_c, 9, 46, 0
8, 42510, Note_on_c, 9, 36, 127
8, 42510, Note_on_c, 9, 42, 110
8, 42515, Note_on_c, 9, 42, 0
8, 42515, Note_on_c, 9, 36, 0
8, 42540, Note_on_c, 9, 42, 110
8, 42545, Note_on_c, 9, 42, 0
8, 42570, Note_on_c, 9, 46, 110
8, 42575, Note_on_c, 9, 46, 0
8, 42600, Note_on_c, 9, 46, 110
8, 42605, Note_on_c, 9, 46, 0
8, 42630, Note_on_c, 9, 36, 127
8, 42630, Note_on_c, 9, 42, 110
8, 42635, Note_on_c, 9, 42, 0
8, 42635, Note_on_c, 9, 36, 0
8, 42660, Note_on_c, 9, 42, 110
8, 42665, Note_on_c, 9, 42, 0
8, 42690, Note_on_c, 9, 46, 110
8, 42695, Note_on_c, 9, 46, 0
8, 42720, Note_on_c, 9, 46, 110
8, 42725, Note_on_c, 9, 46, 0
8, 42750, Note_on_c, 9, 36, 127
8, 42750, Note_on_c, 9, 42, 110
8, 42755, Note_on_c, 9, 42, 0
8, 42755, Note_on_c, 9, 36, 0
8, 42780, Note_on_c, 9, 42, 110
8, 42785, Note_on_c, 9, 42, 0
8, 42810, Note_on_c, 9, 46, 110
8, 42815, Note_on_c, 9, 46, 0
8, 42840, Note_on_c, 9, 46, 110
8, 42845, Note_on_c, 9, 46, 0
8, 42870, Note_on_c, 9, 36, 127
8, 42870, Note_on_c, 9, 42, 110
8, 42875, Note_on_c, 9, 42, 0
8, 42875, Note_on_c, 9, 36, 0
8, 42900, Note_on_c, 9, 42, 110
8, 42905, Note_on_c, 9, 42, 0
8, 42930, Note_on_c, 9, 46, 110
8, 42935, Note_on_c, 9, 46, 0
8, 42960, Note_on_c, 9, 46, 110
8, 42965, Note_on_c, 9, 46, 0
8, 42990, Note_on_c, 9, 36, 127
8, 42990, Note_on_c, 9, 42, 110
8, 42995, Note_on_c, 9, 42, 0
8, 42995, Note_on_c, 9, 36, 0
8, 43020, Note_on_c, 9, 42, 110
8, 43025, Note_on_c, 9, 42, 0
8, 43050, Note_on_c, 9, 46, 110
8, 43055, Note_on_c, 9, 46, 0
8, 43080, Note_on_c, 9, 46, 110
8, 43085, Note_on_c, 9, 46, 0
8, 43110, Note_on_c, 9, 36, 127
8, 43110, Note_on_c, 9, 42, 110
8, 43115, Note_on_c, 9, 42, 0
8, 43115, Note_on_c, 9, 36, 0
8, 43140, Note_on_c, 9, 42, 110
8, 43145, Note_on_c, 9, 42, 0
8, 43170, Note_on_c, 9, 46, 110
8, 43175, Note_on_c, 9, 46, 0
8, 43200, Note_on_c, 9, 46, 110
8, 43205, Note_on_c, 9, 46, 0
8, 43230, Note_on_c, 9, 36, 127
8, 43230, Note_on_c, 9, 42, 110
8, 43235, Note_on_c, 9, 42, 0
8, 43235, Note_on_c, 9, 36, 0
8, 43260, Note_on_c, 9, 42, 110
8, 43265, Note_on_c, 9, 42, 0
8, 43290, Note_on_c, 9, 46, 110
8, 43295, Note_on_c, 9, 46, 0
8, 43320, Note_on_c, 9, 46, 110
8, 43325, Note_on_c, 9, 46, 0
8, 43350, Note_on_c, 9, 36, 127
8, 43350, Note_on_c, 9, 42, 110
8, 43355, Note_on_c, 9, 42, 0
8, 43355, Note_on_c, 9, 36, 0
8, 43380, Note_on_c, 9, 42, 110
8, 43385, Note_on_c, 9, 42, 0
8, 43410, Note_on_c, 9, 46, 110
8, 43415, Note_on_c, 9, 46, 0
8, 43440, Note_on_c, 9, 46, 110
8, 43445, Note_on_c, 9, 46, 0
8, 43470, Note_on_c, 9, 36, 127
8, 43470, Note_on_c, 9, 42, 110
8, 43475, Note_on_c, 9, 42, 0
8, 43475, Note_on_c, 9, 36, 0
8, 43500, Note_on_c, 9, 42, 110
8, 43505, Note_on_c, 9, 42, 0
8, 43530, Note_on_c, 9, 46, 110
8, 43535, Note_on_c, 9, 46, 0
8, 43560, Note_on_c, 9, 46, 110
8, 43565, Note_on_c, 9, 46, 0
8, 43590, Note_on_c, 9, 36, 127
8, 43590, Note_on_c, 9, 42, 110
8, 43595, Note_on_c, 9, 42, 0
8, 43595, Note_on_c, 9, 36, 0
8, 43620, Note_on_c, 9, 42, 110
8, 43625, Note_on_c, 9, 42, 0
8, 43650, Note_on_c, 9, 46, 110
8, 43655, Note_on_c, 9, 46, 0
8, 43680, Note_on_c, 9, 46, 110
8, 43685, Note_on_c, 9, 46, 0
8, 43710, Note_on_c, 9, 36, 127
8, 43710, Note_on_c, 9, 42, 110
8, 43715, Note_on_c, 9, 42, 0
8, 43715, Note_on_c, 9, 36, 0
8, 43740, Note_on_c, 9, 42, 110
8, 43745, Note_on_c, 9, 42, 0
8, 43770, Note_on_c, 9, 46, 110
8, 43775, Note_on_c, 9, 46, 0
8, 43800, Note_on_c, 9, 46, 110
8, 43805, Note_on_c, 9, 46, 0
8, 43830, Note_on_c, 9, 36, 127
8, 43830, Note_on_c, 9, 42, 110
8, 43835, Note_on_c, 9, 42, 0
8, 43835, Note_on_c, 9, 36, 0
8, 43860, Note_on_c, 9, 42, 110
8, 43865, Note_on_c, 9, 42, 0
8, 43890, Note_on_c, 9, 46, 110
8, 43895, Note_on_c, 9, 46, 0
8, 43920, Note_on_c, 9, 46, 110
8, 43925, Note_on_c, 9, 46, 0
8, 43950, Note_on_c, 9, 36, 127
8, 43950, Note_on_c, 9, 42, 110
8, 43955, Note_on_c, 9, 42, 0
8, 43955, Note_on_c, 9, 36, 0
8, 43980, Note_on_c, 9, 42, 110
8, 43985, Note_on_c, 9, 42, 0
8, 44010, Note_on_c, 9, 46, 110
8, 44015, Note_on_c, 9, 46, 0
8, 44040, Note_on_c, 9, 46, 110
8, 44045, Note_on_c, 9, 46, 0
8, 44070, Note_on_c, 9, 36, 127
8, 44070, Note_on_c, 9, 42, 110
8, 44075, Note_on_c, 9, 42, 0
8, 44075, Note_on_c, 9, 36, 0
8, 44100, Note_on_c, 9, 42, 110
8, 44105, Note_on_c, 9, 42, 0
8, 44130, Note_on_c, 9, 46, 110
8, 44135, Note_on_c, 9, 46, 0
8, 44160, Note_on_c, 9, 46, 110
8, 44165, Note_on_c, 9, 46, 0
8, 44190, Note_on_c, 9, 36, 127
8, 44190, Note_on_c, 9, 42, 110
8, 44195, Note_on_c, 9, 42, 0
8, 44195, Note_on_c, 9, 36, 0
8, 44220, Note_on_c, 9, 42, 110
8, 44225, Note_on_c, 9, 42, 0
8, 44250, Note_on_c, 9, 46, 110
8, 44255, Note_on_c, 9, 46, 0
8, 44280, Note_on_c, 9, 46, 110
8, 44285, Note_on_c, 9, 46, 0
8, 44310, Note_on_c, 9, 36, 127
8, 44310, Note_on_c, 9, 42, 110
8, 44315, Note_on_c, 9, 42, 0
8, 44315, Note_on_c, 9, 36, 0
8, 44340, Note_on_c, 9, 42, 110
8, 44345, Note_on_c, 9, 42, 0
8, 44370, Note_on_c, 9, 46, 110
8, 44375, Note_on_c, 9, 46, 0
8, 44400, Note_on_c, 9, 46, 110
8, 44405, Note_on_c, 9, 46, 0
8, 44430, Note_on_c, 9, 36, 127
8, 44430, Note_on_c, 9, 42, 110
8, 44435, Note_on_c, 9, 42, 0
8, 44435, Note_on_c, 9, 36, 0
8, 44460, Note_on_c, 9, 42, 110
8, 44465, Note_on_c, 9, 42, 0
8, 44490, Note_on_c, 9, 46, 110
8, 44495, Note_on_c, 9, 46, 0
8, 44520, Note_on_c, 9, 46, 110
8, 44525, Note_on_c, 9, 46, 0
8, 44550, Note_on_c, 9, 36, 127
8, 44550, Note_on_c, 9, 42, 110
8, 44555, Note_on_c, 9, 42, 0
8, 44555, Note_on_c, 9, 36, 0
8, 44580, Note_on_c, 9, 42, 110
8, 44585, Note_on_c, 9, 42, 0
8, 44610, Note_on_c, 9, 46, 110
8, 44615, Note_on_c, 9, 46, 0
8, 44640, Note_on_c, 9, 46, 110
8, 44645, Note_on_c, 9, 46, 0
8, 44670, Note_on_c, 9, 36, 127
8, 44670, Note_on_c, 9, 42, 110
8, 44675, Note_on_c, 9, 42, 0
8, 44675, Note_on_c, 9, 36, 0
8, 44700, Note_on_c, 9, 42, 110
8, 44705, Note_on_c, 9, 42, 0
8, 44730, Note_on_c, 9, 46, 110
8, 44735, Note_on_c, 9, 46, 0
8, 44760, Note_on_c, 9, 46, 110
8, 44765, Note_on_c, 9, 46, 0
8, 44790, Note_on_c, 9, 36, 127
8, 44790, Note_on_c, 9, 42, 110
8, 44795, Note_on_c, 9, 42, 0
8, 44795, Note_on_c, 9, 36, 0
8, 44820, Note_on_c, 9, 42, 110
8, 44825, Note_on_c, 9, 42, 0
8, 44850, Note_on_c, 9, 46, 110
8, 44855, Note_on_c, 9, 46, 0
8, 44880, Note_on_c, 9, 46, 110
8, 44885, Note_on_c, 9, 46, 0
8, 44910, Note_on_c, 9, 36, 127
8, 44910, Note_on_c, 9, 42, 110
8, 44915, Note_on_c, 9, 42, 0
8, 44915, Note_on_c, 9, 36, 0
8, 44940, Note_on_c, 9, 42, 110
8, 44945, Note_on_c, 9, 42, 0
8, 44970, Note_on_c, 9, 46, 110
8, 44975, Note_on_c, 9, 46, 0
8, 45000, Note_on_c, 9, 46, 110
8, 45005, Note_on_c, 9, 46, 0
8, 45030, Note_on_c, 9, 36, 127
8, 45030, Note_on_c, 9, 42, 110
8, 45035, Note_on_c, 9, 42, 0
8, 45035, Note_on_c, 9, 36, 0
8, 45060, Note_on_c, 9, 42, 110
8, 45065, Note_on_c, 9, 42, 0
8, 45090, Note_on_c, 9, 46, 110
8, 45095, Note_on_c, 9, 46, 0
8, 45120, Note_on_c, 9, 46, 110
8, 45125, Note_on_c, 9, 46, 0
8, 45150, Note_on_c, 9, 36, 127
8, 45150, Note_on_c, 9, 42, 110
8, 45155, Note_on_c, 9, 42, 0
8, 45155, Note_on_c, 9, 36, 0
8, 45180, Note_on_c, 9, 42, 110
8, 45185, Note_on_c, 9, 42, 0
8, 45210, Note_on_c, 9, 46, 110
8, 45215, Note_on_c, 9, 46, 0
8, 45240, Note_on_c, 9, 46, 110
8, 45245, Note_on_c, 9, 46, 0
8, 45270, Note_on_c, 9, 36, 127
8, 45270, Note_on_c, 9, 42, 110
8, 45275, Note_on_c, 9, 42, 0
8, 45275, Note_on_c, 9, 36, 0
8, 45300, Note_on_c, 9, 42, 110
8, 45305, Note_on_c, 9, 42, 0
8, 45330, Note_on_c, 9, 46, 110
8, 45335, Note_on_c, 9, 46, 0
8, 45360, Note_on_c, 9, 46, 110
8, 45365, Note_on_c, 9, 46, 0
8, 45390, Note_on_c, 9, 36, 127
8, 45390, Note_on_c, 9, 42, 110
8, 45395, Note_on_c, 9, 42, 0
8, 45395, Note_on_c, 9, 36, 0
8, 45420, Note_on_c, 9, 42, 110
8, 45425, Note_on_c, 9, 42, 0
8, 45450, Note_on_c, 9, 46, 110
8, 45455, Note_on_c, 9, 46, 0
8, 45480, Note_on_c, 9, 46, 110
8, 45485, Note_on_c, 9, 46, 0
8, 45510, Note_on_c, 9, 36, 127
8, 45510, Note_on_c, 9, 42, 110
8, 45515, Note_on_c, 9, 42, 0
8, 45515, Note_on_c, 9, 36, 0
8, 45540, Note_on_c, 9, 42, 110
8, 45545, Note_on_c, 9, 42, 0
8, 45570, Note_on_c, 9, 46, 110
8, 45575, Note_on_c, 9, 46, 0
8, 45600, Note_on_c, 9, 46, 110
8, 45605, Note_on_c, 9, 46, 0
8, 45630, Note_on_c, 9, 36, 127
8, 45630, Note_on_c, 9, 42, 110
8, 45635, Note_on_c, 9, 42, 0
8, 45635, Note_on_c, 9, 36, 0
8, 45660, Note_on_c, 9, 42, 110
8, 45665, Note_on_c, 9, 42, 0
8, 45690, Note_on_c, 9, 46, 110
8, 45695, Note_on_c, 9, 46, 0
8, 45720, Note_on_c, 9, 46, 110
8, 45725, Note_on_c, 9, 46, 0
8, 45750, Note_on_c, 9, 36, 127
8, 45750, Note_on_c, 9, 42, 110
8, 45755, Note_on_c, 9, 42, 0
8, 45755, Note_on_c, 9, 36, 0
8, 45780, Note_on_c, 9, 42, 110
8, 45785, Note_on_c, 9, 42, 0
8, 45810, Note_on_c, 9, 46, 110
8, 45815, Note_on_c, 9, 46, 0
8, 45840, Note_on_c, 9, 46, 110
8, 45845, Note_on_c, 9, 46, 0
8, 45870, Note_on_c, 9, 36, 127
8, 45870, Note_on_c, 9, 42, 110
8, 45875, Note_on_c, 9, 42, 0
8, 45875, Note_on_c, 9, 36, 0
8, 45900, Note_on_c, 9, 42, 110
8, 45905, Note_on_c, 9, 42, 0
8, 45930, Note_on_c, 9, 46, 110
8, 45935, Note_on_c, 9, 46, 0
8, 45960, Note_on_c, 9, 46, 110
8, 45965, Note_on_c, 9, 46, 0
8, 45990, Note_on_c, 9, 36, 127
8, 45990, Note_on_c, 9, 42, 110
8, 45995, Note_on_c, 9, 42, 0
8, 45995, Note_on_c, 9, 36, 0
8, 46020, Note_on_c, 9, 42, 110
8, 46025, Note_on_c, 9, 42, 0
8, 46050, Note_on_c, 9, 46, 110
8, 46055, Note_on_c, 9, 46, 0
8, 46080, Note_on_c, 9, 46, 110
8, 46085, Note_on_c, 9, 46, 0
8, 46110, Note_on_c, 9, 36, 127
8, 46110, Note_on_c, 9, 42, 110
8, 46115, Note_on_c, 9, 42, 0
8, 46115, Note_on_c, 9, 36, 0
8, 46140, Note_on_c, 9, 42, 110
8, 46145, Note_on_c, 9, 42, 0
8, 46170, Note_on_c, 9, 46, 110
8, 46175, Note_on_c, 9, 46, 0
8, 46200, Note_on_c, 9, 46, 110
8, 46205, Note_on_c, 9, 46, 0
8, 46230, Note_on_c, 9, 36, 127
8, 46230, Note_on_c, 9, 42, 110
8, 46235, Note_on_c, 9, 42, 0
8, 46235, Note_on_c, 9, 36, 0
8, 46260, Note_on_c, 9, 42, 110
8, 46265, Note_on_c, 9, 42, 0
8, 46290, Note_on_c, 9, 46, 110
8, 46295, Note_on_c, 9, 46, 0
8, 46320, Note_on_c, 9, 46, 110
8, 46325, Note_on_c, 9, 46, 0
8, 46350, Note_on_c, 9, 36, 127
8, 46350, Note_on_c, 9, 42, 110
8, 46355, Note_on_c, 9, 42, 0
8, 46355, Note_on_c, 9, 36, 0
8, 46380, Note_on_c, 9, 42, 110
8, 46385, Note_on_c, 9, 42, 0
8, 46410, Note_on_c, 9, 46, 110
8, 46415, Note_on_c, 9, 46, 0
8, 46440, Note_on_c, 9, 46, 110
8, 46445, Note_on_c, 9, 46, 0
8, 46470, Note_on_c, 9, 36, 127
8, 46470, Note_on_c, 9, 42, 110
8, 46475, Note_on_c, 9, 42, 0
8, 46475, Note_on_c, 9, 36, 0
8, 46500, Note_on_c, 9, 42, 110
8, 46505, Note_on_c, 9, 42, 0
8, 46530, Note_on_c, 9, 46, 110
8, 46535, Note_on_c, 9, 46, 0
8, 46560, Note_on_c, 9, 46, 110
8, 46565, Note_on_c, 9, 46, 0
8, 46590, Note_on_c, 9, 42, 110
8, 46595, Note_on_c, 9, 42, 0
8, 46620, Note_on_c, 9, 42, 110
8, 46625, Note_on_c, 9, 42, 0
8, 46650, Note_on_c, 9, 46, 110
8, 46655, Note_on_c, 9, 46, 0
8, 46680, Note_on_c, 9, 46, 110
8, 46685, Note_on_c, 9, 46, 0
8, 46710, Note_on_c, 9, 42, 110
8, 46715, Note_on_c, 9, 42, 0
8, 46740, Note_on_c, 9, 42, 110
8, 46745, Note_on_c, 9, 42, 0
8, 46770, Note_on_c, 9, 46, 110
8, 46775, Note_on_c, 9, 46, 0
8, 46800, Note_on_c, 9, 46, 110
8, 46805, Note_on_c, 9, 46, 0
8, 46830, Note_on_c, 9, 42, 110
8, 46835, Note_on_c, 9, 42, 0
8, 46860, Note_on_c, 9, 42, 110
8, 46865, Note_on_c, 9, 42, 0
8, 46890, Note_on_c, 9, 46, 110
8, 46895, Note_on_c, 9, 46, 0
8, 46920, Note_on_c, 9, 46, 110
8, 46925, Note_on_c, 9, 46, 0
8, 46950, Note_on_c, 9, 42, 110
8, 46955, Note_on_c, 9, 42, 0
8, 46980, Note_on_c, 9, 42, 110
8, 46985, Note_on_c, 9, 42, 0
8, 47010, Note_on_c, 9, 46, 110
8, 47015, Note_on_c, 9, 46, 0
8, 47040, Note_on_c, 9, 46, 110
8, 47045, Note_on_c, 9, 46, 0
8, 47070, Note_on_c, 9, 42, 110
8, 47075, Note_on_c, 9, 42, 0
8, 47100, Note_on_c, 9, 42, 110
8, 47105, Note_on_c, 9, 42, 0
8, 47130, Note_on_c, 9, 46, 110
8, 47135, Note_on_c, 9, 46, 0
8, 47160, Note_on_c, 9, 46, 110
8, 47165, Note_on_c, 9, 46, 0
8, 47190, Note_on_c, 9, 42, 110
8, 47195, Note_on_c, 9, 42, 0
8, 47220, Note_on_c, 9, 42, 110
8, 47225, Note_on_c, 9, 42, 0
8, 47250, Note_on_c, 9, 46, 110
8, 47255, Note_on_c, 9, 46, 0
8, 47280, Note_on_c, 9, 46, 110
8, 47285, Note_on_c, 9, 46, 0
8, 47310, Note_on_c, 9, 42, 110
8, 47315, Note_on_c, 9, 42, 0
8, 47340, Note_on_c, 9, 42, 110
8, 47345, Note_on_c, 9, 42, 0
8, 47370, Note_on_c, 9, 46, 110
8, 47375, Note_on_c, 9, 46, 0
8, 47400, Note_on_c, 9, 46, 110
8, 47405, Note_on_c, 9, 46, 0
8, 47430, Note_on_c, 9, 42, 110
8, 47435, Note_on_c, 9, 42, 0
8, 47460, Note_on_c, 9, 42, 110
8, 47465, Note_on_c, 9, 42, 0
8, 47490, Note_on_c, 9, 46, 110
8, 47495, Note_on_c, 9, 46, 0
8, 47520, Note_on_c, 9, 46, 110
8, 47525, Note_on_c, 9, 46, 0
8, 47550, Note_on_c, 9, 42, 110
8, 47555, Note_on_c, 9, 42, 0
8, 47580, Note_on_c, 9, 42, 110
8, 47585, Note_on_c, 9, 42, 0
8, 47610, Note_on_c, 9, 46, 110
8, 47615, Note_on_c, 9, 46, 0
8, 47640, Note_on_c, 9, 46, 110
8, 47645, Note_on_c, 9, 46, 0
8, 47670, Note_on_c, 9, 42, 110
8, 47675, Note_on_c, 9, 42, 0
8, 47700, Note_on_c, 9, 42, 110
8, 47705, Note_on_c, 9, 42, 0
8, 47730, Note_on_c, 9, 46, 110
8, 47735, Note_on_c, 9, 46, 0
8, 47760, Note_on_c, 9, 46, 110
8, 47765, Note_on_c, 9, 46, 0
8, 47790, Note_on_c, 9, 42, 110
8, 47795, Note_on_c, 9, 42, 0
8, 47820, Note_on_c, 9, 42, 110
8, 47825, Note_on_c, 9, 42, 0
8, 47850, Note_on_c, 9, 46, 110
8, 47855, Note_on_c, 9, 46, 0
8, 47880, Note_on_c, 9, 46, 110
8, 47885, Note_on_c, 9, 46, 0
8, 47910, Note_on_c, 9, 42, 110
8, 47915, Note_on_c, 9, 42, 0
8, 47940, Note_on_c, 9, 42, 110
8, 47945, Note_on_c, 9, 42, 0
8, 47970, Note_on_c, 9, 46, 110
8, 47975, Note_on_c, 9, 46, 0
8, 48000, Note_on_c, 9, 46, 110
8, 48005, Note_on_c, 9, 46, 0
8, 48030, Note_on_c, 9, 42, 110
8, 48035, Note_on_c, 9, 42, 0
8, 48060, Note_on_c, 9, 42, 110
8, 48065, Note_on_c, 9, 42, 0
8, 48090, Note_on_c, 9, 46, 110
8, 48095, Note_on_c, 9, 46, 0
8, 48120, Note_on_c, 9, 46, 110
8, 48125, Note_on_c, 9, 46, 0
8, 48150, Note_on_c, 9, 42, 110
8, 48155, Note_on_c, 9, 42, 0
8, 48180, Note_on_c, 9, 42, 110
8, 48185, Note_on_c, 9, 42, 0
8, 48210, Note_on_c, 9, 46, 110
8, 48215, Note_on_c, 9, 46, 0
8, 48240, Note_on_c, 9, 46, 110
8, 48245, Note_on_c, 9, 46, 0
8, 48270, Note_on_c, 9, 42, 110
8, 48275, Note_on_c, 9, 42, 0
8, 48300, Note_on_c, 9, 42, 110
8, 48305, Note_on_c, 9, 42, 0
8, 48330, Note_on_c, 9, 46, 110
8, 48335, Note_on_c, 9, 46, 0
8, 48360, Note_on_c, 9, 46, 110
8, 48365, Note_on_c, 9, 46, 0
8, 48390, Note_on_c, 9, 42, 110
8, 48395, Note_on_c, 9, 42, 0
8, 48420, Note_on_c, 9, 42, 110
8, 48425, Note_on_c, 9, 42, 0
8, 48450, Note_on_c, 9, 46, 110
8, 48455, Note_on_c, 9, 46, 0
8, 48480, Note_on_c, 9, 46, 110
8, 48485, Note_on_c, 9, 46, 0
8, 48510, Note_on_c, 9, 42, 110
8, 48515, Note_on_c, 9, 42, 0
8, 48540, Note_on_c, 9, 42, 110
8, 48545, Note_on_c, 9, 42, 0
8, 48570, Note_on_c, 9, 46, 110
8, 48575, Note_on_c, 9, 46, 0
8, 48600, Note_on_c, 9, 46, 110
8, 48605, Note_on_c, 9, 46, 0
8, 48630, Note_on_c, 9, 42, 110
8, 48635, Note_on_c, 9, 42, 0
8, 48660, Note_on_c, 9, 42, 110
8, 48665, Note_on_c, 9, 42, 0
8, 48690, Note_on_c, 9, 46, 110
8, 48695, Note_on_c, 9, 46, 0
8, 48720, Note_on_c, 9, 46, 110
8, 48725, Note_on_c, 9, 46, 0
8, 48750, Note_on_c, 9, 42, 110
8, 48755, Note_on_c, 9, 42, 0
8, 48780, Note_on_c, 9, 42, 110
8, 48785, Note_on_c, 9, 42, 0
8, 48810, Note_on_c, 9, 46, 110
8, 48815, Note_on_c, 9, 46, 0
8, 48840, Note_on_c, 9, 46, 110
8, 48845, Note_on_c, 9, 46, 0
8, 48870, Note_on_c, 9, 42, 110
8, 48875, Note_on_c, 9, 42, 0
8, 48900, Note_on_c, 9, 42, 110
8, 48905, Note_on_c, 9, 42, 0
8, 48930, Note_on_c, 9, 46, 110
8, 48935, Note_on_c, 9, 46, 0
8, 48960, Note_on_c, 9, 46, 110
8, 48965, Note_on_c, 9, 46, 0
8, 48990, Note_on_c, 9, 42, 110
8, 48995, Note_on_c, 9, 42, 0
8, 49020, Note_on_c, 9, 42, 110
8, 49025, Note_on_c, 9, 42, 0
8, 49050, Note_on_c, 9, 46, 110
8, 49055, Note_on_c, 9, 46, 0
8, 49080, Note_on_c, 9, 46, 110
8, 49085, Note_on_c, 9, 46, 0
8, 49110, Note_on_c, 9, 42, 110
8, 49115, Note_on_c, 9, 42, 0
8, 49140, Note_on_c, 9, 42, 110
8, 49145, Note_on_c, 9, 42, 0
8, 49170, Note_on_c, 9, 46, 110
8, 49175, Note_on_c, 9, 46, 0
8, 49200, Note_on_c, 9, 46, 110
8, 49205, Note_on_c, 9, 46, 0
8, 49230, Note_on_c, 9, 42, 110
8, 49235, Note_on_c, 9, 42, 0
8, 49260, Note_on_c, 9, 42, 110
8, 49265, Note_on_c, 9, 42, 0
8, 49290, Note_on_c, 9, 46, 110
8, 49295, Note_on_c, 9, 46, 0
8, 49320, Note_on_c, 9, 46, 110
8, 49325, Note_on_c, 9, 46, 0
8, 49350, Note_on_c, 9, 42, 110
8, 49355, Note_on_c, 9, 42, 0
8, 49380, Note_on_c, 9, 42, 110
8, 49385, Note_on_c, 9, 42, 0
8, 49410, Note_on_c, 9, 46, 110
8, 49415, Note_on_c, 9, 46, 0
8, 49440, Note_on_c, 9, 46, 110
8, 49445, Note_on_c, 9, 46, 0
8, 49470, Note_on_c, 9, 42, 110
8, 49475, Note_on_c, 9, 42, 0
8, 49500, Note_on_c, 9, 42, 110
8, 49505, Note_on_c, 9, 42, 0
8, 49530, Note_on_c, 9, 46, 110
8, 49535, Note_on_c, 9, 46, 0
8, 49560, Note_on_c, 9, 46, 110
8, 49565, Note_on_c, 9, 46, 0
8, 49590, Note_on_c, 9, 42, 110
8, 49595, Note_on_c, 9, 42, 0
8, 49620, Note_on_c, 9, 42, 110
8, 49625, Note_on_c, 9, 42, 0
8, 49650, Note_on_c, 9, 46, 110
8, 49655, Note_on_c, 9, 46, 0
8, 49680, Note_on_c, 9, 46, 110
8, 49685, Note_on_c, 9, 46, 0
8, 49710, Note_on_c, 9, 42, 110
8, 49715, Note_on_c, 9, 42, 0
8, 49740, Note_on_c, 9, 42, 110
8, 49745, Note_on_c, 9, 42, 0
8, 49770, Note_on_c, 9, 46, 110
8, 49775, Note_on_c, 9, 46, 0
8, 49800, Note_on_c, 9, 46, 110
8, 49805, Note_on_c, 9, 46, 0
8, 49830, Note_on_c, 9, 42, 110
8, 49835, Note_on_c, 9, 42, 0
8, 49860, Note_on_c, 9, 42, 110
8, 49865, Note_on_c, 9, 42, 0
8, 49890, Note_on_c, 9, 46, 110
8, 49895, Note_on_c, 9, 46, 0
8, 49920, Note_on_c, 9, 46, 110
8, 49925, Note_on_c, 9, 46, 0
8, 49950, Note_on_c, 9, 42, 110
8, 49955, Note_on_c, 9, 42, 0
8, 49980, Note_on_c, 9, 42, 110
8, 49985, Note_on_c, 9, 42, 0
8, 50010, Note_on_c, 9, 46, 110
8, 50015, Note_on_c, 9, 46, 0
8, 50040, Note_on_c, 9, 46, 110
8, 50045, Note_on_c, 9, 46, 0
8, 50070, Note_on_c, 9, 42, 110
8, 50075, Note_on_c, 9, 42, 0
8, 50100, Note_on_c, 9, 42, 110
8, 50105, Note_on_c, 9, 42, 0
8, 50130, Note_on_c, 9, 46, 110
8, 50135, Note_on_c, 9, 46, 0
8, 50160, Note_on_c, 9, 46, 110
8, 50165, Note_on_c, 9, 46, 0
8, 50190, Note_on_c, 9, 42, 110
8, 50195, Note_on_c, 9, 42, 0
8, 50220, Note_on_c, 9, 42, 110
8, 50225, Note_on_c, 9, 42, 0
8, 50250, Note_on_c, 9, 46, 110
8, 50255, Note_on_c, 9, 46, 0
8, 50280, Note_on_c, 9, 46, 110
8, 50285, Note_on_c, 9, 46, 0
8, 50310, Note_on_c, 9, 42, 110
8, 50315, Note_on_c, 9, 42, 0
8, 50340, Note_on_c, 9, 42, 110
8, 50345, Note_on_c, 9, 42, 0
8, 50370, Note_on_c, 9, 46, 110
8, 50375, Note_on_c, 9, 46, 0
8, 50400, Note_on_c, 9, 46, 110
8, 50405, Note_on_c, 9, 46, 0
8, 54810, Control_c, 9, 0, 0
8, 54810, Program_c, 9, 8
8, 54810, Control_c, 9, 7, 127
8, 54810, Control_c, 9, 91, 100
8, 54810, Control_c, 9, 93, 0
8, 54810, Control_c, 9, 119, 0
8, 54810, Control_c, 9, 121, 0
8, 54810, End_track
9, 0, Start_track
9, 0, MIDI_port, 0
9, 0, Title_t, "WinJammer Demo"
9, 54810, Control_c, 6, 0, 0
9, 54810, Program_c, 6, 0
9, 54810, Control_c, 6, 7, 127
9, 54810, Control_c, 6, 91, 80
9, 54810, Control_c, 6, 93, 0
9, 54810, Control_c, 6, 119, 0
9, 54810, Control_c, 6, 121, 0
9, 54810, End_track
10, 0, Start_track
10, 0, MIDI_port, 0
10, 0, Title_t, "WinJammer Demo"
10, 54810, Control_c, 8, 0, 0
10, 54810, Program_c, 8, 0
10, 54810, Control_c, 8, 7, 127
10, 54810, Control_c, 8, 91, 80
10, 54810, Control_c, 8, 93, 0
10, 54810, Control_c, 8, 119, 0
10, 54810, Control_c, 8, 121, 0
10, 54810, End_track
11, 0, Start_track
11, 0, MIDI_port, 0
11, 0, Title_t, "WinJammer Demo"
11, 54810, Control_c, 9, 0, 0
11, 54810, Program_c, 9, 8
11, 54810, Control_c, 9, 7, 127
11, 54810, Control_c, 9, 91, 100
11, 54810, Control_c, 9, 93, 0
11, 54810, End_track
12, 0, Start_track
12, 0, MIDI_port, 0
12, 0, Title_t, "WinJammer Demo"
12, 54810, Control_c, 10, 0, 0
12, 54810, Program_c, 10, 0
12, 54810, Control_c, 10, 7, 127
12, 54810, Control_c, 10, 91, 80
12, 54810, Control_c, 10, 93, 0
12, 54810, Control_c, 10, 119, 0
12, 54810, Control_c, 10, 121, 0
12, 54810, End_track
13, 0, Start_track
13, 0, MIDI_port, 0
13, 0, Title_t, "WinJammer Demo"
13, 54810, Control_c, 11, 0, 0
13, 54810, Program_c, 11, 0
13, 54810, Control_c, 11, 7, 127
13, 54810, Control_c, 11, 91, 80
13, 54810, Control_c, 11, 93, 0
13, 54810, Control_c, 11, 119, 0
13, 54810, Control_c, 11, 121, 0
13, 54810, End_track
14, 0, Start_track
14, 0, MIDI_port, 0
14, 0, Title_t, "WinJammer Demo"
14, 54810, Control_c, 12, 0, 0
14, 54810, Program_c, 12, 0
14, 54810, Control_c, 12, 7, 127
14, 54810, Control_c, 12, 91, 80
14, 54810, Control_c, 12, 93, 0
14, 54810, Control_c, 12, 119, 0
14, 54810, Control_c, 12, 121, 0
14, 54810, End_track
15, 0, Start_track
15, 0, MIDI_port, 0
15, 0, Title_t, "WinJammer Demo"
15, 54810, Control_c, 13, 0, 0
15, 54810, Program_c, 13, 0
15, 54810, Control_c, 13, 7, 127
15, 54810, Control_c, 13, 91, 80
15, 54810, Control_c, 13, 93, 0
15, 54810, Control_c, 13, 119, 0
15, 54810, Control_c, 13, 121, 0
15, 54810, End_track
16, 0, Start_track
16, 0, MIDI_port, 0
16, 0, Title_t, "modified for the GUS "
16, 0, End_track
17, 0, Start_track
17, 0, MIDI_port, 0
17, 0, Title_t, "by CF - ITALY"
17, 0, End_track
18, 0, Start_track
18, 0, MIDI_port, 0
18, 0, Title_t, "GUS rulez!!"
18, 0, End_track
0, 0, End_of_file
