<?xml version="1.0" encoding="utf-8"?>
<!-- Generator: Adobe Illustrator 15.0.0, SVG Export Plug-In . SVG Version: 6.00 Build 0)  -->
<!DOCTYPE svg PUBLIC "-//W3C//DTD SVG 1.1//EN" "http://www.w3.org/Graphics/SVG/1.1/DTD/svg11.dtd">
<svg version="1.1" id="Ebene_1" xmlns="http://www.w3.org/2000/svg" xmlns:xlink="http://www.w3.org/1999/xlink" x="0px" y="0px"
	 width="340.158px" height="340.157px" viewBox="0 0 340.158 340.157" enable-background="new 0 0 340.158 340.157"
	 xml:space="preserve">
<g>
	<g>
		<polygon fill="#FFFFFF" stroke="#010202" stroke-width="7" stroke-miterlimit="10" points="192.412,252.246 19.412,252.246 
			19.412,3.245 154.79,3.245 192.412,40.245 		"/>
		<g>
			
				<rect x="3.079" y="143.496" fill="#020304" stroke="#010202" stroke-width="7" stroke-miterlimit="10" width="168.333" height="65.999"/>
			<text transform="matrix(1 0 0 1 13.0786 195.9951)" fill="#FFFFFF" font-family="'C64User-Style'" font-size="48">MIDI</text>
			
				<text transform="matrix(1 0 0 1 13.0786 195.9951)" fill="none" stroke="#010202" stroke-miterlimit="10" font-family="'C64User-Style'" font-size="48">MIDI</text>
		</g>
	</g>
</g>
<g>
	<polygon fill="#FFFFFF" stroke="#000000" stroke-width="7" stroke-miterlimit="10" points="336.01,336.746 163.01,336.746 
		163.01,87.745 298.387,87.745 336.01,124.744 	"/>
	
		<image overflow="visible" width="275" height="191" xlink:href="D0D5667E.jpg"  transform="matrix(0.6014 0 0 0.6014 166.8218 213.8975)">
	</image>
	<g>
		<path fill="#CAC9C9" stroke="#FFFFFF" stroke-miterlimit="10" d="M249.029,125.216c2.901-0.532,6.344,0.203,8.139,1.822
			c2.3-1.093,5.931-0.492,7.532,0.85c1.739-1.422,3.235-2.951,5.831-3.28c5.693-0.72,9.293,3.515,9.962,8.261
			c3.073,0.439,5.83,2.511,5.466,6.438c-0.273,2.955-1.724,5.675-2.915,8.99c-2.165,6.023-2.745,12.386-9.962,12.999
			c-0.904,1.444-1.858,2.838-2.915,4.13c1.961,4.276-1.586,7.305-4.009,9.111c1.111,0.789,2.03-0.341,3.037-0.607
			c4.448-1.18,8.817,1.502,10.204,4.616c1.042,0.611,1.937,1.103,2.551,1.944c2.34,3.198-0.215,7.048-2.308,8.99
			c1.861,8.617-1.45,16.413-8.868,17.615c-1.931,0.313-3.528-0.013-4.98-0.729c-0.421-0.208-1.447-0.973-1.458-0.972
			c-0.36,0.038-1.489,2.118-2.065,2.794c-2.055,2.413-4.785,5.125-9.354,5.102c-5.071-0.025-9.085-3.719-8.626-9.476
			c0.099-1.229,0.48-2.25,0.851-3.28c0.324-0.901,1.005-1.905,0.729-2.916c-0.756-0.247-1.319,0.124-2.065,0.122
			c-0.544-0.002-1.123-0.301-1.579-0.243c-0.699,0.088-1.579,1.137-2.309,1.458c-1.172,0.515-2.749,0.239-3.766,0.607
			c-0.482,0.175-0.978,1.06-1.337,1.458c-2.371,2.632-6.901,3.165-9.84,0.364c-0.462-0.44-0.96-1.967-1.7-2.187
			c-1.16-0.343-2.192,1.108-2.916,1.458c-0.775,0.375-1.866,0.602-2.672,0.607c-5.819,0.04-8.276-5.563-8.261-10.812
			c0.018-6.371,2.794-11.037,4.009-16.278c-4.938-0.872-7.439-9.558-2.188-11.905c-1.3-7.361,2.85-12.841,7.047-16.521
			c3.508-3.077,7.529-5.756,11.176-7.653c1.987-5.383,3.841-10.898,4.737-17.372c-3.479,2.275-6.074,5.201-7.531,9.354
			c-0.535,1.525-0.37,3.258-0.851,5.102c-0.633,2.43-2.795,4.493-6.195,4.252c-5.211-0.369-7.894-4.61-7.168-10.69
			c0.705-5.901,4.167-11.212,8.14-15.185c4.262-4.262,9.114-8.183,15.428-8.382c0.995-0.031,2.046,0.045,3.037,0.243
			C247.116,107.022,251.116,115.317,249.029,125.216z M244.169,117.685c-0.328-4.263-3.823-7.705-8.868-7.167
			c-4.882,0.52-9.336,4.652-12.27,8.139c-1.392,1.654-2.916,3.753-4.009,6.196c-1.052,2.35-3.199,9.52,1.458,9.354
			c0.562-0.773,0.262-1.668,0.364-2.551c0.55-4.743,3.576-9.127,6.316-12.027c2.976-3.146,6.865-6.308,12.148-6.074
			c1.141,4.83-0.101,10.797-1.458,15.914c-0.788,2.972-1.914,6.335-2.915,9.111c-0.39,1.081-0.698,2.389-1.094,2.916
			c-0.514,0.684-1.846,1.053-2.794,1.579c-2.964,1.646-5.396,3.484-7.774,5.467c-3.016,2.513-6.722,5.518-7.168,10.447
			c-0.336,3.716,3.173,6.055,6.925,5.103c1.374-0.349,3.241-1.65,4.13-2.43c5.45-4.78,9.068-14.099,12.27-20.895
			c0.89-0.205,1.927-0.907,2.673-0.85c-1.059,2.023-2.909,6.898-0.972,9.232c2.595,3.126,5.599-1.805,6.803-3.523
			c1.281-1.828,2.195-3.907,3.645-4.859c-0.809,2.99-3.727,7.883-3.037,12.027c0.233,1.403,1.572,3.208,3.523,2.672
			c1.454-0.399,2.415-4.215,3.037-5.709c0.962-2.313,1.624-4.315,2.672-6.195c0.195,3.773,0.206,7.731,4.374,7.532
			c2.556-2.557,3.226-7.298,4.616-11.298c0.538-1.548,1.122-3.126,1.822-4.495c0.699-1.366,1.447-2.817,2.672-3.645
			c0.037,6.27-1.99,12.085-1.579,18.708c0.106,1.701,0.504,4.758,1.822,5.467c1.872,1.006,3.64-0.765,4.252-1.944
			c1.102-2.12,1.543-5.153,2.551-7.896c1.055-2.868,2.429-5.544,2.188-7.775c-1.553,0.201-1.776,2.242-2.188,3.401
			c-1.465,4.134-2.773,8.681-4.737,12.148c-0.735-6.781,2.378-12.759,1.822-19.437c-0.205-2.459-1.661-5.388-4.859-4.373
			c-1.078,0.342-2.348,2.062-3.037,3.28c-2.363,4.178-3.643,9.703-5.224,13.849c-0.18-4.474,1.353-10.552,0-14.699
			c-0.69-0.398-2.061-1.014-2.915-0.486c-1.258,2.445-0.406,5.555-1.215,8.139c-0.293,0.935-1.109,1.915-1.58,2.916
			c-1.009,2.15-1.9,4.24-2.794,6.195c-0.442,0.969-0.754,2.099-1.579,2.673c1.18-3.031,2.264-7.204,3.158-10.69
			c0.545-2.123,1.542-6.203-1.457-5.831c-0.914,0.113-2.151,1.993-2.794,2.794c-0.984,1.227-1.703,2.249-2.43,3.159
			c-1.745,2.184-3.232,4.536-5.103,5.831c1.634-5.29,3.838-10.339,7.653-13.484c0.566-0.467,1.179-0.909,1.943-1.094
			c1.069,0.308,0.946,1.808,2.43,1.701c0.233-2.062-1.59-3.39-3.158-3.766c-4.967-1.189-7.289,5.563-9.597,7.896
			c-1.062,0.072-1.763,0.505-2.795,0.607C241.641,133.338,244.742,125.114,244.169,117.685z M260.448,167.127
			c2.837-1.705,8.143-6.416,8.504-10.326c0.401-4.345-4.148-2.955-5.831-1.579c-2.505,2.048-4.719,6-6.074,9.232
			c-1.048,2.499-1.257,5.111-3.766,5.831c0.681-2.272,2.034-4.003,1.457-7.046c-0.801-4.226-6.421-3.51-8.139-1.093
			c-0.732,1.03-0.542,2.104-0.851,3.523c-0.329,1.513-1.104,2.743-1.093,4.252c0.013,1.99,0.943,3.667,2.43,4.252
			c3.646,1.435,4.334-1.997,5.952-3.159c0.633-0.455,1.645-0.648,2.187-0.972c-0.247,1.814-1.008,4.625-0.851,7.41
			c0.106,1.875,0.734,4.783,2.916,4.252c1.327-0.324,2.529-4.337,2.187-6.682c-0.147-1.005-0.727-1.482-0.851-2.43
			c2.472-1.375,5.332-2.362,6.803-4.738c-0.798-0.205-1.287,0.657-1.822,1.093c-1.747,1.426-4.102,2.587-6.195,3.159
			c0.268-1.393,0.657-2.663,0.972-4.009C258.872,167.694,259.754,167.544,260.448,167.127z M238.825,154.129
			c-1.021,2.339-2.474,4.249-3.767,6.317c2.211,0.583,4.107,1.481,5.71,2.672c0.442-2.918,2.09-4.632,3.766-6.317
			c-0.275-0.453-0.43-1.028-0.729-1.458C241.775,155.774,240.389,154.563,238.825,154.129z M233.6,178.182
			c1.888-2.146,4.804-6.247,4.374-9.719c-0.242-1.953-3.897-3.124-5.953-3.28c-2.634-0.2-6.425,0.027-8.503,0.243
			c-3.375,0.351-7.146,1.022-10.083,1.701c0.562,3.839,5.324,0.767,8.018,1.215c-1.116,3.026-2.72,6.572-4.009,10.447
			c-1.242,3.733-2.797,8.028-2.794,11.784c0.002,2.625,0.864,5.787,3.522,5.224c-0.223-0.865-0.745-1.829-0.729-3.159
			c0.024-2.035,0.912-4.569,1.457-6.803c0.53-2.169,1.292-4.388,1.944-6.317c1.453-4.299,3.093-8.447,4.737-11.905
			c2.123-0.226,4.198-0.5,6.561-0.486c-4.521,3.371-7.696,9.665-9.598,16.278c-0.966,3.363-3.438,10.149,1.337,10.569
			c2.084-2.669,2.951-7.342,5.467-9.111c-0.434,2.919-2.17,7.045-1.701,10.448c0.178,1.292,0.981,3.067,2.551,2.794
			c1.166-0.203,1.718-2.394,2.188-3.523c0.63-1.518,1.021-2.977,1.7-4.13c0.267,1.524,0.395,2.894,1.336,3.523
			c3.402,2.271,4.83-4.373,6.074-6.074c0.038,2.165,0.481,4.828,2.552,4.616c1.912-0.196,2.593-4.839,3.279-6.924
			c0.983-2.987,2.032-5.572,3.523-6.56c-0.12,3.69-1.059,7.974-1.094,12.027c-0.016,1.862,0.162,4.645,1.822,4.859
			c3.212,0.414,2.76-4.618,4.131-6.438c0.975,2.746,4.393,1.367,5.345-0.122c-0.591,1.333-1.976,2.155-3.158,3.158
			c-3.099,2.628-7.409,6.548-8.261,10.812c-0.38,1.9,0.065,3.486,1.093,4.13c3.153,1.977,6.606-1.392,7.896-3.037
			c2.115-2.698,2.967-6.727,4.009-10.447c0.529-1.887,0.761-4.196,1.701-5.588c0.465-0.688,1.502-1.207,2.187-1.822
			c0.719-0.646,1.269-1.439,2.187-1.822c-0.034,1.831,2.096,3.565,1.943,5.224c-0.092,1.001-1.704,2.556-2.308,3.523
			c-1.004,1.608-3.221,5.609-1.215,7.774c1.853,2,5.701-0.369,6.682-1.943c1.815-2.916,1.188-8.055-0.122-11.055
			c0.613-0.703,1.21-1.622,1.944-2.43c0.663-0.731,1.895-1.436,1.7-2.308c-1.025-0.152-1.585,0.928-2.187,1.579
			c-0.656,0.711-1.279,1.605-2.187,1.944c-0.888-1.652-1.969-5.1-0.121-6.438c0.757,0.134,0.644,1.137,1.7,0.972
			c0.559-2.201-3.096-3.34-4.859-2.187c-1.196,0.782-1.303,2.357-1.215,4.009c-1.051,1.055-2.012,2.199-3.401,2.916
			c0.487-1.107,1.631-3.964-0.364-3.887c-1.005,0.039-1.331,1.691-1.943,2.672c-1.145,1.833-3.536,4.15-4.738,4.738
			c0.164-1.803,0.681-3.833,1.822-5.588c0.82-1.26,2.639-3.58,4.009-3.523c0.821,0.034,1.121,1.138,2.065,0.851
			c0.181-2.804-4.411-2.96-6.195-1.822c-4.145,2.643-4.754,10.571-7.289,14.578c-0.44-3.981,1.48-8.897,1.336-13.12
			c-0.066-1.954-0.868-3.838-2.915-3.645c-1.99,0.188-3.324,3.613-4.131,5.588c-0.914,2.242-1.277,4.715-2.187,6.438
			c-0.493-2.641,2.377-11.209-1.943-10.69c-0.957,1.844-0.362,3.924-0.851,5.952c-0.166,0.687-0.757,1.442-1.094,2.187
			c-1.04,2.299-1.947,5.014-3.644,6.074c-0.164-5.106,2.189-8.334,1.822-13.241c-2.644-1.867-3.328,1.711-3.767,3.645
			c-0.44,1.945-0.863,3.361-1.336,4.738c-1.188,3.458-1.956,6.65-3.645,8.503c-0.186-3.471,1.565-7.321,1.822-10.569
			c0.146-1.834-0.424-3.384-2.187-3.037c-3.163,0.624-4.224,7.253-6.074,8.625c0.314-2.884,0.813-5.584,1.7-7.896
			C228.758,182.925,231.141,180.979,233.6,178.182z M239.674,177.817c-0.445-1.561,0.746-2.258,0.729-3.766
			C237.247,171.611,235.804,178.745,239.674,177.817z"/>
		<path fill="#CAC9C9" stroke="#FFFFFF" stroke-miterlimit="10" d="M219.751,161.903c-1.633-5.146,1.74-8.665,4.616-11.541
			c2.542-2.542,5.393-4.365,7.896-5.953c0.196-0.034,0.209,0.115,0.364,0.122C229.338,151.324,226.442,158.511,219.751,161.903z"/>
		<path fill="#CAC9C9" stroke="#FFFFFF" stroke-miterlimit="10" d="M267.737,154.979c0.819,3.237-1.321,5.487-2.916,7.167
			c-1.673,1.763-3.476,3.826-5.831,4.616c1.913-4.849,3.772-9.753,8.383-11.905c0.104-0.022,0.114,0.047,0.121,0.122
			C267.575,154.979,267.656,154.979,267.737,154.979z"/>
		<path fill="#CAC9C9" stroke="#FFFFFF" stroke-miterlimit="10" d="M251.944,170.529c-2.083-0.184-3.301-1.234-4.13-2.673
			c0.142-0.952,0.521-1.666,0.729-2.551c-0.095-0.472-0.789-0.345-1.093-0.607c0.291-1.978,2.628-4.683,4.494-3.28
			C254.335,163.215,253.207,168.276,251.944,170.529z"/>
		<path fill="#CAC9C9" stroke="#FFFFFF" stroke-miterlimit="10" d="M236.395,167.613c0.569,3.937-1.574,7.077-3.401,9.476
			c-1.871,2.454-4.329,4.821-7.411,5.831c1.474-4.716,4.092-10.757,7.532-13.971C233.931,168.187,234.993,167.343,236.395,167.613z"
			/>
		<path fill="#CAC9C9" stroke="#FFFFFF" stroke-miterlimit="10" d="M247.45,169.436c1.22,0.724,2.397,1.49,4.13,1.701
			c-0.731,1.049-1.454,2.758-2.915,2.551C247.227,173.483,247.149,171.281,247.45,169.436z"/>
		<path fill="#CAC9C9" stroke="#FFFFFF" stroke-miterlimit="10" d="M257.167,173.08c1.846,1.458,0.929,5.524-0.242,7.046
			C256.406,177.856,256.883,175.264,257.167,173.08z"/>
		<path fill="#CAC9C9" stroke="#FFFFFF" stroke-miterlimit="10" d="M271.017,191.788c0.777,0.761,0.414,2.663,0.729,3.887
			c-0.857-0.074-1.532-0.331-2.551-0.243C269.512,193.928,270.386,192.98,271.017,191.788z"/>
		<path fill="#CAC9C9" stroke="#FFFFFF" stroke-miterlimit="10" d="M252.187,206.608c-1.85-3.081,0.281-6.143,1.943-8.382
			c1.922-2.587,4.001-4.666,6.074-6.317C258.776,197.567,257.226,204.156,252.187,206.608z"/>
		<path fill="#CAC9C9" stroke="#FFFFFF" stroke-miterlimit="10" d="M271.502,196.647c0.387,1.805-0.673,3.214-1.7,4.009
			c-1.18-0.382-1.42-2.275-1.094-3.766C269.611,196.78,270.984,197.141,271.502,196.647z"/>
	</g>
</g>
<path stroke="#FFFFFF" stroke-miterlimit="10" d="M155.625,302.798l-43.042-31.599v17.688c0,0-71.171,10.719-85.353-28.931
	c-17.284,61.217,85.353,56.754,85.353,56.754v14.749L155.625,302.798z"/>
</svg>
